<?xml version="1.0" encoding="UTF-8" standalone="no"?>
<!DOCTYPE svg PUBLIC "-//W3C//DTD SVG 1.1//EN"
 "http://www.w3.org/Graphics/SVG/1.1/DTD/svg11.dtd">
<!-- Generated by graphviz version 2.43.0 (0)
 -->
<!-- Title: RegSomeIfff_F2 Pages: 1 -->
<svg width="296pt" height="241pt"
 viewBox="0.00 0.00 296.00 241.00" xmlns="http://www.w3.org/2000/svg" xmlns:xlink="http://www.w3.org/1999/xlink">
<g id="graph0" class="graph" transform="scale(1 1) rotate(0) translate(4 237)">
<title>RegSomeIfff_F2</title>
<polygon fill="white" stroke="transparent" points="-4,4 -4,-237 292,-237 292,4 -4,4"/>
<!-- Node1 -->
<g id="node1" class="node">
<title>Node1</title>
<g id="a_node1"><a xlink:title=" ">
<polygon fill="#bfbfbf" stroke="black" points="87,-0.5 87,-19.5 181,-19.5 181,-0.5 87,-0.5"/>
<text text-anchor="middle" x="134" y="-7.5" font-family="Helvetica,sans-Serif" font-size="10.00">RegSomeIfff_F2</text>
</a>
</g>
</g>
<!-- Node2 -->
<g id="node2" class="node">
<title>Node2</title>
<g id="a_node2"><a xlink:href="struct_scalar_defaults.html" target="_top" xlink:title=" ">
<polygon fill="white" stroke="black" points="40,-57.5 40,-76.5 228,-76.5 228,-57.5 40,-57.5"/>
<text text-anchor="middle" x="134" y="-64.5" font-family="Helvetica,sans-Serif" font-size="10.00">ScalarDefaults&lt; RegSomeIfff_F2 &gt;</text>
</a>
</g>
</g>
<!-- Node2&#45;&gt;Node1 -->
<g id="edge1" class="edge">
<title>Node2&#45;&gt;Node1</title>
<path fill="none" stroke="midnightblue" d="M134,-47.12C134,-37.82 134,-27.06 134,-19.71"/>
<polygon fill="midnightblue" stroke="midnightblue" points="130.5,-47.41 134,-57.41 137.5,-47.41 130.5,-47.41"/>
</g>
<!-- Node3 -->
<g id="node3" class="node">
<title>Node3</title>
<g id="a_node3"><a xlink:href="struct_all_register_defaults.html" target="_top" xlink:title=" ">
<polygon fill="white" stroke="black" points="0,-124.5 0,-154.5 116,-154.5 116,-124.5 0,-124.5"/>
<text text-anchor="start" x="8" y="-142.5" font-family="Helvetica,sans-Serif" font-size="10.00">AllRegisterDefaults</text>
<text text-anchor="middle" x="58" y="-131.5" font-family="Helvetica,sans-Serif" font-size="10.00">&lt; RegSomeIfff_F2 &gt;</text>
</a>
</g>
</g>
<!-- Node3&#45;&gt;Node2 -->
<g id="edge2" class="edge">
<title>Node3&#45;&gt;Node2</title>
<path fill="none" stroke="midnightblue" d="M81.03,-117.14C95.57,-103.65 113.58,-86.94 124.41,-76.89"/>
<polygon fill="midnightblue" stroke="midnightblue" points="78.33,-114.87 73.38,-124.23 83.09,-120 78.33,-114.87"/>
</g>
<!-- Node4 -->
<g id="node4" class="node">
<title>Node4</title>
<g id="a_node4"><a xlink:href="struct_all_register_defaults.html" target="_top" xlink:title=" ">
<polygon fill="white" stroke="black" points="78.5,-202.5 78.5,-232.5 189.5,-232.5 189.5,-202.5 78.5,-202.5"/>
<text text-anchor="start" x="86.5" y="-220.5" font-family="Helvetica,sans-Serif" font-size="10.00">AllRegisterDefaults</text>
<text text-anchor="middle" x="134" y="-209.5" font-family="Helvetica,sans-Serif" font-size="10.00">&lt; DERIVED &gt;</text>
</a>
</g>
</g>
<!-- Node4&#45;&gt;Node3 -->
<g id="edge3" class="edge">
<title>Node4&#45;&gt;Node3</title>
<path fill="none" stroke="orange" stroke-dasharray="5,2" d="M99.91,-196.68C94.61,-192.84 89.43,-188.57 85,-184 76.71,-175.45 69.7,-163.93 64.9,-154.9"/>
<polygon fill="orange" stroke="orange" points="98.01,-199.63 108.25,-202.36 101.95,-193.84 98.01,-199.63"/>
<text text-anchor="middle" x="136.5" y="-176" font-family="Helvetica,sans-Serif" font-size="10.00"> &lt; RegSomeIfff_F2 &gt;</text>
</g>
<!-- Node5 -->
<g id="node5" class="node">
<title>Node5</title>
<g id="a_node5"><a xlink:href="struct_scalar_defaults.html" target="_top" xlink:title=" ">
<polygon fill="white" stroke="black" points="134,-130 134,-149 288,-149 288,-130 134,-130"/>
<text text-anchor="middle" x="211" y="-137" font-family="Helvetica,sans-Serif" font-size="10.00">ScalarDefaults&lt; DERIVED &gt;</text>
</a>
</g>
</g>
<!-- Node4&#45;&gt;Node5 -->
<g id="edge5" class="edge">
<title>Node4&#45;&gt;Node5</title>
<path fill="none" stroke="midnightblue" d="M172.64,-196.85C178.18,-193.05 183.51,-188.75 188,-184 197.75,-173.7 204.52,-158.47 208.08,-149.03"/>
<polygon fill="midnightblue" stroke="midnightblue" points="170.43,-194.11 163.85,-202.41 174.17,-200.02 170.43,-194.11"/>
</g>
<!-- Node5&#45;&gt;Node2 -->
<g id="edge4" class="edge">
<title>Node5&#45;&gt;Node2</title>
<path fill="none" stroke="orange" stroke-dasharray="5,2" d="M194.16,-123.08C178.64,-108.87 156.14,-88.27 143.52,-76.72"/>
<polygon fill="orange" stroke="orange" points="191.82,-125.68 201.56,-129.86 196.55,-120.52 191.82,-125.68"/>
<text text-anchor="middle" x="225.5" y="-98" font-family="Helvetica,sans-Serif" font-size="10.00"> &lt; RegSomeIfff_F2 &gt;</text>
</g>
</g>
</svg>
