<?xml version="1.0" encoding="UTF-8" standalone="no"?>
<!DOCTYPE svg PUBLIC "-//W3C//DTD SVG 1.1//EN"
 "http://www.w3.org/Graphics/SVG/1.1/DTD/svg11.dtd">
<!-- Generated by graphviz version 2.40.1 (20161225.0304)
 -->
<!-- Title: ChimeraTK::DoocsBackendIFFFRegisterAccessor::~DoocsBackendIFFFRegisterAccessor Pages: 1 -->
<!--zoomable 269 -->
<svg id="main" version="1.1" xmlns="http://www.w3.org/2000/svg" xmlns:xlink="http://www.w3.org/1999/xlink" xml:space="preserve" onload="init(evt)">
<style type="text/css"><![CDATA[
.edge:hover path { stroke: red; }
.edge:hover polygon { stroke: red; fill: red; }
]]></style>
<script type="text/javascript"><![CDATA[
var edges = document.getElementsByTagName('g');
if (edges && edges.length) {
  for (var i=0;i<edges.length;i++) {
    if (edges[i].id.substr(0,4)=='edge') {
      edges[i].setAttribute('class','edge');
    }
  }
}
]]></script>
        <defs>
                <circle id="rim" cx="0" cy="0" r="7"/>
                <circle id="rim2" cx="0" cy="0" r="3.5"/>
                <g id="zoomPlus">
                        <use xlink:href="#rim" fill="#404040">
                                <set attributeName="fill" to="#808080" begin="zoomplus.mouseover" end="zoomplus.mouseout"/>
                        </use>
                        <path d="M-4,0h8M0,-4v8" fill="none" stroke="white" stroke-width="1.5" pointer-events="none"/>
                </g>
                <g id="zoomMin">
                        <use xlink:href="#rim" fill="#404040">
                                <set attributeName="fill" to="#808080" begin="zoomminus.mouseover" end="zoomminus.mouseout"/>
                        </use>
                        <path d="M-4,0h8" fill="none" stroke="white" stroke-width="1.5" pointer-events="none"/>
                </g>
                <g id="dirArrow">
                        <path fill="none" stroke="white" stroke-width="1.5" d="M0,-3.0v7 M-2.5,-0.5L0,-3.0L2.5,-0.5"/>
                </g>
               <g id="resetDef">
                       <use xlink:href="#rim2" fill="#404040">
                               <set attributeName="fill" to="#808080" begin="reset.mouseover" end="reset.mouseout"/>
                       </use>
               </g>
        </defs>

<script type="text/javascript">
var viewWidth = 1159;
var viewHeight = 269;
var sectionId = 'dynsection-2';
</script>
<script xlink:href="svgpan.js"/>
<svg id="graph" class="graph">
<g id="viewport">
<title>ChimeraTK::DoocsBackendIFFFRegisterAccessor::~DoocsBackendIFFFRegisterAccessor</title>
<polygon fill="#ffffff" stroke="transparent" points="-4,4 -4,-264.5 1155,-264.5 1155,4 -4,4"/>
<!-- Node0 -->
<g id="node1" class="node">
<title>Node0</title>
<polygon fill="#bfbfbf" stroke="#000000" points="0,-175 0,-205 248,-205 248,-175 0,-175"/>
<text text-anchor="start" x="8" y="-193" font-family="Helvetica,sans-Serif" font-size="10.00" fill="#000000">ChimeraTK::DoocsBackendIFFFRegister</text>
<text text-anchor="middle" x="124" y="-182" font-family="Helvetica,sans-Serif" font-size="10.00" fill="#000000">Accessor::~DoocsBackendIFFFRegisterAccessor</text>
</g>
<!-- Node1 -->
<g id="node2" class="node">
<title>Node1</title>
<g id="a_node2"><a xlink:href="class_chimera_t_k_1_1_doocs_backend_register_accessor.html#a14e6481ebb423ffab7c49078e87fe6cf" target="_top" xlink:title="All implementations must call this function in their destructor. ">
<polygon fill="#ffffff" stroke="#000000" points="284,-175 284,-205 472,-205 472,-175 284,-175"/>
<text text-anchor="start" x="292" y="-193" font-family="Helvetica,sans-Serif" font-size="10.00" fill="#000000">ChimeraTK::DoocsBackendRegister</text>
<text text-anchor="middle" x="378" y="-182" font-family="Helvetica,sans-Serif" font-size="10.00" fill="#000000">Accessor::shutdown</text>
</a>
</g>
</g>
<!-- Node0&#45;&gt;Node1 -->
<g id="edge1" class="edge">
<title>Node0&#45;&gt;Node1</title>
<path fill="none" stroke="#191970" d="M248.0237,-190C256.6184,-190 265.2314,-190 273.7049,-190"/>
<polygon fill="#191970" stroke="#191970" points="273.9611,-193.5001 283.9611,-190 273.9611,-186.5001 273.9611,-193.5001"/>
</g>
<!-- Node2 -->
<g id="node3" class="node">
<title>Node2</title>
<g id="a_node3"><a xlink:href="class_chimera_t_k_1_1_doocs_backend_namespace_1_1_z_m_q_subscription_manager.html#ae8d8452b5bf527ab0a52a51f10ddc1b6" target="_top" xlink:title="ChimeraTK::DoocsBackendNamespace\l::ZMQSubscriptionManager::getInstance">
<polygon fill="#ffffff" stroke="#000000" points="508,-153 508,-183 718,-183 718,-153 508,-153"/>
<text text-anchor="start" x="516" y="-171" font-family="Helvetica,sans-Serif" font-size="10.00" fill="#000000">ChimeraTK::DoocsBackendNamespace</text>
<text text-anchor="middle" x="613" y="-160" font-family="Helvetica,sans-Serif" font-size="10.00" fill="#000000">::ZMQSubscriptionManager::getInstance</text>
</a>
</g>
</g>
<!-- Node1&#45;&gt;Node2 -->
<g id="edge2" class="edge">
<title>Node1&#45;&gt;Node2</title>
<path fill="none" stroke="#191970" d="M472.2294,-181.1785C480.6731,-180.388 489.2838,-179.5819 497.8776,-178.7774"/>
<polygon fill="#191970" stroke="#191970" points="498.3169,-182.2517 507.9471,-177.8347 497.6644,-175.2822 498.3169,-182.2517"/>
</g>
<!-- Node5 -->
<g id="node6" class="node">
<title>Node5</title>
<g id="a_node6"><a xlink:href="class_chimera_t_k_1_1_doocs_backend_namespace_1_1_z_m_q_subscription_manager.html#a1b05e96e439a7650f00c057ce739502c" target="_top" xlink:title="Unregister accessor subscription. ">
<polygon fill="#ffffff" stroke="#000000" points="754,-230 754,-260 966,-260 966,-230 754,-230"/>
<text text-anchor="start" x="762" y="-248" font-family="Helvetica,sans-Serif" font-size="10.00" fill="#000000">ChimeraTK::DoocsBackendNamespace</text>
<text text-anchor="middle" x="860" y="-237" font-family="Helvetica,sans-Serif" font-size="10.00" fill="#000000">::ZMQSubscriptionManager::unsubscribe</text>
</a>
</g>
</g>
<!-- Node1&#45;&gt;Node5 -->
<g id="edge10" class="edge">
<title>Node1&#45;&gt;Node5</title>
<path fill="none" stroke="#191970" d="M472.0787,-200.7351C549.7417,-209.5971 660.3215,-222.2151 743.5611,-231.7134"/>
<polygon fill="#191970" stroke="#191970" points="743.2403,-235.1994 753.5727,-232.8558 744.034,-228.2446 743.2403,-235.1994"/>
</g>
<!-- Node3 -->
<g id="node4" class="node">
<title>Node3</title>
<g id="a_node4"><a xlink:href="class_chimera_t_k_1_1_doocs_backend_namespace_1_1_z_m_q_subscription_manager.html#afccea9af8b0253c7b05590bee7157828" target="_top" xlink:title="Register accessor subscription. ">
<polygon fill="#ffffff" stroke="#000000" points="757,-181 757,-211 963,-211 963,-181 757,-181"/>
<text text-anchor="start" x="765" y="-199" font-family="Helvetica,sans-Serif" font-size="10.00" fill="#000000">ChimeraTK::DoocsBackendNamespace</text>
<text text-anchor="middle" x="860" y="-188" font-family="Helvetica,sans-Serif" font-size="10.00" fill="#000000">::ZMQSubscriptionManager::subscribe</text>
</a>
</g>
</g>
<!-- Node2&#45;&gt;Node3 -->
<g id="edge3" class="edge">
<title>Node2&#45;&gt;Node3</title>
<path fill="none" stroke="#191970" d="M718.1084,-179.9151C727.6586,-180.9977 737.359,-182.0974 746.974,-183.1873"/>
<polygon fill="#191970" stroke="#191970" points="746.6226,-186.6698 756.9532,-184.3186 747.4111,-179.7144 746.6226,-186.6698"/>
</g>
<!-- Node2&#45;&gt;Node5 -->
<g id="edge5" class="edge">
<title>Node2&#45;&gt;Node5</title>
<path fill="none" stroke="#191970" d="M649.0505,-183.1135C677.2651,-194.5589 717.6759,-210.1167 754,-221 761.6458,-223.2908 769.6589,-225.4798 777.7094,-227.5382"/>
<polygon fill="#191970" stroke="#191970" points="776.976,-230.9623 787.5254,-229.9821 778.6673,-224.1697 776.976,-230.9623"/>
</g>
<!-- Node6 -->
<g id="node7" class="node">
<title>Node6</title>
<g id="a_node7"><a xlink:href="class_chimera_t_k_1_1_doocs_backend_namespace_1_1_z_m_q_subscription_manager.html#a08562f36cc6ab3216f6af32133678d5a" target="_top" xlink:title="Activate all listeners for the given backend. Should be called from DoocsBackend::activateAsyncRead()...">
<polygon fill="#ffffff" stroke="#000000" points="757,-120.5 757,-161.5 963,-161.5 963,-120.5 757,-120.5"/>
<text text-anchor="start" x="765" y="-149.5" font-family="Helvetica,sans-Serif" font-size="10.00" fill="#000000">ChimeraTK::DoocsBackendNamespace</text>
<text text-anchor="start" x="765" y="-138.5" font-family="Helvetica,sans-Serif" font-size="10.00" fill="#000000">::ZMQSubscriptionManager::activateAll</text>
<text text-anchor="middle" x="860" y="-127.5" font-family="Helvetica,sans-Serif" font-size="10.00" fill="#000000">Listeners</text>
</a>
</g>
</g>
<!-- Node2&#45;&gt;Node6 -->
<g id="edge6" class="edge">
<title>Node2&#45;&gt;Node6</title>
<path fill="none" stroke="#191970" d="M718.1084,-156.5104C727.6586,-155.4665 737.359,-154.4061 746.974,-153.3551"/>
<polygon fill="#191970" stroke="#191970" points="747.3928,-156.8302 756.9532,-152.2642 746.632,-149.8717 747.3928,-156.8302"/>
</g>
<!-- Node7 -->
<g id="node8" class="node">
<title>Node7</title>
<g id="a_node8"><a xlink:href="class_chimera_t_k_1_1_doocs_backend_namespace_1_1_z_m_q_subscription_manager.html#a30c75e5928220a718f8a7f9fa198fd1b" target="_top" xlink:title="Deactivate all listeners the given backend. Should be called from DoocsBackend::close(). ">
<polygon fill="#ffffff" stroke="#000000" points="757,-60.5 757,-101.5 963,-101.5 963,-60.5 757,-60.5"/>
<text text-anchor="start" x="765" y="-89.5" font-family="Helvetica,sans-Serif" font-size="10.00" fill="#000000">ChimeraTK::DoocsBackendNamespace</text>
<text text-anchor="start" x="765" y="-78.5" font-family="Helvetica,sans-Serif" font-size="10.00" fill="#000000">::ZMQSubscriptionManager::deactivate</text>
<text text-anchor="middle" x="860" y="-67.5" font-family="Helvetica,sans-Serif" font-size="10.00" fill="#000000">AllListeners</text>
</a>
</g>
</g>
<!-- Node2&#45;&gt;Node7 -->
<g id="edge7" class="edge">
<title>Node2&#45;&gt;Node7</title>
<path fill="none" stroke="#191970" d="M647.3719,-152.8862C675.6811,-140.7349 717.0309,-123.6623 754,-111 760.3823,-108.814 767.0182,-106.6608 773.7167,-104.573"/>
<polygon fill="#191970" stroke="#191970" points="775.0142,-107.8363 783.5533,-101.5645 772.9669,-101.1423 775.0142,-107.8363"/>
</g>
<!-- Node8 -->
<g id="node9" class="node">
<title>Node8</title>
<g id="a_node9"><a xlink:href="class_chimera_t_k_1_1_doocs_backend_namespace_1_1_z_m_q_subscription_manager.html#a06888e243c359a75a6d2796072806e0a" target="_top" xlink:title="Deactivate all listeners for the given backend and push exceptions into the queues. ">
<polygon fill="#ffffff" stroke="#000000" points="757,-.5 757,-41.5 963,-41.5 963,-.5 757,-.5"/>
<text text-anchor="start" x="765" y="-29.5" font-family="Helvetica,sans-Serif" font-size="10.00" fill="#000000">ChimeraTK::DoocsBackendNamespace</text>
<text text-anchor="start" x="765" y="-18.5" font-family="Helvetica,sans-Serif" font-size="10.00" fill="#000000">::ZMQSubscriptionManager::deactivate</text>
<text text-anchor="middle" x="860" y="-7.5" font-family="Helvetica,sans-Serif" font-size="10.00" fill="#000000">AllListenersAndPushException</text>
</a>
</g>
</g>
<!-- Node2&#45;&gt;Node8 -->
<g id="edge8" class="edge">
<title>Node2&#45;&gt;Node8</title>
<path fill="none" stroke="#191970" d="M627.1163,-152.7183C650.9309,-127.8259 701.6367,-78.5427 754,-51 757.7609,-49.0218 761.6675,-47.161 765.6661,-45.4121"/>
<polygon fill="#191970" stroke="#191970" points="767.2112,-48.5615 775.138,-41.5319 764.5576,-42.0839 767.2112,-48.5615"/>
</g>
<!-- Node4 -->
<g id="node5" class="node">
<title>Node4</title>
<g id="a_node5"><a xlink:href="class_chimera_t_k_1_1_doocs_backend.html#a02e160d0a945224f86d7ef21af9629c9" target="_top" xlink:title="ChimeraTK::DoocsBackend\l::isCommunicationError">
<polygon fill="#ffffff" stroke="#000000" points="1002,-93 1002,-123 1151,-123 1151,-93 1002,-93"/>
<text text-anchor="start" x="1010" y="-111" font-family="Helvetica,sans-Serif" font-size="10.00" fill="#000000">ChimeraTK::DoocsBackend</text>
<text text-anchor="middle" x="1076.5" y="-100" font-family="Helvetica,sans-Serif" font-size="10.00" fill="#000000">::isCommunicationError</text>
</a>
</g>
</g>
<!-- Node3&#45;&gt;Node4 -->
<g id="edge4" class="edge">
<title>Node3&#45;&gt;Node4</title>
<path fill="none" stroke="#191970" d="M935.8107,-180.9299C946.1007,-178.0731 956.411,-174.7733 966,-171 994.5361,-159.7709 1024.6282,-142.1864 1046.1914,-128.4456"/>
<polygon fill="#191970" stroke="#191970" points="1048.0966,-131.3818 1054.5922,-123.0117 1044.2947,-125.5042 1048.0966,-131.3818"/>
</g>
<!-- Node8&#45;&gt;Node4 -->
<g id="edge9" class="edge">
<title>Node8&#45;&gt;Node4</title>
<path fill="none" stroke="#191970" d="M939.3068,-41.5549C948.3977,-44.4671 957.4611,-47.6288 966,-51 992.2345,-61.3576 1020.4754,-75.9913 1041.84,-87.8378"/>
<polygon fill="#191970" stroke="#191970" points="1040.4107,-91.0491 1050.8442,-92.891 1043.8365,-84.9447 1040.4107,-91.0491"/>
</g>
</g>
</svg>
        <g id="navigator" transform="translate(0 0)" fill="#404254">
                <rect fill="#f2f5e9" fill-opacity="0.5" stroke="#606060" stroke-width=".5" x="0" y="0" width="60" height="60"/>
                <use id="zoomplus" xlink:href="#zoomPlus" x="17" y="9" onmousedown="handleZoom(evt,'in')"/>
                <use id="zoomminus" xlink:href="#zoomMin" x="42" y="9" onmousedown="handleZoom(evt,'out')"/>
                <use id="reset" xlink:href="#resetDef" x="30" y="36" onmousedown="handleReset()"/>
                <g id="arrowUp" xlink:href="#dirArrow" transform="translate(30 24)" onmousedown="handlePan(0,-1)">
                  <use xlink:href="#rim" fill="#404040">
                        <set attributeName="fill" to="#808080" begin="arrowUp.mouseover" end="arrowUp.mouseout"/>
                  </use>
                  <path fill="none" stroke="white" stroke-width="1.5" d="M0,-3.0v7 M-2.5,-0.5L0,-3.0L2.5,-0.5"/>
                </g>
                <g id="arrowRight" xlink:href="#dirArrow" transform="rotate(90) translate(36 -43)" onmousedown="handlePan(1,0)">
                  <use xlink:href="#rim" fill="#404040">
                        <set attributeName="fill" to="#808080" begin="arrowRight.mouseover" end="arrowRight.mouseout"/>
                  </use>
                  <path fill="none" stroke="white" stroke-width="1.5" d="M0,-3.0v7 M-2.5,-0.5L0,-3.0L2.5,-0.5"/>
                </g>
                <g id="arrowDown" xlink:href="#dirArrow" transform="rotate(180) translate(-30 -48)" onmousedown="handlePan(0,1)">
                  <use xlink:href="#rim" fill="#404040">
                        <set attributeName="fill" to="#808080" begin="arrowDown.mouseover" end="arrowDown.mouseout"/>
                  </use>
                  <path fill="none" stroke="white" stroke-width="1.5" d="M0,-3.0v7 M-2.5,-0.5L0,-3.0L2.5,-0.5"/>
                </g>
                <g id="arrowLeft" xlink:href="#dirArrow" transform="rotate(270) translate(-36 17)" onmousedown="handlePan(-1,0)">
                  <use xlink:href="#rim" fill="#404040">
                        <set attributeName="fill" to="#808080" begin="arrowLeft.mouseover" end="arrowLeft.mouseout"/>
                  </use>
                  <path fill="none" stroke="white" stroke-width="1.5" d="M0,-3.0v7 M-2.5,-0.5L0,-3.0L2.5,-0.5"/>
                </g>
        </g>
        <svg viewBox="0 0 15 15" width="100%" height="30px" preserveAspectRatio="xMaxYMin meet">
         <g id="arrow_out" transform="scale(0.3 0.3)">
          <a xlink:href="class_chimera_t_k_1_1_doocs_backend_i_f_f_f_register_accessor_ad892c083c1bc80fae1b744df6c2b3869_cgraph_org.svg" target="_base">
           <rect id="button" ry="5" rx="5" y="6" x="6" height="38" width="38"
                fill="#f2f5e9" fill-opacity="0.5" stroke="#606060" stroke-width="1.0"/>
           <path id="arrow"
             d="M 11.500037,31.436501 C 11.940474,20.09759 22.043105,11.32322 32.158766,21.979434 L 37.068811,17.246167 C 37.068811,17.246167 37.088388,32 37.088388,32 L 22.160133,31.978069 C 22.160133,31.978069 26.997745,27.140456 26.997745,27.140456 C 18.528582,18.264221 13.291696,25.230495 11.500037,31.436501 z"
             style="fill:#404040;"/>
          </a>
         </g>
        </svg>
</svg>
