<?xml version="1.0" encoding="UTF-8" standalone="no"?>
<!DOCTYPE svg PUBLIC "-//W3C//DTD SVG 1.1//EN"
 "http://www.w3.org/Graphics/SVG/1.1/DTD/svg11.dtd">
<!-- Generated by graphviz version 2.43.0 (0)
 -->
<!-- Title: ChimeraTK::DummyBackend Pages: 1 -->
<svg width="2188pt" height="594pt"
 viewBox="0.00 0.00 2188.00 594.00" xmlns="http://www.w3.org/2000/svg" xmlns:xlink="http://www.w3.org/1999/xlink">
<g id="graph0" class="graph" transform="scale(1 1) rotate(0) translate(4 590)">
<title>ChimeraTK::DummyBackend</title>
<polygon fill="white" stroke="transparent" points="-4,4 -4,-590 2184,-590 2184,4 -4,4"/>
<!-- Node1 -->
<g id="node1" class="node">
<title>Node1</title>
<g id="a_node1"><a xlink:title="The dummy device opens a mapping file instead of a device, and implements all registers defined in th...">
<polygon fill="#bfbfbf" stroke="black" points="2023,-209 2023,-228 2180,-228 2180,-209 2023,-209"/>
<text text-anchor="middle" x="2101.5" y="-216" font-family="Helvetica,sans-Serif" font-size="10.00">ChimeraTK::DummyBackend</text>
</a>
</g>
</g>
<!-- Node2 -->
<g id="node2" class="node">
<title>Node2</title>
<g id="a_node2"><a xlink:href="class_chimera_t_k_1_1_dummy_backend_base.html" target="_top" xlink:title="Base class for DummyBackends, provides common functionality.">
<polygon fill="white" stroke="black" points="1805,-351 1805,-370 1986,-370 1986,-351 1805,-351"/>
<text text-anchor="middle" x="1895.5" y="-358" font-family="Helvetica,sans-Serif" font-size="10.00">ChimeraTK::DummyBackendBase</text>
</a>
</g>
</g>
<!-- Node2&#45;&gt;Node1 -->
<g id="edge1" class="edge">
<title>Node2&#45;&gt;Node1</title>
<path fill="none" stroke="midnightblue" d="M1934.18,-347.24C1955.87,-338.71 1983.08,-326.44 2005,-311.5 2041.91,-286.35 2077.45,-246.26 2092.7,-228.05"/>
<polygon fill="midnightblue" stroke="midnightblue" points="1932.73,-344.05 1924.64,-350.89 1935.23,-350.59 1932.73,-344.05"/>
</g>
<!-- Node3 -->
<g id="node3" class="node">
<title>Node3</title>
<g id="a_node3"><a xlink:href="class_chimera_t_k_1_1_numeric_addressed_backend.html" target="_top" xlink:title="Base class for address&#45;based device backends (e.g.">
<polygon fill="white" stroke="black" points="1565,-370.5 1565,-400.5 1734,-400.5 1734,-370.5 1565,-370.5"/>
<text text-anchor="start" x="1573" y="-388.5" font-family="Helvetica,sans-Serif" font-size="10.00">ChimeraTK::NumericAddressed</text>
<text text-anchor="middle" x="1649.5" y="-377.5" font-family="Helvetica,sans-Serif" font-size="10.00">Backend</text>
</a>
</g>
</g>
<!-- Node3&#45;&gt;Node2 -->
<g id="edge2" class="edge">
<title>Node3&#45;&gt;Node2</title>
<path fill="none" stroke="midnightblue" d="M1744.11,-375.91C1764.01,-373.87 1784.98,-371.72 1804.73,-369.7"/>
<polygon fill="midnightblue" stroke="midnightblue" points="1743.72,-372.43 1734.13,-376.93 1744.43,-379.39 1743.72,-372.43"/>
</g>
<!-- Node4 -->
<g id="node4" class="node">
<title>Node4</title>
<g id="a_node4"><a xlink:href="class_chimera_t_k_1_1_device_backend_impl.html" target="_top" xlink:title="DeviceBackendImpl implements some basic functionality which should be available for all backends.">
<polygon fill="white" stroke="black" points="1250,-419 1250,-438 1423,-438 1423,-419 1250,-419"/>
<text text-anchor="middle" x="1336.5" y="-426" font-family="Helvetica,sans-Serif" font-size="10.00">ChimeraTK::DeviceBackendImpl</text>
</a>
</g>
</g>
<!-- Node4&#45;&gt;Node3 -->
<g id="edge3" class="edge">
<title>Node4&#45;&gt;Node3</title>
<path fill="none" stroke="midnightblue" d="M1416.59,-417.56C1461.88,-411.3 1518.68,-403.45 1564.73,-397.08"/>
<polygon fill="midnightblue" stroke="midnightblue" points="1415.95,-414.12 1406.52,-418.96 1416.91,-421.05 1415.95,-414.12"/>
</g>
<!-- Node5 -->
<g id="node5" class="node">
<title>Node5</title>
<g id="a_node5"><a xlink:href="class_chimera_t_k_1_1_device_backend.html" target="_top" xlink:title="The base class for backends providing IO functionality for the Device class.">
<polygon fill="white" stroke="black" points="897,-419 897,-438 1049,-438 1049,-419 897,-419"/>
<text text-anchor="middle" x="973" y="-426" font-family="Helvetica,sans-Serif" font-size="10.00">ChimeraTK::DeviceBackend</text>
</a>
</g>
</g>
<!-- Node5&#45;&gt;Node4 -->
<g id="edge4" class="edge">
<title>Node5&#45;&gt;Node4</title>
<path fill="none" stroke="midnightblue" d="M1059.41,-430.87C1071.69,-431.13 1084.17,-431.35 1096,-431.5 1156.44,-432.24 1171.56,-432.38 1232,-431.5 1237.84,-431.42 1243.87,-431.3 1249.94,-431.17"/>
<polygon fill="midnightblue" stroke="midnightblue" points="1059.24,-427.36 1049.16,-430.64 1059.08,-434.36 1059.24,-427.36"/>
</g>
<!-- Node6 -->
<g id="node6" class="node">
<title>Node6</title>
<g id="a_node6"><a xlink:title=" ">
<polygon fill="white" stroke="#bfbfbf" points="486.5,-387.5 486.5,-417.5 652.5,-417.5 652.5,-387.5 486.5,-387.5"/>
<text text-anchor="start" x="494.5" y="-405.5" font-family="Helvetica,sans-Serif" font-size="10.00">boost::enable_shared</text>
<text text-anchor="middle" x="569.5" y="-394.5" font-family="Helvetica,sans-Serif" font-size="10.00">_from_this&lt; DeviceBackend &gt;</text>
</a>
</g>
</g>
<!-- Node6&#45;&gt;Node5 -->
<g id="edge5" class="edge">
<title>Node6&#45;&gt;Node5</title>
<path fill="none" stroke="midnightblue" d="M662.98,-408.49C733.87,-413.08 830.46,-419.33 896.67,-423.62"/>
<polygon fill="midnightblue" stroke="midnightblue" points="662.92,-404.98 652.72,-407.82 662.47,-411.96 662.92,-404.98"/>
</g>
<!-- Node7 -->
<g id="node7" class="node">
<title>Node7</title>
<g id="a_node7"><a xlink:title=" ">
<polygon fill="white" stroke="#bfbfbf" points="915.5,-482 915.5,-501 1030.5,-501 1030.5,-482 915.5,-482"/>
<text text-anchor="middle" x="973" y="-489" font-family="Helvetica,sans-Serif" font-size="10.00">std::atomic&lt; bool &gt;</text>
</a>
</g>
</g>
<!-- Node7&#45;&gt;Node3 -->
<g id="edge9" class="edge">
<title>Node7&#45;&gt;Node3</title>
<path fill="none" stroke="#9a32cd" stroke-dasharray="5,2" d="M1040.81,-498.63C1128.86,-506.61 1288.37,-516.14 1423,-497.5 1479.72,-489.65 1495.74,-488.03 1547,-462.5 1580.26,-445.94 1613.58,-417.95 1632.56,-400.67"/>
<polygon fill="#9a32cd" stroke="#9a32cd" points="1040.97,-495.13 1030.69,-497.69 1040.32,-502.1 1040.97,-495.13"/>
<text text-anchor="middle" x="1336.5" y="-510.5" font-family="Helvetica,sans-Serif" font-size="10.00"> _hasActiveException</text>
</g>
<!-- Node7&#45;&gt;Node4 -->
<g id="edge6" class="edge">
<title>Node7&#45;&gt;Node4</title>
<path fill="none" stroke="#9a32cd" stroke-dasharray="5,2" d="M1038.8,-480.21C1107.89,-468.17 1216.09,-449.31 1280.97,-438"/>
<polygon fill="#9a32cd" stroke="#9a32cd" points="1038.15,-476.77 1028.9,-481.93 1039.36,-483.66 1038.15,-476.77"/>
<text text-anchor="middle" x="1164" y="-471.5" font-family="Helvetica,sans-Serif" font-size="10.00"> _opened</text>
</g>
<!-- Node8 -->
<g id="node8" class="node">
<title>Node8</title>
<g id="a_node8"><a xlink:title=" ">
<polygon fill="white" stroke="#bfbfbf" points="323.5,-479 323.5,-498 423.5,-498 423.5,-479 323.5,-479"/>
<text text-anchor="middle" x="373.5" y="-486" font-family="Helvetica,sans-Serif" font-size="10.00">std::atomic&lt; T &gt;</text>
</a>
</g>
</g>
<!-- Node8&#45;&gt;Node7 -->
<g id="edge7" class="edge">
<title>Node8&#45;&gt;Node7</title>
<path fill="none" stroke="orange" stroke-dasharray="5,2" d="M433.7,-488.8C548.89,-489.38 801.81,-490.65 915.13,-491.21"/>
<polygon fill="orange" stroke="orange" points="433.67,-485.3 423.65,-488.75 433.63,-492.3 433.67,-485.3"/>
<text text-anchor="middle" x="569.5" y="-492.5" font-family="Helvetica,sans-Serif" font-size="10.00"> &lt; bool &gt;</text>
</g>
<!-- Node9 -->
<g id="node9" class="node">
<title>Node9</title>
<g id="a_node9"><a xlink:title=" ">
<polygon fill="white" stroke="#bfbfbf" points="0,-319 0,-338 29,-338 29,-319 0,-319"/>
<text text-anchor="middle" x="14.5" y="-326" font-family="Helvetica,sans-Serif" font-size="10.00">T</text>
</a>
</g>
</g>
<!-- Node9&#45;&gt;Node8 -->
<g id="edge8" class="edge">
<title>Node9&#45;&gt;Node8</title>
<path fill="none" stroke="#9a32cd" stroke-dasharray="5,2" d="M23.77,-347.23C29.4,-358.88 37.53,-373.81 47,-385.5 71.8,-416.1 78.42,-426.62 114,-443.5 181.91,-475.71 269.67,-485.1 323.47,-487.7"/>
<polygon fill="#9a32cd" stroke="#9a32cd" points="26.87,-345.61 19.49,-338 20.52,-348.55 26.87,-345.61"/>
<text text-anchor="middle" x="71.5" y="-436.5" font-family="Helvetica,sans-Serif" font-size="10.00"> ptr</text>
</g>
<!-- Node16 -->
<g id="node16" class="node">
<title>Node16</title>
<g id="a_node16"><a xlink:title=" ">
<polygon fill="white" stroke="#bfbfbf" points="144.5,-319 144.5,-338 241.5,-338 241.5,-319 144.5,-319"/>
<text text-anchor="middle" x="193" y="-326" font-family="Helvetica,sans-Serif" font-size="10.00">std::vector&lt; T &gt;</text>
</a>
</g>
</g>
<!-- Node9&#45;&gt;Node16 -->
<g id="edge18" class="edge">
<title>Node9&#45;&gt;Node16</title>
<path fill="none" stroke="#9a32cd" stroke-dasharray="5,2" d="M39.39,-328.5C66.16,-328.5 110.24,-328.5 144.17,-328.5"/>
<polygon fill="#9a32cd" stroke="#9a32cd" points="39.06,-325 29.06,-328.5 39.06,-332 39.06,-325"/>
<text text-anchor="middle" x="71.5" y="-331.5" font-family="Helvetica,sans-Serif" font-size="10.00"> elements</text>
</g>
<!-- Node20 -->
<g id="node20" class="node">
<title>Node20</title>
<g id="a_node20"><a xlink:title=" ">
<polygon fill="white" stroke="#bfbfbf" points="134,-415 134,-434 252,-434 252,-415 134,-415"/>
<text text-anchor="middle" x="193" y="-422" font-family="Helvetica,sans-Serif" font-size="10.00">std::unique_ptr&lt; T &gt;</text>
</a>
</g>
</g>
<!-- Node9&#45;&gt;Node20 -->
<g id="edge23" class="edge">
<title>Node9&#45;&gt;Node20</title>
<path fill="none" stroke="#9a32cd" stroke-dasharray="5,2" d="M38.17,-340.83C73.77,-360.2 142.03,-397.32 174.29,-414.87"/>
<polygon fill="#9a32cd" stroke="#9a32cd" points="39.51,-337.58 29.06,-335.87 36.17,-343.73 39.51,-337.58"/>
<text text-anchor="middle" x="71.5" y="-373.5" font-family="Helvetica,sans-Serif" font-size="10.00"> ptr</text>
</g>
<!-- Node26 -->
<g id="node26" class="node">
<title>Node26</title>
<g id="a_node26"><a xlink:title=" ">
<polygon fill="white" stroke="#bfbfbf" points="519,-207 519,-226 620,-226 620,-207 519,-207"/>
<text text-anchor="middle" x="569.5" y="-214" font-family="Helvetica,sans-Serif" font-size="10.00">std::map&lt; K, T &gt;</text>
</a>
</g>
</g>
<!-- Node9&#45;&gt;Node26 -->
<g id="edge31" class="edge">
<title>Node9&#45;&gt;Node26</title>
<path fill="none" stroke="#9a32cd" stroke-dasharray="5,2" d="M38.96,-321.33C58.92,-315.24 88.33,-306.27 114,-298.5 192.19,-274.82 209.91,-261.58 290,-245.5 369.12,-229.62 462.73,-222.14 518.77,-218.84"/>
<polygon fill="#9a32cd" stroke="#9a32cd" points="37.74,-318.04 29.2,-324.31 39.79,-324.74 37.74,-318.04"/>
<text text-anchor="middle" x="193" y="-301.5" font-family="Helvetica,sans-Serif" font-size="10.00"> elements</text>
</g>
<!-- Node30 -->
<g id="node30" class="node">
<title>Node30</title>
<g id="a_node30"><a xlink:title=" ">
<polygon fill="white" stroke="#bfbfbf" points="506.5,-67 506.5,-86 632.5,-86 632.5,-67 506.5,-67"/>
<text text-anchor="middle" x="569.5" y="-74" font-family="Helvetica,sans-Serif" font-size="10.00">std::multimap&lt; K, T &gt;</text>
</a>
</g>
</g>
<!-- Node9&#45;&gt;Node30 -->
<g id="edge39" class="edge">
<title>Node9&#45;&gt;Node30</title>
<path fill="none" stroke="#9a32cd" stroke-dasharray="5,2" d="M17.23,-308.82C22.41,-263.01 42.26,-149.38 114,-99.5 245.03,-8.39 452.26,-46.74 533.85,-66.98"/>
<polygon fill="#9a32cd" stroke="#9a32cd" points="13.73,-308.62 16.2,-318.92 20.69,-309.33 13.73,-308.62"/>
<text text-anchor="middle" x="193" y="-102.5" font-family="Helvetica,sans-Serif" font-size="10.00"> elements</text>
</g>
<!-- Node10 -->
<g id="node10" class="node">
<title>Node10</title>
<g id="a_node10"><a xlink:href="class_chimera_t_k_1_1_numeric_addressed_register_catalogue.html" target="_top" xlink:title=" ">
<polygon fill="white" stroke="black" points="1252,-457.5 1252,-487.5 1421,-487.5 1421,-457.5 1252,-457.5"/>
<text text-anchor="start" x="1260" y="-475.5" font-family="Helvetica,sans-Serif" font-size="10.00">ChimeraTK::NumericAddressed</text>
<text text-anchor="middle" x="1336.5" y="-464.5" font-family="Helvetica,sans-Serif" font-size="10.00">RegisterCatalogue</text>
</a>
</g>
</g>
<!-- Node10&#45;&gt;Node3 -->
<g id="edge10" class="edge">
<title>Node10&#45;&gt;Node3</title>
<path fill="none" stroke="#9a32cd" stroke-dasharray="5,2" d="M1414.34,-455.16C1454.15,-445.73 1503.44,-433.39 1547,-420.5 1567.02,-414.58 1588.95,-407.14 1607.29,-400.64"/>
<polygon fill="#9a32cd" stroke="#9a32cd" points="1413.36,-451.79 1404.43,-457.49 1414.96,-458.6 1413.36,-451.79"/>
<text text-anchor="middle" x="1494" y="-450.5" font-family="Helvetica,sans-Serif" font-size="10.00"> _registerMap</text>
</g>
<!-- Node11 -->
<g id="node11" class="node">
<title>Node11</title>
<g id="a_node11"><a xlink:href="class_chimera_t_k_1_1_backend_register_catalogue.html" target="_top" xlink:title=" ">
<polygon fill="white" stroke="black" points="868,-520 868,-561 1078,-561 1078,-520 868,-520"/>
<text text-anchor="start" x="876" y="-549" font-family="Helvetica,sans-Serif" font-size="10.00">ChimeraTK::BackendRegister</text>
<text text-anchor="start" x="876" y="-538" font-family="Helvetica,sans-Serif" font-size="10.00">Catalogue&lt; NumericAddressedRegister</text>
<text text-anchor="middle" x="973" y="-527" font-family="Helvetica,sans-Serif" font-size="10.00">Info &gt;</text>
</a>
</g>
</g>
<!-- Node11&#45;&gt;Node10 -->
<g id="edge11" class="edge">
<title>Node11&#45;&gt;Node10</title>
<path fill="none" stroke="midnightblue" d="M1088.13,-519.03C1142.61,-508.78 1206.47,-496.77 1255.66,-487.52"/>
<polygon fill="midnightblue" stroke="midnightblue" points="1087.26,-515.63 1078.08,-520.92 1088.55,-522.51 1087.26,-515.63"/>
</g>
<!-- Node12 -->
<g id="node12" class="node">
<title>Node12</title>
<g id="a_node12"><a xlink:href="class_chimera_t_k_1_1_backend_register_catalogue_base.html" target="_top" xlink:title="Pure virtual implementation base class for the register catalogue.">
<polygon fill="white" stroke="black" points="114,-555.5 114,-585.5 272,-585.5 272,-555.5 114,-555.5"/>
<text text-anchor="start" x="122" y="-573.5" font-family="Helvetica,sans-Serif" font-size="10.00">ChimeraTK::BackendRegister</text>
<text text-anchor="middle" x="193" y="-562.5" font-family="Helvetica,sans-Serif" font-size="10.00">CatalogueBase</text>
</a>
</g>
</g>
<!-- Node12&#45;&gt;Node11 -->
<g id="edge12" class="edge">
<title>Node12&#45;&gt;Node11</title>
<path fill="none" stroke="midnightblue" d="M282.04,-575.31C408.24,-580.96 647.66,-587.06 850,-565.5 860.32,-564.4 871.06,-562.83 881.7,-561.02"/>
<polygon fill="midnightblue" stroke="midnightblue" points="282.19,-571.81 272.04,-574.85 281.87,-578.81 282.19,-571.81"/>
</g>
<!-- Node13 -->
<g id="node13" class="node">
<title>Node13</title>
<g id="a_node13"><a xlink:href="class_chimera_t_k_1_1_backend_register_catalogue.html" target="_top" xlink:title="Interface for backends to the register catalogue.">
<polygon fill="white" stroke="black" points="475,-524.5 475,-554.5 664,-554.5 664,-524.5 475,-524.5"/>
<text text-anchor="start" x="483" y="-542.5" font-family="Helvetica,sans-Serif" font-size="10.00">ChimeraTK::BackendRegister</text>
<text text-anchor="middle" x="569.5" y="-531.5" font-family="Helvetica,sans-Serif" font-size="10.00">Catalogue&lt; BackendRegisterInfo &gt;</text>
</a>
</g>
</g>
<!-- Node12&#45;&gt;Node13 -->
<g id="edge14" class="edge">
<title>Node12&#45;&gt;Node13</title>
<path fill="none" stroke="midnightblue" d="M282.29,-563.19C340.26,-558.39 415.99,-552.12 474.98,-547.24"/>
<polygon fill="midnightblue" stroke="midnightblue" points="281.73,-559.73 272.05,-564.04 282.31,-566.7 281.73,-559.73"/>
</g>
<!-- Node13&#45;&gt;Node11 -->
<g id="edge13" class="edge">
<title>Node13&#45;&gt;Node11</title>
<path fill="none" stroke="orange" stroke-dasharray="5,2" d="M674.31,-539.76C733.86,-539.91 808.39,-540.09 867.98,-540.24"/>
<polygon fill="orange" stroke="orange" points="674.14,-536.26 664.13,-539.73 674.12,-543.26 674.14,-536.26"/>
<text text-anchor="start" x="692" y="-553.5" font-family="Helvetica,sans-Serif" font-size="10.00"> &lt; NumericAddressedRegister</text>
<text text-anchor="middle" x="766" y="-542.5" font-family="Helvetica,sans-Serif" font-size="10.00">Info &gt;</text>
</g>
<!-- Node14 -->
<g id="node14" class="node">
<title>Node14</title>
<g id="a_node14"><a xlink:title=" ">
<polygon fill="white" stroke="#bfbfbf" points="915,-329.5 915,-359.5 1031,-359.5 1031,-329.5 915,-329.5"/>
<text text-anchor="start" x="923" y="-347.5" font-family="Helvetica,sans-Serif" font-size="10.00">std::set&lt; std::vector</text>
<text text-anchor="middle" x="973" y="-336.5" font-family="Helvetica,sans-Serif" font-size="10.00">&lt; uint32_t &gt; &gt;</text>
</a>
</g>
</g>
<!-- Node14&#45;&gt;Node10 -->
<g id="edge15" class="edge">
<title>Node14&#45;&gt;Node10</title>
<path fill="none" stroke="#9a32cd" stroke-dasharray="5,2" d="M1014.07,-363.9C1037.57,-374.77 1068.04,-388 1096,-397.5 1155,-417.54 1176.9,-402.41 1232,-431.5 1241.47,-436.5 1240.64,-442.32 1250,-447.5 1256.9,-451.32 1264.45,-454.61 1272.1,-457.43"/>
<polygon fill="#9a32cd" stroke="#9a32cd" points="1015.33,-360.62 1004.79,-359.56 1012.36,-366.96 1015.33,-360.62"/>
<text text-anchor="middle" x="1164" y="-434.5" font-family="Helvetica,sans-Serif" font-size="10.00"> _listOfInterrupts</text>
</g>
<!-- Node15 -->
<g id="node15" class="node">
<title>Node15</title>
<g id="a_node15"><a xlink:title=" ">
<polygon fill="white" stroke="#bfbfbf" points="504,-347 504,-366 635,-366 635,-347 504,-347"/>
<text text-anchor="middle" x="569.5" y="-354" font-family="Helvetica,sans-Serif" font-size="10.00">std::vector&lt; uint32_t &gt;</text>
</a>
</g>
</g>
<!-- Node15&#45;&gt;Node14 -->
<g id="edge16" class="edge">
<title>Node15&#45;&gt;Node14</title>
<path fill="none" stroke="#9a32cd" stroke-dasharray="5,2" d="M645.43,-364.91C657.64,-365.99 670.16,-366.92 682,-367.5 756.58,-371.17 775.66,-374.45 850,-367.5 871.35,-365.5 894.54,-361.59 914.9,-357.54"/>
<polygon fill="#9a32cd" stroke="#9a32cd" points="645.55,-361.41 635.28,-363.98 644.91,-368.38 645.55,-361.41"/>
<text text-anchor="middle" x="766" y="-374.5" font-family="Helvetica,sans-Serif" font-size="10.00"> keys</text>
</g>
<!-- Node16&#45;&gt;Node15 -->
<g id="edge17" class="edge">
<title>Node16&#45;&gt;Node15</title>
<path fill="none" stroke="orange" stroke-dasharray="5,2" d="M251.94,-332.83C320.05,-337.92 432.77,-346.35 503.72,-351.66"/>
<polygon fill="orange" stroke="orange" points="252.04,-329.33 241.81,-332.07 251.52,-336.31 252.04,-329.33"/>
<text text-anchor="middle" x="373.5" y="-349.5" font-family="Helvetica,sans-Serif" font-size="10.00"> &lt; uint32_t &gt;</text>
</g>
<!-- Node32 -->
<g id="node32" class="node">
<title>Node32</title>
<g id="a_node32"><a xlink:title=" ">
<polygon fill="white" stroke="#bfbfbf" points="507,-302 507,-321 632,-321 632,-302 507,-302"/>
<text text-anchor="middle" x="569.5" y="-309" font-family="Helvetica,sans-Serif" font-size="10.00">std::vector&lt; int32_t &gt;</text>
</a>
</g>
</g>
<!-- Node16&#45;&gt;Node32 -->
<g id="edge43" class="edge">
<title>Node16&#45;&gt;Node32</title>
<path fill="none" stroke="orange" stroke-dasharray="5,2" d="M252.13,-323.18C264.61,-322.17 277.74,-321.21 290,-320.5 364.5,-316.2 450.33,-313.81 506.79,-312.59"/>
<polygon fill="orange" stroke="orange" points="251.5,-319.72 241.82,-324.03 252.08,-326.69 251.5,-319.72"/>
<text text-anchor="middle" x="373.5" y="-323.5" font-family="Helvetica,sans-Serif" font-size="10.00"> &lt; int32_t &gt;</text>
</g>
<!-- Node17 -->
<g id="node17" class="node">
<title>Node17</title>
<g id="a_node17"><a xlink:title=" ">
<polygon fill="white" stroke="#bfbfbf" points="528.5,-255 528.5,-274 610.5,-274 610.5,-255 528.5,-255"/>
<text text-anchor="middle" x="569.5" y="-262" font-family="Helvetica,sans-Serif" font-size="10.00">std::set&lt; K &gt;</text>
</a>
</g>
</g>
<!-- Node17&#45;&gt;Node14 -->
<g id="edge19" class="edge">
<title>Node17&#45;&gt;Node14</title>
<path fill="none" stroke="orange" stroke-dasharray="5,2" d="M620.48,-272.38C635.55,-276.54 651.42,-282.87 664,-292.5 676.05,-301.72 669.05,-313.61 682,-321.5 701.35,-333.29 836.14,-339.86 914.97,-342.73"/>
<polygon fill="orange" stroke="orange" points="621.28,-268.98 610.73,-269.95 619.58,-275.77 621.28,-268.98"/>
<text text-anchor="start" x="711.5" y="-353.5" font-family="Helvetica,sans-Serif" font-size="10.00"> &lt; std::vector&lt; uint32</text>
<text text-anchor="middle" x="766" y="-342.5" font-family="Helvetica,sans-Serif" font-size="10.00">_t &gt; &gt;</text>
</g>
<!-- Node27 -->
<g id="node27" class="node">
<title>Node27</title>
<g id="a_node27"><a xlink:title=" ">
<polygon fill="white" stroke="#bfbfbf" points="1096,-192.5 1096,-222.5 1232,-222.5 1232,-192.5 1096,-192.5"/>
<text text-anchor="start" x="1104" y="-210.5" font-family="Helvetica,sans-Serif" font-size="10.00">std::set&lt; std::pair</text>
<text text-anchor="middle" x="1164" y="-199.5" font-family="Helvetica,sans-Serif" font-size="10.00">&lt; uint64_t, uint64_t &gt; &gt;</text>
</a>
</g>
</g>
<!-- Node17&#45;&gt;Node27 -->
<g id="edge33" class="edge">
<title>Node17&#45;&gt;Node27</title>
<path fill="none" stroke="orange" stroke-dasharray="5,2" d="M620.45,-253.85C635.12,-249.47 650.76,-243.49 664,-235.5 673.69,-229.65 671.59,-221.94 682,-217.5 718.97,-201.73 972.32,-204.02 1095.72,-206.13"/>
<polygon fill="orange" stroke="orange" points="619.19,-250.57 610.5,-256.63 621.07,-257.31 619.19,-250.57"/>
<text text-anchor="start" x="717.5" y="-231.5" font-family="Helvetica,sans-Serif" font-size="10.00"> &lt; std::pair&lt; uint64</text>
<text text-anchor="middle" x="766" y="-220.5" font-family="Helvetica,sans-Serif" font-size="10.00">_t, uint64_t &gt; &gt;</text>
</g>
<!-- Node18 -->
<g id="node18" class="node">
<title>Node18</title>
<g id="a_node18"><a xlink:title=" ">
<polygon fill="white" stroke="#bfbfbf" points="178.5,-176 178.5,-195 207.5,-195 207.5,-176 178.5,-176"/>
<text text-anchor="middle" x="193" y="-183" font-family="Helvetica,sans-Serif" font-size="10.00">K</text>
</a>
</g>
</g>
<!-- Node18&#45;&gt;Node17 -->
<g id="edge20" class="edge">
<title>Node18&#45;&gt;Node17</title>
<path fill="none" stroke="#9a32cd" stroke-dasharray="5,2" d="M217.7,-190.88C233.51,-194.93 254.53,-201.21 272,-209.5 280.69,-213.62 281.04,-218.02 290,-221.5 370.72,-252.86 472.95,-261.41 528.36,-263.7"/>
<polygon fill="#9a32cd" stroke="#9a32cd" points="218.24,-187.41 207.69,-188.44 216.58,-194.21 218.24,-187.41"/>
<text text-anchor="middle" x="373.5" y="-261.5" font-family="Helvetica,sans-Serif" font-size="10.00"> keys</text>
</g>
<!-- Node18&#45;&gt;Node26 -->
<g id="edge30" class="edge">
<title>Node18&#45;&gt;Node26</title>
<path fill="none" stroke="#9a32cd" stroke-dasharray="5,2" d="M217.88,-187.33C264.07,-190.88 368.88,-199.03 457,-206.5 477.24,-208.22 499.53,-210.2 518.83,-211.94"/>
<polygon fill="#9a32cd" stroke="#9a32cd" points="217.93,-183.82 207.69,-186.55 217.4,-190.8 217.93,-183.82"/>
<text text-anchor="middle" x="373.5" y="-209.5" font-family="Helvetica,sans-Serif" font-size="10.00"> keys</text>
</g>
<!-- Node18&#45;&gt;Node30 -->
<g id="edge38" class="edge">
<title>Node18&#45;&gt;Node30</title>
<path fill="none" stroke="#9a32cd" stroke-dasharray="5,2" d="M217.41,-178.69C281.74,-159.96 461.4,-107.67 535.7,-86.05"/>
<polygon fill="#9a32cd" stroke="#9a32cd" points="216.4,-175.34 207.77,-181.49 218.35,-182.06 216.4,-175.34"/>
<text text-anchor="middle" x="373.5" y="-159.5" font-family="Helvetica,sans-Serif" font-size="10.00"> keys</text>
</g>
<!-- Node19 -->
<g id="node19" class="node">
<title>Node19</title>
<g id="a_node19"><a xlink:title=" ">
<polygon fill="white" stroke="#bfbfbf" points="682,-431 682,-472 850,-472 850,-431 682,-431"/>
<text text-anchor="start" x="690" y="-460" font-family="Helvetica,sans-Serif" font-size="10.00">std::unique_ptr&lt; Chimera</text>
<text text-anchor="start" x="690" y="-449" font-family="Helvetica,sans-Serif" font-size="10.00">TK::NumericAddressedRegister</text>
<text text-anchor="middle" x="766" y="-438" font-family="Helvetica,sans-Serif" font-size="10.00">Catalogue &gt;</text>
</a>
</g>
</g>
<!-- Node19&#45;&gt;Node3 -->
<g id="edge21" class="edge">
<title>Node19&#45;&gt;Node3</title>
<path fill="none" stroke="#9a32cd" stroke-dasharray="5,2" d="M818.31,-426.85C833.95,-420.25 851.4,-413.77 868,-409.5 966.73,-384.12 994.21,-390.06 1096,-384.5 1261.93,-375.43 1456.32,-379.09 1564.65,-382.41"/>
<polygon fill="#9a32cd" stroke="#9a32cd" points="816.61,-423.77 808.83,-430.96 819.4,-430.19 816.61,-423.77"/>
<text text-anchor="middle" x="1164" y="-387.5" font-family="Helvetica,sans-Serif" font-size="10.00"> _registerMapPointer</text>
</g>
<!-- Node20&#45;&gt;Node19 -->
<g id="edge22" class="edge">
<title>Node20&#45;&gt;Node19</title>
<path fill="none" stroke="orange" stroke-dasharray="5,2" d="M262.33,-427.73C367.41,-432.7 568.39,-442.2 681.79,-447.57"/>
<polygon fill="orange" stroke="orange" points="262.31,-424.23 252.16,-427.25 261.98,-431.22 262.31,-424.23"/>
<text text-anchor="start" x="290" y="-450.5" font-family="Helvetica,sans-Serif" font-size="10.00"> &lt; ChimeraTK::NumericAddressed</text>
<text text-anchor="middle" x="373.5" y="-439.5" font-family="Helvetica,sans-Serif" font-size="10.00">RegisterCatalogue &gt;</text>
</g>
<!-- Node21 -->
<g id="node21" class="node">
<title>Node21</title>
<g id="a_node21"><a xlink:title=" ">
<polygon fill="white" stroke="#bfbfbf" points="1302,-240 1302,-259 1371,-259 1371,-240 1302,-240"/>
<text text-anchor="middle" x="1336.5" y="-247" font-family="Helvetica,sans-Serif" font-size="10.00">std::mutex</text>
</a>
</g>
</g>
<!-- Node21&#45;&gt;Node1 -->
<g id="edge34" class="edge">
<title>Node21&#45;&gt;Node1</title>
<path fill="none" stroke="#9a32cd" stroke-dasharray="5,2" d="M1381.59,-247.71C1506.48,-242.63 1863.88,-228.11 2022.75,-221.66"/>
<polygon fill="#9a32cd" stroke="#9a32cd" points="1381.12,-244.22 1371.27,-248.13 1381.4,-251.22 1381.12,-244.22"/>
<text text-anchor="middle" x="1769.5" y="-236.5" font-family="Helvetica,sans-Serif" font-size="10.00"> mutex</text>
</g>
<!-- Node21&#45;&gt;Node3 -->
<g id="edge24" class="edge">
<title>Node21&#45;&gt;Node3</title>
<path fill="none" stroke="#9a32cd" stroke-dasharray="5,2" d="M1373.14,-262.64C1415.17,-278.4 1486.91,-306.13 1547,-333.5 1572.41,-345.07 1600.62,-359.67 1620.84,-370.45"/>
<polygon fill="#9a32cd" stroke="#9a32cd" points="1374.22,-259.31 1363.63,-259.09 1371.77,-265.87 1374.22,-259.31"/>
<text text-anchor="middle" x="1494" y="-336.5" font-family="Helvetica,sans-Serif" font-size="10.00"> _unalignedAccess</text>
</g>
<!-- Node22 -->
<g id="node22" class="node">
<title>Node22</title>
<g id="a_node22"><a xlink:href="class_chimera_t_k_1_1_metadata_catalogue.html" target="_top" xlink:title="Container for backend metadata.">
<polygon fill="white" stroke="black" points="1250,-334 1250,-353 1423,-353 1423,-334 1250,-334"/>
<text text-anchor="middle" x="1336.5" y="-341" font-family="Helvetica,sans-Serif" font-size="10.00">ChimeraTK::MetadataCatalogue</text>
</a>
</g>
</g>
<!-- Node22&#45;&gt;Node3 -->
<g id="edge25" class="edge">
<title>Node22&#45;&gt;Node3</title>
<path fill="none" stroke="#9a32cd" stroke-dasharray="5,2" d="M1433.67,-348.05C1469.41,-350.6 1510.2,-354.52 1547,-360.5 1562.49,-363.02 1579.11,-366.69 1594.31,-370.45"/>
<polygon fill="#9a32cd" stroke="#9a32cd" points="1433.46,-344.53 1423.24,-347.34 1432.98,-351.52 1433.46,-344.53"/>
<text text-anchor="middle" x="1494" y="-363.5" font-family="Helvetica,sans-Serif" font-size="10.00"> _metadataCatalogue</text>
</g>
<!-- Node23 -->
<g id="node23" class="node">
<title>Node23</title>
<g id="a_node23"><a xlink:title=" ">
<polygon fill="white" stroke="#bfbfbf" points="912,-160.5 912,-190.5 1034,-190.5 1034,-160.5 912,-160.5"/>
<text text-anchor="start" x="920" y="-178.5" font-family="Helvetica,sans-Serif" font-size="10.00">std::map&lt; std::string,</text>
<text text-anchor="middle" x="973" y="-167.5" font-family="Helvetica,sans-Serif" font-size="10.00"> std::string &gt;</text>
</a>
</g>
</g>
<!-- Node23&#45;&gt;Node22 -->
<g id="edge26" class="edge">
<title>Node23&#45;&gt;Node22</title>
<path fill="none" stroke="#9a32cd" stroke-dasharray="5,2" d="M1015.88,-194.96C1093.56,-231.06 1257.31,-307.16 1314.92,-333.94"/>
<polygon fill="#9a32cd" stroke="#9a32cd" points="1016.94,-191.6 1006.4,-190.56 1013.99,-197.95 1016.94,-191.6"/>
<text text-anchor="middle" x="1164" y="-296.5" font-family="Helvetica,sans-Serif" font-size="10.00"> metadata</text>
</g>
<!-- Node24 -->
<g id="node24" class="node">
<title>Node24</title>
<g id="a_node24"><a xlink:title=" ">
<polygon fill="white" stroke="#bfbfbf" points="537,-121 537,-140 602,-140 602,-121 537,-121"/>
<text text-anchor="middle" x="569.5" y="-128" font-family="Helvetica,sans-Serif" font-size="10.00">std::string</text>
</a>
</g>
</g>
<!-- Node24&#45;&gt;Node1 -->
<g id="edge40" class="edge">
<title>Node24&#45;&gt;Node1</title>
<path fill="none" stroke="#9a32cd" stroke-dasharray="5,2" d="M612.32,-124.79C685.22,-115.34 840.34,-97.5 972,-97.5 972,-97.5 972,-97.5 1896.5,-97.5 1983.39,-97.5 2065.63,-179.7 2091.86,-208.6"/>
<polygon fill="#9a32cd" stroke="#9a32cd" points="611.64,-121.35 602.18,-126.12 612.55,-128.29 611.64,-121.35"/>
<text text-anchor="middle" x="1494" y="-100.5" font-family="Helvetica,sans-Serif" font-size="10.00"> _mapFile</text>
</g>
<!-- Node24&#45;&gt;Node23 -->
<g id="edge27" class="edge">
<title>Node24&#45;&gt;Node23</title>
<path fill="none" stroke="#9a32cd" stroke-dasharray="5,2" d="M612.22,-128.85C667.12,-127.39 766.43,-127.22 850,-140.5 876.77,-144.75 905.98,-153 929.1,-160.42"/>
<polygon fill="#9a32cd" stroke="#9a32cd" points="612.07,-125.35 602.18,-129.14 612.28,-132.35 612.07,-125.35"/>
<text text-anchor="middle" x="766" y="-154.5" font-family="Helvetica,sans-Serif" font-size="10.00"> elements</text>
<text text-anchor="middle" x="766" y="-143.5" font-family="Helvetica,sans-Serif" font-size="10.00">keys</text>
</g>
<!-- Node25 -->
<g id="node25" class="node">
<title>Node25</title>
<g id="a_node25"><a xlink:title=" ">
<polygon fill="white" stroke="#bfbfbf" points="141,-120.5 141,-150.5 245,-150.5 245,-120.5 141,-120.5"/>
<text text-anchor="start" x="149" y="-138.5" font-family="Helvetica,sans-Serif" font-size="10.00">std::basic_string&lt;</text>
<text text-anchor="middle" x="193" y="-127.5" font-family="Helvetica,sans-Serif" font-size="10.00"> Char &gt;</text>
</a>
</g>
</g>
<!-- Node25&#45;&gt;Node24 -->
<g id="edge28" class="edge">
<title>Node25&#45;&gt;Node24</title>
<path fill="none" stroke="midnightblue" d="M255.32,-134.68C336.04,-133.6 474.97,-131.75 536.99,-130.92"/>
<polygon fill="midnightblue" stroke="midnightblue" points="255.24,-131.18 245.29,-134.82 255.33,-138.18 255.24,-131.18"/>
</g>
<!-- Node26&#45;&gt;Node23 -->
<g id="edge29" class="edge">
<title>Node26&#45;&gt;Node23</title>
<path fill="none" stroke="orange" stroke-dasharray="5,2" d="M599.93,-202.82C621.98,-193.34 653.19,-181.56 682,-176.5 760.47,-162.71 852.74,-165.59 911.77,-169.79"/>
<polygon fill="orange" stroke="orange" points="598.22,-199.74 590.48,-206.98 601.04,-206.15 598.22,-199.74"/>
<text text-anchor="start" x="723.5" y="-190.5" font-family="Helvetica,sans-Serif" font-size="10.00"> &lt; std::string, std</text>
<text text-anchor="middle" x="766" y="-179.5" font-family="Helvetica,sans-Serif" font-size="10.00">::string &gt;</text>
</g>
<!-- Node31 -->
<g id="node31" class="node">
<title>Node31</title>
<g id="a_node31"><a xlink:title=" ">
<polygon fill="white" stroke="#bfbfbf" points="903.5,-280.5 903.5,-310.5 1042.5,-310.5 1042.5,-280.5 903.5,-280.5"/>
<text text-anchor="start" x="911.5" y="-298.5" font-family="Helvetica,sans-Serif" font-size="10.00">std::map&lt; uint64_t,</text>
<text text-anchor="middle" x="973" y="-287.5" font-family="Helvetica,sans-Serif" font-size="10.00"> std::vector&lt; int32_t &gt; &gt;</text>
</a>
</g>
</g>
<!-- Node26&#45;&gt;Node31 -->
<g id="edge44" class="edge">
<title>Node26&#45;&gt;Node31</title>
<path fill="none" stroke="orange" stroke-dasharray="5,2" d="M617.29,-228.49C637.17,-233.42 660.66,-239.01 682,-243.5 723.23,-252.18 831.5,-271.22 903.45,-283.7"/>
<polygon fill="orange" stroke="orange" points="618.09,-225.09 607.54,-226.06 616.4,-231.88 618.09,-225.09"/>
<text text-anchor="start" x="710" y="-287.5" font-family="Helvetica,sans-Serif" font-size="10.00"> &lt; uint64_t, std::vector</text>
<text text-anchor="middle" x="766" y="-276.5" font-family="Helvetica,sans-Serif" font-size="10.00">&lt; int32_t &gt; &gt;</text>
</g>
<!-- Node27&#45;&gt;Node1 -->
<g id="edge32" class="edge">
<title>Node27&#45;&gt;Node1</title>
<path fill="none" stroke="#9a32cd" stroke-dasharray="5,2" d="M1242.59,-204.54C1309.04,-202.26 1407.3,-199.5 1493,-199.5 1493,-199.5 1493,-199.5 1896.5,-199.5 1941.85,-199.5 1992.63,-204.21 2032.18,-208.94"/>
<polygon fill="#9a32cd" stroke="#9a32cd" points="1242.08,-201.06 1232.2,-204.9 1242.32,-208.05 1242.08,-201.06"/>
<text text-anchor="middle" x="1649.5" y="-202.5" font-family="Helvetica,sans-Serif" font-size="10.00"> _readOnlyAddresses</text>
</g>
<!-- Node28 -->
<g id="node28" class="node">
<title>Node28</title>
<g id="a_node28"><a xlink:title=" ">
<polygon fill="white" stroke="#bfbfbf" points="882,-28 882,-69 1064,-69 1064,-28 882,-28"/>
<text text-anchor="start" x="890" y="-57" font-family="Helvetica,sans-Serif" font-size="10.00">std::multimap&lt; ChimeraTK</text>
<text text-anchor="start" x="890" y="-46" font-family="Helvetica,sans-Serif" font-size="10.00">::DummyBackend::AddressRange,</text>
<text text-anchor="middle" x="973" y="-35" font-family="Helvetica,sans-Serif" font-size="10.00"> boost::function&lt; void(void)&gt; &gt;</text>
</a>
</g>
</g>
<!-- Node28&#45;&gt;Node1 -->
<g id="edge35" class="edge">
<title>Node28&#45;&gt;Node1</title>
<path fill="none" stroke="#9a32cd" stroke-dasharray="5,2" d="M1074.29,-50.63C1146.84,-51.99 1247.23,-53.5 1335.5,-53.5 1335.5,-53.5 1335.5,-53.5 1896.5,-53.5 1946.53,-53.5 1964.06,-54.74 2005,-83.5 2053.39,-117.5 2085.74,-184.2 2096.53,-208.95"/>
<polygon fill="#9a32cd" stroke="#9a32cd" points="1074.31,-47.13 1064.25,-50.44 1074.18,-54.13 1074.31,-47.13"/>
<text text-anchor="middle" x="1649.5" y="-56.5" font-family="Helvetica,sans-Serif" font-size="10.00"> _writeCallbackFunctions</text>
</g>
<!-- Node29 -->
<g id="node29" class="node">
<title>Node29</title>
<g id="a_node29"><a xlink:href="struct_chimera_t_k_1_1_dummy_backend_1_1_address_range.html" target="_top" xlink:title=" ">
<polygon fill="white" stroke="black" points="491,-0.5 491,-30.5 648,-30.5 648,-0.5 491,-0.5"/>
<text text-anchor="start" x="499" y="-18.5" font-family="Helvetica,sans-Serif" font-size="10.00">ChimeraTK::DummyBackend</text>
<text text-anchor="middle" x="569.5" y="-7.5" font-family="Helvetica,sans-Serif" font-size="10.00">::AddressRange</text>
</a>
</g>
</g>
<!-- Node29&#45;&gt;Node28 -->
<g id="edge36" class="edge">
<title>Node29&#45;&gt;Node28</title>
<path fill="none" stroke="#9a32cd" stroke-dasharray="5,2" d="M658.19,-16.97C713.36,-18.54 785.99,-21.79 850,-28.5 860.35,-29.59 871.16,-30.98 881.88,-32.52"/>
<polygon fill="#9a32cd" stroke="#9a32cd" points="658.18,-13.47 648.09,-16.7 657.99,-20.47 658.18,-13.47"/>
<text text-anchor="middle" x="766" y="-31.5" font-family="Helvetica,sans-Serif" font-size="10.00"> keys</text>
</g>
<!-- Node30&#45;&gt;Node28 -->
<g id="edge37" class="edge">
<title>Node30&#45;&gt;Node28</title>
<path fill="none" stroke="orange" stroke-dasharray="5,2" d="M612.61,-64.35C633.31,-58.98 658.76,-53.25 682,-50.5 748.62,-42.6 824.46,-42.38 881.87,-43.99"/>
<polygon fill="orange" stroke="orange" points="611.61,-60.99 602.85,-66.95 613.41,-67.76 611.61,-60.99"/>
<text text-anchor="start" x="688.5" y="-75.5" font-family="Helvetica,sans-Serif" font-size="10.00"> &lt; ChimeraTK::DummyBackend</text>
<text text-anchor="start" x="688.5" y="-64.5" font-family="Helvetica,sans-Serif" font-size="10.00">::AddressRange, boost::</text>
<text text-anchor="middle" x="766" y="-53.5" font-family="Helvetica,sans-Serif" font-size="10.00">function&lt; void(void)&gt; &gt;</text>
</g>
<!-- Node31&#45;&gt;Node1 -->
<g id="edge41" class="edge">
<title>Node31&#45;&gt;Node1</title>
<path fill="none" stroke="#9a32cd" stroke-dasharray="5,2" d="M1052.7,-296.19C1125.93,-296.76 1238.09,-297.5 1335.5,-297.5 1335.5,-297.5 1335.5,-297.5 1896.5,-297.5 1972.46,-297.5 2054.24,-249.28 2086.39,-228.19"/>
<polygon fill="#9a32cd" stroke="#9a32cd" points="1052.66,-292.69 1042.63,-296.11 1052.6,-299.69 1052.66,-292.69"/>
<text text-anchor="middle" x="1649.5" y="-300.5" font-family="Helvetica,sans-Serif" font-size="10.00"> _barContents</text>
</g>
<!-- Node32&#45;&gt;Node31 -->
<g id="edge42" class="edge">
<title>Node32&#45;&gt;Node31</title>
<path fill="none" stroke="#9a32cd" stroke-dasharray="5,2" d="M642.51,-308.63C716.44,-305.68 830.66,-301.13 903.35,-298.24"/>
<polygon fill="#9a32cd" stroke="#9a32cd" points="642.21,-305.14 632.35,-309.04 642.49,-312.13 642.21,-305.14"/>
<text text-anchor="middle" x="766" y="-309.5" font-family="Helvetica,sans-Serif" font-size="10.00"> elements</text>
</g>
</g>
</svg>
