<?xml version="1.0" encoding="UTF-8" standalone="no"?>
<!DOCTYPE svg PUBLIC "-//W3C//DTD SVG 1.1//EN"
 "http://www.w3.org/Graphics/SVG/1.1/DTD/svg11.dtd">
<!-- Generated by graphviz version 2.43.0 (0)
 -->
<!-- Title: /scratch/dragon/sources/Consatt&#45;doocs/src/DoocsUpdateWatchdog.cc Pages: 1 -->
<svg width="597pt" height="159pt"
 viewBox="0.00 0.00 597.00 159.00" xmlns="http://www.w3.org/2000/svg" xmlns:xlink="http://www.w3.org/1999/xlink">
<g id="graph0" class="graph" transform="scale(1 1) rotate(0) translate(4 155)">
<title>/scratch/dragon/sources/Consatt&#45;doocs/src/DoocsUpdateWatchdog.cc</title>
<!-- Node1 -->
<g id="Node000001" class="node">
<title>Node1</title>
<g id="a_Node000001"><a xlink:title=" ">
<polygon fill="#999999" stroke="#666666" points="504.5,-151 329.5,-151 329.5,-110 504.5,-110 504.5,-151"/>
<text text-anchor="start" x="337.5" y="-139" font-family="Helvetica,sans-Serif" font-size="10.00">/scratch/dragon/sources</text>
<text text-anchor="start" x="337.5" y="-128" font-family="Helvetica,sans-Serif" font-size="10.00">/Consatt&#45;doocs/src/DoocsUpdate</text>
<text text-anchor="middle" x="417" y="-117" font-family="Helvetica,sans-Serif" font-size="10.00">Watchdog.cc</text>
</a>
</g>
</g>
<!-- Node2 -->
<g id="Node000002" class="node">
<title>Node2</title>
<g id="a_Node000002"><a xlink:href="_doocs_update_watchdog_8h.html" target="_top" xlink:title=" ">
<polygon fill="white" stroke="#666666" points="326.5,-74 187.5,-74 187.5,-55 326.5,-55 326.5,-74"/>
<text text-anchor="middle" x="257" y="-62" font-family="Helvetica,sans-Serif" font-size="10.00">DoocsUpdateWatchdog.h</text>
</a>
</g>
</g>
<!-- Node1&#45;&gt;Node2 -->
<g id="edge1_Node000001_Node000002" class="edge">
<title>Node1&#45;&gt;Node2</title>
<g id="a_edge1_Node000001_Node000002"><a xlink:title=" ">
<path fill="none" stroke="#63b8ff" d="M368.13,-109.95C342.03,-99.51 310.69,-86.98 287.96,-77.88"/>
<polygon fill="#63b8ff" stroke="#63b8ff" points="289.06,-74.56 278.48,-74.09 286.46,-81.06 289.06,-74.56"/>
</a>
</g>
</g>
<!-- Node6 -->
<g id="Node000006" class="node">
<title>Node6</title>
<g id="a_Node000006"><a xlink:title=" ">
<polygon fill="#e0e0e0" stroke="#999999" points="416,-19 366,-19 366,0 416,0 416,-19"/>
<text text-anchor="middle" x="391" y="-7" font-family="Helvetica,sans-Serif" font-size="10.00">chrono</text>
</a>
</g>
</g>
<!-- Node1&#45;&gt;Node6 -->
<g id="edge8_Node000001_Node000006" class="edge">
<title>Node1&#45;&gt;Node6</title>
<g id="a_edge8_Node000001_Node000006"><a xlink:title=" ">
<path fill="none" stroke="#63b8ff" d="M405.8,-109.89C400.52,-99.56 394.78,-86.48 392,-74 388.73,-59.33 388.66,-42.29 389.31,-29.55"/>
<polygon fill="#63b8ff" stroke="#63b8ff" points="392.82,-29.48 390.03,-19.26 385.84,-28.99 392.82,-29.48"/>
</a>
</g>
</g>
<!-- Node8 -->
<g id="Node000008" class="node">
<title>Node8</title>
<g id="a_Node000008"><a xlink:title=" ">
<polygon fill="#e0e0e0" stroke="#999999" points="523,-74 401,-74 401,-55 523,-55 523,-74"/>
<text text-anchor="middle" x="462" y="-62" font-family="Helvetica,sans-Serif" font-size="10.00">Consatt/CsaAdapter.h</text>
</a>
</g>
</g>
<!-- Node1&#45;&gt;Node8 -->
<g id="edge7_Node000001_Node000008" class="edge">
<title>Node1&#45;&gt;Node8</title>
<g id="a_edge7_Node000001_Node000008"><a xlink:title=" ">
<path fill="none" stroke="#63b8ff" d="M430.75,-109.95C436.9,-101.2 444.08,-90.99 450.01,-82.56"/>
<polygon fill="#63b8ff" stroke="#63b8ff" points="452.95,-84.45 455.84,-74.26 447.23,-80.43 452.95,-84.45"/>
</a>
</g>
</g>
<!-- Node9 -->
<g id="Node000009" class="node">
<title>Node9</title>
<g id="a_Node000009"><a xlink:title=" ">
<polygon fill="#e0e0e0" stroke="#999999" points="589,-74 541,-74 541,-55 589,-55 589,-74"/>
<text text-anchor="middle" x="565" y="-62" font-family="Helvetica,sans-Serif" font-size="10.00">thread</text>
</a>
</g>
</g>
<!-- Node1&#45;&gt;Node9 -->
<g id="edge9_Node000001_Node000009" class="edge">
<title>Node1&#45;&gt;Node9</title>
<g id="a_edge9_Node000001_Node000009"><a xlink:title=" ">
<path fill="none" stroke="#63b8ff" d="M462.21,-109.95C486.13,-99.6 514.81,-87.2 535.79,-78.13"/>
<polygon fill="#63b8ff" stroke="#63b8ff" points="537.34,-81.27 545.13,-74.09 534.56,-74.85 537.34,-81.27"/>
</a>
</g>
</g>
<!-- Node3 -->
<g id="Node000003" class="node">
<title>Node3</title>
<g id="a_Node000003"><a xlink:title=" ">
<polygon fill="#e0e0e0" stroke="#999999" points="70,-19 0,-19 0,0 70,0 70,-19"/>
<text text-anchor="middle" x="35" y="-7" font-family="Helvetica,sans-Serif" font-size="10.00">eq_client.h</text>
</a>
</g>
</g>
<!-- Node2&#45;&gt;Node3 -->
<g id="edge2_Node000002_Node000003" class="edge">
<title>Node2&#45;&gt;Node3</title>
<g id="a_edge2_Node000002_Node000003"><a xlink:title=" ">
<path fill="none" stroke="#63b8ff" d="M221.33,-54.98C182.95,-45.82 121.8,-31.22 80.11,-21.27"/>
<polygon fill="#63b8ff" stroke="#63b8ff" points="80.75,-17.82 70.21,-18.91 79.13,-24.63 80.75,-17.82"/>
</a>
</g>
</g>
<!-- Node4 -->
<g id="Node000004" class="node">
<title>Node4</title>
<g id="a_Node000004"><a xlink:title=" ">
<polygon fill="#e0e0e0" stroke="#999999" points="144,-19 88,-19 88,0 144,0 144,-19"/>
<text text-anchor="middle" x="116" y="-7" font-family="Helvetica,sans-Serif" font-size="10.00">eq_fct.h</text>
</a>
</g>
</g>
<!-- Node2&#45;&gt;Node4 -->
<g id="edge3_Node000002_Node000004" class="edge">
<title>Node2&#45;&gt;Node4</title>
<g id="a_edge3_Node000002_Node000004"><a xlink:title=" ">
<path fill="none" stroke="#63b8ff" d="M234.35,-54.98C211.15,-46.27 174.88,-32.63 148.6,-22.75"/>
<polygon fill="#63b8ff" stroke="#63b8ff" points="149.66,-19.41 139.07,-19.17 147.2,-25.97 149.66,-19.41"/>
</a>
</g>
</g>
<!-- Node5 -->
<g id="Node000005" class="node">
<title>Node5</title>
<g id="a_Node000005"><a xlink:title=" ">
<polygon fill="#e0e0e0" stroke="#999999" points="281.5,-19 162.5,-19 162.5,0 281.5,0 281.5,-19"/>
<text text-anchor="middle" x="222" y="-7" font-family="Helvetica,sans-Serif" font-size="10.00">boost/shared_ptr.hpp</text>
</a>
</g>
</g>
<!-- Node2&#45;&gt;Node5 -->
<g id="edge4_Node000002_Node000005" class="edge">
<title>Node2&#45;&gt;Node5</title>
<g id="a_edge4_Node000002_Node000005"><a xlink:title=" ">
<path fill="none" stroke="#63b8ff" d="M251.22,-54.75C246.38,-47.42 239.32,-36.73 233.36,-27.7"/>
<polygon fill="#63b8ff" stroke="#63b8ff" points="236.1,-25.5 227.67,-19.09 230.26,-29.36 236.1,-25.5"/>
</a>
</g>
</g>
<!-- Node2&#45;&gt;Node6 -->
<g id="edge5_Node000002_Node000006" class="edge">
<title>Node2&#45;&gt;Node6</title>
<g id="a_edge5_Node000002_Node000006"><a xlink:title=" ">
<path fill="none" stroke="#63b8ff" d="M278.53,-54.98C300.47,-46.3 334.74,-32.75 359.69,-22.88"/>
<polygon fill="#63b8ff" stroke="#63b8ff" points="361.07,-26.1 369.08,-19.17 358.49,-19.59 361.07,-26.1"/>
</a>
</g>
</g>
<!-- Node7 -->
<g id="Node000007" class="node">
<title>Node7</title>
<g id="a_Node000007"><a xlink:title=" ">
<polygon fill="#e0e0e0" stroke="#999999" points="348,-19 300,-19 300,0 348,0 348,-19"/>
<text text-anchor="middle" x="324" y="-7" font-family="Helvetica,sans-Serif" font-size="10.00">mutex</text>
</a>
</g>
</g>
<!-- Node2&#45;&gt;Node7 -->
<g id="edge6_Node000002_Node000007" class="edge">
<title>Node2&#45;&gt;Node7</title>
<g id="a_edge6_Node000002_Node000007"><a xlink:title=" ">
<path fill="none" stroke="#63b8ff" d="M267.76,-54.98C277.77,-47.07 292.89,-35.11 304.93,-25.58"/>
<polygon fill="#63b8ff" stroke="#63b8ff" points="307.37,-28.12 313.04,-19.17 303.03,-22.63 307.37,-28.12"/>
</a>
</g>
</g>
</g>
</svg>
