<?xml version="1.0" encoding="UTF-8" standalone="no"?>
<!DOCTYPE svg PUBLIC "-//W3C//DTD SVG 1.1//EN"
 "http://www.w3.org/Graphics/SVG/1.1/DTD/svg11.dtd">
<!-- Generated by graphviz version 2.40.1 (20161225.0304)
 -->
<!-- Title: UnidirReceiver Pages: 1 -->
<svg width="246pt" height="184pt"
 viewBox="0.00 0.00 245.50 184.00" xmlns="http://www.w3.org/2000/svg" xmlns:xlink="http://www.w3.org/1999/xlink">
<g id="graph0" class="graph" transform="scale(1 1) rotate(0) translate(4 180)">
<title>UnidirReceiver</title>
<polygon fill="#ffffff" stroke="transparent" points="-4,4 -4,-180 241.5,-180 241.5,4 -4,4"/>
<!-- Node3 -->
<g id="node1" class="node">
<title>Node3</title>
<polygon fill="#bfbfbf" stroke="#000000" points="0,-84 0,-103 88,-103 88,-84 0,-84"/>
<text text-anchor="middle" x="44" y="-91" font-family="Helvetica,sans-Serif" font-size="10.00" fill="#000000">UnidirReceiver</text>
</g>
<!-- Node4 -->
<g id="node2" class="node">
<title>Node4</title>
<g id="a_node2"><a xlink:href="struct_register_descriptor_base.html" target="_top" xlink:title="RegisterDescriptorBase\l\&lt; UnidirReceiver \&gt;">
<polygon fill="#ffffff" stroke="#000000" points="33.5,-.5 33.5,-30.5 164.5,-30.5 164.5,-.5 33.5,-.5"/>
<text text-anchor="start" x="41.5" y="-18.5" font-family="Helvetica,sans-Serif" font-size="10.00" fill="#000000">RegisterDescriptorBase</text>
<text text-anchor="middle" x="99" y="-7.5" font-family="Helvetica,sans-Serif" font-size="10.00" fill="#000000">&lt; UnidirReceiver &gt;</text>
</a>
</g>
</g>
<!-- Node3&#45;&gt;Node4 -->
<g id="edge2" class="edge">
<title>Node3&#45;&gt;Node4</title>
<path fill="none" stroke="#9a32cd" stroke-dasharray="5,2" d="M38.0767,-74.0632C36.6965,-65.8408 36.6935,-56.4606 41,-49 45.4181,-41.346 52.3248,-35.2841 59.853,-30.5435"/>
<polygon fill="#9a32cd" stroke="#9a32cd" points="34.71,-75.0336 40.4378,-83.9466 41.5184,-73.407 34.71,-75.0336"/>
<text text-anchor="middle" x="61" y="-52" font-family="Helvetica,sans-Serif" font-size="10.00" fill="#000000"> derived</text>
</g>
<!-- Node4&#45;&gt;Node3 -->
<g id="edge1" class="edge">
<title>Node4&#45;&gt;Node3</title>
<path fill="none" stroke="#191970" d="M93.7952,-40.8379C91.7212,-47.429 88.8743,-54.279 85,-60 78.5057,-69.5898 68.472,-77.8549 59.9563,-83.7763"/>
<polygon fill="#191970" stroke="#191970" points="97.2523,-41.4577 96.4546,-30.893 90.4899,-39.6493 97.2523,-41.4577"/>
</g>
<!-- Node5 -->
<g id="node3" class="node">
<title>Node5</title>
<g id="a_node3"><a xlink:href="struct_register_descriptor_base.html" target="_top" xlink:title="Base descriptor with defaults, used for all registers. ">
<polygon fill="#ffffff" stroke="#000000" points="106.5,-78.5 106.5,-108.5 237.5,-108.5 237.5,-78.5 106.5,-78.5"/>
<text text-anchor="start" x="114.5" y="-96.5" font-family="Helvetica,sans-Serif" font-size="10.00" fill="#000000">RegisterDescriptorBase</text>
<text text-anchor="middle" x="172" y="-85.5" font-family="Helvetica,sans-Serif" font-size="10.00" fill="#000000">&lt; Derived &gt;</text>
</a>
</g>
</g>
<!-- Node5&#45;&gt;Node4 -->
<g id="edge3" class="edge">
<title>Node5&#45;&gt;Node4</title>
<path fill="none" stroke="#ffa500" stroke-dasharray="5,2" d="M150.8274,-70.8772C138.7637,-57.9872 123.9704,-42.1807 113.281,-30.7592"/>
<polygon fill="#ffa500" stroke="#ffa500" points="148.5362,-73.5512 157.9249,-78.4608 153.6471,-68.768 148.5362,-73.5512"/>
<text text-anchor="middle" x="187.5" y="-52" font-family="Helvetica,sans-Serif" font-size="10.00" fill="#000000"> &lt; UnidirReceiver &gt;</text>
</g>
<!-- Node6 -->
<g id="node4" class="node">
<title>Node6</title>
<polygon fill="#ffffff" stroke="#bfbfbf" points="144.5,-156.5 144.5,-175.5 199.5,-175.5 199.5,-156.5 144.5,-156.5"/>
<text text-anchor="middle" x="172" y="-163.5" font-family="Helvetica,sans-Serif" font-size="10.00" fill="#000000">Derived</text>
</g>
<!-- Node6&#45;&gt;Node5 -->
<g id="edge4" class="edge">
<title>Node6&#45;&gt;Node5</title>
<path fill="none" stroke="#9a32cd" stroke-dasharray="5,2" d="M172,-146.0177C172,-134.2164 172,-119.513 172,-108.668"/>
<polygon fill="#9a32cd" stroke="#9a32cd" points="168.5001,-146.2223 172,-156.2223 175.5001,-146.2224 168.5001,-146.2223"/>
<text text-anchor="middle" x="192" y="-130" font-family="Helvetica,sans-Serif" font-size="10.00" fill="#000000"> derived</text>
</g>
</g>
</svg>
