<?xml version="1.0" encoding="UTF-8" standalone="no"?>
<!DOCTYPE svg PUBLIC "-//W3C//DTD SVG 1.1//EN"
 "http://www.w3.org/Graphics/SVG/1.1/DTD/svg11.dtd">
<!-- Generated by graphviz version 2.43.0 (0)
 -->
<!-- Title: TimerDummy Pages: 1 -->
<svg width="380pt" height="95pt"
 viewBox="0.00 0.00 380.00 95.00" xmlns="http://www.w3.org/2000/svg" xmlns:xlink="http://www.w3.org/1999/xlink">
<g id="graph0" class="graph" transform="scale(1 1) rotate(0) translate(4 91)">
<title>TimerDummy</title>
<polygon fill="white" stroke="transparent" points="-4,4 -4,-91 376,-91 376,4 -4,4"/>
<!-- Node1 -->
<g id="node1" class="node">
<title>Node1</title>
<g id="a_node1"><a xlink:title=" ">
<polygon fill="#bfbfbf" stroke="black" points="141.5,-0.5 141.5,-19.5 225.5,-19.5 225.5,-0.5 141.5,-0.5"/>
<text text-anchor="middle" x="183.5" y="-7.5" font-family="Helvetica,sans-Serif" font-size="10.00">TimerDummy</text>
</a>
</g>
</g>
<!-- Node2 -->
<g id="node2" class="node">
<title>Node2</title>
<g id="a_node2"><a xlink:title=" ">
<polygon fill="white" stroke="#bfbfbf" points="0,-67.5 0,-86.5 173,-86.5 173,-67.5 0,-67.5"/>
<text text-anchor="middle" x="86.5" y="-74.5" font-family="Helvetica,sans-Serif" font-size="10.00">ChimeraTK::DeviceBackendImpl</text>
</a>
</g>
</g>
<!-- Node2&#45;&gt;Node1 -->
<g id="edge1" class="edge">
<title>Node2&#45;&gt;Node1</title>
<path fill="none" stroke="midnightblue" d="M108,-61.59C127.19,-48.74 154.65,-30.33 170.63,-19.63"/>
<polygon fill="midnightblue" stroke="midnightblue" points="105.94,-58.76 99.58,-67.23 109.84,-64.57 105.94,-58.76"/>
</g>
<!-- Node3 -->
<g id="node3" class="node">
<title>Node3</title>
<g id="a_node3"><a xlink:href="class_timer_dummy_1_1_backend_registerer.html" target="_top" xlink:title="Class to register the backend type with the factory.">
<polygon fill="white" stroke="black" points="191,-67.5 191,-86.5 372,-86.5 372,-67.5 191,-67.5"/>
<text text-anchor="middle" x="281.5" y="-74.5" font-family="Helvetica,sans-Serif" font-size="10.00">TimerDummy::BackendRegisterer</text>
</a>
</g>
</g>
<!-- Node3&#45;&gt;Node1 -->
<g id="edge2" class="edge">
<title>Node3&#45;&gt;Node1</title>
<path fill="none" stroke="#9a32cd" stroke-dasharray="5,2" d="M259.78,-61.59C240.39,-48.74 212.64,-30.33 196.51,-19.63"/>
<polygon fill="#9a32cd" stroke="#9a32cd" points="258.02,-64.62 268.28,-67.23 261.88,-58.79 258.02,-64.62"/>
<text text-anchor="middle" x="285.5" y="-41" font-family="Helvetica,sans-Serif" font-size="10.00"> backendRegisterer</text>
</g>
</g>
</svg>
