<?xml version="1.0" encoding="UTF-8" standalone="no"?>
<!DOCTYPE svg PUBLIC "-//W3C//DTD SVG 1.1//EN"
 "http://www.w3.org/Graphics/SVG/1.1/DTD/svg11.dtd">
<!-- Generated by graphviz version 2.43.0 (0)
 -->
<!-- Title: /scratch/dragon/sources/mtca4u&#45;MotorDriverCard/backend/src/MotorControlerDummy.cc Pages: 1 -->
<svg width="501pt" height="330pt"
 viewBox="0.00 0.00 500.50 330.00" xmlns="http://www.w3.org/2000/svg" xmlns:xlink="http://www.w3.org/1999/xlink">
<g id="graph0" class="graph" transform="scale(1 1) rotate(0) translate(4 326)">
<title>/scratch/dragon/sources/mtca4u&#45;MotorDriverCard/backend/src/MotorControlerDummy.cc</title>
<polygon fill="white" stroke="transparent" points="-4,4 -4,-326 496.5,-326 496.5,4 -4,4"/>
<!-- Node1 -->
<g id="node1" class="node">
<title>Node1</title>
<g id="a_node1"><a xlink:title=" ">
<polygon fill="#bfbfbf" stroke="black" points="246,-280.5 246,-321.5 451,-321.5 451,-280.5 246,-280.5"/>
<text text-anchor="start" x="254" y="-309.5" font-family="Helvetica,sans-Serif" font-size="10.00">/scratch/dragon/sources</text>
<text text-anchor="start" x="254" y="-298.5" font-family="Helvetica,sans-Serif" font-size="10.00">/mtca4u&#45;MotorDriverCard</text>
<text text-anchor="middle" x="348.5" y="-287.5" font-family="Helvetica,sans-Serif" font-size="10.00">/backend/src/MotorControlerDummy.cc</text>
</a>
</g>
</g>
<!-- Node2 -->
<g id="node2" class="node">
<title>Node2</title>
<g id="a_node2"><a xlink:href="_motor_controler_dummy_8h.html" target="_top" xlink:title=" ">
<polygon fill="white" stroke="black" points="128,-224.5 128,-243.5 265,-243.5 265,-224.5 128,-224.5"/>
<text text-anchor="middle" x="196.5" y="-231.5" font-family="Helvetica,sans-Serif" font-size="10.00">MotorControlerDummy.h</text>
</a>
</g>
</g>
<!-- Node1&#45;&gt;Node2 -->
<g id="edge1" class="edge">
<title>Node1&#45;&gt;Node2</title>
<path fill="none" stroke="midnightblue" d="M302.89,-280.5C278.02,-269.86 247.95,-257 226.13,-247.67"/>
<polygon fill="midnightblue" stroke="midnightblue" points="227.3,-244.37 216.73,-243.65 224.55,-250.8 227.3,-244.37"/>
</g>
<!-- Node10 -->
<g id="node10" class="node">
<title>Node10</title>
<g id="a_node10"><a xlink:title=" ">
<polygon fill="white" stroke="#bfbfbf" points="283,-224.5 283,-243.5 414,-243.5 414,-224.5 283,-224.5"/>
<text text-anchor="middle" x="348.5" y="-231.5" font-family="Helvetica,sans-Serif" font-size="10.00">ChimeraTK/Exception.h</text>
</a>
</g>
</g>
<!-- Node1&#45;&gt;Node10 -->
<g id="edge10" class="edge">
<title>Node1&#45;&gt;Node10</title>
<path fill="none" stroke="midnightblue" d="M348.5,-280.5C348.5,-272.07 348.5,-262.24 348.5,-253.87"/>
<polygon fill="midnightblue" stroke="midnightblue" points="352,-253.65 348.5,-243.65 345,-253.65 352,-253.65"/>
</g>
<!-- Node11 -->
<g id="node11" class="node">
<title>Node11</title>
<g id="a_node11"><a xlink:title=" ">
<polygon fill="white" stroke="#bfbfbf" points="432.5,-224.5 432.5,-243.5 492.5,-243.5 492.5,-224.5 432.5,-224.5"/>
<text text-anchor="middle" x="462.5" y="-231.5" font-family="Helvetica,sans-Serif" font-size="10.00">iostream</text>
</a>
</g>
</g>
<!-- Node1&#45;&gt;Node11 -->
<g id="edge11" class="edge">
<title>Node1&#45;&gt;Node11</title>
<path fill="none" stroke="midnightblue" d="M382.7,-280.5C400.69,-270.24 422.29,-257.93 438.49,-248.69"/>
<polygon fill="midnightblue" stroke="midnightblue" points="440.37,-251.65 447.32,-243.65 436.9,-245.57 440.37,-251.65"/>
</g>
<!-- Node3 -->
<g id="node3" class="node">
<title>Node3</title>
<g id="a_node3"><a xlink:href="_motor_controler_8h.html" target="_top" xlink:title=" ">
<polygon fill="white" stroke="black" points="102.5,-168.5 102.5,-187.5 200.5,-187.5 200.5,-168.5 102.5,-168.5"/>
<text text-anchor="middle" x="151.5" y="-175.5" font-family="Helvetica,sans-Serif" font-size="10.00">MotorControler.h</text>
</a>
</g>
</g>
<!-- Node2&#45;&gt;Node3 -->
<g id="edge2" class="edge">
<title>Node2&#45;&gt;Node3</title>
<path fill="none" stroke="midnightblue" d="M189.07,-224.08C182.65,-216.38 173.19,-205.03 165.38,-195.65"/>
<polygon fill="midnightblue" stroke="midnightblue" points="167.88,-193.19 158.79,-187.75 162.51,-197.67 167.88,-193.19"/>
</g>
<!-- Node9 -->
<g id="node9" class="node">
<title>Node9</title>
<g id="a_node9"><a xlink:title=" ">
<polygon fill="white" stroke="#bfbfbf" points="218.5,-168.5 218.5,-187.5 266.5,-187.5 266.5,-168.5 218.5,-168.5"/>
<text text-anchor="middle" x="242.5" y="-175.5" font-family="Helvetica,sans-Serif" font-size="10.00">mutex</text>
</a>
</g>
</g>
<!-- Node2&#45;&gt;Node9 -->
<g id="edge9" class="edge">
<title>Node2&#45;&gt;Node9</title>
<path fill="none" stroke="midnightblue" d="M204.1,-224.08C210.73,-216.3 220.52,-204.8 228.56,-195.37"/>
<polygon fill="midnightblue" stroke="midnightblue" points="231.23,-197.63 235.05,-187.75 225.9,-193.09 231.23,-197.63"/>
</g>
<!-- Node4 -->
<g id="node4" class="node">
<title>Node4</title>
<g id="a_node4"><a xlink:href="_motor_reference_switch_data_8h.html" target="_top" xlink:title=" ">
<polygon fill="white" stroke="black" points="0,-112.5 0,-131.5 159,-131.5 159,-112.5 0,-112.5"/>
<text text-anchor="middle" x="79.5" y="-119.5" font-family="Helvetica,sans-Serif" font-size="10.00">MotorReferenceSwitchData.h</text>
</a>
</g>
</g>
<!-- Node3&#45;&gt;Node4 -->
<g id="edge3" class="edge">
<title>Node3&#45;&gt;Node4</title>
<path fill="none" stroke="midnightblue" d="M139.93,-168.32C129.08,-160.18 112.62,-147.84 99.62,-138.09"/>
<polygon fill="midnightblue" stroke="midnightblue" points="101.38,-135.03 91.28,-131.83 97.18,-140.63 101.38,-135.03"/>
</g>
<!-- Node6 -->
<g id="node6" class="node">
<title>Node6</title>
<g id="a_node6"><a xlink:href="_t_m_c260_words_8h.html" target="_top" xlink:title=" ">
<polygon fill="white" stroke="black" points="177,-112.5 177,-131.5 272,-131.5 272,-112.5 177,-112.5"/>
<text text-anchor="middle" x="224.5" y="-119.5" font-family="Helvetica,sans-Serif" font-size="10.00">TMC260Words.h</text>
</a>
</g>
</g>
<!-- Node3&#45;&gt;Node6 -->
<g id="edge5" class="edge">
<title>Node3&#45;&gt;Node6</title>
<path fill="none" stroke="midnightblue" d="M163.23,-168.32C174.34,-160.11 191.24,-147.6 204.48,-137.81"/>
<polygon fill="midnightblue" stroke="midnightblue" points="206.6,-140.59 212.56,-131.83 202.44,-134.97 206.6,-140.59"/>
</g>
<!-- Node5 -->
<g id="node5" class="node">
<title>Node5</title>
<g id="a_node5"><a xlink:href="_multi_variable_word_8h.html" target="_top" xlink:title=" ">
<polygon fill="white" stroke="black" points="28,-56.5 28,-75.5 143,-75.5 143,-56.5 28,-56.5"/>
<text text-anchor="middle" x="85.5" y="-63.5" font-family="Helvetica,sans-Serif" font-size="10.00">MultiVariableWord.h</text>
</a>
</g>
</g>
<!-- Node4&#45;&gt;Node5 -->
<g id="edge4" class="edge">
<title>Node4&#45;&gt;Node5</title>
<path fill="none" stroke="midnightblue" d="M80.49,-112.08C81.29,-104.93 82.43,-94.64 83.42,-85.69"/>
<polygon fill="midnightblue" stroke="midnightblue" points="86.9,-86.08 84.53,-75.75 79.94,-85.3 86.9,-86.08"/>
</g>
<!-- Node6&#45;&gt;Node5 -->
<g id="edge6" class="edge">
<title>Node6&#45;&gt;Node5</title>
<path fill="none" stroke="midnightblue" d="M202.48,-112.44C179.4,-103.48 142.94,-89.31 116.86,-79.18"/>
<polygon fill="midnightblue" stroke="midnightblue" points="118.01,-75.88 107.42,-75.52 115.48,-82.4 118.01,-75.88"/>
</g>
<!-- Node7 -->
<g id="node7" class="node">
<title>Node7</title>
<g id="a_node7"><a xlink:href="_t_m_c260_constants_8h.html" target="_top" xlink:title=" ">
<polygon fill="white" stroke="black" points="167.5,-56.5 167.5,-75.5 281.5,-75.5 281.5,-56.5 167.5,-56.5"/>
<text text-anchor="middle" x="224.5" y="-63.5" font-family="Helvetica,sans-Serif" font-size="10.00">TMC260Constants.h</text>
</a>
</g>
</g>
<!-- Node6&#45;&gt;Node7 -->
<g id="edge7" class="edge">
<title>Node6&#45;&gt;Node7</title>
<path fill="none" stroke="midnightblue" d="M224.5,-112.08C224.5,-105.01 224.5,-94.86 224.5,-85.99"/>
<polygon fill="midnightblue" stroke="midnightblue" points="228,-85.75 224.5,-75.75 221,-85.75 228,-85.75"/>
</g>
<!-- Node8 -->
<g id="node8" class="node">
<title>Node8</title>
<g id="a_node8"><a xlink:title=" ">
<polygon fill="white" stroke="#bfbfbf" points="198,-0.5 198,-19.5 251,-19.5 251,-0.5 198,-0.5"/>
<text text-anchor="middle" x="224.5" y="-7.5" font-family="Helvetica,sans-Serif" font-size="10.00">stdint.h</text>
</a>
</g>
</g>
<!-- Node7&#45;&gt;Node8 -->
<g id="edge8" class="edge">
<title>Node7&#45;&gt;Node8</title>
<path fill="none" stroke="midnightblue" d="M224.5,-56.08C224.5,-49.01 224.5,-38.86 224.5,-29.99"/>
<polygon fill="midnightblue" stroke="midnightblue" points="228,-29.75 224.5,-19.75 221,-29.75 228,-29.75"/>
</g>
</g>
</svg>
