<?xml version="1.0" encoding="UTF-8" standalone="no"?>
<!DOCTYPE svg PUBLIC "-//W3C//DTD SVG 1.1//EN"
 "http://www.w3.org/Graphics/SVG/1.1/DTD/svg11.dtd">
<!-- Generated by graphviz version 2.43.0 (0)
 -->
<!-- Title: /scratch/dragon/sources/mtca4u&#45;MotorDriverCard/backend/include/MotorControlerDummy.h Pages: 1 -->
<svg width="343pt" height="280pt"
 viewBox="0.00 0.00 342.50 280.00" xmlns="http://www.w3.org/2000/svg" xmlns:xlink="http://www.w3.org/1999/xlink">
<g id="graph0" class="graph" transform="scale(1 1) rotate(0) translate(4 276)">
<title>/scratch/dragon/sources/mtca4u&#45;MotorDriverCard/backend/include/MotorControlerDummy.h</title>
<!-- Node1 -->
<g id="Node000001" class="node">
<title>Node1</title>
<g id="a_Node000001"><a xlink:title=" ">
<polygon fill="#999999" stroke="#666666" points="331,-272 156,-272 156,-220 331,-220 331,-272"/>
<text text-anchor="start" x="164" y="-260" font-family="Helvetica,sans-Serif" font-size="10.00">/scratch/dragon/sources</text>
<text text-anchor="start" x="164" y="-249" font-family="Helvetica,sans-Serif" font-size="10.00">/mtca4u&#45;MotorDriverCard</text>
<text text-anchor="start" x="164" y="-238" font-family="Helvetica,sans-Serif" font-size="10.00">/backend/include/MotorControler</text>
<text text-anchor="middle" x="243.5" y="-227" font-family="Helvetica,sans-Serif" font-size="10.00">Dummy.h</text>
</a>
</g>
</g>
<!-- Node2 -->
<g id="Node000002" class="node">
<title>Node2</title>
<g id="a_Node000002"><a xlink:href="_motor_controler_8h.html" target="_top" xlink:title=" ">
<polygon fill="white" stroke="#666666" points="200.5,-184 102.5,-184 102.5,-165 200.5,-165 200.5,-184"/>
<text text-anchor="middle" x="151.5" y="-172" font-family="Helvetica,sans-Serif" font-size="10.00">MotorControler.h</text>
</a>
</g>
</g>
<!-- Node1&#45;&gt;Node2 -->
<g id="edge1_Node000001_Node000002" class="edge">
<title>Node1&#45;&gt;Node2</title>
<g id="a_edge1_Node000001_Node000002"><a xlink:title=" ">
<path fill="none" stroke="#63b8ff" d="M210.29,-219.91C197.16,-209.99 182.53,-198.94 171.14,-190.34"/>
<polygon fill="#63b8ff" stroke="#63b8ff" points="173.24,-187.54 163.15,-184.3 169.02,-193.12 173.24,-187.54"/>
</a>
</g>
</g>
<!-- Node8 -->
<g id="Node000008" class="node">
<title>Node8</title>
<g id="a_Node000008"><a xlink:title=" ">
<polygon fill="#e0e0e0" stroke="#999999" points="268.5,-184 218.5,-184 218.5,-165 268.5,-165 268.5,-184"/>
<text text-anchor="middle" x="243.5" y="-172" font-family="Helvetica,sans-Serif" font-size="10.00">atomic</text>
</a>
</g>
</g>
<!-- Node1&#45;&gt;Node8 -->
<g id="edge8_Node000001_Node000008" class="edge">
<title>Node1&#45;&gt;Node8</title>
<g id="a_edge8_Node000001_Node000008"><a xlink:title=" ">
<path fill="none" stroke="#63b8ff" d="M243.5,-219.91C243.5,-211.55 243.5,-202.38 243.5,-194.55"/>
<polygon fill="#63b8ff" stroke="#63b8ff" points="247,-194.3 243.5,-184.3 240,-194.3 247,-194.3"/>
</a>
</g>
</g>
<!-- Node9 -->
<g id="Node000009" class="node">
<title>Node9</title>
<g id="a_Node000009"><a xlink:title=" ">
<polygon fill="#e0e0e0" stroke="#999999" points="334.5,-184 286.5,-184 286.5,-165 334.5,-165 334.5,-184"/>
<text text-anchor="middle" x="310.5" y="-172" font-family="Helvetica,sans-Serif" font-size="10.00">mutex</text>
</a>
</g>
</g>
<!-- Node1&#45;&gt;Node9 -->
<g id="edge9_Node000001_Node000009" class="edge">
<title>Node1&#45;&gt;Node9</title>
<g id="a_edge9_Node000001_Node000009"><a xlink:title=" ">
<path fill="none" stroke="#63b8ff" d="M267.69,-219.91C276.78,-210.48 286.86,-200.02 294.96,-191.62"/>
<polygon fill="#63b8ff" stroke="#63b8ff" points="297.59,-193.93 302.01,-184.3 292.55,-189.07 297.59,-193.93"/>
</a>
</g>
</g>
<!-- Node3 -->
<g id="Node000003" class="node">
<title>Node3</title>
<g id="a_Node000003"><a xlink:href="_motor_reference_switch_data_8h.html" target="_top" xlink:title=" ">
<polygon fill="white" stroke="#666666" points="159,-129 0,-129 0,-110 159,-110 159,-129"/>
<text text-anchor="middle" x="79.5" y="-117" font-family="Helvetica,sans-Serif" font-size="10.00">MotorReferenceSwitchData.h</text>
</a>
</g>
</g>
<!-- Node2&#45;&gt;Node3 -->
<g id="edge2_Node000002_Node000003" class="edge">
<title>Node2&#45;&gt;Node3</title>
<g id="a_edge2_Node000002_Node000003"><a xlink:title=" ">
<path fill="none" stroke="#63b8ff" d="M139.93,-164.98C129.08,-157 112.62,-144.88 99.62,-135.31"/>
<polygon fill="#63b8ff" stroke="#63b8ff" points="101.41,-132.28 91.28,-129.17 97.26,-137.92 101.41,-132.28"/>
</a>
</g>
</g>
<!-- Node5 -->
<g id="Node000005" class="node">
<title>Node5</title>
<g id="a_Node000005"><a xlink:href="_t_m_c260_words_8h.html" target="_top" xlink:title=" ">
<polygon fill="white" stroke="#666666" points="272,-129 177,-129 177,-110 272,-110 272,-129"/>
<text text-anchor="middle" x="224.5" y="-117" font-family="Helvetica,sans-Serif" font-size="10.00">TMC260Words.h</text>
</a>
</g>
</g>
<!-- Node2&#45;&gt;Node5 -->
<g id="edge4_Node000002_Node000005" class="edge">
<title>Node2&#45;&gt;Node5</title>
<g id="a_edge4_Node000002_Node000005"><a xlink:title=" ">
<path fill="none" stroke="#63b8ff" d="M163.23,-164.98C174.23,-157 190.92,-144.88 204.1,-135.31"/>
<polygon fill="#63b8ff" stroke="#63b8ff" points="206.52,-137.88 212.56,-129.17 202.41,-132.21 206.52,-137.88"/>
</a>
</g>
</g>
<!-- Node4 -->
<g id="Node000004" class="node">
<title>Node4</title>
<g id="a_Node000004"><a xlink:href="_multi_variable_word_8h.html" target="_top" xlink:title=" ">
<polygon fill="white" stroke="#666666" points="143,-74 28,-74 28,-55 143,-55 143,-74"/>
<text text-anchor="middle" x="85.5" y="-62" font-family="Helvetica,sans-Serif" font-size="10.00">MultiVariableWord.h</text>
</a>
</g>
</g>
<!-- Node3&#45;&gt;Node4 -->
<g id="edge3_Node000003_Node000004" class="edge">
<title>Node3&#45;&gt;Node4</title>
<g id="a_edge3_Node000003_Node000004"><a xlink:title=" ">
<path fill="none" stroke="#63b8ff" d="M80.49,-109.75C81.28,-102.8 82.4,-92.85 83.39,-84.13"/>
<polygon fill="#63b8ff" stroke="#63b8ff" points="86.88,-84.42 84.53,-74.09 79.92,-83.63 86.88,-84.42"/>
</a>
</g>
</g>
<!-- Node5&#45;&gt;Node4 -->
<g id="edge5_Node000005_Node000004" class="edge">
<title>Node5&#45;&gt;Node4</title>
<g id="a_edge5_Node000005_Node000004"><a xlink:title=" ">
<path fill="none" stroke="#63b8ff" d="M202.17,-109.98C179.3,-101.27 143.54,-87.63 117.64,-77.75"/>
<polygon fill="#63b8ff" stroke="#63b8ff" points="118.83,-74.46 108.24,-74.17 116.34,-81 118.83,-74.46"/>
</a>
</g>
</g>
<!-- Node6 -->
<g id="Node000006" class="node">
<title>Node6</title>
<g id="a_Node000006"><a xlink:href="_t_m_c260_constants_8h.html" target="_top" xlink:title=" ">
<polygon fill="white" stroke="#666666" points="281.5,-74 167.5,-74 167.5,-55 281.5,-55 281.5,-74"/>
<text text-anchor="middle" x="224.5" y="-62" font-family="Helvetica,sans-Serif" font-size="10.00">TMC260Constants.h</text>
</a>
</g>
</g>
<!-- Node5&#45;&gt;Node6 -->
<g id="edge6_Node000005_Node000006" class="edge">
<title>Node5&#45;&gt;Node6</title>
<g id="a_edge6_Node000005_Node000006"><a xlink:title=" ">
<path fill="none" stroke="#63b8ff" d="M224.5,-109.75C224.5,-102.8 224.5,-92.85 224.5,-84.13"/>
<polygon fill="#63b8ff" stroke="#63b8ff" points="228,-84.09 224.5,-74.09 221,-84.09 228,-84.09"/>
</a>
</g>
</g>
<!-- Node7 -->
<g id="Node000007" class="node">
<title>Node7</title>
<g id="a_Node000007"><a xlink:title=" ">
<polygon fill="#e0e0e0" stroke="#999999" points="251,-19 198,-19 198,0 251,0 251,-19"/>
<text text-anchor="middle" x="224.5" y="-7" font-family="Helvetica,sans-Serif" font-size="10.00">stdint.h</text>
</a>
</g>
</g>
<!-- Node6&#45;&gt;Node7 -->
<g id="edge7_Node000006_Node000007" class="edge">
<title>Node6&#45;&gt;Node7</title>
<g id="a_edge7_Node000006_Node000007"><a xlink:title=" ">
<path fill="none" stroke="#63b8ff" d="M224.5,-54.75C224.5,-47.8 224.5,-37.85 224.5,-29.13"/>
<polygon fill="#63b8ff" stroke="#63b8ff" points="228,-29.09 224.5,-19.09 221,-29.09 228,-29.09"/>
</a>
</g>
</g>
</g>
</svg>
