<?xml version="1.0" encoding="UTF-8" standalone="no"?>
<!DOCTYPE svg PUBLIC "-//W3C//DTD SVG 1.1//EN"
 "http://www.w3.org/Graphics/SVG/1.1/DTD/svg11.dtd">
<!-- Generated by graphviz version 2.43.0 (0)
 -->
<!-- Title: ChimeraTK::MotorDriver::BasicStepperMotor::resetMotorControllerPositions Pages: 1 -->
<!--zoomable 230 -->
<svg id="main" version="1.1" xmlns="http://www.w3.org/2000/svg" xmlns:xlink="http://www.w3.org/1999/xlink" xml:space="preserve" onload="init(evt)">
<style type="text/css"><![CDATA[
.edge:hover path { stroke: red; }
.edge:hover polygon { stroke: red; fill: red; }
]]></style>
<script type="text/javascript"><![CDATA[
var edges = document.getElementsByTagName('g');
if (edges && edges.length) {
  for (var i=0;i<edges.length;i++) {
    if (edges[i].id.substr(0,4)=='edge') {
      edges[i].setAttribute('class','edge');
    }
  }
}
]]></script>
        <defs>
                <circle id="rim" cx="0" cy="0" r="7"/>
                <circle id="rim2" cx="0" cy="0" r="3.5"/>
                <g id="zoomPlus">
                        <use xlink:href="#rim" fill="#404040">
                                <set attributeName="fill" to="#808080" begin="zoomplus.mouseover" end="zoomplus.mouseout"/>
                        </use>
                        <path d="M-4,0h8M0,-4v8" fill="none" stroke="white" stroke-width="1.5" pointer-events="none"/>
                </g>
                <g id="zoomMin">
                        <use xlink:href="#rim" fill="#404040">
                                <set attributeName="fill" to="#808080" begin="zoomminus.mouseover" end="zoomminus.mouseout"/>
                        </use>
                        <path d="M-4,0h8" fill="none" stroke="white" stroke-width="1.5" pointer-events="none"/>
                </g>
                <g id="dirArrow">
                        <path fill="none" stroke="white" stroke-width="1.5" d="M0,-3.0v7 M-2.5,-0.5L0,-3.0L2.5,-0.5"/>
                </g>
               <g id="resetDef">
                       <use xlink:href="#rim2" fill="#404040">
                               <set attributeName="fill" to="#808080" begin="reset.mouseover" end="reset.mouseout"/>
                       </use>
               </g>
        </defs>

<script type="text/javascript">
var viewWidth = 809;
var viewHeight = 230;
var sectionId = 'dynsection-12';
</script>
<script xlink:href="svgpan.js"/>
<svg id="graph" class="graph">
<g id="viewport">
<title>ChimeraTK::MotorDriver::BasicStepperMotor::resetMotorControllerPositions</title>
<polygon fill="white" stroke="transparent" points="-4,4 -4,-226 805,-226 805,4 -4,4"/>
<!-- Node1 -->
<g id="node1" class="node">
<title>Node1</title>
<g id="a_node1"><a xlink:title="Resets target and actual postions of the MotorControler.">
<polygon fill="#bfbfbf" stroke="black" points="627,-90.5 627,-131.5 801,-131.5 801,-90.5 627,-90.5"/>
<text text-anchor="start" x="635" y="-119.5" font-family="Helvetica,sans-Serif" font-size="10.00">ChimeraTK::MotorDriver</text>
<text text-anchor="start" x="635" y="-108.5" font-family="Helvetica,sans-Serif" font-size="10.00">::BasicStepperMotor::resetMotor</text>
<text text-anchor="middle" x="714" y="-97.5" font-family="Helvetica,sans-Serif" font-size="10.00">ControllerPositions</text>
</a>
</g>
</g>
<!-- Node2 -->
<g id="node2" class="node">
<title>Node2</title>
<g id="a_node2"><a xlink:href="class_chimera_t_k_1_1_motor_driver_1_1_basic_stepper_motor.html#a0af82d152bb50f81710ce55083792cbd" target="_top" xlink:title="Common actions for setActualPosition for this and derived classes.">
<polygon fill="white" stroke="black" points="424,-120.5 424,-161.5 591,-161.5 591,-120.5 424,-120.5"/>
<text text-anchor="start" x="432" y="-149.5" font-family="Helvetica,sans-Serif" font-size="10.00">ChimeraTK::MotorDriver</text>
<text text-anchor="start" x="432" y="-138.5" font-family="Helvetica,sans-Serif" font-size="10.00">::BasicStepperMotor::setActual</text>
<text text-anchor="middle" x="507.5" y="-127.5" font-family="Helvetica,sans-Serif" font-size="10.00">PositionActions</text>
</a>
</g>
</g>
<!-- Node1&#45;&gt;Node2 -->
<g id="edge1" class="edge">
<title>Node1&#45;&gt;Node2</title>
<path fill="none" stroke="midnightblue" d="M616.86,-125.1C608.31,-126.36 599.7,-127.62 591.27,-128.86"/>
<polygon fill="midnightblue" stroke="midnightblue" points="617.48,-128.55 626.87,-123.64 616.46,-121.62 617.48,-128.55"/>
</g>
<!-- Node6 -->
<g id="node6" class="node">
<title>Node6</title>
<g id="a_node6"><a xlink:href="class_chimera_t_k_1_1_motor_driver_1_1_basic_stepper_motor.html#abff8a147f901de8981161c3723621e0d" target="_top" xlink:title="Common actions for translateAxis for this and derived classes.">
<polygon fill="white" stroke="black" points="425.5,-60.5 425.5,-101.5 589.5,-101.5 589.5,-60.5 425.5,-60.5"/>
<text text-anchor="start" x="433.5" y="-89.5" font-family="Helvetica,sans-Serif" font-size="10.00">ChimeraTK::MotorDriver</text>
<text text-anchor="start" x="433.5" y="-78.5" font-family="Helvetica,sans-Serif" font-size="10.00">::BasicStepperMotor::translate</text>
<text text-anchor="middle" x="507.5" y="-67.5" font-family="Helvetica,sans-Serif" font-size="10.00">AxisActions</text>
</a>
</g>
</g>
<!-- Node1&#45;&gt;Node6 -->
<g id="edge5" class="edge">
<title>Node1&#45;&gt;Node6</title>
<path fill="none" stroke="midnightblue" d="M616.69,-96.87C607.64,-95.54 598.53,-94.21 589.64,-92.9"/>
<polygon fill="midnightblue" stroke="midnightblue" points="616.46,-100.38 626.87,-98.36 617.48,-93.45 616.46,-100.38"/>
</g>
<!-- Node3 -->
<g id="node3" class="node">
<title>Node3</title>
<g id="a_node3"><a xlink:href="class_chimera_t_k_1_1_motor_driver_1_1_linear_stepper_motor.html#a19d406026151ebfad3773071be6c389c" target="_top" xlink:title="Simple calibration of the linear stage by defining the actual position in steps.">
<polygon fill="white" stroke="black" points="236,-180.5 236,-221.5 373,-221.5 373,-180.5 236,-180.5"/>
<text text-anchor="start" x="244" y="-209.5" font-family="Helvetica,sans-Serif" font-size="10.00">ChimeraTK::MotorDriver</text>
<text text-anchor="start" x="244" y="-198.5" font-family="Helvetica,sans-Serif" font-size="10.00">::LinearStepperMotor::</text>
<text text-anchor="middle" x="304.5" y="-187.5" font-family="Helvetica,sans-Serif" font-size="10.00">setActualPositionInSteps</text>
</a>
</g>
</g>
<!-- Node2&#45;&gt;Node3 -->
<g id="edge2" class="edge">
<title>Node2&#45;&gt;Node3</title>
<path fill="none" stroke="midnightblue" d="M427.73,-164.51C409.74,-169.88 390.77,-175.55 373.28,-180.77"/>
<polygon fill="midnightblue" stroke="midnightblue" points="429.03,-167.78 437.61,-161.56 427.03,-161.07 429.03,-167.78"/>
</g>
<!-- Node4 -->
<g id="node4" class="node">
<title>Node4</title>
<g id="a_node4"><a xlink:href="class_chimera_t_k_1_1_motor_driver_1_1_basic_stepper_motor.html#ae9173e912046ef7143fd10b6dc505201" target="_top" xlink:title="set actual position in steps of the motor respect to some reference">
<polygon fill="white" stroke="black" points="221,-120.5 221,-161.5 388,-161.5 388,-120.5 221,-120.5"/>
<text text-anchor="start" x="229" y="-149.5" font-family="Helvetica,sans-Serif" font-size="10.00">ChimeraTK::MotorDriver</text>
<text text-anchor="start" x="229" y="-138.5" font-family="Helvetica,sans-Serif" font-size="10.00">::BasicStepperMotor::setActual</text>
<text text-anchor="middle" x="304.5" y="-127.5" font-family="Helvetica,sans-Serif" font-size="10.00">PositionInSteps</text>
</a>
</g>
</g>
<!-- Node2&#45;&gt;Node4 -->
<g id="edge3" class="edge">
<title>Node2&#45;&gt;Node4</title>
<path fill="none" stroke="midnightblue" d="M413.85,-141C405.27,-141 396.61,-141 388.13,-141"/>
<polygon fill="midnightblue" stroke="midnightblue" points="413.88,-144.5 423.88,-141 413.88,-137.5 413.88,-144.5"/>
</g>
<!-- Node5 -->
<g id="node5" class="node">
<title>Node5</title>
<g id="a_node5"><a xlink:href="class_chimera_t_k_1_1_motor_driver_1_1_basic_stepper_motor.html#af907c429a1af269972e712c3deee4493" target="_top" xlink:title="set actual position in units of the motor respect to some reference">
<polygon fill="white" stroke="black" points="9,-120.5 9,-161.5 176,-161.5 176,-120.5 9,-120.5"/>
<text text-anchor="start" x="17" y="-149.5" font-family="Helvetica,sans-Serif" font-size="10.00">ChimeraTK::MotorDriver</text>
<text text-anchor="start" x="17" y="-138.5" font-family="Helvetica,sans-Serif" font-size="10.00">::BasicStepperMotor::setActual</text>
<text text-anchor="middle" x="92.5" y="-127.5" font-family="Helvetica,sans-Serif" font-size="10.00">Position</text>
</a>
</g>
</g>
<!-- Node4&#45;&gt;Node5 -->
<g id="edge4" class="edge">
<title>Node4&#45;&gt;Node5</title>
<path fill="none" stroke="midnightblue" d="M210.74,-141C199.21,-141 187.48,-141 176.12,-141"/>
<polygon fill="midnightblue" stroke="midnightblue" points="210.8,-144.5 220.8,-141 210.8,-137.5 210.8,-144.5"/>
</g>
<!-- Node7 -->
<g id="node7" class="node">
<title>Node7</title>
<g id="a_node7"><a xlink:href="class_chimera_t_k_1_1_motor_driver_1_1_linear_stepper_motor.html#abd3eb2c57847a175ee707bb3d9cb5d24" target="_top" xlink:title="Translate axis of the linear stage by offset translationInSteps.">
<polygon fill="white" stroke="black" points="237,-60.5 237,-101.5 372,-101.5 372,-60.5 237,-60.5"/>
<text text-anchor="start" x="245" y="-89.5" font-family="Helvetica,sans-Serif" font-size="10.00">ChimeraTK::MotorDriver</text>
<text text-anchor="start" x="245" y="-78.5" font-family="Helvetica,sans-Serif" font-size="10.00">::LinearStepperMotor::</text>
<text text-anchor="middle" x="304.5" y="-67.5" font-family="Helvetica,sans-Serif" font-size="10.00">translateAxisInSteps</text>
</a>
</g>
</g>
<!-- Node6&#45;&gt;Node7 -->
<g id="edge6" class="edge">
<title>Node6&#45;&gt;Node7</title>
<path fill="none" stroke="midnightblue" d="M415.32,-81C400.8,-81 386.01,-81 372.18,-81"/>
<polygon fill="midnightblue" stroke="midnightblue" points="415.33,-84.5 425.32,-81 415.32,-77.5 415.33,-84.5"/>
</g>
<!-- Node8 -->
<g id="node8" class="node">
<title>Node8</title>
<g id="a_node8"><a xlink:href="class_chimera_t_k_1_1_motor_driver_1_1_basic_stepper_motor.html#a6ef93450a6b863957df3e3bfbeeac9fe" target="_top" xlink:title="translate the reference axis of the motor.">
<polygon fill="white" stroke="black" points="222.5,-0.5 222.5,-41.5 386.5,-41.5 386.5,-0.5 222.5,-0.5"/>
<text text-anchor="start" x="230.5" y="-29.5" font-family="Helvetica,sans-Serif" font-size="10.00">ChimeraTK::MotorDriver</text>
<text text-anchor="start" x="230.5" y="-18.5" font-family="Helvetica,sans-Serif" font-size="10.00">::BasicStepperMotor::translate</text>
<text text-anchor="middle" x="304.5" y="-7.5" font-family="Helvetica,sans-Serif" font-size="10.00">AxisInSteps</text>
</a>
</g>
</g>
<!-- Node6&#45;&gt;Node8 -->
<g id="edge7" class="edge">
<title>Node6&#45;&gt;Node8</title>
<path fill="none" stroke="midnightblue" d="M427.89,-57.53C410.2,-52.25 391.56,-46.69 374.3,-41.54"/>
<polygon fill="midnightblue" stroke="midnightblue" points="427.03,-60.93 437.61,-60.44 429.03,-54.22 427.03,-60.93"/>
</g>
<!-- Node9 -->
<g id="node9" class="node">
<title>Node9</title>
<g id="a_node9"><a xlink:href="class_chimera_t_k_1_1_motor_driver_1_1_basic_stepper_motor.html#a4a83c6c3892a744b4aed80ab4bd94159" target="_top" xlink:title="translate the reference axis of the motor.">
<polygon fill="white" stroke="black" points="0,-6 0,-36 185,-36 185,-6 0,-6"/>
<text text-anchor="start" x="8" y="-24" font-family="Helvetica,sans-Serif" font-size="10.00">ChimeraTK::MotorDriver</text>
<text text-anchor="middle" x="92.5" y="-13" font-family="Helvetica,sans-Serif" font-size="10.00">::BasicStepperMotor::translateAxis</text>
</a>
</g>
</g>
<!-- Node8&#45;&gt;Node9 -->
<g id="edge8" class="edge">
<title>Node8&#45;&gt;Node9</title>
<path fill="none" stroke="midnightblue" d="M212.28,-21C203.34,-21 194.26,-21 185.3,-21"/>
<polygon fill="midnightblue" stroke="midnightblue" points="212.31,-24.5 222.31,-21 212.31,-17.5 212.31,-24.5"/>
</g>
</g>
</svg>
        <g id="navigator" transform="translate(0 0)" fill="#404254">
                <rect fill="#f2f5e9" fill-opacity="0.5" stroke="#606060" stroke-width=".5" x="0" y="0" width="60" height="60"/>
                <use id="zoomplus" xlink:href="#zoomPlus" x="17" y="9" onmousedown="handleZoom(evt,'in')"/>
                <use id="zoomminus" xlink:href="#zoomMin" x="42" y="9" onmousedown="handleZoom(evt,'out')"/>
                <use id="reset" xlink:href="#resetDef" x="30" y="36" onmousedown="handleReset()"/>
                <g id="arrowUp" xlink:href="#dirArrow" transform="translate(30 24)" onmousedown="handlePan(0,-1)">
                  <use xlink:href="#rim" fill="#404040">
                        <set attributeName="fill" to="#808080" begin="arrowUp.mouseover" end="arrowUp.mouseout"/>
                  </use>
                  <path fill="none" stroke="white" stroke-width="1.5" d="M0,-3.0v7 M-2.5,-0.5L0,-3.0L2.5,-0.5"/>
                </g>
                <g id="arrowRight" xlink:href="#dirArrow" transform="rotate(90) translate(36 -43)" onmousedown="handlePan(1,0)">
                  <use xlink:href="#rim" fill="#404040">
                        <set attributeName="fill" to="#808080" begin="arrowRight.mouseover" end="arrowRight.mouseout"/>
                  </use>
                  <path fill="none" stroke="white" stroke-width="1.5" d="M0,-3.0v7 M-2.5,-0.5L0,-3.0L2.5,-0.5"/>
                </g>
                <g id="arrowDown" xlink:href="#dirArrow" transform="rotate(180) translate(-30 -48)" onmousedown="handlePan(0,1)">
                  <use xlink:href="#rim" fill="#404040">
                        <set attributeName="fill" to="#808080" begin="arrowDown.mouseover" end="arrowDown.mouseout"/>
                  </use>
                  <path fill="none" stroke="white" stroke-width="1.5" d="M0,-3.0v7 M-2.5,-0.5L0,-3.0L2.5,-0.5"/>
                </g>
                <g id="arrowLeft" xlink:href="#dirArrow" transform="rotate(270) translate(-36 17)" onmousedown="handlePan(-1,0)">
                  <use xlink:href="#rim" fill="#404040">
                        <set attributeName="fill" to="#808080" begin="arrowLeft.mouseover" end="arrowLeft.mouseout"/>
                  </use>
                  <path fill="none" stroke="white" stroke-width="1.5" d="M0,-3.0v7 M-2.5,-0.5L0,-3.0L2.5,-0.5"/>
                </g>
        </g>
        <svg viewBox="0 0 15 15" width="100%" height="30px" preserveAspectRatio="xMaxYMin meet">
         <g id="arrow_out" transform="scale(0.3 0.3)">
          <a xlink:href="class_chimera_t_k_1_1_motor_driver_1_1_basic_stepper_motor_aaa0689df9c3ec7257b749563a49e93c9_icgraph_org.svg" target="_base">
           <rect id="button" ry="5" rx="5" y="6" x="6" height="38" width="38"
                fill="#f2f5e9" fill-opacity="0.5" stroke="#606060" stroke-width="1.0"/>
           <path id="arrow"
             d="M 11.500037,31.436501 C 11.940474,20.09759 22.043105,11.32322 32.158766,21.979434 L 37.068811,17.246167 C 37.068811,17.246167 37.088388,32 37.088388,32 L 22.160133,31.978069 C 22.160133,31.978069 26.997745,27.140456 26.997745,27.140456 C 18.528582,18.264221 13.291696,25.230495 11.500037,31.436501 z"
             style="fill:#404040;"/>
          </a>
         </g>
        </svg>
</svg>
