<?xml version="1.0" encoding="UTF-8" standalone="no"?>
<!DOCTYPE svg PUBLIC "-//W3C//DTD SVG 1.1//EN"
 "http://www.w3.org/Graphics/SVG/1.1/DTD/svg11.dtd">
<!-- Generated by graphviz version 2.43.0 (0)
 -->
<!-- Title: MultipleModuleApp Pages: 1 -->
<svg width="1407pt" height="244pt"
 viewBox="0.00 0.00 1407.00 243.58" xmlns="http://www.w3.org/2000/svg" xmlns:xlink="http://www.w3.org/1999/xlink">
<g id="graph0" class="graph" transform="scale(1 1) rotate(0) translate(4 239.58)">
<title>MultipleModuleApp</title>
<!-- Node1 -->
<g id="Node000001" class="node">
<title>Node1</title>
<g id="a_Node000001"><a xlink:title=" ">
<polygon fill="#999999" stroke="#666666" points="1399,-175 1288,-175 1288,-156 1399,-156 1399,-175"/>
<text text-anchor="middle" x="1343.5" y="-163" font-family="Helvetica,sans-Serif" font-size="10.00">MultipleModuleApp</text>
</a>
</g>
</g>
<!-- Node2 -->
<g id="Node000002" class="node">
<title>Node2</title>
<g id="a_Node000002"><a xlink:title=" ">
<polygon fill="white" stroke="#666666" points="1220,-212 1089,-212 1089,-193 1220,-193 1220,-212"/>
<text text-anchor="middle" x="1154.5" y="-200" font-family="Helvetica,sans-Serif" font-size="10.00">ChimeraTK::Application</text>
</a>
</g>
</g>
<!-- Node2&#45;&gt;Node1 -->
<g id="edge1_Node000001_Node000002" class="edge">
<title>Node2&#45;&gt;Node1</title>
<g id="a_edge1_Node000001_Node000002"><a xlink:title=" ">
<path fill="none" stroke="#63b8ff" d="M1216.03,-191.04C1233.46,-187.69 1252.49,-183.99 1270,-180.5 1278.7,-178.76 1287.97,-176.88 1296.88,-175.04"/>
<polygon fill="#63b8ff" stroke="#63b8ff" points="1215.14,-187.64 1205.98,-192.96 1216.46,-194.52 1215.14,-187.64"/>
</a>
</g>
</g>
<!-- Node3 -->
<g id="Node000003" class="node">
<title>Node3</title>
<g id="a_Node000003"><a xlink:href="struct_test_group.html" target="_top" xlink:title=" ">
<polygon fill="white" stroke="#666666" points="1187,-175 1122,-175 1122,-156 1187,-156 1187,-175"/>
<text text-anchor="middle" x="1154.5" y="-163" font-family="Helvetica,sans-Serif" font-size="10.00">TestGroup</text>
</a>
</g>
</g>
<!-- Node3&#45;&gt;Node1 -->
<g id="edge2_Node000001_Node000003" class="edge">
<title>Node3&#45;&gt;Node1</title>
<g id="a_edge2_Node000001_Node000003"><a xlink:title=" ">
<path fill="none" stroke="#9a32cd" stroke-dasharray="5,2" d="M1197.39,-165.5C1224.1,-165.5 1258.99,-165.5 1287.86,-165.5"/>
<polygon fill="#9a32cd" stroke="#9a32cd" points="1197.22,-162 1187.22,-165.5 1197.22,-169 1197.22,-162"/>
</a>
</g>
<text text-anchor="middle" x="1254.5" y="-168.5" font-family="Helvetica,sans-Serif" font-size="10.00" fill="grey"> group</text>
</g>
<!-- Node4 -->
<g id="Node000004" class="node">
<title>Node4</title>
<g id="a_Node000004"><a xlink:title=" ">
<polygon fill="white" stroke="#666666" points="790,-218 648,-218 648,-199 790,-199 790,-218"/>
<text text-anchor="middle" x="719" y="-206" font-family="Helvetica,sans-Serif" font-size="10.00">ChimeraTK::ModuleGroup</text>
</a>
</g>
</g>
<!-- Node4&#45;&gt;Node3 -->
<g id="edge3_Node000003_Node000004" class="edge">
<title>Node4&#45;&gt;Node3</title>
<g id="a_edge3_Node000003_Node000004"><a xlink:title=" ">
<path fill="none" stroke="#63b8ff" d="M767.59,-220.13C837.86,-234.69 971.65,-252.23 1070,-203.5 1080.42,-198.34 1078.07,-190.55 1088,-184.5 1098.21,-178.28 1110.56,-174.01 1121.77,-171.12"/>
<polygon fill="#63b8ff" stroke="#63b8ff" points="768.2,-216.68 757.69,-218.01 766.74,-223.53 768.2,-216.68"/>
</a>
</g>
</g>
<!-- Node5 -->
<g id="Node000005" class="node">
<title>Node5</title>
<g id="a_Node000005"><a xlink:href="struct_test_group_1_1_a.html" target="_top" xlink:title=" ">
<polygon fill="white" stroke="#666666" points="1014,-198 936,-198 936,-179 1014,-179 1014,-198"/>
<text text-anchor="middle" x="975" y="-186" font-family="Helvetica,sans-Serif" font-size="10.00">TestGroup::A</text>
</a>
</g>
</g>
<!-- Node4&#45;&gt;Node5 -->
<g id="edge5_Node000005_Node000004" class="edge">
<title>Node4&#45;&gt;Node5</title>
<g id="a_edge5_Node000005_Node000004"><a xlink:title=" ">
<path fill="none" stroke="#63b8ff" d="M800.4,-202.24C831.24,-199.83 866.75,-197.05 899,-194.5 910.98,-193.55 924.04,-192.51 935.85,-191.57"/>
<polygon fill="#63b8ff" stroke="#63b8ff" points="799.83,-198.78 790.14,-203.04 800.38,-205.75 799.83,-198.78"/>
</a>
</g>
</g>
<!-- Node8 -->
<g id="Node000008" class="node">
<title>Node8</title>
<g id="a_Node000008"><a xlink:href="struct_test_group_1_1_b.html" target="_top" xlink:title=" ">
<polygon fill="white" stroke="#666666" points="1014,-153 936,-153 936,-134 1014,-134 1014,-153"/>
<text text-anchor="middle" x="975" y="-141" font-family="Helvetica,sans-Serif" font-size="10.00">TestGroup::B</text>
</a>
</g>
</g>
<!-- Node4&#45;&gt;Node8 -->
<g id="edge9_Node000008_Node000004" class="edge">
<title>Node4&#45;&gt;Node8</title>
<g id="a_edge9_Node000008_Node000004"><a xlink:title=" ">
<path fill="none" stroke="#63b8ff" d="M743.35,-193.67C760.55,-183.48 784.87,-170.56 808,-163.5 850.62,-150.49 901.81,-145.89 935.97,-144.29"/>
<polygon fill="#63b8ff" stroke="#63b8ff" points="741.31,-190.82 734.58,-199 744.94,-196.8 741.31,-190.82"/>
</a>
</g>
</g>
<!-- Node5&#45;&gt;Node3 -->
<g id="edge4_Node000003_Node000005" class="edge">
<title>Node5&#45;&gt;Node3</title>
<g id="a_edge4_Node000003_Node000005"><a xlink:title=" ">
<path fill="none" stroke="#9a32cd" stroke-dasharray="5,2" d="M1024.27,-182.25C1055.36,-178.22 1094.9,-173.09 1122,-169.58"/>
<polygon fill="#9a32cd" stroke="#9a32cd" points="1023.55,-178.81 1014.08,-183.57 1024.45,-185.75 1023.55,-178.81"/>
</a>
</g>
<text text-anchor="middle" x="1060.5" y="-191.5" font-family="Helvetica,sans-Serif" font-size="10.00" fill="grey"> A</text>
<text text-anchor="middle" x="1060.5" y="-180.5" font-family="Helvetica,sans-Serif" font-size="10.00" fill="grey">this</text>
</g>
<!-- Node6 -->
<g id="Node000006" class="node">
<title>Node6</title>
<g id="a_Node000006"><a xlink:href="struct_dummy_module.html" target="_top" xlink:title=" ">
<polygon fill="white" stroke="#666666" points="765,-138 673,-138 673,-119 765,-119 765,-138"/>
<text text-anchor="middle" x="719" y="-126" font-family="Helvetica,sans-Serif" font-size="10.00">DummyModule</text>
</a>
</g>
</g>
<!-- Node6&#45;&gt;Node5 -->
<g id="edge6_Node000005_Node000006" class="edge">
<title>Node6&#45;&gt;Node5</title>
<g id="a_edge6_Node000005_Node000006"><a xlink:title=" ">
<path fill="none" stroke="#9a32cd" stroke-dasharray="5,2" d="M770.24,-140.37C818.84,-151.85 891.46,-169 935.6,-179.43"/>
<polygon fill="#9a32cd" stroke="#9a32cd" points="770.78,-136.9 760.25,-138.01 769.17,-143.71 770.78,-136.9"/>
</a>
</g>
<text text-anchor="middle" x="853.5" y="-173.5" font-family="Helvetica,sans-Serif" font-size="10.00" fill="grey"> dummy</text>
</g>
<!-- Node6&#45;&gt;Node8 -->
<g id="edge10_Node000008_Node000006" class="edge">
<title>Node6&#45;&gt;Node8</title>
<g id="a_edge10_Node000008_Node000006"><a xlink:title=" ">
<path fill="none" stroke="#9a32cd" stroke-dasharray="5,2" d="M775.21,-123.12C810.71,-120.68 857.73,-119.35 899,-124.5 913.93,-126.36 930.15,-130.23 943.68,-134"/>
<polygon fill="#9a32cd" stroke="#9a32cd" points="774.77,-119.64 765.06,-123.87 775.29,-126.62 774.77,-119.64"/>
</a>
</g>
<text text-anchor="middle" x="853.5" y="-127.5" font-family="Helvetica,sans-Serif" font-size="10.00" fill="grey"> dummy</text>
</g>
<!-- Node7 -->
<g id="Node000007" class="node">
<title>Node7</title>
<g id="a_Node000007"><a xlink:title=" ">
<polygon fill="white" stroke="#666666" points="595,-118 428,-118 428,-99 595,-99 595,-118"/>
<text text-anchor="middle" x="511.5" y="-106" font-family="Helvetica,sans-Serif" font-size="10.00">ChimeraTK::ApplicationModule</text>
</a>
</g>
</g>
<!-- Node7&#45;&gt;Node6 -->
<g id="edge7_Node000006_Node000007" class="edge">
<title>Node7&#45;&gt;Node6</title>
<g id="a_edge7_Node000006_Node000007"><a xlink:title=" ">
<path fill="none" stroke="#63b8ff" d="M605.22,-117.52C628.75,-119.81 652.99,-122.17 672.94,-124.11"/>
<polygon fill="#63b8ff" stroke="#63b8ff" points="605.49,-114.03 595.2,-116.55 604.81,-121 605.49,-114.03"/>
</a>
</g>
</g>
<!-- Node9 -->
<g id="Node000009" class="node">
<title>Node9</title>
<g id="a_Node000009"><a xlink:href="classlogging_1_1_logging_module.html" target="_top" xlink:title="Module used to handle logging messages.">
<polygon fill="white" stroke="#666666" points="1221,-100 1088,-100 1088,-81 1221,-81 1221,-100"/>
<text text-anchor="middle" x="1154.5" y="-88" font-family="Helvetica,sans-Serif" font-size="10.00">logging::LoggingModule</text>
</a>
</g>
</g>
<!-- Node7&#45;&gt;Node9 -->
<g id="edge12_Node000009_Node000007" class="edge">
<title>Node7&#45;&gt;Node9</title>
<g id="a_edge12_Node000009_Node000007"><a xlink:title=" ">
<path fill="none" stroke="#63b8ff" d="M605.36,-105.89C736.68,-102.2 973.37,-95.56 1087.9,-92.34"/>
<polygon fill="#63b8ff" stroke="#63b8ff" points="605.21,-102.4 595.31,-106.17 605.41,-109.39 605.21,-102.4"/>
</a>
</g>
</g>
<!-- Node8&#45;&gt;Node3 -->
<g id="edge8_Node000003_Node000008" class="edge">
<title>Node8&#45;&gt;Node3</title>
<g id="a_edge8_Node000003_Node000008"><a xlink:title=" ">
<path fill="none" stroke="#9a32cd" stroke-dasharray="5,2" d="M1024.49,-141.84C1039.16,-141.92 1055.28,-142.6 1070,-144.5 1087.79,-146.8 1107.25,-151.56 1122.9,-155.96"/>
<polygon fill="#9a32cd" stroke="#9a32cd" points="1024.09,-138.34 1014.1,-141.88 1024.12,-145.34 1024.09,-138.34"/>
</a>
</g>
<text text-anchor="middle" x="1060.5" y="-158.5" font-family="Helvetica,sans-Serif" font-size="10.00" fill="grey"> B</text>
<text text-anchor="middle" x="1060.5" y="-147.5" font-family="Helvetica,sans-Serif" font-size="10.00" fill="grey">this</text>
</g>
<!-- Node9&#45;&gt;Node1 -->
<g id="edge11_Node000001_Node000009" class="edge">
<title>Node9&#45;&gt;Node1</title>
<g id="a_edge11_Node000001_Node000009"><a xlink:title=" ">
<path fill="none" stroke="#9a32cd" stroke-dasharray="5,2" d="M1189,-103.93C1226.29,-118.89 1285.62,-142.69 1318.53,-155.89"/>
<polygon fill="#9a32cd" stroke="#9a32cd" points="1190.15,-100.63 1179.56,-100.15 1187.54,-107.12 1190.15,-100.63"/>
</a>
</g>
<text text-anchor="middle" x="1254.5" y="-137.5" font-family="Helvetica,sans-Serif" font-size="10.00" fill="grey"> log</text>
</g>
<!-- Node10 -->
<g id="Node000010" class="node">
<title>Node10</title>
<g id="a_Node000010"><a xlink:title=" ">
<polygon fill="white" stroke="#666666" points="1033,-62.5 917,-62.5 917,-32.5 1033,-32.5 1033,-62.5"/>
<text text-anchor="start" x="925" y="-50.5" font-family="Helvetica,sans-Serif" font-size="10.00">std::unique_ptr&lt; std</text>
<text text-anchor="middle" x="975" y="-39.5" font-family="Helvetica,sans-Serif" font-size="10.00">::ofstream &gt;</text>
</a>
</g>
</g>
<!-- Node10&#45;&gt;Node9 -->
<g id="edge13_Node000009_Node000010" class="edge">
<title>Node10&#45;&gt;Node9</title>
<g id="a_edge13_Node000009_Node000010"><a xlink:title=" ">
<path fill="none" stroke="#9a32cd" stroke-dasharray="5,2" d="M1043.43,-59.55C1052.39,-61.4 1061.44,-63.4 1070,-65.5 1088.23,-69.96 1108.39,-75.97 1124.33,-80.97"/>
<polygon fill="#9a32cd" stroke="#9a32cd" points="1043.86,-56.07 1033.37,-57.52 1042.48,-62.93 1043.86,-56.07"/>
</a>
</g>
<text text-anchor="middle" x="1060.5" y="-68.5" font-family="Helvetica,sans-Serif" font-size="10.00" fill="grey"> file</text>
</g>
<!-- Node11 -->
<g id="Node000011" class="node">
<title>Node11</title>
<g id="a_Node000011"><a xlink:title=" ">
<polygon fill="white" stroke="#666666" points="760,-60 678,-60 678,-41 760,-41 760,-60"/>
<text text-anchor="middle" x="719" y="-48" font-family="Helvetica,sans-Serif" font-size="10.00">std::ofstream</text>
</a>
</g>
</g>
<!-- Node11&#45;&gt;Node10 -->
<g id="edge14_Node000010_Node000011" class="edge">
<title>Node11&#45;&gt;Node10</title>
<g id="a_edge14_Node000010_Node000011"><a xlink:title=" ">
<path fill="none" stroke="#9a32cd" stroke-dasharray="5,2" d="M770.31,-49.91C812.55,-49.41 872.9,-48.69 916.94,-48.17"/>
<polygon fill="#9a32cd" stroke="#9a32cd" points="770.2,-46.41 760.25,-50.02 770.29,-53.41 770.2,-46.41"/>
</a>
</g>
<text text-anchor="middle" x="853.5" y="-52.5" font-family="Helvetica,sans-Serif" font-size="10.00" fill="grey"> ptr</text>
</g>
<!-- Node12 -->
<g id="Node000012" class="node">
<title>Node12</title>
<g id="a_Node000012"><a xlink:title=" ">
<polygon fill="white" stroke="#666666" points="568,-67.5 455,-67.5 455,-37.5 568,-37.5 568,-67.5"/>
<text text-anchor="start" x="463" y="-55.5" font-family="Helvetica,sans-Serif" font-size="10.00">std::basic_ofstream</text>
<text text-anchor="middle" x="511.5" y="-44.5" font-family="Helvetica,sans-Serif" font-size="10.00">&lt; Char &gt;</text>
</a>
</g>
</g>
<!-- Node12&#45;&gt;Node11 -->
<g id="edge15_Node000011_Node000012" class="edge">
<title>Node12&#45;&gt;Node11</title>
<g id="a_edge15_Node000011_Node000012"><a xlink:title=" ">
<path fill="none" stroke="#63b8ff" d="M578.52,-51.86C611.27,-51.54 649.75,-51.16 677.99,-50.89"/>
<polygon fill="#63b8ff" stroke="#63b8ff" points="578.08,-48.36 568.11,-51.96 578.14,-55.36 578.08,-48.36"/>
</a>
</g>
</g>
<!-- Node13 -->
<g id="Node000013" class="node">
<title>Node13</title>
<g id="a_Node000013"><a xlink:title=" ">
<polygon fill="white" stroke="#666666" points="391,-67.5 282,-67.5 282,-37.5 391,-37.5 391,-67.5"/>
<text text-anchor="start" x="290" y="-55.5" font-family="Helvetica,sans-Serif" font-size="10.00">std::basic_ostream</text>
<text text-anchor="middle" x="336.5" y="-44.5" font-family="Helvetica,sans-Serif" font-size="10.00">&lt; Char &gt;</text>
</a>
</g>
</g>
<!-- Node13&#45;&gt;Node12 -->
<g id="edge16_Node000012_Node000013" class="edge">
<title>Node13&#45;&gt;Node12</title>
<g id="a_edge16_Node000012_Node000013"><a xlink:title=" ">
<path fill="none" stroke="#63b8ff" d="M401.45,-52.5C419.01,-52.5 437.9,-52.5 454.95,-52.5"/>
<polygon fill="#63b8ff" stroke="#63b8ff" points="401.29,-49 391.29,-52.5 401.29,-56 401.29,-49"/>
</a>
</g>
</g>
<!-- Node14 -->
<g id="Node000014" class="node">
<title>Node14</title>
<g id="a_Node000014"><a xlink:title=" ">
<polygon fill="white" stroke="#666666" points="245,-62 117,-62 117,-43 245,-43 245,-62"/>
<text text-anchor="middle" x="181" y="-50" font-family="Helvetica,sans-Serif" font-size="10.00">std::basic_ios&lt; Char &gt;</text>
</a>
</g>
</g>
<!-- Node14&#45;&gt;Node13 -->
<g id="edge17_Node000013_Node000014" class="edge">
<title>Node14&#45;&gt;Node13</title>
<g id="a_edge17_Node000013_Node000014"><a xlink:title=" ">
<path fill="none" stroke="#63b8ff" d="M255.57,-52.5C264.35,-52.5 273.19,-52.5 281.62,-52.5"/>
<polygon fill="#63b8ff" stroke="#63b8ff" points="255.32,-49 245.32,-52.5 255.32,-56 255.32,-49"/>
</a>
</g>
</g>
<!-- Node15 -->
<g id="Node000015" class="node">
<title>Node15</title>
<g id="a_Node000015"><a xlink:title=" ">
<polygon fill="white" stroke="#666666" points="80,-62 0,-62 0,-43 80,-43 80,-62"/>
<text text-anchor="middle" x="40" y="-50" font-family="Helvetica,sans-Serif" font-size="10.00">std::ios_base</text>
</a>
</g>
</g>
<!-- Node15&#45;&gt;Node14 -->
<g id="edge18_Node000014_Node000015" class="edge">
<title>Node15&#45;&gt;Node14</title>
<g id="a_edge18_Node000014_Node000015"><a xlink:title=" ">
<path fill="none" stroke="#63b8ff" d="M90.28,-52.5C98.85,-52.5 107.87,-52.5 116.75,-52.5"/>
<polygon fill="#63b8ff" stroke="#63b8ff" points="90.09,-49 80.09,-52.5 90.09,-56 90.09,-49"/>
</a>
</g>
</g>
<!-- Node16 -->
<g id="Node000016" class="node">
<title>Node16</title>
<g id="a_Node000016"><a xlink:title=" ">
<polygon fill="white" stroke="#666666" points="778,-22 660,-22 660,-3 778,-3 778,-22"/>
<text text-anchor="middle" x="719" y="-10" font-family="Helvetica,sans-Serif" font-size="10.00">std::unique_ptr&lt; T &gt;</text>
</a>
</g>
</g>
<!-- Node16&#45;&gt;Node10 -->
<g id="edge19_Node000010_Node000016" class="edge">
<title>Node16&#45;&gt;Node10</title>
<g id="a_edge19_Node000010_Node000016"><a xlink:title=" ">
<path fill="none" stroke="orange" stroke-dasharray="5,2" d="M788.3,-19.41C821.74,-23.08 862.55,-27.97 899,-33.5 904.76,-34.37 910.76,-35.36 916.74,-36.4"/>
<polygon fill="orange" stroke="orange" points="788.49,-15.91 778.18,-18.32 787.74,-22.87 788.49,-15.91"/>
</a>
</g>
<text text-anchor="middle" x="853.5" y="-36.5" font-family="Helvetica,sans-Serif" font-size="10.00" fill="grey"> &lt; std::ofstream &gt;</text>
</g>
<!-- Node17 -->
<g id="Node000017" class="node">
<title>Node17</title>
<g id="a_Node000017"><a xlink:title=" ">
<polygon fill="white" stroke="#666666" points="526,-19 497,-19 497,0 526,0 526,-19"/>
<text text-anchor="middle" x="511.5" y="-7" font-family="Helvetica,sans-Serif" font-size="10.00">T</text>
</a>
</g>
</g>
<!-- Node17&#45;&gt;Node16 -->
<g id="edge20_Node000016_Node000017" class="edge">
<title>Node17&#45;&gt;Node16</title>
<g id="a_edge20_Node000016_Node000017"><a xlink:title=" ">
<path fill="none" stroke="#9a32cd" stroke-dasharray="5,2" d="M536.64,-9.85C566.65,-10.29 618.86,-11.05 659.58,-11.65"/>
<polygon fill="#9a32cd" stroke="#9a32cd" points="536.35,-6.35 526.3,-9.7 536.25,-13.35 536.35,-6.35"/>
</a>
</g>
<text text-anchor="middle" x="621.5" y="-14.5" font-family="Helvetica,sans-Serif" font-size="10.00" fill="grey"> ptr</text>
</g>
</g>
</svg>
