<?xml version="1.0" encoding="UTF-8" standalone="no"?>
<!DOCTYPE svg PUBLIC "-//W3C//DTD SVG 1.1//EN"
 "http://www.w3.org/Graphics/SVG/1.1/DTD/svg11.dtd">
<!-- Generated by graphviz version 2.43.0 (0)
 -->
<!-- Title: mtca4u::MotorControlerDummy::setActualPosition Pages: 1 -->
<!--zoomable 235 -->
<svg id="main" version="1.1" xmlns="http://www.w3.org/2000/svg" xmlns:xlink="http://www.w3.org/1999/xlink" xml:space="preserve" onload="init(evt)">
<style type="text/css"><![CDATA[
.edge:hover path { stroke: red; }
.edge:hover polygon { stroke: red; fill: red; }
]]></style>
<script type="text/javascript"><![CDATA[
var edges = document.getElementsByTagName('g');
if (edges && edges.length) {
  for (var i=0;i<edges.length;i++) {
    if (edges[i].id.substr(0,4)=='edge') {
      edges[i].setAttribute('class','edge');
    }
  }
}
]]></script>
        <defs>
                <circle id="rim" cx="0" cy="0" r="7"/>
                <circle id="rim2" cx="0" cy="0" r="3.5"/>
                <g id="zoomPlus">
                        <use xlink:href="#rim" fill="#404040">
                                <set attributeName="fill" to="#808080" begin="zoomplus.mouseover" end="zoomplus.mouseout"/>
                        </use>
                        <path d="M-4,0h8M0,-4v8" fill="none" stroke="white" stroke-width="1.5" pointer-events="none"/>
                </g>
                <g id="zoomMin">
                        <use xlink:href="#rim" fill="#404040">
                                <set attributeName="fill" to="#808080" begin="zoomminus.mouseover" end="zoomminus.mouseout"/>
                        </use>
                        <path d="M-4,0h8" fill="none" stroke="white" stroke-width="1.5" pointer-events="none"/>
                </g>
                <g id="dirArrow">
                        <path fill="none" stroke="white" stroke-width="1.5" d="M0,-3.0v7 M-2.5,-0.5L0,-3.0L2.5,-0.5"/>
                </g>
               <g id="resetDef">
                       <use xlink:href="#rim2" fill="#404040">
                               <set attributeName="fill" to="#808080" begin="reset.mouseover" end="reset.mouseout"/>
                       </use>
               </g>
        </defs>

<script type="text/javascript">
var viewWidth = 583;
var viewHeight = 235;
var sectionId = 'dynsection-18';
</script>
<script xlink:href="svgpan.js"/>
<svg id="graph" class="graph">
<g id="viewport">
<title>mtca4u::MotorControlerDummy::setActualPosition</title>
<polygon fill="white" stroke="transparent" points="-4,4 -4,-231 579,-231 579,4 -4,4"/>
<!-- Node1 -->
<g id="node1" class="node">
<title>Node1</title>
<g id="a_node1"><a xlink:title="Set the actual position counter for a recalibration of the actual position.">
<polygon fill="#bfbfbf" stroke="black" points="403,-98.5 403,-128.5 575,-128.5 575,-98.5 403,-98.5"/>
<text text-anchor="start" x="411" y="-116.5" font-family="Helvetica,sans-Serif" font-size="10.00">mtca4u::MotorControlerDummy</text>
<text text-anchor="middle" x="489" y="-105.5" font-family="Helvetica,sans-Serif" font-size="10.00">::setActualPosition</text>
</a>
</g>
</g>
<!-- Node2 -->
<g id="node2" class="node">
<title>Node2</title>
<g id="a_node2"><a xlink:href="class_motor_controler_dummy_test.html#a69586c2615fe1199239241e3bc9c1923" target="_top" xlink:title=" ">
<polygon fill="white" stroke="black" points="216.5,-196.5 216.5,-226.5 365.5,-226.5 365.5,-196.5 216.5,-196.5"/>
<text text-anchor="start" x="224.5" y="-214.5" font-family="Helvetica,sans-Serif" font-size="10.00">MotorControlerDummyTest</text>
<text text-anchor="middle" x="291" y="-203.5" font-family="Helvetica,sans-Serif" font-size="10.00">::testGetSetActualPosition</text>
</a>
</g>
</g>
<!-- Node1&#45;&gt;Node2 -->
<g id="edge1" class="edge">
<title>Node1&#45;&gt;Node2</title>
<path fill="none" stroke="midnightblue" d="M458.31,-134.44C434.48,-150.55 399.7,-172.53 367,-187.5 359.91,-190.74 352.27,-193.73 344.66,-196.42"/>
<polygon fill="midnightblue" stroke="midnightblue" points="460.3,-137.32 466.58,-128.79 456.35,-131.54 460.3,-137.32"/>
</g>
<!-- Node4 -->
<g id="node4" class="node">
<title>Node4</title>
<g id="a_node4"><a xlink:href="class_motor_controler_dummy_test.html#a45ed43aa37720466b2242165a9f90f9a" target="_top" xlink:title=" ">
<polygon fill="white" stroke="black" points="216.5,-147.5 216.5,-177.5 365.5,-177.5 365.5,-147.5 216.5,-147.5"/>
<text text-anchor="start" x="224.5" y="-165.5" font-family="Helvetica,sans-Serif" font-size="10.00">MotorControlerDummyTest</text>
<text text-anchor="middle" x="291" y="-154.5" font-family="Helvetica,sans-Serif" font-size="10.00">::testGetSetActualVelocity</text>
</a>
</g>
</g>
<!-- Node1&#45;&gt;Node4 -->
<g id="edge3" class="edge">
<title>Node1&#45;&gt;Node4</title>
<path fill="none" stroke="midnightblue" d="M418.09,-130.98C396.49,-136.38 372.9,-142.28 352.02,-147.49"/>
<polygon fill="midnightblue" stroke="midnightblue" points="419.01,-134.36 427.86,-128.53 417.31,-127.56 419.01,-134.36"/>
</g>
<!-- Node5 -->
<g id="node5" class="node">
<title>Node5</title>
<g id="a_node5"><a xlink:href="class_motor_controler_dummy_test.html#a49772d80ee09c1e47337288f0ced5c41" target="_top" xlink:title=" ">
<polygon fill="white" stroke="black" points="215,-98.5 215,-128.5 367,-128.5 367,-98.5 215,-98.5"/>
<text text-anchor="start" x="223" y="-116.5" font-family="Helvetica,sans-Serif" font-size="10.00">MotorControlerDummyTest</text>
<text text-anchor="middle" x="291" y="-105.5" font-family="Helvetica,sans-Serif" font-size="10.00">::testGetSetMicroStepCount</text>
</a>
</g>
</g>
<!-- Node1&#45;&gt;Node5 -->
<g id="edge5" class="edge">
<title>Node1&#45;&gt;Node5</title>
<path fill="none" stroke="midnightblue" d="M392.82,-113.5C384.21,-113.5 375.58,-113.5 367.19,-113.5"/>
<polygon fill="midnightblue" stroke="midnightblue" points="392.89,-117 402.89,-113.5 392.89,-110 392.89,-117"/>
</g>
<!-- Node6 -->
<g id="node6" class="node">
<title>Node6</title>
<g id="a_node6"><a xlink:href="class_motor_controler_dummy_test.html#a966d581bec4d4477366fe1100b9fdfc2" target="_top" xlink:title=" ">
<polygon fill="white" stroke="black" points="216.5,-49.5 216.5,-79.5 365.5,-79.5 365.5,-49.5 216.5,-49.5"/>
<text text-anchor="start" x="224.5" y="-67.5" font-family="Helvetica,sans-Serif" font-size="10.00">MotorControlerDummyTest</text>
<text text-anchor="middle" x="291" y="-56.5" font-family="Helvetica,sans-Serif" font-size="10.00">::testIsSetEnabled</text>
</a>
</g>
</g>
<!-- Node1&#45;&gt;Node6 -->
<g id="edge7" class="edge">
<title>Node1&#45;&gt;Node6</title>
<path fill="none" stroke="midnightblue" d="M418.09,-96.02C396.49,-90.62 372.9,-84.72 352.02,-79.51"/>
<polygon fill="midnightblue" stroke="midnightblue" points="417.31,-99.44 427.86,-98.47 419.01,-92.64 417.31,-99.44"/>
</g>
<!-- Node7 -->
<g id="node7" class="node">
<title>Node7</title>
<g id="a_node7"><a xlink:href="class_motor_controler_dummy_test.html#abda9e5f3da7374650fda821a6387aa66" target="_top" xlink:title=" ">
<polygon fill="white" stroke="black" points="216.5,-0.5 216.5,-30.5 365.5,-30.5 365.5,-0.5 216.5,-0.5"/>
<text text-anchor="start" x="224.5" y="-18.5" font-family="Helvetica,sans-Serif" font-size="10.00">MotorControlerDummyTest</text>
<text text-anchor="middle" x="291" y="-7.5" font-family="Helvetica,sans-Serif" font-size="10.00">::testMoveTowardsTarget</text>
</a>
</g>
</g>
<!-- Node1&#45;&gt;Node7 -->
<g id="edge9" class="edge">
<title>Node1&#45;&gt;Node7</title>
<path fill="none" stroke="midnightblue" d="M457.47,-92.48C433.61,-76.71 399.2,-55.36 367,-40.5 359.15,-36.88 350.62,-33.52 342.22,-30.53"/>
<polygon fill="midnightblue" stroke="midnightblue" points="455.81,-95.58 466.07,-98.23 459.7,-89.76 455.81,-95.58"/>
</g>
<!-- Node3 -->
<g id="node3" class="node">
<title>Node3</title>
<g id="a_node3"><a xlink:href="class_motor_controler_dummy_test_suite.html#a546a385b7a6a27dd26516db401f507da" target="_top" xlink:title=" ">
<polygon fill="white" stroke="black" points="0,-98.5 0,-128.5 179,-128.5 179,-98.5 0,-98.5"/>
<text text-anchor="start" x="8" y="-116.5" font-family="Helvetica,sans-Serif" font-size="10.00">MotorControlerDummyTestSuite</text>
<text text-anchor="middle" x="89.5" y="-105.5" font-family="Helvetica,sans-Serif" font-size="10.00">::MotorControlerDummyTestSuite</text>
</a>
</g>
</g>
<!-- Node2&#45;&gt;Node3 -->
<g id="edge2" class="edge">
<title>Node2&#45;&gt;Node3</title>
<path fill="none" stroke="midnightblue" d="M228.35,-193.03C223.79,-191.28 219.29,-189.43 215,-187.5 177.4,-170.57 136.88,-144.96 112.61,-128.74"/>
<polygon fill="midnightblue" stroke="midnightblue" points="227.19,-196.33 237.78,-196.48 229.59,-189.76 227.19,-196.33"/>
</g>
<!-- Node4&#45;&gt;Node3 -->
<g id="edge4" class="edge">
<title>Node4&#45;&gt;Node3</title>
<path fill="none" stroke="midnightblue" d="M218.84,-145.02C196.86,-139.62 172.84,-133.72 151.6,-128.51"/>
<polygon fill="midnightblue" stroke="midnightblue" points="218.24,-148.48 228.79,-147.47 219.91,-141.68 218.24,-148.48"/>
</g>
<!-- Node5&#45;&gt;Node3 -->
<g id="edge6" class="edge">
<title>Node5&#45;&gt;Node3</title>
<path fill="none" stroke="midnightblue" d="M204.7,-113.5C196.3,-113.5 187.76,-113.5 179.33,-113.5"/>
<polygon fill="midnightblue" stroke="midnightblue" points="204.86,-117 214.86,-113.5 204.86,-110 204.86,-117"/>
</g>
<!-- Node6&#45;&gt;Node3 -->
<g id="edge8" class="edge">
<title>Node6&#45;&gt;Node3</title>
<path fill="none" stroke="midnightblue" d="M218.84,-81.98C196.86,-87.38 172.84,-93.28 151.6,-98.49"/>
<polygon fill="midnightblue" stroke="midnightblue" points="219.91,-85.32 228.79,-79.53 218.24,-78.52 219.91,-85.32"/>
</g>
<!-- Node7&#45;&gt;Node3 -->
<g id="edge10" class="edge">
<title>Node7&#45;&gt;Node3</title>
<path fill="none" stroke="midnightblue" d="M230.35,-34.11C225.1,-36.13 219.92,-38.27 215,-40.5 177.81,-57.38 137.5,-82.36 113.13,-98.28"/>
<polygon fill="midnightblue" stroke="midnightblue" points="231.65,-37.36 239.82,-30.61 229.22,-30.79 231.65,-37.36"/>
</g>
</g>
</svg>
        <g id="navigator" transform="translate(0 0)" fill="#404254">
                <rect fill="#f2f5e9" fill-opacity="0.5" stroke="#606060" stroke-width=".5" x="0" y="0" width="60" height="60"/>
                <use id="zoomplus" xlink:href="#zoomPlus" x="17" y="9" onmousedown="handleZoom(evt,'in')"/>
                <use id="zoomminus" xlink:href="#zoomMin" x="42" y="9" onmousedown="handleZoom(evt,'out')"/>
                <use id="reset" xlink:href="#resetDef" x="30" y="36" onmousedown="handleReset()"/>
                <g id="arrowUp" xlink:href="#dirArrow" transform="translate(30 24)" onmousedown="handlePan(0,-1)">
                  <use xlink:href="#rim" fill="#404040">
                        <set attributeName="fill" to="#808080" begin="arrowUp.mouseover" end="arrowUp.mouseout"/>
                  </use>
                  <path fill="none" stroke="white" stroke-width="1.5" d="M0,-3.0v7 M-2.5,-0.5L0,-3.0L2.5,-0.5"/>
                </g>
                <g id="arrowRight" xlink:href="#dirArrow" transform="rotate(90) translate(36 -43)" onmousedown="handlePan(1,0)">
                  <use xlink:href="#rim" fill="#404040">
                        <set attributeName="fill" to="#808080" begin="arrowRight.mouseover" end="arrowRight.mouseout"/>
                  </use>
                  <path fill="none" stroke="white" stroke-width="1.5" d="M0,-3.0v7 M-2.5,-0.5L0,-3.0L2.5,-0.5"/>
                </g>
                <g id="arrowDown" xlink:href="#dirArrow" transform="rotate(180) translate(-30 -48)" onmousedown="handlePan(0,1)">
                  <use xlink:href="#rim" fill="#404040">
                        <set attributeName="fill" to="#808080" begin="arrowDown.mouseover" end="arrowDown.mouseout"/>
                  </use>
                  <path fill="none" stroke="white" stroke-width="1.5" d="M0,-3.0v7 M-2.5,-0.5L0,-3.0L2.5,-0.5"/>
                </g>
                <g id="arrowLeft" xlink:href="#dirArrow" transform="rotate(270) translate(-36 17)" onmousedown="handlePan(-1,0)">
                  <use xlink:href="#rim" fill="#404040">
                        <set attributeName="fill" to="#808080" begin="arrowLeft.mouseover" end="arrowLeft.mouseout"/>
                  </use>
                  <path fill="none" stroke="white" stroke-width="1.5" d="M0,-3.0v7 M-2.5,-0.5L0,-3.0L2.5,-0.5"/>
                </g>
        </g>
        <svg viewBox="0 0 15 15" width="100%" height="30px" preserveAspectRatio="xMaxYMin meet">
         <g id="arrow_out" transform="scale(0.3 0.3)">
          <a xlink:href="classmtca4u_1_1_motor_controler_dummy_a46717eab6a0cd80e064e96ac6e959401_icgraph_org.svg" target="_base">
           <rect id="button" ry="5" rx="5" y="6" x="6" height="38" width="38"
                fill="#f2f5e9" fill-opacity="0.5" stroke="#606060" stroke-width="1.0"/>
           <path id="arrow"
             d="M 11.500037,31.436501 C 11.940474,20.09759 22.043105,11.32322 32.158766,21.979434 L 37.068811,17.246167 C 37.068811,17.246167 37.088388,32 37.088388,32 L 22.160133,31.978069 C 22.160133,31.978069 26.997745,27.140456 26.997745,27.140456 C 18.528582,18.264221 13.291696,25.230495 11.500037,31.436501 z"
             style="fill:#404040;"/>
          </a>
         </g>
        </svg>
</svg>
