<?xml version="1.0" encoding="UTF-8" standalone="no"?>
<!DOCTYPE svg PUBLIC "-//W3C//DTD SVG 1.1//EN"
 "http://www.w3.org/Graphics/SVG/1.1/DTD/svg11.dtd">
<!-- Generated by graphviz version 2.43.0 (0)
 -->
<!-- Title: test_runner_helper_xpath_paths_axes_following Pages: 1 -->
<svg width="241pt" height="400pt"
 viewBox="0.00 0.00 241.00 400.00" xmlns="http://www.w3.org/2000/svg" xmlns:xlink="http://www.w3.org/1999/xlink">
<g id="graph0" class="graph" transform="scale(1 1) rotate(0) translate(4 396)">
<title>test_runner_helper_xpath_paths_axes_following</title>
<polygon fill="white" stroke="transparent" points="-4,4 -4,-396 237,-396 237,4 -4,4"/>
<!-- Node1 -->
<g id="node1" class="node">
<title>Node1</title>
<g id="a_node1"><a xlink:title=" ">
<polygon fill="#bfbfbf" stroke="black" points="0,-0.5 0,-30.5 160,-30.5 160,-0.5 0,-0.5"/>
<text text-anchor="start" x="8" y="-18.5" font-family="Helvetica,sans-Serif" font-size="10.00">test_runner_helper</text>
<text text-anchor="middle" x="80" y="-7.5" font-family="Helvetica,sans-Serif" font-size="10.00">_xpath_paths_axes_following</text>
</a>
</g>
</g>
<!-- Node2 -->
<g id="node2" class="node">
<title>Node2</title>
<g id="a_node2"><a xlink:href="structtest__fixture__xpath__paths__axes__following.html" target="_top" xlink:title=" ">
<polygon fill="white" stroke="black" points="16.5,-68.5 16.5,-98.5 143.5,-98.5 143.5,-68.5 16.5,-68.5"/>
<text text-anchor="start" x="24.5" y="-86.5" font-family="Helvetica,sans-Serif" font-size="10.00">test_fixture_xpath</text>
<text text-anchor="middle" x="80" y="-75.5" font-family="Helvetica,sans-Serif" font-size="10.00">_paths_axes_following</text>
</a>
</g>
</g>
<!-- Node2&#45;&gt;Node1 -->
<g id="edge1" class="edge">
<title>Node2&#45;&gt;Node1</title>
<path fill="none" stroke="midnightblue" d="M80,-58.03C80,-48.86 80,-38.74 80,-30.79"/>
<polygon fill="midnightblue" stroke="midnightblue" points="76.5,-58.18 80,-68.18 83.5,-58.18 76.5,-58.18"/>
</g>
<!-- Node3 -->
<g id="node3" class="node">
<title>Node3</title>
<g id="a_node3"><a xlink:href="classpugi_1_1xml__document.html" target="_top" xlink:title=" ">
<polygon fill="white" stroke="black" points="22,-146.5 22,-165.5 138,-165.5 138,-146.5 22,-146.5"/>
<text text-anchor="middle" x="80" y="-153.5" font-family="Helvetica,sans-Serif" font-size="10.00">pugi::xml_document</text>
</a>
</g>
</g>
<!-- Node3&#45;&gt;Node2 -->
<g id="edge2" class="edge">
<title>Node3&#45;&gt;Node2</title>
<path fill="none" stroke="#9a32cd" stroke-dasharray="5,2" d="M80,-136.24C80,-124.41 80,-109.38 80,-98.58"/>
<polygon fill="#9a32cd" stroke="#9a32cd" points="76.5,-136.36 80,-146.36 83.5,-136.36 76.5,-136.36"/>
<text text-anchor="middle" x="90.5" y="-120" font-family="Helvetica,sans-Serif" font-size="10.00"> doc</text>
</g>
<!-- Node4 -->
<g id="node4" class="node">
<title>Node4</title>
<g id="a_node4"><a xlink:href="classpugi_1_1xml__node.html" target="_top" xlink:title=" ">
<polygon fill="white" stroke="black" points="34,-203.5 34,-222.5 126,-222.5 126,-203.5 34,-203.5"/>
<text text-anchor="middle" x="80" y="-210.5" font-family="Helvetica,sans-Serif" font-size="10.00">pugi::xml_node</text>
</a>
</g>
</g>
<!-- Node4&#45;&gt;Node3 -->
<g id="edge3" class="edge">
<title>Node4&#45;&gt;Node3</title>
<path fill="none" stroke="midnightblue" d="M80,-193.12C80,-183.82 80,-173.06 80,-165.71"/>
<polygon fill="midnightblue" stroke="midnightblue" points="76.5,-193.41 80,-203.41 83.5,-193.41 76.5,-193.41"/>
</g>
<!-- Node5 -->
<g id="node5" class="node">
<title>Node5</title>
<g id="a_node5"><a xlink:href="structpugi_1_1xml__node__struct.html" target="_top" xlink:title="An XML document tree node.">
<polygon fill="white" stroke="black" points="17.5,-282.5 17.5,-301.5 142.5,-301.5 142.5,-282.5 17.5,-282.5"/>
<text text-anchor="middle" x="80" y="-289.5" font-family="Helvetica,sans-Serif" font-size="10.00">pugi::xml_node_struct</text>
</a>
</g>
</g>
<!-- Node5&#45;&gt;Node4 -->
<g id="edge4" class="edge">
<title>Node5&#45;&gt;Node4</title>
<path fill="none" stroke="#9a32cd" stroke-dasharray="5,2" d="M80,-272.31C80,-256.59 80,-234.81 80,-222.81"/>
<polygon fill="#9a32cd" stroke="#9a32cd" points="76.5,-272.47 80,-282.47 83.5,-272.47 76.5,-272.47"/>
<text text-anchor="middle" x="94" y="-244" font-family="Helvetica,sans-Serif" font-size="10.00"> _root</text>
</g>
<!-- Node5&#45;&gt;Node5 -->
<g id="edge7" class="edge">
<title>Node5&#45;&gt;Node5</title>
<path fill="none" stroke="#9a32cd" stroke-dasharray="5,2" d="M152.64,-297.94C157.53,-296.57 160.5,-294.59 160.5,-292 160.5,-287.96 153.26,-285.4 142.78,-284.33"/>
<polygon fill="#9a32cd" stroke="#9a32cd" points="152.02,-294.49 142.78,-299.67 153.23,-301.39 152.02,-294.49"/>
<text text-anchor="middle" x="195.5" y="-306" font-family="Helvetica,sans-Serif" font-size="10.00"> first_child</text>
<text text-anchor="middle" x="195.5" y="-295" font-family="Helvetica,sans-Serif" font-size="10.00">next_sibling</text>
<text text-anchor="middle" x="195.5" y="-284" font-family="Helvetica,sans-Serif" font-size="10.00">parent</text>
<text text-anchor="middle" x="195.5" y="-273" font-family="Helvetica,sans-Serif" font-size="10.00">prev_sibling_c</text>
</g>
<!-- Node6 -->
<g id="node6" class="node">
<title>Node6</title>
<g id="a_node6"><a xlink:href="structpugi_1_1xml__attribute__struct.html" target="_top" xlink:title="A &#39;name=value&#39; XML attribute structure.">
<polygon fill="white" stroke="black" points="25,-361.5 25,-391.5 135,-391.5 135,-361.5 25,-361.5"/>
<text text-anchor="start" x="33" y="-379.5" font-family="Helvetica,sans-Serif" font-size="10.00">pugi::xml_attribute</text>
<text text-anchor="middle" x="80" y="-368.5" font-family="Helvetica,sans-Serif" font-size="10.00">_struct</text>
</a>
</g>
</g>
<!-- Node6&#45;&gt;Node5 -->
<g id="edge5" class="edge">
<title>Node6&#45;&gt;Node5</title>
<path fill="none" stroke="#9a32cd" stroke-dasharray="5,2" d="M80,-350.95C80,-334.28 80,-313.23 80,-301.64"/>
<polygon fill="#9a32cd" stroke="#9a32cd" points="76.5,-351.13 80,-361.13 83.5,-351.13 76.5,-351.13"/>
<text text-anchor="middle" x="115" y="-335" font-family="Helvetica,sans-Serif" font-size="10.00"> first_attribute</text>
</g>
<!-- Node6&#45;&gt;Node6 -->
<g id="edge6" class="edge">
<title>Node6&#45;&gt;Node6</title>
<path fill="none" stroke="#9a32cd" stroke-dasharray="5,2" d="M145,-381.85C149.95,-380.66 153,-378.88 153,-376.5 153,-372.79 145.57,-370.53 135.07,-369.72"/>
<polygon fill="#9a32cd" stroke="#9a32cd" points="144.47,-378.39 135.07,-383.28 145.47,-385.32 144.47,-378.39"/>
<text text-anchor="middle" x="193" y="-379.5" font-family="Helvetica,sans-Serif" font-size="10.00"> next_attribute</text>
<text text-anchor="middle" x="193" y="-368.5" font-family="Helvetica,sans-Serif" font-size="10.00">prev_attribute_c</text>
</g>
</g>
</svg>
