<?xml version="1.0" encoding="UTF-8" standalone="no"?>
<!DOCTYPE svg PUBLIC "-//W3C//DTD SVG 1.1//EN"
 "http://www.w3.org/Graphics/SVG/1.1/DTD/svg11.dtd">
<!-- Generated by graphviz version 2.43.0 (0)
 -->
<!-- Title: RegSomeSpectrum Pages: 1 -->
<svg width="316pt" height="227pt"
 viewBox="0.00 0.00 316.00 227.00" xmlns="http://www.w3.org/2000/svg" xmlns:xlink="http://www.w3.org/1999/xlink">

<svg id="main" version="1.1" xmlns="http://www.w3.org/2000/svg" xmlns:xlink="http://www.w3.org/1999/xlink" xml:space="preserve" onload="init(evt)">
<style type="text/css"><![CDATA[
.node, .edge {opacity: 0.7;}
.node.selected, .edge.selected {opacity: 1;}
.edge:hover path { stroke: red; }
.edge:hover polygon { stroke: red; fill: red; }
]]></style>
<script type="application/ecmascript" xlink:href="svg.min.js"/>
<svg id="graph" class="graph">
<g id="graph0" class="graph" transform="scale(1 1) rotate(0) translate(4 223)">
<title>RegSomeSpectrum</title>
<!-- Node1 -->
<g id="Node000001" class="node">
<title>Node1</title>
<g id="a_Node000001"><a xlink:title=" ">
<polygon fill="#999999" stroke="#666666" points="155,-19 45,-19 45,0 155,0 155,-19"/>
<text text-anchor="middle" x="100" y="-7" font-family="Helvetica,sans-Serif" font-size="10.00">RegSomeSpectrum</text>
</a>
</g>
</g>
<!-- Node2 -->
<g id="Node000002" class="node">
<title>Node2</title>
<g id="a_Node000002"><a xlink:href="struct_array_defaults.html" target="_top" xlink:title=" ">
<polygon fill="white" stroke="#666666" points="200,-75 0,-75 0,-56 200,-56 200,-75"/>
<text text-anchor="middle" x="100" y="-63" font-family="Helvetica,sans-Serif" font-size="10.00">ArrayDefaults&lt; RegSomeSpectrum &gt;</text>
</a>
</g>
</g>
<!-- Node2&#45;&gt;Node1 -->
<g id="edge1_Node000001_Node000002" class="edge">
<title>Node2&#45;&gt;Node1</title>
<g id="a_edge1_Node000001_Node000002"><a xlink:title=" ">
<path fill="none" stroke="#63b8ff" d="M100,-45.3C100,-36.41 100,-26.28 100,-19.25"/>
<polygon fill="#63b8ff" stroke="#63b8ff" points="96.5,-45.58 100,-55.58 103.5,-45.58 96.5,-45.58"/>
</a>
</g>
</g>
<!-- Node3 -->
<g id="Node000003" class="node">
<title>Node3</title>
<g id="a_Node000003"><a xlink:href="struct_all_register_defaults.html" target="_top" xlink:title=" ">
<polygon fill="white" stroke="#666666" points="139.5,-152 28.5,-152 28.5,-122 139.5,-122 139.5,-152"/>
<text text-anchor="start" x="36.5" y="-140" font-family="Helvetica,sans-Serif" font-size="10.00">AllRegisterDefaults</text>
<text text-anchor="middle" x="84" y="-129" font-family="Helvetica,sans-Serif" font-size="10.00">&lt; DERIVED &gt;</text>
</a>
</g>
</g>
<!-- Node3&#45;&gt;Node2 -->
<g id="edge2_Node000002_Node000003" class="edge">
<title>Node3&#45;&gt;Node2</title>
<g id="a_edge2_Node000002_Node000003"><a xlink:title=" ">
<path fill="none" stroke="#63b8ff" d="M89.54,-111.94C92.46,-99.24 95.87,-84.44 97.98,-75.27"/>
<polygon fill="#63b8ff" stroke="#63b8ff" points="86.07,-111.41 87.24,-121.94 92.89,-112.98 86.07,-111.41"/>
</a>
</g>
</g>
<!-- Node4 -->
<g id="Node000004" class="node">
<title>Node4</title>
<g id="a_Node000004"><a xlink:href="struct_array_defaults.html" target="_top" xlink:title=" ">
<polygon fill="white" stroke="#666666" points="308,-146.5 158,-146.5 158,-127.5 308,-127.5 308,-146.5"/>
<text text-anchor="middle" x="233" y="-134.5" font-family="Helvetica,sans-Serif" font-size="10.00">ArrayDefaults&lt; DERIVED &gt;</text>
</a>
</g>
</g>
<!-- Node4&#45;&gt;Node2 -->
<g id="edge3_Node000002_Node000004" class="edge">
<title>Node4&#45;&gt;Node2</title>
<g id="a_edge3_Node000002_Node000004"><a xlink:title=" ">
<path fill="none" stroke="orange" stroke-dasharray="5,2" d="M207.53,-122.69C180.7,-108.67 139.25,-87.01 116.44,-75.09"/>
<polygon fill="orange" stroke="orange" points="206.21,-125.95 216.69,-127.48 209.45,-119.74 206.21,-125.95"/>
</a>
</g>
<text text-anchor="middle" x="229.5" y="-96" font-family="Helvetica,sans-Serif" font-size="10.00" fill="grey"> &lt; RegSomeSpectrum &gt;</text>
</g>
<!-- Node5 -->
<g id="Node000005" class="node">
<title>Node5</title>
<g id="a_Node000005"><a xlink:href="struct_all_register_defaults.html" target="_top" xlink:title=" ">
<polygon fill="white" stroke="#666666" points="288.5,-219 177.5,-219 177.5,-189 288.5,-189 288.5,-219"/>
<text text-anchor="start" x="185.5" y="-207" font-family="Helvetica,sans-Serif" font-size="10.00">AllRegisterDefaults</text>
<text text-anchor="middle" x="233" y="-196" font-family="Helvetica,sans-Serif" font-size="10.00">&lt; DERIVED &gt;</text>
</a>
</g>
</g>
<!-- Node5&#45;&gt;Node4 -->
<g id="edge4_Node000004_Node000005" class="edge">
<title>Node5&#45;&gt;Node4</title>
<g id="a_edge4_Node000004_Node000005"><a xlink:title=" ">
<path fill="none" stroke="#63b8ff" d="M233,-178.75C233,-167.52 233,-154.88 233,-146.69"/>
<polygon fill="#63b8ff" stroke="#63b8ff" points="229.5,-178.9 233,-188.9 236.5,-178.9 229.5,-178.9"/>
</a>
</g>
</g>
</g>
</svg>
</svg>

<style type='text/css'>
<![CDATA[
[data-mouse-over-selected='false'] { opacity: 0.7; }
[data-mouse-over-selected='true']  { opacity: 1.0; }
]]>
</style>
<script type="application/ecmascript"><![CDATA[
document.addEventListener('DOMContentLoaded', (event) => {
  highlightEdges();
  highlightAdjacentNodes();
});
]]></script>
</svg>
