<?xml version="1.0" encoding="UTF-8" standalone="no"?>
<!DOCTYPE svg PUBLIC "-//W3C//DTD SVG 1.1//EN"
 "http://www.w3.org/Graphics/SVG/1.1/DTD/svg11.dtd">
<!-- Generated by graphviz version 2.43.0 (0)
 -->
<!-- Title: ScalarDefaults&lt; DERIVED &gt; Pages: 1 -->
<!--zoomable 440 -->

<svg id="main" version="1.1" xmlns="http://www.w3.org/2000/svg" xmlns:xlink="http://www.w3.org/1999/xlink" xml:space="preserve" onload="init(evt)">
<style type="text/css"><![CDATA[
.node, .edge {opacity: 0.7;}
.node.selected, .edge.selected {opacity: 1;}
.edge:hover path { stroke: red; }
.edge:hover polygon { stroke: red; fill: red; }
]]></style>

<defs>
  <circle id="rim" cx="0" cy="0" r="7"/>
  <circle id="rim2" cx="0" cy="0" r="3.5"/>
  <g id="zoomPlus">
    <use xlink:href="#rim" fill="#404040"><set attributeName="fill" to="#808080" begin="zoomplus.mouseover" end="zoomplus.mouseout"/></use>
    <path d="M-4,0h8M0,-4v8" fill="none" stroke="white" stroke-width="1.5" pointer-events="none"/>
  </g>
  <g id="zoomMin">
    <use xlink:href="#rim" fill="#404040"><set attributeName="fill" to="#808080" begin="zoomminus.mouseover" end="zoomminus.mouseout"/></use>
    <path d="M-4,0h8" fill="none" stroke="white" stroke-width="1.5" pointer-events="none"/>
  </g>
  <g id="arrowUp" transform="translate(30 24)">
    <use xlink:href="#rim"/>
    <path pointer-events="none" fill="none" stroke="white" stroke-width="1.5" d="M0,-3.0v7 M-2.5,-0.5L0,-3.0L2.5,-0.5"/>
  </g>
  <g id="arrowRight" transform="rotate(90) translate(36 -43)">
    <use xlink:href="#rim"/>
    <path pointer-events="none" fill="none" stroke="white" stroke-width="1.5" d="M0,-3.0v7 M-2.5,-0.5L0,-3.0L2.5,-0.5"/>
  </g>
  <g id="arrowDown" transform="rotate(180) translate(-30 -48)">
    <use xlink:href="#rim"/>
    <path pointer-events="none" fill="none" stroke="white" stroke-width="1.5" d="M0,-3.0v7 M-2.5,-0.5L0,-3.0L2.5,-0.5"/>
  </g>
  <g id="arrowLeft" transform="rotate(270) translate(-36 17)">
    <use xlink:href="#rim"/>
    <path pointer-events="none" fill="none" stroke="white" stroke-width="1.5" d="M0,-3.0v7 M-2.5,-0.5L0,-3.0L2.5,-0.5"/>
  </g>
  <g id="resetDef">
    <use xlink:href="#rim2" fill="#404040"><set attributeName="fill" to="#808080" begin="reset.mouseover" end="reset.mouseout"/></use>
  </g>
</defs>
<script type="application/ecmascript">
var viewWidth = 780;
var viewHeight = 440;
var sectionId = 'dynsection-0';
</script>
<script type="application/ecmascript" xlink:href="svg.min.js"/>
<svg id="graph" class="graph">
<g id="viewport">
<title>ScalarDefaults&lt; DERIVED &gt;</title>
<!-- Node1 -->
<g id="Node000001" class="node">
<title>Node1</title>
<g id="a_Node000001"><a xlink:title=" ">
<polygon fill="#999999" stroke="#666666" points="302,-242.5 148,-242.5 148,-223.5 302,-223.5 302,-242.5"/>
<text text-anchor="middle" x="225" y="-230.5" font-family="Helvetica,sans-Serif" font-size="10.00">ScalarDefaults&lt; DERIVED &gt;</text>
</a>
</g>
</g>
<!-- Node3 -->
<g id="Node000003" class="node">
<title>Node3</title>
<g id="a_Node000003"><a xlink:href="struct_scalar_defaults.html" target="_top" xlink:title=" ">
<polygon fill="white" stroke="#666666" points="626.5,-427.5 456.5,-427.5 456.5,-408.5 626.5,-408.5 626.5,-427.5"/>
<text text-anchor="middle" x="541.5" y="-415.5" font-family="Helvetica,sans-Serif" font-size="10.00">ScalarDefaults&lt; RegSomeBit &gt;</text>
</a>
</g>
</g>
<!-- Node1&#45;&gt;Node3 -->
<g id="edge2_Node000001_Node000003" class="edge">
<title>Node1&#45;&gt;Node3</title>
<g id="a_edge2_Node000001_Node000003"><a xlink:title=" ">
<path fill="none" stroke="orange" stroke-dasharray="5,2" d="M231.64,-252.33C242.59,-286.08 270.13,-355.3 320,-388 359.82,-414.11 412.41,-422.03 456.24,-423.23"/>
<polygon fill="orange" stroke="orange" points="234.96,-251.22 228.66,-242.7 228.27,-253.29 234.96,-251.22"/>
</a>
</g>
<text text-anchor="middle" x="374" y="-424" font-family="Helvetica,sans-Serif" font-size="10.00" fill="grey"> &lt; RegSomeBit &gt;</text>
</g>
<!-- Node5 -->
<g id="Node000005" class="node">
<title>Node5</title>
<g id="a_Node000005"><a xlink:href="struct_scalar_defaults.html" target="_top" xlink:title=" ">
<polygon fill="white" stroke="#666666" points="637,-390.5 446,-390.5 446,-371.5 637,-371.5 637,-390.5"/>
<text text-anchor="middle" x="541.5" y="-378.5" font-family="Helvetica,sans-Serif" font-size="10.00">ScalarDefaults&lt; RegSomeDouble &gt;</text>
</a>
</g>
</g>
<!-- Node1&#45;&gt;Node5 -->
<g id="edge4_Node000001_Node000005" class="edge">
<title>Node1&#45;&gt;Node5</title>
<g id="a_edge4_Node000001_Node000005"><a xlink:title=" ">
<path fill="none" stroke="orange" stroke-dasharray="5,2" d="M235.04,-252.05C249.06,-279.27 278.79,-328.6 320,-352 341.4,-364.16 396.18,-371.4 445.78,-375.6"/>
<polygon fill="orange" stroke="orange" points="238.03,-250.19 230.44,-242.8 231.76,-253.31 238.03,-250.19"/>
</a>
</g>
<text text-anchor="middle" x="374" y="-376" font-family="Helvetica,sans-Serif" font-size="10.00" fill="grey"> &lt; RegSomeDouble &gt;</text>
</g>
<!-- Node7 -->
<g id="Node000007" class="node">
<title>Node7</title>
<g id="a_Node000007"><a xlink:href="struct_scalar_defaults.html" target="_top" xlink:title=" ">
<polygon fill="white" stroke="#666666" points="632.5,-353.5 450.5,-353.5 450.5,-334.5 632.5,-334.5 632.5,-353.5"/>
<text text-anchor="middle" x="541.5" y="-341.5" font-family="Helvetica,sans-Serif" font-size="10.00">ScalarDefaults&lt; RegSomeFloat &gt;</text>
</a>
</g>
</g>
<!-- Node1&#45;&gt;Node7 -->
<g id="edge6_Node000001_Node000007" class="edge">
<title>Node1&#45;&gt;Node7</title>
<g id="a_edge6_Node000001_Node000007"><a xlink:title=" ">
<path fill="none" stroke="orange" stroke-dasharray="5,2" d="M241.54,-250C258.86,-267.79 288.57,-295.02 320,-309 360.64,-327.08 409.15,-335.99 450.31,-340.31"/>
<polygon fill="orange" stroke="orange" points="243.92,-247.42 234.5,-242.58 238.84,-252.24 243.92,-247.42"/>
</a>
</g>
<text text-anchor="middle" x="374" y="-340" font-family="Helvetica,sans-Serif" font-size="10.00" fill="grey"> &lt; RegSomeFloat &gt;</text>
</g>
<!-- Node9 -->
<g id="Node000009" class="node">
<title>Node9</title>
<g id="a_Node000009"><a xlink:href="struct_scalar_defaults.html" target="_top" xlink:title=" ">
<polygon fill="white" stroke="#666666" points="635.5,-316.5 447.5,-316.5 447.5,-297.5 635.5,-297.5 635.5,-316.5"/>
<text text-anchor="middle" x="541.5" y="-304.5" font-family="Helvetica,sans-Serif" font-size="10.00">ScalarDefaults&lt; RegSomeIfff_F1 &gt;</text>
</a>
</g>
</g>
<!-- Node1&#45;&gt;Node9 -->
<g id="edge8_Node000001_Node000009" class="edge">
<title>Node1&#45;&gt;Node9</title>
<g id="a_edge8_Node000001_Node000009"><a xlink:title=" ">
<path fill="none" stroke="orange" stroke-dasharray="5,2" d="M254.55,-246.92C272.87,-255.32 297.37,-265.61 320,-272 361.87,-283.83 409.42,-292.01 449.61,-297.48"/>
<polygon fill="orange" stroke="orange" points="255.87,-243.67 245.32,-242.6 252.9,-250.01 255.87,-243.67"/>
</a>
</g>
<text text-anchor="middle" x="374" y="-297" font-family="Helvetica,sans-Serif" font-size="10.00" fill="grey"> &lt; RegSomeIfff_F1 &gt;</text>
</g>
<!-- Node11 -->
<g id="Node000011" class="node">
<title>Node11</title>
<g id="a_Node000011"><a xlink:href="struct_scalar_defaults.html" target="_top" xlink:title=" ">
<polygon fill="white" stroke="#666666" points="635.5,-279.5 447.5,-279.5 447.5,-260.5 635.5,-260.5 635.5,-279.5"/>
<text text-anchor="middle" x="541.5" y="-267.5" font-family="Helvetica,sans-Serif" font-size="10.00">ScalarDefaults&lt; RegSomeIfff_F2 &gt;</text>
</a>
</g>
</g>
<!-- Node1&#45;&gt;Node11 -->
<g id="edge10_Node000001_Node000011" class="edge">
<title>Node1&#45;&gt;Node11</title>
<g id="a_edge10_Node000001_Node000011"><a xlink:title=" ">
<path fill="none" stroke="orange" stroke-dasharray="5,2" d="M303.21,-243.86C308.89,-244.6 314.53,-245.32 320,-246 361.85,-251.17 408.24,-256.31 447.63,-260.5"/>
<polygon fill="orange" stroke="orange" points="303.35,-240.35 292.98,-242.51 302.43,-247.29 303.35,-240.35"/>
</a>
</g>
<text text-anchor="middle" x="374" y="-260" font-family="Helvetica,sans-Serif" font-size="10.00" fill="grey"> &lt; RegSomeIfff_F2 &gt;</text>
</g>
<!-- Node13 -->
<g id="Node000013" class="node">
<title>Node13</title>
<g id="a_Node000013"><a xlink:href="struct_scalar_defaults.html" target="_top" xlink:title=" ">
<polygon fill="white" stroke="#666666" points="635.5,-242.5 447.5,-242.5 447.5,-223.5 635.5,-223.5 635.5,-242.5"/>
<text text-anchor="middle" x="541.5" y="-230.5" font-family="Helvetica,sans-Serif" font-size="10.00">ScalarDefaults&lt; RegSomeIfff_F3 &gt;</text>
</a>
</g>
</g>
<!-- Node1&#45;&gt;Node13 -->
<g id="edge12_Node000001_Node000013" class="edge">
<title>Node1&#45;&gt;Node13</title>
<g id="a_edge12_Node000001_Node000013"><a xlink:title=" ">
<path fill="none" stroke="orange" stroke-dasharray="5,2" d="M312.31,-233C354.22,-233 404.62,-233 447.39,-233"/>
<polygon fill="orange" stroke="orange" points="312.13,-229.5 302.13,-233 312.13,-236.5 312.13,-229.5"/>
</a>
</g>
<text text-anchor="middle" x="374" y="-236" font-family="Helvetica,sans-Serif" font-size="10.00" fill="grey"> &lt; RegSomeIfff_F3 &gt;</text>
</g>
<!-- Node15 -->
<g id="Node000015" class="node">
<title>Node15</title>
<g id="a_Node000015"><a xlink:href="struct_scalar_defaults.html" target="_top" xlink:title=" ">
<polygon fill="white" stroke="#666666" points="631,-205.5 452,-205.5 452,-186.5 631,-186.5 631,-205.5"/>
<text text-anchor="middle" x="541.5" y="-193.5" font-family="Helvetica,sans-Serif" font-size="10.00">ScalarDefaults&lt; RegSomeIfff_I &gt;</text>
</a>
</g>
</g>
<!-- Node1&#45;&gt;Node15 -->
<g id="edge14_Node000001_Node000015" class="edge">
<title>Node1&#45;&gt;Node15</title>
<g id="a_edge14_Node000001_Node000015"><a xlink:title=" ">
<path fill="none" stroke="orange" stroke-dasharray="5,2" d="M292.14,-221.95C301.48,-220.53 310.97,-219.17 320,-218 363.3,-212.39 411.55,-207.43 451.85,-203.65"/>
<polygon fill="orange" stroke="orange" points="291.44,-218.51 282.09,-223.5 292.51,-225.43 291.44,-218.51"/>
</a>
</g>
<text text-anchor="middle" x="374" y="-221" font-family="Helvetica,sans-Serif" font-size="10.00" fill="grey"> &lt; RegSomeIfff_I &gt;</text>
</g>
<!-- Node17 -->
<g id="Node000017" class="node">
<title>Node17</title>
<g id="a_Node000017"><a xlink:href="struct_scalar_defaults.html" target="_top" xlink:title=" ">
<polygon fill="white" stroke="#666666" points="626.5,-168.5 456.5,-168.5 456.5,-149.5 626.5,-149.5 626.5,-168.5"/>
<text text-anchor="middle" x="541.5" y="-156.5" font-family="Helvetica,sans-Serif" font-size="10.00">ScalarDefaults&lt; RegSomeInt &gt;</text>
</a>
</g>
</g>
<!-- Node1&#45;&gt;Node17 -->
<g id="edge16_Node000001_Node000017" class="edge">
<title>Node1&#45;&gt;Node17</title>
<g id="a_edge16_Node000001_Node000017"><a xlink:title=" ">
<path fill="none" stroke="orange" stroke-dasharray="5,2" d="M253.16,-218.88C271.56,-209.88 296.69,-198.7 320,-192 364.18,-179.3 414.81,-171.28 456.41,-166.33"/>
<polygon fill="orange" stroke="orange" points="251.58,-215.75 244.19,-223.35 254.7,-222.02 251.58,-215.75"/>
</a>
</g>
<text text-anchor="middle" x="374" y="-195" font-family="Helvetica,sans-Serif" font-size="10.00" fill="grey"> &lt; RegSomeInt &gt;</text>
</g>
<!-- Node20 -->
<g id="Node000020" class="node">
<title>Node20</title>
<g id="a_Node000020"><a xlink:href="struct_scalar_defaults.html" target="_top" xlink:title=" ">
<polygon fill="white" stroke="#666666" points="635.5,-127.5 447.5,-127.5 447.5,-108.5 635.5,-108.5 635.5,-127.5"/>
<text text-anchor="middle" x="541.5" y="-115.5" font-family="Helvetica,sans-Serif" font-size="10.00">ScalarDefaults&lt; RegSomeStatus &gt;</text>
</a>
</g>
</g>
<!-- Node1&#45;&gt;Node20 -->
<g id="edge19_Node000001_Node000020" class="edge">
<title>Node1&#45;&gt;Node20</title>
<g id="a_edge19_Node000001_Node000020"><a xlink:title=" ">
<path fill="none" stroke="orange" stroke-dasharray="5,2" d="M241.53,-215.85C258.84,-197.9 288.55,-170.37 320,-156 359.57,-137.92 406.73,-128.39 447.25,-123.39"/>
<polygon fill="orange" stroke="orange" points="238.79,-213.66 234.49,-223.34 243.89,-218.45 238.79,-213.66"/>
</a>
</g>
<text text-anchor="middle" x="374" y="-159" font-family="Helvetica,sans-Serif" font-size="10.00" fill="grey"> &lt; RegSomeStatus &gt;</text>
</g>
<!-- Node22 -->
<g id="Node000022" class="node">
<title>Node22</title>
<g id="a_Node000022"><a xlink:href="struct_scalar_defaults.html" target="_top" xlink:title=" ">
<polygon fill="white" stroke="#666666" points="634,-82.5 449,-82.5 449,-63.5 634,-63.5 634,-82.5"/>
<text text-anchor="middle" x="541.5" y="-70.5" font-family="Helvetica,sans-Serif" font-size="10.00">ScalarDefaults&lt; RegSomeString &gt;</text>
</a>
</g>
</g>
<!-- Node1&#45;&gt;Node22 -->
<g id="edge21_Node000001_Node000022" class="edge">
<title>Node1&#45;&gt;Node22</title>
<g id="a_edge21_Node000001_Node000022"><a xlink:title=" ">
<path fill="none" stroke="orange" stroke-dasharray="5,2" d="M235.09,-213.88C249.18,-186.51 279,-136.73 320,-112 358.45,-88.81 407.09,-78.61 448.9,-74.39"/>
<polygon fill="orange" stroke="orange" points="231.79,-212.66 230.47,-223.17 238.06,-215.78 231.79,-212.66"/>
</a>
</g>
<text text-anchor="middle" x="374" y="-115" font-family="Helvetica,sans-Serif" font-size="10.00" fill="grey"> &lt; RegSomeString &gt;</text>
</g>
<!-- Node24 -->
<g id="Node000024" class="node">
<title>Node24</title>
<g id="a_Node000024"><a xlink:href="struct_scalar_defaults.html" target="_top" xlink:title=" ">
<polygon fill="white" stroke="#666666" points="625.5,-30 457.5,-30 457.5,0 625.5,0 625.5,-30"/>
<text text-anchor="start" x="465.5" y="-18" font-family="Helvetica,sans-Serif" font-size="10.00">ScalarDefaults&lt; RegSomeZmq</text>
<text text-anchor="middle" x="541.5" y="-7" font-family="Helvetica,sans-Serif" font-size="10.00">Int &gt;</text>
</a>
</g>
</g>
<!-- Node1&#45;&gt;Node24 -->
<g id="edge23_Node000001_Node000024" class="edge">
<title>Node1&#45;&gt;Node24</title>
<g id="a_edge23_Node000001_Node000024"><a xlink:title=" ">
<path fill="none" stroke="orange" stroke-dasharray="5,2" d="M230.93,-213.76C241.12,-178.06 268.03,-101.7 320,-63 359.36,-33.69 412.99,-21.58 457.5,-16.84"/>
<polygon fill="orange" stroke="orange" points="227.54,-212.88 228.29,-223.44 234.3,-214.71 227.54,-212.88"/>
</a>
</g>
<text text-anchor="middle" x="374" y="-66" font-family="Helvetica,sans-Serif" font-size="10.00" fill="grey"> &lt; RegSomeZmqInt &gt;</text>
</g>
<!-- Node2 -->
<g id="Node000002" class="node">
<title>Node2</title>
<g id="a_Node000002"><a xlink:href="struct_all_register_defaults.html" target="_top" xlink:title=" ">
<polygon fill="white" stroke="#666666" points="111,-248 0,-248 0,-218 111,-218 111,-248"/>
<text text-anchor="start" x="8" y="-236" font-family="Helvetica,sans-Serif" font-size="10.00">AllRegisterDefaults</text>
<text text-anchor="middle" x="55.5" y="-225" font-family="Helvetica,sans-Serif" font-size="10.00">&lt; DERIVED &gt;</text>
</a>
</g>
</g>
<!-- Node2&#45;&gt;Node1 -->
<g id="edge1_Node000001_Node000002" class="edge">
<title>Node2&#45;&gt;Node1</title>
<g id="a_edge1_Node000001_Node000002"><a xlink:title=" ">
<path fill="none" stroke="#63b8ff" d="M121.63,-233C130.19,-233 139.02,-233 147.75,-233"/>
<polygon fill="#63b8ff" stroke="#63b8ff" points="121.35,-229.5 111.35,-233 121.35,-236.5 121.35,-229.5"/>
</a>
</g>
</g>
<!-- Node4 -->
<g id="Node000004" class="node">
<title>Node4</title>
<g id="a_Node000004"><a xlink:href="struct_reg_some_bit.html" target="_top" xlink:title=" ">
<polygon fill="white" stroke="#666666" points="761.5,-427.5 684.5,-427.5 684.5,-408.5 761.5,-408.5 761.5,-427.5"/>
<text text-anchor="middle" x="723" y="-415.5" font-family="Helvetica,sans-Serif" font-size="10.00">RegSomeBit</text>
</a>
</g>
</g>
<!-- Node3&#45;&gt;Node4 -->
<g id="edge3_Node000003_Node000004" class="edge">
<title>Node3&#45;&gt;Node4</title>
<g id="a_edge3_Node000003_Node000004"><a xlink:title=" ">
<path fill="none" stroke="#63b8ff" d="M637.17,-418C653.92,-418 670.44,-418 684.39,-418"/>
<polygon fill="#63b8ff" stroke="#63b8ff" points="636.73,-414.5 626.73,-418 636.73,-421.5 636.73,-414.5"/>
</a>
</g>
</g>
<!-- Node6 -->
<g id="Node000006" class="node">
<title>Node6</title>
<g id="a_Node000006"><a xlink:href="struct_reg_some_double.html" target="_top" xlink:title=" ">
<polygon fill="white" stroke="#666666" points="772,-390.5 674,-390.5 674,-371.5 772,-371.5 772,-390.5"/>
<text text-anchor="middle" x="723" y="-378.5" font-family="Helvetica,sans-Serif" font-size="10.00">RegSomeDouble</text>
</a>
</g>
</g>
<!-- Node5&#45;&gt;Node6 -->
<g id="edge5_Node000005_Node000006" class="edge">
<title>Node5&#45;&gt;Node6</title>
<g id="a_edge5_Node000005_Node000006"><a xlink:title=" ">
<path fill="none" stroke="#63b8ff" d="M647.27,-381C656.45,-381 665.41,-381 673.76,-381"/>
<polygon fill="#63b8ff" stroke="#63b8ff" points="647.24,-377.5 637.24,-381 647.24,-384.5 647.24,-377.5"/>
</a>
</g>
</g>
<!-- Node8 -->
<g id="Node000008" class="node">
<title>Node8</title>
<g id="a_Node000008"><a xlink:href="struct_reg_some_float.html" target="_top" xlink:title=" ">
<polygon fill="white" stroke="#666666" points="767,-353.5 679,-353.5 679,-334.5 767,-334.5 767,-353.5"/>
<text text-anchor="middle" x="723" y="-341.5" font-family="Helvetica,sans-Serif" font-size="10.00">RegSomeFloat</text>
</a>
</g>
</g>
<!-- Node7&#45;&gt;Node8 -->
<g id="edge7_Node000007_Node000008" class="edge">
<title>Node7&#45;&gt;Node8</title>
<g id="a_edge7_Node000007_Node000008"><a xlink:title=" ">
<path fill="none" stroke="#63b8ff" d="M642.68,-344C655.3,-344 667.65,-344 678.69,-344"/>
<polygon fill="#63b8ff" stroke="#63b8ff" points="642.51,-340.5 632.51,-344 642.51,-347.5 642.51,-340.5"/>
</a>
</g>
</g>
<!-- Node10 -->
<g id="Node000010" class="node">
<title>Node10</title>
<g id="a_Node000010"><a xlink:href="struct_reg_some_ifff___f1.html" target="_top" xlink:title=" ">
<polygon fill="white" stroke="#666666" points="770,-316.5 676,-316.5 676,-297.5 770,-297.5 770,-316.5"/>
<text text-anchor="middle" x="723" y="-304.5" font-family="Helvetica,sans-Serif" font-size="10.00">RegSomeIfff_F1</text>
</a>
</g>
</g>
<!-- Node9&#45;&gt;Node10 -->
<g id="edge9_Node000009_Node000010" class="edge">
<title>Node9&#45;&gt;Node10</title>
<g id="a_edge9_Node000009_Node000010"><a xlink:title=" ">
<path fill="none" stroke="#63b8ff" d="M645.8,-307C656.31,-307 666.56,-307 675.97,-307"/>
<polygon fill="#63b8ff" stroke="#63b8ff" points="645.67,-303.5 635.67,-307 645.67,-310.5 645.67,-303.5"/>
</a>
</g>
</g>
<!-- Node12 -->
<g id="Node000012" class="node">
<title>Node12</title>
<g id="a_Node000012"><a xlink:href="struct_reg_some_ifff___f2.html" target="_top" xlink:title=" ">
<polygon fill="white" stroke="#666666" points="770,-279.5 676,-279.5 676,-260.5 770,-260.5 770,-279.5"/>
<text text-anchor="middle" x="723" y="-267.5" font-family="Helvetica,sans-Serif" font-size="10.00">RegSomeIfff_F2</text>
</a>
</g>
</g>
<!-- Node11&#45;&gt;Node12 -->
<g id="edge11_Node000011_Node000012" class="edge">
<title>Node11&#45;&gt;Node12</title>
<g id="a_edge11_Node000011_Node000012"><a xlink:title=" ">
<path fill="none" stroke="#63b8ff" d="M645.8,-270C656.31,-270 666.56,-270 675.97,-270"/>
<polygon fill="#63b8ff" stroke="#63b8ff" points="645.67,-266.5 635.67,-270 645.67,-273.5 645.67,-266.5"/>
</a>
</g>
</g>
<!-- Node14 -->
<g id="Node000014" class="node">
<title>Node14</title>
<g id="a_Node000014"><a xlink:href="struct_reg_some_ifff___f3.html" target="_top" xlink:title=" ">
<polygon fill="white" stroke="#666666" points="770,-242.5 676,-242.5 676,-223.5 770,-223.5 770,-242.5"/>
<text text-anchor="middle" x="723" y="-230.5" font-family="Helvetica,sans-Serif" font-size="10.00">RegSomeIfff_F3</text>
</a>
</g>
</g>
<!-- Node13&#45;&gt;Node14 -->
<g id="edge13_Node000013_Node000014" class="edge">
<title>Node13&#45;&gt;Node14</title>
<g id="a_edge13_Node000013_Node000014"><a xlink:title=" ">
<path fill="none" stroke="#63b8ff" d="M645.8,-233C656.31,-233 666.56,-233 675.97,-233"/>
<polygon fill="#63b8ff" stroke="#63b8ff" points="645.67,-229.5 635.67,-233 645.67,-236.5 645.67,-229.5"/>
</a>
</g>
</g>
<!-- Node16 -->
<g id="Node000016" class="node">
<title>Node16</title>
<g id="a_Node000016"><a xlink:href="struct_reg_some_ifff___i.html" target="_top" xlink:title=" ">
<polygon fill="white" stroke="#666666" points="765.5,-205.5 680.5,-205.5 680.5,-186.5 765.5,-186.5 765.5,-205.5"/>
<text text-anchor="middle" x="723" y="-193.5" font-family="Helvetica,sans-Serif" font-size="10.00">RegSomeIfff_I</text>
</a>
</g>
</g>
<!-- Node15&#45;&gt;Node16 -->
<g id="edge15_Node000015_Node000016" class="edge">
<title>Node15&#45;&gt;Node16</title>
<g id="a_edge15_Node000015_Node000016"><a xlink:title=" ">
<path fill="none" stroke="#63b8ff" d="M641.23,-196C654.95,-196 668.4,-196 680.26,-196"/>
<polygon fill="#63b8ff" stroke="#63b8ff" points="641.2,-192.5 631.2,-196 641.2,-199.5 641.2,-192.5"/>
</a>
</g>
</g>
<!-- Node18 -->
<g id="Node000018" class="node">
<title>Node18</title>
<g id="a_Node000018"><a xlink:href="struct_reg_some_int.html" target="_top" xlink:title=" ">
<polygon fill="white" stroke="#666666" points="761,-168.5 685,-168.5 685,-149.5 761,-149.5 761,-168.5"/>
<text text-anchor="middle" x="723" y="-156.5" font-family="Helvetica,sans-Serif" font-size="10.00">RegSomeInt</text>
</a>
</g>
</g>
<!-- Node17&#45;&gt;Node18 -->
<g id="edge17_Node000017_Node000018" class="edge">
<title>Node17&#45;&gt;Node18</title>
<g id="a_edge17_Node000017_Node000018"><a xlink:title=" ">
<path fill="none" stroke="#63b8ff" d="M636.79,-159C653.85,-159 670.7,-159 684.85,-159"/>
<polygon fill="#63b8ff" stroke="#63b8ff" points="636.73,-155.5 626.73,-159 636.73,-162.5 636.73,-155.5"/>
</a>
</g>
</g>
<!-- Node19 -->
<g id="Node000019" class="node">
<title>Node19</title>
<g id="a_Node000019"><a xlink:href="struct_reg_some_ro_int.html" target="_top" xlink:title=" ">
<polygon fill="white" stroke="#666666" points="767.5,-131.5 678.5,-131.5 678.5,-112.5 767.5,-112.5 767.5,-131.5"/>
<text text-anchor="middle" x="723" y="-119.5" font-family="Helvetica,sans-Serif" font-size="10.00">RegSomeRoInt</text>
</a>
</g>
</g>
<!-- Node17&#45;&gt;Node19 -->
<g id="edge18_Node000017_Node000019" class="edge">
<title>Node17&#45;&gt;Node19</title>
<g id="a_edge18_Node000017_Node000019"><a xlink:title=" ">
<path fill="none" stroke="#63b8ff" d="M598.71,-147.41C624.43,-142.11 654.43,-135.93 678.4,-130.99"/>
<polygon fill="#63b8ff" stroke="#63b8ff" points="597.81,-144.02 588.73,-149.47 599.23,-150.88 597.81,-144.02"/>
</a>
</g>
</g>
<!-- Node21 -->
<g id="Node000021" class="node">
<title>Node21</title>
<g id="a_Node000021"><a xlink:href="struct_reg_some_status.html" target="_top" xlink:title=" ">
<polygon fill="white" stroke="#666666" points="770,-94.5 676,-94.5 676,-75.5 770,-75.5 770,-94.5"/>
<text text-anchor="middle" x="723" y="-82.5" font-family="Helvetica,sans-Serif" font-size="10.00">RegSomeStatus</text>
</a>
</g>
</g>
<!-- Node20&#45;&gt;Node21 -->
<g id="edge20_Node000020_Node000021" class="edge">
<title>Node20&#45;&gt;Node21</title>
<g id="a_edge20_Node000020_Node000021"><a xlink:title=" ">
<path fill="none" stroke="#63b8ff" d="M604.26,-106.65C627.69,-102.34 653.94,-97.51 675.7,-93.51"/>
<polygon fill="#63b8ff" stroke="#63b8ff" points="603.62,-103.2 594.42,-108.46 604.89,-110.09 603.62,-103.2"/>
</a>
</g>
</g>
<!-- Node23 -->
<g id="Node000023" class="node">
<title>Node23</title>
<g id="a_Node000023"><a xlink:href="struct_reg_some_string.html" target="_top" xlink:title=" ">
<polygon fill="white" stroke="#666666" points="769,-57.5 677,-57.5 677,-38.5 769,-38.5 769,-57.5"/>
<text text-anchor="middle" x="723" y="-45.5" font-family="Helvetica,sans-Serif" font-size="10.00">RegSomeString</text>
</a>
</g>
</g>
<!-- Node22&#45;&gt;Node23 -->
<g id="edge22_Node000022_Node000023" class="edge">
<title>Node22&#45;&gt;Node23</title>
<g id="a_edge22_Node000022_Node000023"><a xlink:title=" ">
<path fill="none" stroke="#63b8ff" d="M620.81,-62.09C639.98,-59.42 659.86,-56.65 676.87,-54.29"/>
<polygon fill="#63b8ff" stroke="#63b8ff" points="620.29,-58.63 610.87,-63.48 621.26,-65.56 620.29,-58.63"/>
</a>
</g>
</g>
<!-- Node25 -->
<g id="Node000025" class="node">
<title>Node25</title>
<g id="a_Node000025"><a xlink:href="struct_reg_some_zmq_int.html" target="_top" xlink:title=" ">
<polygon fill="white" stroke="#666666" points="772,-20.5 674,-20.5 674,-1.5 772,-1.5 772,-20.5"/>
<text text-anchor="middle" x="723" y="-8.5" font-family="Helvetica,sans-Serif" font-size="10.00">RegSomeZmqInt</text>
</a>
</g>
</g>
<!-- Node24&#45;&gt;Node25 -->
<g id="edge24_Node000024_Node000025" class="edge">
<title>Node24&#45;&gt;Node25</title>
<g id="a_edge24_Node000024_Node000025"><a xlink:title=" ">
<path fill="none" stroke="#63b8ff" d="M635.76,-12.92C648.94,-12.63 662.01,-12.34 673.85,-12.07"/>
<polygon fill="#63b8ff" stroke="#63b8ff" points="635.6,-9.42 625.68,-13.15 635.76,-16.42 635.6,-9.42"/>
</a>
</g>
</g>
</g>
</svg>

<g id="navigator" transform="translate(0 0)" fill="#404254">
  <rect fill="#f2f5e9" fill-opacity="0.5" stroke="#606060" stroke-width=".5" x="0" y="0" width="60" height="60"/>
  <use id="zoomplus" xlink:href="#zoomPlus" x="17" y="9" onmousedown="handleZoom(evt,'in')"/>
  <use id="zoomminus" xlink:href="#zoomMin" x="42" y="9" onmousedown="handleZoom(evt,'out')"/>
  <use id="reset" xlink:href="#resetDef" x="30" y="36" onmousedown="handleReset()"/>
   <use id="arrowup" xlink:href="#arrowUp" x="0" y="0" onmousedown="handlePan(0,-1)"/>
  <use id="arrowright" xlink:href="#arrowRight" x="0" y="0" onmousedown="handlePan(1,0)"/>
  <use id="arrowdown" xlink:href="#arrowDown" x="0" y="0" onmousedown="handlePan(0,1)"/>
  <use id="arrowleft" xlink:href="#arrowLeft" x="0" y="0" onmousedown="handlePan(-1,0)"/>
</g>
<svg viewBox="0 0 15 15" width="100%" height="30px" preserveAspectRatio="xMaxYMin meet">
 <g id="arrow_out" transform="scale(0.3 0.3)">
  <a xlink:href="struct_scalar_defaults__inherit__graph_org.svg" target="_base">
   <rect id="button" ry="5" rx="5" y="6" x="6" height="38" width="38"
        fill="#f2f5e9" fill-opacity="0.5" stroke="#606060" stroke-width="1.0"/>
   <path id="arrow"
     d="M 11.500037,31.436501 C 11.940474,20.09759 22.043105,11.32322 32.158766,21.979434 L 37.068811,17.246167 C 37.068811,17.246167 37.088388,32 37.088388,32 L 22.160133,31.978069 C 22.160133,31.978069 26.997745,27.140456 26.997745,27.140456 C 18.528582,18.264221 13.291696,25.230495 11.500037,31.436501 z"
     style="fill:#404040;"/>
  </a>
 </g>
</svg>

<style type='text/css'>
<![CDATA[
[data-mouse-over-selected='false'] { opacity: 0.7; }
[data-mouse-over-selected='true']  { opacity: 1.0; }
]]>
</style>
<script type="application/ecmascript"><![CDATA[
document.addEventListener('DOMContentLoaded', (event) => {
  highlightEdges();
  highlightAdjacentNodes();
});
]]></script>
</svg>
