<?xml version="1.0" encoding="UTF-8" standalone="no"?>
<!DOCTYPE svg PUBLIC "-//W3C//DTD SVG 1.1//EN"
 "http://www.w3.org/Graphics/SVG/1.1/DTD/svg11.dtd">
<!-- Generated by graphviz version 2.43.0 (0)
 -->
<!-- Title: /scratch/dragon/sources/ChimeraTK&#45;ControlSystemAdapter/include/ChimeraTK/ControlSystemAdapter/ApplicationBase.h Pages: 1 -->
<!--zoomable 313 -->

<svg id="main" version="1.1" xmlns="http://www.w3.org/2000/svg" xmlns:xlink="http://www.w3.org/1999/xlink" xml:space="preserve" onload="init(evt)">
<style type="text/css"><![CDATA[
.node, .edge {opacity: 0.7;}
.node.selected, .edge.selected {opacity: 1;}
.edge:hover path { stroke: red; }
.edge:hover polygon { stroke: red; fill: red; }
]]></style>

<defs>
  <circle id="rim" cx="0" cy="0" r="7"/>
  <circle id="rim2" cx="0" cy="0" r="3.5"/>
  <g id="zoomPlus">
    <use xlink:href="#rim" fill="#404040"><set attributeName="fill" to="#808080" begin="zoomplus.mouseover" end="zoomplus.mouseout"/></use>
    <path d="M-4,0h8M0,-4v8" fill="none" stroke="white" stroke-width="1.5" pointer-events="none"/>
  </g>
  <g id="zoomMin">
    <use xlink:href="#rim" fill="#404040"><set attributeName="fill" to="#808080" begin="zoomminus.mouseover" end="zoomminus.mouseout"/></use>
    <path d="M-4,0h8" fill="none" stroke="white" stroke-width="1.5" pointer-events="none"/>
  </g>
  <g id="arrowUp" transform="translate(30 24)">
    <use xlink:href="#rim"/>
    <path pointer-events="none" fill="none" stroke="white" stroke-width="1.5" d="M0,-3.0v7 M-2.5,-0.5L0,-3.0L2.5,-0.5"/>
  </g>
  <g id="arrowRight" transform="rotate(90) translate(36 -43)">
    <use xlink:href="#rim"/>
    <path pointer-events="none" fill="none" stroke="white" stroke-width="1.5" d="M0,-3.0v7 M-2.5,-0.5L0,-3.0L2.5,-0.5"/>
  </g>
  <g id="arrowDown" transform="rotate(180) translate(-30 -48)">
    <use xlink:href="#rim"/>
    <path pointer-events="none" fill="none" stroke="white" stroke-width="1.5" d="M0,-3.0v7 M-2.5,-0.5L0,-3.0L2.5,-0.5"/>
  </g>
  <g id="arrowLeft" transform="rotate(270) translate(-36 17)">
    <use xlink:href="#rim"/>
    <path pointer-events="none" fill="none" stroke="white" stroke-width="1.5" d="M0,-3.0v7 M-2.5,-0.5L0,-3.0L2.5,-0.5"/>
  </g>
  <g id="resetDef">
    <use xlink:href="#rim2" fill="#404040"><set attributeName="fill" to="#808080" begin="reset.mouseover" end="reset.mouseout"/></use>
  </g>
</defs>
<script type="application/ecmascript">
var viewWidth = 2108;
var viewHeight = 313;
var sectionId = 'dynsection-1';
</script>
<script type="application/ecmascript" xlink:href="svg.min.js"/>
<svg id="graph" class="graph">
<g id="viewport">
<title>/scratch/dragon/sources/ChimeraTK&#45;ControlSystemAdapter/include/ChimeraTK/ControlSystemAdapter/ApplicationBase.h</title>
<!-- Node1 -->
<g id="Node000001" class="node">
<title>Node1</title>
<g id="a_Node000001"><a xlink:title=" ">
<polygon fill="#999999" stroke="#666666" points="817.5,-305 592.5,-305 592.5,-253 817.5,-253 817.5,-305"/>
<text text-anchor="start" x="600.5" y="-293" font-family="Helvetica,sans-Serif" font-size="10.00">/scratch/dragon/sources</text>
<text text-anchor="start" x="600.5" y="-282" font-family="Helvetica,sans-Serif" font-size="10.00">/ChimeraTK&#45;ControlSystemAdapter</text>
<text text-anchor="start" x="600.5" y="-271" font-family="Helvetica,sans-Serif" font-size="10.00">/include/ChimeraTK/ControlSystemAdapter</text>
<text text-anchor="middle" x="705" y="-260" font-family="Helvetica,sans-Serif" font-size="10.00">/ApplicationBase.h</text>
</a>
</g>
</g>
<!-- Node2 -->
<g id="Node000002" class="node">
<title>Node2</title>
<g id="a_Node000002"><a xlink:href="_application_factory_8h.html" target="_top" xlink:title=" ">
<polygon fill="white" stroke="#666666" points="561.5,-217 336.5,-217 336.5,-165 561.5,-165 561.5,-217"/>
<text text-anchor="start" x="344.5" y="-205" font-family="Helvetica,sans-Serif" font-size="10.00">/scratch/dragon/sources</text>
<text text-anchor="start" x="344.5" y="-194" font-family="Helvetica,sans-Serif" font-size="10.00">/ChimeraTK&#45;ControlSystemAdapter</text>
<text text-anchor="start" x="344.5" y="-183" font-family="Helvetica,sans-Serif" font-size="10.00">/include/ChimeraTK/ControlSystemAdapter</text>
<text text-anchor="middle" x="449" y="-172" font-family="Helvetica,sans-Serif" font-size="10.00">/ApplicationFactory.h</text>
</a>
</g>
</g>
<!-- Node1&#45;&gt;Node2 -->
<g id="edge1_Node000001_Node000002" class="edge">
<title>Node1&#45;&gt;Node2</title>
<g id="a_edge1_Node000001_Node000002"><a xlink:title=" ">
<path fill="none" stroke="#63b8ff" d="M620.7,-249.68C589.42,-239.17 554.2,-227.34 523.83,-217.14"/>
<polygon fill="#63b8ff" stroke="#63b8ff" points="619.67,-253.03 630.27,-252.89 621.9,-246.39 619.67,-253.03"/>
</a>
</g>
</g>
<!-- Node3 -->
<g id="Node000003" class="node">
<title>Node3</title>
<g id="a_Node000003"><a xlink:href="_application_base_8cc.html" target="_top" xlink:title=" ">
<polygon fill="white" stroke="#666666" points="186,-123.5 0,-123.5 0,-82.5 186,-82.5 186,-123.5"/>
<text text-anchor="start" x="8" y="-111.5" font-family="Helvetica,sans-Serif" font-size="10.00">/scratch/dragon/sources</text>
<text text-anchor="start" x="8" y="-100.5" font-family="Helvetica,sans-Serif" font-size="10.00">/ChimeraTK&#45;ControlSystemAdapter</text>
<text text-anchor="middle" x="93" y="-89.5" font-family="Helvetica,sans-Serif" font-size="10.00">/src/ApplicationBase.cc</text>
</a>
</g>
</g>
<!-- Node1&#45;&gt;Node3 -->
<g id="edge14_Node000001_Node000003" class="edge">
<title>Node1&#45;&gt;Node3</title>
<g id="a_edge14_Node000001_Node000003"><a xlink:title=" ">
<path fill="none" stroke="#63b8ff" d="M581.91,-271.08C499.51,-263.68 389.61,-248.43 297,-217 229.52,-194.1 158.4,-149.28 120.55,-123.5"/>
<polygon fill="#63b8ff" stroke="#63b8ff" points="581.8,-274.58 592.07,-271.96 582.41,-267.61 581.8,-274.58"/>
</a>
</g>
</g>
<!-- Node4 -->
<g id="Node000004" class="node">
<title>Node4</title>
<g id="a_Node000004"><a xlink:href="_application_factory_8cc.html" target="_top" xlink:title=" ">
<polygon fill="white" stroke="#666666" points="390,-123.5 204,-123.5 204,-82.5 390,-82.5 390,-123.5"/>
<text text-anchor="start" x="212" y="-111.5" font-family="Helvetica,sans-Serif" font-size="10.00">/scratch/dragon/sources</text>
<text text-anchor="start" x="212" y="-100.5" font-family="Helvetica,sans-Serif" font-size="10.00">/ChimeraTK&#45;ControlSystemAdapter</text>
<text text-anchor="middle" x="297" y="-89.5" font-family="Helvetica,sans-Serif" font-size="10.00">/src/ApplicationFactory.cc</text>
</a>
</g>
</g>
<!-- Node1&#45;&gt;Node4 -->
<g id="edge15_Node000001_Node000004" class="edge">
<title>Node1&#45;&gt;Node4</title>
<g id="a_edge15_Node000001_Node000004"><a xlink:title=" ">
<path fill="none" stroke="#63b8ff" d="M582.22,-272.42C486.5,-265.54 363.83,-250.34 327,-217 300.66,-193.16 296.32,-149.11 296.2,-123.62"/>
<polygon fill="#63b8ff" stroke="#63b8ff" points="582.06,-275.92 592.28,-273.12 582.55,-268.93 582.06,-275.92"/>
</a>
</g>
</g>
<!-- Node6 -->
<g id="Node000006" class="node">
<title>Node6</title>
<g id="a_Node000006"><a xlink:href="_control_system_p_v_manager_8h.html" target="_top" xlink:title=" ">
<polygon fill="white" stroke="#666666" points="1237.5,-217 1012.5,-217 1012.5,-165 1237.5,-165 1237.5,-217"/>
<text text-anchor="start" x="1020.5" y="-205" font-family="Helvetica,sans-Serif" font-size="10.00">/scratch/dragon/sources</text>
<text text-anchor="start" x="1020.5" y="-194" font-family="Helvetica,sans-Serif" font-size="10.00">/ChimeraTK&#45;ControlSystemAdapter</text>
<text text-anchor="start" x="1020.5" y="-183" font-family="Helvetica,sans-Serif" font-size="10.00">/include/ChimeraTK/ControlSystemAdapter</text>
<text text-anchor="middle" x="1125" y="-172" font-family="Helvetica,sans-Serif" font-size="10.00">/ControlSystemPVManager.h</text>
</a>
</g>
</g>
<!-- Node1&#45;&gt;Node6 -->
<g id="edge5_Node000001_Node000006" class="edge">
<title>Node1&#45;&gt;Node6</title>
<g id="a_edge5_Node000001_Node000006"><a xlink:title=" ">
<path fill="none" stroke="#63b8ff" d="M827.56,-252.9C885.87,-240.97 955.13,-226.78 1012.14,-215.11"/>
<polygon fill="#63b8ff" stroke="#63b8ff" points="826.65,-249.52 817.55,-254.95 828.05,-256.38 826.65,-249.52"/>
</a>
</g>
</g>
<!-- Node13 -->
<g id="Node000013" class="node">
<title>Node13</title>
<g id="a_Node000013"><a xlink:href="test_persistent_data_storage_8cpp.html" target="_top" xlink:title=" ">
<polygon fill="white" stroke="#666666" points="2100,-123.5 1888,-123.5 1888,-82.5 2100,-82.5 2100,-123.5"/>
<text text-anchor="start" x="1896" y="-111.5" font-family="Helvetica,sans-Serif" font-size="10.00">/scratch/dragon/sources</text>
<text text-anchor="start" x="1896" y="-100.5" font-family="Helvetica,sans-Serif" font-size="10.00">/ChimeraTK&#45;ControlSystemAdapter</text>
<text text-anchor="middle" x="1994" y="-89.5" font-family="Helvetica,sans-Serif" font-size="10.00">/tests/src/testPersistentDataStorage.cpp</text>
</a>
</g>
</g>
<!-- Node1&#45;&gt;Node13 -->
<g id="edge21_Node000001_Node000013" class="edge">
<title>Node1&#45;&gt;Node13</title>
<g id="a_edge21_Node000001_Node000013"><a xlink:title=" ">
<path fill="none" stroke="#63b8ff" d="M827.7,-275.34C964.91,-270.43 1176.97,-256.5 1246,-217 1271.07,-202.65 1259.56,-178.7 1285,-165 1401.44,-102.31 1748,-147.1 1879,-129 1889.52,-127.55 1900.52,-125.65 1911.36,-123.55"/>
<polygon fill="#63b8ff" stroke="#63b8ff" points="827.41,-271.84 817.54,-275.69 827.65,-278.84 827.41,-271.84"/>
</a>
</g>
</g>
<!-- Node15 -->
<g id="Node000015" class="node">
<title>Node15</title>
<g id="a_Node000015"><a xlink:href="_persistent_data_storage_8cc.html" target="_top" xlink:title=" ">
<polygon fill="white" stroke="#666666" points="1480,-211.5 1294,-211.5 1294,-170.5 1480,-170.5 1480,-211.5"/>
<text text-anchor="start" x="1302" y="-199.5" font-family="Helvetica,sans-Serif" font-size="10.00">/scratch/dragon/sources</text>
<text text-anchor="start" x="1302" y="-188.5" font-family="Helvetica,sans-Serif" font-size="10.00">/ChimeraTK&#45;ControlSystemAdapter</text>
<text text-anchor="middle" x="1387" y="-177.5" font-family="Helvetica,sans-Serif" font-size="10.00">/src/PersistentDataStorage.cc</text>
</a>
</g>
</g>
<!-- Node1&#45;&gt;Node15 -->
<g id="edge16_Node000001_Node000015" class="edge">
<title>Node1&#45;&gt;Node15</title>
<g id="a_edge16_Node000001_Node000015"><a xlink:title=" ">
<path fill="none" stroke="#63b8ff" d="M827.73,-269.41C944.55,-260.18 1125.04,-243.22 1280,-217 1289.22,-215.44 1298.83,-213.56 1308.34,-211.54"/>
<polygon fill="#63b8ff" stroke="#63b8ff" points="827.37,-265.92 817.68,-270.19 827.92,-272.9 827.37,-265.92"/>
</a>
</g>
</g>
<!-- Node16 -->
<g id="Node000016" class="node">
<title>Node16</title>
<g id="a_Node000016"><a xlink:href="_reference_test_application_8h.html" target="_top" xlink:title=" ">
<polygon fill="white" stroke="#666666" points="819,-217 591,-217 591,-165 819,-165 819,-217"/>
<text text-anchor="start" x="599" y="-205" font-family="Helvetica,sans-Serif" font-size="10.00">/scratch/dragon/sources</text>
<text text-anchor="start" x="599" y="-194" font-family="Helvetica,sans-Serif" font-size="10.00">/ChimeraTK&#45;ControlSystemAdapter</text>
<text text-anchor="start" x="599" y="-183" font-family="Helvetica,sans-Serif" font-size="10.00">/tests/include/ChimeraTK/ControlSystem</text>
<text text-anchor="middle" x="705" y="-172" font-family="Helvetica,sans-Serif" font-size="10.00">Adapter/Testing/ReferenceTestApplication.h</text>
</a>
</g>
</g>
<!-- Node1&#45;&gt;Node16 -->
<g id="edge17_Node000001_Node000016" class="edge">
<title>Node1&#45;&gt;Node16</title>
<g id="a_edge17_Node000001_Node000016"><a xlink:title=" ">
<path fill="none" stroke="#63b8ff" d="M705,-242.56C705,-234.04 705,-225.1 705,-217.16"/>
<polygon fill="#63b8ff" stroke="#63b8ff" points="701.5,-242.66 705,-252.66 708.5,-242.66 701.5,-242.66"/>
</a>
</g>
</g>
<!-- Node2&#45;&gt;Node3 -->
<g id="edge2_Node000002_Node000003" class="edge">
<title>Node2&#45;&gt;Node3</title>
<g id="a_edge2_Node000002_Node000003"><a xlink:title=" ">
<path fill="none" stroke="#63b8ff" d="M334.45,-162.61C290.79,-152.14 240.58,-140.06 195,-129 187.74,-127.24 180.18,-125.4 172.62,-123.55"/>
<polygon fill="#63b8ff" stroke="#63b8ff" points="333.7,-166.03 344.24,-164.96 335.33,-159.22 333.7,-166.03"/>
</a>
</g>
</g>
<!-- Node2&#45;&gt;Node4 -->
<g id="edge3_Node000002_Node000004" class="edge">
<title>Node2&#45;&gt;Node4</title>
<g id="a_edge3_Node000002_Node000004"><a xlink:title=" ">
<path fill="none" stroke="#63b8ff" d="M395.68,-159.83C374.38,-147.78 350.47,-134.25 331.52,-123.53"/>
<polygon fill="#63b8ff" stroke="#63b8ff" points="394.2,-163.02 404.63,-164.89 397.65,-156.92 394.2,-163.02"/>
</a>
</g>
</g>
<!-- Node5 -->
<g id="Node000005" class="node">
<title>Node5</title>
<g id="a_Node000005"><a xlink:href="test_application_factory_8cc.html" target="_top" xlink:title=" ">
<polygon fill="white" stroke="#666666" points="594,-123.5 408,-123.5 408,-82.5 594,-82.5 594,-123.5"/>
<text text-anchor="start" x="416" y="-111.5" font-family="Helvetica,sans-Serif" font-size="10.00">/scratch/dragon/sources</text>
<text text-anchor="start" x="416" y="-100.5" font-family="Helvetica,sans-Serif" font-size="10.00">/ChimeraTK&#45;ControlSystemAdapter</text>
<text text-anchor="middle" x="501" y="-89.5" font-family="Helvetica,sans-Serif" font-size="10.00">/tests/src/testApplicationFactory.cc</text>
</a>
</g>
</g>
<!-- Node2&#45;&gt;Node5 -->
<g id="edge4_Node000002_Node000005" class="edge">
<title>Node2&#45;&gt;Node5</title>
<g id="a_edge4_Node000002_Node000005"><a xlink:title=" ">
<path fill="none" stroke="#63b8ff" d="M469.5,-156.09C476.14,-145.11 483.29,-133.3 489.09,-123.7"/>
<polygon fill="#63b8ff" stroke="#63b8ff" points="466.5,-154.29 464.32,-164.66 472.49,-157.92 466.5,-154.29"/>
</a>
</g>
</g>
<!-- Node7 -->
<g id="Node000007" class="node">
<title>Node7</title>
<g id="a_Node000007"><a xlink:href="_control_system_adapter_control_system_8h.html" target="_top" xlink:title=" ">
<polygon fill="white" stroke="#666666" points="1665.5,-129 1440.5,-129 1440.5,-77 1665.5,-77 1665.5,-129"/>
<text text-anchor="start" x="1448.5" y="-117" font-family="Helvetica,sans-Serif" font-size="10.00">/scratch/dragon/sources</text>
<text text-anchor="start" x="1448.5" y="-106" font-family="Helvetica,sans-Serif" font-size="10.00">/ChimeraTK&#45;ControlSystemAdapter</text>
<text text-anchor="start" x="1448.5" y="-95" font-family="Helvetica,sans-Serif" font-size="10.00">/include/ChimeraTK/ControlSystemAdapter</text>
<text text-anchor="middle" x="1553" y="-84" font-family="Helvetica,sans-Serif" font-size="10.00">ControlSystem.h</text>
</a>
</g>
</g>
<!-- Node6&#45;&gt;Node7 -->
<g id="edge6_Node000006_Node000007" class="edge">
<title>Node6&#45;&gt;Node7</title>
<g id="a_edge6_Node000006_Node000007"><a xlink:title=" ">
<path fill="none" stroke="#63b8ff" d="M1247.61,-165.71C1303.55,-154.59 1370.64,-141.2 1431,-129 1434.07,-128.38 1437.19,-127.75 1440.33,-127.11"/>
<polygon fill="#63b8ff" stroke="#63b8ff" points="1246.78,-162.31 1237.66,-167.69 1248.15,-169.18 1246.78,-162.31"/>
</a>
</g>
</g>
<!-- Node9 -->
<g id="Node000009" class="node">
<title>Node9</title>
<g id="a_Node000009"><a xlink:href="_control_system_p_v_manager_8cc.html" target="_top" xlink:title=" ">
<polygon fill="white" stroke="#666666" points="1870,-123.5 1684,-123.5 1684,-82.5 1870,-82.5 1870,-123.5"/>
<text text-anchor="start" x="1692" y="-111.5" font-family="Helvetica,sans-Serif" font-size="10.00">/scratch/dragon/sources</text>
<text text-anchor="start" x="1692" y="-100.5" font-family="Helvetica,sans-Serif" font-size="10.00">/ChimeraTK&#45;ControlSystemAdapter</text>
<text text-anchor="middle" x="1777" y="-89.5" font-family="Helvetica,sans-Serif" font-size="10.00">/src/ControlSystemPVManager.cc</text>
</a>
</g>
</g>
<!-- Node6&#45;&gt;Node9 -->
<g id="edge8_Node000006_Node000009" class="edge">
<title>Node6&#45;&gt;Node9</title>
<g id="a_edge8_Node000006_Node000009"><a xlink:title=" ">
<path fill="none" stroke="#63b8ff" d="M1248.04,-165.57C1249.36,-165.37 1250.69,-165.18 1252,-165 1438.4,-138.78 1488.22,-159.29 1674,-129 1683.26,-127.49 1692.92,-125.59 1702.45,-123.51"/>
<polygon fill="#63b8ff" stroke="#63b8ff" points="1247.12,-162.17 1237.76,-167.14 1248.18,-169.09 1247.12,-162.17"/>
</a>
</g>
</g>
<!-- Node10 -->
<g id="Node000010" class="node">
<title>Node10</title>
<g id="a_Node000010"><a xlink:href="_p_v_manager_8cc.html" target="_top" xlink:title=" ">
<polygon fill="white" stroke="#666666" points="1218,-123.5 1032,-123.5 1032,-82.5 1218,-82.5 1218,-123.5"/>
<text text-anchor="start" x="1040" y="-111.5" font-family="Helvetica,sans-Serif" font-size="10.00">/scratch/dragon/sources</text>
<text text-anchor="start" x="1040" y="-100.5" font-family="Helvetica,sans-Serif" font-size="10.00">/ChimeraTK&#45;ControlSystemAdapter</text>
<text text-anchor="middle" x="1125" y="-89.5" font-family="Helvetica,sans-Serif" font-size="10.00">/src/PVManager.cc</text>
</a>
</g>
</g>
<!-- Node6&#45;&gt;Node10 -->
<g id="edge9_Node000006_Node000010" class="edge">
<title>Node6&#45;&gt;Node10</title>
<g id="a_edge9_Node000006_Node000010"><a xlink:title=" ">
<path fill="none" stroke="#63b8ff" d="M1125,-154.45C1125,-143.94 1125,-132.82 1125,-123.7"/>
<polygon fill="#63b8ff" stroke="#63b8ff" points="1121.5,-154.66 1125,-164.66 1128.5,-154.66 1121.5,-154.66"/>
</a>
</g>
</g>
<!-- Node11 -->
<g id="Node000011" class="node">
<title>Node11</title>
<g id="a_Node000011"><a xlink:href="full_stub_test_8cpp.html" target="_top" xlink:title=" ">
<polygon fill="white" stroke="#666666" points="798,-123.5 612,-123.5 612,-82.5 798,-82.5 798,-123.5"/>
<text text-anchor="start" x="620" y="-111.5" font-family="Helvetica,sans-Serif" font-size="10.00">/scratch/dragon/sources</text>
<text text-anchor="start" x="620" y="-100.5" font-family="Helvetica,sans-Serif" font-size="10.00">/ChimeraTK&#45;ControlSystemAdapter</text>
<text text-anchor="middle" x="705" y="-89.5" font-family="Helvetica,sans-Serif" font-size="10.00">/tests/src/fullStubTest.cpp</text>
</a>
</g>
</g>
<!-- Node6&#45;&gt;Node11 -->
<g id="edge10_Node000006_Node000011" class="edge">
<title>Node6&#45;&gt;Node11</title>
<g id="a_edge10_Node000006_Node000011"><a xlink:title=" ">
<path fill="none" stroke="#63b8ff" d="M1002.36,-167.98C943.18,-156.97 871.25,-143.03 807,-129 799.16,-127.29 791.01,-125.43 782.87,-123.52"/>
<polygon fill="#63b8ff" stroke="#63b8ff" points="1002.03,-171.48 1012.5,-169.86 1003.31,-164.6 1002.03,-171.48"/>
</a>
</g>
</g>
<!-- Node12 -->
<g id="Node000012" class="node">
<title>Node12</title>
<g id="a_Node000012"><a xlink:href="test_p_v_manager_8cpp.html" target="_top" xlink:title=" ">
<polygon fill="white" stroke="#666666" points="1422,-123.5 1236,-123.5 1236,-82.5 1422,-82.5 1422,-123.5"/>
<text text-anchor="start" x="1244" y="-111.5" font-family="Helvetica,sans-Serif" font-size="10.00">/scratch/dragon/sources</text>
<text text-anchor="start" x="1244" y="-100.5" font-family="Helvetica,sans-Serif" font-size="10.00">/ChimeraTK&#45;ControlSystemAdapter</text>
<text text-anchor="middle" x="1329" y="-89.5" font-family="Helvetica,sans-Serif" font-size="10.00">/tests/src/testPVManager.cpp</text>
</a>
</g>
</g>
<!-- Node6&#45;&gt;Node12 -->
<g id="edge11_Node000006_Node000012" class="edge">
<title>Node6&#45;&gt;Node12</title>
<g id="a_edge11_Node000006_Node000012"><a xlink:title=" ">
<path fill="none" stroke="#63b8ff" d="M1193.89,-160.96C1223.13,-148.63 1256.44,-134.59 1282.67,-123.53"/>
<polygon fill="#63b8ff" stroke="#63b8ff" points="1192.41,-157.78 1184.55,-164.89 1195.13,-164.23 1192.41,-157.78"/>
</a>
</g>
</g>
<!-- Node6&#45;&gt;Node13 -->
<g id="edge12_Node000006_Node000013" class="edge">
<title>Node6&#45;&gt;Node13</title>
<g id="a_edge12_Node000006_Node000013"><a xlink:title=" ">
<path fill="none" stroke="#63b8ff" d="M1248.03,-165.52C1249.36,-165.34 1250.68,-165.17 1252,-165 1528.92,-129.96 1602.44,-166.76 1879,-129 1889.63,-127.55 1900.73,-125.64 1911.67,-123.53"/>
<polygon fill="#63b8ff" stroke="#63b8ff" points="1247.15,-162.11 1237.74,-166.97 1248.13,-169.04 1247.15,-162.11"/>
</a>
</g>
</g>
<!-- Node14 -->
<g id="Node000014" class="node">
<title>Node14</title>
<g id="a_Node000014"><a xlink:href="test_reference_test_core_with_tread_8cpp.html" target="_top" xlink:title=" ">
<polygon fill="white" stroke="#666666" points="1013.5,-129 816.5,-129 816.5,-77 1013.5,-77 1013.5,-129"/>
<text text-anchor="start" x="824.5" y="-117" font-family="Helvetica,sans-Serif" font-size="10.00">/scratch/dragon/sources</text>
<text text-anchor="start" x="824.5" y="-106" font-family="Helvetica,sans-Serif" font-size="10.00">/ChimeraTK&#45;ControlSystemAdapter</text>
<text text-anchor="start" x="824.5" y="-95" font-family="Helvetica,sans-Serif" font-size="10.00">/tests/src/testReferenceTestCoreWith</text>
<text text-anchor="middle" x="915" y="-84" font-family="Helvetica,sans-Serif" font-size="10.00">Tread.cpp</text>
</a>
</g>
</g>
<!-- Node6&#45;&gt;Node14 -->
<g id="edge13_Node000006_Node000014" class="edge">
<title>Node6&#45;&gt;Node14</title>
<g id="a_edge13_Node000006_Node000014"><a xlink:title=" ">
<path fill="none" stroke="#63b8ff" d="M1054.18,-161C1028.95,-150.66 1000.76,-139.12 976.38,-129.14"/>
<polygon fill="#63b8ff" stroke="#63b8ff" points="1053.11,-164.34 1063.69,-164.89 1055.77,-157.87 1053.11,-164.34"/>
</a>
</g>
</g>
<!-- Node8 -->
<g id="Node000008" class="node">
<title>Node8</title>
<g id="a_Node000008"><a xlink:href="_control_system_adapter_8h.html" target="_top" xlink:title=" ">
<polygon fill="white" stroke="#666666" points="1669.5,-41 1436.5,-41 1436.5,0 1669.5,0 1669.5,-41"/>
<text text-anchor="start" x="1444.5" y="-29" font-family="Helvetica,sans-Serif" font-size="10.00">/scratch/dragon/sources</text>
<text text-anchor="start" x="1444.5" y="-18" font-family="Helvetica,sans-Serif" font-size="10.00">/ChimeraTK&#45;ControlSystemAdapter</text>
<text text-anchor="middle" x="1553" y="-7" font-family="Helvetica,sans-Serif" font-size="10.00">/include/ChimeraTK/ControlSystemAdapter.h</text>
</a>
</g>
</g>
<!-- Node7&#45;&gt;Node8 -->
<g id="edge7_Node000007_Node000008" class="edge">
<title>Node7&#45;&gt;Node8</title>
<g id="a_edge7_Node000007_Node000008"><a xlink:title=" ">
<path fill="none" stroke="#63b8ff" d="M1553,-66.87C1553,-58.05 1553,-48.9 1553,-41.15"/>
<polygon fill="#63b8ff" stroke="#63b8ff" points="1549.5,-66.97 1553,-76.97 1556.5,-66.97 1549.5,-66.97"/>
</a>
</g>
</g>
<!-- Node16&#45;&gt;Node5 -->
<g id="edge19_Node000016_Node000005" class="edge">
<title>Node16&#45;&gt;Node5</title>
<g id="a_edge19_Node000016_Node000005"><a xlink:title=" ">
<path fill="none" stroke="#63b8ff" d="M636.11,-160.96C606.87,-148.63 573.56,-134.59 547.33,-123.53"/>
<polygon fill="#63b8ff" stroke="#63b8ff" points="634.87,-164.23 645.45,-164.89 637.59,-157.78 634.87,-164.23"/>
</a>
</g>
</g>
<!-- Node16&#45;&gt;Node11 -->
<g id="edge18_Node000016_Node000011" class="edge">
<title>Node16&#45;&gt;Node11</title>
<g id="a_edge18_Node000016_Node000011"><a xlink:title=" ">
<path fill="none" stroke="#63b8ff" d="M705,-154.45C705,-143.94 705,-132.82 705,-123.7"/>
<polygon fill="#63b8ff" stroke="#63b8ff" points="701.5,-154.66 705,-164.66 708.5,-154.66 701.5,-154.66"/>
</a>
</g>
</g>
<!-- Node16&#45;&gt;Node14 -->
<g id="edge20_Node000016_Node000014" class="edge">
<title>Node16&#45;&gt;Node14</title>
<g id="a_edge20_Node000016_Node000014"><a xlink:title=" ">
<path fill="none" stroke="#63b8ff" d="M775.82,-161C801.05,-150.66 829.24,-139.12 853.62,-129.14"/>
<polygon fill="#63b8ff" stroke="#63b8ff" points="774.23,-157.87 766.31,-164.89 776.89,-164.34 774.23,-157.87"/>
</a>
</g>
</g>
</g>
</svg>

<g id="navigator" transform="translate(0 0)" fill="#404254">
  <rect fill="#f2f5e9" fill-opacity="0.5" stroke="#606060" stroke-width=".5" x="0" y="0" width="60" height="60"/>
  <use id="zoomplus" xlink:href="#zoomPlus" x="17" y="9" onmousedown="handleZoom(evt,'in')"/>
  <use id="zoomminus" xlink:href="#zoomMin" x="42" y="9" onmousedown="handleZoom(evt,'out')"/>
  <use id="reset" xlink:href="#resetDef" x="30" y="36" onmousedown="handleReset()"/>
   <use id="arrowup" xlink:href="#arrowUp" x="0" y="0" onmousedown="handlePan(0,-1)"/>
  <use id="arrowright" xlink:href="#arrowRight" x="0" y="0" onmousedown="handlePan(1,0)"/>
  <use id="arrowdown" xlink:href="#arrowDown" x="0" y="0" onmousedown="handlePan(0,1)"/>
  <use id="arrowleft" xlink:href="#arrowLeft" x="0" y="0" onmousedown="handlePan(-1,0)"/>
</g>
<svg viewBox="0 0 15 15" width="100%" height="30px" preserveAspectRatio="xMaxYMin meet">
 <g id="arrow_out" transform="scale(0.3 0.3)">
  <a xlink:href="_application_base_8h__dep__incl_org.svg" target="_base">
   <rect id="button" ry="5" rx="5" y="6" x="6" height="38" width="38"
        fill="#f2f5e9" fill-opacity="0.5" stroke="#606060" stroke-width="1.0"/>
   <path id="arrow"
     d="M 11.500037,31.436501 C 11.940474,20.09759 22.043105,11.32322 32.158766,21.979434 L 37.068811,17.246167 C 37.068811,17.246167 37.088388,32 37.088388,32 L 22.160133,31.978069 C 22.160133,31.978069 26.997745,27.140456 26.997745,27.140456 C 18.528582,18.264221 13.291696,25.230495 11.500037,31.436501 z"
     style="fill:#404040;"/>
  </a>
 </g>
</svg>

<style type='text/css'>
<![CDATA[
[data-mouse-over-selected='false'] { opacity: 0.7; }
[data-mouse-over-selected='true']  { opacity: 1.0; }
]]>
</style>
<script type="application/ecmascript"><![CDATA[
document.addEventListener('DOMContentLoaded', (event) => {
  highlightEdges();
  highlightAdjacentNodes();
});
]]></script>
</svg>
