<?xml version="1.0" encoding="UTF-8" standalone="no"?>
<!DOCTYPE svg PUBLIC "-//W3C//DTD SVG 1.1//EN"
 "http://www.w3.org/Graphics/SVG/1.1/DTD/svg11.dtd">
<!-- Generated by graphviz version 2.43.0 (0)
 -->
<!-- Title: ChimeraTK::history::HistoryEntry&lt; UserType &gt; Pages: 1 -->
<svg width="350pt" height="262pt"
 viewBox="0.00 0.00 349.50 262.00" xmlns="http://www.w3.org/2000/svg" xmlns:xlink="http://www.w3.org/1999/xlink">
<g id="graph0" class="graph" transform="scale(1 1) rotate(0) translate(4 258)">
<title>ChimeraTK::history::HistoryEntry&lt; UserType &gt;</title>
<polygon fill="white" stroke="transparent" points="-4,4 -4,-258 345.5,-258 345.5,4 -4,4"/>
<!-- Node1 -->
<g id="node1" class="node">
<title>Node1</title>
<g id="a_node1"><a xlink:title=" ">
<polygon fill="#bfbfbf" stroke="black" points="72,-0.5 72,-30.5 223,-30.5 223,-0.5 72,-0.5"/>
<text text-anchor="start" x="80" y="-18.5" font-family="Helvetica,sans-Serif" font-size="10.00">ChimeraTK::history</text>
<text text-anchor="middle" x="147.5" y="-7.5" font-family="Helvetica,sans-Serif" font-size="10.00">::HistoryEntry&lt; UserType &gt;</text>
</a>
</g>
</g>
<!-- Node2 -->
<g id="node2" class="node">
<title>Node2</title>
<g id="a_node2"><a xlink:title=" ">
<polygon fill="white" stroke="#bfbfbf" points="0,-78.5 0,-108.5 139,-108.5 139,-78.5 0,-78.5"/>
<text text-anchor="start" x="8" y="-96.5" font-family="Helvetica,sans-Serif" font-size="10.00">std::vector&lt; ArrayOutput</text>
<text text-anchor="middle" x="69.5" y="-85.5" font-family="Helvetica,sans-Serif" font-size="10.00">&lt; UserType &gt; &gt;</text>
</a>
</g>
</g>
<!-- Node2&#45;&gt;Node1 -->
<g id="edge1" class="edge">
<title>Node2&#45;&gt;Node1</title>
<path fill="none" stroke="#9a32cd" stroke-dasharray="5,2" d="M91.53,-71.03C104.77,-58.13 121.26,-42.07 132.89,-30.73"/>
<polygon fill="#9a32cd" stroke="#9a32cd" points="88.89,-68.72 84.17,-78.2 93.78,-73.73 88.89,-68.72"/>
<text text-anchor="middle" x="126" y="-52" font-family="Helvetica,sans-Serif" font-size="10.00"> data</text>
</g>
<!-- Node3 -->
<g id="node3" class="node">
<title>Node3</title>
<g id="a_node3"><a xlink:title="STL class.">
<polygon fill="white" stroke="#bfbfbf" points="100,-167.5 100,-186.5 197,-186.5 197,-167.5 100,-167.5"/>
<text text-anchor="middle" x="148.5" y="-174.5" font-family="Helvetica,sans-Serif" font-size="10.00">std::vector&lt; T &gt;</text>
</a>
</g>
</g>
<!-- Node3&#45;&gt;Node2 -->
<g id="edge2" class="edge">
<title>Node3&#45;&gt;Node2</title>
<path fill="none" stroke="orange" stroke-dasharray="5,2" d="M89.74,-168.79C78.71,-164.7 68.46,-158.45 61.5,-149 52.99,-137.45 57.2,-120.72 62.14,-108.85"/>
<polygon fill="orange" stroke="orange" points="88.99,-172.22 99.58,-171.87 91.08,-165.54 88.99,-172.22"/>
<text text-anchor="middle" x="138" y="-135.5" font-family="Helvetica,sans-Serif" font-size="10.00"> &lt; ArrayOutput&lt; UserType &gt; &gt;</text>
</g>
<!-- Node5 -->
<g id="node5" class="node">
<title>Node5</title>
<g id="a_node5"><a xlink:title=" ">
<polygon fill="white" stroke="#bfbfbf" points="162,-78.5 162,-108.5 301,-108.5 301,-78.5 162,-78.5"/>
<text text-anchor="start" x="170" y="-96.5" font-family="Helvetica,sans-Serif" font-size="10.00">std::vector&lt; ArrayOutput</text>
<text text-anchor="middle" x="231.5" y="-85.5" font-family="Helvetica,sans-Serif" font-size="10.00">&lt; uint64_t &gt; &gt;</text>
</a>
</g>
</g>
<!-- Node3&#45;&gt;Node5 -->
<g id="edge5" class="edge">
<title>Node3&#45;&gt;Node5</title>
<path fill="none" stroke="orange" stroke-dasharray="5,2" d="M194.68,-163.31C202.04,-159.64 209.03,-154.96 214.5,-149 224.69,-137.9 228.77,-120.77 230.41,-108.68"/>
<polygon fill="orange" stroke="orange" points="193,-160.22 185.23,-167.42 195.8,-166.64 193,-160.22"/>
<text text-anchor="start" x="225.5" y="-141" font-family="Helvetica,sans-Serif" font-size="10.00"> &lt; ArrayOutput&lt; uint64</text>
<text text-anchor="middle" x="283.5" y="-130" font-family="Helvetica,sans-Serif" font-size="10.00">_t &gt; &gt;</text>
</g>
<!-- Node4 -->
<g id="node4" class="node">
<title>Node4</title>
<g id="a_node4"><a xlink:title=" ">
<polygon fill="white" stroke="#bfbfbf" points="134,-234.5 134,-253.5 163,-253.5 163,-234.5 134,-234.5"/>
<text text-anchor="middle" x="148.5" y="-241.5" font-family="Helvetica,sans-Serif" font-size="10.00">T</text>
</a>
</g>
</g>
<!-- Node4&#45;&gt;Node3 -->
<g id="edge3" class="edge">
<title>Node4&#45;&gt;Node3</title>
<path fill="none" stroke="#9a32cd" stroke-dasharray="5,2" d="M148.5,-224.04C148.5,-211.67 148.5,-196.12 148.5,-186.63"/>
<polygon fill="#9a32cd" stroke="#9a32cd" points="145,-224.23 148.5,-234.23 152,-224.23 145,-224.23"/>
<text text-anchor="middle" x="173" y="-208" font-family="Helvetica,sans-Serif" font-size="10.00"> elements</text>
</g>
<!-- Node5&#45;&gt;Node1 -->
<g id="edge4" class="edge">
<title>Node5&#45;&gt;Node1</title>
<path fill="none" stroke="#9a32cd" stroke-dasharray="5,2" d="M208.17,-71.39C193.85,-58.43 175.88,-42.18 163.23,-30.73"/>
<polygon fill="#9a32cd" stroke="#9a32cd" points="205.94,-74.09 215.7,-78.2 210.63,-68.9 205.94,-74.09"/>
<text text-anchor="middle" x="223.5" y="-52" font-family="Helvetica,sans-Serif" font-size="10.00"> timeStamp</text>
</g>
</g>
</svg>
