<?xml version="1.0" encoding="UTF-8" standalone="no"?>
<!DOCTYPE svg PUBLIC "-//W3C//DTD SVG 1.1//EN"
 "http://www.w3.org/Graphics/SVG/1.1/DTD/svg11.dtd">
<!-- Generated by graphviz version 2.40.1 (20161225.0304)
 -->
<!-- Title: xml_file_handler::getNodeSet Pages: 1 -->
<!--zoomable 166 -->
<svg id="main" version="1.1" xmlns="http://www.w3.org/2000/svg" xmlns:xlink="http://www.w3.org/1999/xlink" xml:space="preserve" onload="init(evt)">
<style type="text/css"><![CDATA[
.edge:hover path { stroke: red; }
.edge:hover polygon { stroke: red; fill: red; }
]]></style>
<script type="text/javascript"><![CDATA[
var edges = document.getElementsByTagName('g');
if (edges && edges.length) {
  for (var i=0;i<edges.length;i++) {
    if (edges[i].id.substr(0,4)=='edge') {
      edges[i].setAttribute('class','edge');
    }
  }
}
]]></script>
        <defs>
                <circle id="rim" cx="0" cy="0" r="7"/>
                <circle id="rim2" cx="0" cy="0" r="3.5"/>
                <g id="zoomPlus">
                        <use xlink:href="#rim" fill="#404040">
                                <set attributeName="fill" to="#808080" begin="zoomplus.mouseover" end="zoomplus.mouseout"/>
                        </use>
                        <path d="M-4,0h8M0,-4v8" fill="none" stroke="white" stroke-width="1.5" pointer-events="none"/>
                </g>
                <g id="zoomMin">
                        <use xlink:href="#rim" fill="#404040">
                                <set attributeName="fill" to="#808080" begin="zoomminus.mouseover" end="zoomminus.mouseout"/>
                        </use>
                        <path d="M-4,0h8" fill="none" stroke="white" stroke-width="1.5" pointer-events="none"/>
                </g>
                <g id="dirArrow">
                        <path fill="none" stroke="white" stroke-width="1.5" d="M0,-3.0v7 M-2.5,-0.5L0,-3.0L2.5,-0.5"/>
                </g>
               <g id="resetDef">
                       <use xlink:href="#rim2" fill="#404040">
                               <set attributeName="fill" to="#808080" begin="reset.mouseover" end="reset.mouseout"/>
                       </use>
               </g>
        </defs>

<script type="text/javascript">
var viewWidth = 579;
var viewHeight = 166;
var sectionId = 'dynsection-4';
</script>
<script xlink:href="svgpan.js"/>
<svg id="graph" class="graph">
<g id="viewport">
<title>xml_file_handler::getNodeSet</title>
<polygon fill="#ffffff" stroke="transparent" points="-4,4 -4,-161.5 575,-161.5 575,4 -4,4"/>
<!-- Node27 -->
<g id="node1" class="node">
<title>Node27</title>
<polygon fill="#bfbfbf" stroke="#000000" points="0,-72 0,-91 161,-91 161,-72 0,-72"/>
<text text-anchor="middle" x="80.5" y="-79" font-family="Helvetica,sans-Serif" font-size="10.00" fill="#000000">xml_file_handler::getNodeSet</text>
</g>
<!-- Node28 -->
<g id="node2" class="node">
<title>Node28</title>
<g id="a_node2"><a xlink:href="classua__uaadapter.html#a12912b44b243616817f23748788514eb" target="_top" xlink:title="This Methode reads the config&#45;tag form the given &lt;variableMap.xml&gt;. ">
<polygon fill="#ffffff" stroke="#000000" points="217,-138 217,-157 359,-157 359,-138 217,-138"/>
<text text-anchor="middle" x="288" y="-145" font-family="Helvetica,sans-Serif" font-size="10.00" fill="#000000">ua_uaadapter::readConfig</text>
</a>
</g>
</g>
<!-- Node27&#45;&gt;Node28 -->
<g id="edge1" class="edge">
<title>Node27&#45;&gt;Node28</title>
<path fill="none" stroke="#191970" d="M110.4472,-95.2995C133.6704,-105.577 166.8693,-119.3559 197,-128.5 208.8917,-132.1089 221.8625,-135.2658 234.1874,-137.916"/>
<polygon fill="#191970" stroke="#191970" points="111.7003,-92.0258 101.1432,-91.1329 108.8393,-98.4144 111.7003,-92.0258"/>
</g>
<!-- Node30 -->
<g id="node4" class="node">
<title>Node30</title>
<g id="a_node4"><a xlink:href="classua__uaadapter.html#a69c513fe9fcae8c7327e7ad3a1256150" target="_top" xlink:title="This Methode reads the additionaNode&#45;tag from the given &lt;variableMap.xml&gt; ">
<polygon fill="#ffffff" stroke="#000000" points="207.5,-88.5 207.5,-118.5 368.5,-118.5 368.5,-88.5 207.5,-88.5"/>
<text text-anchor="start" x="215.5" y="-106.5" font-family="Helvetica,sans-Serif" font-size="10.00" fill="#000000">ua_uaadapter::readAdditional</text>
<text text-anchor="middle" x="288" y="-95.5" font-family="Helvetica,sans-Serif" font-size="10.00" fill="#000000">Nodes</text>
</a>
</g>
</g>
<!-- Node27&#45;&gt;Node30 -->
<g id="edge3" class="edge">
<title>Node27&#45;&gt;Node30</title>
<path fill="none" stroke="#191970" d="M171.0505,-91.1005C183.0738,-92.3753 195.3375,-93.6755 207.1815,-94.9313"/>
<polygon fill="#191970" stroke="#191970" points="171.3352,-87.6112 161.0219,-90.0373 170.5971,-94.5722 171.3352,-87.6112"/>
</g>
<!-- Node31 -->
<g id="node5" class="node">
<title>Node31</title>
<g id="a_node5"><a xlink:href="classua__uaadapter.html#ab545ab2829045d6f140dd1a6165200ab" target="_top" xlink:title="Check if a folder ath exist in opcua server. ">
<polygon fill="#ffffff" stroke="#000000" points="214.5,-50 214.5,-69 361.5,-69 361.5,-50 214.5,-50"/>
<text text-anchor="middle" x="288" y="-57" font-family="Helvetica,sans-Serif" font-size="10.00" fill="#000000">ua_uaadapter::addVariable</text>
</a>
</g>
</g>
<!-- Node27&#45;&gt;Node31 -->
<g id="edge5" class="edge">
<title>Node27&#45;&gt;Node31</title>
<path fill="none" stroke="#191970" d="M170.9745,-71.9075C185.4519,-70.3726 200.2799,-68.8004 214.3058,-67.3134"/>
<polygon fill="#191970" stroke="#191970" points="170.5971,-68.4278 161.0219,-72.9627 171.3352,-75.3888 170.5971,-68.4278"/>
</g>
<!-- Node33 -->
<g id="node7" class="node">
<title>Node33</title>
<g id="a_node7"><a xlink:href="classua__uaadapter.html#a7a221f466bc35e7a18779d02748dc8ae" target="_top" xlink:title="Methode to get all names from all potential VarableNodes from XML&#45;Mappingfile which could not allocat...">
<polygon fill="#ffffff" stroke="#000000" points="197,-.5 197,-30.5 379,-30.5 379,-.5 197,-.5"/>
<text text-anchor="start" x="205" y="-18.5" font-family="Helvetica,sans-Serif" font-size="10.00" fill="#000000">ua_uaadapter::getAllNotMappable</text>
<text text-anchor="middle" x="288" y="-7.5" font-family="Helvetica,sans-Serif" font-size="10.00" fill="#000000">VariablesNames</text>
</a>
</g>
</g>
<!-- Node27&#45;&gt;Node33 -->
<g id="edge7" class="edge">
<title>Node27&#45;&gt;Node33</title>
<path fill="none" stroke="#191970" d="M115.8982,-68.3141C138.8772,-59.9353 169.5488,-49.0896 197,-40.5 207.7891,-37.1241 219.3731,-33.7518 230.5397,-30.6264"/>
<polygon fill="#191970" stroke="#191970" points="114.4213,-65.1277 106.2375,-71.8564 116.8312,-71.6998 114.4213,-65.1277"/>
</g>
<!-- Node29 -->
<g id="node3" class="node">
<title>Node29</title>
<g id="a_node3"><a xlink:href="classua__uaadapter.html#ac5eed027bfcbb81d06740f8b6aa62f97" target="_top" xlink:title="Constructor of the class. ">
<polygon fill="#ffffff" stroke="#000000" points="415,-105 415,-124 571,-124 571,-105 415,-105"/>
<text text-anchor="middle" x="493" y="-112" font-family="Helvetica,sans-Serif" font-size="10.00" fill="#000000">ua_uaadapter::ua_uaadapter</text>
</a>
</g>
</g>
<!-- Node28&#45;&gt;Node29 -->
<g id="edge2" class="edge">
<title>Node28&#45;&gt;Node29</title>
<path fill="none" stroke="#191970" d="M357.1055,-136.3757C381.9552,-132.3755 409.7449,-127.902 433.6872,-124.0479"/>
<polygon fill="#191970" stroke="#191970" points="356.3361,-132.9544 347.0195,-137.9993 357.4486,-139.8654 356.3361,-132.9544"/>
</g>
<!-- Node30&#45;&gt;Node29 -->
<g id="edge4" class="edge">
<title>Node30&#45;&gt;Node29</title>
<path fill="none" stroke="#191970" d="M378.7341,-108.3687C390.7256,-109.0121 402.9348,-109.6672 414.6934,-110.2982"/>
<polygon fill="#191970" stroke="#191970" points="378.9004,-104.8726 368.7272,-107.8317 378.5252,-111.8626 378.9004,-104.8726"/>
</g>
<!-- Node32 -->
<g id="node6" class="node">
<title>Node32</title>
<g id="a_node6"><a xlink:href="classcsa__opcua__adapter.html#a8a0a7ec49c048811c7f388a5053456f6" target="_top" xlink:title="Constructor for ControlSystemAdapter&#45;OPC&#45;UA&#45;Adapter. ">
<polygon fill="#ffffff" stroke="#000000" points="435,-33.5 435,-63.5 551,-63.5 551,-33.5 435,-33.5"/>
<text text-anchor="start" x="443" y="-51.5" font-family="Helvetica,sans-Serif" font-size="10.00" fill="#000000">csa_opcua_adapter::</text>
<text text-anchor="middle" x="493" y="-40.5" font-family="Helvetica,sans-Serif" font-size="10.00" fill="#000000">csa_opcua_adapter</text>
</a>
</g>
</g>
<!-- Node31&#45;&gt;Node32 -->
<g id="edge6" class="edge">
<title>Node31&#45;&gt;Node32</title>
<path fill="none" stroke="#191970" d="M371.9606,-54.9948C393.0312,-53.8642 415.183,-52.6755 434.6928,-51.6287"/>
<polygon fill="#191970" stroke="#191970" points="371.5181,-51.5134 361.7201,-55.5443 371.8933,-58.5034 371.5181,-51.5134"/>
</g>
<!-- Node33&#45;&gt;Node32 -->
<g id="edge8" class="edge">
<title>Node33&#45;&gt;Node32</title>
<path fill="none" stroke="#191970" d="M389.3485,-31.8146C404.96,-34.3277 420.6071,-36.8465 434.841,-39.1378"/>
<polygon fill="#191970" stroke="#191970" points="389.539,-28.3003 379.1098,-30.1665 388.4264,-35.2114 389.539,-28.3003"/>
</g>
</g>
</svg>
        <g id="navigator" transform="translate(0 0)" fill="#404254">
                <rect fill="#f2f5e9" fill-opacity="0.5" stroke="#606060" stroke-width=".5" x="0" y="0" width="60" height="60"/>
                <use id="zoomplus" xlink:href="#zoomPlus" x="17" y="9" onmousedown="handleZoom(evt,'in')"/>
                <use id="zoomminus" xlink:href="#zoomMin" x="42" y="9" onmousedown="handleZoom(evt,'out')"/>
                <use id="reset" xlink:href="#resetDef" x="30" y="36" onmousedown="handleReset()"/>
                <g id="arrowUp" xlink:href="#dirArrow" transform="translate(30 24)" onmousedown="handlePan(0,-1)">
                  <use xlink:href="#rim" fill="#404040">
                        <set attributeName="fill" to="#808080" begin="arrowUp.mouseover" end="arrowUp.mouseout"/>
                  </use>
                  <path fill="none" stroke="white" stroke-width="1.5" d="M0,-3.0v7 M-2.5,-0.5L0,-3.0L2.5,-0.5"/>
                </g>
                <g id="arrowRight" xlink:href="#dirArrow" transform="rotate(90) translate(36 -43)" onmousedown="handlePan(1,0)">
                  <use xlink:href="#rim" fill="#404040">
                        <set attributeName="fill" to="#808080" begin="arrowRight.mouseover" end="arrowRight.mouseout"/>
                  </use>
                  <path fill="none" stroke="white" stroke-width="1.5" d="M0,-3.0v7 M-2.5,-0.5L0,-3.0L2.5,-0.5"/>
                </g>
                <g id="arrowDown" xlink:href="#dirArrow" transform="rotate(180) translate(-30 -48)" onmousedown="handlePan(0,1)">
                  <use xlink:href="#rim" fill="#404040">
                        <set attributeName="fill" to="#808080" begin="arrowDown.mouseover" end="arrowDown.mouseout"/>
                  </use>
                  <path fill="none" stroke="white" stroke-width="1.5" d="M0,-3.0v7 M-2.5,-0.5L0,-3.0L2.5,-0.5"/>
                </g>
                <g id="arrowLeft" xlink:href="#dirArrow" transform="rotate(270) translate(-36 17)" onmousedown="handlePan(-1,0)">
                  <use xlink:href="#rim" fill="#404040">
                        <set attributeName="fill" to="#808080" begin="arrowLeft.mouseover" end="arrowLeft.mouseout"/>
                  </use>
                  <path fill="none" stroke="white" stroke-width="1.5" d="M0,-3.0v7 M-2.5,-0.5L0,-3.0L2.5,-0.5"/>
                </g>
        </g>
        <svg viewBox="0 0 15 15" width="100%" height="30px" preserveAspectRatio="xMaxYMin meet">
         <g id="arrow_out" transform="scale(0.3 0.3)">
          <a xlink:href="classxml__file__handler_a98a59be29cc38545db6c65fd8094a31f_icgraph_org.svg" target="_base">
           <rect id="button" ry="5" rx="5" y="6" x="6" height="38" width="38"
                fill="#f2f5e9" fill-opacity="0.5" stroke="#606060" stroke-width="1.0"/>
           <path id="arrow"
             d="M 11.500037,31.436501 C 11.940474,20.09759 22.043105,11.32322 32.158766,21.979434 L 37.068811,17.246167 C 37.068811,17.246167 37.088388,32 37.088388,32 L 22.160133,31.978069 C 22.160133,31.978069 26.997745,27.140456 26.997745,27.140456 C 18.528582,18.264221 13.291696,25.230495 11.500037,31.436501 z"
             style="fill:#404040;"/>
          </a>
         </g>
        </svg>
</svg>
