<?xml version="1.0" encoding="UTF-8" standalone="no"?>
<!DOCTYPE svg PUBLIC "-//W3C//DTD SVG 1.1//EN"
 "http://www.w3.org/Graphics/SVG/1.1/DTD/svg11.dtd">
<!-- Generated by graphviz version 2.40.1 (20161225.0304)
 -->
<!-- Title: csa_opcua_adapter::stop Pages: 1 -->
<svg width="453pt" height="39pt"
 viewBox="0.00 0.00 453.00 39.00" xmlns="http://www.w3.org/2000/svg" xmlns:xlink="http://www.w3.org/1999/xlink">
<g id="graph0" class="graph" transform="scale(1 1) rotate(0) translate(4 35)">
<title>csa_opcua_adapter::stop</title>
<polygon fill="#ffffff" stroke="transparent" points="-4,4 -4,-35 449,-35 449,4 -4,4"/>
<!-- Node55 -->
<g id="node1" class="node">
<title>Node55</title>
<polygon fill="#bfbfbf" stroke="#000000" points="0,-6 0,-25 137,-25 137,-6 0,-6"/>
<text text-anchor="middle" x="68.5" y="-13" font-family="Helvetica,sans-Serif" font-size="10.00" fill="#000000">csa_opcua_adapter::stop</text>
</g>
<!-- Node56 -->
<g id="node2" class="node">
<title>Node56</title>
<g id="a_node2"><a xlink:href="classipc__manager.html#a7c2510a519ad6365e896032cc9851141" target="_top" xlink:title="Stop all thread of assigned objects. ">
<polygon fill="#ffffff" stroke="#000000" points="173,-6 173,-25 292,-25 292,-6 173,-6"/>
<text text-anchor="middle" x="232.5" y="-13" font-family="Helvetica,sans-Serif" font-size="10.00" fill="#000000">ipc_manager::stopAll</text>
</a>
</g>
</g>
<!-- Node55&#45;&gt;Node56 -->
<g id="edge1" class="edge">
<title>Node55&#45;&gt;Node56</title>
<path fill="none" stroke="#191970" d="M137.1005,-15.5C145.5248,-15.5 154.1429,-15.5 162.5863,-15.5"/>
<polygon fill="#191970" stroke="#191970" points="162.7739,-19.0001 172.7739,-15.5 162.7739,-12.0001 162.7739,-19.0001"/>
</g>
<!-- Node57 -->
<g id="node3" class="node">
<title>Node57</title>
<g id="a_node3"><a xlink:href="classipc__managed__object.html#a0ac7a6b14a8b031dd618a656378f756e" target="_top" xlink:title="Stop the thread. ">
<polygon fill="#ffffff" stroke="#000000" points="328,-.5 328,-30.5 445,-30.5 445,-.5 328,-.5"/>
<text text-anchor="start" x="336" y="-18.5" font-family="Helvetica,sans-Serif" font-size="10.00" fill="#000000">ipc_managed_object</text>
<text text-anchor="middle" x="386.5" y="-7.5" font-family="Helvetica,sans-Serif" font-size="10.00" fill="#000000">::doStop</text>
</a>
</g>
</g>
<!-- Node56&#45;&gt;Node57 -->
<g id="edge2" class="edge">
<title>Node56&#45;&gt;Node57</title>
<path fill="none" stroke="#191970" d="M292.0404,-15.5C300.4965,-15.5 309.2491,-15.5 317.8605,-15.5"/>
<polygon fill="#191970" stroke="#191970" points="317.8786,-19.0001 327.8785,-15.5 317.8785,-12.0001 317.8786,-19.0001"/>
</g>
</g>
</svg>
