<?xml version="1.0" encoding="UTF-8" standalone="no"?>
<!DOCTYPE svg PUBLIC "-//W3C//DTD SVG 1.1//EN"
 "http://www.w3.org/Graphics/SVG/1.1/DTD/svg11.dtd">
<!-- Generated by graphviz version 2.40.1 (20161225.0304)
 -->
<!-- Title: src/ipc_managed_object.cpp Pages: 1 -->
<svg width="320pt" height="140pt"
 viewBox="0.00 0.00 319.50 140.00" xmlns="http://www.w3.org/2000/svg" xmlns:xlink="http://www.w3.org/1999/xlink">
<g id="graph0" class="graph" transform="scale(1 1) rotate(0) translate(4 136)">
<title>src/ipc_managed_object.cpp</title>
<polygon fill="#ffffff" stroke="transparent" points="-4,4 -4,-136 315.5,-136 315.5,4 -4,4"/>
<!-- Node0 -->
<g id="node1" class="node">
<title>Node0</title>
<polygon fill="#bfbfbf" stroke="#000000" points="156.5,-112.5 156.5,-131.5 311.5,-131.5 311.5,-112.5 156.5,-112.5"/>
<text text-anchor="middle" x="234" y="-119.5" font-family="Helvetica,sans-Serif" font-size="10.00" fill="#000000">src/ipc_managed_object.cpp</text>
</g>
<!-- Node1 -->
<g id="node2" class="node">
<title>Node1</title>
<g id="a_node2"><a xlink:href="ipc__managed__object_8h.html" target="_top" xlink:title="ipc_managed_object.h">
<polygon fill="#ffffff" stroke="#000000" points="80,-56.5 80,-75.5 206,-75.5 206,-56.5 80,-56.5"/>
<text text-anchor="middle" x="143" y="-63.5" font-family="Helvetica,sans-Serif" font-size="10.00" fill="#000000">ipc_managed_object.h</text>
</a>
</g>
</g>
<!-- Node0&#45;&gt;Node1 -->
<g id="edge1" class="edge">
<title>Node0&#45;&gt;Node1</title>
<path fill="none" stroke="#191970" d="M218.149,-112.2455C204.1868,-103.6534 183.6272,-91.0014 167.5404,-81.1018"/>
<polygon fill="#191970" stroke="#191970" points="169.0203,-77.9029 158.6693,-75.6427 165.3516,-83.8645 169.0203,-77.9029"/>
</g>
<!-- Node4 -->
<g id="node5" class="node">
<title>Node4</title>
<polygon fill="#ffffff" stroke="#bfbfbf" points="204,-.5 204,-19.5 264,-19.5 264,-.5 204,-.5"/>
<text text-anchor="middle" x="234" y="-7.5" font-family="Helvetica,sans-Serif" font-size="10.00" fill="#000000">iostream</text>
</g>
<!-- Node0&#45;&gt;Node4 -->
<g id="edge6" class="edge">
<title>Node0&#45;&gt;Node4</title>
<path fill="none" stroke="#191970" d="M234,-112.4509C234,-94.184 234,-53.9553 234,-29.6976"/>
<polygon fill="#191970" stroke="#191970" points="237.5001,-29.5249 234,-19.5249 230.5001,-29.5249 237.5001,-29.5249"/>
</g>
<!-- Node6 -->
<g id="node7" class="node">
<title>Node6</title>
<polygon fill="#ffffff" stroke="#bfbfbf" points="262,-56.5 262,-75.5 310,-75.5 310,-56.5 262,-56.5"/>
<text text-anchor="middle" x="286" y="-63.5" font-family="Helvetica,sans-Serif" font-size="10.00" fill="#000000">time.h</text>
</g>
<!-- Node0&#45;&gt;Node6 -->
<g id="edge7" class="edge">
<title>Node0&#45;&gt;Node6</title>
<path fill="none" stroke="#191970" d="M243.0577,-112.2455C250.5142,-104.2155 261.2634,-92.6394 270.1417,-83.0781"/>
<polygon fill="#191970" stroke="#191970" points="272.8063,-85.3522 277.0461,-75.6427 267.6768,-80.589 272.8063,-85.3522"/>
</g>
<!-- Node2 -->
<g id="node3" class="node">
<title>Node2</title>
<polygon fill="#ffffff" stroke="#bfbfbf" points="0,-.5 0,-19.5 48,-19.5 48,-.5 0,-.5"/>
<text text-anchor="middle" x="24" y="-7.5" font-family="Helvetica,sans-Serif" font-size="10.00" fill="#000000">thread</text>
</g>
<!-- Node1&#45;&gt;Node2 -->
<g id="edge2" class="edge">
<title>Node1&#45;&gt;Node2</title>
<path fill="none" stroke="#191970" d="M122.5432,-56.3733C103.5262,-47.4241 74.9825,-33.9917 53.5024,-23.8835"/>
<polygon fill="#191970" stroke="#191970" points="54.7284,-20.5923 44.1899,-19.5011 51.7478,-26.926 54.7284,-20.5923"/>
</g>
<!-- Node3 -->
<g id="node4" class="node">
<title>Node3</title>
<polygon fill="#ffffff" stroke="#bfbfbf" points="66,-.5 66,-19.5 114,-19.5 114,-.5 66,-.5"/>
<text text-anchor="middle" x="90" y="-7.5" font-family="Helvetica,sans-Serif" font-size="10.00" fill="#000000">mutex</text>
</g>
<!-- Node1&#45;&gt;Node3 -->
<g id="edge3" class="edge">
<title>Node1&#45;&gt;Node3</title>
<path fill="none" stroke="#191970" d="M133.7681,-56.2455C126.1683,-48.2155 115.2123,-36.6394 106.1632,-27.0781"/>
<polygon fill="#191970" stroke="#191970" points="108.542,-24.4998 99.1261,-19.6427 103.4579,-29.3115 108.542,-24.4998"/>
</g>
<!-- Node1&#45;&gt;Node4 -->
<g id="edge4" class="edge">
<title>Node1&#45;&gt;Node4</title>
<path fill="none" stroke="#191970" d="M158.851,-56.2455C172.8132,-47.6534 193.3728,-35.0014 209.4596,-25.1018"/>
<polygon fill="#191970" stroke="#191970" points="211.6484,-27.8645 218.3307,-19.6427 207.9797,-21.9029 211.6484,-27.8645"/>
</g>
<!-- Node5 -->
<g id="node6" class="node">
<title>Node5</title>
<polygon fill="#ffffff" stroke="#bfbfbf" points="132.5,-.5 132.5,-19.5 185.5,-19.5 185.5,-.5 132.5,-.5"/>
<text text-anchor="middle" x="159" y="-7.5" font-family="Helvetica,sans-Serif" font-size="10.00" fill="#000000">stdint.h</text>
</g>
<!-- Node1&#45;&gt;Node5 -->
<g id="edge5" class="edge">
<title>Node1&#45;&gt;Node5</title>
<path fill="none" stroke="#191970" d="M145.787,-56.2455C147.8977,-48.8579 150.866,-38.4689 153.4547,-29.4087"/>
<polygon fill="#191970" stroke="#191970" points="156.863,-30.2195 156.245,-19.6427 150.1323,-28.2964 156.863,-30.2195"/>
</g>
</g>
</svg>
