<?xml version="1.0" encoding="UTF-8" standalone="no"?>
<!DOCTYPE svg PUBLIC "-//W3C//DTD SVG 1.1//EN"
 "http://www.w3.org/Graphics/SVG/1.1/DTD/svg11.dtd">
<!-- Generated by graphviz version 2.40.1 (20161225.0304)
 -->
<!-- Title: UA_DateTime_toString Pages: 1 -->
<svg width="617pt" height="39pt"
 viewBox="0.00 0.00 617.00 39.00" xmlns="http://www.w3.org/2000/svg" xmlns:xlink="http://www.w3.org/1999/xlink">
<g id="graph0" class="graph" transform="scale(1 1) rotate(0) translate(4 35)">
<title>UA_DateTime_toString</title>
<polygon fill="#ffffff" stroke="transparent" points="-4,4 -4,-35 613,-35 613,4 -4,4"/>
<!-- Node89 -->
<g id="node1" class="node">
<title>Node89</title>
<polygon fill="#bfbfbf" stroke="#000000" points="0,-6 0,-25 128,-25 128,-6 0,-6"/>
<text text-anchor="middle" x="64" y="-13" font-family="Helvetica,sans-Serif" font-size="10.00" fill="#000000">UA_DateTime_toString</text>
</g>
<!-- Node90 -->
<g id="node2" class="node">
<title>Node90</title>
<g id="a_node2"><a xlink:href="open62541_8c.html#a8b885aef90ede903eceb62e15c8566a6" target="_top" xlink:title="UA_Log_Stdout">
<polygon fill="#ffffff" stroke="#000000" points="164,-6 164,-25 254,-25 254,-6 164,-6"/>
<text text-anchor="middle" x="209" y="-13" font-family="Helvetica,sans-Serif" font-size="10.00" fill="#000000">UA_Log_Stdout</text>
</a>
</g>
</g>
<!-- Node89&#45;&gt;Node90 -->
<g id="edge1" class="edge">
<title>Node89&#45;&gt;Node90</title>
<path fill="none" stroke="#191970" d="M138.1798,-15.5C146.8462,-15.5 155.4806,-15.5 163.5872,-15.5"/>
<polygon fill="#191970" stroke="#191970" points="138.0212,-12.0001 128.0212,-15.5 138.0212,-19.0001 138.0212,-12.0001"/>
</g>
<!-- Node91 -->
<g id="node3" class="node">
<title>Node91</title>
<g id="a_node3"><a xlink:href="classua__uaadapter.html#a850d40c9b65e5140e5f72678f0b18e28" target="_top" xlink:title="Destrructor of the class. ">
<polygon fill="#ffffff" stroke="#000000" points="290,-6 290,-25 454,-25 454,-6 290,-6"/>
<text text-anchor="middle" x="372" y="-13" font-family="Helvetica,sans-Serif" font-size="10.00" fill="#000000">ua_uaadapter::~ua_uaadapter</text>
</a>
</g>
</g>
<!-- Node90&#45;&gt;Node91 -->
<g id="edge2" class="edge">
<title>Node90&#45;&gt;Node91</title>
<path fill="none" stroke="#191970" d="M264.4841,-15.5C272.6273,-15.5 281.1577,-15.5 289.6998,-15.5"/>
<polygon fill="#191970" stroke="#191970" points="264.4046,-12.0001 254.4046,-15.5 264.4046,-19.0001 264.4046,-12.0001"/>
</g>
<!-- Node92 -->
<g id="node4" class="node">
<title>Node92</title>
<g id="a_node4"><a xlink:href="classcsa__opcua__adapter.html#ae134ec0a29d6ea00bc0119954769e8ab" target="_top" xlink:title="Destructor to stop the running thread, hence it stops the OPC UA server. ">
<polygon fill="#ffffff" stroke="#000000" points="490,-.5 490,-30.5 609,-30.5 609,-.5 490,-.5"/>
<text text-anchor="start" x="498" y="-18.5" font-family="Helvetica,sans-Serif" font-size="10.00" fill="#000000">csa_opcua_adapter::</text>
<text text-anchor="middle" x="549.5" y="-7.5" font-family="Helvetica,sans-Serif" font-size="10.00" fill="#000000">~csa_opcua_adapter</text>
</a>
</g>
</g>
<!-- Node91&#45;&gt;Node92 -->
<g id="edge3" class="edge">
<title>Node91&#45;&gt;Node92</title>
<path fill="none" stroke="#191970" d="M464.3731,-15.5C472.991,-15.5 481.5633,-15.5 489.7642,-15.5"/>
<polygon fill="#191970" stroke="#191970" points="464.255,-12.0001 454.2549,-15.5 464.2549,-19.0001 464.255,-12.0001"/>
</g>
</g>
</svg>
