<?xml version="1.0" encoding="UTF-8" standalone="no"?>
<!DOCTYPE svg PUBLIC "-//W3C//DTD SVG 1.1//EN"
 "http://www.w3.org/Graphics/SVG/1.1/DTD/svg11.dtd">
<!-- Generated by graphviz version 2.40.1 (20161225.0304)
 -->
<!-- Title: UA_Server_run Pages: 1 -->
<svg width="470pt" height="104pt"
 viewBox="0.00 0.00 470.00 104.00" xmlns="http://www.w3.org/2000/svg" xmlns:xlink="http://www.w3.org/1999/xlink">
<g id="graph0" class="graph" transform="scale(1 1) rotate(0) translate(4 100)">
<title>UA_Server_run</title>
<polygon fill="#ffffff" stroke="transparent" points="-4,4 -4,-100 466,-100 466,4 -4,4"/>
<!-- Node774 -->
<g id="node1" class="node">
<title>Node774</title>
<polygon fill="#bfbfbf" stroke="#000000" points="0,-38.5 0,-57.5 89,-57.5 89,-38.5 0,-38.5"/>
<text text-anchor="middle" x="44.5" y="-45.5" font-family="Helvetica,sans-Serif" font-size="10.00" fill="#000000">UA_Server_run</text>
</g>
<!-- Node775 -->
<g id="node2" class="node">
<title>Node775</title>
<g id="a_node2"><a xlink:href="open62541_8c.html#a767faf174cf7aa918272dc6f38f4e25f" target="_top" xlink:title="UA_Server_run_startup">
<polygon fill="#ffffff" stroke="#000000" points="131.5,-76.5 131.5,-95.5 259.5,-95.5 259.5,-76.5 131.5,-76.5"/>
<text text-anchor="middle" x="195.5" y="-83.5" font-family="Helvetica,sans-Serif" font-size="10.00" fill="#000000">UA_Server_run_startup</text>
</a>
</g>
</g>
<!-- Node774&#45;&gt;Node775 -->
<g id="edge1" class="edge">
<title>Node774&#45;&gt;Node775</title>
<path fill="none" stroke="#191970" d="M82.6037,-57.589C102.44,-62.5809 126.8839,-68.7324 147.9483,-74.0334"/>
<polygon fill="#191970" stroke="#191970" points="147.1185,-77.4336 157.6703,-76.4799 148.8269,-70.6452 147.1185,-77.4336"/>
</g>
<!-- Node776 -->
<g id="node3" class="node">
<title>Node776</title>
<g id="a_node3"><a xlink:href="open62541_8c.html#a62fd8109b0c25ba3554cdef16a2bc252" target="_top" xlink:title="UA_Server_run_iterate">
<polygon fill="#ffffff" stroke="#000000" points="132.5,-38.5 132.5,-57.5 258.5,-57.5 258.5,-38.5 132.5,-38.5"/>
<text text-anchor="middle" x="195.5" y="-45.5" font-family="Helvetica,sans-Serif" font-size="10.00" fill="#000000">UA_Server_run_iterate</text>
</a>
</g>
</g>
<!-- Node774&#45;&gt;Node776 -->
<g id="edge2" class="edge">
<title>Node774&#45;&gt;Node776</title>
<path fill="none" stroke="#191970" d="M89.3961,-48C99.7129,-48 110.9473,-48 122.1198,-48"/>
<polygon fill="#191970" stroke="#191970" points="122.3348,-51.5001 132.3348,-48 122.3347,-44.5001 122.3348,-51.5001"/>
</g>
<!-- Node778 -->
<g id="node5" class="node">
<title>Node778</title>
<g id="a_node5"><a xlink:href="open62541_8c.html#a7a30d86f92ca61213a24d9c43dbae826" target="_top" xlink:title="UA_Server_run_shutdown">
<polygon fill="#ffffff" stroke="#000000" points="125,-.5 125,-19.5 266,-19.5 266,-.5 125,-.5"/>
<text text-anchor="middle" x="195.5" y="-7.5" font-family="Helvetica,sans-Serif" font-size="10.00" fill="#000000">UA_Server_run_shutdown</text>
</a>
</g>
</g>
<!-- Node774&#45;&gt;Node778 -->
<g id="edge4" class="edge">
<title>Node774&#45;&gt;Node778</title>
<path fill="none" stroke="#191970" d="M82.6037,-38.411C102.44,-33.4191 126.8839,-27.2676 147.9483,-21.9666"/>
<polygon fill="#191970" stroke="#191970" points="148.8269,-25.3548 157.6703,-19.5201 147.1185,-18.5664 148.8269,-25.3548"/>
</g>
<!-- Node777 -->
<g id="node4" class="node">
<title>Node777</title>
<g id="a_node4"><a xlink:href="open62541_8c.html#add827094c515e557adfe2a50fd7ddafc" target="_top" xlink:title="UA_DateTime_nowMonotonic">
<polygon fill="#ffffff" stroke="#000000" points="302,-38.5 302,-57.5 462,-57.5 462,-38.5 302,-38.5"/>
<text text-anchor="middle" x="382" y="-45.5" font-family="Helvetica,sans-Serif" font-size="10.00" fill="#000000">UA_DateTime_nowMonotonic</text>
</a>
</g>
</g>
<!-- Node776&#45;&gt;Node777 -->
<g id="edge3" class="edge">
<title>Node776&#45;&gt;Node777</title>
<path fill="none" stroke="#191970" d="M258.6404,-48C269.2392,-48 280.4193,-48 291.5463,-48"/>
<polygon fill="#191970" stroke="#191970" points="291.7318,-51.5001 301.7318,-48 291.7317,-44.5001 291.7318,-51.5001"/>
</g>
</g>
</svg>
