<?xml version="1.0" encoding="UTF-8" standalone="no"?>
<!DOCTYPE svg PUBLIC "-//W3C//DTD SVG 1.1//EN"
 "http://www.w3.org/Graphics/SVG/1.1/DTD/svg11.dtd">
<!-- Generated by graphviz version 2.40.1 (20161225.0304)
 -->
<!-- Title: UA_Server_run Pages: 1 -->
<svg width="450pt" height="186pt"
 viewBox="0.00 0.00 450.00 186.00" xmlns="http://www.w3.org/2000/svg" xmlns:xlink="http://www.w3.org/1999/xlink">
<g id="graph0" class="graph" transform="scale(1 1) rotate(0) translate(4 182)">
<title>UA_Server_run</title>
<polygon fill="#ffffff" stroke="transparent" points="-4,4 -4,-182 446,-182 446,4 -4,4"/>
<!-- Node777 -->
<g id="node1" class="node">
<title>Node777</title>
<polygon fill="#bfbfbf" stroke="#000000" points="0,-79 0,-98 89,-98 89,-79 0,-79"/>
<text text-anchor="middle" x="44.5" y="-86" font-family="Helvetica,sans-Serif" font-size="10.00" fill="#000000">UA_Server_run</text>
</g>
<!-- Node778 -->
<g id="node2" class="node">
<title>Node778</title>
<g id="a_node2"><a xlink:href="class_additional_variable_test.html#ae9b9b518a88c2f58ebe71903aada67d0" target="_top" xlink:title="AdditionalVariableTest\l::testClassSide">
<polygon fill="#ffffff" stroke="#000000" points="125,-147.5 125,-177.5 250,-177.5 250,-147.5 125,-147.5"/>
<text text-anchor="start" x="133" y="-165.5" font-family="Helvetica,sans-Serif" font-size="10.00" fill="#000000">AdditionalVariableTest</text>
<text text-anchor="middle" x="187.5" y="-154.5" font-family="Helvetica,sans-Serif" font-size="10.00" fill="#000000">::testClassSide</text>
</a>
</g>
</g>
<!-- Node777&#45;&gt;Node778 -->
<g id="edge1" class="edge">
<title>Node777&#45;&gt;Node778</title>
<path fill="none" stroke="#191970" d="M66.8215,-103.9612C82.6225,-114.5032 104.5556,-128.3398 125,-138.5 131.3493,-141.6554 138.2214,-144.6697 145.0066,-147.4311"/>
<polygon fill="#191970" stroke="#191970" points="68.5287,-100.8905 58.2844,-98.1876 64.6072,-106.6889 68.5287,-100.8905"/>
</g>
<!-- Node780 -->
<g id="node4" class="node">
<title>Node780</title>
<g id="a_node4"><a xlink:href="class_additional_variable_test.html#a70c7e4fdbf3343583e8aca96e791dfd3" target="_top" xlink:title="AdditionalVariableTest\l::testClientSide">
<polygon fill="#ffffff" stroke="#000000" points="125,-98.5 125,-128.5 250,-128.5 250,-98.5 125,-98.5"/>
<text text-anchor="start" x="133" y="-116.5" font-family="Helvetica,sans-Serif" font-size="10.00" fill="#000000">AdditionalVariableTest</text>
<text text-anchor="middle" x="187.5" y="-105.5" font-family="Helvetica,sans-Serif" font-size="10.00" fill="#000000">::testClientSide</text>
</a>
</g>
</g>
<!-- Node777&#45;&gt;Node780 -->
<g id="edge3" class="edge">
<title>Node777&#45;&gt;Node780</title>
<path fill="none" stroke="#191970" d="M99.3825,-98.0948C107.7626,-99.5599 116.4652,-101.0813 124.9943,-102.5724"/>
<polygon fill="#191970" stroke="#191970" points="99.8071,-94.6161 89.3537,-96.3416 98.6016,-101.5115 99.8071,-94.6161"/>
</g>
<!-- Node781 -->
<g id="node5" class="node">
<title>Node781</title>
<g id="a_node5"><a xlink:href="class_process_variable_test.html#a8b9b506a2279badd235a0a408b3ebf5b" target="_top" xlink:title="ProcessVariableTest\l::testClassSide">
<polygon fill="#ffffff" stroke="#000000" points="131,-49.5 131,-79.5 244,-79.5 244,-49.5 131,-49.5"/>
<text text-anchor="start" x="139" y="-67.5" font-family="Helvetica,sans-Serif" font-size="10.00" fill="#000000">ProcessVariableTest</text>
<text text-anchor="middle" x="187.5" y="-56.5" font-family="Helvetica,sans-Serif" font-size="10.00" fill="#000000">::testClassSide</text>
</a>
</g>
</g>
<!-- Node777&#45;&gt;Node781 -->
<g id="edge5" class="edge">
<title>Node777&#45;&gt;Node781</title>
<path fill="none" stroke="#191970" d="M99.4746,-79.2735C109.7915,-77.542 120.5941,-75.729 130.9577,-73.9896"/>
<polygon fill="#191970" stroke="#191970" points="98.6365,-75.8651 89.3537,-80.9721 99.7952,-82.7686 98.6365,-75.8651"/>
</g>
<!-- Node783 -->
<g id="node7" class="node">
<title>Node783</title>
<g id="a_node7"><a xlink:href="class_process_variable_test.html#a5b440ae8bb702c5791ee5fa358b58c10" target="_top" xlink:title="ProcessVariableTest\l::testClientSide">
<polygon fill="#ffffff" stroke="#000000" points="131,-.5 131,-30.5 244,-30.5 244,-.5 131,-.5"/>
<text text-anchor="start" x="139" y="-18.5" font-family="Helvetica,sans-Serif" font-size="10.00" fill="#000000">ProcessVariableTest</text>
<text text-anchor="middle" x="187.5" y="-7.5" font-family="Helvetica,sans-Serif" font-size="10.00" fill="#000000">::testClientSide</text>
</a>
</g>
</g>
<!-- Node777&#45;&gt;Node783 -->
<g id="edge7" class="edge">
<title>Node777&#45;&gt;Node783</title>
<path fill="none" stroke="#191970" d="M67.5251,-73.4511C83.3371,-63.4485 105.0025,-50.3851 125,-40.5 132.0192,-37.0303 139.6454,-33.6643 147.08,-30.5855"/>
<polygon fill="#191970" stroke="#191970" points="65.4849,-70.6014 58.9485,-78.9397 69.2581,-76.4975 65.4849,-70.6014"/>
</g>
<!-- Node779 -->
<g id="node3" class="node">
<title>Node779</title>
<g id="a_node3"><a xlink:href="class_additional_variable_test_suite.html#abcb663647a509df35647ca2bef14d6f9" target="_top" xlink:title="AdditionalVariableTestSuite\l::AdditionalVariableTestSuite">
<polygon fill="#ffffff" stroke="#000000" points="286,-110.5 286,-140.5 442,-140.5 442,-110.5 286,-110.5"/>
<text text-anchor="start" x="294" y="-128.5" font-family="Helvetica,sans-Serif" font-size="10.00" fill="#000000">AdditionalVariableTestSuite</text>
<text text-anchor="middle" x="364" y="-117.5" font-family="Helvetica,sans-Serif" font-size="10.00" fill="#000000">::AdditionalVariableTestSuite</text>
</a>
</g>
</g>
<!-- Node778&#45;&gt;Node779 -->
<g id="edge2" class="edge">
<title>Node778&#45;&gt;Node779</title>
<path fill="none" stroke="#191970" d="M260.2216,-147.2552C270.7681,-145.0444 281.62,-142.7695 292.1491,-140.5622"/>
<polygon fill="#191970" stroke="#191970" points="259.2934,-143.8737 250.2243,-149.351 260.7297,-150.7247 259.2934,-143.8737"/>
</g>
<!-- Node780&#45;&gt;Node779 -->
<g id="edge4" class="edge">
<title>Node780&#45;&gt;Node779</title>
<path fill="none" stroke="#191970" d="M260.3288,-118.4515C268.7079,-119.0212 277.2784,-119.6039 285.7254,-120.1782"/>
<polygon fill="#191970" stroke="#191970" points="260.4387,-114.951 250.2243,-117.7645 259.9638,-121.9349 260.4387,-114.951"/>
</g>
<!-- Node782 -->
<g id="node6" class="node">
<title>Node782</title>
<g id="a_node6"><a xlink:href="class_process_variable_test_suite.html#aca62d667c290896f19df4b0e9caf7c5c" target="_top" xlink:title="ProcessVariableTestSuite\l::ProcessVariableTestSuite">
<polygon fill="#ffffff" stroke="#000000" points="292,-37.5 292,-67.5 436,-67.5 436,-37.5 292,-37.5"/>
<text text-anchor="start" x="300" y="-55.5" font-family="Helvetica,sans-Serif" font-size="10.00" fill="#000000">ProcessVariableTestSuite</text>
<text text-anchor="middle" x="364" y="-44.5" font-family="Helvetica,sans-Serif" font-size="10.00" fill="#000000">::ProcessVariableTestSuite</text>
</a>
</g>
</g>
<!-- Node781&#45;&gt;Node782 -->
<g id="edge6" class="edge">
<title>Node781&#45;&gt;Node782</title>
<path fill="none" stroke="#191970" d="M254.4182,-59.9503C266.6319,-59.1199 279.4256,-58.2501 291.785,-57.4098"/>
<polygon fill="#191970" stroke="#191970" points="254.0568,-56.4667 244.3172,-60.6371 254.5317,-63.4506 254.0568,-56.4667"/>
</g>
<!-- Node783&#45;&gt;Node782 -->
<g id="edge8" class="edge">
<title>Node783&#45;&gt;Node782</title>
<path fill="none" stroke="#191970" d="M254.1837,-29.479C266.6765,-32.0979 279.7834,-34.8455 292.4174,-37.494"/>
<polygon fill="#191970" stroke="#191970" points="254.8226,-26.037 244.3172,-27.4107 253.3864,-32.888 254.8226,-26.037"/>
</g>
</g>
</svg>
