<?xml version="1.0" encoding="UTF-8" standalone="no"?>
<!DOCTYPE svg PUBLIC "-//W3C//DTD SVG 1.1//EN"
 "http://www.w3.org/Graphics/SVG/1.1/DTD/svg11.dtd">
<!-- Generated by graphviz version 2.40.1 (20161225.0304)
 -->
<!-- Title: UA_Variant_setArrayCopy Pages: 1 -->
<!--zoomable 529 -->
<svg id="main" version="1.1" xmlns="http://www.w3.org/2000/svg" xmlns:xlink="http://www.w3.org/1999/xlink" xml:space="preserve" onload="init(evt)">
<style type="text/css"><![CDATA[
.edge:hover path { stroke: red; }
.edge:hover polygon { stroke: red; fill: red; }
]]></style>
<script type="text/javascript"><![CDATA[
var edges = document.getElementsByTagName('g');
if (edges && edges.length) {
  for (var i=0;i<edges.length;i++) {
    if (edges[i].id.substr(0,4)=='edge') {
      edges[i].setAttribute('class','edge');
    }
  }
}
]]></script>
        <defs>
                <circle id="rim" cx="0" cy="0" r="7"/>
                <circle id="rim2" cx="0" cy="0" r="3.5"/>
                <g id="zoomPlus">
                        <use xlink:href="#rim" fill="#404040">
                                <set attributeName="fill" to="#808080" begin="zoomplus.mouseover" end="zoomplus.mouseout"/>
                        </use>
                        <path d="M-4,0h8M0,-4v8" fill="none" stroke="white" stroke-width="1.5" pointer-events="none"/>
                </g>
                <g id="zoomMin">
                        <use xlink:href="#rim" fill="#404040">
                                <set attributeName="fill" to="#808080" begin="zoomminus.mouseover" end="zoomminus.mouseout"/>
                        </use>
                        <path d="M-4,0h8" fill="none" stroke="white" stroke-width="1.5" pointer-events="none"/>
                </g>
                <g id="dirArrow">
                        <path fill="none" stroke="white" stroke-width="1.5" d="M0,-3.0v7 M-2.5,-0.5L0,-3.0L2.5,-0.5"/>
                </g>
               <g id="resetDef">
                       <use xlink:href="#rim2" fill="#404040">
                               <set attributeName="fill" to="#808080" begin="reset.mouseover" end="reset.mouseout"/>
                       </use>
               </g>
        </defs>

<script type="text/javascript">
var viewWidth = 522;
var viewHeight = 529;
var sectionId = 'dynsection-116';
</script>
<script xlink:href="svgpan.js"/>
<svg id="graph" class="graph">
<g id="viewport">
<title>UA_Variant_setArrayCopy</title>
<polygon fill="#ffffff" stroke="transparent" points="-4,4 -4,-525 518,-525 518,4 -4,4"/>
<!-- Node813 -->
<g id="node1" class="node">
<title>Node813</title>
<polygon fill="#bfbfbf" stroke="#000000" points="0,-251 0,-270 142,-270 142,-251 0,-251"/>
<text text-anchor="middle" x="71" y="-258" font-family="Helvetica,sans-Serif" font-size="10.00" fill="#000000">UA_Variant_setArrayCopy</text>
</g>
<!-- Node814 -->
<g id="node2" class="node">
<title>Node814</title>
<g id="a_node2"><a xlink:href="classua__processvariable.html#a29af5e947821cadf9926b99645ee8e02" target="_top" xlink:title="ua_processvariable\l::getValue_int8">
<polygon fill="#ffffff" stroke="#000000" points="178,-490.5 178,-520.5 289,-520.5 289,-490.5 178,-490.5"/>
<text text-anchor="start" x="186" y="-508.5" font-family="Helvetica,sans-Serif" font-size="10.00" fill="#000000">ua_processvariable</text>
<text text-anchor="middle" x="233.5" y="-497.5" font-family="Helvetica,sans-Serif" font-size="10.00" fill="#000000">::getValue_int8</text>
</a>
</g>
</g>
<!-- Node813&#45;&gt;Node814 -->
<g id="edge1" class="edge">
<title>Node813&#45;&gt;Node814</title>
<path fill="none" stroke="#191970" d="M75.5576,-280.2192C86.2892,-322.552 116.9685,-423.0233 178,-481.5 181.5626,-484.9135 185.6878,-487.8825 190.0489,-490.4552"/>
<polygon fill="#191970" stroke="#191970" points="78.9173,-279.2229 73.151,-270.3347 72.116,-280.8789 78.9173,-279.2229"/>
</g>
<!-- Node816 -->
<g id="node4" class="node">
<title>Node816</title>
<g id="a_node4"><a xlink:href="classua__processvariable.html#a00cc982a09434d6f53f8a7ef138801e3" target="_top" xlink:title="ua_processvariable\l::getValue_uint8">
<polygon fill="#ffffff" stroke="#000000" points="178,-441.5 178,-471.5 289,-471.5 289,-441.5 178,-441.5"/>
<text text-anchor="start" x="186" y="-459.5" font-family="Helvetica,sans-Serif" font-size="10.00" fill="#000000">ua_processvariable</text>
<text text-anchor="middle" x="233.5" y="-448.5" font-family="Helvetica,sans-Serif" font-size="10.00" fill="#000000">::getValue_uint8</text>
</a>
</g>
</g>
<!-- Node813&#45;&gt;Node816 -->
<g id="edge3" class="edge">
<title>Node813&#45;&gt;Node816</title>
<path fill="none" stroke="#191970" d="M78.3009,-279.5352C92.5182,-314.3197 127.0557,-388.6038 178,-432.5 181.8968,-435.8577 186.3352,-438.8093 190.9651,-441.3873"/>
<polygon fill="#191970" stroke="#191970" points="81.4912,-278.0858 74.5453,-270.0855 74.9861,-280.6712 81.4912,-278.0858"/>
</g>
<!-- Node817 -->
<g id="node5" class="node">
<title>Node817</title>
<g id="a_node5"><a xlink:href="classua__processvariable.html#a9338d47cfcf7cba47ab9200e87d27229" target="_top" xlink:title="ua_processvariable\l::getValue_int16">
<polygon fill="#ffffff" stroke="#000000" points="178,-392.5 178,-422.5 289,-422.5 289,-392.5 178,-392.5"/>
<text text-anchor="start" x="186" y="-410.5" font-family="Helvetica,sans-Serif" font-size="10.00" fill="#000000">ua_processvariable</text>
<text text-anchor="middle" x="233.5" y="-399.5" font-family="Helvetica,sans-Serif" font-size="10.00" fill="#000000">::getValue_int16</text>
</a>
</g>
</g>
<!-- Node813&#45;&gt;Node817 -->
<g id="edge5" class="edge">
<title>Node813&#45;&gt;Node817</title>
<path fill="none" stroke="#191970" d="M82.8474,-278.6738C100.7231,-304.8834 136.9006,-353.4393 178,-383.5 182.4908,-386.7846 187.5009,-389.7379 192.6229,-392.3562"/>
<polygon fill="#191970" stroke="#191970" points="85.5839,-276.4697 77.1144,-270.1043 79.7658,-280.362 85.5839,-276.4697"/>
</g>
<!-- Node818 -->
<g id="node6" class="node">
<title>Node818</title>
<g id="a_node6"><a xlink:href="classua__processvariable.html#a95ca52cf8c45217fbf67bebfe3538d1a" target="_top" xlink:title="ua_processvariable\l::getValue_uint16">
<polygon fill="#ffffff" stroke="#000000" points="178,-343.5 178,-373.5 289,-373.5 289,-343.5 178,-343.5"/>
<text text-anchor="start" x="186" y="-361.5" font-family="Helvetica,sans-Serif" font-size="10.00" fill="#000000">ua_processvariable</text>
<text text-anchor="middle" x="233.5" y="-350.5" font-family="Helvetica,sans-Serif" font-size="10.00" fill="#000000">::getValue_uint16</text>
</a>
</g>
</g>
<!-- Node813&#45;&gt;Node818 -->
<g id="edge7" class="edge">
<title>Node813&#45;&gt;Node818</title>
<path fill="none" stroke="#191970" d="M91.4756,-276.4794C112.4511,-292.4046 146.3765,-316.9519 178,-334.5 183.6911,-337.658 189.8809,-340.6941 195.9941,-343.4821"/>
<polygon fill="#191970" stroke="#191970" points="93.3886,-273.5358 83.3234,-270.2278 89.1288,-279.0905 93.3886,-273.5358"/>
</g>
<!-- Node819 -->
<g id="node7" class="node">
<title>Node819</title>
<g id="a_node7"><a xlink:href="classua__processvariable.html#a81912eb3d59f045032d2d212df72332e" target="_top" xlink:title="ua_processvariable\l::getValue_int32">
<polygon fill="#ffffff" stroke="#000000" points="178,-294.5 178,-324.5 289,-324.5 289,-294.5 178,-294.5"/>
<text text-anchor="start" x="186" y="-312.5" font-family="Helvetica,sans-Serif" font-size="10.00" fill="#000000">ua_processvariable</text>
<text text-anchor="middle" x="233.5" y="-301.5" font-family="Helvetica,sans-Serif" font-size="10.00" fill="#000000">::getValue_int32</text>
</a>
</g>
</g>
<!-- Node813&#45;&gt;Node819 -->
<g id="edge9" class="edge">
<title>Node813&#45;&gt;Node819</title>
<path fill="none" stroke="#191970" d="M112.3018,-272.9541C134.0076,-279.4992 160.7773,-287.5713 183.6325,-294.463"/>
<polygon fill="#191970" stroke="#191970" points="113.3021,-269.6001 102.7174,-270.064 111.2811,-276.302 113.3021,-269.6001"/>
</g>
<!-- Node820 -->
<g id="node8" class="node">
<title>Node820</title>
<g id="a_node8"><a xlink:href="classua__processvariable.html#ad6321cb2ee3404e5e01b7fae89132aeb" target="_top" xlink:title="ua_processvariable\l::getValue_uint32">
<polygon fill="#ffffff" stroke="#000000" points="178,-245.5 178,-275.5 289,-275.5 289,-245.5 178,-245.5"/>
<text text-anchor="start" x="186" y="-263.5" font-family="Helvetica,sans-Serif" font-size="10.00" fill="#000000">ua_processvariable</text>
<text text-anchor="middle" x="233.5" y="-252.5" font-family="Helvetica,sans-Serif" font-size="10.00" fill="#000000">::getValue_uint32</text>
</a>
</g>
</g>
<!-- Node813&#45;&gt;Node820 -->
<g id="edge11" class="edge">
<title>Node813&#45;&gt;Node820</title>
<path fill="none" stroke="#191970" d="M152.394,-260.5C161.0331,-260.5 169.67,-260.5 177.9141,-260.5"/>
<polygon fill="#191970" stroke="#191970" points="152.2749,-257.0001 142.2749,-260.5 152.2748,-264.0001 152.2749,-257.0001"/>
</g>
<!-- Node821 -->
<g id="node9" class="node">
<title>Node821</title>
<g id="a_node9"><a xlink:href="classua__processvariable.html#ad09703415f27c38293236596e905a0ad" target="_top" xlink:title="ua_processvariable\l::getValue_int64">
<polygon fill="#ffffff" stroke="#000000" points="178,-196.5 178,-226.5 289,-226.5 289,-196.5 178,-196.5"/>
<text text-anchor="start" x="186" y="-214.5" font-family="Helvetica,sans-Serif" font-size="10.00" fill="#000000">ua_processvariable</text>
<text text-anchor="middle" x="233.5" y="-203.5" font-family="Helvetica,sans-Serif" font-size="10.00" fill="#000000">::getValue_int64</text>
</a>
</g>
</g>
<!-- Node813&#45;&gt;Node821 -->
<g id="edge13" class="edge">
<title>Node813&#45;&gt;Node821</title>
<path fill="none" stroke="#191970" d="M112.3018,-248.0459C134.0076,-241.5008 160.7773,-233.4287 183.6325,-226.537"/>
<polygon fill="#191970" stroke="#191970" points="111.2811,-244.698 102.7174,-250.936 113.3021,-251.3999 111.2811,-244.698"/>
</g>
<!-- Node822 -->
<g id="node10" class="node">
<title>Node822</title>
<g id="a_node10"><a xlink:href="classua__processvariable.html#abc3f902ba0f6425b9b7bab9c0c525581" target="_top" xlink:title="ua_processvariable\l::getValue_uint64">
<polygon fill="#ffffff" stroke="#000000" points="178,-147.5 178,-177.5 289,-177.5 289,-147.5 178,-147.5"/>
<text text-anchor="start" x="186" y="-165.5" font-family="Helvetica,sans-Serif" font-size="10.00" fill="#000000">ua_processvariable</text>
<text text-anchor="middle" x="233.5" y="-154.5" font-family="Helvetica,sans-Serif" font-size="10.00" fill="#000000">::getValue_uint64</text>
</a>
</g>
</g>
<!-- Node813&#45;&gt;Node822 -->
<g id="edge15" class="edge">
<title>Node813&#45;&gt;Node822</title>
<path fill="none" stroke="#191970" d="M91.5657,-244.8619C112.6115,-229.2498 146.5907,-205.109 178,-187.5 184.1761,-184.0375 190.9209,-180.675 197.5138,-177.5973"/>
<polygon fill="#191970" stroke="#191970" points="89.2914,-242.1923 83.3831,-250.9868 93.4862,-247.7963 89.2914,-242.1923"/>
</g>
<!-- Node823 -->
<g id="node11" class="node">
<title>Node823</title>
<g id="a_node11"><a xlink:href="classua__processvariable.html#af2e2259ab7a15c0aa200cde0c886a9f5" target="_top" xlink:title="ua_processvariable\l::getValue_float">
<polygon fill="#ffffff" stroke="#000000" points="178,-98.5 178,-128.5 289,-128.5 289,-98.5 178,-98.5"/>
<text text-anchor="start" x="186" y="-116.5" font-family="Helvetica,sans-Serif" font-size="10.00" fill="#000000">ua_processvariable</text>
<text text-anchor="middle" x="233.5" y="-105.5" font-family="Helvetica,sans-Serif" font-size="10.00" fill="#000000">::getValue_float</text>
</a>
</g>
</g>
<!-- Node813&#45;&gt;Node823 -->
<g id="edge17" class="edge">
<title>Node813&#45;&gt;Node823</title>
<path fill="none" stroke="#191970" d="M83.2102,-242.1756C101.2942,-216.199 137.4579,-168.4978 178,-138.5 183.0122,-134.7914 188.662,-131.4643 194.3893,-128.5399"/>
<polygon fill="#191970" stroke="#191970" points="80.144,-240.459 77.391,-250.6899 85.9232,-244.4088 80.144,-240.459"/>
</g>
<!-- Node824 -->
<g id="node12" class="node">
<title>Node824</title>
<g id="a_node12"><a xlink:href="classua__processvariable.html#aad550158cdb614e545d5ea0ecc26d498" target="_top" xlink:title="ua_processvariable\l::getValue_double">
<polygon fill="#ffffff" stroke="#000000" points="178,-49.5 178,-79.5 289,-79.5 289,-49.5 178,-49.5"/>
<text text-anchor="start" x="186" y="-67.5" font-family="Helvetica,sans-Serif" font-size="10.00" fill="#000000">ua_processvariable</text>
<text text-anchor="middle" x="233.5" y="-56.5" font-family="Helvetica,sans-Serif" font-size="10.00" fill="#000000">::getValue_double</text>
</a>
</g>
</g>
<!-- Node813&#45;&gt;Node824 -->
<g id="edge19" class="edge">
<title>Node813&#45;&gt;Node824</title>
<path fill="none" stroke="#191970" d="M78.6001,-241.1571C93.0946,-206.4913 127.7816,-133.3189 178,-89.5 182.2999,-85.7481 187.2552,-82.4666 192.3981,-79.6241"/>
<polygon fill="#191970" stroke="#191970" points="75.2832,-240.0225 74.7553,-250.6041 81.7668,-242.6613 75.2832,-240.0225"/>
</g>
<!-- Node825 -->
<g id="node13" class="node">
<title>Node825</title>
<g id="a_node13"><a xlink:href="classua__processvariable.html#aee0bad30c33c585d2c13011189b377b5" target="_top" xlink:title="ua_processvariable\l::getValue_bool">
<polygon fill="#ffffff" stroke="#000000" points="178,-.5 178,-30.5 289,-30.5 289,-.5 178,-.5"/>
<text text-anchor="start" x="186" y="-18.5" font-family="Helvetica,sans-Serif" font-size="10.00" fill="#000000">ua_processvariable</text>
<text text-anchor="middle" x="233.5" y="-7.5" font-family="Helvetica,sans-Serif" font-size="10.00" fill="#000000">::getValue_bool</text>
</a>
</g>
</g>
<!-- Node813&#45;&gt;Node825 -->
<g id="edge21" class="edge">
<title>Node813&#45;&gt;Node825</title>
<path fill="none" stroke="#191970" d="M75.651,-240.9391C86.5654,-198.9332 117.5809,-99.1654 178,-40.5 181.9425,-36.6719 186.5733,-33.3675 191.4501,-30.5319"/>
<polygon fill="#191970" stroke="#191970" points="72.2292,-240.1957 73.1999,-250.7459 79.0203,-241.8931 72.2292,-240.1957"/>
</g>
<!-- Node815 -->
<g id="node3" class="node">
<title>Node815</title>
<g id="a_node3"><a xlink:href="classua__processvariable.html#a8d2fbb89bc49da95dec1fded116671b0" target="_top" xlink:title="ua_processvariable\l::ua_readproxy_ua_processvariable\l_getValue">
<polygon fill="#ffffff" stroke="#000000" points="325,-240 325,-281 514,-281 514,-240 325,-240"/>
<text text-anchor="start" x="333" y="-269" font-family="Helvetica,sans-Serif" font-size="10.00" fill="#000000">ua_processvariable</text>
<text text-anchor="start" x="333" y="-258" font-family="Helvetica,sans-Serif" font-size="10.00" fill="#000000">::ua_readproxy_ua_processvariable</text>
<text text-anchor="middle" x="419.5" y="-247" font-family="Helvetica,sans-Serif" font-size="10.00" fill="#000000">_getValue</text>
</a>
</g>
</g>
<!-- Node814&#45;&gt;Node815 -->
<g id="edge2" class="edge">
<title>Node814&#45;&gt;Node815</title>
<path fill="none" stroke="#191970" d="M284.8388,-484.8603C286.282,-483.7892 287.6739,-482.6696 289,-481.5 354.8323,-423.4371 396.6238,-323.8652 412.3904,-281.0529"/>
<polygon fill="#191970" stroke="#191970" points="282.6276,-482.121 276.1115,-490.4751 286.4151,-488.008 282.6276,-482.121"/>
</g>
<!-- Node816&#45;&gt;Node815 -->
<g id="edge4" class="edge">
<title>Node816&#45;&gt;Node815</title>
<path fill="none" stroke="#191970" d="M283.5215,-436.4187C285.4197,-435.1742 287.2548,-433.8683 289,-432.5 344.4553,-389.02 388.8401,-316.6405 408.5068,-281.2567"/>
<polygon fill="#191970" stroke="#191970" points="281.7348,-433.409 274.8768,-441.4849 285.2741,-439.4483 281.7348,-433.409"/>
</g>
<!-- Node817&#45;&gt;Node815 -->
<g id="edge6" class="edge">
<title>Node817&#45;&gt;Node815</title>
<path fill="none" stroke="#191970" d="M282.3014,-387.5857C284.6058,-386.2767 286.8515,-384.9138 289,-383.5 334.2543,-353.7222 378.2788,-307.6007 401.8389,-281.1093"/>
<polygon fill="#191970" stroke="#191970" points="280.4314,-384.6143 273.2024,-392.3598 283.6837,-390.8129 280.4314,-384.6143"/>
</g>
<!-- Node818&#45;&gt;Node815 -->
<g id="edge8" class="edge">
<title>Node818&#45;&gt;Node815</title>
<path fill="none" stroke="#191970" d="M279.2587,-339.1799C282.5743,-337.6373 285.8505,-336.0683 289,-334.5 322.4568,-317.8407 359.4102,-296.6063 385.4276,-281.1605"/>
<polygon fill="#191970" stroke="#191970" points="277.5421,-336.1153 269.8825,-343.4352 280.4351,-342.4896 277.5421,-336.1153"/>
</g>
<!-- Node819&#45;&gt;Node815 -->
<g id="edge10" class="edge">
<title>Node819&#45;&gt;Node815</title>
<path fill="none" stroke="#191970" d="M298.9096,-292.2684C312.6868,-288.639 327.3522,-284.7755 341.5382,-281.0383"/>
<polygon fill="#191970" stroke="#191970" points="297.8326,-288.9327 289.0542,-294.8648 299.6159,-295.7017 297.8326,-288.9327"/>
</g>
<!-- Node820&#45;&gt;Node815 -->
<g id="edge12" class="edge">
<title>Node820&#45;&gt;Node815</title>
<path fill="none" stroke="#191970" d="M299.0973,-260.5C307.4803,-260.5 316.1896,-260.5 324.9175,-260.5"/>
<polygon fill="#191970" stroke="#191970" points="299.0542,-257.0001 289.0542,-260.5 299.0542,-264.0001 299.0542,-257.0001"/>
</g>
<!-- Node821&#45;&gt;Node815 -->
<g id="edge14" class="edge">
<title>Node821&#45;&gt;Node815</title>
<path fill="none" stroke="#191970" d="M298.9096,-228.7316C312.6868,-232.361 327.3522,-236.2245 341.5382,-239.9617"/>
<polygon fill="#191970" stroke="#191970" points="299.6159,-225.2983 289.0542,-226.1352 297.8326,-232.0673 299.6159,-225.2983"/>
</g>
<!-- Node822&#45;&gt;Node815 -->
<g id="edge16" class="edge">
<title>Node822&#45;&gt;Node815</title>
<path fill="none" stroke="#191970" d="M277.3142,-181.807C281.2867,-183.6866 285.2307,-185.6013 289,-187.5 322.0383,-204.1423 358.7309,-224.876 384.7727,-239.9896"/>
<polygon fill="#191970" stroke="#191970" points="278.6062,-178.548 268.0624,-177.5093 275.6572,-184.8965 278.6062,-178.548"/>
</g>
<!-- Node823&#45;&gt;Node815 -->
<g id="edge18" class="edge">
<title>Node823&#45;&gt;Node815</title>
<path fill="none" stroke="#191970" d="M280.4365,-133.281C283.393,-134.9416 286.2732,-136.6842 289,-138.5 333.6596,-168.2399 377.5557,-213.4994 401.3251,-239.7213"/>
<polygon fill="#191970" stroke="#191970" points="281.8975,-130.0952 271.4153,-128.5545 278.6488,-136.2957 281.8975,-130.0952"/>
</g>
<!-- Node824&#45;&gt;Node815 -->
<g id="edge20" class="edge">
<title>Node824&#45;&gt;Node815</title>
<path fill="none" stroke="#191970" d="M282.4785,-84.8295C284.7477,-86.3046 286.9361,-87.8613 289,-89.5 343.9841,-133.1579 388.5898,-204.9147 408.4071,-239.9551"/>
<polygon fill="#191970" stroke="#191970" points="283.8203,-81.5602 273.4191,-79.5436 280.2926,-87.6063 283.8203,-81.5602"/>
</g>
<!-- Node825&#45;&gt;Node815 -->
<g id="edge22" class="edge">
<title>Node825&#45;&gt;Node815</title>
<path fill="none" stroke="#191970" d="M283.5121,-36.1065C285.4315,-37.4915 287.2714,-38.9552 289,-40.5 354.0658,-98.6485 396.1329,-197.1487 412.1727,-239.7948"/>
<polygon fill="#191970" stroke="#191970" points="285.009,-32.9122 274.6856,-30.5293 281.2698,-38.8299 285.009,-32.9122"/>
</g>
</g>
</svg>
        <g id="navigator" transform="translate(0 0)" fill="#404254">
                <rect fill="#f2f5e9" fill-opacity="0.5" stroke="#606060" stroke-width=".5" x="0" y="0" width="60" height="60"/>
                <use id="zoomplus" xlink:href="#zoomPlus" x="17" y="9" onmousedown="handleZoom(evt,'in')"/>
                <use id="zoomminus" xlink:href="#zoomMin" x="42" y="9" onmousedown="handleZoom(evt,'out')"/>
                <use id="reset" xlink:href="#resetDef" x="30" y="36" onmousedown="handleReset()"/>
                <g id="arrowUp" xlink:href="#dirArrow" transform="translate(30 24)" onmousedown="handlePan(0,-1)">
                  <use xlink:href="#rim" fill="#404040">
                        <set attributeName="fill" to="#808080" begin="arrowUp.mouseover" end="arrowUp.mouseout"/>
                  </use>
                  <path fill="none" stroke="white" stroke-width="1.5" d="M0,-3.0v7 M-2.5,-0.5L0,-3.0L2.5,-0.5"/>
                </g>
                <g id="arrowRight" xlink:href="#dirArrow" transform="rotate(90) translate(36 -43)" onmousedown="handlePan(1,0)">
                  <use xlink:href="#rim" fill="#404040">
                        <set attributeName="fill" to="#808080" begin="arrowRight.mouseover" end="arrowRight.mouseout"/>
                  </use>
                  <path fill="none" stroke="white" stroke-width="1.5" d="M0,-3.0v7 M-2.5,-0.5L0,-3.0L2.5,-0.5"/>
                </g>
                <g id="arrowDown" xlink:href="#dirArrow" transform="rotate(180) translate(-30 -48)" onmousedown="handlePan(0,1)">
                  <use xlink:href="#rim" fill="#404040">
                        <set attributeName="fill" to="#808080" begin="arrowDown.mouseover" end="arrowDown.mouseout"/>
                  </use>
                  <path fill="none" stroke="white" stroke-width="1.5" d="M0,-3.0v7 M-2.5,-0.5L0,-3.0L2.5,-0.5"/>
                </g>
                <g id="arrowLeft" xlink:href="#dirArrow" transform="rotate(270) translate(-36 17)" onmousedown="handlePan(-1,0)">
                  <use xlink:href="#rim" fill="#404040">
                        <set attributeName="fill" to="#808080" begin="arrowLeft.mouseover" end="arrowLeft.mouseout"/>
                  </use>
                  <path fill="none" stroke="white" stroke-width="1.5" d="M0,-3.0v7 M-2.5,-0.5L0,-3.0L2.5,-0.5"/>
                </g>
        </g>
        <svg viewBox="0 0 15 15" width="100%" height="30px" preserveAspectRatio="xMaxYMin meet">
         <g id="arrow_out" transform="scale(0.3 0.3)">
          <a xlink:href="open62541_8c_aedcb0807aecd86b4aaed8bb993123b0f_icgraph_org.svg" target="_base">
           <rect id="button" ry="5" rx="5" y="6" x="6" height="38" width="38"
                fill="#f2f5e9" fill-opacity="0.5" stroke="#606060" stroke-width="1.0"/>
           <path id="arrow"
             d="M 11.500037,31.436501 C 11.940474,20.09759 22.043105,11.32322 32.158766,21.979434 L 37.068811,17.246167 C 37.068811,17.246167 37.088388,32 37.088388,32 L 22.160133,31.978069 C 22.160133,31.978069 26.997745,27.140456 26.997745,27.140456 C 18.528582,18.264221 13.291696,25.230495 11.500037,31.436501 z"
             style="fill:#404040;"/>
          </a>
         </g>
        </svg>
</svg>
