<?xml version="1.0" encoding="UTF-8" standalone="no"?>
<!DOCTYPE svg PUBLIC "-//W3C//DTD SVG 1.1//EN"
 "http://www.w3.org/Graphics/SVG/1.1/DTD/svg11.dtd">
<!-- Generated by graphviz version 2.40.1 (20161225.0304)
 -->
<!-- Title: UA_SecureChannel Pages: 1 -->
<!--zoomable 214 -->
<svg id="main" version="1.1" xmlns="http://www.w3.org/2000/svg" xmlns:xlink="http://www.w3.org/1999/xlink" xml:space="preserve" onload="init(evt)">
<style type="text/css"><![CDATA[
.edge:hover path { stroke: red; }
.edge:hover polygon { stroke: red; fill: red; }
]]></style>
<script type="text/javascript"><![CDATA[
var edges = document.getElementsByTagName('g');
if (edges && edges.length) {
  for (var i=0;i<edges.length;i++) {
    if (edges[i].id.substr(0,4)=='edge') {
      edges[i].setAttribute('class','edge');
    }
  }
}
]]></script>
        <defs>
                <circle id="rim" cx="0" cy="0" r="7"/>
                <circle id="rim2" cx="0" cy="0" r="3.5"/>
                <g id="zoomPlus">
                        <use xlink:href="#rim" fill="#404040">
                                <set attributeName="fill" to="#808080" begin="zoomplus.mouseover" end="zoomplus.mouseout"/>
                        </use>
                        <path d="M-4,0h8M0,-4v8" fill="none" stroke="white" stroke-width="1.5" pointer-events="none"/>
                </g>
                <g id="zoomMin">
                        <use xlink:href="#rim" fill="#404040">
                                <set attributeName="fill" to="#808080" begin="zoomminus.mouseover" end="zoomminus.mouseout"/>
                        </use>
                        <path d="M-4,0h8" fill="none" stroke="white" stroke-width="1.5" pointer-events="none"/>
                </g>
                <g id="dirArrow">
                        <path fill="none" stroke="white" stroke-width="1.5" d="M0,-3.0v7 M-2.5,-0.5L0,-3.0L2.5,-0.5"/>
                </g>
               <g id="resetDef">
                       <use xlink:href="#rim2" fill="#404040">
                               <set attributeName="fill" to="#808080" begin="reset.mouseover" end="reset.mouseout"/>
                       </use>
               </g>
        </defs>

<script type="text/javascript">
var viewWidth = 906;
var viewHeight = 214;
var sectionId = 'dynsection-0';
</script>
<script xlink:href="svgpan.js"/>
<svg id="graph" class="graph">
<g id="viewport">
<title>UA_SecureChannel</title>
<polygon fill="#ffffff" stroke="transparent" points="-4,4 -4,-210 902,-210 902,4 -4,4"/>
<!-- Node1 -->
<g id="node1" class="node">
<title>Node1</title>
<polygon fill="#bfbfbf" stroke="#000000" points="594.5,-105.5 594.5,-124.5 703.5,-124.5 703.5,-105.5 594.5,-105.5"/>
<text text-anchor="middle" x="649" y="-112.5" font-family="Helvetica,sans-Serif" font-size="10.00" fill="#000000">UA_SecureChannel</text>
</g>
<!-- Node5 -->
<g id="node5" class="node">
<title>Node5</title>
<g id="a_node5"><a xlink:href="struct_u_a___connection.html" target="_top" xlink:title="UA_Connection">
<polygon fill="#ffffff" stroke="#000000" points="807,-54.5 807,-73.5 898,-73.5 898,-54.5 807,-54.5"/>
<text text-anchor="middle" x="852.5" y="-61.5" font-family="Helvetica,sans-Serif" font-size="10.00" fill="#000000">UA_Connection</text>
</a>
</g>
</g>
<!-- Node1&#45;&gt;Node5 -->
<g id="edge6" class="edge">
<title>Node1&#45;&gt;Node5</title>
<path fill="none" stroke="#9a32cd" stroke-dasharray="5,2" d="M713.6806,-108.578C737.6611,-105.2247 764.879,-100.2542 789,-93 805.1324,-88.1483 822.4668,-80.0156 834.9418,-73.5952"/>
<polygon fill="#9a32cd" stroke="#9a32cd" points="713.0702,-105.1283 703.6199,-109.918 713.9945,-112.067 713.0702,-105.1283"/>
<text text-anchor="middle" x="758.5" y="-110" font-family="Helvetica,sans-Serif" font-size="10.00" fill="#000000"> channel</text>
</g>
<!-- Node2 -->
<g id="node2" class="node">
<title>Node2</title>
<g id="a_node2"><a xlink:href="struct_u_a___asymmetric_algorithm_security_header.html" target="_top" xlink:title="AsymmetricAlgorithmSecurityHeader ^^^^^^^^^^^^^^^^^^^^^^^^^^^^^^^^^ Security Header. ">
<polygon fill="#ffffff" stroke="#000000" points="251,-77 251,-107 434,-107 434,-77 251,-77"/>
<text text-anchor="start" x="259" y="-95" font-family="Helvetica,sans-Serif" font-size="10.00" fill="#000000">UA_AsymmetricAlgorithmSecurity</text>
<text text-anchor="middle" x="342.5" y="-84" font-family="Helvetica,sans-Serif" font-size="10.00" fill="#000000">Header</text>
</a>
</g>
</g>
<!-- Node2&#45;&gt;Node1 -->
<g id="edge1" class="edge">
<title>Node2&#45;&gt;Node1</title>
<path fill="none" stroke="#9a32cd" stroke-dasharray="5,2" d="M444.2486,-98.7597C483.5509,-101.4747 528.88,-104.7325 570,-108 577.8237,-108.6217 586.0799,-109.3136 594.1881,-110.0135"/>
<polygon fill="#9a32cd" stroke="#9a32cd" points="444.3454,-95.2582 434.1287,-98.0634 443.8649,-102.2417 444.3454,-95.2582"/>
<text text-anchor="middle" x="511" y="-122" font-family="Helvetica,sans-Serif" font-size="10.00" fill="#000000"> serverAsymAlgSettings</text>
<text text-anchor="middle" x="511" y="-111" font-family="Helvetica,sans-Serif" font-size="10.00" fill="#000000">clientAsymAlgSettings</text>
</g>
<!-- Node3 -->
<g id="node3" class="node">
<title>Node3</title>
<g id="a_node3"><a xlink:href="struct_u_a___string.html" target="_top" xlink:title="String ^^^^^^ A sequence of Unicode characters. ">
<polygon fill="#ffffff" stroke="#000000" points="0,-82.5 0,-101.5 65,-101.5 65,-82.5 0,-82.5"/>
<text text-anchor="middle" x="32.5" y="-89.5" font-family="Helvetica,sans-Serif" font-size="10.00" fill="#000000">UA_String</text>
</a>
</g>
</g>
<!-- Node3&#45;&gt;Node1 -->
<g id="edge3" class="edge">
<title>Node3&#45;&gt;Node1</title>
<path fill="none" stroke="#9a32cd" stroke-dasharray="5,2" d="M49.4031,-108.5967C58.5472,-116.408 70.5094,-124.8952 83,-129 238.8029,-180.2021 287.9995,-129.7778 452,-130 504.4444,-130.0711 517.7862,-134.9131 570,-130 581.9531,-128.8753 594.7906,-126.8134 606.5695,-124.571"/>
<polygon fill="#9a32cd" stroke="#9a32cd" points="51.6218,-105.8839 41.8633,-101.7581 46.919,-111.0689 51.6218,-105.8839"/>
<text text-anchor="middle" x="342.5" y="-164" font-family="Helvetica,sans-Serif" font-size="10.00" fill="#000000"> clientNonce</text>
<text text-anchor="middle" x="342.5" y="-153" font-family="Helvetica,sans-Serif" font-size="10.00" fill="#000000">serverNonce</text>
</g>
<!-- Node3&#45;&gt;Node2 -->
<g id="edge2" class="edge">
<title>Node3&#45;&gt;Node2</title>
<path fill="none" stroke="#9a32cd" stroke-dasharray="5,2" d="M75.0978,-92C120.145,-92 192.5931,-92 250.7235,-92"/>
<polygon fill="#9a32cd" stroke="#9a32cd" points="75.0896,-88.5001 65.0895,-92 75.0895,-95.5001 75.0896,-88.5001"/>
<text text-anchor="middle" x="158" y="-117" font-family="Helvetica,sans-Serif" font-size="10.00" fill="#000000"> receiverCertificateThumbprint</text>
<text text-anchor="middle" x="158" y="-106" font-family="Helvetica,sans-Serif" font-size="10.00" fill="#000000">securityPolicyUri</text>
<text text-anchor="middle" x="158" y="-95" font-family="Helvetica,sans-Serif" font-size="10.00" fill="#000000">senderCertificate</text>
</g>
<!-- Node3&#45;&gt;Node5 -->
<g id="edge7" class="edge">
<title>Node3&#45;&gt;Node5</title>
<path fill="none" stroke="#9a32cd" stroke-dasharray="5,2" d="M75.3949,-85.6928C119.3654,-79.5572 189.78,-70.6441 251,-67 458.1847,-54.6674 706.2183,-59.6758 806.7936,-62.5327"/>
<polygon fill="#9a32cd" stroke="#9a32cd" points="74.7607,-82.2475 65.348,-87.1107 75.739,-89.1788 74.7607,-82.2475"/>
<text text-anchor="middle" x="511" y="-63" font-family="Helvetica,sans-Serif" font-size="10.00" fill="#000000"> incompleteMessage</text>
</g>
<!-- Node4 -->
<g id="node4" class="node">
<title>Node4</title>
<g id="a_node4"><a xlink:href="struct_u_a___channel_security_token.html" target="_top" xlink:title="ChannelSecurityToken ^^^^^^^^^^^^^^^^^^^^ The token that identifies a set of keys for an active secur...">
<polygon fill="#ffffff" stroke="#000000" points="270.5,-184.5 270.5,-203.5 414.5,-203.5 414.5,-184.5 270.5,-184.5"/>
<text text-anchor="middle" x="342.5" y="-191.5" font-family="Helvetica,sans-Serif" font-size="10.00" fill="#000000">UA_ChannelSecurityToken</text>
</a>
</g>
</g>
<!-- Node4&#45;&gt;Node1 -->
<g id="edge4" class="edge">
<title>Node4&#45;&gt;Node1</title>
<path fill="none" stroke="#9a32cd" stroke-dasharray="5,2" d="M424.7881,-187.8122C468.7512,-182.8164 523.285,-173.8811 570,-158 594.0985,-149.8075 619.5365,-134.615 634.8385,-124.6579"/>
<polygon fill="#9a32cd" stroke="#9a32cd" points="424.2779,-184.347 414.7158,-188.9093 425.036,-191.3058 424.2779,-184.347"/>
<text text-anchor="middle" x="511" y="-198" font-family="Helvetica,sans-Serif" font-size="10.00" fill="#000000"> nextSecurityToken</text>
<text text-anchor="middle" x="511" y="-187" font-family="Helvetica,sans-Serif" font-size="10.00" fill="#000000">securityToken</text>
</g>
<!-- Node5&#45;&gt;Node1 -->
<g id="edge5" class="edge">
<title>Node5&#45;&gt;Node1</title>
<path fill="none" stroke="#9a32cd" stroke-dasharray="5,2" d="M796.9204,-68.9989C775.1708,-71.7407 750.1702,-75.8729 728,-82 706.7964,-87.86 683.7054,-97.9739 667.9962,-105.4646"/>
<polygon fill="#9a32cd" stroke="#9a32cd" points="797.4701,-72.4583 806.9852,-67.7985 796.6411,-65.5075 797.4701,-72.4583"/>
<text text-anchor="middle" x="758.5" y="-85" font-family="Helvetica,sans-Serif" font-size="10.00" fill="#000000"> connection</text>
</g>
<!-- Node6 -->
<g id="node6" class="node">
<title>Node6</title>
<g id="a_node6"><a xlink:href="struct_u_a___connection_config.html" target="_top" xlink:title="Networking Client&#45;server connection is represented by a UA_Connection structure. ">
<polygon fill="#ffffff" stroke="#000000" points="588,-.5 588,-19.5 710,-19.5 710,-.5 588,-.5"/>
<text text-anchor="middle" x="649" y="-7.5" font-family="Helvetica,sans-Serif" font-size="10.00" fill="#000000">UA_ConnectionConfig</text>
</a>
</g>
</g>
<!-- Node6&#45;&gt;Node5 -->
<g id="edge8" class="edge">
<title>Node6&#45;&gt;Node5</title>
<path fill="none" stroke="#9a32cd" stroke-dasharray="5,2" d="M720.386,-1.9711C742.9138,-1.8036 767.517,-4.1527 789,-12 812.556,-20.6045 833.7362,-41.956 844.6734,-54.4603"/>
<polygon fill="#9a32cd" stroke="#9a32cd" points="720.1137,1.5234 710.2001,-2.2145 720.2809,-5.4746 720.1137,1.5234"/>
<text text-anchor="middle" x="758.5" y="-26" font-family="Helvetica,sans-Serif" font-size="10.00" fill="#000000"> remoteConf</text>
<text text-anchor="middle" x="758.5" y="-15" font-family="Helvetica,sans-Serif" font-size="10.00" fill="#000000">localConf</text>
</g>
</g>
</svg>
        <g id="navigator" transform="translate(0 0)" fill="#404254">
                <rect fill="#f2f5e9" fill-opacity="0.5" stroke="#606060" stroke-width=".5" x="0" y="0" width="60" height="60"/>
                <use id="zoomplus" xlink:href="#zoomPlus" x="17" y="9" onmousedown="handleZoom(evt,'in')"/>
                <use id="zoomminus" xlink:href="#zoomMin" x="42" y="9" onmousedown="handleZoom(evt,'out')"/>
                <use id="reset" xlink:href="#resetDef" x="30" y="36" onmousedown="handleReset()"/>
                <g id="arrowUp" xlink:href="#dirArrow" transform="translate(30 24)" onmousedown="handlePan(0,-1)">
                  <use xlink:href="#rim" fill="#404040">
                        <set attributeName="fill" to="#808080" begin="arrowUp.mouseover" end="arrowUp.mouseout"/>
                  </use>
                  <path fill="none" stroke="white" stroke-width="1.5" d="M0,-3.0v7 M-2.5,-0.5L0,-3.0L2.5,-0.5"/>
                </g>
                <g id="arrowRight" xlink:href="#dirArrow" transform="rotate(90) translate(36 -43)" onmousedown="handlePan(1,0)">
                  <use xlink:href="#rim" fill="#404040">
                        <set attributeName="fill" to="#808080" begin="arrowRight.mouseover" end="arrowRight.mouseout"/>
                  </use>
                  <path fill="none" stroke="white" stroke-width="1.5" d="M0,-3.0v7 M-2.5,-0.5L0,-3.0L2.5,-0.5"/>
                </g>
                <g id="arrowDown" xlink:href="#dirArrow" transform="rotate(180) translate(-30 -48)" onmousedown="handlePan(0,1)">
                  <use xlink:href="#rim" fill="#404040">
                        <set attributeName="fill" to="#808080" begin="arrowDown.mouseover" end="arrowDown.mouseout"/>
                  </use>
                  <path fill="none" stroke="white" stroke-width="1.5" d="M0,-3.0v7 M-2.5,-0.5L0,-3.0L2.5,-0.5"/>
                </g>
                <g id="arrowLeft" xlink:href="#dirArrow" transform="rotate(270) translate(-36 17)" onmousedown="handlePan(-1,0)">
                  <use xlink:href="#rim" fill="#404040">
                        <set attributeName="fill" to="#808080" begin="arrowLeft.mouseover" end="arrowLeft.mouseout"/>
                  </use>
                  <path fill="none" stroke="white" stroke-width="1.5" d="M0,-3.0v7 M-2.5,-0.5L0,-3.0L2.5,-0.5"/>
                </g>
        </g>
        <svg viewBox="0 0 15 15" width="100%" height="30px" preserveAspectRatio="xMaxYMin meet">
         <g id="arrow_out" transform="scale(0.3 0.3)">
          <a xlink:href="struct_u_a___secure_channel__coll__graph_org.svg" target="_base">
           <rect id="button" ry="5" rx="5" y="6" x="6" height="38" width="38"
                fill="#f2f5e9" fill-opacity="0.5" stroke="#606060" stroke-width="1.0"/>
           <path id="arrow"
             d="M 11.500037,31.436501 C 11.940474,20.09759 22.043105,11.32322 32.158766,21.979434 L 37.068811,17.246167 C 37.068811,17.246167 37.088388,32 37.088388,32 L 22.160133,31.978069 C 22.160133,31.978069 26.997745,27.140456 26.997745,27.140456 C 18.528582,18.264221 13.291696,25.230495 11.500037,31.436501 z"
             style="fill:#404040;"/>
          </a>
         </g>
        </svg>
</svg>
