<?xml version="1.0" encoding="UTF-8" standalone="no"?>
<!DOCTYPE svg PUBLIC "-//W3C//DTD SVG 1.1//EN"
 "http://www.w3.org/Graphics/SVG/1.1/DTD/svg11.dtd">
<!-- Generated by graphviz version 2.40.1 (20161225.0304)
 -->
<!-- Title: include/ChimeraTK/ControlSystemAdapter/ProcessVariableListener.h Pages: 1 -->
<!--zoomable 753 -->
<svg id="main" version="1.1" xmlns="http://www.w3.org/2000/svg" xmlns:xlink="http://www.w3.org/1999/xlink" xml:space="preserve" onload="init(evt)">
<style type="text/css"><![CDATA[
.edge:hover path { stroke: red; }
.edge:hover polygon { stroke: red; fill: red; }
]]></style>
<script type="text/javascript"><![CDATA[
var edges = document.getElementsByTagName('g');
if (edges && edges.length) {
  for (var i=0;i<edges.length;i++) {
    if (edges[i].id.substr(0,4)=='edge') {
      edges[i].setAttribute('class','edge');
    }
  }
}
]]></script>
        <defs>
                <circle id="rim" cx="0" cy="0" r="7"/>
                <circle id="rim2" cx="0" cy="0" r="3.5"/>
                <g id="zoomPlus">
                        <use xlink:href="#rim" fill="#404040">
                                <set attributeName="fill" to="#808080" begin="zoomplus.mouseover" end="zoomplus.mouseout"/>
                        </use>
                        <path d="M-4,0h8M0,-4v8" fill="none" stroke="white" stroke-width="1.5" pointer-events="none"/>
                </g>
                <g id="zoomMin">
                        <use xlink:href="#rim" fill="#404040">
                                <set attributeName="fill" to="#808080" begin="zoomminus.mouseover" end="zoomminus.mouseout"/>
                        </use>
                        <path d="M-4,0h8" fill="none" stroke="white" stroke-width="1.5" pointer-events="none"/>
                </g>
                <g id="dirArrow">
                        <path fill="none" stroke="white" stroke-width="1.5" d="M0,-3.0v7 M-2.5,-0.5L0,-3.0L2.5,-0.5"/>
                </g>
               <g id="resetDef">
                       <use xlink:href="#rim2" fill="#404040">
                               <set attributeName="fill" to="#808080" begin="reset.mouseover" end="reset.mouseout"/>
                       </use>
               </g>
        </defs>

<script type="text/javascript">
var viewWidth = 1224;
var viewHeight = 753;
var sectionId = 'dynsection-1';
</script>
<script xlink:href="svgpan.js"/>
<svg id="graph" class="graph">
<g id="viewport">
<title>include/ChimeraTK/ControlSystemAdapter/ProcessVariableListener.h</title>
<polygon fill="#ffffff" stroke="transparent" points="-4,4 -4,-749 1220,-749 1220,4 -4,4"/>
<!-- Node4 -->
<g id="node1" class="node">
<title>Node4</title>
<polygon fill="#bfbfbf" stroke="#000000" points="129,-714.5 129,-744.5 348,-744.5 348,-714.5 129,-714.5"/>
<text text-anchor="start" x="137" y="-732.5" font-family="Helvetica,sans-Serif" font-size="10.00" fill="#000000">include/ChimeraTK/Control</text>
<text text-anchor="middle" x="238.5" y="-721.5" font-family="Helvetica,sans-Serif" font-size="10.00" fill="#000000">SystemAdapter/ProcessVariableListener.h</text>
</g>
<!-- Node5 -->
<g id="node2" class="node">
<title>Node5</title>
<g id="a_node2"><a xlink:href="_bidirectional_process_array_8h.html" target="_top" xlink:title="include/ChimeraTK/Control\lSystemAdapter/BidirectionalProcess\lArray.h">
<polygon fill="#ffffff" stroke="#000000" points="137.5,-491.5 137.5,-532.5 331.5,-532.5 331.5,-491.5 137.5,-491.5"/>
<text text-anchor="start" x="145.5" y="-520.5" font-family="Helvetica,sans-Serif" font-size="10.00" fill="#000000">include/ChimeraTK/Control</text>
<text text-anchor="start" x="145.5" y="-509.5" font-family="Helvetica,sans-Serif" font-size="10.00" fill="#000000">SystemAdapter/BidirectionalProcess</text>
<text text-anchor="middle" x="234.5" y="-498.5" font-family="Helvetica,sans-Serif" font-size="10.00" fill="#000000">Array.h</text>
</a>
</g>
</g>
<!-- Node4&#45;&gt;Node5 -->
<g id="edge1" class="edge">
<title>Node4&#45;&gt;Node5</title>
<path fill="none" stroke="#191970" d="M224.246,-705.71C211.2219,-682.4848 192.901,-645.6749 185.5,-611 181.6035,-592.7445 179.011,-586.5025 185.5,-569 190.6261,-555.1735 200.774,-542.4473 210.5115,-532.5441"/>
<polygon fill="#191970" stroke="#191970" points="221.2735,-707.5622 229.2852,-714.4949 227.3455,-704.0792 221.2735,-707.5622"/>
</g>
<!-- Node13 -->
<g id="node10" class="node">
<title>Node13</title>
<g id="a_node10"><a xlink:href="_control_system_adapter_control_system_8h.html" target="_top" xlink:title="include/ChimeraTK/Control\lSystemAdapterControlSystem.h">
<polygon fill="#ffffff" stroke="#000000" points="0,-67.5 0,-97.5 173,-97.5 173,-67.5 0,-67.5"/>
<text text-anchor="start" x="8" y="-85.5" font-family="Helvetica,sans-Serif" font-size="10.00" fill="#000000">include/ChimeraTK/Control</text>
<text text-anchor="middle" x="86.5" y="-74.5" font-family="Helvetica,sans-Serif" font-size="10.00" fill="#000000">SystemAdapterControlSystem.h</text>
</a>
</g>
</g>
<!-- Node4&#45;&gt;Node13 -->
<g id="edge36" class="edge">
<title>Node4&#45;&gt;Node13</title>
<path fill="none" stroke="#191970" d="M148.0833,-711.8049C84.422,-693.4821 10.5,-657.6427 10.5,-590 10.5,-590 10.5,-590 10.5,-227.5 10.5,-174.9195 50.1896,-122.6106 72.205,-97.64"/>
<polygon fill="#191970" stroke="#191970" points="147.2237,-715.1985 157.7949,-714.4902 149.0893,-708.4517 147.2237,-715.1985"/>
</g>
<!-- Node21 -->
<g id="node18" class="node">
<title>Node21</title>
<g id="a_node18"><a xlink:href="_control_system_adapter_device_8h.html" target="_top" xlink:title="include/ChimeraTK/Control\lSystemAdapterDevice.h">
<polygon fill="#ffffff" stroke="#000000" points="1069,-212.5 1069,-242.5 1216,-242.5 1216,-212.5 1069,-212.5"/>
<text text-anchor="start" x="1077" y="-230.5" font-family="Helvetica,sans-Serif" font-size="10.00" fill="#000000">include/ChimeraTK/Control</text>
<text text-anchor="middle" x="1142.5" y="-219.5" font-family="Helvetica,sans-Serif" font-size="10.00" fill="#000000">SystemAdapterDevice.h</text>
</a>
</g>
</g>
<!-- Node4&#45;&gt;Node21 -->
<g id="edge37" class="edge">
<title>Node4&#45;&gt;Node21</title>
<path fill="none" stroke="#191970" d="M358.4325,-723.4733C606.3912,-709.4057 1152.5,-669.4091 1152.5,-590 1152.5,-590 1152.5,-590 1152.5,-372.5 1152.5,-325.0612 1147.1069,-269.0987 1144.2419,-242.7157"/>
<polygon fill="#191970" stroke="#191970" points="358.0831,-719.9873 348.2955,-724.0434 358.4762,-726.9763 358.0831,-719.9873"/>
</g>
<!-- Node24 -->
<g id="node21" class="node">
<title>Node24</title>
<g id="a_node21"><a xlink:href="_process_array_8h.html" target="_top" xlink:title="include/ChimeraTK/Control\lSystemAdapter/ProcessArray.h">
<polygon fill="#ffffff" stroke="#000000" points="266.5,-647.5 266.5,-677.5 432.5,-677.5 432.5,-647.5 266.5,-647.5"/>
<text text-anchor="start" x="274.5" y="-665.5" font-family="Helvetica,sans-Serif" font-size="10.00" fill="#000000">include/ChimeraTK/Control</text>
<text text-anchor="middle" x="349.5" y="-654.5" font-family="Helvetica,sans-Serif" font-size="10.00" fill="#000000">SystemAdapter/ProcessArray.h</text>
</a>
</g>
</g>
<!-- Node4&#45;&gt;Node24 -->
<g id="edge28" class="edge">
<title>Node4&#45;&gt;Node24</title>
<path fill="none" stroke="#191970" d="M272.3366,-709.0761C289.0672,-698.9774 308.9132,-686.9983 324.2885,-677.7177"/>
<polygon fill="#191970" stroke="#191970" points="270.1632,-706.2998 263.4106,-714.4639 273.7806,-712.2927 270.1632,-706.2998"/>
</g>
<!-- Node25 -->
<g id="node22" class="node">
<title>Node25</title>
<g id="a_node22"><a xlink:href="_unidirectional_process_array_8h.html" target="_top" xlink:title="include/ChimeraTK/Control\lSystemAdapter/UnidirectionalProcess\lArray.h">
<polygon fill="#ffffff" stroke="#000000" points="194.5,-569.5 194.5,-610.5 394.5,-610.5 394.5,-569.5 194.5,-569.5"/>
<text text-anchor="start" x="202.5" y="-598.5" font-family="Helvetica,sans-Serif" font-size="10.00" fill="#000000">include/ChimeraTK/Control</text>
<text text-anchor="start" x="202.5" y="-587.5" font-family="Helvetica,sans-Serif" font-size="10.00" fill="#000000">SystemAdapter/UnidirectionalProcess</text>
<text text-anchor="middle" x="294.5" y="-576.5" font-family="Helvetica,sans-Serif" font-size="10.00" fill="#000000">Array.h</text>
</a>
</g>
</g>
<!-- Node4&#45;&gt;Node25 -->
<g id="edge35" class="edge">
<title>Node4&#45;&gt;Node25</title>
<path fill="none" stroke="#191970" d="M241.9558,-704.3063C244.8095,-687.5924 249.6866,-665.4262 257.5,-647 262.9348,-634.1832 271.2206,-621.0714 278.5744,-610.6598"/>
<polygon fill="#191970" stroke="#191970" points="238.4632,-703.985 240.3621,-714.4083 245.3777,-705.0759 238.4632,-703.985"/>
</g>
<!-- Node6 -->
<g id="node3" class="node">
<title>Node6</title>
<g id="a_node3"><a xlink:href="_p_v_manager_8h.html" target="_top" xlink:title="include/ChimeraTK/Control\lSystemAdapter/PVManager.h">
<polygon fill="#ffffff" stroke="#000000" points="280.5,-424.5 280.5,-454.5 438.5,-454.5 438.5,-424.5 280.5,-424.5"/>
<text text-anchor="start" x="288.5" y="-442.5" font-family="Helvetica,sans-Serif" font-size="10.00" fill="#000000">include/ChimeraTK/Control</text>
<text text-anchor="middle" x="359.5" y="-431.5" font-family="Helvetica,sans-Serif" font-size="10.00" fill="#000000">SystemAdapter/PVManager.h</text>
</a>
</g>
</g>
<!-- Node5&#45;&gt;Node6 -->
<g id="edge2" class="edge">
<title>Node5&#45;&gt;Node6</title>
<path fill="none" stroke="#191970" d="M278.7576,-486.3306C297.064,-475.7129 317.659,-463.7678 333.4671,-454.5991"/>
<polygon fill="#191970" stroke="#191970" points="276.8799,-483.3735 269.9856,-491.4183 280.392,-489.4287 276.8799,-483.3735"/>
</g>
<!-- Node7 -->
<g id="node4" class="node">
<title>Node7</title>
<g id="a_node4"><a xlink:href="_device_p_v_manager_8h.html" target="_top" xlink:title="include/ChimeraTK/Control\lSystemAdapter/DevicePVManager.h">
<polygon fill="#ffffff" stroke="#000000" points="597,-357.5 597,-387.5 788,-387.5 788,-357.5 597,-357.5"/>
<text text-anchor="start" x="605" y="-375.5" font-family="Helvetica,sans-Serif" font-size="10.00" fill="#000000">include/ChimeraTK/Control</text>
<text text-anchor="middle" x="692.5" y="-364.5" font-family="Helvetica,sans-Serif" font-size="10.00" fill="#000000">SystemAdapter/DevicePVManager.h</text>
</a>
</g>
</g>
<!-- Node6&#45;&gt;Node7 -->
<g id="edge3" class="edge">
<title>Node6&#45;&gt;Node7</title>
<path fill="none" stroke="#191970" d="M444.0456,-422.4893C497.5837,-411.7174 566.1831,-397.9151 617.7302,-387.5438"/>
<polygon fill="#191970" stroke="#191970" points="443.3448,-419.0601 434.2317,-424.4639 444.7256,-425.9226 443.3448,-419.0601"/>
</g>
<!-- Node11 -->
<g id="node8" class="node">
<title>Node11</title>
<g id="a_node8"><a xlink:href="_control_system_p_v_manager_8h.html" target="_top" xlink:title="include/ChimeraTK/Control\lSystemAdapter/ControlSystemPVManager.h">
<polygon fill="#ffffff" stroke="#000000" points="76.5,-212.5 76.5,-242.5 306.5,-242.5 306.5,-212.5 76.5,-212.5"/>
<text text-anchor="start" x="84.5" y="-230.5" font-family="Helvetica,sans-Serif" font-size="10.00" fill="#000000">include/ChimeraTK/Control</text>
<text text-anchor="middle" x="191.5" y="-219.5" font-family="Helvetica,sans-Serif" font-size="10.00" fill="#000000">SystemAdapter/ControlSystemPVManager.h</text>
</a>
</g>
</g>
<!-- Node6&#45;&gt;Node11 -->
<g id="edge26" class="edge">
<title>Node6&#45;&gt;Node11</title>
<path fill="none" stroke="#191970" d="M341.0323,-416.1955C306.3617,-372.4445 232.4195,-279.1365 203.4727,-242.6084"/>
<polygon fill="#191970" stroke="#191970" points="338.4639,-418.5898 347.4179,-424.2535 343.9501,-414.2422 338.4639,-418.5898"/>
</g>
<!-- Node17 -->
<g id="node14" class="node">
<title>Node17</title>
<g id="a_node14"><a xlink:href="_p_v_manager_8cc.html" target="_top" xlink:title="src/PVManager.cc">
<polygon fill="#ffffff" stroke="#000000" points="604,-145.5 604,-164.5 705,-164.5 705,-145.5 604,-145.5"/>
<text text-anchor="middle" x="654.5" y="-152.5" font-family="Helvetica,sans-Serif" font-size="10.00" fill="#000000">src/PVManager.cc</text>
</a>
</g>
</g>
<!-- Node6&#45;&gt;Node17 -->
<g id="edge27" class="edge">
<title>Node6&#45;&gt;Node17</title>
<path fill="none" stroke="#191970" d="M383.0466,-417.3199C407.8779,-393.7703 447.9711,-355.2908 481.5,-321 499.3089,-302.7864 498.9569,-292.5936 520.5,-279 565.7937,-250.4199 599.386,-282.549 635.5,-243 655.7356,-220.8397 656.3053,-182.4199 655.3254,-164.5949"/>
<polygon fill="#191970" stroke="#191970" points="380.4051,-415.0009 375.5484,-424.4171 385.2171,-420.0848 380.4051,-415.0009"/>
</g>
<!-- Node8 -->
<g id="node5" class="node">
<title>Node8</title>
<g id="a_node5"><a xlink:href="_independent_control_core_8h.html" target="_top" xlink:title="examples/cosade/Independent\lControlCore.h">
<polygon fill="#ffffff" stroke="#000000" points="720.5,-212.5 720.5,-242.5 886.5,-242.5 886.5,-212.5 720.5,-212.5"/>
<text text-anchor="start" x="728.5" y="-230.5" font-family="Helvetica,sans-Serif" font-size="10.00" fill="#000000">examples/cosade/Independent</text>
<text text-anchor="middle" x="803.5" y="-219.5" font-family="Helvetica,sans-Serif" font-size="10.00" fill="#000000">ControlCore.h</text>
</a>
</g>
</g>
<!-- Node7&#45;&gt;Node8 -->
<g id="edge4" class="edge">
<title>Node7&#45;&gt;Node8</title>
<path fill="none" stroke="#191970" d="M704.8043,-348.5818C715.4052,-328.9886 731.7654,-301.0081 749.5,-279 760.2298,-265.6846 774.2514,-252.4084 785.3175,-242.6712"/>
<polygon fill="#191970" stroke="#191970" points="701.6862,-346.991 700.0821,-357.4637 707.8669,-350.2771 701.6862,-346.991"/>
</g>
<!-- Node10 -->
<g id="node7" class="node">
<title>Node10</title>
<g id="a_node7"><a xlink:href="_application_base_8h.html" target="_top" xlink:title="include/ChimeraTK/Control\lSystemAdapter/ApplicationBase.h">
<polygon fill="#ffffff" stroke="#000000" points="290.5,-285 290.5,-315 472.5,-315 472.5,-285 290.5,-285"/>
<text text-anchor="start" x="298.5" y="-303" font-family="Helvetica,sans-Serif" font-size="10.00" fill="#000000">include/ChimeraTK/Control</text>
<text text-anchor="middle" x="381.5" y="-292" font-family="Helvetica,sans-Serif" font-size="10.00" fill="#000000">SystemAdapter/ApplicationBase.h</text>
</a>
</g>
</g>
<!-- Node7&#45;&gt;Node10 -->
<g id="edge6" class="edge">
<title>Node7&#45;&gt;Node10</title>
<path fill="none" stroke="#191970" d="M618.1322,-355.1635C565.6267,-342.9234 495.979,-326.6872 445.8568,-315.0028"/>
<polygon fill="#191970" stroke="#191970" points="617.5271,-358.6162 628.0606,-357.478 619.1164,-351.799 617.5271,-358.6162"/>
</g>
<!-- Node7&#45;&gt;Node17 -->
<g id="edge25" class="edge">
<title>Node7&#45;&gt;Node17</title>
<path fill="none" stroke="#191970" d="M689.4538,-347.2176C685.4627,-315.4905 677.8592,-259.4758 668.5,-212 665.1889,-195.2041 660.1943,-175.905 657.1518,-164.6215"/>
<polygon fill="#191970" stroke="#191970" points="686.0089,-347.8793 690.7117,-357.3731 692.9558,-347.0187 686.0089,-347.8793"/>
</g>
<!-- Node20 -->
<g id="node17" class="node">
<title>Node20</title>
<g id="a_node17"><a xlink:href="_device_synchronization_utility_8h.html" target="_top" xlink:title="include/ChimeraTK/Control\lSystemAdapter/DeviceSynchronization\lUtility.h">
<polygon fill="#ffffff" stroke="#000000" points="758.5,-279.5 758.5,-320.5 964.5,-320.5 964.5,-279.5 758.5,-279.5"/>
<text text-anchor="start" x="766.5" y="-308.5" font-family="Helvetica,sans-Serif" font-size="10.00" fill="#000000">include/ChimeraTK/Control</text>
<text text-anchor="start" x="766.5" y="-297.5" font-family="Helvetica,sans-Serif" font-size="10.00" fill="#000000">SystemAdapter/DeviceSynchronization</text>
<text text-anchor="middle" x="861.5" y="-286.5" font-family="Helvetica,sans-Serif" font-size="10.00" fill="#000000">Utility.h</text>
</a>
</g>
</g>
<!-- Node7&#45;&gt;Node20 -->
<g id="edge18" class="edge">
<title>Node7&#45;&gt;Node20</title>
<path fill="none" stroke="#191970" d="M736.9422,-353.4346C760.5593,-343.303 789.6079,-330.8413 813.7103,-320.5015"/>
<polygon fill="#191970" stroke="#191970" points="735.3271,-350.3189 727.5169,-357.478 738.0868,-356.7519 735.3271,-350.3189"/>
</g>
<!-- Node7&#45;&gt;Node21 -->
<g id="edge23" class="edge">
<title>Node7&#45;&gt;Node21</title>
<path fill="none" stroke="#191970" d="M798.3457,-359.6235C864.7343,-350.3043 943.2797,-336.6351 973.5,-321 997.2273,-308.7242 994.1661,-293.6587 1016.5,-279 1040.1089,-263.5045 1069.132,-251.2537 1093.3702,-242.5948"/>
<polygon fill="#191970" stroke="#191970" points="797.6516,-356.1861 788.2258,-361.024 798.6113,-363.12 797.6516,-356.1861"/>
</g>
<!-- Node23 -->
<g id="node20" class="node">
<title>Node23</title>
<g id="a_node20"><a xlink:href="_device_p_v_manager_8cc.html" target="_top" xlink:title="src/DevicePVManager.cc">
<polygon fill="#ffffff" stroke="#000000" points="529,-290.5 529,-309.5 664,-309.5 664,-290.5 529,-290.5"/>
<text text-anchor="middle" x="596.5" y="-297.5" font-family="Helvetica,sans-Serif" font-size="10.00" fill="#000000">src/DevicePVManager.cc</text>
</a>
</g>
</g>
<!-- Node7&#45;&gt;Node23 -->
<g id="edge24" class="edge">
<title>Node7&#45;&gt;Node23</title>
<path fill="none" stroke="#191970" d="M664.6064,-351.4345C646.3579,-337.6531 623.3769,-320.2976 609.321,-309.6825"/>
<polygon fill="#191970" stroke="#191970" points="662.5194,-354.2444 672.6087,-357.478 666.738,-348.6583 662.5194,-354.2444"/>
</g>
<!-- Node9 -->
<g id="node6" class="node">
<title>Node9</title>
<g id="a_node6"><a xlink:href="test_independent_control_core_8cpp.html" target="_top" xlink:title="examples/cosade/testIndependent\lControlCore.cpp">
<polygon fill="#ffffff" stroke="#000000" points="587,-67.5 587,-97.5 772,-97.5 772,-67.5 587,-67.5"/>
<text text-anchor="start" x="595" y="-85.5" font-family="Helvetica,sans-Serif" font-size="10.00" fill="#000000">examples/cosade/testIndependent</text>
<text text-anchor="middle" x="679.5" y="-74.5" font-family="Helvetica,sans-Serif" font-size="10.00" fill="#000000">ControlCore.cpp</text>
</a>
</g>
</g>
<!-- Node8&#45;&gt;Node9 -->
<g id="edge5" class="edge">
<title>Node8&#45;&gt;Node9</title>
<path fill="none" stroke="#191970" d="M783.7528,-204.4085C758.1082,-174.4209 714.0674,-122.9215 692.3611,-97.5392"/>
<polygon fill="#191970" stroke="#191970" points="781.3049,-206.9313 790.4642,-212.2565 786.6249,-202.3818 781.3049,-206.9313"/>
</g>
<!-- Node10&#45;&gt;Node11 -->
<g id="edge7" class="edge">
<title>Node10&#45;&gt;Node11</title>
<path fill="none" stroke="#191970" d="M332.6269,-281.3511C300.9962,-269.2814 260.3567,-253.7743 230.8177,-242.5028"/>
<polygon fill="#191970" stroke="#191970" points="331.5411,-284.6829 342.1319,-284.978 334.0367,-278.1428 331.5411,-284.6829"/>
</g>
<!-- Node18 -->
<g id="node15" class="node">
<title>Node18</title>
<g id="a_node15"><a xlink:href="_application_base_8cc.html" target="_top" xlink:title="src/ApplicationBase.cc">
<polygon fill="#ffffff" stroke="#000000" points="324.5,-218 324.5,-237 450.5,-237 450.5,-218 324.5,-218"/>
<text text-anchor="middle" x="387.5" y="-225" font-family="Helvetica,sans-Serif" font-size="10.00" fill="#000000">src/ApplicationBase.cc</text>
</a>
</g>
</g>
<!-- Node10&#45;&gt;Node18 -->
<g id="edge16" class="edge">
<title>Node10&#45;&gt;Node18</title>
<path fill="none" stroke="#191970" d="M383.5851,-274.805C384.6511,-261.924 385.8876,-246.9836 386.681,-237.3957"/>
<polygon fill="#191970" stroke="#191970" points="380.08,-274.7233 382.7432,-284.978 387.0561,-275.3007 380.08,-274.7233"/>
</g>
<!-- Node19 -->
<g id="node16" class="node">
<title>Node19</title>
<g id="a_node16"><a xlink:href="_persistent_data_storage_8cc.html" target="_top" xlink:title="src/PersistentDataStorage.cc">
<polygon fill="#ffffff" stroke="#000000" points="469,-218 469,-237 626,-237 626,-218 469,-218"/>
<text text-anchor="middle" x="547.5" y="-225" font-family="Helvetica,sans-Serif" font-size="10.00" fill="#000000">src/PersistentDataStorage.cc</text>
</a>
</g>
</g>
<!-- Node10&#45;&gt;Node19 -->
<g id="edge17" class="edge">
<title>Node10&#45;&gt;Node19</title>
<path fill="none" stroke="#191970" d="M425.1053,-280.9555C457.3115,-266.8895 499.8211,-248.3236 525.3304,-237.1825"/>
<polygon fill="#191970" stroke="#191970" points="423.6586,-277.7681 415.8953,-284.978 426.4603,-284.1829 423.6586,-277.7681"/>
</g>
<!-- Node12 -->
<g id="node9" class="node">
<title>Node12</title>
<g id="a_node9"><a xlink:href="_control_system_synchronization_utility_8h.html" target="_top" xlink:title="include/ChimeraTK/Control\lSystemAdapter/ControlSystemSynchronization\lUtility.h">
<polygon fill="#ffffff" stroke="#000000" points="306,-134.5 306,-175.5 551,-175.5 551,-134.5 306,-134.5"/>
<text text-anchor="start" x="314" y="-163.5" font-family="Helvetica,sans-Serif" font-size="10.00" fill="#000000">include/ChimeraTK/Control</text>
<text text-anchor="start" x="314" y="-152.5" font-family="Helvetica,sans-Serif" font-size="10.00" fill="#000000">SystemAdapter/ControlSystemSynchronization</text>
<text text-anchor="middle" x="428.5" y="-141.5" font-family="Helvetica,sans-Serif" font-size="10.00" fill="#000000">Utility.h</text>
</a>
</g>
</g>
<!-- Node11&#45;&gt;Node12 -->
<g id="edge8" class="edge">
<title>Node11&#45;&gt;Node12</title>
<path fill="none" stroke="#191970" d="M250.321,-209.5062C284.0384,-199.1918 326.4791,-186.2089 361.4813,-175.5015"/>
<polygon fill="#191970" stroke="#191970" points="249.1453,-206.2057 240.6066,-212.478 251.193,-212.8995 249.1453,-206.2057"/>
</g>
<!-- Node11&#45;&gt;Node13 -->
<g id="edge13" class="edge">
<title>Node11&#45;&gt;Node13</title>
<path fill="none" stroke="#191970" d="M142.9052,-207.6508C128.9097,-199.7357 114.9011,-189.2845 105.5,-176 88.755,-152.3379 86.0249,-117.3338 85.9736,-97.5516"/>
<polygon fill="#191970" stroke="#191970" points="141.5758,-210.9072 152.0517,-212.4903 144.8496,-204.7198 141.5758,-210.9072"/>
</g>
<!-- Node16 -->
<g id="node13" class="node">
<title>Node16</title>
<g id="a_node13"><a xlink:href="_control_system_p_v_manager_8cc.html" target="_top" xlink:title="src/ControlSystemPVManager.cc">
<polygon fill="#ffffff" stroke="#000000" points="115,-145.5 115,-164.5 288,-164.5 288,-145.5 115,-145.5"/>
<text text-anchor="middle" x="201.5" y="-152.5" font-family="Helvetica,sans-Serif" font-size="10.00" fill="#000000">src/ControlSystemPVManager.cc</text>
</a>
</g>
</g>
<!-- Node11&#45;&gt;Node16 -->
<g id="edge14" class="edge">
<title>Node11&#45;&gt;Node16</title>
<path fill="none" stroke="#191970" d="M194.9752,-202.305C196.7519,-189.424 198.8126,-174.4836 200.1351,-164.8957"/>
<polygon fill="#191970" stroke="#191970" points="191.4713,-202.0935 193.572,-212.478 198.4056,-203.05 191.4713,-202.0935"/>
</g>
<!-- Node11&#45;&gt;Node17 -->
<g id="edge15" class="edge">
<title>Node11&#45;&gt;Node17</title>
<path fill="none" stroke="#191970" d="M316.6919,-211.1315C404.8339,-199.3967 514.919,-184.2582 560.5,-176 578.5993,-172.7208 598.4998,-168.3824 615.312,-164.5005"/>
<polygon fill="#191970" stroke="#191970" points="316.0554,-207.6853 306.6038,-212.4725 316.9778,-214.6242 316.0554,-207.6853"/>
</g>
<!-- Node12&#45;&gt;Node9 -->
<g id="edge9" class="edge">
<title>Node12&#45;&gt;Node9</title>
<path fill="none" stroke="#191970" d="M509.4274,-131.6246C548.0625,-120.465 593.1747,-107.4346 627.2259,-97.5991"/>
<polygon fill="#191970" stroke="#191970" points="508.3911,-128.2807 499.7551,-134.4183 510.3337,-135.0058 508.3911,-128.2807"/>
</g>
<!-- Node12&#45;&gt;Node13 -->
<g id="edge10" class="edge">
<title>Node12&#45;&gt;Node13</title>
<path fill="none" stroke="#191970" d="M321.5484,-132.3275C268.0863,-120.9942 204.8608,-107.5911 157.4567,-97.542"/>
<polygon fill="#191970" stroke="#191970" points="320.9029,-135.7684 331.4113,-134.4183 322.3546,-128.9205 320.9029,-135.7684"/>
</g>
<!-- Node15 -->
<g id="node12" class="node">
<title>Node15</title>
<g id="a_node12"><a xlink:href="_control_system_synchronization_utility_8cc.html" target="_top" xlink:title="src/ControlSystemSynchronization\lUtility.cc">
<polygon fill="#ffffff" stroke="#000000" points="336.5,-67.5 336.5,-97.5 520.5,-97.5 520.5,-67.5 336.5,-67.5"/>
<text text-anchor="start" x="344.5" y="-85.5" font-family="Helvetica,sans-Serif" font-size="10.00" fill="#000000">src/ControlSystemSynchronization</text>
<text text-anchor="middle" x="428.5" y="-74.5" font-family="Helvetica,sans-Serif" font-size="10.00" fill="#000000">Utility.cc</text>
</a>
</g>
</g>
<!-- Node12&#45;&gt;Node15 -->
<g id="edge12" class="edge">
<title>Node12&#45;&gt;Node15</title>
<path fill="none" stroke="#191970" d="M428.5,-124.3279C428.5,-115.0871 428.5,-105.3508 428.5,-97.5991"/>
<polygon fill="#191970" stroke="#191970" points="425.0001,-124.4183 428.5,-134.4183 432.0001,-124.4184 425.0001,-124.4183"/>
</g>
<!-- Node14 -->
<g id="node11" class="node">
<title>Node14</title>
<g id="a_node11"><a xlink:href="_control_system_adapter_8h.html" target="_top" xlink:title="include/ChimeraTK/Control\lSystemAdapter.h">
<polygon fill="#ffffff" stroke="#000000" points="355,-.5 355,-30.5 502,-30.5 502,-.5 355,-.5"/>
<text text-anchor="start" x="363" y="-18.5" font-family="Helvetica,sans-Serif" font-size="10.00" fill="#000000">include/ChimeraTK/Control</text>
<text text-anchor="middle" x="428.5" y="-7.5" font-family="Helvetica,sans-Serif" font-size="10.00" fill="#000000">SystemAdapter.h</text>
</a>
</g>
</g>
<!-- Node13&#45;&gt;Node14 -->
<g id="edge11" class="edge">
<title>Node13&#45;&gt;Node14</title>
<path fill="none" stroke="#191970" d="M173.1797,-65.5189C229.3112,-54.5224 301.6112,-40.3583 354.9372,-29.9114"/>
<polygon fill="#191970" stroke="#191970" points="172.392,-62.1066 163.2515,-67.4639 173.7378,-68.976 172.392,-62.1066"/>
</g>
<!-- Node20&#45;&gt;Node8 -->
<g id="edge19" class="edge">
<title>Node20&#45;&gt;Node8</title>
<path fill="none" stroke="#191970" d="M838.624,-271.405C830.7512,-261.564 822.2474,-250.9343 815.5793,-242.5991"/>
<polygon fill="#191970" stroke="#191970" points="836.0546,-273.7961 845.0347,-279.4183 841.5207,-269.4232 836.0546,-273.7961"/>
</g>
<!-- Node20&#45;&gt;Node21 -->
<g id="edge20" class="edge">
<title>Node20&#45;&gt;Node21</title>
<path fill="none" stroke="#191970" d="M951.0019,-276.9079C994.4959,-265.6861 1045.5339,-252.5179 1083.9779,-242.5991"/>
<polygon fill="#191970" stroke="#191970" points="950.0802,-273.531 941.2717,-279.4183 951.829,-280.309 950.0802,-273.531"/>
</g>
<!-- Node22 -->
<g id="node19" class="node">
<title>Node22</title>
<g id="a_node19"><a xlink:href="_device_synchronization_utility_8cc.html" target="_top" xlink:title="src/DeviceSynchronization\lUtility.cc">
<polygon fill="#ffffff" stroke="#000000" points="904.5,-212.5 904.5,-242.5 1050.5,-242.5 1050.5,-212.5 904.5,-212.5"/>
<text text-anchor="start" x="912.5" y="-230.5" font-family="Helvetica,sans-Serif" font-size="10.00" fill="#000000">src/DeviceSynchronization</text>
<text text-anchor="middle" x="977.5" y="-219.5" font-family="Helvetica,sans-Serif" font-size="10.00" fill="#000000">Utility.cc</text>
</a>
</g>
</g>
<!-- Node20&#45;&gt;Node22 -->
<g id="edge22" class="edge">
<title>Node20&#45;&gt;Node22</title>
<path fill="none" stroke="#191970" d="M903.0349,-274.0407C919.9065,-263.4959 938.8049,-251.6844 953.3414,-242.5991"/>
<polygon fill="#191970" stroke="#191970" points="901.0556,-271.1503 894.4307,-279.4183 904.7657,-277.0863 901.0556,-271.1503"/>
</g>
<!-- Node21&#45;&gt;Node14 -->
<g id="edge21" class="edge">
<title>Node21&#45;&gt;Node14</title>
<path fill="none" stroke="#191970" d="M1106.5667,-207.5227C1043.0392,-173.1299 905.841,-102.9719 781.5,-67 687.2022,-39.7197 574.3543,-26.4783 502.0742,-20.3492"/>
<polygon fill="#191970" stroke="#191970" points="1104.9384,-210.6213 1115.3947,-212.3292 1108.2857,-204.4735 1104.9384,-210.6213"/>
</g>
<!-- Node24&#45;&gt;Node13 -->
<g id="edge32" class="edge">
<title>Node24&#45;&gt;Node13</title>
<path fill="none" stroke="#191970" d="M257.0001,-644.5681C232.2755,-636.9107 206.5905,-626.1203 185.5,-611 150.6046,-585.9826 145.9765,-572.219 128.5,-533 69.3911,-400.3541 56.9316,-356.8347 67.5,-212 70.5428,-170.2999 79.027,-121.6438 83.5587,-97.5733"/>
<polygon fill="#191970" stroke="#191970" points="256.2008,-647.9813 266.7825,-647.4547 258.1819,-641.2675 256.2008,-647.9813"/>
</g>
<!-- Node24&#45;&gt;Node21 -->
<g id="edge33" class="edge">
<title>Node24&#45;&gt;Node21</title>
<path fill="none" stroke="#191970" d="M391.2808,-643.2033C497.0256,-593.8651 782.8939,-457.3615 1008.5,-321 1050.4997,-295.6144 1096.9294,-261.8394 1122.6212,-242.6069"/>
<polygon fill="#191970" stroke="#191970" points="389.7926,-640.0354 382.2051,-647.43 392.7479,-646.381 389.7926,-640.0354"/>
</g>
<!-- Node24&#45;&gt;Node25 -->
<g id="edge29" class="edge">
<title>Node24&#45;&gt;Node25</title>
<path fill="none" stroke="#191970" d="M331.9838,-639.4104C324.9403,-630.1259 316.8858,-619.5086 310.0529,-610.5015"/>
<polygon fill="#191970" stroke="#191970" points="329.2716,-641.6264 338.104,-647.478 334.8485,-637.3957 329.2716,-641.6264"/>
</g>
<!-- Node26 -->
<g id="node23" class="node">
<title>Node26</title>
<g id="a_node23"><a xlink:href="_unidirectional_process_array_8cc.html" target="_top" xlink:title="src/UnidirectionalProcess\lArray.cc">
<polygon fill="#ffffff" stroke="#000000" points="984.5,-575 984.5,-605 1124.5,-605 1124.5,-575 984.5,-575"/>
<text text-anchor="start" x="992.5" y="-593" font-family="Helvetica,sans-Serif" font-size="10.00" fill="#000000">src/UnidirectionalProcess</text>
<text text-anchor="middle" x="1054.5" y="-582" font-family="Helvetica,sans-Serif" font-size="10.00" fill="#000000">Array.cc</text>
</a>
</g>
</g>
<!-- Node24&#45;&gt;Node26 -->
<g id="edge34" class="edge">
<title>Node24&#45;&gt;Node26</title>
<path fill="none" stroke="#191970" d="M442.6971,-659.4835C564.6797,-654.4609 784.8009,-641.704 970.5,-611 979.9917,-609.4306 989.9876,-607.3334 999.6423,-605.0704"/>
<polygon fill="#191970" stroke="#191970" points="442.4958,-655.9886 432.6451,-659.8889 442.7781,-662.9829 442.4958,-655.9886"/>
</g>
<!-- Node25&#45;&gt;Node5 -->
<g id="edge30" class="edge">
<title>Node25&#45;&gt;Node5</title>
<path fill="none" stroke="#191970" d="M272.2619,-561.0905C265.0097,-551.6626 257.1076,-541.3899 250.4152,-532.6898"/>
<polygon fill="#191970" stroke="#191970" points="269.5498,-563.3052 278.4211,-569.0974 275.0981,-559.0372 269.5498,-563.3052"/>
</g>
<!-- Node25&#45;&gt;Node6 -->
<g id="edge31" class="edge">
<title>Node25&#45;&gt;Node6</title>
<path fill="none" stroke="#191970" d="M321.798,-561.6303C328.8267,-553.0043 335.7413,-543.115 340.5,-533 352.6287,-507.2198 357.0364,-473.8743 358.623,-454.767"/>
<polygon fill="#191970" stroke="#191970" points="318.9262,-559.6034 315.0908,-569.4796 324.248,-564.1508 318.9262,-559.6034"/>
</g>
</g>
</svg>
        <g id="navigator" transform="translate(0 0)" fill="#404254">
                <rect fill="#f2f5e9" fill-opacity="0.5" stroke="#606060" stroke-width=".5" x="0" y="0" width="60" height="60"/>
                <use id="zoomplus" xlink:href="#zoomPlus" x="17" y="9" onmousedown="handleZoom(evt,'in')"/>
                <use id="zoomminus" xlink:href="#zoomMin" x="42" y="9" onmousedown="handleZoom(evt,'out')"/>
                <use id="reset" xlink:href="#resetDef" x="30" y="36" onmousedown="handleReset()"/>
                <g id="arrowUp" xlink:href="#dirArrow" transform="translate(30 24)" onmousedown="handlePan(0,-1)">
                  <use xlink:href="#rim" fill="#404040">
                        <set attributeName="fill" to="#808080" begin="arrowUp.mouseover" end="arrowUp.mouseout"/>
                  </use>
                  <path fill="none" stroke="white" stroke-width="1.5" d="M0,-3.0v7 M-2.5,-0.5L0,-3.0L2.5,-0.5"/>
                </g>
                <g id="arrowRight" xlink:href="#dirArrow" transform="rotate(90) translate(36 -43)" onmousedown="handlePan(1,0)">
                  <use xlink:href="#rim" fill="#404040">
                        <set attributeName="fill" to="#808080" begin="arrowRight.mouseover" end="arrowRight.mouseout"/>
                  </use>
                  <path fill="none" stroke="white" stroke-width="1.5" d="M0,-3.0v7 M-2.5,-0.5L0,-3.0L2.5,-0.5"/>
                </g>
                <g id="arrowDown" xlink:href="#dirArrow" transform="rotate(180) translate(-30 -48)" onmousedown="handlePan(0,1)">
                  <use xlink:href="#rim" fill="#404040">
                        <set attributeName="fill" to="#808080" begin="arrowDown.mouseover" end="arrowDown.mouseout"/>
                  </use>
                  <path fill="none" stroke="white" stroke-width="1.5" d="M0,-3.0v7 M-2.5,-0.5L0,-3.0L2.5,-0.5"/>
                </g>
                <g id="arrowLeft" xlink:href="#dirArrow" transform="rotate(270) translate(-36 17)" onmousedown="handlePan(-1,0)">
                  <use xlink:href="#rim" fill="#404040">
                        <set attributeName="fill" to="#808080" begin="arrowLeft.mouseover" end="arrowLeft.mouseout"/>
                  </use>
                  <path fill="none" stroke="white" stroke-width="1.5" d="M0,-3.0v7 M-2.5,-0.5L0,-3.0L2.5,-0.5"/>
                </g>
        </g>
        <svg viewBox="0 0 15 15" width="100%" height="30px" preserveAspectRatio="xMaxYMin meet">
         <g id="arrow_out" transform="scale(0.3 0.3)">
          <a xlink:href="_process_variable_listener_8h__dep__incl_org.svg" target="_base">
           <rect id="button" ry="5" rx="5" y="6" x="6" height="38" width="38"
                fill="#f2f5e9" fill-opacity="0.5" stroke="#606060" stroke-width="1.0"/>
           <path id="arrow"
             d="M 11.500037,31.436501 C 11.940474,20.09759 22.043105,11.32322 32.158766,21.979434 L 37.068811,17.246167 C 37.068811,17.246167 37.088388,32 37.088388,32 L 22.160133,31.978069 C 22.160133,31.978069 26.997745,27.140456 26.997745,27.140456 C 18.528582,18.264221 13.291696,25.230495 11.500037,31.436501 z"
             style="fill:#404040;"/>
          </a>
         </g>
        </svg>
</svg>
