<?xml version="1.0" encoding="UTF-8" standalone="no"?>
<!DOCTYPE svg PUBLIC "-//W3C//DTD SVG 1.1//EN"
 "http://www.w3.org/Graphics/SVG/1.1/DTD/svg11.dtd">
<!-- Generated by graphviz version 2.40.1 (20161225.0304)
 -->
<!-- Title: ua_uaadapter::workerThread Pages: 1 -->
<svg width="538pt" height="104pt"
 viewBox="0.00 0.00 538.00 104.00" xmlns="http://www.w3.org/2000/svg" xmlns:xlink="http://www.w3.org/1999/xlink">
<g id="graph0" class="graph" transform="scale(1 1) rotate(0) translate(4 100)">
<title>ua_uaadapter::workerThread</title>
<polygon fill="#ffffff" stroke="transparent" points="-4,4 -4,-100 534,-100 534,4 -4,4"/>
<!-- Node169 -->
<g id="node1" class="node">
<title>Node169</title>
<polygon fill="#bfbfbf" stroke="#000000" points="0,-38.5 0,-57.5 157,-57.5 157,-38.5 0,-38.5"/>
<text text-anchor="middle" x="78.5" y="-45.5" font-family="Helvetica,sans-Serif" font-size="10.00" fill="#000000">ua_uaadapter::workerThread</text>
</g>
<!-- Node170 -->
<g id="node2" class="node">
<title>Node170</title>
<g id="a_node2"><a xlink:href="open62541_8h.html#a5ee7d65cb1dc1a4f87b49f5e53ce405d" target="_top" xlink:title="UA_Server_run_startup">
<polygon fill="#ffffff" stroke="#000000" points="199.5,-76.5 199.5,-95.5 327.5,-95.5 327.5,-76.5 199.5,-76.5"/>
<text text-anchor="middle" x="263.5" y="-83.5" font-family="Helvetica,sans-Serif" font-size="10.00" fill="#000000">UA_Server_run_startup</text>
</a>
</g>
</g>
<!-- Node169&#45;&gt;Node170 -->
<g id="edge1" class="edge">
<title>Node169&#45;&gt;Node170</title>
<path fill="none" stroke="#191970" d="M125.1833,-57.589C150.1459,-62.7165 181.0642,-69.0672 207.334,-74.4632"/>
<polygon fill="#191970" stroke="#191970" points="206.6526,-77.8962 217.1524,-76.4799 208.0611,-71.0394 206.6526,-77.8962"/>
</g>
<!-- Node171 -->
<g id="node3" class="node">
<title>Node171</title>
<g id="a_node3"><a xlink:href="open62541_8h.html#a15467aaf9dde1156abf1ce8fd4339e9b" target="_top" xlink:title="UA_Server_run_iterate">
<polygon fill="#ffffff" stroke="#000000" points="200.5,-38.5 200.5,-57.5 326.5,-57.5 326.5,-38.5 200.5,-38.5"/>
<text text-anchor="middle" x="263.5" y="-45.5" font-family="Helvetica,sans-Serif" font-size="10.00" fill="#000000">UA_Server_run_iterate</text>
</a>
</g>
</g>
<!-- Node169&#45;&gt;Node171 -->
<g id="edge2" class="edge">
<title>Node169&#45;&gt;Node171</title>
<path fill="none" stroke="#191970" d="M157.2249,-48C168.1058,-48 179.2468,-48 190.0274,-48"/>
<polygon fill="#191970" stroke="#191970" points="190.2328,-51.5001 200.2328,-48 190.2327,-44.5001 190.2328,-51.5001"/>
</g>
<!-- Node173 -->
<g id="node5" class="node">
<title>Node173</title>
<g id="a_node5"><a xlink:href="open62541_8h.html#a46b13beed9591c1d2cdb6ce751cb9f3b" target="_top" xlink:title="UA_Server_run_shutdown">
<polygon fill="#ffffff" stroke="#000000" points="193,-.5 193,-19.5 334,-19.5 334,-.5 193,-.5"/>
<text text-anchor="middle" x="263.5" y="-7.5" font-family="Helvetica,sans-Serif" font-size="10.00" fill="#000000">UA_Server_run_shutdown</text>
</a>
</g>
</g>
<!-- Node169&#45;&gt;Node173 -->
<g id="edge4" class="edge">
<title>Node169&#45;&gt;Node173</title>
<path fill="none" stroke="#191970" d="M125.1833,-38.411C150.1459,-33.2835 181.0642,-26.9328 207.334,-21.5368"/>
<polygon fill="#191970" stroke="#191970" points="208.0611,-24.9606 217.1524,-19.5201 206.6526,-18.1038 208.0611,-24.9606"/>
</g>
<!-- Node172 -->
<g id="node4" class="node">
<title>Node172</title>
<g id="a_node4"><a xlink:href="open62541_8c.html#add827094c515e557adfe2a50fd7ddafc" target="_top" xlink:title="UA_DateTime_nowMonotonic">
<polygon fill="#ffffff" stroke="#000000" points="370,-38.5 370,-57.5 530,-57.5 530,-38.5 370,-38.5"/>
<text text-anchor="middle" x="450" y="-45.5" font-family="Helvetica,sans-Serif" font-size="10.00" fill="#000000">UA_DateTime_nowMonotonic</text>
</a>
</g>
</g>
<!-- Node171&#45;&gt;Node172 -->
<g id="edge3" class="edge">
<title>Node171&#45;&gt;Node172</title>
<path fill="none" stroke="#191970" d="M326.6404,-48C337.2392,-48 348.4193,-48 359.5463,-48"/>
<polygon fill="#191970" stroke="#191970" points="359.7318,-51.5001 369.7318,-48 359.7317,-44.5001 359.7318,-51.5001"/>
</g>
</g>
</svg>
