<?xml version="1.0" encoding="UTF-8" standalone="no"?>
<!DOCTYPE svg PUBLIC "-//W3C//DTD SVG 1.1//EN"
 "http://www.w3.org/Graphics/SVG/1.1/DTD/svg11.dtd">
<!-- Generated by graphviz version 2.40.1 (20161225.0304)
 -->
<!-- Title: ua_mapped_class::ua_mapSelfToNamespace Pages: 1 -->
<svg width="411pt" height="66pt"
 viewBox="0.00 0.00 411.00 66.00" xmlns="http://www.w3.org/2000/svg" xmlns:xlink="http://www.w3.org/1999/xlink">
<g id="graph0" class="graph" transform="scale(1 1) rotate(0) translate(4 62)">
<title>ua_mapped_class::ua_mapSelfToNamespace</title>
<polygon fill="#ffffff" stroke="transparent" points="-4,4 -4,-62 407,-62 407,4 -4,4"/>
<!-- Node14 -->
<g id="node1" class="node">
<title>Node14</title>
<polygon fill="#bfbfbf" stroke="#000000" points="0,-14 0,-44 131,-44 131,-14 0,-14"/>
<text text-anchor="start" x="8" y="-32" font-family="Helvetica,sans-Serif" font-size="10.00" fill="#000000">ua_mapped_class::ua</text>
<text text-anchor="middle" x="65.5" y="-21" font-family="Helvetica,sans-Serif" font-size="10.00" fill="#000000">_mapSelfToNamespace</text>
</g>
<!-- Node15 -->
<g id="node2" class="node">
<title>Node15</title>
<g id="a_node2"><a xlink:href="open62541_8h.html#a711402f9064cc08c4ca232ac7a6143d7" target="_top" xlink:title="UA_NodeId_equal">
<polygon fill="#ffffff" stroke="#000000" points="167,-19.5 167,-38.5 270,-38.5 270,-19.5 167,-19.5"/>
<text text-anchor="middle" x="218.5" y="-26.5" font-family="Helvetica,sans-Serif" font-size="10.00" fill="#000000">UA_NodeId_equal</text>
</a>
</g>
</g>
<!-- Node14&#45;&gt;Node15 -->
<g id="edge1" class="edge">
<title>Node14&#45;&gt;Node15</title>
<path fill="none" stroke="#191970" d="M131.2737,-29C139.6805,-29 148.2636,-29 156.606,-29"/>
<polygon fill="#191970" stroke="#191970" points="156.6345,-32.5001 166.6345,-29 156.6344,-25.5001 156.6345,-32.5001"/>
</g>
<!-- Node16 -->
<g id="node3" class="node">
<title>Node16</title>
<g id="a_node3"><a xlink:href="open62541_8c.html#a1eae0133787497837706d72ad647b39d" target="_top" xlink:title="UA_String_equal">
<polygon fill="#ffffff" stroke="#000000" points="306,-38.5 306,-57.5 403,-57.5 403,-38.5 306,-38.5"/>
<text text-anchor="middle" x="354.5" y="-45.5" font-family="Helvetica,sans-Serif" font-size="10.00" fill="#000000">UA_String_equal</text>
</a>
</g>
</g>
<!-- Node15&#45;&gt;Node16 -->
<g id="edge2" class="edge">
<title>Node15&#45;&gt;Node16</title>
<path fill="none" stroke="#191970" d="M270.3037,-36.2373C278.7205,-37.4132 287.4887,-38.6381 296.0508,-39.8343"/>
<polygon fill="#191970" stroke="#191970" points="295.5857,-43.3032 305.9739,-41.2206 296.5543,-36.3706 295.5857,-43.3032"/>
</g>
<!-- Node17 -->
<g id="node4" class="node">
<title>Node17</title>
<g id="a_node4"><a xlink:href="open62541_8c.html#aeadb12f99531c38134d0ad28a8dd3186" target="_top" xlink:title="UA_Guid_equal">
<polygon fill="#ffffff" stroke="#000000" points="309,-.5 309,-19.5 400,-19.5 400,-.5 309,-.5"/>
<text text-anchor="middle" x="354.5" y="-7.5" font-family="Helvetica,sans-Serif" font-size="10.00" fill="#000000">UA_Guid_equal</text>
</a>
</g>
</g>
<!-- Node15&#45;&gt;Node17 -->
<g id="edge3" class="edge">
<title>Node15&#45;&gt;Node17</title>
<path fill="none" stroke="#191970" d="M270.3037,-21.7627C279.5649,-20.4689 289.2517,-19.1156 298.6212,-17.8066"/>
<polygon fill="#191970" stroke="#191970" points="299.2089,-21.2586 308.6284,-16.4085 298.2403,-14.3259 299.2089,-21.2586"/>
</g>
</g>
</svg>
