<?xml version="1.0" encoding="UTF-8" standalone="no"?>
<!DOCTYPE svg PUBLIC "-//W3C//DTD SVG 1.1//EN"
 "http://www.w3.org/Graphics/SVG/1.1/DTD/svg11.dtd">
<!-- Generated by graphviz version 2.40.1 (20161225.0304)
 -->
<!-- Title: UA_Server_setObjectTypeNode_lifecycleManagement Pages: 1 -->
<!--zoomable 142 -->
<svg id="main" version="1.1" xmlns="http://www.w3.org/2000/svg" xmlns:xlink="http://www.w3.org/1999/xlink" xml:space="preserve" onload="init(evt)">
<style type="text/css"><![CDATA[
.edge:hover path { stroke: red; }
.edge:hover polygon { stroke: red; fill: red; }
]]></style>
<script type="text/javascript"><![CDATA[
var edges = document.getElementsByTagName('g');
if (edges && edges.length) {
  for (var i=0;i<edges.length;i++) {
    if (edges[i].id.substr(0,4)=='edge') {
      edges[i].setAttribute('class','edge');
    }
  }
}
]]></script>
        <defs>
                <circle id="rim" cx="0" cy="0" r="7"/>
                <circle id="rim2" cx="0" cy="0" r="3.5"/>
                <g id="zoomPlus">
                        <use xlink:href="#rim" fill="#404040">
                                <set attributeName="fill" to="#808080" begin="zoomplus.mouseover" end="zoomplus.mouseout"/>
                        </use>
                        <path d="M-4,0h8M0,-4v8" fill="none" stroke="white" stroke-width="1.5" pointer-events="none"/>
                </g>
                <g id="zoomMin">
                        <use xlink:href="#rim" fill="#404040">
                                <set attributeName="fill" to="#808080" begin="zoomminus.mouseover" end="zoomminus.mouseout"/>
                        </use>
                        <path d="M-4,0h8" fill="none" stroke="white" stroke-width="1.5" pointer-events="none"/>
                </g>
                <g id="dirArrow">
                        <path fill="none" stroke="white" stroke-width="1.5" d="M0,-3.0v7 M-2.5,-0.5L0,-3.0L2.5,-0.5"/>
                </g>
               <g id="resetDef">
                       <use xlink:href="#rim2" fill="#404040">
                               <set attributeName="fill" to="#808080" begin="reset.mouseover" end="reset.mouseout"/>
                       </use>
               </g>
        </defs>

<script type="text/javascript">
var viewWidth = 513;
var viewHeight = 142;
var sectionId = 'dynsection-101';
</script>
<script xlink:href="svgpan.js"/>
<svg id="graph" class="graph">
<g id="viewport">
<title>UA_Server_setObjectTypeNode_lifecycleManagement</title>
<polygon fill="#ffffff" stroke="transparent" points="-4,4 -4,-138 509,-138 509,4 -4,4"/>
<!-- Node680 -->
<g id="node1" class="node">
<title>Node680</title>
<polygon fill="#bfbfbf" stroke="#000000" points="0,-52 0,-82 167,-82 167,-52 0,-52"/>
<text text-anchor="start" x="8" y="-70" font-family="Helvetica,sans-Serif" font-size="10.00" fill="#000000">UA_Server_setObjectTypeNode</text>
<text text-anchor="middle" x="83.5" y="-59" font-family="Helvetica,sans-Serif" font-size="10.00" fill="#000000">_lifecycleManagement</text>
</g>
<!-- Node681 -->
<g id="node2" class="node">
<title>Node681</title>
<g id="a_node2"><a xlink:href="open62541_8c.html#adcb69cba1313c965024356a3bac0540d" target="_top" xlink:title="UA_Server_editNode">
<polygon fill="#ffffff" stroke="#000000" points="203,-57.5 203,-76.5 320,-76.5 320,-57.5 203,-57.5"/>
<text text-anchor="middle" x="261.5" y="-64.5" font-family="Helvetica,sans-Serif" font-size="10.00" fill="#000000">UA_Server_editNode</text>
</a>
</g>
</g>
<!-- Node680&#45;&gt;Node681 -->
<g id="edge1" class="edge">
<title>Node680&#45;&gt;Node681</title>
<path fill="none" stroke="#191970" d="M167.0275,-67C175.6325,-67 184.306,-67 192.7246,-67"/>
<polygon fill="#191970" stroke="#191970" points="192.8453,-70.5001 202.8453,-67 192.8452,-63.5001 192.8453,-70.5001"/>
</g>
<!-- Node682 -->
<g id="node3" class="node">
<title>Node682</title>
<g id="a_node3"><a xlink:href="open62541_8c.html#a2b3cf2a57bdf1f7c5c61c30228de7c0c" target="_top" xlink:title="UA_NodeStore_get">
<polygon fill="#ffffff" stroke="#000000" points="376.5,-114.5 376.5,-133.5 484.5,-133.5 484.5,-114.5 376.5,-114.5"/>
<text text-anchor="middle" x="430.5" y="-121.5" font-family="Helvetica,sans-Serif" font-size="10.00" fill="#000000">UA_NodeStore_get</text>
</a>
</g>
</g>
<!-- Node681&#45;&gt;Node682 -->
<g id="edge2" class="edge">
<title>Node681&#45;&gt;Node682</title>
<path fill="none" stroke="#191970" d="M282.9678,-76.583C301.928,-84.8164 330.4529,-96.6466 356,-105 363.4041,-107.421 371.3041,-109.7255 379.0891,-111.841"/>
<polygon fill="#191970" stroke="#191970" points="378.2806,-115.2474 388.8426,-114.4139 380.0661,-108.4789 378.2806,-115.2474"/>
</g>
<!-- Node683 -->
<g id="node4" class="node">
<title>Node683</title>
<g id="a_node4"><a xlink:href="open62541_8c.html#ac97793ecb1403c4cb4d89844774531ce" target="_top" xlink:title="UA_NodeStore_getCopy">
<polygon fill="#ffffff" stroke="#000000" points="364,-76.5 364,-95.5 497,-95.5 497,-76.5 364,-76.5"/>
<text text-anchor="middle" x="430.5" y="-83.5" font-family="Helvetica,sans-Serif" font-size="10.00" fill="#000000">UA_NodeStore_getCopy</text>
</a>
</g>
</g>
<!-- Node681&#45;&gt;Node683 -->
<g id="edge3" class="edge">
<title>Node681&#45;&gt;Node683</title>
<path fill="none" stroke="#191970" d="M320.1337,-73.592C330.9363,-74.8064 342.3631,-76.0911 353.6086,-77.3554"/>
<polygon fill="#191970" stroke="#191970" points="353.5337,-80.869 363.8622,-78.5082 354.3158,-73.9128 353.5337,-80.869"/>
</g>
<!-- Node684 -->
<g id="node5" class="node">
<title>Node684</title>
<g id="a_node5"><a xlink:href="open62541_8c.html#a13a8b4554c26d5a7594ed7f6e66eb267" target="_top" xlink:title="UA_NodeStore_deleteNode">
<polygon fill="#ffffff" stroke="#000000" points="356,-38.5 356,-57.5 505,-57.5 505,-38.5 356,-38.5"/>
<text text-anchor="middle" x="430.5" y="-45.5" font-family="Helvetica,sans-Serif" font-size="10.00" fill="#000000">UA_NodeStore_deleteNode</text>
</a>
</g>
</g>
<!-- Node681&#45;&gt;Node684 -->
<g id="edge4" class="edge">
<title>Node681&#45;&gt;Node684</title>
<path fill="none" stroke="#191970" d="M320.1337,-60.408C328.4248,-59.4759 337.0836,-58.5024 345.746,-57.5286"/>
<polygon fill="#191970" stroke="#191970" points="346.3484,-60.983 355.8947,-56.3876 345.5662,-54.0268 346.3484,-60.983"/>
</g>
<!-- Node685 -->
<g id="node6" class="node">
<title>Node685</title>
<g id="a_node6"><a xlink:href="open62541_8c.html#aa4c210603768b32ddd3275a045d1dfed" target="_top" xlink:title="UA_NodeStore_replace">
<polygon fill="#ffffff" stroke="#000000" points="366.5,-.5 366.5,-19.5 494.5,-19.5 494.5,-.5 366.5,-.5"/>
<text text-anchor="middle" x="430.5" y="-7.5" font-family="Helvetica,sans-Serif" font-size="10.00" fill="#000000">UA_NodeStore_replace</text>
</a>
</g>
</g>
<!-- Node681&#45;&gt;Node685 -->
<g id="edge5" class="edge">
<title>Node681&#45;&gt;Node685</title>
<path fill="none" stroke="#191970" d="M282.9678,-57.417C301.928,-49.1836 330.4529,-37.3534 356,-29 363.4041,-26.579 371.3041,-24.2745 379.0891,-22.159"/>
<polygon fill="#191970" stroke="#191970" points="380.0661,-25.5211 388.8426,-19.5861 378.2806,-18.7526 380.0661,-25.5211"/>
</g>
</g>
</svg>
        <g id="navigator" transform="translate(0 0)" fill="#404254">
                <rect fill="#f2f5e9" fill-opacity="0.5" stroke="#606060" stroke-width=".5" x="0" y="0" width="60" height="60"/>
                <use id="zoomplus" xlink:href="#zoomPlus" x="17" y="9" onmousedown="handleZoom(evt,'in')"/>
                <use id="zoomminus" xlink:href="#zoomMin" x="42" y="9" onmousedown="handleZoom(evt,'out')"/>
                <use id="reset" xlink:href="#resetDef" x="30" y="36" onmousedown="handleReset()"/>
                <g id="arrowUp" xlink:href="#dirArrow" transform="translate(30 24)" onmousedown="handlePan(0,-1)">
                  <use xlink:href="#rim" fill="#404040">
                        <set attributeName="fill" to="#808080" begin="arrowUp.mouseover" end="arrowUp.mouseout"/>
                  </use>
                  <path fill="none" stroke="white" stroke-width="1.5" d="M0,-3.0v7 M-2.5,-0.5L0,-3.0L2.5,-0.5"/>
                </g>
                <g id="arrowRight" xlink:href="#dirArrow" transform="rotate(90) translate(36 -43)" onmousedown="handlePan(1,0)">
                  <use xlink:href="#rim" fill="#404040">
                        <set attributeName="fill" to="#808080" begin="arrowRight.mouseover" end="arrowRight.mouseout"/>
                  </use>
                  <path fill="none" stroke="white" stroke-width="1.5" d="M0,-3.0v7 M-2.5,-0.5L0,-3.0L2.5,-0.5"/>
                </g>
                <g id="arrowDown" xlink:href="#dirArrow" transform="rotate(180) translate(-30 -48)" onmousedown="handlePan(0,1)">
                  <use xlink:href="#rim" fill="#404040">
                        <set attributeName="fill" to="#808080" begin="arrowDown.mouseover" end="arrowDown.mouseout"/>
                  </use>
                  <path fill="none" stroke="white" stroke-width="1.5" d="M0,-3.0v7 M-2.5,-0.5L0,-3.0L2.5,-0.5"/>
                </g>
                <g id="arrowLeft" xlink:href="#dirArrow" transform="rotate(270) translate(-36 17)" onmousedown="handlePan(-1,0)">
                  <use xlink:href="#rim" fill="#404040">
                        <set attributeName="fill" to="#808080" begin="arrowLeft.mouseover" end="arrowLeft.mouseout"/>
                  </use>
                  <path fill="none" stroke="white" stroke-width="1.5" d="M0,-3.0v7 M-2.5,-0.5L0,-3.0L2.5,-0.5"/>
                </g>
        </g>
        <svg viewBox="0 0 15 15" width="100%" height="30px" preserveAspectRatio="xMaxYMin meet">
         <g id="arrow_out" transform="scale(0.3 0.3)">
          <a xlink:href="open62541_8c_affc61e50dc7ab83230a89a627662ba1d_cgraph_org.svg" target="_base">
           <rect id="button" ry="5" rx="5" y="6" x="6" height="38" width="38"
                fill="#f2f5e9" fill-opacity="0.5" stroke="#606060" stroke-width="1.0"/>
           <path id="arrow"
             d="M 11.500037,31.436501 C 11.940474,20.09759 22.043105,11.32322 32.158766,21.979434 L 37.068811,17.246167 C 37.068811,17.246167 37.088388,32 37.088388,32 L 22.160133,31.978069 C 22.160133,31.978069 26.997745,27.140456 26.997745,27.140456 C 18.528582,18.264221 13.291696,25.230495 11.500037,31.436501 z"
             style="fill:#404040;"/>
          </a>
         </g>
        </svg>
</svg>
