<?xml version="1.0" encoding="UTF-8" standalone="no"?>
<!DOCTYPE svg PUBLIC "-//W3C//DTD SVG 1.1//EN"
 "http://www.w3.org/Graphics/SVG/1.1/DTD/svg11.dtd">
<!-- Generated by graphviz version 2.43.0 (0)
 -->
<!-- Title: /scratch/dragon/sources/Demac/actuators/src/CsaStepperMotor.cc Pages: 1 -->
<svg width="1754pt" height="346pt"
 viewBox="0.00 0.00 1753.87 346.00" xmlns="http://www.w3.org/2000/svg" xmlns:xlink="http://www.w3.org/1999/xlink">
<g id="graph0" class="graph" transform="scale(1 1) rotate(0) translate(4 342)">
<title>/scratch/dragon/sources/Demac/actuators/src/CsaStepperMotor.cc</title>
<!-- Node1 -->
<g id="Node000001" class="node">
<title>Node1</title>
<g id="a_Node000001"><a xlink:title=" ">
<polygon fill="#999999" stroke="#666666" points="431.87,-338 252.87,-338 252.87,-297 431.87,-297 431.87,-338"/>
<text text-anchor="start" x="260.87" y="-326" font-family="Helvetica,sans-Serif" font-size="10.00">/scratch/dragon/sources</text>
<text text-anchor="start" x="260.87" y="-315" font-family="Helvetica,sans-Serif" font-size="10.00">/Demac/actuators/src/CsaStepper</text>
<text text-anchor="middle" x="342.37" y="-304" font-family="Helvetica,sans-Serif" font-size="10.00">Motor.cc</text>
</a>
</g>
</g>
<!-- Node2 -->
<g id="Node000002" class="node">
<title>Node2</title>
<g id="a_Node000002"><a xlink:href="_csa_stepper_motor_8h.html" target="_top" xlink:title=" ">
<polygon fill="white" stroke="#666666" points="346.87,-261 237.87,-261 237.87,-242 346.87,-242 346.87,-261"/>
<text text-anchor="middle" x="292.37" y="-249" font-family="Helvetica,sans-Serif" font-size="10.00">CsaStepperMotor.h</text>
</a>
</g>
</g>
<!-- Node1&#45;&gt;Node2 -->
<g id="edge1_Node000001_Node000002" class="edge">
<title>Node1&#45;&gt;Node2</title>
<g id="a_edge1_Node000001_Node000002"><a xlink:title=" ">
<path fill="none" stroke="#63b8ff" d="M327.1,-296.95C320.19,-288.11 312.11,-277.77 305.49,-269.29"/>
<polygon fill="#63b8ff" stroke="#63b8ff" points="308.13,-266.99 299.22,-261.26 302.61,-271.3 308.13,-266.99"/>
</a>
</g>
</g>
<!-- Node22 -->
<g id="Node000022" class="node">
<title>Node22</title>
<g id="a_Node000022"><a xlink:title=" ">
<polygon fill="#e0e0e0" stroke="#999999" points="421.37,-261 365.37,-261 365.37,-242 421.37,-242 421.37,-261"/>
<text text-anchor="middle" x="393.37" y="-249" font-family="Helvetica,sans-Serif" font-size="10.00">sstream</text>
</a>
</g>
</g>
<!-- Node1&#45;&gt;Node22 -->
<g id="edge25_Node000001_Node000022" class="edge">
<title>Node1&#45;&gt;Node22</title>
<g id="a_edge25_Node000001_Node000022"><a xlink:title=" ">
<path fill="none" stroke="#63b8ff" d="M357.95,-296.95C364.99,-288.11 373.24,-277.77 379.99,-269.29"/>
<polygon fill="#63b8ff" stroke="#63b8ff" points="382.9,-271.26 386.39,-261.26 377.42,-266.9 382.9,-271.26"/>
</a>
</g>
</g>
<!-- Node3 -->
<g id="Node000003" class="node">
<title>Node3</title>
<g id="a_Node000003"><a xlink:title=" ">
<polygon fill="#e0e0e0" stroke="#999999" points="190.37,-151 58.37,-151 58.37,-132 190.37,-132 190.37,-151"/>
<text text-anchor="middle" x="124.37" y="-139" font-family="Helvetica,sans-Serif" font-size="10.00">Consatt/CsaException.h</text>
</a>
</g>
</g>
<!-- Node2&#45;&gt;Node3 -->
<g id="edge2_Node000002_Node000003" class="edge">
<title>Node2&#45;&gt;Node3</title>
<g id="a_edge2_Node000002_Node000003"><a xlink:title=" ">
<path fill="none" stroke="#63b8ff" d="M237.63,-250.1C163.08,-248.26 35.54,-240.06 6.37,-206 -15.72,-180.21 25.74,-163.18 65.47,-153.31"/>
<polygon fill="#63b8ff" stroke="#63b8ff" points="66.29,-156.72 75.22,-151.02 64.69,-149.9 66.29,-156.72"/>
</a>
</g>
</g>
<!-- Node4 -->
<g id="Node000004" class="node">
<title>Node4</title>
<g id="a_Node000004"><a xlink:title=" ">
<polygon fill="#e0e0e0" stroke="#999999" points="157.37,-206 15.37,-206 15.37,-187 157.37,-187 157.37,-206"/>
<text text-anchor="middle" x="86.37" y="-194" font-family="Helvetica,sans-Serif" font-size="10.00">Consatt/CsaLibTypedefs.h</text>
</a>
</g>
</g>
<!-- Node2&#45;&gt;Node4 -->
<g id="edge3_Node000002_Node000004" class="edge">
<title>Node2&#45;&gt;Node4</title>
<g id="a_edge3_Node000002_Node000004"><a xlink:title=" ">
<path fill="none" stroke="#63b8ff" d="M259.27,-241.98C224.09,-232.93 168.3,-218.58 129.65,-208.64"/>
<polygon fill="#63b8ff" stroke="#63b8ff" points="130.29,-205.18 119.73,-206.08 128.54,-211.96 130.29,-205.18"/>
</a>
</g>
</g>
<!-- Node5 -->
<g id="Node000005" class="node">
<title>Node5</title>
<g id="a_Node000005"><a xlink:title=" ">
<polygon fill="#e0e0e0" stroke="#999999" points="285.37,-206 175.37,-206 175.37,-187 285.37,-187 285.37,-206"/>
<text text-anchor="middle" x="230.37" y="-194" font-family="Helvetica,sans-Serif" font-size="10.00">Consatt/CsaLoger.h</text>
</a>
</g>
</g>
<!-- Node2&#45;&gt;Node5 -->
<g id="edge4_Node000002_Node000005" class="edge">
<title>Node2&#45;&gt;Node5</title>
<g id="a_edge4_Node000002_Node000005"><a xlink:title=" ">
<path fill="none" stroke="#63b8ff" d="M282.41,-241.98C273.25,-234.15 259.43,-222.34 248.34,-212.86"/>
<polygon fill="#63b8ff" stroke="#63b8ff" points="250.39,-210.01 240.51,-206.17 245.84,-215.33 250.39,-210.01"/>
</a>
</g>
</g>
<!-- Node6 -->
<g id="Node000006" class="node">
<title>Node6</title>
<g id="a_Node000006"><a xlink:href="_csa_stepper_motor_unit_converter_8h.html" target="_top" xlink:title=" ">
<polygon fill="white" stroke="#666666" points="769.87,-206 592.87,-206 592.87,-187 769.87,-187 769.87,-206"/>
<text text-anchor="middle" x="681.37" y="-194" font-family="Helvetica,sans-Serif" font-size="10.00">CsaStepperMotorUnitConverter.h</text>
</a>
</g>
</g>
<!-- Node2&#45;&gt;Node6 -->
<g id="edge5_Node000002_Node000006" class="edge">
<title>Node2&#45;&gt;Node6</title>
<g id="a_edge5_Node000002_Node000006"><a xlink:title=" ">
<path fill="none" stroke="#63b8ff" d="M347.28,-243.02C415.73,-233.69 532.92,-217.73 608.74,-207.4"/>
<polygon fill="#63b8ff" stroke="#63b8ff" points="609.26,-210.86 618.69,-206.04 608.31,-203.92 609.26,-210.86"/>
</a>
</g>
</g>
<!-- Node8 -->
<g id="Node000008" class="node">
<title>Node8</title>
<g id="a_Node000008"><a xlink:href="_stepper_motor_actuator_status_and_error_8h.html" target="_top" xlink:title=" ">
<polygon fill="white" stroke="#666666" points="432.87,-96 277.87,-96 277.87,-66 432.87,-66 432.87,-96"/>
<text text-anchor="start" x="285.87" y="-84" font-family="Helvetica,sans-Serif" font-size="10.00">StepperMotorActuatorStatus</text>
<text text-anchor="middle" x="355.37" y="-73" font-family="Helvetica,sans-Serif" font-size="10.00">AndError.h</text>
</a>
</g>
</g>
<!-- Node2&#45;&gt;Node8 -->
<g id="edge24_Node000002_Node000008" class="edge">
<title>Node2&#45;&gt;Node8</title>
<g id="a_edge24_Node000002_Node000008"><a xlink:title=" ">
<path fill="none" stroke="#63b8ff" d="M330.28,-241.96C362.87,-233.75 406.17,-220.5 416.37,-206 439.87,-172.6 405.16,-128.8 379.25,-103.2"/>
<polygon fill="#63b8ff" stroke="#63b8ff" points="381.55,-100.55 371.9,-96.17 376.71,-105.61 381.55,-100.55"/>
</a>
</g>
</g>
<!-- Node21 -->
<g id="Node000021" class="node">
<title>Node21</title>
<g id="a_Node000021"><a xlink:href="_stepper_actuator_8h.html" target="_top" xlink:title=" ">
<polygon fill="white" stroke="#666666" points="407.37,-206 303.37,-206 303.37,-187 407.37,-187 407.37,-206"/>
<text text-anchor="middle" x="355.37" y="-194" font-family="Helvetica,sans-Serif" font-size="10.00">StepperActuator.h</text>
</a>
</g>
</g>
<!-- Node2&#45;&gt;Node21 -->
<g id="edge21_Node000002_Node000021" class="edge">
<title>Node2&#45;&gt;Node21</title>
<g id="a_edge21_Node000002_Node000021"><a xlink:title=" ">
<path fill="none" stroke="#63b8ff" d="M302.49,-241.98C311.81,-234.15 325.84,-222.34 337.11,-212.86"/>
<polygon fill="#63b8ff" stroke="#63b8ff" points="339.67,-215.29 345.07,-206.17 335.16,-209.93 339.67,-215.29"/>
</a>
</g>
</g>
<!-- Node7 -->
<g id="Node000007" class="node">
<title>Node7</title>
<g id="a_Node000007"><a xlink:href="_stepper_motor_m_d22_8h.html" target="_top" xlink:title=" ">
<polygon fill="white" stroke="#666666" points="870.37,-151 750.37,-151 750.37,-132 870.37,-132 870.37,-151"/>
<text text-anchor="middle" x="810.37" y="-139" font-family="Helvetica,sans-Serif" font-size="10.00">StepperMotorMD22.h</text>
</a>
</g>
</g>
<!-- Node6&#45;&gt;Node7 -->
<g id="edge6_Node000006_Node000007" class="edge">
<title>Node6&#45;&gt;Node7</title>
<g id="a_edge6_Node000006_Node000007"><a xlink:title=" ">
<path fill="none" stroke="#63b8ff" d="M702.1,-186.98C723.13,-178.34 755.92,-164.87 779.91,-155.02"/>
<polygon fill="#63b8ff" stroke="#63b8ff" points="781.35,-158.21 789.27,-151.17 778.69,-151.73 781.35,-158.21"/>
</a>
</g>
</g>
<!-- Node7&#45;&gt;Node7 -->
<g id="edge9_Node000007_Node000007" class="edge">
<title>Node7&#45;&gt;Node7</title>
<g id="a_edge9_Node000007_Node000007"><a xlink:title=" ">
<path fill="none" stroke="#63b8ff" d="M846.88,-151.03C868.31,-153.06 888.37,-149.88 888.37,-141.5 888.37,-134.49 874.35,-131.12 857.24,-131.39"/>
<polygon fill="#63b8ff" stroke="#63b8ff" points="856.67,-127.92 846.88,-131.97 857.06,-134.91 856.67,-127.92"/>
</a>
</g>
</g>
<!-- Node7&#45;&gt;Node8 -->
<g id="edge7_Node000007_Node000008" class="edge">
<title>Node7&#45;&gt;Node8</title>
<g id="a_edge7_Node000007_Node000008"><a xlink:title=" ">
<path fill="none" stroke="#63b8ff" d="M750.19,-134.02C679.14,-126.19 557.14,-112.2 443.11,-96.21"/>
<polygon fill="#63b8ff" stroke="#63b8ff" points="443.56,-92.74 433.17,-94.81 442.58,-99.67 443.56,-92.74"/>
</a>
</g>
</g>
<!-- Node10 -->
<g id="Node000010" class="node">
<title>Node10</title>
<g id="a_Node000010"><a xlink:title=" ">
<polygon fill="#e0e0e0" stroke="#999999" points="1745.87,-90.5 1626.87,-90.5 1626.87,-71.5 1745.87,-71.5 1745.87,-90.5"/>
<text text-anchor="middle" x="1686.37" y="-78.5" font-family="Helvetica,sans-Serif" font-size="10.00">boost/shared_ptr.hpp</text>
</a>
</g>
</g>
<!-- Node7&#45;&gt;Node10 -->
<g id="edge10_Node000007_Node000010" class="edge">
<title>Node7&#45;&gt;Node10</title>
<g id="a_edge10_Node000007_Node000010"><a xlink:title=" ">
<path fill="none" stroke="#63b8ff" d="M870.46,-140.22C1004.98,-138.94 1340.42,-132.06 1618.37,-96 1625.28,-95.1 1632.53,-93.9 1639.62,-92.57"/>
<polygon fill="#63b8ff" stroke="#63b8ff" points="1640.7,-95.93 1649.84,-90.56 1639.35,-89.06 1640.7,-95.93"/>
</a>
</g>
</g>
<!-- Node11 -->
<g id="Node000011" class="node">
<title>Node11</title>
<g id="a_Node000011"><a xlink:title=" ">
<polygon fill="#e0e0e0" stroke="#999999" points="549.87,-90.5 450.87,-90.5 450.87,-71.5 549.87,-71.5 549.87,-90.5"/>
<text text-anchor="middle" x="500.37" y="-78.5" font-family="Helvetica,sans-Serif" font-size="10.00">boost/thread.hpp</text>
</a>
</g>
</g>
<!-- Node7&#45;&gt;Node11 -->
<g id="edge11_Node000007_Node000011" class="edge">
<title>Node7&#45;&gt;Node11</title>
<g id="a_edge11_Node000007_Node000011"><a xlink:title=" ">
<path fill="none" stroke="#63b8ff" d="M756.83,-131.92C705.9,-123.55 627.19,-110.05 559.37,-96 554.66,-95.02 549.75,-93.95 544.86,-92.84"/>
<polygon fill="#63b8ff" stroke="#63b8ff" points="545.46,-89.39 534.93,-90.55 543.88,-96.21 545.46,-89.39"/>
</a>
</g>
</g>
<!-- Node12 -->
<g id="Node000012" class="node">
<title>Node12</title>
<g id="a_Node000012"><a xlink:title=" ">
<polygon fill="#e0e0e0" stroke="#999999" points="618.37,-90.5 568.37,-90.5 568.37,-71.5 618.37,-71.5 618.37,-90.5"/>
<text text-anchor="middle" x="593.37" y="-78.5" font-family="Helvetica,sans-Serif" font-size="10.00">atomic</text>
</a>
</g>
</g>
<!-- Node7&#45;&gt;Node12 -->
<g id="edge12_Node000007_Node000012" class="edge">
<title>Node7&#45;&gt;Node12</title>
<g id="a_edge12_Node000007_Node000012"><a xlink:title=" ">
<path fill="none" stroke="#63b8ff" d="M767.33,-131.97C729.92,-124.1 674.48,-111.33 627.37,-96 625.7,-95.46 624,-94.87 622.29,-94.25"/>
<polygon fill="#63b8ff" stroke="#63b8ff" points="623.19,-90.85 612.6,-90.51 620.67,-97.38 623.19,-90.85"/>
</a>
</g>
</g>
<!-- Node13 -->
<g id="Node000013" class="node">
<title>Node13</title>
<g id="a_Node000013"><a xlink:title=" ">
<polygon fill="#e0e0e0" stroke="#999999" points="680.37,-90.5 636.37,-90.5 636.37,-71.5 680.37,-71.5 680.37,-90.5"/>
<text text-anchor="middle" x="658.37" y="-78.5" font-family="Helvetica,sans-Serif" font-size="10.00">string</text>
</a>
</g>
</g>
<!-- Node7&#45;&gt;Node13 -->
<g id="edge13_Node000007_Node000013" class="edge">
<title>Node7&#45;&gt;Node13</title>
<g id="a_edge13_Node000007_Node000013"><a xlink:title=" ">
<path fill="none" stroke="#63b8ff" d="M785.61,-131.98C761.01,-123.38 722.31,-109.47 689.37,-96 688.2,-95.52 687.01,-95.03 685.82,-94.52"/>
<polygon fill="#63b8ff" stroke="#63b8ff" points="687.2,-91.31 676.64,-90.51 684.4,-97.72 687.2,-91.31"/>
</a>
</g>
</g>
<!-- Node14 -->
<g id="Node000014" class="node">
<title>Node14</title>
<g id="a_Node000014"><a xlink:title=" ">
<polygon fill="#e0e0e0" stroke="#999999" points="746.37,-90.5 698.37,-90.5 698.37,-71.5 746.37,-71.5 746.37,-90.5"/>
<text text-anchor="middle" x="722.37" y="-78.5" font-family="Helvetica,sans-Serif" font-size="10.00">thread</text>
</a>
</g>
</g>
<!-- Node7&#45;&gt;Node14 -->
<g id="edge14_Node000007_Node000014" class="edge">
<title>Node7&#45;&gt;Node14</title>
<g id="a_edge14_Node000007_Node000014"><a xlink:title=" ">
<path fill="none" stroke="#63b8ff" d="M797.39,-131.87C783.35,-122.54 760.74,-107.51 744.01,-96.38"/>
<polygon fill="#63b8ff" stroke="#63b8ff" points="745.68,-93.29 735.41,-90.67 741.8,-99.12 745.68,-93.29"/>
</a>
</g>
</g>
<!-- Node15 -->
<g id="Node000015" class="node">
<title>Node15</title>
<g id="a_Node000015"><a xlink:title=" ">
<polygon fill="#e0e0e0" stroke="#999999" points="856.37,-90.5 764.37,-90.5 764.37,-71.5 856.37,-71.5 856.37,-90.5"/>
<text text-anchor="middle" x="810.37" y="-78.5" font-family="Helvetica,sans-Serif" font-size="10.00">Consatt/CtrlPI.h</text>
</a>
</g>
</g>
<!-- Node7&#45;&gt;Node15 -->
<g id="edge15_Node000007_Node000015" class="edge">
<title>Node7&#45;&gt;Node15</title>
<g id="a_edge15_Node000007_Node000015"><a xlink:title=" ">
<path fill="none" stroke="#63b8ff" d="M810.37,-131.87C810.37,-123.75 810.37,-111.31 810.37,-100.89"/>
<polygon fill="#63b8ff" stroke="#63b8ff" points="813.87,-100.67 810.37,-90.67 806.87,-100.67 813.87,-100.67"/>
</a>
</g>
</g>
<!-- Node16 -->
<g id="Node000016" class="node">
<title>Node16</title>
<g id="a_Node000016"><a xlink:title=" ">
<polygon fill="#e0e0e0" stroke="#999999" points="966.37,-90.5 874.37,-90.5 874.37,-71.5 966.37,-71.5 966.37,-90.5"/>
<text text-anchor="middle" x="920.37" y="-78.5" font-family="Helvetica,sans-Serif" font-size="10.00">Consatt/Loger.h</text>
</a>
</g>
</g>
<!-- Node7&#45;&gt;Node16 -->
<g id="edge16_Node000007_Node000016" class="edge">
<title>Node7&#45;&gt;Node16</title>
<g id="a_edge16_Node000007_Node000016"><a xlink:title=" ">
<path fill="none" stroke="#63b8ff" d="M826.6,-131.87C844.64,-122.28 873.99,-106.67 895.05,-95.47"/>
<polygon fill="#63b8ff" stroke="#63b8ff" points="896.89,-98.45 904.07,-90.67 893.6,-92.27 896.89,-98.45"/>
</a>
</g>
</g>
<!-- Node17 -->
<g id="Node000017" class="node">
<title>Node17</title>
<g id="a_Node000017"><a xlink:title=" ">
<polygon fill="#e0e0e0" stroke="#999999" points="1119.87,-96 984.87,-96 984.87,-66 1119.87,-66 1119.87,-96"/>
<text text-anchor="start" x="992.87" y="-84" font-family="Helvetica,sans-Serif" font-size="10.00">Consatt/StatisticsForCsa</text>
<text text-anchor="middle" x="1052.37" y="-73" font-family="Helvetica,sans-Serif" font-size="10.00">Vector.h</text>
</a>
</g>
</g>
<!-- Node7&#45;&gt;Node17 -->
<g id="edge17_Node000007_Node000017" class="edge">
<title>Node7&#45;&gt;Node17</title>
<g id="a_edge17_Node000007_Node000017"><a xlink:title=" ">
<path fill="none" stroke="#63b8ff" d="M845.56,-131.99C881.83,-123.23 939.3,-109.33 984.46,-98.42"/>
<polygon fill="#63b8ff" stroke="#63b8ff" points="985.29,-101.82 994.19,-96.06 983.65,-95.01 985.29,-101.82"/>
</a>
</g>
</g>
<!-- Node18 -->
<g id="Node000018" class="node">
<title>Node18</title>
<g id="a_Node000018"><a xlink:title=" ">
<polygon fill="#e0e0e0" stroke="#999999" points="1274.87,-96 1137.87,-96 1137.87,-66 1274.87,-66 1274.87,-96"/>
<text text-anchor="start" x="1145.87" y="-84" font-family="Helvetica,sans-Serif" font-size="10.00">mtca4u/MotorDriverCard</text>
<text text-anchor="middle" x="1206.37" y="-73" font-family="Helvetica,sans-Serif" font-size="10.00">/MotorControler.h</text>
</a>
</g>
</g>
<!-- Node7&#45;&gt;Node18 -->
<g id="edge18_Node000007_Node000018" class="edge">
<title>Node7&#45;&gt;Node18</title>
<g id="a_edge18_Node000007_Node000018"><a xlink:title=" ">
<path fill="none" stroke="#63b8ff" d="M870.45,-132.87C932.47,-124.83 1032.27,-111.41 1127.46,-96.27"/>
<polygon fill="#63b8ff" stroke="#63b8ff" points="1128.23,-99.69 1137.55,-94.66 1127.12,-92.78 1128.23,-99.69"/>
</a>
</g>
</g>
<!-- Node19 -->
<g id="Node000019" class="node">
<title>Node19</title>
<g id="a_Node000019"><a xlink:title=" ">
<polygon fill="#e0e0e0" stroke="#999999" points="1429.87,-96 1292.87,-96 1292.87,-66 1429.87,-66 1429.87,-96"/>
<text text-anchor="start" x="1300.87" y="-84" font-family="Helvetica,sans-Serif" font-size="10.00">mtca4u/MotorDriverCard</text>
<text text-anchor="middle" x="1361.37" y="-73" font-family="Helvetica,sans-Serif" font-size="10.00">/MotorDriverCard.h</text>
</a>
</g>
</g>
<!-- Node7&#45;&gt;Node19 -->
<g id="edge19_Node000007_Node000019" class="edge">
<title>Node7&#45;&gt;Node19</title>
<g id="a_edge19_Node000007_Node000019"><a xlink:title=" ">
<path fill="none" stroke="#63b8ff" d="M870.42,-136.53C958.65,-130.33 1128.66,-116.98 1282.47,-96.19"/>
<polygon fill="#63b8ff" stroke="#63b8ff" points="1283.14,-99.63 1292.57,-94.81 1282.19,-92.7 1283.14,-99.63"/>
</a>
</g>
</g>
<!-- Node20 -->
<g id="Node000020" class="node">
<title>Node20</title>
<g id="a_Node000020"><a xlink:title=" ">
<polygon fill="#e0e0e0" stroke="#999999" points="1608.87,-96 1447.87,-96 1447.87,-66 1608.87,-66 1608.87,-96"/>
<text text-anchor="start" x="1455.87" y="-84" font-family="Helvetica,sans-Serif" font-size="10.00">mtca4u/MotorDriverCard</text>
<text text-anchor="middle" x="1528.37" y="-73" font-family="Helvetica,sans-Serif" font-size="10.00">/MotorDriverCardConfigXML.h</text>
</a>
</g>
</g>
<!-- Node7&#45;&gt;Node20 -->
<g id="edge20_Node000007_Node000020" class="edge">
<title>Node7&#45;&gt;Node20</title>
<g id="a_edge20_Node000007_Node000020"><a xlink:title=" ">
<path fill="none" stroke="#63b8ff" d="M870.81,-137.94C981.33,-132.89 1223.62,-120.09 1437.25,-96.18"/>
<polygon fill="#63b8ff" stroke="#63b8ff" points="1437.86,-99.64 1447.41,-95.04 1437.08,-92.68 1437.86,-99.64"/>
</a>
</g>
</g>
<!-- Node9 -->
<g id="Node000009" class="node">
<title>Node9</title>
<g id="a_Node000009"><a xlink:title=" ">
<polygon fill="#e0e0e0" stroke="#999999" points="423.87,-30 286.87,-30 286.87,0 423.87,0 423.87,-30"/>
<text text-anchor="start" x="294.87" y="-18" font-family="Helvetica,sans-Serif" font-size="10.00">mtca4u/MotorDriverCard</text>
<text text-anchor="middle" x="355.37" y="-7" font-family="Helvetica,sans-Serif" font-size="10.00">/GeneralStatus.h</text>
</a>
</g>
</g>
<!-- Node8&#45;&gt;Node9 -->
<g id="edge8_Node000008_Node000009" class="edge">
<title>Node8&#45;&gt;Node9</title>
<g id="a_edge8_Node000008_Node000009"><a xlink:title=" ">
<path fill="none" stroke="#63b8ff" d="M355.37,-65.8C355.37,-58.34 355.37,-48.99 355.37,-40.41"/>
<polygon fill="#63b8ff" stroke="#63b8ff" points="358.87,-40.16 355.37,-30.16 351.87,-40.16 358.87,-40.16"/>
</a>
</g>
</g>
<!-- Node21&#45;&gt;Node3 -->
<g id="edge22_Node000021_Node000003" class="edge">
<title>Node21&#45;&gt;Node3</title>
<g id="a_edge22_Node000021_Node000003"><a xlink:title=" ">
<path fill="none" stroke="#63b8ff" d="M318.26,-186.98C278.38,-177.84 214.91,-163.27 171.53,-153.32"/>
<polygon fill="#63b8ff" stroke="#63b8ff" points="172.31,-149.91 161.78,-151.08 170.74,-156.73 172.31,-149.91"/>
</a>
</g>
</g>
<!-- Node21&#45;&gt;Node8 -->
<g id="edge23_Node000021_Node000008" class="edge">
<title>Node21&#45;&gt;Node8</title>
<g id="a_edge23_Node000021_Node000008"><a xlink:title=" ">
<path fill="none" stroke="#63b8ff" d="M355.37,-186.97C355.37,-170.08 355.37,-131.85 355.37,-106.48"/>
<polygon fill="#63b8ff" stroke="#63b8ff" points="358.87,-106.18 355.37,-96.18 351.87,-106.18 358.87,-106.18"/>
</a>
</g>
</g>
</g>
</svg>
