<?xml version="1.0" encoding="UTF-8" standalone="no"?>
<!DOCTYPE svg PUBLIC "-//W3C//DTD SVG 1.1//EN"
 "http://www.w3.org/Graphics/SVG/1.1/DTD/svg11.dtd">
<!-- Generated by graphviz version 2.43.0 (0)
 -->
<!-- Title: /scratch/dragon/sources/Demac/actuators/src/CsaStepperMotorPiezo.cc Pages: 1 -->
<!--zoomable 401 -->

<svg id="main" version="1.1" xmlns="http://www.w3.org/2000/svg" xmlns:xlink="http://www.w3.org/1999/xlink" xml:space="preserve" onload="init(evt)">
<style type="text/css"><![CDATA[
.node, .edge {opacity: 0.7;}
.node.selected, .edge.selected {opacity: 1;}
.edge:hover path { stroke: red; }
.edge:hover polygon { stroke: red; fill: red; }
]]></style>

<defs>
  <circle id="rim" cx="0" cy="0" r="7"/>
  <circle id="rim2" cx="0" cy="0" r="3.5"/>
  <g id="zoomPlus">
    <use xlink:href="#rim" fill="#404040"><set attributeName="fill" to="#808080" begin="zoomplus.mouseover" end="zoomplus.mouseout"/></use>
    <path d="M-4,0h8M0,-4v8" fill="none" stroke="white" stroke-width="1.5" pointer-events="none"/>
  </g>
  <g id="zoomMin">
    <use xlink:href="#rim" fill="#404040"><set attributeName="fill" to="#808080" begin="zoomminus.mouseover" end="zoomminus.mouseout"/></use>
    <path d="M-4,0h8" fill="none" stroke="white" stroke-width="1.5" pointer-events="none"/>
  </g>
  <g id="arrowUp" transform="translate(30 24)">
    <use xlink:href="#rim"/>
    <path pointer-events="none" fill="none" stroke="white" stroke-width="1.5" d="M0,-3.0v7 M-2.5,-0.5L0,-3.0L2.5,-0.5"/>
  </g>
  <g id="arrowRight" transform="rotate(90) translate(36 -43)">
    <use xlink:href="#rim"/>
    <path pointer-events="none" fill="none" stroke="white" stroke-width="1.5" d="M0,-3.0v7 M-2.5,-0.5L0,-3.0L2.5,-0.5"/>
  </g>
  <g id="arrowDown" transform="rotate(180) translate(-30 -48)">
    <use xlink:href="#rim"/>
    <path pointer-events="none" fill="none" stroke="white" stroke-width="1.5" d="M0,-3.0v7 M-2.5,-0.5L0,-3.0L2.5,-0.5"/>
  </g>
  <g id="arrowLeft" transform="rotate(270) translate(-36 17)">
    <use xlink:href="#rim"/>
    <path pointer-events="none" fill="none" stroke="white" stroke-width="1.5" d="M0,-3.0v7 M-2.5,-0.5L0,-3.0L2.5,-0.5"/>
  </g>
  <g id="resetDef">
    <use xlink:href="#rim2" fill="#404040"><set attributeName="fill" to="#808080" begin="reset.mouseover" end="reset.mouseout"/></use>
  </g>
</defs>
<script type="application/ecmascript">
var viewWidth = 1899;
var viewHeight = 401;
var sectionId = 'dynsection-0';
</script>
<script type="application/ecmascript" xlink:href="svg.min.js"/>
<svg id="graph" class="graph">
<g id="viewport">
<title>/scratch/dragon/sources/Demac/actuators/src/CsaStepperMotorPiezo.cc</title>
<!-- Node1 -->
<g id="Node000001" class="node">
<title>Node1</title>
<g id="a_Node000001"><a xlink:title=" ">
<polygon fill="#999999" stroke="#666666" points="970.5,-393 791.5,-393 791.5,-352 970.5,-352 970.5,-393"/>
<text text-anchor="start" x="799.5" y="-381" font-family="Helvetica,sans-Serif" font-size="10.00">/scratch/dragon/sources</text>
<text text-anchor="start" x="799.5" y="-370" font-family="Helvetica,sans-Serif" font-size="10.00">/Demac/actuators/src/CsaStepper</text>
<text text-anchor="middle" x="881" y="-359" font-family="Helvetica,sans-Serif" font-size="10.00">MotorPiezo.cc</text>
</a>
</g>
</g>
<!-- Node2 -->
<g id="Node000002" class="node">
<title>Node2</title>
<g id="a_Node000002"><a xlink:href="_csa_stepper_motor_piezo_8h.html" target="_top" xlink:title=" ">
<polygon fill="white" stroke="#666666" points="877,-316 741,-316 741,-297 877,-297 877,-316"/>
<text text-anchor="middle" x="809" y="-304" font-family="Helvetica,sans-Serif" font-size="10.00">CsaStepperMotorPiezo.h</text>
</a>
</g>
</g>
<!-- Node1&#45;&gt;Node2 -->
<g id="edge1_Node000001_Node000002" class="edge">
<title>Node1&#45;&gt;Node2</title>
<g id="a_edge1_Node000001_Node000002"><a xlink:title=" ">
<path fill="none" stroke="#63b8ff" d="M859.01,-351.95C848.54,-342.65 836.2,-331.68 826.4,-322.96"/>
<polygon fill="#63b8ff" stroke="#63b8ff" points="828.66,-320.29 818.86,-316.26 824,-325.52 828.66,-320.29"/>
</a>
</g>
</g>
<!-- Node24 -->
<g id="Node000024" class="node">
<title>Node24</title>
<g id="a_Node000024"><a xlink:title=" ">
<polygon fill="#e0e0e0" stroke="#999999" points="48,-90.5 0,-90.5 0,-71.5 48,-71.5 48,-90.5"/>
<text text-anchor="middle" x="24" y="-78.5" font-family="Helvetica,sans-Serif" font-size="10.00">thread</text>
</a>
</g>
</g>
<!-- Node1&#45;&gt;Node24 -->
<g id="edge56_Node000001_Node000024" class="edge">
<title>Node1&#45;&gt;Node24</title>
<g id="a_edge56_Node000001_Node000024"><a xlink:title=" ">
<path fill="none" stroke="#63b8ff" d="M791.21,-367.88C576.86,-358.04 53,-326.43 53,-252.5 53,-252.5 53,-252.5 53,-195.5 53,-160.89 40.19,-122.15 31.6,-100.05"/>
<polygon fill="#63b8ff" stroke="#63b8ff" points="34.78,-98.6 27.79,-90.64 28.29,-101.22 34.78,-98.6"/>
</a>
</g>
</g>
<!-- Node32 -->
<g id="Node000032" class="node">
<title>Node32</title>
<g id="a_Node000032"><a xlink:href="_stepper_motor_piezo_8h.html" target="_top" xlink:title=" ">
<polygon fill="white" stroke="#666666" points="1013,-316 895,-316 895,-297 1013,-297 1013,-316"/>
<text text-anchor="middle" x="954" y="-304" font-family="Helvetica,sans-Serif" font-size="10.00">StepperMotorPiezo.h</text>
</a>
</g>
</g>
<!-- Node1&#45;&gt;Node32 -->
<g id="edge45_Node000001_Node000032" class="edge">
<title>Node1&#45;&gt;Node32</title>
<g id="a_edge45_Node000001_Node000032"><a xlink:title=" ">
<path fill="none" stroke="#63b8ff" d="M903.3,-351.95C913.91,-342.65 926.42,-331.68 936.36,-322.96"/>
<polygon fill="#63b8ff" stroke="#63b8ff" points="938.8,-325.48 944.01,-316.26 934.18,-320.22 938.8,-325.48"/>
</a>
</g>
</g>
<!-- Node36 -->
<g id="Node000036" class="node">
<title>Node36</title>
<g id="a_Node000036"><a xlink:title=" ">
<polygon fill="#e0e0e0" stroke="#999999" points="1087,-316 1031,-316 1031,-297 1087,-297 1087,-316"/>
<text text-anchor="middle" x="1059" y="-304" font-family="Helvetica,sans-Serif" font-size="10.00">sstream</text>
</a>
</g>
</g>
<!-- Node1&#45;&gt;Node36 -->
<g id="edge55_Node000001_Node000036" class="edge">
<title>Node1&#45;&gt;Node36</title>
<g id="a_edge55_Node000001_Node000036"><a xlink:title=" ">
<path fill="none" stroke="#63b8ff" d="M935.37,-351.95C964.8,-341.37 1000.2,-328.64 1025.57,-319.52"/>
<polygon fill="#63b8ff" stroke="#63b8ff" points="1026.88,-322.77 1035.1,-316.09 1024.51,-316.18 1026.88,-322.77"/>
</a>
</g>
</g>
<!-- Node3 -->
<g id="Node000003" class="node">
<title>Node3</title>
<g id="a_Node000003"><a xlink:title=" ">
<polygon fill="#e0e0e0" stroke="#999999" points="1025,-206 883,-206 883,-187 1025,-187 1025,-206"/>
<text text-anchor="middle" x="954" y="-194" font-family="Helvetica,sans-Serif" font-size="10.00">Consatt/CsaLibTypedefs.h</text>
</a>
</g>
</g>
<!-- Node2&#45;&gt;Node3 -->
<g id="edge2_Node000002_Node000003" class="edge">
<title>Node2&#45;&gt;Node3</title>
<g id="a_edge2_Node000002_Node000003"><a xlink:title=" ">
<path fill="none" stroke="#63b8ff" d="M820.87,-296.66C845.74,-278.14 903.55,-235.08 934.16,-212.28"/>
<polygon fill="#63b8ff" stroke="#63b8ff" points="936.45,-214.94 942.38,-206.16 932.26,-209.32 936.45,-214.94"/>
</a>
</g>
</g>
<!-- Node4 -->
<g id="Node000004" class="node">
<title>Node4</title>
<g id="a_Node000004"><a xlink:href="_csa_registered_memory_accesor_8h.html" target="_top" xlink:title=" ">
<polygon fill="white" stroke="#666666" points="1399,-261 1225,-261 1225,-242 1399,-242 1399,-261"/>
<text text-anchor="middle" x="1312" y="-249" font-family="Helvetica,sans-Serif" font-size="10.00">CsaRegisteredMemoryAccesor.h</text>
</a>
</g>
</g>
<!-- Node2&#45;&gt;Node4 -->
<g id="edge3_Node000002_Node000004" class="edge">
<title>Node2&#45;&gt;Node4</title>
<g id="a_edge3_Node000002_Node000004"><a xlink:title=" ">
<path fill="none" stroke="#63b8ff" d="M877.02,-297.97C880.05,-297.64 883.06,-297.32 886,-297 1000.68,-284.68 1132.78,-270.95 1219.09,-262.05"/>
<polygon fill="#63b8ff" stroke="#63b8ff" points="1219.54,-265.52 1229.12,-261.01 1218.82,-258.56 1219.54,-265.52"/>
</a>
</g>
</g>
<!-- Node14 -->
<g id="Node000014" class="node">
<title>Node14</title>
<g id="a_Node000014"><a xlink:href="_csa_stepper_motor_8h.html" target="_top" xlink:title=" ">
<polygon fill="white" stroke="#666666" points="788.5,-261 679.5,-261 679.5,-242 788.5,-242 788.5,-261"/>
<text text-anchor="middle" x="734" y="-249" font-family="Helvetica,sans-Serif" font-size="10.00">CsaStepperMotor.h</text>
</a>
</g>
</g>
<!-- Node2&#45;&gt;Node14 -->
<g id="edge20_Node000002_Node000014" class="edge">
<title>Node2&#45;&gt;Node14</title>
<g id="a_edge20_Node000002_Node000014"><a xlink:title=" ">
<path fill="none" stroke="#63b8ff" d="M796.95,-296.98C785.54,-288.92 768.17,-276.65 754.57,-267.03"/>
<polygon fill="#63b8ff" stroke="#63b8ff" points="756.46,-264.08 746.27,-261.17 752.42,-269.8 756.46,-264.08"/>
</a>
</g>
</g>
<!-- Node22 -->
<g id="Node000022" class="node">
<title>Node22</title>
<g id="a_Node000022"><a xlink:title=" ">
<polygon fill="#e0e0e0" stroke="#999999" points="116,-90.5 66,-90.5 66,-71.5 116,-71.5 116,-90.5"/>
<text text-anchor="middle" x="91" y="-78.5" font-family="Helvetica,sans-Serif" font-size="10.00">atomic</text>
</a>
</g>
</g>
<!-- Node2&#45;&gt;Node22 -->
<g id="edge44_Node000002_Node000022" class="edge">
<title>Node2&#45;&gt;Node22</title>
<g id="a_edge44_Node000002_Node000022"><a xlink:title=" ">
<path fill="none" stroke="#63b8ff" d="M740.62,-299.94C642.9,-290.2 459.09,-265.14 314,-206 258.06,-183.2 252.93,-161.11 200,-132 174.1,-117.75 143.4,-103.93 121.19,-94.44"/>
<polygon fill="#63b8ff" stroke="#63b8ff" points="122.5,-91.2 111.93,-90.53 119.78,-97.64 122.5,-91.2"/>
</a>
</g>
</g>
<!-- Node4&#45;&gt;Node3 -->
<g id="edge4_Node000004_Node000003" class="edge">
<title>Node4&#45;&gt;Node3</title>
<g id="a_edge4_Node000004_Node000003"><a xlink:title=" ">
<path fill="none" stroke="#63b8ff" d="M1254.48,-241.98C1191.03,-232.59 1089.02,-217.49 1021.75,-207.53"/>
<polygon fill="#63b8ff" stroke="#63b8ff" points="1022.08,-204.04 1011.67,-206.04 1021.05,-210.96 1022.08,-204.04"/>
</a>
</g>
</g>
<!-- Node5 -->
<g id="Node000005" class="node">
<title>Node5</title>
<g id="a_Node000005"><a xlink:title=" ">
<polygon fill="#e0e0e0" stroke="#999999" points="1393,-206 1231,-206 1231,-187 1393,-187 1393,-206"/>
<text text-anchor="middle" x="1312" y="-194" font-family="Helvetica,sans-Serif" font-size="10.00">Consatt/CsaShapeGenerator.h</text>
</a>
</g>
</g>
<!-- Node4&#45;&gt;Node5 -->
<g id="edge5_Node000004_Node000005" class="edge">
<title>Node4&#45;&gt;Node5</title>
<g id="a_edge5_Node000004_Node000005"><a xlink:title=" ">
<path fill="none" stroke="#63b8ff" d="M1312,-241.75C1312,-234.8 1312,-224.85 1312,-216.13"/>
<polygon fill="#63b8ff" stroke="#63b8ff" points="1315.5,-216.09 1312,-206.09 1308.5,-216.09 1315.5,-216.09"/>
</a>
</g>
</g>
<!-- Node6 -->
<g id="Node000006" class="node">
<title>Node6</title>
<g id="a_Node000006"><a xlink:href="_ex_reg_acc_base_8h.html" target="_top" xlink:title=" ">
<polygon fill="white" stroke="#666666" points="1585,-206 1487,-206 1487,-187 1585,-187 1585,-206"/>
<text text-anchor="middle" x="1536" y="-194" font-family="Helvetica,sans-Serif" font-size="10.00">ExRegAccBase.h</text>
</a>
</g>
</g>
<!-- Node4&#45;&gt;Node6 -->
<g id="edge6_Node000004_Node000006" class="edge">
<title>Node4&#45;&gt;Node6</title>
<g id="a_edge6_Node000004_Node000006"><a xlink:title=" ">
<path fill="none" stroke="#63b8ff" d="M1347.99,-241.98C1386.49,-232.87 1447.69,-218.4 1489.74,-208.45"/>
<polygon fill="#63b8ff" stroke="#63b8ff" points="1490.8,-211.79 1499.73,-206.08 1489.19,-204.98 1490.8,-211.79"/>
</a>
</g>
</g>
<!-- Node10 -->
<g id="Node000010" class="node">
<title>Node10</title>
<g id="a_Node000010"><a xlink:title=" ">
<polygon fill="#e0e0e0" stroke="#999999" points="1696,-90.5 1580,-90.5 1580,-71.5 1696,-71.5 1696,-90.5"/>
<text text-anchor="middle" x="1638" y="-78.5" font-family="Helvetica,sans-Serif" font-size="10.00">ChimeraTK/Device.h</text>
</a>
</g>
</g>
<!-- Node4&#45;&gt;Node10 -->
<g id="edge17_Node000004_Node000010" class="edge">
<title>Node4&#45;&gt;Node10</title>
<g id="a_edge17_Node000004_Node000010"><a xlink:title=" ">
<path fill="none" stroke="#63b8ff" d="M1399.19,-244.47C1469.8,-238.19 1562.52,-226.35 1594,-206 1629.07,-183.33 1636.49,-129.8 1637.87,-101.05"/>
<polygon fill="#63b8ff" stroke="#63b8ff" points="1641.37,-100.81 1638.15,-90.72 1634.38,-100.62 1641.37,-100.81"/>
</a>
</g>
</g>
<!-- Node11 -->
<g id="Node000011" class="node">
<title>Node11</title>
<g id="a_Node000011"><a xlink:title=" ">
<polygon fill="#e0e0e0" stroke="#999999" points="1372.5,-90.5 1253.5,-90.5 1253.5,-71.5 1372.5,-71.5 1372.5,-90.5"/>
<text text-anchor="middle" x="1313" y="-78.5" font-family="Helvetica,sans-Serif" font-size="10.00">boost/shared_ptr.hpp</text>
</a>
</g>
</g>
<!-- Node4&#45;&gt;Node11 -->
<g id="edge18_Node000004_Node000011" class="edge">
<title>Node4&#45;&gt;Node11</title>
<g id="a_edge18_Node000004_Node000011"><a xlink:title=" ">
<path fill="none" stroke="#63b8ff" d="M1361.58,-241.98C1382.35,-235.7 1404.54,-224.82 1417,-206 1427.52,-190.12 1420.73,-151.88 1406,-132 1392.84,-114.23 1371.44,-102.11 1352.48,-94.25"/>
<polygon fill="#63b8ff" stroke="#63b8ff" points="1353.72,-90.98 1343.13,-90.63 1351.19,-97.51 1353.72,-90.98"/>
</a>
</g>
</g>
<!-- Node12 -->
<g id="Node000012" class="node">
<title>Node12</title>
<g id="a_Node000012"><a xlink:title=" ">
<polygon fill="#e0e0e0" stroke="#999999" points="1397,-151 1239,-151 1239,-132 1397,-132 1397,-151"/>
<text text-anchor="middle" x="1318" y="-139" font-family="Helvetica,sans-Serif" font-size="10.00">ChimeraTK/BackendFactory.h</text>
</a>
</g>
</g>
<!-- Node4&#45;&gt;Node12 -->
<g id="edge16_Node000004_Node000012" class="edge">
<title>Node4&#45;&gt;Node12</title>
<g id="a_edge16_Node000004_Node000012"><a xlink:title=" ">
<path fill="none" stroke="#63b8ff" d="M1350.01,-241.85C1369.12,-235.37 1390.6,-224.36 1402,-206 1416.28,-183.01 1385.95,-165.37 1357.83,-154.59"/>
<polygon fill="#63b8ff" stroke="#63b8ff" points="1358.65,-151.16 1348.06,-151.06 1356.28,-157.75 1358.65,-151.16"/>
</a>
</g>
</g>
<!-- Node13 -->
<g id="Node000013" class="node">
<title>Node13</title>
<g id="a_Node000013"><a xlink:title=" ">
<polygon fill="#e0e0e0" stroke="#999999" points="1212.5,-206 1043.5,-206 1043.5,-187 1212.5,-187 1212.5,-206"/>
<text text-anchor="middle" x="1128" y="-194" font-family="Helvetica,sans-Serif" font-size="10.00">Consatt/CsaObjectUserConfig.h</text>
</a>
</g>
</g>
<!-- Node4&#45;&gt;Node13 -->
<g id="edge19_Node000004_Node000013" class="edge">
<title>Node4&#45;&gt;Node13</title>
<g id="a_edge19_Node000004_Node000013"><a xlink:title=" ">
<path fill="none" stroke="#63b8ff" d="M1282.44,-241.98C1251.28,-233.01 1202.03,-218.82 1167.54,-208.89"/>
<polygon fill="#63b8ff" stroke="#63b8ff" points="1168.37,-205.49 1157.79,-206.08 1166.43,-212.21 1168.37,-205.49"/>
</a>
</g>
</g>
<!-- Node7 -->
<g id="Node000007" class="node">
<title>Node7</title>
<g id="a_Node000007"><a xlink:href="_updatable_device_8h.html" target="_top" xlink:title=" ">
<polygon fill="white" stroke="#666666" points="1601,-151 1491,-151 1491,-132 1601,-132 1601,-151"/>
<text text-anchor="middle" x="1546" y="-139" font-family="Helvetica,sans-Serif" font-size="10.00">UpdatableDevice.h</text>
</a>
</g>
</g>
<!-- Node6&#45;&gt;Node7 -->
<g id="edge7_Node000006_Node000007" class="edge">
<title>Node6&#45;&gt;Node7</title>
<g id="a_edge7_Node000006_Node000007"><a xlink:title=" ">
<path fill="none" stroke="#63b8ff" d="M1537.65,-186.75C1538.96,-179.8 1540.84,-169.85 1542.48,-161.13"/>
<polygon fill="#63b8ff" stroke="#63b8ff" points="1545.96,-161.56 1544.38,-151.09 1539.09,-160.27 1545.96,-161.56"/>
</a>
</g>
</g>
<!-- Node6&#45;&gt;Node10 -->
<g id="edge14_Node000006_Node000010" class="edge">
<title>Node6&#45;&gt;Node10</title>
<g id="a_edge14_Node000006_Node000010"><a xlink:title=" ">
<path fill="none" stroke="#63b8ff" d="M1557.7,-186.97C1574.01,-179.6 1595.87,-167.52 1610,-151 1622.45,-136.44 1629.87,-115.61 1633.91,-100.65"/>
<polygon fill="#63b8ff" stroke="#63b8ff" points="1637.4,-101.1 1636.37,-90.56 1630.6,-99.44 1637.4,-101.1"/>
</a>
</g>
</g>
<!-- Node6&#45;&gt;Node11 -->
<g id="edge15_Node000006_Node000011" class="edge">
<title>Node6&#45;&gt;Node11</title>
<g id="a_edge15_Node000006_Node000011"><a xlink:title=" ">
<path fill="none" stroke="#63b8ff" d="M1524.52,-186.88C1506.82,-173.85 1471.51,-148.87 1439,-132 1409.49,-116.69 1374.19,-103.05 1348.47,-93.9"/>
<polygon fill="#63b8ff" stroke="#63b8ff" points="1349.36,-90.51 1338.77,-90.5 1347.05,-97.11 1349.36,-90.51"/>
</a>
</g>
</g>
<!-- Node6&#45;&gt;Node12 -->
<g id="edge13_Node000006_Node000012" class="edge">
<title>Node6&#45;&gt;Node12</title>
<g id="a_edge13_Node000006_Node000012"><a xlink:title=" ">
<path fill="none" stroke="#63b8ff" d="M1500.97,-186.98C1463.5,-177.87 1403.95,-163.4 1363.02,-153.45"/>
<polygon fill="#63b8ff" stroke="#63b8ff" points="1363.84,-150.04 1353.3,-151.08 1362.19,-156.85 1363.84,-150.04"/>
</a>
</g>
</g>
<!-- Node8 -->
<g id="Node000008" class="node">
<title>Node8</title>
<g id="a_Node000008"><a xlink:href="_periodically_updatable_8h.html" target="_top" xlink:title=" ">
<polygon fill="white" stroke="#666666" points="1523.5,-90.5 1390.5,-90.5 1390.5,-71.5 1523.5,-71.5 1523.5,-90.5"/>
<text text-anchor="middle" x="1457" y="-78.5" font-family="Helvetica,sans-Serif" font-size="10.00">PeriodicallyUpdatable.h</text>
</a>
</g>
</g>
<!-- Node7&#45;&gt;Node8 -->
<g id="edge8_Node000007_Node000008" class="edge">
<title>Node7&#45;&gt;Node8</title>
<g id="a_edge8_Node000007_Node000008"><a xlink:title=" ">
<path fill="none" stroke="#63b8ff" d="M1532.87,-131.87C1518.67,-122.54 1495.8,-107.51 1478.88,-96.38"/>
<polygon fill="#63b8ff" stroke="#63b8ff" points="1480.47,-93.24 1470.19,-90.67 1476.62,-99.08 1480.47,-93.24"/>
</a>
</g>
</g>
<!-- Node9 -->
<g id="Node000009" class="node">
<title>Node9</title>
<g id="a_Node000009"><a xlink:title=" ">
<polygon fill="#e0e0e0" stroke="#999999" points="1529,-24.5 1479,-24.5 1479,-5.5 1529,-5.5 1529,-24.5"/>
<text text-anchor="middle" x="1504" y="-12.5" font-family="Helvetica,sans-Serif" font-size="10.00">chrono</text>
</a>
</g>
</g>
<!-- Node7&#45;&gt;Node9 -->
<g id="edge12_Node000007_Node000009" class="edge">
<title>Node7&#45;&gt;Node9</title>
<g id="a_edge12_Node000007_Node000009"><a xlink:title=" ">
<path fill="none" stroke="#63b8ff" d="M1545.49,-131.98C1544.43,-117.88 1541.35,-88.95 1533,-66 1528.78,-54.4 1521.92,-42.41 1515.93,-33.07"/>
<polygon fill="#63b8ff" stroke="#63b8ff" points="1518.83,-31.11 1510.36,-24.74 1513.01,-35 1518.83,-31.11"/>
</a>
</g>
</g>
<!-- Node7&#45;&gt;Node10 -->
<g id="edge10_Node000007_Node000010" class="edge">
<title>Node7&#45;&gt;Node10</title>
<g id="a_edge10_Node000007_Node000010"><a xlink:title=" ">
<path fill="none" stroke="#63b8ff" d="M1559.57,-131.87C1574.39,-122.45 1598.33,-107.23 1615.86,-96.08"/>
<polygon fill="#63b8ff" stroke="#63b8ff" points="1617.81,-98.99 1624.37,-90.67 1614.05,-93.08 1617.81,-98.99"/>
</a>
</g>
</g>
<!-- Node7&#45;&gt;Node11 -->
<g id="edge11_Node000007_Node000011" class="edge">
<title>Node7&#45;&gt;Node11</title>
<g id="a_edge11_Node000007_Node000011"><a xlink:title=" ">
<path fill="none" stroke="#63b8ff" d="M1512.12,-131.99C1471.05,-121.68 1401.76,-104.28 1356.7,-92.97"/>
<polygon fill="#63b8ff" stroke="#63b8ff" points="1357.47,-89.56 1346.92,-90.52 1355.77,-96.35 1357.47,-89.56"/>
</a>
</g>
</g>
<!-- Node8&#45;&gt;Node9 -->
<g id="edge9_Node000008_Node000009" class="edge">
<title>Node8&#45;&gt;Node9</title>
<g id="a_edge9_Node000008_Node000009"><a xlink:title=" ">
<path fill="none" stroke="#63b8ff" d="M1463.34,-71.37C1470.52,-61.59 1482.39,-45.42 1491.46,-33.08"/>
<polygon fill="#63b8ff" stroke="#63b8ff" points="1494.36,-35.04 1497.46,-24.91 1488.72,-30.89 1494.36,-35.04"/>
</a>
</g>
</g>
<!-- Node14&#45;&gt;Node3 -->
<g id="edge22_Node000014_Node000003" class="edge">
<title>Node14&#45;&gt;Node3</title>
<g id="a_edge22_Node000014_Node000003"><a xlink:title=" ">
<path fill="none" stroke="#63b8ff" d="M769.35,-241.98C807.16,-232.87 867.26,-218.4 908.57,-208.45"/>
<polygon fill="#63b8ff" stroke="#63b8ff" points="909.47,-211.83 918.38,-206.08 907.83,-205.02 909.47,-211.83"/>
</a>
</g>
</g>
<!-- Node15 -->
<g id="Node000015" class="node">
<title>Node15</title>
<g id="a_Node000015"><a xlink:title=" ">
<polygon fill="#e0e0e0" stroke="#999999" points="751,-151 619,-151 619,-132 751,-132 751,-151"/>
<text text-anchor="middle" x="685" y="-139" font-family="Helvetica,sans-Serif" font-size="10.00">Consatt/CsaException.h</text>
</a>
</g>
</g>
<!-- Node14&#45;&gt;Node15 -->
<g id="edge21_Node000014_Node000015" class="edge">
<title>Node14&#45;&gt;Node15</title>
<g id="a_edge21_Node000014_Node000015"><a xlink:title=" ">
<path fill="none" stroke="#63b8ff" d="M715.33,-241.97C701.67,-234.59 684.14,-222.5 676,-206 669.01,-191.82 672.54,-173.83 677.08,-160.62"/>
<polygon fill="#63b8ff" stroke="#63b8ff" points="680.37,-161.8 680.75,-151.21 673.85,-159.26 680.37,-161.8"/>
</a>
</g>
</g>
<!-- Node16 -->
<g id="Node000016" class="node">
<title>Node16</title>
<g id="a_Node000016"><a xlink:title=" ">
<polygon fill="#e0e0e0" stroke="#999999" points="629,-206 519,-206 519,-187 629,-187 629,-206"/>
<text text-anchor="middle" x="574" y="-194" font-family="Helvetica,sans-Serif" font-size="10.00">Consatt/CsaLoger.h</text>
</a>
</g>
</g>
<!-- Node14&#45;&gt;Node16 -->
<g id="edge23_Node000014_Node000016" class="edge">
<title>Node14&#45;&gt;Node16</title>
<g id="a_edge23_Node000014_Node000016"><a xlink:title=" ">
<path fill="none" stroke="#63b8ff" d="M708.29,-241.98C681.55,-233.13 639.47,-219.19 609.55,-209.28"/>
<polygon fill="#63b8ff" stroke="#63b8ff" points="610.5,-205.9 599.91,-206.08 608.3,-212.55 610.5,-205.9"/>
</a>
</g>
</g>
<!-- Node17 -->
<g id="Node000017" class="node">
<title>Node17</title>
<g id="a_Node000017"><a xlink:href="_csa_stepper_motor_unit_converter_8h.html" target="_top" xlink:title=" ">
<polygon fill="white" stroke="#666666" points="500.5,-206 323.5,-206 323.5,-187 500.5,-187 500.5,-206"/>
<text text-anchor="middle" x="412" y="-194" font-family="Helvetica,sans-Serif" font-size="10.00">CsaStepperMotorUnitConverter.h</text>
</a>
</g>
</g>
<!-- Node14&#45;&gt;Node17 -->
<g id="edge24_Node000014_Node000017" class="edge">
<title>Node14&#45;&gt;Node17</title>
<g id="a_edge24_Node000014_Node000017"><a xlink:title=" ">
<path fill="none" stroke="#63b8ff" d="M682.27,-241.98C625.55,-232.65 534.57,-217.67 474.06,-207.71"/>
<polygon fill="#63b8ff" stroke="#63b8ff" points="474.31,-204.21 463.87,-206.04 473.17,-211.12 474.31,-204.21"/>
</a>
</g>
</g>
<!-- Node19 -->
<g id="Node000019" class="node">
<title>Node19</title>
<g id="a_Node000019"><a xlink:href="_stepper_motor_actuator_status_and_error_8h.html" target="_top" xlink:title=" ">
<polygon fill="white" stroke="#666666" points="1221.5,-96 1066.5,-96 1066.5,-66 1221.5,-66 1221.5,-96"/>
<text text-anchor="start" x="1074.5" y="-84" font-family="Helvetica,sans-Serif" font-size="10.00">StepperMotorActuatorStatus</text>
<text text-anchor="middle" x="1144" y="-73" font-family="Helvetica,sans-Serif" font-size="10.00">AndError.h</text>
</a>
</g>
</g>
<!-- Node14&#45;&gt;Node19 -->
<g id="edge43_Node000014_Node000019" class="edge">
<title>Node14&#45;&gt;Node19</title>
<g id="a_edge43_Node000014_Node000019"><a xlink:title=" ">
<path fill="none" stroke="#63b8ff" d="M751.98,-241.96C778.5,-229.46 829.72,-205.63 874,-187 951.03,-154.58 1041.81,-120.01 1096.04,-99.74"/>
<polygon fill="#63b8ff" stroke="#63b8ff" points="1097.58,-102.9 1105.73,-96.13 1095.14,-96.34 1097.58,-102.9"/>
</a>
</g>
</g>
<!-- Node31 -->
<g id="Node000031" class="node">
<title>Node31</title>
<g id="a_Node000031"><a xlink:href="_stepper_actuator_8h.html" target="_top" xlink:title=" ">
<polygon fill="white" stroke="#666666" points="789,-206 685,-206 685,-187 789,-187 789,-206"/>
<text text-anchor="middle" x="737" y="-194" font-family="Helvetica,sans-Serif" font-size="10.00">StepperActuator.h</text>
</a>
</g>
</g>
<!-- Node14&#45;&gt;Node31 -->
<g id="edge40_Node000014_Node000031" class="edge">
<title>Node14&#45;&gt;Node31</title>
<g id="a_edge40_Node000014_Node000031"><a xlink:title=" ">
<path fill="none" stroke="#63b8ff" d="M734.5,-241.75C734.89,-234.8 735.45,-224.85 735.95,-216.13"/>
<polygon fill="#63b8ff" stroke="#63b8ff" points="739.44,-216.27 736.51,-206.09 732.45,-215.88 739.44,-216.27"/>
</a>
</g>
</g>
<!-- Node18 -->
<g id="Node000018" class="node">
<title>Node18</title>
<g id="a_Node000018"><a xlink:href="_stepper_motor_m_d22_8h.html" target="_top" xlink:title=" ">
<polygon fill="white" stroke="#666666" points="583,-151 463,-151 463,-132 583,-132 583,-151"/>
<text text-anchor="middle" x="523" y="-139" font-family="Helvetica,sans-Serif" font-size="10.00">StepperMotorMD22.h</text>
</a>
</g>
</g>
<!-- Node17&#45;&gt;Node18 -->
<g id="edge25_Node000017_Node000018" class="edge">
<title>Node17&#45;&gt;Node18</title>
<g id="a_edge25_Node000017_Node000018"><a xlink:title=" ">
<path fill="none" stroke="#63b8ff" d="M429.83,-186.98C447.61,-178.5 475.15,-165.35 495.68,-155.54"/>
<polygon fill="#63b8ff" stroke="#63b8ff" points="497.33,-158.64 504.84,-151.17 494.31,-152.32 497.33,-158.64"/>
</a>
</g>
</g>
<!-- Node18&#45;&gt;Node11 -->
<g id="edge29_Node000018_Node000011" class="edge">
<title>Node18&#45;&gt;Node11</title>
<g id="a_edge29_Node000018_Node000011"><a xlink:title=" ">
<path fill="none" stroke="#63b8ff" d="M583.35,-134.29C592.28,-133.46 601.38,-132.67 610,-132 885.63,-110.55 956.32,-127.31 1231,-96 1239.86,-94.99 1249.22,-93.65 1258.32,-92.2"/>
<polygon fill="#63b8ff" stroke="#63b8ff" points="1259.15,-95.62 1268.44,-90.53 1258.01,-88.71 1259.15,-95.62"/>
</a>
</g>
</g>
<!-- Node18&#45;&gt;Node18 -->
<g id="edge28_Node000018_Node000018" class="edge">
<title>Node18&#45;&gt;Node18</title>
<g id="a_edge28_Node000018_Node000018"><a xlink:title=" ">
<path fill="none" stroke="#63b8ff" d="M559.51,-151.03C580.94,-153.06 601,-149.88 601,-141.5 601,-134.49 586.98,-131.12 569.86,-131.39"/>
<polygon fill="#63b8ff" stroke="#63b8ff" points="569.3,-127.92 559.51,-131.97 569.69,-134.91 569.3,-127.92"/>
</a>
</g>
</g>
<!-- Node18&#45;&gt;Node19 -->
<g id="edge26_Node000018_Node000019" class="edge">
<title>Node18&#45;&gt;Node19</title>
<g id="a_edge26_Node000018_Node000019"><a xlink:title=" ">
<path fill="none" stroke="#63b8ff" d="M583.36,-134.47C592.29,-133.61 601.38,-132.77 610,-132 805.66,-114.58 857.98,-119.88 1056.07,-96.18"/>
<polygon fill="#63b8ff" stroke="#63b8ff" points="1056.72,-99.62 1066.22,-94.95 1055.88,-92.67 1056.72,-99.62"/>
</a>
</g>
</g>
<!-- Node21 -->
<g id="Node000021" class="node">
<title>Node21</title>
<g id="a_Node000021"><a xlink:title=" ">
<polygon fill="#e0e0e0" stroke="#999999" points="567.5,-90.5 468.5,-90.5 468.5,-71.5 567.5,-71.5 567.5,-90.5"/>
<text text-anchor="middle" x="518" y="-78.5" font-family="Helvetica,sans-Serif" font-size="10.00">boost/thread.hpp</text>
</a>
</g>
</g>
<!-- Node18&#45;&gt;Node21 -->
<g id="edge30_Node000018_Node000021" class="edge">
<title>Node18&#45;&gt;Node21</title>
<g id="a_edge30_Node000018_Node000021"><a xlink:title=" ">
<path fill="none" stroke="#63b8ff" d="M522.26,-131.87C521.57,-123.75 520.5,-111.31 519.61,-100.89"/>
<polygon fill="#63b8ff" stroke="#63b8ff" points="523.08,-100.33 518.74,-90.67 516.11,-100.93 523.08,-100.33"/>
</a>
</g>
</g>
<!-- Node18&#45;&gt;Node22 -->
<g id="edge31_Node000018_Node000022" class="edge">
<title>Node18&#45;&gt;Node22</title>
<g id="a_edge31_Node000018_Node000022"><a xlink:title=" ">
<path fill="none" stroke="#63b8ff" d="M462.73,-138.98C383.94,-135.81 242.19,-126.05 125,-96 122.84,-95.45 120.64,-94.78 118.44,-94.05"/>
<polygon fill="#63b8ff" stroke="#63b8ff" points="119.62,-90.76 109.03,-90.52 117.16,-97.31 119.62,-90.76"/>
</a>
</g>
</g>
<!-- Node23 -->
<g id="Node000023" class="node">
<title>Node23</title>
<g id="a_Node000023"><a xlink:title=" ">
<polygon fill="#e0e0e0" stroke="#999999" points="630,-90.5 586,-90.5 586,-71.5 630,-71.5 630,-90.5"/>
<text text-anchor="middle" x="608" y="-78.5" font-family="Helvetica,sans-Serif" font-size="10.00">string</text>
</a>
</g>
</g>
<!-- Node18&#45;&gt;Node23 -->
<g id="edge32_Node000018_Node000023" class="edge">
<title>Node18&#45;&gt;Node23</title>
<g id="a_edge32_Node000018_Node000023"><a xlink:title=" ">
<path fill="none" stroke="#63b8ff" d="M535.54,-131.87C549.1,-122.54 570.94,-107.51 587.1,-96.38"/>
<polygon fill="#63b8ff" stroke="#63b8ff" points="589.15,-99.22 595.41,-90.67 585.18,-93.45 589.15,-99.22"/>
</a>
</g>
</g>
<!-- Node18&#45;&gt;Node24 -->
<g id="edge33_Node000018_Node000024" class="edge">
<title>Node18&#45;&gt;Node24</title>
<g id="a_edge33_Node000018_Node000024"><a xlink:title=" ">
<path fill="none" stroke="#63b8ff" d="M462.79,-140.58C373.02,-139.4 199.39,-132.09 57,-96 55.05,-95.51 53.08,-94.92 51.1,-94.26"/>
<polygon fill="#63b8ff" stroke="#63b8ff" points="52.06,-90.88 41.47,-90.58 49.56,-97.42 52.06,-90.88"/>
</a>
</g>
</g>
<!-- Node25 -->
<g id="Node000025" class="node">
<title>Node25</title>
<g id="a_Node000025"><a xlink:title=" ">
<polygon fill="#e0e0e0" stroke="#999999" points="740,-90.5 648,-90.5 648,-71.5 740,-71.5 740,-90.5"/>
<text text-anchor="middle" x="694" y="-78.5" font-family="Helvetica,sans-Serif" font-size="10.00">Consatt/CtrlPI.h</text>
</a>
</g>
</g>
<!-- Node18&#45;&gt;Node25 -->
<g id="edge34_Node000018_Node000025" class="edge">
<title>Node18&#45;&gt;Node25</title>
<g id="a_edge34_Node000018_Node000025"><a xlink:title=" ">
<path fill="none" stroke="#63b8ff" d="M547.86,-131.99C577.25,-121.94 626.31,-105.16 659.39,-93.84"/>
<polygon fill="#63b8ff" stroke="#63b8ff" points="660.78,-97.07 669.11,-90.52 658.51,-90.44 660.78,-97.07"/>
</a>
</g>
</g>
<!-- Node26 -->
<g id="Node000026" class="node">
<title>Node26</title>
<g id="a_Node000026"><a xlink:title=" ">
<polygon fill="#e0e0e0" stroke="#999999" points="1806,-90.5 1714,-90.5 1714,-71.5 1806,-71.5 1806,-90.5"/>
<text text-anchor="middle" x="1760" y="-78.5" font-family="Helvetica,sans-Serif" font-size="10.00">Consatt/Loger.h</text>
</a>
</g>
</g>
<!-- Node18&#45;&gt;Node26 -->
<g id="edge35_Node000018_Node000026" class="edge">
<title>Node18&#45;&gt;Node26</title>
<g id="a_edge35_Node000018_Node000026"><a xlink:title=" ">
<path fill="none" stroke="#63b8ff" d="M583.33,-134.1C592.27,-133.3 601.37,-132.56 610,-132 1095.9,-100.31 1222.91,-164.46 1705,-96 1710.43,-95.23 1716.09,-94.13 1721.63,-92.89"/>
<polygon fill="#63b8ff" stroke="#63b8ff" points="1722.51,-96.28 1731.4,-90.53 1720.86,-89.47 1722.51,-96.28"/>
</a>
</g>
</g>
<!-- Node27 -->
<g id="Node000027" class="node">
<title>Node27</title>
<g id="a_Node000027"><a xlink:title=" ">
<polygon fill="#e0e0e0" stroke="#999999" points="893.5,-96 758.5,-96 758.5,-66 893.5,-66 893.5,-96"/>
<text text-anchor="start" x="766.5" y="-84" font-family="Helvetica,sans-Serif" font-size="10.00">Consatt/StatisticsForCsa</text>
<text text-anchor="middle" x="826" y="-73" font-family="Helvetica,sans-Serif" font-size="10.00">Vector.h</text>
</a>
</g>
</g>
<!-- Node18&#45;&gt;Node27 -->
<g id="edge36_Node000018_Node000027" class="edge">
<title>Node18&#45;&gt;Node27</title>
<g id="a_edge36_Node000018_Node000027"><a xlink:title=" ">
<path fill="none" stroke="#63b8ff" d="M567.06,-131.99C614.44,-122.85 690.7,-108.12 748.22,-97.02"/>
<polygon fill="#63b8ff" stroke="#63b8ff" points="749.21,-100.39 758.37,-95.06 747.89,-93.52 749.21,-100.39"/>
</a>
</g>
</g>
<!-- Node28 -->
<g id="Node000028" class="node">
<title>Node28</title>
<g id="a_Node000028"><a xlink:title=" ">
<polygon fill="#e0e0e0" stroke="#999999" points="1048.5,-96 911.5,-96 911.5,-66 1048.5,-66 1048.5,-96"/>
<text text-anchor="start" x="919.5" y="-84" font-family="Helvetica,sans-Serif" font-size="10.00">mtca4u/MotorDriverCard</text>
<text text-anchor="middle" x="980" y="-73" font-family="Helvetica,sans-Serif" font-size="10.00">/MotorControler.h</text>
</a>
</g>
</g>
<!-- Node18&#45;&gt;Node28 -->
<g id="edge37_Node000018_Node000028" class="edge">
<title>Node18&#45;&gt;Node28</title>
<g id="a_edge37_Node000018_Node000028"><a xlink:title=" ">
<path fill="none" stroke="#63b8ff" d="M583.05,-134.65C656.03,-127.28 783.14,-113.6 901.25,-96.21"/>
<polygon fill="#63b8ff" stroke="#63b8ff" points="901.81,-99.66 911.19,-94.73 900.78,-92.74 901.81,-99.66"/>
</a>
</g>
</g>
<!-- Node29 -->
<g id="Node000029" class="node">
<title>Node29</title>
<g id="a_Node000029"><a xlink:title=" ">
<polygon fill="#e0e0e0" stroke="#999999" points="271.5,-96 134.5,-96 134.5,-66 271.5,-66 271.5,-96"/>
<text text-anchor="start" x="142.5" y="-84" font-family="Helvetica,sans-Serif" font-size="10.00">mtca4u/MotorDriverCard</text>
<text text-anchor="middle" x="203" y="-73" font-family="Helvetica,sans-Serif" font-size="10.00">/MotorDriverCard.h</text>
</a>
</g>
</g>
<!-- Node18&#45;&gt;Node29 -->
<g id="edge38_Node000018_Node000029" class="edge">
<title>Node18&#45;&gt;Node29</title>
<g id="a_edge38_Node000018_Node000029"><a xlink:title=" ">
<path fill="none" stroke="#63b8ff" d="M476.47,-131.99C425.48,-122.67 342.83,-107.56 281.72,-96.39"/>
<polygon fill="#63b8ff" stroke="#63b8ff" points="282.19,-92.92 271.72,-94.56 280.93,-99.8 282.19,-92.92"/>
</a>
</g>
</g>
<!-- Node30 -->
<g id="Node000030" class="node">
<title>Node30</title>
<g id="a_Node000030"><a xlink:title=" ">
<polygon fill="#e0e0e0" stroke="#999999" points="450.5,-96 289.5,-96 289.5,-66 450.5,-66 450.5,-96"/>
<text text-anchor="start" x="297.5" y="-84" font-family="Helvetica,sans-Serif" font-size="10.00">mtca4u/MotorDriverCard</text>
<text text-anchor="middle" x="370" y="-73" font-family="Helvetica,sans-Serif" font-size="10.00">/MotorDriverCardConfigXML.h</text>
</a>
</g>
</g>
<!-- Node18&#45;&gt;Node30 -->
<g id="edge39_Node000018_Node000030" class="edge">
<title>Node18&#45;&gt;Node30</title>
<g id="a_edge39_Node000018_Node000030"><a xlink:title=" ">
<path fill="none" stroke="#63b8ff" d="M500.75,-131.99C478.73,-123.57 444.36,-110.43 416.38,-99.73"/>
<polygon fill="#63b8ff" stroke="#63b8ff" points="417.37,-96.37 406.78,-96.06 414.87,-102.9 417.37,-96.37"/>
</a>
</g>
</g>
<!-- Node20 -->
<g id="Node000020" class="node">
<title>Node20</title>
<g id="a_Node000020"><a xlink:title=" ">
<polygon fill="#e0e0e0" stroke="#999999" points="1212.5,-30 1075.5,-30 1075.5,0 1212.5,0 1212.5,-30"/>
<text text-anchor="start" x="1083.5" y="-18" font-family="Helvetica,sans-Serif" font-size="10.00">mtca4u/MotorDriverCard</text>
<text text-anchor="middle" x="1144" y="-7" font-family="Helvetica,sans-Serif" font-size="10.00">/GeneralStatus.h</text>
</a>
</g>
</g>
<!-- Node19&#45;&gt;Node20 -->
<g id="edge27_Node000019_Node000020" class="edge">
<title>Node19&#45;&gt;Node20</title>
<g id="a_edge27_Node000019_Node000020"><a xlink:title=" ">
<path fill="none" stroke="#63b8ff" d="M1144,-65.8C1144,-58.34 1144,-48.99 1144,-40.41"/>
<polygon fill="#63b8ff" stroke="#63b8ff" points="1147.5,-40.16 1144,-30.16 1140.5,-40.16 1147.5,-40.16"/>
</a>
</g>
</g>
<!-- Node31&#45;&gt;Node15 -->
<g id="edge41_Node000031_Node000015" class="edge">
<title>Node31&#45;&gt;Node15</title>
<g id="a_edge41_Node000031_Node000015"><a xlink:title=" ">
<path fill="none" stroke="#63b8ff" d="M728.41,-186.75C720.84,-179.03 709.62,-167.6 700.49,-158.28"/>
<polygon fill="#63b8ff" stroke="#63b8ff" points="702.93,-155.78 693.43,-151.09 697.93,-160.68 702.93,-155.78"/>
</a>
</g>
</g>
<!-- Node31&#45;&gt;Node19 -->
<g id="edge42_Node000031_Node000019" class="edge">
<title>Node31&#45;&gt;Node19</title>
<g id="a_edge42_Node000031_Node000019"><a xlink:title=" ">
<path fill="none" stroke="#63b8ff" d="M743.14,-186.76C753.62,-172.6 776.41,-144.95 803,-132 902.99,-83.31 942.59,-111.49 1056.08,-96.19"/>
<polygon fill="#63b8ff" stroke="#63b8ff" points="1056.79,-99.63 1066.2,-94.74 1055.8,-92.7 1056.79,-99.63"/>
</a>
</g>
</g>
<!-- Node32&#45;&gt;Node3 -->
<g id="edge46_Node000032_Node000003" class="edge">
<title>Node32&#45;&gt;Node3</title>
<g id="a_edge46_Node000032_Node000003"><a xlink:title=" ">
<path fill="none" stroke="#63b8ff" d="M954,-296.66C954,-279.17 954,-239.8 954,-216.27"/>
<polygon fill="#63b8ff" stroke="#63b8ff" points="957.5,-216.16 954,-206.16 950.5,-216.16 957.5,-216.16"/>
</a>
</g>
</g>
<!-- Node32&#45;&gt;Node4 -->
<g id="edge48_Node000032_Node000004" class="edge">
<title>Node32&#45;&gt;Node4</title>
<g id="a_edge48_Node000032_Node000004"><a xlink:title=" ">
<path fill="none" stroke="#63b8ff" d="M1011.52,-296.98C1074.97,-287.59 1176.98,-272.49 1244.25,-262.53"/>
<polygon fill="#63b8ff" stroke="#63b8ff" points="1244.95,-265.96 1254.33,-261.04 1243.92,-259.04 1244.95,-265.96"/>
</a>
</g>
</g>
<!-- Node32&#45;&gt;Node19 -->
<g id="edge53_Node000032_Node000019" class="edge">
<title>Node32&#45;&gt;Node19</title>
<g id="a_edge53_Node000032_Node000019"><a xlink:title=" ">
<path fill="none" stroke="#63b8ff" d="M940.17,-296.85C910.57,-277.25 845.97,-227.97 874,-187 897.7,-152.36 1005.26,-118.26 1077.26,-98.72"/>
<polygon fill="#63b8ff" stroke="#63b8ff" points="1078.42,-102.03 1087.17,-96.06 1076.6,-95.27 1078.42,-102.03"/>
</a>
</g>
</g>
<!-- Node32&#45;&gt;Node22 -->
<g id="edge54_Node000032_Node000022" class="edge">
<title>Node32&#45;&gt;Node22</title>
<g id="a_edge54_Node000032_Node000022"><a xlink:title=" ">
<path fill="none" stroke="#63b8ff" d="M894.74,-297.3C746.78,-276.7 369.06,-223.14 314,-206 232.9,-180.75 148.18,-123.76 110.76,-96.74"/>
<polygon fill="#63b8ff" stroke="#63b8ff" points="112.44,-93.63 102.3,-90.55 108.31,-99.28 112.44,-93.63"/>
</a>
</g>
</g>
<!-- Node32&#45;&gt;Node26 -->
<g id="edge47_Node000032_Node000026" class="edge">
<title>Node32&#45;&gt;Node26</title>
<g id="a_edge47_Node000032_Node000026"><a xlink:title=" ">
<path fill="none" stroke="#63b8ff" d="M1013.33,-297.97C1016.26,-297.64 1019.16,-297.31 1022,-297 1287.94,-267.98 1380.44,-330.92 1617,-206 1671.01,-177.48 1721.98,-125 1745.85,-98.39"/>
<polygon fill="#63b8ff" stroke="#63b8ff" points="1748.62,-100.54 1752.62,-90.73 1743.37,-95.91 1748.62,-100.54"/>
</a>
</g>
</g>
<!-- Node33 -->
<g id="Node000033" class="node">
<title>Node33</title>
<g id="a_Node000033"><a xlink:href="_piezo_tuner_8h.html" target="_top" xlink:title=" ">
<polygon fill="white" stroke="#666666" points="1831.5,-261 1754.5,-261 1754.5,-242 1831.5,-242 1831.5,-261"/>
<text text-anchor="middle" x="1793" y="-249" font-family="Helvetica,sans-Serif" font-size="10.00">PiezoTuner.h</text>
</a>
</g>
</g>
<!-- Node32&#45;&gt;Node33 -->
<g id="edge49_Node000032_Node000033" class="edge">
<title>Node32&#45;&gt;Node33</title>
<g id="a_edge49_Node000032_Node000033"><a xlink:title=" ">
<path fill="none" stroke="#63b8ff" d="M1013.31,-297.83C1016.25,-297.53 1019.16,-297.25 1022,-297 1330.99,-269.74 1409.88,-286.71 1719,-261 1727.15,-260.32 1735.8,-259.46 1744.19,-258.55"/>
<polygon fill="#63b8ff" stroke="#63b8ff" points="1744.71,-262.01 1754.26,-257.41 1743.93,-255.05 1744.71,-262.01"/>
</a>
</g>
</g>
<!-- Node33&#45;&gt;Node26 -->
<g id="edge50_Node000033_Node000026" class="edge">
<title>Node33&#45;&gt;Node26</title>
<g id="a_edge50_Node000033_Node000026"><a xlink:title=" ">
<path fill="none" stroke="#63b8ff" d="M1793.75,-241.98C1794.49,-233.03 1795.58,-218.54 1796,-206 1796.28,-197.56 1797.39,-195.33 1796,-187 1790.74,-155.44 1777.16,-120.64 1768.26,-100.09"/>
<polygon fill="#63b8ff" stroke="#63b8ff" points="1771.36,-98.45 1764.11,-90.73 1764.97,-101.29 1771.36,-98.45"/>
</a>
</g>
</g>
<!-- Node34 -->
<g id="Node000034" class="node">
<title>Node34</title>
<g id="a_Node000034"><a xlink:title=" ">
<polygon fill="#e0e0e0" stroke="#999999" points="1890.5,-206 1843.5,-206 1843.5,-187 1890.5,-187 1890.5,-206"/>
<text text-anchor="middle" x="1867" y="-194" font-family="Helvetica,sans-Serif" font-size="10.00">cmath</text>
</a>
</g>
</g>
<!-- Node33&#45;&gt;Node34 -->
<g id="edge51_Node000033_Node000034" class="edge">
<title>Node33&#45;&gt;Node34</title>
<g id="a_edge51_Node000033_Node000034"><a xlink:title=" ">
<path fill="none" stroke="#63b8ff" d="M1804.89,-241.98C1816.15,-233.92 1833.29,-221.65 1846.71,-212.03"/>
<polygon fill="#63b8ff" stroke="#63b8ff" points="1848.8,-214.84 1854.89,-206.17 1844.73,-209.15 1848.8,-214.84"/>
</a>
</g>
</g>
<!-- Node35 -->
<g id="Node000035" class="node">
<title>Node35</title>
<g id="a_Node000035"><a xlink:title=" ">
<polygon fill="#e0e0e0" stroke="#999999" points="1786.5,-206 1733.5,-206 1733.5,-187 1786.5,-187 1786.5,-206"/>
<text text-anchor="middle" x="1760" y="-194" font-family="Helvetica,sans-Serif" font-size="10.00">stdint.h</text>
</a>
</g>
</g>
<!-- Node33&#45;&gt;Node35 -->
<g id="edge52_Node000033_Node000035" class="edge">
<title>Node33&#45;&gt;Node35</title>
<g id="a_edge52_Node000033_Node000035"><a xlink:title=" ">
<path fill="none" stroke="#63b8ff" d="M1787.55,-241.75C1782.99,-234.42 1776.33,-223.73 1770.71,-214.7"/>
<polygon fill="#63b8ff" stroke="#63b8ff" points="1773.6,-212.73 1765.35,-206.09 1767.66,-216.43 1773.6,-212.73"/>
</a>
</g>
</g>
</g>
</svg>

<g id="navigator" transform="translate(0 0)" fill="#404254">
  <rect fill="#f2f5e9" fill-opacity="0.5" stroke="#606060" stroke-width=".5" x="0" y="0" width="60" height="60"/>
  <use id="zoomplus" xlink:href="#zoomPlus" x="17" y="9" onmousedown="handleZoom(evt,'in')"/>
  <use id="zoomminus" xlink:href="#zoomMin" x="42" y="9" onmousedown="handleZoom(evt,'out')"/>
  <use id="reset" xlink:href="#resetDef" x="30" y="36" onmousedown="handleReset()"/>
   <use id="arrowup" xlink:href="#arrowUp" x="0" y="0" onmousedown="handlePan(0,-1)"/>
  <use id="arrowright" xlink:href="#arrowRight" x="0" y="0" onmousedown="handlePan(1,0)"/>
  <use id="arrowdown" xlink:href="#arrowDown" x="0" y="0" onmousedown="handlePan(0,1)"/>
  <use id="arrowleft" xlink:href="#arrowLeft" x="0" y="0" onmousedown="handlePan(-1,0)"/>
</g>
<svg viewBox="0 0 15 15" width="100%" height="30px" preserveAspectRatio="xMaxYMin meet">
 <g id="arrow_out" transform="scale(0.3 0.3)">
  <a xlink:href="_csa_stepper_motor_piezo_8cc__incl_org.svg" target="_base">
   <rect id="button" ry="5" rx="5" y="6" x="6" height="38" width="38"
        fill="#f2f5e9" fill-opacity="0.5" stroke="#606060" stroke-width="1.0"/>
   <path id="arrow"
     d="M 11.500037,31.436501 C 11.940474,20.09759 22.043105,11.32322 32.158766,21.979434 L 37.068811,17.246167 C 37.068811,17.246167 37.088388,32 37.088388,32 L 22.160133,31.978069 C 22.160133,31.978069 26.997745,27.140456 26.997745,27.140456 C 18.528582,18.264221 13.291696,25.230495 11.500037,31.436501 z"
     style="fill:#404040;"/>
  </a>
 </g>
</svg>

<style type='text/css'>
<![CDATA[
[data-mouse-over-selected='false'] { opacity: 0.7; }
[data-mouse-over-selected='true']  { opacity: 1.0; }
]]>
</style>
<script type="application/ecmascript"><![CDATA[
document.addEventListener('DOMContentLoaded', (event) => {
  highlightEdges();
  highlightAdjacentNodes();
});
]]></script>
</svg>
