<?xml version="1.0" encoding="UTF-8" standalone="no"?>
<!DOCTYPE svg PUBLIC "-//W3C//DTD SVG 1.1//EN"
 "http://www.w3.org/Graphics/SVG/1.1/DTD/svg11.dtd">
<!-- Generated by graphviz version 2.43.0 (0)
 -->
<!-- Title: /scratch/dragon/sources/Demac/actuators/include/CsaStepperMotorSawPiezoPZT4.h Pages: 1 -->
<svg width="2196pt" height="352pt"
 viewBox="0.00 0.00 2196.00 352.00" xmlns="http://www.w3.org/2000/svg" xmlns:xlink="http://www.w3.org/1999/xlink">
<g id="graph0" class="graph" transform="scale(1 1) rotate(0) translate(4 348)">
<title>/scratch/dragon/sources/Demac/actuators/include/CsaStepperMotorSawPiezoPZT4.h</title>
<polygon fill="white" stroke="transparent" points="-4,4 -4,-348 2192,-348 2192,4 -4,4"/>
<!-- Node1 -->
<g id="node1" class="node">
<title>Node1</title>
<g id="a_node1"><a xlink:title=" ">
<polygon fill="#bfbfbf" stroke="black" points="892,-302.5 892,-343.5 1076,-343.5 1076,-302.5 892,-302.5"/>
<text text-anchor="start" x="900" y="-331.5" font-family="Helvetica,sans-Serif" font-size="10.00">/scratch/dragon/sources</text>
<text text-anchor="start" x="900" y="-320.5" font-family="Helvetica,sans-Serif" font-size="10.00">/Demac/actuators/include</text>
<text text-anchor="middle" x="984" y="-309.5" font-family="Helvetica,sans-Serif" font-size="10.00">/CsaStepperMotorSawPiezoPZT4.h</text>
</a>
</g>
</g>
<!-- Node2 -->
<g id="node2" class="node">
<title>Node2</title>
<g id="a_node2"><a xlink:title=" ">
<polygon fill="white" stroke="#bfbfbf" points="818,-190.5 818,-209.5 960,-209.5 960,-190.5 818,-190.5"/>
<text text-anchor="middle" x="889" y="-197.5" font-family="Helvetica,sans-Serif" font-size="10.00">Consatt/CsaLibTypedefs.h</text>
</a>
</g>
</g>
<!-- Node1&#45;&gt;Node2 -->
<g id="edge1" class="edge">
<title>Node1&#45;&gt;Node2</title>
<path fill="none" stroke="midnightblue" d="M968.53,-302.29C950.04,-278.75 919.45,-239.78 902.09,-217.67"/>
<polygon fill="midnightblue" stroke="midnightblue" points="904.66,-215.28 895.73,-209.57 899.15,-219.6 904.66,-215.28"/>
</g>
<!-- Node3 -->
<g id="node3" class="node">
<title>Node3</title>
<g id="a_node3"><a xlink:href="_csa_registered_memory_accesor_8h.html" target="_top" xlink:title=" ">
<polygon fill="white" stroke="black" points="392,-246.5 392,-265.5 566,-265.5 566,-246.5 392,-246.5"/>
<text text-anchor="middle" x="479" y="-253.5" font-family="Helvetica,sans-Serif" font-size="10.00">CsaRegisteredMemoryAccesor.h</text>
</a>
</g>
</g>
<!-- Node1&#45;&gt;Node3 -->
<g id="edge2" class="edge">
<title>Node1&#45;&gt;Node3</title>
<path fill="none" stroke="midnightblue" d="M891.96,-310.15C795.4,-297.72 645.38,-278.42 555.22,-266.81"/>
<polygon fill="midnightblue" stroke="midnightblue" points="555.43,-263.31 545.06,-265.5 554.54,-270.25 555.43,-263.31"/>
</g>
<!-- Node13 -->
<g id="node13" class="node">
<title>Node13</title>
<g id="a_node13"><a xlink:href="_csa_stepper_motor_8h.html" target="_top" xlink:title=" ">
<polygon fill="white" stroke="black" points="971.5,-246.5 971.5,-265.5 1080.5,-265.5 1080.5,-246.5 971.5,-246.5"/>
<text text-anchor="middle" x="1026" y="-253.5" font-family="Helvetica,sans-Serif" font-size="10.00">CsaStepperMotor.h</text>
</a>
</g>
</g>
<!-- Node1&#45;&gt;Node13 -->
<g id="edge19" class="edge">
<title>Node1&#45;&gt;Node13</title>
<path fill="none" stroke="midnightblue" d="M996.6,-302.5C1002.42,-293.49 1009.27,-282.89 1014.9,-274.19"/>
<polygon fill="midnightblue" stroke="midnightblue" points="1017.92,-275.95 1020.41,-265.65 1012.04,-272.15 1017.92,-275.95"/>
</g>
<!-- Node21 -->
<g id="node21" class="node">
<title>Node21</title>
<g id="a_node21"><a xlink:title=" ">
<polygon fill="white" stroke="#bfbfbf" points="2138,-73 2138,-92 2188,-92 2188,-73 2138,-73"/>
<text text-anchor="middle" x="2163" y="-80" font-family="Helvetica,sans-Serif" font-size="10.00">atomic</text>
</a>
</g>
</g>
<!-- Node1&#45;&gt;Node21 -->
<g id="edge43" class="edge">
<title>Node1&#45;&gt;Node21</title>
<path fill="none" stroke="midnightblue" d="M1076.14,-310.66C1272.74,-285.03 1746.61,-215.51 2129,-98 2131.14,-97.34 2133.33,-96.59 2135.52,-95.79"/>
<polygon fill="midnightblue" stroke="midnightblue" points="2136.92,-99 2144.91,-92.05 2134.33,-92.5 2136.92,-99"/>
</g>
<!-- Node3&#45;&gt;Node2 -->
<g id="edge3" class="edge">
<title>Node3&#45;&gt;Node2</title>
<path fill="none" stroke="midnightblue" d="M543.97,-246.44C617.44,-236.77 736.88,-221.04 814.19,-210.85"/>
<polygon fill="midnightblue" stroke="midnightblue" points="814.88,-214.29 824.34,-209.52 813.97,-207.35 814.88,-214.29"/>
</g>
<!-- Node4 -->
<g id="node4" class="node">
<title>Node4</title>
<g id="a_node4"><a xlink:title=" ">
<polygon fill="white" stroke="#bfbfbf" points="638,-190.5 638,-209.5 800,-209.5 800,-190.5 638,-190.5"/>
<text text-anchor="middle" x="719" y="-197.5" font-family="Helvetica,sans-Serif" font-size="10.00">Consatt/CsaShapeGenerator.h</text>
</a>
</g>
</g>
<!-- Node3&#45;&gt;Node4 -->
<g id="edge4" class="edge">
<title>Node3&#45;&gt;Node4</title>
<path fill="none" stroke="midnightblue" d="M517.03,-246.44C558.81,-237.04 625.98,-221.93 671.27,-211.74"/>
<polygon fill="midnightblue" stroke="midnightblue" points="672.16,-215.13 681.15,-209.52 670.62,-208.3 672.16,-215.13"/>
</g>
<!-- Node5 -->
<g id="node5" class="node">
<title>Node5</title>
<g id="a_node5"><a xlink:href="_ex_reg_acc_base_8h.html" target="_top" xlink:title=" ">
<polygon fill="white" stroke="black" points="178,-190.5 178,-209.5 276,-209.5 276,-190.5 178,-190.5"/>
<text text-anchor="middle" x="227" y="-197.5" font-family="Helvetica,sans-Serif" font-size="10.00">ExRegAccBase.h</text>
</a>
</g>
</g>
<!-- Node3&#45;&gt;Node5 -->
<g id="edge5" class="edge">
<title>Node3&#45;&gt;Node5</title>
<path fill="none" stroke="midnightblue" d="M439.07,-246.44C395.11,-237.02 324.37,-221.87 276.82,-211.68"/>
<polygon fill="midnightblue" stroke="midnightblue" points="277.25,-208.19 266.74,-209.52 275.79,-215.03 277.25,-208.19"/>
</g>
<!-- Node9 -->
<g id="node9" class="node">
<title>Node9</title>
<g id="a_node9"><a xlink:title=" ">
<polygon fill="white" stroke="#bfbfbf" points="0,-73 0,-92 116,-92 116,-73 0,-73"/>
<text text-anchor="middle" x="58" y="-80" font-family="Helvetica,sans-Serif" font-size="10.00">ChimeraTK/Device.h</text>
</a>
</g>
</g>
<!-- Node3&#45;&gt;Node9 -->
<g id="edge16" class="edge">
<title>Node3&#45;&gt;Node9</title>
<path fill="none" stroke="midnightblue" d="M391.98,-250.42C328.81,-245.17 241.99,-233.95 169,-210 118.75,-193.51 93.11,-198.16 64,-154 53.98,-138.8 53.55,-117.57 54.97,-102.38"/>
<polygon fill="midnightblue" stroke="midnightblue" points="58.48,-102.52 56.28,-92.15 51.53,-101.62 58.48,-102.52"/>
</g>
<!-- Node10 -->
<g id="node10" class="node">
<title>Node10</title>
<g id="a_node10"><a xlink:title=" ">
<polygon fill="white" stroke="#bfbfbf" points="352.5,-73 352.5,-92 471.5,-92 471.5,-73 352.5,-73"/>
<text text-anchor="middle" x="412" y="-80" font-family="Helvetica,sans-Serif" font-size="10.00">boost/shared_ptr.hpp</text>
</a>
</g>
</g>
<!-- Node3&#45;&gt;Node10 -->
<g id="edge17" class="edge">
<title>Node3&#45;&gt;Node10</title>
<path fill="none" stroke="midnightblue" d="M469.68,-246.24C461.22,-237.75 449.01,-224.13 442,-210 437.22,-200.37 422.94,-135 415.94,-102.2"/>
<polygon fill="midnightblue" stroke="midnightblue" points="419.3,-101.15 413.8,-92.1 412.45,-102.61 419.3,-101.15"/>
</g>
<!-- Node11 -->
<g id="node11" class="node">
<title>Node11</title>
<g id="a_node11"><a xlink:title=" ">
<polygon fill="white" stroke="#bfbfbf" points="255,-134.5 255,-153.5 413,-153.5 413,-134.5 255,-134.5"/>
<text text-anchor="middle" x="334" y="-141.5" font-family="Helvetica,sans-Serif" font-size="10.00">ChimeraTK/BackendFactory.h</text>
</a>
</g>
</g>
<!-- Node3&#45;&gt;Node11 -->
<g id="edge15" class="edge">
<title>Node3&#45;&gt;Node11</title>
<path fill="none" stroke="midnightblue" d="M464.39,-246.44C449.94,-237.79 427.39,-223.77 409,-210 388.05,-194.32 365.56,-174.36 350.73,-160.73"/>
<polygon fill="midnightblue" stroke="midnightblue" points="353.05,-158.11 343.34,-153.87 348.29,-163.24 353.05,-158.11"/>
</g>
<!-- Node12 -->
<g id="node12" class="node">
<title>Node12</title>
<g id="a_node12"><a xlink:title=" ">
<polygon fill="white" stroke="#bfbfbf" points="450.5,-190.5 450.5,-209.5 619.5,-209.5 619.5,-190.5 450.5,-190.5"/>
<text text-anchor="middle" x="535" y="-197.5" font-family="Helvetica,sans-Serif" font-size="10.00">Consatt/CsaObjectUserConfig.h</text>
</a>
</g>
</g>
<!-- Node3&#45;&gt;Node12 -->
<g id="edge18" class="edge">
<title>Node3&#45;&gt;Node12</title>
<path fill="none" stroke="midnightblue" d="M488,-246.32C496.19,-238.42 508.51,-226.55 518.47,-216.94"/>
<polygon fill="midnightblue" stroke="midnightblue" points="521.07,-219.29 525.84,-209.83 516.21,-214.26 521.07,-219.29"/>
</g>
<!-- Node6 -->
<g id="node6" class="node">
<title>Node6</title>
<g id="a_node6"><a xlink:href="_updatable_device_8h.html" target="_top" xlink:title=" ">
<polygon fill="white" stroke="black" points="89,-134.5 89,-153.5 199,-153.5 199,-134.5 89,-134.5"/>
<text text-anchor="middle" x="144" y="-141.5" font-family="Helvetica,sans-Serif" font-size="10.00">UpdatableDevice.h</text>
</a>
</g>
</g>
<!-- Node5&#45;&gt;Node6 -->
<g id="edge6" class="edge">
<title>Node5&#45;&gt;Node6</title>
<path fill="none" stroke="midnightblue" d="M213.66,-190.32C200.84,-181.98 181.22,-169.21 166.06,-159.35"/>
<polygon fill="midnightblue" stroke="midnightblue" points="167.59,-156.17 157.3,-153.65 163.78,-162.04 167.59,-156.17"/>
</g>
<!-- Node5&#45;&gt;Node9 -->
<g id="edge13" class="edge">
<title>Node5&#45;&gt;Node9</title>
<path fill="none" stroke="midnightblue" d="M177.7,-195.53C145.91,-190.78 105.83,-179.69 80,-154 66.25,-140.32 61.07,-118.19 59.13,-102.37"/>
<polygon fill="midnightblue" stroke="midnightblue" points="62.59,-101.83 58.21,-92.18 55.62,-102.45 62.59,-101.83"/>
</g>
<!-- Node5&#45;&gt;Node10 -->
<g id="edge14" class="edge">
<title>Node5&#45;&gt;Node10</title>
<path fill="none" stroke="midnightblue" d="M227.05,-190.12C227.63,-176.23 230.79,-149.38 246,-134 261.79,-118.04 315.46,-103.54 357.56,-94.22"/>
<polygon fill="midnightblue" stroke="midnightblue" points="358.4,-97.62 367.43,-92.08 356.92,-90.78 358.4,-97.62"/>
</g>
<!-- Node5&#45;&gt;Node11 -->
<g id="edge12" class="edge">
<title>Node5&#45;&gt;Node11</title>
<path fill="none" stroke="midnightblue" d="M244.19,-190.32C261.35,-181.66 287.95,-168.24 307.75,-158.25"/>
<polygon fill="midnightblue" stroke="midnightblue" points="309.5,-161.28 316.85,-153.65 306.35,-155.04 309.5,-161.28"/>
</g>
<!-- Node7 -->
<g id="node7" class="node">
<title>Node7</title>
<g id="a_node7"><a xlink:href="_periodically_updatable_8h.html" target="_top" xlink:title=" ">
<polygon fill="white" stroke="black" points="172.5,-73 172.5,-92 305.5,-92 305.5,-73 172.5,-73"/>
<text text-anchor="middle" x="239" y="-80" font-family="Helvetica,sans-Serif" font-size="10.00">PeriodicallyUpdatable.h</text>
</a>
</g>
</g>
<!-- Node6&#45;&gt;Node7 -->
<g id="edge7" class="edge">
<title>Node6&#45;&gt;Node7</title>
<path fill="none" stroke="midnightblue" d="M157.61,-134.48C173.06,-124.8 198.49,-108.87 216.82,-97.39"/>
<polygon fill="midnightblue" stroke="midnightblue" points="218.8,-100.28 225.41,-92.01 215.08,-94.35 218.8,-100.28"/>
</g>
<!-- Node8 -->
<g id="node8" class="node">
<title>Node8</title>
<g id="a_node8"><a xlink:title=" ">
<polygon fill="white" stroke="#bfbfbf" points="167,-6 167,-25 217,-25 217,-6 167,-6"/>
<text text-anchor="middle" x="192" y="-13" font-family="Helvetica,sans-Serif" font-size="10.00">chrono</text>
</a>
</g>
</g>
<!-- Node6&#45;&gt;Node8 -->
<g id="edge11" class="edge">
<title>Node6&#45;&gt;Node8</title>
<path fill="none" stroke="midnightblue" d="M145.36,-134.32C147.8,-119.95 153.54,-90.46 163,-67 167.71,-55.33 174.69,-43.06 180.63,-33.54"/>
<polygon fill="midnightblue" stroke="midnightblue" points="183.62,-35.37 186.09,-25.06 177.74,-31.57 183.62,-35.37"/>
</g>
<!-- Node6&#45;&gt;Node9 -->
<g id="edge9" class="edge">
<title>Node6&#45;&gt;Node9</title>
<path fill="none" stroke="midnightblue" d="M131.68,-134.48C117.88,-124.93 95.3,-109.31 78.77,-97.87"/>
<polygon fill="midnightblue" stroke="midnightblue" points="80.51,-94.82 70.3,-92.01 76.53,-100.58 80.51,-94.82"/>
</g>
<!-- Node6&#45;&gt;Node10 -->
<g id="edge10" class="edge">
<title>Node6&#45;&gt;Node10</title>
<path fill="none" stroke="midnightblue" d="M182.4,-134.48C230.16,-123.87 311.74,-105.76 363.7,-94.22"/>
<polygon fill="midnightblue" stroke="midnightblue" points="364.67,-97.59 373.67,-92.01 363.15,-90.76 364.67,-97.59"/>
</g>
<!-- Node7&#45;&gt;Node8 -->
<g id="edge8" class="edge">
<title>Node7&#45;&gt;Node8</title>
<path fill="none" stroke="midnightblue" d="M232.66,-72.73C225.4,-62.7 213.34,-46.01 204.24,-33.42"/>
<polygon fill="midnightblue" stroke="midnightblue" points="206.93,-31.18 198.24,-25.13 201.26,-35.28 206.93,-31.18"/>
</g>
<!-- Node13&#45;&gt;Node2 -->
<g id="edge21" class="edge">
<title>Node13&#45;&gt;Node2</title>
<path fill="none" stroke="midnightblue" d="M1004.29,-246.44C981.65,-237.52 945.93,-223.44 920.25,-213.32"/>
<polygon fill="midnightblue" stroke="midnightblue" points="921.19,-209.93 910.61,-209.52 918.63,-216.44 921.19,-209.93"/>
</g>
<!-- Node14 -->
<g id="node14" class="node">
<title>Node14</title>
<g id="a_node14"><a xlink:title=" ">
<polygon fill="white" stroke="#bfbfbf" points="1016,-134.5 1016,-153.5 1148,-153.5 1148,-134.5 1016,-134.5"/>
<text text-anchor="middle" x="1082" y="-141.5" font-family="Helvetica,sans-Serif" font-size="10.00">Consatt/CsaException.h</text>
</a>
</g>
</g>
<!-- Node13&#45;&gt;Node14 -->
<g id="edge20" class="edge">
<title>Node13&#45;&gt;Node14</title>
<path fill="none" stroke="midnightblue" d="M1027.41,-246.16C1029.73,-233.24 1035.11,-208.71 1045,-190 1050.6,-179.4 1058.94,-168.98 1066.29,-160.83"/>
<polygon fill="midnightblue" stroke="midnightblue" points="1068.86,-163.2 1073.17,-153.52 1063.77,-158.41 1068.86,-163.2"/>
</g>
<!-- Node15 -->
<g id="node15" class="node">
<title>Node15</title>
<g id="a_node15"><a xlink:title=" ">
<polygon fill="white" stroke="#bfbfbf" points="1176,-190.5 1176,-209.5 1286,-209.5 1286,-190.5 1176,-190.5"/>
<text text-anchor="middle" x="1231" y="-197.5" font-family="Helvetica,sans-Serif" font-size="10.00">Consatt/CsaLoger.h</text>
</a>
</g>
</g>
<!-- Node13&#45;&gt;Node15 -->
<g id="edge22" class="edge">
<title>Node13&#45;&gt;Node15</title>
<path fill="none" stroke="midnightblue" d="M1058.48,-246.44C1093.72,-237.16 1150.1,-222.31 1188.76,-212.13"/>
<polygon fill="midnightblue" stroke="midnightblue" points="1189.89,-215.45 1198.67,-209.52 1188.11,-208.68 1189.89,-215.45"/>
</g>
<!-- Node16 -->
<g id="node16" class="node">
<title>Node16</title>
<g id="a_node16"><a xlink:href="_csa_stepper_motor_unit_converter_8h.html" target="_top" xlink:title=" ">
<polygon fill="white" stroke="black" points="1304.5,-190.5 1304.5,-209.5 1481.5,-209.5 1481.5,-190.5 1304.5,-190.5"/>
<text text-anchor="middle" x="1393" y="-197.5" font-family="Helvetica,sans-Serif" font-size="10.00">CsaStepperMotorUnitConverter.h</text>
</a>
</g>
</g>
<!-- Node13&#45;&gt;Node16 -->
<g id="edge23" class="edge">
<title>Node13&#45;&gt;Node16</title>
<path fill="none" stroke="midnightblue" d="M1080.55,-246.97C1145.64,-237.4 1254.49,-221.38 1325.01,-211"/>
<polygon fill="midnightblue" stroke="midnightblue" points="1325.74,-214.43 1335.12,-209.52 1324.72,-207.51 1325.74,-214.43"/>
</g>
<!-- Node18 -->
<g id="node18" class="node">
<title>Node18</title>
<g id="a_node18"><a xlink:href="_stepper_motor_actuator_status_and_error_8h.html" target="_top" xlink:title=" ">
<polygon fill="white" stroke="black" points="856.5,-67.5 856.5,-97.5 1011.5,-97.5 1011.5,-67.5 856.5,-67.5"/>
<text text-anchor="start" x="864.5" y="-85.5" font-family="Helvetica,sans-Serif" font-size="10.00">StepperMotorActuatorStatus</text>
<text text-anchor="middle" x="934" y="-74.5" font-family="Helvetica,sans-Serif" font-size="10.00">AndError.h</text>
</a>
</g>
</g>
<!-- Node13&#45;&gt;Node18 -->
<g id="edge42" class="edge">
<title>Node13&#45;&gt;Node18</title>
<path fill="none" stroke="midnightblue" d="M1021.31,-246.26C1007.57,-220.65 967.08,-145.17 946.43,-106.66"/>
<polygon fill="midnightblue" stroke="midnightblue" points="949.44,-104.88 941.63,-97.72 943.27,-108.19 949.44,-104.88"/>
</g>
<!-- Node30 -->
<g id="node30" class="node">
<title>Node30</title>
<g id="a_node30"><a xlink:href="_stepper_actuator_8h.html" target="_top" xlink:title=" ">
<polygon fill="white" stroke="black" points="1054,-190.5 1054,-209.5 1158,-209.5 1158,-190.5 1054,-190.5"/>
<text text-anchor="middle" x="1106" y="-197.5" font-family="Helvetica,sans-Serif" font-size="10.00">StepperActuator.h</text>
</a>
</g>
</g>
<!-- Node13&#45;&gt;Node30 -->
<g id="edge39" class="edge">
<title>Node13&#45;&gt;Node30</title>
<path fill="none" stroke="midnightblue" d="M1038.85,-246.32C1051.22,-237.98 1070.13,-225.21 1084.74,-215.35"/>
<polygon fill="midnightblue" stroke="midnightblue" points="1086.85,-218.15 1093.18,-209.65 1082.93,-212.35 1086.85,-218.15"/>
</g>
<!-- Node17 -->
<g id="node17" class="node">
<title>Node17</title>
<g id="a_node17"><a xlink:href="_stepper_motor_m_d22_8h.html" target="_top" xlink:title=" ">
<polygon fill="white" stroke="black" points="1333,-134.5 1333,-153.5 1453,-153.5 1453,-134.5 1333,-134.5"/>
<text text-anchor="middle" x="1393" y="-141.5" font-family="Helvetica,sans-Serif" font-size="10.00">StepperMotorMD22.h</text>
</a>
</g>
</g>
<!-- Node16&#45;&gt;Node17 -->
<g id="edge24" class="edge">
<title>Node16&#45;&gt;Node17</title>
<path fill="none" stroke="midnightblue" d="M1393,-190.08C1393,-183.01 1393,-172.86 1393,-163.99"/>
<polygon fill="midnightblue" stroke="midnightblue" points="1396.5,-163.75 1393,-153.75 1389.5,-163.75 1396.5,-163.75"/>
</g>
<!-- Node17&#45;&gt;Node10 -->
<g id="edge28" class="edge">
<title>Node17&#45;&gt;Node10</title>
<path fill="none" stroke="midnightblue" d="M1332.74,-139.35C1160.29,-128.89 665.44,-98.87 481.74,-87.73"/>
<polygon fill="midnightblue" stroke="midnightblue" points="481.86,-84.23 471.66,-87.12 481.43,-91.22 481.86,-84.23"/>
</g>
<!-- Node17&#45;&gt;Node17 -->
<g id="edge27" class="edge">
<title>Node17&#45;&gt;Node17</title>
<path fill="none" stroke="midnightblue" d="M1426.27,-153.53C1448.87,-156.31 1471,-153.13 1471,-144 1471,-136.26 1455.1,-132.8 1436.49,-133.62"/>
<polygon fill="midnightblue" stroke="midnightblue" points="1435.94,-130.15 1426.27,-134.47 1436.52,-137.13 1435.94,-130.15"/>
</g>
<!-- Node17&#45;&gt;Node18 -->
<g id="edge25" class="edge">
<title>Node17&#45;&gt;Node18</title>
<path fill="none" stroke="midnightblue" d="M1332.97,-136.58C1261.43,-128.73 1138.03,-114.61 1021.9,-98.09"/>
<polygon fill="midnightblue" stroke="midnightblue" points="1022.16,-94.59 1011.76,-96.64 1021.16,-101.52 1022.16,-94.59"/>
</g>
<!-- Node20 -->
<g id="node20" class="node">
<title>Node20</title>
<g id="a_node20"><a xlink:title=" ">
<polygon fill="white" stroke="#bfbfbf" points="2020.5,-73 2020.5,-92 2119.5,-92 2119.5,-73 2020.5,-73"/>
<text text-anchor="middle" x="2070" y="-80" font-family="Helvetica,sans-Serif" font-size="10.00">boost/thread.hpp</text>
</a>
</g>
</g>
<!-- Node17&#45;&gt;Node20 -->
<g id="edge29" class="edge">
<title>Node17&#45;&gt;Node20</title>
<path fill="none" stroke="midnightblue" d="M1453.15,-142.06C1564.24,-139.57 1808.79,-130.54 2012,-98 2017.91,-97.05 2024.1,-95.8 2030.14,-94.42"/>
<polygon fill="midnightblue" stroke="midnightblue" points="2031.2,-97.77 2040.1,-92.02 2029.56,-90.96 2031.2,-97.77"/>
</g>
<!-- Node17&#45;&gt;Node21 -->
<g id="edge30" class="edge">
<title>Node17&#45;&gt;Node21</title>
<path fill="none" stroke="midnightblue" d="M1453.23,-141.96C1605.2,-138.91 2001.15,-128.22 2129,-98 2131.51,-97.41 2134.08,-96.64 2136.61,-95.77"/>
<polygon fill="midnightblue" stroke="midnightblue" points="2138.06,-98.96 2146.09,-92.06 2135.5,-92.45 2138.06,-98.96"/>
</g>
<!-- Node22 -->
<g id="node22" class="node">
<title>Node22</title>
<g id="a_node22"><a xlink:title=" ">
<polygon fill="white" stroke="#bfbfbf" points="1030,-73 1030,-92 1074,-92 1074,-73 1030,-73"/>
<text text-anchor="middle" x="1052" y="-80" font-family="Helvetica,sans-Serif" font-size="10.00">string</text>
</a>
</g>
</g>
<!-- Node17&#45;&gt;Node22 -->
<g id="edge31" class="edge">
<title>Node17&#45;&gt;Node22</title>
<path fill="none" stroke="midnightblue" d="M1332.74,-139.5C1269.44,-134.61 1167.53,-123.3 1083,-98 1081.12,-97.44 1079.21,-96.78 1077.31,-96.06"/>
<polygon fill="midnightblue" stroke="midnightblue" points="1078.63,-92.82 1068.06,-92.1 1075.87,-99.25 1078.63,-92.82"/>
</g>
<!-- Node23 -->
<g id="node23" class="node">
<title>Node23</title>
<g id="a_node23"><a xlink:title=" ">
<polygon fill="white" stroke="#bfbfbf" points="1092,-73 1092,-92 1140,-92 1140,-73 1092,-73"/>
<text text-anchor="middle" x="1116" y="-80" font-family="Helvetica,sans-Serif" font-size="10.00">thread</text>
</a>
</g>
</g>
<!-- Node17&#45;&gt;Node23 -->
<g id="edge32" class="edge">
<title>Node17&#45;&gt;Node23</title>
<path fill="none" stroke="midnightblue" d="M1332.91,-135.87C1282.94,-129.01 1210.35,-116.86 1149,-98 1147.07,-97.41 1145.1,-96.73 1143.14,-96.01"/>
<polygon fill="midnightblue" stroke="midnightblue" points="1144.11,-92.62 1133.52,-92.1 1141.47,-99.11 1144.11,-92.62"/>
</g>
<!-- Node24 -->
<g id="node24" class="node">
<title>Node24</title>
<g id="a_node24"><a xlink:title=" ">
<polygon fill="white" stroke="#bfbfbf" points="1158,-73 1158,-92 1250,-92 1250,-73 1158,-73"/>
<text text-anchor="middle" x="1204" y="-80" font-family="Helvetica,sans-Serif" font-size="10.00">Consatt/CtrlPI.h</text>
</a>
</g>
</g>
<!-- Node17&#45;&gt;Node24 -->
<g id="edge33" class="edge">
<title>Node17&#45;&gt;Node24</title>
<path fill="none" stroke="midnightblue" d="M1365.92,-134.48C1333.08,-124.14 1277.57,-106.66 1240.85,-95.1"/>
<polygon fill="midnightblue" stroke="midnightblue" points="1241.62,-91.67 1231.03,-92.01 1239.52,-98.35 1241.62,-91.67"/>
</g>
<!-- Node25 -->
<g id="node25" class="node">
<title>Node25</title>
<g id="a_node25"><a xlink:title=" ">
<polygon fill="white" stroke="#bfbfbf" points="1268,-73 1268,-92 1360,-92 1360,-73 1268,-73"/>
<text text-anchor="middle" x="1314" y="-80" font-family="Helvetica,sans-Serif" font-size="10.00">Consatt/Loger.h</text>
</a>
</g>
</g>
<!-- Node17&#45;&gt;Node25 -->
<g id="edge34" class="edge">
<title>Node17&#45;&gt;Node25</title>
<path fill="none" stroke="midnightblue" d="M1381.68,-134.48C1369.13,-125.02 1348.65,-109.6 1333.5,-98.19"/>
<polygon fill="midnightblue" stroke="midnightblue" points="1335.39,-95.23 1325.3,-92.01 1331.18,-100.82 1335.39,-95.23"/>
</g>
<!-- Node26 -->
<g id="node26" class="node">
<title>Node26</title>
<g id="a_node26"><a xlink:title=" ">
<polygon fill="white" stroke="#bfbfbf" points="1378.5,-67.5 1378.5,-97.5 1513.5,-97.5 1513.5,-67.5 1378.5,-67.5"/>
<text text-anchor="start" x="1386.5" y="-85.5" font-family="Helvetica,sans-Serif" font-size="10.00">Consatt/StatisticsForCsa</text>
<text text-anchor="middle" x="1446" y="-74.5" font-family="Helvetica,sans-Serif" font-size="10.00">Vector.h</text>
</a>
</g>
</g>
<!-- Node17&#45;&gt;Node26 -->
<g id="edge35" class="edge">
<title>Node17&#45;&gt;Node26</title>
<path fill="none" stroke="midnightblue" d="M1400.59,-134.48C1407.37,-126.87 1417.59,-115.4 1426.61,-105.26"/>
<polygon fill="midnightblue" stroke="midnightblue" points="1429.47,-107.32 1433.51,-97.52 1424.24,-102.66 1429.47,-107.32"/>
</g>
<!-- Node27 -->
<g id="node27" class="node">
<title>Node27</title>
<g id="a_node27"><a xlink:title=" ">
<polygon fill="white" stroke="#bfbfbf" points="1531.5,-67.5 1531.5,-97.5 1668.5,-97.5 1668.5,-67.5 1531.5,-67.5"/>
<text text-anchor="start" x="1539.5" y="-85.5" font-family="Helvetica,sans-Serif" font-size="10.00">mtca4u/MotorDriverCard</text>
<text text-anchor="middle" x="1600" y="-74.5" font-family="Helvetica,sans-Serif" font-size="10.00">/MotorControler.h</text>
</a>
</g>
</g>
<!-- Node17&#45;&gt;Node27 -->
<g id="edge36" class="edge">
<title>Node17&#45;&gt;Node27</title>
<path fill="none" stroke="midnightblue" d="M1422.66,-134.48C1453.58,-125.59 1502.84,-111.43 1541.6,-100.29"/>
<polygon fill="midnightblue" stroke="midnightblue" points="1542.57,-103.65 1551.21,-97.52 1540.64,-96.92 1542.57,-103.65"/>
</g>
<!-- Node28 -->
<g id="node28" class="node">
<title>Node28</title>
<g id="a_node28"><a xlink:title=" ">
<polygon fill="white" stroke="#bfbfbf" points="1686.5,-67.5 1686.5,-97.5 1823.5,-97.5 1823.5,-67.5 1686.5,-67.5"/>
<text text-anchor="start" x="1694.5" y="-85.5" font-family="Helvetica,sans-Serif" font-size="10.00">mtca4u/MotorDriverCard</text>
<text text-anchor="middle" x="1755" y="-74.5" font-family="Helvetica,sans-Serif" font-size="10.00">/MotorDriverCard.h</text>
</a>
</g>
</g>
<!-- Node17&#45;&gt;Node28 -->
<g id="edge37" class="edge">
<title>Node17&#45;&gt;Node28</title>
<path fill="none" stroke="midnightblue" d="M1450.13,-134.49C1505.53,-126.12 1592.24,-112.72 1676.21,-98.28"/>
<polygon fill="midnightblue" stroke="midnightblue" points="1676.91,-101.72 1686.17,-96.57 1675.72,-94.82 1676.91,-101.72"/>
</g>
<!-- Node29 -->
<g id="node29" class="node">
<title>Node29</title>
<g id="a_node29"><a xlink:title=" ">
<polygon fill="white" stroke="#bfbfbf" points="1841.5,-67.5 1841.5,-97.5 2002.5,-97.5 2002.5,-67.5 1841.5,-67.5"/>
<text text-anchor="start" x="1849.5" y="-85.5" font-family="Helvetica,sans-Serif" font-size="10.00">mtca4u/MotorDriverCard</text>
<text text-anchor="middle" x="1922" y="-74.5" font-family="Helvetica,sans-Serif" font-size="10.00">/MotorDriverCardConfigXML.h</text>
</a>
</g>
</g>
<!-- Node17&#45;&gt;Node29 -->
<g id="edge38" class="edge">
<title>Node17&#45;&gt;Node29</title>
<path fill="none" stroke="midnightblue" d="M1453.27,-137.98C1536.17,-130.82 1690.26,-116.61 1830.92,-98.23"/>
<polygon fill="midnightblue" stroke="midnightblue" points="1831.57,-101.68 1841.02,-96.9 1830.65,-94.74 1831.57,-101.68"/>
</g>
<!-- Node19 -->
<g id="node19" class="node">
<title>Node19</title>
<g id="a_node19"><a xlink:title=" ">
<polygon fill="white" stroke="#bfbfbf" points="865.5,-0.5 865.5,-30.5 1002.5,-30.5 1002.5,-0.5 865.5,-0.5"/>
<text text-anchor="start" x="873.5" y="-18.5" font-family="Helvetica,sans-Serif" font-size="10.00">mtca4u/MotorDriverCard</text>
<text text-anchor="middle" x="934" y="-7.5" font-family="Helvetica,sans-Serif" font-size="10.00">/GeneralStatus.h</text>
</a>
</g>
</g>
<!-- Node18&#45;&gt;Node19 -->
<g id="edge26" class="edge">
<title>Node18&#45;&gt;Node19</title>
<path fill="none" stroke="midnightblue" d="M934,-67.4C934,-59.64 934,-49.81 934,-40.86"/>
<polygon fill="midnightblue" stroke="midnightblue" points="937.5,-40.58 934,-30.58 930.5,-40.58 937.5,-40.58"/>
</g>
<!-- Node30&#45;&gt;Node14 -->
<g id="edge40" class="edge">
<title>Node30&#45;&gt;Node14</title>
<path fill="none" stroke="midnightblue" d="M1102.04,-190.08C1098.79,-182.77 1094.08,-172.18 1090.05,-163.1"/>
<polygon fill="midnightblue" stroke="midnightblue" points="1093.15,-161.47 1085.89,-153.75 1086.75,-164.31 1093.15,-161.47"/>
</g>
<!-- Node30&#45;&gt;Node18 -->
<g id="edge41" class="edge">
<title>Node30&#45;&gt;Node18</title>
<path fill="none" stroke="midnightblue" d="M1121.42,-190.34C1141.71,-177.85 1173.03,-154.06 1157,-134 1152.39,-128.23 1077.64,-112.07 1015.94,-99.58"/>
<polygon fill="midnightblue" stroke="midnightblue" points="1016.27,-96.07 1005.77,-97.52 1014.88,-102.93 1016.27,-96.07"/>
</g>
</g>
</svg>
