<?xml version="1.0" encoding="UTF-8" standalone="no"?>
<!DOCTYPE svg PUBLIC "-//W3C//DTD SVG 1.1//EN"
 "http://www.w3.org/Graphics/SVG/1.1/DTD/svg11.dtd">
<!-- Generated by graphviz version 2.43.0 (0)
 -->
<!-- Title: StepperMotorMD22::getCurrentPosition Pages: 1 -->
<svg width="551pt" height="38pt"
 viewBox="0.00 0.00 551.00 38.00" xmlns="http://www.w3.org/2000/svg" xmlns:xlink="http://www.w3.org/1999/xlink">
<g id="graph0" class="graph" transform="scale(1 1) rotate(0) translate(4 34)">
<title>StepperMotorMD22::getCurrentPosition</title>
<!-- Node1 -->
<g id="Node000001" class="node">
<title>Node1</title>
<g id="a_Node000001"><a xlink:title="Return real motor position read directly from the hardware and expressed in the arbitrary units.">
<polygon fill="#999999" stroke="#666666" points="543,-30 374,-30 374,0 543,0 543,-30"/>
<text text-anchor="start" x="382" y="-18" font-family="Helvetica,sans-Serif" font-size="10.00">StepperMotorMD22::getCurrent</text>
<text text-anchor="middle" x="458.5" y="-7" font-family="Helvetica,sans-Serif" font-size="10.00">Position</text>
</a>
</g>
</g>
<!-- Node2 -->
<g id="Node000002" class="node">
<title>Node2</title>
<g id="a_Node000002"><a xlink:href="class_stepper_motor_linear_m_d22.html#a2e7970c19d73c254fa92f6241997b753" target="_top" xlink:title="Set position in steps passed as parameter as current position of the motor.">
<polygon fill="white" stroke="#666666" points="338,-30 177,-30 177,0 338,0 338,-30"/>
<text text-anchor="start" x="185" y="-18" font-family="Helvetica,sans-Serif" font-size="10.00">StepperMotorLinearMD22</text>
<text text-anchor="middle" x="257.5" y="-7" font-family="Helvetica,sans-Serif" font-size="10.00">::setCurrentPositionInStepsAs</text>
</a>
</g>
</g>
<!-- Node1&#45;&gt;Node2 -->
<g id="edge1_Node000001_Node000002" class="edge">
<title>Node1&#45;&gt;Node2</title>
<g id="a_edge1_Node000001_Node000002"><a xlink:title=" ">
<path fill="none" stroke="#63b8ff" d="M363.95,-15C355.38,-15 346.75,-15 338.32,-15"/>
<polygon fill="#63b8ff" stroke="#63b8ff" points="363.97,-18.5 373.97,-15 363.97,-11.5 363.97,-18.5"/>
</a>
</g>
</g>
<!-- Node3 -->
<g id="Node000003" class="node">
<title>Node3</title>
<g id="a_Node000003"><a xlink:href="class_stepper_motor_linear_m_d22.html#afe83294307c621a2e002871d11301b93" target="_top" xlink:title="Set position passed as parameter as current position of the motor.">
<polygon fill="white" stroke="#666666" points="141,-30 0,-30 0,0 141,0 141,-30"/>
<text text-anchor="start" x="8" y="-18" font-family="Helvetica,sans-Serif" font-size="10.00">StepperMotorLinearMD22</text>
<text text-anchor="middle" x="70.5" y="-7" font-family="Helvetica,sans-Serif" font-size="10.00">::setCurrentPositionAs</text>
</a>
</g>
</g>
<!-- Node2&#45;&gt;Node3 -->
<g id="edge2_Node000002_Node000003" class="edge">
<title>Node2&#45;&gt;Node3</title>
<g id="a_edge2_Node000002_Node000003"><a xlink:title=" ">
<path fill="none" stroke="#63b8ff" d="M166.84,-15C158.18,-15 149.48,-15 141.06,-15"/>
<polygon fill="#63b8ff" stroke="#63b8ff" points="166.97,-18.5 176.97,-15 166.97,-11.5 166.97,-18.5"/>
</a>
</g>
</g>
</g>
</svg>
