<?xml version="1.0" encoding="UTF-8" standalone="no"?>
<!DOCTYPE svg PUBLIC "-//W3C//DTD SVG 1.1//EN"
 "http://www.w3.org/Graphics/SVG/1.1/DTD/svg11.dtd">
<!-- Generated by graphviz version 2.43.0 (0)
 -->
<!-- Title: device_backends/include/BackendFactory.h Pages: 1 -->
<svg width="743pt" height="151pt"
 viewBox="0.00 0.00 742.50 151.00" xmlns="http://www.w3.org/2000/svg" xmlns:xlink="http://www.w3.org/1999/xlink">
<g id="graph0" class="graph" transform="scale(1 1) rotate(0) translate(4 147)">
<title>device_backends/include/BackendFactory.h</title>
<polygon fill="white" stroke="transparent" points="-4,4 -4,-147 738.5,-147 738.5,4 -4,4"/>
<!-- Node1 -->
<g id="node1" class="node">
<title>Node1</title>
<g id="a_node1"><a xlink:title=" ">
<polygon fill="#bfbfbf" stroke="black" points="421.5,-112.5 421.5,-142.5 559.5,-142.5 559.5,-112.5 421.5,-112.5"/>
<text text-anchor="start" x="429.5" y="-130.5" font-family="Helvetica,sans-Serif" font-size="10.00">device_backends/include</text>
<text text-anchor="middle" x="490.5" y="-119.5" font-family="Helvetica,sans-Serif" font-size="10.00">/BackendFactory.h</text>
</a>
</g>
</g>
<!-- Node2 -->
<g id="node2" class="node">
<title>Node2</title>
<g id="a_node2"><a xlink:title=" ">
<polygon fill="white" stroke="#bfbfbf" points="96,-56.5 96,-75.5 225,-75.5 225,-56.5 96,-56.5"/>
<text text-anchor="middle" x="160.5" y="-63.5" font-family="Helvetica,sans-Serif" font-size="10.00">DeviceAccessVersion.h</text>
</a>
</g>
</g>
<!-- Node1&#45;&gt;Node2 -->
<g id="edge1" class="edge">
<title>Node1&#45;&gt;Node2</title>
<path fill="none" stroke="midnightblue" d="M421.32,-114.03C360.88,-103.13 274.19,-87.5 217.62,-77.3"/>
<polygon fill="midnightblue" stroke="midnightblue" points="218.23,-73.85 207.77,-75.52 216.99,-80.74 218.23,-73.85"/>
</g>
<!-- Node3 -->
<g id="node3" class="node">
<title>Node3</title>
<g id="a_node3"><a xlink:href="_device_info_map_8h.html" target="_top" xlink:title=" ">
<polygon fill="white" stroke="black" points="243,-56.5 243,-75.5 342,-75.5 342,-56.5 243,-56.5"/>
<text text-anchor="middle" x="292.5" y="-63.5" font-family="Helvetica,sans-Serif" font-size="10.00">DeviceInfoMap.h</text>
</a>
</g>
</g>
<!-- Node1&#45;&gt;Node3 -->
<g id="edge2" class="edge">
<title>Node1&#45;&gt;Node3</title>
<path fill="none" stroke="midnightblue" d="M443.83,-112.47C409.37,-102.12 363.04,-88.2 330.76,-78.5"/>
<polygon fill="midnightblue" stroke="midnightblue" points="331.39,-75.03 320.81,-75.51 329.38,-81.74 331.39,-75.03"/>
</g>
<!-- Node10 -->
<g id="node10" class="node">
<title>Node10</title>
<g id="a_node10"><a xlink:href="_forward_declarations_8h.html" target="_top" xlink:title=" ">
<polygon fill="white" stroke="black" points="360.5,-56.5 360.5,-75.5 486.5,-75.5 486.5,-56.5 360.5,-56.5"/>
<text text-anchor="middle" x="423.5" y="-63.5" font-family="Helvetica,sans-Serif" font-size="10.00">ForwardDeclarations.h</text>
</a>
</g>
</g>
<!-- Node1&#45;&gt;Node10 -->
<g id="edge9" class="edge">
<title>Node1&#45;&gt;Node10</title>
<path fill="none" stroke="midnightblue" d="M474.62,-112.4C464.48,-103.4 451.34,-91.72 440.91,-82.47"/>
<polygon fill="midnightblue" stroke="midnightblue" points="443.05,-79.68 433.25,-75.66 438.4,-84.92 443.05,-79.68"/>
</g>
<!-- Node11 -->
<g id="node11" class="node">
<title>Node11</title>
<g id="a_node11"><a xlink:title=" ">
<polygon fill="white" stroke="#bfbfbf" points="505,-56.5 505,-75.5 612,-75.5 612,-56.5 505,-56.5"/>
<text text-anchor="middle" x="558.5" y="-63.5" font-family="Helvetica,sans-Serif" font-size="10.00">boost/function.hpp</text>
</a>
</g>
</g>
<!-- Node1&#45;&gt;Node11 -->
<g id="edge11" class="edge">
<title>Node1&#45;&gt;Node11</title>
<path fill="none" stroke="midnightblue" d="M506.62,-112.4C516.9,-103.4 530.25,-91.72 540.83,-82.47"/>
<polygon fill="midnightblue" stroke="midnightblue" points="543.38,-84.88 548.61,-75.66 538.77,-79.61 543.38,-84.88"/>
</g>
<!-- Node12 -->
<g id="node12" class="node">
<title>Node12</title>
<g id="a_node12"><a xlink:title=" ">
<polygon fill="white" stroke="#bfbfbf" points="630.5,-56.5 630.5,-75.5 668.5,-75.5 668.5,-56.5 630.5,-56.5"/>
<text text-anchor="middle" x="649.5" y="-63.5" font-family="Helvetica,sans-Serif" font-size="10.00">map</text>
</a>
</g>
</g>
<!-- Node1&#45;&gt;Node12 -->
<g id="edge12" class="edge">
<title>Node1&#45;&gt;Node12</title>
<path fill="none" stroke="midnightblue" d="M528.18,-112.4C556.56,-101.78 594.87,-87.44 620.79,-77.74"/>
<polygon fill="midnightblue" stroke="midnightblue" points="622.26,-80.93 630.4,-74.15 619.81,-74.37 622.26,-80.93"/>
</g>
<!-- Node13 -->
<g id="node13" class="node">
<title>Node13</title>
<g id="a_node13"><a xlink:title=" ">
<polygon fill="white" stroke="#bfbfbf" points="686.5,-56.5 686.5,-75.5 734.5,-75.5 734.5,-56.5 686.5,-56.5"/>
<text text-anchor="middle" x="710.5" y="-63.5" font-family="Helvetica,sans-Serif" font-size="10.00">mutex</text>
</a>
</g>
</g>
<!-- Node1&#45;&gt;Node13 -->
<g id="edge13" class="edge">
<title>Node1&#45;&gt;Node13</title>
<path fill="none" stroke="midnightblue" d="M542.5,-112.49C577.76,-102.99 625.67,-90.06 676.49,-76.27"/>
<polygon fill="midnightblue" stroke="midnightblue" points="677.62,-79.59 686.35,-73.59 675.78,-72.83 677.62,-79.59"/>
</g>
<!-- Node4 -->
<g id="node4" class="node">
<title>Node4</title>
<g id="a_node4"><a xlink:title=" ">
<polygon fill="white" stroke="#bfbfbf" points="0,-0.5 0,-19.5 119,-19.5 119,-0.5 0,-0.5"/>
<text text-anchor="middle" x="59.5" y="-7.5" font-family="Helvetica,sans-Serif" font-size="10.00">boost/shared_ptr.hpp</text>
</a>
</g>
</g>
<!-- Node3&#45;&gt;Node4 -->
<g id="edge3" class="edge">
<title>Node3&#45;&gt;Node4</title>
<path fill="none" stroke="midnightblue" d="M255.58,-56.44C215.1,-47.06 150.08,-31.99 106.12,-21.8"/>
<polygon fill="midnightblue" stroke="midnightblue" points="106.78,-18.36 96.25,-19.52 105.2,-25.18 106.78,-18.36"/>
</g>
<!-- Node5 -->
<g id="node5" class="node">
<title>Node5</title>
<g id="a_node5"><a xlink:title=" ">
<polygon fill="white" stroke="#bfbfbf" points="137.5,-0.5 137.5,-19.5 197.5,-19.5 197.5,-0.5 137.5,-0.5"/>
<text text-anchor="middle" x="167.5" y="-7.5" font-family="Helvetica,sans-Serif" font-size="10.00">iostream</text>
</a>
</g>
</g>
<!-- Node3&#45;&gt;Node5 -->
<g id="edge4" class="edge">
<title>Node3&#45;&gt;Node5</title>
<path fill="none" stroke="midnightblue" d="M272.69,-56.44C252.21,-47.6 220.02,-33.69 196.64,-23.59"/>
<polygon fill="midnightblue" stroke="midnightblue" points="197.78,-20.27 187.21,-19.52 195.01,-26.7 197.78,-20.27"/>
</g>
<!-- Node6 -->
<g id="node6" class="node">
<title>Node6</title>
<g id="a_node6"><a xlink:title=" ">
<polygon fill="white" stroke="#bfbfbf" points="215.5,-0.5 215.5,-19.5 247.5,-19.5 247.5,-0.5 215.5,-0.5"/>
<text text-anchor="middle" x="231.5" y="-7.5" font-family="Helvetica,sans-Serif" font-size="10.00">list</text>
</a>
</g>
</g>
<!-- Node3&#45;&gt;Node6 -->
<g id="edge5" class="edge">
<title>Node3&#45;&gt;Node6</title>
<path fill="none" stroke="midnightblue" d="M282.7,-56.32C273.68,-48.34 260.09,-36.31 249.18,-26.65"/>
<polygon fill="midnightblue" stroke="midnightblue" points="251.29,-23.84 241.48,-19.83 246.65,-29.08 251.29,-23.84"/>
</g>
<!-- Node7 -->
<g id="node7" class="node">
<title>Node7</title>
<g id="a_node7"><a xlink:title=" ">
<polygon fill="white" stroke="#bfbfbf" points="266,-0.5 266,-19.5 319,-19.5 319,-0.5 266,-0.5"/>
<text text-anchor="middle" x="292.5" y="-7.5" font-family="Helvetica,sans-Serif" font-size="10.00">stdint.h</text>
</a>
</g>
</g>
<!-- Node3&#45;&gt;Node7 -->
<g id="edge6" class="edge">
<title>Node3&#45;&gt;Node7</title>
<path fill="none" stroke="midnightblue" d="M292.5,-56.08C292.5,-49.01 292.5,-38.86 292.5,-29.99"/>
<polygon fill="midnightblue" stroke="midnightblue" points="296,-29.75 292.5,-19.75 289,-29.75 296,-29.75"/>
</g>
<!-- Node8 -->
<g id="node8" class="node">
<title>Node8</title>
<g id="a_node8"><a xlink:title=" ">
<polygon fill="white" stroke="#bfbfbf" points="337.5,-0.5 337.5,-19.5 381.5,-19.5 381.5,-0.5 337.5,-0.5"/>
<text text-anchor="middle" x="359.5" y="-7.5" font-family="Helvetica,sans-Serif" font-size="10.00">string</text>
</a>
</g>
</g>
<!-- Node3&#45;&gt;Node8 -->
<g id="edge7" class="edge">
<title>Node3&#45;&gt;Node8</title>
<path fill="none" stroke="midnightblue" d="M303.26,-56.32C313.27,-48.26 328.39,-36.08 340.43,-26.37"/>
<polygon fill="midnightblue" stroke="midnightblue" points="342.95,-28.83 348.54,-19.83 338.56,-23.38 342.95,-28.83"/>
</g>
<!-- Node9 -->
<g id="node9" class="node">
<title>Node9</title>
<g id="a_node9"><a xlink:title=" ">
<polygon fill="white" stroke="#bfbfbf" points="400,-0.5 400,-19.5 447,-19.5 447,-0.5 400,-0.5"/>
<text text-anchor="middle" x="423.5" y="-7.5" font-family="Helvetica,sans-Serif" font-size="10.00">vector</text>
</a>
</g>
</g>
<!-- Node3&#45;&gt;Node9 -->
<g id="edge8" class="edge">
<title>Node3&#45;&gt;Node9</title>
<path fill="none" stroke="midnightblue" d="M313.26,-56.44C334.82,-47.56 368.76,-33.56 393.29,-23.45"/>
<polygon fill="midnightblue" stroke="midnightblue" points="394.93,-26.56 402.84,-19.52 392.26,-20.09 394.93,-26.56"/>
</g>
<!-- Node10&#45;&gt;Node9 -->
<g id="edge10" class="edge">
<title>Node10&#45;&gt;Node9</title>
<path fill="none" stroke="midnightblue" d="M423.5,-56.08C423.5,-49.01 423.5,-38.86 423.5,-29.99"/>
<polygon fill="midnightblue" stroke="midnightblue" points="427,-29.75 423.5,-19.75 420,-29.75 427,-29.75"/>
</g>
</g>
</svg>
