<?xml version="1.0" encoding="UTF-8" standalone="no"?>
<!DOCTYPE svg PUBLIC "-//W3C//DTD SVG 1.1//EN"
 "http://www.w3.org/Graphics/SVG/1.1/DTD/svg11.dtd">
<!-- Generated by graphviz version 2.43.0 (0)
 -->
<!-- Title: device_backends/DummyBackend/include/ExceptionDummyBackend.h Pages: 1 -->
<svg width="1755pt" height="117pt"
 viewBox="0.00 0.00 1755.00 117.00" xmlns="http://www.w3.org/2000/svg" xmlns:xlink="http://www.w3.org/1999/xlink">
<g id="graph0" class="graph" transform="scale(1 1) rotate(0) translate(4 113)">
<title>device_backends/DummyBackend/include/ExceptionDummyBackend.h</title>
<polygon fill="white" stroke="transparent" points="-4,4 -4,-113 1751,-113 1751,4 -4,4"/>
<!-- Node1 -->
<g id="node1" class="node">
<title>Node1</title>
<g id="a_node1"><a xlink:title=" ">
<polygon fill="#bfbfbf" stroke="black" points="751,-78.5 751,-108.5 946,-108.5 946,-78.5 751,-78.5"/>
<text text-anchor="start" x="759" y="-96.5" font-family="Helvetica,sans-Serif" font-size="10.00">device_backends/DummyBackend</text>
<text text-anchor="middle" x="848.5" y="-85.5" font-family="Helvetica,sans-Serif" font-size="10.00">/include/ExceptionDummyBackend.h</text>
</a>
</g>
</g>
<!-- Node2 -->
<g id="node2" class="node">
<title>Node2</title>
<g id="a_node2"><a xlink:href="test_double_buffering_8cpp.html" target="_top" xlink:title=" ">
<polygon fill="white" stroke="black" points="0,-6 0,-36 137,-36 137,-6 0,-6"/>
<text text-anchor="start" x="8" y="-24" font-family="Helvetica,sans-Serif" font-size="10.00">tests/executables_src</text>
<text text-anchor="middle" x="68.5" y="-13" font-family="Helvetica,sans-Serif" font-size="10.00">/testDoubleBuffering.cpp</text>
</a>
</g>
</g>
<!-- Node1&#45;&gt;Node2 -->
<g id="edge1" class="edge">
<title>Node1&#45;&gt;Node2</title>
<path fill="none" stroke="midnightblue" d="M740.7,-90.85C602.12,-87.33 354.44,-76.34 145.5,-42 136.23,-40.48 126.46,-38.35 117.09,-36.05"/>
<polygon fill="midnightblue" stroke="midnightblue" points="740.82,-94.35 750.9,-91.1 740.99,-87.35 740.82,-94.35"/>
</g>
<!-- Node3 -->
<g id="node3" class="node">
<title>Node3</title>
<g id="a_node3"><a xlink:href="test_dummy_backend_unified_8cc.html" target="_top" xlink:title=" ">
<polygon fill="white" stroke="black" points="155,-6 155,-36 322,-36 322,-6 155,-6"/>
<text text-anchor="start" x="163" y="-24" font-family="Helvetica,sans-Serif" font-size="10.00">tests/executables_src</text>
<text text-anchor="middle" x="238.5" y="-13" font-family="Helvetica,sans-Serif" font-size="10.00">/testDummyBackendUnified.cc</text>
</a>
</g>
</g>
<!-- Node1&#45;&gt;Node3 -->
<g id="edge2" class="edge">
<title>Node1&#45;&gt;Node3</title>
<path fill="none" stroke="midnightblue" d="M740.71,-85.68C635.6,-78.16 471.45,-64.11 330.5,-42 320,-40.35 308.91,-38.25 298.19,-36.04"/>
<polygon fill="midnightblue" stroke="midnightblue" points="740.47,-89.17 750.69,-86.39 740.96,-82.19 740.47,-89.17"/>
</g>
<!-- Node4 -->
<g id="node4" class="node">
<title>Node4</title>
<g id="a_node4"><a xlink:href="test_exception_dummy_device_8cc.html" target="_top" xlink:title=" ">
<polygon fill="white" stroke="black" points="340,-6 340,-36 513,-36 513,-6 340,-6"/>
<text text-anchor="start" x="348" y="-24" font-family="Helvetica,sans-Serif" font-size="10.00">tests/executables_src</text>
<text text-anchor="middle" x="426.5" y="-13" font-family="Helvetica,sans-Serif" font-size="10.00">/testExceptionDummyDevice.cc</text>
</a>
</g>
</g>
<!-- Node1&#45;&gt;Node4 -->
<g id="edge3" class="edge">
<title>Node1&#45;&gt;Node4</title>
<path fill="none" stroke="midnightblue" d="M740.87,-77.26C677.22,-67.89 595.11,-55.18 522.5,-42 512.45,-40.18 501.84,-38.11 491.48,-36.01"/>
<polygon fill="midnightblue" stroke="midnightblue" points="740.52,-80.74 750.92,-78.73 741.54,-73.82 740.52,-80.74"/>
</g>
<!-- Node5 -->
<g id="node5" class="node">
<title>Node5</title>
<g id="a_node5"><a xlink:href="test_l_map_backend_8cpp.html" target="_top" xlink:title=" ">
<polygon fill="white" stroke="black" points="531.5,-6 531.5,-36 657.5,-36 657.5,-6 531.5,-6"/>
<text text-anchor="start" x="539.5" y="-24" font-family="Helvetica,sans-Serif" font-size="10.00">tests/executables_src</text>
<text text-anchor="middle" x="594.5" y="-13" font-family="Helvetica,sans-Serif" font-size="10.00">/testLMapBackend.cpp</text>
</a>
</g>
</g>
<!-- Node1&#45;&gt;Node5 -->
<g id="edge4" class="edge">
<title>Node1&#45;&gt;Node5</title>
<path fill="none" stroke="midnightblue" d="M788.18,-75.77C752.75,-65.94 707.08,-53.27 666.5,-42 659.62,-40.09 652.38,-38.08 645.24,-36.1"/>
<polygon fill="midnightblue" stroke="midnightblue" points="787.32,-79.16 797.9,-78.46 789.2,-72.42 787.32,-79.16"/>
</g>
<!-- Node6 -->
<g id="node6" class="node">
<title>Node6</title>
<g id="a_node6"><a xlink:href="test_l_map_backend_unified_8cpp.html" target="_top" xlink:title=" ">
<polygon fill="white" stroke="black" points="676,-6 676,-36 837,-36 837,-6 676,-6"/>
<text text-anchor="start" x="684" y="-24" font-family="Helvetica,sans-Serif" font-size="10.00">tests/executables_src</text>
<text text-anchor="middle" x="756.5" y="-13" font-family="Helvetica,sans-Serif" font-size="10.00">/testLMapBackendUnified.cpp</text>
</a>
</g>
</g>
<!-- Node1&#45;&gt;Node6 -->
<g id="edge5" class="edge">
<title>Node1&#45;&gt;Node6</title>
<path fill="none" stroke="midnightblue" d="M821.89,-72.11C806.78,-60.53 788.25,-46.33 774.78,-36"/>
<polygon fill="midnightblue" stroke="midnightblue" points="819.82,-74.93 829.88,-78.23 824.07,-69.37 819.82,-74.93"/>
</g>
<!-- Node7 -->
<g id="node7" class="node">
<title>Node7</title>
<g id="a_node7"><a xlink:href="test_numeric_addressed_backend_register_accessor_8cpp.html" target="_top" xlink:title=" ">
<polygon fill="white" stroke="black" points="855.5,-0.5 855.5,-41.5 1027.5,-41.5 1027.5,-0.5 855.5,-0.5"/>
<text text-anchor="start" x="863.5" y="-29.5" font-family="Helvetica,sans-Serif" font-size="10.00">tests/executables_src</text>
<text text-anchor="start" x="863.5" y="-18.5" font-family="Helvetica,sans-Serif" font-size="10.00">/testNumericAddressedBackend</text>
<text text-anchor="middle" x="941.5" y="-7.5" font-family="Helvetica,sans-Serif" font-size="10.00">RegisterAccessor.cpp</text>
</a>
</g>
</g>
<!-- Node1&#45;&gt;Node7 -->
<g id="edge6" class="edge">
<title>Node1&#45;&gt;Node7</title>
<path fill="none" stroke="midnightblue" d="M875.63,-71.93C888.26,-62.36 903.2,-51.03 915.66,-41.59"/>
<polygon fill="midnightblue" stroke="midnightblue" points="873.17,-69.4 867.32,-78.23 877.4,-74.98 873.17,-69.4"/>
</g>
<!-- Node8 -->
<g id="node8" class="node">
<title>Node8</title>
<g id="a_node8"><a xlink:href="test_numeric_addressed_backend_unified_8cpp.html" target="_top" xlink:title=" ">
<polygon fill="white" stroke="black" points="1045.5,-0.5 1045.5,-41.5 1217.5,-41.5 1217.5,-0.5 1045.5,-0.5"/>
<text text-anchor="start" x="1053.5" y="-29.5" font-family="Helvetica,sans-Serif" font-size="10.00">tests/executables_src</text>
<text text-anchor="start" x="1053.5" y="-18.5" font-family="Helvetica,sans-Serif" font-size="10.00">/testNumericAddressedBackend</text>
<text text-anchor="middle" x="1131.5" y="-7.5" font-family="Helvetica,sans-Serif" font-size="10.00">Unified.cpp</text>
</a>
</g>
</g>
<!-- Node1&#45;&gt;Node8 -->
<g id="edge7" class="edge">
<title>Node1&#45;&gt;Node8</title>
<path fill="none" stroke="midnightblue" d="M914.47,-76.07C955.89,-65.75 1009.53,-52.38 1053.12,-41.53"/>
<polygon fill="midnightblue" stroke="midnightblue" points="913.61,-72.67 904.75,-78.49 915.3,-79.47 913.61,-72.67"/>
</g>
<!-- Node9 -->
<g id="node9" class="node">
<title>Node9</title>
<g id="a_node9"><a xlink:href="test_subdevice_backend_unified_8cpp.html" target="_top" xlink:title=" ">
<polygon fill="white" stroke="black" points="1236,-6 1236,-36 1421,-36 1421,-6 1236,-6"/>
<text text-anchor="start" x="1244" y="-24" font-family="Helvetica,sans-Serif" font-size="10.00">tests/executables_src</text>
<text text-anchor="middle" x="1328.5" y="-13" font-family="Helvetica,sans-Serif" font-size="10.00">/testSubdeviceBackendUnified.cpp</text>
</a>
</g>
</g>
<!-- Node1&#45;&gt;Node9 -->
<g id="edge8" class="edge">
<title>Node1&#45;&gt;Node9</title>
<path fill="none" stroke="midnightblue" d="M956.28,-79.87C1032.04,-70.56 1135.69,-56.96 1226.5,-42 1237.36,-40.21 1248.84,-38.14 1260.02,-36.02"/>
<polygon fill="midnightblue" stroke="midnightblue" points="955.75,-76.41 946.25,-81.1 956.6,-83.36 955.75,-76.41"/>
</g>
<!-- Node10 -->
<g id="node10" class="node">
<title>Node10</title>
<g id="a_node10"><a xlink:href="test_transfer_group_8cpp.html" target="_top" xlink:title=" ">
<polygon fill="white" stroke="black" points="1439,-6 1439,-36 1566,-36 1566,-6 1439,-6"/>
<text text-anchor="start" x="1447" y="-24" font-family="Helvetica,sans-Serif" font-size="10.00">tests/executables_src</text>
<text text-anchor="middle" x="1502.5" y="-13" font-family="Helvetica,sans-Serif" font-size="10.00">/testTransferGroup.cpp</text>
</a>
</g>
</g>
<!-- Node1&#45;&gt;Node10 -->
<g id="edge9" class="edge">
<title>Node1&#45;&gt;Node10</title>
<path fill="none" stroke="midnightblue" d="M956.09,-89.1C1073.5,-84.01 1266.61,-71.61 1430.5,-42 1439.05,-40.45 1448.06,-38.35 1456.7,-36.08"/>
<polygon fill="midnightblue" stroke="midnightblue" points="955.87,-85.61 946.02,-89.53 956.16,-92.6 955.87,-85.61"/>
</g>
<!-- Node11 -->
<g id="node11" class="node">
<title>Node11</title>
<g id="a_node11"><a xlink:href="test_void_register_accessor_8cpp.html" target="_top" xlink:title=" ">
<polygon fill="white" stroke="black" points="1584,-6 1584,-36 1747,-36 1747,-6 1584,-6"/>
<text text-anchor="start" x="1592" y="-24" font-family="Helvetica,sans-Serif" font-size="10.00">tests/executables_src</text>
<text text-anchor="middle" x="1665.5" y="-13" font-family="Helvetica,sans-Serif" font-size="10.00">/testVoidRegisterAccessor.cpp</text>
</a>
</g>
</g>
<!-- Node1&#45;&gt;Node11 -->
<g id="edge10" class="edge">
<title>Node1&#45;&gt;Node11</title>
<path fill="none" stroke="midnightblue" d="M956.05,-90.04C1098.41,-85.65 1356.93,-73.7 1575.5,-42 1586.11,-40.46 1597.34,-38.36 1608.12,-36.09"/>
<polygon fill="midnightblue" stroke="midnightblue" points="955.89,-86.55 946.01,-90.35 956.11,-93.54 955.89,-86.55"/>
</g>
</g>
</svg>
