<?xml version="1.0" encoding="UTF-8" standalone="no"?>
<!DOCTYPE svg PUBLIC "-//W3C//DTD SVG 1.1//EN"
 "http://www.w3.org/Graphics/SVG/1.1/DTD/svg11.dtd">
<!-- Generated by graphviz version 2.43.0 (0)
 -->
<!-- Title: ChimeraTK::NumericAddressedBackend::getRegisterInfo Pages: 1 -->
<svg width="866pt" height="284pt"
 viewBox="0.00 0.00 866.00 284.00" xmlns="http://www.w3.org/2000/svg" xmlns:xlink="http://www.w3.org/1999/xlink">
<g id="graph0" class="graph" transform="scale(1 1) rotate(0) translate(4 280)">
<title>ChimeraTK::NumericAddressedBackend::getRegisterInfo</title>
<polygon fill="white" stroke="transparent" points="-4,4 -4,-280 862,-280 862,4 -4,4"/>
<!-- Node1 -->
<g id="node1" class="node">
<title>Node1</title>
<g id="a_node1"><a xlink:title="getRegisterInfo returns a NumericAddressedRegisterInfo object for the given register.">
<polygon fill="#bfbfbf" stroke="black" points="0,-134.5 0,-164.5 169,-164.5 169,-134.5 0,-134.5"/>
<text text-anchor="start" x="8" y="-152.5" font-family="Helvetica,sans-Serif" font-size="10.00">ChimeraTK::NumericAddressed</text>
<text text-anchor="middle" x="84.5" y="-141.5" font-family="Helvetica,sans-Serif" font-size="10.00">Backend::getRegisterInfo</text>
</a>
</g>
</g>
<!-- Node2 -->
<g id="node2" class="node">
<title>Node2</title>
<g id="a_node2"><a xlink:href="class_chimera_t_k_1_1_numeric_addressed_register_catalogue.html#a33ee63fb41be9df3080c8ebe527c4b75" target="_top" xlink:title="Note: Override this function if backend has &quot;hidden&quot; registers which are not added to the map and hen...">
<polygon fill="white" stroke="black" points="205,-189.5 205,-219.5 415,-219.5 415,-189.5 205,-189.5"/>
<text text-anchor="start" x="213" y="-207.5" font-family="Helvetica,sans-Serif" font-size="10.00">ChimeraTK::NumericAddressed</text>
<text text-anchor="middle" x="310" y="-196.5" font-family="Helvetica,sans-Serif" font-size="10.00">RegisterCatalogue::getBackendRegister</text>
</a>
</g>
</g>
<!-- Node1&#45;&gt;Node2 -->
<g id="edge1" class="edge">
<title>Node1&#45;&gt;Node2</title>
<path fill="none" stroke="midnightblue" d="M146.57,-164.53C174.91,-171.5 208.75,-179.83 238.2,-187.08"/>
<polygon fill="midnightblue" stroke="midnightblue" points="237.45,-190.5 248,-189.49 239.13,-183.7 237.45,-190.5"/>
</g>
<!-- Node6 -->
<g id="node6" class="node">
<title>Node6</title>
<g id="a_node6"><a xlink:href="class_chimera_t_k_1_1_register_path.html#aa828ded01cbedfacd0d7b18a1022bbd4" target="_top" xlink:title="split path into components">
<polygon fill="white" stroke="black" points="241,-134.5 241,-164.5 379,-164.5 379,-134.5 241,-134.5"/>
<text text-anchor="start" x="249" y="-152.5" font-family="Helvetica,sans-Serif" font-size="10.00">ChimeraTK::RegisterPath</text>
<text text-anchor="middle" x="310" y="-141.5" font-family="Helvetica,sans-Serif" font-size="10.00">::getComponents</text>
</a>
</g>
</g>
<!-- Node1&#45;&gt;Node6 -->
<g id="edge5" class="edge">
<title>Node1&#45;&gt;Node6</title>
<path fill="none" stroke="midnightblue" d="M169.04,-149.5C189.21,-149.5 210.69,-149.5 230.61,-149.5"/>
<polygon fill="midnightblue" stroke="midnightblue" points="230.87,-153 240.87,-149.5 230.87,-146 230.87,-153"/>
</g>
<!-- Node7 -->
<g id="node7" class="node">
<title>Node7</title>
<g id="a_node7"><a xlink:href="class_chimera_t_k_1_1_register_path.html#a6ccb225c24d44fc469dc190a1fba80af" target="_top" xlink:title="check if the register path starts with the given path">
<polygon fill="white" stroke="black" points="241,-73.5 241,-103.5 379,-103.5 379,-73.5 241,-73.5"/>
<text text-anchor="start" x="249" y="-91.5" font-family="Helvetica,sans-Serif" font-size="10.00">ChimeraTK::RegisterPath</text>
<text text-anchor="middle" x="310" y="-80.5" font-family="Helvetica,sans-Serif" font-size="10.00">::startsWith</text>
</a>
</g>
</g>
<!-- Node1&#45;&gt;Node7 -->
<g id="edge6" class="edge">
<title>Node1&#45;&gt;Node7</title>
<path fill="none" stroke="midnightblue" d="M140.46,-134.5C171.74,-125.96 211.09,-115.22 243.91,-106.27"/>
<polygon fill="midnightblue" stroke="midnightblue" points="245.14,-109.56 253.86,-103.55 243.3,-102.8 245.14,-109.56"/>
</g>
<!-- Node3 -->
<g id="node3" class="node">
<title>Node3</title>
<g id="a_node3"><a xlink:href="class_chimera_t_k_1_1_numeric_addressed_register_info.html#a5ef157d98d5fae487a1cd08f720778b7" target="_top" xlink:title="Constructor to set all data members for scalar/1D registers.">
<polygon fill="white" stroke="black" points="451,-245.5 451,-275.5 684,-275.5 684,-245.5 451,-245.5"/>
<text text-anchor="start" x="459" y="-263.5" font-family="Helvetica,sans-Serif" font-size="10.00">ChimeraTK::NumericAddressed</text>
<text text-anchor="middle" x="567.5" y="-252.5" font-family="Helvetica,sans-Serif" font-size="10.00">RegisterInfo::NumericAddressedRegisterInfo</text>
</a>
</g>
</g>
<!-- Node2&#45;&gt;Node3 -->
<g id="edge2" class="edge">
<title>Node2&#45;&gt;Node3</title>
<path fill="none" stroke="midnightblue" d="M375.41,-219.5C399.15,-224.96 426.28,-231.11 451,-236.5 461.42,-238.77 472.37,-241.11 483.22,-243.4"/>
<polygon fill="midnightblue" stroke="midnightblue" points="482.63,-246.85 493.13,-245.48 484.07,-240 482.63,-246.85"/>
</g>
<!-- Node4 -->
<g id="node4" class="node">
<title>Node4</title>
<g id="a_node4"><a xlink:href="class_chimera_t_k_1_1_backend_register_catalogue.html#a7cb1215cc24a3ced17d075eec33974e9" target="_top" xlink:title="Note: Override this function if backend has &quot;hidden&quot; registers which are not added to the map and hen...">
<polygon fill="white" stroke="black" points="482.5,-196.5 482.5,-226.5 652.5,-226.5 652.5,-196.5 482.5,-196.5"/>
<text text-anchor="start" x="490.5" y="-214.5" font-family="Helvetica,sans-Serif" font-size="10.00">ChimeraTK::BackendRegister</text>
<text text-anchor="middle" x="567.5" y="-203.5" font-family="Helvetica,sans-Serif" font-size="10.00">Catalogue::getBackendRegister</text>
</a>
</g>
</g>
<!-- Node2&#45;&gt;Node4 -->
<g id="edge3" class="edge">
<title>Node2&#45;&gt;Node4</title>
<path fill="none" stroke="midnightblue" d="M415.29,-207.36C434.15,-207.87 453.72,-208.41 472.27,-208.92"/>
<polygon fill="midnightblue" stroke="midnightblue" points="472.37,-212.42 482.46,-209.2 472.56,-205.42 472.37,-212.42"/>
</g>
<!-- Node5 -->
<g id="node5" class="node">
<title>Node5</title>
<g id="a_node5"><a xlink:href="class_chimera_t_k_1_1_register_path.html#a84c47bf04a7a173d99da19f79f087570" target="_top" xlink:title="set alternative separator.">
<polygon fill="white" stroke="black" points="498.5,-147.5 498.5,-177.5 636.5,-177.5 636.5,-147.5 498.5,-147.5"/>
<text text-anchor="start" x="506.5" y="-165.5" font-family="Helvetica,sans-Serif" font-size="10.00">ChimeraTK::RegisterPath</text>
<text text-anchor="middle" x="567.5" y="-154.5" font-family="Helvetica,sans-Serif" font-size="10.00">::setAltSeparator</text>
</a>
</g>
</g>
<!-- Node2&#45;&gt;Node5 -->
<g id="edge4" class="edge">
<title>Node2&#45;&gt;Node5</title>
<path fill="none" stroke="midnightblue" d="M402.52,-189.46C430.58,-184.84 461.18,-179.81 488.27,-175.36"/>
<polygon fill="midnightblue" stroke="midnightblue" points="489.17,-178.76 498.47,-173.68 488.03,-171.85 489.17,-178.76"/>
</g>
<!-- Node8 -->
<g id="node8" class="node">
<title>Node8</title>
<g id="a_node8"><a xlink:href="class_chimera_t_k_1_1_register_path.html#a965e3b6fc9294782dd987f57c685a083" target="_top" xlink:title="return common alternative separator for this RegisterPath and the specified other RegisterPath object...">
<polygon fill="white" stroke="black" points="496,-98.5 496,-128.5 639,-128.5 639,-98.5 496,-98.5"/>
<text text-anchor="start" x="504" y="-116.5" font-family="Helvetica,sans-Serif" font-size="10.00">ChimeraTK::RegisterPath</text>
<text text-anchor="middle" x="567.5" y="-105.5" font-family="Helvetica,sans-Serif" font-size="10.00">::getCommonAltSeparator</text>
</a>
</g>
</g>
<!-- Node7&#45;&gt;Node8 -->
<g id="edge7" class="edge">
<title>Node7&#45;&gt;Node8</title>
<path fill="none" stroke="midnightblue" d="M379.13,-95.17C411.96,-98.38 451.56,-102.25 485.88,-105.61"/>
<polygon fill="midnightblue" stroke="midnightblue" points="485.59,-109.1 495.88,-106.59 486.27,-102.13 485.59,-109.1"/>
</g>
<!-- Node9 -->
<g id="node9" class="node">
<title>Node9</title>
<g id="a_node9"><a xlink:href="class_chimera_t_k_1_1_register_path.html#a57672f170b4a4d76dd32094b6109bf32" target="_top" xlink:title="Return the path after replacing the given otherSeparator with the standard separator &quot;/&quot;.">
<polygon fill="white" stroke="black" points="477.5,-49.5 477.5,-79.5 657.5,-79.5 657.5,-49.5 477.5,-49.5"/>
<text text-anchor="start" x="485.5" y="-67.5" font-family="Helvetica,sans-Serif" font-size="10.00">ChimeraTK::RegisterPath</text>
<text text-anchor="middle" x="567.5" y="-56.5" font-family="Helvetica,sans-Serif" font-size="10.00">::getWithOtherSeparatorReplaced</text>
</a>
</g>
</g>
<!-- Node7&#45;&gt;Node9 -->
<g id="edge8" class="edge">
<title>Node7&#45;&gt;Node9</title>
<path fill="none" stroke="midnightblue" d="M379.13,-82.1C406.11,-79.57 437.66,-76.6 467.09,-73.84"/>
<polygon fill="midnightblue" stroke="midnightblue" points="467.78,-77.29 477.4,-72.87 467.12,-70.32 467.78,-77.29"/>
</g>
<!-- Node11 -->
<g id="node11" class="node">
<title>Node11</title>
<g id="a_node11"><a xlink:href="class_chimera_t_k_1_1_register_path.html#ac4b813fafa64ea898bc9b114291621a5" target="_top" xlink:title="return the length of the path (including leading slash)">
<polygon fill="white" stroke="black" points="498.5,-0.5 498.5,-30.5 636.5,-30.5 636.5,-0.5 498.5,-0.5"/>
<text text-anchor="start" x="506.5" y="-18.5" font-family="Helvetica,sans-Serif" font-size="10.00">ChimeraTK::RegisterPath</text>
<text text-anchor="middle" x="567.5" y="-7.5" font-family="Helvetica,sans-Serif" font-size="10.00">::length</text>
</a>
</g>
</g>
<!-- Node7&#45;&gt;Node11 -->
<g id="edge11" class="edge">
<title>Node7&#45;&gt;Node11</title>
<path fill="none" stroke="midnightblue" d="M350.74,-73.48C378.55,-63.32 416.72,-50.05 451,-40.5 463.01,-37.15 475.82,-33.99 488.38,-31.11"/>
<polygon fill="midnightblue" stroke="midnightblue" points="489.39,-34.47 498.38,-28.86 487.86,-27.64 489.39,-34.47"/>
</g>
<!-- Node10 -->
<g id="node10" class="node">
<title>Node10</title>
<g id="a_node10"><a xlink:href="class_chimera_t_k_1_1_register_path.html#ac4e173e3e279992f779ae2d39873a2bd" target="_top" xlink:title="Search for duplicate separators (e.g.">
<polygon fill="white" stroke="black" points="720,-49.5 720,-79.5 858,-79.5 858,-49.5 720,-49.5"/>
<text text-anchor="start" x="728" y="-67.5" font-family="Helvetica,sans-Serif" font-size="10.00">ChimeraTK::RegisterPath</text>
<text text-anchor="middle" x="789" y="-56.5" font-family="Helvetica,sans-Serif" font-size="10.00">::removeExtraSeparators</text>
</a>
</g>
</g>
<!-- Node9&#45;&gt;Node10 -->
<g id="edge9" class="edge">
<title>Node9&#45;&gt;Node10</title>
<path fill="none" stroke="midnightblue" d="M657.78,-64.5C674.88,-64.5 692.67,-64.5 709.41,-64.5"/>
<polygon fill="midnightblue" stroke="midnightblue" points="709.68,-68 719.68,-64.5 709.68,-61 709.68,-68"/>
</g>
<!-- Node10&#45;&gt;Node10 -->
<g id="edge10" class="edge">
<title>Node10&#45;&gt;Node10</title>
<path fill="none" stroke="midnightblue" d="M750.66,-79.66C741.42,-89.06 754.2,-98 789,-98 810.21,-98 823.24,-94.68 828.09,-89.96"/>
<polygon fill="midnightblue" stroke="midnightblue" points="831.56,-89.38 827.34,-79.66 824.58,-89.89 831.56,-89.38"/>
</g>
</g>
</svg>
