<?xml version="1.0" encoding="UTF-8" standalone="no"?>
<!DOCTYPE svg PUBLIC "-//W3C//DTD SVG 1.1//EN"
 "http://www.w3.org/Graphics/SVG/1.1/DTD/svg11.dtd">
<!-- Generated by graphviz version 2.43.0 (0)
 -->
<!-- Title: /scratch/dragon/sources/ChimeraTK&#45;ApplicationCore/Python/bindings/include/PyModuleGroup.h Pages: 1 -->
<!--zoomable 412 -->

<svg id="main" version="1.1" xmlns="http://www.w3.org/2000/svg" xmlns:xlink="http://www.w3.org/1999/xlink" xml:space="preserve" onload="init(evt)">
<style type="text/css"><![CDATA[
.node, .edge {opacity: 0.7;}
.node.selected, .edge.selected {opacity: 1;}
.edge:hover path { stroke: red; }
.edge:hover polygon { stroke: red; fill: red; }
]]></style>

<defs>
  <circle id="rim" cx="0" cy="0" r="7"/>
  <circle id="rim2" cx="0" cy="0" r="3.5"/>
  <g id="zoomPlus">
    <use xlink:href="#rim" fill="#404040"><set attributeName="fill" to="#808080" begin="zoomplus.mouseover" end="zoomplus.mouseout"/></use>
    <path d="M-4,0h8M0,-4v8" fill="none" stroke="white" stroke-width="1.5" pointer-events="none"/>
  </g>
  <g id="zoomMin">
    <use xlink:href="#rim" fill="#404040"><set attributeName="fill" to="#808080" begin="zoomminus.mouseover" end="zoomminus.mouseout"/></use>
    <path d="M-4,0h8" fill="none" stroke="white" stroke-width="1.5" pointer-events="none"/>
  </g>
  <g id="arrowUp" transform="translate(30 24)">
    <use xlink:href="#rim"/>
    <path pointer-events="none" fill="none" stroke="white" stroke-width="1.5" d="M0,-3.0v7 M-2.5,-0.5L0,-3.0L2.5,-0.5"/>
  </g>
  <g id="arrowRight" transform="rotate(90) translate(36 -43)">
    <use xlink:href="#rim"/>
    <path pointer-events="none" fill="none" stroke="white" stroke-width="1.5" d="M0,-3.0v7 M-2.5,-0.5L0,-3.0L2.5,-0.5"/>
  </g>
  <g id="arrowDown" transform="rotate(180) translate(-30 -48)">
    <use xlink:href="#rim"/>
    <path pointer-events="none" fill="none" stroke="white" stroke-width="1.5" d="M0,-3.0v7 M-2.5,-0.5L0,-3.0L2.5,-0.5"/>
  </g>
  <g id="arrowLeft" transform="rotate(270) translate(-36 17)">
    <use xlink:href="#rim"/>
    <path pointer-events="none" fill="none" stroke="white" stroke-width="1.5" d="M0,-3.0v7 M-2.5,-0.5L0,-3.0L2.5,-0.5"/>
  </g>
  <g id="resetDef">
    <use xlink:href="#rim2" fill="#404040"><set attributeName="fill" to="#808080" begin="reset.mouseover" end="reset.mouseout"/></use>
  </g>
</defs>
<script type="application/ecmascript">
var viewWidth = 2981;
var viewHeight = 412;
var sectionId = 'dynsection-0';
</script>
<script type="application/ecmascript" xlink:href="svg.min.js"/>
<svg id="graph" class="graph">
<g id="viewport">
<title>/scratch/dragon/sources/ChimeraTK&#45;ApplicationCore/Python/bindings/include/PyModuleGroup.h</title>
<!-- Node1 -->
<g id="Node000001" class="node">
<title>Node1</title>
<g id="a_Node000001"><a xlink:title=" ">
<polygon fill="#999999" stroke="#666666" points="1613,-404 1460,-404 1460,-352 1613,-352 1613,-404"/>
<text text-anchor="start" x="1468" y="-392" font-family="Helvetica,sans-Serif" font-size="10.00">/scratch/dragon/sources</text>
<text text-anchor="start" x="1468" y="-381" font-family="Helvetica,sans-Serif" font-size="10.00">/ChimeraTK&#45;ApplicationCore</text>
<text text-anchor="start" x="1468" y="-370" font-family="Helvetica,sans-Serif" font-size="10.00">/Python/bindings/include</text>
<text text-anchor="middle" x="1536.5" y="-359" font-family="Helvetica,sans-Serif" font-size="10.00">/PyModuleGroup.h</text>
</a>
</g>
</g>
<!-- Node2 -->
<g id="Node000002" class="node">
<title>Node2</title>
<g id="a_Node000002"><a xlink:href="_module_group_8h.html" target="_top" xlink:title=" ">
<polygon fill="white" stroke="#666666" points="1620,-316 1529,-316 1529,-297 1620,-297 1620,-316"/>
<text text-anchor="middle" x="1574.5" y="-304" font-family="Helvetica,sans-Serif" font-size="10.00">ModuleGroup.h</text>
</a>
</g>
</g>
<!-- Node1&#45;&gt;Node2 -->
<g id="edge1_Node000001_Node000002" class="edge">
<title>Node1&#45;&gt;Node2</title>
<g id="a_edge1_Node000001_Node000002"><a xlink:title=" ">
<path fill="none" stroke="#63b8ff" d="M1550.22,-351.91C1555.06,-343.06 1560.39,-333.31 1564.82,-325.2"/>
<polygon fill="#63b8ff" stroke="#63b8ff" points="1567.96,-326.76 1569.69,-316.3 1561.82,-323.4 1567.96,-326.76"/>
</a>
</g>
</g>
<!-- Node43 -->
<g id="Node000043" class="node">
<title>Node43</title>
<g id="a_Node000043"><a xlink:href="_py_ownership_management_8h.html" target="_top" xlink:title=" ">
<polygon fill="white" stroke="#666666" points="1546.5,-206 1392.5,-206 1392.5,-187 1546.5,-187 1546.5,-206"/>
<text text-anchor="middle" x="1469.5" y="-194" font-family="Helvetica,sans-Serif" font-size="10.00">PyOwnershipManagement.h</text>
</a>
</g>
</g>
<!-- Node1&#45;&gt;Node43 -->
<g id="edge50_Node000001_Node000043" class="edge">
<title>Node1&#45;&gt;Node43</title>
<g id="a_edge50_Node000001_Node000043"><a xlink:title=" ">
<path fill="none" stroke="#63b8ff" d="M1527.04,-351.66C1513.37,-315.02 1488.39,-248.11 1476.35,-215.85"/>
<polygon fill="#63b8ff" stroke="#63b8ff" points="1479.57,-214.48 1472.8,-206.34 1473.02,-216.93 1479.57,-214.48"/>
</a>
</g>
</g>
<!-- Node3 -->
<g id="Node000003" class="node">
<title>Node3</title>
<g id="a_Node000003"><a xlink:href="_model_8h.html" target="_top" xlink:title=" ">
<polygon fill="white" stroke="#666666" points="1136.5,-90.5 1080.5,-90.5 1080.5,-71.5 1136.5,-71.5 1136.5,-90.5"/>
<text text-anchor="middle" x="1108.5" y="-78.5" font-family="Helvetica,sans-Serif" font-size="10.00">Model.h</text>
</a>
</g>
</g>
<!-- Node2&#45;&gt;Node3 -->
<g id="edge2_Node000002_Node000003" class="edge">
<title>Node2&#45;&gt;Node3</title>
<g id="a_edge2_Node000002_Node000003"><a xlink:title=" ">
<path fill="none" stroke="#63b8ff" d="M1556.52,-296.88C1485.09,-262.62 1221.14,-136.02 1135.51,-94.96"/>
<polygon fill="#63b8ff" stroke="#63b8ff" points="1136.96,-91.77 1126.43,-90.6 1133.93,-98.08 1136.96,-91.77"/>
</a>
</g>
</g>
<!-- Node17 -->
<g id="Node000017" class="node">
<title>Node17</title>
<g id="a_Node000017"><a xlink:href="_module_8h.html" target="_top" xlink:title=" ">
<polygon fill="white" stroke="#666666" points="1745.5,-261 1683.5,-261 1683.5,-242 1745.5,-242 1745.5,-261"/>
<text text-anchor="middle" x="1714.5" y="-249" font-family="Helvetica,sans-Serif" font-size="10.00">Module.h</text>
</a>
</g>
</g>
<!-- Node2&#45;&gt;Node17 -->
<g id="edge16_Node000002_Node000017" class="edge">
<title>Node2&#45;&gt;Node17</title>
<g id="a_edge16_Node000002_Node000017"><a xlink:title=" ">
<path fill="none" stroke="#63b8ff" d="M1596.99,-296.98C1620.02,-288.27 1656.04,-274.63 1682.13,-264.75"/>
<polygon fill="#63b8ff" stroke="#63b8ff" points="1683.48,-267.98 1691.6,-261.17 1681.01,-261.44 1683.48,-267.98"/>
</a>
</g>
</g>
<!-- Node28 -->
<g id="Node000028" class="node">
<title>Node28</title>
<g id="a_Node000028"><a xlink:title=" ">
<polygon fill="#e0e0e0" stroke="#999999" points="2164,-24.5 2065,-24.5 2065,-5.5 2164,-5.5 2164,-24.5"/>
<text text-anchor="middle" x="2114.5" y="-12.5" font-family="Helvetica,sans-Serif" font-size="10.00">boost/thread.hpp</text>
</a>
</g>
</g>
<!-- Node2&#45;&gt;Node28 -->
<g id="edge48_Node000002_Node000028" class="edge">
<title>Node2&#45;&gt;Node28</title>
<g id="a_edge48_Node000002_Node000028"><a xlink:title=" ">
<path fill="none" stroke="#63b8ff" d="M1620.35,-302.29C1727.69,-293.8 1990.74,-267.12 2050.5,-206 2094.75,-160.75 2050.88,-123.87 2076.5,-66 2081.97,-53.63 2091.06,-41.51 2098.98,-32.3"/>
<polygon fill="#63b8ff" stroke="#63b8ff" points="2101.7,-34.52 2105.78,-24.74 2096.49,-29.83 2101.7,-34.52"/>
</a>
</g>
</g>
<!-- Node40 -->
<g id="Node000040" class="node">
<title>Node40</title>
<g id="a_Node000040"><a xlink:title=" ">
<polygon fill="#e0e0e0" stroke="#999999" points="1590.5,-151 1558.5,-151 1558.5,-132 1590.5,-132 1590.5,-151"/>
<text text-anchor="middle" x="1574.5" y="-139" font-family="Helvetica,sans-Serif" font-size="10.00">list</text>
</a>
</g>
</g>
<!-- Node2&#45;&gt;Node40 -->
<g id="edge49_Node000002_Node000040" class="edge">
<title>Node2&#45;&gt;Node40</title>
<g id="a_edge49_Node000002_Node000040"><a xlink:title=" ">
<path fill="none" stroke="#63b8ff" d="M1574.5,-296.74C1574.5,-271.31 1574.5,-197.08 1574.5,-161.69"/>
<polygon fill="#63b8ff" stroke="#63b8ff" points="1578,-161.31 1574.5,-151.31 1571,-161.31 1578,-161.31"/>
</a>
</g>
</g>
<!-- Node4 -->
<g id="Node000004" class="node">
<title>Node4</title>
<g id="a_Node000004"><a xlink:title=" ">
<polygon fill="#e0e0e0" stroke="#999999" points="159,-24.5 0,-24.5 0,-5.5 159,-5.5 159,-24.5"/>
<text text-anchor="middle" x="79.5" y="-12.5" font-family="Helvetica,sans-Serif" font-size="10.00">ChimeraTK/cppext/finally.hpp</text>
</a>
</g>
</g>
<!-- Node3&#45;&gt;Node4 -->
<g id="edge3_Node000003_Node000004" class="edge">
<title>Node3&#45;&gt;Node4</title>
<g id="a_edge3_Node000003_Node000004"><a xlink:title=" ">
<path fill="none" stroke="#63b8ff" d="M1080.35,-79.56C966.26,-77.55 527.29,-67.66 168.5,-30 158.58,-28.96 148.09,-27.57 137.91,-26.07"/>
<polygon fill="#63b8ff" stroke="#63b8ff" points="138.29,-22.58 127.88,-24.54 137.24,-29.5 138.29,-22.58"/>
</a>
</g>
</g>
<!-- Node5 -->
<g id="Node000005" class="node">
<title>Node5</title>
<g id="a_Node000005"><a xlink:title=" ">
<polygon fill="#e0e0e0" stroke="#999999" points="321.5,-24.5 177.5,-24.5 177.5,-5.5 321.5,-5.5 321.5,-24.5"/>
<text text-anchor="middle" x="249.5" y="-12.5" font-family="Helvetica,sans-Serif" font-size="10.00">ChimeraTK/RegisterPath.h</text>
</a>
</g>
</g>
<!-- Node3&#45;&gt;Node5 -->
<g id="edge4_Node000003_Node000005" class="edge">
<title>Node3&#45;&gt;Node5</title>
<g id="a_edge4_Node000003_Node000005"><a xlink:title=" ">
<path fill="none" stroke="#63b8ff" d="M1080.49,-79.28C979.2,-76.46 622.51,-64.52 330.5,-30 321.85,-28.98 312.72,-27.65 303.83,-26.21"/>
<polygon fill="#63b8ff" stroke="#63b8ff" points="304.38,-22.76 293.94,-24.56 303.23,-29.66 304.38,-22.76"/>
</a>
</g>
</g>
<!-- Node6 -->
<g id="Node000006" class="node">
<title>Node6</title>
<g id="a_Node000006"><a xlink:title=" ">
<polygon fill="#e0e0e0" stroke="#999999" points="465,-30 340,-30 340,0 465,0 465,-30"/>
<text text-anchor="start" x="348" y="-18" font-family="Helvetica,sans-Serif" font-size="10.00">boost/algorithm/string</text>
<text text-anchor="middle" x="402.5" y="-7" font-family="Helvetica,sans-Serif" font-size="10.00">/predicate.hpp</text>
</a>
</g>
</g>
<!-- Node3&#45;&gt;Node6 -->
<g id="edge5_Node000003_Node000006" class="edge">
<title>Node3&#45;&gt;Node6</title>
<g id="a_edge5_Node000003_Node000006"><a xlink:title=" ">
<path fill="none" stroke="#63b8ff" d="M1080.21,-78.94C992.04,-75.41 714.31,-62.41 475.08,-30.12"/>
<polygon fill="#63b8ff" stroke="#63b8ff" points="475.53,-26.65 465.15,-28.76 474.59,-33.58 475.53,-26.65"/>
</a>
</g>
</g>
<!-- Node7 -->
<g id="Node000007" class="node">
<title>Node7</title>
<g id="a_Node000007"><a xlink:title=" ">
<polygon fill="#e0e0e0" stroke="#999999" points="610,-30 483,-30 483,0 610,0 610,-30"/>
<text text-anchor="start" x="491" y="-18" font-family="Helvetica,sans-Serif" font-size="10.00">boost/graph/adjacency</text>
<text text-anchor="middle" x="546.5" y="-7" font-family="Helvetica,sans-Serif" font-size="10.00">_list.hpp</text>
</a>
</g>
</g>
<!-- Node3&#45;&gt;Node7 -->
<g id="edge6_Node000003_Node000007" class="edge">
<title>Node3&#45;&gt;Node7</title>
<g id="a_edge6_Node000003_Node000007"><a xlink:title=" ">
<path fill="none" stroke="#63b8ff" d="M1080.49,-78.03C1006.75,-72.67 801.01,-56.47 620.01,-30.14"/>
<polygon fill="#63b8ff" stroke="#63b8ff" points="620.45,-26.67 610.05,-28.68 619.43,-33.6 620.45,-26.67"/>
</a>
</g>
</g>
<!-- Node8 -->
<g id="Node000008" class="node">
<title>Node8</title>
<g id="a_Node000008"><a xlink:title=" ">
<polygon fill="#e0e0e0" stroke="#999999" points="743,-30 628,-30 628,0 743,0 743,-30"/>
<text text-anchor="start" x="636" y="-18" font-family="Helvetica,sans-Serif" font-size="10.00">boost/graph/breadth</text>
<text text-anchor="middle" x="685.5" y="-7" font-family="Helvetica,sans-Serif" font-size="10.00">_first_search.hpp</text>
</a>
</g>
</g>
<!-- Node3&#45;&gt;Node8 -->
<g id="edge7_Node000003_Node000008" class="edge">
<title>Node3&#45;&gt;Node8</title>
<g id="a_edge7_Node000003_Node000008"><a xlink:title=" ">
<path fill="none" stroke="#63b8ff" d="M1080.16,-76.71C1021.16,-69.73 880.61,-52.32 752.99,-30.19"/>
<polygon fill="#63b8ff" stroke="#63b8ff" points="753.5,-26.73 743.05,-28.45 752.29,-33.62 753.5,-26.73"/>
</a>
</g>
</g>
<!-- Node9 -->
<g id="Node000009" class="node">
<title>Node9</title>
<g id="a_Node000009"><a xlink:title=" ">
<polygon fill="#e0e0e0" stroke="#999999" points="890,-30 761,-30 761,0 890,0 890,-30"/>
<text text-anchor="start" x="769" y="-18" font-family="Helvetica,sans-Serif" font-size="10.00">boost/graph/depth_first</text>
<text text-anchor="middle" x="825.5" y="-7" font-family="Helvetica,sans-Serif" font-size="10.00">_search.hpp</text>
</a>
</g>
</g>
<!-- Node3&#45;&gt;Node9 -->
<g id="edge8_Node000003_Node000009" class="edge">
<title>Node3&#45;&gt;Node9</title>
<g id="a_edge8_Node000003_Node000009"><a xlink:title=" ">
<path fill="none" stroke="#63b8ff" d="M1080.33,-73.63C1038.1,-64.08 957.02,-45.74 897.62,-32.31"/>
<polygon fill="#63b8ff" stroke="#63b8ff" points="898.06,-28.82 887.54,-30.03 896.52,-35.65 898.06,-28.82"/>
</a>
</g>
</g>
<!-- Node10 -->
<g id="Node000010" class="node">
<title>Node10</title>
<g id="a_Node000010"><a xlink:title=" ">
<polygon fill="#e0e0e0" stroke="#999999" points="1020.5,-30 908.5,-30 908.5,0 1020.5,0 1020.5,-30"/>
<text text-anchor="start" x="916.5" y="-18" font-family="Helvetica,sans-Serif" font-size="10.00">boost/graph/filtered</text>
<text text-anchor="middle" x="964.5" y="-7" font-family="Helvetica,sans-Serif" font-size="10.00">_graph.hpp</text>
</a>
</g>
</g>
<!-- Node3&#45;&gt;Node10 -->
<g id="edge9_Node000003_Node000010" class="edge">
<title>Node3&#45;&gt;Node10</title>
<g id="a_edge9_Node000003_Node000010"><a xlink:title=" ">
<path fill="none" stroke="#63b8ff" d="M1089.08,-71.37C1067.79,-61.91 1033.02,-46.45 1005.61,-34.27"/>
<polygon fill="#63b8ff" stroke="#63b8ff" points="1006.82,-30.98 996.26,-30.12 1003.98,-37.38 1006.82,-30.98"/>
</a>
</g>
</g>
<!-- Node11 -->
<g id="Node000011" class="node">
<title>Node11</title>
<g id="a_Node000011"><a xlink:title=" ">
<polygon fill="#e0e0e0" stroke="#999999" points="1178.5,-24.5 1038.5,-24.5 1038.5,-5.5 1178.5,-5.5 1178.5,-24.5"/>
<text text-anchor="middle" x="1108.5" y="-12.5" font-family="Helvetica,sans-Serif" font-size="10.00">boost/graph/graphviz.hpp</text>
</a>
</g>
</g>
<!-- Node3&#45;&gt;Node11 -->
<g id="edge10_Node000003_Node000011" class="edge">
<title>Node3&#45;&gt;Node11</title>
<g id="a_edge10_Node000003_Node000011"><a xlink:title=" ">
<path fill="none" stroke="#63b8ff" d="M1108.5,-71.37C1108.5,-62.16 1108.5,-47.29 1108.5,-35.27"/>
<polygon fill="#63b8ff" stroke="#63b8ff" points="1112,-34.91 1108.5,-24.91 1105,-34.91 1112,-34.91"/>
</a>
</g>
</g>
<!-- Node12 -->
<g id="Node000012" class="node">
<title>Node12</title>
<g id="a_Node000012"><a xlink:title=" ">
<polygon fill="#e0e0e0" stroke="#999999" points="1322,-30 1197,-30 1197,0 1322,0 1322,-30"/>
<text text-anchor="start" x="1205" y="-18" font-family="Helvetica,sans-Serif" font-size="10.00">boost/graph/transpose</text>
<text text-anchor="middle" x="1259.5" y="-7" font-family="Helvetica,sans-Serif" font-size="10.00">_graph.hpp</text>
</a>
</g>
</g>
<!-- Node3&#45;&gt;Node12 -->
<g id="edge11_Node000003_Node000012" class="edge">
<title>Node3&#45;&gt;Node12</title>
<g id="a_edge11_Node000003_Node000012"><a xlink:title=" ">
<path fill="none" stroke="#63b8ff" d="M1128.86,-71.37C1151.29,-61.87 1187.97,-46.32 1216.77,-34.11"/>
<polygon fill="#63b8ff" stroke="#63b8ff" points="1218.35,-37.24 1226.2,-30.12 1215.62,-30.8 1218.35,-37.24"/>
</a>
</g>
</g>
<!-- Node13 -->
<g id="Node000013" class="node">
<title>Node13</title>
<g id="a_Node000013"><a xlink:title=" ">
<polygon fill="#e0e0e0" stroke="#999999" points="1390.5,-24.5 1340.5,-24.5 1340.5,-5.5 1390.5,-5.5 1390.5,-24.5"/>
<text text-anchor="middle" x="1365.5" y="-12.5" font-family="Helvetica,sans-Serif" font-size="10.00">atomic</text>
</a>
</g>
</g>
<!-- Node3&#45;&gt;Node13 -->
<g id="edge12_Node000003_Node000013" class="edge">
<title>Node3&#45;&gt;Node13</title>
<g id="a_edge12_Node000003_Node000013"><a xlink:title=" ">
<path fill="none" stroke="#63b8ff" d="M1136.56,-75.16C1179.05,-67.51 1262.02,-51.26 1330.5,-30 1332.38,-29.42 1334.29,-28.78 1336.21,-28.11"/>
<polygon fill="#63b8ff" stroke="#63b8ff" points="1337.57,-31.34 1345.71,-24.55 1335.12,-24.78 1337.57,-31.34"/>
</a>
</g>
</g>
<!-- Node14 -->
<g id="Node000014" class="node">
<title>Node14</title>
<g id="a_Node000014"><a xlink:title=" ">
<polygon fill="#e0e0e0" stroke="#999999" points="1446.5,-24.5 1408.5,-24.5 1408.5,-5.5 1446.5,-5.5 1446.5,-24.5"/>
<text text-anchor="middle" x="1427.5" y="-12.5" font-family="Helvetica,sans-Serif" font-size="10.00">map</text>
</a>
</g>
</g>
<!-- Node3&#45;&gt;Node14 -->
<g id="edge13_Node000003_Node000014" class="edge">
<title>Node3&#45;&gt;Node14</title>
<g id="a_edge13_Node000003_Node000014"><a xlink:title=" ">
<path fill="none" stroke="#63b8ff" d="M1136.85,-77.9C1189.66,-73.39 1306.22,-60.59 1399.5,-30 1400.72,-29.6 1401.95,-29.15 1403.19,-28.68"/>
<polygon fill="#63b8ff" stroke="#63b8ff" points="1404.74,-31.82 1412.44,-24.54 1401.88,-25.42 1404.74,-31.82"/>
</a>
</g>
</g>
<!-- Node15 -->
<g id="Node000015" class="node">
<title>Node15</title>
<g id="a_Node000015"><a xlink:title=" ">
<polygon fill="#e0e0e0" stroke="#999999" points="1586.5,-24.5 1528.5,-24.5 1528.5,-5.5 1586.5,-5.5 1586.5,-24.5"/>
<text text-anchor="middle" x="1557.5" y="-12.5" font-family="Helvetica,sans-Serif" font-size="10.00">memory</text>
</a>
</g>
</g>
<!-- Node3&#45;&gt;Node15 -->
<g id="edge14_Node000003_Node000015" class="edge">
<title>Node3&#45;&gt;Node15</title>
<g id="a_edge14_Node000003_Node000015"><a xlink:title=" ">
<path fill="none" stroke="#63b8ff" d="M1136.81,-78.82C1204.06,-75.51 1378.36,-64.09 1519.5,-30 1522.01,-29.39 1524.59,-28.67 1527.15,-27.88"/>
<polygon fill="#63b8ff" stroke="#63b8ff" points="1528.52,-31.11 1536.86,-24.59 1526.27,-24.49 1528.52,-31.11"/>
</a>
</g>
</g>
<!-- Node16 -->
<g id="Node000016" class="node">
<title>Node16</title>
<g id="a_Node000016"><a xlink:title=" ">
<polygon fill="#e0e0e0" stroke="#999999" points="1510,-24.5 1465,-24.5 1465,-5.5 1510,-5.5 1510,-24.5"/>
<text text-anchor="middle" x="1487.5" y="-12.5" font-family="Helvetica,sans-Serif" font-size="10.00">utility</text>
</a>
</g>
</g>
<!-- Node3&#45;&gt;Node16 -->
<g id="edge15_Node000003_Node000016" class="edge">
<title>Node3&#45;&gt;Node16</title>
<g id="a_edge15_Node000003_Node000016"><a xlink:title=" ">
<path fill="none" stroke="#63b8ff" d="M1136.92,-78.5C1196.86,-74.76 1340.19,-62.88 1455.5,-30 1457.18,-29.52 1458.89,-28.97 1460.61,-28.37"/>
<polygon fill="#63b8ff" stroke="#63b8ff" points="1462.2,-31.51 1470.21,-24.58 1459.62,-25 1462.2,-31.51"/>
</a>
</g>
</g>
<!-- Node18 -->
<g id="Node000018" class="node">
<title>Node18</title>
<g id="a_Node000018"><a xlink:href="_entity_owner_8h.html" target="_top" xlink:title=" ">
<polygon fill="white" stroke="#666666" points="1688,-206 1603,-206 1603,-187 1688,-187 1688,-206"/>
<text text-anchor="middle" x="1645.5" y="-194" font-family="Helvetica,sans-Serif" font-size="10.00">EntityOwner.h</text>
</a>
</g>
</g>
<!-- Node17&#45;&gt;Node18 -->
<g id="edge17_Node000017_Node000018" class="edge">
<title>Node17&#45;&gt;Node18</title>
<g id="a_edge17_Node000017_Node000018"><a xlink:title=" ">
<path fill="none" stroke="#63b8ff" d="M1703.41,-241.98C1693.01,-234 1677.24,-221.88 1664.78,-212.31"/>
<polygon fill="#63b8ff" stroke="#63b8ff" points="1666.85,-209.49 1656.79,-206.17 1662.59,-215.04 1666.85,-209.49"/>
</a>
</g>
</g>
<!-- Node41 -->
<g id="Node000041" class="node">
<title>Node41</title>
<g id="a_Node000041"><a xlink:title=" ">
<polygon fill="#e0e0e0" stroke="#999999" points="1861,-206 1706,-206 1706,-187 1861,-187 1861,-206"/>
<text text-anchor="middle" x="1783.5" y="-194" font-family="Helvetica,sans-Serif" font-size="10.00">ChimeraTK/ReadAnyGroup.h</text>
</a>
</g>
</g>
<!-- Node17&#45;&gt;Node41 -->
<g id="edge46_Node000017_Node000041" class="edge">
<title>Node17&#45;&gt;Node41</title>
<g id="a_edge46_Node000017_Node000041"><a xlink:title=" ">
<path fill="none" stroke="#63b8ff" d="M1725.59,-241.98C1735.99,-234 1751.76,-221.88 1764.22,-212.31"/>
<polygon fill="#63b8ff" stroke="#63b8ff" points="1766.41,-215.04 1772.21,-206.17 1762.15,-209.49 1766.41,-215.04"/>
</a>
</g>
</g>
<!-- Node42 -->
<g id="Node000042" class="node">
<title>Node42</title>
<g id="a_Node000042"><a xlink:title=" ">
<polygon fill="#e0e0e0" stroke="#999999" points="2041.5,-206 1879.5,-206 1879.5,-187 2041.5,-187 2041.5,-206"/>
<text text-anchor="middle" x="1960.5" y="-194" font-family="Helvetica,sans-Serif" font-size="10.00">ChimeraTK/TransferElement.h</text>
</a>
</g>
</g>
<!-- Node17&#45;&gt;Node42 -->
<g id="edge47_Node000017_Node000042" class="edge">
<title>Node17&#45;&gt;Node42</title>
<g id="a_edge47_Node000017_Node000042"><a xlink:title=" ">
<path fill="none" stroke="#63b8ff" d="M1745.66,-243.79C1787.26,-234.82 1861.45,-218.84 1910.82,-208.2"/>
<polygon fill="#63b8ff" stroke="#63b8ff" points="1911.61,-211.61 1920.65,-206.09 1910.14,-204.77 1911.61,-211.61"/>
</a>
</g>
</g>
<!-- Node19 -->
<g id="Node000019" class="node">
<title>Node19</title>
<g id="a_Node000019"><a xlink:href="_flags_8h.html" target="_top" xlink:title=" ">
<polygon fill="white" stroke="#666666" points="1656.5,-24.5 1604.5,-24.5 1604.5,-5.5 1656.5,-5.5 1656.5,-24.5"/>
<text text-anchor="middle" x="1630.5" y="-12.5" font-family="Helvetica,sans-Serif" font-size="10.00">Flags.h</text>
</a>
</g>
</g>
<!-- Node18&#45;&gt;Node19 -->
<g id="edge18_Node000018_Node000019" class="edge">
<title>Node18&#45;&gt;Node19</title>
<g id="a_edge18_Node000018_Node000019"><a xlink:title=" ">
<path fill="none" stroke="#63b8ff" d="M1644.78,-186.84C1642.47,-159.3 1635.28,-73.26 1632.07,-34.84"/>
<polygon fill="#63b8ff" stroke="#63b8ff" points="1635.54,-34.24 1631.22,-24.57 1628.56,-34.83 1635.54,-34.24"/>
</a>
</g>
</g>
<!-- Node20 -->
<g id="Node000020" class="node">
<title>Node20</title>
<g id="a_Node000020"><a xlink:href="_utilities_8h.html" target="_top" xlink:title=" ">
<polygon fill="white" stroke="#666666" points="2946.5,-151 2882.5,-151 2882.5,-132 2946.5,-132 2946.5,-151"/>
<text text-anchor="middle" x="2914.5" y="-139" font-family="Helvetica,sans-Serif" font-size="10.00">Utilities.h</text>
</a>
</g>
</g>
<!-- Node18&#45;&gt;Node20 -->
<g id="edge19_Node000018_Node000020" class="edge">
<title>Node18&#45;&gt;Node20</title>
<g id="a_edge19_Node000018_Node000020"><a xlink:title=" ">
<path fill="none" stroke="#63b8ff" d="M1688.01,-188.09C1691.21,-187.67 1694.4,-187.3 1697.5,-187 2199.83,-138.19 2328.95,-185.04 2832.5,-151 2845.33,-150.13 2859.25,-148.83 2871.92,-147.5"/>
<polygon fill="#63b8ff" stroke="#63b8ff" points="2872.65,-150.94 2882.22,-146.38 2871.9,-143.98 2872.65,-150.94"/>
</a>
</g>
</g>
<!-- Node21 -->
<g id="Node000021" class="node">
<title>Node21</title>
<g id="a_Node000021"><a xlink:title=" ">
<polygon fill="#e0e0e0" stroke="#999999" points="2972.5,-90.5 2928.5,-90.5 2928.5,-71.5 2972.5,-71.5 2972.5,-90.5"/>
<text text-anchor="middle" x="2950.5" y="-78.5" font-family="Helvetica,sans-Serif" font-size="10.00">string</text>
</a>
</g>
</g>
<!-- Node18&#45;&gt;Node21 -->
<g id="edge44_Node000018_Node000021" class="edge">
<title>Node18&#45;&gt;Node21</title>
<g id="a_edge44_Node000018_Node000021"><a xlink:title=" ">
<path fill="none" stroke="#63b8ff" d="M1688.01,-188.13C1691.22,-187.7 1694.41,-187.32 1697.5,-187 2060.81,-149.47 2154.74,-183.85 2518.5,-151 2697.66,-134.82 2746.63,-145.76 2919.5,-96 2921.14,-95.53 2922.8,-94.98 2924.46,-94.39"/>
<polygon fill="#63b8ff" stroke="#63b8ff" points="2925.83,-97.61 2933.78,-90.61 2923.2,-91.13 2925.83,-97.61"/>
</a>
</g>
</g>
<!-- Node22 -->
<g id="Node000022" class="node">
<title>Node22</title>
<g id="a_Node000022"><a xlink:href="_variable_network_node_8h.html" target="_top" xlink:title=" ">
<polygon fill="white" stroke="#666666" points="2255.5,-151 2123.5,-151 2123.5,-132 2255.5,-132 2255.5,-151"/>
<text text-anchor="middle" x="2189.5" y="-139" font-family="Helvetica,sans-Serif" font-size="10.00">VariableNetworkNode.h</text>
</a>
</g>
</g>
<!-- Node18&#45;&gt;Node22 -->
<g id="edge21_Node000018_Node000022" class="edge">
<title>Node18&#45;&gt;Node22</title>
<g id="a_edge21_Node000018_Node000022"><a xlink:title=" ">
<path fill="none" stroke="#63b8ff" d="M1688.03,-188.29C1691.23,-187.83 1694.41,-187.39 1697.5,-187 1844.18,-168.4 2016.43,-154.67 2113.29,-147.69"/>
<polygon fill="#63b8ff" stroke="#63b8ff" points="2113.56,-151.18 2123.29,-146.97 2113.06,-144.2 2113.56,-151.18"/>
</a>
</g>
</g>
<!-- Node37 -->
<g id="Node000037" class="node">
<title>Node37</title>
<g id="a_Node000037"><a xlink:title=" ">
<polygon fill="#e0e0e0" stroke="#999999" points="2806.5,-90.5 2746.5,-90.5 2746.5,-71.5 2806.5,-71.5 2806.5,-90.5"/>
<text text-anchor="middle" x="2776.5" y="-78.5" font-family="Helvetica,sans-Serif" font-size="10.00">iostream</text>
</a>
</g>
</g>
<!-- Node18&#45;&gt;Node37 -->
<g id="edge42_Node000018_Node000037" class="edge">
<title>Node18&#45;&gt;Node37</title>
<g id="a_edge42_Node000018_Node000037"><a xlink:title=" ">
<path fill="none" stroke="#63b8ff" d="M1688.02,-188.2C1691.22,-187.76 1694.41,-187.35 1697.5,-187 1948.41,-158.6 2013.01,-173.59 2264.5,-151 2475.29,-132.07 2531.44,-144.29 2737.5,-96 2740.17,-95.38 2742.9,-94.63 2745.63,-93.81"/>
<polygon fill="#63b8ff" stroke="#63b8ff" points="2746.92,-97.07 2755.31,-90.6 2744.72,-90.42 2746.92,-97.07"/>
</a>
</g>
</g>
<!-- Node39 -->
<g id="Node000039" class="node">
<title>Node39</title>
<g id="a_Node000039"><a xlink:title=" ">
<polygon fill="#e0e0e0" stroke="#999999" points="2910.5,-90.5 2824.5,-90.5 2824.5,-71.5 2910.5,-71.5 2910.5,-90.5"/>
<text text-anchor="middle" x="2867.5" y="-78.5" font-family="Helvetica,sans-Serif" font-size="10.00">unordered_set</text>
</a>
</g>
</g>
<!-- Node18&#45;&gt;Node39 -->
<g id="edge45_Node000018_Node000039" class="edge">
<title>Node18&#45;&gt;Node39</title>
<g id="a_edge45_Node000018_Node000039"><a xlink:title=" ">
<path fill="none" stroke="#63b8ff" d="M1688.01,-188.15C1691.22,-187.72 1694.41,-187.33 1697.5,-187 2012.56,-153.39 2094.01,-180.29 2409.5,-151 2590.81,-134.17 2636.99,-131.97 2815.5,-96 2819.73,-95.15 2824.12,-94.15 2828.48,-93.08"/>
<polygon fill="#63b8ff" stroke="#63b8ff" points="2829.69,-96.39 2838.5,-90.51 2827.95,-89.61 2829.69,-96.39"/>
</a>
</g>
</g>
<!-- Node18&#45;&gt;Node40 -->
<g id="edge43_Node000018_Node000040" class="edge">
<title>Node18&#45;&gt;Node40</title>
<g id="a_edge43_Node000018_Node000040"><a xlink:title=" ">
<path fill="none" stroke="#63b8ff" d="M1634.09,-186.98C1623.39,-179 1607.16,-166.88 1594.34,-157.31"/>
<polygon fill="#63b8ff" stroke="#63b8ff" points="1596.22,-154.35 1586.11,-151.17 1592.03,-159.96 1596.22,-154.35"/>
</a>
</g>
</g>
<!-- Node20&#45;&gt;Node21 -->
<g id="edge20_Node000020_Node000021" class="edge">
<title>Node20&#45;&gt;Node21</title>
<g id="a_edge20_Node000020_Node000021"><a xlink:title=" ">
<path fill="none" stroke="#63b8ff" d="M2919.81,-131.87C2925.08,-123.31 2933.29,-109.97 2939.89,-99.24"/>
<polygon fill="#63b8ff" stroke="#63b8ff" points="2942.91,-101.02 2945.17,-90.67 2936.94,-97.35 2942.91,-101.02"/>
</a>
</g>
</g>
<!-- Node22&#45;&gt;Node3 -->
<g id="edge34_Node000022_Node000003" class="edge">
<title>Node22&#45;&gt;Node3</title>
<g id="a_edge34_Node000022_Node000003"><a xlink:title=" ">
<path fill="none" stroke="#63b8ff" d="M2123.1,-136.91C1919.24,-125.87 1306.48,-92.71 1146.86,-84.08"/>
<polygon fill="#63b8ff" stroke="#63b8ff" points="1146.76,-80.57 1136.58,-83.52 1146.38,-87.56 1146.76,-80.57"/>
</a>
</g>
</g>
<!-- Node22&#45;&gt;Node19 -->
<g id="edge24_Node000022_Node000019" class="edge">
<title>Node22&#45;&gt;Node19</title>
<g id="a_edge24_Node000022_Node000019"><a xlink:title=" ">
<path fill="none" stroke="#63b8ff" d="M2123.34,-141.38C2004.4,-141.87 1760.1,-137.58 1687.5,-96 1663.15,-82.06 1646.56,-52.99 1637.81,-34"/>
<polygon fill="#63b8ff" stroke="#63b8ff" points="1640.94,-32.43 1633.75,-24.65 1634.52,-35.21 1640.94,-32.43"/>
</a>
</g>
</g>
<!-- Node23 -->
<g id="Node000023" class="node">
<title>Node23</title>
<g id="a_Node000023"><a xlink:href="_constant_accessor_8h.html" target="_top" xlink:title=" ">
<polygon fill="white" stroke="#666666" points="2020.5,-90.5 1908.5,-90.5 1908.5,-71.5 2020.5,-71.5 2020.5,-90.5"/>
<text text-anchor="middle" x="1964.5" y="-78.5" font-family="Helvetica,sans-Serif" font-size="10.00">ConstantAccessor.h</text>
</a>
</g>
</g>
<!-- Node22&#45;&gt;Node23 -->
<g id="edge22_Node000022_Node000023" class="edge">
<title>Node22&#45;&gt;Node23</title>
<g id="a_edge22_Node000022_Node000023"><a xlink:title=" ">
<path fill="none" stroke="#63b8ff" d="M2156.78,-131.99C2117.21,-121.7 2050.49,-104.36 2006.98,-93.04"/>
<polygon fill="#63b8ff" stroke="#63b8ff" points="2007.82,-89.65 1997.26,-90.52 2006.05,-96.42 2007.82,-89.65"/>
</a>
</g>
</g>
<!-- Node25 -->
<g id="Node000025" class="node">
<title>Node25</title>
<g id="a_Node000025"><a xlink:href="_logger_8h.html" target="_top" xlink:title=" ">
<polygon fill="white" stroke="#666666" points="2143.5,-90.5 2085.5,-90.5 2085.5,-71.5 2143.5,-71.5 2143.5,-90.5"/>
<text text-anchor="middle" x="2114.5" y="-78.5" font-family="Helvetica,sans-Serif" font-size="10.00">Logger.h</text>
</a>
</g>
</g>
<!-- Node22&#45;&gt;Node25 -->
<g id="edge25_Node000022_Node000025" class="edge">
<title>Node22&#45;&gt;Node25</title>
<g id="a_edge25_Node000022_Node000025"><a xlink:title=" ">
<path fill="none" stroke="#63b8ff" d="M2178.43,-131.87C2166.69,-122.71 2147.91,-108.06 2133.74,-97.01"/>
<polygon fill="#63b8ff" stroke="#63b8ff" points="2135.65,-94.06 2125.61,-90.67 2131.34,-99.58 2135.65,-94.06"/>
</a>
</g>
</g>
<!-- Node31 -->
<g id="Node000031" class="node">
<title>Node31</title>
<g id="a_Node000031"><a xlink:href="_meta_data_propagating_register_decorator_8h.html" target="_top" xlink:title=" ">
<polygon fill="white" stroke="#666666" points="1860.5,-96 1696.5,-96 1696.5,-66 1860.5,-66 1860.5,-96"/>
<text text-anchor="start" x="1704.5" y="-84" font-family="Helvetica,sans-Serif" font-size="10.00">MetaDataPropagatingRegister</text>
<text text-anchor="middle" x="1778.5" y="-73" font-family="Helvetica,sans-Serif" font-size="10.00">Decorator.h</text>
</a>
</g>
</g>
<!-- Node22&#45;&gt;Node31 -->
<g id="edge31_Node000022_Node000031" class="edge">
<title>Node22&#45;&gt;Node31</title>
<g id="a_edge31_Node000022_Node000031"><a xlink:title=" ">
<path fill="none" stroke="#63b8ff" d="M2129.74,-131.99C2061.74,-122.31 1949.87,-106.39 1870.67,-95.12"/>
<polygon fill="#63b8ff" stroke="#63b8ff" points="1871.09,-91.64 1860.7,-93.7 1870.11,-98.57 1871.09,-91.64"/>
</a>
</g>
</g>
<!-- Node33 -->
<g id="Node000033" class="node">
<title>Node33</title>
<g id="a_Node000033"><a xlink:href="_visitor_8h.html" target="_top" xlink:title=" ">
<polygon fill="white" stroke="#666666" points="2217.5,-90.5 2161.5,-90.5 2161.5,-71.5 2217.5,-71.5 2217.5,-90.5"/>
<text text-anchor="middle" x="2189.5" y="-78.5" font-family="Helvetica,sans-Serif" font-size="10.00">Visitor.h</text>
</a>
</g>
</g>
<!-- Node22&#45;&gt;Node33 -->
<g id="edge35_Node000022_Node000033" class="edge">
<title>Node22&#45;&gt;Node33</title>
<g id="a_edge35_Node000022_Node000033"><a xlink:title=" ">
<path fill="none" stroke="#63b8ff" d="M2189.5,-131.87C2189.5,-123.75 2189.5,-111.31 2189.5,-100.89"/>
<polygon fill="#63b8ff" stroke="#63b8ff" points="2193,-100.67 2189.5,-90.67 2186,-100.67 2193,-100.67"/>
</a>
</g>
</g>
<!-- Node34 -->
<g id="Node000034" class="node">
<title>Node34</title>
<g id="a_Node000034"><a xlink:title=" ">
<polygon fill="#e0e0e0" stroke="#999999" points="2409,-96 2236,-96 2236,-66 2409,-66 2409,-96"/>
<text text-anchor="start" x="2244" y="-84" font-family="Helvetica,sans-Serif" font-size="10.00">ChimeraTK/NDRegisterAccessor</text>
<text text-anchor="middle" x="2322.5" y="-73" font-family="Helvetica,sans-Serif" font-size="10.00">Abstractor.h</text>
</a>
</g>
</g>
<!-- Node22&#45;&gt;Node34 -->
<g id="edge36_Node000022_Node000034" class="edge">
<title>Node22&#45;&gt;Node34</title>
<g id="a_edge36_Node000022_Node000034"><a xlink:title=" ">
<path fill="none" stroke="#63b8ff" d="M2208.84,-131.99C2227.73,-123.68 2257.08,-110.78 2281.22,-100.16"/>
<polygon fill="#63b8ff" stroke="#63b8ff" points="2282.78,-103.29 2290.52,-96.06 2279.96,-96.89 2282.78,-103.29"/>
</a>
</g>
</g>
<!-- Node35 -->
<g id="Node000035" class="node">
<title>Node35</title>
<g id="a_Node000035"><a xlink:title=" ">
<polygon fill="#e0e0e0" stroke="#999999" points="2546,-90.5 2427,-90.5 2427,-71.5 2546,-71.5 2546,-90.5"/>
<text text-anchor="middle" x="2486.5" y="-78.5" font-family="Helvetica,sans-Serif" font-size="10.00">boost/shared_ptr.hpp</text>
</a>
</g>
</g>
<!-- Node22&#45;&gt;Node35 -->
<g id="edge37_Node000022_Node000035" class="edge">
<title>Node22&#45;&gt;Node35</title>
<g id="a_edge37_Node000022_Node000035"><a xlink:title=" ">
<path fill="none" stroke="#63b8ff" d="M2234.29,-131.95C2280.47,-123.1 2354.56,-108.79 2418.5,-96 2423.97,-94.91 2429.68,-93.75 2435.37,-92.59"/>
<polygon fill="#63b8ff" stroke="#63b8ff" points="2436.43,-95.95 2445.52,-90.51 2435.02,-89.09 2436.43,-95.95"/>
</a>
</g>
</g>
<!-- Node36 -->
<g id="Node000036" class="node">
<title>Node36</title>
<g id="a_Node000036"><a xlink:title=" ">
<polygon fill="#e0e0e0" stroke="#999999" points="2616.5,-90.5 2564.5,-90.5 2564.5,-71.5 2616.5,-71.5 2616.5,-90.5"/>
<text text-anchor="middle" x="2590.5" y="-78.5" font-family="Helvetica,sans-Serif" font-size="10.00">cassert</text>
</a>
</g>
</g>
<!-- Node22&#45;&gt;Node36 -->
<g id="edge38_Node000022_Node000036" class="edge">
<title>Node22&#45;&gt;Node36</title>
<g id="a_edge38_Node000022_Node000036"><a xlink:title=" ">
<path fill="none" stroke="#63b8ff" d="M2255.57,-137.62C2329.6,-133.22 2452.72,-122.33 2555.5,-96 2557.66,-95.45 2559.87,-94.79 2562.08,-94.07"/>
<polygon fill="#63b8ff" stroke="#63b8ff" points="2563.35,-97.33 2571.54,-90.62 2560.95,-90.76 2563.35,-97.33"/>
</a>
</g>
</g>
<!-- Node22&#45;&gt;Node37 -->
<g id="edge39_Node000022_Node000037" class="edge">
<title>Node22&#45;&gt;Node37</title>
<g id="a_edge39_Node000022_Node000037"><a xlink:title=" ">
<path fill="none" stroke="#63b8ff" d="M2255.69,-140.71C2359.53,-139.8 2566.53,-132.95 2737.5,-96 2740.33,-95.39 2743.24,-94.62 2746.13,-93.76"/>
<polygon fill="#63b8ff" stroke="#63b8ff" points="2747.35,-97.05 2755.75,-90.59 2745.15,-90.4 2747.35,-97.05"/>
</a>
</g>
</g>
<!-- Node38 -->
<g id="Node000038" class="node">
<title>Node38</title>
<g id="a_Node000038"><a xlink:title=" ">
<polygon fill="#e0e0e0" stroke="#999999" points="2728,-90.5 2635,-90.5 2635,-71.5 2728,-71.5 2728,-90.5"/>
<text text-anchor="middle" x="2681.5" y="-78.5" font-family="Helvetica,sans-Serif" font-size="10.00">unordered_map</text>
</a>
</g>
</g>
<!-- Node22&#45;&gt;Node38 -->
<g id="edge40_Node000022_Node000038" class="edge">
<title>Node22&#45;&gt;Node38</title>
<g id="a_edge40_Node000022_Node000038"><a xlink:title=" ">
<path fill="none" stroke="#63b8ff" d="M2255.64,-136.71C2341.42,-131.12 2495.47,-118.77 2625.5,-96 2630.55,-95.12 2635.82,-94.02 2641.02,-92.85"/>
<polygon fill="#63b8ff" stroke="#63b8ff" points="2641.94,-96.22 2650.86,-90.5 2640.32,-89.42 2641.94,-96.22"/>
</a>
</g>
</g>
<!-- Node22&#45;&gt;Node39 -->
<g id="edge41_Node000022_Node000039" class="edge">
<title>Node22&#45;&gt;Node39</title>
<g id="a_edge41_Node000022_Node000039"><a xlink:title=" ">
<path fill="none" stroke="#63b8ff" d="M2255.79,-139.95C2370.59,-138.09 2613.51,-130.04 2815.5,-96 2820.21,-95.21 2825.11,-94.17 2829.93,-93.03"/>
<polygon fill="#63b8ff" stroke="#63b8ff" points="2830.82,-96.41 2839.65,-90.55 2829.1,-89.63 2830.82,-96.41"/>
</a>
</g>
</g>
<!-- Node24 -->
<g id="Node000024" class="node">
<title>Node24</title>
<g id="a_Node000024"><a xlink:title=" ">
<polygon fill="#e0e0e0" stroke="#999999" points="2047,-24.5 1866,-24.5 1866,-5.5 2047,-5.5 2047,-24.5"/>
<text text-anchor="middle" x="1956.5" y="-12.5" font-family="Helvetica,sans-Serif" font-size="10.00">ChimeraTK/NDRegisterAccessor.h</text>
</a>
</g>
</g>
<!-- Node23&#45;&gt;Node24 -->
<g id="edge23_Node000023_Node000024" class="edge">
<title>Node23&#45;&gt;Node24</title>
<g id="a_edge23_Node000023_Node000024"><a xlink:title=" ">
<path fill="none" stroke="#63b8ff" d="M1963.42,-71.37C1962.26,-62.07 1960.37,-46.98 1958.86,-34.9"/>
<polygon fill="#63b8ff" stroke="#63b8ff" points="1962.33,-34.39 1957.61,-24.91 1955.38,-35.26 1962.33,-34.39"/>
</a>
</g>
</g>
<!-- Node26 -->
<g id="Node000026" class="node">
<title>Node26</title>
<g id="a_Node000026"><a xlink:title=" ">
<polygon fill="#e0e0e0" stroke="#999999" points="2321,-30 2182,-30 2182,0 2321,0 2321,-30"/>
<text text-anchor="start" x="2190" y="-18" font-family="Helvetica,sans-Serif" font-size="10.00">ChimeraTK/cppext/future</text>
<text text-anchor="middle" x="2251.5" y="-7" font-family="Helvetica,sans-Serif" font-size="10.00">_queue.hpp</text>
</a>
</g>
</g>
<!-- Node25&#45;&gt;Node26 -->
<g id="edge26_Node000025_Node000026" class="edge">
<title>Node25&#45;&gt;Node26</title>
<g id="a_edge26_Node000025_Node000026"><a xlink:title=" ">
<path fill="none" stroke="#63b8ff" d="M2132.98,-71.37C2153.14,-61.95 2186.02,-46.59 2212.04,-34.43"/>
<polygon fill="#63b8ff" stroke="#63b8ff" points="2213.7,-37.52 2221.28,-30.12 2210.74,-31.18 2213.7,-37.52"/>
</a>
</g>
</g>
<!-- Node27 -->
<g id="Node000027" class="node">
<title>Node27</title>
<g id="a_Node000027"><a xlink:title=" ">
<polygon fill="#e0e0e0" stroke="#999999" points="2485.5,-24.5 2339.5,-24.5 2339.5,-5.5 2485.5,-5.5 2485.5,-24.5"/>
<text text-anchor="middle" x="2412.5" y="-12.5" font-family="Helvetica,sans-Serif" font-size="10.00">boost/algorithm/string.hpp</text>
</a>
</g>
</g>
<!-- Node25&#45;&gt;Node27 -->
<g id="edge27_Node000025_Node000027" class="edge">
<title>Node25&#45;&gt;Node27</title>
<g id="a_edge27_Node000025_Node000027"><a xlink:title=" ">
<path fill="none" stroke="#63b8ff" d="M2136,-71.39C2141.34,-69.44 2147.08,-67.51 2152.5,-66 2189.38,-55.73 2288.36,-37.66 2353,-26.28"/>
<polygon fill="#63b8ff" stroke="#63b8ff" points="2353.82,-29.69 2363.07,-24.51 2352.61,-22.79 2353.82,-29.69"/>
</a>
</g>
</g>
<!-- Node25&#45;&gt;Node28 -->
<g id="edge28_Node000025_Node000028" class="edge">
<title>Node25&#45;&gt;Node28</title>
<g id="a_edge28_Node000025_Node000028"><a xlink:title=" ">
<path fill="none" stroke="#63b8ff" d="M2114.5,-71.37C2114.5,-62.16 2114.5,-47.29 2114.5,-35.27"/>
<polygon fill="#63b8ff" stroke="#63b8ff" points="2118,-34.91 2114.5,-24.91 2111,-34.91 2118,-34.91"/>
</a>
</g>
</g>
<!-- Node29 -->
<g id="Node000029" class="node">
<title>Node29</title>
<g id="a_Node000029"><a xlink:title=" ">
<polygon fill="#e0e0e0" stroke="#999999" points="2565.5,-24.5 2503.5,-24.5 2503.5,-5.5 2565.5,-5.5 2565.5,-24.5"/>
<text text-anchor="middle" x="2534.5" y="-12.5" font-family="Helvetica,sans-Serif" font-size="10.00">expected</text>
</a>
</g>
</g>
<!-- Node25&#45;&gt;Node29 -->
<g id="edge29_Node000025_Node000029" class="edge">
<title>Node25&#45;&gt;Node29</title>
<g id="a_edge29_Node000025_Node000029"><a xlink:title=" ">
<path fill="none" stroke="#63b8ff" d="M2134.73,-71.49C2140.39,-69.4 2146.61,-67.37 2152.5,-66 2301.35,-31.31 2345.37,-63.47 2494.5,-30 2497.33,-29.37 2500.23,-28.6 2503.12,-27.75"/>
<polygon fill="#63b8ff" stroke="#63b8ff" points="2504.32,-31.04 2512.76,-24.63 2502.17,-24.37 2504.32,-31.04"/>
</a>
</g>
</g>
<!-- Node30 -->
<g id="Node000030" class="node">
<title>Node30</title>
<g id="a_Node000030"><a xlink:title=" ">
<polygon fill="#e0e0e0" stroke="#999999" points="2639.5,-24.5 2583.5,-24.5 2583.5,-5.5 2639.5,-5.5 2639.5,-24.5"/>
<text text-anchor="middle" x="2611.5" y="-12.5" font-family="Helvetica,sans-Serif" font-size="10.00">sstream</text>
</a>
</g>
</g>
<!-- Node25&#45;&gt;Node30 -->
<g id="edge30_Node000025_Node000030" class="edge">
<title>Node25&#45;&gt;Node30</title>
<g id="a_edge30_Node000025_Node000030"><a xlink:title=" ">
<path fill="none" stroke="#63b8ff" d="M2134.71,-71.42C2140.37,-69.32 2146.6,-67.31 2152.5,-66 2336.24,-25.1 2390.94,-71.71 2574.5,-30 2577.02,-29.43 2579.6,-28.72 2582.16,-27.93"/>
<polygon fill="#63b8ff" stroke="#63b8ff" points="2583.53,-31.16 2591.84,-24.59 2581.25,-24.55 2583.53,-31.16"/>
</a>
</g>
</g>
<!-- Node31&#45;&gt;Node19 -->
<g id="edge32_Node000031_Node000019" class="edge">
<title>Node31&#45;&gt;Node19</title>
<g id="a_edge32_Node000031_Node000019"><a xlink:title=" ">
<path fill="none" stroke="#63b8ff" d="M1746.02,-65.95C1720.18,-54.78 1684.35,-39.29 1659.47,-28.53"/>
<polygon fill="#63b8ff" stroke="#63b8ff" points="1660.76,-25.27 1650.2,-24.52 1657.99,-31.7 1660.76,-25.27"/>
</a>
</g>
</g>
<!-- Node32 -->
<g id="Node000032" class="node">
<title>Node32</title>
<g id="a_Node000032"><a xlink:title=" ">
<polygon fill="#e0e0e0" stroke="#999999" points="1848,-30 1675,-30 1675,0 1848,0 1848,-30"/>
<text text-anchor="start" x="1683" y="-18" font-family="Helvetica,sans-Serif" font-size="10.00">ChimeraTK/NDRegisterAccessor</text>
<text text-anchor="middle" x="1761.5" y="-7" font-family="Helvetica,sans-Serif" font-size="10.00">Decorator.h</text>
</a>
</g>
</g>
<!-- Node31&#45;&gt;Node32 -->
<g id="edge33_Node000031_Node000032" class="edge">
<title>Node31&#45;&gt;Node32</title>
<g id="a_edge33_Node000031_Node000032"><a xlink:title=" ">
<path fill="none" stroke="#63b8ff" d="M1774.73,-65.8C1772.7,-58.17 1770.15,-48.57 1767.83,-39.84"/>
<polygon fill="#63b8ff" stroke="#63b8ff" points="1771.21,-38.93 1765.26,-30.16 1764.45,-40.73 1771.21,-38.93"/>
</a>
</g>
</g>
<!-- Node43&#45;&gt;Node15 -->
<g id="edge52_Node000043_Node000015" class="edge">
<title>Node43&#45;&gt;Node15</title>
<g id="a_edge52_Node000043_Node000015"><a xlink:title=" ">
<path fill="none" stroke="#63b8ff" d="M1473.74,-186.84C1487.36,-159.06 1530.16,-71.77 1548.74,-33.86"/>
<polygon fill="#63b8ff" stroke="#63b8ff" points="1552.04,-35.09 1553.3,-24.57 1545.75,-32.01 1552.04,-35.09"/>
</a>
</g>
</g>
<!-- Node43&#45;&gt;Node40 -->
<g id="edge51_Node000043_Node000040" class="edge">
<title>Node43&#45;&gt;Node40</title>
<g id="a_edge51_Node000043_Node000040"><a xlink:title=" ">
<path fill="none" stroke="#63b8ff" d="M1486.37,-186.98C1503.41,-178.38 1529.93,-165 1549.43,-155.16"/>
<polygon fill="#63b8ff" stroke="#63b8ff" points="1551.01,-158.28 1558.36,-150.65 1547.86,-152.03 1551.01,-158.28"/>
</a>
</g>
</g>
</g>
</svg>

<g id="navigator" transform="translate(0 0)" fill="#404254">
  <rect fill="#f2f5e9" fill-opacity="0.5" stroke="#606060" stroke-width=".5" x="0" y="0" width="60" height="60"/>
  <use id="zoomplus" xlink:href="#zoomPlus" x="17" y="9" onmousedown="handleZoom(evt,'in')"/>
  <use id="zoomminus" xlink:href="#zoomMin" x="42" y="9" onmousedown="handleZoom(evt,'out')"/>
  <use id="reset" xlink:href="#resetDef" x="30" y="36" onmousedown="handleReset()"/>
   <use id="arrowup" xlink:href="#arrowUp" x="0" y="0" onmousedown="handlePan(0,-1)"/>
  <use id="arrowright" xlink:href="#arrowRight" x="0" y="0" onmousedown="handlePan(1,0)"/>
  <use id="arrowdown" xlink:href="#arrowDown" x="0" y="0" onmousedown="handlePan(0,1)"/>
  <use id="arrowleft" xlink:href="#arrowLeft" x="0" y="0" onmousedown="handlePan(-1,0)"/>
</g>
<svg viewBox="0 0 15 15" width="100%" height="30px" preserveAspectRatio="xMaxYMin meet">
 <g id="arrow_out" transform="scale(0.3 0.3)">
  <a xlink:href="_py_module_group_8h__incl_org.svg" target="_base">
   <rect id="button" ry="5" rx="5" y="6" x="6" height="38" width="38"
        fill="#f2f5e9" fill-opacity="0.5" stroke="#606060" stroke-width="1.0"/>
   <path id="arrow"
     d="M 11.500037,31.436501 C 11.940474,20.09759 22.043105,11.32322 32.158766,21.979434 L 37.068811,17.246167 C 37.068811,17.246167 37.088388,32 37.088388,32 L 22.160133,31.978069 C 22.160133,31.978069 26.997745,27.140456 26.997745,27.140456 C 18.528582,18.264221 13.291696,25.230495 11.500037,31.436501 z"
     style="fill:#404040;"/>
  </a>
 </g>
</svg>

<style type='text/css'>
<![CDATA[
[data-mouse-over-selected='false'] { opacity: 0.7; }
[data-mouse-over-selected='true']  { opacity: 1.0; }
]]>
</style>
<script type="application/ecmascript"><![CDATA[
document.addEventListener('DOMContentLoaded', (event) => {
  highlightEdges();
  highlightAdjacentNodes();
});
]]></script>
</svg>
