<?xml version="1.0" encoding="UTF-8" standalone="no"?>
<!DOCTYPE svg PUBLIC "-//W3C//DTD SVG 1.1//EN"
 "http://www.w3.org/Graphics/SVG/1.1/DTD/svg11.dtd">
<!-- Generated by graphviz version 2.43.0 (0)
 -->
<!-- Title: include/DMapFileParser.h Pages: 1 -->
<svg width="536pt" height="137pt"
 viewBox="0.00 0.00 535.50 137.00" xmlns="http://www.w3.org/2000/svg" xmlns:xlink="http://www.w3.org/1999/xlink">
<g id="graph0" class="graph" transform="scale(1 1) rotate(0) translate(4 133)">
<title>include/DMapFileParser.h</title>
<!-- Node1 -->
<g id="Node000001" class="node">
<title>Node1</title>
<g id="a_Node000001"><a xlink:title=" ">
<polygon fill="#999999" stroke="#666666" points="397.5,-129 258.5,-129 258.5,-110 397.5,-110 397.5,-129"/>
<text text-anchor="middle" x="328" y="-117" font-family="Helvetica,sans-Serif" font-size="10.00">include/DMapFileParser.h</text>
</a>
</g>
</g>
<!-- Node2 -->
<g id="Node000002" class="node">
<title>Node2</title>
<g id="a_Node000002"><a xlink:href="_device_info_map_8h.html" target="_top" xlink:title=" ">
<polygon fill="white" stroke="#666666" points="338.5,-74 239.5,-74 239.5,-55 338.5,-55 338.5,-74"/>
<text text-anchor="middle" x="289" y="-62" font-family="Helvetica,sans-Serif" font-size="10.00">DeviceInfoMap.h</text>
</a>
</g>
</g>
<!-- Node1&#45;&gt;Node2 -->
<g id="edge1_Node000001_Node000002" class="edge">
<title>Node1&#45;&gt;Node2</title>
<g id="a_edge1_Node000001_Node000002"><a xlink:title=" ">
<path fill="none" stroke="#63b8ff" d="M321.56,-109.75C316.11,-102.34 308.14,-91.5 301.44,-82.41"/>
<polygon fill="#63b8ff" stroke="#63b8ff" points="304.07,-80.07 295.32,-74.09 298.43,-84.22 304.07,-80.07"/>
</a>
</g>
</g>
<!-- Node4 -->
<g id="Node000004" class="node">
<title>Node4</title>
<g id="a_Node000004"><a xlink:title=" ">
<polygon fill="#e0e0e0" stroke="#999999" points="50,-19 0,-19 0,0 50,0 50,-19"/>
<text text-anchor="middle" x="25" y="-7" font-family="Helvetica,sans-Serif" font-size="10.00">cstdint</text>
</a>
</g>
</g>
<!-- Node1&#45;&gt;Node4 -->
<g id="edge11_Node000001_Node000004" class="edge">
<title>Node1&#45;&gt;Node4</title>
<g id="a_edge11_Node000001_Node000004"><a xlink:title=" ">
<path fill="none" stroke="#63b8ff" d="M303.97,-109.94C250.27,-90.79 120.42,-44.51 58.68,-22.51"/>
<polygon fill="#63b8ff" stroke="#63b8ff" points="59.63,-19.13 49.03,-19.07 57.28,-25.72 59.63,-19.13"/>
</a>
</g>
</g>
<!-- Node7 -->
<g id="Node000007" class="node">
<title>Node7</title>
<g id="a_Node000007"><a xlink:title=" ">
<polygon fill="#e0e0e0" stroke="#999999" points="444,-19 400,-19 400,0 444,0 444,-19"/>
<text text-anchor="middle" x="422" y="-7" font-family="Helvetica,sans-Serif" font-size="10.00">string</text>
</a>
</g>
</g>
<!-- Node1&#45;&gt;Node7 -->
<g id="edge12_Node000001_Node000007" class="edge">
<title>Node1&#45;&gt;Node7</title>
<g id="a_edge12_Node000001_Node000007"><a xlink:title=" ">
<path fill="none" stroke="#63b8ff" d="M335.69,-109.66C351.47,-91.54 387.7,-49.91 407.84,-26.77"/>
<polygon fill="#63b8ff" stroke="#63b8ff" points="410.54,-29 414.46,-19.16 405.26,-24.4 410.54,-29"/>
</a>
</g>
</g>
<!-- Node9 -->
<g id="Node000009" class="node">
<title>Node9</title>
<g id="a_Node000009"><a xlink:href="_exception_8h.html" target="_top" xlink:title=" ">
<polygon fill="white" stroke="#666666" points="469,-74 395,-74 395,-55 469,-55 469,-74"/>
<text text-anchor="middle" x="432" y="-62" font-family="Helvetica,sans-Serif" font-size="10.00">Exception.h</text>
</a>
</g>
</g>
<!-- Node1&#45;&gt;Node9 -->
<g id="edge8_Node000001_Node000009" class="edge">
<title>Node1&#45;&gt;Node9</title>
<g id="a_edge8_Node000001_Node000009"><a xlink:title=" ">
<path fill="none" stroke="#63b8ff" d="M344.71,-109.98C361.21,-101.57 386.7,-88.59 405.88,-78.81"/>
<polygon fill="#63b8ff" stroke="#63b8ff" points="407.67,-81.83 414.99,-74.17 404.49,-75.59 407.67,-81.83"/>
</a>
</g>
</g>
<!-- Node3 -->
<g id="Node000003" class="node">
<title>Node3</title>
<g id="a_Node000003"><a xlink:title=" ">
<polygon fill="#e0e0e0" stroke="#999999" points="187.5,-19 68.5,-19 68.5,0 187.5,0 187.5,-19"/>
<text text-anchor="middle" x="128" y="-7" font-family="Helvetica,sans-Serif" font-size="10.00">boost/shared_ptr.hpp</text>
</a>
</g>
</g>
<!-- Node2&#45;&gt;Node3 -->
<g id="edge2_Node000002_Node000003" class="edge">
<title>Node2&#45;&gt;Node3</title>
<g id="a_edge2_Node000002_Node000003"><a xlink:title=" ">
<path fill="none" stroke="#63b8ff" d="M263.13,-54.98C236.22,-46.13 193.88,-32.19 163.77,-22.28"/>
<polygon fill="#63b8ff" stroke="#63b8ff" points="164.66,-18.88 154.07,-19.08 162.47,-25.53 164.66,-18.88"/>
</a>
</g>
</g>
<!-- Node2&#45;&gt;Node4 -->
<g id="edge3_Node000002_Node000004" class="edge">
<title>Node2&#45;&gt;Node4</title>
<g id="a_edge3_Node000002_Node000004"><a xlink:title=" ">
<path fill="none" stroke="#63b8ff" d="M240.83,-54.96C196.37,-46.9 128.29,-34.13 60.25,-19.18"/>
<polygon fill="#63b8ff" stroke="#63b8ff" points="60.74,-15.71 50.22,-16.96 59.22,-22.54 60.74,-15.71"/>
</a>
</g>
</g>
<!-- Node5 -->
<g id="Node000005" class="node">
<title>Node5</title>
<g id="a_Node000005"><a xlink:title=" ">
<polygon fill="#e0e0e0" stroke="#999999" points="266,-19 206,-19 206,0 266,0 266,-19"/>
<text text-anchor="middle" x="236" y="-7" font-family="Helvetica,sans-Serif" font-size="10.00">iostream</text>
</a>
</g>
</g>
<!-- Node2&#45;&gt;Node5 -->
<g id="edge4_Node000002_Node000005" class="edge">
<title>Node2&#45;&gt;Node5</title>
<g id="a_edge4_Node000002_Node000005"><a xlink:title=" ">
<path fill="none" stroke="#63b8ff" d="M280.25,-54.75C272.53,-47.03 261.1,-35.6 251.78,-26.28"/>
<polygon fill="#63b8ff" stroke="#63b8ff" points="254.14,-23.69 244.59,-19.09 249.19,-28.64 254.14,-23.69"/>
</a>
</g>
</g>
<!-- Node6 -->
<g id="Node000006" class="node">
<title>Node6</title>
<g id="a_Node000006"><a xlink:title=" ">
<polygon fill="#e0e0e0" stroke="#999999" points="316,-19 284,-19 284,0 316,0 316,-19"/>
<text text-anchor="middle" x="300" y="-7" font-family="Helvetica,sans-Serif" font-size="10.00">list</text>
</a>
</g>
</g>
<!-- Node2&#45;&gt;Node6 -->
<g id="edge5_Node000002_Node000006" class="edge">
<title>Node2&#45;&gt;Node6</title>
<g id="a_edge5_Node000002_Node000006"><a xlink:title=" ">
<path fill="none" stroke="#63b8ff" d="M290.82,-54.75C292.26,-47.8 294.32,-37.85 296.13,-29.13"/>
<polygon fill="#63b8ff" stroke="#63b8ff" points="299.61,-29.59 298.22,-19.09 292.76,-28.17 299.61,-29.59"/>
</a>
</g>
</g>
<!-- Node2&#45;&gt;Node7 -->
<g id="edge6_Node000002_Node000007" class="edge">
<title>Node2&#45;&gt;Node7</title>
<g id="a_edge6_Node000002_Node000007"><a xlink:title=" ">
<path fill="none" stroke="#63b8ff" d="M310.37,-54.98C332.15,-46.3 366.16,-32.75 390.92,-22.88"/>
<polygon fill="#63b8ff" stroke="#63b8ff" points="392.25,-26.12 400.24,-19.17 389.66,-19.62 392.25,-26.12"/>
</a>
</g>
</g>
<!-- Node8 -->
<g id="Node000008" class="node">
<title>Node8</title>
<g id="a_Node000008"><a xlink:title=" ">
<polygon fill="#e0e0e0" stroke="#999999" points="381.5,-19 334.5,-19 334.5,0 381.5,0 381.5,-19"/>
<text text-anchor="middle" x="358" y="-7" font-family="Helvetica,sans-Serif" font-size="10.00">vector</text>
</a>
</g>
</g>
<!-- Node2&#45;&gt;Node8 -->
<g id="edge7_Node000002_Node000008" class="edge">
<title>Node2&#45;&gt;Node8</title>
<g id="a_edge7_Node000002_Node000008"><a xlink:title=" ">
<path fill="none" stroke="#63b8ff" d="M300.09,-54.98C310.49,-47 326.26,-34.88 338.72,-25.31"/>
<polygon fill="#63b8ff" stroke="#63b8ff" points="340.91,-28.04 346.71,-19.17 336.65,-22.49 340.91,-28.04"/>
</a>
</g>
</g>
<!-- Node9&#45;&gt;Node7 -->
<g id="edge10_Node000009_Node000007" class="edge">
<title>Node9&#45;&gt;Node7</title>
<g id="a_edge10_Node000009_Node000007"><a xlink:title=" ">
<path fill="none" stroke="#63b8ff" d="M430.35,-54.75C429.04,-47.8 427.16,-37.85 425.52,-29.13"/>
<polygon fill="#63b8ff" stroke="#63b8ff" points="428.91,-28.27 423.62,-19.09 422.04,-29.56 428.91,-28.27"/>
</a>
</g>
</g>
<!-- Node10 -->
<g id="Node000010" class="node">
<title>Node10</title>
<g id="a_Node000010"><a xlink:title=" ">
<polygon fill="#e0e0e0" stroke="#999999" points="527.5,-19 462.5,-19 462.5,0 527.5,0 527.5,-19"/>
<text text-anchor="middle" x="495" y="-7" font-family="Helvetica,sans-Serif" font-size="10.00">exception</text>
</a>
</g>
</g>
<!-- Node9&#45;&gt;Node10 -->
<g id="edge9_Node000009_Node000010" class="edge">
<title>Node9&#45;&gt;Node10</title>
<g id="a_edge9_Node000009_Node000010"><a xlink:title=" ">
<path fill="none" stroke="#63b8ff" d="M442.12,-54.98C451.44,-47.15 465.47,-35.34 476.74,-25.86"/>
<polygon fill="#63b8ff" stroke="#63b8ff" points="479.29,-28.29 484.69,-19.17 474.79,-22.93 479.29,-28.29"/>
</a>
</g>
</g>
</g>
</svg>
