<?xml version="1.0" encoding="UTF-8" standalone="no"?>
<!DOCTYPE svg PUBLIC "-//W3C//DTD SVG 1.1//EN"
 "http://www.w3.org/Graphics/SVG/1.1/DTD/svg11.dtd">
<!-- Generated by graphviz version 2.43.0 (0)
 -->
<!-- Title: tests/RebotDummyServer/include/DummyProtocol0.h Pages: 1 -->
<svg width="399pt" height="170pt"
 viewBox="0.00 0.00 399.00 170.00" xmlns="http://www.w3.org/2000/svg" xmlns:xlink="http://www.w3.org/1999/xlink">

<svg id="main" version="1.1" xmlns="http://www.w3.org/2000/svg" xmlns:xlink="http://www.w3.org/1999/xlink" xml:space="preserve" onload="init(evt)">
<style type="text/css"><![CDATA[
.node, .edge {opacity: 0.7;}
.node.selected, .edge.selected {opacity: 1;}
.edge:hover path { stroke: red; }
.edge:hover polygon { stroke: red; fill: red; }
]]></style>
<script type="application/ecmascript" xlink:href="svg.min.js"/>
<svg id="graph" class="graph">
<g id="graph0" class="graph" transform="scale(1 1) rotate(0) translate(4 166)">
<title>tests/RebotDummyServer/include/DummyProtocol0.h</title>
<!-- Node1 -->
<g id="Node000001" class="node">
<title>Node1</title>
<g id="a_Node000001"><a xlink:title=" ">
<polygon fill="#999999" stroke="#666666" points="312.5,-162 160.5,-162 160.5,-132 312.5,-132 312.5,-162"/>
<text text-anchor="start" x="168.5" y="-150" font-family="Helvetica,sans-Serif" font-size="10.00">tests/RebotDummyServer</text>
<text text-anchor="middle" x="236.5" y="-139" font-family="Helvetica,sans-Serif" font-size="10.00">/include/DummyProtocol0.h</text>
</a>
</g>
</g>
<!-- Node2 -->
<g id="Node000002" class="node">
<title>Node2</title>
<g id="a_Node000002"><a xlink:href="_dummy_protocol1_8h.html" target="_top" xlink:title=" ">
<polygon fill="white" stroke="#666666" points="229.5,-96 77.5,-96 77.5,-66 229.5,-66 229.5,-96"/>
<text text-anchor="start" x="85.5" y="-84" font-family="Helvetica,sans-Serif" font-size="10.00">tests/RebotDummyServer</text>
<text text-anchor="middle" x="153.5" y="-73" font-family="Helvetica,sans-Serif" font-size="10.00">/include/DummyProtocol1.h</text>
</a>
</g>
</g>
<!-- Node1&#45;&gt;Node2 -->
<g id="edge1_Node000001_Node000002" class="edge">
<title>Node1&#45;&gt;Node2</title>
<g id="a_edge1_Node000001_Node000002"><a xlink:title=" ">
<path fill="none" stroke="#63b8ff" d="M209.89,-125.48C197.48,-115.91 183.03,-104.77 171.87,-96.16"/>
<polygon fill="#63b8ff" stroke="#63b8ff" points="208.02,-128.46 218.08,-131.8 212.3,-122.92 208.02,-128.46"/>
</a>
</g>
</g>
<!-- Node5 -->
<g id="Node000005" class="node">
<title>Node5</title>
<g id="a_Node000005"><a xlink:href="_dummy_protocol0_8cc.html" target="_top" xlink:title=" ">
<polygon fill="white" stroke="#666666" points="391,-96 248,-96 248,-66 391,-66 391,-96"/>
<text text-anchor="start" x="256" y="-84" font-family="Helvetica,sans-Serif" font-size="10.00">tests/RebotDummyServer</text>
<text text-anchor="middle" x="319.5" y="-73" font-family="Helvetica,sans-Serif" font-size="10.00">/src/DummyProtocol0.cc</text>
</a>
</g>
</g>
<!-- Node1&#45;&gt;Node5 -->
<g id="edge4_Node000001_Node000005" class="edge">
<title>Node1&#45;&gt;Node5</title>
<g id="a_edge4_Node000001_Node000005"><a xlink:title=" ">
<path fill="none" stroke="#63b8ff" d="M263.11,-125.48C275.52,-115.91 289.97,-104.77 301.13,-96.16"/>
<polygon fill="#63b8ff" stroke="#63b8ff" points="260.7,-122.92 254.92,-131.8 264.98,-128.46 260.7,-122.92"/>
</a>
</g>
</g>
<!-- Node3 -->
<g id="Node000003" class="node">
<title>Node3</title>
<g id="a_Node000003"><a xlink:href="_dummy_protocol1_8cc.html" target="_top" xlink:title=" ">
<polygon fill="white" stroke="#666666" points="143,-30 0,-30 0,0 143,0 143,-30"/>
<text text-anchor="start" x="8" y="-18" font-family="Helvetica,sans-Serif" font-size="10.00">tests/RebotDummyServer</text>
<text text-anchor="middle" x="71.5" y="-7" font-family="Helvetica,sans-Serif" font-size="10.00">/src/DummyProtocol1.cc</text>
</a>
</g>
</g>
<!-- Node2&#45;&gt;Node3 -->
<g id="edge2_Node000002_Node000003" class="edge">
<title>Node2&#45;&gt;Node3</title>
<g id="a_edge2_Node000002_Node000003"><a xlink:title=" ">
<path fill="none" stroke="#63b8ff" d="M127.21,-59.48C114.95,-49.91 100.68,-38.77 89.65,-30.16"/>
<polygon fill="#63b8ff" stroke="#63b8ff" points="125.26,-62.4 135.3,-65.8 129.57,-56.88 125.26,-62.4"/>
</a>
</g>
</g>
<!-- Node4 -->
<g id="Node000004" class="node">
<title>Node4</title>
<g id="a_Node000004"><a xlink:href="_rebot_dummy_server_8cc.html" target="_top" xlink:title=" ">
<polygon fill="white" stroke="#666666" points="310,-30 161,-30 161,0 310,0 310,-30"/>
<text text-anchor="start" x="169" y="-18" font-family="Helvetica,sans-Serif" font-size="10.00">tests/RebotDummyServer</text>
<text text-anchor="middle" x="235.5" y="-7" font-family="Helvetica,sans-Serif" font-size="10.00">/src/RebotDummyServer.cc</text>
</a>
</g>
</g>
<!-- Node2&#45;&gt;Node4 -->
<g id="edge3_Node000002_Node000004" class="edge">
<title>Node2&#45;&gt;Node4</title>
<g id="a_edge3_Node000002_Node000004"><a xlink:title=" ">
<path fill="none" stroke="#63b8ff" d="M179.79,-59.48C192.05,-49.91 206.32,-38.77 217.35,-30.16"/>
<polygon fill="#63b8ff" stroke="#63b8ff" points="177.43,-56.88 171.7,-65.8 181.74,-62.4 177.43,-56.88"/>
</a>
</g>
</g>
</g>
</svg>
</svg>

<style type='text/css'>
<![CDATA[
[data-mouse-over-selected='false'] { opacity: 0.7; }
[data-mouse-over-selected='true']  { opacity: 1.0; }
]]>
</style>
<script type="application/ecmascript"><![CDATA[
document.addEventListener('DOMContentLoaded', (event) => {
  highlightEdges();
  highlightAdjacentNodes();
});
]]></script>
</svg>
