<?xml version="1.0" encoding="UTF-8" standalone="no"?>
<!DOCTYPE svg PUBLIC "-//W3C//DTD SVG 1.1//EN"
 "http://www.w3.org/Graphics/SVG/1.1/DTD/svg11.dtd">
<!-- Generated by graphviz version 2.43.0 (0)
 -->
<!-- Title: /scratch/dragon/sources/ChimeraTK&#45;DeviceAccess/backends/Rebot/include/RebotBackend.h Pages: 1 -->
<svg width="738pt" height="148pt"
 viewBox="0.00 0.00 738.00 148.00" xmlns="http://www.w3.org/2000/svg" xmlns:xlink="http://www.w3.org/1999/xlink">
<g id="graph0" class="graph" transform="scale(1 1) rotate(0) translate(4 144)">
<title>/scratch/dragon/sources/ChimeraTK&#45;DeviceAccess/backends/Rebot/include/RebotBackend.h</title>
<!-- Node1 -->
<g id="Node000001" class="node">
<title>Node1</title>
<g id="a_Node000001"><a xlink:title=" ">
<polygon fill="#999999" stroke="#666666" points="446.5,-140 303.5,-140 303.5,-88 446.5,-88 446.5,-140"/>
<text text-anchor="start" x="311.5" y="-128" font-family="Helvetica,sans-Serif" font-size="10.00">/scratch/dragon/sources</text>
<text text-anchor="start" x="311.5" y="-117" font-family="Helvetica,sans-Serif" font-size="10.00">/ChimeraTK&#45;DeviceAccess</text>
<text text-anchor="start" x="311.5" y="-106" font-family="Helvetica,sans-Serif" font-size="10.00">/backends/Rebot/include</text>
<text text-anchor="middle" x="375" y="-95" font-family="Helvetica,sans-Serif" font-size="10.00">/RebotBackend.h</text>
</a>
</g>
</g>
<!-- Node2 -->
<g id="Node000002" class="node">
<title>Node2</title>
<g id="a_Node000002"><a xlink:href="_rebot_backend_8cc.html" target="_top" xlink:title=" ">
<polygon fill="white" stroke="#666666" points="200,-46.5 0,-46.5 0,-5.5 200,-5.5 200,-46.5"/>
<text text-anchor="start" x="8" y="-34.5" font-family="Helvetica,sans-Serif" font-size="10.00">/scratch/dragon/sources</text>
<text text-anchor="start" x="8" y="-23.5" font-family="Helvetica,sans-Serif" font-size="10.00">/ChimeraTK&#45;DeviceAccess</text>
<text text-anchor="middle" x="100" y="-12.5" font-family="Helvetica,sans-Serif" font-size="10.00">/backends/Rebot/src/RebotBackend.cc</text>
</a>
</g>
</g>
<!-- Node1&#45;&gt;Node2 -->
<g id="edge1_Node000001_Node000002" class="edge">
<title>Node1&#45;&gt;Node2</title>
<g id="a_edge1_Node000001_Node000002"><a xlink:title=" ">
<path fill="none" stroke="#63b8ff" d="M293.84,-87.62C251.95,-74.52 201.63,-58.78 162.75,-46.62"/>
<polygon fill="#63b8ff" stroke="#63b8ff" points="292.88,-90.98 303.46,-90.63 294.97,-84.3 292.88,-90.98"/>
</a>
</g>
</g>
<!-- Node3 -->
<g id="Node000003" class="node">
<title>Node3</title>
<g id="a_Node000003"><a xlink:href="_backend_factory_8cc.html" target="_top" xlink:title=" ">
<polygon fill="white" stroke="#666666" points="361.5,-46.5 218.5,-46.5 218.5,-5.5 361.5,-5.5 361.5,-46.5"/>
<text text-anchor="start" x="226.5" y="-34.5" font-family="Helvetica,sans-Serif" font-size="10.00">/scratch/dragon/sources</text>
<text text-anchor="start" x="226.5" y="-23.5" font-family="Helvetica,sans-Serif" font-size="10.00">/ChimeraTK&#45;DeviceAccess</text>
<text text-anchor="middle" x="290" y="-12.5" font-family="Helvetica,sans-Serif" font-size="10.00">/src/BackendFactory.cc</text>
</a>
</g>
</g>
<!-- Node1&#45;&gt;Node3 -->
<g id="edge2_Node000001_Node000003" class="edge">
<title>Node1&#45;&gt;Node3</title>
<g id="a_edge2_Node000001_Node000003"><a xlink:title=" ">
<path fill="none" stroke="#63b8ff" d="M342.77,-80.39C331.56,-69.05 319.33,-56.68 309.47,-46.7"/>
<polygon fill="#63b8ff" stroke="#63b8ff" points="340.44,-83.01 349.96,-87.66 345.42,-78.09 340.44,-83.01"/>
</a>
</g>
</g>
<!-- Node4 -->
<g id="Node000004" class="node">
<title>Node4</title>
<g id="a_Node000004"><a xlink:href="test_rebot_backend_8cpp.html" target="_top" xlink:title=" ">
<polygon fill="white" stroke="#666666" points="542,-52 380,-52 380,0 542,0 542,-52"/>
<text text-anchor="start" x="388" y="-40" font-family="Helvetica,sans-Serif" font-size="10.00">/scratch/dragon/sources</text>
<text text-anchor="start" x="388" y="-29" font-family="Helvetica,sans-Serif" font-size="10.00">/ChimeraTK&#45;DeviceAccess</text>
<text text-anchor="start" x="388" y="-18" font-family="Helvetica,sans-Serif" font-size="10.00">/tests/unitTestsNotUnderCtest</text>
<text text-anchor="middle" x="461" y="-7" font-family="Helvetica,sans-Serif" font-size="10.00">/testRebotBackend.cpp</text>
</a>
</g>
</g>
<!-- Node1&#45;&gt;Node4 -->
<g id="edge3_Node000001_Node000004" class="edge">
<title>Node1&#45;&gt;Node4</title>
<g id="a_edge3_Node000001_Node000004"><a xlink:title=" ">
<path fill="none" stroke="#63b8ff" d="M407.65,-80.35C416.99,-71.01 427.02,-60.98 435.84,-52.16"/>
<polygon fill="#63b8ff" stroke="#63b8ff" points="404.93,-78.12 400.34,-87.66 409.88,-83.07 404.93,-78.12"/>
</a>
</g>
</g>
<!-- Node5 -->
<g id="Node000005" class="node">
<title>Node5</title>
<g id="a_Node000005"><a xlink:href="test_rebot_backend_creation_8cpp.html" target="_top" xlink:title=" ">
<polygon fill="white" stroke="#666666" points="730,-52 560,-52 560,0 730,0 730,-52"/>
<text text-anchor="start" x="568" y="-40" font-family="Helvetica,sans-Serif" font-size="10.00">/scratch/dragon/sources</text>
<text text-anchor="start" x="568" y="-29" font-family="Helvetica,sans-Serif" font-size="10.00">/ChimeraTK&#45;DeviceAccess</text>
<text text-anchor="start" x="568" y="-18" font-family="Helvetica,sans-Serif" font-size="10.00">/tests/unitTestsNotUnderCtest</text>
<text text-anchor="middle" x="645" y="-7" font-family="Helvetica,sans-Serif" font-size="10.00">/testRebotBackendCreation.cpp</text>
</a>
</g>
</g>
<!-- Node1&#45;&gt;Node5 -->
<g id="edge4_Node000001_Node000005" class="edge">
<title>Node1&#45;&gt;Node5</title>
<g id="a_edge4_Node000001_Node000005"><a xlink:title=" ">
<path fill="none" stroke="#63b8ff" d="M456.32,-87.1C491.2,-75.99 531.79,-63.06 566.37,-52.05"/>
<polygon fill="#63b8ff" stroke="#63b8ff" points="455.11,-83.81 446.65,-90.18 457.24,-90.48 455.11,-83.81"/>
</a>
</g>
</g>
</g>
</svg>
