<?xml version="1.0" encoding="UTF-8" standalone="no"?>
<!DOCTYPE svg PUBLIC "-//W3C//DTD SVG 1.1//EN"
 "http://www.w3.org/Graphics/SVG/1.1/DTD/svg11.dtd">
<!-- Generated by graphviz version 2.43.0 (0)
 -->
<!-- Title: ChimeraTK::TransferGroup::isReadOnly Pages: 1 -->
<svg width="332pt" height="64pt"
 viewBox="0.00 0.00 332.00 64.00" xmlns="http://www.w3.org/2000/svg" xmlns:xlink="http://www.w3.org/1999/xlink">
<g id="graph0" class="graph" transform="scale(1 1) rotate(0) translate(4 60)">
<title>ChimeraTK::TransferGroup::isReadOnly</title>
<!-- Node1 -->
<g id="Node000001" class="node">
<title>Node1</title>
<g id="a_Node000001"><a xlink:title="Check if transfer group is read&#45;only.">
<polygon fill="#999999" stroke="#666666" points="324,-42.5 179,-42.5 179,-12.5 324,-12.5 324,-42.5"/>
<text text-anchor="start" x="187" y="-30.5" font-family="Helvetica,sans-Serif" font-size="10.00">ChimeraTK::TransferGroup</text>
<text text-anchor="middle" x="251.5" y="-19.5" font-family="Helvetica,sans-Serif" font-size="10.00">::isReadOnly</text>
</a>
</g>
</g>
<!-- Node2 -->
<g id="Node000002" class="node">
<title>Node2</title>
<g id="a_Node000002"><a xlink:href="test_transfer_group_8cpp.html#a3647e723618f425f6e5b90b242bee287" target="_top" xlink:title="Test readOnly groups.">
<polygon fill="white" stroke="#666666" points="143,-56 0,-56 0,-37 143,-37 143,-56"/>
<text text-anchor="middle" x="71.5" y="-44" font-family="Helvetica,sans-Serif" font-size="10.00">BOOST_AUTO_TEST_CASE</text>
</a>
</g>
</g>
<!-- Node1&#45;&gt;Node2 -->
<g id="edge1_Node000001_Node000002" class="edge">
<title>Node1&#45;&gt;Node2</title>
<g id="a_edge1_Node000001_Node000002"><a xlink:title=" ">
<path fill="none" stroke="#63b8ff" d="M168.84,-36.22C160.25,-37.13 151.57,-38.06 143.11,-38.96"/>
<polygon fill="#63b8ff" stroke="#63b8ff" points="169.3,-39.69 178.87,-35.15 168.55,-32.73 169.3,-39.69"/>
</a>
</g>
</g>
<!-- Node3 -->
<g id="Node000003" class="node">
<title>Node3</title>
<g id="a_Node000003"><a xlink:href="test_transfer_group_8cpp.html#aac8459236a102c9be77962f3ccb606cd" target="_top" xlink:title=" ">
<polygon fill="white" stroke="#666666" points="143,-19 0,-19 0,0 143,0 143,-19"/>
<text text-anchor="middle" x="71.5" y="-7" font-family="Helvetica,sans-Serif" font-size="10.00">BOOST_AUTO_TEST_CASE</text>
</a>
</g>
</g>
<!-- Node1&#45;&gt;Node3 -->
<g id="edge2_Node000001_Node000003" class="edge">
<title>Node1&#45;&gt;Node3</title>
<g id="a_edge2_Node000001_Node000003"><a xlink:title=" ">
<path fill="none" stroke="#63b8ff" d="M168.84,-19.24C160.25,-18.37 151.57,-17.5 143.11,-16.64"/>
<polygon fill="#63b8ff" stroke="#63b8ff" points="168.57,-22.73 178.87,-20.26 169.27,-15.77 168.57,-22.73"/>
</a>
</g>
</g>
</g>
</svg>
