<?xml version="1.0" encoding="UTF-8" standalone="no"?>
<!DOCTYPE svg PUBLIC "-//W3C//DTD SVG 1.1//EN"
 "http://www.w3.org/Graphics/SVG/1.1/DTD/svg11.dtd">
<!-- Generated by graphviz version 2.43.0 (0)
 -->
<!-- Title: ChimeraTK::LogicalNameMapParser::parseElement Pages: 1 -->
<svg width="1058pt" height="137pt"
 viewBox="0.00 0.00 1058.00 137.00" xmlns="http://www.w3.org/2000/svg" xmlns:xlink="http://www.w3.org/1999/xlink">
<g id="graph0" class="graph" transform="scale(1 1) rotate(0) translate(4 133)">
<title>ChimeraTK::LogicalNameMapParser::parseElement</title>
<polygon fill="white" stroke="transparent" points="-4,4 -4,-133 1054,-133 1054,4 -4,4"/>
<!-- Node1 -->
<g id="node1" class="node">
<title>Node1</title>
<g id="a_node1"><a xlink:title="called inside parseFile() to parse an XML element and its sub&#45;elements recursively">
<polygon fill="#bfbfbf" stroke="black" points="889,-49.5 889,-79.5 1050,-79.5 1050,-49.5 889,-49.5"/>
<text text-anchor="start" x="897" y="-67.5" font-family="Helvetica,sans-Serif" font-size="10.00">ChimeraTK::LogicalNameMap</text>
<text text-anchor="middle" x="969.5" y="-56.5" font-family="Helvetica,sans-Serif" font-size="10.00">Parser::parseElement</text>
</a>
</g>
</g>
<!-- Node2 -->
<g id="node2" class="node">
<title>Node2</title>
<g id="a_node2"><a xlink:href="class_chimera_t_k_1_1_logical_name_map_parser.html#a63e405294bc4a2b05069bf7168690cc0" target="_top" xlink:title="parse the given XML file">
<polygon fill="white" stroke="black" points="692,-49.5 692,-79.5 853,-79.5 853,-49.5 692,-49.5"/>
<text text-anchor="start" x="700" y="-67.5" font-family="Helvetica,sans-Serif" font-size="10.00">ChimeraTK::LogicalNameMap</text>
<text text-anchor="middle" x="772.5" y="-56.5" font-family="Helvetica,sans-Serif" font-size="10.00">Parser::parseFile</text>
</a>
</g>
</g>
<!-- Node1&#45;&gt;Node2 -->
<g id="edge1" class="edge">
<title>Node1&#45;&gt;Node2</title>
<path fill="none" stroke="midnightblue" d="M878.88,-64.5C870.3,-64.5 861.64,-64.5 853.16,-64.5"/>
<polygon fill="midnightblue" stroke="midnightblue" points="878.9,-68 888.9,-64.5 878.9,-61 878.9,-68"/>
</g>
<!-- Node3 -->
<g id="node3" class="node">
<title>Node3</title>
<g id="a_node3"><a xlink:href="class_chimera_t_k_1_1_logical_name_mapping_backend.html#a6b020ac5ae848f98a0220c858d7808e7" target="_top" xlink:title="parse the logical map file, if not yet done">
<polygon fill="white" stroke="black" points="474,-49.5 474,-79.5 656,-79.5 656,-49.5 474,-49.5"/>
<text text-anchor="start" x="482" y="-67.5" font-family="Helvetica,sans-Serif" font-size="10.00">ChimeraTK::LogicalNameMapping</text>
<text text-anchor="middle" x="565" y="-56.5" font-family="Helvetica,sans-Serif" font-size="10.00">Backend::parse</text>
</a>
</g>
</g>
<!-- Node2&#45;&gt;Node3 -->
<g id="edge2" class="edge">
<title>Node2&#45;&gt;Node3</title>
<path fill="none" stroke="midnightblue" d="M681.59,-64.5C673.19,-64.5 664.68,-64.5 656.29,-64.5"/>
<polygon fill="midnightblue" stroke="midnightblue" points="681.75,-68 691.75,-64.5 681.75,-61 681.75,-68"/>
</g>
<!-- Node4 -->
<g id="node4" class="node">
<title>Node4</title>
<g id="a_node4"><a xlink:href="class_chimera_t_k_1_1_logical_name_mapping_backend.html#a98f6b271e1d6f1ec80f325e7b59af804" target="_top" xlink:title=" ">
<polygon fill="white" stroke="black" points="247,-98.5 247,-128.5 438,-128.5 438,-98.5 247,-98.5"/>
<text text-anchor="start" x="255" y="-116.5" font-family="Helvetica,sans-Serif" font-size="10.00">ChimeraTK::LogicalNameMapping</text>
<text text-anchor="middle" x="342.5" y="-105.5" font-family="Helvetica,sans-Serif" font-size="10.00">Backend::getRegisterAccessor_impl</text>
</a>
</g>
</g>
<!-- Node3&#45;&gt;Node4 -->
<g id="edge3" class="edge">
<title>Node3&#45;&gt;Node4</title>
<path fill="none" stroke="midnightblue" d="M486.34,-81.76C461.77,-87.22 434.83,-93.21 411.03,-98.49"/>
<polygon fill="midnightblue" stroke="midnightblue" points="487.34,-85.12 496.34,-79.53 485.82,-78.29 487.34,-85.12"/>
</g>
<!-- Node6 -->
<g id="node6" class="node">
<title>Node6</title>
<g id="a_node6"><a xlink:href="class_chimera_t_k_1_1_logical_name_mapping_backend.html#a72f1bf37a09e7c088658d00ed8b83ac8" target="_top" xlink:title="Return the register catalogue with detailed information on all registers.">
<polygon fill="white" stroke="black" points="251.5,-49.5 251.5,-79.5 433.5,-79.5 433.5,-49.5 251.5,-49.5"/>
<text text-anchor="start" x="259.5" y="-67.5" font-family="Helvetica,sans-Serif" font-size="10.00">ChimeraTK::LogicalNameMapping</text>
<text text-anchor="middle" x="342.5" y="-56.5" font-family="Helvetica,sans-Serif" font-size="10.00">Backend::getRegisterCatalogue</text>
</a>
</g>
</g>
<!-- Node3&#45;&gt;Node6 -->
<g id="edge5" class="edge">
<title>Node3&#45;&gt;Node6</title>
<path fill="none" stroke="midnightblue" d="M463.93,-64.5C453.81,-64.5 443.58,-64.5 433.57,-64.5"/>
<polygon fill="midnightblue" stroke="midnightblue" points="464,-68 474,-64.5 464,-61 464,-68"/>
</g>
<!-- Node7 -->
<g id="node7" class="node">
<title>Node7</title>
<g id="a_node7"><a xlink:href="class_chimera_t_k_1_1_logical_name_mapping_backend.html#aa62cb97e2a5de85ae6151410b78f0ec6" target="_top" xlink:title="Open the device.">
<polygon fill="white" stroke="black" points="251.5,-0.5 251.5,-30.5 433.5,-30.5 433.5,-0.5 251.5,-0.5"/>
<text text-anchor="start" x="259.5" y="-18.5" font-family="Helvetica,sans-Serif" font-size="10.00">ChimeraTK::LogicalNameMapping</text>
<text text-anchor="middle" x="342.5" y="-7.5" font-family="Helvetica,sans-Serif" font-size="10.00">Backend::open</text>
</a>
</g>
</g>
<!-- Node3&#45;&gt;Node7 -->
<g id="edge6" class="edge">
<title>Node3&#45;&gt;Node7</title>
<path fill="none" stroke="midnightblue" d="M486.34,-47.24C461.77,-41.78 434.83,-35.79 411.03,-30.51"/>
<polygon fill="midnightblue" stroke="midnightblue" points="485.82,-50.71 496.34,-49.47 487.34,-43.88 485.82,-50.71"/>
</g>
<!-- Node5 -->
<g id="node5" class="node">
<title>Node5</title>
<g id="a_node5"><a xlink:href="class_chimera_t_k_1_1_logical_name_mapping_backend.html#a7d3c15281246ec70a9977004d4fb02c3" target="_top" xlink:title=" ">
<polygon fill="white" stroke="black" points="0,-98.5 0,-128.5 211,-128.5 211,-98.5 0,-98.5"/>
<text text-anchor="start" x="8" y="-116.5" font-family="Helvetica,sans-Serif" font-size="10.00">ChimeraTK::LogicalNameMapping</text>
<text text-anchor="middle" x="105.5" y="-105.5" font-family="Helvetica,sans-Serif" font-size="10.00">Backend::LogicalNameMappingBackend</text>
</a>
</g>
</g>
<!-- Node4&#45;&gt;Node5 -->
<g id="edge4" class="edge">
<title>Node4&#45;&gt;Node5</title>
<path fill="none" stroke="midnightblue" d="M236.69,-113.5C228.25,-113.5 219.71,-113.5 211.27,-113.5"/>
<polygon fill="midnightblue" stroke="midnightblue" points="236.93,-117 246.93,-113.5 236.93,-110 236.93,-117"/>
</g>
</g>
</svg>
