<?xml version="1.0" encoding="UTF-8" standalone="no"?>
<!DOCTYPE svg PUBLIC "-//W3C//DTD SVG 1.1//EN"
 "http://www.w3.org/Graphics/SVG/1.1/DTD/svg11.dtd">
<!-- Generated by graphviz version 2.43.0 (0)
 -->
<!-- Title: ChimeraTK::LogicalNameMappingBackend::open Pages: 1 -->
<!--zoomable 534 -->
<svg id="main" version="1.1" xmlns="http://www.w3.org/2000/svg" xmlns:xlink="http://www.w3.org/1999/xlink" xml:space="preserve" onload="init(evt)">
<style type="text/css"><![CDATA[
.edge:hover path { stroke: red; }
.edge:hover polygon { stroke: red; fill: red; }
]]></style>
<script type="text/javascript"><![CDATA[
var edges = document.getElementsByTagName('g');
if (edges && edges.length) {
  for (var i=0;i<edges.length;i++) {
    if (edges[i].id.substr(0,4)=='edge') {
      edges[i].setAttribute('class','edge');
    }
  }
}
]]></script>
        <defs>
                <circle id="rim" cx="0" cy="0" r="7"/>
                <circle id="rim2" cx="0" cy="0" r="3.5"/>
                <g id="zoomPlus">
                        <use xlink:href="#rim" fill="#404040">
                                <set attributeName="fill" to="#808080" begin="zoomplus.mouseover" end="zoomplus.mouseout"/>
                        </use>
                        <path d="M-4,0h8M0,-4v8" fill="none" stroke="white" stroke-width="1.5" pointer-events="none"/>
                </g>
                <g id="zoomMin">
                        <use xlink:href="#rim" fill="#404040">
                                <set attributeName="fill" to="#808080" begin="zoomminus.mouseover" end="zoomminus.mouseout"/>
                        </use>
                        <path d="M-4,0h8" fill="none" stroke="white" stroke-width="1.5" pointer-events="none"/>
                </g>
                <g id="dirArrow">
                        <path fill="none" stroke="white" stroke-width="1.5" d="M0,-3.0v7 M-2.5,-0.5L0,-3.0L2.5,-0.5"/>
                </g>
               <g id="resetDef">
                       <use xlink:href="#rim2" fill="#404040">
                               <set attributeName="fill" to="#808080" begin="reset.mouseover" end="reset.mouseout"/>
                       </use>
               </g>
        </defs>

<script type="text/javascript">
var viewWidth = 1780;
var viewHeight = 534;
var sectionId = 'dynsection-10';
</script>
<script xlink:href="svgpan.js"/>
<svg id="graph" class="graph">
<g id="viewport">
<title>ChimeraTK::LogicalNameMappingBackend::open</title>
<polygon fill="white" stroke="transparent" points="-4,4 -4,-529.5 1776,-529.5 1776,4 -4,4"/>
<!-- Node1 -->
<g id="node1" class="node">
<title>Node1</title>
<g id="a_node1"><a xlink:title="Open the device.">
<polygon fill="#bfbfbf" stroke="black" points="0,-334.5 0,-364.5 182,-364.5 182,-334.5 0,-334.5"/>
<text text-anchor="start" x="8" y="-352.5" font-family="Helvetica,sans-Serif" font-size="10.00">ChimeraTK::LogicalNameMapping</text>
<text text-anchor="middle" x="91" y="-341.5" font-family="Helvetica,sans-Serif" font-size="10.00">Backend::open</text>
</a>
</g>
</g>
<!-- Node2 -->
<g id="node2" class="node">
<title>Node2</title>
<g id="a_node2"><a xlink:href="namespace_chimera_t_k.html#a7f5acdbb978c1916af3a896bea089a7d" target="_top" xlink:title="Helper function for running code which uses some compile&#45;time type that is specified at runtime as a ...">
<polygon fill="white" stroke="black" points="873,-506 873,-525 1004,-525 1004,-506 873,-506"/>
<text text-anchor="middle" x="938.5" y="-513" font-family="Helvetica,sans-Serif" font-size="10.00">ChimeraTK::callForType</text>
</a>
</g>
</g>
<!-- Node1&#45;&gt;Node2 -->
<g id="edge1" class="edge">
<title>Node1&#45;&gt;Node2</title>
<path fill="none" stroke="midnightblue" d="M114.42,-364.69C139.01,-380.87 180.05,-406.44 218,-423.5 313.89,-466.6 339.49,-478.09 443,-496.5 590.05,-522.66 765.43,-522.05 862.84,-518.97"/>
<polygon fill="midnightblue" stroke="midnightblue" points="863.01,-522.46 872.89,-518.63 862.77,-515.47 863.01,-522.46"/>
</g>
<!-- Node4 -->
<g id="node4" class="node">
<title>Node4</title>
<g id="a_node4"><a xlink:href="class_chimera_t_k_1_1_device_backend_impl.html#a1e659ac1150dde815f3f89d0f6f18d38" target="_top" xlink:title="Return whether a device is working as intended, usually this means it is opened and does not have any...">
<polygon fill="white" stroke="black" points="236.5,-334.5 236.5,-364.5 388.5,-364.5 388.5,-334.5 236.5,-334.5"/>
<text text-anchor="start" x="244.5" y="-352.5" font-family="Helvetica,sans-Serif" font-size="10.00">ChimeraTK::DeviceBackend</text>
<text text-anchor="middle" x="312.5" y="-341.5" font-family="Helvetica,sans-Serif" font-size="10.00">Impl::isFunctional</text>
</a>
</g>
</g>
<!-- Node1&#45;&gt;Node4 -->
<g id="edge3" class="edge">
<title>Node1&#45;&gt;Node4</title>
<path fill="none" stroke="midnightblue" d="M182.23,-349.5C196.69,-349.5 211.62,-349.5 225.97,-349.5"/>
<polygon fill="midnightblue" stroke="midnightblue" points="226.3,-353 236.3,-349.5 226.3,-346 226.3,-353"/>
</g>
<!-- Node5 -->
<g id="node5" class="node">
<title>Node5</title>
<g id="a_node5"><a xlink:href="class_chimera_t_k_1_1_device.html#aedbf8aa7daab16909fe3df80c788d0bf" target="_top" xlink:title="Open a device by the given alias name from the DMAP file.">
<polygon fill="white" stroke="black" points="242.5,-296 242.5,-315 382.5,-315 382.5,-296 242.5,-296"/>
<text text-anchor="middle" x="312.5" y="-303" font-family="Helvetica,sans-Serif" font-size="10.00">ChimeraTK::Device::open</text>
</a>
</g>
</g>
<!-- Node1&#45;&gt;Node5 -->
<g id="edge4" class="edge">
<title>Node1&#45;&gt;Node5</title>
<path fill="none" stroke="midnightblue" d="M166.93,-334.48C195.45,-328.76 227.47,-322.34 254.12,-317"/>
<polygon fill="midnightblue" stroke="midnightblue" points="254.93,-320.41 264.05,-315.01 253.55,-313.55 254.93,-320.41"/>
</g>
<!-- Node6 -->
<g id="node6" class="node">
<title>Node6</title>
<g id="a_node6"><a xlink:href="class_chimera_t_k_1_1_logical_name_mapping_backend.html#a6b020ac5ae848f98a0220c858d7808e7" target="_top" xlink:title="parse the logical map file, if not yet done">
<polygon fill="white" stroke="black" points="221.5,-383.5 221.5,-413.5 403.5,-413.5 403.5,-383.5 221.5,-383.5"/>
<text text-anchor="start" x="229.5" y="-401.5" font-family="Helvetica,sans-Serif" font-size="10.00">ChimeraTK::LogicalNameMapping</text>
<text text-anchor="middle" x="312.5" y="-390.5" font-family="Helvetica,sans-Serif" font-size="10.00">Backend::parse</text>
</a>
</g>
</g>
<!-- Node1&#45;&gt;Node6 -->
<g id="edge5" class="edge">
<title>Node1&#45;&gt;Node6</title>
<path fill="none" stroke="midnightblue" d="M159.35,-364.53C183.05,-369.83 209.87,-375.81 234.32,-381.27"/>
<polygon fill="midnightblue" stroke="midnightblue" points="233.76,-384.73 244.28,-383.49 235.28,-377.9 233.76,-384.73"/>
</g>
<!-- Node33 -->
<g id="node33" class="node">
<title>Node33</title>
<g id="a_node33"><a xlink:href="class_chimera_t_k_1_1_device_backend_impl.html#a2b51615c34b21184c43de53a327d28f3" target="_top" xlink:title="Backends should call this function at the end of a (successful) open() call.">
<polygon fill="white" stroke="black" points="218,-185.5 218,-215.5 407,-215.5 407,-185.5 218,-185.5"/>
<text text-anchor="start" x="226" y="-203.5" font-family="Helvetica,sans-Serif" font-size="10.00">ChimeraTK::DeviceBackend</text>
<text text-anchor="middle" x="312.5" y="-192.5" font-family="Helvetica,sans-Serif" font-size="10.00">Impl::setOpenedAndClearException</text>
</a>
</g>
</g>
<!-- Node1&#45;&gt;Node33 -->
<g id="edge42" class="edge">
<title>Node1&#45;&gt;Node33</title>
<path fill="none" stroke="midnightblue" d="M114.25,-334.39C153.7,-307.62 235.92,-251.81 280.74,-221.38"/>
<polygon fill="midnightblue" stroke="midnightblue" points="282.88,-224.16 289.19,-215.65 278.95,-218.37 282.88,-224.16"/>
</g>
<!-- Node3 -->
<g id="node3" class="node">
<title>Node3</title>
<g id="a_node3"><a xlink:href="namespace_chimera_t_k.html#ae7a87d6ef5da36852a971cab2ac6eddc" target="_top" xlink:title="Variant of boost::fusion::for_each() to iterate a boost::fusion::map, which accepts a lambda instead ...">
<polygon fill="white" stroke="black" points="1071.5,-506 1071.5,-525 1190.5,-525 1190.5,-506 1071.5,-506"/>
<text text-anchor="middle" x="1131" y="-513" font-family="Helvetica,sans-Serif" font-size="10.00">ChimeraTK::for_each</text>
</a>
</g>
</g>
<!-- Node2&#45;&gt;Node3 -->
<g id="edge2" class="edge">
<title>Node2&#45;&gt;Node3</title>
<path fill="none" stroke="midnightblue" d="M1004.26,-515.5C1022.64,-515.5 1042.72,-515.5 1061.33,-515.5"/>
<polygon fill="midnightblue" stroke="midnightblue" points="1061.5,-519 1071.5,-515.5 1061.5,-512 1061.5,-519"/>
</g>
<!-- Node7 -->
<g id="node7" class="node">
<title>Node7</title>
<g id="a_node7"><a xlink:href="class_chimera_t_k_1_1_backend_factory.html#ad2017075822ef3e7c59224d5f17b3f52" target="_top" xlink:title="Create a new backend and return the instance as a shared pointer.">
<polygon fill="white" stroke="black" points="457.5,-148.5 457.5,-178.5 610.5,-178.5 610.5,-148.5 457.5,-148.5"/>
<text text-anchor="start" x="465.5" y="-166.5" font-family="Helvetica,sans-Serif" font-size="10.00">ChimeraTK::BackendFactory</text>
<text text-anchor="middle" x="534" y="-155.5" font-family="Helvetica,sans-Serif" font-size="10.00">::createBackend</text>
</a>
</g>
</g>
<!-- Node6&#45;&gt;Node7 -->
<g id="edge6" class="edge">
<title>Node6&#45;&gt;Node7</title>
<path fill="none" stroke="midnightblue" d="M392.19,-383.35C397.44,-380.84 402.44,-377.91 407,-374.5 472.02,-325.9 509.99,-233.01 525.2,-188.49"/>
<polygon fill="midnightblue" stroke="midnightblue" points="528.6,-189.36 528.42,-178.76 521.96,-187.16 528.6,-189.36"/>
</g>
<!-- Node26 -->
<g id="node26" class="node">
<title>Node26</title>
<g id="a_node26"><a xlink:href="class_chimera_t_k_1_1_backend_factory.html#a1176b9ab5e2ef7a1b8aa4a4aaaeb924e" target="_top" xlink:title="Static function to get an instance of factory.">
<polygon fill="white" stroke="black" points="457.5,-456.5 457.5,-486.5 610.5,-486.5 610.5,-456.5 457.5,-456.5"/>
<text text-anchor="start" x="465.5" y="-474.5" font-family="Helvetica,sans-Serif" font-size="10.00">ChimeraTK::BackendFactory</text>
<text text-anchor="middle" x="534" y="-463.5" font-family="Helvetica,sans-Serif" font-size="10.00">::getInstance</text>
</a>
</g>
</g>
<!-- Node6&#45;&gt;Node26 -->
<g id="edge32" class="edge">
<title>Node6&#45;&gt;Node26</title>
<path fill="none" stroke="midnightblue" d="M350.27,-413.55C376,-423.8 411.31,-437.31 443,-447.5 449.52,-449.6 456.34,-451.65 463.19,-453.63"/>
<polygon fill="midnightblue" stroke="midnightblue" points="462.63,-457.11 473.21,-456.46 464.54,-450.38 462.63,-457.11"/>
</g>
<!-- Node27 -->
<g id="node27" class="node">
<title>Node27</title>
<g id="a_node27"><a xlink:href="class_chimera_t_k_1_1_logical_name_mapping_backend.html#a3e1f51a139fe2d82286824b7f02f24df" target="_top" xlink:title="Obtain list of all target devices referenced in the catalogue.">
<polygon fill="white" stroke="black" points="443,-407.5 443,-437.5 625,-437.5 625,-407.5 443,-407.5"/>
<text text-anchor="start" x="451" y="-425.5" font-family="Helvetica,sans-Serif" font-size="10.00">ChimeraTK::LogicalNameMapping</text>
<text text-anchor="middle" x="534" y="-414.5" font-family="Helvetica,sans-Serif" font-size="10.00">Backend::getTargetDevices</text>
</a>
</g>
</g>
<!-- Node6&#45;&gt;Node27 -->
<g id="edge33" class="edge">
<title>Node6&#45;&gt;Node27</title>
<path fill="none" stroke="midnightblue" d="M403.73,-408.37C413.3,-409.41 423.07,-410.48 432.74,-411.54"/>
<polygon fill="midnightblue" stroke="midnightblue" points="432.45,-415.03 442.77,-412.63 433.21,-408.07 432.45,-415.03"/>
</g>
<!-- Node28 -->
<g id="node28" class="node">
<title>Node28</title>
<g id="a_node28"><a xlink:href="class_chimera_t_k_1_1_logical_name_map_parser.html#a63e405294bc4a2b05069bf7168690cc0" target="_top" xlink:title="parse the given XML file">
<polygon fill="white" stroke="black" points="453.5,-358.5 453.5,-388.5 614.5,-388.5 614.5,-358.5 453.5,-358.5"/>
<text text-anchor="start" x="461.5" y="-376.5" font-family="Helvetica,sans-Serif" font-size="10.00">ChimeraTK::LogicalNameMap</text>
<text text-anchor="middle" x="534" y="-365.5" font-family="Helvetica,sans-Serif" font-size="10.00">Parser::parseFile</text>
</a>
</g>
</g>
<!-- Node6&#45;&gt;Node28 -->
<g id="edge34" class="edge">
<title>Node6&#45;&gt;Node28</title>
<path fill="none" stroke="midnightblue" d="M403.73,-388.22C416.7,-386.75 430.04,-385.23 443.01,-383.75"/>
<polygon fill="midnightblue" stroke="midnightblue" points="443.77,-387.19 453.31,-382.58 442.98,-380.23 443.77,-387.19"/>
</g>
<!-- Node8 -->
<g id="node8" class="node">
<title>Node8</title>
<g id="a_node8"><a xlink:href="namespace_chimera_t_k_1_1_utilities.html#a2eee1bba7066a6d441061840f63ccd6d" target="_top" xlink:title="Search for an alias in a given DMap file and return the DeviceInfo entry.">
<polygon fill="white" stroke="black" points="684,-31.5 684,-61.5 799,-61.5 799,-31.5 684,-31.5"/>
<text text-anchor="start" x="692" y="-49.5" font-family="Helvetica,sans-Serif" font-size="10.00">ChimeraTK::Utilities</text>
<text text-anchor="middle" x="741.5" y="-38.5" font-family="Helvetica,sans-Serif" font-size="10.00">::aliasLookUp</text>
</a>
</g>
</g>
<!-- Node7&#45;&gt;Node8 -->
<g id="edge7" class="edge">
<title>Node7&#45;&gt;Node8</title>
<path fill="none" stroke="midnightblue" d="M607.42,-148.47C613.65,-145.69 619.62,-142.4 625,-138.5 648.36,-121.58 639.21,-103.4 661,-84.5 669.32,-77.29 679.24,-71.13 689.21,-66"/>
<polygon fill="midnightblue" stroke="midnightblue" points="690.86,-69.09 698.34,-61.57 687.81,-62.79 690.86,-69.09"/>
</g>
<!-- Node18 -->
<g id="node18" class="node">
<title>Node18</title>
<g id="a_node18"><a xlink:href="class_chimera_t_k_1_1_backend_factory.html#a517b7eba664608f0cff9bf3b4dca8141" target="_top" xlink:title="Internal function to return a DeviceBackend.">
<polygon fill="white" stroke="black" points="665,-172.5 665,-202.5 818,-202.5 818,-172.5 665,-172.5"/>
<text text-anchor="start" x="673" y="-190.5" font-family="Helvetica,sans-Serif" font-size="10.00">ChimeraTK::BackendFactory</text>
<text text-anchor="middle" x="741.5" y="-179.5" font-family="Helvetica,sans-Serif" font-size="10.00">::createBackendInternal</text>
</a>
</g>
</g>
<!-- Node7&#45;&gt;Node18 -->
<g id="edge22" class="edge">
<title>Node7&#45;&gt;Node18</title>
<path fill="none" stroke="midnightblue" d="M610.65,-172.33C624.96,-174.01 640.04,-175.77 654.65,-177.47"/>
<polygon fill="midnightblue" stroke="midnightblue" points="654.33,-180.96 664.67,-178.64 655.15,-174.01 654.33,-180.96"/>
</g>
<!-- Node19 -->
<g id="node19" class="node">
<title>Node19</title>
<g id="a_node19"><a xlink:href="namespace_chimera_t_k_1_1_utilities.html#ac9962632f9db42e2b2e7be4b3875a7bc" target="_top" xlink:title="Check whether the given string seems to be a CDD.">
<polygon fill="white" stroke="black" points="881,-74.5 881,-104.5 996,-104.5 996,-74.5 881,-74.5"/>
<text text-anchor="start" x="889" y="-92.5" font-family="Helvetica,sans-Serif" font-size="10.00">ChimeraTK::Utilities</text>
<text text-anchor="middle" x="938.5" y="-81.5" font-family="Helvetica,sans-Serif" font-size="10.00">::isDeviceDescriptor</text>
</a>
</g>
</g>
<!-- Node7&#45;&gt;Node19 -->
<g id="edge30" class="edge">
<title>Node7&#45;&gt;Node19</title>
<path fill="none" stroke="midnightblue" d="M610.71,-149.58C685.59,-135.81 799.08,-114.95 870.7,-101.78"/>
<polygon fill="midnightblue" stroke="midnightblue" points="871.75,-105.15 880.95,-99.9 870.49,-98.26 871.75,-105.15"/>
</g>
<!-- Node20 -->
<g id="node20" class="node">
<title>Node20</title>
<g id="a_node20"><a xlink:href="namespace_chimera_t_k_1_1_utilities.html#a5ba5af0fe01ab6b38bedbc32749eb5ce" target="_top" xlink:title="Check wehter the given string seems to be an SDM.">
<polygon fill="white" stroke="black" points="881,-123.5 881,-153.5 996,-153.5 996,-123.5 881,-123.5"/>
<text text-anchor="start" x="889" y="-141.5" font-family="Helvetica,sans-Serif" font-size="10.00">ChimeraTK::Utilities</text>
<text text-anchor="middle" x="938.5" y="-130.5" font-family="Helvetica,sans-Serif" font-size="10.00">::isSdm</text>
</a>
</g>
</g>
<!-- Node7&#45;&gt;Node20 -->
<g id="edge31" class="edge">
<title>Node7&#45;&gt;Node20</title>
<path fill="none" stroke="midnightblue" d="M610.71,-158.8C685.59,-154.15 799.08,-147.1 870.7,-142.65"/>
<polygon fill="midnightblue" stroke="midnightblue" points="871.19,-146.13 880.95,-142.01 870.76,-139.14 871.19,-146.13"/>
</g>
<!-- Node9 -->
<g id="node9" class="node">
<title>Node9</title>
<g id="a_node9"><a xlink:href="class_chimera_t_k_1_1_d_map_file_parser.html#af5bc5f64b8e53e070862ac5e9992a412" target="_top" xlink:title="Performs parsing of specified DMAP file.">
<polygon fill="white" stroke="black" points="862.5,-25.5 862.5,-55.5 1014.5,-55.5 1014.5,-25.5 862.5,-25.5"/>
<text text-anchor="start" x="870.5" y="-43.5" font-family="Helvetica,sans-Serif" font-size="10.00">ChimeraTK::DMapFileParser</text>
<text text-anchor="middle" x="938.5" y="-32.5" font-family="Helvetica,sans-Serif" font-size="10.00">::parse</text>
</a>
</g>
</g>
<!-- Node8&#45;&gt;Node9 -->
<g id="edge8" class="edge">
<title>Node8&#45;&gt;Node9</title>
<path fill="none" stroke="midnightblue" d="M799.16,-44.76C815.61,-44.25 833.96,-43.69 851.77,-43.14"/>
<polygon fill="midnightblue" stroke="midnightblue" points="852.29,-46.62 862.18,-42.82 852.07,-39.63 852.29,-46.62"/>
</g>
<!-- Node10 -->
<g id="node10" class="node">
<title>Node10</title>
<g id="a_node10"><a xlink:href="namespace_chimera_t_k_1_1parser_utilities.html#ae2b9a4195d7e35aeb3bf43b51d160fe6" target="_top" xlink:title="Converts a relative path to its absolute path.">
<polygon fill="white" stroke="black" points="1431,-0.5 1431,-30.5 1577,-30.5 1577,-0.5 1431,-0.5"/>
<text text-anchor="start" x="1439" y="-18.5" font-family="Helvetica,sans-Serif" font-size="10.00">ChimeraTK::parserUtilities</text>
<text text-anchor="middle" x="1504" y="-7.5" font-family="Helvetica,sans-Serif" font-size="10.00">::convertToAbsolutePath</text>
</a>
</g>
</g>
<!-- Node9&#45;&gt;Node10 -->
<g id="edge9" class="edge">
<title>Node9&#45;&gt;Node10</title>
<path fill="none" stroke="midnightblue" d="M997.27,-25.47C1015.6,-21.38 1036.03,-17.53 1055,-15.5 1182.15,-1.9 1330.77,-5.77 1420.83,-10.28"/>
<polygon fill="midnightblue" stroke="midnightblue" points="1420.81,-13.78 1430.98,-10.8 1421.17,-6.79 1420.81,-13.78"/>
</g>
<!-- Node13 -->
<g id="node13" class="node">
<title>Node13</title>
<g id="a_node13"><a xlink:href="class_chimera_t_k_1_1_d_map_file_parser.html#a2e6c400c8c42fb9f0c0acc9d5b5ee51c" target="_top" xlink:title=" ">
<polygon fill="white" stroke="black" points="1055,-74.5 1055,-104.5 1207,-104.5 1207,-74.5 1055,-74.5"/>
<text text-anchor="start" x="1063" y="-92.5" font-family="Helvetica,sans-Serif" font-size="10.00">ChimeraTK::DMapFileParser</text>
<text text-anchor="middle" x="1131" y="-81.5" font-family="Helvetica,sans-Serif" font-size="10.00">::parseForLoadLib</text>
</a>
</g>
</g>
<!-- Node9&#45;&gt;Node13 -->
<g id="edge12" class="edge">
<title>Node9&#45;&gt;Node13</title>
<path fill="none" stroke="midnightblue" d="M997.95,-55.53C1018.16,-60.73 1040.97,-66.6 1061.89,-71.98"/>
<polygon fill="midnightblue" stroke="midnightblue" points="1061.1,-75.39 1071.66,-74.49 1062.85,-68.61 1061.1,-75.39"/>
</g>
<!-- Node17 -->
<g id="node17" class="node">
<title>Node17</title>
<g id="a_node17"><a xlink:href="class_chimera_t_k_1_1_d_map_file_parser.html#a1bb85a67f25b282adf6e3c94f20765e8" target="_top" xlink:title=" ">
<polygon fill="white" stroke="black" points="1055,-25.5 1055,-55.5 1207,-55.5 1207,-25.5 1055,-25.5"/>
<text text-anchor="start" x="1063" y="-43.5" font-family="Helvetica,sans-Serif" font-size="10.00">ChimeraTK::DMapFileParser</text>
<text text-anchor="middle" x="1131" y="-32.5" font-family="Helvetica,sans-Serif" font-size="10.00">::parseRegularLine</text>
</a>
</g>
</g>
<!-- Node9&#45;&gt;Node17 -->
<g id="edge18" class="edge">
<title>Node9&#45;&gt;Node17</title>
<path fill="none" stroke="midnightblue" d="M1014.52,-40.5C1024.43,-40.5 1034.66,-40.5 1044.73,-40.5"/>
<polygon fill="midnightblue" stroke="midnightblue" points="1044.74,-44 1054.74,-40.5 1044.74,-37 1044.74,-44"/>
</g>
<!-- Node11 -->
<g id="node11" class="node">
<title>Node11</title>
<g id="a_node11"><a xlink:href="namespace_chimera_t_k_1_1parser_utilities.html#aa12c9ae1b43184cbb38d56f9aec8f630" target="_top" xlink:title="Concatenates two given paths using custom rules.">
<polygon fill="white" stroke="black" points="1619.5,-49.5 1619.5,-79.5 1765.5,-79.5 1765.5,-49.5 1619.5,-49.5"/>
<text text-anchor="start" x="1627.5" y="-67.5" font-family="Helvetica,sans-Serif" font-size="10.00">ChimeraTK::parserUtilities</text>
<text text-anchor="middle" x="1692.5" y="-56.5" font-family="Helvetica,sans-Serif" font-size="10.00">::concatenatePaths</text>
</a>
</g>
</g>
<!-- Node10&#45;&gt;Node11 -->
<g id="edge10" class="edge">
<title>Node10&#45;&gt;Node11</title>
<path fill="none" stroke="midnightblue" d="M1562.22,-30.53C1581.92,-35.71 1604.14,-41.55 1624.54,-46.91"/>
<polygon fill="midnightblue" stroke="midnightblue" points="1623.82,-50.34 1634.38,-49.49 1625.6,-43.57 1623.82,-50.34"/>
</g>
<!-- Node12 -->
<g id="node12" class="node">
<title>Node12</title>
<g id="a_node12"><a xlink:href="namespace_chimera_t_k_1_1parser_utilities.html#a529f65d15e870ea369edaa98ad14ec84" target="_top" xlink:title="Returns absolute path to current working directory. The returned path ends with a forward slash.">
<polygon fill="white" stroke="black" points="1613,-0.5 1613,-30.5 1772,-30.5 1772,-0.5 1613,-0.5"/>
<text text-anchor="start" x="1621" y="-18.5" font-family="Helvetica,sans-Serif" font-size="10.00">ChimeraTK::parserUtilities</text>
<text text-anchor="middle" x="1692.5" y="-7.5" font-family="Helvetica,sans-Serif" font-size="10.00">::getCurrentWorkingDirectory</text>
</a>
</g>
</g>
<!-- Node10&#45;&gt;Node12 -->
<g id="edge11" class="edge">
<title>Node10&#45;&gt;Node12</title>
<path fill="none" stroke="midnightblue" d="M1577.11,-15.5C1585.5,-15.5 1594.14,-15.5 1602.73,-15.5"/>
<polygon fill="midnightblue" stroke="midnightblue" points="1602.78,-19 1612.78,-15.5 1602.78,-12 1602.78,-19"/>
</g>
<!-- Node14 -->
<g id="node14" class="node">
<title>Node14</title>
<g id="a_node14"><a xlink:href="class_chimera_t_k_1_1_d_map_file_parser.html#a7ac3f2058e4b78a449e23dfbb8845a00" target="_top" xlink:title=" ">
<polygon fill="white" stroke="black" points="1243,-93.5 1243,-123.5 1395,-123.5 1395,-93.5 1243,-93.5"/>
<text text-anchor="start" x="1251" y="-111.5" font-family="Helvetica,sans-Serif" font-size="10.00">ChimeraTK::DMapFileParser</text>
<text text-anchor="middle" x="1319" y="-100.5" font-family="Helvetica,sans-Serif" font-size="10.00">::absPathOfDMapContent</text>
</a>
</g>
</g>
<!-- Node13&#45;&gt;Node14 -->
<g id="edge13" class="edge">
<title>Node13&#45;&gt;Node14</title>
<path fill="none" stroke="midnightblue" d="M1207.12,-97.17C1215.6,-98.04 1224.28,-98.93 1232.87,-99.8"/>
<polygon fill="midnightblue" stroke="midnightblue" points="1232.6,-103.29 1242.9,-100.83 1233.31,-96.33 1232.6,-103.29"/>
</g>
<!-- Node16 -->
<g id="node16" class="node">
<title>Node16</title>
<g id="a_node16"><a xlink:href="class_chimera_t_k_1_1_d_map_file_parser.html#a19a82e7d1cce03f5a891037badbac7b1" target="_top" xlink:title=" ">
<polygon fill="white" stroke="black" points="1243,-44.5 1243,-74.5 1395,-74.5 1395,-44.5 1243,-44.5"/>
<text text-anchor="start" x="1251" y="-62.5" font-family="Helvetica,sans-Serif" font-size="10.00">ChimeraTK::DMapFileParser</text>
<text text-anchor="middle" x="1319" y="-51.5" font-family="Helvetica,sans-Serif" font-size="10.00">::raiseException</text>
</a>
</g>
</g>
<!-- Node13&#45;&gt;Node16 -->
<g id="edge17" class="edge">
<title>Node13&#45;&gt;Node16</title>
<path fill="none" stroke="midnightblue" d="M1207.12,-77.38C1215.6,-76.02 1224.28,-74.62 1232.87,-73.23"/>
<polygon fill="midnightblue" stroke="midnightblue" points="1233.59,-76.66 1242.9,-71.61 1232.48,-69.75 1233.59,-76.66"/>
</g>
<!-- Node14&#45;&gt;Node10 -->
<g id="edge15" class="edge">
<title>Node14&#45;&gt;Node10</title>
<path fill="none" stroke="midnightblue" d="M1374.46,-93.39C1381.58,-90.54 1388.61,-87.26 1395,-83.5 1413.71,-72.49 1413.05,-62.71 1431,-50.5 1439.27,-44.87 1448.59,-39.64 1457.71,-35.03"/>
<polygon fill="midnightblue" stroke="midnightblue" points="1459.26,-38.17 1466.71,-30.63 1456.19,-31.88 1459.26,-38.17"/>
</g>
<!-- Node14&#45;&gt;Node11 -->
<g id="edge14" class="edge">
<title>Node14&#45;&gt;Node11</title>
<path fill="none" stroke="midnightblue" d="M1379.03,-93.49C1395.74,-89.71 1414,-86.02 1431,-83.5 1490.29,-74.71 1557.81,-69.93 1609.25,-67.37"/>
<polygon fill="midnightblue" stroke="midnightblue" points="1609.49,-70.86 1619.31,-66.88 1609.16,-63.87 1609.49,-70.86"/>
</g>
<!-- Node15 -->
<g id="node15" class="node">
<title>Node15</title>
<g id="a_node15"><a xlink:href="namespace_chimera_t_k_1_1parser_utilities.html#a91ebf0d4263ce92117ee4f260cdd5edf" target="_top" xlink:title="Returns the path to the directory containing the file provided as the input parameter.">
<polygon fill="white" stroke="black" points="1431,-93.5 1431,-123.5 1577,-123.5 1577,-93.5 1431,-93.5"/>
<text text-anchor="start" x="1439" y="-111.5" font-family="Helvetica,sans-Serif" font-size="10.00">ChimeraTK::parserUtilities</text>
<text text-anchor="middle" x="1504" y="-100.5" font-family="Helvetica,sans-Serif" font-size="10.00">::extractDirectory</text>
</a>
</g>
</g>
<!-- Node14&#45;&gt;Node15 -->
<g id="edge16" class="edge">
<title>Node14&#45;&gt;Node15</title>
<path fill="none" stroke="midnightblue" d="M1395.23,-108.5C1403.57,-108.5 1412.09,-108.5 1420.52,-108.5"/>
<polygon fill="midnightblue" stroke="midnightblue" points="1420.72,-112 1430.72,-108.5 1420.72,-105 1420.72,-112"/>
</g>
<!-- Node17&#45;&gt;Node10 -->
<g id="edge20" class="edge">
<title>Node17&#45;&gt;Node10</title>
<path fill="none" stroke="midnightblue" d="M1207.08,-35.44C1269.08,-31.26 1356.96,-25.34 1420.83,-21.04"/>
<polygon fill="midnightblue" stroke="midnightblue" points="1421.13,-24.52 1430.87,-20.36 1420.66,-17.54 1421.13,-24.52"/>
</g>
<!-- Node17&#45;&gt;Node14 -->
<g id="edge19" class="edge">
<title>Node17&#45;&gt;Node14</title>
<path fill="none" stroke="midnightblue" d="M1183.27,-55.58C1191.3,-58.32 1199.44,-61.32 1207,-64.5 1223.68,-71.51 1226.36,-76.39 1243,-83.5 1248.13,-85.69 1253.52,-87.81 1258.95,-89.84"/>
<polygon fill="midnightblue" stroke="midnightblue" points="1258.16,-93.27 1268.75,-93.37 1260.53,-86.69 1258.16,-93.27"/>
</g>
<!-- Node17&#45;&gt;Node16 -->
<g id="edge21" class="edge">
<title>Node17&#45;&gt;Node16</title>
<path fill="none" stroke="midnightblue" d="M1207.12,-48.17C1215.6,-49.04 1224.28,-49.93 1232.87,-50.8"/>
<polygon fill="midnightblue" stroke="midnightblue" points="1232.6,-54.29 1242.9,-51.83 1233.31,-47.33 1232.6,-54.29"/>
</g>
<!-- Node18&#45;&gt;Node19 -->
<g id="edge23" class="edge">
<title>Node18&#45;&gt;Node19</title>
<path fill="none" stroke="midnightblue" d="M762.38,-172.33C784.64,-155.92 822.31,-129.93 858,-113.5 862.28,-111.53 866.76,-109.67 871.32,-107.93"/>
<polygon fill="midnightblue" stroke="midnightblue" points="872.54,-111.21 880.75,-104.52 870.16,-104.63 872.54,-111.21"/>
</g>
<!-- Node18&#45;&gt;Node20 -->
<g id="edge24" class="edge">
<title>Node18&#45;&gt;Node20</title>
<path fill="none" stroke="midnightblue" d="M802.33,-172.47C824.08,-167 848.78,-160.79 871.07,-155.19"/>
<polygon fill="midnightblue" stroke="midnightblue" points="871.94,-158.58 880.78,-152.75 870.23,-151.79 871.94,-158.58"/>
</g>
<!-- Node21 -->
<g id="node21" class="node">
<title>Node21</title>
<g id="a_node21"><a xlink:href="namespace_chimera_t_k_1_1_utilities.html#a01df8292c600039a0d654b7591e33a45" target="_top" xlink:title="Parse a ChimeraTK device descriptor (CDD) and return the information in the DeviceDescriptor struct.">
<polygon fill="white" stroke="black" points="873.5,-270.5 873.5,-300.5 1003.5,-300.5 1003.5,-270.5 873.5,-270.5"/>
<text text-anchor="start" x="881.5" y="-288.5" font-family="Helvetica,sans-Serif" font-size="10.00">ChimeraTK::Utilities</text>
<text text-anchor="middle" x="938.5" y="-277.5" font-family="Helvetica,sans-Serif" font-size="10.00">::parseDeviceDesciptor</text>
</a>
</g>
</g>
<!-- Node18&#45;&gt;Node21 -->
<g id="edge25" class="edge">
<title>Node18&#45;&gt;Node21</title>
<path fill="none" stroke="midnightblue" d="M762.85,-202.67C785.23,-218.78 822.71,-244.14 858,-260.5 862.92,-262.78 868.11,-264.93 873.38,-266.94"/>
<polygon fill="midnightblue" stroke="midnightblue" points="872.31,-270.28 882.9,-270.4 874.7,-263.7 872.31,-270.28"/>
</g>
<!-- Node22 -->
<g id="node22" class="node">
<title>Node22</title>
<g id="a_node22"><a xlink:href="namespace_chimera_t_k_1_1_utilities.html#a685a9e8b21d8fe1d21d9fa5941e3d2bc" target="_top" xlink:title="Parse an old&#45;style device string (either path to device node or map file name for dummies)">
<polygon fill="white" stroke="black" points="881,-221.5 881,-251.5 996,-251.5 996,-221.5 881,-221.5"/>
<text text-anchor="start" x="889" y="-239.5" font-family="Helvetica,sans-Serif" font-size="10.00">ChimeraTK::Utilities</text>
<text text-anchor="middle" x="938.5" y="-228.5" font-family="Helvetica,sans-Serif" font-size="10.00">::parseDeviceString</text>
</a>
</g>
</g>
<!-- Node18&#45;&gt;Node22 -->
<g id="edge26" class="edge">
<title>Node18&#45;&gt;Node22</title>
<path fill="none" stroke="midnightblue" d="M802.33,-202.53C824.08,-208 848.78,-214.21 871.07,-219.81"/>
<polygon fill="midnightblue" stroke="midnightblue" points="870.23,-223.21 880.78,-222.25 871.94,-216.42 870.23,-223.21"/>
</g>
<!-- Node23 -->
<g id="node23" class="node">
<title>Node23</title>
<g id="a_node23"><a xlink:href="namespace_chimera_t_k_1_1_utilities.html#aa1751b9f4874cde2c2c92581681852a0" target="_top" xlink:title="Parse an SDM URI and return the device information in the Sdm struct.">
<polygon fill="white" stroke="black" points="881,-172.5 881,-202.5 996,-202.5 996,-172.5 881,-172.5"/>
<text text-anchor="start" x="889" y="-190.5" font-family="Helvetica,sans-Serif" font-size="10.00">ChimeraTK::Utilities</text>
<text text-anchor="middle" x="938.5" y="-179.5" font-family="Helvetica,sans-Serif" font-size="10.00">::parseSdm</text>
</a>
</g>
</g>
<!-- Node18&#45;&gt;Node23 -->
<g id="edge27" class="edge">
<title>Node18&#45;&gt;Node23</title>
<path fill="none" stroke="midnightblue" d="M818.17,-187.5C835.46,-187.5 853.71,-187.5 870.6,-187.5"/>
<polygon fill="midnightblue" stroke="midnightblue" points="870.92,-191 880.92,-187.5 870.92,-184 870.92,-191"/>
</g>
<!-- Node25 -->
<g id="node25" class="node">
<title>Node25</title>
<g id="a_node25"><a xlink:href="namespace_chimera_t_k.html#a20b2775608abae67eee7a9e7b7cf6b3c" target="_top" xlink:title=" ">
<polygon fill="white" stroke="black" points="1071.5,-342 1071.5,-361 1190.5,-361 1190.5,-342 1071.5,-342"/>
<text text-anchor="middle" x="1131" y="-349" font-family="Helvetica,sans-Serif" font-size="10.00">ChimeraTK::to_string</text>
</a>
</g>
</g>
<!-- Node18&#45;&gt;Node25 -->
<g id="edge29" class="edge">
<title>Node18&#45;&gt;Node25</title>
<path fill="none" stroke="midnightblue" d="M751.79,-202.51C769.07,-229.03 808.92,-283.76 858,-309.5 892.31,-327.49 992.31,-339.55 1061,-345.96"/>
<polygon fill="midnightblue" stroke="midnightblue" points="1061.04,-349.48 1071.32,-346.91 1061.68,-342.51 1061.04,-349.48"/>
</g>
<!-- Node24 -->
<g id="node24" class="node">
<title>Node24</title>
<g id="a_node24"><a xlink:href="namespace_chimera_t_k_1_1_utilities.html#a5bf0fb7a4de6e9fba9e6b36baa4bf531" target="_top" xlink:title="Check if the given string only contains alphanumeric characters.">
<polygon fill="white" stroke="black" points="1073.5,-172.5 1073.5,-202.5 1188.5,-202.5 1188.5,-172.5 1073.5,-172.5"/>
<text text-anchor="start" x="1081.5" y="-190.5" font-family="Helvetica,sans-Serif" font-size="10.00">ChimeraTK::Utilities</text>
<text text-anchor="middle" x="1131" y="-179.5" font-family="Helvetica,sans-Serif" font-size="10.00">::countOccurence</text>
</a>
</g>
</g>
<!-- Node23&#45;&gt;Node24 -->
<g id="edge28" class="edge">
<title>Node23&#45;&gt;Node24</title>
<path fill="none" stroke="midnightblue" d="M996.14,-187.5C1017.16,-187.5 1041.2,-187.5 1063.05,-187.5"/>
<polygon fill="midnightblue" stroke="midnightblue" points="1063.25,-191 1073.25,-187.5 1063.25,-184 1063.25,-191"/>
</g>
<!-- Node29 -->
<g id="node29" class="node">
<title>Node29</title>
<g id="a_node29"><a xlink:href="class_chimera_t_k_1_1_logical_name_map_parser.html#aaa13c7d99b793bb1c70eb13a5edd627f" target="_top" xlink:title="called inside parseFile() to parse an XML element and its sub&#45;elements recursively">
<polygon fill="white" stroke="black" points="661,-407.5 661,-437.5 822,-437.5 822,-407.5 661,-407.5"/>
<text text-anchor="start" x="669" y="-425.5" font-family="Helvetica,sans-Serif" font-size="10.00">ChimeraTK::LogicalNameMap</text>
<text text-anchor="middle" x="741.5" y="-414.5" font-family="Helvetica,sans-Serif" font-size="10.00">Parser::parseElement</text>
</a>
</g>
</g>
<!-- Node28&#45;&gt;Node29 -->
<g id="edge35" class="edge">
<title>Node28&#45;&gt;Node29</title>
<path fill="none" stroke="midnightblue" d="M598.05,-388.53C620.05,-393.78 644.91,-399.71 667.63,-405.13"/>
<polygon fill="midnightblue" stroke="midnightblue" points="667.03,-408.58 677.57,-407.49 668.65,-401.77 667.03,-408.58"/>
</g>
<!-- Node32 -->
<g id="node32" class="node">
<title>Node32</title>
<g id="a_node32"><a xlink:href="class_chimera_t_k_1_1_logical_name_map_parser.html#ab77f9b049edc5f2c4dd465a2b3c6ba62" target="_top" xlink:title="throw a parsing error with more information">
<polygon fill="white" stroke="black" points="858,-358.5 858,-388.5 1019,-388.5 1019,-358.5 858,-358.5"/>
<text text-anchor="start" x="866" y="-376.5" font-family="Helvetica,sans-Serif" font-size="10.00">ChimeraTK::LogicalNameMap</text>
<text text-anchor="middle" x="938.5" y="-365.5" font-family="Helvetica,sans-Serif" font-size="10.00">Parser::parsingError</text>
</a>
</g>
</g>
<!-- Node28&#45;&gt;Node32 -->
<g id="edge41" class="edge">
<title>Node28&#45;&gt;Node32</title>
<path fill="none" stroke="midnightblue" d="M614.52,-373.5C681.67,-373.5 777.77,-373.5 847.68,-373.5"/>
<polygon fill="midnightblue" stroke="midnightblue" points="847.8,-377 857.8,-373.5 847.8,-370 847.8,-377"/>
</g>
<!-- Node29&#45;&gt;Node2 -->
<g id="edge37" class="edge">
<title>Node29&#45;&gt;Node2</title>
<path fill="none" stroke="midnightblue" d="M761.8,-437.77C783.86,-454.5 821.62,-481.03 858,-496.5 863.83,-498.98 870.04,-501.17 876.32,-503.1"/>
<polygon fill="midnightblue" stroke="midnightblue" points="875.64,-506.54 886.21,-505.92 877.56,-499.81 875.64,-506.54"/>
</g>
<!-- Node30 -->
<g id="node30" class="node">
<title>Node30</title>
<g id="a_node30"><a xlink:href="class_chimera_t_k_1_1_backend_register_catalogue.html#a2761d0dccddca7293a2ac7a5ce8345fc" target="_top" xlink:title="Add register information to the catalogue.">
<polygon fill="white" stroke="black" points="859.5,-456.5 859.5,-486.5 1017.5,-486.5 1017.5,-456.5 859.5,-456.5"/>
<text text-anchor="start" x="867.5" y="-474.5" font-family="Helvetica,sans-Serif" font-size="10.00">ChimeraTK::BackendRegister</text>
<text text-anchor="middle" x="938.5" y="-463.5" font-family="Helvetica,sans-Serif" font-size="10.00">Catalogue::addRegister</text>
</a>
</g>
</g>
<!-- Node29&#45;&gt;Node30 -->
<g id="edge36" class="edge">
<title>Node29&#45;&gt;Node30</title>
<path fill="none" stroke="midnightblue" d="M802.33,-437.53C823.11,-442.76 846.58,-448.65 868.07,-454.05"/>
<polygon fill="midnightblue" stroke="midnightblue" points="867.23,-457.45 877.78,-456.49 868.94,-450.66 867.23,-457.45"/>
</g>
<!-- Node31 -->
<g id="node31" class="node">
<title>Node31</title>
<g id="a_node31"><a xlink:href="namespace_chimera_t_k_1_1_l_n_m_backend.html#acdeb68d7bebaa9232243ffbb49bb0ef4" target="_top" xlink:title="Factory function for accessor plugins.">
<polygon fill="white" stroke="black" points="868.5,-407.5 868.5,-437.5 1008.5,-437.5 1008.5,-407.5 868.5,-407.5"/>
<text text-anchor="start" x="876.5" y="-425.5" font-family="Helvetica,sans-Serif" font-size="10.00">ChimeraTK::LNMBackend</text>
<text text-anchor="middle" x="938.5" y="-414.5" font-family="Helvetica,sans-Serif" font-size="10.00">::makePlugin</text>
</a>
</g>
</g>
<!-- Node29&#45;&gt;Node31 -->
<g id="edge38" class="edge">
<title>Node29&#45;&gt;Node31</title>
<path fill="none" stroke="midnightblue" d="M822.1,-422.5C833.99,-422.5 846.25,-422.5 858.13,-422.5"/>
<polygon fill="midnightblue" stroke="midnightblue" points="858.47,-426 868.47,-422.5 858.47,-419 858.47,-426"/>
</g>
<!-- Node29&#45;&gt;Node32 -->
<g id="edge39" class="edge">
<title>Node29&#45;&gt;Node32</title>
<path fill="none" stroke="midnightblue" d="M802.33,-407.47C823.11,-402.24 846.58,-396.35 868.07,-390.95"/>
<polygon fill="midnightblue" stroke="midnightblue" points="868.94,-394.34 877.78,-388.51 867.23,-387.55 868.94,-394.34"/>
</g>
<!-- Node32&#45;&gt;Node25 -->
<g id="edge40" class="edge">
<title>Node32&#45;&gt;Node25</title>
<path fill="none" stroke="midnightblue" d="M1019.19,-364.3C1033.08,-362.69 1047.43,-361.04 1061,-359.47"/>
<polygon fill="midnightblue" stroke="midnightblue" points="1061.68,-362.91 1071.21,-358.29 1060.88,-355.96 1061.68,-362.91"/>
</g>
<!-- Node34 -->
<g id="node34" class="node">
<title>Node34</title>
<g id="a_node34"><a xlink:href="class_chimera_t_k_1_1async_1_1_domains_container.html#ad03a05a35621f3103c6c40b05b5b1d88" target="_top" xlink:title="Check whether an exception distribution is started and not completed yet.">
<polygon fill="white" stroke="black" points="449,-99.5 449,-129.5 619,-129.5 619,-99.5 449,-99.5"/>
<text text-anchor="start" x="457" y="-117.5" font-family="Helvetica,sans-Serif" font-size="10.00">ChimeraTK::async::Domains</text>
<text text-anchor="middle" x="534" y="-106.5" font-family="Helvetica,sans-Serif" font-size="10.00">Container::isSendingExceptions</text>
</a>
</g>
</g>
<!-- Node33&#45;&gt;Node34 -->
<g id="edge43" class="edge">
<title>Node33&#45;&gt;Node34</title>
<path fill="none" stroke="midnightblue" d="M341.14,-185.41C366.93,-171.78 406.75,-151.88 443,-138.5 448.77,-136.37 454.82,-134.34 460.93,-132.43"/>
<polygon fill="midnightblue" stroke="midnightblue" points="461.99,-135.77 470.56,-129.53 459.97,-129.07 461.99,-135.77"/>
</g>
</g>
</svg>
        <g id="navigator" transform="translate(0 0)" fill="#404254">
                <rect fill="#f2f5e9" fill-opacity="0.5" stroke="#606060" stroke-width=".5" x="0" y="0" width="60" height="60"/>
                <use id="zoomplus" xlink:href="#zoomPlus" x="17" y="9" onmousedown="handleZoom(evt,'in')"/>
                <use id="zoomminus" xlink:href="#zoomMin" x="42" y="9" onmousedown="handleZoom(evt,'out')"/>
                <use id="reset" xlink:href="#resetDef" x="30" y="36" onmousedown="handleReset()"/>
                <g id="arrowUp" xlink:href="#dirArrow" transform="translate(30 24)" onmousedown="handlePan(0,-1)">
                  <use xlink:href="#rim" fill="#404040">
                        <set attributeName="fill" to="#808080" begin="arrowUp.mouseover" end="arrowUp.mouseout"/>
                  </use>
                  <path fill="none" stroke="white" stroke-width="1.5" d="M0,-3.0v7 M-2.5,-0.5L0,-3.0L2.5,-0.5"/>
                </g>
                <g id="arrowRight" xlink:href="#dirArrow" transform="rotate(90) translate(36 -43)" onmousedown="handlePan(1,0)">
                  <use xlink:href="#rim" fill="#404040">
                        <set attributeName="fill" to="#808080" begin="arrowRight.mouseover" end="arrowRight.mouseout"/>
                  </use>
                  <path fill="none" stroke="white" stroke-width="1.5" d="M0,-3.0v7 M-2.5,-0.5L0,-3.0L2.5,-0.5"/>
                </g>
                <g id="arrowDown" xlink:href="#dirArrow" transform="rotate(180) translate(-30 -48)" onmousedown="handlePan(0,1)">
                  <use xlink:href="#rim" fill="#404040">
                        <set attributeName="fill" to="#808080" begin="arrowDown.mouseover" end="arrowDown.mouseout"/>
                  </use>
                  <path fill="none" stroke="white" stroke-width="1.5" d="M0,-3.0v7 M-2.5,-0.5L0,-3.0L2.5,-0.5"/>
                </g>
                <g id="arrowLeft" xlink:href="#dirArrow" transform="rotate(270) translate(-36 17)" onmousedown="handlePan(-1,0)">
                  <use xlink:href="#rim" fill="#404040">
                        <set attributeName="fill" to="#808080" begin="arrowLeft.mouseover" end="arrowLeft.mouseout"/>
                  </use>
                  <path fill="none" stroke="white" stroke-width="1.5" d="M0,-3.0v7 M-2.5,-0.5L0,-3.0L2.5,-0.5"/>
                </g>
        </g>
        <svg viewBox="0 0 15 15" width="100%" height="30px" preserveAspectRatio="xMaxYMin meet">
         <g id="arrow_out" transform="scale(0.3 0.3)">
          <a xlink:href="class_chimera_t_k_1_1_logical_name_mapping_backend_aa62cb97e2a5de85ae6151410b78f0ec6_cgraph_org.svg" target="_base">
           <rect id="button" ry="5" rx="5" y="6" x="6" height="38" width="38"
                fill="#f2f5e9" fill-opacity="0.5" stroke="#606060" stroke-width="1.0"/>
           <path id="arrow"
             d="M 11.500037,31.436501 C 11.940474,20.09759 22.043105,11.32322 32.158766,21.979434 L 37.068811,17.246167 C 37.068811,17.246167 37.088388,32 37.088388,32 L 22.160133,31.978069 C 22.160133,31.978069 26.997745,27.140456 26.997745,27.140456 C 18.528582,18.264221 13.291696,25.230495 11.500037,31.436501 z"
             style="fill:#404040;"/>
          </a>
         </g>
        </svg>
</svg>
