<?xml version="1.0" encoding="UTF-8" standalone="no"?>
<!DOCTYPE svg PUBLIC "-//W3C//DTD SVG 1.1//EN"
 "http://www.w3.org/Graphics/SVG/1.1/DTD/svg11.dtd">
<!-- Generated by graphviz version 2.43.0 (0)
 -->
<!-- Title: ChimeraTK::SubdeviceBackend Pages: 1 -->
<!--zoomable 579 -->

<svg id="main" version="1.1" xmlns="http://www.w3.org/2000/svg" xmlns:xlink="http://www.w3.org/1999/xlink" xml:space="preserve" onload="init(evt)">
<style type="text/css"><![CDATA[
.node, .edge {opacity: 0.7;}
.node.selected, .edge.selected {opacity: 1;}
.edge:hover path { stroke: red; }
.edge:hover polygon { stroke: red; fill: red; }
]]></style>

<defs>
  <circle id="rim" cx="0" cy="0" r="7"/>
  <circle id="rim2" cx="0" cy="0" r="3.5"/>
  <g id="zoomPlus">
    <use xlink:href="#rim" fill="#404040"><set attributeName="fill" to="#808080" begin="zoomplus.mouseover" end="zoomplus.mouseout"/></use>
    <path d="M-4,0h8M0,-4v8" fill="none" stroke="white" stroke-width="1.5" pointer-events="none"/>
  </g>
  <g id="zoomMin">
    <use xlink:href="#rim" fill="#404040"><set attributeName="fill" to="#808080" begin="zoomminus.mouseover" end="zoomminus.mouseout"/></use>
    <path d="M-4,0h8" fill="none" stroke="white" stroke-width="1.5" pointer-events="none"/>
  </g>
  <g id="arrowUp" transform="translate(30 24)">
    <use xlink:href="#rim"/>
    <path pointer-events="none" fill="none" stroke="white" stroke-width="1.5" d="M0,-3.0v7 M-2.5,-0.5L0,-3.0L2.5,-0.5"/>
  </g>
  <g id="arrowRight" transform="rotate(90) translate(36 -43)">
    <use xlink:href="#rim"/>
    <path pointer-events="none" fill="none" stroke="white" stroke-width="1.5" d="M0,-3.0v7 M-2.5,-0.5L0,-3.0L2.5,-0.5"/>
  </g>
  <g id="arrowDown" transform="rotate(180) translate(-30 -48)">
    <use xlink:href="#rim"/>
    <path pointer-events="none" fill="none" stroke="white" stroke-width="1.5" d="M0,-3.0v7 M-2.5,-0.5L0,-3.0L2.5,-0.5"/>
  </g>
  <g id="arrowLeft" transform="rotate(270) translate(-36 17)">
    <use xlink:href="#rim"/>
    <path pointer-events="none" fill="none" stroke="white" stroke-width="1.5" d="M0,-3.0v7 M-2.5,-0.5L0,-3.0L2.5,-0.5"/>
  </g>
  <g id="resetDef">
    <use xlink:href="#rim2" fill="#404040"><set attributeName="fill" to="#808080" begin="reset.mouseover" end="reset.mouseout"/></use>
  </g>
</defs>
<script type="application/ecmascript">
var viewWidth = 1746;
var viewHeight = 579;
var sectionId = 'dynsection-1';
</script>
<script type="application/ecmascript" xlink:href="svg.min.js"/>
<svg id="graph" class="graph">
<g id="viewport">
<title>ChimeraTK::SubdeviceBackend</title>
<!-- Node1 -->
<g id="Node000001" class="node">
<title>Node1</title>
<g id="a_Node000001"><a xlink:title="Backend for subdevices which are passed through some register or area of another device (subsequently...">
<polygon fill="#999999" stroke="#666666" points="1738,-235.5 1570,-235.5 1570,-216.5 1738,-216.5 1738,-235.5"/>
<text text-anchor="middle" x="1654" y="-223.5" font-family="Helvetica,sans-Serif" font-size="10.00">ChimeraTK::SubdeviceBackend</text>
</a>
</g>
</g>
<!-- Node2 -->
<g id="Node000002" class="node">
<title>Node2</title>
<g id="a_Node000002"><a xlink:href="class_chimera_t_k_1_1_device_backend_impl.html" target="_top" xlink:title="DeviceBackendImpl implements some basic functionality which should be available for all backends.">
<polygon fill="white" stroke="#666666" points="1467,-491.5 1294,-491.5 1294,-472.5 1467,-472.5 1467,-491.5"/>
<text text-anchor="middle" x="1380.5" y="-479.5" font-family="Helvetica,sans-Serif" font-size="10.00">ChimeraTK::DeviceBackendImpl</text>
</a>
</g>
</g>
<!-- Node2&#45;&gt;Node1 -->
<g id="edge1_Node000001_Node000002" class="edge">
<title>Node2&#45;&gt;Node1</title>
<g id="a_edge1_Node000001_Node000002"><a xlink:title=" ">
<path fill="none" stroke="#63b8ff" d="M1412.29,-468.1C1448.67,-450.6 1509.59,-417.84 1552,-377 1599.02,-331.71 1636.04,-260.94 1648.48,-235.5"/>
<polygon fill="#63b8ff" stroke="#63b8ff" points="1410.7,-464.98 1403.16,-472.42 1413.7,-471.3 1410.7,-464.98"/>
</a>
</g>
</g>
<!-- Node3 -->
<g id="Node000003" class="node">
<title>Node3</title>
<g id="a_Node000003"><a xlink:href="class_chimera_t_k_1_1_device_backend.html" target="_top" xlink:title="The base class for backends providing IO functionality for the Device class.">
<polygon fill="white" stroke="#666666" points="1056,-560.5 904,-560.5 904,-541.5 1056,-541.5 1056,-560.5"/>
<text text-anchor="middle" x="980" y="-548.5" font-family="Helvetica,sans-Serif" font-size="10.00">ChimeraTK::DeviceBackend</text>
</a>
</g>
</g>
<!-- Node3&#45;&gt;Node2 -->
<g id="edge2_Node000002_Node000003" class="edge">
<title>Node3&#45;&gt;Node2</title>
<g id="a_edge2_Node000002_Node000003"><a xlink:title=" ">
<path fill="none" stroke="#63b8ff" d="M1066.37,-545.95C1125.71,-541.28 1206.33,-532.61 1276,-517 1304.13,-510.7 1335.35,-499.54 1356.06,-491.51"/>
<polygon fill="#63b8ff" stroke="#63b8ff" points="1066,-542.47 1056.29,-546.72 1066.53,-549.45 1066,-542.47"/>
</a>
</g>
</g>
<!-- Node4 -->
<g id="Node000004" class="node">
<title>Node4</title>
<g id="a_Node000004"><a xlink:title=" ">
<polygon fill="white" stroke="#666666" points="679.5,-571 513.5,-571 513.5,-541 679.5,-541 679.5,-571"/>
<text text-anchor="start" x="521.5" y="-559" font-family="Helvetica,sans-Serif" font-size="10.00">boost::enable_shared</text>
<text text-anchor="middle" x="596.5" y="-548" font-family="Helvetica,sans-Serif" font-size="10.00">_from_this&lt; DeviceBackend &gt;</text>
</a>
</g>
</g>
<!-- Node4&#45;&gt;Node3 -->
<g id="edge3_Node000003_Node000004" class="edge">
<title>Node4&#45;&gt;Node3</title>
<g id="a_edge3_Node000003_Node000004"><a xlink:title=" ">
<path fill="none" stroke="#63b8ff" d="M690.15,-554.79C755.77,-553.93 842.67,-552.79 903.96,-551.98"/>
<polygon fill="#63b8ff" stroke="#63b8ff" points="689.76,-551.29 679.81,-554.92 689.86,-558.29 689.76,-551.29"/>
</a>
</g>
</g>
<!-- Node5 -->
<g id="Node000005" class="node">
<title>Node5</title>
<g id="a_Node000005"><a xlink:title=" ">
<polygon fill="white" stroke="#666666" points="840.5,-516.5 725.5,-516.5 725.5,-497.5 840.5,-497.5 840.5,-516.5"/>
<text text-anchor="middle" x="783" y="-504.5" font-family="Helvetica,sans-Serif" font-size="10.00">std::atomic&lt; bool &gt;</text>
</a>
</g>
</g>
<!-- Node5&#45;&gt;Node2 -->
<g id="edge4_Node000002_Node000005" class="edge">
<title>Node5&#45;&gt;Node2</title>
<g id="a_edge4_Node000002_Node000005"><a xlink:title=" ">
<path fill="none" stroke="#9a32cd" stroke-dasharray="5,2" d="M850.83,-504.45C945.48,-500.79 1123.97,-493.76 1276,-487 1281.84,-486.74 1287.87,-486.47 1293.94,-486.18"/>
<polygon fill="#9a32cd" stroke="#9a32cd" points="850.68,-500.95 840.83,-504.83 850.95,-507.94 850.68,-500.95"/>
</a>
</g>
<text text-anchor="middle" x="980" y="-506" font-family="Helvetica,sans-Serif" font-size="10.00" fill="grey"> _opened</text>
</g>
<!-- Node6 -->
<g id="Node000006" class="node">
<title>Node6</title>
<g id="a_Node000006"><a xlink:title=" ">
<polygon fill="white" stroke="#666666" points="318,-473.5 218,-473.5 218,-454.5 318,-454.5 318,-473.5"/>
<text text-anchor="middle" x="268" y="-461.5" font-family="Helvetica,sans-Serif" font-size="10.00">std::atomic&lt; T &gt;</text>
</a>
</g>
</g>
<!-- Node6&#45;&gt;Node5 -->
<g id="edge5_Node000005_Node000006" class="edge">
<title>Node6&#45;&gt;Node5</title>
<g id="a_edge5_Node000005_Node000006"><a xlink:title=" ">
<path fill="none" stroke="orange" stroke-dasharray="5,2" d="M328.42,-473.01C375.42,-479.81 442.76,-488.82 502,-494 579.2,-500.75 668.71,-504.13 725.33,-505.73"/>
<polygon fill="orange" stroke="orange" points="328.82,-469.53 318.42,-471.55 327.81,-476.46 328.82,-469.53"/>
</a>
</g>
<text text-anchor="middle" x="424.5" y="-495" font-family="Helvetica,sans-Serif" font-size="10.00" fill="grey"> &lt; bool &gt;</text>
</g>
<!-- Node7 -->
<g id="Node000007" class="node">
<title>Node7</title>
<g id="a_Node000007"><a xlink:title=" ">
<polygon fill="white" stroke="#666666" points="66.5,-241.5 37.5,-241.5 37.5,-222.5 66.5,-222.5 66.5,-241.5"/>
<text text-anchor="middle" x="52" y="-229.5" font-family="Helvetica,sans-Serif" font-size="10.00">T</text>
</a>
</g>
</g>
<!-- Node7&#45;&gt;Node6 -->
<g id="edge6_Node000006_Node000007" class="edge">
<title>Node7&#45;&gt;Node6</title>
<g id="a_edge6_Node000006_Node000007"><a xlink:title=" ">
<path fill="none" stroke="#9a32cd" stroke-dasharray="5,2" d="M68.95,-249.29C111.23,-295.13 225.21,-418.69 258.04,-454.29"/>
<polygon fill="#9a32cd" stroke="#9a32cd" points="71.28,-246.65 61.92,-241.67 66.13,-251.4 71.28,-246.65"/>
</a>
</g>
<text text-anchor="middle" x="146.5" y="-357" font-family="Helvetica,sans-Serif" font-size="10.00" fill="grey"> ptr</text>
</g>
<!-- Node12 -->
<g id="Node000012" class="node">
<title>Node12</title>
<g id="a_Node000012"><a xlink:title=" ">
<polygon fill="white" stroke="#666666" points="318.5,-241.5 217.5,-241.5 217.5,-222.5 318.5,-222.5 318.5,-241.5"/>
<text text-anchor="middle" x="268" y="-229.5" font-family="Helvetica,sans-Serif" font-size="10.00">std::map&lt; K, T &gt;</text>
</a>
</g>
</g>
<!-- Node7&#45;&gt;Node12 -->
<g id="edge13_Node000012_Node000007" class="edge">
<title>Node7&#45;&gt;Node12</title>
<g id="a_edge13_Node000012_Node000007"><a xlink:title=" ">
<path fill="none" stroke="#9a32cd" stroke-dasharray="5,2" d="M77.03,-232C110.88,-232 173.4,-232 217.45,-232"/>
<polygon fill="#9a32cd" stroke="#9a32cd" points="76.71,-228.5 66.71,-232 76.71,-235.5 76.71,-228.5"/>
</a>
</g>
<text text-anchor="middle" x="146.5" y="-235" font-family="Helvetica,sans-Serif" font-size="10.00" fill="grey"> elements</text>
</g>
<!-- Node22 -->
<g id="Node000022" class="node">
<title>Node22</title>
<g id="a_Node000022"><a xlink:title=" ">
<polygon fill="white" stroke="#666666" points="316.5,-191.5 219.5,-191.5 219.5,-172.5 316.5,-172.5 316.5,-191.5"/>
<text text-anchor="middle" x="268" y="-179.5" font-family="Helvetica,sans-Serif" font-size="10.00">std::vector&lt; T &gt;</text>
</a>
</g>
</g>
<!-- Node7&#45;&gt;Node22 -->
<g id="edge25_Node000022_Node000007" class="edge">
<title>Node7&#45;&gt;Node22</title>
<g id="a_edge25_Node000022_Node000007"><a xlink:title=" ">
<path fill="none" stroke="#9a32cd" stroke-dasharray="5,2" d="M76.8,-226.44C112.93,-218 182.06,-201.85 226.28,-191.51"/>
<polygon fill="#9a32cd" stroke="#9a32cd" points="75.65,-223.11 66.71,-228.8 77.25,-229.93 75.65,-223.11"/>
</a>
</g>
<text text-anchor="middle" x="146.5" y="-218" font-family="Helvetica,sans-Serif" font-size="10.00" fill="grey"> elements</text>
</g>
<!-- Node8 -->
<g id="Node000008" class="node">
<title>Node8</title>
<g id="a_Node000008"><a xlink:href="class_chimera_t_k_1_1async_1_1_domains_container.html" target="_top" xlink:title="The DomainsContainer has a container with Domains and is performing actions on all of them.">
<polygon fill="white" stroke="#666666" points="1057.5,-460 902.5,-460 902.5,-430 1057.5,-430 1057.5,-460"/>
<text text-anchor="start" x="910.5" y="-448" font-family="Helvetica,sans-Serif" font-size="10.00">ChimeraTK::async::Domains</text>
<text text-anchor="middle" x="980" y="-437" font-family="Helvetica,sans-Serif" font-size="10.00">Container</text>
</a>
</g>
</g>
<!-- Node8&#45;&gt;Node2 -->
<g id="edge7_Node000002_Node000008" class="edge">
<title>Node8&#45;&gt;Node2</title>
<g id="a_edge7_Node000002_Node000008"><a xlink:title=" ">
<path fill="none" stroke="#9a32cd" stroke-dasharray="5,2" d="M1067.95,-453.07C1135,-459.3 1227.22,-467.86 1293.92,-474.05"/>
<polygon fill="#9a32cd" stroke="#9a32cd" points="1068.12,-449.57 1057.83,-452.13 1067.47,-456.54 1068.12,-449.57"/>
</a>
</g>
<text text-anchor="middle" x="1189.5" y="-475" font-family="Helvetica,sans-Serif" font-size="10.00" fill="grey"> _asyncDomainsContainer</text>
</g>
<!-- Node9 -->
<g id="Node000009" class="node">
<title>Node9</title>
<g id="a_Node000009"><a xlink:title=" ">
<polygon fill="white" stroke="#666666" points="631,-484.5 562,-484.5 562,-465.5 631,-465.5 631,-484.5"/>
<text text-anchor="middle" x="596.5" y="-472.5" font-family="Helvetica,sans-Serif" font-size="10.00">std::thread</text>
</a>
</g>
</g>
<!-- Node9&#45;&gt;Node8 -->
<g id="edge8_Node000008_Node000009" class="edge">
<title>Node9&#45;&gt;Node8</title>
<g id="a_edge8_Node000008_Node000009"><a xlink:title=" ">
<path fill="none" stroke="#9a32cd" stroke-dasharray="5,2" d="M641.11,-471.57C704.68,-466.57 823.76,-457.21 902.22,-451.04"/>
<polygon fill="#9a32cd" stroke="#9a32cd" points="640.72,-468.09 631.02,-472.36 641.26,-475.07 640.72,-468.09"/>
</a>
</g>
<text text-anchor="middle" x="783" y="-469" font-family="Helvetica,sans-Serif" font-size="10.00" fill="grey"> _distributorThread</text>
</g>
<!-- Node10 -->
<g id="Node000010" class="node">
<title>Node10</title>
<g id="a_Node000010"><a xlink:title=" ">
<polygon fill="white" stroke="#666666" points="631,-388.5 562,-388.5 562,-369.5 631,-369.5 631,-388.5"/>
<text text-anchor="middle" x="596.5" y="-376.5" font-family="Helvetica,sans-Serif" font-size="10.00">std::mutex</text>
</a>
</g>
</g>
<!-- Node10&#45;&gt;Node1 -->
<g id="edge14_Node000001_Node000010" class="edge">
<title>Node10&#45;&gt;Node1</title>
<g id="a_edge14_Node000001_Node000010"><a xlink:title=" ">
<path fill="none" stroke="#9a32cd" stroke-dasharray="5,2" d="M641.39,-374.77C726.93,-366.35 921.86,-346.28 1085,-323 1276.88,-295.62 1503.67,-254.12 1602.62,-235.56"/>
<polygon fill="#9a32cd" stroke="#9a32cd" points="640.88,-371.31 631.27,-375.76 641.56,-378.27 640.88,-371.31"/>
</a>
</g>
<text text-anchor="middle" x="1189.5" y="-322" font-family="Helvetica,sans-Serif" font-size="10.00" fill="grey"> mutex</text>
</g>
<!-- Node10&#45;&gt;Node8 -->
<g id="edge9_Node000008_Node000010" class="edge">
<title>Node10&#45;&gt;Node8</title>
<g id="a_edge9_Node000008_Node000010"><a xlink:title=" ">
<path fill="none" stroke="#9a32cd" stroke-dasharray="5,2" d="M641.21,-380.8C693.13,-383.57 782.14,-390.31 857,-406 884.97,-411.86 915.6,-421.66 939.17,-429.97"/>
<polygon fill="#9a32cd" stroke="#9a32cd" points="641.18,-377.3 631.02,-380.29 640.83,-384.29 641.18,-377.3"/>
</a>
</g>
<text text-anchor="middle" x="783" y="-420" font-family="Helvetica,sans-Serif" font-size="10.00" fill="grey"> _domainsMutex</text>
<text text-anchor="middle" x="783" y="-409" font-family="Helvetica,sans-Serif" font-size="10.00" fill="grey">_threadCreationMutex</text>
</g>
<!-- Node11 -->
<g id="Node000011" class="node">
<title>Node11</title>
<g id="a_Node000011"><a xlink:title=" ">
<polygon fill="white" stroke="#666666" points="663,-447.5 530,-447.5 530,-406.5 663,-406.5 663,-447.5"/>
<text text-anchor="start" x="538" y="-435.5" font-family="Helvetica,sans-Serif" font-size="10.00">std::map&lt; size_t, boost</text>
<text text-anchor="start" x="538" y="-424.5" font-family="Helvetica,sans-Serif" font-size="10.00">::weak_ptr&lt; ChimeraTK</text>
<text text-anchor="middle" x="596.5" y="-413.5" font-family="Helvetica,sans-Serif" font-size="10.00">::async::Domain &gt; &gt;</text>
</a>
</g>
</g>
<!-- Node11&#45;&gt;Node8 -->
<g id="edge10_Node000008_Node000011" class="edge">
<title>Node11&#45;&gt;Node8</title>
<g id="a_edge10_Node000008_Node000011"><a xlink:title=" ">
<path fill="none" stroke="#9a32cd" stroke-dasharray="5,2" d="M673.48,-430.58C739.9,-433.72 835.89,-438.25 902.47,-441.39"/>
<polygon fill="#9a32cd" stroke="#9a32cd" points="673.24,-427.07 663.08,-430.09 672.91,-434.06 673.24,-427.07"/>
</a>
</g>
<text text-anchor="middle" x="783" y="-442" font-family="Helvetica,sans-Serif" font-size="10.00" fill="grey"> _domains</text>
</g>
<!-- Node12&#45;&gt;Node11 -->
<g id="edge11_Node000011_Node000012" class="edge">
<title>Node12&#45;&gt;Node11</title>
<g id="a_edge11_Node000011_Node000012"><a xlink:title=" ">
<path fill="none" stroke="orange" stroke-dasharray="5,2" d="M287.46,-248.34C325.23,-281.02 415.11,-354.96 502,-398 510.68,-402.3 520.13,-406.12 529.58,-409.47"/>
<polygon fill="orange" stroke="orange" points="289.65,-245.6 279.81,-241.67 285.05,-250.88 289.65,-245.6"/>
</a>
</g>
<text text-anchor="start" x="365" y="-412" font-family="Helvetica,sans-Serif" font-size="10.00" fill="grey"> &lt; size_t, boost::weak</text>
<text text-anchor="start" x="365" y="-401" font-family="Helvetica,sans-Serif" font-size="10.00" fill="grey">_ptr&lt; ChimeraTK::async</text>
<text text-anchor="middle" x="424.5" y="-390" font-family="Helvetica,sans-Serif" font-size="10.00" fill="grey">::Domain &gt; &gt;</text>
</g>
<!-- Node24 -->
<g id="Node000024" class="node">
<title>Node24</title>
<g id="a_Node000024"><a xlink:title=" ">
<polygon fill="white" stroke="#666666" points="1042.5,-246.5 917.5,-246.5 917.5,-205.5 1042.5,-205.5 1042.5,-246.5"/>
<text text-anchor="start" x="925.5" y="-234.5" font-family="Helvetica,sans-Serif" font-size="10.00">std::map&lt; ChimeraTK</text>
<text text-anchor="start" x="925.5" y="-223.5" font-family="Helvetica,sans-Serif" font-size="10.00">::RegisterPath, std</text>
<text text-anchor="middle" x="980" y="-212.5" font-family="Helvetica,sans-Serif" font-size="10.00">::vector&lt; size_t &gt; &gt;</text>
</a>
</g>
</g>
<!-- Node12&#45;&gt;Node24 -->
<g id="edge32_Node000024_Node000012" class="edge">
<title>Node12&#45;&gt;Node24</title>
<g id="a_edge32_Node000024_Node000012"><a xlink:title=" ">
<path fill="none" stroke="orange" stroke-dasharray="5,2" d="M328.77,-232.08C435.04,-232.13 663.88,-231.87 857,-229 876.6,-228.71 897.96,-228.24 917.25,-227.75"/>
<polygon fill="orange" stroke="orange" points="328.57,-228.58 318.56,-232.07 328.56,-235.58 328.57,-228.58"/>
</a>
</g>
<text text-anchor="start" x="527" y="-245" font-family="Helvetica,sans-Serif" font-size="10.00" fill="grey"> &lt; ChimeraTK::RegisterPath,</text>
<text text-anchor="middle" x="596.5" y="-234" font-family="Helvetica,sans-Serif" font-size="10.00" fill="grey"> std::vector&lt; size_t &gt; &gt;</text>
</g>
<!-- Node27 -->
<g id="Node000027" class="node">
<title>Node27</title>
<g id="a_Node000027"><a xlink:title=" ">
<polygon fill="white" stroke="#666666" points="657.5,-73 535.5,-73 535.5,-43 657.5,-43 657.5,-73"/>
<text text-anchor="start" x="543.5" y="-61" font-family="Helvetica,sans-Serif" font-size="10.00">std::map&lt; std::string,</text>
<text text-anchor="middle" x="596.5" y="-50" font-family="Helvetica,sans-Serif" font-size="10.00"> std::string &gt;</text>
</a>
</g>
</g>
<!-- Node12&#45;&gt;Node27 -->
<g id="edge36_Node000027_Node000012" class="edge">
<title>Node12&#45;&gt;Node27</title>
<g id="a_edge36_Node000027_Node000012"><a xlink:title=" ">
<path fill="none" stroke="orange" stroke-dasharray="5,2" d="M313.29,-219.84C329.5,-215.55 348.03,-210.85 365,-207 417.54,-195.1 446.05,-222.23 484,-184 514.89,-152.88 472.87,-119.77 502,-87 510.7,-77.22 522.62,-70.7 535.04,-66.36"/>
<polygon fill="orange" stroke="orange" points="312.29,-216.48 303.53,-222.44 314.09,-223.24 312.29,-216.48"/>
</a>
</g>
<text text-anchor="start" x="382" y="-221" font-family="Helvetica,sans-Serif" font-size="10.00" fill="grey"> &lt; std::string, std</text>
<text text-anchor="middle" x="424.5" y="-210" font-family="Helvetica,sans-Serif" font-size="10.00" fill="grey">::string &gt;</text>
</g>
<!-- Node13 -->
<g id="Node000013" class="node">
<title>Node13</title>
<g id="a_Node000013"><a xlink:title=" ">
<polygon fill="white" stroke="#666666" points="66.5,-142.5 37.5,-142.5 37.5,-123.5 66.5,-123.5 66.5,-142.5"/>
<text text-anchor="middle" x="52" y="-130.5" font-family="Helvetica,sans-Serif" font-size="10.00">K</text>
</a>
</g>
</g>
<!-- Node13&#45;&gt;Node12 -->
<g id="edge12_Node000012_Node000013" class="edge">
<title>Node13&#45;&gt;Node12</title>
<g id="a_edge12_Node000012_Node000013"><a xlink:title=" ">
<path fill="none" stroke="#9a32cd" stroke-dasharray="5,2" d="M76.01,-143.3C100.04,-154.24 138.67,-172.37 171,-190 179.23,-194.49 180.61,-196.81 189,-201 205.42,-209.21 224.58,-216.85 239.79,-222.49"/>
<polygon fill="#9a32cd" stroke="#9a32cd" points="77.22,-140 66.67,-139.07 74.34,-146.38 77.22,-140"/>
</a>
</g>
<text text-anchor="middle" x="146.5" y="-193" font-family="Helvetica,sans-Serif" font-size="10.00" fill="grey"> keys</text>
</g>
<!-- Node23 -->
<g id="Node000023" class="node">
<title>Node23</title>
<g id="a_Node000023"><a xlink:title=" ">
<polygon fill="white" stroke="#666666" points="465.5,-103.5 383.5,-103.5 383.5,-84.5 465.5,-84.5 465.5,-103.5"/>
<text text-anchor="middle" x="424.5" y="-91.5" font-family="Helvetica,sans-Serif" font-size="10.00">std::set&lt; K &gt;</text>
</a>
</g>
</g>
<!-- Node13&#45;&gt;Node23 -->
<g id="edge27_Node000023_Node000013" class="edge">
<title>Node13&#45;&gt;Node23</title>
<g id="a_edge27_Node000023_Node000013"><a xlink:title=" ">
<path fill="none" stroke="#9a32cd" stroke-dasharray="5,2" d="M76.58,-130.52C138.43,-124.01 305.85,-106.38 383.25,-98.24"/>
<polygon fill="#9a32cd" stroke="#9a32cd" points="76.2,-127.04 66.63,-131.57 76.94,-134 76.2,-127.04"/>
</a>
</g>
<text text-anchor="middle" x="146.5" y="-128" font-family="Helvetica,sans-Serif" font-size="10.00" fill="grey"> keys</text>
</g>
<!-- Node14 -->
<g id="Node000014" class="node">
<title>Node14</title>
<g id="a_Node000014"><a xlink:title=" ">
<polygon fill="white" stroke="#666666" points="300.5,-66.5 235.5,-66.5 235.5,-47.5 300.5,-47.5 300.5,-66.5"/>
<text text-anchor="middle" x="268" y="-54.5" font-family="Helvetica,sans-Serif" font-size="10.00">std::string</text>
</a>
</g>
</g>
<!-- Node14&#45;&gt;Node1 -->
<g id="edge15_Node000001_Node000014" class="edge">
<title>Node14&#45;&gt;Node1</title>
<g id="a_edge15_Node000001_Node000014"><a xlink:title=" ">
<path fill="none" stroke="#9a32cd" stroke-dasharray="5,2" d="M310.39,-45.04C371.98,-28.32 491.66,0 595.5,0 595.5,0 595.5,0 1381.5,0 1518.88,0 1623.71,-173.03 1647.77,-216.29"/>
<polygon fill="#9a32cd" stroke="#9a32cd" points="309.37,-41.69 300.66,-47.72 311.23,-48.44 309.37,-41.69"/>
</a>
</g>
<text text-anchor="middle" x="980" y="-47" font-family="Helvetica,sans-Serif" font-size="10.00" fill="grey"> targetAddress</text>
<text text-anchor="middle" x="980" y="-36" font-family="Helvetica,sans-Serif" font-size="10.00" fill="grey">targetAlias</text>
<text text-anchor="middle" x="980" y="-25" font-family="Helvetica,sans-Serif" font-size="10.00" fill="grey">targetArea</text>
<text text-anchor="middle" x="980" y="-14" font-family="Helvetica,sans-Serif" font-size="10.00" fill="grey">targetControl</text>
<text text-anchor="middle" x="980" y="-3" font-family="Helvetica,sans-Serif" font-size="10.00" fill="grey">targetData</text>
</g>
<!-- Node25 -->
<g id="Node000025" class="node">
<title>Node25</title>
<g id="a_Node000025"><a xlink:href="class_chimera_t_k_1_1_register_path.html" target="_top" xlink:title="Class to store a register path name.">
<polygon fill="white" stroke="#666666" points="665.5,-168.5 527.5,-168.5 527.5,-149.5 665.5,-149.5 665.5,-168.5"/>
<text text-anchor="middle" x="596.5" y="-156.5" font-family="Helvetica,sans-Serif" font-size="10.00">ChimeraTK::RegisterPath</text>
</a>
</g>
</g>
<!-- Node14&#45;&gt;Node25 -->
<g id="edge30_Node000025_Node000014" class="edge">
<title>Node14&#45;&gt;Node25</title>
<g id="a_edge30_Node000025_Node000014"><a xlink:title=" ">
<path fill="none" stroke="#9a32cd" stroke-dasharray="5,2" d="M294.01,-71.54C312.97,-82.05 339.96,-95.95 365,-105 422.59,-125.82 491.23,-140.7 538.54,-149.5"/>
<polygon fill="#9a32cd" stroke="#9a32cd" points="295.56,-68.39 285.13,-66.53 292.12,-74.49 295.56,-68.39"/>
</a>
</g>
<text text-anchor="middle" x="424.5" y="-152" font-family="Helvetica,sans-Serif" font-size="10.00" fill="grey"> path</text>
<text text-anchor="middle" x="424.5" y="-141" font-family="Helvetica,sans-Serif" font-size="10.00" fill="grey">separator_alt</text>
</g>
<!-- Node14&#45;&gt;Node27 -->
<g id="edge35_Node000027_Node000014" class="edge">
<title>Node14&#45;&gt;Node27</title>
<g id="a_edge35_Node000027_Node000014"><a xlink:title=" ">
<path fill="none" stroke="#9a32cd" stroke-dasharray="5,2" d="M310.65,-54.89C327.52,-54.13 347.18,-53.37 365,-53 417.88,-51.9 431.12,-51.82 484,-53 500.66,-53.37 518.71,-54.06 535.34,-54.81"/>
<polygon fill="#9a32cd" stroke="#9a32cd" points="310.38,-51.39 300.55,-55.35 310.7,-58.39 310.38,-51.39"/>
</a>
</g>
<text text-anchor="middle" x="424.5" y="-67" font-family="Helvetica,sans-Serif" font-size="10.00" fill="grey"> elements</text>
<text text-anchor="middle" x="424.5" y="-56" font-family="Helvetica,sans-Serif" font-size="10.00" fill="grey">keys</text>
</g>
<!-- Node15 -->
<g id="Node000015" class="node">
<title>Node15</title>
<g id="a_Node000015"><a xlink:title=" ">
<polygon fill="white" stroke="#666666" points="104,-72 0,-72 0,-42 104,-42 104,-72"/>
<text text-anchor="start" x="8" y="-60" font-family="Helvetica,sans-Serif" font-size="10.00">std::basic_string&lt;</text>
<text text-anchor="middle" x="52" y="-49" font-family="Helvetica,sans-Serif" font-size="10.00"> Char &gt;</text>
</a>
</g>
</g>
<!-- Node15&#45;&gt;Node14 -->
<g id="edge16_Node000014_Node000015" class="edge">
<title>Node15&#45;&gt;Node14</title>
<g id="a_edge16_Node000014_Node000015"><a xlink:title=" ">
<path fill="none" stroke="#63b8ff" d="M114.33,-57C153.87,-57 203.64,-57 235.4,-57"/>
<polygon fill="#63b8ff" stroke="#63b8ff" points="114.26,-53.5 104.26,-57 114.26,-60.5 114.26,-53.5"/>
</a>
</g>
</g>
<!-- Node16 -->
<g id="Node000016" class="node">
<title>Node16</title>
<g id="a_Node000016"><a xlink:href="class_chimera_t_k_1_1_numeric_addressed_register_catalogue.html" target="_top" xlink:title=" ">
<polygon fill="white" stroke="#666666" points="1465,-241 1296,-241 1296,-211 1465,-211 1465,-241"/>
<text text-anchor="start" x="1304" y="-229" font-family="Helvetica,sans-Serif" font-size="10.00">ChimeraTK::NumericAddressed</text>
<text text-anchor="middle" x="1380.5" y="-218" font-family="Helvetica,sans-Serif" font-size="10.00">RegisterCatalogue</text>
</a>
</g>
</g>
<!-- Node16&#45;&gt;Node1 -->
<g id="edge17_Node000001_Node000016" class="edge">
<title>Node16&#45;&gt;Node1</title>
<g id="a_edge17_Node000001_Node000016"><a xlink:title=" ">
<path fill="none" stroke="#9a32cd" stroke-dasharray="5,2" d="M1475.43,-226C1506.05,-226 1539.81,-226 1569.6,-226"/>
<polygon fill="#9a32cd" stroke="#9a32cd" points="1475.17,-222.5 1465.17,-226 1475.17,-229.5 1475.17,-222.5"/>
</a>
</g>
<text text-anchor="middle" x="1518.5" y="-229" font-family="Helvetica,sans-Serif" font-size="10.00" fill="grey"> _registerMap</text>
</g>
<!-- Node17 -->
<g id="Node000017" class="node">
<title>Node17</title>
<g id="a_Node000017"><a xlink:href="class_chimera_t_k_1_1_backend_register_catalogue.html" target="_top" xlink:title=" ">
<polygon fill="white" stroke="#666666" points="1085,-313.5 875,-313.5 875,-272.5 1085,-272.5 1085,-313.5"/>
<text text-anchor="start" x="883" y="-301.5" font-family="Helvetica,sans-Serif" font-size="10.00">ChimeraTK::BackendRegister</text>
<text text-anchor="start" x="883" y="-290.5" font-family="Helvetica,sans-Serif" font-size="10.00">Catalogue&lt; NumericAddressedRegister</text>
<text text-anchor="middle" x="980" y="-279.5" font-family="Helvetica,sans-Serif" font-size="10.00">Info &gt;</text>
</a>
</g>
</g>
<!-- Node17&#45;&gt;Node16 -->
<g id="edge18_Node000016_Node000017" class="edge">
<title>Node17&#45;&gt;Node16</title>
<g id="a_edge18_Node000016_Node000017"><a xlink:title=" ">
<path fill="none" stroke="#63b8ff" d="M1095.33,-273.78C1159.35,-263.01 1237.77,-249.83 1296,-240.04"/>
<polygon fill="#63b8ff" stroke="#63b8ff" points="1094.46,-270.37 1085.18,-275.48 1095.62,-277.28 1094.46,-270.37"/>
</a>
</g>
</g>
<!-- Node18 -->
<g id="Node000018" class="node">
<title>Node18</title>
<g id="a_Node000018"><a xlink:href="class_chimera_t_k_1_1_backend_register_catalogue_base.html" target="_top" xlink:title="Pure virtual implementation base class for the register catalogue.">
<polygon fill="white" stroke="#666666" points="347,-348 189,-348 189,-318 347,-318 347,-348"/>
<text text-anchor="start" x="197" y="-336" font-family="Helvetica,sans-Serif" font-size="10.00">ChimeraTK::BackendRegister</text>
<text text-anchor="middle" x="268" y="-325" font-family="Helvetica,sans-Serif" font-size="10.00">CatalogueBase</text>
</a>
</g>
</g>
<!-- Node18&#45;&gt;Node17 -->
<g id="edge19_Node000017_Node000018" class="edge">
<title>Node18&#45;&gt;Node17</title>
<g id="a_edge19_Node000017_Node000018"><a xlink:title=" ">
<path fill="none" stroke="#63b8ff" d="M336.01,-315.89C345.69,-313.93 355.56,-312.21 365,-311 542.98,-288.22 752.23,-287.61 874.77,-289.87"/>
<polygon fill="#63b8ff" stroke="#63b8ff" points="335.09,-312.51 326.03,-318 336.54,-319.35 335.09,-312.51"/>
</a>
</g>
</g>
<!-- Node19 -->
<g id="Node000019" class="node">
<title>Node19</title>
<g id="a_Node000019"><a xlink:href="class_chimera_t_k_1_1_backend_register_catalogue.html" target="_top" xlink:title="Interface for backends to the register catalogue.">
<polygon fill="white" stroke="#666666" points="691,-351 502,-351 502,-321 691,-321 691,-351"/>
<text text-anchor="start" x="510" y="-339" font-family="Helvetica,sans-Serif" font-size="10.00">ChimeraTK::BackendRegister</text>
<text text-anchor="middle" x="596.5" y="-328" font-family="Helvetica,sans-Serif" font-size="10.00">Catalogue&lt; BackendRegisterInfo &gt;</text>
</a>
</g>
</g>
<!-- Node18&#45;&gt;Node19 -->
<g id="edge21_Node000019_Node000018" class="edge">
<title>Node18&#45;&gt;Node19</title>
<g id="a_edge21_Node000019_Node000018"><a xlink:title=" ">
<path fill="none" stroke="#63b8ff" d="M322.64,-350.88C336.3,-354.65 351.06,-358.08 365,-360 417.39,-367.23 431.41,-365.6 484,-360 501.33,-358.16 519.92,-354.74 536.85,-351.06"/>
<polygon fill="#63b8ff" stroke="#63b8ff" points="323.49,-347.48 312.91,-348.08 321.55,-354.21 323.49,-347.48"/>
</a>
</g>
</g>
<!-- Node19&#45;&gt;Node17 -->
<g id="edge20_Node000017_Node000019" class="edge">
<title>Node19&#45;&gt;Node17</title>
<g id="a_edge20_Node000017_Node000019"><a xlink:title=" ">
<path fill="none" stroke="orange" stroke-dasharray="5,2" d="M701.57,-324.27C755.41,-318.2 820.94,-310.82 874.8,-304.75"/>
<polygon fill="orange" stroke="orange" points="700.86,-320.83 691.31,-325.43 701.64,-327.78 700.86,-320.83"/>
</a>
</g>
<text text-anchor="start" x="709" y="-337" font-family="Helvetica,sans-Serif" font-size="10.00" fill="grey"> &lt; NumericAddressedRegister</text>
<text text-anchor="middle" x="783" y="-326" font-family="Helvetica,sans-Serif" font-size="10.00" fill="grey">Info &gt;</text>
</g>
<!-- Node20 -->
<g id="Node000020" class="node">
<title>Node20</title>
<g id="a_Node000020"><a xlink:title=" ">
<polygon fill="white" stroke="#666666" points="1038,-187 922,-187 922,-157 1038,-157 1038,-187"/>
<text text-anchor="start" x="930" y="-175" font-family="Helvetica,sans-Serif" font-size="10.00">std::set&lt; std::vector</text>
<text text-anchor="middle" x="980" y="-164" font-family="Helvetica,sans-Serif" font-size="10.00">&lt; size_t &gt; &gt;</text>
</a>
</g>
</g>
<!-- Node20&#45;&gt;Node16 -->
<g id="edge22_Node000016_Node000020" class="edge">
<title>Node20&#45;&gt;Node16</title>
<g id="a_edge22_Node000016_Node000020"><a xlink:title=" ">
<path fill="none" stroke="#9a32cd" stroke-dasharray="5,2" d="M1048.2,-180.64C1108.02,-188.39 1197.88,-200.18 1276,-211 1282.47,-211.9 1289.17,-212.84 1295.91,-213.79"/>
<polygon fill="#9a32cd" stroke="#9a32cd" points="1048.5,-177.15 1038.13,-179.34 1047.6,-184.09 1048.5,-177.15"/>
</a>
</g>
<text text-anchor="middle" x="1189.5" y="-214" font-family="Helvetica,sans-Serif" font-size="10.00" fill="grey"> _listOfInterrupts</text>
</g>
<!-- Node21 -->
<g id="Node000021" class="node">
<title>Node21</title>
<g id="a_Node000021"><a xlink:title=" ">
<polygon fill="white" stroke="#666666" points="656,-205.5 537,-205.5 537,-186.5 656,-186.5 656,-205.5"/>
<text text-anchor="middle" x="596.5" y="-193.5" font-family="Helvetica,sans-Serif" font-size="10.00">std::vector&lt; size_t &gt;</text>
</a>
</g>
</g>
<!-- Node21&#45;&gt;Node20 -->
<g id="edge23_Node000020_Node000021" class="edge">
<title>Node21&#45;&gt;Node20</title>
<g id="a_edge23_Node000020_Node000021"><a xlink:title=" ">
<path fill="none" stroke="#9a32cd" stroke-dasharray="5,2" d="M666.31,-187.91C680.41,-186.44 695.17,-185.05 709,-184 782.34,-178.43 867.09,-175.18 921.79,-173.5"/>
<polygon fill="#9a32cd" stroke="#9a32cd" points="665.75,-184.45 656.17,-188.99 666.48,-191.41 665.75,-184.45"/>
</a>
</g>
<text text-anchor="middle" x="783" y="-187" font-family="Helvetica,sans-Serif" font-size="10.00" fill="grey"> keys</text>
</g>
<!-- Node21&#45;&gt;Node24 -->
<g id="edge31_Node000024_Node000021" class="edge">
<title>Node21&#45;&gt;Node24</title>
<g id="a_edge31_Node000024_Node000021"><a xlink:title=" ">
<path fill="none" stroke="#9a32cd" stroke-dasharray="5,2" d="M666.53,-201.43C738.01,-207.05 848.66,-215.75 917.31,-221.15"/>
<polygon fill="#9a32cd" stroke="#9a32cd" points="666.52,-197.92 656.27,-200.62 665.97,-204.9 666.52,-197.92"/>
</a>
</g>
<text text-anchor="middle" x="783" y="-219" font-family="Helvetica,sans-Serif" font-size="10.00" fill="grey"> elements</text>
</g>
<!-- Node22&#45;&gt;Node21 -->
<g id="edge24_Node000021_Node000022" class="edge">
<title>Node22&#45;&gt;Node21</title>
<g id="a_edge24_Node000021_Node000022"><a xlink:title=" ">
<path fill="none" stroke="orange" stroke-dasharray="5,2" d="M327.1,-175.67C339.59,-174.56 352.72,-173.57 365,-173 417.83,-170.53 431.6,-165.86 484,-173 492.23,-174.12 493.92,-176.1 502,-178 514.87,-181.02 528.83,-183.91 541.94,-186.46"/>
<polygon fill="orange" stroke="orange" points="326.42,-172.22 316.79,-176.63 327.07,-179.19 326.42,-172.22"/>
</a>
</g>
<text text-anchor="middle" x="424.5" y="-176" font-family="Helvetica,sans-Serif" font-size="10.00" fill="grey"> &lt; size_t &gt;</text>
</g>
<!-- Node23&#45;&gt;Node20 -->
<g id="edge26_Node000020_Node000023" class="edge">
<title>Node23&#45;&gt;Node20</title>
<g id="a_edge26_Node000020_Node000023"><a xlink:title=" ">
<path fill="none" stroke="orange" stroke-dasharray="5,2" d="M476,-93.64C557.23,-94.02 721.5,-98.78 857,-128 887.59,-134.6 920.93,-147 945.02,-156.96"/>
<polygon fill="orange" stroke="orange" points="475.58,-90.14 465.58,-93.61 475.57,-97.14 475.58,-90.14"/>
</a>
</g>
<text text-anchor="start" x="548" y="-117" font-family="Helvetica,sans-Serif" font-size="10.00" fill="grey"> &lt; std::vector&lt; size</text>
<text text-anchor="middle" x="596.5" y="-106" font-family="Helvetica,sans-Serif" font-size="10.00" fill="grey">_t &gt; &gt;</text>
</g>
<!-- Node24&#45;&gt;Node16 -->
<g id="edge28_Node000016_Node000024" class="edge">
<title>Node24&#45;&gt;Node16</title>
<g id="a_edge28_Node000016_Node000024"><a xlink:title=" ">
<path fill="none" stroke="#9a32cd" stroke-dasharray="5,2" d="M1053.06,-226C1121.31,-226 1223.77,-226 1295.65,-226"/>
<polygon fill="#9a32cd" stroke="#9a32cd" points="1052.83,-222.5 1042.83,-226 1052.83,-229.5 1052.83,-222.5"/>
</a>
</g>
<text text-anchor="middle" x="1189.5" y="-229" font-family="Helvetica,sans-Serif" font-size="10.00" fill="grey"> _canonicalInterrupts</text>
</g>
<!-- Node25&#45;&gt;Node24 -->
<g id="edge29_Node000024_Node000025" class="edge">
<title>Node25&#45;&gt;Node24</title>
<g id="a_edge29_Node000024_Node000025"><a xlink:title=" ">
<path fill="none" stroke="#9a32cd" stroke-dasharray="5,2" d="M638.25,-146.91C692.6,-133.34 789.75,-118.26 857,-160 872.2,-169.43 861.25,-184.56 875,-196 887.06,-206.04 902.32,-212.72 917.4,-217.16"/>
<polygon fill="#9a32cd" stroke="#9a32cd" points="637.09,-143.59 628.29,-149.5 638.85,-150.37 637.09,-143.59"/>
</a>
</g>
<text text-anchor="middle" x="783" y="-163" font-family="Helvetica,sans-Serif" font-size="10.00" fill="grey"> keys</text>
</g>
<!-- Node26 -->
<g id="Node000026" class="node">
<title>Node26</title>
<g id="a_Node000026"><a xlink:href="class_chimera_t_k_1_1_metadata_catalogue.html" target="_top" xlink:title="Container for backend metadata.">
<polygon fill="white" stroke="#666666" points="1276,-117.5 1103,-117.5 1103,-98.5 1276,-98.5 1276,-117.5"/>
<text text-anchor="middle" x="1189.5" y="-105.5" font-family="Helvetica,sans-Serif" font-size="10.00">ChimeraTK::MetadataCatalogue</text>
</a>
</g>
</g>
<!-- Node26&#45;&gt;Node1 -->
<g id="edge33_Node000001_Node000026" class="edge">
<title>Node26&#45;&gt;Node1</title>
<g id="a_edge33_Node000001_Node000026"><a xlink:title=" ">
<path fill="none" stroke="#9a32cd" stroke-dasharray="5,2" d="M1237.85,-120.08C1330.03,-143.6 1531.86,-195.09 1615.52,-216.44"/>
<polygon fill="#9a32cd" stroke="#9a32cd" points="1238.51,-116.64 1227.96,-117.56 1236.78,-123.42 1238.51,-116.64"/>
</a>
</g>
<text text-anchor="middle" x="1380.5" y="-180" font-family="Helvetica,sans-Serif" font-size="10.00" fill="grey"> _metadataCatalogue</text>
</g>
<!-- Node27&#45;&gt;Node26 -->
<g id="edge34_Node000026_Node000027" class="edge">
<title>Node27&#45;&gt;Node26</title>
<g id="a_edge34_Node000026_Node000027"><a xlink:title=" ">
<path fill="none" stroke="#9a32cd" stroke-dasharray="5,2" d="M667.91,-63.96C776.74,-73.16 985.49,-90.82 1102.89,-100.76"/>
<polygon fill="#9a32cd" stroke="#9a32cd" points="667.95,-60.45 657.7,-63.09 667.36,-67.42 667.95,-60.45"/>
</a>
</g>
<text text-anchor="middle" x="783" y="-83" font-family="Helvetica,sans-Serif" font-size="10.00" fill="grey"> metadata</text>
</g>
</g>
</svg>

<g id="navigator" transform="translate(0 0)" fill="#404254">
  <rect fill="#f2f5e9" fill-opacity="0.5" stroke="#606060" stroke-width=".5" x="0" y="0" width="60" height="60"/>
  <use id="zoomplus" xlink:href="#zoomPlus" x="17" y="9" onmousedown="handleZoom(evt,'in')"/>
  <use id="zoomminus" xlink:href="#zoomMin" x="42" y="9" onmousedown="handleZoom(evt,'out')"/>
  <use id="reset" xlink:href="#resetDef" x="30" y="36" onmousedown="handleReset()"/>
   <use id="arrowup" xlink:href="#arrowUp" x="0" y="0" onmousedown="handlePan(0,-1)"/>
  <use id="arrowright" xlink:href="#arrowRight" x="0" y="0" onmousedown="handlePan(1,0)"/>
  <use id="arrowdown" xlink:href="#arrowDown" x="0" y="0" onmousedown="handlePan(0,1)"/>
  <use id="arrowleft" xlink:href="#arrowLeft" x="0" y="0" onmousedown="handlePan(-1,0)"/>
</g>
<svg viewBox="0 0 15 15" width="100%" height="30px" preserveAspectRatio="xMaxYMin meet">
 <g id="arrow_out" transform="scale(0.3 0.3)">
  <a xlink:href="class_chimera_t_k_1_1_subdevice_backend__coll__graph_org.svg" target="_base">
   <rect id="button" ry="5" rx="5" y="6" x="6" height="38" width="38"
        fill="#f2f5e9" fill-opacity="0.5" stroke="#606060" stroke-width="1.0"/>
   <path id="arrow"
     d="M 11.500037,31.436501 C 11.940474,20.09759 22.043105,11.32322 32.158766,21.979434 L 37.068811,17.246167 C 37.068811,17.246167 37.088388,32 37.088388,32 L 22.160133,31.978069 C 22.160133,31.978069 26.997745,27.140456 26.997745,27.140456 C 18.528582,18.264221 13.291696,25.230495 11.500037,31.436501 z"
     style="fill:#404040;"/>
  </a>
 </g>
</svg>

<style type='text/css'>
<![CDATA[
[data-mouse-over-selected='false'] { opacity: 0.7; }
[data-mouse-over-selected='true']  { opacity: 1.0; }
]]>
</style>
<script type="application/ecmascript"><![CDATA[
document.addEventListener('DOMContentLoaded', (event) => {
  highlightEdges();
  highlightAdjacentNodes();
});
]]></script>
</svg>
