<?xml version="1.0" encoding="UTF-8" standalone="no"?>
<!DOCTYPE svg PUBLIC "-//W3C//DTD SVG 1.1//EN"
 "http://www.w3.org/Graphics/SVG/1.1/DTD/svg11.dtd">
<!-- Generated by graphviz version 2.43.0 (0)
 -->
<!-- Title: ChimeraTK::TransferElementAbstractor::isReadOnly Pages: 1 -->
<svg width="358pt" height="138pt"
 viewBox="0.00 0.00 358.00 138.00" xmlns="http://www.w3.org/2000/svg" xmlns:xlink="http://www.w3.org/1999/xlink">
<g id="graph0" class="graph" transform="scale(1 1) rotate(0) translate(4 134)">
<title>ChimeraTK::TransferElementAbstractor::isReadOnly</title>
<!-- Node1 -->
<g id="Node000001" class="node">
<title>Node1</title>
<g id="a_Node000001"><a xlink:title="Check if transfer element is read only, i.e.">
<polygon fill="#999999" stroke="#666666" points="350,-79.5 194,-79.5 194,-49.5 350,-49.5 350,-79.5"/>
<text text-anchor="start" x="202" y="-67.5" font-family="Helvetica,sans-Serif" font-size="10.00">ChimeraTK::TransferElement</text>
<text text-anchor="middle" x="272" y="-56.5" font-family="Helvetica,sans-Serif" font-size="10.00">Abstractor::isReadOnly</text>
</a>
</g>
</g>
<!-- Node2 -->
<g id="Node000002" class="node">
<title>Node2</title>
<g id="a_Node000002"><a xlink:href="test_scalar_register_accessor_8cpp.html#af6690df3622b4b8fc105f750a010295b" target="_top" xlink:title=" ">
<polygon fill="white" stroke="#666666" points="150.5,-130 7.5,-130 7.5,-111 150.5,-111 150.5,-130"/>
<text text-anchor="middle" x="79" y="-118" font-family="Helvetica,sans-Serif" font-size="10.00">BOOST_AUTO_TEST_CASE</text>
</a>
</g>
</g>
<!-- Node1&#45;&gt;Node2 -->
<g id="edge1_Node000001_Node000002" class="edge">
<title>Node1&#45;&gt;Node2</title>
<g id="a_edge1_Node000001_Node000002"><a xlink:title=" ">
<path fill="none" stroke="#63b8ff" d="M219.95,-82.85C200.66,-89.46 178.45,-96.72 158,-102.5 147.3,-105.53 135.67,-108.42 124.74,-110.96"/>
<polygon fill="#63b8ff" stroke="#63b8ff" points="221.14,-86.14 229.45,-79.56 218.85,-79.52 221.14,-86.14"/>
</a>
</g>
</g>
<!-- Node3 -->
<g id="Node000003" class="node">
<title>Node3</title>
<g id="a_Node000003"><a xlink:href="test_scalar_register_accessor_8cpp.html#a9c7472be28750be4f6b851c8fa4bd6e0" target="_top" xlink:title=" ">
<polygon fill="white" stroke="#666666" points="150.5,-93 7.5,-93 7.5,-74 150.5,-74 150.5,-93"/>
<text text-anchor="middle" x="79" y="-81" font-family="Helvetica,sans-Serif" font-size="10.00">BOOST_AUTO_TEST_CASE</text>
</a>
</g>
</g>
<!-- Node1&#45;&gt;Node3 -->
<g id="edge2_Node000001_Node000003" class="edge">
<title>Node1&#45;&gt;Node3</title>
<g id="a_edge2_Node000001_Node000003"><a xlink:title=" ">
<path fill="none" stroke="#63b8ff" d="M183.74,-73.18C172.65,-74.28 161.42,-75.4 150.64,-76.47"/>
<polygon fill="#63b8ff" stroke="#63b8ff" points="184.26,-76.65 193.86,-72.17 183.57,-69.68 184.26,-76.65"/>
</a>
</g>
</g>
<!-- Node4 -->
<g id="Node000004" class="node">
<title>Node4</title>
<g id="a_Node000004"><a xlink:href="test_one_d_register_accessor_8cpp.html#a3abad4167f500281be21c0a433684a42" target="_top" xlink:title=" ">
<polygon fill="white" stroke="#666666" points="158,-56 0,-56 0,-37 158,-37 158,-56"/>
<text text-anchor="middle" x="79" y="-44" font-family="Helvetica,sans-Serif" font-size="10.00">BOOST_FIXTURE_TEST_CASE</text>
</a>
</g>
</g>
<!-- Node1&#45;&gt;Node4 -->
<g id="edge3_Node000001_Node000004" class="edge">
<title>Node1&#45;&gt;Node4</title>
<g id="a_edge3_Node000001_Node000004"><a xlink:title=" ">
<path fill="none" stroke="#63b8ff" d="M183.83,-56.28C175.23,-55.47 166.54,-54.66 158.05,-53.86"/>
<polygon fill="#63b8ff" stroke="#63b8ff" points="183.58,-59.78 193.86,-57.23 184.24,-52.81 183.58,-59.78"/>
</a>
</g>
</g>
<!-- Node5 -->
<g id="Node000005" class="node">
<title>Node5</title>
<g id="a_Node000005"><a xlink:href="test_multiplexed_data_accesor_8cpp.html#a4e259e782eacba96582d3818f2a92987" target="_top" xlink:title=" ">
<polygon fill="white" stroke="#666666" points="134,-19 24,-19 24,0 134,0 134,-19"/>
<text text-anchor="middle" x="79" y="-7" font-family="Helvetica,sans-Serif" font-size="10.00">testDeMultiplexing</text>
</a>
</g>
</g>
<!-- Node1&#45;&gt;Node5 -->
<g id="edge4_Node000001_Node000005" class="edge">
<title>Node1&#45;&gt;Node5</title>
<g id="a_edge4_Node000001_Node000005"><a xlink:title=" ">
<path fill="none" stroke="#63b8ff" d="M216.42,-46.27C197.95,-40.32 177.16,-33.88 158,-28.5 146.19,-25.19 133.28,-21.9 121.43,-19.03"/>
<polygon fill="#63b8ff" stroke="#63b8ff" points="215.53,-49.66 226.13,-49.41 217.69,-43 215.53,-49.66"/>
</a>
</g>
</g>
</g>
</svg>
