<?xml version="1.0" encoding="UTF-8" standalone="no"?>
<!DOCTYPE svg PUBLIC "-//W3C//DTD SVG 1.1//EN"
 "http://www.w3.org/Graphics/SVG/1.1/DTD/svg11.dtd">
<!-- Generated by graphviz version 2.43.0 (0)
 -->
<!-- Title: ChimeraTK::proxies::RawConverterCapsule&lt; UserType &gt; Pages: 1 -->
<!--zoomable 570 -->

<svg id="main" version="1.1" xmlns="http://www.w3.org/2000/svg" xmlns:xlink="http://www.w3.org/1999/xlink" xml:space="preserve" onload="init(evt)">
<style type="text/css"><![CDATA[
.node, .edge {opacity: 0.7;}
.node.selected, .edge.selected {opacity: 1;}
.edge:hover path { stroke: red; }
.edge:hover polygon { stroke: red; fill: red; }
]]></style>

<defs>
  <circle id="rim" cx="0" cy="0" r="7"/>
  <circle id="rim2" cx="0" cy="0" r="3.5"/>
  <g id="zoomPlus">
    <use xlink:href="#rim" fill="#404040"><set attributeName="fill" to="#808080" begin="zoomplus.mouseover" end="zoomplus.mouseout"/></use>
    <path d="M-4,0h8M0,-4v8" fill="none" stroke="white" stroke-width="1.5" pointer-events="none"/>
  </g>
  <g id="zoomMin">
    <use xlink:href="#rim" fill="#404040"><set attributeName="fill" to="#808080" begin="zoomminus.mouseover" end="zoomminus.mouseout"/></use>
    <path d="M-4,0h8" fill="none" stroke="white" stroke-width="1.5" pointer-events="none"/>
  </g>
  <g id="arrowUp" transform="translate(30 24)">
    <use xlink:href="#rim"/>
    <path pointer-events="none" fill="none" stroke="white" stroke-width="1.5" d="M0,-3.0v7 M-2.5,-0.5L0,-3.0L2.5,-0.5"/>
  </g>
  <g id="arrowRight" transform="rotate(90) translate(36 -43)">
    <use xlink:href="#rim"/>
    <path pointer-events="none" fill="none" stroke="white" stroke-width="1.5" d="M0,-3.0v7 M-2.5,-0.5L0,-3.0L2.5,-0.5"/>
  </g>
  <g id="arrowDown" transform="rotate(180) translate(-30 -48)">
    <use xlink:href="#rim"/>
    <path pointer-events="none" fill="none" stroke="white" stroke-width="1.5" d="M0,-3.0v7 M-2.5,-0.5L0,-3.0L2.5,-0.5"/>
  </g>
  <g id="arrowLeft" transform="rotate(270) translate(-36 17)">
    <use xlink:href="#rim"/>
    <path pointer-events="none" fill="none" stroke="white" stroke-width="1.5" d="M0,-3.0v7 M-2.5,-0.5L0,-3.0L2.5,-0.5"/>
  </g>
  <g id="resetDef">
    <use xlink:href="#rim2" fill="#404040"><set attributeName="fill" to="#808080" begin="reset.mouseover" end="reset.mouseout"/></use>
  </g>
</defs>
<script type="application/ecmascript">
var viewWidth = 460;
var viewHeight = 570;
var sectionId = 'dynsection-0';
</script>
<script type="application/ecmascript" xlink:href="svg.min.js"/>
<svg id="graph" class="graph">
<g id="viewport">
<title>ChimeraTK::proxies::RawConverterCapsule&lt; UserType &gt;</title>
<!-- Node1 -->
<g id="Node000001" class="node">
<title>Node1</title>
<g id="a_Node000001"><a xlink:title="This abstract class encapsulates a RawConverter to erase the exact RawConverter type (with all its te...">
<polygon fill="#999999" stroke="#666666" points="131,-299 0,-299 0,-258 131,-258 131,-299"/>
<text text-anchor="start" x="8" y="-287" font-family="Helvetica,sans-Serif" font-size="10.00">ChimeraTK::proxies</text>
<text text-anchor="start" x="8" y="-276" font-family="Helvetica,sans-Serif" font-size="10.00">::RawConverterCapsule</text>
<text text-anchor="middle" x="65.5" y="-265" font-family="Helvetica,sans-Serif" font-size="10.00">&lt; UserType &gt;</text>
</a>
</g>
</g>
<!-- Node2 -->
<g id="Node000002" class="node">
<title>Node2</title>
<g id="a_Node000002"><a xlink:href="class_chimera_t_k_1_1proxies_1_1_raw_converter_capsule_impl.html" target="_top" xlink:title=" ">
<polygon fill="white" stroke="#666666" points="452,-562 293,-562 293,-521 452,-521 452,-562"/>
<text text-anchor="start" x="301" y="-550" font-family="Helvetica,sans-Serif" font-size="10.00">ChimeraTK::proxies</text>
<text text-anchor="start" x="301" y="-539" font-family="Helvetica,sans-Serif" font-size="10.00">::RawConverterCapsuleImpl</text>
<text text-anchor="middle" x="372.5" y="-528" font-family="Helvetica,sans-Serif" font-size="10.00">&lt; UserType, RawConverter &gt;</text>
</a>
</g>
</g>
<!-- Node1&#45;&gt;Node2 -->
<g id="edge1_Node000001_Node000002" class="edge">
<title>Node1&#45;&gt;Node2</title>
<g id="a_edge1_Node000001_Node000002"><a xlink:title=" ">
<path fill="none" stroke="#63b8ff" d="M69.9,-309.35C76.63,-355 95.9,-440.14 149,-486.5 188.42,-520.91 246.05,-534.49 292.78,-539.55"/>
<polygon fill="#63b8ff" stroke="#63b8ff" points="73.34,-308.61 68.52,-299.17 66.4,-309.55 73.34,-308.61"/>
</a>
</g>
</g>
<!-- Node3 -->
<g id="Node000003" class="node">
<title>Node3</title>
<g id="a_Node000003"><a xlink:href="class_chimera_t_k_1_1proxies_1_1_raw_converter_capsule.html" target="_top" xlink:title=" ">
<polygon fill="white" stroke="#666666" points="438,-503 307,-503 307,-462 438,-462 438,-503"/>
<text text-anchor="start" x="315" y="-491" font-family="Helvetica,sans-Serif" font-size="10.00">ChimeraTK::proxies</text>
<text text-anchor="start" x="315" y="-480" font-family="Helvetica,sans-Serif" font-size="10.00">::RawConverterCapsule</text>
<text text-anchor="middle" x="372.5" y="-469" font-family="Helvetica,sans-Serif" font-size="10.00">&lt; rawUserType &gt;</text>
</a>
</g>
</g>
<!-- Node1&#45;&gt;Node3 -->
<g id="edge2_Node000001_Node000003" class="edge">
<title>Node1&#45;&gt;Node3</title>
<g id="a_edge2_Node000001_Node000003"><a xlink:title=" ">
<path fill="none" stroke="orange" stroke-dasharray="5,2" d="M76.32,-308.86C88.36,-341.25 111.85,-391.78 149,-420.5 194.6,-455.76 259.15,-470.97 306.98,-477.53"/>
<polygon fill="orange" stroke="orange" points="79.47,-307.27 72.82,-299.02 72.88,-309.62 79.47,-307.27"/>
</a>
</g>
<text text-anchor="middle" x="212" y="-474.5" font-family="Helvetica,sans-Serif" font-size="10.00" fill="grey"> &lt; rawUserType &gt;</text>
</g>
<!-- Node4 -->
<g id="Node000004" class="node">
<title>Node4</title>
<g id="a_Node000004"><a xlink:href="class_chimera_t_k_1_1proxies_1_1_raw_converter_capsule.html" target="_top" xlink:title=" ">
<polygon fill="white" stroke="#666666" points="438,-444 307,-444 307,-403 438,-403 438,-444"/>
<text text-anchor="start" x="315" y="-432" font-family="Helvetica,sans-Serif" font-size="10.00">ChimeraTK::proxies</text>
<text text-anchor="start" x="315" y="-421" font-family="Helvetica,sans-Serif" font-size="10.00">::RawConverterCapsule</text>
<text text-anchor="middle" x="372.5" y="-410" font-family="Helvetica,sans-Serif" font-size="10.00">&lt; int32_t &gt;</text>
</a>
</g>
</g>
<!-- Node1&#45;&gt;Node4 -->
<g id="edge3_Node000001_Node000004" class="edge">
<title>Node1&#45;&gt;Node4</title>
<g id="a_edge3_Node000001_Node000004"><a xlink:title=" ">
<path fill="none" stroke="orange" stroke-dasharray="5,2" d="M88.88,-306.76C104.12,-324.25 125.7,-345.9 149,-359.5 197.95,-388.06 260.48,-404.57 306.78,-413.65"/>
<polygon fill="orange" stroke="orange" points="91.48,-304.41 82.34,-299.05 86.15,-308.94 91.48,-304.41"/>
</a>
</g>
<text text-anchor="middle" x="212" y="-408.5" font-family="Helvetica,sans-Serif" font-size="10.00" fill="grey"> &lt; int32_t &gt;</text>
</g>
<!-- Node5 -->
<g id="Node000005" class="node">
<title>Node5</title>
<g id="a_Node000005"><a xlink:href="class_chimera_t_k_1_1proxies_1_1_raw_converter_capsule.html" target="_top" xlink:title=" ">
<polygon fill="white" stroke="#666666" points="438,-385 307,-385 307,-344 438,-344 438,-385"/>
<text text-anchor="start" x="315" y="-373" font-family="Helvetica,sans-Serif" font-size="10.00">ChimeraTK::proxies</text>
<text text-anchor="start" x="315" y="-362" font-family="Helvetica,sans-Serif" font-size="10.00">::RawConverterCapsule</text>
<text text-anchor="middle" x="372.5" y="-351" font-family="Helvetica,sans-Serif" font-size="10.00">&lt; uint32_t &gt;</text>
</a>
</g>
</g>
<!-- Node1&#45;&gt;Node5 -->
<g id="edge4_Node000001_Node000005" class="edge">
<title>Node1&#45;&gt;Node5</title>
<g id="a_edge4_Node000001_Node000005"><a xlink:title=" ">
<path fill="none" stroke="orange" stroke-dasharray="5,2" d="M123.83,-302.68C132.2,-305.85 140.77,-308.89 149,-311.5 201.23,-328.07 261.81,-342.18 306.55,-351.66"/>
<polygon fill="orange" stroke="orange" points="125.08,-299.41 114.49,-299.07 122.56,-305.94 125.08,-299.41"/>
</a>
</g>
<text text-anchor="middle" x="212" y="-347.5" font-family="Helvetica,sans-Serif" font-size="10.00" fill="grey"> &lt; uint32_t &gt;</text>
</g>
<!-- Node6 -->
<g id="Node000006" class="node">
<title>Node6</title>
<g id="a_Node000006"><a xlink:href="class_chimera_t_k_1_1proxies_1_1_raw_converter_capsule.html" target="_top" xlink:title=" ">
<polygon fill="white" stroke="#666666" points="438,-326 307,-326 307,-285 438,-285 438,-326"/>
<text text-anchor="start" x="315" y="-314" font-family="Helvetica,sans-Serif" font-size="10.00">ChimeraTK::proxies</text>
<text text-anchor="start" x="315" y="-303" font-family="Helvetica,sans-Serif" font-size="10.00">::RawConverterCapsule</text>
<text text-anchor="middle" x="372.5" y="-292" font-family="Helvetica,sans-Serif" font-size="10.00">&lt; minimumUserType &gt;</text>
</a>
</g>
</g>
<!-- Node1&#45;&gt;Node6 -->
<g id="edge5_Node000001_Node000006" class="edge">
<title>Node1&#45;&gt;Node6</title>
<g id="a_edge5_Node000001_Node000006"><a xlink:title=" ">
<path fill="none" stroke="orange" stroke-dasharray="5,2" d="M141.44,-285.13C192.17,-289.62 258.51,-295.5 306.91,-299.78"/>
<polygon fill="orange" stroke="orange" points="141.45,-281.62 131.18,-284.23 140.84,-288.59 141.45,-281.62"/>
</a>
</g>
<text text-anchor="middle" x="212" y="-299.5" font-family="Helvetica,sans-Serif" font-size="10.00" fill="grey"> &lt; minimumUserType &gt;</text>
</g>
<!-- Node7 -->
<g id="Node000007" class="node">
<title>Node7</title>
<g id="a_Node000007"><a xlink:href="class_chimera_t_k_1_1proxies_1_1_raw_converter_capsule.html" target="_top" xlink:title=" ">
<polygon fill="white" stroke="#666666" points="452,-266.5 293,-266.5 293,-236.5 452,-236.5 452,-266.5"/>
<text text-anchor="start" x="301" y="-254.5" font-family="Helvetica,sans-Serif" font-size="10.00">ChimeraTK::proxies</text>
<text text-anchor="middle" x="372.5" y="-243.5" font-family="Helvetica,sans-Serif" font-size="10.00">::RawConverterCapsule&lt; T &gt;</text>
</a>
</g>
</g>
<!-- Node1&#45;&gt;Node7 -->
<g id="edge6_Node000001_Node000007" class="edge">
<title>Node1&#45;&gt;Node7</title>
<g id="a_edge6_Node000001_Node000007"><a xlink:title=" ">
<path fill="none" stroke="orange" stroke-dasharray="5,2" d="M141.37,-271.2C143.94,-270.96 146.49,-270.73 149,-270.5 196.78,-266.14 250.36,-261.56 292.96,-257.99"/>
<polygon fill="orange" stroke="orange" points="140.97,-267.72 131.34,-272.14 141.63,-274.69 140.97,-267.72"/>
</a>
</g>
<text text-anchor="middle" x="212" y="-273.5" font-family="Helvetica,sans-Serif" font-size="10.00" fill="grey"> &lt; T &gt;</text>
</g>
<!-- Node8 -->
<g id="Node000008" class="node">
<title>Node8</title>
<g id="a_Node000008"><a xlink:href="class_chimera_t_k_1_1proxies_1_1_raw_converter_capsule.html" target="_top" xlink:title=" ">
<polygon fill="white" stroke="#666666" points="438,-218 307,-218 307,-177 438,-177 438,-218"/>
<text text-anchor="start" x="315" y="-206" font-family="Helvetica,sans-Serif" font-size="10.00">ChimeraTK::proxies</text>
<text text-anchor="start" x="315" y="-195" font-family="Helvetica,sans-Serif" font-size="10.00">::RawConverterCapsule</text>
<text text-anchor="middle" x="372.5" y="-184" font-family="Helvetica,sans-Serif" font-size="10.00">&lt; int &gt;</text>
</a>
</g>
</g>
<!-- Node1&#45;&gt;Node8 -->
<g id="edge7_Node000001_Node000008" class="edge">
<title>Node1&#45;&gt;Node8</title>
<g id="a_edge7_Node000001_Node000008"><a xlink:title=" ">
<path fill="none" stroke="orange" stroke-dasharray="5,2" d="M121.53,-254.2C130.6,-250.66 139.99,-247.28 149,-244.5 201.25,-228.36 262.09,-215.93 306.93,-207.92"/>
<polygon fill="orange" stroke="orange" points="120.19,-250.96 112.21,-257.93 122.79,-257.46 120.19,-250.96"/>
</a>
</g>
<text text-anchor="middle" x="212" y="-247.5" font-family="Helvetica,sans-Serif" font-size="10.00" fill="grey"> &lt; int &gt;</text>
</g>
<!-- Node9 -->
<g id="Node000009" class="node">
<title>Node9</title>
<g id="a_Node000009"><a xlink:href="class_chimera_t_k_1_1proxies_1_1_raw_converter_capsule.html" target="_top" xlink:title=" ">
<polygon fill="white" stroke="#666666" points="438,-159 307,-159 307,-118 438,-118 438,-159"/>
<text text-anchor="start" x="315" y="-147" font-family="Helvetica,sans-Serif" font-size="10.00">ChimeraTK::proxies</text>
<text text-anchor="start" x="315" y="-136" font-family="Helvetica,sans-Serif" font-size="10.00">::RawConverterCapsule</text>
<text text-anchor="middle" x="372.5" y="-125" font-family="Helvetica,sans-Serif" font-size="10.00">&lt; float &gt;</text>
</a>
</g>
</g>
<!-- Node1&#45;&gt;Node9 -->
<g id="edge8_Node000001_Node000009" class="edge">
<title>Node1&#45;&gt;Node9</title>
<g id="a_edge8_Node000001_Node000009"><a xlink:title=" ">
<path fill="none" stroke="orange" stroke-dasharray="5,2" d="M89.17,-250.13C104.39,-232.86 125.83,-211.66 149,-198.5 198.05,-170.63 260.56,-155.26 306.83,-147.07"/>
<polygon fill="orange" stroke="orange" points="86.49,-247.88 82.63,-257.75 91.8,-252.44 86.49,-247.88"/>
</a>
</g>
<text text-anchor="middle" x="212" y="-201.5" font-family="Helvetica,sans-Serif" font-size="10.00" fill="grey"> &lt; float &gt;</text>
</g>
<!-- Node10 -->
<g id="Node000010" class="node">
<title>Node10</title>
<g id="a_Node000010"><a xlink:href="class_chimera_t_k_1_1proxies_1_1_raw_converter_capsule.html" target="_top" xlink:title=" ">
<polygon fill="white" stroke="#666666" points="438,-100 307,-100 307,-59 438,-59 438,-100"/>
<text text-anchor="start" x="315" y="-88" font-family="Helvetica,sans-Serif" font-size="10.00">ChimeraTK::proxies</text>
<text text-anchor="start" x="315" y="-77" font-family="Helvetica,sans-Serif" font-size="10.00">::RawConverterCapsule</text>
<text text-anchor="middle" x="372.5" y="-66" font-family="Helvetica,sans-Serif" font-size="10.00">&lt; uint16_t &gt;</text>
</a>
</g>
</g>
<!-- Node1&#45;&gt;Node10 -->
<g id="edge9_Node000001_Node000010" class="edge">
<title>Node1&#45;&gt;Node10</title>
<g id="a_edge9_Node000001_Node000010"><a xlink:title=" ">
<path fill="none" stroke="orange" stroke-dasharray="5,2" d="M76.47,-248.22C88.58,-216.19 112.08,-166.49 149,-138.5 194.7,-103.85 259.08,-89.51 306.83,-83.59"/>
<polygon fill="orange" stroke="orange" points="73.06,-247.35 72.94,-257.95 79.64,-249.74 73.06,-247.35"/>
</a>
</g>
<text text-anchor="middle" x="212" y="-141.5" font-family="Helvetica,sans-Serif" font-size="10.00" fill="grey"> &lt; uint16_t &gt;</text>
</g>
<!-- Node11 -->
<g id="Node000011" class="node">
<title>Node11</title>
<g id="a_Node000011"><a xlink:href="class_chimera_t_k_1_1proxies_1_1_raw_converter_capsule.html" target="_top" xlink:title=" ">
<polygon fill="white" stroke="#666666" points="442,-41 303,-41 303,0 442,0 442,-41"/>
<text text-anchor="start" x="311" y="-29" font-family="Helvetica,sans-Serif" font-size="10.00">ChimeraTK::proxies</text>
<text text-anchor="start" x="311" y="-18" font-family="Helvetica,sans-Serif" font-size="10.00">::RawConverterCapsule</text>
<text text-anchor="middle" x="372.5" y="-7" font-family="Helvetica,sans-Serif" font-size="10.00">&lt; ChimeraTK::Boolean &gt;</text>
</a>
</g>
</g>
<!-- Node1&#45;&gt;Node11 -->
<g id="edge10_Node000001_Node000011" class="edge">
<title>Node1&#45;&gt;Node11</title>
<g id="a_edge10_Node000001_Node000011"><a xlink:title=" ">
<path fill="none" stroke="orange" stroke-dasharray="5,2" d="M70.05,-247.69C76.93,-202.52 96.39,-118.81 149,-73.5 191.42,-36.96 254.61,-24.59 302.82,-20.86"/>
<polygon fill="orange" stroke="orange" points="66.56,-247.37 68.62,-257.76 73.49,-248.35 66.56,-247.37"/>
</a>
</g>
<text text-anchor="middle" x="212" y="-76.5" font-family="Helvetica,sans-Serif" font-size="10.00" fill="grey"> &lt; ChimeraTK::Boolean &gt;</text>
</g>
</g>
</svg>

<g id="navigator" transform="translate(0 0)" fill="#404254">
  <rect fill="#f2f5e9" fill-opacity="0.5" stroke="#606060" stroke-width=".5" x="0" y="0" width="60" height="60"/>
  <use id="zoomplus" xlink:href="#zoomPlus" x="17" y="9" onmousedown="handleZoom(evt,'in')"/>
  <use id="zoomminus" xlink:href="#zoomMin" x="42" y="9" onmousedown="handleZoom(evt,'out')"/>
  <use id="reset" xlink:href="#resetDef" x="30" y="36" onmousedown="handleReset()"/>
   <use id="arrowup" xlink:href="#arrowUp" x="0" y="0" onmousedown="handlePan(0,-1)"/>
  <use id="arrowright" xlink:href="#arrowRight" x="0" y="0" onmousedown="handlePan(1,0)"/>
  <use id="arrowdown" xlink:href="#arrowDown" x="0" y="0" onmousedown="handlePan(0,1)"/>
  <use id="arrowleft" xlink:href="#arrowLeft" x="0" y="0" onmousedown="handlePan(-1,0)"/>
</g>
<svg viewBox="0 0 15 15" width="100%" height="30px" preserveAspectRatio="xMaxYMin meet">
 <g id="arrow_out" transform="scale(0.3 0.3)">
  <a xlink:href="class_chimera_t_k_1_1proxies_1_1_raw_converter_capsule__inherit__graph_org.svg" target="_base">
   <rect id="button" ry="5" rx="5" y="6" x="6" height="38" width="38"
        fill="#f2f5e9" fill-opacity="0.5" stroke="#606060" stroke-width="1.0"/>
   <path id="arrow"
     d="M 11.500037,31.436501 C 11.940474,20.09759 22.043105,11.32322 32.158766,21.979434 L 37.068811,17.246167 C 37.068811,17.246167 37.088388,32 37.088388,32 L 22.160133,31.978069 C 22.160133,31.978069 26.997745,27.140456 26.997745,27.140456 C 18.528582,18.264221 13.291696,25.230495 11.500037,31.436501 z"
     style="fill:#404040;"/>
  </a>
 </g>
</svg>

<style type='text/css'>
<![CDATA[
[data-mouse-over-selected='false'] { opacity: 0.7; }
[data-mouse-over-selected='true']  { opacity: 1.0; }
]]>
</style>
<script type="application/ecmascript"><![CDATA[
document.addEventListener('DOMContentLoaded', (event) => {
  highlightEdges();
  highlightAdjacentNodes();
});
]]></script>
</svg>
