<?xml version="1.0" encoding="UTF-8" standalone="no"?>
<!DOCTYPE svg PUBLIC "-//W3C//DTD SVG 1.1//EN"
 "http://www.w3.org/Graphics/SVG/1.1/DTD/svg11.dtd">
<!-- Generated by graphviz version 2.43.0 (0)
 -->
<!-- Title: RegVariable Pages: 1 -->
<!--zoomable 98 -->
<svg id="main" version="1.1" xmlns="http://www.w3.org/2000/svg" xmlns:xlink="http://www.w3.org/1999/xlink" xml:space="preserve" onload="init(evt)">
<style type="text/css"><![CDATA[
.edge:hover path { stroke: red; }
.edge:hover polygon { stroke: red; fill: red; }
]]></style>
<script type="text/javascript"><![CDATA[
var edges = document.getElementsByTagName('g');
if (edges && edges.length) {
  for (var i=0;i<edges.length;i++) {
    if (edges[i].id.substr(0,4)=='edge') {
      edges[i].setAttribute('class','edge');
    }
  }
}
]]></script>
        <defs>
                <circle id="rim" cx="0" cy="0" r="7"/>
                <circle id="rim2" cx="0" cy="0" r="3.5"/>
                <g id="zoomPlus">
                        <use xlink:href="#rim" fill="#404040">
                                <set attributeName="fill" to="#808080" begin="zoomplus.mouseover" end="zoomplus.mouseout"/>
                        </use>
                        <path d="M-4,0h8M0,-4v8" fill="none" stroke="white" stroke-width="1.5" pointer-events="none"/>
                </g>
                <g id="zoomMin">
                        <use xlink:href="#rim" fill="#404040">
                                <set attributeName="fill" to="#808080" begin="zoomminus.mouseover" end="zoomminus.mouseout"/>
                        </use>
                        <path d="M-4,0h8" fill="none" stroke="white" stroke-width="1.5" pointer-events="none"/>
                </g>
                <g id="dirArrow">
                        <path fill="none" stroke="white" stroke-width="1.5" d="M0,-3.0v7 M-2.5,-0.5L0,-3.0L2.5,-0.5"/>
                </g>
               <g id="resetDef">
                       <use xlink:href="#rim2" fill="#404040">
                               <set attributeName="fill" to="#808080" begin="reset.mouseover" end="reset.mouseout"/>
                       </use>
               </g>
        </defs>

<script type="text/javascript">
var viewWidth = 1077;
var viewHeight = 98;
var sectionId = 'dynsection-0';
</script>
<script xlink:href="svgpan.js"/>
<svg id="graph" class="graph">
<g id="viewport">
<title>RegVariable</title>
<polygon fill="white" stroke="transparent" points="-4,4 -4,-94 1073,-94 1073,4 -4,4"/>
<!-- Node1 -->
<g id="node1" class="node">
<title>Node1</title>
<g id="a_node1"><a xlink:title="Test variable accessor.">
<polygon fill="#bfbfbf" stroke="black" points="994,-33 994,-52 1069,-52 1069,-33 994,-33"/>
<text text-anchor="middle" x="1031.5" y="-40" font-family="Helvetica,sans-Serif" font-size="10.00">RegVariable</text>
</a>
</g>
</g>
<!-- Node2 -->
<g id="node2" class="node">
<title>Node2</title>
<g id="a_node2"><a xlink:href="struct_variable_register_descriptor_base.html" target="_top" xlink:title=" ">
<polygon fill="white" stroke="black" points="810,-27.5 810,-57.5 957,-57.5 957,-27.5 810,-27.5"/>
<text text-anchor="start" x="818" y="-45.5" font-family="Helvetica,sans-Serif" font-size="10.00">VariableRegisterDescriptor</text>
<text text-anchor="middle" x="883.5" y="-34.5" font-family="Helvetica,sans-Serif" font-size="10.00">Base&lt; RegVariable &gt;</text>
</a>
</g>
</g>
<!-- Node2&#45;&gt;Node1 -->
<g id="edge1" class="edge">
<title>Node2&#45;&gt;Node1</title>
<path fill="none" stroke="midnightblue" d="M967.2,-42.5C976.48,-42.5 985.55,-42.5 993.79,-42.5"/>
<polygon fill="midnightblue" stroke="midnightblue" points="967.07,-39 957.07,-42.5 967.07,-46 967.07,-39"/>
</g>
<!-- Node3 -->
<g id="node3" class="node">
<title>Node3</title>
<g id="a_node3"><a xlink:href="struct_one_d_register_descriptor_base.html" target="_top" xlink:title=" ">
<polygon fill="white" stroke="black" points="531,-49.5 531,-79.5 689,-79.5 689,-49.5 531,-49.5"/>
<text text-anchor="start" x="539" y="-67.5" font-family="Helvetica,sans-Serif" font-size="10.00">OneDRegisterDescriptorBase</text>
<text text-anchor="middle" x="610" y="-56.5" font-family="Helvetica,sans-Serif" font-size="10.00">&lt; RegVariable &gt;</text>
</a>
</g>
</g>
<!-- Node3&#45;&gt;Node2 -->
<g id="edge2" class="edge">
<title>Node3&#45;&gt;Node2</title>
<path fill="none" stroke="midnightblue" d="M699.13,-57.36C734.99,-54.45 775.92,-51.14 810,-48.37"/>
<polygon fill="midnightblue" stroke="midnightblue" points="698.85,-53.87 689.16,-58.17 699.41,-60.85 698.85,-53.87"/>
</g>
<!-- Node4 -->
<g id="node4" class="node">
<title>Node4</title>
<g id="a_node4"><a xlink:href="struct_register_descriptor_base.html" target="_top" xlink:title=" ">
<polygon fill="white" stroke="black" points="265.5,-59.5 265.5,-89.5 396.5,-89.5 396.5,-59.5 265.5,-59.5"/>
<text text-anchor="start" x="273.5" y="-77.5" font-family="Helvetica,sans-Serif" font-size="10.00">RegisterDescriptorBase</text>
<text text-anchor="middle" x="331" y="-66.5" font-family="Helvetica,sans-Serif" font-size="10.00">&lt; RegVariable &gt;</text>
</a>
</g>
</g>
<!-- Node4&#45;&gt;Node3 -->
<g id="edge3" class="edge">
<title>Node4&#45;&gt;Node3</title>
<path fill="none" stroke="midnightblue" d="M406.69,-71.8C445.16,-70.41 492.03,-68.72 530.97,-67.32"/>
<polygon fill="midnightblue" stroke="midnightblue" points="406.46,-68.31 396.59,-72.17 406.71,-75.3 406.46,-68.31"/>
</g>
<!-- Node5 -->
<g id="node5" class="node">
<title>Node5</title>
<g id="a_node5"><a xlink:href="struct_register_descriptor_base.html" target="_top" xlink:title="Base descriptor with defaults, used for all registers.">
<polygon fill="white" stroke="black" points="0,-34.5 0,-64.5 131,-64.5 131,-34.5 0,-34.5"/>
<text text-anchor="start" x="8" y="-52.5" font-family="Helvetica,sans-Serif" font-size="10.00">RegisterDescriptorBase</text>
<text text-anchor="middle" x="65.5" y="-41.5" font-family="Helvetica,sans-Serif" font-size="10.00">&lt; Derived &gt;</text>
</a>
</g>
</g>
<!-- Node5&#45;&gt;Node4 -->
<g id="edge4" class="edge">
<title>Node5&#45;&gt;Node4</title>
<path fill="none" stroke="orange" stroke-dasharray="5,2" d="M141.57,-56.62C180.67,-60.33 228.01,-64.82 265.45,-68.38"/>
<polygon fill="orange" stroke="orange" points="141.58,-53.11 131.3,-55.65 140.92,-60.08 141.58,-53.11"/>
<text text-anchor="middle" x="191.5" y="-67.5" font-family="Helvetica,sans-Serif" font-size="10.00"> &lt; RegVariable &gt;</text>
</g>
<!-- Node6 -->
<g id="node6" class="node">
<title>Node6</title>
<g id="a_node6"><a xlink:href="struct_one_d_register_descriptor_base.html" target="_top" xlink:title="Base descriptor for 1D accessors (and scalars)">
<polygon fill="white" stroke="black" points="252,-10.5 252,-40.5 410,-40.5 410,-10.5 252,-10.5"/>
<text text-anchor="start" x="260" y="-28.5" font-family="Helvetica,sans-Serif" font-size="10.00">OneDRegisterDescriptorBase</text>
<text text-anchor="middle" x="331" y="-17.5" font-family="Helvetica,sans-Serif" font-size="10.00">&lt; Derived &gt;</text>
</a>
</g>
</g>
<!-- Node5&#45;&gt;Node6 -->
<g id="edge6" class="edge">
<title>Node5&#45;&gt;Node6</title>
<path fill="none" stroke="midnightblue" d="M141.33,-42.68C175.87,-39.54 216.88,-35.8 251.83,-32.62"/>
<polygon fill="midnightblue" stroke="midnightblue" points="140.94,-39.21 131.3,-43.6 141.57,-46.18 140.94,-39.21"/>
</g>
<!-- Node6&#45;&gt;Node3 -->
<g id="edge5" class="edge">
<title>Node6&#45;&gt;Node3</title>
<path fill="none" stroke="orange" stroke-dasharray="5,2" d="M420.61,-37.98C456.08,-42.97 496.59,-48.67 530.93,-53.51"/>
<polygon fill="orange" stroke="orange" points="420.66,-34.45 410.27,-36.52 419.68,-41.38 420.66,-34.45"/>
<text text-anchor="middle" x="470.5" y="-53.5" font-family="Helvetica,sans-Serif" font-size="10.00"> &lt; RegVariable &gt;</text>
</g>
<!-- Node7 -->
<g id="node7" class="node">
<title>Node7</title>
<g id="a_node7"><a xlink:href="struct_variable_register_descriptor_base.html" target="_top" xlink:title="Base descriptor for variable accessors.">
<polygon fill="white" stroke="black" points="536.5,-0.5 536.5,-30.5 683.5,-30.5 683.5,-0.5 536.5,-0.5"/>
<text text-anchor="start" x="544.5" y="-18.5" font-family="Helvetica,sans-Serif" font-size="10.00">VariableRegisterDescriptor</text>
<text text-anchor="middle" x="610" y="-7.5" font-family="Helvetica,sans-Serif" font-size="10.00">Base&lt; Derived &gt;</text>
</a>
</g>
</g>
<!-- Node6&#45;&gt;Node7 -->
<g id="edge8" class="edge">
<title>Node6&#45;&gt;Node7</title>
<path fill="none" stroke="midnightblue" d="M420.62,-22.3C457.9,-20.95 500.75,-19.41 536.15,-18.13"/>
<polygon fill="midnightblue" stroke="midnightblue" points="420.13,-18.82 410.27,-22.67 420.39,-25.81 420.13,-18.82"/>
</g>
<!-- Node7&#45;&gt;Node2 -->
<g id="edge7" class="edge">
<title>Node7&#45;&gt;Node2</title>
<path fill="none" stroke="orange" stroke-dasharray="5,2" d="M693.99,-23.75C730.87,-27.42 773.91,-31.7 809.54,-35.24"/>
<polygon fill="orange" stroke="orange" points="694.05,-20.24 683.76,-22.74 693.36,-27.21 694.05,-20.24"/>
<text text-anchor="middle" x="749.5" y="-35.5" font-family="Helvetica,sans-Serif" font-size="10.00"> &lt; RegVariable &gt;</text>
</g>
</g>
</svg>
        <g id="navigator" transform="translate(0 0)" fill="#404254">
                <rect fill="#f2f5e9" fill-opacity="0.5" stroke="#606060" stroke-width=".5" x="0" y="0" width="60" height="60"/>
                <use id="zoomplus" xlink:href="#zoomPlus" x="17" y="9" onmousedown="handleZoom(evt,'in')"/>
                <use id="zoomminus" xlink:href="#zoomMin" x="42" y="9" onmousedown="handleZoom(evt,'out')"/>
                <use id="reset" xlink:href="#resetDef" x="30" y="36" onmousedown="handleReset()"/>
                <g id="arrowUp" xlink:href="#dirArrow" transform="translate(30 24)" onmousedown="handlePan(0,-1)">
                  <use xlink:href="#rim" fill="#404040">
                        <set attributeName="fill" to="#808080" begin="arrowUp.mouseover" end="arrowUp.mouseout"/>
                  </use>
                  <path fill="none" stroke="white" stroke-width="1.5" d="M0,-3.0v7 M-2.5,-0.5L0,-3.0L2.5,-0.5"/>
                </g>
                <g id="arrowRight" xlink:href="#dirArrow" transform="rotate(90) translate(36 -43)" onmousedown="handlePan(1,0)">
                  <use xlink:href="#rim" fill="#404040">
                        <set attributeName="fill" to="#808080" begin="arrowRight.mouseover" end="arrowRight.mouseout"/>
                  </use>
                  <path fill="none" stroke="white" stroke-width="1.5" d="M0,-3.0v7 M-2.5,-0.5L0,-3.0L2.5,-0.5"/>
                </g>
                <g id="arrowDown" xlink:href="#dirArrow" transform="rotate(180) translate(-30 -48)" onmousedown="handlePan(0,1)">
                  <use xlink:href="#rim" fill="#404040">
                        <set attributeName="fill" to="#808080" begin="arrowDown.mouseover" end="arrowDown.mouseout"/>
                  </use>
                  <path fill="none" stroke="white" stroke-width="1.5" d="M0,-3.0v7 M-2.5,-0.5L0,-3.0L2.5,-0.5"/>
                </g>
                <g id="arrowLeft" xlink:href="#dirArrow" transform="rotate(270) translate(-36 17)" onmousedown="handlePan(-1,0)">
                  <use xlink:href="#rim" fill="#404040">
                        <set attributeName="fill" to="#808080" begin="arrowLeft.mouseover" end="arrowLeft.mouseout"/>
                  </use>
                  <path fill="none" stroke="white" stroke-width="1.5" d="M0,-3.0v7 M-2.5,-0.5L0,-3.0L2.5,-0.5"/>
                </g>
        </g>
        <svg viewBox="0 0 15 15" width="100%" height="30px" preserveAspectRatio="xMaxYMin meet">
         <g id="arrow_out" transform="scale(0.3 0.3)">
          <a xlink:href="struct_reg_variable__inherit__graph_org.svg" target="_base">
           <rect id="button" ry="5" rx="5" y="6" x="6" height="38" width="38"
                fill="#f2f5e9" fill-opacity="0.5" stroke="#606060" stroke-width="1.0"/>
           <path id="arrow"
             d="M 11.500037,31.436501 C 11.940474,20.09759 22.043105,11.32322 32.158766,21.979434 L 37.068811,17.246167 C 37.068811,17.246167 37.088388,32 37.088388,32 L 22.160133,31.978069 C 22.160133,31.978069 26.997745,27.140456 26.997745,27.140456 C 18.528582,18.264221 13.291696,25.230495 11.500037,31.436501 z"
             style="fill:#404040;"/>
          </a>
         </g>
        </svg>
</svg>
