<?xml version="1.0" encoding="UTF-8" standalone="no"?>
<!DOCTYPE svg PUBLIC "-//W3C//DTD SVG 1.1//EN"
 "http://www.w3.org/Graphics/SVG/1.1/DTD/svg11.dtd">
<!-- Generated by graphviz version 2.40.1 (20161225.0304)
 -->
<!-- Title: ChimeraTK::VariableGroup::unregisterModule Pages: 1 -->
<svg width="954pt" height="127pt"
 viewBox="0.00 0.00 954.00 127.00" xmlns="http://www.w3.org/2000/svg" xmlns:xlink="http://www.w3.org/1999/xlink">
<g id="graph0" class="graph" transform="scale(1 1) rotate(0) translate(4 123)">
<title>ChimeraTK::VariableGroup::unregisterModule</title>
<polygon fill="#ffffff" stroke="transparent" points="-4,4 -4,-123 950,-123 950,4 -4,4"/>
<!-- Node83 -->
<g id="node1" class="node">
<title>Node83</title>
<polygon fill="#bfbfbf" stroke="#000000" points="0,-24.5 0,-54.5 146,-54.5 146,-24.5 0,-24.5"/>
<text text-anchor="start" x="8" y="-42.5" font-family="Helvetica,sans-Serif" font-size="10.00" fill="#000000">ChimeraTK::VariableGroup</text>
<text text-anchor="middle" x="73" y="-31.5" font-family="Helvetica,sans-Serif" font-size="10.00" fill="#000000">::unregisterModule</text>
</g>
<!-- Node84 -->
<g id="node2" class="node">
<title>Node84</title>
<g id="a_node2"><a xlink:href="class_chimera_t_k_1_1_variable_group.html#ab0e2e102afb0643c5bf7396b59d1e42b" target="_top" xlink:title="Return the application model proxy representing this module. ">
<polygon fill="#ffffff" stroke="#000000" points="192.5,-49.5 192.5,-79.5 338.5,-79.5 338.5,-49.5 192.5,-49.5"/>
<text text-anchor="start" x="200.5" y="-67.5" font-family="Helvetica,sans-Serif" font-size="10.00" fill="#000000">ChimeraTK::VariableGroup</text>
<text text-anchor="middle" x="265.5" y="-56.5" font-family="Helvetica,sans-Serif" font-size="10.00" fill="#000000">::getModel</text>
</a>
</g>
</g>
<!-- Node83&#45;&gt;Node84 -->
<g id="edge1" class="edge">
<title>Node83&#45;&gt;Node84</title>
<path fill="none" stroke="#191970" d="M156.1325,-50.2964C168.2345,-51.8681 180.6183,-53.4764 192.4994,-55.0194"/>
<polygon fill="#191970" stroke="#191970" points="156.418,-46.8042 146.0505,-48.9871 155.5164,-53.7459 156.418,-46.8042"/>
</g>
<!-- Node87 -->
<g id="node5" class="node">
<title>Node87</title>
<g id="a_node5"><a xlink:href="class_chimera_t_k_1_1_application_module.html#a2586b398b1e6d126521c72ca68aabf80" target="_top" xlink:title="Unregister another module as a sub&#45;module. ">
<polygon fill="#ffffff" stroke="#000000" points="182,-.5 182,-30.5 349,-30.5 349,-.5 182,-.5"/>
<text text-anchor="start" x="190" y="-18.5" font-family="Helvetica,sans-Serif" font-size="10.00" fill="#000000">ChimeraTK::ApplicationModule</text>
<text text-anchor="middle" x="265.5" y="-7.5" font-family="Helvetica,sans-Serif" font-size="10.00" fill="#000000">::unregisterModule</text>
</a>
</g>
</g>
<!-- Node83&#45;&gt;Node87 -->
<g id="edge4" class="edge">
<title>Node83&#45;&gt;Node87</title>
<path fill="none" stroke="#191970" d="M156.0208,-29.1493C164.584,-28.0817 173.2896,-26.9964 181.8595,-25.9279"/>
<polygon fill="#191970" stroke="#191970" points="155.5406,-25.682 146.0505,-30.3924 156.4067,-32.6283 155.5406,-25.682"/>
</g>
<!-- Node85 -->
<g id="node3" class="node">
<title>Node85</title>
<g id="a_node3"><a xlink:href="class_chimera_t_k_1_1_variable_group.html#a11e5376cecc16ce4cb0bf68cd002d831" target="_top" xlink:title="Constructor: Create VariableGroup register it with its owner. ">
<polygon fill="#ffffff" stroke="#000000" points="395.5,-88.5 395.5,-118.5 541.5,-118.5 541.5,-88.5 395.5,-88.5"/>
<text text-anchor="start" x="403.5" y="-106.5" font-family="Helvetica,sans-Serif" font-size="10.00" fill="#000000">ChimeraTK::VariableGroup</text>
<text text-anchor="middle" x="468.5" y="-95.5" font-family="Helvetica,sans-Serif" font-size="10.00" fill="#000000">::VariableGroup</text>
</a>
</g>
</g>
<!-- Node84&#45;&gt;Node85 -->
<g id="edge2" class="edge">
<title>Node84&#45;&gt;Node85</title>
<path fill="none" stroke="#191970" d="M348.6061,-80.4662C364.1382,-83.4502 380.2649,-86.5484 395.465,-89.4686"/>
<polygon fill="#191970" stroke="#191970" points="348.9816,-76.9744 338.5009,-78.5248 347.6609,-83.8487 348.9816,-76.9744"/>
</g>
<!-- Node86 -->
<g id="node4" class="node">
<title>Node86</title>
<g id="a_node4"><a xlink:href="test_model_8cc.html#a63f2b9b5f6c7e56b9211598086352b15" target="_top" xlink:title="BOOST_AUTO_TEST_CASE">
<polygon fill="#ffffff" stroke="#000000" points="597,-50 597,-69 740,-69 740,-50 597,-50"/>
<text text-anchor="middle" x="668.5" y="-57" font-family="Helvetica,sans-Serif" font-size="10.00" fill="#000000">BOOST_AUTO_TEST_CASE</text>
</a>
</g>
</g>
<!-- Node84&#45;&gt;Node86 -->
<g id="edge3" class="edge">
<title>Node84&#45;&gt;Node86</title>
<path fill="none" stroke="#191970" d="M349.0571,-63.4633C422.2583,-62.5551 527.5071,-61.2493 596.9115,-60.3882"/>
<polygon fill="#191970" stroke="#191970" points="348.9036,-59.9648 338.9478,-63.5887 348.9905,-66.9643 348.9036,-59.9648"/>
</g>
<!-- Node88 -->
<g id="node6" class="node">
<title>Node88</title>
<g id="a_node6"><a xlink:href="class_chimera_t_k_1_1_application_module.html#aec36d7d644009fce6b2596022c05258d" target="_top" xlink:title="Return the application model proxy representing this module. ">
<polygon fill="#ffffff" stroke="#000000" points="385,-.5 385,-30.5 552,-30.5 552,-.5 385,-.5"/>
<text text-anchor="start" x="393" y="-18.5" font-family="Helvetica,sans-Serif" font-size="10.00" fill="#000000">ChimeraTK::ApplicationModule</text>
<text text-anchor="middle" x="468.5" y="-7.5" font-family="Helvetica,sans-Serif" font-size="10.00" fill="#000000">::getModel</text>
</a>
</g>
</g>
<!-- Node87&#45;&gt;Node88 -->
<g id="edge5" class="edge">
<title>Node87&#45;&gt;Node88</title>
<path fill="none" stroke="#191970" d="M359.2558,-15.5C367.8295,-15.5 376.4773,-15.5 384.9526,-15.5"/>
<polygon fill="#191970" stroke="#191970" points="359.2399,-12.0001 349.2399,-15.5 359.2398,-19.0001 359.2399,-12.0001"/>
</g>
<!-- Node88&#45;&gt;Node86 -->
<g id="edge8" class="edge">
<title>Node88&#45;&gt;Node86</title>
<path fill="none" stroke="#191970" d="M546.869,-32.7412C573.5405,-38.6089 602.3683,-44.951 625.2617,-49.9876"/>
<polygon fill="#191970" stroke="#191970" points="547.2878,-29.2497 536.7693,-30.5192 545.7837,-36.0862 547.2878,-29.2497"/>
</g>
<!-- Node89 -->
<g id="node7" class="node">
<title>Node89</title>
<g id="a_node7"><a xlink:href="struct_chimera_t_k_1_1_status_aggregator.html#a5b0c0c8f5b240092b5178c48a2ca7910" target="_top" xlink:title="Recursivly search for StatusMonitors and other StatusAggregators. ">
<polygon fill="#ffffff" stroke="#000000" points="588,-.5 588,-30.5 749,-30.5 749,-.5 588,-.5"/>
<text text-anchor="start" x="596" y="-18.5" font-family="Helvetica,sans-Serif" font-size="10.00" fill="#000000">ChimeraTK::StatusAggregator</text>
<text text-anchor="middle" x="668.5" y="-7.5" font-family="Helvetica,sans-Serif" font-size="10.00" fill="#000000">::populateStatusInput</text>
</a>
</g>
</g>
<!-- Node88&#45;&gt;Node89 -->
<g id="edge6" class="edge">
<title>Node88&#45;&gt;Node89</title>
<path fill="none" stroke="#191970" d="M562.4314,-15.5C570.8899,-15.5 579.4064,-15.5 587.7378,-15.5"/>
<polygon fill="#191970" stroke="#191970" points="562.1592,-12.0001 552.1592,-15.5 562.1591,-19.0001 562.1592,-12.0001"/>
</g>
<!-- Node90 -->
<g id="node8" class="node">
<title>Node90</title>
<g id="a_node8"><a xlink:href="struct_chimera_t_k_1_1_status_aggregator.html#a9e324cdb5a4284b814ab592b802ad084" target="_top" xlink:title="Construct StatusAggregator object. ">
<polygon fill="#ffffff" stroke="#000000" points="785,-.5 785,-30.5 946,-30.5 946,-.5 785,-.5"/>
<text text-anchor="start" x="793" y="-18.5" font-family="Helvetica,sans-Serif" font-size="10.00" fill="#000000">ChimeraTK::StatusAggregator</text>
<text text-anchor="middle" x="865.5" y="-7.5" font-family="Helvetica,sans-Serif" font-size="10.00" fill="#000000">::StatusAggregator</text>
</a>
</g>
</g>
<!-- Node89&#45;&gt;Node90 -->
<g id="edge7" class="edge">
<title>Node89&#45;&gt;Node90</title>
<path fill="none" stroke="#191970" d="M759.2155,-15.5C767.7951,-15.5 776.454,-15.5 784.9296,-15.5"/>
<polygon fill="#191970" stroke="#191970" points="759.1959,-12.0001 749.1959,-15.5 759.1958,-19.0001 759.1959,-12.0001"/>
</g>
</g>
</svg>
