<?xml version="1.0" encoding="UTF-8" standalone="no"?>
<!DOCTYPE svg PUBLIC "-//W3C//DTD SVG 1.1//EN"
 "http://www.w3.org/Graphics/SVG/1.1/DTD/svg11.dtd">
<!-- Generated by graphviz version 2.40.1 (20161225.0304)
 -->
<!-- Title: Graphical Class Hierarchy Pages: 1 -->
<svg width="234pt" height="66pt"
 viewBox="0.00 0.00 234.00 66.00" xmlns="http://www.w3.org/2000/svg" xmlns:xlink="http://www.w3.org/1999/xlink">
<g id="graph0" class="graph" transform="scale(1 1) rotate(0) translate(4 62)">
<title>Graphical Class Hierarchy</title>
<polygon fill="#ffffff" stroke="transparent" points="-4,4 -4,-62 230,-62 230,4 -4,4"/>
<!-- Node462 -->
<g id="node1" class="node">
<title>Node462</title>
<polygon fill="#ffffff" stroke="#bfbfbf" points="0,-38.5 0,-57.5 29,-57.5 29,-38.5 0,-38.5"/>
<text text-anchor="middle" x="14.5" y="-45.5" font-family="Helvetica,sans-Serif" font-size="10.00" fill="#000000">A</text>
</g>
<!-- Node0 -->
<g id="node2" class="node">
<title>Node0</title>
<g id="a_node2"><a xlink:href="struct_chimera_t_k_1_1_model_1_1_combined_search_config.html" target="_top" xlink:title="ChimeraTK::Model::Combined\lSearchConfig\&lt; A, B \&gt;">
<polygon fill="#ffffff" stroke="#000000" points="65,-14 65,-44 226,-44 226,-14 65,-14"/>
<text text-anchor="start" x="73" y="-32" font-family="Helvetica,sans-Serif" font-size="10.00" fill="#000000">ChimeraTK::Model::Combined</text>
<text text-anchor="middle" x="145.5" y="-21" font-family="Helvetica,sans-Serif" font-size="10.00" fill="#000000">SearchConfig&lt; A, B &gt;</text>
</a>
</g>
</g>
<!-- Node462&#45;&gt;Node0 -->
<g id="edge1" class="edge">
<title>Node462&#45;&gt;Node0</title>
<path fill="none" stroke="#191970" d="M38.9268,-44.4572C46.5871,-43.3461 55.504,-42.0529 64.8567,-40.6963"/>
<polygon fill="#191970" stroke="#191970" points="38.4139,-40.9949 29.0198,-45.8941 39.4187,-47.9224 38.4139,-40.9949"/>
</g>
<!-- Node452 -->
<g id="node3" class="node">
<title>Node452</title>
<polygon fill="#ffffff" stroke="#bfbfbf" points="0,-.5 0,-19.5 29,-19.5 29,-.5 0,-.5"/>
<text text-anchor="middle" x="14.5" y="-7.5" font-family="Helvetica,sans-Serif" font-size="10.00" fill="#000000">B</text>
</g>
<!-- Node452&#45;&gt;Node0 -->
<g id="edge2" class="edge">
<title>Node452&#45;&gt;Node0</title>
<path fill="none" stroke="#191970" d="M38.9268,-13.5428C46.5871,-14.6539 55.504,-15.9471 64.8567,-17.3037"/>
<polygon fill="#191970" stroke="#191970" points="39.4187,-10.0776 29.0198,-12.1059 38.4139,-17.0051 39.4187,-10.0776"/>
</g>
</g>
</svg>
