<?xml version="1.0" encoding="UTF-8" standalone="no"?>
<!DOCTYPE svg PUBLIC "-//W3C//DTD SVG 1.1//EN"
 "http://www.w3.org/Graphics/SVG/1.1/DTD/svg11.dtd">
<!-- Generated by graphviz version 2.43.0 (0)
 -->
<!-- Title: ChimeraTK::ScalarPushInputWB&lt; UserType &gt; Pages: 1 -->
<svg width="1176pt" height="100pt"
 viewBox="0.00 0.00 1176.00 99.50" xmlns="http://www.w3.org/2000/svg" xmlns:xlink="http://www.w3.org/1999/xlink">
<g id="graph0" class="graph" transform="scale(1 1) rotate(0) translate(4 95.5)">
<title>ChimeraTK::ScalarPushInputWB&lt; UserType &gt;</title>
<polygon fill="white" stroke="transparent" points="-4,4 -4,-95.5 1172,-95.5 1172,4 -4,4"/>
<!-- Node1 -->
<g id="node1" class="node">
<title>Node1</title>
<g id="a_node1"><a xlink:title="Convenience class for input scalar accessors with return channel (&quot;write back&quot;) and UpdateMode::push.">
<polygon fill="#bfbfbf" stroke="black" points="763,-33 763,-63 918,-63 918,-33 763,-33"/>
<text text-anchor="start" x="771" y="-51" font-family="Helvetica,sans-Serif" font-size="10.00">ChimeraTK::ScalarPushInput</text>
<text text-anchor="middle" x="840.5" y="-40" font-family="Helvetica,sans-Serif" font-size="10.00">WB&lt; UserType &gt;</text>
</a>
</g>
</g>
<!-- Node6 -->
<g id="node6" class="node">
<title>Node6</title>
<g id="a_node6"><a xlink:href="struct_chimera_t_k_1_1_scalar_push_input_w_b.html" target="_top" xlink:title=" ">
<polygon fill="white" stroke="black" points="1013,-58 1013,-88 1168,-88 1168,-58 1013,-58"/>
<text text-anchor="start" x="1021" y="-76" font-family="Helvetica,sans-Serif" font-size="10.00">ChimeraTK::ScalarPushInput</text>
<text text-anchor="middle" x="1090.5" y="-65" font-family="Helvetica,sans-Serif" font-size="10.00">WB&lt; double &gt;</text>
</a>
</g>
</g>
<!-- Node1&#45;&gt;Node6 -->
<g id="edge5" class="edge">
<title>Node1&#45;&gt;Node6</title>
<path fill="none" stroke="orange" stroke-dasharray="5,2" d="M928.26,-56.75C955.75,-59.52 985.93,-62.56 1012.67,-65.25"/>
<polygon fill="orange" stroke="orange" points="928.57,-53.26 918.27,-55.74 927.87,-60.22 928.57,-53.26"/>
<text text-anchor="middle" x="965.5" y="-65" font-family="Helvetica,sans-Serif" font-size="10.00"> &lt; double &gt;</text>
</g>
<!-- Node7 -->
<g id="node7" class="node">
<title>Node7</title>
<g id="a_node7"><a xlink:href="struct_chimera_t_k_1_1_scalar_push_input_w_b.html" target="_top" xlink:title=" ">
<polygon fill="white" stroke="black" points="1013,-9 1013,-39 1168,-39 1168,-9 1013,-9"/>
<text text-anchor="start" x="1021" y="-27" font-family="Helvetica,sans-Serif" font-size="10.00">ChimeraTK::ScalarPushInput</text>
<text text-anchor="middle" x="1090.5" y="-16" font-family="Helvetica,sans-Serif" font-size="10.00">WB&lt; int &gt;</text>
</a>
</g>
</g>
<!-- Node1&#45;&gt;Node7 -->
<g id="edge6" class="edge">
<title>Node1&#45;&gt;Node7</title>
<path fill="none" stroke="orange" stroke-dasharray="5,2" d="M928.26,-39.6C955.75,-36.94 985.93,-34.02 1012.67,-31.44"/>
<polygon fill="orange" stroke="orange" points="927.89,-36.12 918.27,-40.57 928.56,-43.09 927.89,-36.12"/>
<text text-anchor="middle" x="965.5" y="-42" font-family="Helvetica,sans-Serif" font-size="10.00"> &lt; int &gt;</text>
</g>
<!-- Node2 -->
<g id="node2" class="node">
<title>Node2</title>
<g id="a_node2"><a xlink:href="class_chimera_t_k_1_1_scalar_accessor.html" target="_top" xlink:title="Accessor for scalar variables (i.e.">
<polygon fill="white" stroke="black" points="576,-33 576,-63 726,-63 726,-33 576,-33"/>
<text text-anchor="start" x="584" y="-51" font-family="Helvetica,sans-Serif" font-size="10.00">ChimeraTK::ScalarAccessor</text>
<text text-anchor="middle" x="651" y="-40" font-family="Helvetica,sans-Serif" font-size="10.00">&lt; UserType &gt;</text>
</a>
</g>
</g>
<!-- Node2&#45;&gt;Node1 -->
<g id="edge1" class="edge">
<title>Node2&#45;&gt;Node1</title>
<path fill="none" stroke="midnightblue" d="M736.39,-48C745.2,-48 754.13,-48 762.86,-48"/>
<polygon fill="midnightblue" stroke="midnightblue" points="736.1,-44.5 726.1,-48 736.1,-51.5 736.1,-44.5"/>
</g>
<!-- Node3 -->
<g id="node3" class="node">
<title>Node3</title>
<g id="a_node3"><a xlink:title=" ">
<polygon fill="white" stroke="#bfbfbf" points="381.5,-61 381.5,-91 528.5,-91 528.5,-61 381.5,-61"/>
<text text-anchor="start" x="389.5" y="-79" font-family="Helvetica,sans-Serif" font-size="10.00">ChimeraTK::ScalarRegister</text>
<text text-anchor="middle" x="455" y="-68" font-family="Helvetica,sans-Serif" font-size="10.00">Accessor&lt; UserType &gt;</text>
</a>
</g>
</g>
<!-- Node3&#45;&gt;Node2 -->
<g id="edge2" class="edge">
<title>Node3&#45;&gt;Node2</title>
<path fill="none" stroke="midnightblue" d="M538.42,-64.1C550.89,-62.3 563.68,-60.46 575.96,-58.69"/>
<polygon fill="midnightblue" stroke="midnightblue" points="537.91,-60.64 528.51,-65.53 538.91,-67.57 537.91,-60.64"/>
</g>
<!-- Node4 -->
<g id="node4" class="node">
<title>Node4</title>
<g id="a_node4"><a xlink:href="class_chimera_t_k_1_1_inversion_of_control_accessor.html" target="_top" xlink:title=" ">
<polygon fill="white" stroke="black" points="371,-0.5 371,-41.5 539,-41.5 539,-0.5 371,-0.5"/>
<text text-anchor="start" x="379" y="-29.5" font-family="Helvetica,sans-Serif" font-size="10.00">ChimeraTK::InversionOfControl</text>
<text text-anchor="start" x="379" y="-18.5" font-family="Helvetica,sans-Serif" font-size="10.00">Accessor&lt; ScalarAccessor</text>
<text text-anchor="middle" x="455" y="-7.5" font-family="Helvetica,sans-Serif" font-size="10.00">&lt; UserType &gt; &gt;</text>
</a>
</g>
</g>
<!-- Node4&#45;&gt;Node2 -->
<g id="edge3" class="edge">
<title>Node4&#45;&gt;Node2</title>
<path fill="none" stroke="midnightblue" d="M549.21,-33.97C558.18,-35.22 567.19,-36.47 575.93,-37.69"/>
<polygon fill="midnightblue" stroke="midnightblue" points="549.5,-30.48 539.12,-32.57 548.54,-37.41 549.5,-30.48"/>
</g>
<!-- Node5 -->
<g id="node5" class="node">
<title>Node5</title>
<g id="a_node5"><a xlink:href="class_chimera_t_k_1_1_inversion_of_control_accessor.html" target="_top" xlink:title="Adds features required for inversion of control to an accessor.">
<polygon fill="white" stroke="black" points="0,-6 0,-36 168,-36 168,-6 0,-6"/>
<text text-anchor="start" x="8" y="-24" font-family="Helvetica,sans-Serif" font-size="10.00">ChimeraTK::InversionOfControl</text>
<text text-anchor="middle" x="84" y="-13" font-family="Helvetica,sans-Serif" font-size="10.00">Accessor&lt; Derived &gt;</text>
</a>
</g>
</g>
<!-- Node5&#45;&gt;Node4 -->
<g id="edge4" class="edge">
<title>Node5&#45;&gt;Node4</title>
<path fill="none" stroke="orange" stroke-dasharray="5,2" d="M178.37,-21C237.6,-21 313.54,-21 370.71,-21"/>
<polygon fill="orange" stroke="orange" points="178.27,-17.5 168.27,-21 178.27,-24.5 178.27,-17.5"/>
<text text-anchor="middle" x="269.5" y="-24" font-family="Helvetica,sans-Serif" font-size="10.00"> &lt; ScalarAccessor&lt; UserType &gt; &gt;</text>
</g>
</g>
</svg>
