<?xml version="1.0" encoding="UTF-8" standalone="no"?>
<!DOCTYPE svg PUBLIC "-//W3C//DTD SVG 1.1//EN"
 "http://www.w3.org/Graphics/SVG/1.1/DTD/svg11.dtd">
<!-- Generated by graphviz version 2.43.0 (0)
 -->
<!-- Title: ChimeraTK::DoocsBackendNamespace::ZMQSubscriptionManager::getInstance Pages: 1 -->
<svg width="722pt" height="477pt"
 viewBox="0.00 0.00 722.00 476.50" xmlns="http://www.w3.org/2000/svg" xmlns:xlink="http://www.w3.org/1999/xlink">
<g id="graph0" class="graph" transform="scale(1 1) rotate(0) translate(4 472.5)">
<title>ChimeraTK::DoocsBackendNamespace::ZMQSubscriptionManager::getInstance</title>
<polygon fill="white" stroke="transparent" points="-4,4 -4,-472.5 718,-472.5 718,4 -4,4"/>
<!-- Node1 -->
<g id="node1" class="node">
<title>Node1</title>
<g id="a_node1"><a xlink:title=" ">
<polygon fill="#bfbfbf" stroke="black" points="502,-340 502,-370 714,-370 714,-340 502,-340"/>
<text text-anchor="start" x="510" y="-358" font-family="Helvetica,sans-Serif" font-size="10.00">ChimeraTK::DoocsBackendNamespace</text>
<text text-anchor="middle" x="608" y="-347" font-family="Helvetica,sans-Serif" font-size="10.00">::ZMQSubscriptionManager::getInstance</text>
</a>
</g>
</g>
<!-- Node2 -->
<g id="node2" class="node">
<title>Node2</title>
<g id="a_node2"><a xlink:href="class_chimera_t_k_1_1_doocs_backend.html#a60af750f68aad5c342fb159949240077" target="_top" xlink:title=" ">
<polygon fill="white" stroke="black" points="298,-438 298,-468 446,-468 446,-438 298,-438"/>
<text text-anchor="start" x="306" y="-456" font-family="Helvetica,sans-Serif" font-size="10.00">ChimeraTK::DoocsBackend</text>
<text text-anchor="middle" x="372" y="-445" font-family="Helvetica,sans-Serif" font-size="10.00">::activateAsyncRead</text>
</a>
</g>
</g>
<!-- Node1&#45;&gt;Node2 -->
<g id="edge1" class="edge">
<title>Node1&#45;&gt;Node2</title>
<path fill="none" stroke="midnightblue" d="M573.41,-375.46C545.47,-391.78 504.24,-414.26 466,-429 457.44,-432.3 448.27,-435.29 439.14,-437.95"/>
<polygon fill="midnightblue" stroke="midnightblue" points="575.52,-378.28 582.35,-370.18 571.96,-372.25 575.52,-378.28"/>
</g>
<!-- Node3 -->
<g id="node3" class="node">
<title>Node3</title>
<g id="a_node3"><a xlink:href="class_chimera_t_k_1_1_doocs_backend.html#aa0b104650a279c02f853d7a7f6e07f48" target="_top" xlink:title=" ">
<polygon fill="white" stroke="black" points="298,-389 298,-419 446,-419 446,-389 298,-389"/>
<text text-anchor="start" x="306" y="-407" font-family="Helvetica,sans-Serif" font-size="10.00">ChimeraTK::DoocsBackend</text>
<text text-anchor="middle" x="372" y="-396" font-family="Helvetica,sans-Serif" font-size="10.00">::close</text>
</a>
</g>
</g>
<!-- Node1&#45;&gt;Node3 -->
<g id="edge2" class="edge">
<title>Node1&#45;&gt;Node3</title>
<path fill="none" stroke="midnightblue" d="M525.28,-372.11C499.02,-377.61 470.14,-383.66 444.66,-388.99"/>
<polygon fill="midnightblue" stroke="midnightblue" points="526.13,-375.51 535.2,-370.03 524.7,-368.66 526.13,-375.51"/>
</g>
<!-- Node4 -->
<g id="node4" class="node">
<title>Node4</title>
<g id="a_node4"><a xlink:href="class_chimera_t_k_1_1_doocs_backend_register_accessor.html#ae6037438b370642c6010741eddace8fb" target="_top" xlink:title="Perform initialisation (i.e.">
<polygon fill="white" stroke="black" points="278,-291 278,-321 466,-321 466,-291 278,-291"/>
<text text-anchor="start" x="286" y="-309" font-family="Helvetica,sans-Serif" font-size="10.00">ChimeraTK::DoocsBackendRegister</text>
<text text-anchor="middle" x="372" y="-298" font-family="Helvetica,sans-Serif" font-size="10.00">Accessor::initialise</text>
</a>
</g>
</g>
<!-- Node1&#45;&gt;Node4 -->
<g id="edge3" class="edge">
<title>Node1&#45;&gt;Node4</title>
<path fill="none" stroke="midnightblue" d="M525.28,-337.89C499.02,-332.39 470.14,-326.34 444.66,-321.01"/>
<polygon fill="midnightblue" stroke="midnightblue" points="524.7,-341.34 535.2,-339.97 526.13,-334.49 524.7,-341.34"/>
</g>
<!-- Node6 -->
<g id="node6" class="node">
<title>Node6</title>
<g id="a_node6"><a xlink:href="class_chimera_t_k_1_1_doocs_backend.html#a7edfcfc60808a52f47010ec0759ee121" target="_top" xlink:title=" ">
<polygon fill="white" stroke="black" points="298,-340 298,-370 446,-370 446,-340 298,-340"/>
<text text-anchor="start" x="306" y="-358" font-family="Helvetica,sans-Serif" font-size="10.00">ChimeraTK::DoocsBackend</text>
<text text-anchor="middle" x="372" y="-347" font-family="Helvetica,sans-Serif" font-size="10.00">::setException</text>
</a>
</g>
</g>
<!-- Node1&#45;&gt;Node6 -->
<g id="edge5" class="edge">
<title>Node1&#45;&gt;Node6</title>
<path fill="none" stroke="midnightblue" d="M491.8,-355C476.28,-355 460.72,-355 446.21,-355"/>
<polygon fill="midnightblue" stroke="midnightblue" points="491.98,-358.5 501.98,-355 491.98,-351.5 491.98,-358.5"/>
</g>
<!-- Node8 -->
<g id="node8" class="node">
<title>Node8</title>
<g id="a_node8"><a xlink:href="class_chimera_t_k_1_1_doocs_backend_register_accessor.html#a14e6481ebb423ffab7c49078e87fe6cf" target="_top" xlink:title="All implementations must call this function in their destructor.">
<polygon fill="white" stroke="black" points="278,-176 278,-206 466,-206 466,-176 278,-176"/>
<text text-anchor="start" x="286" y="-194" font-family="Helvetica,sans-Serif" font-size="10.00">ChimeraTK::DoocsBackendRegister</text>
<text text-anchor="middle" x="372" y="-183" font-family="Helvetica,sans-Serif" font-size="10.00">Accessor::shutdown</text>
</a>
</g>
</g>
<!-- Node1&#45;&gt;Node8 -->
<g id="edge7" class="edge">
<title>Node1&#45;&gt;Node8</title>
<path fill="none" stroke="midnightblue" d="M577,-333.98C529.1,-300.4 436.47,-235.48 394.54,-206.1"/>
<polygon fill="midnightblue" stroke="midnightblue" points="575.21,-336.99 585.41,-339.87 579.23,-331.26 575.21,-336.99"/>
</g>
<!-- Node5 -->
<g id="node5" class="node">
<title>Node5</title>
<g id="a_node5"><a xlink:href="class_chimera_t_k_1_1_doocs_backend_register_accessor.html#aa1e88c093f1951deaf0123e16c08117b" target="_top" xlink:title=" ">
<polygon fill="white" stroke="black" points="10.5,-291 10.5,-321 231.5,-321 231.5,-291 10.5,-291"/>
<text text-anchor="start" x="18.5" y="-309" font-family="Helvetica,sans-Serif" font-size="10.00">ChimeraTK::DoocsBackendRegister</text>
<text text-anchor="middle" x="121" y="-298" font-family="Helvetica,sans-Serif" font-size="10.00">Accessor::DoocsBackendRegisterAccessor</text>
</a>
</g>
</g>
<!-- Node4&#45;&gt;Node5 -->
<g id="edge4" class="edge">
<title>Node4&#45;&gt;Node5</title>
<path fill="none" stroke="midnightblue" d="M267.6,-306C255.77,-306 243.67,-306 231.75,-306"/>
<polygon fill="midnightblue" stroke="midnightblue" points="267.93,-309.5 277.93,-306 267.93,-302.5 267.93,-309.5"/>
</g>
<!-- Node7 -->
<g id="node7" class="node">
<title>Node7</title>
<g id="a_node7"><a xlink:href="class_chimera_t_k_1_1_doocs_backend.html#ad777f3414af4944b2f9c1bafd272a801" target="_top" xlink:title=" ">
<polygon fill="white" stroke="black" points="47,-340 47,-370 195,-370 195,-340 47,-340"/>
<text text-anchor="start" x="55" y="-358" font-family="Helvetica,sans-Serif" font-size="10.00">ChimeraTK::DoocsBackend</text>
<text text-anchor="middle" x="121" y="-347" font-family="Helvetica,sans-Serif" font-size="10.00">::open</text>
</a>
</g>
</g>
<!-- Node6&#45;&gt;Node7 -->
<g id="edge6" class="edge">
<title>Node6&#45;&gt;Node7</title>
<path fill="none" stroke="midnightblue" d="M287.93,-355C257.86,-355 224.16,-355 195.02,-355"/>
<polygon fill="midnightblue" stroke="midnightblue" points="287.97,-358.5 297.97,-355 287.97,-351.5 287.97,-358.5"/>
</g>
<!-- Node8&#45;&gt;Node5 -->
<g id="edge12" class="edge">
<title>Node8&#45;&gt;Node5</title>
<path fill="none" stroke="midnightblue" d="M346.24,-212.91C321.53,-233.58 281.65,-263.9 242,-281 233.01,-284.88 223.38,-288.17 213.62,-290.96"/>
<polygon fill="midnightblue" stroke="midnightblue" points="348.66,-215.44 354.01,-206.3 344.12,-210.11 348.66,-215.44"/>
</g>
<!-- Node9 -->
<g id="node9" class="node">
<title>Node9</title>
<g id="a_node9"><a xlink:href="class_chimera_t_k_1_1_doocs_backend_float_register_accessor.html#ab61ccc0196f93df5ddde9471b8e11c0d" target="_top" xlink:title=" ">
<polygon fill="white" stroke="black" points="19.5,-110.5 19.5,-151.5 222.5,-151.5 222.5,-110.5 19.5,-110.5"/>
<text text-anchor="start" x="27.5" y="-139.5" font-family="Helvetica,sans-Serif" font-size="10.00">ChimeraTK::DoocsBackendFloat</text>
<text text-anchor="start" x="27.5" y="-128.5" font-family="Helvetica,sans-Serif" font-size="10.00">RegisterAccessor::DoocsBackendFloat</text>
<text text-anchor="middle" x="121" y="-117.5" font-family="Helvetica,sans-Serif" font-size="10.00">RegisterAccessor</text>
</a>
</g>
</g>
<!-- Node8&#45;&gt;Node9 -->
<g id="edge8" class="edge">
<title>Node8&#45;&gt;Node9</title>
<path fill="none" stroke="midnightblue" d="M298.57,-173.55C269.95,-166.65 236.87,-158.68 207.12,-151.51"/>
<polygon fill="midnightblue" stroke="midnightblue" points="297.95,-177 308.49,-175.94 299.59,-170.19 297.95,-177"/>
</g>
<!-- Node10 -->
<g id="node10" class="node">
<title>Node10</title>
<g id="a_node10"><a xlink:href="class_chimera_t_k_1_1_doocs_backend_i_f_f_f_register_accessor.html#a503c90b7e236e6c17136c2e4688d3a7d" target="_top" xlink:title=" ">
<polygon fill="white" stroke="black" points="0,-61 0,-91 242,-91 242,-61 0,-61"/>
<text text-anchor="start" x="8" y="-79" font-family="Helvetica,sans-Serif" font-size="10.00">ChimeraTK::DoocsBackendIFFFRegister</text>
<text text-anchor="middle" x="121" y="-68" font-family="Helvetica,sans-Serif" font-size="10.00">Accessor::DoocsBackendIFFFRegisterAccessor</text>
</a>
</g>
</g>
<!-- Node8&#45;&gt;Node10 -->
<g id="edge9" class="edge">
<title>Node8&#45;&gt;Node10</title>
<path fill="none" stroke="midnightblue" d="M346.24,-169.09C321.53,-148.42 281.65,-118.1 242,-101 233.01,-97.12 223.38,-93.83 213.62,-91.04"/>
<polygon fill="midnightblue" stroke="midnightblue" points="344.12,-171.89 354.01,-175.7 348.66,-166.56 344.12,-171.89"/>
</g>
<!-- Node11 -->
<g id="node11" class="node">
<title>Node11</title>
<g id="a_node11"><a xlink:href="class_chimera_t_k_1_1_doocs_backend_int_register_accessor.html#aa561aef7eb86a459555a29e80c666055" target="_top" xlink:title=" ">
<polygon fill="white" stroke="black" points="32,-0.5 32,-41.5 210,-41.5 210,-0.5 32,-0.5"/>
<text text-anchor="start" x="40" y="-29.5" font-family="Helvetica,sans-Serif" font-size="10.00">ChimeraTK::DoocsBackendInt</text>
<text text-anchor="start" x="40" y="-18.5" font-family="Helvetica,sans-Serif" font-size="10.00">RegisterAccessor::DoocsBackend</text>
<text text-anchor="middle" x="121" y="-7.5" font-family="Helvetica,sans-Serif" font-size="10.00">IntRegisterAccessor</text>
</a>
</g>
</g>
<!-- Node8&#45;&gt;Node11 -->
<g id="edge10" class="edge">
<title>Node8&#45;&gt;Node11</title>
<path fill="none" stroke="midnightblue" d="M355.61,-167.04C334.07,-135.51 291.93,-80.63 242,-51 232.21,-45.19 221.33,-40.5 210.24,-36.72"/>
<polygon fill="midnightblue" stroke="midnightblue" points="352.9,-169.29 361.37,-175.65 358.72,-165.4 352.9,-169.29"/>
</g>
<!-- Node12 -->
<g id="node12" class="node">
<title>Node12</title>
<g id="a_node12"><a xlink:href="class_chimera_t_k_1_1_doocs_backend_long_register_accessor.html#a242ca6ba20eeb63d2827bbc03ac520a8" target="_top" xlink:title=" ">
<polygon fill="white" stroke="black" points="20.5,-230.5 20.5,-271.5 221.5,-271.5 221.5,-230.5 20.5,-230.5"/>
<text text-anchor="start" x="28.5" y="-259.5" font-family="Helvetica,sans-Serif" font-size="10.00">ChimeraTK::DoocsBackendLong</text>
<text text-anchor="start" x="28.5" y="-248.5" font-family="Helvetica,sans-Serif" font-size="10.00">RegisterAccessor::DoocsBackendLong</text>
<text text-anchor="middle" x="121" y="-237.5" font-family="Helvetica,sans-Serif" font-size="10.00">RegisterAccessor</text>
</a>
</g>
</g>
<!-- Node8&#45;&gt;Node12 -->
<g id="edge11" class="edge">
<title>Node8&#45;&gt;Node12</title>
<path fill="none" stroke="midnightblue" d="M298.57,-208.45C269.95,-215.35 236.87,-223.32 207.12,-230.49"/>
<polygon fill="midnightblue" stroke="midnightblue" points="299.59,-211.81 308.49,-206.06 297.95,-205 299.59,-211.81"/>
</g>
<!-- Node13 -->
<g id="node13" class="node">
<title>Node13</title>
<g id="a_node13"><a xlink:href="class_chimera_t_k_1_1_doocs_backend_string_register_accessor.html#a238eef2791d961eb9c90754b92ca83fe" target="_top" xlink:title=" ">
<polygon fill="white" stroke="black" points="18,-170.5 18,-211.5 224,-211.5 224,-170.5 18,-170.5"/>
<text text-anchor="start" x="26" y="-199.5" font-family="Helvetica,sans-Serif" font-size="10.00">ChimeraTK::DoocsBackendString</text>
<text text-anchor="start" x="26" y="-188.5" font-family="Helvetica,sans-Serif" font-size="10.00">RegisterAccessor::DoocsBackendString</text>
<text text-anchor="middle" x="121" y="-177.5" font-family="Helvetica,sans-Serif" font-size="10.00">RegisterAccessor</text>
</a>
</g>
</g>
<!-- Node8&#45;&gt;Node13 -->
<g id="edge13" class="edge">
<title>Node8&#45;&gt;Node13</title>
<path fill="none" stroke="midnightblue" d="M267.56,-191C253.21,-191 238.47,-191 224.15,-191"/>
<polygon fill="midnightblue" stroke="midnightblue" points="267.93,-194.5 277.93,-191 267.93,-187.5 267.93,-194.5"/>
</g>
</g>
</svg>
