<?xml version="1.0" encoding="UTF-8" standalone="no"?>
<!DOCTYPE svg PUBLIC "-//W3C//DTD SVG 1.1//EN"
 "http://www.w3.org/Graphics/SVG/1.1/DTD/svg11.dtd">
<!-- Generated by graphviz version 2.43.0 (0)
 -->
<!-- Title: ChimeraTK::TangoUpdater::UpdateDescriptor Pages: 1 -->
<svg width="1030pt" height="123pt"
 viewBox="0.00 0.00 1030.00 123.00" xmlns="http://www.w3.org/2000/svg" xmlns:xlink="http://www.w3.org/1999/xlink">
<g id="graph0" class="graph" transform="scale(1 1) rotate(0) translate(4 119)">
<title>ChimeraTK::TangoUpdater::UpdateDescriptor</title>
<polygon fill="white" stroke="transparent" points="-4,4 -4,-119 1026,-119 1026,4 -4,4"/>
<!-- Node1 -->
<g id="node1" class="node">
<title>Node1</title>
<g id="a_node1"><a xlink:title=" ">
<polygon fill="#bfbfbf" stroke="black" points="878,-22.5 878,-52.5 1022,-52.5 1022,-22.5 878,-22.5"/>
<text text-anchor="start" x="886" y="-40.5" font-family="Helvetica,sans-Serif" font-size="10.00">ChimeraTK::TangoUpdater</text>
<text text-anchor="middle" x="950" y="-29.5" font-family="Helvetica,sans-Serif" font-size="10.00">::UpdateDescriptor</text>
</a>
</g>
</g>
<!-- Node2 -->
<g id="node2" class="node">
<title>Node2</title>
<g id="a_node2"><a xlink:title=" ">
<polygon fill="white" stroke="#bfbfbf" points="530.5,-50 530.5,-69 670.5,-69 670.5,-50 530.5,-50"/>
<text text-anchor="middle" x="600.5" y="-57" font-family="Helvetica,sans-Serif" font-size="10.00">std::vector&lt; std::string &gt;</text>
</a>
</g>
</g>
<!-- Node2&#45;&gt;Node1 -->
<g id="edge1" class="edge">
<title>Node2&#45;&gt;Node1</title>
<path fill="none" stroke="#9a32cd" stroke-dasharray="5,2" d="M680.66,-54.49C740.05,-50.73 820.65,-45.63 877.97,-42"/>
<polygon fill="#9a32cd" stroke="#9a32cd" points="680.33,-51 670.57,-55.13 680.77,-57.99 680.33,-51"/>
<text text-anchor="middle" x="791.5" y="-54.5" font-family="Helvetica,sans-Serif" font-size="10.00"> attributeID</text>
</g>
<!-- Node3 -->
<g id="node3" class="node">
<title>Node3</title>
<g id="a_node3"><a xlink:title="STL class.">
<polygon fill="white" stroke="#bfbfbf" points="205,-89 205,-108 270,-108 270,-89 205,-89"/>
<text text-anchor="middle" x="237.5" y="-96" font-family="Helvetica,sans-Serif" font-size="10.00">std::string</text>
</a>
</g>
</g>
<!-- Node3&#45;&gt;Node2 -->
<g id="edge2" class="edge">
<title>Node3&#45;&gt;Node2</title>
<path fill="none" stroke="#9a32cd" stroke-dasharray="5,2" d="M280.25,-94.28C328.06,-89.41 408.7,-81.11 478,-73.5 494.99,-71.63 513.31,-69.56 530.44,-67.59"/>
<polygon fill="#9a32cd" stroke="#9a32cd" points="279.87,-90.8 270.28,-95.29 280.58,-97.76 279.87,-90.8"/>
<text text-anchor="middle" x="391" y="-94.5" font-family="Helvetica,sans-Serif" font-size="10.00"> elements</text>
</g>
<!-- Node4 -->
<g id="node4" class="node">
<title>Node4</title>
<g id="a_node4"><a xlink:title="STL class.">
<polygon fill="white" stroke="#bfbfbf" points="0,-84.5 0,-114.5 104,-114.5 104,-84.5 0,-84.5"/>
<text text-anchor="start" x="8" y="-102.5" font-family="Helvetica,sans-Serif" font-size="10.00">std::basic_string&lt;</text>
<text text-anchor="middle" x="52" y="-91.5" font-family="Helvetica,sans-Serif" font-size="10.00"> char &gt;</text>
</a>
</g>
</g>
<!-- Node4&#45;&gt;Node3 -->
<g id="edge3" class="edge">
<title>Node4&#45;&gt;Node3</title>
<path fill="none" stroke="midnightblue" d="M114.21,-99.17C144.61,-99 180.06,-98.81 204.94,-98.67"/>
<polygon fill="midnightblue" stroke="midnightblue" points="114.1,-95.67 104.11,-99.22 114.13,-102.67 114.1,-95.67"/>
</g>
<!-- Node5 -->
<g id="node5" class="node">
<title>Node5</title>
<g id="a_node5"><a xlink:title="STL class.">
<polygon fill="white" stroke="#bfbfbf" points="189,-48 189,-67 286,-67 286,-48 189,-48"/>
<text text-anchor="middle" x="237.5" y="-55" font-family="Helvetica,sans-Serif" font-size="10.00">std::vector&lt; T &gt;</text>
</a>
</g>
</g>
<!-- Node5&#45;&gt;Node2 -->
<g id="edge4" class="edge">
<title>Node5&#45;&gt;Node2</title>
<path fill="none" stroke="orange" stroke-dasharray="5,2" d="M296.32,-57.82C359.98,-58.17 462.26,-58.74 530.17,-59.12"/>
<polygon fill="orange" stroke="orange" points="296.08,-54.32 286.07,-57.76 296.05,-61.32 296.08,-54.32"/>
<text text-anchor="middle" x="391" y="-61.5" font-family="Helvetica,sans-Serif" font-size="10.00"> &lt; std::string &gt;</text>
</g>
<!-- Node6 -->
<g id="node6" class="node">
<title>Node6</title>
<g id="a_node6"><a xlink:title=" ">
<polygon fill="white" stroke="#bfbfbf" points="37.5,-46 37.5,-65 66.5,-65 66.5,-46 37.5,-46"/>
<text text-anchor="middle" x="52" y="-53" font-family="Helvetica,sans-Serif" font-size="10.00">T</text>
</a>
</g>
</g>
<!-- Node6&#45;&gt;Node5 -->
<g id="edge5" class="edge">
<title>Node6&#45;&gt;Node5</title>
<path fill="none" stroke="#9a32cd" stroke-dasharray="5,2" d="M76.96,-55.76C105.28,-56.07 153.06,-56.59 188.97,-56.98"/>
<polygon fill="#9a32cd" stroke="#9a32cd" points="76.83,-52.26 66.79,-55.65 76.75,-59.26 76.83,-52.26"/>
<text text-anchor="middle" x="146.5" y="-59.5" font-family="Helvetica,sans-Serif" font-size="10.00"> elements</text>
</g>
<!-- Node7 -->
<g id="node7" class="node">
<title>Node7</title>
<g id="a_node7"><a xlink:title=" ">
<polygon fill="white" stroke="#bfbfbf" points="496,-0.5 496,-30.5 705,-30.5 705,-0.5 496,-0.5"/>
<text text-anchor="start" x="504" y="-18.5" font-family="Helvetica,sans-Serif" font-size="10.00">std::set&lt; boost::shared</text>
<text text-anchor="middle" x="600.5" y="-7.5" font-family="Helvetica,sans-Serif" font-size="10.00">_ptr&lt; ChimeraTK::TransferElement &gt; &gt;</text>
</a>
</g>
</g>
<!-- Node7&#45;&gt;Node1 -->
<g id="edge6" class="edge">
<title>Node7&#45;&gt;Node1</title>
<path fill="none" stroke="#9a32cd" stroke-dasharray="5,2" d="M715.14,-19.97C760.27,-22.07 812.62,-24.91 860,-28.5 865.73,-28.93 871.66,-29.43 877.62,-29.96"/>
<polygon fill="#9a32cd" stroke="#9a32cd" points="715.18,-16.47 705.03,-19.51 714.86,-23.46 715.18,-16.47"/>
<text text-anchor="middle" x="791.5" y="-31.5" font-family="Helvetica,sans-Serif" font-size="10.00"> additionalTransferElements</text>
</g>
<!-- Node8 -->
<g id="node8" class="node">
<title>Node8</title>
<g id="a_node8"><a xlink:title="STL class.">
<polygon fill="white" stroke="#bfbfbf" points="196.5,-5 196.5,-24 278.5,-24 278.5,-5 196.5,-5"/>
<text text-anchor="middle" x="237.5" y="-12" font-family="Helvetica,sans-Serif" font-size="10.00">std::set&lt; K &gt;</text>
</a>
</g>
</g>
<!-- Node8&#45;&gt;Node7 -->
<g id="edge7" class="edge">
<title>Node8&#45;&gt;Node7</title>
<path fill="none" stroke="orange" stroke-dasharray="5,2" d="M288.73,-14.64C342.08,-14.79 427.91,-15.02 495.86,-15.21"/>
<polygon fill="orange" stroke="orange" points="288.52,-11.14 278.51,-14.61 288.5,-18.14 288.52,-11.14"/>
<text text-anchor="start" x="304" y="-29.5" font-family="Helvetica,sans-Serif" font-size="10.00"> &lt; boost::shared_ptr</text>
<text text-anchor="middle" x="391" y="-18.5" font-family="Helvetica,sans-Serif" font-size="10.00">&lt; ChimeraTK::TransferElement &gt; &gt;</text>
</g>
<!-- Node9 -->
<g id="node9" class="node">
<title>Node9</title>
<g id="a_node9"><a xlink:title=" ">
<polygon fill="white" stroke="#bfbfbf" points="37.5,-5 37.5,-24 66.5,-24 66.5,-5 37.5,-5"/>
<text text-anchor="middle" x="52" y="-12" font-family="Helvetica,sans-Serif" font-size="10.00">K</text>
</a>
</g>
</g>
<!-- Node9&#45;&gt;Node8 -->
<g id="edge8" class="edge">
<title>Node9&#45;&gt;Node8</title>
<path fill="none" stroke="#9a32cd" stroke-dasharray="5,2" d="M76.86,-14.5C107.15,-14.5 159.82,-14.5 196.34,-14.5"/>
<polygon fill="#9a32cd" stroke="#9a32cd" points="76.79,-11 66.79,-14.5 76.79,-18 76.79,-11"/>
<text text-anchor="middle" x="146.5" y="-17.5" font-family="Helvetica,sans-Serif" font-size="10.00"> keys</text>
</g>
</g>
</svg>
