<?xml version="1.0" encoding="UTF-8" standalone="no"?>
<!DOCTYPE svg PUBLIC "-//W3C//DTD SVG 1.1//EN"
 "http://www.w3.org/Graphics/SVG/1.1/DTD/svg11.dtd">
<!-- Generated by graphviz version 2.43.0 (0)
 -->
<!-- Title: FileSystemGroup Pages: 1 -->
<!--zoomable 204 -->
<svg id="main" version="1.1" xmlns="http://www.w3.org/2000/svg" xmlns:xlink="http://www.w3.org/1999/xlink" xml:space="preserve" onload="init(evt)">
<style type="text/css"><![CDATA[
.edge:hover path { stroke: red; }
.edge:hover polygon { stroke: red; fill: red; }
]]></style>
<script type="text/javascript"><![CDATA[
var edges = document.getElementsByTagName('g');
if (edges && edges.length) {
  for (var i=0;i<edges.length;i++) {
    if (edges[i].id.substr(0,4)=='edge') {
      edges[i].setAttribute('class','edge');
    }
  }
}
]]></script>
        <defs>
                <circle id="rim" cx="0" cy="0" r="7"/>
                <circle id="rim2" cx="0" cy="0" r="3.5"/>
                <g id="zoomPlus">
                        <use xlink:href="#rim" fill="#404040">
                                <set attributeName="fill" to="#808080" begin="zoomplus.mouseover" end="zoomplus.mouseout"/>
                        </use>
                        <path d="M-4,0h8M0,-4v8" fill="none" stroke="white" stroke-width="1.5" pointer-events="none"/>
                </g>
                <g id="zoomMin">
                        <use xlink:href="#rim" fill="#404040">
                                <set attributeName="fill" to="#808080" begin="zoomminus.mouseover" end="zoomminus.mouseout"/>
                        </use>
                        <path d="M-4,0h8" fill="none" stroke="white" stroke-width="1.5" pointer-events="none"/>
                </g>
                <g id="dirArrow">
                        <path fill="none" stroke="white" stroke-width="1.5" d="M0,-3.0v7 M-2.5,-0.5L0,-3.0L2.5,-0.5"/>
                </g>
               <g id="resetDef">
                       <use xlink:href="#rim2" fill="#404040">
                               <set attributeName="fill" to="#808080" begin="reset.mouseover" end="reset.mouseout"/>
                       </use>
               </g>
        </defs>

<script type="text/javascript">
var viewWidth = 1065;
var viewHeight = 204;
var sectionId = 'dynsection-1';
</script>
<script xlink:href="svgpan.js"/>
<svg id="graph" class="graph">
<g id="viewport">
<title>FileSystemGroup</title>
<polygon fill="white" stroke="transparent" points="-4,4 -4,-200 1061,-200 1061,4 -4,4"/>
<!-- Node1 -->
<g id="node1" class="node">
<title>Node1</title>
<g id="a_node1"><a xlink:title="This group includes one FileSystemModule per hard drive.">
<polygon fill="#bfbfbf" stroke="black" points="957,-55.5 957,-74.5 1057,-74.5 1057,-55.5 957,-55.5"/>
<text text-anchor="middle" x="1007" y="-62.5" font-family="Helvetica,sans-Serif" font-size="10.00">FileSystemGroup</text>
</a>
</g>
</g>
<!-- Node2 -->
<g id="node2" class="node">
<title>Node2</title>
<g id="a_node2"><a xlink:title=" ">
<polygon fill="white" stroke="#bfbfbf" points="724,-74.5 724,-93.5 827,-93.5 827,-74.5 724,-74.5"/>
<text text-anchor="middle" x="775.5" y="-81.5" font-family="Helvetica,sans-Serif" font-size="10.00">ctk::ModuleGroup</text>
</a>
</g>
</g>
<!-- Node2&#45;&gt;Node1 -->
<g id="edge1" class="edge">
<title>Node2&#45;&gt;Node1</title>
<path fill="none" stroke="midnightblue" d="M837.38,-78.96C874.65,-75.87 921.73,-71.98 956.66,-69.08"/>
<polygon fill="midnightblue" stroke="midnightblue" points="836.83,-75.49 827.15,-79.81 837.4,-82.47 836.83,-75.49"/>
</g>
<!-- Node3 -->
<g id="node3" class="node">
<title>Node3</title>
<g id="a_node3"><a xlink:title=" ">
<polygon fill="white" stroke="#bfbfbf" points="685,-36.5 685,-55.5 866,-55.5 866,-36.5 685,-36.5"/>
<text text-anchor="middle" x="775.5" y="-43.5" font-family="Helvetica,sans-Serif" font-size="10.00">std::vector&lt; FileSystemModule &gt;</text>
</a>
</g>
</g>
<!-- Node3&#45;&gt;Node1 -->
<g id="edge2" class="edge">
<title>Node3&#45;&gt;Node1</title>
<path fill="none" stroke="#9a32cd" stroke-dasharray="5,2" d="M876.14,-50.05C896.94,-51.31 918.71,-52.93 939,-55 944.73,-55.59 950.73,-56.31 956.67,-57.11"/>
<polygon fill="#9a32cd" stroke="#9a32cd" points="876.2,-46.55 866.02,-49.46 875.8,-53.54 876.2,-46.55"/>
<text text-anchor="middle" x="911.5" y="-58" font-family="Helvetica,sans-Serif" font-size="10.00"> fsMonitors</text>
</g>
<!-- Node4 -->
<g id="node4" class="node">
<title>Node4</title>
<g id="a_node4"><a xlink:href="struct_file_system_module.html" target="_top" xlink:title="Module reading file system information (size, available space)">
<polygon fill="white" stroke="black" points="426,-72.5 426,-91.5 533,-91.5 533,-72.5 426,-72.5"/>
<text text-anchor="middle" x="479.5" y="-79.5" font-family="Helvetica,sans-Serif" font-size="10.00">FileSystemModule</text>
</a>
</g>
</g>
<!-- Node4&#45;&gt;Node3 -->
<g id="edge3" class="edge">
<title>Node4&#45;&gt;Node3</title>
<path fill="none" stroke="#9a32cd" stroke-dasharray="5,2" d="M543.24,-74.32C588.09,-68.83 648.74,-61.4 696.67,-55.53"/>
<polygon fill="#9a32cd" stroke="#9a32cd" points="542.56,-70.87 533.06,-75.56 543.41,-77.82 542.56,-70.87"/>
<text text-anchor="middle" x="609" y="-76" font-family="Helvetica,sans-Serif" font-size="10.00"> elements</text>
</g>
<!-- Node5 -->
<g id="node5" class="node">
<title>Node5</title>
<g id="a_node5"><a xlink:title=" ">
<polygon fill="white" stroke="#bfbfbf" points="190.5,-176.5 190.5,-195.5 318.5,-195.5 318.5,-176.5 190.5,-176.5"/>
<text text-anchor="middle" x="254.5" y="-183.5" font-family="Helvetica,sans-Serif" font-size="10.00">ctk::ApplicationModule</text>
</a>
</g>
</g>
<!-- Node5&#45;&gt;Node4 -->
<g id="edge4" class="edge">
<title>Node5&#45;&gt;Node4</title>
<path fill="none" stroke="midnightblue" d="M329.1,-187.18C355.33,-184.87 384.23,-179.03 408,-166 440.22,-148.34 463.93,-109.56 473.65,-91.55"/>
<polygon fill="midnightblue" stroke="midnightblue" points="328.54,-183.71 318.82,-187.92 329.05,-190.69 328.54,-183.71"/>
</g>
<!-- Node6 -->
<g id="node6" class="node">
<title>Node6</title>
<g id="a_node6"><a xlink:href="struct_file_system_module_1_1_status.html" target="_top" xlink:title=" ">
<polygon fill="white" stroke="black" points="183,-128.5 183,-147.5 326,-147.5 326,-128.5 183,-128.5"/>
<text text-anchor="middle" x="254.5" y="-135.5" font-family="Helvetica,sans-Serif" font-size="10.00">FileSystemModule::Status</text>
</a>
</g>
</g>
<!-- Node6&#45;&gt;Node4 -->
<g id="edge5" class="edge">
<title>Node6&#45;&gt;Node4</title>
<path fill="none" stroke="#9a32cd" stroke-dasharray="5,2" d="M336.25,-131.03C359.72,-127.76 385.17,-122.97 408,-116 427.49,-110.05 448.35,-99.4 462.28,-91.6"/>
<polygon fill="#9a32cd" stroke="#9a32cd" points="335.79,-127.56 326.33,-132.34 336.71,-134.5 335.79,-127.56"/>
<text text-anchor="middle" x="376" y="-154" font-family="Helvetica,sans-Serif" font-size="10.00"> device</text>
<text text-anchor="middle" x="376" y="-143" font-family="Helvetica,sans-Serif" font-size="10.00">status</text>
<text text-anchor="middle" x="376" y="-132" font-family="Helvetica,sans-Serif" font-size="10.00">this</text>
</g>
<!-- Node7 -->
<g id="node7" class="node">
<title>Node7</title>
<g id="a_node7"><a xlink:title=" ">
<polygon fill="white" stroke="#bfbfbf" points="0,-128.5 0,-147.5 146,-147.5 146,-128.5 0,-128.5"/>
<text text-anchor="middle" x="73" y="-135.5" font-family="Helvetica,sans-Serif" font-size="10.00">ChimeraTK::VariableGroup</text>
</a>
</g>
</g>
<!-- Node7&#45;&gt;Node6 -->
<g id="edge6" class="edge">
<title>Node7&#45;&gt;Node6</title>
<path fill="none" stroke="midnightblue" d="M156.51,-138C165.32,-138 174.22,-138 182.87,-138"/>
<polygon fill="midnightblue" stroke="midnightblue" points="156.23,-134.5 146.23,-138 156.23,-141.5 156.23,-134.5"/>
</g>
<!-- Node8 -->
<g id="node8" class="node">
<title>Node8</title>
<g id="a_node8"><a xlink:href="struct_file_system_module_1_1_config.html" target="_top" xlink:title=" ">
<polygon fill="white" stroke="black" points="183,-78.5 183,-97.5 326,-97.5 326,-78.5 183,-78.5"/>
<text text-anchor="middle" x="254.5" y="-85.5" font-family="Helvetica,sans-Serif" font-size="10.00">FileSystemModule::Config</text>
</a>
</g>
</g>
<!-- Node8&#45;&gt;Node4 -->
<g id="edge7" class="edge">
<title>Node8&#45;&gt;Node4</title>
<path fill="none" stroke="#9a32cd" stroke-dasharray="5,2" d="M336.22,-83.27C338.84,-83.17 341.44,-83.08 344,-83 370.96,-82.14 400.97,-81.85 425.79,-81.79"/>
<polygon fill="#9a32cd" stroke="#9a32cd" points="335.86,-79.79 326.01,-83.7 336.15,-86.78 335.86,-79.79"/>
<text text-anchor="middle" x="376" y="-108" font-family="Helvetica,sans-Serif" font-size="10.00"> config</text>
<text text-anchor="middle" x="376" y="-97" font-family="Helvetica,sans-Serif" font-size="10.00">configuration</text>
<text text-anchor="middle" x="376" y="-86" font-family="Helvetica,sans-Serif" font-size="10.00">this</text>
</g>
<!-- Node9 -->
<g id="node9" class="node">
<title>Node9</title>
<g id="a_node9"><a xlink:title=" ">
<polygon fill="white" stroke="#bfbfbf" points="19.5,-81.5 19.5,-100.5 126.5,-100.5 126.5,-81.5 19.5,-81.5"/>
<text text-anchor="middle" x="73" y="-88.5" font-family="Helvetica,sans-Serif" font-size="10.00">ctk::VariableGroup</text>
</a>
</g>
</g>
<!-- Node9&#45;&gt;Node8 -->
<g id="edge8" class="edge">
<title>Node9&#45;&gt;Node8</title>
<path fill="none" stroke="midnightblue" d="M136.93,-89.95C151.72,-89.7 167.58,-89.44 182.69,-89.18"/>
<polygon fill="midnightblue" stroke="midnightblue" points="136.83,-86.45 126.89,-90.12 136.94,-93.45 136.83,-86.45"/>
</g>
<!-- Node10 -->
<g id="node10" class="node">
<title>Node10</title>
<g id="a_node10"><a xlink:title=" ">
<polygon fill="white" stroke="#bfbfbf" points="222,-38.5 222,-57.5 287,-57.5 287,-38.5 222,-38.5"/>
<text text-anchor="middle" x="254.5" y="-45.5" font-family="Helvetica,sans-Serif" font-size="10.00">std::string</text>
</a>
</g>
</g>
<!-- Node10&#45;&gt;Node4 -->
<g id="edge9" class="edge">
<title>Node10&#45;&gt;Node4</title>
<path fill="none" stroke="#9a32cd" stroke-dasharray="5,2" d="M297.53,-51.75C328.25,-54.79 370.87,-59.61 408,-66 418.39,-67.79 429.55,-70.12 439.86,-72.46"/>
<polygon fill="#9a32cd" stroke="#9a32cd" points="297.47,-48.23 287.18,-50.75 296.8,-55.2 297.47,-48.23"/>
<text text-anchor="middle" x="376" y="-69" font-family="Helvetica,sans-Serif" font-size="10.00"> tmp</text>
</g>
<!-- Node11 -->
<g id="node11" class="node">
<title>Node11</title>
<g id="a_node11"><a xlink:title=" ">
<polygon fill="white" stroke="#bfbfbf" points="21,-32 21,-62 125,-62 125,-32 21,-32"/>
<text text-anchor="start" x="29" y="-50" font-family="Helvetica,sans-Serif" font-size="10.00">std::basic_string&lt;</text>
<text text-anchor="middle" x="73" y="-39" font-family="Helvetica,sans-Serif" font-size="10.00"> Char &gt;</text>
</a>
</g>
</g>
<!-- Node11&#45;&gt;Node10 -->
<g id="edge10" class="edge">
<title>Node11&#45;&gt;Node10</title>
<path fill="none" stroke="midnightblue" d="M135.5,-47.34C164.53,-47.5 197.95,-47.69 221.8,-47.82"/>
<polygon fill="midnightblue" stroke="midnightblue" points="135.46,-43.84 125.44,-47.29 135.42,-50.84 135.46,-43.84"/>
</g>
<!-- Node12 -->
<g id="node12" class="node">
<title>Node12</title>
<g id="a_node12"><a xlink:title=" ">
<polygon fill="white" stroke="#bfbfbf" points="431,-17.5 431,-36.5 528,-36.5 528,-17.5 431,-17.5"/>
<text text-anchor="middle" x="479.5" y="-24.5" font-family="Helvetica,sans-Serif" font-size="10.00">std::vector&lt; T &gt;</text>
</a>
</g>
</g>
<!-- Node12&#45;&gt;Node3 -->
<g id="edge11" class="edge">
<title>Node12&#45;&gt;Node3</title>
<path fill="none" stroke="orange" stroke-dasharray="5,2" d="M538.18,-26.5C575.07,-26.6 623.92,-27.54 667,-31 682.78,-32.27 699.78,-34.32 715.49,-36.5"/>
<polygon fill="orange" stroke="orange" points="538.11,-23 528.1,-26.49 538.1,-30 538.11,-23"/>
<text text-anchor="middle" x="609" y="-34" font-family="Helvetica,sans-Serif" font-size="10.00"> &lt; FileSystemModule &gt;</text>
</g>
<!-- Node13 -->
<g id="node13" class="node">
<title>Node13</title>
<g id="a_node13"><a xlink:title=" ">
<polygon fill="white" stroke="#bfbfbf" points="240,-0.5 240,-19.5 269,-19.5 269,-0.5 240,-0.5"/>
<text text-anchor="middle" x="254.5" y="-7.5" font-family="Helvetica,sans-Serif" font-size="10.00">T</text>
</a>
</g>
</g>
<!-- Node13&#45;&gt;Node12 -->
<g id="edge12" class="edge">
<title>Node13&#45;&gt;Node12</title>
<path fill="none" stroke="#9a32cd" stroke-dasharray="5,2" d="M279.33,-9.78C309.4,-9.74 362.66,-10.42 408,-15 415.41,-15.75 423.22,-16.81 430.84,-17.99"/>
<polygon fill="#9a32cd" stroke="#9a32cd" points="278.99,-6.28 269,-9.83 279.02,-13.28 278.99,-6.28"/>
<text text-anchor="middle" x="376" y="-18" font-family="Helvetica,sans-Serif" font-size="10.00"> elements</text>
</g>
</g>
</svg>
        <g id="navigator" transform="translate(0 0)" fill="#404254">
                <rect fill="#f2f5e9" fill-opacity="0.5" stroke="#606060" stroke-width=".5" x="0" y="0" width="60" height="60"/>
                <use id="zoomplus" xlink:href="#zoomPlus" x="17" y="9" onmousedown="handleZoom(evt,'in')"/>
                <use id="zoomminus" xlink:href="#zoomMin" x="42" y="9" onmousedown="handleZoom(evt,'out')"/>
                <use id="reset" xlink:href="#resetDef" x="30" y="36" onmousedown="handleReset()"/>
                <g id="arrowUp" xlink:href="#dirArrow" transform="translate(30 24)" onmousedown="handlePan(0,-1)">
                  <use xlink:href="#rim" fill="#404040">
                        <set attributeName="fill" to="#808080" begin="arrowUp.mouseover" end="arrowUp.mouseout"/>
                  </use>
                  <path fill="none" stroke="white" stroke-width="1.5" d="M0,-3.0v7 M-2.5,-0.5L0,-3.0L2.5,-0.5"/>
                </g>
                <g id="arrowRight" xlink:href="#dirArrow" transform="rotate(90) translate(36 -43)" onmousedown="handlePan(1,0)">
                  <use xlink:href="#rim" fill="#404040">
                        <set attributeName="fill" to="#808080" begin="arrowRight.mouseover" end="arrowRight.mouseout"/>
                  </use>
                  <path fill="none" stroke="white" stroke-width="1.5" d="M0,-3.0v7 M-2.5,-0.5L0,-3.0L2.5,-0.5"/>
                </g>
                <g id="arrowDown" xlink:href="#dirArrow" transform="rotate(180) translate(-30 -48)" onmousedown="handlePan(0,1)">
                  <use xlink:href="#rim" fill="#404040">
                        <set attributeName="fill" to="#808080" begin="arrowDown.mouseover" end="arrowDown.mouseout"/>
                  </use>
                  <path fill="none" stroke="white" stroke-width="1.5" d="M0,-3.0v7 M-2.5,-0.5L0,-3.0L2.5,-0.5"/>
                </g>
                <g id="arrowLeft" xlink:href="#dirArrow" transform="rotate(270) translate(-36 17)" onmousedown="handlePan(-1,0)">
                  <use xlink:href="#rim" fill="#404040">
                        <set attributeName="fill" to="#808080" begin="arrowLeft.mouseover" end="arrowLeft.mouseout"/>
                  </use>
                  <path fill="none" stroke="white" stroke-width="1.5" d="M0,-3.0v7 M-2.5,-0.5L0,-3.0L2.5,-0.5"/>
                </g>
        </g>
        <svg viewBox="0 0 15 15" width="100%" height="30px" preserveAspectRatio="xMaxYMin meet">
         <g id="arrow_out" transform="scale(0.3 0.3)">
          <a xlink:href="struct_file_system_group__coll__graph_org.svg" target="_base">
           <rect id="button" ry="5" rx="5" y="6" x="6" height="38" width="38"
                fill="#f2f5e9" fill-opacity="0.5" stroke="#606060" stroke-width="1.0"/>
           <path id="arrow"
             d="M 11.500037,31.436501 C 11.940474,20.09759 22.043105,11.32322 32.158766,21.979434 L 37.068811,17.246167 C 37.068811,17.246167 37.088388,32 37.088388,32 L 22.160133,31.978069 C 22.160133,31.978069 26.997745,27.140456 26.997745,27.140456 C 18.528582,18.264221 13.291696,25.230495 11.500037,31.436501 z"
             style="fill:#404040;"/>
          </a>
         </g>
        </svg>
</svg>
