<?xml version="1.0" encoding="UTF-8" standalone="no"?>
<!DOCTYPE svg PUBLIC "-//W3C//DTD SVG 1.1//EN"
 "http://www.w3.org/Graphics/SVG/1.1/DTD/svg11.dtd">
<!-- Generated by graphviz version 2.40.1 (20161225.0304)
 -->
<!-- Title: NetworkGroup Pages: 1 -->
<!--zoomable 331 -->
<svg id="main" version="1.1" xmlns="http://www.w3.org/2000/svg" xmlns:xlink="http://www.w3.org/1999/xlink" xml:space="preserve" onload="init(evt)">
<style type="text/css"><![CDATA[
.edge:hover path { stroke: red; }
.edge:hover polygon { stroke: red; fill: red; }
]]></style>
<script type="text/javascript"><![CDATA[
var edges = document.getElementsByTagName('g');
if (edges && edges.length) {
  for (var i=0;i<edges.length;i++) {
    if (edges[i].id.substr(0,4)=='edge') {
      edges[i].setAttribute('class','edge');
    }
  }
}
]]></script>
        <defs>
                <circle id="rim" cx="0" cy="0" r="7"/>
                <circle id="rim2" cx="0" cy="0" r="3.5"/>
                <g id="zoomPlus">
                        <use xlink:href="#rim" fill="#404040">
                                <set attributeName="fill" to="#808080" begin="zoomplus.mouseover" end="zoomplus.mouseout"/>
                        </use>
                        <path d="M-4,0h8M0,-4v8" fill="none" stroke="white" stroke-width="1.5" pointer-events="none"/>
                </g>
                <g id="zoomMin">
                        <use xlink:href="#rim" fill="#404040">
                                <set attributeName="fill" to="#808080" begin="zoomminus.mouseover" end="zoomminus.mouseout"/>
                        </use>
                        <path d="M-4,0h8" fill="none" stroke="white" stroke-width="1.5" pointer-events="none"/>
                </g>
                <g id="dirArrow">
                        <path fill="none" stroke="white" stroke-width="1.5" d="M0,-3.0v7 M-2.5,-0.5L0,-3.0L2.5,-0.5"/>
                </g>
               <g id="resetDef">
                       <use xlink:href="#rim2" fill="#404040">
                               <set attributeName="fill" to="#808080" begin="reset.mouseover" end="reset.mouseout"/>
                       </use>
               </g>
        </defs>

<script type="text/javascript">
var viewWidth = 1550;
var viewHeight = 331;
var sectionId = 'dynsection-1';
</script>
<script xlink:href="svgpan.js"/>
<svg id="graph" class="graph">
<g id="viewport">
<title>NetworkGroup</title>
<polygon fill="#ffffff" stroke="transparent" points="-4,4 -4,-326.6637 1546,-326.6637 1546,4 -4,4"/>
<!-- Node2 -->
<g id="node1" class="node">
<title>Node2</title>
<polygon fill="#bfbfbf" stroke="#000000" points="1455,-272.1637 1455,-291.1637 1542,-291.1637 1542,-272.1637 1455,-272.1637"/>
<text text-anchor="middle" x="1498.5" y="-279.1637" font-family="Helvetica,sans-Serif" font-size="10.00" fill="#000000">NetworkGroup</text>
</g>
<!-- Node3 -->
<g id="node2" class="node">
<title>Node3</title>
<polygon fill="#ffffff" stroke="#bfbfbf" points="1210,-291.1637 1210,-310.1637 1291,-310.1637 1291,-291.1637 1210,-291.1637"/>
<text text-anchor="middle" x="1250.5" y="-298.1637" font-family="Helvetica,sans-Serif" font-size="10.00" fill="#000000">ModuleGroup</text>
</g>
<!-- Node3&#45;&gt;Node2 -->
<g id="edge1" class="edge">
<title>Node3&#45;&gt;Node2</title>
<path fill="none" stroke="#191970" d="M1301.3541,-296.7676C1346.5756,-293.3031 1411.9971,-288.2909 1454.8802,-285.0055"/>
<polygon fill="#191970" stroke="#191970" points="1300.8778,-293.2937 1291.1745,-297.5475 1301.4126,-300.2733 1300.8778,-293.2937"/>
</g>
<!-- Node4 -->
<g id="node3" class="node">
<title>Node4</title>
<polygon fill="#ffffff" stroke="#bfbfbf" points="1167,-253.1637 1167,-272.1637 1334,-272.1637 1334,-253.1637 1167,-253.1637"/>
<text text-anchor="middle" x="1250.5" y="-260.1637" font-family="Helvetica,sans-Serif" font-size="10.00" fill="#000000">std::vector&lt; NetworkModule &gt;</text>
</g>
<!-- Node4&#45;&gt;Node2 -->
<g id="edge2" class="edge">
<title>Node4&#45;&gt;Node2</title>
<path fill="none" stroke="#9a32cd" stroke-dasharray="5,2" d="M1344.549,-265.1299C1374.1848,-266.4622 1407.008,-268.5118 1437,-271.6637 1442.8094,-272.2742 1448.9043,-273.0721 1454.9059,-273.9511"/>
<polygon fill="#9a32cd" stroke="#9a32cd" points="1344.3496,-261.6183 1334.2093,-264.688 1344.0506,-268.6119 1344.3496,-261.6183"/>
<text text-anchor="middle" x="1394.5" y="-274.6637" font-family="Helvetica,sans-Serif" font-size="10.00" fill="#000000"> networkMonitors</text>
</g>
<!-- Node5 -->
<g id="node4" class="node">
<title>Node5</title>
<g id="a_node4"><a xlink:href="structNetworkModule.html" target="_top" xlink:title="Module reading information of a network adapter. ">
<polygon fill="#ffffff" stroke="#000000" points="989,-169.1637 989,-188.1637 1082,-188.1637 1082,-169.1637 989,-169.1637"/>
<text text-anchor="middle" x="1035.5" y="-176.1637" font-family="Helvetica,sans-Serif" font-size="10.00" fill="#000000">NetworkModule</text>
</a>
</g>
</g>
<!-- Node5&#45;&gt;Node4 -->
<g id="edge3" class="edge">
<title>Node5&#45;&gt;Node4</title>
<path fill="none" stroke="#9a32cd" stroke-dasharray="5,2" d="M1069.5013,-191.9479C1113.13,-208.9936 1187.7479,-238.1466 1226.1244,-253.1402"/>
<polygon fill="#9a32cd" stroke="#9a32cd" points="1070.7513,-188.6787 1060.1632,-188.2995 1068.2039,-195.1987 1070.7513,-188.6787"/>
<text text-anchor="middle" x="1124.5" y="-223.6637" font-family="Helvetica,sans-Serif" font-size="10.00" fill="#000000"> elements</text>
</g>
<!-- Node6 -->
<g id="node5" class="node">
<title>Node6</title>
<polygon fill="#ffffff" stroke="#bfbfbf" points="750,-246.1637 750,-265.1637 857,-265.1637 857,-246.1637 750,-246.1637"/>
<text text-anchor="middle" x="803.5" y="-253.1637" font-family="Helvetica,sans-Serif" font-size="10.00" fill="#000000">ApplicationModule</text>
</g>
<!-- Node6&#45;&gt;Node5 -->
<g id="edge4" class="edge">
<title>Node6&#45;&gt;Node5</title>
<path fill="none" stroke="#191970" d="M867.6008,-257.4866C899.8655,-256.1838 938.8474,-251.1252 971,-236.6637 995.4468,-225.6681 1017.0804,-201.9226 1027.9939,-188.4734"/>
<polygon fill="#191970" stroke="#191970" points="867.2721,-253.9946 857.3784,-257.7848 867.4763,-260.9916 867.2721,-253.9946"/>
</g>
<!-- Node7 -->
<g id="node6" class="node">
<title>Node7</title>
<g id="a_node6"><a xlink:href="structNetworkModule_1_1raw.html" target="_top" xlink:title="NetworkModule::raw">
<polygon fill="#ffffff" stroke="#000000" points="745,-126.1637 745,-145.1637 862,-145.1637 862,-126.1637 745,-126.1637"/>
<text text-anchor="middle" x="803.5" y="-133.1637" font-family="Helvetica,sans-Serif" font-size="10.00" fill="#000000">NetworkModule::raw</text>
</a>
</g>
</g>
<!-- Node7&#45;&gt;Node5 -->
<g id="edge5" class="edge">
<title>Node7&#45;&gt;Node5</title>
<path fill="none" stroke="#9a32cd" stroke-dasharray="5,2" d="M865.1303,-147.0865C903.965,-154.2843 953.3062,-163.4295 988.8827,-170.0234"/>
<polygon fill="#9a32cd" stroke="#9a32cd" points="865.4587,-143.5879 854.9883,-145.2068 864.183,-150.4707 865.4587,-143.5879"/>
<text text-anchor="middle" x="936.5" y="-168.6637" font-family="Helvetica,sans-Serif" font-size="10.00" fill="#000000"> previousData</text>
</g>
<!-- Node8 -->
<g id="node7" class="node">
<title>Node8</title>
<polygon fill="#ffffff" stroke="#bfbfbf" points="449.5,-164.6637 449.5,-194.6637 571.5,-194.6637 571.5,-164.6637 449.5,-164.6637"/>
<text text-anchor="start" x="457.5" y="-182.6637" font-family="Helvetica,sans-Serif" font-size="10.00" fill="#000000">std::vector&lt; boost</text>
<text text-anchor="middle" x="510.5" y="-171.6637" font-family="Helvetica,sans-Serif" font-size="10.00" fill="#000000">::posix_time::ptime &gt;</text>
</g>
<!-- Node8&#45;&gt;Node7 -->
<g id="edge6" class="edge">
<title>Node8&#45;&gt;Node7</title>
<path fill="none" stroke="#9a32cd" stroke-dasharray="5,2" d="M581.6431,-168.9801C631.5615,-161.4838 697.5199,-151.5788 744.5135,-144.5217"/>
<polygon fill="#9a32cd" stroke="#9a32cd" points="580.9351,-165.5471 571.5657,-170.4934 581.9747,-172.4695 580.9351,-165.5471"/>
<text text-anchor="middle" x="652" y="-167.6637" font-family="Helvetica,sans-Serif" font-size="10.00" fill="#000000"> time</text>
</g>
<!-- Node9 -->
<g id="node8" class="node">
<title>Node9</title>
<g id="a_node8"><a xlink:title="STL class. ">
<polygon fill="#ffffff" stroke="#bfbfbf" points="189,-174.1637 189,-193.1637 286,-193.1637 286,-174.1637 189,-174.1637"/>
<text text-anchor="middle" x="237.5" y="-181.1637" font-family="Helvetica,sans-Serif" font-size="10.00" fill="#000000">std::vector&lt; T &gt;</text>
</a>
</g>
</g>
<!-- Node9&#45;&gt;Node4 -->
<g id="edge22" class="edge">
<title>Node9&#45;&gt;Node4</title>
<path fill="none" stroke="#ffa500" stroke-dasharray="5,2" d="M246.9308,-202.332C257.8898,-222.0286 277.8624,-252.4183 304,-268.6637 383.6206,-318.1507 416.7536,-311.6637 510.5,-311.6637 510.5,-311.6637 510.5,-311.6637 1035.5,-311.6637 1095.4461,-311.6637 1108.5518,-294.9806 1167,-281.6637 1180.4809,-278.5922 1195.1869,-275.2448 1208.4487,-272.2274"/>
<polygon fill="#ffa500" stroke="#ffa500" points="249.954,-200.5629 242.1618,-193.3843 243.7767,-203.8554 249.954,-200.5629"/>
<text text-anchor="middle" x="803.5" y="-314.6637" font-family="Helvetica,sans-Serif" font-size="10.00" fill="#000000"> &lt; NetworkModule &gt;</text>
</g>
<!-- Node9&#45;&gt;Node8 -->
<g id="edge7" class="edge">
<title>Node9&#45;&gt;Node8</title>
<path fill="none" stroke="#ffa500" stroke-dasharray="5,2" d="M296.5204,-182.7989C341.6072,-182.1383 403.5563,-181.2306 449.1989,-180.5619"/>
<polygon fill="#ffa500" stroke="#ffa500" points="296.2545,-179.3023 286.3069,-182.9486 296.3572,-186.3016 296.2545,-179.3023"/>
<text text-anchor="start" x="312" y="-195.6637" font-family="Helvetica,sans-Serif" font-size="10.00" fill="#000000"> &lt; boost::posix_time</text>
<text text-anchor="middle" x="363" y="-184.6637" font-family="Helvetica,sans-Serif" font-size="10.00" fill="#000000">::ptime &gt;</text>
</g>
<!-- Node11 -->
<g id="node10" class="node">
<title>Node11</title>
<polygon fill="#ffffff" stroke="#bfbfbf" points="448.5,-115.6637 448.5,-145.6637 572.5,-145.6637 572.5,-115.6637 448.5,-115.6637"/>
<text text-anchor="start" x="456.5" y="-133.6637" font-family="Helvetica,sans-Serif" font-size="10.00" fill="#000000">std::vector&lt; unsigned</text>
<text text-anchor="middle" x="510.5" y="-122.6637" font-family="Helvetica,sans-Serif" font-size="10.00" fill="#000000"> long long &gt;</text>
</g>
<!-- Node9&#45;&gt;Node11 -->
<g id="edge10" class="edge">
<title>Node9&#45;&gt;Node11</title>
<path fill="none" stroke="#ffa500" stroke-dasharray="5,2" d="M279.9928,-171.5081C287.9379,-169.4216 296.1966,-167.3769 304,-165.6637 352.1243,-155.0981 407.1566,-145.9117 448.3018,-139.6046"/>
<polygon fill="#ffa500" stroke="#ffa500" points="278.9039,-168.1764 270.1547,-174.1515 280.7204,-174.9366 278.9039,-168.1764"/>
<text text-anchor="middle" x="363" y="-168.6637" font-family="Helvetica,sans-Serif" font-size="10.00" fill="#000000"> &lt; unsigned long long &gt;</text>
</g>
<!-- Node12 -->
<g id="node11" class="node">
<title>Node12</title>
<polygon fill="#ffffff" stroke="#bfbfbf" points="440.5,-77.1637 440.5,-96.1637 580.5,-96.1637 580.5,-77.1637 440.5,-77.1637"/>
<text text-anchor="middle" x="510.5" y="-84.1637" font-family="Helvetica,sans-Serif" font-size="10.00" fill="#000000">std::vector&lt; std::string &gt;</text>
</g>
<!-- Node9&#45;&gt;Node12 -->
<g id="edge14" class="edge">
<title>Node9&#45;&gt;Node12</title>
<path fill="none" stroke="#ffa500" stroke-dasharray="5,2" d="M253.7031,-166.3066C266.2539,-153.9214 284.7057,-137.8851 304,-128.6637 346.746,-108.2338 399.0871,-97.7257 440.3774,-92.3292"/>
<polygon fill="#ffa500" stroke="#ffa500" points="250.8524,-164.2154 246.3581,-173.8098 255.8546,-169.1122 250.8524,-164.2154"/>
<text text-anchor="middle" x="363" y="-131.6637" font-family="Helvetica,sans-Serif" font-size="10.00" fill="#000000"> &lt; std::string &gt;</text>
</g>
<!-- Node19 -->
<g id="node18" class="node">
<title>Node19</title>
<polygon fill="#ffffff" stroke="#bfbfbf" points="445,-252.6637 445,-282.6637 576,-282.6637 576,-252.6637 445,-252.6637"/>
<text text-anchor="start" x="453" y="-270.6637" font-family="Helvetica,sans-Serif" font-size="10.00" fill="#000000">std::vector&lt; ctk::Scalar</text>
<text text-anchor="middle" x="510.5" y="-259.6637" font-family="Helvetica,sans-Serif" font-size="10.00" fill="#000000">Output&lt; double &gt; &gt;</text>
</g>
<!-- Node9&#45;&gt;Node19 -->
<g id="edge21" class="edge">
<title>Node9&#45;&gt;Node19</title>
<path fill="none" stroke="#ffa500" stroke-dasharray="5,2" d="M272.6445,-196.819C282.7241,-200.4636 293.758,-204.3313 304,-207.6637 354.7671,-224.1816 413.2514,-240.9675 454.9906,-252.568"/>
<polygon fill="#ffa500" stroke="#ffa500" points="273.5415,-193.4206 262.9476,-193.277 271.1397,-199.9957 273.5415,-193.4206"/>
<text text-anchor="start" x="313.5" y="-256.6637" font-family="Helvetica,sans-Serif" font-size="10.00" fill="#000000"> &lt; ctk::ScalarOutput</text>
<text text-anchor="middle" x="363" y="-245.6637" font-family="Helvetica,sans-Serif" font-size="10.00" fill="#000000">&lt; double &gt; &gt;</text>
</g>
<!-- Node10 -->
<g id="node9" class="node">
<title>Node10</title>
<polygon fill="#ffffff" stroke="#bfbfbf" points="37.5,-174.1637 37.5,-193.1637 66.5,-193.1637 66.5,-174.1637 37.5,-174.1637"/>
<text text-anchor="middle" x="52" y="-181.1637" font-family="Helvetica,sans-Serif" font-size="10.00" fill="#000000">T</text>
</g>
<!-- Node10&#45;&gt;Node9 -->
<g id="edge8" class="edge">
<title>Node10&#45;&gt;Node9</title>
<path fill="none" stroke="#9a32cd" stroke-dasharray="5,2" d="M76.8256,-183.6637C105.3025,-183.6637 152.689,-183.6637 188.6408,-183.6637"/>
<polygon fill="#9a32cd" stroke="#9a32cd" points="76.5559,-180.1638 66.5559,-183.6637 76.5558,-187.1638 76.5559,-180.1638"/>
<text text-anchor="middle" x="146.5" y="-186.6637" font-family="Helvetica,sans-Serif" font-size="10.00" fill="#000000"> elements</text>
</g>
<!-- Node11&#45;&gt;Node7 -->
<g id="edge9" class="edge">
<title>Node11&#45;&gt;Node7</title>
<path fill="none" stroke="#9a32cd" stroke-dasharray="5,2" d="M582.7251,-131.8962C632.6649,-132.7484 698.2615,-133.8678 744.9442,-134.6644"/>
<polygon fill="#9a32cd" stroke="#9a32cd" points="582.6961,-128.3953 572.6378,-131.7241 582.5766,-135.3943 582.6961,-128.3953"/>
<text text-anchor="middle" x="652" y="-136.6637" font-family="Helvetica,sans-Serif" font-size="10.00" fill="#000000"> data</text>
</g>
<!-- Node12&#45;&gt;Node7 -->
<g id="edge11" class="edge">
<title>Node12&#45;&gt;Node7</title>
<path fill="none" stroke="#9a32cd" stroke-dasharray="5,2" d="M586.2695,-97.6759C622.2894,-103.0834 665.9212,-109.8833 705,-116.6637 721.6448,-119.5516 739.8176,-122.9789 755.9707,-126.1221"/>
<polygon fill="#9a32cd" stroke="#9a32cd" points="586.7296,-94.2059 576.322,-96.1888 585.6945,-101.129 586.7296,-94.2059"/>
<text text-anchor="middle" x="652" y="-119.6637" font-family="Helvetica,sans-Serif" font-size="10.00" fill="#000000"> files</text>
</g>
<!-- Node13 -->
<g id="node12" class="node">
<title>Node13</title>
<g id="a_node12"><a xlink:title="STL class. ">
<polygon fill="#ffffff" stroke="#bfbfbf" points="205,-56.1637 205,-75.1637 270,-75.1637 270,-56.1637 205,-56.1637"/>
<text text-anchor="middle" x="237.5" y="-63.1637" font-family="Helvetica,sans-Serif" font-size="10.00" fill="#000000">std::string</text>
</a>
</g>
</g>
<!-- Node13&#45;&gt;Node5 -->
<g id="edge17" class="edge">
<title>Node13&#45;&gt;Node5</title>
<path fill="none" stroke="#9a32cd" stroke-dasharray="5,2" d="M280.199,-65.8846C317.5934,-66.0806 373.3977,-66.3791 422,-66.6637 628.5288,-67.8728 685.0845,-61.092 884,-116.6637 933.2683,-130.4279 988.1524,-155.4881 1016.3975,-169.1544"/>
<polygon fill="#9a32cd" stroke="#9a32cd" points="280.1795,-62.3845 270.1613,-65.8321 280.1428,-69.3845 280.1795,-62.3845"/>
<text text-anchor="middle" x="652" y="-78.6637" font-family="Helvetica,sans-Serif" font-size="10.00" fill="#000000"> networkDeviceName</text>
</g>
<!-- Node13&#45;&gt;Node12 -->
<g id="edge12" class="edge">
<title>Node13&#45;&gt;Node12</title>
<path fill="none" stroke="#9a32cd" stroke-dasharray="5,2" d="M280.2468,-68.9519C323.0848,-72.2471 389.7575,-77.3758 440.3554,-81.2679"/>
<polygon fill="#9a32cd" stroke="#9a32cd" points="280.398,-65.4533 270.159,-68.1759 279.8611,-72.4327 280.398,-65.4533"/>
<text text-anchor="middle" x="363" y="-81.6637" font-family="Helvetica,sans-Serif" font-size="10.00" fill="#000000"> elements</text>
</g>
<!-- Node14 -->
<g id="node13" class="node">
<title>Node14</title>
<g id="a_node13"><a xlink:title="STL class. ">
<polygon fill="#ffffff" stroke="#bfbfbf" points="0,-50.6637 0,-80.6637 104,-80.6637 104,-50.6637 0,-50.6637"/>
<text text-anchor="start" x="8" y="-68.6637" font-family="Helvetica,sans-Serif" font-size="10.00" fill="#000000">std::basic_string&lt;</text>
<text text-anchor="middle" x="52" y="-57.6637" font-family="Helvetica,sans-Serif" font-size="10.00" fill="#000000"> char &gt;</text>
</a>
</g>
</g>
<!-- Node14&#45;&gt;Node13 -->
<g id="edge13" class="edge">
<title>Node14&#45;&gt;Node13</title>
<path fill="none" stroke="#191970" d="M114.2584,-65.6637C144.6385,-65.6637 179.9296,-65.6637 204.9412,-65.6637"/>
<polygon fill="#191970" stroke="#191970" points="114.1658,-62.1638 104.1657,-65.6637 114.1657,-69.1638 114.1658,-62.1638"/>
</g>
<!-- Node15 -->
<g id="node14" class="node">
<title>Node15</title>
<g id="a_node14"><a xlink:href="structNetworkModule_1_1TriggerGroup.html" target="_top" xlink:title="NetworkModule::TriggerGroup">
<polygon fill="#ffffff" stroke="#000000" points="723,-1.1637 723,-20.1637 884,-20.1637 884,-1.1637 723,-1.1637"/>
<text text-anchor="middle" x="803.5" y="-8.1637" font-family="Helvetica,sans-Serif" font-size="10.00" fill="#000000">NetworkModule::TriggerGroup</text>
</a>
</g>
</g>
<!-- Node15&#45;&gt;Node5 -->
<g id="edge15" class="edge">
<title>Node15&#45;&gt;Node5</title>
<path fill="none" stroke="#9a32cd" stroke-dasharray="5,2" d="M869.1666,-.4743C902.5694,1.1661 942.1023,-2.7282 971,-23.6637 1020.5671,-59.5735 1032.216,-140.8702 1034.802,-168.9268"/>
<polygon fill="#9a32cd" stroke="#9a32cd" points="868.7617,3.0067 859.0156,-1.1483 869.2255,-3.978 868.7617,3.0067"/>
<text text-anchor="middle" x="936.5" y="-26.6637" font-family="Helvetica,sans-Serif" font-size="10.00" fill="#000000"> triggerGroup</text>
</g>
<!-- Node16 -->
<g id="node15" class="node">
<title>Node16</title>
<polygon fill="#ffffff" stroke="#bfbfbf" points="440,-1.1637 440,-20.1637 581,-20.1637 581,-1.1637 440,-1.1637"/>
<text text-anchor="middle" x="510.5" y="-8.1637" font-family="Helvetica,sans-Serif" font-size="10.00" fill="#000000">HierarchyModifyingGroup</text>
</g>
<!-- Node16&#45;&gt;Node15 -->
<g id="edge16" class="edge">
<title>Node16&#45;&gt;Node15</title>
<path fill="none" stroke="#191970" d="M591.2826,-10.6637C632.2924,-10.6637 681.9688,-10.6637 722.9463,-10.6637"/>
<polygon fill="#191970" stroke="#191970" points="591.0537,-7.1638 581.0537,-10.6637 591.0536,-14.1638 591.0537,-7.1638"/>
</g>
<!-- Node17 -->
<g id="node16" class="node">
<title>Node17</title>
<g id="a_node16"><a xlink:href="structNetworkModule_1_1Status.html" target="_top" xlink:title="NetworkModule::Status">
<polygon fill="#ffffff" stroke="#000000" points="738.5,-208.1637 738.5,-227.1637 868.5,-227.1637 868.5,-208.1637 738.5,-208.1637"/>
<text text-anchor="middle" x="803.5" y="-215.1637" font-family="Helvetica,sans-Serif" font-size="10.00" fill="#000000">NetworkModule::Status</text>
</a>
</g>
</g>
<!-- Node17&#45;&gt;Node5 -->
<g id="edge18" class="edge">
<title>Node17&#45;&gt;Node5</title>
<path fill="none" stroke="#9a32cd" stroke-dasharray="5,2" d="M870.1964,-206.4518C908.1125,-200.078 954.663,-192.2527 988.6931,-186.5321"/>
<polygon fill="#9a32cd" stroke="#9a32cd" points="869.535,-203.0138 860.2536,-208.1232 870.6955,-209.9169 869.535,-203.0138"/>
<text text-anchor="middle" x="936.5" y="-224.6637" font-family="Helvetica,sans-Serif" font-size="10.00" fill="#000000"> status</text>
<text text-anchor="middle" x="936.5" y="-213.6637" font-family="Helvetica,sans-Serif" font-size="10.00" fill="#000000">device</text>
<text text-anchor="middle" x="936.5" y="-202.6637" font-family="Helvetica,sans-Serif" font-size="10.00" fill="#000000">this</text>
</g>
<!-- Node18 -->
<g id="node17" class="node">
<title>Node18</title>
<polygon fill="#ffffff" stroke="#bfbfbf" points="467.5,-214.1637 467.5,-233.1637 553.5,-233.1637 553.5,-214.1637 467.5,-214.1637"/>
<text text-anchor="middle" x="510.5" y="-221.1637" font-family="Helvetica,sans-Serif" font-size="10.00" fill="#000000">VariableGroup</text>
</g>
<!-- Node18&#45;&gt;Node17 -->
<g id="edge19" class="edge">
<title>Node18&#45;&gt;Node17</title>
<path fill="none" stroke="#191970" d="M563.8313,-222.5716C612.9257,-221.5662 685.8803,-220.0723 738.3942,-218.9969"/>
<polygon fill="#191970" stroke="#191970" points="563.6594,-219.0743 553.7332,-222.7784 563.8028,-226.0728 563.6594,-219.0743"/>
</g>
<!-- Node19&#45;&gt;Node17 -->
<g id="edge20" class="edge">
<title>Node19&#45;&gt;Node17</title>
<path fill="none" stroke="#9a32cd" stroke-dasharray="5,2" d="M586.1702,-254.8764C622.1682,-248.78 665.8103,-241.3701 705,-234.6637 719.1115,-232.2488 734.3574,-229.6249 748.5411,-227.1774"/>
<polygon fill="#9a32cd" stroke="#9a32cd" points="585.505,-251.4391 576.2296,-256.5593 586.6736,-258.3409 585.505,-251.4391"/>
<text text-anchor="middle" x="652" y="-255.6637" font-family="Helvetica,sans-Serif" font-size="10.00" fill="#000000"> data</text>
</g>
</g>
</svg>
        <g id="navigator" transform="translate(0 0)" fill="#404254">
                <rect fill="#f2f5e9" fill-opacity="0.5" stroke="#606060" stroke-width=".5" x="0" y="0" width="60" height="60"/>
                <use id="zoomplus" xlink:href="#zoomPlus" x="17" y="9" onmousedown="handleZoom(evt,'in')"/>
                <use id="zoomminus" xlink:href="#zoomMin" x="42" y="9" onmousedown="handleZoom(evt,'out')"/>
                <use id="reset" xlink:href="#resetDef" x="30" y="36" onmousedown="handleReset()"/>
                <g id="arrowUp" xlink:href="#dirArrow" transform="translate(30 24)" onmousedown="handlePan(0,-1)">
                  <use xlink:href="#rim" fill="#404040">
                        <set attributeName="fill" to="#808080" begin="arrowUp.mouseover" end="arrowUp.mouseout"/>
                  </use>
                  <path fill="none" stroke="white" stroke-width="1.5" d="M0,-3.0v7 M-2.5,-0.5L0,-3.0L2.5,-0.5"/>
                </g>
                <g id="arrowRight" xlink:href="#dirArrow" transform="rotate(90) translate(36 -43)" onmousedown="handlePan(1,0)">
                  <use xlink:href="#rim" fill="#404040">
                        <set attributeName="fill" to="#808080" begin="arrowRight.mouseover" end="arrowRight.mouseout"/>
                  </use>
                  <path fill="none" stroke="white" stroke-width="1.5" d="M0,-3.0v7 M-2.5,-0.5L0,-3.0L2.5,-0.5"/>
                </g>
                <g id="arrowDown" xlink:href="#dirArrow" transform="rotate(180) translate(-30 -48)" onmousedown="handlePan(0,1)">
                  <use xlink:href="#rim" fill="#404040">
                        <set attributeName="fill" to="#808080" begin="arrowDown.mouseover" end="arrowDown.mouseout"/>
                  </use>
                  <path fill="none" stroke="white" stroke-width="1.5" d="M0,-3.0v7 M-2.5,-0.5L0,-3.0L2.5,-0.5"/>
                </g>
                <g id="arrowLeft" xlink:href="#dirArrow" transform="rotate(270) translate(-36 17)" onmousedown="handlePan(-1,0)">
                  <use xlink:href="#rim" fill="#404040">
                        <set attributeName="fill" to="#808080" begin="arrowLeft.mouseover" end="arrowLeft.mouseout"/>
                  </use>
                  <path fill="none" stroke="white" stroke-width="1.5" d="M0,-3.0v7 M-2.5,-0.5L0,-3.0L2.5,-0.5"/>
                </g>
        </g>
        <svg viewBox="0 0 15 15" width="100%" height="30px" preserveAspectRatio="xMaxYMin meet">
         <g id="arrow_out" transform="scale(0.3 0.3)">
          <a xlink:href="structNetworkGroup__coll__graph_org.svg" target="_base">
           <rect id="button" ry="5" rx="5" y="6" x="6" height="38" width="38"
                fill="#f2f5e9" fill-opacity="0.5" stroke="#606060" stroke-width="1.0"/>
           <path id="arrow"
             d="M 11.500037,31.436501 C 11.940474,20.09759 22.043105,11.32322 32.158766,21.979434 L 37.068811,17.246167 C 37.068811,17.246167 37.088388,32 37.088388,32 L 22.160133,31.978069 C 22.160133,31.978069 26.997745,27.140456 26.997745,27.140456 C 18.528582,18.264221 13.291696,25.230495 11.500037,31.436501 z"
             style="fill:#404040;"/>
          </a>
         </g>
        </svg>
</svg>
