<?xml version="1.0" encoding="UTF-8" standalone="no"?>
<!DOCTYPE svg PUBLIC "-//W3C//DTD SVG 1.1//EN"
 "http://www.w3.org/Graphics/SVG/1.1/DTD/svg11.dtd">
<!-- Generated by graphviz version 2.40.1 (20161225.0304)
 -->
<!-- Title: ProcessControlModule::ProcessControlModule Pages: 1 -->
<svg width="289pt" height="88pt"
 viewBox="0.00 0.00 289.00 88.00" xmlns="http://www.w3.org/2000/svg" xmlns:xlink="http://www.w3.org/1999/xlink">
<g id="graph0" class="graph" transform="scale(1 1) rotate(0) translate(4 84)">
<title>ProcessControlModule::ProcessControlModule</title>
<polygon fill="#ffffff" stroke="transparent" points="-4,4 -4,-84 285,-84 285,4 -4,4"/>
<!-- Node0 -->
<g id="node1" class="node">
<title>Node0</title>
<polygon fill="#bfbfbf" stroke="#000000" points="0,-24.5 0,-54.5 131,-54.5 131,-24.5 0,-24.5"/>
<text text-anchor="start" x="8" y="-42.5" font-family="Helvetica,sans-Serif" font-size="10.00" fill="#000000">ProcessControlModule</text>
<text text-anchor="middle" x="65.5" y="-31.5" font-family="Helvetica,sans-Serif" font-size="10.00" fill="#000000">::ProcessControlModule</text>
</g>
<!-- Node1 -->
<g id="node2" class="node">
<title>Node1</title>
<g id="a_node2"><a xlink:href="structProcessInfoModule.html#aa1c07e821d431028e2a1f596229acf87" target="_top" xlink:title="ProcessInfoModule::\lProcessInfoModule">
<polygon fill="#ffffff" stroke="#000000" points="167,-49.5 167,-79.5 281,-79.5 281,-49.5 167,-49.5"/>
<text text-anchor="start" x="175" y="-67.5" font-family="Helvetica,sans-Serif" font-size="10.00" fill="#000000">ProcessInfoModule::</text>
<text text-anchor="middle" x="224" y="-56.5" font-family="Helvetica,sans-Serif" font-size="10.00" fill="#000000">ProcessInfoModule</text>
</a>
</g>
</g>
<!-- Node0&#45;&gt;Node1 -->
<g id="edge1" class="edge">
<title>Node0&#45;&gt;Node1</title>
<path fill="none" stroke="#191970" d="M131.3413,-49.8851C139.6859,-51.2012 148.2348,-52.5496 156.6032,-53.8696"/>
<polygon fill="#191970" stroke="#191970" points="156.2724,-57.3606 166.6956,-55.4615 157.3631,-50.4461 156.2724,-57.3606"/>
</g>
<!-- Node2 -->
<g id="node3" class="node">
<title>Node2</title>
<g id="a_node3"><a xlink:href="structProcessInfoModule.html#a4949333ed2abc7e07933dda2c1f8cf7e" target="_top" xlink:title="ProcessInfoModule::\lterminate">
<polygon fill="#ffffff" stroke="#000000" points="167,-.5 167,-30.5 281,-30.5 281,-.5 167,-.5"/>
<text text-anchor="start" x="175" y="-18.5" font-family="Helvetica,sans-Serif" font-size="10.00" fill="#000000">ProcessInfoModule::</text>
<text text-anchor="middle" x="224" y="-7.5" font-family="Helvetica,sans-Serif" font-size="10.00" fill="#000000">terminate</text>
</a>
</g>
</g>
<!-- Node0&#45;&gt;Node2 -->
<g id="edge2" class="edge">
<title>Node0&#45;&gt;Node2</title>
<path fill="none" stroke="#191970" d="M131.3413,-29.5303C139.6859,-28.2668 148.2348,-26.9723 156.6032,-25.7052"/>
<polygon fill="#191970" stroke="#191970" points="157.3323,-29.1348 166.6956,-24.177 156.2843,-22.2137 157.3323,-29.1348"/>
</g>
</g>
</svg>
