<?xml version="1.0" encoding="UTF-8" standalone="no"?>
<!DOCTYPE svg PUBLIC "-//W3C//DTD SVG 1.1//EN"
 "http://www.w3.org/Graphics/SVG/1.1/DTD/svg11.dtd">
<!-- Generated by graphviz version 2.40.1 (20161225.0304)
 -->
<!-- Title: include/sys_stat.h Pages: 1 -->
<svg width="633pt" height="196pt"
 viewBox="0.00 0.00 633.00 196.00" xmlns="http://www.w3.org/2000/svg" xmlns:xlink="http://www.w3.org/1999/xlink">
<g id="graph0" class="graph" transform="scale(1 1) rotate(0) translate(4 192)">
<title>include/sys_stat.h</title>
<polygon fill="#ffffff" stroke="transparent" points="-4,4 -4,-192 629,-192 629,4 -4,4"/>
<!-- Node8 -->
<g id="node1" class="node">
<title>Node8</title>
<polygon fill="#bfbfbf" stroke="#000000" points="317,-168.5 317,-187.5 421,-187.5 421,-168.5 317,-168.5"/>
<text text-anchor="middle" x="369" y="-175.5" font-family="Helvetica,sans-Serif" font-size="10.00" fill="#000000">include/sys_stat.h</text>
</g>
<!-- Node9 -->
<g id="node2" class="node">
<title>Node9</title>
<g id="a_node2"><a xlink:href="ProcessModule_8h.html" target="_top" xlink:title="include/ProcessModule.h">
<polygon fill="#ffffff" stroke="#000000" points="30.5,-112.5 30.5,-131.5 167.5,-131.5 167.5,-112.5 30.5,-112.5"/>
<text text-anchor="middle" x="99" y="-119.5" font-family="Helvetica,sans-Serif" font-size="10.00" fill="#000000">include/ProcessModule.h</text>
</a>
</g>
</g>
<!-- Node8&#45;&gt;Node9 -->
<g id="edge1" class="edge">
<title>Node8&#45;&gt;Node9</title>
<path fill="none" stroke="#191970" d="M312.9364,-166.372C263.172,-156.0505 191.3481,-141.1537 144.9177,-131.5237"/>
<polygon fill="#191970" stroke="#191970" points="312.3897,-169.833 322.8921,-168.4369 313.8113,-162.9789 312.3897,-169.833"/>
</g>
<!-- Node14 -->
<g id="node7" class="node">
<title>Node14</title>
<g id="a_node7"><a xlink:href="SystemInfoModule_8h.html" target="_top" xlink:title="include/SystemInfoModule.h">
<polygon fill="#ffffff" stroke="#000000" points="185.5,-112.5 185.5,-131.5 340.5,-131.5 340.5,-112.5 185.5,-112.5"/>
<text text-anchor="middle" x="263" y="-119.5" font-family="Helvetica,sans-Serif" font-size="10.00" fill="#000000">include/SystemInfoModule.h</text>
</a>
</g>
</g>
<!-- Node8&#45;&gt;Node14 -->
<g id="edge6" class="edge">
<title>Node8&#45;&gt;Node14</title>
<path fill="none" stroke="#191970" d="M341.4778,-163.46C322.5092,-153.4388 297.8273,-140.3993 281.2522,-131.6427"/>
<polygon fill="#191970" stroke="#191970" points="340.0593,-166.669 350.5362,-168.2455 343.3292,-160.4796 340.0593,-166.669"/>
</g>
<!-- Node15 -->
<g id="node8" class="node">
<title>Node15</title>
<g id="a_node8"><a xlink:href="SystemInfoModule_8cc.html" target="_top" xlink:title="src/SystemInfoModule.cc">
<polygon fill="#ffffff" stroke="#000000" points="300,-56.5 300,-75.5 438,-75.5 438,-56.5 300,-56.5"/>
<text text-anchor="middle" x="369" y="-63.5" font-family="Helvetica,sans-Serif" font-size="10.00" fill="#000000">src/SystemInfoModule.cc</text>
</a>
</g>
</g>
<!-- Node8&#45;&gt;Node15 -->
<g id="edge11" class="edge">
<title>Node8&#45;&gt;Node15</title>
<path fill="none" stroke="#191970" d="M369,-158.2702C369,-133.9985 369,-93.7725 369,-75.5249"/>
<polygon fill="#191970" stroke="#191970" points="365.5001,-158.4509 369,-168.4509 372.5001,-158.451 365.5001,-158.4509"/>
</g>
<!-- Node16 -->
<g id="node9" class="node">
<title>Node16</title>
<g id="a_node9"><a xlink:href="ProcessHandler_8cc.html" target="_top" xlink:title="src/ProcessHandler.cc">
<polygon fill="#ffffff" stroke="#000000" points="397,-112.5 397,-131.5 519,-131.5 519,-112.5 397,-112.5"/>
<text text-anchor="middle" x="458" y="-119.5" font-family="Helvetica,sans-Serif" font-size="10.00" fill="#000000">src/ProcessHandler.cc</text>
</a>
</g>
</g>
<!-- Node8&#45;&gt;Node16 -->
<g id="edge9" class="edge">
<title>Node8&#45;&gt;Node16</title>
<path fill="none" stroke="#191970" d="M393.2064,-162.769C408.9775,-152.8456 429.076,-140.1994 442.675,-131.6427"/>
<polygon fill="#191970" stroke="#191970" points="391.1026,-159.9575 384.5026,-168.2455 394.8305,-165.8823 391.1026,-159.9575"/>
</g>
<!-- Node17 -->
<g id="node10" class="node">
<title>Node17</title>
<g id="a_node10"><a xlink:href="sys__stat_8cc.html" target="_top" xlink:title="src/sys_stat.cc">
<polygon fill="#ffffff" stroke="#000000" points="537,-112.5 537,-131.5 625,-131.5 625,-112.5 537,-112.5"/>
<text text-anchor="middle" x="581" y="-119.5" font-family="Helvetica,sans-Serif" font-size="10.00" fill="#000000">src/sys_stat.cc</text>
</a>
</g>
</g>
<!-- Node8&#45;&gt;Node17 -->
<g id="edge10" class="edge">
<title>Node8&#45;&gt;Node17</title>
<path fill="none" stroke="#191970" d="M415.489,-165.7199C454.4708,-155.4228 509.3379,-140.9296 545.0315,-131.5011"/>
<polygon fill="#191970" stroke="#191970" points="414.2186,-162.4353 405.4441,-168.3733 416.0064,-169.2032 414.2186,-162.4353"/>
</g>
<!-- Node10 -->
<g id="node3" class="node">
<title>Node10</title>
<g id="a_node3"><a xlink:href="WatchdogServer_8h.html" target="_top" xlink:title="include/WatchdogServer.h">
<polygon fill="#ffffff" stroke="#000000" points="138.5,-56.5 138.5,-75.5 281.5,-75.5 281.5,-56.5 138.5,-56.5"/>
<text text-anchor="middle" x="210" y="-63.5" font-family="Helvetica,sans-Serif" font-size="10.00" fill="#000000">include/WatchdogServer.h</text>
</a>
</g>
</g>
<!-- Node9&#45;&gt;Node10 -->
<g id="edge2" class="edge">
<title>Node9&#45;&gt;Node10</title>
<path fill="none" stroke="#191970" d="M127.0734,-107.8368C147.1385,-97.7139 173.5922,-84.3679 191.1674,-75.5011"/>
<polygon fill="#191970" stroke="#191970" points="125.4332,-104.7441 118.0816,-112.3733 128.5862,-110.9938 125.4332,-104.7441"/>
</g>
<!-- Node13 -->
<g id="node6" class="node">
<title>Node13</title>
<g id="a_node6"><a xlink:href="ProcessModule_8cc.html" target="_top" xlink:title="src/ProcessModule.cc">
<polygon fill="#ffffff" stroke="#000000" points="0,-56.5 0,-75.5 120,-75.5 120,-56.5 0,-56.5"/>
<text text-anchor="middle" x="60" y="-63.5" font-family="Helvetica,sans-Serif" font-size="10.00" fill="#000000">src/ProcessModule.cc</text>
</a>
</g>
</g>
<!-- Node9&#45;&gt;Node13 -->
<g id="edge5" class="edge">
<title>Node9&#45;&gt;Node13</title>
<path fill="none" stroke="#191970" d="M86.4092,-103.9209C79.8605,-94.5176 72.1176,-83.3997 66.7154,-75.6427"/>
<polygon fill="#191970" stroke="#191970" points="83.6196,-106.0397 92.2067,-112.2455 89.3639,-102.0392 83.6196,-106.0397"/>
</g>
<!-- Node11 -->
<g id="node4" class="node">
<title>Node11</title>
<g id="a_node4"><a xlink:href="applicationInstance_8cc.html" target="_top" xlink:title="src/applicationInstance.cc">
<polygon fill="#ffffff" stroke="#000000" points="62.5,-.5 62.5,-19.5 205.5,-19.5 205.5,-.5 62.5,-.5"/>
<text text-anchor="middle" x="134" y="-7.5" font-family="Helvetica,sans-Serif" font-size="10.00" fill="#000000">src/applicationInstance.cc</text>
</a>
</g>
</g>
<!-- Node10&#45;&gt;Node11 -->
<g id="edge3" class="edge">
<title>Node10&#45;&gt;Node11</title>
<path fill="none" stroke="#191970" d="M188.5703,-50.2097C175.2223,-40.3743 158.4821,-28.0394 147.0865,-19.6427"/>
<polygon fill="#191970" stroke="#191970" points="186.635,-53.1312 196.7618,-56.2455 190.7874,-47.4958 186.635,-53.1312"/>
</g>
<!-- Node12 -->
<g id="node5" class="node">
<title>Node12</title>
<g id="a_node5"><a xlink:href="WatchdogServer_8cc.html" target="_top" xlink:title="src/WatchdogServer.cc">
<polygon fill="#ffffff" stroke="#000000" points="224,-.5 224,-19.5 350,-19.5 350,-.5 224,-.5"/>
<text text-anchor="middle" x="287" y="-7.5" font-family="Helvetica,sans-Serif" font-size="10.00" fill="#000000">src/WatchdogServer.cc</text>
</a>
</g>
</g>
<!-- Node10&#45;&gt;Node12 -->
<g id="edge4" class="edge">
<title>Node10&#45;&gt;Node12</title>
<path fill="none" stroke="#191970" d="M231.7116,-50.2097C245.2353,-40.3743 262.1958,-28.0394 273.7413,-19.6427"/>
<polygon fill="#191970" stroke="#191970" points="229.4411,-47.5332 223.4124,-56.2455 233.5584,-53.1944 229.4411,-47.5332"/>
</g>
<!-- Node14&#45;&gt;Node10 -->
<g id="edge7" class="edge">
<title>Node14&#45;&gt;Node10</title>
<path fill="none" stroke="#191970" d="M246.7104,-104.7884C237.6438,-95.2085 226.6946,-83.6396 219.1261,-75.6427"/>
<polygon fill="#191970" stroke="#191970" points="244.3522,-107.3884 253.7681,-112.2455 249.4363,-102.5767 244.3522,-107.3884"/>
</g>
<!-- Node14&#45;&gt;Node15 -->
<g id="edge8" class="edge">
<title>Node14&#45;&gt;Node15</title>
<path fill="none" stroke="#191970" d="M290.5222,-107.46C309.4908,-97.4388 334.1727,-84.3993 350.7478,-75.6427"/>
<polygon fill="#191970" stroke="#191970" points="288.6708,-104.4796 281.4638,-112.2455 291.9407,-110.669 288.6708,-104.4796"/>
</g>
</g>
</svg>
