<?xml version="1.0" encoding="UTF-8" standalone="no"?>
<!DOCTYPE svg PUBLIC "-//W3C//DTD SVG 1.1//EN"
 "http://www.w3.org/Graphics/SVG/1.1/DTD/svg11.dtd">
<!-- Generated by graphviz version 2.43.0 (0)
 -->
<!-- Title: PlotWindow::plotAfterReadIsChecked Pages: 1 -->
<!--zoomable 128 -->

<svg id="main" version="1.1" xmlns="http://www.w3.org/2000/svg" xmlns:xlink="http://www.w3.org/1999/xlink" xml:space="preserve" onload="init(evt)">
<style type="text/css"><![CDATA[
.node, .edge {opacity: 0.7;}
.node.selected, .edge.selected {opacity: 1;}
.edge:hover path { stroke: red; }
.edge:hover polygon { stroke: red; fill: red; }
]]></style>

<defs>
  <circle id="rim" cx="0" cy="0" r="7"/>
  <circle id="rim2" cx="0" cy="0" r="3.5"/>
  <g id="zoomPlus">
    <use xlink:href="#rim" fill="#404040"><set attributeName="fill" to="#808080" begin="zoomplus.mouseover" end="zoomplus.mouseout"/></use>
    <path d="M-4,0h8M0,-4v8" fill="none" stroke="white" stroke-width="1.5" pointer-events="none"/>
  </g>
  <g id="zoomMin">
    <use xlink:href="#rim" fill="#404040"><set attributeName="fill" to="#808080" begin="zoomminus.mouseover" end="zoomminus.mouseout"/></use>
    <path d="M-4,0h8" fill="none" stroke="white" stroke-width="1.5" pointer-events="none"/>
  </g>
  <g id="arrowUp" transform="translate(30 24)">
    <use xlink:href="#rim"/>
    <path pointer-events="none" fill="none" stroke="white" stroke-width="1.5" d="M0,-3.0v7 M-2.5,-0.5L0,-3.0L2.5,-0.5"/>
  </g>
  <g id="arrowRight" transform="rotate(90) translate(36 -43)">
    <use xlink:href="#rim"/>
    <path pointer-events="none" fill="none" stroke="white" stroke-width="1.5" d="M0,-3.0v7 M-2.5,-0.5L0,-3.0L2.5,-0.5"/>
  </g>
  <g id="arrowDown" transform="rotate(180) translate(-30 -48)">
    <use xlink:href="#rim"/>
    <path pointer-events="none" fill="none" stroke="white" stroke-width="1.5" d="M0,-3.0v7 M-2.5,-0.5L0,-3.0L2.5,-0.5"/>
  </g>
  <g id="arrowLeft" transform="rotate(270) translate(-36 17)">
    <use xlink:href="#rim"/>
    <path pointer-events="none" fill="none" stroke="white" stroke-width="1.5" d="M0,-3.0v7 M-2.5,-0.5L0,-3.0L2.5,-0.5"/>
  </g>
  <g id="resetDef">
    <use xlink:href="#rim2" fill="#404040"><set attributeName="fill" to="#808080" begin="reset.mouseover" end="reset.mouseout"/></use>
  </g>
</defs>
<script type="application/ecmascript">
var viewWidth = 822;
var viewHeight = 128;
var sectionId = 'dynsection-6';
</script>
<script type="application/ecmascript" xlink:href="svg.min.js"/>
<svg id="graph" class="graph">
<g id="viewport">
<title>PlotWindow::plotAfterReadIsChecked</title>
<!-- Node1 -->
<g id="Node000001" class="node">
<title>Node1</title>
<g id="a_Node000001"><a xlink:title="Function to query the status of the plot after read checkbox.">
<polygon fill="#999999" stroke="#666666" points="814,-63.5 668,-63.5 668,-33.5 814,-33.5 814,-63.5"/>
<text text-anchor="start" x="676" y="-51.5" font-family="Helvetica,sans-Serif" font-size="10.00">PlotWindow::plotAfterRead</text>
<text text-anchor="middle" x="741" y="-40.5" font-family="Helvetica,sans-Serif" font-size="10.00">IsChecked</text>
</a>
</g>
</g>
<!-- Node2 -->
<g id="Node000002" class="node">
<title>Node2</title>
<g id="a_Node000002"><a xlink:href="class_qt_hard_mon.html#a418bf9611a809431037ed30409d9172a" target="_top" xlink:title="The function which actually performs the loading of the config file.">
<polygon fill="white" stroke="#666666" points="630,-95 500,-95 500,-76 630,-76 630,-95"/>
<text text-anchor="middle" x="565" y="-83" font-family="Helvetica,sans-Serif" font-size="10.00">QtHardMon::loadConfig</text>
</a>
</g>
</g>
<!-- Node1&#45;&gt;Node2 -->
<g id="edge1_Node000001_Node000002" class="edge">
<title>Node1&#45;&gt;Node2</title>
<g id="a_edge1_Node000001_Node000002"><a xlink:title=" ">
<path fill="none" stroke="#63b8ff" d="M659.43,-65.63C642.69,-69.19 625.63,-72.82 610.75,-75.98"/>
<polygon fill="#63b8ff" stroke="#63b8ff" points="660.17,-69.05 669.23,-63.55 658.72,-62.21 660.17,-69.05"/>
</a>
</g>
</g>
<!-- Node6 -->
<g id="Node000006" class="node">
<title>Node6</title>
<g id="a_Node000006"><a xlink:href="class_qt_hard_mon.html#a0223023aa60b8f6fe79b5cec0ce38f94" target="_top" xlink:title=" ">
<polygon fill="white" stroke="#666666" points="626,-58 504,-58 504,-39 626,-39 626,-58"/>
<text text-anchor="middle" x="565" y="-46" font-family="Helvetica,sans-Serif" font-size="10.00">QtHardMon::readImpl</text>
</a>
</g>
</g>
<!-- Node1&#45;&gt;Node6 -->
<g id="edge6_Node000001_Node000006" class="edge">
<title>Node1&#45;&gt;Node6</title>
<g id="a_edge6_Node000001_Node000006"><a xlink:title=" ">
<path fill="none" stroke="#63b8ff" d="M657.78,-48.5C647.09,-48.5 636.31,-48.5 626.08,-48.5"/>
<polygon fill="#63b8ff" stroke="#63b8ff" points="657.97,-52 667.97,-48.5 657.97,-45 657.97,-52"/>
</a>
</g>
</g>
<!-- Node10 -->
<g id="Node000010" class="node">
<title>Node10</title>
<g id="a_Node000010"><a xlink:href="class_qt_hard_mon.html#a81efa5e61c35f932af1026528047e2e3" target="_top" xlink:title="Write the config to the given file name.">
<polygon fill="white" stroke="#666666" points="632,-21 498,-21 498,-2 632,-2 632,-21"/>
<text text-anchor="middle" x="565" y="-9" font-family="Helvetica,sans-Serif" font-size="10.00">QtHardMon::writeConfig</text>
</a>
</g>
</g>
<!-- Node1&#45;&gt;Node10 -->
<g id="edge12_Node000001_Node000010" class="edge">
<title>Node1&#45;&gt;Node10</title>
<g id="a_edge12_Node000001_Node000010"><a xlink:title=" ">
<path fill="none" stroke="#63b8ff" d="M659.43,-31.37C642.69,-27.81 625.63,-24.18 610.75,-21.02"/>
<polygon fill="#63b8ff" stroke="#63b8ff" points="658.72,-34.79 669.23,-33.45 660.17,-27.95 658.72,-34.79"/>
</a>
</g>
</g>
<!-- Node2&#45;&gt;Node2 -->
<g id="edge3_Node000002_Node000002" class="edge">
<title>Node2&#45;&gt;Node2</title>
<g id="a_edge3_Node000002_Node000002"><a xlink:title=" ">
<path fill="none" stroke="#63b8ff" d="M597.93,-103.45C597,-108.82 586.02,-113 565,-113 533.72,-113 524.68,-103.73 537.87,-95.08"/>
<polygon fill="#63b8ff" stroke="#63b8ff" points="600.7,-101.3 592.13,-95.08 594.95,-105.29 600.7,-101.3"/>
</a>
</g>
</g>
<!-- Node3 -->
<g id="Node000003" class="node">
<title>Node3</title>
<g id="a_Node000003"><a xlink:href="class_qt_hard_mon.html#a283d6fa6d44b3d8818c5eec7e48f1782" target="_top" xlink:title="The constructor.">
<polygon fill="white" stroke="#666666" points="134,-57 0,-57 0,-38 134,-38 134,-57"/>
<text text-anchor="middle" x="67" y="-45" font-family="Helvetica,sans-Serif" font-size="10.00">QtHardMon::QtHardMon</text>
</a>
</g>
</g>
<!-- Node2&#45;&gt;Node3 -->
<g id="edge2_Node000002_Node000003" class="edge">
<title>Node2&#45;&gt;Node3</title>
<g id="a_edge2_Node000002_Node000003"><a xlink:title=" ">
<path fill="none" stroke="#63b8ff" d="M514.43,-97.23C438.78,-113.07 290.58,-135.9 170,-104.5 134.66,-95.3 98.59,-70.86 80.29,-57.15"/>
<polygon fill="#63b8ff" stroke="#63b8ff" points="515.57,-100.57 524.61,-95.05 514.1,-93.73 515.57,-100.57"/>
</a>
</g>
</g>
<!-- Node4 -->
<g id="Node000004" class="node">
<title>Node4</title>
<g id="a_Node000004"><a xlink:href="class_qt_hard_mon.html#a57779de6afbaaab4306780c25aaa2073" target="_top" xlink:title="This method checks if QtHardMon executable has been called with a valid configuration or dmap file as...">
<polygon fill="white" stroke="#666666" points="462,-95 309,-95 309,-76 462,-76 462,-95"/>
<text text-anchor="middle" x="385.5" y="-83" font-family="Helvetica,sans-Serif" font-size="10.00">QtHardMon::parseArgument</text>
</a>
</g>
</g>
<!-- Node2&#45;&gt;Node4 -->
<g id="edge4_Node000002_Node000004" class="edge">
<title>Node2&#45;&gt;Node4</title>
<g id="a_edge4_Node000002_Node000004"><a xlink:title=" ">
<path fill="none" stroke="#63b8ff" d="M489.77,-85.5C480.68,-85.5 471.38,-85.5 462.27,-85.5"/>
<polygon fill="#63b8ff" stroke="#63b8ff" points="489.92,-89 499.92,-85.5 489.92,-82 489.92,-89"/>
</a>
</g>
</g>
<!-- Node5 -->
<g id="Node000005" class="node">
<title>Node5</title>
<g id="a_Node000005"><a xlink:href="main_8cpp.html#a76d7886ff34652714e4a2d447ae4c5b6" target="_top" xlink:title=" ">
<polygon fill="white" stroke="#666666" points="242,-95 201,-95 201,-76 242,-76 242,-95"/>
<text text-anchor="middle" x="221.5" y="-83" font-family="Helvetica,sans-Serif" font-size="10.00">main</text>
</a>
</g>
</g>
<!-- Node4&#45;&gt;Node5 -->
<g id="edge5_Node000004_Node000005" class="edge">
<title>Node4&#45;&gt;Node5</title>
<g id="a_edge5_Node000004_Node000005"><a xlink:title=" ">
<path fill="none" stroke="#63b8ff" d="M298.64,-85.5C277.45,-85.5 256.7,-85.5 242.23,-85.5"/>
<polygon fill="#63b8ff" stroke="#63b8ff" points="298.72,-89 308.72,-85.5 298.72,-82 298.72,-89"/>
</a>
</g>
</g>
<!-- Node7 -->
<g id="Node000007" class="node">
<title>Node7</title>
<g id="a_Node000007"><a xlink:href="class_qt_hard_mon.html#aed608f4dce895ce59714cbf4b27609e3" target="_top" xlink:title="Read register from device.">
<polygon fill="white" stroke="#666666" points="435.5,-58 335.5,-58 335.5,-39 435.5,-39 435.5,-58"/>
<text text-anchor="middle" x="385.5" y="-46" font-family="Helvetica,sans-Serif" font-size="10.00">QtHardMon::read</text>
</a>
</g>
</g>
<!-- Node6&#45;&gt;Node7 -->
<g id="edge7_Node000006_Node000007" class="edge">
<title>Node6&#45;&gt;Node7</title>
<g id="a_edge7_Node000006_Node000007"><a xlink:title=" ">
<path fill="none" stroke="#63b8ff" d="M493.85,-48.5C474.37,-48.5 453.63,-48.5 435.63,-48.5"/>
<polygon fill="#63b8ff" stroke="#63b8ff" points="493.91,-52 503.91,-48.5 493.91,-45 493.91,-52"/>
</a>
</g>
</g>
<!-- Node8 -->
<g id="Node000008" class="node">
<title>Node8</title>
<g id="a_Node000008"><a xlink:href="class_qt_hard_mon.html#a8b0ce2be1ce6b2f179f1d993556f04b2" target="_top" xlink:title="Non&#45;blocking read for the continuous read loop.">
<polygon fill="white" stroke="#666666" points="450.5,-21 320.5,-21 320.5,-2 450.5,-2 450.5,-21"/>
<text text-anchor="middle" x="385.5" y="-9" font-family="Helvetica,sans-Serif" font-size="10.00">QtHardMon::readLatest</text>
</a>
</g>
</g>
<!-- Node6&#45;&gt;Node8 -->
<g id="edge8_Node000006_Node000008" class="edge">
<title>Node6&#45;&gt;Node8</title>
<g id="a_edge8_Node000006_Node000008"><a xlink:title=" ">
<path fill="none" stroke="#63b8ff" d="M508.43,-36.92C483.97,-31.82 455.59,-25.9 432.36,-21.06"/>
<polygon fill="#63b8ff" stroke="#63b8ff" points="507.79,-40.36 518.29,-38.97 509.21,-33.5 507.79,-40.36"/>
</a>
</g>
</g>
<!-- Node8&#45;&gt;Node3 -->
<g id="edge9_Node000008_Node000003" class="edge">
<title>Node8&#45;&gt;Node3</title>
<g id="a_edge9_Node000008_Node000003"><a xlink:title=" ">
<path fill="none" stroke="#63b8ff" d="M316.2,-22.56C301.94,-24.69 287,-26.79 273,-28.5 226.7,-34.17 174.33,-39 134.12,-42.37"/>
<polygon fill="#63b8ff" stroke="#63b8ff" points="317.07,-25.97 326.43,-21.02 316.02,-19.05 317.07,-25.97"/>
</a>
</g>
</g>
<!-- Node9 -->
<g id="Node000009" class="node">
<title>Node9</title>
<g id="a_Node000009"><a xlink:href="class_qt_hard_mon.html#a3c604ea8f93615e8856e97e4ebe70e3f" target="_top" xlink:title="Read register to device.">
<polygon fill="white" stroke="#666666" points="273,-19 170,-19 170,0 273,0 273,-19"/>
<text text-anchor="middle" x="221.5" y="-7" font-family="Helvetica,sans-Serif" font-size="10.00">QtHardMon::write</text>
</a>
</g>
</g>
<!-- Node8&#45;&gt;Node9 -->
<g id="edge10_Node000008_Node000009" class="edge">
<title>Node8&#45;&gt;Node9</title>
<g id="a_edge10_Node000008_Node000009"><a xlink:title=" ">
<path fill="none" stroke="#63b8ff" d="M310.42,-10.59C297.78,-10.43 284.93,-10.27 273.08,-10.12"/>
<polygon fill="#63b8ff" stroke="#63b8ff" points="310.43,-14.09 320.47,-10.71 310.52,-7.09 310.43,-14.09"/>
</a>
</g>
</g>
<!-- Node9&#45;&gt;Node3 -->
<g id="edge11_Node000009_Node000003" class="edge">
<title>Node9&#45;&gt;Node3</title>
<g id="a_edge11_Node000009_Node000003"><a xlink:title=" ">
<path fill="none" stroke="#63b8ff" d="M172.18,-21.54C150.88,-26.85 126.2,-33 106.21,-37.98"/>
<polygon fill="#63b8ff" stroke="#63b8ff" points="173.16,-24.9 182.02,-19.09 171.47,-18.11 173.16,-24.9"/>
</a>
</g>
</g>
</g>
</svg>

<g id="navigator" transform="translate(0 0)" fill="#404254">
  <rect fill="#f2f5e9" fill-opacity="0.5" stroke="#606060" stroke-width=".5" x="0" y="0" width="60" height="60"/>
  <use id="zoomplus" xlink:href="#zoomPlus" x="17" y="9" onmousedown="handleZoom(evt,'in')"/>
  <use id="zoomminus" xlink:href="#zoomMin" x="42" y="9" onmousedown="handleZoom(evt,'out')"/>
  <use id="reset" xlink:href="#resetDef" x="30" y="36" onmousedown="handleReset()"/>
   <use id="arrowup" xlink:href="#arrowUp" x="0" y="0" onmousedown="handlePan(0,-1)"/>
  <use id="arrowright" xlink:href="#arrowRight" x="0" y="0" onmousedown="handlePan(1,0)"/>
  <use id="arrowdown" xlink:href="#arrowDown" x="0" y="0" onmousedown="handlePan(0,1)"/>
  <use id="arrowleft" xlink:href="#arrowLeft" x="0" y="0" onmousedown="handlePan(-1,0)"/>
</g>
<svg viewBox="0 0 15 15" width="100%" height="30px" preserveAspectRatio="xMaxYMin meet">
 <g id="arrow_out" transform="scale(0.3 0.3)">
  <a xlink:href="class_plot_window_a4d204a79c2838421b8fcf77740d86a0f_icgraph_org.svg" target="_base">
   <rect id="button" ry="5" rx="5" y="6" x="6" height="38" width="38"
        fill="#f2f5e9" fill-opacity="0.5" stroke="#606060" stroke-width="1.0"/>
   <path id="arrow"
     d="M 11.500037,31.436501 C 11.940474,20.09759 22.043105,11.32322 32.158766,21.979434 L 37.068811,17.246167 C 37.068811,17.246167 37.088388,32 37.088388,32 L 22.160133,31.978069 C 22.160133,31.978069 26.997745,27.140456 26.997745,27.140456 C 18.528582,18.264221 13.291696,25.230495 11.500037,31.436501 z"
     style="fill:#404040;"/>
  </a>
 </g>
</svg>

<style type='text/css'>
<![CDATA[
[data-mouse-over-selected='false'] { opacity: 0.7; }
[data-mouse-over-selected='true']  { opacity: 1.0; }
]]>
</style>
<script type="application/ecmascript"><![CDATA[
document.addEventListener('DOMContentLoaded', (event) => {
  highlightEdges();
  highlightAdjacentNodes();
});
]]></script>
</svg>
