<?xml version="1.0" encoding="UTF-8" standalone="no"?>
<!DOCTYPE svg PUBLIC "-//W3C//DTD SVG 1.1//EN"
 "http://www.w3.org/Graphics/SVG/1.1/DTD/svg11.dtd">
<!-- Generated by graphviz version 2.43.0 (0)
 -->
<!-- Title: src/CatalogueFetcher.cc Pages: 1 -->
<svg width="923pt" height="207pt"
 viewBox="0.00 0.00 923.00 207.00" xmlns="http://www.w3.org/2000/svg" xmlns:xlink="http://www.w3.org/1999/xlink">
<g id="graph0" class="graph" transform="scale(1 1) rotate(0) translate(4 203)">
<title>src/CatalogueFetcher.cc</title>
<polygon fill="white" stroke="transparent" points="-4,4 -4,-203 919,-203 919,4 -4,4"/>
<!-- Node1 -->
<g id="node1" class="node">
<title>Node1</title>
<g id="a_node1"><a xlink:title=" ">
<polygon fill="#bfbfbf" stroke="black" points="349.5,-179.5 349.5,-198.5 481.5,-198.5 481.5,-179.5 349.5,-179.5"/>
<text text-anchor="middle" x="415.5" y="-186.5" font-family="Helvetica,sans-Serif" font-size="10.00">src/CatalogueFetcher.cc</text>
</a>
</g>
</g>
<!-- Node2 -->
<g id="node2" class="node">
<title>Node2</title>
<g id="a_node2"><a xlink:href="_catalogue_fetcher_8h.html" target="_top" xlink:title=" ">
<polygon fill="white" stroke="black" points="242.5,-123.5 242.5,-142.5 352.5,-142.5 352.5,-123.5 242.5,-123.5"/>
<text text-anchor="middle" x="297.5" y="-130.5" font-family="Helvetica,sans-Serif" font-size="10.00">CatalogueFetcher.h</text>
</a>
</g>
</g>
<!-- Node1&#45;&gt;Node2 -->
<g id="edge1" class="edge">
<title>Node1&#45;&gt;Node2</title>
<path fill="none" stroke="midnightblue" d="M396.8,-179.44C377.56,-170.64 347.35,-156.81 325.3,-146.72"/>
<polygon fill="midnightblue" stroke="midnightblue" points="326.66,-143.5 316.11,-142.52 323.75,-149.86 326.66,-143.5"/>
</g>
<!-- Node7 -->
<g id="node7" class="node">
<title>Node7</title>
<g id="a_node7"><a xlink:href="_register_info_8h.html" target="_top" xlink:title=" ">
<polygon fill="white" stroke="black" points="391,-67.5 391,-86.5 476,-86.5 476,-67.5 391,-67.5"/>
<text text-anchor="middle" x="433.5" y="-74.5" font-family="Helvetica,sans-Serif" font-size="10.00">RegisterInfo.h</text>
</a>
</g>
</g>
<!-- Node1&#45;&gt;Node7 -->
<g id="edge13" class="edge">
<title>Node1&#45;&gt;Node7</title>
<path fill="none" stroke="midnightblue" d="M416.91,-179.37C419.82,-161.62 426.52,-120.67 430.46,-96.6"/>
<polygon fill="midnightblue" stroke="midnightblue" points="433.93,-97.03 432.09,-86.59 427.03,-95.89 433.93,-97.03"/>
</g>
<!-- Node10 -->
<g id="node10" class="node">
<title>Node10</title>
<g id="a_node10"><a xlink:href="_string_utility_8h.html" target="_top" xlink:title=" ">
<polygon fill="white" stroke="black" points="75,-123.5 75,-142.5 158,-142.5 158,-123.5 75,-123.5"/>
<text text-anchor="middle" x="116.5" y="-130.5" font-family="Helvetica,sans-Serif" font-size="10.00">StringUtility.h</text>
</a>
</g>
</g>
<!-- Node1&#45;&gt;Node10 -->
<g id="edge9" class="edge">
<title>Node1&#45;&gt;Node10</title>
<path fill="none" stroke="midnightblue" d="M368.12,-179.44C313.71,-169.62 224.73,-153.55 168.46,-143.38"/>
<polygon fill="midnightblue" stroke="midnightblue" points="168.81,-139.89 158.35,-141.56 167.57,-146.78 168.81,-139.89"/>
</g>
<!-- Node13 -->
<g id="node13" class="node">
<title>Node13</title>
<g id="a_node13"><a xlink:href="_doocs_backend_8h.html" target="_top" xlink:title=" ">
<polygon fill="white" stroke="black" points="444,-123.5 444,-142.5 541,-142.5 541,-123.5 444,-123.5"/>
<text text-anchor="middle" x="492.5" y="-130.5" font-family="Helvetica,sans-Serif" font-size="10.00">DoocsBackend.h</text>
</a>
</g>
</g>
<!-- Node1&#45;&gt;Node13 -->
<g id="edge14" class="edge">
<title>Node1&#45;&gt;Node13</title>
<path fill="none" stroke="midnightblue" d="M427.87,-179.32C439.66,-171.06 457.63,-158.45 471.64,-148.63"/>
<polygon fill="midnightblue" stroke="midnightblue" points="473.98,-151.26 480.16,-142.65 469.96,-145.53 473.98,-151.26"/>
</g>
<!-- Node17 -->
<g id="node17" class="node">
<title>Node17</title>
<g id="a_node17"><a xlink:title=" ">
<polygon fill="white" stroke="#bfbfbf" points="559.5,-123.5 559.5,-142.5 629.5,-142.5 629.5,-123.5 559.5,-123.5"/>
<text text-anchor="middle" x="594.5" y="-130.5" font-family="Helvetica,sans-Serif" font-size="10.00">eq_client.h</text>
</a>
</g>
</g>
<!-- Node1&#45;&gt;Node17 -->
<g id="edge20" class="edge">
<title>Node1&#45;&gt;Node17</title>
<path fill="none" stroke="midnightblue" d="M443.86,-179.44C474.24,-170.28 522.61,-155.69 556.32,-145.52"/>
<polygon fill="midnightblue" stroke="midnightblue" points="557.71,-148.76 566.27,-142.52 555.68,-142.05 557.71,-148.76"/>
</g>
<!-- Node3 -->
<g id="node3" class="node">
<title>Node3</title>
<g id="a_node3"><a xlink:title=" ">
<polygon fill="white" stroke="#bfbfbf" points="124.5,-67.5 124.5,-86.5 168.5,-86.5 168.5,-67.5 124.5,-67.5"/>
<text text-anchor="middle" x="146.5" y="-74.5" font-family="Helvetica,sans-Serif" font-size="10.00">string</text>
</a>
</g>
</g>
<!-- Node2&#45;&gt;Node3 -->
<g id="edge2" class="edge">
<title>Node2&#45;&gt;Node3</title>
<path fill="none" stroke="midnightblue" d="M273.57,-123.44C247.83,-114.24 206.78,-99.56 178.33,-89.38"/>
<polygon fill="midnightblue" stroke="midnightblue" points="179.43,-86.06 168.84,-85.99 177.08,-92.65 179.43,-86.06"/>
</g>
<!-- Node4 -->
<g id="node4" class="node">
<title>Node4</title>
<g id="a_node4"><a xlink:title=" ">
<polygon fill="white" stroke="#bfbfbf" points="326.5,-67.5 326.5,-86.5 372.5,-86.5 372.5,-67.5 326.5,-67.5"/>
<text text-anchor="middle" x="349.5" y="-74.5" font-family="Helvetica,sans-Serif" font-size="10.00">future</text>
</a>
</g>
</g>
<!-- Node2&#45;&gt;Node4 -->
<g id="edge3" class="edge">
<title>Node2&#45;&gt;Node4</title>
<path fill="none" stroke="midnightblue" d="M306.09,-123.08C313.66,-115.22 324.88,-103.57 334.01,-94.08"/>
<polygon fill="midnightblue" stroke="midnightblue" points="336.66,-96.38 341.07,-86.75 331.62,-91.53 336.66,-96.38"/>
</g>
<!-- Node5 -->
<g id="node5" class="node">
<title>Node5</title>
<g id="a_node5"><a xlink:title=" ">
<polygon fill="white" stroke="#bfbfbf" points="187,-67.5 187,-86.5 232,-86.5 232,-67.5 187,-67.5"/>
<text text-anchor="middle" x="209.5" y="-74.5" font-family="Helvetica,sans-Serif" font-size="10.00">utility</text>
</a>
</g>
</g>
<!-- Node2&#45;&gt;Node5 -->
<g id="edge4" class="edge">
<title>Node2&#45;&gt;Node5</title>
<path fill="none" stroke="midnightblue" d="M283.36,-123.32C269.63,-114.9 248.56,-101.97 232.44,-92.07"/>
<polygon fill="midnightblue" stroke="midnightblue" points="233.96,-88.9 223.6,-86.65 230.3,-94.87 233.96,-88.9"/>
</g>
<!-- Node6 -->
<g id="node6" class="node">
<title>Node6</title>
<g id="a_node6"><a xlink:title=" ">
<polygon fill="white" stroke="#bfbfbf" points="250.5,-67.5 250.5,-86.5 308.5,-86.5 308.5,-67.5 250.5,-67.5"/>
<text text-anchor="middle" x="279.5" y="-74.5" font-family="Helvetica,sans-Serif" font-size="10.00">memory</text>
</a>
</g>
</g>
<!-- Node2&#45;&gt;Node6 -->
<g id="edge5" class="edge">
<title>Node2&#45;&gt;Node6</title>
<path fill="none" stroke="midnightblue" d="M294.53,-123.08C292.12,-115.85 288.64,-105.41 285.63,-96.4"/>
<polygon fill="midnightblue" stroke="midnightblue" points="288.9,-95.13 282.42,-86.75 282.26,-97.34 288.9,-95.13"/>
</g>
<!-- Node2&#45;&gt;Node7 -->
<g id="edge6" class="edge">
<title>Node2&#45;&gt;Node7</title>
<path fill="none" stroke="midnightblue" d="M319.05,-123.44C341.53,-114.52 376.99,-100.44 402.48,-90.32"/>
<polygon fill="midnightblue" stroke="midnightblue" points="404.05,-93.46 412.05,-86.52 401.47,-86.95 404.05,-93.46"/>
</g>
<!-- Node8 -->
<g id="node8" class="node">
<title>Node8</title>
<g id="a_node8"><a xlink:title=" ">
<polygon fill="white" stroke="#bfbfbf" points="270,-0.5 270,-30.5 425,-30.5 425,-0.5 270,-0.5"/>
<text text-anchor="start" x="278" y="-18.5" font-family="Helvetica,sans-Serif" font-size="10.00">ChimeraTK/BackendRegister</text>
<text text-anchor="middle" x="347.5" y="-7.5" font-family="Helvetica,sans-Serif" font-size="10.00">InfoBase.h</text>
</a>
</g>
</g>
<!-- Node7&#45;&gt;Node8 -->
<g id="edge7" class="edge">
<title>Node7&#45;&gt;Node8</title>
<path fill="none" stroke="midnightblue" d="M421.18,-67.48C409.53,-59.42 391.62,-47.02 376.37,-36.47"/>
<polygon fill="midnightblue" stroke="midnightblue" points="377.98,-33.33 367.77,-30.52 374,-39.09 377.98,-33.33"/>
</g>
<!-- Node9 -->
<g id="node9" class="node">
<title>Node9</title>
<g id="a_node9"><a xlink:title=" ">
<polygon fill="white" stroke="#bfbfbf" points="443,-0.5 443,-30.5 598,-30.5 598,-0.5 443,-0.5"/>
<text text-anchor="start" x="451" y="-18.5" font-family="Helvetica,sans-Serif" font-size="10.00">ChimeraTK/BackendRegister</text>
<text text-anchor="middle" x="520.5" y="-7.5" font-family="Helvetica,sans-Serif" font-size="10.00">Catalogue.h</text>
</a>
</g>
</g>
<!-- Node7&#45;&gt;Node9 -->
<g id="edge8" class="edge">
<title>Node7&#45;&gt;Node9</title>
<path fill="none" stroke="midnightblue" d="M445.96,-67.48C457.86,-59.34 476.21,-46.79 491.73,-36.18"/>
<polygon fill="midnightblue" stroke="midnightblue" points="493.72,-39.06 500,-30.52 489.77,-33.28 493.72,-39.06"/>
</g>
<!-- Node10&#45;&gt;Node3 -->
<g id="edge10" class="edge">
<title>Node10&#45;&gt;Node3</title>
<path fill="none" stroke="midnightblue" d="M121.45,-123.08C125.6,-115.61 131.65,-104.72 136.77,-95.52"/>
<polygon fill="midnightblue" stroke="midnightblue" points="139.84,-97.19 141.64,-86.75 133.72,-93.79 139.84,-97.19"/>
</g>
<!-- Node11 -->
<g id="node11" class="node">
<title>Node11</title>
<g id="a_node11"><a xlink:title=" ">
<polygon fill="white" stroke="#bfbfbf" points="0,-67.5 0,-86.5 47,-86.5 47,-67.5 0,-67.5"/>
<text text-anchor="middle" x="23.5" y="-74.5" font-family="Helvetica,sans-Serif" font-size="10.00">vector</text>
</a>
</g>
</g>
<!-- Node10&#45;&gt;Node11 -->
<g id="edge11" class="edge">
<title>Node10&#45;&gt;Node11</title>
<path fill="none" stroke="midnightblue" d="M101.56,-123.32C86.91,-114.82 64.37,-101.73 47.26,-91.8"/>
<polygon fill="midnightblue" stroke="midnightblue" points="48.81,-88.65 38.4,-86.65 45.3,-94.7 48.81,-88.65"/>
</g>
<!-- Node12 -->
<g id="node12" class="node">
<title>Node12</title>
<g id="a_node12"><a xlink:title=" ">
<polygon fill="white" stroke="#bfbfbf" points="65,-67.5 65,-86.5 106,-86.5 106,-67.5 65,-67.5"/>
<text text-anchor="middle" x="85.5" y="-74.5" font-family="Helvetica,sans-Serif" font-size="10.00">tuple</text>
</a>
</g>
</g>
<!-- Node10&#45;&gt;Node12 -->
<g id="edge12" class="edge">
<title>Node10&#45;&gt;Node12</title>
<path fill="none" stroke="midnightblue" d="M111.38,-123.08C107.09,-115.61 100.84,-104.72 95.56,-95.52"/>
<polygon fill="midnightblue" stroke="midnightblue" points="98.54,-93.68 90.52,-86.75 92.47,-97.17 98.54,-93.68"/>
</g>
<!-- Node13&#45;&gt;Node4 -->
<g id="edge17" class="edge">
<title>Node13&#45;&gt;Node4</title>
<path fill="none" stroke="midnightblue" d="M469.84,-123.44C446.1,-114.48 408.59,-100.31 381.76,-90.18"/>
<polygon fill="midnightblue" stroke="midnightblue" points="382.64,-86.77 372.05,-86.52 380.17,-93.32 382.64,-86.77"/>
</g>
<!-- Node13&#45;&gt;Node7 -->
<g id="edge15" class="edge">
<title>Node13&#45;&gt;Node7</title>
<path fill="none" stroke="midnightblue" d="M483.02,-123.32C474.3,-115.34 461.16,-103.31 450.6,-93.65"/>
<polygon fill="midnightblue" stroke="midnightblue" points="452.89,-91 443.15,-86.83 448.17,-96.17 452.89,-91"/>
</g>
<!-- Node14 -->
<g id="node14" class="node">
<title>Node14</title>
<g id="a_node14"><a xlink:title=" ">
<polygon fill="white" stroke="#bfbfbf" points="494.5,-67.5 494.5,-86.5 542.5,-86.5 542.5,-67.5 494.5,-67.5"/>
<text text-anchor="middle" x="518.5" y="-74.5" font-family="Helvetica,sans-Serif" font-size="10.00">mutex</text>
</a>
</g>
</g>
<!-- Node13&#45;&gt;Node14 -->
<g id="edge16" class="edge">
<title>Node13&#45;&gt;Node14</title>
<path fill="none" stroke="midnightblue" d="M496.79,-123.08C500.35,-115.69 505.52,-104.95 509.92,-95.81"/>
<polygon fill="midnightblue" stroke="midnightblue" points="513.1,-97.28 514.29,-86.75 506.79,-94.24 513.1,-97.28"/>
</g>
<!-- Node15 -->
<g id="node15" class="node">
<title>Node15</title>
<g id="a_node15"><a xlink:title=" ">
<polygon fill="white" stroke="#bfbfbf" points="561,-67.5 561,-86.5 740,-86.5 740,-67.5 561,-67.5"/>
<text text-anchor="middle" x="650.5" y="-74.5" font-family="Helvetica,sans-Serif" font-size="10.00">ChimeraTK/DeviceBackendImpl.h</text>
</a>
</g>
</g>
<!-- Node13&#45;&gt;Node15 -->
<g id="edge18" class="edge">
<title>Node13&#45;&gt;Node15</title>
<path fill="none" stroke="midnightblue" d="M517.54,-123.44C544.12,-114.36 586.31,-99.94 616.02,-89.78"/>
<polygon fill="midnightblue" stroke="midnightblue" points="617.25,-93.06 625.58,-86.52 614.99,-86.44 617.25,-93.06"/>
</g>
<!-- Node16 -->
<g id="node16" class="node">
<title>Node16</title>
<g id="a_node16"><a xlink:title=" ">
<polygon fill="white" stroke="#bfbfbf" points="758,-67.5 758,-86.5 915,-86.5 915,-67.5 758,-67.5"/>
<text text-anchor="middle" x="836.5" y="-74.5" font-family="Helvetica,sans-Serif" font-size="10.00">ChimeraTK/VersionNumber.h</text>
</a>
</g>
</g>
<!-- Node13&#45;&gt;Node16 -->
<g id="edge19" class="edge">
<title>Node13&#45;&gt;Node16</title>
<path fill="none" stroke="midnightblue" d="M541.06,-124.38C601.57,-114.88 705.16,-98.62 772.21,-88.09"/>
<polygon fill="midnightblue" stroke="midnightblue" points="772.9,-91.53 782.24,-86.52 771.81,-84.61 772.9,-91.53"/>
</g>
</g>
</svg>
