<?xml version="1.0" encoding="UTF-8" standalone="no"?>
<!DOCTYPE svg PUBLIC "-//W3C//DTD SVG 1.1//EN"
 "http://www.w3.org/Graphics/SVG/1.1/DTD/svg11.dtd">
<!-- Generated by graphviz version 2.40.1 (20161225.0304)
 -->
<!-- Title: device/include/RegisterCatalogue.h Pages: 1 -->
<svg width="548pt" height="252pt"
 viewBox="0.00 0.00 547.50 252.00" xmlns="http://www.w3.org/2000/svg" xmlns:xlink="http://www.w3.org/1999/xlink">
<g id="graph0" class="graph" transform="scale(1 1) rotate(0) translate(4 248)">
<title>device/include/RegisterCatalogue.h</title>
<polygon fill="#ffffff" stroke="transparent" points="-4,4 -4,-248 543.5,-248 543.5,4 -4,4"/>
<!-- Node0 -->
<g id="node1" class="node">
<title>Node0</title>
<polygon fill="#bfbfbf" stroke="#000000" points="101.5,-224.5 101.5,-243.5 289.5,-243.5 289.5,-224.5 101.5,-224.5"/>
<text text-anchor="middle" x="195.5" y="-231.5" font-family="Helvetica,sans-Serif" font-size="10.00" fill="#000000">device/include/RegisterCatalogue.h</text>
</g>
<!-- Node1 -->
<g id="node2" class="node">
<title>Node1</title>
<polygon fill="#ffffff" stroke="#bfbfbf" points="0,-168.5 0,-187.5 119,-187.5 119,-168.5 0,-168.5"/>
<text text-anchor="middle" x="59.5" y="-175.5" font-family="Helvetica,sans-Serif" font-size="10.00" fill="#000000">boost/shared_ptr.hpp</text>
</g>
<!-- Node0&#45;&gt;Node1 -->
<g id="edge1" class="edge">
<title>Node0&#45;&gt;Node1</title>
<path fill="none" stroke="#191970" d="M172.1208,-224.3733C149.9955,-215.2629 116.5866,-201.5062 91.8981,-191.3404"/>
<polygon fill="#191970" stroke="#191970" points="93.1536,-188.0723 82.5742,-187.5011 90.4883,-194.5451 93.1536,-188.0723"/>
</g>
<!-- Node2 -->
<g id="node3" class="node">
<title>Node2</title>
<polygon fill="#ffffff" stroke="#bfbfbf" points="137.5,-168.5 137.5,-187.5 175.5,-187.5 175.5,-168.5 137.5,-168.5"/>
<text text-anchor="middle" x="156.5" y="-175.5" font-family="Helvetica,sans-Serif" font-size="10.00" fill="#000000">map</text>
</g>
<!-- Node0&#45;&gt;Node2 -->
<g id="edge2" class="edge">
<title>Node0&#45;&gt;Node2</title>
<path fill="none" stroke="#191970" d="M188.7067,-224.2455C183.2822,-216.4564 175.5339,-205.3308 168.9967,-195.9439"/>
<polygon fill="#191970" stroke="#191970" points="171.8025,-193.8485 163.2154,-187.6427 166.0583,-197.849 171.8025,-193.8485"/>
</g>
<!-- Node3 -->
<g id="node4" class="node">
<title>Node3</title>
<g id="a_node4"><a xlink:href="device_2include_2_register_info_8h.html" target="_top" xlink:title="RegisterInfo.h">
<polygon fill="#ffffff" stroke="#000000" points="193.5,-168.5 193.5,-187.5 277.5,-187.5 277.5,-168.5 193.5,-168.5"/>
<text text-anchor="middle" x="235.5" y="-175.5" font-family="Helvetica,sans-Serif" font-size="10.00" fill="#000000">RegisterInfo.h</text>
</a>
</g>
</g>
<!-- Node0&#45;&gt;Node3 -->
<g id="edge3" class="edge">
<title>Node0&#45;&gt;Node3</title>
<path fill="none" stroke="#191970" d="M202.4675,-224.2455C208.0311,-216.4564 215.978,-205.3308 222.6829,-195.9439"/>
<polygon fill="#191970" stroke="#191970" points="225.648,-197.8144 228.6124,-187.6427 219.9519,-193.7457 225.648,-197.8144"/>
</g>
<!-- Node11 -->
<g id="node12" class="node">
<title>Node11</title>
<polygon fill="#ffffff" stroke="#bfbfbf" points="453.5,-56.5 453.5,-75.5 539.5,-75.5 539.5,-56.5 453.5,-56.5"/>
<text text-anchor="middle" x="496.5" y="-63.5" font-family="Helvetica,sans-Serif" font-size="10.00" fill="#000000">RegisterPath.h</text>
</g>
<!-- Node0&#45;&gt;Node11 -->
<g id="edge15" class="edge">
<title>Node0&#45;&gt;Node11</title>
<path fill="none" stroke="#191970" d="M223.8014,-224.4705C268.1909,-208.8404 355.9806,-175.137 422.5,-132 444.4361,-117.7747 466.3895,-97.1988 480.619,-82.8141"/>
<polygon fill="#191970" stroke="#191970" points="483.2269,-85.1525 487.6806,-75.5392 478.204,-80.2769 483.2269,-85.1525"/>
</g>
<!-- Node4 -->
<g id="node5" class="node">
<title>Node4</title>
<g id="a_node5"><a xlink:href="device_2include_2_forward_declarations_8h.html" target="_top" xlink:title="ForwardDeclarations.h">
<polygon fill="#ffffff" stroke="#000000" points="3.5,-112.5 3.5,-131.5 129.5,-131.5 129.5,-112.5 3.5,-112.5"/>
<text text-anchor="middle" x="66.5" y="-119.5" font-family="Helvetica,sans-Serif" font-size="10.00" fill="#000000">ForwardDeclarations.h</text>
</a>
</g>
</g>
<!-- Node3&#45;&gt;Node4 -->
<g id="edge4" class="edge">
<title>Node3&#45;&gt;Node4</title>
<path fill="none" stroke="#191970" d="M206.4479,-168.3733C178.3457,-159.0613 135.5946,-144.8953 104.7393,-134.671"/>
<polygon fill="#191970" stroke="#191970" points="105.7664,-131.3243 95.173,-131.5011 103.5645,-137.969 105.7664,-131.3243"/>
</g>
<!-- Node6 -->
<g id="node7" class="node">
<title>Node6</title>
<g id="a_node7"><a xlink:href="_backend_register_info_base_8h.html" target="_top" xlink:title="BackendRegisterInfoBase.h">
<polygon fill="#ffffff" stroke="#000000" points="263.5,-112.5 263.5,-131.5 413.5,-131.5 413.5,-112.5 263.5,-112.5"/>
<text text-anchor="middle" x="338.5" y="-119.5" font-family="Helvetica,sans-Serif" font-size="10.00" fill="#000000">BackendRegisterInfoBase.h</text>
</a>
</g>
</g>
<!-- Node3&#45;&gt;Node6 -->
<g id="edge6" class="edge">
<title>Node3&#45;&gt;Node6</title>
<path fill="none" stroke="#191970" d="M253.4412,-168.2455C269.54,-159.4928 293.3879,-146.527 311.7391,-136.5496"/>
<polygon fill="#191970" stroke="#191970" points="313.6507,-139.4942 320.7644,-131.6427 310.3071,-133.3444 313.6507,-139.4942"/>
</g>
<!-- Node12 -->
<g id="node13" class="node">
<title>Node12</title>
<polygon fill="#ffffff" stroke="#bfbfbf" points="157.5,-56.5 157.5,-75.5 215.5,-75.5 215.5,-56.5 157.5,-56.5"/>
<text text-anchor="middle" x="186.5" y="-63.5" font-family="Helvetica,sans-Serif" font-size="10.00" fill="#000000">memory</text>
</g>
<!-- Node3&#45;&gt;Node12 -->
<g id="edge14" class="edge">
<title>Node3&#45;&gt;Node12</title>
<path fill="none" stroke="#191970" d="M233.6512,-168.2831C230.9374,-155.1223 225.2312,-131.0831 216.5,-112 212.0615,-102.2991 205.7719,-92.2907 200.0973,-84.0968"/>
<polygon fill="#191970" stroke="#191970" points="202.7617,-81.8069 194.0831,-75.7297 197.0777,-85.8925 202.7617,-81.8069"/>
</g>
<!-- Node13 -->
<g id="node14" class="node">
<title>Node13</title>
<polygon fill="#ffffff" stroke="#bfbfbf" points="147.5,-112.5 147.5,-131.5 207.5,-131.5 207.5,-112.5 147.5,-112.5"/>
<text text-anchor="middle" x="177.5" y="-119.5" font-family="Helvetica,sans-Serif" font-size="10.00" fill="#000000">iostream</text>
</g>
<!-- Node3&#45;&gt;Node13 -->
<g id="edge13" class="edge">
<title>Node3&#45;&gt;Node13</title>
<path fill="none" stroke="#191970" d="M225.3972,-168.2455C216.9972,-160.1352 204.8506,-148.4075 194.8916,-138.7919"/>
<polygon fill="#191970" stroke="#191970" points="197.1122,-136.0707 187.4871,-131.6427 192.25,-141.1066 197.1122,-136.0707"/>
</g>
<!-- Node5 -->
<g id="node6" class="node">
<title>Node5</title>
<polygon fill="#ffffff" stroke="#bfbfbf" points="43,-56.5 43,-75.5 90,-75.5 90,-56.5 43,-56.5"/>
<text text-anchor="middle" x="66.5" y="-63.5" font-family="Helvetica,sans-Serif" font-size="10.00" fill="#000000">vector</text>
</g>
<!-- Node4&#45;&gt;Node5 -->
<g id="edge5" class="edge">
<title>Node4&#45;&gt;Node5</title>
<path fill="none" stroke="#191970" d="M66.5,-112.2455C66.5,-104.9382 66.5,-94.6944 66.5,-85.7046"/>
<polygon fill="#191970" stroke="#191970" points="70.0001,-85.6426 66.5,-75.6427 63.0001,-85.6427 70.0001,-85.6426"/>
</g>
<!-- Node7 -->
<g id="node8" class="node">
<title>Node7</title>
<g id="a_node8"><a xlink:href="_data_descriptor_8h.html" target="_top" xlink:title="DataDescriptor.h">
<polygon fill="#ffffff" stroke="#000000" points="337.5,-56.5 337.5,-75.5 435.5,-75.5 435.5,-56.5 337.5,-56.5"/>
<text text-anchor="middle" x="386.5" y="-63.5" font-family="Helvetica,sans-Serif" font-size="10.00" fill="#000000">DataDescriptor.h</text>
</a>
</g>
</g>
<!-- Node6&#45;&gt;Node7 -->
<g id="edge7" class="edge">
<title>Node6&#45;&gt;Node7</title>
<path fill="none" stroke="#191970" d="M346.861,-112.2455C353.675,-104.2958 363.4681,-92.8706 371.6152,-83.3656"/>
<polygon fill="#191970" stroke="#191970" points="374.3843,-85.513 378.2349,-75.6427 369.0695,-80.9575 374.3843,-85.513"/>
</g>
<!-- Node10 -->
<g id="node11" class="node">
<title>Node10</title>
<polygon fill="#ffffff" stroke="#bfbfbf" points="233.5,-56.5 233.5,-75.5 319.5,-75.5 319.5,-56.5 233.5,-56.5"/>
<text text-anchor="middle" x="276.5" y="-63.5" font-family="Helvetica,sans-Serif" font-size="10.00" fill="#000000">AccessMode.h</text>
</g>
<!-- Node6&#45;&gt;Node10 -->
<g id="edge10" class="edge">
<title>Node6&#45;&gt;Node10</title>
<path fill="none" stroke="#191970" d="M327.7004,-112.2455C318.6322,-104.0549 305.4794,-92.1749 294.7755,-82.5069"/>
<polygon fill="#191970" stroke="#191970" points="296.9429,-79.7482 287.1758,-75.6427 292.2509,-84.9429 296.9429,-79.7482"/>
</g>
<!-- Node6&#45;&gt;Node11 -->
<g id="edge11" class="edge">
<title>Node6&#45;&gt;Node11</title>
<path fill="none" stroke="#191970" d="M365.6612,-112.3733C391.7067,-103.1419 431.2116,-89.1402 459.9979,-78.9375"/>
<polygon fill="#191970" stroke="#191970" points="461.437,-82.1408 469.6933,-75.5011 459.0985,-75.5429 461.437,-82.1408"/>
</g>
<!-- Node6&#45;&gt;Node12 -->
<g id="edge12" class="edge">
<title>Node6&#45;&gt;Node12</title>
<path fill="none" stroke="#191970" d="M312.3703,-112.3733C287.4232,-103.1822 249.6408,-89.2624 221.9794,-79.0713"/>
<polygon fill="#191970" stroke="#191970" points="222.8822,-75.674 212.2888,-75.5011 220.4622,-82.2424 222.8822,-75.674"/>
</g>
<!-- Node8 -->
<g id="node9" class="node">
<title>Node8</title>
<polygon fill="#ffffff" stroke="#bfbfbf" points="270,-.5 270,-19.5 395,-19.5 395,-.5 270,-.5"/>
<text text-anchor="middle" x="332.5" y="-7.5" font-family="Helvetica,sans-Serif" font-size="10.00" fill="#000000">SupportedUserTypes.h</text>
</g>
<!-- Node7&#45;&gt;Node8 -->
<g id="edge8" class="edge">
<title>Node7&#45;&gt;Node8</title>
<path fill="none" stroke="#191970" d="M377.0939,-56.2455C369.3507,-48.2155 358.188,-36.6394 348.9682,-27.0781"/>
<polygon fill="#191970" stroke="#191970" points="351.2591,-24.4117 341.7983,-19.6427 346.2202,-29.2706 351.2591,-24.4117"/>
</g>
<!-- Node9 -->
<g id="node10" class="node">
<title>Node9</title>
<polygon fill="#ffffff" stroke="#bfbfbf" points="413.5,-.5 413.5,-19.5 465.5,-19.5 465.5,-.5 413.5,-.5"/>
<text text-anchor="middle" x="439.5" y="-7.5" font-family="Helvetica,sans-Serif" font-size="10.00" fill="#000000">cassert</text>
</g>
<!-- Node7&#45;&gt;Node9 -->
<g id="edge9" class="edge">
<title>Node7&#45;&gt;Node9</title>
<path fill="none" stroke="#191970" d="M395.7319,-56.2455C403.3317,-48.2155 414.2877,-36.6394 423.3368,-27.0781"/>
<polygon fill="#191970" stroke="#191970" points="426.0421,-29.3115 430.3739,-19.6427 420.958,-24.4998 426.0421,-29.3115"/>
</g>
</g>
</svg>
