<?xml version="1.0" encoding="UTF-8" standalone="no"?>
<!DOCTYPE svg PUBLIC "-//W3C//DTD SVG 1.1//EN"
 "http://www.w3.org/Graphics/SVG/1.1/DTD/svg11.dtd">
<!-- Generated by graphviz version 2.43.0 (0)
 -->
<!-- Title: ChimeraTK::StatusPushInput Pages: 1 -->
<svg width="1679pt" height="175pt"
 viewBox="0.00 0.00 1679.00 174.50" xmlns="http://www.w3.org/2000/svg" xmlns:xlink="http://www.w3.org/1999/xlink">
<g id="graph0" class="graph" transform="scale(1 1) rotate(0) translate(4 170.5)">
<title>ChimeraTK::StatusPushInput</title>
<polygon fill="white" stroke="transparent" points="-4,4 -4,-170.5 1675,-170.5 1675,4 -4,4"/>
<!-- Node1 -->
<g id="node1" class="node">
<title>Node1</title>
<g id="a_node1"><a xlink:title="Special StatusPushInput which reads from a StatusOutput and also handles the type conversion.">
<polygon fill="#bfbfbf" stroke="black" points="1516,-50.5 1516,-69.5 1671,-69.5 1671,-50.5 1516,-50.5"/>
<text text-anchor="middle" x="1593.5" y="-57.5" font-family="Helvetica,sans-Serif" font-size="10.00">ChimeraTK::StatusPushInput</text>
</a>
</g>
</g>
<!-- Node2 -->
<g id="node2" class="node">
<title>Node2</title>
<g id="a_node2"><a xlink:href="struct_chimera_t_k_1_1_status_accessor.html" target="_top" xlink:title=" ">
<polygon fill="white" stroke="black" points="1306,-45 1306,-75 1479,-75 1479,-45 1306,-45"/>
<text text-anchor="start" x="1314" y="-63" font-family="Helvetica,sans-Serif" font-size="10.00">ChimeraTK::StatusAccessor</text>
<text text-anchor="middle" x="1392.5" y="-52" font-family="Helvetica,sans-Serif" font-size="10.00">&lt; ScalarPushInput&lt; int32_t &gt; &gt;</text>
</a>
</g>
</g>
<!-- Node2&#45;&gt;Node1 -->
<g id="edge1" class="edge">
<title>Node2&#45;&gt;Node1</title>
<path fill="none" stroke="midnightblue" d="M1489.12,-60C1498.07,-60 1507.07,-60 1515.81,-60"/>
<polygon fill="midnightblue" stroke="midnightblue" points="1489.05,-56.5 1479.05,-60 1489.05,-63.5 1489.05,-56.5"/>
</g>
<!-- Node3 -->
<g id="node3" class="node">
<title>Node3</title>
<g id="a_node3"><a xlink:href="struct_chimera_t_k_1_1_scalar_push_input.html" target="_top" xlink:title=" ">
<polygon fill="white" stroke="black" points="1014,-89 1014,-119 1169,-119 1169,-89 1014,-89"/>
<text text-anchor="start" x="1022" y="-107" font-family="Helvetica,sans-Serif" font-size="10.00">ChimeraTK::ScalarPushInput</text>
<text text-anchor="middle" x="1091.5" y="-96" font-family="Helvetica,sans-Serif" font-size="10.00">&lt; int32_t &gt;</text>
</a>
</g>
</g>
<!-- Node3&#45;&gt;Node2 -->
<g id="edge2" class="edge">
<title>Node3&#45;&gt;Node2</title>
<path fill="none" stroke="midnightblue" d="M1179.08,-91.26C1218.94,-85.39 1266.11,-78.45 1305.86,-72.6"/>
<polygon fill="midnightblue" stroke="midnightblue" points="1178.5,-87.81 1169.11,-92.73 1179.51,-94.73 1178.5,-87.81"/>
</g>
<!-- Node4 -->
<g id="node4" class="node">
<title>Node4</title>
<g id="a_node4"><a xlink:href="class_chimera_t_k_1_1_scalar_accessor.html" target="_top" xlink:title="Accessor for scalar variables (i.e.">
<polygon fill="white" stroke="black" points="576,-108 576,-138 726,-138 726,-108 576,-108"/>
<text text-anchor="start" x="584" y="-126" font-family="Helvetica,sans-Serif" font-size="10.00">ChimeraTK::ScalarAccessor</text>
<text text-anchor="middle" x="651" y="-115" font-family="Helvetica,sans-Serif" font-size="10.00">&lt; UserType &gt;</text>
</a>
</g>
</g>
<!-- Node4&#45;&gt;Node3 -->
<g id="edge3" class="edge">
<title>Node4&#45;&gt;Node3</title>
<path fill="none" stroke="midnightblue" d="M736.35,-125.86C738.93,-125.91 741.48,-125.96 744,-126 821.32,-127.26 840.79,-130.44 918,-126 952.84,-124 961.38,-121.38 996,-117 1001.83,-116.26 1007.86,-115.48 1013.93,-114.68"/>
<polygon fill="midnightblue" stroke="midnightblue" points="736.39,-122.36 726.31,-125.63 736.23,-129.36 736.39,-122.36"/>
</g>
<!-- Node8 -->
<g id="node8" class="node">
<title>Node8</title>
<g id="a_node8"><a xlink:href="struct_chimera_t_k_1_1_scalar_push_input.html" target="_top" xlink:title="Convenience class for input scalar accessors with UpdateMode::push.">
<polygon fill="white" stroke="black" points="763,-86 763,-116 918,-116 918,-86 763,-86"/>
<text text-anchor="start" x="771" y="-104" font-family="Helvetica,sans-Serif" font-size="10.00">ChimeraTK::ScalarPushInput</text>
<text text-anchor="middle" x="840.5" y="-93" font-family="Helvetica,sans-Serif" font-size="10.00">&lt; UserType &gt;</text>
</a>
</g>
</g>
<!-- Node4&#45;&gt;Node8 -->
<g id="edge8" class="edge">
<title>Node4&#45;&gt;Node8</title>
<path fill="none" stroke="midnightblue" d="M736.1,-113.13C745.01,-112.09 754.04,-111.03 762.86,-109.99"/>
<polygon fill="midnightblue" stroke="midnightblue" points="735.63,-109.66 726.1,-114.31 736.44,-116.62 735.63,-109.66"/>
</g>
<!-- Node5 -->
<g id="node5" class="node">
<title>Node5</title>
<g id="a_node5"><a xlink:title=" ">
<polygon fill="white" stroke="#bfbfbf" points="381.5,-136 381.5,-166 528.5,-166 528.5,-136 381.5,-136"/>
<text text-anchor="start" x="389.5" y="-154" font-family="Helvetica,sans-Serif" font-size="10.00">ChimeraTK::ScalarRegister</text>
<text text-anchor="middle" x="455" y="-143" font-family="Helvetica,sans-Serif" font-size="10.00">Accessor&lt; UserType &gt;</text>
</a>
</g>
</g>
<!-- Node5&#45;&gt;Node4 -->
<g id="edge4" class="edge">
<title>Node5&#45;&gt;Node4</title>
<path fill="none" stroke="midnightblue" d="M538.42,-139.1C550.89,-137.3 563.68,-135.46 575.96,-133.69"/>
<polygon fill="midnightblue" stroke="midnightblue" points="537.91,-135.64 528.51,-140.53 538.91,-142.57 537.91,-135.64"/>
</g>
<!-- Node6 -->
<g id="node6" class="node">
<title>Node6</title>
<g id="a_node6"><a xlink:href="class_chimera_t_k_1_1_inversion_of_control_accessor.html" target="_top" xlink:title=" ">
<polygon fill="white" stroke="black" points="371,-75.5 371,-116.5 539,-116.5 539,-75.5 371,-75.5"/>
<text text-anchor="start" x="379" y="-104.5" font-family="Helvetica,sans-Serif" font-size="10.00">ChimeraTK::InversionOfControl</text>
<text text-anchor="start" x="379" y="-93.5" font-family="Helvetica,sans-Serif" font-size="10.00">Accessor&lt; ScalarAccessor</text>
<text text-anchor="middle" x="455" y="-82.5" font-family="Helvetica,sans-Serif" font-size="10.00">&lt; UserType &gt; &gt;</text>
</a>
</g>
</g>
<!-- Node6&#45;&gt;Node4 -->
<g id="edge5" class="edge">
<title>Node6&#45;&gt;Node4</title>
<path fill="none" stroke="midnightblue" d="M549.21,-108.97C558.18,-110.22 567.19,-111.47 575.93,-112.69"/>
<polygon fill="midnightblue" stroke="midnightblue" points="549.5,-105.48 539.12,-107.57 548.54,-112.41 549.5,-105.48"/>
</g>
<!-- Node7 -->
<g id="node7" class="node">
<title>Node7</title>
<g id="a_node7"><a xlink:href="class_chimera_t_k_1_1_inversion_of_control_accessor.html" target="_top" xlink:title="Adds features required for inversion of control to an accessor.">
<polygon fill="white" stroke="black" points="0,-81 0,-111 168,-111 168,-81 0,-81"/>
<text text-anchor="start" x="8" y="-99" font-family="Helvetica,sans-Serif" font-size="10.00">ChimeraTK::InversionOfControl</text>
<text text-anchor="middle" x="84" y="-88" font-family="Helvetica,sans-Serif" font-size="10.00">Accessor&lt; Derived &gt;</text>
</a>
</g>
</g>
<!-- Node7&#45;&gt;Node6 -->
<g id="edge6" class="edge">
<title>Node7&#45;&gt;Node6</title>
<path fill="none" stroke="orange" stroke-dasharray="5,2" d="M178.37,-96C237.6,-96 313.54,-96 370.71,-96"/>
<polygon fill="orange" stroke="orange" points="178.27,-92.5 168.27,-96 178.27,-99.5 178.27,-92.5"/>
<text text-anchor="middle" x="269.5" y="-99" font-family="Helvetica,sans-Serif" font-size="10.00"> &lt; ScalarAccessor&lt; UserType &gt; &gt;</text>
</g>
<!-- Node8&#45;&gt;Node3 -->
<g id="edge7" class="edge">
<title>Node8&#45;&gt;Node3</title>
<path fill="none" stroke="orange" stroke-dasharray="5,2" d="M928.33,-102.05C956.08,-102.38 986.59,-102.75 1013.58,-103.07"/>
<polygon fill="orange" stroke="orange" points="928.28,-98.55 918.24,-101.92 928.2,-105.54 928.28,-98.55"/>
<text text-anchor="middle" x="966" y="-105" font-family="Helvetica,sans-Serif" font-size="10.00"> &lt; int32_t &gt;</text>
</g>
<!-- Node9 -->
<g id="node9" class="node">
<title>Node9</title>
<g id="a_node9"><a xlink:title=" ">
<polygon fill="white" stroke="#bfbfbf" points="783,-44.5 783,-63.5 898,-63.5 898,-44.5 783,-44.5"/>
<text text-anchor="middle" x="840.5" y="-51.5" font-family="Helvetica,sans-Serif" font-size="10.00">StatusAccessorBase</text>
</a>
</g>
</g>
<!-- Node9&#45;&gt;Node2 -->
<g id="edge9" class="edge">
<title>Node9&#45;&gt;Node2</title>
<path fill="none" stroke="midnightblue" d="M908.29,-54.73C1008.06,-55.82 1196.02,-57.87 1305.8,-59.07"/>
<polygon fill="midnightblue" stroke="midnightblue" points="908.07,-51.23 898.03,-54.62 907.99,-58.23 908.07,-51.23"/>
</g>
<!-- Node10 -->
<g id="node10" class="node">
<title>Node10</title>
<g id="a_node10"><a xlink:href="struct_chimera_t_k_1_1_status_accessor.html" target="_top" xlink:title="Special StatusAccessor &#45; used to avoid code duplication in StatusOutput, StatusPushInput and StatusPo...">
<polygon fill="white" stroke="black" points="1016,-1 1016,-31 1167,-31 1167,-1 1016,-1"/>
<text text-anchor="start" x="1024" y="-19" font-family="Helvetica,sans-Serif" font-size="10.00">ChimeraTK::StatusAccessor</text>
<text text-anchor="middle" x="1091.5" y="-8" font-family="Helvetica,sans-Serif" font-size="10.00">&lt; ACCESSOR &gt;</text>
</a>
</g>
</g>
<!-- Node9&#45;&gt;Node10 -->
<g id="edge12" class="edge">
<title>Node9&#45;&gt;Node10</title>
<path fill="none" stroke="midnightblue" d="M908.06,-43.84C941.27,-38.77 981.54,-32.63 1015.8,-27.4"/>
<polygon fill="midnightblue" stroke="midnightblue" points="907.36,-40.41 898,-45.38 908.42,-47.33 907.36,-40.41"/>
</g>
<!-- Node10&#45;&gt;Node2 -->
<g id="edge10" class="edge">
<title>Node10&#45;&gt;Node2</title>
<path fill="none" stroke="orange" stroke-dasharray="5,2" d="M1177.42,-14.07C1211.98,-14.68 1252.16,-17.19 1288,-24 1311.36,-28.44 1336.59,-37.13 1356.28,-44.86"/>
<polygon fill="orange" stroke="orange" points="1177.4,-10.57 1167.35,-13.94 1177.31,-17.57 1177.4,-10.57"/>
<text text-anchor="start" x="1187" y="-38" font-family="Helvetica,sans-Serif" font-size="10.00"> &lt; ScalarPushInput&lt;</text>
<text text-anchor="middle" x="1237.5" y="-27" font-family="Helvetica,sans-Serif" font-size="10.00"> int32_t &gt; &gt;</text>
</g>
<!-- Node11 -->
<g id="node11" class="node">
<title>Node11</title>
<g id="a_node11"><a xlink:title=" ">
<polygon fill="white" stroke="#bfbfbf" points="806,-0.5 806,-19.5 875,-19.5 875,-0.5 806,-0.5"/>
<text text-anchor="middle" x="840.5" y="-7.5" font-family="Helvetica,sans-Serif" font-size="10.00">ACCESSOR</text>
</a>
</g>
</g>
<!-- Node11&#45;&gt;Node10 -->
<g id="edge11" class="edge">
<title>Node11&#45;&gt;Node10</title>
<path fill="none" stroke="midnightblue" d="M885.27,-11.05C921.34,-11.92 973.29,-13.18 1015.9,-14.2"/>
<polygon fill="midnightblue" stroke="midnightblue" points="885.16,-7.55 875.08,-10.81 884.99,-14.55 885.16,-7.55"/>
</g>
</g>
</svg>
