<?xml version="1.0" encoding="UTF-8" standalone="no"?>
<!DOCTYPE svg PUBLIC "-//W3C//DTD SVG 1.1//EN"
 "http://www.w3.org/Graphics/SVG/1.1/DTD/svg11.dtd">
<!-- Generated by graphviz version 2.43.0 (0)
 -->
<!-- Title: ChimeraTK::InvalidityTracer::mainLoop Pages: 1 -->
<!--zoomable 205 -->
<svg id="main" version="1.1" xmlns="http://www.w3.org/2000/svg" xmlns:xlink="http://www.w3.org/1999/xlink" xml:space="preserve" onload="init(evt)">
<style type="text/css"><![CDATA[
.edge:hover path { stroke: red; }
.edge:hover polygon { stroke: red; fill: red; }
]]></style>
<script type="text/javascript"><![CDATA[
var edges = document.getElementsByTagName('g');
if (edges && edges.length) {
  for (var i=0;i<edges.length;i++) {
    if (edges[i].id.substr(0,4)=='edge') {
      edges[i].setAttribute('class','edge');
    }
  }
}
]]></script>
        <defs>
                <circle id="rim" cx="0" cy="0" r="7"/>
                <circle id="rim2" cx="0" cy="0" r="3.5"/>
                <g id="zoomPlus">
                        <use xlink:href="#rim" fill="#404040">
                                <set attributeName="fill" to="#808080" begin="zoomplus.mouseover" end="zoomplus.mouseout"/>
                        </use>
                        <path d="M-4,0h8M0,-4v8" fill="none" stroke="white" stroke-width="1.5" pointer-events="none"/>
                </g>
                <g id="zoomMin">
                        <use xlink:href="#rim" fill="#404040">
                                <set attributeName="fill" to="#808080" begin="zoomminus.mouseover" end="zoomminus.mouseout"/>
                        </use>
                        <path d="M-4,0h8" fill="none" stroke="white" stroke-width="1.5" pointer-events="none"/>
                </g>
                <g id="dirArrow">
                        <path fill="none" stroke="white" stroke-width="1.5" d="M0,-3.0v7 M-2.5,-0.5L0,-3.0L2.5,-0.5"/>
                </g>
               <g id="resetDef">
                       <use xlink:href="#rim2" fill="#404040">
                               <set attributeName="fill" to="#808080" begin="reset.mouseover" end="reset.mouseout"/>
                       </use>
               </g>
        </defs>

<script type="text/javascript">
var viewWidth = 718;
var viewHeight = 205;
var sectionId = 'dynsection-2';
</script>
<script xlink:href="svgpan.js"/>
<svg id="graph" class="graph">
<g id="viewport">
<title>ChimeraTK::InvalidityTracer::mainLoop</title>
<polygon fill="white" stroke="transparent" points="-4,4 -4,-201 714,-201 714,4 -4,4"/>
<!-- Node1 -->
<g id="node1" class="node">
<title>Node1</title>
<g id="a_node1"><a xlink:title="To be implemented by the user: function called in a separate thread executing the main loop of the mo...">
<polygon fill="#bfbfbf" stroke="black" points="0,-117.5 0,-147.5 152,-147.5 152,-117.5 0,-117.5"/>
<text text-anchor="start" x="8" y="-135.5" font-family="Helvetica,sans-Serif" font-size="10.00">ChimeraTK::InvalidityTracer</text>
<text text-anchor="middle" x="76" y="-124.5" font-family="Helvetica,sans-Serif" font-size="10.00">::mainLoop</text>
</a>
</g>
</g>
<!-- Node2 -->
<g id="node2" class="node">
<title>Node2</title>
<g id="a_node2"><a xlink:href="class_chimera_t_k_1_1_application.html#aa3c1c63e078d14fb104431a15951a070" target="_top" xlink:title="Obtain instance of the application.">
<polygon fill="white" stroke="black" points="206,-166.5 206,-196.5 337,-196.5 337,-166.5 206,-166.5"/>
<text text-anchor="start" x="214" y="-184.5" font-family="Helvetica,sans-Serif" font-size="10.00">ChimeraTK::Application</text>
<text text-anchor="middle" x="271.5" y="-173.5" font-family="Helvetica,sans-Serif" font-size="10.00">::getInstance</text>
</a>
</g>
</g>
<!-- Node1&#45;&gt;Node2 -->
<g id="edge1" class="edge">
<title>Node1&#45;&gt;Node2</title>
<path fill="none" stroke="midnightblue" d="M136.37,-147.53C156.9,-152.73 180.07,-158.6 201.31,-163.98"/>
<polygon fill="midnightblue" stroke="midnightblue" points="200.69,-167.43 211.24,-166.49 202.41,-160.65 200.69,-167.43"/>
</g>
<!-- Node3 -->
<g id="node3" class="node">
<title>Node3</title>
<g id="a_node3"><a xlink:href="class_chimera_t_k_1_1_entity_owner.html#a01f4d19a8090e46f70e71758f3e5eaf8" target="_top" xlink:title="Obtain the list of submodules associated with this instance and any submodules.">
<polygon fill="white" stroke="black" points="192.5,-117.5 192.5,-147.5 350.5,-147.5 350.5,-117.5 192.5,-117.5"/>
<text text-anchor="start" x="200.5" y="-135.5" font-family="Helvetica,sans-Serif" font-size="10.00">ChimeraTK::EntityOwner</text>
<text text-anchor="middle" x="271.5" y="-124.5" font-family="Helvetica,sans-Serif" font-size="10.00">::getSubmoduleListRecursive</text>
</a>
</g>
</g>
<!-- Node1&#45;&gt;Node3 -->
<g id="edge2" class="edge">
<title>Node1&#45;&gt;Node3</title>
<path fill="none" stroke="midnightblue" d="M152.09,-132.5C161.97,-132.5 172.17,-132.5 182.24,-132.5"/>
<polygon fill="midnightblue" stroke="midnightblue" points="182.26,-136 192.26,-132.5 182.26,-129 182.26,-136"/>
</g>
<!-- Node5 -->
<g id="node5" class="node">
<title>Node5</title>
<g id="a_node5"><a xlink:href="class_chimera_t_k_1_1_application_module.html#a8db8d8b0dd0413b48acb928552381336" target="_top" xlink:title="Convenicene function to obtain a logger stream with the given Severity.">
<polygon fill="white" stroke="black" points="188,-68.5 188,-98.5 355,-98.5 355,-68.5 188,-68.5"/>
<text text-anchor="start" x="196" y="-86.5" font-family="Helvetica,sans-Serif" font-size="10.00">ChimeraTK::ApplicationModule</text>
<text text-anchor="middle" x="271.5" y="-75.5" font-family="Helvetica,sans-Serif" font-size="10.00">::logger</text>
</a>
</g>
</g>
<!-- Node1&#45;&gt;Node5 -->
<g id="edge4" class="edge">
<title>Node1&#45;&gt;Node5</title>
<path fill="none" stroke="midnightblue" d="M136.37,-117.47C156.9,-112.27 180.07,-106.4 201.31,-101.02"/>
<polygon fill="midnightblue" stroke="midnightblue" points="202.41,-104.35 211.24,-98.51 200.69,-97.57 202.41,-104.35"/>
</g>
<!-- Node4 -->
<g id="node4" class="node">
<title>Node4</title>
<g id="a_node4"><a xlink:href="class_chimera_t_k_1_1_entity_owner.html#af1809c78bbe963d86e764a0150d6551d" target="_top" xlink:title="Obtain the list of submodules associated with this instance.">
<polygon fill="white" stroke="black" points="406,-117.5 406,-147.5 543,-147.5 543,-117.5 406,-117.5"/>
<text text-anchor="start" x="414" y="-135.5" font-family="Helvetica,sans-Serif" font-size="10.00">ChimeraTK::EntityOwner</text>
<text text-anchor="middle" x="474.5" y="-124.5" font-family="Helvetica,sans-Serif" font-size="10.00">::getSubmoduleList</text>
</a>
</g>
</g>
<!-- Node3&#45;&gt;Node4 -->
<g id="edge3" class="edge">
<title>Node3&#45;&gt;Node4</title>
<path fill="none" stroke="midnightblue" d="M350.79,-132.5C365.57,-132.5 381.02,-132.5 395.78,-132.5"/>
<polygon fill="midnightblue" stroke="midnightblue" points="395.87,-136 405.87,-132.5 395.87,-129 395.87,-136"/>
</g>
<!-- Node6 -->
<g id="node6" class="node">
<title>Node6</title>
<g id="a_node6"><a xlink:href="class_chimera_t_k_1_1_application_module.html#a4d673897bd261761d9b3c5be546c4b98" target="_top" xlink:title="Name of the module class, used for logging and debugging purposes.">
<polygon fill="white" stroke="black" points="391,-68.5 391,-98.5 558,-98.5 558,-68.5 391,-68.5"/>
<text text-anchor="start" x="399" y="-86.5" font-family="Helvetica,sans-Serif" font-size="10.00">ChimeraTK::ApplicationModule</text>
<text text-anchor="middle" x="474.5" y="-75.5" font-family="Helvetica,sans-Serif" font-size="10.00">::className</text>
</a>
</g>
</g>
<!-- Node5&#45;&gt;Node6 -->
<g id="edge5" class="edge">
<title>Node5&#45;&gt;Node6</title>
<path fill="none" stroke="midnightblue" d="M355.12,-83.5C363.61,-83.5 372.27,-83.5 380.85,-83.5"/>
<polygon fill="midnightblue" stroke="midnightblue" points="380.87,-87 390.87,-83.5 380.87,-80 380.87,-87"/>
</g>
<!-- Node7 -->
<g id="node7" class="node">
<title>Node7</title>
<g id="a_node7"><a xlink:href="namespace_chimera_t_k.html#afd1ff17ff1ee9c50c855b99af5b0c580" target="_top" xlink:title="Convenience function to obtain the logger stream.">
<polygon fill="white" stroke="black" points="421,-30 421,-49 528,-49 528,-30 421,-30"/>
<text text-anchor="middle" x="474.5" y="-37" font-family="Helvetica,sans-Serif" font-size="10.00">ChimeraTK::logger</text>
</a>
</g>
</g>
<!-- Node5&#45;&gt;Node7 -->
<g id="edge6" class="edge">
<title>Node5&#45;&gt;Node7</title>
<path fill="none" stroke="midnightblue" d="M341.11,-68.48C366.88,-62.84 395.78,-56.51 419.98,-51.22"/>
<polygon fill="midnightblue" stroke="midnightblue" points="421.03,-54.57 430.05,-49.01 419.53,-47.73 421.03,-54.57"/>
</g>
<!-- Node8 -->
<g id="node8" class="node">
<title>Node8</title>
<g id="a_node8"><a xlink:href="class_chimera_t_k_1_1_logger.html#acbeb8e7b69c0d862cc7308863806b49e" target="_top" xlink:title="Obtain global instance of Logger singleton.">
<polygon fill="white" stroke="black" points="594,-49.5 594,-79.5 710,-79.5 710,-49.5 594,-49.5"/>
<text text-anchor="start" x="602" y="-67.5" font-family="Helvetica,sans-Serif" font-size="10.00">ChimeraTK::Logger::</text>
<text text-anchor="middle" x="652" y="-56.5" font-family="Helvetica,sans-Serif" font-size="10.00">getInstance</text>
</a>
</g>
</g>
<!-- Node7&#45;&gt;Node8 -->
<g id="edge7" class="edge">
<title>Node7&#45;&gt;Node8</title>
<path fill="none" stroke="midnightblue" d="M528.16,-47C545.62,-49.49 565.3,-52.29 583.72,-54.92"/>
<polygon fill="midnightblue" stroke="midnightblue" points="583.4,-58.41 593.79,-56.35 584.38,-51.48 583.4,-58.41"/>
</g>
<!-- Node9 -->
<g id="node9" class="node">
<title>Node9</title>
<g id="a_node9"><a xlink:href="class_chimera_t_k_1_1_logger.html#aa9336a82c056a0cb1b7de8d05264531f" target="_top" xlink:title="Return an output stream object for the given severity.">
<polygon fill="white" stroke="black" points="594,-0.5 594,-30.5 710,-30.5 710,-0.5 594,-0.5"/>
<text text-anchor="start" x="602" y="-18.5" font-family="Helvetica,sans-Serif" font-size="10.00">ChimeraTK::Logger::</text>
<text text-anchor="middle" x="652" y="-7.5" font-family="Helvetica,sans-Serif" font-size="10.00">getStream</text>
</a>
</g>
</g>
<!-- Node7&#45;&gt;Node9 -->
<g id="edge8" class="edge">
<title>Node7&#45;&gt;Node9</title>
<path fill="none" stroke="midnightblue" d="M528.16,-32.3C545.62,-29.91 565.3,-27.22 583.72,-24.7"/>
<polygon fill="midnightblue" stroke="midnightblue" points="584.36,-28.15 593.79,-23.32 583.41,-21.21 584.36,-28.15"/>
</g>
</g>
</svg>
        <g id="navigator" transform="translate(0 0)" fill="#404254">
                <rect fill="#f2f5e9" fill-opacity="0.5" stroke="#606060" stroke-width=".5" x="0" y="0" width="60" height="60"/>
                <use id="zoomplus" xlink:href="#zoomPlus" x="17" y="9" onmousedown="handleZoom(evt,'in')"/>
                <use id="zoomminus" xlink:href="#zoomMin" x="42" y="9" onmousedown="handleZoom(evt,'out')"/>
                <use id="reset" xlink:href="#resetDef" x="30" y="36" onmousedown="handleReset()"/>
                <g id="arrowUp" xlink:href="#dirArrow" transform="translate(30 24)" onmousedown="handlePan(0,-1)">
                  <use xlink:href="#rim" fill="#404040">
                        <set attributeName="fill" to="#808080" begin="arrowUp.mouseover" end="arrowUp.mouseout"/>
                  </use>
                  <path fill="none" stroke="white" stroke-width="1.5" d="M0,-3.0v7 M-2.5,-0.5L0,-3.0L2.5,-0.5"/>
                </g>
                <g id="arrowRight" xlink:href="#dirArrow" transform="rotate(90) translate(36 -43)" onmousedown="handlePan(1,0)">
                  <use xlink:href="#rim" fill="#404040">
                        <set attributeName="fill" to="#808080" begin="arrowRight.mouseover" end="arrowRight.mouseout"/>
                  </use>
                  <path fill="none" stroke="white" stroke-width="1.5" d="M0,-3.0v7 M-2.5,-0.5L0,-3.0L2.5,-0.5"/>
                </g>
                <g id="arrowDown" xlink:href="#dirArrow" transform="rotate(180) translate(-30 -48)" onmousedown="handlePan(0,1)">
                  <use xlink:href="#rim" fill="#404040">
                        <set attributeName="fill" to="#808080" begin="arrowDown.mouseover" end="arrowDown.mouseout"/>
                  </use>
                  <path fill="none" stroke="white" stroke-width="1.5" d="M0,-3.0v7 M-2.5,-0.5L0,-3.0L2.5,-0.5"/>
                </g>
                <g id="arrowLeft" xlink:href="#dirArrow" transform="rotate(270) translate(-36 17)" onmousedown="handlePan(-1,0)">
                  <use xlink:href="#rim" fill="#404040">
                        <set attributeName="fill" to="#808080" begin="arrowLeft.mouseover" end="arrowLeft.mouseout"/>
                  </use>
                  <path fill="none" stroke="white" stroke-width="1.5" d="M0,-3.0v7 M-2.5,-0.5L0,-3.0L2.5,-0.5"/>
                </g>
        </g>
        <svg viewBox="0 0 15 15" width="100%" height="30px" preserveAspectRatio="xMaxYMin meet">
         <g id="arrow_out" transform="scale(0.3 0.3)">
          <a xlink:href="struct_chimera_t_k_1_1_invalidity_tracer_a31d99d899f85433542e42d4f1e548285_cgraph_org.svg" target="_base">
           <rect id="button" ry="5" rx="5" y="6" x="6" height="38" width="38"
                fill="#f2f5e9" fill-opacity="0.5" stroke="#606060" stroke-width="1.0"/>
           <path id="arrow"
             d="M 11.500037,31.436501 C 11.940474,20.09759 22.043105,11.32322 32.158766,21.979434 L 37.068811,17.246167 C 37.068811,17.246167 37.088388,32 37.088388,32 L 22.160133,31.978069 C 22.160133,31.978069 26.997745,27.140456 26.997745,27.140456 C 18.528582,18.264221 13.291696,25.230495 11.500037,31.436501 z"
             style="fill:#404040;"/>
          </a>
         </g>
        </svg>
</svg>
