<?xml version="1.0" encoding="UTF-8" standalone="no"?>
<!DOCTYPE svg PUBLIC "-//W3C//DTD SVG 1.1//EN"
 "http://www.w3.org/Graphics/SVG/1.1/DTD/svg11.dtd">
<!-- Generated by graphviz version 2.40.1 (20161225.0304)
 -->
<!-- Title: Server Pages: 1 -->
<svg width="258pt" height="140pt"
 viewBox="0.00 0.00 258.00 140.00" xmlns="http://www.w3.org/2000/svg" xmlns:xlink="http://www.w3.org/1999/xlink">
<g id="graph0" class="graph" transform="scale(1 1) rotate(0) translate(4 136)">
<title>Server</title>
<polygon fill="#ffffff" stroke="transparent" points="-4,4 -4,-136 254,-136 254,4 -4,4"/>
<!-- Node0 -->
<g id="node1" class="node">
<title>Node0</title>
<polygon fill="#bfbfbf" stroke="#000000" points="90.5,-.5 90.5,-19.5 138.5,-19.5 138.5,-.5 90.5,-.5"/>
<text text-anchor="middle" x="114.5" y="-7.5" font-family="Helvetica,sans-Serif" font-size="10.00" fill="#000000">Server</text>
</g>
<!-- Node1 -->
<g id="node2" class="node">
<title>Node1</title>
<g id="a_node2"><a xlink:href="class_chimera_t_k_1_1_application.html" target="_top" xlink:title="ChimeraTK::Application">
<polygon fill="#ffffff" stroke="#000000" points="49,-56.5 49,-75.5 180,-75.5 180,-56.5 49,-56.5"/>
<text text-anchor="middle" x="114.5" y="-63.5" font-family="Helvetica,sans-Serif" font-size="10.00" fill="#000000">ChimeraTK::Application</text>
</a>
</g>
</g>
<!-- Node1&#45;&gt;Node0 -->
<g id="edge1" class="edge">
<title>Node1&#45;&gt;Node0</title>
<path fill="none" stroke="#191970" d="M114.5,-46.1575C114.5,-37.155 114.5,-26.9199 114.5,-19.6427"/>
<polygon fill="#191970" stroke="#191970" points="111.0001,-46.2455 114.5,-56.2455 118.0001,-46.2456 111.0001,-46.2455"/>
</g>
<!-- Node2 -->
<g id="node3" class="node">
<title>Node2</title>
<polygon fill="#ffffff" stroke="#bfbfbf" points="0,-112.5 0,-131.5 95,-131.5 95,-112.5 0,-112.5"/>
<text text-anchor="middle" x="47.5" y="-119.5" font-family="Helvetica,sans-Serif" font-size="10.00" fill="#000000">ApplicationBase</text>
</g>
<!-- Node2&#45;&gt;Node1 -->
<g id="edge2" class="edge">
<title>Node2&#45;&gt;Node1</title>
<path fill="none" stroke="#191970" d="M67.0676,-105.645C78.7198,-95.9058 93.1084,-83.8795 102.9632,-75.6427"/>
<polygon fill="#191970" stroke="#191970" points="64.5988,-103.1469 59.1705,-112.2455 69.0879,-108.5179 64.5988,-103.1469"/>
</g>
<!-- Node3 -->
<g id="node4" class="node">
<title>Node3</title>
<g id="a_node4"><a xlink:href="class_chimera_t_k_1_1_entity_owner.html" target="_top" xlink:title="Base class for owners of other EntityOwners (e.g. ">
<polygon fill="#ffffff" stroke="#000000" points="113,-112.5 113,-131.5 250,-131.5 250,-112.5 113,-112.5"/>
<text text-anchor="middle" x="181.5" y="-119.5" font-family="Helvetica,sans-Serif" font-size="10.00" fill="#000000">ChimeraTK::EntityOwner</text>
</a>
</g>
</g>
<!-- Node3&#45;&gt;Node1 -->
<g id="edge3" class="edge">
<title>Node3&#45;&gt;Node1</title>
<path fill="none" stroke="#191970" d="M161.9324,-105.645C150.2802,-95.9058 135.8916,-83.8795 126.0368,-75.6427"/>
<polygon fill="#191970" stroke="#191970" points="159.9121,-108.5179 169.8295,-112.2455 164.4012,-103.1469 159.9121,-108.5179"/>
</g>
</g>
</svg>
