<?xml version="1.0" encoding="UTF-8" standalone="no"?>
<!DOCTYPE svg PUBLIC "-//W3C//DTD SVG 1.1//EN"
 "http://www.w3.org/Graphics/SVG/1.1/DTD/svg11.dtd">
<!-- Generated by graphviz version 2.40.1 (20161225.0304)
 -->
<!-- Title: PreferencesProvider::getValue Pages: 1 -->
<svg width="1536pt" height="394pt"
 viewBox="0.00 0.00 1536.00 393.68" xmlns="http://www.w3.org/2000/svg" xmlns:xlink="http://www.w3.org/1999/xlink">
<g id="graph0" class="graph" transform="scale(1 1) rotate(0) translate(4 389.6758)">
<title>PreferencesProvider::getValue</title>
<polygon fill="#ffffff" stroke="transparent" points="-4,4 -4,-389.6758 1532,-389.6758 1532,4 -4,4"/>
<!-- Node22 -->
<g id="node1" class="node">
<title>Node22</title>
<polygon fill="#bfbfbf" stroke="#000000" points="0,-166 0,-196 115,-196 115,-166 0,-166"/>
<text text-anchor="start" x="8" y="-184" font-family="Helvetica,sans-Serif" font-size="10.00" fill="#000000">PreferencesProvider</text>
<text text-anchor="middle" x="57.5" y="-173" font-family="Helvetica,sans-Serif" font-size="10.00" fill="#000000">::getValue</text>
</g>
<!-- Node23 -->
<g id="node2" class="node">
<title>Node23</title>
<g id="a_node2"><a xlink:href="class_plot_window.html#a49dc7f1337911faf93070c7884e5de6d" target="_top" xlink:title="Slot which performs the actual plotting. ">
<polygon fill="#ffffff" stroke="#000000" points="173.5,-190.5 173.5,-209.5 271.5,-209.5 271.5,-190.5 173.5,-190.5"/>
<text text-anchor="middle" x="222.5" y="-197.5" font-family="Helvetica,sans-Serif" font-size="10.00" fill="#000000">PlotWindow::plot</text>
</a>
</g>
</g>
<!-- Node22&#45;&gt;Node23 -->
<g id="edge1" class="edge">
<title>Node22&#45;&gt;Node23</title>
<path fill="none" stroke="#191970" d="M125.5888,-188.8405C141.5876,-190.6828 158.3327,-192.611 173.3158,-194.3364"/>
<polygon fill="#191970" stroke="#191970" points="125.5438,-185.3123 115.209,-187.6453 124.7429,-192.2663 125.5438,-185.3123"/>
</g>
<!-- Node27 -->
<g id="node6" class="node">
<title>Node27</title>
<g id="a_node6"><a xlink:href="class_qt_hard_mon.html#a5da296206e6ab06385c7c2c58cb73e2b" target="_top" xlink:title="Close the device and disable the access buttons. ">
<polygon fill="#ffffff" stroke="#000000" points="513.5,-246.5 513.5,-265.5 650.5,-265.5 650.5,-246.5 513.5,-246.5"/>
<text text-anchor="middle" x="582" y="-253.5" font-family="Helvetica,sans-Serif" font-size="10.00" fill="#000000">QtHardMon::closeDevice</text>
</a>
</g>
</g>
<!-- Node22&#45;&gt;Node27 -->
<g id="edge29" class="edge">
<title>Node22&#45;&gt;Node27</title>
<path fill="none" stroke="#191970" d="M100.2005,-200.2093C115.9468,-206.7967 134.0755,-213.809 151,-219 228.7534,-242.8481 249.116,-248.5092 330,-257 390.5561,-263.3569 406.1117,-257.2647 467,-257 481.9744,-256.9349 498.0452,-256.8221 513.2849,-256.6952"/>
<polygon fill="#191970" stroke="#191970" points="101.3082,-196.877 90.7361,-196.1826 98.5677,-203.3182 101.3082,-196.877"/>
</g>
<!-- Node30 -->
<g id="node9" class="node">
<title>Node30</title>
<g id="a_node9"><a xlink:href="class_qt_hard_mon.html#a418bf9611a809431037ed30409d9172a" target="_top" xlink:title="The function which actually performs the loading of the config file. ">
<polygon fill="#ffffff" stroke="#000000" points="1078.5,-66.5 1078.5,-85.5 1207.5,-85.5 1207.5,-66.5 1078.5,-66.5"/>
<text text-anchor="middle" x="1143" y="-73.5" font-family="Helvetica,sans-Serif" font-size="10.00" fill="#000000">QtHardMon::loadConfig</text>
</a>
</g>
</g>
<!-- Node22&#45;&gt;Node30 -->
<g id="edge31" class="edge">
<title>Node22&#45;&gt;Node30</title>
<path fill="none" stroke="#191970" d="M75.3777,-157.8624C92.4973,-137.4293 120.2176,-108.5389 151,-93 250.8077,-42.6172 286.6966,-48 398.5,-48 398.5,-48 398.5,-48 772.5,-48 879.9031,-48 1004.3227,-59.8442 1078.1917,-68.1259"/>
<polygon fill="#191970" stroke="#191970" points="72.5359,-155.809 68.925,-165.7695 77.9593,-160.2348 72.5359,-155.809"/>
</g>
<!-- Node31 -->
<g id="node10" class="node">
<title>Node31</title>
<g id="a_node10"><a xlink:href="class_qt_hard_mon.html#a3c604ea8f93615e8856e97e4ebe70e3f" target="_top" xlink:title="Read register to device. ">
<polygon fill="#ffffff" stroke="#000000" points="1258,-228.5 1258,-247.5 1360,-247.5 1360,-228.5 1258,-228.5"/>
<text text-anchor="middle" x="1309" y="-235.5" font-family="Helvetica,sans-Serif" font-size="10.00" fill="#000000">QtHardMon::write</text>
</a>
</g>
</g>
<!-- Node22&#45;&gt;Node31 -->
<g id="edge30" class="edge">
<title>Node22&#45;&gt;Node31</title>
<path fill="none" stroke="#191970" d="M74.5118,-204.368C91.6981,-226.5876 120.0699,-259.6932 151,-281 248.8391,-348.3982 279.6934,-382 398.5,-382 398.5,-382 398.5,-382 956,-382 1075.4861,-382 1117.8493,-401.5625 1222,-343 1263.2704,-319.7942 1293.1564,-268.7606 1304.2567,-247.5438"/>
<polygon fill="#191970" stroke="#191970" points="77.11,-202.0018 68.2791,-196.1481 71.5321,-206.2311 77.11,-202.0018"/>
</g>
<!-- Node35 -->
<g id="node14" class="node">
<title>Node35</title>
<g id="a_node14"><a xlink:href="class_qt_hard_mon_1_1_device_list_item.html#a1aa9ba3a42ba529e85cc8e39d9f95b5f" target="_top" xlink:title="Returns a reference to the deviceMapElement, i.e. ">
<polygon fill="#ffffff" stroke="#000000" points="697,-153 697,-183 848,-183 848,-153 697,-153"/>
<text text-anchor="start" x="705" y="-171" font-family="Helvetica,sans-Serif" font-size="10.00" fill="#000000">QtHardMon::DeviceListItem</text>
<text text-anchor="middle" x="772.5" y="-160" font-family="Helvetica,sans-Serif" font-size="10.00" fill="#000000">::getDeviceMapElement</text>
</a>
</g>
</g>
<!-- Node22&#45;&gt;Node35 -->
<g id="edge33" class="edge">
<title>Node22&#45;&gt;Node35</title>
<path fill="none" stroke="#191970" d="M125.2268,-179.7686C259.0853,-177.3348 556.6606,-171.9244 696.7717,-169.3769"/>
<polygon fill="#191970" stroke="#191970" points="125.0387,-176.2713 115.104,-179.9527 125.166,-183.2702 125.0387,-176.2713"/>
</g>
<!-- Node36 -->
<g id="node15" class="node">
<title>Node36</title>
<g id="a_node15"><a xlink:href="class_qt_hard_mon.html#a81efa5e61c35f932af1026528047e2e3" target="_top" xlink:title="Write the config to the given file name. ">
<polygon fill="#ffffff" stroke="#000000" points="889.5,-78.5 889.5,-97.5 1022.5,-97.5 1022.5,-78.5 889.5,-78.5"/>
<text text-anchor="middle" x="956" y="-85.5" font-family="Helvetica,sans-Serif" font-size="10.00" fill="#000000">QtHardMon::writeConfig</text>
</a>
</g>
</g>
<!-- Node22&#45;&gt;Node36 -->
<g id="edge32" class="edge">
<title>Node22&#45;&gt;Node36</title>
<path fill="none" stroke="#191970" d="M98.3138,-161.8437C161.279,-134.0949 286.5585,-86 398.5,-86 398.5,-86 398.5,-86 582,-86 689.6239,-86 814.6662,-86.8384 889.4549,-87.4296"/>
<polygon fill="#191970" stroke="#191970" points="96.8252,-158.6752 89.1198,-165.947 99.6781,-165.0675 96.8252,-158.6752"/>
</g>
<!-- Node37 -->
<g id="node16" class="node">
<title>Node37</title>
<g id="a_node16"><a xlink:href="class_qt_hard_mon.html#a6bebae0b642d5aab09fc9b20deddef15" target="_top" xlink:title="QtHardMon::extractFileName\lFromPath">
<polygon fill="#ffffff" stroke="#000000" points="503,-285 503,-315 661,-315 661,-285 503,-285"/>
<text text-anchor="start" x="511" y="-303" font-family="Helvetica,sans-Serif" font-size="10.00" fill="#000000">QtHardMon::extractFileName</text>
<text text-anchor="middle" x="582" y="-292" font-family="Helvetica,sans-Serif" font-size="10.00" fill="#000000">FromPath</text>
</a>
</g>
</g>
<!-- Node22&#45;&gt;Node37 -->
<g id="edge34" class="edge">
<title>Node22&#45;&gt;Node37</title>
<path fill="none" stroke="#191970" d="M80.4469,-202.8264C98.2469,-218.3996 124.3109,-238.3928 151,-249 267.2349,-295.1959 413.9507,-302.9255 502.7441,-302.6508"/>
<polygon fill="#191970" stroke="#191970" points="82.6571,-200.1071 72.8775,-196.0317 77.9811,-205.3163 82.6571,-200.1071"/>
</g>
<!-- Node38 -->
<g id="node17" class="node">
<title>Node38</title>
<g id="a_node17"><a xlink:href="test___qt_hard_mon_8cpp.html#ad3e5310fd79d063125f1c1e9a57bfe71" target="_top" xlink:title="BOOST_AUTO_TEST_CASE">
<polygon fill="#ffffff" stroke="#000000" points="151,-.5 151,-19.5 294,-19.5 294,-.5 151,-.5"/>
<text text-anchor="middle" x="222.5" y="-7.5" font-family="Helvetica,sans-Serif" font-size="10.00" fill="#000000">BOOST_AUTO_TEST_CASE</text>
</a>
</g>
</g>
<!-- Node22&#45;&gt;Node38 -->
<g id="edge36" class="edge">
<title>Node22&#45;&gt;Node38</title>
<path fill="none" stroke="#191970" d="M66.9483,-156.4136C80.6671,-123.8641 109.1243,-66.7737 151,-34 159.0428,-27.7054 168.8222,-23.0185 178.5333,-19.544"/>
<polygon fill="#191970" stroke="#191970" points="63.7073,-155.0923 63.1654,-165.6732 70.1874,-157.7397 63.7073,-155.0923"/>
</g>
<!-- Node24 -->
<g id="node3" class="node">
<title>Node24</title>
<g id="a_node3"><a xlink:href="class_plot_window.html#a30a8de1065440ec35e570ee1442a41e4" target="_top" xlink:title="The constructor. ">
<polygon fill="#ffffff" stroke="#000000" points="330,-228.5 330,-247.5 467,-247.5 467,-228.5 330,-228.5"/>
<text text-anchor="middle" x="398.5" y="-235.5" font-family="Helvetica,sans-Serif" font-size="10.00" fill="#000000">PlotWindow::PlotWindow</text>
</a>
</g>
</g>
<!-- Node23&#45;&gt;Node24 -->
<g id="edge2" class="edge">
<title>Node23&#45;&gt;Node24</title>
<path fill="none" stroke="#191970" d="M276.933,-211.7526C301.8194,-217.1258 330.9188,-223.4086 354.4071,-228.4799"/>
<polygon fill="#191970" stroke="#191970" points="277.4257,-208.2784 266.9122,-209.589 275.9483,-215.1207 277.4257,-208.2784"/>
</g>
<!-- Node25 -->
<g id="node4" class="node">
<title>Node25</title>
<g id="a_node4"><a xlink:href="class_qt_hard_mon.html#aed608f4dce895ce59714cbf4b27609e3" target="_top" xlink:title="Read register from device. ">
<polygon fill="#ffffff" stroke="#000000" points="349,-190.5 349,-209.5 448,-209.5 448,-190.5 349,-190.5"/>
<text text-anchor="middle" x="398.5" y="-197.5" font-family="Helvetica,sans-Serif" font-size="10.00" fill="#000000">QtHardMon::read</text>
</a>
</g>
</g>
<!-- Node23&#45;&gt;Node25 -->
<g id="edge3" class="edge">
<title>Node23&#45;&gt;Node25</title>
<path fill="none" stroke="#191970" d="M281.6624,-200C303.4705,-200 327.935,-200 348.8207,-200"/>
<polygon fill="#191970" stroke="#191970" points="281.5258,-196.5001 271.5258,-200 281.5258,-203.5001 281.5258,-196.5001"/>
</g>
<!-- Node23&#45;&gt;Node36 -->
<g id="edge28" class="edge">
<title>Node23&#45;&gt;Node36</title>
<path fill="none" stroke="#191970" d="M281.7773,-189.2226C297.4433,-186.4566 314.3477,-183.5454 330,-181 533.3413,-147.9323 774.6319,-113.4145 889.2013,-97.3097"/>
<polygon fill="#191970" stroke="#191970" points="280.9211,-185.8198 271.6869,-191.014 282.1448,-192.712 280.9211,-185.8198"/>
</g>
<!-- Node26 -->
<g id="node5" class="node">
<title>Node26</title>
<g id="a_node5"><a xlink:href="class_qt_hard_mon.html#ae6c97ba5178e42b84be78e421972682c" target="_top" xlink:title="The constructor. ">
<polygon fill="#ffffff" stroke="#000000" points="1396,-66.5 1396,-85.5 1528,-85.5 1528,-66.5 1396,-66.5"/>
<text text-anchor="middle" x="1462" y="-73.5" font-family="Helvetica,sans-Serif" font-size="10.00" fill="#000000">QtHardMon::QtHardMon</text>
</a>
</g>
</g>
<!-- Node25&#45;&gt;Node26 -->
<g id="edge4" class="edge">
<title>Node25&#45;&gt;Node26</title>
<path fill="none" stroke="#191970" d="M416.0459,-183.3689C466.8253,-137.0579 620.0357,-10 772.5,-10 772.5,-10 772.5,-10 1143,-10 1252.9992,-10 1379.992,-48.0981 1434.6597,-66.403"/>
<polygon fill="#191970" stroke="#191970" points="413.4993,-180.9567 408.5353,-190.3167 418.2528,-186.0952 413.4993,-180.9567"/>
</g>
<!-- Node25&#45;&gt;Node27 -->
<g id="edge5" class="edge">
<title>Node25&#45;&gt;Node27</title>
<path fill="none" stroke="#191970" d="M457.9185,-207.1909C460.9963,-208.1139 464.0383,-209.056 467,-210 483.2079,-215.166 486.8563,-217.6369 503,-223 526.6696,-230.8632 554.6594,-239.1248 570.1618,-246.4366"/>
<polygon fill="#191970" stroke="#191970" points="458.5998,-203.7446 448.0211,-204.3294 456.6556,-210.4692 458.5998,-203.7446"/>
</g>
<!-- Node25&#45;&gt;Node31 -->
<g id="edge26" class="edge">
<title>Node25&#45;&gt;Node31</title>
<path fill="none" stroke="#191970" d="M457.2002,-211.8024C460.742,-213.8389 464.0564,-216.2191 467,-219 503.1667,-253.1676 463.6001,-294.6174 503,-325 598.0869,-398.3247 652.4249,-344 772.5,-344 772.5,-344 772.5,-344 956,-344 1075.0746,-344 1112.9025,-359.7127 1222,-312 1256.1549,-297.0627 1287.0645,-264.1559 1301.0753,-247.728"/>
<polygon fill="#191970" stroke="#191970" points="458.5421,-208.5647 448.0098,-207.4157 455.5268,-214.882 458.5421,-208.5647"/>
</g>
<!-- Node25&#45;&gt;Node35 -->
<g id="edge27" class="edge">
<title>Node25&#45;&gt;Node35</title>
<path fill="none" stroke="#191970" d="M458.2053,-189.7888C522.9073,-182.2179 626.3121,-173.2208 696.7029,-168.9339"/>
<polygon fill="#191970" stroke="#191970" points="457.6774,-186.3269 448.1643,-190.9906 458.5094,-193.2772 457.6774,-186.3269"/>
</g>
<!-- Node27&#45;&gt;Node25 -->
<g id="edge16" class="edge">
<title>Node27&#45;&gt;Node25</title>
<path fill="none" stroke="#191970" d="M510.2557,-243.3775C507.8048,-242.5857 505.3806,-241.7908 503,-241 486.8563,-235.6369 483.2079,-233.166 467,-228 447.3633,-221.7411 424.196,-215.5626 410.4609,-209.5247"/>
<polygon fill="#191970" stroke="#191970" points="509.2145,-246.719 519.8046,-246.401 511.3276,-240.0456 509.2145,-246.719"/>
</g>
<!-- Node28 -->
<g id="node7" class="node">
<title>Node28</title>
<g id="a_node7"><a xlink:href="class_qt_hard_mon.html#a207299bc54f3520d125f9f1ab7c37f06" target="_top" xlink:title="Load a dmap file and return whether loading was successful. ">
<polygon fill="#ffffff" stroke="#000000" points="884,-198.5 884,-217.5 1028,-217.5 1028,-198.5 884,-198.5"/>
<text text-anchor="middle" x="956" y="-205.5" font-family="Helvetica,sans-Serif" font-size="10.00" fill="#000000">QtHardMon::loadDmapFile</text>
</a>
</g>
</g>
<!-- Node27&#45;&gt;Node28 -->
<g id="edge6" class="edge">
<title>Node27&#45;&gt;Node28</title>
<path fill="none" stroke="#191970" d="M660.9198,-245.8713C726.7458,-237.423 819.779,-225.4829 883.6917,-217.2802"/>
<polygon fill="#191970" stroke="#191970" points="660.0704,-242.4515 650.5974,-247.1961 660.9616,-249.3945 660.0704,-242.4515"/>
</g>
<!-- Node27&#45;&gt;Node31 -->
<g id="edge17" class="edge">
<title>Node27&#45;&gt;Node31</title>
<path fill="none" stroke="#191970" d="M629.5071,-267.8854C737.0961,-292.7462 1006.7438,-343.4494 1222,-287 1251.1764,-279.3487 1280.883,-259.4616 1296.9202,-247.5065"/>
<polygon fill="#191970" stroke="#191970" points="630.1434,-264.4397 619.6084,-265.5647 628.5455,-271.2549 630.1434,-264.4397"/>
</g>
<!-- Node27&#45;&gt;Node35 -->
<g id="edge18" class="edge">
<title>Node27&#45;&gt;Node35</title>
<path fill="none" stroke="#191970" d="M629.1805,-243.5741C639.8119,-240.2511 650.9262,-236.3545 661,-232 693.1657,-218.096 727.8148,-197.1748 749.8034,-183.073"/>
<polygon fill="#191970" stroke="#191970" points="628.1619,-240.2255 619.5965,-246.4613 630.181,-246.928 628.1619,-240.2255"/>
</g>
<!-- Node29 -->
<g id="node8" class="node">
<title>Node29</title>
<g id="a_node8"><a xlink:href="class_qt_hard_mon.html#a307689d5bb5904a509203086e7843c26" target="_top" xlink:title="QtHardMon::~QtHardMon">
<polygon fill="#ffffff" stroke="#000000" points="1073,-198.5 1073,-217.5 1213,-217.5 1213,-198.5 1073,-198.5"/>
<text text-anchor="middle" x="1143" y="-205.5" font-family="Helvetica,sans-Serif" font-size="10.00" fill="#000000">QtHardMon::~QtHardMon</text>
</a>
</g>
</g>
<!-- Node28&#45;&gt;Node29 -->
<g id="edge7" class="edge">
<title>Node28&#45;&gt;Node29</title>
<path fill="none" stroke="#191970" d="M1038.1291,-208C1049.7092,-208 1061.5255,-208 1072.8532,-208"/>
<polygon fill="#191970" stroke="#191970" points="1038.0316,-204.5001 1028.0316,-208 1038.0316,-211.5001 1038.0316,-204.5001"/>
</g>
<!-- Node28&#45;&gt;Node30 -->
<g id="edge8" class="edge">
<title>Node28&#45;&gt;Node30</title>
<path fill="none" stroke="#191970" d="M974.496,-191.4881C1004.0546,-165.135 1059.1305,-116.1885 1064,-113 1080.9785,-101.8828 1101.8276,-92.2664 1117.8433,-85.6256"/>
<polygon fill="#191970" stroke="#191970" points="972.0312,-188.9966 966.8985,-198.2651 976.6909,-194.2203 972.0312,-188.9966"/>
</g>
<!-- Node32 -->
<g id="node11" class="node">
<title>Node32</title>
<g id="a_node11"><a xlink:href="class_qt_hard_mon.html#a57779de6afbaaab4306780c25aaa2073" target="_top" xlink:title="This method checks if QtHardMon executable has been called with a valid configuration or dmap file as...">
<polygon fill="#ffffff" stroke="#000000" points="1067,-122.5 1067,-141.5 1219,-141.5 1219,-122.5 1067,-122.5"/>
<text text-anchor="middle" x="1143" y="-129.5" font-family="Helvetica,sans-Serif" font-size="10.00" fill="#000000">QtHardMon::parseArgument</text>
</a>
</g>
</g>
<!-- Node28&#45;&gt;Node32 -->
<g id="edge13" class="edge">
<title>Node28&#45;&gt;Node32</title>
<path fill="none" stroke="#191970" d="M989.1469,-194.5285C1026.5937,-179.3095 1086.5942,-154.9243 1119.5086,-141.5473"/>
<polygon fill="#191970" stroke="#191970" points="987.63,-191.3669 979.6837,-198.3745 990.2656,-197.8518 987.63,-191.3669"/>
</g>
<!-- Node34 -->
<g id="node13" class="node">
<title>Node34</title>
<g id="a_node13"><a xlink:href="struct_qt_hard_mon__populates_device_list__fixture.html#a2cad686534df4b493062399adc7133ee" target="_top" xlink:title="QtHardMon_populatesDevice\lList_fixture::QtHardMon\l_populatesDeviceList_fixture">
<polygon fill="#ffffff" stroke="#000000" points="1064,-236.5 1064,-277.5 1222,-277.5 1222,-236.5 1064,-236.5"/>
<text text-anchor="start" x="1072" y="-265.5" font-family="Helvetica,sans-Serif" font-size="10.00" fill="#000000">QtHardMon_populatesDevice</text>
<text text-anchor="start" x="1072" y="-254.5" font-family="Helvetica,sans-Serif" font-size="10.00" fill="#000000">List_fixture::QtHardMon</text>
<text text-anchor="middle" x="1143" y="-243.5" font-family="Helvetica,sans-Serif" font-size="10.00" fill="#000000">_populatesDeviceList_fixture</text>
</a>
</g>
</g>
<!-- Node28&#45;&gt;Node34 -->
<g id="edge15" class="edge">
<title>Node28&#45;&gt;Node34</title>
<path fill="none" stroke="#191970" d="M1002.261,-220.1219C1021.0335,-225.0409 1043.2517,-230.8628 1064.4223,-236.4101"/>
<polygon fill="#191970" stroke="#191970" points="1003.06,-216.7131 992.4994,-217.564 1001.2856,-223.4845 1003.06,-216.7131"/>
</g>
<!-- Node30&#45;&gt;Node26 -->
<g id="edge9" class="edge">
<title>Node30&#45;&gt;Node26</title>
<path fill="none" stroke="#191970" d="M1217.7563,-76C1271.7513,-76 1344.0054,-76 1395.8969,-76"/>
<polygon fill="#191970" stroke="#191970" points="1217.5544,-72.5001 1207.5544,-76 1217.5544,-79.5001 1217.5544,-72.5001"/>
</g>
<!-- Node30&#45;&gt;Node30 -->
<g id="edge12" class="edge">
<title>Node30&#45;&gt;Node30</title>
<path fill="none" stroke="#191970" d="M1111.9371,-94.2746C1112.8228,-99.741 1123.1771,-104 1143,-104 1172.5039,-104 1181.0324,-94.5653 1168.5854,-85.7571"/>
<polygon fill="#191970" stroke="#191970" points="1114.9495,-96.0611 1117.4146,-85.7571 1109.0618,-92.2749 1114.9495,-96.0611"/>
</g>
<!-- Node30&#45;&gt;Node31 -->
<g id="edge10" class="edge">
<title>Node30&#45;&gt;Node31</title>
<path fill="none" stroke="#191970" d="M1182.1174,-89.4966C1195.6616,-95.3667 1210.3524,-103.1816 1222,-113 1262.8364,-147.423 1293.3958,-205.3496 1304.471,-228.2558"/>
<polygon fill="#191970" stroke="#191970" points="1183.098,-86.1162 1172.5175,-85.5652 1180.4451,-92.594 1183.098,-86.1162"/>
</g>
<!-- Node31&#45;&gt;Node26 -->
<g id="edge11" class="edge">
<title>Node31&#45;&gt;Node26</title>
<path fill="none" stroke="#191970" d="M1324.9899,-221.0695C1356.8663,-187.318 1427.4338,-112.5995 1452.7417,-85.803"/>
<polygon fill="#191970" stroke="#191970" points="1322.4344,-218.678 1318.1127,-228.3513 1327.5235,-223.4843 1322.4344,-218.678"/>
</g>
<!-- Node33 -->
<g id="node12" class="node">
<title>Node33</title>
<g id="a_node12"><a xlink:href="main_8cpp.html#a76d7886ff34652714e4a2d447ae4c5b6" target="_top" xlink:title="main">
<polygon fill="#ffffff" stroke="#000000" points="1288.5,-122.5 1288.5,-141.5 1329.5,-141.5 1329.5,-122.5 1288.5,-122.5"/>
<text text-anchor="middle" x="1309" y="-129.5" font-family="Helvetica,sans-Serif" font-size="10.00" fill="#000000">main</text>
</a>
</g>
</g>
<!-- Node32&#45;&gt;Node33 -->
<g id="edge14" class="edge">
<title>Node32&#45;&gt;Node33</title>
<path fill="none" stroke="#191970" d="M1229.3409,-132C1251.4168,-132 1273.177,-132 1288.3613,-132"/>
<polygon fill="#191970" stroke="#191970" points="1229.1982,-128.5001 1219.1982,-132 1229.1982,-135.5001 1229.1982,-128.5001"/>
</g>
<!-- Node35&#45;&gt;Node25 -->
<g id="edge20" class="edge">
<title>Node35&#45;&gt;Node25</title>
<path fill="none" stroke="#191970" d="M686.4949,-181.1439C612.6872,-189.026 508.8926,-197.5651 448.1643,-200.5106"/>
<polygon fill="#191970" stroke="#191970" points="687.1386,-184.5947 696.7029,-180.0367 686.3838,-177.6355 687.1386,-184.5947"/>
</g>
<!-- Node35&#45;&gt;Node28 -->
<g id="edge19" class="edge">
<title>Node35&#45;&gt;Node28</title>
<path fill="none" stroke="#191970" d="M851.2165,-185.1589C872.1658,-189.7255 894.0404,-194.4938 912.3513,-198.4853"/>
<polygon fill="#191970" stroke="#191970" points="851.8667,-181.7185 841.3507,-183.0083 850.3758,-188.5579 851.8667,-181.7185"/>
</g>
<!-- Node35&#45;&gt;Node30 -->
<g id="edge22" class="edge">
<title>Node35&#45;&gt;Node30</title>
<path fill="none" stroke="#191970" d="M847.6849,-150.6531C898.6566,-138.7448 967.5016,-122.3726 1028,-107 1055.1557,-100.0998 1085.7824,-91.8193 1108.5979,-85.5528"/>
<polygon fill="#191970" stroke="#191970" points="846.6802,-147.2934 837.7367,-152.9736 848.2704,-154.1104 846.6802,-147.2934"/>
</g>
<!-- Node35&#45;&gt;Node31 -->
<g id="edge21" class="edge">
<title>Node35&#45;&gt;Node31</title>
<path fill="none" stroke="#191970" d="M858.2744,-160.4146C950.1595,-154.9398 1099.3296,-153.7509 1222,-189 1250.8233,-197.2823 1280.4213,-216.7479 1296.5839,-228.4995"/>
<polygon fill="#191970" stroke="#191970" points="857.9482,-156.9281 848.1867,-161.0467 858.386,-163.9144 857.9482,-156.9281"/>
</g>
<!-- Node35&#45;&gt;Node35 -->
<g id="edge25" class="edge">
<title>Node35&#45;&gt;Node35</title>
<path fill="none" stroke="#191970" d="M740.1608,-193.4579C744.1746,-198.179 754.9543,-201.5 772.5,-201.5 801.293,-201.5 811.8654,-192.5566 804.2173,-183.159"/>
<polygon fill="#191970" stroke="#191970" points="743.6735,-193.3518 740.7827,-183.159 736.6862,-192.9298 743.6735,-193.3518"/>
</g>
<!-- Node35&#45;&gt;Node36 -->
<g id="edge23" class="edge">
<title>Node35&#45;&gt;Node36</title>
<path fill="none" stroke="#191970" d="M823.4803,-149.12C831.7815,-145.6543 840.208,-141.8935 848,-138 864.7737,-129.6186 867.1957,-124.3198 884,-116 898.183,-108.978 914.5884,-102.4804 928.1541,-97.5158"/>
<polygon fill="#191970" stroke="#191970" points="822.1429,-145.8854 814.2016,-152.8987 824.7831,-152.3684 822.1429,-145.8854"/>
</g>
<!-- Node36&#45;&gt;Node30 -->
<g id="edge24" class="edge">
<title>Node36&#45;&gt;Node30</title>
<path fill="none" stroke="#191970" d="M1033.0008,-83.0588C1048.0158,-82.0952 1063.617,-81.0941 1078.1889,-80.159"/>
<polygon fill="#191970" stroke="#191970" points="1032.4746,-79.5852 1022.7193,-83.7185 1032.923,-86.5709 1032.4746,-79.5852"/>
</g>
<!-- Node37&#45;&gt;Node28 -->
<g id="edge35" class="edge">
<title>Node37&#45;&gt;Node28</title>
<path fill="none" stroke="#191970" d="M671.0464,-284.4971C723.0324,-274.7249 789.6699,-260.9537 848,-245 876.8677,-237.1045 909.2554,-225.6503 930.9671,-217.5826"/>
<polygon fill="#191970" stroke="#191970" points="670.3726,-281.0623 661.1837,-286.3362 671.6559,-287.9437 670.3726,-281.0623"/>
</g>
</g>
</svg>
