<?xml version="1.0" encoding="UTF-8" standalone="no"?>
<!DOCTYPE svg PUBLIC "-//W3C//DTD SVG 1.1//EN"
 "http://www.w3.org/Graphics/SVG/1.1/DTD/svg11.dtd">
<!-- Generated by graphviz version 2.40.1 (20161225.0304)
 -->
<!-- Title: ChimeraTK::VirtualLab::StateVariableSet::getValueInterpolated Pages: 1 -->
<svg width="344pt" height="50pt"
 viewBox="0.00 0.00 344.00 50.00" xmlns="http://www.w3.org/2000/svg" xmlns:xlink="http://www.w3.org/1999/xlink">
<g id="graph0" class="graph" transform="scale(1 1) rotate(0) translate(4 46)">
<title>ChimeraTK::VirtualLab::StateVariableSet::getValueInterpolated</title>
<polygon fill="#ffffff" stroke="transparent" points="-4,4 -4,-46 340,-46 340,4 -4,4"/>
<!-- Node40 -->
<g id="node1" class="node">
<title>Node40</title>
<polygon fill="#bfbfbf" stroke="#000000" points="0,-.5 0,-41.5 152,-41.5 152,-.5 0,-.5"/>
<text text-anchor="start" x="8" y="-29.5" font-family="Helvetica,sans-Serif" font-size="10.00" fill="#000000">ChimeraTK::VirtualLab</text>
<text text-anchor="start" x="8" y="-18.5" font-family="Helvetica,sans-Serif" font-size="10.00" fill="#000000">::StateVariableSet::getValue</text>
<text text-anchor="middle" x="76" y="-7.5" font-family="Helvetica,sans-Serif" font-size="10.00" fill="#000000">Interpolated</text>
</g>
<!-- Node41 -->
<g id="node2" class="node">
<title>Node41</title>
<g id="a_node2"><a xlink:href="class_chimera_t_k_1_1_virtual_lab_1_1_state_variable_set.html#a802d2f5adc315bde0ceea27119933298" target="_top" xlink:title="Obtain the state for the given time. ">
<polygon fill="#ffffff" stroke="#000000" points="188,-.5 188,-41.5 336,-41.5 336,-.5 188,-.5"/>
<text text-anchor="start" x="196" y="-29.5" font-family="Helvetica,sans-Serif" font-size="10.00" fill="#000000">ChimeraTK::VirtualLab</text>
<text text-anchor="start" x="196" y="-18.5" font-family="Helvetica,sans-Serif" font-size="10.00" fill="#000000">::StateVariableSet&lt; double</text>
<text text-anchor="middle" x="262" y="-7.5" font-family="Helvetica,sans-Serif" font-size="10.00" fill="#000000"> &gt;::getState</text>
</a>
</g>
</g>
<!-- Node40&#45;&gt;Node41 -->
<g id="edge1" class="edge">
<title>Node40&#45;&gt;Node41</title>
<path fill="none" stroke="#191970" d="M162.4428,-21C170.8933,-21 179.4163,-21 187.7309,-21"/>
<polygon fill="#191970" stroke="#191970" points="162.19,-17.5001 152.19,-21 162.19,-24.5001 162.19,-17.5001"/>
</g>
</g>
</svg>
