<?xml version="1.0" encoding="UTF-8" standalone="no"?>
<!DOCTYPE svg PUBLIC "-//W3C//DTD SVG 1.1//EN"
 "http://www.w3.org/Graphics/SVG/1.1/DTD/svg11.dtd">
<!-- Generated by graphviz version 2.43.0 (0)
 -->
<!-- Title: /scratch/dragon/sources/Consatt/core/src/CsaObjectUserConfig.cc Pages: 1 -->
<svg width="747pt" height="442pt"
 viewBox="0.00 0.00 747.00 442.00" xmlns="http://www.w3.org/2000/svg" xmlns:xlink="http://www.w3.org/1999/xlink">
<g id="graph0" class="graph" transform="scale(1 1) rotate(0) translate(4 438)">
<title>/scratch/dragon/sources/Consatt/core/src/CsaObjectUserConfig.cc</title>
<polygon fill="white" stroke="transparent" points="-4,4 -4,-438 743,-438 743,4 -4,4"/>
<!-- Node1 -->
<g id="node1" class="node">
<title>Node1</title>
<g id="a_node1"><a xlink:title=" ">
<polygon fill="#bfbfbf" stroke="black" points="129.5,-392.5 129.5,-433.5 302.5,-433.5 302.5,-392.5 129.5,-392.5"/>
<text text-anchor="start" x="137.5" y="-421.5" font-family="Helvetica,sans-Serif" font-size="10.00">/scratch/dragon/sources</text>
<text text-anchor="start" x="137.5" y="-410.5" font-family="Helvetica,sans-Serif" font-size="10.00">/Consatt/core/src/CsaObjectUser</text>
<text text-anchor="middle" x="216" y="-399.5" font-family="Helvetica,sans-Serif" font-size="10.00">Config.cc</text>
</a>
</g>
</g>
<!-- Node2 -->
<g id="node2" class="node">
<title>Node2</title>
<g id="a_node2"><a xlink:href="_csa_object_user_config_8h.html" target="_top" xlink:title=" ">
<polygon fill="white" stroke="black" points="50,-168.5 50,-187.5 178,-187.5 178,-168.5 50,-168.5"/>
<text text-anchor="middle" x="114" y="-175.5" font-family="Helvetica,sans-Serif" font-size="10.00">CsaObjectUserConfig.h</text>
</a>
</g>
</g>
<!-- Node1&#45;&gt;Node2 -->
<g id="edge1" class="edge">
<title>Node1&#45;&gt;Node2</title>
<path fill="none" stroke="midnightblue" d="M206.8,-392.25C196.46,-369.93 179.24,-332.48 165,-300 149.05,-263.61 131.18,-220.68 121.39,-196.98"/>
<polygon fill="midnightblue" stroke="midnightblue" points="124.55,-195.46 117.5,-187.54 118.08,-198.12 124.55,-195.46"/>
</g>
<!-- Node7 -->
<g id="node7" class="node">
<title>Node7</title>
<g id="a_node7"><a xlink:href="_csa_adapter_8h.html" target="_top" xlink:title=" ">
<polygon fill="white" stroke="black" points="407.5,-336.5 407.5,-355.5 488.5,-355.5 488.5,-336.5 407.5,-336.5"/>
<text text-anchor="middle" x="448" y="-343.5" font-family="Helvetica,sans-Serif" font-size="10.00">CsaAdapter.h</text>
</a>
</g>
</g>
<!-- Node1&#45;&gt;Node7 -->
<g id="edge6" class="edge">
<title>Node1&#45;&gt;Node7</title>
<path fill="none" stroke="midnightblue" d="M285.61,-392.5C325.4,-381.35 373.92,-367.76 407.5,-358.35"/>
<polygon fill="midnightblue" stroke="midnightblue" points="408.74,-361.64 417.42,-355.57 406.85,-354.89 408.74,-361.64"/>
</g>
<!-- Node3 -->
<g id="node3" class="node">
<title>Node3</title>
<g id="a_node3"><a xlink:title=" ">
<polygon fill="white" stroke="#bfbfbf" points="374,-112.5 374,-131.5 424,-131.5 424,-112.5 374,-112.5"/>
<text text-anchor="middle" x="399" y="-119.5" font-family="Helvetica,sans-Serif" font-size="10.00">cstdint</text>
</a>
</g>
</g>
<!-- Node2&#45;&gt;Node3 -->
<g id="edge2" class="edge">
<title>Node2&#45;&gt;Node3</title>
<path fill="none" stroke="midnightblue" d="M159.16,-168.44C215.99,-157.68 312.38,-139.41 363.96,-129.64"/>
<polygon fill="midnightblue" stroke="midnightblue" points="364.78,-133.05 373.96,-127.75 363.48,-126.17 364.78,-133.05"/>
</g>
<!-- Node4 -->
<g id="node4" class="node">
<title>Node4</title>
<g id="a_node4"><a xlink:title=" ">
<polygon fill="white" stroke="#bfbfbf" points="413,-0.5 413,-19.5 473,-19.5 473,-0.5 413,-0.5"/>
<text text-anchor="middle" x="443" y="-7.5" font-family="Helvetica,sans-Serif" font-size="10.00">iostream</text>
</a>
</g>
</g>
<!-- Node2&#45;&gt;Node4 -->
<g id="edge3" class="edge">
<title>Node2&#45;&gt;Node4</title>
<path fill="none" stroke="midnightblue" d="M155.64,-168.47C231.11,-152.22 386.22,-114.96 424,-76 435.88,-63.75 440.4,-44.49 442.08,-30.11"/>
<polygon fill="midnightblue" stroke="midnightblue" points="445.59,-30.1 442.91,-19.85 438.62,-29.53 445.59,-30.1"/>
</g>
<!-- Node5 -->
<g id="node5" class="node">
<title>Node5</title>
<g id="a_node5"><a xlink:title=" ">
<polygon fill="white" stroke="#bfbfbf" points="0,-112.5 0,-131.5 44,-131.5 44,-112.5 0,-112.5"/>
<text text-anchor="middle" x="22" y="-119.5" font-family="Helvetica,sans-Serif" font-size="10.00">string</text>
</a>
</g>
</g>
<!-- Node2&#45;&gt;Node5 -->
<g id="edge4" class="edge">
<title>Node2&#45;&gt;Node5</title>
<path fill="none" stroke="midnightblue" d="M99.22,-168.32C84.73,-159.82 62.43,-146.73 45.51,-136.8"/>
<polygon fill="midnightblue" stroke="midnightblue" points="47.14,-133.7 36.74,-131.65 43.6,-139.74 47.14,-133.7"/>
</g>
<!-- Node6 -->
<g id="node6" class="node">
<title>Node6</title>
<g id="a_node6"><a xlink:title=" ">
<polygon fill="white" stroke="#bfbfbf" points="85.5,-112.5 85.5,-131.5 142.5,-131.5 142.5,-112.5 85.5,-112.5"/>
<text text-anchor="middle" x="114" y="-119.5" font-family="Helvetica,sans-Serif" font-size="10.00">typeinfo</text>
</a>
</g>
</g>
<!-- Node2&#45;&gt;Node6 -->
<g id="edge5" class="edge">
<title>Node2&#45;&gt;Node6</title>
<path fill="none" stroke="midnightblue" d="M114,-168.08C114,-161.01 114,-150.86 114,-141.99"/>
<polygon fill="midnightblue" stroke="midnightblue" points="117.5,-141.75 114,-131.75 110.5,-141.75 117.5,-141.75"/>
</g>
<!-- Node7&#45;&gt;Node3 -->
<g id="edge38" class="edge">
<title>Node7&#45;&gt;Node3</title>
<path fill="none" stroke="midnightblue" d="M486.18,-336.38C506.3,-329.82 529.52,-318.63 543,-300 577.58,-252.2 592.55,-215.08 557,-168 553.21,-162.97 479.42,-143.46 434.04,-131.84"/>
<polygon fill="midnightblue" stroke="midnightblue" points="434.83,-128.43 424.28,-129.35 433.1,-135.22 434.83,-128.43"/>
</g>
<!-- Node7&#45;&gt;Node5 -->
<g id="edge40" class="edge">
<title>Node7&#45;&gt;Node5</title>
<path fill="none" stroke="midnightblue" d="M407.27,-344.97C350.58,-343.53 245.77,-335.7 165,-300 92.12,-267.78 61.16,-259 25,-188 17.71,-173.69 17.59,-155.22 18.93,-141.63"/>
<polygon fill="midnightblue" stroke="midnightblue" points="22.42,-141.94 20.27,-131.56 15.48,-141.01 22.42,-141.94"/>
</g>
<!-- Node8 -->
<g id="node8" class="node">
<title>Node8</title>
<g id="a_node8"><a xlink:href="_binded_objects_8h.html" target="_top" xlink:title=" ">
<polygon fill="white" stroke="black" points="438,-280.5 438,-299.5 534,-299.5 534,-280.5 438,-280.5"/>
<text text-anchor="middle" x="486" y="-287.5" font-family="Helvetica,sans-Serif" font-size="10.00">BindedObjects.h</text>
</a>
</g>
</g>
<!-- Node7&#45;&gt;Node8 -->
<g id="edge7" class="edge">
<title>Node7&#45;&gt;Node8</title>
<path fill="none" stroke="midnightblue" d="M454.27,-336.08C459.64,-328.46 467.52,-317.26 474.08,-307.94"/>
<polygon fill="midnightblue" stroke="midnightblue" points="476.95,-309.94 479.84,-299.75 471.22,-305.91 476.95,-309.94"/>
</g>
<!-- Node15 -->
<g id="node15" class="node">
<title>Node15</title>
<g id="a_node15"><a xlink:href="_loger_8h.html" target="_top" xlink:title=" ">
<polygon fill="white" stroke="black" points="551,-56.5 551,-75.5 603,-75.5 603,-56.5 551,-56.5"/>
<text text-anchor="middle" x="577" y="-63.5" font-family="Helvetica,sans-Serif" font-size="10.00">Loger.h</text>
</a>
</g>
</g>
<!-- Node7&#45;&gt;Node15 -->
<g id="edge35" class="edge">
<title>Node7&#45;&gt;Node15</title>
<path fill="none" stroke="midnightblue" d="M488.61,-336.78C537.75,-324.19 614,-294.98 614,-235 614,-235 614,-235 614,-177 614,-142.89 597.82,-105.79 586.86,-84.57"/>
<polygon fill="midnightblue" stroke="midnightblue" points="589.81,-82.66 581.99,-75.51 583.64,-85.98 589.81,-82.66"/>
</g>
<!-- Node16 -->
<g id="node16" class="node">
<title>Node16</title>
<g id="a_node16"><a xlink:title=" ">
<polygon fill="white" stroke="#bfbfbf" points="689,-0.5 689,-19.5 739,-19.5 739,-0.5 689,-0.5"/>
<text text-anchor="middle" x="714" y="-7.5" font-family="Helvetica,sans-Serif" font-size="10.00">chrono</text>
</a>
</g>
</g>
<!-- Node7&#45;&gt;Node16 -->
<g id="edge37" class="edge">
<title>Node7&#45;&gt;Node16</title>
<path fill="none" stroke="midnightblue" d="M488.62,-344.56C558.49,-341.43 694,-323.89 694,-235 694,-235 694,-235 694,-121 694,-88.44 702.59,-51.32 708.51,-29.59"/>
<polygon fill="midnightblue" stroke="midnightblue" points="711.94,-30.32 711.3,-19.74 705.21,-28.41 711.94,-30.32"/>
</g>
<!-- Node20 -->
<g id="node20" class="node">
<title>Node20</title>
<g id="a_node20"><a xlink:title=" ">
<polygon fill="white" stroke="#bfbfbf" points="626,-56.5 626,-75.5 664,-75.5 664,-56.5 626,-56.5"/>
<text text-anchor="middle" x="645" y="-63.5" font-family="Helvetica,sans-Serif" font-size="10.00">map</text>
</a>
</g>
</g>
<!-- Node7&#45;&gt;Node20 -->
<g id="edge39" class="edge">
<title>Node7&#45;&gt;Node20</title>
<path fill="none" stroke="midnightblue" d="M488.79,-341.16C548.32,-333.07 652,-308.43 652,-235 652,-235 652,-235 652,-177 652,-144.88 648.99,-107.6 646.92,-85.73"/>
<polygon fill="midnightblue" stroke="midnightblue" points="650.38,-85.15 645.92,-75.55 643.41,-85.84 650.38,-85.15"/>
</g>
<!-- Node21 -->
<g id="node21" class="node">
<title>Node21</title>
<g id="a_node21"><a xlink:href="_csa_process_variable_config_8h.html" target="_top" xlink:title=" ">
<polygon fill="white" stroke="black" points="334,-224.5 334,-243.5 486,-243.5 486,-224.5 334,-224.5"/>
<text text-anchor="middle" x="410" y="-231.5" font-family="Helvetica,sans-Serif" font-size="10.00">CsaProcessVariableConfig.h</text>
</a>
</g>
</g>
<!-- Node7&#45;&gt;Node21 -->
<g id="edge34" class="edge">
<title>Node7&#45;&gt;Node21</title>
<path fill="none" stroke="midnightblue" d="M444.06,-336.49C439.99,-327.53 433.61,-312.94 429,-300 423.46,-284.42 418.27,-266.35 414.72,-253.22"/>
<polygon fill="midnightblue" stroke="midnightblue" points="418.1,-252.29 412.15,-243.51 411.33,-254.08 418.1,-252.29"/>
</g>
<!-- Node23 -->
<g id="node23" class="node">
<title>Node23</title>
<g id="a_node23"><a xlink:title=" ">
<polygon fill="white" stroke="#bfbfbf" points="196.5,-168.5 196.5,-187.5 315.5,-187.5 315.5,-168.5 196.5,-168.5"/>
<text text-anchor="middle" x="256" y="-175.5" font-family="Helvetica,sans-Serif" font-size="10.00">boost/shared_ptr.hpp</text>
</a>
</g>
</g>
<!-- Node7&#45;&gt;Node23 -->
<g id="edge36" class="edge">
<title>Node7&#45;&gt;Node23</title>
<path fill="none" stroke="midnightblue" d="M436.93,-336.33C415.13,-319.15 365.25,-279.41 325,-244 306.41,-227.64 285.83,-208.06 272.03,-194.69"/>
<polygon fill="midnightblue" stroke="midnightblue" points="274.36,-192.08 264.75,-187.61 269.48,-197.09 274.36,-192.08"/>
</g>
<!-- Node24 -->
<g id="node24" class="node">
<title>Node24</title>
<g id="a_node24"><a xlink:href="_csa_app_manager_8h.html" target="_top" xlink:title=" ">
<polygon fill="white" stroke="black" points="174,-280.5 174,-299.5 278,-299.5 278,-280.5 174,-280.5"/>
<text text-anchor="middle" x="226" y="-287.5" font-family="Helvetica,sans-Serif" font-size="10.00">CsaAppManager.h</text>
</a>
</g>
</g>
<!-- Node7&#45;&gt;Node24 -->
<g id="edge30" class="edge">
<title>Node7&#45;&gt;Node24</title>
<path fill="none" stroke="midnightblue" d="M412.82,-336.44C374.42,-327.1 312.82,-312.12 270.94,-301.93"/>
<polygon fill="midnightblue" stroke="midnightblue" points="271.56,-298.48 261.01,-299.52 269.9,-305.28 271.56,-298.48"/>
</g>
<!-- Node9 -->
<g id="node9" class="node">
<title>Node9</title>
<g id="a_node9"><a xlink:href="_bindable_8h.html" target="_top" xlink:title=" ">
<polygon fill="white" stroke="black" points="480,-168.5 480,-187.5 548,-187.5 548,-168.5 480,-168.5"/>
<text text-anchor="middle" x="514" y="-175.5" font-family="Helvetica,sans-Serif" font-size="10.00">Bindable.h</text>
</a>
</g>
</g>
<!-- Node8&#45;&gt;Node9 -->
<g id="edge8" class="edge">
<title>Node8&#45;&gt;Node9</title>
<path fill="none" stroke="midnightblue" d="M488.2,-280.37C492.72,-262.62 503.14,-221.67 509.27,-197.6"/>
<polygon fill="midnightblue" stroke="midnightblue" points="512.74,-198.15 511.81,-187.59 505.95,-196.42 512.74,-198.15"/>
</g>
<!-- Node8&#45;&gt;Node21 -->
<g id="edge24" class="edge">
<title>Node8&#45;&gt;Node21</title>
<path fill="none" stroke="midnightblue" d="M473.79,-280.32C462.22,-272.11 444.62,-259.6 430.84,-249.81"/>
<polygon fill="midnightblue" stroke="midnightblue" points="432.61,-246.77 422.43,-243.83 428.56,-252.48 432.61,-246.77"/>
</g>
<!-- Node10 -->
<g id="node10" class="node">
<title>Node10</title>
<g id="a_node10"><a xlink:href="_csa_app_config_file_parser_8h.html" target="_top" xlink:title=" ">
<polygon fill="white" stroke="black" points="445,-112.5 445,-131.5 585,-131.5 585,-112.5 445,-112.5"/>
<text text-anchor="middle" x="515" y="-119.5" font-family="Helvetica,sans-Serif" font-size="10.00">CsaAppConfigFileParser.h</text>
</a>
</g>
</g>
<!-- Node9&#45;&gt;Node10 -->
<g id="edge9" class="edge">
<title>Node9&#45;&gt;Node10</title>
<path fill="none" stroke="midnightblue" d="M514.17,-168.08C514.3,-161.01 514.48,-150.86 514.65,-141.99"/>
<polygon fill="midnightblue" stroke="midnightblue" points="518.15,-141.81 514.84,-131.75 511.15,-141.68 518.15,-141.81"/>
</g>
<!-- Node11 -->
<g id="node11" class="node">
<title>Node11</title>
<g id="a_node11"><a xlink:href="_lined_file_parser_8h.html" target="_top" xlink:title=" ">
<polygon fill="white" stroke="black" points="317,-56.5 317,-75.5 415,-75.5 415,-56.5 317,-56.5"/>
<text text-anchor="middle" x="366" y="-63.5" font-family="Helvetica,sans-Serif" font-size="10.00">LinedFileParser.h</text>
</a>
</g>
</g>
<!-- Node10&#45;&gt;Node11 -->
<g id="edge10" class="edge">
<title>Node10&#45;&gt;Node11</title>
<path fill="none" stroke="midnightblue" d="M491.39,-112.44C466.54,-103.44 427.23,-89.19 399.25,-79.05"/>
<polygon fill="midnightblue" stroke="midnightblue" points="400.09,-75.63 389.5,-75.52 397.71,-82.21 400.09,-75.63"/>
</g>
<!-- Node10&#45;&gt;Node15 -->
<g id="edge15" class="edge">
<title>Node10&#45;&gt;Node15</title>
<path fill="none" stroke="midnightblue" d="M524.96,-112.32C534.13,-104.34 547.94,-92.31 559.03,-82.65"/>
<polygon fill="midnightblue" stroke="midnightblue" points="561.62,-85.04 566.86,-75.83 557.02,-79.76 561.62,-85.04"/>
</g>
<!-- Node19 -->
<g id="node19" class="node">
<title>Node19</title>
<g id="a_node19"><a xlink:title=" ">
<polygon fill="white" stroke="#bfbfbf" points="491.5,-0.5 491.5,-19.5 538.5,-19.5 538.5,-0.5 491.5,-0.5"/>
<text text-anchor="middle" x="515" y="-7.5" font-family="Helvetica,sans-Serif" font-size="10.00">vector</text>
</a>
</g>
</g>
<!-- Node10&#45;&gt;Node19 -->
<g id="edge23" class="edge">
<title>Node10&#45;&gt;Node19</title>
<path fill="none" stroke="midnightblue" d="M515,-112.37C515,-94.62 515,-53.67 515,-29.6"/>
<polygon fill="midnightblue" stroke="midnightblue" points="518.5,-29.59 515,-19.59 511.5,-29.59 518.5,-29.59"/>
</g>
<!-- Node10&#45;&gt;Node20 -->
<g id="edge22" class="edge">
<title>Node10&#45;&gt;Node20</title>
<path fill="none" stroke="midnightblue" d="M535.6,-112.44C557.37,-103.4 591.87,-89.07 616.3,-78.92"/>
<polygon fill="midnightblue" stroke="midnightblue" points="617.88,-82.06 625.77,-74.99 615.19,-75.59 617.88,-82.06"/>
</g>
<!-- Node11&#45;&gt;Node4 -->
<g id="edge13" class="edge">
<title>Node11&#45;&gt;Node4</title>
<path fill="none" stroke="midnightblue" d="M378.37,-56.32C390.16,-48.06 408.13,-35.45 422.14,-25.63"/>
<polygon fill="midnightblue" stroke="midnightblue" points="424.48,-28.26 430.66,-19.65 420.46,-22.53 424.48,-28.26"/>
</g>
<!-- Node12 -->
<g id="node12" class="node">
<title>Node12</title>
<g id="a_node12"><a xlink:title=" ">
<polygon fill="white" stroke="#bfbfbf" points="140.5,-0.5 140.5,-19.5 247.5,-19.5 247.5,-0.5 140.5,-0.5"/>
<text text-anchor="middle" x="194" y="-7.5" font-family="Helvetica,sans-Serif" font-size="10.00">boost/function.hpp</text>
</a>
</g>
</g>
<!-- Node11&#45;&gt;Node12 -->
<g id="edge11" class="edge">
<title>Node11&#45;&gt;Node12</title>
<path fill="none" stroke="midnightblue" d="M338.75,-56.44C309.56,-47.28 263.08,-32.69 230.69,-22.52"/>
<polygon fill="midnightblue" stroke="midnightblue" points="231.72,-19.17 221.13,-19.52 229.62,-25.85 231.72,-19.17"/>
</g>
<!-- Node13 -->
<g id="node13" class="node">
<title>Node13</title>
<g id="a_node13"><a xlink:title=" ">
<polygon fill="white" stroke="#bfbfbf" points="265.5,-0.5 265.5,-19.5 320.5,-19.5 320.5,-0.5 265.5,-0.5"/>
<text text-anchor="middle" x="293" y="-7.5" font-family="Helvetica,sans-Serif" font-size="10.00">fstream</text>
</a>
</g>
</g>
<!-- Node11&#45;&gt;Node13 -->
<g id="edge12" class="edge">
<title>Node11&#45;&gt;Node13</title>
<path fill="none" stroke="midnightblue" d="M354.27,-56.32C343.16,-48.11 326.26,-35.6 313.02,-25.81"/>
<polygon fill="midnightblue" stroke="midnightblue" points="315.06,-22.97 304.94,-19.83 310.9,-28.59 315.06,-22.97"/>
</g>
<!-- Node14 -->
<g id="node14" class="node">
<title>Node14</title>
<g id="a_node14"><a xlink:title=" ">
<polygon fill="white" stroke="#bfbfbf" points="339,-0.5 339,-19.5 395,-19.5 395,-0.5 339,-0.5"/>
<text text-anchor="middle" x="367" y="-7.5" font-family="Helvetica,sans-Serif" font-size="10.00">sstream</text>
</a>
</g>
</g>
<!-- Node11&#45;&gt;Node14 -->
<g id="edge14" class="edge">
<title>Node11&#45;&gt;Node14</title>
<path fill="none" stroke="midnightblue" d="M366.17,-56.08C366.3,-49.01 366.48,-38.86 366.65,-29.99"/>
<polygon fill="midnightblue" stroke="midnightblue" points="370.15,-29.81 366.84,-19.75 363.15,-29.68 370.15,-29.81"/>
</g>
<!-- Node15&#45;&gt;Node4 -->
<g id="edge17" class="edge">
<title>Node15&#45;&gt;Node4</title>
<path fill="none" stroke="midnightblue" d="M555.77,-56.44C533.62,-47.52 498.68,-33.44 473.56,-23.32"/>
<polygon fill="midnightblue" stroke="midnightblue" points="474.72,-20.01 464.13,-19.52 472.1,-26.5 474.72,-20.01"/>
</g>
<!-- Node15&#45;&gt;Node14 -->
<g id="edge19" class="edge">
<title>Node15&#45;&gt;Node14</title>
<path fill="none" stroke="midnightblue" d="M550.83,-58.27C514.16,-48.84 447.27,-31.64 405.08,-20.79"/>
<polygon fill="midnightblue" stroke="midnightblue" points="405.74,-17.35 395.18,-18.25 403.99,-24.13 405.74,-17.35"/>
</g>
<!-- Node15&#45;&gt;Node16 -->
<g id="edge16" class="edge">
<title>Node15&#45;&gt;Node16</title>
<path fill="none" stroke="midnightblue" d="M598.71,-56.44C621.35,-47.52 657.07,-33.44 682.75,-23.32"/>
<polygon fill="midnightblue" stroke="midnightblue" points="684.37,-26.44 692.39,-19.52 681.81,-19.93 684.37,-26.44"/>
</g>
<!-- Node17 -->
<g id="node17" class="node">
<title>Node17</title>
<g id="a_node17"><a xlink:title=" ">
<polygon fill="white" stroke="#bfbfbf" points="557,-0.5 557,-19.5 605,-19.5 605,-0.5 557,-0.5"/>
<text text-anchor="middle" x="581" y="-7.5" font-family="Helvetica,sans-Serif" font-size="10.00">mutex</text>
</a>
</g>
</g>
<!-- Node15&#45;&gt;Node17 -->
<g id="edge18" class="edge">
<title>Node15&#45;&gt;Node17</title>
<path fill="none" stroke="midnightblue" d="M577.66,-56.08C578.18,-49.01 578.94,-38.86 579.59,-29.99"/>
<polygon fill="midnightblue" stroke="midnightblue" points="583.1,-29.98 580.35,-19.75 576.12,-29.47 583.1,-29.98"/>
</g>
<!-- Node18 -->
<g id="node18" class="node">
<title>Node18</title>
<g id="a_node18"><a xlink:title=" ">
<polygon fill="white" stroke="#bfbfbf" points="623,-0.5 623,-19.5 671,-19.5 671,-0.5 623,-0.5"/>
<text text-anchor="middle" x="647" y="-7.5" font-family="Helvetica,sans-Serif" font-size="10.00">thread</text>
</a>
</g>
</g>
<!-- Node15&#45;&gt;Node18 -->
<g id="edge20" class="edge">
<title>Node15&#45;&gt;Node18</title>
<path fill="none" stroke="midnightblue" d="M588.25,-56.32C598.8,-48.18 614.8,-35.84 627.44,-26.09"/>
<polygon fill="midnightblue" stroke="midnightblue" points="629.77,-28.71 635.55,-19.83 625.49,-23.17 629.77,-28.71"/>
</g>
<!-- Node15&#45;&gt;Node19 -->
<g id="edge21" class="edge">
<title>Node15&#45;&gt;Node19</title>
<path fill="none" stroke="midnightblue" d="M567.04,-56.32C557.87,-48.34 544.06,-36.31 532.97,-26.65"/>
<polygon fill="midnightblue" stroke="midnightblue" points="534.98,-23.76 525.14,-19.83 530.38,-29.04 534.98,-23.76"/>
</g>
<!-- Node21&#45;&gt;Node2 -->
<g id="edge26" class="edge">
<title>Node21&#45;&gt;Node2</title>
<path fill="none" stroke="midnightblue" d="M363.1,-224.44C310.92,-214.92 226.63,-199.55 170.77,-189.36"/>
<polygon fill="midnightblue" stroke="midnightblue" points="171.15,-185.87 160.68,-187.52 169.89,-192.75 171.15,-185.87"/>
</g>
<!-- Node21&#45;&gt;Node9 -->
<g id="edge25" class="edge">
<title>Node21&#45;&gt;Node9</title>
<path fill="none" stroke="midnightblue" d="M426.71,-224.32C443.31,-215.7 469,-202.36 488.22,-192.39"/>
<polygon fill="midnightblue" stroke="midnightblue" points="490.07,-195.37 497.33,-187.65 486.84,-189.16 490.07,-195.37"/>
</g>
<!-- Node21&#45;&gt;Node12 -->
<g id="edge28" class="edge">
<title>Node21&#45;&gt;Node12</title>
<path fill="none" stroke="midnightblue" d="M401.1,-224.45C391.78,-215.46 376.74,-200.86 364,-188 305.91,-129.38 238.41,-58.14 208.99,-26.93"/>
<polygon fill="midnightblue" stroke="midnightblue" points="211.45,-24.44 202.05,-19.56 206.35,-29.24 211.45,-24.44"/>
</g>
<!-- Node22 -->
<g id="node22" class="node">
<title>Node22</title>
<g id="a_node22"><a xlink:title=" ">
<polygon fill="white" stroke="#bfbfbf" points="372.5,-168.5 372.5,-187.5 461.5,-187.5 461.5,-168.5 372.5,-168.5"/>
<text text-anchor="middle" x="417" y="-175.5" font-family="Helvetica,sans-Serif" font-size="10.00">boost/bind.hpp</text>
</a>
</g>
</g>
<!-- Node21&#45;&gt;Node22 -->
<g id="edge27" class="edge">
<title>Node21&#45;&gt;Node22</title>
<path fill="none" stroke="midnightblue" d="M411.16,-224.08C412.08,-216.93 413.42,-206.64 414.58,-197.69"/>
<polygon fill="midnightblue" stroke="midnightblue" points="418.05,-198.12 415.87,-187.75 411.11,-197.22 418.05,-198.12"/>
</g>
<!-- Node21&#45;&gt;Node23 -->
<g id="edge29" class="edge">
<title>Node21&#45;&gt;Node23</title>
<path fill="none" stroke="midnightblue" d="M385.6,-224.44C359.8,-215.4 318.92,-201.06 289.98,-190.92"/>
<polygon fill="midnightblue" stroke="midnightblue" points="290.88,-187.52 280.29,-187.52 288.57,-194.13 290.88,-187.52"/>
</g>
<!-- Node25 -->
<g id="node25" class="node">
<title>Node25</title>
<g id="a_node25"><a xlink:href="_csa_application_8h.html" target="_top" xlink:title=" ">
<polygon fill="white" stroke="black" points="177,-224.5 177,-243.5 275,-243.5 275,-224.5 177,-224.5"/>
<text text-anchor="middle" x="226" y="-231.5" font-family="Helvetica,sans-Serif" font-size="10.00">CsaApplication.h</text>
</a>
</g>
</g>
<!-- Node24&#45;&gt;Node25 -->
<g id="edge31" class="edge">
<title>Node24&#45;&gt;Node25</title>
<path fill="none" stroke="midnightblue" d="M226,-280.08C226,-273.01 226,-262.86 226,-253.99"/>
<polygon fill="midnightblue" stroke="midnightblue" points="229.5,-253.75 226,-243.75 222.5,-253.75 229.5,-253.75"/>
</g>
<!-- Node25&#45;&gt;Node5 -->
<g id="edge33" class="edge">
<title>Node25&#45;&gt;Node5</title>
<path fill="none" stroke="midnightblue" d="M176.87,-226.67C128.88,-219.52 60.3,-206.44 41,-188 28.52,-176.08 24.11,-156.46 22.61,-141.89"/>
<polygon fill="midnightblue" stroke="midnightblue" points="26.08,-141.29 21.94,-131.53 19.09,-141.74 26.08,-141.29"/>
</g>
<!-- Node25&#45;&gt;Node23 -->
<g id="edge32" class="edge">
<title>Node25&#45;&gt;Node23</title>
<path fill="none" stroke="midnightblue" d="M230.95,-224.08C235.1,-216.61 241.15,-205.72 246.27,-196.52"/>
<polygon fill="midnightblue" stroke="midnightblue" points="249.34,-198.19 251.14,-187.75 243.22,-194.79 249.34,-198.19"/>
</g>
</g>
</svg>
