<?xml version="1.0" encoding="UTF-8" standalone="no"?>
<!DOCTYPE svg PUBLIC "-//W3C//DTD SVG 1.1//EN"
 "http://www.w3.org/Graphics/SVG/1.1/DTD/svg11.dtd">
<!-- Generated by graphviz version 2.43.0 (0)
 -->
<!-- Title: /scratch/dragon/sources/Consatt/core/include/LibSimpleTypes.h Pages: 1 -->
<svg width="1893pt" height="518pt"
 viewBox="0.00 0.00 1893.00 518.00" xmlns="http://www.w3.org/2000/svg" xmlns:xlink="http://www.w3.org/1999/xlink">
<g id="graph0" class="graph" transform="scale(1 1) rotate(0) translate(4 514)">
<title>/scratch/dragon/sources/Consatt/core/include/LibSimpleTypes.h</title>
<polygon fill="white" stroke="transparent" points="-4,4 -4,-514 1889,-514 1889,4 -4,4"/>
<!-- Node1 -->
<g id="node1" class="node">
<title>Node1</title>
<g id="a_node1"><a xlink:title=" ">
<polygon fill="#bfbfbf" stroke="black" points="940,-468.5 940,-509.5 1072,-509.5 1072,-468.5 940,-468.5"/>
<text text-anchor="start" x="948" y="-497.5" font-family="Helvetica,sans-Serif" font-size="10.00">/scratch/dragon/sources</text>
<text text-anchor="start" x="948" y="-486.5" font-family="Helvetica,sans-Serif" font-size="10.00">/Consatt/core/include</text>
<text text-anchor="middle" x="1006" y="-475.5" font-family="Helvetica,sans-Serif" font-size="10.00">/LibSimpleTypes.h</text>
</a>
</g>
</g>
<!-- Node2 -->
<g id="node2" class="node">
<title>Node2</title>
<g id="a_node2"><a xlink:href="_csa_external_process_variable_8h.html" target="_top" xlink:title=" ">
<polygon fill="white" stroke="black" points="873,-312.5 873,-353.5 1037,-353.5 1037,-312.5 873,-312.5"/>
<text text-anchor="start" x="881" y="-341.5" font-family="Helvetica,sans-Serif" font-size="10.00">/scratch/dragon/sources</text>
<text text-anchor="start" x="881" y="-330.5" font-family="Helvetica,sans-Serif" font-size="10.00">/Consatt/core/include</text>
<text text-anchor="middle" x="955" y="-319.5" font-family="Helvetica,sans-Serif" font-size="10.00">/CsaExternalProcessVariable.h</text>
</a>
</g>
</g>
<!-- Node1&#45;&gt;Node2 -->
<g id="edge1" class="edge">
<title>Node1&#45;&gt;Node2</title>
<path fill="none" stroke="midnightblue" d="M995.33,-458.75C992.25,-450.16 988.94,-440.72 986,-432 976.89,-404.94 967.06,-373.42 960.97,-353.59"/>
<polygon fill="midnightblue" stroke="midnightblue" points="992.11,-460.14 998.79,-468.36 998.69,-457.77 992.11,-460.14"/>
</g>
<!-- Node3 -->
<g id="node3" class="node">
<title>Node3</title>
<g id="a_node3"><a xlink:href="_csa_lib_typedefs_8h.html" target="_top" xlink:title=" ">
<polygon fill="white" stroke="black" points="889,-234.5 889,-275.5 1021,-275.5 1021,-234.5 889,-234.5"/>
<text text-anchor="start" x="897" y="-263.5" font-family="Helvetica,sans-Serif" font-size="10.00">/scratch/dragon/sources</text>
<text text-anchor="start" x="897" y="-252.5" font-family="Helvetica,sans-Serif" font-size="10.00">/Consatt/core/include</text>
<text text-anchor="middle" x="955" y="-241.5" font-family="Helvetica,sans-Serif" font-size="10.00">/CsaLibTypedefs.h</text>
</a>
</g>
</g>
<!-- Node1&#45;&gt;Node3 -->
<g id="edge30" class="edge">
<title>Node1&#45;&gt;Node3</title>
<path fill="none" stroke="midnightblue" d="M964.29,-462.67C930.15,-439.27 884.3,-401.06 864,-354 856.61,-336.86 854.89,-328.3 864,-312 872.87,-296.13 888.28,-284.2 903.93,-275.53"/>
<polygon fill="midnightblue" stroke="midnightblue" points="962.44,-465.64 972.69,-468.3 966.33,-459.83 962.44,-465.64"/>
</g>
<!-- Node23 -->
<g id="node23" class="node">
<title>Node23</title>
<g id="a_node23"><a xlink:href="_csa_process_variable_8h.html" target="_top" xlink:title=" ">
<polygon fill="white" stroke="black" points="995,-390.5 995,-431.5 1127,-431.5 1127,-390.5 995,-390.5"/>
<text text-anchor="start" x="1003" y="-419.5" font-family="Helvetica,sans-Serif" font-size="10.00">/scratch/dragon/sources</text>
<text text-anchor="start" x="1003" y="-408.5" font-family="Helvetica,sans-Serif" font-size="10.00">/Consatt/core/include</text>
<text text-anchor="middle" x="1061" y="-397.5" font-family="Helvetica,sans-Serif" font-size="10.00">/CsaProcessVariable.h</text>
</a>
</g>
</g>
<!-- Node1&#45;&gt;Node23 -->
<g id="edge25" class="edge">
<title>Node1&#45;&gt;Node23</title>
<path fill="none" stroke="midnightblue" d="M1026.23,-460.05C1033.09,-450.57 1040.6,-440.18 1046.88,-431.51"/>
<polygon fill="midnightblue" stroke="midnightblue" points="1023.19,-458.27 1020.16,-468.43 1028.86,-462.38 1023.19,-458.27"/>
</g>
<!-- Node25 -->
<g id="node25" class="node">
<title>Node25</title>
<g id="a_node25"><a xlink:href="_lib_simple_types_8cc.html" target="_top" xlink:title=" ">
<polygon fill="white" stroke="black" points="1145.5,-396 1145.5,-426 1336.5,-426 1336.5,-396 1145.5,-396"/>
<text text-anchor="start" x="1153.5" y="-414" font-family="Helvetica,sans-Serif" font-size="10.00">/scratch/dragon/sources</text>
<text text-anchor="middle" x="1241" y="-403" font-family="Helvetica,sans-Serif" font-size="10.00">/Consatt/core/src/LibSimpleTypes.cc</text>
</a>
</g>
</g>
<!-- Node1&#45;&gt;Node25 -->
<g id="edge31" class="edge">
<title>Node1&#45;&gt;Node25</title>
<path fill="none" stroke="midnightblue" d="M1076.32,-465.26C1115.65,-452.54 1163.44,-437.08 1197.38,-426.11"/>
<polygon fill="midnightblue" stroke="midnightblue" points="1074.96,-462.02 1066.52,-468.43 1077.11,-468.68 1074.96,-462.02"/>
</g>
<!-- Node2&#45;&gt;Node3 -->
<g id="edge2" class="edge">
<title>Node2&#45;&gt;Node3</title>
<path fill="none" stroke="midnightblue" d="M955,-302.3C955,-293.3 955,-283.65 955,-275.51"/>
<polygon fill="midnightblue" stroke="midnightblue" points="951.5,-302.43 955,-312.43 958.5,-302.43 951.5,-302.43"/>
</g>
<!-- Node4 -->
<g id="node4" class="node">
<title>Node4</title>
<g id="a_node4"><a xlink:href="_csa_app_manager_8cc.html" target="_top" xlink:title=" ">
<polygon fill="white" stroke="black" points="0,-162 0,-192 194,-192 194,-162 0,-162"/>
<text text-anchor="start" x="8" y="-180" font-family="Helvetica,sans-Serif" font-size="10.00">/scratch/dragon/sources</text>
<text text-anchor="middle" x="97" y="-169" font-family="Helvetica,sans-Serif" font-size="10.00">/Consatt/core/src/CsaAppManager.cc</text>
</a>
</g>
</g>
<!-- Node3&#45;&gt;Node4 -->
<g id="edge3" class="edge">
<title>Node3&#45;&gt;Node4</title>
<path fill="none" stroke="midnightblue" d="M878.53,-251.14C742.29,-245.42 448.74,-230.23 203,-198 190.74,-196.39 177.76,-194.28 165.24,-192.04"/>
<polygon fill="midnightblue" stroke="midnightblue" points="878.72,-254.65 888.86,-251.57 879.01,-247.66 878.72,-254.65"/>
</g>
<!-- Node5 -->
<g id="node5" class="node">
<title>Node5</title>
<g id="a_node5"><a xlink:href="test_csa_poly_converter_8cpp.html" target="_top" xlink:title=" ">
<polygon fill="white" stroke="black" points="212,-156.5 212,-197.5 374,-197.5 374,-156.5 212,-156.5"/>
<text text-anchor="start" x="220" y="-185.5" font-family="Helvetica,sans-Serif" font-size="10.00">/scratch/dragon/sources</text>
<text text-anchor="start" x="220" y="-174.5" font-family="Helvetica,sans-Serif" font-size="10.00">/Consatt/tests/src/testCsaPoly</text>
<text text-anchor="middle" x="293" y="-163.5" font-family="Helvetica,sans-Serif" font-size="10.00">Converter.cpp</text>
</a>
</g>
</g>
<!-- Node3&#45;&gt;Node5 -->
<g id="edge4" class="edge">
<title>Node3&#45;&gt;Node5</title>
<path fill="none" stroke="midnightblue" d="M878.6,-249.47C768.56,-242.28 559.29,-226.11 383,-198 380.15,-197.55 377.26,-197.06 374.35,-196.54"/>
<polygon fill="midnightblue" stroke="midnightblue" points="878.4,-252.97 888.61,-250.12 878.86,-245.98 878.4,-252.97"/>
</g>
<!-- Node6 -->
<g id="node6" class="node">
<title>Node6</title>
<g id="a_node6"><a xlink:href="test_csa_vector_8cpp.html" target="_top" xlink:title=" ">
<polygon fill="white" stroke="black" points="392.5,-162 392.5,-192 583.5,-192 583.5,-162 392.5,-162"/>
<text text-anchor="start" x="400.5" y="-180" font-family="Helvetica,sans-Serif" font-size="10.00">/scratch/dragon/sources</text>
<text text-anchor="middle" x="488" y="-169" font-family="Helvetica,sans-Serif" font-size="10.00">/Consatt/tests/src/testCsaVector.cpp</text>
</a>
</g>
</g>
<!-- Node3&#45;&gt;Node6 -->
<g id="edge5" class="edge">
<title>Node3&#45;&gt;Node6</title>
<path fill="none" stroke="midnightblue" d="M878.87,-243.09C805.33,-232.36 690.86,-215.13 592,-198 581.31,-196.15 570.03,-194.09 558.99,-192.01"/>
<polygon fill="midnightblue" stroke="midnightblue" points="878.57,-246.58 888.97,-244.56 879.58,-239.66 878.57,-246.58"/>
</g>
<!-- Node7 -->
<g id="node7" class="node">
<title>Node7</title>
<g id="a_node7"><a xlink:href="test_lib_types_8cpp.html" target="_top" xlink:title=" ">
<polygon fill="white" stroke="black" points="601.5,-162 601.5,-192 786.5,-192 786.5,-162 601.5,-162"/>
<text text-anchor="start" x="609.5" y="-180" font-family="Helvetica,sans-Serif" font-size="10.00">/scratch/dragon/sources</text>
<text text-anchor="middle" x="694" y="-169" font-family="Helvetica,sans-Serif" font-size="10.00">/Consatt/tests/src/testLibTypes.cpp</text>
</a>
</g>
</g>
<!-- Node3&#45;&gt;Node7 -->
<g id="edge6" class="edge">
<title>Node3&#45;&gt;Node7</title>
<path fill="none" stroke="midnightblue" d="M878.98,-231.87C834.9,-219.03 780.72,-203.25 742.41,-192.1"/>
<polygon fill="midnightblue" stroke="midnightblue" points="878.22,-235.29 888.8,-234.72 880.18,-228.57 878.22,-235.29"/>
</g>
<!-- Node8 -->
<g id="node8" class="node">
<title>Node8</title>
<g id="a_node8"><a xlink:href="test_statistics_for_csa_vector_8cpp.html" target="_top" xlink:title=" ">
<polygon fill="white" stroke="black" points="1717,-156.5 1717,-197.5 1885,-197.5 1885,-156.5 1717,-156.5"/>
<text text-anchor="start" x="1725" y="-185.5" font-family="Helvetica,sans-Serif" font-size="10.00">/scratch/dragon/sources</text>
<text text-anchor="start" x="1725" y="-174.5" font-family="Helvetica,sans-Serif" font-size="10.00">/Consatt/tests/src/testStatistics</text>
<text text-anchor="middle" x="1801" y="-163.5" font-family="Helvetica,sans-Serif" font-size="10.00">ForCsaVector.cpp</text>
</a>
</g>
</g>
<!-- Node3&#45;&gt;Node8 -->
<g id="edge7" class="edge">
<title>Node3&#45;&gt;Node8</title>
<path fill="none" stroke="midnightblue" d="M1031.54,-251.72C1167.92,-246.9 1461.64,-233.07 1707,-198 1710.22,-197.54 1713.5,-197.03 1716.8,-196.49"/>
<polygon fill="midnightblue" stroke="midnightblue" points="1031.08,-248.23 1021.21,-252.08 1031.33,-255.23 1031.08,-248.23"/>
</g>
<!-- Node9 -->
<g id="node9" class="node">
<title>Node9</title>
<g id="a_node9"><a xlink:href="_csa_loger_8h.html" target="_top" xlink:title=" ">
<polygon fill="white" stroke="black" points="842,-156.5 842,-197.5 974,-197.5 974,-156.5 842,-156.5"/>
<text text-anchor="start" x="850" y="-185.5" font-family="Helvetica,sans-Serif" font-size="10.00">/scratch/dragon/sources</text>
<text text-anchor="start" x="850" y="-174.5" font-family="Helvetica,sans-Serif" font-size="10.00">/Consatt/utils/include</text>
<text text-anchor="middle" x="908" y="-163.5" font-family="Helvetica,sans-Serif" font-size="10.00">/CsaLoger.h</text>
</a>
</g>
</g>
<!-- Node3&#45;&gt;Node9 -->
<g id="edge8" class="edge">
<title>Node3&#45;&gt;Node9</title>
<path fill="none" stroke="midnightblue" d="M931.18,-226.05C924.9,-216.57 918.67,-206.18 914.08,-197.51"/>
<polygon fill="midnightblue" stroke="midnightblue" points="928.37,-228.15 936.91,-234.43 934.15,-224.2 928.37,-228.15"/>
</g>
<!-- Node13 -->
<g id="node13" class="node">
<title>Node13</title>
<g id="a_node13"><a xlink:href="_csa_shape_generator_8h.html" target="_top" xlink:title=" ">
<polygon fill="white" stroke="black" points="936,-78.5 936,-119.5 1068,-119.5 1068,-78.5 936,-78.5"/>
<text text-anchor="start" x="944" y="-107.5" font-family="Helvetica,sans-Serif" font-size="10.00">/scratch/dragon/sources</text>
<text text-anchor="start" x="944" y="-96.5" font-family="Helvetica,sans-Serif" font-size="10.00">/Consatt/utils/include</text>
<text text-anchor="middle" x="1002" y="-85.5" font-family="Helvetica,sans-Serif" font-size="10.00">/CsaShapeGenerator.h</text>
</a>
</g>
</g>
<!-- Node3&#45;&gt;Node13 -->
<g id="edge20" class="edge">
<title>Node3&#45;&gt;Node13</title>
<path fill="none" stroke="midnightblue" d="M971.14,-225.46C975.5,-216.85 979.87,-207.22 983,-198 991.98,-171.58 997.18,-139.63 999.8,-119.56"/>
<polygon fill="midnightblue" stroke="midnightblue" points="968.02,-223.87 966.48,-234.35 974.22,-227.12 968.02,-223.87"/>
</g>
<!-- Node16 -->
<g id="node16" class="node">
<title>Node16</title>
<g id="a_node16"><a xlink:href="_csa_lined_file_parser_8h.html" target="_top" xlink:title=" ">
<polygon fill="white" stroke="black" points="1030,-156.5 1030,-197.5 1162,-197.5 1162,-156.5 1030,-156.5"/>
<text text-anchor="start" x="1038" y="-185.5" font-family="Helvetica,sans-Serif" font-size="10.00">/scratch/dragon/sources</text>
<text text-anchor="start" x="1038" y="-174.5" font-family="Helvetica,sans-Serif" font-size="10.00">/Consatt/utils/include</text>
<text text-anchor="middle" x="1096" y="-163.5" font-family="Helvetica,sans-Serif" font-size="10.00">/CsaLinedFileParser.h</text>
</a>
</g>
</g>
<!-- Node3&#45;&gt;Node16 -->
<g id="edge16" class="edge">
<title>Node3&#45;&gt;Node16</title>
<path fill="none" stroke="midnightblue" d="M1000.22,-229.63C1019.49,-219.24 1041.66,-207.29 1059.81,-197.51"/>
<polygon fill="midnightblue" stroke="midnightblue" points="998.45,-226.6 991.31,-234.43 1001.77,-232.76 998.45,-226.6"/>
</g>
<!-- Node18 -->
<g id="node18" class="node">
<title>Node18</title>
<g id="a_node18"><a xlink:href="_csa_opp_status_8h.html" target="_top" xlink:title=" ">
<polygon fill="white" stroke="black" points="1180,-156.5 1180,-197.5 1312,-197.5 1312,-156.5 1180,-156.5"/>
<text text-anchor="start" x="1188" y="-185.5" font-family="Helvetica,sans-Serif" font-size="10.00">/scratch/dragon/sources</text>
<text text-anchor="start" x="1188" y="-174.5" font-family="Helvetica,sans-Serif" font-size="10.00">/Consatt/utils/include</text>
<text text-anchor="middle" x="1246" y="-163.5" font-family="Helvetica,sans-Serif" font-size="10.00">/CsaOppStatus.h</text>
</a>
</g>
</g>
<!-- Node3&#45;&gt;Node18 -->
<g id="edge18" class="edge">
<title>Node3&#45;&gt;Node18</title>
<path fill="none" stroke="midnightblue" d="M1030.95,-234.45C1072.37,-223.75 1124.52,-210.22 1171,-198 1173.87,-197.25 1176.8,-196.47 1179.75,-195.69"/>
<polygon fill="midnightblue" stroke="midnightblue" points="1030.01,-231.07 1021.21,-236.96 1031.76,-237.85 1030.01,-231.07"/>
</g>
<!-- Node20 -->
<g id="node20" class="node">
<title>Node20</title>
<g id="a_node20"><a xlink:href="_log_file_worker_8h.html" target="_top" xlink:title=" ">
<polygon fill="white" stroke="black" points="458,-78.5 458,-119.5 590,-119.5 590,-78.5 458,-78.5"/>
<text text-anchor="start" x="466" y="-107.5" font-family="Helvetica,sans-Serif" font-size="10.00">/scratch/dragon/sources</text>
<text text-anchor="start" x="466" y="-96.5" font-family="Helvetica,sans-Serif" font-size="10.00">/Consatt/utils/include</text>
<text text-anchor="middle" x="524" y="-85.5" font-family="Helvetica,sans-Serif" font-size="10.00">/LogFileWorker.h</text>
</a>
</g>
</g>
<!-- Node3&#45;&gt;Node20 -->
<g id="edge21" class="edge">
<title>Node3&#45;&gt;Node20</title>
<path fill="none" stroke="midnightblue" d="M890.74,-230.34C871.27,-221.67 850.44,-210.79 833,-198 812.7,-183.11 816.99,-168.26 795,-156 717.64,-112.88 685.41,-139.43 599,-120 596.11,-119.35 593.16,-118.66 590.18,-117.95"/>
<polygon fill="midnightblue" stroke="midnightblue" points="889.6,-233.66 900.17,-234.42 892.38,-227.24 889.6,-233.66"/>
</g>
<!-- Node21 -->
<g id="node21" class="node">
<title>Node21</title>
<g id="a_node21"><a xlink:href="_csa_linear_converter_8cc.html" target="_top" xlink:title=" ">
<polygon fill="white" stroke="black" points="1330.5,-156.5 1330.5,-197.5 1479.5,-197.5 1479.5,-156.5 1330.5,-156.5"/>
<text text-anchor="start" x="1338.5" y="-185.5" font-family="Helvetica,sans-Serif" font-size="10.00">/scratch/dragon/sources</text>
<text text-anchor="start" x="1338.5" y="-174.5" font-family="Helvetica,sans-Serif" font-size="10.00">/Consatt/utils/src/CsaLinear</text>
<text text-anchor="middle" x="1405" y="-163.5" font-family="Helvetica,sans-Serif" font-size="10.00">Converter.cc</text>
</a>
</g>
</g>
<!-- Node3&#45;&gt;Node21 -->
<g id="edge23" class="edge">
<title>Node3&#45;&gt;Node21</title>
<path fill="none" stroke="midnightblue" d="M1031.26,-244.19C1105.52,-234.19 1221.43,-217.44 1321,-198 1324.09,-197.4 1327.24,-196.76 1330.41,-196.09"/>
<polygon fill="midnightblue" stroke="midnightblue" points="1030.51,-240.75 1021.07,-245.55 1031.44,-247.69 1030.51,-240.75"/>
</g>
<!-- Node22 -->
<g id="node22" class="node">
<title>Node22</title>
<g id="a_node22"><a xlink:href="_csa_poly_converter_8cc.html" target="_top" xlink:title=" ">
<polygon fill="white" stroke="black" points="1497.5,-162 1497.5,-192 1698.5,-192 1698.5,-162 1497.5,-162"/>
<text text-anchor="start" x="1505.5" y="-180" font-family="Helvetica,sans-Serif" font-size="10.00">/scratch/dragon/sources</text>
<text text-anchor="middle" x="1598" y="-169" font-family="Helvetica,sans-Serif" font-size="10.00">/Consatt/utils/src/CsaPolyConverter.cc</text>
</a>
</g>
</g>
<!-- Node3&#45;&gt;Node22 -->
<g id="edge24" class="edge">
<title>Node3&#45;&gt;Node22</title>
<path fill="none" stroke="midnightblue" d="M1031.32,-247.8C1134.99,-238.96 1326,-221.2 1488,-198 1500.1,-196.27 1512.91,-194.17 1525.35,-192.01"/>
<polygon fill="midnightblue" stroke="midnightblue" points="1030.93,-244.32 1021.26,-248.65 1031.52,-251.29 1030.93,-244.32"/>
</g>
<!-- Node9&#45;&gt;Node3 -->
<g id="edge9" class="edge">
<title>Node9&#45;&gt;Node3</title>
<path fill="none" stroke="midnightblue" d="M931.77,-205.88C938.05,-215.36 944.29,-225.74 948.88,-234.43"/>
<polygon fill="midnightblue" stroke="midnightblue" points="934.58,-203.78 926.04,-197.51 928.8,-207.74 934.58,-203.78"/>
</g>
<!-- Node10 -->
<g id="node10" class="node">
<title>Node10</title>
<g id="a_node10"><a xlink:href="_consatt_generic_utils_8h.html" target="_top" xlink:title=" ">
<polygon fill="white" stroke="black" points="608,-78.5 608,-119.5 740,-119.5 740,-78.5 608,-78.5"/>
<text text-anchor="start" x="616" y="-107.5" font-family="Helvetica,sans-Serif" font-size="10.00">/scratch/dragon/sources</text>
<text text-anchor="start" x="616" y="-96.5" font-family="Helvetica,sans-Serif" font-size="10.00">/Consatt/utils/include</text>
<text text-anchor="middle" x="674" y="-85.5" font-family="Helvetica,sans-Serif" font-size="10.00">/ConsattGenericUtils.h</text>
</a>
</g>
</g>
<!-- Node9&#45;&gt;Node10 -->
<g id="edge10" class="edge">
<title>Node9&#45;&gt;Node10</title>
<path fill="none" stroke="midnightblue" d="M838.12,-153.3C805,-142.55 765.82,-129.82 734.06,-119.51"/>
<polygon fill="midnightblue" stroke="midnightblue" points="837.15,-156.67 847.74,-156.43 839.31,-150.01 837.15,-156.67"/>
</g>
<!-- Node9&#45;&gt;Node13 -->
<g id="edge13" class="edge">
<title>Node9&#45;&gt;Node13</title>
<path fill="none" stroke="midnightblue" d="M940.08,-150.06C952.46,-140.06 966.37,-128.8 977.87,-119.51"/>
<polygon fill="midnightblue" stroke="midnightblue" points="937.78,-147.42 932.21,-156.43 942.18,-152.86 937.78,-147.42"/>
</g>
<!-- Node15 -->
<g id="node15" class="node">
<title>Node15</title>
<g id="a_node15"><a xlink:href="_csa_loger_8cc.html" target="_top" xlink:title=" ">
<polygon fill="white" stroke="black" points="758.5,-84 758.5,-114 917.5,-114 917.5,-84 758.5,-84"/>
<text text-anchor="start" x="766.5" y="-102" font-family="Helvetica,sans-Serif" font-size="10.00">/scratch/dragon/sources</text>
<text text-anchor="middle" x="838" y="-91" font-family="Helvetica,sans-Serif" font-size="10.00">/Consatt/utils/src/CsaLoger.cc</text>
</a>
</g>
</g>
<!-- Node9&#45;&gt;Node15 -->
<g id="edge15" class="edge">
<title>Node9&#45;&gt;Node15</title>
<path fill="none" stroke="midnightblue" d="M883.12,-148.99C872.31,-137.25 860.1,-123.99 851.1,-114.23"/>
<polygon fill="midnightblue" stroke="midnightblue" points="880.62,-151.44 889.97,-156.43 885.77,-146.7 880.62,-151.44"/>
</g>
<!-- Node11 -->
<g id="node11" class="node">
<title>Node11</title>
<g id="a_node11"><a xlink:href="_consatt_generic_utils_8cc.html" target="_top" xlink:title=" ">
<polygon fill="white" stroke="black" points="633,-0.5 633,-41.5 809,-41.5 809,-0.5 633,-0.5"/>
<text text-anchor="start" x="641" y="-29.5" font-family="Helvetica,sans-Serif" font-size="10.00">/scratch/dragon/sources</text>
<text text-anchor="start" x="641" y="-18.5" font-family="Helvetica,sans-Serif" font-size="10.00">/Consatt/utils/src/ConsattGeneric</text>
<text text-anchor="middle" x="721" y="-7.5" font-family="Helvetica,sans-Serif" font-size="10.00">Utils.cc</text>
</a>
</g>
</g>
<!-- Node10&#45;&gt;Node11 -->
<g id="edge11" class="edge">
<title>Node10&#45;&gt;Node11</title>
<path fill="none" stroke="midnightblue" d="M691.47,-69.76C697.28,-60.35 703.62,-50.1 708.94,-41.51"/>
<polygon fill="midnightblue" stroke="midnightblue" points="688.39,-68.08 686.1,-78.43 694.34,-71.76 688.39,-68.08"/>
</g>
<!-- Node12 -->
<g id="node12" class="node">
<title>Node12</title>
<g id="a_node12"><a xlink:href="_log_file_worker_8cc.html" target="_top" xlink:title=" ">
<polygon fill="white" stroke="black" points="433,-6 433,-36 615,-36 615,-6 433,-6"/>
<text text-anchor="start" x="441" y="-24" font-family="Helvetica,sans-Serif" font-size="10.00">/scratch/dragon/sources</text>
<text text-anchor="middle" x="524" y="-13" font-family="Helvetica,sans-Serif" font-size="10.00">/Consatt/utils/src/LogFileWorker.cc</text>
</a>
</g>
</g>
<!-- Node10&#45;&gt;Node12 -->
<g id="edge12" class="edge">
<title>Node10&#45;&gt;Node12</title>
<path fill="none" stroke="midnightblue" d="M626.25,-73.81C601.81,-61.43 572.91,-46.78 552.08,-36.23"/>
<polygon fill="midnightblue" stroke="midnightblue" points="624.87,-77.03 635.37,-78.43 628.03,-70.79 624.87,-77.03"/>
</g>
<!-- Node14 -->
<g id="node14" class="node">
<title>Node14</title>
<g id="a_node14"><a xlink:href="test_csa_shape_gernerator_8cpp.html" target="_top" xlink:title=" ">
<polygon fill="white" stroke="black" points="916.5,-0.5 916.5,-41.5 1087.5,-41.5 1087.5,-0.5 916.5,-0.5"/>
<text text-anchor="start" x="924.5" y="-29.5" font-family="Helvetica,sans-Serif" font-size="10.00">/scratch/dragon/sources</text>
<text text-anchor="start" x="924.5" y="-18.5" font-family="Helvetica,sans-Serif" font-size="10.00">/Consatt/tests/src/testCsaShape</text>
<text text-anchor="middle" x="1002" y="-7.5" font-family="Helvetica,sans-Serif" font-size="10.00">Gernerator.cpp</text>
</a>
</g>
</g>
<!-- Node13&#45;&gt;Node14 -->
<g id="edge14" class="edge">
<title>Node13&#45;&gt;Node14</title>
<path fill="none" stroke="midnightblue" d="M1002,-68.3C1002,-59.3 1002,-49.65 1002,-41.51"/>
<polygon fill="midnightblue" stroke="midnightblue" points="998.5,-68.43 1002,-78.43 1005.5,-68.43 998.5,-68.43"/>
</g>
<!-- Node17 -->
<g id="node17" class="node">
<title>Node17</title>
<g id="a_node17"><a xlink:href="_csa_lined_file_parser_8cc.html" target="_top" xlink:title=" ">
<polygon fill="white" stroke="black" points="1086.5,-78.5 1086.5,-119.5 1249.5,-119.5 1249.5,-78.5 1086.5,-78.5"/>
<text text-anchor="start" x="1094.5" y="-107.5" font-family="Helvetica,sans-Serif" font-size="10.00">/scratch/dragon/sources</text>
<text text-anchor="start" x="1094.5" y="-96.5" font-family="Helvetica,sans-Serif" font-size="10.00">/Consatt/utils/src/CsaLinedFile</text>
<text text-anchor="middle" x="1168" y="-85.5" font-family="Helvetica,sans-Serif" font-size="10.00">Parser.cc</text>
</a>
</g>
</g>
<!-- Node16&#45;&gt;Node17 -->
<g id="edge17" class="edge">
<title>Node16&#45;&gt;Node17</title>
<path fill="none" stroke="midnightblue" d="M1121.66,-148.92C1130.86,-139.2 1141.05,-128.45 1149.52,-119.51"/>
<polygon fill="midnightblue" stroke="midnightblue" points="1118.88,-146.76 1114.54,-156.43 1123.96,-151.58 1118.88,-146.76"/>
</g>
<!-- Node19 -->
<g id="node19" class="node">
<title>Node19</title>
<g id="a_node19"><a xlink:href="_csa_opp_status_8cc.html" target="_top" xlink:title=" ">
<polygon fill="white" stroke="black" points="1267.5,-84 1267.5,-114 1450.5,-114 1450.5,-84 1267.5,-84"/>
<text text-anchor="start" x="1275.5" y="-102" font-family="Helvetica,sans-Serif" font-size="10.00">/scratch/dragon/sources</text>
<text text-anchor="middle" x="1359" y="-91" font-family="Helvetica,sans-Serif" font-size="10.00">/Consatt/utils/src/CsaOppStatus.cc</text>
</a>
</g>
</g>
<!-- Node18&#45;&gt;Node19 -->
<g id="edge19" class="edge">
<title>Node18&#45;&gt;Node19</title>
<path fill="none" stroke="midnightblue" d="M1283.68,-150.66C1301.72,-138.53 1322.64,-124.45 1337.85,-114.23"/>
<polygon fill="midnightblue" stroke="midnightblue" points="1281.44,-147.94 1275.1,-156.43 1285.35,-153.75 1281.44,-147.94"/>
</g>
<!-- Node20&#45;&gt;Node12 -->
<g id="edge22" class="edge">
<title>Node20&#45;&gt;Node12</title>
<path fill="none" stroke="midnightblue" d="M524,-68.28C524,-57.25 524,-45.25 524,-36.23"/>
<polygon fill="midnightblue" stroke="midnightblue" points="520.5,-68.43 524,-78.43 527.5,-68.43 520.5,-68.43"/>
</g>
<!-- Node23&#45;&gt;Node3 -->
<g id="edge26" class="edge">
<title>Node23&#45;&gt;Node3</title>
<path fill="none" stroke="midnightblue" d="M1062.75,-380.09C1062.54,-359.37 1059.28,-332.03 1046,-312 1035.65,-296.38 1019.3,-284.37 1003.3,-275.55"/>
<polygon fill="midnightblue" stroke="midnightblue" points="1059.25,-380.2 1062.62,-390.24 1066.25,-380.29 1059.25,-380.2"/>
</g>
<!-- Node24 -->
<g id="node24" class="node">
<title>Node24</title>
<g id="a_node24"><a xlink:href="_statistics_for_csa_vector_8h.html" target="_top" xlink:title=" ">
<polygon fill="white" stroke="black" points="1093.5,-312.5 1093.5,-353.5 1230.5,-353.5 1230.5,-312.5 1093.5,-312.5"/>
<text text-anchor="start" x="1101.5" y="-341.5" font-family="Helvetica,sans-Serif" font-size="10.00">/scratch/dragon/sources</text>
<text text-anchor="start" x="1101.5" y="-330.5" font-family="Helvetica,sans-Serif" font-size="10.00">/Consatt/utils/include</text>
<text text-anchor="middle" x="1162" y="-319.5" font-family="Helvetica,sans-Serif" font-size="10.00">/StatisticsForCsaVector.h</text>
</a>
</g>
</g>
<!-- Node23&#45;&gt;Node24 -->
<g id="edge27" class="edge">
<title>Node23&#45;&gt;Node24</title>
<path fill="none" stroke="midnightblue" d="M1095.09,-384.35C1108.48,-374.27 1123.6,-362.89 1136.08,-353.51"/>
<polygon fill="midnightblue" stroke="midnightblue" points="1092.9,-381.62 1087.01,-390.43 1097.1,-387.21 1092.9,-381.62"/>
</g>
<!-- Node24&#45;&gt;Node3 -->
<g id="edge28" class="edge">
<title>Node24&#45;&gt;Node3</title>
<path fill="none" stroke="midnightblue" d="M1099.05,-308.89C1069.99,-298.22 1035.87,-285.69 1008.13,-275.51"/>
<polygon fill="midnightblue" stroke="midnightblue" points="1098.1,-312.27 1108.69,-312.43 1100.51,-305.7 1098.1,-312.27"/>
</g>
<!-- Node24&#45;&gt;Node8 -->
<g id="edge29" class="edge">
<title>Node24&#45;&gt;Node8</title>
<path fill="none" stroke="midnightblue" d="M1240.71,-313.03C1362.78,-283.61 1596.5,-227.29 1719.96,-197.53"/>
<polygon fill="midnightblue" stroke="midnightblue" points="1239.59,-309.7 1230.69,-315.45 1241.23,-316.51 1239.59,-309.7"/>
</g>
</g>
</svg>
