<?xml version="1.0" encoding="UTF-8" standalone="no"?>
<!DOCTYPE svg PUBLIC "-//W3C//DTD SVG 1.1//EN"
 "http://www.w3.org/Graphics/SVG/1.1/DTD/svg11.dtd">
<!-- Generated by graphviz version 2.43.0 (0)
 -->
<!-- Title: /scratch/dragon/sources/Consatt/utils/include/StatisticsForCsaVector.h Pages: 1 -->
<!--zoomable 362 -->
<svg id="main" version="1.1" xmlns="http://www.w3.org/2000/svg" xmlns:xlink="http://www.w3.org/1999/xlink" xml:space="preserve" onload="init(evt)">
<style type="text/css"><![CDATA[
.edge:hover path { stroke: red; }
.edge:hover polygon { stroke: red; fill: red; }
]]></style>
<script type="text/javascript"><![CDATA[
var edges = document.getElementsByTagName('g');
if (edges && edges.length) {
  for (var i=0;i<edges.length;i++) {
    if (edges[i].id.substr(0,4)=='edge') {
      edges[i].setAttribute('class','edge');
    }
  }
}
]]></script>
        <defs>
                <circle id="rim" cx="0" cy="0" r="7"/>
                <circle id="rim2" cx="0" cy="0" r="3.5"/>
                <g id="zoomPlus">
                        <use xlink:href="#rim" fill="#404040">
                                <set attributeName="fill" to="#808080" begin="zoomplus.mouseover" end="zoomplus.mouseout"/>
                        </use>
                        <path d="M-4,0h8M0,-4v8" fill="none" stroke="white" stroke-width="1.5" pointer-events="none"/>
                </g>
                <g id="zoomMin">
                        <use xlink:href="#rim" fill="#404040">
                                <set attributeName="fill" to="#808080" begin="zoomminus.mouseover" end="zoomminus.mouseout"/>
                        </use>
                        <path d="M-4,0h8" fill="none" stroke="white" stroke-width="1.5" pointer-events="none"/>
                </g>
                <g id="dirArrow">
                        <path fill="none" stroke="white" stroke-width="1.5" d="M0,-3.0v7 M-2.5,-0.5L0,-3.0L2.5,-0.5"/>
                </g>
               <g id="resetDef">
                       <use xlink:href="#rim2" fill="#404040">
                               <set attributeName="fill" to="#808080" begin="reset.mouseover" end="reset.mouseout"/>
                       </use>
               </g>
        </defs>

<script type="text/javascript">
var viewWidth = 1893;
var viewHeight = 362;
var sectionId = 'dynsection-1';
</script>
<script xlink:href="svgpan.js"/>
<svg id="graph" class="graph">
<g id="viewport">
<title>/scratch/dragon/sources/Consatt/utils/include/StatisticsForCsaVector.h</title>
<polygon fill="white" stroke="transparent" points="-4,4 -4,-358 1889,-358 1889,4 -4,4"/>
<!-- Node1 -->
<g id="node1" class="node">
<title>Node1</title>
<g id="a_node1"><a xlink:title=" ">
<polygon fill="#bfbfbf" stroke="black" points="414.5,-312.5 414.5,-353.5 551.5,-353.5 551.5,-312.5 414.5,-312.5"/>
<text text-anchor="start" x="422.5" y="-341.5" font-family="Helvetica,sans-Serif" font-size="10.00">/scratch/dragon/sources</text>
<text text-anchor="start" x="422.5" y="-330.5" font-family="Helvetica,sans-Serif" font-size="10.00">/Consatt/utils/include</text>
<text text-anchor="middle" x="483" y="-319.5" font-family="Helvetica,sans-Serif" font-size="10.00">/StatisticsForCsaVector.h</text>
</a>
</g>
</g>
<!-- Node2 -->
<g id="node2" class="node">
<title>Node2</title>
<g id="a_node2"><a xlink:href="_csa_lib_typedefs_8h.html" target="_top" xlink:title=" ">
<polygon fill="white" stroke="black" points="816,-234.5 816,-275.5 948,-275.5 948,-234.5 816,-234.5"/>
<text text-anchor="start" x="824" y="-263.5" font-family="Helvetica,sans-Serif" font-size="10.00">/scratch/dragon/sources</text>
<text text-anchor="start" x="824" y="-252.5" font-family="Helvetica,sans-Serif" font-size="10.00">/Consatt/core/include</text>
<text text-anchor="middle" x="882" y="-241.5" font-family="Helvetica,sans-Serif" font-size="10.00">/CsaLibTypedefs.h</text>
</a>
</g>
</g>
<!-- Node1&#45;&gt;Node2 -->
<g id="edge1" class="edge">
<title>Node1&#45;&gt;Node2</title>
<path fill="none" stroke="midnightblue" d="M561.83,-316.99C636.12,-302.83 746.17,-281.87 815.96,-268.58"/>
<polygon fill="midnightblue" stroke="midnightblue" points="560.76,-313.63 551.59,-318.94 562.07,-320.5 560.76,-313.63"/>
</g>
<!-- Node7 -->
<g id="node7" class="node">
<title>Node7</title>
<g id="a_node7"><a xlink:href="test_statistics_for_csa_vector_8cpp.html" target="_top" xlink:title=" ">
<polygon fill="white" stroke="black" points="0,-156.5 0,-197.5 168,-197.5 168,-156.5 0,-156.5"/>
<text text-anchor="start" x="8" y="-185.5" font-family="Helvetica,sans-Serif" font-size="10.00">/scratch/dragon/sources</text>
<text text-anchor="start" x="8" y="-174.5" font-family="Helvetica,sans-Serif" font-size="10.00">/Consatt/tests/src/testStatistics</text>
<text text-anchor="middle" x="84" y="-163.5" font-family="Helvetica,sans-Serif" font-size="10.00">ForCsaVector.cpp</text>
</a>
</g>
</g>
<!-- Node1&#45;&gt;Node7 -->
<g id="edge24" class="edge">
<title>Node1&#45;&gt;Node7</title>
<path fill="none" stroke="midnightblue" d="M422.71,-308.73C344.19,-278.42 208.28,-225.97 134.75,-197.59"/>
<polygon fill="midnightblue" stroke="midnightblue" points="421.88,-312.16 432.47,-312.5 424.4,-305.63 421.88,-312.16"/>
</g>
<!-- Node3 -->
<g id="node3" class="node">
<title>Node3</title>
<g id="a_node3"><a xlink:href="_csa_app_manager_8cc.html" target="_top" xlink:title=" ">
<polygon fill="white" stroke="black" points="1691,-162 1691,-192 1885,-192 1885,-162 1691,-162"/>
<text text-anchor="start" x="1699" y="-180" font-family="Helvetica,sans-Serif" font-size="10.00">/scratch/dragon/sources</text>
<text text-anchor="middle" x="1788" y="-169" font-family="Helvetica,sans-Serif" font-size="10.00">/Consatt/core/src/CsaAppManager.cc</text>
</a>
</g>
</g>
<!-- Node2&#45;&gt;Node3 -->
<g id="edge2" class="edge">
<title>Node2&#45;&gt;Node3</title>
<path fill="none" stroke="midnightblue" d="M958.5,-251.61C1101.23,-246.51 1417.62,-232.08 1682,-198 1694.35,-196.41 1707.44,-194.29 1720.05,-192.04"/>
<polygon fill="midnightblue" stroke="midnightblue" points="957.98,-248.13 948.11,-251.98 958.23,-255.13 957.98,-248.13"/>
</g>
<!-- Node4 -->
<g id="node4" class="node">
<title>Node4</title>
<g id="a_node4"><a xlink:href="test_csa_poly_converter_8cpp.html" target="_top" xlink:title=" ">
<polygon fill="white" stroke="black" points="186,-156.5 186,-197.5 348,-197.5 348,-156.5 186,-156.5"/>
<text text-anchor="start" x="194" y="-185.5" font-family="Helvetica,sans-Serif" font-size="10.00">/scratch/dragon/sources</text>
<text text-anchor="start" x="194" y="-174.5" font-family="Helvetica,sans-Serif" font-size="10.00">/Consatt/tests/src/testCsaPoly</text>
<text text-anchor="middle" x="267" y="-163.5" font-family="Helvetica,sans-Serif" font-size="10.00">Converter.cpp</text>
</a>
</g>
</g>
<!-- Node2&#45;&gt;Node4 -->
<g id="edge3" class="edge">
<title>Node2&#45;&gt;Node4</title>
<path fill="none" stroke="midnightblue" d="M805.53,-248.55C703,-240.63 515.51,-223.98 357,-198 354.16,-197.53 351.27,-197.03 348.36,-196.51"/>
<polygon fill="midnightblue" stroke="midnightblue" points="805.55,-252.06 815.79,-249.34 806.09,-245.09 805.55,-252.06"/>
</g>
<!-- Node5 -->
<g id="node5" class="node">
<title>Node5</title>
<g id="a_node5"><a xlink:href="test_csa_vector_8cpp.html" target="_top" xlink:title=" ">
<polygon fill="white" stroke="black" points="366.5,-162 366.5,-192 557.5,-192 557.5,-162 366.5,-162"/>
<text text-anchor="start" x="374.5" y="-180" font-family="Helvetica,sans-Serif" font-size="10.00">/scratch/dragon/sources</text>
<text text-anchor="middle" x="462" y="-169" font-family="Helvetica,sans-Serif" font-size="10.00">/Consatt/tests/src/testCsaVector.cpp</text>
</a>
</g>
</g>
<!-- Node2&#45;&gt;Node5 -->
<g id="edge4" class="edge">
<title>Node2&#45;&gt;Node5</title>
<path fill="none" stroke="midnightblue" d="M805.96,-240.85C741.92,-229.69 647.91,-213.13 566,-198 555.69,-196.1 544.82,-194.05 534.15,-192.02"/>
<polygon fill="midnightblue" stroke="midnightblue" points="805.53,-244.32 815.98,-242.59 806.73,-237.43 805.53,-244.32"/>
</g>
<!-- Node6 -->
<g id="node6" class="node">
<title>Node6</title>
<g id="a_node6"><a xlink:href="test_lib_types_8cpp.html" target="_top" xlink:title=" ">
<polygon fill="white" stroke="black" points="575.5,-162 575.5,-192 760.5,-192 760.5,-162 575.5,-162"/>
<text text-anchor="start" x="583.5" y="-180" font-family="Helvetica,sans-Serif" font-size="10.00">/scratch/dragon/sources</text>
<text text-anchor="middle" x="668" y="-169" font-family="Helvetica,sans-Serif" font-size="10.00">/Consatt/tests/src/testLibTypes.cpp</text>
</a>
</g>
</g>
<!-- Node2&#45;&gt;Node6 -->
<g id="edge5" class="edge">
<title>Node2&#45;&gt;Node6</title>
<path fill="none" stroke="midnightblue" d="M817.05,-230.93C781.41,-218.28 738.37,-202.99 707.72,-192.11"/>
<polygon fill="midnightblue" stroke="midnightblue" points="816.29,-234.38 826.89,-234.43 818.64,-227.78 816.29,-234.38"/>
</g>
<!-- Node2&#45;&gt;Node7 -->
<g id="edge6" class="edge">
<title>Node2&#45;&gt;Node7</title>
<path fill="none" stroke="midnightblue" d="M805.34,-251.24C675.46,-245.82 404.1,-231.29 177,-198 174.06,-197.57 171.07,-197.1 168.06,-196.6"/>
<polygon fill="midnightblue" stroke="midnightblue" points="805.44,-254.75 815.58,-251.66 805.73,-247.75 805.44,-254.75"/>
</g>
<!-- Node8 -->
<g id="node8" class="node">
<title>Node8</title>
<g id="a_node8"><a xlink:href="_csa_loger_8h.html" target="_top" xlink:title=" ">
<polygon fill="white" stroke="black" points="816,-156.5 816,-197.5 948,-197.5 948,-156.5 816,-156.5"/>
<text text-anchor="start" x="824" y="-185.5" font-family="Helvetica,sans-Serif" font-size="10.00">/scratch/dragon/sources</text>
<text text-anchor="start" x="824" y="-174.5" font-family="Helvetica,sans-Serif" font-size="10.00">/Consatt/utils/include</text>
<text text-anchor="middle" x="882" y="-163.5" font-family="Helvetica,sans-Serif" font-size="10.00">/CsaLoger.h</text>
</a>
</g>
</g>
<!-- Node2&#45;&gt;Node8 -->
<g id="edge7" class="edge">
<title>Node2&#45;&gt;Node8</title>
<path fill="none" stroke="midnightblue" d="M875.4,-224.3C875.08,-215.3 875.28,-205.65 876.02,-197.51"/>
<polygon fill="midnightblue" stroke="midnightblue" points="871.91,-224.66 876.01,-234.43 878.9,-224.23 871.91,-224.66"/>
</g>
<!-- Node12 -->
<g id="node12" class="node">
<title>Node12</title>
<g id="a_node12"><a xlink:href="_csa_shape_generator_8h.html" target="_top" xlink:title=" ">
<polygon fill="white" stroke="black" points="910,-78.5 910,-119.5 1042,-119.5 1042,-78.5 910,-78.5"/>
<text text-anchor="start" x="918" y="-107.5" font-family="Helvetica,sans-Serif" font-size="10.00">/scratch/dragon/sources</text>
<text text-anchor="start" x="918" y="-96.5" font-family="Helvetica,sans-Serif" font-size="10.00">/Consatt/utils/include</text>
<text text-anchor="middle" x="976" y="-85.5" font-family="Helvetica,sans-Serif" font-size="10.00">/CsaShapeGenerator.h</text>
</a>
</g>
</g>
<!-- Node2&#45;&gt;Node12 -->
<g id="edge19" class="edge">
<title>Node2&#45;&gt;Node12</title>
<path fill="none" stroke="midnightblue" d="M927.11,-228.64C938.44,-220.26 949.49,-209.96 957,-198 972.11,-173.93 975.66,-140.48 976.26,-119.55"/>
<polygon fill="midnightblue" stroke="midnightblue" points="925.06,-225.8 918.86,-234.4 929.07,-231.54 925.06,-225.8"/>
</g>
<!-- Node15 -->
<g id="node15" class="node">
<title>Node15</title>
<g id="a_node15"><a xlink:href="_csa_lined_file_parser_8h.html" target="_top" xlink:title=" ">
<polygon fill="white" stroke="black" points="1004,-156.5 1004,-197.5 1136,-197.5 1136,-156.5 1004,-156.5"/>
<text text-anchor="start" x="1012" y="-185.5" font-family="Helvetica,sans-Serif" font-size="10.00">/scratch/dragon/sources</text>
<text text-anchor="start" x="1012" y="-174.5" font-family="Helvetica,sans-Serif" font-size="10.00">/Consatt/utils/include</text>
<text text-anchor="middle" x="1070" y="-163.5" font-family="Helvetica,sans-Serif" font-size="10.00">/CsaLinedFileParser.h</text>
</a>
</g>
</g>
<!-- Node2&#45;&gt;Node15 -->
<g id="edge15" class="edge">
<title>Node2&#45;&gt;Node15</title>
<path fill="none" stroke="midnightblue" d="M939.86,-230.61C966.1,-220 996.78,-207.6 1021.75,-197.51"/>
<polygon fill="midnightblue" stroke="midnightblue" points="938.37,-227.44 930.41,-234.43 941,-233.93 938.37,-227.44"/>
</g>
<!-- Node17 -->
<g id="node17" class="node">
<title>Node17</title>
<g id="a_node17"><a xlink:href="_csa_opp_status_8h.html" target="_top" xlink:title=" ">
<polygon fill="white" stroke="black" points="1154,-156.5 1154,-197.5 1286,-197.5 1286,-156.5 1154,-156.5"/>
<text text-anchor="start" x="1162" y="-185.5" font-family="Helvetica,sans-Serif" font-size="10.00">/scratch/dragon/sources</text>
<text text-anchor="start" x="1162" y="-174.5" font-family="Helvetica,sans-Serif" font-size="10.00">/Consatt/utils/include</text>
<text text-anchor="middle" x="1220" y="-163.5" font-family="Helvetica,sans-Serif" font-size="10.00">/CsaOppStatus.h</text>
</a>
</g>
</g>
<!-- Node2&#45;&gt;Node17 -->
<g id="edge17" class="edge">
<title>Node2&#45;&gt;Node17</title>
<path fill="none" stroke="midnightblue" d="M958.08,-238.87C1010.72,-228.13 1082.31,-213.02 1145,-198 1147.88,-197.31 1150.82,-196.59 1153.79,-195.85"/>
<polygon fill="midnightblue" stroke="midnightblue" points="957.24,-235.46 948.14,-240.89 958.64,-242.32 957.24,-235.46"/>
</g>
<!-- Node19 -->
<g id="node19" class="node">
<title>Node19</title>
<g id="a_node19"><a xlink:href="_log_file_worker_8h.html" target="_top" xlink:title=" ">
<polygon fill="white" stroke="black" points="432,-78.5 432,-119.5 564,-119.5 564,-78.5 432,-78.5"/>
<text text-anchor="start" x="440" y="-107.5" font-family="Helvetica,sans-Serif" font-size="10.00">/scratch/dragon/sources</text>
<text text-anchor="start" x="440" y="-96.5" font-family="Helvetica,sans-Serif" font-size="10.00">/Consatt/utils/include</text>
<text text-anchor="middle" x="498" y="-85.5" font-family="Helvetica,sans-Serif" font-size="10.00">/LogFileWorker.h</text>
</a>
</g>
</g>
<!-- Node2&#45;&gt;Node19 -->
<g id="edge20" class="edge">
<title>Node2&#45;&gt;Node19</title>
<path fill="none" stroke="midnightblue" d="M844.83,-228.45C832.39,-219.33 818.72,-208.66 807,-198 788.38,-181.06 790.99,-168.26 769,-156 691.64,-112.88 659.41,-139.43 573,-120 570.11,-119.35 567.16,-118.66 564.18,-117.95"/>
<polygon fill="midnightblue" stroke="midnightblue" points="843.04,-231.48 853.2,-234.49 847.14,-225.8 843.04,-231.48"/>
</g>
<!-- Node20 -->
<g id="node20" class="node">
<title>Node20</title>
<g id="a_node20"><a xlink:href="_csa_linear_converter_8cc.html" target="_top" xlink:title=" ">
<polygon fill="white" stroke="black" points="1304.5,-156.5 1304.5,-197.5 1453.5,-197.5 1453.5,-156.5 1304.5,-156.5"/>
<text text-anchor="start" x="1312.5" y="-185.5" font-family="Helvetica,sans-Serif" font-size="10.00">/scratch/dragon/sources</text>
<text text-anchor="start" x="1312.5" y="-174.5" font-family="Helvetica,sans-Serif" font-size="10.00">/Consatt/utils/src/CsaLinear</text>
<text text-anchor="middle" x="1379" y="-163.5" font-family="Helvetica,sans-Serif" font-size="10.00">Converter.cc</text>
</a>
</g>
</g>
<!-- Node2&#45;&gt;Node20 -->
<g id="edge22" class="edge">
<title>Node2&#45;&gt;Node20</title>
<path fill="none" stroke="midnightblue" d="M958.25,-245.95C1041.4,-236.64 1178.23,-219.76 1295,-198 1298.09,-197.42 1301.25,-196.81 1304.43,-196.16"/>
<polygon fill="midnightblue" stroke="midnightblue" points="957.68,-242.49 948.13,-247.08 958.45,-249.45 957.68,-242.49"/>
</g>
<!-- Node21 -->
<g id="node21" class="node">
<title>Node21</title>
<g id="a_node21"><a xlink:href="_csa_poly_converter_8cc.html" target="_top" xlink:title=" ">
<polygon fill="white" stroke="black" points="1471.5,-162 1471.5,-192 1672.5,-192 1672.5,-162 1471.5,-162"/>
<text text-anchor="start" x="1479.5" y="-180" font-family="Helvetica,sans-Serif" font-size="10.00">/scratch/dragon/sources</text>
<text text-anchor="middle" x="1572" y="-169" font-family="Helvetica,sans-Serif" font-size="10.00">/Consatt/utils/src/CsaPolyConverter.cc</text>
</a>
</g>
</g>
<!-- Node2&#45;&gt;Node21 -->
<g id="edge23" class="edge">
<title>Node2&#45;&gt;Node21</title>
<path fill="none" stroke="midnightblue" d="M958.57,-248.71C1069.93,-240.55 1282.95,-223.15 1463,-198 1475.19,-196.3 1488.1,-194.19 1500.61,-192"/>
<polygon fill="midnightblue" stroke="midnightblue" points="958.16,-245.23 948.44,-249.45 958.66,-252.22 958.16,-245.23"/>
</g>
<!-- Node8&#45;&gt;Node2 -->
<g id="edge8" class="edge">
<title>Node8&#45;&gt;Node2</title>
<path fill="none" stroke="midnightblue" d="M888.6,-207.63C888.92,-216.62 888.72,-226.27 887.99,-234.43"/>
<polygon fill="midnightblue" stroke="midnightblue" points="892.09,-207.27 887.98,-197.51 885.1,-207.7 892.09,-207.27"/>
</g>
<!-- Node9 -->
<g id="node9" class="node">
<title>Node9</title>
<g id="a_node9"><a xlink:href="_consatt_generic_utils_8h.html" target="_top" xlink:title=" ">
<polygon fill="white" stroke="black" points="582,-78.5 582,-119.5 714,-119.5 714,-78.5 582,-78.5"/>
<text text-anchor="start" x="590" y="-107.5" font-family="Helvetica,sans-Serif" font-size="10.00">/scratch/dragon/sources</text>
<text text-anchor="start" x="590" y="-96.5" font-family="Helvetica,sans-Serif" font-size="10.00">/Consatt/utils/include</text>
<text text-anchor="middle" x="648" y="-85.5" font-family="Helvetica,sans-Serif" font-size="10.00">/ConsattGenericUtils.h</text>
</a>
</g>
</g>
<!-- Node8&#45;&gt;Node9 -->
<g id="edge9" class="edge">
<title>Node8&#45;&gt;Node9</title>
<path fill="none" stroke="midnightblue" d="M812.12,-153.3C779,-142.55 739.82,-129.82 708.06,-119.51"/>
<polygon fill="midnightblue" stroke="midnightblue" points="811.15,-156.67 821.74,-156.43 813.31,-150.01 811.15,-156.67"/>
</g>
<!-- Node8&#45;&gt;Node12 -->
<g id="edge12" class="edge">
<title>Node8&#45;&gt;Node12</title>
<path fill="none" stroke="midnightblue" d="M914.08,-150.06C926.46,-140.06 940.37,-128.8 951.87,-119.51"/>
<polygon fill="midnightblue" stroke="midnightblue" points="911.78,-147.42 906.21,-156.43 916.18,-152.86 911.78,-147.42"/>
</g>
<!-- Node14 -->
<g id="node14" class="node">
<title>Node14</title>
<g id="a_node14"><a xlink:href="_csa_loger_8cc.html" target="_top" xlink:title=" ">
<polygon fill="white" stroke="black" points="732.5,-84 732.5,-114 891.5,-114 891.5,-84 732.5,-84"/>
<text text-anchor="start" x="740.5" y="-102" font-family="Helvetica,sans-Serif" font-size="10.00">/scratch/dragon/sources</text>
<text text-anchor="middle" x="812" y="-91" font-family="Helvetica,sans-Serif" font-size="10.00">/Consatt/utils/src/CsaLoger.cc</text>
</a>
</g>
</g>
<!-- Node8&#45;&gt;Node14 -->
<g id="edge14" class="edge">
<title>Node8&#45;&gt;Node14</title>
<path fill="none" stroke="midnightblue" d="M857.12,-148.99C846.31,-137.25 834.1,-123.99 825.1,-114.23"/>
<polygon fill="midnightblue" stroke="midnightblue" points="854.62,-151.44 863.97,-156.43 859.77,-146.7 854.62,-151.44"/>
</g>
<!-- Node10 -->
<g id="node10" class="node">
<title>Node10</title>
<g id="a_node10"><a xlink:href="_consatt_generic_utils_8cc.html" target="_top" xlink:title=" ">
<polygon fill="white" stroke="black" points="607,-0.5 607,-41.5 783,-41.5 783,-0.5 607,-0.5"/>
<text text-anchor="start" x="615" y="-29.5" font-family="Helvetica,sans-Serif" font-size="10.00">/scratch/dragon/sources</text>
<text text-anchor="start" x="615" y="-18.5" font-family="Helvetica,sans-Serif" font-size="10.00">/Consatt/utils/src/ConsattGeneric</text>
<text text-anchor="middle" x="695" y="-7.5" font-family="Helvetica,sans-Serif" font-size="10.00">Utils.cc</text>
</a>
</g>
</g>
<!-- Node9&#45;&gt;Node10 -->
<g id="edge10" class="edge">
<title>Node9&#45;&gt;Node10</title>
<path fill="none" stroke="midnightblue" d="M665.47,-69.76C671.28,-60.35 677.62,-50.1 682.94,-41.51"/>
<polygon fill="midnightblue" stroke="midnightblue" points="662.39,-68.08 660.1,-78.43 668.34,-71.76 662.39,-68.08"/>
</g>
<!-- Node11 -->
<g id="node11" class="node">
<title>Node11</title>
<g id="a_node11"><a xlink:href="_log_file_worker_8cc.html" target="_top" xlink:title=" ">
<polygon fill="white" stroke="black" points="407,-6 407,-36 589,-36 589,-6 407,-6"/>
<text text-anchor="start" x="415" y="-24" font-family="Helvetica,sans-Serif" font-size="10.00">/scratch/dragon/sources</text>
<text text-anchor="middle" x="498" y="-13" font-family="Helvetica,sans-Serif" font-size="10.00">/Consatt/utils/src/LogFileWorker.cc</text>
</a>
</g>
</g>
<!-- Node9&#45;&gt;Node11 -->
<g id="edge11" class="edge">
<title>Node9&#45;&gt;Node11</title>
<path fill="none" stroke="midnightblue" d="M600.25,-73.81C575.81,-61.43 546.91,-46.78 526.08,-36.23"/>
<polygon fill="midnightblue" stroke="midnightblue" points="598.87,-77.03 609.37,-78.43 602.03,-70.79 598.87,-77.03"/>
</g>
<!-- Node13 -->
<g id="node13" class="node">
<title>Node13</title>
<g id="a_node13"><a xlink:href="test_csa_shape_gernerator_8cpp.html" target="_top" xlink:title=" ">
<polygon fill="white" stroke="black" points="890.5,-0.5 890.5,-41.5 1061.5,-41.5 1061.5,-0.5 890.5,-0.5"/>
<text text-anchor="start" x="898.5" y="-29.5" font-family="Helvetica,sans-Serif" font-size="10.00">/scratch/dragon/sources</text>
<text text-anchor="start" x="898.5" y="-18.5" font-family="Helvetica,sans-Serif" font-size="10.00">/Consatt/tests/src/testCsaShape</text>
<text text-anchor="middle" x="976" y="-7.5" font-family="Helvetica,sans-Serif" font-size="10.00">Gernerator.cpp</text>
</a>
</g>
</g>
<!-- Node12&#45;&gt;Node13 -->
<g id="edge13" class="edge">
<title>Node12&#45;&gt;Node13</title>
<path fill="none" stroke="midnightblue" d="M976,-68.3C976,-59.3 976,-49.65 976,-41.51"/>
<polygon fill="midnightblue" stroke="midnightblue" points="972.5,-68.43 976,-78.43 979.5,-68.43 972.5,-68.43"/>
</g>
<!-- Node16 -->
<g id="node16" class="node">
<title>Node16</title>
<g id="a_node16"><a xlink:href="_csa_lined_file_parser_8cc.html" target="_top" xlink:title=" ">
<polygon fill="white" stroke="black" points="1060.5,-78.5 1060.5,-119.5 1223.5,-119.5 1223.5,-78.5 1060.5,-78.5"/>
<text text-anchor="start" x="1068.5" y="-107.5" font-family="Helvetica,sans-Serif" font-size="10.00">/scratch/dragon/sources</text>
<text text-anchor="start" x="1068.5" y="-96.5" font-family="Helvetica,sans-Serif" font-size="10.00">/Consatt/utils/src/CsaLinedFile</text>
<text text-anchor="middle" x="1142" y="-85.5" font-family="Helvetica,sans-Serif" font-size="10.00">Parser.cc</text>
</a>
</g>
</g>
<!-- Node15&#45;&gt;Node16 -->
<g id="edge16" class="edge">
<title>Node15&#45;&gt;Node16</title>
<path fill="none" stroke="midnightblue" d="M1095.66,-148.92C1104.86,-139.2 1115.05,-128.45 1123.52,-119.51"/>
<polygon fill="midnightblue" stroke="midnightblue" points="1092.88,-146.76 1088.54,-156.43 1097.96,-151.58 1092.88,-146.76"/>
</g>
<!-- Node18 -->
<g id="node18" class="node">
<title>Node18</title>
<g id="a_node18"><a xlink:href="_csa_opp_status_8cc.html" target="_top" xlink:title=" ">
<polygon fill="white" stroke="black" points="1241.5,-84 1241.5,-114 1424.5,-114 1424.5,-84 1241.5,-84"/>
<text text-anchor="start" x="1249.5" y="-102" font-family="Helvetica,sans-Serif" font-size="10.00">/scratch/dragon/sources</text>
<text text-anchor="middle" x="1333" y="-91" font-family="Helvetica,sans-Serif" font-size="10.00">/Consatt/utils/src/CsaOppStatus.cc</text>
</a>
</g>
</g>
<!-- Node17&#45;&gt;Node18 -->
<g id="edge18" class="edge">
<title>Node17&#45;&gt;Node18</title>
<path fill="none" stroke="midnightblue" d="M1257.68,-150.66C1275.72,-138.53 1296.64,-124.45 1311.85,-114.23"/>
<polygon fill="midnightblue" stroke="midnightblue" points="1255.44,-147.94 1249.1,-156.43 1259.35,-153.75 1255.44,-147.94"/>
</g>
<!-- Node19&#45;&gt;Node11 -->
<g id="edge21" class="edge">
<title>Node19&#45;&gt;Node11</title>
<path fill="none" stroke="midnightblue" d="M498,-68.28C498,-57.25 498,-45.25 498,-36.23"/>
<polygon fill="midnightblue" stroke="midnightblue" points="494.5,-68.43 498,-78.43 501.5,-68.43 494.5,-68.43"/>
</g>
</g>
</svg>
        <g id="navigator" transform="translate(0 0)" fill="#404254">
                <rect fill="#f2f5e9" fill-opacity="0.5" stroke="#606060" stroke-width=".5" x="0" y="0" width="60" height="60"/>
                <use id="zoomplus" xlink:href="#zoomPlus" x="17" y="9" onmousedown="handleZoom(evt,'in')"/>
                <use id="zoomminus" xlink:href="#zoomMin" x="42" y="9" onmousedown="handleZoom(evt,'out')"/>
                <use id="reset" xlink:href="#resetDef" x="30" y="36" onmousedown="handleReset()"/>
                <g id="arrowUp" xlink:href="#dirArrow" transform="translate(30 24)" onmousedown="handlePan(0,-1)">
                  <use xlink:href="#rim" fill="#404040">
                        <set attributeName="fill" to="#808080" begin="arrowUp.mouseover" end="arrowUp.mouseout"/>
                  </use>
                  <path fill="none" stroke="white" stroke-width="1.5" d="M0,-3.0v7 M-2.5,-0.5L0,-3.0L2.5,-0.5"/>
                </g>
                <g id="arrowRight" xlink:href="#dirArrow" transform="rotate(90) translate(36 -43)" onmousedown="handlePan(1,0)">
                  <use xlink:href="#rim" fill="#404040">
                        <set attributeName="fill" to="#808080" begin="arrowRight.mouseover" end="arrowRight.mouseout"/>
                  </use>
                  <path fill="none" stroke="white" stroke-width="1.5" d="M0,-3.0v7 M-2.5,-0.5L0,-3.0L2.5,-0.5"/>
                </g>
                <g id="arrowDown" xlink:href="#dirArrow" transform="rotate(180) translate(-30 -48)" onmousedown="handlePan(0,1)">
                  <use xlink:href="#rim" fill="#404040">
                        <set attributeName="fill" to="#808080" begin="arrowDown.mouseover" end="arrowDown.mouseout"/>
                  </use>
                  <path fill="none" stroke="white" stroke-width="1.5" d="M0,-3.0v7 M-2.5,-0.5L0,-3.0L2.5,-0.5"/>
                </g>
                <g id="arrowLeft" xlink:href="#dirArrow" transform="rotate(270) translate(-36 17)" onmousedown="handlePan(-1,0)">
                  <use xlink:href="#rim" fill="#404040">
                        <set attributeName="fill" to="#808080" begin="arrowLeft.mouseover" end="arrowLeft.mouseout"/>
                  </use>
                  <path fill="none" stroke="white" stroke-width="1.5" d="M0,-3.0v7 M-2.5,-0.5L0,-3.0L2.5,-0.5"/>
                </g>
        </g>
        <svg viewBox="0 0 15 15" width="100%" height="30px" preserveAspectRatio="xMaxYMin meet">
         <g id="arrow_out" transform="scale(0.3 0.3)">
          <a xlink:href="_statistics_for_csa_vector_8h__dep__incl_org.svg" target="_base">
           <rect id="button" ry="5" rx="5" y="6" x="6" height="38" width="38"
                fill="#f2f5e9" fill-opacity="0.5" stroke="#606060" stroke-width="1.0"/>
           <path id="arrow"
             d="M 11.500037,31.436501 C 11.940474,20.09759 22.043105,11.32322 32.158766,21.979434 L 37.068811,17.246167 C 37.068811,17.246167 37.088388,32 37.088388,32 L 22.160133,31.978069 C 22.160133,31.978069 26.997745,27.140456 26.997745,27.140456 C 18.528582,18.264221 13.291696,25.230495 11.500037,31.436501 z"
             style="fill:#404040;"/>
          </a>
         </g>
        </svg>
</svg>
