<?xml version="1.0" encoding="UTF-8" standalone="no"?>
<!DOCTYPE svg PUBLIC "-//W3C//DTD SVG 1.1//EN"
 "http://www.w3.org/Graphics/SVG/1.1/DTD/svg11.dtd">
<!-- Generated by graphviz version 2.43.0 (0)
 -->
<!-- Title: LinedFileParser Pages: 1 -->
<svg width="290pt" height="422pt"
 viewBox="0.00 0.00 290.00 422.00" xmlns="http://www.w3.org/2000/svg" xmlns:xlink="http://www.w3.org/1999/xlink">
<g id="graph0" class="graph" transform="scale(1 1) rotate(0) translate(4 418)">
<title>LinedFileParser</title>
<polygon fill="white" stroke="transparent" points="-4,4 -4,-418 286,-418 286,4 -4,4"/>
<!-- Node1 -->
<g id="node1" class="node">
<title>Node1</title>
<g id="a_node1"><a xlink:title=" ">
<polygon fill="#bfbfbf" stroke="black" points="77,-0.5 77,-19.5 167,-19.5 167,-0.5 77,-0.5"/>
<text text-anchor="middle" x="122" y="-7.5" font-family="Helvetica,sans-Serif" font-size="10.00">LinedFileParser</text>
</a>
</g>
</g>
<!-- Node2 -->
<g id="node2" class="node">
<title>Node2</title>
<g id="a_node2"><a xlink:title="STL class.">
<polygon fill="white" stroke="#bfbfbf" points="38.5,-144.5 38.5,-163.5 117.5,-163.5 117.5,-144.5 38.5,-144.5"/>
<text text-anchor="middle" x="78" y="-151.5" font-family="Helvetica,sans-Serif" font-size="10.00">std::ifstream</text>
</a>
</g>
</g>
<!-- Node2&#45;&gt;Node1 -->
<g id="edge1" class="edge">
<title>Node2&#45;&gt;Node1</title>
<path fill="none" stroke="#9a32cd" stroke-dasharray="5,2" d="M76.68,-134.23C75.82,-110.47 77.08,-68.92 93,-38 96.78,-30.66 103.39,-24.27 109.34,-19.55"/>
<polygon fill="#9a32cd" stroke="#9a32cd" points="73.19,-134.54 77.21,-144.34 80.18,-134.17 73.19,-134.54"/>
<text text-anchor="middle" x="117" y="-79.5" font-family="Helvetica,sans-Serif" font-size="10.00"> _dataFile</text>
</g>
<!-- Node3 -->
<g id="node3" class="node">
<title>Node3</title>
<g id="a_node3"><a xlink:title="STL class.">
<polygon fill="white" stroke="#bfbfbf" points="9,-201.5 9,-231.5 119,-231.5 119,-201.5 9,-201.5"/>
<text text-anchor="start" x="17" y="-219.5" font-family="Helvetica,sans-Serif" font-size="10.00">std::basic_ifstream</text>
<text text-anchor="middle" x="64" y="-208.5" font-family="Helvetica,sans-Serif" font-size="10.00">&lt; char &gt;</text>
</a>
</g>
</g>
<!-- Node3&#45;&gt;Node2 -->
<g id="edge2" class="edge">
<title>Node3&#45;&gt;Node2</title>
<path fill="none" stroke="midnightblue" d="M69.52,-191.67C71.81,-181.74 74.33,-170.85 76.02,-163.54"/>
<polygon fill="midnightblue" stroke="midnightblue" points="66.09,-190.94 67.25,-201.47 72.91,-192.51 66.09,-190.94"/>
</g>
<!-- Node4 -->
<g id="node4" class="node">
<title>Node4</title>
<g id="a_node4"><a xlink:title="STL class.">
<polygon fill="white" stroke="#bfbfbf" points="11,-269.5 11,-299.5 117,-299.5 117,-269.5 11,-269.5"/>
<text text-anchor="start" x="19" y="-287.5" font-family="Helvetica,sans-Serif" font-size="10.00">std::basic_istream</text>
<text text-anchor="middle" x="64" y="-276.5" font-family="Helvetica,sans-Serif" font-size="10.00">&lt; Char &gt;</text>
</a>
</g>
</g>
<!-- Node4&#45;&gt;Node3 -->
<g id="edge3" class="edge">
<title>Node4&#45;&gt;Node3</title>
<path fill="none" stroke="midnightblue" d="M64,-259.03C64,-249.86 64,-239.74 64,-231.79"/>
<polygon fill="midnightblue" stroke="midnightblue" points="60.5,-259.18 64,-269.18 67.5,-259.18 60.5,-259.18"/>
</g>
<!-- Node5 -->
<g id="node5" class="node">
<title>Node5</title>
<g id="a_node5"><a xlink:title="STL class.">
<polygon fill="white" stroke="#bfbfbf" points="0,-337.5 0,-356.5 128,-356.5 128,-337.5 0,-337.5"/>
<text text-anchor="middle" x="64" y="-344.5" font-family="Helvetica,sans-Serif" font-size="10.00">std::basic_ios&lt; Char &gt;</text>
</a>
</g>
</g>
<!-- Node5&#45;&gt;Node4 -->
<g id="edge4" class="edge">
<title>Node5&#45;&gt;Node4</title>
<path fill="none" stroke="midnightblue" d="M64,-327.22C64,-318.36 64,-307.96 64,-299.76"/>
<polygon fill="midnightblue" stroke="midnightblue" points="60.5,-327.33 64,-337.33 67.5,-327.33 60.5,-327.33"/>
</g>
<!-- Node6 -->
<g id="node6" class="node">
<title>Node6</title>
<g id="a_node6"><a xlink:title="STL class.">
<polygon fill="white" stroke="#bfbfbf" points="24,-394.5 24,-413.5 104,-413.5 104,-394.5 24,-394.5"/>
<text text-anchor="middle" x="64" y="-401.5" font-family="Helvetica,sans-Serif" font-size="10.00">std::ios_base</text>
</a>
</g>
</g>
<!-- Node6&#45;&gt;Node5 -->
<g id="edge5" class="edge">
<title>Node6&#45;&gt;Node5</title>
<path fill="none" stroke="midnightblue" d="M64,-384.12C64,-374.82 64,-364.06 64,-356.71"/>
<polygon fill="midnightblue" stroke="midnightblue" points="60.5,-384.41 64,-394.41 67.5,-384.41 60.5,-384.41"/>
</g>
<!-- Node7 -->
<g id="node7" class="node">
<title>Node7</title>
<g id="a_node7"><a xlink:title="STL class.">
<polygon fill="white" stroke="#bfbfbf" points="152.5,-144.5 152.5,-163.5 217.5,-163.5 217.5,-144.5 152.5,-144.5"/>
<text text-anchor="middle" x="185" y="-151.5" font-family="Helvetica,sans-Serif" font-size="10.00">std::string</text>
</a>
</g>
</g>
<!-- Node7&#45;&gt;Node1 -->
<g id="edge6" class="edge">
<title>Node7&#45;&gt;Node1</title>
<path fill="none" stroke="#9a32cd" stroke-dasharray="5,2" d="M179.56,-134.73C172.31,-111.52 158.35,-70.58 141,-38 137.55,-31.52 132.8,-24.77 128.91,-19.64"/>
<polygon fill="#9a32cd" stroke="#9a32cd" points="176.22,-135.77 182.49,-144.32 182.92,-133.73 176.22,-135.77"/>
<text text-anchor="middle" x="229" y="-118" font-family="Helvetica,sans-Serif" font-size="10.00"> _fileName</text>
<text text-anchor="middle" x="229" y="-107" font-family="Helvetica,sans-Serif" font-size="10.00">_currentLine</text>
<text text-anchor="middle" x="229" y="-96" font-family="Helvetica,sans-Serif" font-size="10.00">_filePath</text>
<text text-anchor="middle" x="229" y="-85" font-family="Helvetica,sans-Serif" font-size="10.00">_delimiter</text>
<text text-anchor="middle" x="229" y="-74" font-family="Helvetica,sans-Serif" font-size="10.00">_directoryFileList</text>
<text text-anchor="start" x="176" y="-63" font-family="Helvetica,sans-Serif" font-size="10.00">_directoryListFileType</text>
<text text-anchor="middle" x="229" y="-52" font-family="Helvetica,sans-Serif" font-size="10.00">Filter</text>
<text text-anchor="middle" x="229" y="-41" font-family="Helvetica,sans-Serif" font-size="10.00">_dataFileFullName</text>
</g>
<!-- Node8 -->
<g id="node8" class="node">
<title>Node8</title>
<g id="a_node8"><a xlink:title="STL class.">
<polygon fill="white" stroke="#bfbfbf" points="137,-201.5 137,-231.5 241,-231.5 241,-201.5 137,-201.5"/>
<text text-anchor="start" x="145" y="-219.5" font-family="Helvetica,sans-Serif" font-size="10.00">std::basic_string&lt;</text>
<text text-anchor="middle" x="189" y="-208.5" font-family="Helvetica,sans-Serif" font-size="10.00"> char &gt;</text>
</a>
</g>
</g>
<!-- Node8&#45;&gt;Node7 -->
<g id="edge7" class="edge">
<title>Node8&#45;&gt;Node7</title>
<path fill="none" stroke="midnightblue" d="M187.4,-191.35C186.75,-181.51 186.04,-170.78 185.56,-163.54"/>
<polygon fill="midnightblue" stroke="midnightblue" points="183.92,-191.72 188.07,-201.47 190.9,-191.26 183.92,-191.72"/>
</g>
</g>
</svg>
