<?xml version="1.0" encoding="UTF-8" standalone="no"?>
<!DOCTYPE svg PUBLIC "-//W3C//DTD SVG 1.1//EN"
 "http://www.w3.org/Graphics/SVG/1.1/DTD/svg11.dtd">
<!-- Generated by graphviz version 2.43.0 (0)
 -->
<!-- Title: /scratch/dragon/sources/DAction/include/ActionDeviceAccess.h Pages: 1 -->
<svg width="1160pt" height="173pt"
 viewBox="0.00 0.00 1159.50 173.00" xmlns="http://www.w3.org/2000/svg" xmlns:xlink="http://www.w3.org/1999/xlink">
<g id="graph0" class="graph" transform="scale(1 1) rotate(0) translate(4 169)">
<title>/scratch/dragon/sources/DAction/include/ActionDeviceAccess.h</title>
<polygon fill="white" stroke="transparent" points="-4,4 -4,-169 1155.5,-169 1155.5,4 -4,4"/>
<!-- Node1 -->
<g id="node1" class="node">
<title>Node1</title>
<g id="a_node1"><a xlink:title=" ">
<polygon fill="#bfbfbf" stroke="black" points="616,-123.5 616,-164.5 780,-164.5 780,-123.5 616,-123.5"/>
<text text-anchor="start" x="624" y="-152.5" font-family="Helvetica,sans-Serif" font-size="10.00">/scratch/dragon/sources</text>
<text text-anchor="start" x="624" y="-141.5" font-family="Helvetica,sans-Serif" font-size="10.00">/DAction/include/ActionDevice</text>
<text text-anchor="middle" x="698" y="-130.5" font-family="Helvetica,sans-Serif" font-size="10.00">Access.h</text>
</a>
</g>
</g>
<!-- Node2 -->
<g id="node2" class="node">
<title>Node2</title>
<g id="a_node2"><a xlink:href="_action_base_8h.html" target="_top" xlink:title=" ">
<polygon fill="white" stroke="black" points="64,-67.5 64,-86.5 144,-86.5 144,-67.5 64,-67.5"/>
<text text-anchor="middle" x="104" y="-74.5" font-family="Helvetica,sans-Serif" font-size="10.00">ActionBase.h</text>
</a>
</g>
</g>
<!-- Node1&#45;&gt;Node2 -->
<g id="edge1" class="edge">
<title>Node1&#45;&gt;Node2</title>
<path fill="none" stroke="midnightblue" d="M615.72,-134C490.69,-120.31 256.61,-94.7 154.17,-83.49"/>
<polygon fill="midnightblue" stroke="midnightblue" points="154.41,-80 144.09,-82.39 153.65,-86.95 154.41,-80"/>
</g>
<!-- Node4 -->
<g id="node4" class="node">
<title>Node4</title>
<g id="a_node4"><a xlink:href="_limiter_base_8h.html" target="_top" xlink:title=" ">
<polygon fill="white" stroke="black" points="285,-67.5 285,-86.5 369,-86.5 369,-67.5 285,-67.5"/>
<text text-anchor="middle" x="327" y="-74.5" font-family="Helvetica,sans-Serif" font-size="10.00">LimiterBase.h</text>
</a>
</g>
</g>
<!-- Node1&#45;&gt;Node4 -->
<g id="edge3" class="edge">
<title>Node1&#45;&gt;Node4</title>
<path fill="none" stroke="midnightblue" d="M615.66,-128.57C543.37,-115.91 440.43,-97.87 379,-87.11"/>
<polygon fill="midnightblue" stroke="midnightblue" points="379.6,-83.66 369.14,-85.38 378.39,-90.56 379.6,-83.66"/>
</g>
<!-- Node5 -->
<g id="node5" class="node">
<title>Node5</title>
<g id="a_node5"><a xlink:href="_register_accessor_8h.html" target="_top" xlink:title=" ">
<polygon fill="white" stroke="black" points="448.5,-67.5 448.5,-86.5 557.5,-86.5 557.5,-67.5 448.5,-67.5"/>
<text text-anchor="middle" x="503" y="-74.5" font-family="Helvetica,sans-Serif" font-size="10.00">RegisterAccessor.h</text>
</a>
</g>
</g>
<!-- Node1&#45;&gt;Node5 -->
<g id="edge5" class="edge">
<title>Node1&#45;&gt;Node5</title>
<path fill="none" stroke="midnightblue" d="M639.49,-123.5C606.62,-112.54 566.67,-99.22 538.51,-89.84"/>
<polygon fill="midnightblue" stroke="midnightblue" points="539.29,-86.41 528.7,-86.57 537.08,-93.05 539.29,-86.41"/>
</g>
<!-- Node13 -->
<g id="node13" class="node">
<title>Node13</title>
<g id="a_node13"><a xlink:title=" ">
<polygon fill="white" stroke="#bfbfbf" points="575.5,-67.5 575.5,-86.5 682.5,-86.5 682.5,-67.5 575.5,-67.5"/>
<text text-anchor="middle" x="629" y="-74.5" font-family="Helvetica,sans-Serif" font-size="10.00">boost/function.hpp</text>
</a>
</g>
</g>
<!-- Node1&#45;&gt;Node13 -->
<g id="edge13" class="edge">
<title>Node1&#45;&gt;Node13</title>
<path fill="none" stroke="midnightblue" d="M677.3,-123.5C667.13,-113.92 655.04,-102.53 645.5,-93.54"/>
<polygon fill="midnightblue" stroke="midnightblue" points="647.86,-90.96 638.18,-86.65 643.06,-96.06 647.86,-90.96"/>
</g>
<!-- Node14 -->
<g id="node14" class="node">
<title>Node14</title>
<g id="a_node14"><a xlink:title=" ">
<polygon fill="white" stroke="#bfbfbf" points="700.5,-67.5 700.5,-86.5 833.5,-86.5 833.5,-67.5 700.5,-67.5"/>
<text text-anchor="middle" x="767" y="-74.5" font-family="Helvetica,sans-Serif" font-size="10.00">boost/make_shared.hpp</text>
</a>
</g>
</g>
<!-- Node1&#45;&gt;Node14 -->
<g id="edge14" class="edge">
<title>Node1&#45;&gt;Node14</title>
<path fill="none" stroke="midnightblue" d="M718.7,-123.5C728.87,-113.92 740.96,-102.53 750.5,-93.54"/>
<polygon fill="midnightblue" stroke="midnightblue" points="752.94,-96.06 757.82,-86.65 748.14,-90.96 752.94,-96.06"/>
</g>
<!-- Node15 -->
<g id="node15" class="node">
<title>Node15</title>
<g id="a_node15"><a xlink:title=" ">
<polygon fill="white" stroke="#bfbfbf" points="851.5,-67.5 851.5,-86.5 970.5,-86.5 970.5,-67.5 851.5,-67.5"/>
<text text-anchor="middle" x="911" y="-74.5" font-family="Helvetica,sans-Serif" font-size="10.00">boost/shared_ptr.hpp</text>
</a>
</g>
</g>
<!-- Node1&#45;&gt;Node15 -->
<g id="edge15" class="edge">
<title>Node1&#45;&gt;Node15</title>
<path fill="none" stroke="midnightblue" d="M761.91,-123.5C798.13,-112.44 842.22,-98.99 873.02,-89.59"/>
<polygon fill="midnightblue" stroke="midnightblue" points="874.38,-92.83 882.93,-86.57 872.34,-86.14 874.38,-92.83"/>
</g>
<!-- Node16 -->
<g id="node16" class="node">
<title>Node16</title>
<g id="a_node16"><a xlink:title=" ">
<polygon fill="white" stroke="#bfbfbf" points="989,-67.5 989,-86.5 1049,-86.5 1049,-67.5 989,-67.5"/>
<text text-anchor="middle" x="1019" y="-74.5" font-family="Helvetica,sans-Serif" font-size="10.00">iostream</text>
</a>
</g>
</g>
<!-- Node1&#45;&gt;Node16 -->
<g id="edge16" class="edge">
<title>Node1&#45;&gt;Node16</title>
<path fill="none" stroke="midnightblue" d="M780.2,-127.37C834.1,-116.96 906.37,-102.69 979,-87.17"/>
<polygon fill="midnightblue" stroke="midnightblue" points="979.74,-90.59 988.79,-85.07 978.28,-83.74 979.74,-90.59"/>
</g>
<!-- Node17 -->
<g id="node17" class="node">
<title>Node17</title>
<g id="a_node17"><a xlink:title=" ">
<polygon fill="white" stroke="#bfbfbf" points="1067,-67.5 1067,-86.5 1111,-86.5 1111,-67.5 1067,-67.5"/>
<text text-anchor="middle" x="1089" y="-74.5" font-family="Helvetica,sans-Serif" font-size="10.00">string</text>
</a>
</g>
</g>
<!-- Node1&#45;&gt;Node17 -->
<g id="edge17" class="edge">
<title>Node1&#45;&gt;Node17</title>
<path fill="none" stroke="midnightblue" d="M780.06,-133.28C851.02,-124.18 956.46,-108.99 1056.74,-87.05"/>
<polygon fill="midnightblue" stroke="midnightblue" points="1057.73,-90.41 1066.74,-84.83 1056.22,-83.58 1057.73,-90.41"/>
</g>
<!-- Node3 -->
<g id="node3" class="node">
<title>Node3</title>
<g id="a_node3"><a xlink:title=" ">
<polygon fill="white" stroke="#bfbfbf" points="0,-6 0,-25 84,-25 84,-6 0,-6"/>
<text text-anchor="middle" x="42" y="-13" font-family="Helvetica,sans-Serif" font-size="10.00">boost/any.hpp</text>
</a>
</g>
</g>
<!-- Node2&#45;&gt;Node3 -->
<g id="edge2" class="edge">
<title>Node2&#45;&gt;Node3</title>
<path fill="none" stroke="midnightblue" d="M95.12,-67.48C85.54,-58.28 70.09,-43.46 58.31,-32.16"/>
<polygon fill="midnightblue" stroke="midnightblue" points="60.51,-29.41 50.87,-25.01 55.66,-34.46 60.51,-29.41"/>
</g>
<!-- Node4&#45;&gt;Node3 -->
<g id="edge4" class="edge">
<title>Node4&#45;&gt;Node3</title>
<path fill="none" stroke="midnightblue" d="M284.92,-69.04C237.89,-61.01 159.61,-46.84 93,-31 88.87,-30.02 84.57,-28.92 80.3,-27.78"/>
<polygon fill="midnightblue" stroke="midnightblue" points="81.05,-24.35 70.48,-25.07 79.19,-31.1 81.05,-24.35"/>
</g>
<!-- Node6 -->
<g id="node6" class="node">
<title>Node6</title>
<g id="a_node6"><a xlink:title=" ">
<polygon fill="white" stroke="#bfbfbf" points="102,-6 102,-25 218,-25 218,-6 102,-6"/>
<text text-anchor="middle" x="160" y="-13" font-family="Helvetica,sans-Serif" font-size="10.00">ChimeraTK/Device.h</text>
</a>
</g>
</g>
<!-- Node5&#45;&gt;Node6 -->
<g id="edge6" class="edge">
<title>Node5&#45;&gt;Node6</title>
<path fill="none" stroke="midnightblue" d="M448.39,-67.95C392.61,-59.52 303.56,-45.52 227,-31 220.78,-29.82 214.26,-28.51 207.83,-27.16"/>
<polygon fill="midnightblue" stroke="midnightblue" points="208.35,-23.7 197.84,-25.05 206.9,-30.55 208.35,-23.7"/>
</g>
<!-- Node7 -->
<g id="node7" class="node">
<title>Node7</title>
<g id="a_node7"><a xlink:title=" ">
<polygon fill="white" stroke="#bfbfbf" points="236,-6 236,-25 394,-25 394,-6 236,-6"/>
<text text-anchor="middle" x="315" y="-13" font-family="Helvetica,sans-Serif" font-size="10.00">ChimeraTK/DeviceBackend.h</text>
</a>
</g>
</g>
<!-- Node5&#45;&gt;Node7 -->
<g id="edge7" class="edge">
<title>Node5&#45;&gt;Node7</title>
<path fill="none" stroke="midnightblue" d="M476.06,-67.48C443.4,-57.14 388.18,-39.66 351.66,-28.1"/>
<polygon fill="midnightblue" stroke="midnightblue" points="352.48,-24.69 341.89,-25.01 350.36,-31.36 352.48,-24.69"/>
</g>
<!-- Node8 -->
<g id="node8" class="node">
<title>Node8</title>
<g id="a_node8"><a xlink:title=" ">
<polygon fill="white" stroke="#bfbfbf" points="412.5,-6 412.5,-25 593.5,-25 593.5,-6 412.5,-6"/>
<text text-anchor="middle" x="503" y="-13" font-family="Helvetica,sans-Serif" font-size="10.00">ChimeraTK/NDRegisterAccessor.h</text>
</a>
</g>
</g>
<!-- Node5&#45;&gt;Node8 -->
<g id="edge8" class="edge">
<title>Node5&#45;&gt;Node8</title>
<path fill="none" stroke="midnightblue" d="M503,-67.48C503,-59.08 503,-45.98 503,-35.16"/>
<polygon fill="midnightblue" stroke="midnightblue" points="506.5,-35.01 503,-25.01 499.5,-35.01 506.5,-35.01"/>
</g>
<!-- Node9 -->
<g id="node9" class="node">
<title>Node9</title>
<g id="a_node9"><a xlink:title=" ">
<polygon fill="white" stroke="#bfbfbf" points="612,-0.5 612,-30.5 778,-30.5 778,-0.5 612,-0.5"/>
<text text-anchor="start" x="620" y="-18.5" font-family="Helvetica,sans-Serif" font-size="10.00">ChimeraTK/NumericAddressed</text>
<text text-anchor="middle" x="695" y="-7.5" font-family="Helvetica,sans-Serif" font-size="10.00">Backend.h</text>
</a>
</g>
</g>
<!-- Node5&#45;&gt;Node9 -->
<g id="edge9" class="edge">
<title>Node5&#45;&gt;Node9</title>
<path fill="none" stroke="midnightblue" d="M530.51,-67.48C558.94,-58.66 604.1,-44.67 639.92,-33.57"/>
<polygon fill="midnightblue" stroke="midnightblue" points="641.23,-36.83 649.75,-30.52 639.16,-30.14 641.23,-36.83"/>
</g>
<!-- Node10 -->
<g id="node10" class="node">
<title>Node10</title>
<g id="a_node10"><a xlink:title=" ">
<polygon fill="white" stroke="#bfbfbf" points="796.5,-0.5 796.5,-30.5 943.5,-30.5 943.5,-0.5 796.5,-0.5"/>
<text text-anchor="start" x="804.5" y="-18.5" font-family="Helvetica,sans-Serif" font-size="10.00">ChimeraTK/VirtualFunction</text>
<text text-anchor="middle" x="870" y="-7.5" font-family="Helvetica,sans-Serif" font-size="10.00">Template.h</text>
</a>
</g>
</g>
<!-- Node5&#45;&gt;Node10 -->
<g id="edge10" class="edge">
<title>Node5&#45;&gt;Node10</title>
<path fill="none" stroke="midnightblue" d="M557.75,-67.59C612.85,-59.06 700.54,-45.33 786.34,-31.1"/>
<polygon fill="midnightblue" stroke="midnightblue" points="786.95,-34.54 796.24,-29.45 785.81,-27.64 786.95,-34.54"/>
</g>
<!-- Node11 -->
<g id="node11" class="node">
<title>Node11</title>
<g id="a_node11"><a xlink:title=" ">
<polygon fill="white" stroke="#bfbfbf" points="961.5,-0.5 961.5,-30.5 1076.5,-30.5 1076.5,-0.5 961.5,-0.5"/>
<text text-anchor="start" x="969.5" y="-18.5" font-family="Helvetica,sans-Serif" font-size="10.00">boost/fusion/include</text>
<text text-anchor="middle" x="1019" y="-7.5" font-family="Helvetica,sans-Serif" font-size="10.00">/at_key.hpp</text>
</a>
</g>
</g>
<!-- Node5&#45;&gt;Node11 -->
<g id="edge11" class="edge">
<title>Node5&#45;&gt;Node11</title>
<path fill="none" stroke="midnightblue" d="M557.79,-68.12C560.9,-67.73 563.99,-67.35 567,-67 734.88,-47.38 781.01,-57.15 951.42,-31.13"/>
<polygon fill="midnightblue" stroke="midnightblue" points="952.14,-34.56 961.49,-29.57 951.07,-27.64 952.14,-34.56"/>
</g>
<!-- Node12 -->
<g id="node12" class="node">
<title>Node12</title>
<g id="a_node12"><a xlink:title=" ">
<polygon fill="white" stroke="#bfbfbf" points="1094.5,-6 1094.5,-25 1151.5,-25 1151.5,-6 1094.5,-6"/>
<text text-anchor="middle" x="1123" y="-13" font-family="Helvetica,sans-Serif" font-size="10.00">typeinfo</text>
</a>
</g>
</g>
<!-- Node5&#45;&gt;Node12 -->
<g id="edge12" class="edge">
<title>Node5&#45;&gt;Node12</title>
<path fill="none" stroke="midnightblue" d="M557.78,-68.04C560.9,-67.67 563.99,-67.32 567,-67 796.96,-42.89 860.42,-81.77 1086,-31 1089,-30.32 1092.08,-29.45 1095.11,-28.45"/>
<polygon fill="midnightblue" stroke="midnightblue" points="1096.33,-31.73 1104.53,-25.01 1093.93,-25.16 1096.33,-31.73"/>
</g>
</g>
</svg>
