<?xml version="1.0" encoding="UTF-8" standalone="no"?>
<!DOCTYPE svg PUBLIC "-//W3C//DTD SVG 1.1//EN"
 "http://www.w3.org/Graphics/SVG/1.1/DTD/svg11.dtd">
<!-- Generated by graphviz version 2.43.0 (0)
 -->
<!-- Title: /scratch/dragon/sources/DAction/src/RegisterAccessor.cc Pages: 1 -->
<svg width="1058pt" height="159pt"
 viewBox="0.00 0.00 1057.50 159.00" xmlns="http://www.w3.org/2000/svg" xmlns:xlink="http://www.w3.org/1999/xlink">
<g id="graph0" class="graph" transform="scale(1 1) rotate(0) translate(4 155)">
<title>/scratch/dragon/sources/DAction/src/RegisterAccessor.cc</title>
<!-- Node1 -->
<g id="Node000001" class="node">
<title>Node1</title>
<g id="a_Node000001"><a xlink:title=" ">
<polygon fill="#999999" stroke="#666666" points="680.5,-151 505.5,-151 505.5,-121 680.5,-121 680.5,-151"/>
<text text-anchor="start" x="513.5" y="-139" font-family="Helvetica,sans-Serif" font-size="10.00">/scratch/dragon/sources</text>
<text text-anchor="middle" x="593" y="-128" font-family="Helvetica,sans-Serif" font-size="10.00">/DAction/src/RegisterAccessor.cc</text>
</a>
</g>
</g>
<!-- Node2 -->
<g id="Node000002" class="node">
<title>Node2</title>
<g id="a_Node000002"><a xlink:href="_register_accessor_8h.html" target="_top" xlink:title=" ">
<polygon fill="white" stroke="#666666" points="647.5,-85 538.5,-85 538.5,-66 647.5,-66 647.5,-85"/>
<text text-anchor="middle" x="593" y="-73" font-family="Helvetica,sans-Serif" font-size="10.00">RegisterAccessor.h</text>
</a>
</g>
</g>
<!-- Node1&#45;&gt;Node2 -->
<g id="edge1_Node000001_Node000002" class="edge">
<title>Node1&#45;&gt;Node2</title>
<g id="a_edge1_Node000001_Node000002"><a xlink:title=" ">
<path fill="none" stroke="#63b8ff" d="M593,-120.84C593,-113.21 593,-103.7 593,-95.45"/>
<polygon fill="#63b8ff" stroke="#63b8ff" points="596.5,-95.27 593,-85.27 589.5,-95.27 596.5,-95.27"/>
</a>
</g>
</g>
<!-- Node3 -->
<g id="Node000003" class="node">
<title>Node3</title>
<g id="a_Node000003"><a xlink:title=" ">
<polygon fill="#e0e0e0" stroke="#999999" points="116,-24.5 0,-24.5 0,-5.5 116,-5.5 116,-24.5"/>
<text text-anchor="middle" x="58" y="-12.5" font-family="Helvetica,sans-Serif" font-size="10.00">ChimeraTK/Device.h</text>
</a>
</g>
</g>
<!-- Node1&#45;&gt;Node3 -->
<g id="edge9_Node000001_Node000003" class="edge">
<title>Node1&#45;&gt;Node3</title>
<g id="a_edge9_Node000001_Node000003"><a xlink:title=" ">
<path fill="none" stroke="#63b8ff" d="M530.06,-121C421.88,-96.94 202.99,-48.25 106.06,-26.69"/>
<polygon fill="#63b8ff" stroke="#63b8ff" points="106.76,-23.26 96.24,-24.51 105.24,-30.09 106.76,-23.26"/>
</a>
</g>
</g>
<!-- Node9 -->
<g id="Node000009" class="node">
<title>Node9</title>
<g id="a_Node000009"><a xlink:title=" ">
<polygon fill="#e0e0e0" stroke="#999999" points="1049.5,-24.5 992.5,-24.5 992.5,-5.5 1049.5,-5.5 1049.5,-24.5"/>
<text text-anchor="middle" x="1021" y="-12.5" font-family="Helvetica,sans-Serif" font-size="10.00">typeinfo</text>
</a>
</g>
</g>
<!-- Node1&#45;&gt;Node9 -->
<g id="edge10_Node000001_Node000009" class="edge">
<title>Node1&#45;&gt;Node9</title>
<g id="a_edge10_Node000001_Node000009"><a xlink:title=" ">
<path fill="none" stroke="#63b8ff" d="M652.49,-120.98C729.6,-102.36 867.94,-67.44 984,-30 985.91,-29.38 987.87,-28.72 989.84,-28.04"/>
<polygon fill="#63b8ff" stroke="#63b8ff" points="991.39,-31.2 999.61,-24.51 989.01,-24.62 991.39,-31.2"/>
</a>
</g>
</g>
<!-- Node2&#45;&gt;Node3 -->
<g id="edge2_Node000002_Node000003" class="edge">
<title>Node2&#45;&gt;Node3</title>
<g id="a_edge2_Node000002_Node000003"><a xlink:title=" ">
<path fill="none" stroke="#63b8ff" d="M538.36,-71.28C450.77,-65.68 273.68,-52.53 125,-30 118.6,-29.03 111.89,-27.84 105.29,-26.57"/>
<polygon fill="#63b8ff" stroke="#63b8ff" points="105.57,-23.05 95.08,-24.51 104.19,-29.91 105.57,-23.05"/>
</a>
</g>
</g>
<!-- Node4 -->
<g id="Node000004" class="node">
<title>Node4</title>
<g id="a_Node000004"><a xlink:title=" ">
<polygon fill="#e0e0e0" stroke="#999999" points="292,-24.5 134,-24.5 134,-5.5 292,-5.5 292,-24.5"/>
<text text-anchor="middle" x="213" y="-12.5" font-family="Helvetica,sans-Serif" font-size="10.00">ChimeraTK/DeviceBackend.h</text>
</a>
</g>
</g>
<!-- Node2&#45;&gt;Node4 -->
<g id="edge3_Node000002_Node000004" class="edge">
<title>Node2&#45;&gt;Node4</title>
<g id="a_edge3_Node000002_Node000004"><a xlink:title=" ">
<path fill="none" stroke="#63b8ff" d="M538.36,-66.28C479.68,-57.43 383.72,-42.88 301,-30 293.07,-28.76 284.73,-27.45 276.49,-26.15"/>
<polygon fill="#63b8ff" stroke="#63b8ff" points="276.93,-22.68 266.51,-24.57 275.84,-29.59 276.93,-22.68"/>
</a>
</g>
</g>
<!-- Node5 -->
<g id="Node000005" class="node">
<title>Node5</title>
<g id="a_Node000005"><a xlink:title=" ">
<polygon fill="#e0e0e0" stroke="#999999" points="491.5,-24.5 310.5,-24.5 310.5,-5.5 491.5,-5.5 491.5,-24.5"/>
<text text-anchor="middle" x="401" y="-12.5" font-family="Helvetica,sans-Serif" font-size="10.00">ChimeraTK/NDRegisterAccessor.h</text>
</a>
</g>
</g>
<!-- Node2&#45;&gt;Node5 -->
<g id="edge4_Node000002_Node000005" class="edge">
<title>Node2&#45;&gt;Node5</title>
<g id="a_edge4_Node000002_Node000005"><a xlink:title=" ">
<path fill="none" stroke="#63b8ff" d="M565.08,-65.99C531.81,-55.86 476.05,-38.87 438.9,-27.55"/>
<polygon fill="#63b8ff" stroke="#63b8ff" points="439.54,-24.08 428.95,-24.52 437.5,-30.78 439.54,-24.08"/>
</a>
</g>
</g>
<!-- Node6 -->
<g id="Node000006" class="node">
<title>Node6</title>
<g id="a_Node000006"><a xlink:title=" ">
<polygon fill="#e0e0e0" stroke="#999999" points="676,-30 510,-30 510,0 676,0 676,-30"/>
<text text-anchor="start" x="518" y="-18" font-family="Helvetica,sans-Serif" font-size="10.00">ChimeraTK/NumericAddressed</text>
<text text-anchor="middle" x="593" y="-7" font-family="Helvetica,sans-Serif" font-size="10.00">Backend.h</text>
</a>
</g>
</g>
<!-- Node2&#45;&gt;Node6 -->
<g id="edge5_Node000002_Node000006" class="edge">
<title>Node2&#45;&gt;Node6</title>
<g id="a_edge5_Node000002_Node000006"><a xlink:title=" ">
<path fill="none" stroke="#63b8ff" d="M593,-65.87C593,-59.11 593,-49.35 593,-40.26"/>
<polygon fill="#63b8ff" stroke="#63b8ff" points="596.5,-40.11 593,-30.11 589.5,-40.11 596.5,-40.11"/>
</a>
</g>
</g>
<!-- Node7 -->
<g id="Node000007" class="node">
<title>Node7</title>
<g id="a_Node000007"><a xlink:title=" ">
<polygon fill="#e0e0e0" stroke="#999999" points="841.5,-30 694.5,-30 694.5,0 841.5,0 841.5,-30"/>
<text text-anchor="start" x="702.5" y="-18" font-family="Helvetica,sans-Serif" font-size="10.00">ChimeraTK/VirtualFunction</text>
<text text-anchor="middle" x="768" y="-7" font-family="Helvetica,sans-Serif" font-size="10.00">Template.h</text>
</a>
</g>
</g>
<!-- Node2&#45;&gt;Node7 -->
<g id="edge6_Node000002_Node000007" class="edge">
<title>Node2&#45;&gt;Node7</title>
<g id="a_edge6_Node000002_Node000007"><a xlink:title=" ">
<path fill="none" stroke="#63b8ff" d="M618.45,-65.99C643.96,-57.46 683.98,-44.09 716.2,-33.32"/>
<polygon fill="#63b8ff" stroke="#63b8ff" points="717.55,-36.55 725.93,-30.06 715.33,-29.92 717.55,-36.55"/>
</a>
</g>
</g>
<!-- Node8 -->
<g id="Node000008" class="node">
<title>Node8</title>
<g id="a_Node000008"><a xlink:title=" ">
<polygon fill="#e0e0e0" stroke="#999999" points="974.5,-30 859.5,-30 859.5,0 974.5,0 974.5,-30"/>
<text text-anchor="start" x="867.5" y="-18" font-family="Helvetica,sans-Serif" font-size="10.00">boost/fusion/include</text>
<text text-anchor="middle" x="917" y="-7" font-family="Helvetica,sans-Serif" font-size="10.00">/at_key.hpp</text>
</a>
</g>
</g>
<!-- Node2&#45;&gt;Node8 -->
<g id="edge7_Node000002_Node000008" class="edge">
<title>Node2&#45;&gt;Node8</title>
<g id="a_edge7_Node000002_Node000008"><a xlink:title=" ">
<path fill="none" stroke="#63b8ff" d="M645.98,-65.97C695.97,-57.79 773.26,-44.78 849.21,-30.3"/>
<polygon fill="#63b8ff" stroke="#63b8ff" points="850.27,-33.67 859.43,-28.35 848.95,-26.79 850.27,-33.67"/>
</a>
</g>
</g>
<!-- Node2&#45;&gt;Node9 -->
<g id="edge8_Node000002_Node000009" class="edge">
<title>Node2&#45;&gt;Node9</title>
<g id="a_edge8_Node000002_Node000009"><a xlink:title=" ">
<path fill="none" stroke="#63b8ff" d="M647.5,-72.56C723.74,-68.89 866.14,-58.53 984,-30 986.45,-29.41 988.96,-28.69 991.47,-27.91"/>
<polygon fill="#63b8ff" stroke="#63b8ff" points="992.63,-31.21 1000.93,-24.63 990.34,-24.6 992.63,-31.21"/>
</a>
</g>
</g>
</g>
</svg>
