<?xml version="1.0" encoding="UTF-8" standalone="no"?>
<!DOCTYPE svg PUBLIC "-//W3C//DTD SVG 1.1//EN"
 "http://www.w3.org/Graphics/SVG/1.1/DTD/svg11.dtd">
<!-- Generated by graphviz version 2.40.1 (20161225.0304)
 -->
<!-- Title: ChimeraTK::ThreadedFanOut::activate Pages: 1 -->
<svg width="912pt" height="218pt"
 viewBox="0.00 0.00 912.00 217.92" xmlns="http://www.w3.org/2000/svg" xmlns:xlink="http://www.w3.org/1999/xlink">
<g id="graph0" class="graph" transform="scale(1 1) rotate(0) translate(4 213.9233)">
<title>ChimeraTK::ThreadedFanOut::activate</title>
<polygon fill="#ffffff" stroke="transparent" points="-4,4 -4,-213.9233 908,-213.9233 908,4 -4,4"/>
<!-- Node5 -->
<g id="node1" class="node">
<title>Node5</title>
<polygon fill="#bfbfbf" stroke="#000000" points="0,-98.5 0,-128.5 156,-128.5 156,-98.5 0,-98.5"/>
<text text-anchor="start" x="8" y="-116.5" font-family="Helvetica,sans-Serif" font-size="10.00" fill="#000000">ChimeraTK::ThreadedFanOut</text>
<text text-anchor="middle" x="78" y="-105.5" font-family="Helvetica,sans-Serif" font-size="10.00" fill="#000000">::activate</text>
</g>
<!-- Node6 -->
<g id="node2" class="node">
<title>Node6</title>
<g id="a_node2"><a xlink:href="class_chimera_t_k_1_1_threaded_fan_out.html#aec8d6bcf52e7887791968acf8ac2a3e1" target="_top" xlink:title="Synchronise feeder and the consumers. ">
<polygon fill="#ffffff" stroke="#000000" points="192,-104 192,-123 370,-123 370,-104 192,-104"/>
<text text-anchor="middle" x="281" y="-111" font-family="Helvetica,sans-Serif" font-size="10.00" fill="#000000">ChimeraTK::ThreadedFanOut::run</text>
</a>
</g>
</g>
<!-- Node5&#45;&gt;Node6 -->
<g id="edge1" class="edge">
<title>Node5&#45;&gt;Node6</title>
<path fill="none" stroke="#191970" d="M156.1947,-113.5C164.5436,-113.5 173.115,-113.5 181.6658,-113.5"/>
<polygon fill="#191970" stroke="#191970" points="181.6797,-117.0001 191.6797,-113.5 181.6796,-110.0001 181.6797,-117.0001"/>
</g>
<!-- Node7 -->
<g id="node3" class="node">
<title>Node7</title>
<g id="a_node3"><a xlink:href="class_chimera_t_k_1_1_application.html#abf343e8bf9893031d1785aa0aa1a1066" target="_top" xlink:title="Register the thread in the application system and give it a name. ">
<polygon fill="#ffffff" stroke="#000000" points="418,-147.5 418,-177.5 549,-177.5 549,-147.5 418,-147.5"/>
<text text-anchor="start" x="426" y="-165.5" font-family="Helvetica,sans-Serif" font-size="10.00" fill="#000000">ChimeraTK::Application</text>
<text text-anchor="middle" x="483.5" y="-154.5" font-family="Helvetica,sans-Serif" font-size="10.00" fill="#000000">::registerThread</text>
</a>
</g>
</g>
<!-- Node6&#45;&gt;Node7 -->
<g id="edge2" class="edge">
<title>Node6&#45;&gt;Node7</title>
<path fill="none" stroke="#191970" d="M320.5248,-123.064C346.3858,-129.3218 380.9346,-137.6817 411.5659,-145.0937"/>
<polygon fill="#191970" stroke="#191970" points="410.8148,-148.5129 421.3574,-147.463 412.4611,-141.7093 410.8148,-148.5129"/>
</g>
<!-- Node10 -->
<g id="node6" class="node">
<title>Node10</title>
<g id="a_node6"><a xlink:href="class_chimera_t_k_1_1_profiler.html#a554c05bc62a8da847726645b94a62e5c" target="_top" xlink:title="Start the time measurement for the current thread. ">
<polygon fill="#ffffff" stroke="#000000" points="792,-169.5 792,-199.5 904,-199.5 904,-169.5 792,-169.5"/>
<text text-anchor="start" x="800" y="-187.5" font-family="Helvetica,sans-Serif" font-size="10.00" fill="#000000">ChimeraTK::Profiler</text>
<text text-anchor="middle" x="848" y="-176.5" font-family="Helvetica,sans-Serif" font-size="10.00" fill="#000000">::startMeasurement</text>
</a>
</g>
</g>
<!-- Node6&#45;&gt;Node10 -->
<g id="edge11" class="edge">
<title>Node6&#45;&gt;Node10</title>
<path fill="none" stroke="#191970" d="M292.4258,-123.1963C313.315,-140.2129 359.7849,-174.8459 406,-187.5 535.3964,-222.9298 694.1983,-208.5689 781.8944,-195.8998"/>
<polygon fill="#191970" stroke="#191970" points="782.5918,-199.3347 791.9704,-194.4061 781.5652,-192.4104 782.5918,-199.3347"/>
</g>
<!-- Node11 -->
<g id="node7" class="node">
<title>Node11</title>
<g id="a_node7"><a xlink:href="class_chimera_t_k_1_1_application.html#a518f2c85c4d1ec189a5aa3a2d89860bd" target="_top" xlink:title="Lock the testable mode mutex for the current thread. ">
<polygon fill="#ffffff" stroke="#000000" points="418,-98.5 418,-128.5 549,-128.5 549,-98.5 418,-98.5"/>
<text text-anchor="start" x="426" y="-116.5" font-family="Helvetica,sans-Serif" font-size="10.00" fill="#000000">ChimeraTK::Application</text>
<text text-anchor="middle" x="483.5" y="-105.5" font-family="Helvetica,sans-Serif" font-size="10.00" fill="#000000">::testableModeLock</text>
</a>
</g>
</g>
<!-- Node6&#45;&gt;Node11 -->
<g id="edge6" class="edge">
<title>Node6&#45;&gt;Node11</title>
<path fill="none" stroke="#191970" d="M370.1141,-113.5C382.6318,-113.5 395.4005,-113.5 407.6401,-113.5"/>
<polygon fill="#191970" stroke="#191970" points="407.7798,-117.0001 417.7797,-113.5 407.7797,-110.0001 407.7798,-117.0001"/>
</g>
<!-- Node14 -->
<g id="node10" class="node">
<title>Node14</title>
<g id="a_node10"><a xlink:href="class_chimera_t_k_1_1_profiler.html#a35af786affb9aecdc2e36a792c9ff5a5" target="_top" xlink:title="Stop the time measurement for the current thread. ">
<polygon fill="#ffffff" stroke="#000000" points="428,-49.5 428,-79.5 539,-79.5 539,-49.5 428,-49.5"/>
<text text-anchor="start" x="436" y="-67.5" font-family="Helvetica,sans-Serif" font-size="10.00" fill="#000000">ChimeraTK::Profiler</text>
<text text-anchor="middle" x="483.5" y="-56.5" font-family="Helvetica,sans-Serif" font-size="10.00" fill="#000000">::stopMeasurement</text>
</a>
</g>
</g>
<!-- Node6&#45;&gt;Node14 -->
<g id="edge10" class="edge">
<title>Node6&#45;&gt;Node14</title>
<path fill="none" stroke="#191970" d="M320.5248,-103.936C348.271,-97.2221 386.0178,-88.0883 418.1974,-80.3016"/>
<polygon fill="#191970" stroke="#191970" points="419.0918,-83.6863 427.9882,-77.9325 417.4455,-76.8826 419.0918,-83.6863"/>
</g>
<!-- Node15 -->
<g id="node11" class="node">
<title>Node15</title>
<g id="a_node11"><a xlink:href="class_chimera_t_k_1_1_application.html#a69a2c72a1c589992d655c1c30b60b5bb" target="_top" xlink:title="Incremenet counter for how many write() operations have overwritten unread data. ">
<polygon fill="#ffffff" stroke="#000000" points="406,-.5 406,-30.5 561,-30.5 561,-.5 406,-.5"/>
<text text-anchor="start" x="414" y="-18.5" font-family="Helvetica,sans-Serif" font-size="10.00" fill="#000000">ChimeraTK::Application</text>
<text text-anchor="middle" x="483.5" y="-7.5" font-family="Helvetica,sans-Serif" font-size="10.00" fill="#000000">::incrementDataLossCounter</text>
</a>
</g>
</g>
<!-- Node6&#45;&gt;Node15 -->
<g id="edge12" class="edge">
<title>Node6&#45;&gt;Node15</title>
<path fill="none" stroke="#191970" d="M294.6698,-103.9457C317.0639,-88.6365 363.3505,-58.4139 406,-39.5 410.3577,-37.5675 414.9177,-35.7265 419.5503,-33.9865"/>
<polygon fill="#191970" stroke="#191970" points="420.8851,-37.2263 429.12,-30.5602 418.5254,-30.636 420.8851,-37.2263"/>
</g>
<!-- Node8 -->
<g id="node4" class="node">
<title>Node8</title>
<g id="a_node4"><a xlink:href="class_chimera_t_k_1_1_application.html#aa11ef4e6eb1a40a4cdd1c5941bc90639" target="_top" xlink:title="Get string holding the name of the current thread. ">
<polygon fill="#ffffff" stroke="#000000" points="611,-98.5 611,-128.5 742,-128.5 742,-98.5 611,-98.5"/>
<text text-anchor="start" x="619" y="-116.5" font-family="Helvetica,sans-Serif" font-size="10.00" fill="#000000">ChimeraTK::Application</text>
<text text-anchor="middle" x="676.5" y="-105.5" font-family="Helvetica,sans-Serif" font-size="10.00" fill="#000000">::threadName</text>
</a>
</g>
</g>
<!-- Node7&#45;&gt;Node8 -->
<g id="edge3" class="edge">
<title>Node7&#45;&gt;Node8</title>
<path fill="none" stroke="#191970" d="M542.718,-147.4654C563.1887,-142.2682 586.3044,-136.3994 607.4912,-131.0204"/>
<polygon fill="#191970" stroke="#191970" points="608.5628,-134.3594 617.394,-128.5062 606.8402,-127.5747 608.5628,-134.3594"/>
</g>
<!-- Node9 -->
<g id="node5" class="node">
<title>Node9</title>
<g id="a_node5"><a xlink:href="class_chimera_t_k_1_1_profiler.html#a3c025d8af36c5c6415190b3843f5bb16" target="_top" xlink:title="Register a thread in the profiler. ">
<polygon fill="#ffffff" stroke="#000000" points="621,-147.5 621,-177.5 732,-177.5 732,-147.5 621,-147.5"/>
<text text-anchor="start" x="629" y="-165.5" font-family="Helvetica,sans-Serif" font-size="10.00" fill="#000000">ChimeraTK::Profiler</text>
<text text-anchor="middle" x="676.5" y="-154.5" font-family="Helvetica,sans-Serif" font-size="10.00" fill="#000000">::registerThread</text>
</a>
</g>
</g>
<!-- Node7&#45;&gt;Node9 -->
<g id="edge4" class="edge">
<title>Node7&#45;&gt;Node9</title>
<path fill="none" stroke="#191970" d="M549.1103,-162.5C568.9317,-162.5 590.6968,-162.5 610.5409,-162.5"/>
<polygon fill="#191970" stroke="#191970" points="610.7225,-166.0001 620.7224,-162.5 610.7224,-159.0001 610.7225,-166.0001"/>
</g>
<!-- Node9&#45;&gt;Node10 -->
<g id="edge5" class="edge">
<title>Node9&#45;&gt;Node10</title>
<path fill="none" stroke="#191970" d="M732.1811,-169.6428C747.9753,-171.6688 765.3279,-173.8948 781.6846,-175.9931"/>
<polygon fill="#191970" stroke="#191970" points="781.3533,-179.4792 791.7174,-177.2801 782.244,-172.5361 781.3533,-179.4792"/>
</g>
<!-- Node11&#45;&gt;Node8 -->
<g id="edge8" class="edge">
<title>Node11&#45;&gt;Node8</title>
<path fill="none" stroke="#191970" d="M549.1103,-113.5C565.5807,-113.5 583.3933,-113.5 600.3305,-113.5"/>
<polygon fill="#191970" stroke="#191970" points="600.7434,-117.0001 610.7434,-113.5 600.7433,-110.0001 600.7434,-117.0001"/>
</g>
<!-- Node12 -->
<g id="node8" class="node">
<title>Node12</title>
<g id="a_node8"><a xlink:href="class_chimera_t_k_1_1_application.html#aa3c1c63e078d14fb104431a15951a070" target="_top" xlink:title="Obtain instance of the application. ">
<polygon fill="#ffffff" stroke="#000000" points="611,-.5 611,-30.5 742,-30.5 742,-.5 611,-.5"/>
<text text-anchor="start" x="619" y="-18.5" font-family="Helvetica,sans-Serif" font-size="10.00" fill="#000000">ChimeraTK::Application</text>
<text text-anchor="middle" x="676.5" y="-7.5" font-family="Helvetica,sans-Serif" font-size="10.00" fill="#000000">::getInstance</text>
</a>
</g>
</g>
<!-- Node11&#45;&gt;Node12 -->
<g id="edge7" class="edge">
<title>Node11&#45;&gt;Node12</title>
<path fill="none" stroke="#191970" d="M543.3445,-98.4881C549.5867,-95.6872 555.6099,-92.3856 561,-88.5 582.9214,-72.6973 574.9306,-55.0953 597,-39.5 599.112,-38.0076 601.3183,-36.6064 603.5954,-35.2911"/>
<polygon fill="#191970" stroke="#191970" points="605.3787,-38.3101 612.6793,-30.632 602.184,-32.0816 605.3787,-38.3101"/>
</g>
<!-- Node13 -->
<g id="node9" class="node">
<title>Node13</title>
<g id="a_node9"><a xlink:href="class_chimera_t_k_1_1_application.html#aca0e46e006bc223748a3c4056bddc176" target="_top" xlink:title="Obtain the lock object for the testable mode lock for the current thread. ">
<polygon fill="#ffffff" stroke="#000000" points="597,-49.5 597,-79.5 756,-79.5 756,-49.5 597,-49.5"/>
<text text-anchor="start" x="605" y="-67.5" font-family="Helvetica,sans-Serif" font-size="10.00" fill="#000000">ChimeraTK::Application</text>
<text text-anchor="middle" x="676.5" y="-56.5" font-family="Helvetica,sans-Serif" font-size="10.00" fill="#000000">::getTestableModeLockObject</text>
</a>
</g>
</g>
<!-- Node11&#45;&gt;Node13 -->
<g id="edge9" class="edge">
<title>Node11&#45;&gt;Node13</title>
<path fill="none" stroke="#191970" d="M542.718,-98.4654C563.1887,-93.2682 586.3044,-87.3994 607.4912,-82.0204"/>
<polygon fill="#191970" stroke="#191970" points="608.5628,-85.3594 617.394,-79.5062 606.8402,-78.5747 608.5628,-85.3594"/>
</g>
<!-- Node15&#45;&gt;Node12 -->
<g id="edge13" class="edge">
<title>Node15&#45;&gt;Node12</title>
<path fill="none" stroke="#191970" d="M561.1662,-15.5C574.1424,-15.5 587.5912,-15.5 600.5244,-15.5"/>
<polygon fill="#191970" stroke="#191970" points="600.7671,-19.0001 610.7671,-15.5 600.767,-12.0001 600.7671,-19.0001"/>
</g>
</g>
</svg>
