<?xml version="1.0" encoding="UTF-8" standalone="no"?>
<!DOCTYPE svg PUBLIC "-//W3C//DTD SVG 1.1//EN"
 "http://www.w3.org/Graphics/SVG/1.1/DTD/svg11.dtd">
<!-- Generated by graphviz version 2.43.0 (0)
 -->
<!-- Title: ScalarDefaultsBase&lt; DERIVED &gt; Pages: 1 -->
<!--zoomable 761 -->

<svg id="main" version="1.1" xmlns="http://www.w3.org/2000/svg" xmlns:xlink="http://www.w3.org/1999/xlink" xml:space="preserve" onload="init(evt)">
<style type="text/css"><![CDATA[
.node, .edge {opacity: 0.7;}
.node.selected, .edge.selected {opacity: 1;}
.edge:hover path { stroke: red; }
.edge:hover polygon { stroke: red; fill: red; }
]]></style>

<defs>
  <circle id="rim" cx="0" cy="0" r="7"/>
  <circle id="rim2" cx="0" cy="0" r="3.5"/>
  <g id="zoomPlus">
    <use xlink:href="#rim" fill="#404040"><set attributeName="fill" to="#808080" begin="zoomplus.mouseover" end="zoomplus.mouseout"/></use>
    <path d="M-4,0h8M0,-4v8" fill="none" stroke="white" stroke-width="1.5" pointer-events="none"/>
  </g>
  <g id="zoomMin">
    <use xlink:href="#rim" fill="#404040"><set attributeName="fill" to="#808080" begin="zoomminus.mouseover" end="zoomminus.mouseout"/></use>
    <path d="M-4,0h8" fill="none" stroke="white" stroke-width="1.5" pointer-events="none"/>
  </g>
  <g id="arrowUp" transform="translate(30 24)">
    <use xlink:href="#rim"/>
    <path pointer-events="none" fill="none" stroke="white" stroke-width="1.5" d="M0,-3.0v7 M-2.5,-0.5L0,-3.0L2.5,-0.5"/>
  </g>
  <g id="arrowRight" transform="rotate(90) translate(36 -43)">
    <use xlink:href="#rim"/>
    <path pointer-events="none" fill="none" stroke="white" stroke-width="1.5" d="M0,-3.0v7 M-2.5,-0.5L0,-3.0L2.5,-0.5"/>
  </g>
  <g id="arrowDown" transform="rotate(180) translate(-30 -48)">
    <use xlink:href="#rim"/>
    <path pointer-events="none" fill="none" stroke="white" stroke-width="1.5" d="M0,-3.0v7 M-2.5,-0.5L0,-3.0L2.5,-0.5"/>
  </g>
  <g id="arrowLeft" transform="rotate(270) translate(-36 17)">
    <use xlink:href="#rim"/>
    <path pointer-events="none" fill="none" stroke="white" stroke-width="1.5" d="M0,-3.0v7 M-2.5,-0.5L0,-3.0L2.5,-0.5"/>
  </g>
  <g id="resetDef">
    <use xlink:href="#rim2" fill="#404040"><set attributeName="fill" to="#808080" begin="reset.mouseover" end="reset.mouseout"/></use>
  </g>
</defs>
<script type="application/ecmascript">
var viewWidth = 1034;
var viewHeight = 761;
var sectionId = 'dynsection-0';
</script>
<script type="application/ecmascript" xlink:href="svg.min.js"/>
<svg id="graph" class="graph">
<g id="viewport">
<title>ScalarDefaultsBase&lt; DERIVED &gt;</title>
<!-- Node1 -->
<g id="Node000001" class="node">
<title>Node1</title>
<g id="a_Node000001"><a xlink:title=" ">
<polygon fill="#999999" stroke="#666666" points="260,-361 148,-361 148,-331 260,-331 260,-361"/>
<text text-anchor="start" x="156" y="-349" font-family="Helvetica,sans-Serif" font-size="10.00">ScalarDefaultsBase</text>
<text text-anchor="middle" x="204" y="-338" font-family="Helvetica,sans-Serif" font-size="10.00">&lt; DERIVED &gt;</text>
</a>
</g>
</g>
<!-- Node3 -->
<g id="Node000003" class="node">
<title>Node3</title>
<g id="a_Node000003"><a xlink:href="struct_scalar_defaults.html" target="_top" xlink:title=" ">
<polygon fill="white" stroke="#666666" points="886,-601.5 707,-601.5 707,-582.5 886,-582.5 886,-601.5"/>
<text text-anchor="middle" x="796.5" y="-589.5" font-family="Helvetica,sans-Serif" font-size="10.00">ScalarDefaults&lt; RegSomeBool &gt;</text>
</a>
</g>
</g>
<!-- Node1&#45;&gt;Node3 -->
<g id="edge2_Node000001_Node000003" class="edge">
<title>Node1&#45;&gt;Node3</title>
<g id="a_edge2_Node000001_Node000003"><a xlink:title=" ">
<path fill="none" stroke="#63b8ff" d="M207.73,-371.13C213.45,-411.66 230.39,-491.51 278,-537 412.9,-665.92 502.8,-671.43 686,-636 719.99,-629.43 756.83,-612.36 777.93,-601.51"/>
<polygon fill="#63b8ff" stroke="#63b8ff" points="211.18,-370.5 206.42,-361.03 204.23,-371.4 211.18,-370.5"/>
</a>
</g>
</g>
<!-- Node5 -->
<g id="Node000005" class="node">
<title>Node5</title>
<g id="a_Node000005"><a xlink:href="struct_scalar_defaults.html" target="_top" xlink:title=" ">
<polygon fill="white" stroke="#666666" points="881.5,-675.5 711.5,-675.5 711.5,-656.5 881.5,-656.5 881.5,-675.5"/>
<text text-anchor="middle" x="796.5" y="-663.5" font-family="Helvetica,sans-Serif" font-size="10.00">ScalarDefaults&lt; RegSomeInt &gt;</text>
</a>
</g>
</g>
<!-- Node1&#45;&gt;Node5 -->
<g id="edge4_Node000001_Node000005" class="edge">
<title>Node1&#45;&gt;Node5</title>
<g id="a_edge4_Node000001_Node000005"><a xlink:title=" ">
<path fill="none" stroke="#63b8ff" d="M206.07,-371.4C209.37,-419.75 222.87,-526.04 278,-592 397.94,-735.49 500.54,-719.14 686,-695 693.56,-694.02 732.1,-683.59 761.35,-675.52"/>
<polygon fill="#63b8ff" stroke="#63b8ff" points="209.55,-370.98 205.47,-361.2 202.56,-371.39 209.55,-370.98"/>
</a>
</g>
</g>
<!-- Node7 -->
<g id="Node000007" class="node">
<title>Node7</title>
<g id="a_Node000007"><a xlink:href="struct_scalar_defaults.html" target="_top" xlink:title=" ">
<polygon fill="white" stroke="#666666" points="875.5,-730 717.5,-730 717.5,-700 875.5,-700 875.5,-730"/>
<text text-anchor="start" x="725.5" y="-718" font-family="Helvetica,sans-Serif" font-size="10.00">ScalarDefaults&lt; RegSomeRo</text>
<text text-anchor="middle" x="796.5" y="-707" font-family="Helvetica,sans-Serif" font-size="10.00">Bool &gt;</text>
</a>
</g>
</g>
<!-- Node1&#45;&gt;Node7 -->
<g id="edge6_Node000001_Node000007" class="edge">
<title>Node1&#45;&gt;Node7</title>
<g id="a_edge6_Node000001_Node000007"><a xlink:title=" ">
<path fill="none" stroke="#63b8ff" d="M204.25,-371.41C203.9,-427.92 210.53,-565.74 278,-651 386.57,-788.18 626.12,-754.72 737.03,-730.08"/>
<polygon fill="#63b8ff" stroke="#63b8ff" points="207.75,-371.28 204.4,-361.23 200.75,-371.18 207.75,-371.28"/>
</a>
</g>
</g>
<!-- Node9 -->
<g id="Node000009" class="node">
<title>Node9</title>
<g id="a_Node000009"><a xlink:href="struct_scalar_defaults.html" target="_top" xlink:title=" ">
<polygon fill="white" stroke="#666666" points="875.5,-390 717.5,-390 717.5,-360 875.5,-360 875.5,-390"/>
<text text-anchor="start" x="725.5" y="-378" font-family="Helvetica,sans-Serif" font-size="10.00">ScalarDefaults&lt; RegSomeRo</text>
<text text-anchor="middle" x="796.5" y="-367" font-family="Helvetica,sans-Serif" font-size="10.00">Int &gt;</text>
</a>
</g>
</g>
<!-- Node1&#45;&gt;Node9 -->
<g id="edge8_Node000001_Node000009" class="edge">
<title>Node1&#45;&gt;Node9</title>
<g id="a_edge8_Node000001_Node000009"><a xlink:title=" ">
<path fill="none" stroke="#63b8ff" d="M270.36,-345.69C363,-345.75 537.74,-347.72 686,-360 696.13,-360.84 706.77,-361.97 717.26,-363.25"/>
<polygon fill="#63b8ff" stroke="#63b8ff" points="270.29,-342.19 260.29,-345.69 270.29,-349.19 270.29,-342.19"/>
</a>
</g>
</g>
<!-- Node11 -->
<g id="Node000011" class="node">
<title>Node11</title>
<g id="a_Node000011"><a xlink:href="struct_scalar_defaults.html" target="_top" xlink:title=" ">
<polygon fill="white" stroke="#666666" points="889,-563.5 704,-563.5 704,-544.5 889,-544.5 889,-563.5"/>
<text text-anchor="middle" x="796.5" y="-551.5" font-family="Helvetica,sans-Serif" font-size="10.00">ScalarDefaults&lt; RegSomeString &gt;</text>
</a>
</g>
</g>
<!-- Node1&#45;&gt;Node11 -->
<g id="edge10_Node000001_Node000011" class="edge">
<title>Node1&#45;&gt;Node11</title>
<g id="a_edge10_Node000001_Node000011"><a xlink:title=" ">
<path fill="none" stroke="#63b8ff" d="M224.96,-368.61C238.59,-382.74 257.78,-400.22 278,-411 360.62,-455.03 604.04,-470.76 686,-516 695.63,-521.32 694.3,-527.81 704,-533 713.05,-537.84 723.19,-541.57 733.33,-544.45"/>
<polygon fill="#63b8ff" stroke="#63b8ff" points="227.38,-366.08 217.99,-361.18 222.27,-370.87 227.38,-366.08"/>
</a>
</g>
</g>
<!-- Node13 -->
<g id="Node000013" class="node">
<title>Node13</title>
<g id="a_Node000013"><a xlink:href="struct_scalar_defaults.html" target="_top" xlink:title=" ">
<polygon fill="white" stroke="#666666" points="877,-471 716,-471 716,-441 877,-441 877,-471"/>
<text text-anchor="start" x="724" y="-459" font-family="Helvetica,sans-Serif" font-size="10.00">ScalarDefaults&lt; RegSomeWo</text>
<text text-anchor="middle" x="796.5" y="-448" font-family="Helvetica,sans-Serif" font-size="10.00">Bool &gt;</text>
</a>
</g>
</g>
<!-- Node1&#45;&gt;Node13 -->
<g id="edge12_Node000001_Node000013" class="edge">
<title>Node1&#45;&gt;Node13</title>
<g id="a_edge12_Node000001_Node000013"><a xlink:title=" ">
<path fill="none" stroke="#63b8ff" d="M270.34,-359.73C272.92,-360.17 275.48,-360.6 278,-361 458.22,-389.62 509.96,-358.94 686,-407 715.13,-414.95 746.39,-429.62 768.02,-440.84"/>
<polygon fill="#63b8ff" stroke="#63b8ff" points="270.77,-356.25 260.31,-357.91 269.52,-363.14 270.77,-356.25"/>
</a>
</g>
</g>
<!-- Node15 -->
<g id="Node000015" class="node">
<title>Node15</title>
<g id="a_Node000015"><a xlink:href="struct_scalar_defaults.html" target="_top" xlink:title=" ">
<polygon fill="white" stroke="#666666" points="877,-524 716,-524 716,-494 877,-494 877,-524"/>
<text text-anchor="start" x="724" y="-512" font-family="Helvetica,sans-Serif" font-size="10.00">ScalarDefaults&lt; RegSomeWo</text>
<text text-anchor="middle" x="796.5" y="-501" font-family="Helvetica,sans-Serif" font-size="10.00">Int &gt;</text>
</a>
</g>
</g>
<!-- Node1&#45;&gt;Node15 -->
<g id="edge14_Node000001_Node000015" class="edge">
<title>Node1&#45;&gt;Node15</title>
<g id="a_edge14_Node000001_Node000015"><a xlink:title=" ">
<path fill="none" stroke="#63b8ff" d="M240.68,-365.74C252.32,-371.59 265.48,-377.6 278,-382 453.21,-443.51 509.6,-414 686,-472 694.32,-474.73 695.81,-476.89 704,-480 716.93,-484.91 731.1,-489.68 744.34,-493.89"/>
<polygon fill="#63b8ff" stroke="#63b8ff" points="242.2,-362.58 231.71,-361.11 238.99,-368.8 242.2,-362.58"/>
</a>
</g>
</g>
<!-- Node17 -->
<g id="Node000017" class="node">
<title>Node17</title>
<g id="a_Node000017"><a xlink:href="struct_scalar_defaults.html" target="_top" xlink:title=" ">
<polygon fill="white" stroke="#666666" points="559,-555.5 405,-555.5 405,-536.5 559,-536.5 559,-555.5"/>
<text text-anchor="middle" x="482" y="-543.5" font-family="Helvetica,sans-Serif" font-size="10.00">ScalarDefaults&lt; DERIVED &gt;</text>
</a>
</g>
</g>
<!-- Node1&#45;&gt;Node17 -->
<g id="edge16_Node000001_Node000017" class="edge">
<title>Node1&#45;&gt;Node17</title>
<g id="a_edge16_Node000001_Node000017"><a xlink:title=" ">
<path fill="none" stroke="#63b8ff" d="M209.47,-371.25C217.08,-406.42 236.01,-469.58 278,-503 313.52,-531.26 363.25,-542.12 404.6,-545.86"/>
<polygon fill="#63b8ff" stroke="#63b8ff" points="212.87,-370.41 207.46,-361.3 206.01,-371.79 212.87,-370.41"/>
</a>
</g>
</g>
<!-- Node18 -->
<g id="Node000018" class="node">
<title>Node18</title>
<g id="a_Node000018"><a xlink:href="struct_scalar_defaults_base.html" target="_top" xlink:title=" ">
<polygon fill="white" stroke="#666666" points="538,-318 426,-318 426,-288 538,-288 538,-318"/>
<text text-anchor="start" x="434" y="-306" font-family="Helvetica,sans-Serif" font-size="10.00">ScalarDefaultsBase</text>
<text text-anchor="middle" x="482" y="-295" font-family="Helvetica,sans-Serif" font-size="10.00">&lt; RegSomeBool &gt;</text>
</a>
</g>
</g>
<!-- Node1&#45;&gt;Node18 -->
<g id="edge24_Node000001_Node000018" class="edge">
<title>Node1&#45;&gt;Node18</title>
<g id="a_edge24_Node000001_Node000018"><a xlink:title=" ">
<path fill="none" stroke="orange" stroke-dasharray="5,2" d="M252.74,-327.82C261.06,-325.18 269.71,-322.76 278,-321 327.32,-310.53 384.63,-306.14 425.76,-304.3"/>
<polygon fill="orange" stroke="orange" points="251.54,-324.52 243.15,-330.99 253.75,-331.17 251.54,-324.52"/>
</a>
</g>
<text text-anchor="middle" x="332.5" y="-324" font-family="Helvetica,sans-Serif" font-size="10.00" fill="grey"> &lt; RegSomeBool &gt;</text>
</g>
<!-- Node19 -->
<g id="Node000019" class="node">
<title>Node19</title>
<g id="a_Node000019"><a xlink:href="struct_scalar_defaults_base.html" target="_top" xlink:title=" ">
<polygon fill="white" stroke="#666666" points="538,-270 426,-270 426,-240 538,-240 538,-270"/>
<text text-anchor="start" x="434" y="-258" font-family="Helvetica,sans-Serif" font-size="10.00">ScalarDefaultsBase</text>
<text text-anchor="middle" x="482" y="-247" font-family="Helvetica,sans-Serif" font-size="10.00">&lt; RegSomeInt &gt;</text>
</a>
</g>
</g>
<!-- Node1&#45;&gt;Node19 -->
<g id="edge25_Node000001_Node000019" class="edge">
<title>Node1&#45;&gt;Node19</title>
<g id="a_edge25_Node000001_Node000019"><a xlink:title=" ">
<path fill="none" stroke="orange" stroke-dasharray="5,2" d="M228.56,-324.21C242.08,-312.9 259.91,-299.83 278,-292 325.34,-271.5 383.65,-262.36 425.62,-258.28"/>
<polygon fill="orange" stroke="orange" points="226.02,-321.78 220.74,-330.97 230.6,-327.08 226.02,-321.78"/>
</a>
</g>
<text text-anchor="middle" x="332.5" y="-295" font-family="Helvetica,sans-Serif" font-size="10.00" fill="grey"> &lt; RegSomeInt &gt;</text>
</g>
<!-- Node20 -->
<g id="Node000020" class="node">
<title>Node20</title>
<g id="a_Node000020"><a xlink:href="struct_scalar_defaults_base.html" target="_top" xlink:title=" ">
<polygon fill="white" stroke="#666666" points="542,-222 422,-222 422,-192 542,-192 542,-222"/>
<text text-anchor="start" x="430" y="-210" font-family="Helvetica,sans-Serif" font-size="10.00">ScalarDefaultsBase</text>
<text text-anchor="middle" x="482" y="-199" font-family="Helvetica,sans-Serif" font-size="10.00">&lt; RegSomeRoBool &gt;</text>
</a>
</g>
</g>
<!-- Node1&#45;&gt;Node20 -->
<g id="edge26_Node000001_Node000020" class="edge">
<title>Node1&#45;&gt;Node20</title>
<g id="a_edge26_Node000001_Node000020"><a xlink:title=" ">
<path fill="none" stroke="orange" stroke-dasharray="5,2" d="M216.65,-321.86C228.79,-299.39 249.96,-266.77 278,-249 321.17,-221.64 378.9,-211.71 421.77,-208.29"/>
<polygon fill="orange" stroke="orange" points="213.51,-320.31 212.01,-330.8 219.73,-323.54 213.51,-320.31"/>
</a>
</g>
<text text-anchor="middle" x="332.5" y="-252" font-family="Helvetica,sans-Serif" font-size="10.00" fill="grey"> &lt; RegSomeRoBool &gt;</text>
</g>
<!-- Node21 -->
<g id="Node000021" class="node">
<title>Node21</title>
<g id="a_Node000021"><a xlink:href="struct_scalar_defaults_base.html" target="_top" xlink:title=" ">
<polygon fill="white" stroke="#666666" points="538,-174 426,-174 426,-144 538,-144 538,-174"/>
<text text-anchor="start" x="434" y="-162" font-family="Helvetica,sans-Serif" font-size="10.00">ScalarDefaultsBase</text>
<text text-anchor="middle" x="482" y="-151" font-family="Helvetica,sans-Serif" font-size="10.00">&lt; RegSomeRoInt &gt;</text>
</a>
</g>
</g>
<!-- Node1&#45;&gt;Node21 -->
<g id="edge27_Node000001_Node000021" class="edge">
<title>Node1&#45;&gt;Node21</title>
<g id="a_edge27_Node000001_Node000021"><a xlink:title=" ">
<path fill="none" stroke="orange" stroke-dasharray="5,2" d="M210.19,-320.6C218.44,-287.03 237.9,-228.56 278,-198 320.24,-165.81 381.49,-157.8 425.65,-156.78"/>
<polygon fill="orange" stroke="orange" points="206.73,-320.03 207.89,-330.56 213.55,-321.61 206.73,-320.03"/>
</a>
</g>
<text text-anchor="middle" x="332.5" y="-201" font-family="Helvetica,sans-Serif" font-size="10.00" fill="grey"> &lt; RegSomeRoInt &gt;</text>
</g>
<!-- Node22 -->
<g id="Node000022" class="node">
<title>Node22</title>
<g id="a_Node000022"><a xlink:href="struct_scalar_defaults_base.html" target="_top" xlink:title=" ">
<polygon fill="white" stroke="#666666" points="539,-126 425,-126 425,-96 539,-96 539,-126"/>
<text text-anchor="start" x="433" y="-114" font-family="Helvetica,sans-Serif" font-size="10.00">ScalarDefaultsBase</text>
<text text-anchor="middle" x="482" y="-103" font-family="Helvetica,sans-Serif" font-size="10.00">&lt; RegSomeString &gt;</text>
</a>
</g>
</g>
<!-- Node1&#45;&gt;Node22 -->
<g id="edge28_Node000001_Node000022" class="edge">
<title>Node1&#45;&gt;Node22</title>
<g id="a_edge28_Node000001_Node000022"><a xlink:title=" ">
<path fill="none" stroke="orange" stroke-dasharray="5,2" d="M206.35,-320.53C210.11,-277.24 224.32,-189.68 278,-145 318.65,-111.17 380.14,-105.09 424.8,-105.98"/>
<polygon fill="orange" stroke="orange" points="202.84,-320.53 205.59,-330.77 209.82,-321.05 202.84,-320.53"/>
</a>
</g>
<text text-anchor="middle" x="332.5" y="-148" font-family="Helvetica,sans-Serif" font-size="10.00" fill="grey"> &lt; RegSomeString &gt;</text>
</g>
<!-- Node23 -->
<g id="Node000023" class="node">
<title>Node23</title>
<g id="a_Node000023"><a xlink:href="struct_scalar_defaults_base.html" target="_top" xlink:title=" ">
<polygon fill="white" stroke="#666666" points="543,-78 421,-78 421,-48 543,-48 543,-78"/>
<text text-anchor="start" x="429" y="-66" font-family="Helvetica,sans-Serif" font-size="10.00">ScalarDefaultsBase</text>
<text text-anchor="middle" x="482" y="-55" font-family="Helvetica,sans-Serif" font-size="10.00">&lt; RegSomeWoBool &gt;</text>
</a>
</g>
</g>
<!-- Node1&#45;&gt;Node23 -->
<g id="edge29_Node000001_Node000023" class="edge">
<title>Node1&#45;&gt;Node23</title>
<g id="a_edge29_Node000001_Node000023"><a xlink:title=" ">
<path fill="none" stroke="orange" stroke-dasharray="5,2" d="M204.03,-320.63C203.58,-269.08 210.5,-152 278,-93 316.63,-59.24 376.03,-53.97 420.61,-55.82"/>
<polygon fill="orange" stroke="orange" points="200.54,-320.94 204.23,-330.87 207.54,-320.8 200.54,-320.94"/>
</a>
</g>
<text text-anchor="middle" x="332.5" y="-96" font-family="Helvetica,sans-Serif" font-size="10.00" fill="grey"> &lt; RegSomeWoBool &gt;</text>
</g>
<!-- Node24 -->
<g id="Node000024" class="node">
<title>Node24</title>
<g id="a_Node000024"><a xlink:href="struct_scalar_defaults_base.html" target="_top" xlink:title=" ">
<polygon fill="white" stroke="#666666" points="538.5,-30 425.5,-30 425.5,0 538.5,0 538.5,-30"/>
<text text-anchor="start" x="433.5" y="-18" font-family="Helvetica,sans-Serif" font-size="10.00">ScalarDefaultsBase</text>
<text text-anchor="middle" x="482" y="-7" font-family="Helvetica,sans-Serif" font-size="10.00">&lt; RegSomeWoInt &gt;</text>
</a>
</g>
</g>
<!-- Node1&#45;&gt;Node24 -->
<g id="edge30_Node000001_Node000024" class="edge">
<title>Node1&#45;&gt;Node24</title>
<g id="a_edge30_Node000001_Node000024"><a xlink:title=" ">
<path fill="none" stroke="orange" stroke-dasharray="5,2" d="M207.46,-320.56C214.39,-254.4 236.37,-79.54 278,-42 317.48,-6.41 380.08,-3.18 425.33,-6.65"/>
<polygon fill="orange" stroke="orange" points="203.94,-320.59 206.41,-330.9 210.9,-321.3 203.94,-320.59"/>
</a>
</g>
<text text-anchor="middle" x="332.5" y="-45" font-family="Helvetica,sans-Serif" font-size="10.00" fill="grey"> &lt; RegSomeWoInt &gt;</text>
</g>
<!-- Node2 -->
<g id="Node000002" class="node">
<title>Node2</title>
<g id="a_Node000002"><a xlink:href="struct_all_register_defaults.html" target="_top" xlink:title=" ">
<polygon fill="white" stroke="#666666" points="111,-361 0,-361 0,-331 111,-331 111,-361"/>
<text text-anchor="start" x="8" y="-349" font-family="Helvetica,sans-Serif" font-size="10.00">AllRegisterDefaults</text>
<text text-anchor="middle" x="55.5" y="-338" font-family="Helvetica,sans-Serif" font-size="10.00">&lt; DERIVED &gt;</text>
</a>
</g>
</g>
<!-- Node2&#45;&gt;Node1 -->
<g id="edge1_Node000001_Node000002" class="edge">
<title>Node2&#45;&gt;Node1</title>
<g id="a_edge1_Node000001_Node000002"><a xlink:title=" ">
<path fill="none" stroke="#63b8ff" d="M121.06,-346C130.02,-346 139.15,-346 147.91,-346"/>
<polygon fill="#63b8ff" stroke="#63b8ff" points="121.05,-342.5 111.05,-346 121.05,-349.5 121.05,-342.5"/>
</a>
</g>
</g>
<!-- Node4 -->
<g id="Node000004" class="node">
<title>Node4</title>
<g id="a_Node000004"><a xlink:href="struct_reg_some_bool.html" target="_top" xlink:title=" ">
<polygon fill="white" stroke="#666666" points="1018.5,-601.5 933.5,-601.5 933.5,-582.5 1018.5,-582.5 1018.5,-601.5"/>
<text text-anchor="middle" x="976" y="-589.5" font-family="Helvetica,sans-Serif" font-size="10.00">RegSomeBool</text>
</a>
</g>
</g>
<!-- Node3&#45;&gt;Node4 -->
<g id="edge3_Node000003_Node000004" class="edge">
<title>Node3&#45;&gt;Node4</title>
<g id="a_edge3_Node000003_Node000004"><a xlink:title=" ">
<path fill="none" stroke="#63b8ff" d="M896.27,-592C909.31,-592 922.07,-592 933.38,-592"/>
<polygon fill="#63b8ff" stroke="#63b8ff" points="896.25,-588.5 886.25,-592 896.25,-595.5 896.25,-588.5"/>
</a>
</g>
</g>
<!-- Node6 -->
<g id="Node000006" class="node">
<title>Node6</title>
<g id="a_Node000006"><a xlink:href="struct_reg_some_int.html" target="_top" xlink:title=" ">
<polygon fill="white" stroke="#666666" points="1014,-675.5 938,-675.5 938,-656.5 1014,-656.5 1014,-675.5"/>
<text text-anchor="middle" x="976" y="-663.5" font-family="Helvetica,sans-Serif" font-size="10.00">RegSomeInt</text>
</a>
</g>
</g>
<!-- Node5&#45;&gt;Node6 -->
<g id="edge5_Node000005_Node000006" class="edge">
<title>Node5&#45;&gt;Node6</title>
<g id="a_edge5_Node000005_Node000006"><a xlink:title=" ">
<path fill="none" stroke="#63b8ff" d="M891.74,-666C908.06,-666 924.13,-666 937.73,-666"/>
<polygon fill="#63b8ff" stroke="#63b8ff" points="891.57,-662.5 881.57,-666 891.57,-669.5 891.57,-662.5"/>
</a>
</g>
</g>
<!-- Node8 -->
<g id="Node000008" class="node">
<title>Node8</title>
<g id="a_Node000008"><a xlink:href="struct_reg_some_ro_bool.html" target="_top" xlink:title=" ">
<polygon fill="white" stroke="#666666" points="1025,-724.5 927,-724.5 927,-705.5 1025,-705.5 1025,-724.5"/>
<text text-anchor="middle" x="976" y="-712.5" font-family="Helvetica,sans-Serif" font-size="10.00">RegSomeRoBool</text>
</a>
</g>
</g>
<!-- Node7&#45;&gt;Node8 -->
<g id="edge7_Node000007_Node000008" class="edge">
<title>Node7&#45;&gt;Node8</title>
<g id="a_edge7_Node000007_Node000008"><a xlink:title=" ">
<path fill="none" stroke="#63b8ff" d="M885.9,-715C900.06,-715 914.24,-715 926.98,-715"/>
<polygon fill="#63b8ff" stroke="#63b8ff" points="885.61,-711.5 875.61,-715 885.61,-718.5 885.61,-711.5"/>
</a>
</g>
</g>
<!-- Node10 -->
<g id="Node000010" class="node">
<title>Node10</title>
<g id="a_Node000010"><a xlink:href="struct_reg_some_ro_int.html" target="_top" xlink:title=" ">
<polygon fill="white" stroke="#666666" points="1020.5,-384.5 931.5,-384.5 931.5,-365.5 1020.5,-365.5 1020.5,-384.5"/>
<text text-anchor="middle" x="976" y="-372.5" font-family="Helvetica,sans-Serif" font-size="10.00">RegSomeRoInt</text>
</a>
</g>
</g>
<!-- Node9&#45;&gt;Node10 -->
<g id="edge9_Node000009_Node000010" class="edge">
<title>Node9&#45;&gt;Node10</title>
<g id="a_edge9_Node000009_Node000010"><a xlink:title=" ">
<path fill="none" stroke="#63b8ff" d="M885.98,-375C901.8,-375 917.63,-375 931.46,-375"/>
<polygon fill="#63b8ff" stroke="#63b8ff" points="885.61,-371.5 875.61,-375 885.61,-378.5 885.61,-371.5"/>
</a>
</g>
</g>
<!-- Node12 -->
<g id="Node000012" class="node">
<title>Node12</title>
<g id="a_Node000012"><a xlink:href="struct_reg_some_string.html" target="_top" xlink:title=" ">
<polygon fill="white" stroke="#666666" points="1022,-563.5 930,-563.5 930,-544.5 1022,-544.5 1022,-563.5"/>
<text text-anchor="middle" x="976" y="-551.5" font-family="Helvetica,sans-Serif" font-size="10.00">RegSomeString</text>
</a>
</g>
</g>
<!-- Node11&#45;&gt;Node12 -->
<g id="edge11_Node000011_Node000012" class="edge">
<title>Node11&#45;&gt;Node12</title>
<g id="a_edge11_Node000011_Node000012"><a xlink:title=" ">
<path fill="none" stroke="#63b8ff" d="M899.3,-554C909.86,-554 920.18,-554 929.62,-554"/>
<polygon fill="#63b8ff" stroke="#63b8ff" points="899.11,-550.5 889.11,-554 899.11,-557.5 899.11,-550.5"/>
</a>
</g>
</g>
<!-- Node14 -->
<g id="Node000014" class="node">
<title>Node14</title>
<g id="a_Node000014"><a xlink:href="struct_reg_some_wo_bool.html" target="_top" xlink:title=" ">
<polygon fill="white" stroke="#666666" points="1026,-465.5 926,-465.5 926,-446.5 1026,-446.5 1026,-465.5"/>
<text text-anchor="middle" x="976" y="-453.5" font-family="Helvetica,sans-Serif" font-size="10.00">RegSomeWoBool</text>
</a>
</g>
</g>
<!-- Node13&#45;&gt;Node14 -->
<g id="edge13_Node000013_Node000014" class="edge">
<title>Node13&#45;&gt;Node14</title>
<g id="a_edge13_Node000013_Node000014"><a xlink:title=" ">
<path fill="none" stroke="#63b8ff" d="M887.31,-456C900.59,-456 913.84,-456 925.86,-456"/>
<polygon fill="#63b8ff" stroke="#63b8ff" points="887.16,-452.5 877.16,-456 887.16,-459.5 887.16,-452.5"/>
</a>
</g>
</g>
<!-- Node16 -->
<g id="Node000016" class="node">
<title>Node16</title>
<g id="a_Node000016"><a xlink:href="struct_reg_some_wo_int.html" target="_top" xlink:title=" ">
<polygon fill="white" stroke="#666666" points="1021.5,-518.5 930.5,-518.5 930.5,-499.5 1021.5,-499.5 1021.5,-518.5"/>
<text text-anchor="middle" x="976" y="-506.5" font-family="Helvetica,sans-Serif" font-size="10.00">RegSomeWoInt</text>
</a>
</g>
</g>
<!-- Node15&#45;&gt;Node16 -->
<g id="edge15_Node000015_Node000016" class="edge">
<title>Node15&#45;&gt;Node16</title>
<g id="a_edge15_Node000015_Node000016"><a xlink:title=" ">
<path fill="none" stroke="#63b8ff" d="M887.46,-509C902.36,-509 917.21,-509 930.33,-509"/>
<polygon fill="#63b8ff" stroke="#63b8ff" points="887.16,-505.5 877.16,-509 887.16,-512.5 887.16,-505.5"/>
</a>
</g>
</g>
<!-- Node17&#45;&gt;Node3 -->
<g id="edge17_Node000017_Node000003" class="edge">
<title>Node17&#45;&gt;Node3</title>
<g id="a_edge17_Node000017_Node000003"><a xlink:title=" ">
<path fill="none" stroke="orange" stroke-dasharray="5,2" d="M533.92,-557.72C547.84,-560.68 562.96,-563.68 577,-566 619.59,-573.05 667.15,-578.94 707,-583.32"/>
<polygon fill="orange" stroke="orange" points="534.54,-554.27 524.03,-555.58 533.06,-561.11 534.54,-554.27"/>
</a>
</g>
<text text-anchor="middle" x="631.5" y="-583" font-family="Helvetica,sans-Serif" font-size="10.00" fill="grey"> &lt; RegSomeBool &gt;</text>
</g>
<!-- Node17&#45;&gt;Node5 -->
<g id="edge18_Node000017_Node000005" class="edge">
<title>Node17&#45;&gt;Node5</title>
<g id="a_edge18_Node000017_Node000005"><a xlink:title=" ">
<path fill="none" stroke="orange" stroke-dasharray="5,2" d="M507.98,-560.48C526.61,-570.92 552.9,-584.89 577,-595 639.89,-621.39 716.25,-644.21 760.03,-656.45"/>
<polygon fill="orange" stroke="orange" points="509.67,-557.41 499.24,-555.53 506.22,-563.5 509.67,-557.41"/>
</a>
</g>
<text text-anchor="middle" x="631.5" y="-636" font-family="Helvetica,sans-Serif" font-size="10.00" fill="grey"> &lt; RegSomeInt &gt;</text>
</g>
<!-- Node17&#45;&gt;Node7 -->
<g id="edge19_Node000017_Node000007" class="edge">
<title>Node17&#45;&gt;Node7</title>
<g id="a_edge19_Node000017_Node000007"><a xlink:title=" ">
<path fill="none" stroke="orange" stroke-dasharray="5,2" d="M495.08,-564.16C511.16,-586.96 541.71,-625.79 577,-648 619.64,-674.85 673.75,-691.55 717.45,-701.56"/>
<polygon fill="orange" stroke="orange" points="497.83,-561.98 489.28,-555.73 492.06,-565.95 497.83,-561.98"/>
</a>
</g>
<text text-anchor="middle" x="631.5" y="-696" font-family="Helvetica,sans-Serif" font-size="10.00" fill="grey"> &lt; RegSomeRoBool &gt;</text>
</g>
<!-- Node17&#45;&gt;Node9 -->
<g id="edge20_Node000017_Node000009" class="edge">
<title>Node17&#45;&gt;Node9</title>
<g id="a_edge20_Node000017_Node000009"><a xlink:title=" ">
<path fill="none" stroke="orange" stroke-dasharray="5,2" d="M498.33,-528.84C515.83,-510.1 546.05,-480.19 577,-461 629.49,-428.45 696.38,-404.31 742.24,-390.02"/>
<polygon fill="orange" stroke="orange" points="495.62,-526.62 491.44,-536.36 500.78,-531.35 495.62,-526.62"/>
</a>
</g>
<text text-anchor="middle" x="631.5" y="-464" font-family="Helvetica,sans-Serif" font-size="10.00" fill="grey"> &lt; RegSomeRoInt &gt;</text>
</g>
<!-- Node17&#45;&gt;Node11 -->
<g id="edge21_Node000017_Node000011" class="edge">
<title>Node17&#45;&gt;Node11</title>
<g id="a_edge21_Node000017_Node000011"><a xlink:title=" ">
<path fill="none" stroke="orange" stroke-dasharray="5,2" d="M569.21,-548.21C611.02,-549.28 661.26,-550.56 703.77,-551.65"/>
<polygon fill="orange" stroke="orange" points="569.13,-544.7 559.05,-547.95 568.95,-551.7 569.13,-544.7"/>
</a>
</g>
<text text-anchor="middle" x="631.5" y="-554" font-family="Helvetica,sans-Serif" font-size="10.00" fill="grey"> &lt; RegSomeString &gt;</text>
</g>
<!-- Node17&#45;&gt;Node13 -->
<g id="edge22_Node000017_Node000013" class="edge">
<title>Node17&#45;&gt;Node13</title>
<g id="a_edge22_Node000017_Node000013"><a xlink:title=" ">
<path fill="none" stroke="orange" stroke-dasharray="5,2" d="M511.28,-531.98C529.66,-523.29 554.34,-512.41 577,-505 622.17,-490.23 674.03,-478.4 715.89,-470.06"/>
<polygon fill="orange" stroke="orange" points="509.53,-528.94 502.02,-536.42 512.55,-535.25 509.53,-528.94"/>
</a>
</g>
<text text-anchor="middle" x="631.5" y="-508" font-family="Helvetica,sans-Serif" font-size="10.00" fill="grey"> &lt; RegSomeWoBool &gt;</text>
</g>
<!-- Node17&#45;&gt;Node15 -->
<g id="edge23_Node000017_Node000015" class="edge">
<title>Node17&#45;&gt;Node15</title>
<g id="a_edge23_Node000017_Node000015"><a xlink:title=" ">
<path fill="none" stroke="orange" stroke-dasharray="5,2" d="M560.37,-535.12C566,-534.39 571.58,-533.67 577,-533 622.92,-527.3 674.36,-521.62 715.78,-517.21"/>
<polygon fill="orange" stroke="orange" points="559.69,-531.68 550.24,-536.47 560.61,-538.62 559.69,-531.68"/>
</a>
</g>
<text text-anchor="middle" x="631.5" y="-536" font-family="Helvetica,sans-Serif" font-size="10.00" fill="grey"> &lt; RegSomeWoInt &gt;</text>
</g>
</g>
</svg>

<g id="navigator" transform="translate(0 0)" fill="#404254">
  <rect fill="#f2f5e9" fill-opacity="0.5" stroke="#606060" stroke-width=".5" x="0" y="0" width="60" height="60"/>
  <use id="zoomplus" xlink:href="#zoomPlus" x="17" y="9" onmousedown="handleZoom(evt,'in')"/>
  <use id="zoomminus" xlink:href="#zoomMin" x="42" y="9" onmousedown="handleZoom(evt,'out')"/>
  <use id="reset" xlink:href="#resetDef" x="30" y="36" onmousedown="handleReset()"/>
   <use id="arrowup" xlink:href="#arrowUp" x="0" y="0" onmousedown="handlePan(0,-1)"/>
  <use id="arrowright" xlink:href="#arrowRight" x="0" y="0" onmousedown="handlePan(1,0)"/>
  <use id="arrowdown" xlink:href="#arrowDown" x="0" y="0" onmousedown="handlePan(0,1)"/>
  <use id="arrowleft" xlink:href="#arrowLeft" x="0" y="0" onmousedown="handlePan(-1,0)"/>
</g>
<svg viewBox="0 0 15 15" width="100%" height="30px" preserveAspectRatio="xMaxYMin meet">
 <g id="arrow_out" transform="scale(0.3 0.3)">
  <a xlink:href="struct_scalar_defaults_base__inherit__graph_org.svg" target="_base">
   <rect id="button" ry="5" rx="5" y="6" x="6" height="38" width="38"
        fill="#f2f5e9" fill-opacity="0.5" stroke="#606060" stroke-width="1.0"/>
   <path id="arrow"
     d="M 11.500037,31.436501 C 11.940474,20.09759 22.043105,11.32322 32.158766,21.979434 L 37.068811,17.246167 C 37.068811,17.246167 37.088388,32 37.088388,32 L 22.160133,31.978069 C 22.160133,31.978069 26.997745,27.140456 26.997745,27.140456 C 18.528582,18.264221 13.291696,25.230495 11.500037,31.436501 z"
     style="fill:#404040;"/>
  </a>
 </g>
</svg>

<style type='text/css'>
<![CDATA[
[data-mouse-over-selected='false'] { opacity: 0.7; }
[data-mouse-over-selected='true']  { opacity: 1.0; }
]]>
</style>
<script type="application/ecmascript"><![CDATA[
document.addEventListener('DOMContentLoaded', (event) => {
  highlightEdges();
  highlightAdjacentNodes();
});
]]></script>
</svg>
