<?xml version="1.0" encoding="UTF-8" standalone="no"?>
<!DOCTYPE svg PUBLIC "-//W3C//DTD SVG 1.1//EN"
 "http://www.w3.org/Graphics/SVG/1.1/DTD/svg11.dtd">
<!-- Generated by graphviz version 2.40.1 (20161225.0304)
 -->
<!-- Title: device_backends/Rebot/include/RebotBackend.h Pages: 1 -->
<svg width="1711pt" height="95pt"
 viewBox="0.00 0.00 1710.50 95.00" xmlns="http://www.w3.org/2000/svg" xmlns:xlink="http://www.w3.org/1999/xlink">
<g id="graph0" class="graph" transform="scale(1 1) rotate(0) translate(4 91)">
<title>device_backends/Rebot/include/RebotBackend.h</title>
<polygon fill="#ffffff" stroke="transparent" points="-4,4 -4,-91 1706.5,-91 1706.5,4 -4,4"/>
<!-- Node0 -->
<g id="node1" class="node">
<title>Node0</title>
<polygon fill="#bfbfbf" stroke="#000000" points="1044.5,-56.5 1044.5,-86.5 1181.5,-86.5 1181.5,-56.5 1044.5,-56.5"/>
<text text-anchor="start" x="1052.5" y="-74.5" font-family="Helvetica,sans-Serif" font-size="10.00" fill="#000000">device_backends/Rebot</text>
<text text-anchor="middle" x="1113" y="-63.5" font-family="Helvetica,sans-Serif" font-size="10.00" fill="#000000">/include/RebotBackend.h</text>
</g>
<!-- Node1 -->
<g id="node2" class="node">
<title>Node1</title>
<polygon fill="#ffffff" stroke="#bfbfbf" points="0,-.5 0,-19.5 160,-19.5 160,-.5 0,-.5"/>
<text text-anchor="middle" x="80" y="-7.5" font-family="Helvetica,sans-Serif" font-size="10.00" fill="#000000">NumericAddressedBackend.h</text>
</g>
<!-- Node0&#45;&gt;Node1 -->
<g id="edge1" class="edge">
<title>Node0&#45;&gt;Node1</title>
<path fill="none" stroke="#191970" d="M1044.2081,-69.1011C889.8899,-63.4263 504.1473,-47.6076 170.3886,-20.0713"/>
<polygon fill="#191970" stroke="#191970" points="170.2876,-16.551 160.0323,-19.2117 169.7085,-23.527 170.2876,-16.551"/>
</g>
<!-- Node2 -->
<g id="node3" class="node">
<title>Node2</title>
<polygon fill="#ffffff" stroke="#bfbfbf" points="178,-.5 178,-19.5 324,-19.5 324,-.5 178,-.5"/>
<text text-anchor="middle" x="251" y="-7.5" font-family="Helvetica,sans-Serif" font-size="10.00" fill="#000000">boost/algorithm/string.hpp</text>
</g>
<!-- Node0&#45;&gt;Node2 -->
<g id="edge2" class="edge">
<title>Node0&#45;&gt;Node2</title>
<path fill="none" stroke="#191970" d="M1044.2962,-68.2459C910.0354,-61.6068 603.2148,-45.0608 334.637,-20.1093"/>
<polygon fill="#191970" stroke="#191970" points="334.5782,-16.5887 324.2958,-19.1426 333.9266,-23.5583 334.5782,-16.5887"/>
</g>
<!-- Node3 -->
<g id="node4" class="node">
<title>Node3</title>
<polygon fill="#ffffff" stroke="#bfbfbf" points="342,-.5 342,-19.5 434,-19.5 434,-.5 342,-.5"/>
<text text-anchor="middle" x="388" y="-7.5" font-family="Helvetica,sans-Serif" font-size="10.00" fill="#000000">boost/array.hpp</text>
</g>
<!-- Node0&#45;&gt;Node3 -->
<g id="edge3" class="edge">
<title>Node0&#45;&gt;Node3</title>
<path fill="none" stroke="#191970" d="M1044.2803,-68.5602C924.4368,-62.9196 669.2963,-48.6348 444.1791,-20.0344"/>
<polygon fill="#191970" stroke="#191970" points="444.5237,-16.55 434.1596,-18.7493 443.6331,-23.4931 444.5237,-16.55"/>
</g>
<!-- Node4 -->
<g id="node5" class="node">
<title>Node4</title>
<polygon fill="#ffffff" stroke="#bfbfbf" points="452,-.5 452,-19.5 540,-19.5 540,-.5 452,-.5"/>
<text text-anchor="middle" x="496" y="-7.5" font-family="Helvetica,sans-Serif" font-size="10.00" fill="#000000">boost/asio.hpp</text>
</g>
<!-- Node0&#45;&gt;Node4 -->
<g id="edge4" class="edge">
<title>Node0&#45;&gt;Node4</title>
<path fill="none" stroke="#191970" d="M1044.1701,-67.3403C939.6041,-60.551 734.3049,-45.3828 550.3269,-20.0724"/>
<polygon fill="#191970" stroke="#191970" points="550.5809,-16.5742 540.1944,-18.6651 549.6178,-23.5076 550.5809,-16.5742"/>
</g>
<!-- Node5 -->
<g id="node6" class="node">
<title>Node5</title>
<polygon fill="#ffffff" stroke="#bfbfbf" points="558.5,-.5 558.5,-19.5 659.5,-19.5 659.5,-.5 558.5,-.5"/>
<text text-anchor="middle" x="609" y="-7.5" font-family="Helvetica,sans-Serif" font-size="10.00" fill="#000000">boost/chrono.hpp</text>
</g>
<!-- Node0&#45;&gt;Node5 -->
<g id="edge5" class="edge">
<title>Node0&#45;&gt;Node5</title>
<path fill="none" stroke="#191970" d="M1044.4089,-64.6122C959.1076,-55.8069 808.7971,-39.5073 669.7058,-20.0408"/>
<polygon fill="#191970" stroke="#191970" points="670.102,-16.5622 659.7117,-18.6338 669.1261,-23.4938 670.102,-16.5622"/>
</g>
<!-- Node6 -->
<g id="node7" class="node">
<title>Node6</title>
<polygon fill="#ffffff" stroke="#bfbfbf" points="678,-.5 678,-19.5 812,-19.5 812,-.5 678,-.5"/>
<text text-anchor="middle" x="745" y="-7.5" font-family="Helvetica,sans-Serif" font-size="10.00" fill="#000000">boost/make_shared.hpp</text>
</g>
<!-- Node0&#45;&gt;Node6 -->
<g id="edge6" class="edge">
<title>Node0&#45;&gt;Node6</title>
<path fill="none" stroke="#191970" d="M1044.2137,-60.0045C977.8644,-48.9162 878.0709,-32.2387 812.2455,-21.238"/>
<polygon fill="#191970" stroke="#191970" points="812.423,-17.7192 801.9829,-19.523 811.2691,-24.6235 812.423,-17.7192"/>
</g>
<!-- Node7 -->
<g id="node8" class="node">
<title>Node7</title>
<polygon fill="#ffffff" stroke="#bfbfbf" points="830.5,-.5 830.5,-19.5 949.5,-19.5 949.5,-.5 830.5,-.5"/>
<text text-anchor="middle" x="890" y="-7.5" font-family="Helvetica,sans-Serif" font-size="10.00" fill="#000000">boost/shared_ptr.hpp</text>
</g>
<!-- Node0&#45;&gt;Node7 -->
<g id="edge7" class="edge">
<title>Node0&#45;&gt;Node7</title>
<path fill="none" stroke="#191970" d="M1058.4481,-56.4554C1020.2608,-45.9239 969.8912,-32.0328 934.2094,-22.1923"/>
<polygon fill="#191970" stroke="#191970" points="935.1277,-18.8149 924.5571,-19.5303 933.2667,-25.563 935.1277,-18.8149"/>
</g>
<!-- Node8 -->
<g id="node9" class="node">
<title>Node8</title>
<polygon fill="#ffffff" stroke="#bfbfbf" points="967.5,-.5 967.5,-19.5 1066.5,-19.5 1066.5,-.5 967.5,-.5"/>
<text text-anchor="middle" x="1017" y="-7.5" font-family="Helvetica,sans-Serif" font-size="10.00" fill="#000000">boost/thread.hpp</text>
</g>
<!-- Node0&#45;&gt;Node8 -->
<g id="edge8" class="edge">
<title>Node0&#45;&gt;Node8</title>
<path fill="none" stroke="#191970" d="M1089.2697,-56.2977C1074.4638,-46.8127 1055.4772,-34.6495 1040.6807,-25.1705"/>
<polygon fill="#191970" stroke="#191970" points="1042.3925,-22.1105 1032.0841,-19.6633 1038.6165,-28.0047 1042.3925,-22.1105"/>
</g>
<!-- Node9 -->
<g id="node10" class="node">
<title>Node9</title>
<polygon fill="#ffffff" stroke="#bfbfbf" points="1085,-.5 1085,-19.5 1141,-19.5 1141,-.5 1085,-.5"/>
<text text-anchor="middle" x="1113" y="-7.5" font-family="Helvetica,sans-Serif" font-size="10.00" fill="#000000">iomanip</text>
</g>
<!-- Node0&#45;&gt;Node9 -->
<g id="edge9" class="edge">
<title>Node0&#45;&gt;Node9</title>
<path fill="none" stroke="#191970" d="M1113,-56.2977C1113,-48.3834 1113,-38.6043 1113,-30.0759"/>
<polygon fill="#191970" stroke="#191970" points="1116.5001,-29.8469 1113,-19.8469 1109.5001,-29.847 1116.5001,-29.8469"/>
</g>
<!-- Node10 -->
<g id="node11" class="node">
<title>Node10</title>
<polygon fill="#ffffff" stroke="#bfbfbf" points="1159,-.5 1159,-19.5 1219,-19.5 1219,-.5 1159,-.5"/>
<text text-anchor="middle" x="1189" y="-7.5" font-family="Helvetica,sans-Serif" font-size="10.00" fill="#000000">iostream</text>
</g>
<!-- Node0&#45;&gt;Node10 -->
<g id="edge10" class="edge">
<title>Node0&#45;&gt;Node10</title>
<path fill="none" stroke="#191970" d="M1131.7865,-56.2977C1143.1053,-47.1384 1157.5105,-35.4816 1169.0346,-26.1562"/>
<polygon fill="#191970" stroke="#191970" points="1171.2595,-28.8583 1176.8314,-19.8469 1166.8561,-23.4167 1171.2595,-28.8583"/>
</g>
<!-- Node11 -->
<g id="node12" class="node">
<title>Node11</title>
<polygon fill="#ffffff" stroke="#bfbfbf" points="1237,-.5 1237,-19.5 1295,-19.5 1295,-.5 1237,-.5"/>
<text text-anchor="middle" x="1266" y="-7.5" font-family="Helvetica,sans-Serif" font-size="10.00" fill="#000000">memory</text>
</g>
<!-- Node0&#45;&gt;Node11 -->
<g id="edge11" class="edge">
<title>Node0&#45;&gt;Node11</title>
<path fill="none" stroke="#191970" d="M1150.428,-56.4554C1175.6206,-46.329 1208.5407,-33.0964 1232.7996,-23.3453"/>
<polygon fill="#191970" stroke="#191970" points="1234.3173,-26.5074 1242.2904,-19.5303 1231.7066,-20.0125 1234.3173,-26.5074"/>
</g>
<!-- Node12 -->
<g id="node13" class="node">
<title>Node12</title>
<polygon fill="#ffffff" stroke="#bfbfbf" points="1313,-.5 1313,-19.5 1361,-19.5 1361,-.5 1313,-.5"/>
<text text-anchor="middle" x="1337" y="-7.5" font-family="Helvetica,sans-Serif" font-size="10.00" fill="#000000">mutex</text>
</g>
<!-- Node0&#45;&gt;Node12 -->
<g id="edge12" class="edge">
<title>Node0&#45;&gt;Node12</title>
<path fill="none" stroke="#191970" d="M1170.7998,-56.4119C1206.4505,-46.9908 1253.3359,-34.3963 1303.199,-20.1741"/>
<polygon fill="#191970" stroke="#191970" points="1304.2241,-23.5213 1312.8748,-17.4044 1302.2977,-16.7916 1304.2241,-23.5213"/>
</g>
<!-- Node13 -->
<g id="node14" class="node">
<title>Node13</title>
<polygon fill="#ffffff" stroke="#bfbfbf" points="1379,-.5 1379,-19.5 1435,-19.5 1435,-.5 1379,-.5"/>
<text text-anchor="middle" x="1407" y="-7.5" font-family="Helvetica,sans-Serif" font-size="10.00" fill="#000000">sstream</text>
</g>
<!-- Node0&#45;&gt;Node13 -->
<g id="edge13" class="edge">
<title>Node0&#45;&gt;Node13</title>
<path fill="none" stroke="#191970" d="M1181.7167,-59.0101C1231.3,-49.7023 1300.0352,-36.1958 1369.0316,-20.122"/>
<polygon fill="#191970" stroke="#191970" points="1369.8314,-23.5294 1378.7671,-17.837 1368.2319,-16.7146 1369.8314,-23.5294"/>
</g>
<!-- Node14 -->
<g id="node15" class="node">
<title>Node14</title>
<polygon fill="#ffffff" stroke="#bfbfbf" points="1453,-.5 1453,-19.5 1503,-19.5 1503,-.5 1453,-.5"/>
<text text-anchor="middle" x="1478" y="-7.5" font-family="Helvetica,sans-Serif" font-size="10.00" fill="#000000">stdio.h</text>
</g>
<!-- Node0&#45;&gt;Node14 -->
<g id="edge14" class="edge">
<title>Node0&#45;&gt;Node14</title>
<path fill="none" stroke="#191970" d="M1181.6409,-63.5009C1246.6959,-55.3124 1347.2413,-41.0867 1442.9982,-19.9968"/>
<polygon fill="#191970" stroke="#191970" points="1443.8477,-23.3934 1452.8455,-17.7996 1442.3232,-16.5614 1443.8477,-23.3934"/>
</g>
<!-- Node15 -->
<g id="node16" class="node">
<title>Node15</title>
<polygon fill="#ffffff" stroke="#bfbfbf" points="1521.5,-.5 1521.5,-19.5 1574.5,-19.5 1574.5,-.5 1521.5,-.5"/>
<text text-anchor="middle" x="1548" y="-7.5" font-family="Helvetica,sans-Serif" font-size="10.00" fill="#000000">stdlib.h</text>
</g>
<!-- Node0&#45;&gt;Node15 -->
<g id="edge15" class="edge">
<title>Node0&#45;&gt;Node15</title>
<path fill="none" stroke="#191970" d="M1181.6153,-65.6437C1259.3941,-58.3325 1390.0465,-44.0181 1511.5187,-19.8402"/>
<polygon fill="#191970" stroke="#191970" points="1512.2555,-23.2622 1521.3661,-17.8542 1510.8715,-16.4003 1512.2555,-23.2622"/>
</g>
<!-- Node16 -->
<g id="node17" class="node">
<title>Node16</title>
<polygon fill="#ffffff" stroke="#bfbfbf" points="1593,-.5 1593,-19.5 1637,-19.5 1637,-.5 1593,-.5"/>
<text text-anchor="middle" x="1615" y="-7.5" font-family="Helvetica,sans-Serif" font-size="10.00" fill="#000000">string</text>
</g>
<!-- Node0&#45;&gt;Node16 -->
<g id="edge16" class="edge">
<title>Node0&#45;&gt;Node16</title>
<path fill="none" stroke="#191970" d="M1181.5494,-68.3726C1271.7815,-63.289 1435.271,-50.7416 1582.6626,-19.9135"/>
<polygon fill="#191970" stroke="#191970" points="1583.7422,-23.2623 1592.7959,-17.7594 1582.2867,-16.4153 1583.7422,-23.2623"/>
</g>
<!-- Node17 -->
<g id="node18" class="node">
<title>Node17</title>
<polygon fill="#ffffff" stroke="#bfbfbf" points="1655.5,-.5 1655.5,-19.5 1702.5,-19.5 1702.5,-.5 1655.5,-.5"/>
<text text-anchor="middle" x="1679" y="-7.5" font-family="Helvetica,sans-Serif" font-size="10.00" fill="#000000">vector</text>
</g>
<!-- Node0&#45;&gt;Node17 -->
<g id="edge17" class="edge">
<title>Node0&#45;&gt;Node17</title>
<path fill="none" stroke="#191970" d="M1181.7805,-69.2002C1281.9854,-64.8918 1473.9006,-53.0242 1645.3861,-19.7417"/>
<polygon fill="#191970" stroke="#191970" points="1646.2142,-23.146 1655.3491,-17.7791 1644.8612,-16.2779 1646.2142,-23.146"/>
</g>
</g>
</svg>
