<?xml version="1.0" encoding="UTF-8" standalone="no"?>
<!DOCTYPE svg PUBLIC "-//W3C//DTD SVG 1.1//EN"
 "http://www.w3.org/Graphics/SVG/1.1/DTD/svg11.dtd">
<!-- Generated by graphviz version 2.43.0 (0)
 -->
<!-- Title: Graphical Class Hierarchy Pages: 1 -->
<svg width="859pt" height="918pt"
 viewBox="0.00 0.00 859.00 918.00" xmlns="http://www.w3.org/2000/svg" xmlns:xlink="http://www.w3.org/1999/xlink">
<g id="graph0" class="graph" transform="scale(1 1) rotate(0) translate(4 914)">
<title>Graphical Class Hierarchy</title>
<polygon fill="white" stroke="transparent" points="-4,4 -4,-914 855,-914 855,4 -4,4"/>
<!-- Node0 -->
<g id="node1" class="node">
<title>Node0</title>
<g id="a_node1"><a xlink:href="class_chimera_t_k_1_1_decorator_type_holder.html" target="_top" xlink:title=" ">
<polygon fill="white" stroke="black" points="14.5,-423.5 14.5,-453.5 161.5,-453.5 161.5,-423.5 14.5,-423.5"/>
<text text-anchor="start" x="22.5" y="-441.5" font-family="Helvetica,sans-Serif" font-size="10.00">ChimeraTK::DecoratorType</text>
<text text-anchor="middle" x="88" y="-430.5" font-family="Helvetica,sans-Serif" font-size="10.00">Holder</text>
</a>
</g>
</g>
<!-- Node1 -->
<g id="node2" class="node">
<title>Node1</title>
<g id="a_node2"><a xlink:href="class_chimera_t_k_1_1_type_changing_decorator.html" target="_top" xlink:title=" ">
<polygon fill="white" stroke="black" points="219,-570.5 219,-600.5 412,-600.5 412,-570.5 219,-570.5"/>
<text text-anchor="start" x="227" y="-588.5" font-family="Helvetica,sans-Serif" font-size="10.00">ChimeraTK::TypeChangingDecorator</text>
<text text-anchor="middle" x="315.5" y="-577.5" font-family="Helvetica,sans-Serif" font-size="10.00">&lt; T, std::string &gt;</text>
</a>
</g>
</g>
<!-- Node0&#45;&gt;Node1 -->
<g id="edge1" class="edge">
<title>Node0&#45;&gt;Node1</title>
<path fill="none" stroke="midnightblue" d="M105.65,-461.73C127.02,-489.79 166.8,-536.35 212,-561.5 218.23,-564.97 224.94,-567.93 231.84,-570.47"/>
<polygon fill="midnightblue" stroke="midnightblue" points="108.4,-459.58 99.62,-453.66 102.8,-463.77 108.4,-459.58"/>
</g>
<!-- Node5 -->
<g id="node6" class="node">
<title>Node5</title>
<g id="a_node6"><a xlink:href="class_chimera_t_k_1_1_type_changing_decorator.html" target="_top" xlink:title=" ">
<polygon fill="white" stroke="black" points="219,-521.5 219,-551.5 412,-551.5 412,-521.5 219,-521.5"/>
<text text-anchor="start" x="227" y="-539.5" font-family="Helvetica,sans-Serif" font-size="10.00">ChimeraTK::TypeChangingDecorator</text>
<text text-anchor="middle" x="315.5" y="-528.5" font-family="Helvetica,sans-Serif" font-size="10.00">&lt; T, ChimeraTK::Void &gt;</text>
</a>
</g>
</g>
<!-- Node0&#45;&gt;Node5 -->
<g id="edge5" class="edge">
<title>Node0&#45;&gt;Node5</title>
<path fill="none" stroke="midnightblue" d="M118.03,-459.54C142.13,-476.1 177.86,-498.64 212,-512.5 220.38,-515.9 229.35,-518.89 238.38,-521.49"/>
<polygon fill="midnightblue" stroke="midnightblue" points="119.91,-456.58 109.71,-453.74 115.91,-462.33 119.91,-456.58"/>
</g>
<!-- Node9 -->
<g id="node10" class="node">
<title>Node9</title>
<g id="a_node10"><a xlink:href="class_chimera_t_k_1_1_type_changing_decorator.html" target="_top" xlink:title=" ">
<polygon fill="white" stroke="black" points="212,-472.5 212,-502.5 419,-502.5 419,-472.5 212,-472.5"/>
<text text-anchor="start" x="220" y="-490.5" font-family="Helvetica,sans-Serif" font-size="10.00">ChimeraTK::TypeChangingDecorator</text>
<text text-anchor="middle" x="315.5" y="-479.5" font-family="Helvetica,sans-Serif" font-size="10.00">&lt; ChimeraTK::Void, ChimeraTK::Void &gt;</text>
</a>
</g>
</g>
<!-- Node0&#45;&gt;Node9 -->
<g id="edge9" class="edge">
<title>Node0&#45;&gt;Node9</title>
<path fill="none" stroke="midnightblue" d="M168.09,-455.69C193.3,-461.16 220.99,-467.18 245.44,-472.49"/>
<polygon fill="midnightblue" stroke="midnightblue" points="168.71,-452.24 158.19,-453.53 167.22,-459.08 168.71,-452.24"/>
</g>
<!-- Node13 -->
<g id="node14" class="node">
<title>Node13</title>
<g id="a_node14"><a xlink:href="class_chimera_t_k_1_1_type_changing_decorator.html" target="_top" xlink:title=" ">
<polygon fill="white" stroke="black" points="219,-423.5 219,-453.5 412,-453.5 412,-423.5 219,-423.5"/>
<text text-anchor="start" x="227" y="-441.5" font-family="Helvetica,sans-Serif" font-size="10.00">ChimeraTK::TypeChangingDecorator</text>
<text text-anchor="middle" x="315.5" y="-430.5" font-family="Helvetica,sans-Serif" font-size="10.00">&lt; std::string, ChimeraTK::Void &gt;</text>
</a>
</g>
</g>
<!-- Node0&#45;&gt;Node13 -->
<g id="edge13" class="edge">
<title>Node0&#45;&gt;Node13</title>
<path fill="none" stroke="midnightblue" d="M172.03,-438.5C187.31,-438.5 203.38,-438.5 219,-438.5"/>
<polygon fill="midnightblue" stroke="midnightblue" points="171.59,-435 161.59,-438.5 171.59,-442 171.59,-435"/>
</g>
<!-- Node17 -->
<g id="node18" class="node">
<title>Node17</title>
<g id="a_node18"><a xlink:href="class_chimera_t_k_1_1_type_changing_decorator.html" target="_top" xlink:title=" ">
<polygon fill="white" stroke="black" points="219,-374.5 219,-404.5 412,-404.5 412,-374.5 219,-374.5"/>
<text text-anchor="start" x="227" y="-392.5" font-family="Helvetica,sans-Serif" font-size="10.00">ChimeraTK::TypeChangingDecorator</text>
<text text-anchor="middle" x="315.5" y="-381.5" font-family="Helvetica,sans-Serif" font-size="10.00">&lt; std::string, IMPL_T &gt;</text>
</a>
</g>
</g>
<!-- Node0&#45;&gt;Node17 -->
<g id="edge17" class="edge">
<title>Node0&#45;&gt;Node17</title>
<path fill="none" stroke="midnightblue" d="M168.09,-421.31C193.3,-415.84 220.99,-409.82 245.44,-404.51"/>
<polygon fill="midnightblue" stroke="midnightblue" points="167.22,-417.92 158.19,-423.47 168.71,-424.76 167.22,-417.92"/>
</g>
<!-- Node21 -->
<g id="node22" class="node">
<title>Node21</title>
<g id="a_node22"><a xlink:href="class_chimera_t_k_1_1_type_changing_decorator.html" target="_top" xlink:title=" ">
<polygon fill="white" stroke="black" points="219,-325.5 219,-355.5 412,-355.5 412,-325.5 219,-325.5"/>
<text text-anchor="start" x="227" y="-343.5" font-family="Helvetica,sans-Serif" font-size="10.00">ChimeraTK::TypeChangingDecorator</text>
<text text-anchor="middle" x="315.5" y="-332.5" font-family="Helvetica,sans-Serif" font-size="10.00">&lt; ChimeraTK::Void, std::string &gt;</text>
</a>
</g>
</g>
<!-- Node0&#45;&gt;Node21 -->
<g id="edge21" class="edge">
<title>Node0&#45;&gt;Node21</title>
<path fill="none" stroke="midnightblue" d="M168.88,-418.91C171.34,-417.54 173.72,-416.07 176,-414.5 198.26,-399.17 189.52,-380.49 212,-365.5 217.87,-361.59 224.29,-358.29 230.96,-355.5"/>
<polygon fill="midnightblue" stroke="midnightblue" points="167.11,-415.89 159.71,-423.47 170.22,-422.15 167.11,-415.89"/>
</g>
<!-- Node25 -->
<g id="node26" class="node">
<title>Node25</title>
<g id="a_node26"><a xlink:href="class_chimera_t_k_1_1_type_changing_decorator.html" target="_top" xlink:title=" ">
<polygon fill="white" stroke="black" points="219,-276.5 219,-306.5 412,-306.5 412,-276.5 219,-276.5"/>
<text text-anchor="start" x="227" y="-294.5" font-family="Helvetica,sans-Serif" font-size="10.00">ChimeraTK::TypeChangingDecorator</text>
<text text-anchor="middle" x="315.5" y="-283.5" font-family="Helvetica,sans-Serif" font-size="10.00">&lt; ChimeraTK::Void, IMPL_T &gt;</text>
</a>
</g>
</g>
<!-- Node0&#45;&gt;Node25 -->
<g id="edge25" class="edge">
<title>Node0&#45;&gt;Node25</title>
<path fill="none" stroke="midnightblue" d="M170.53,-418.98C172.44,-417.59 174.27,-416.09 176,-414.5 210.14,-383.08 177.39,-347.41 212,-316.5 216.24,-312.72 220.95,-309.48 225.96,-306.72"/>
<polygon fill="midnightblue" stroke="midnightblue" points="168.34,-416.22 161.71,-424.48 172.05,-422.16 168.34,-416.22"/>
</g>
<!-- Node29 -->
<g id="node30" class="node">
<title>Node29</title>
<g id="a_node30"><a xlink:href="class_chimera_t_k_1_1_type_changing_decorator.html" target="_top" xlink:title="Strictly this is not a real decorator.">
<polygon fill="white" stroke="black" points="219,-213.5 219,-243.5 412,-243.5 412,-213.5 219,-213.5"/>
<text text-anchor="start" x="227" y="-231.5" font-family="Helvetica,sans-Serif" font-size="10.00">ChimeraTK::TypeChangingDecorator</text>
<text text-anchor="middle" x="315.5" y="-220.5" font-family="Helvetica,sans-Serif" font-size="10.00">&lt; T, IMPL_T &gt;</text>
</a>
</g>
</g>
<!-- Node0&#45;&gt;Node29 -->
<g id="edge29" class="edge">
<title>Node0&#45;&gt;Node29</title>
<path fill="none" stroke="midnightblue" d="M170.19,-419.69C172.24,-418.1 174.18,-416.37 176,-414.5 222.87,-366.25 167.46,-317.91 212,-267.5 221.33,-256.94 233.83,-249.23 246.89,-243.6"/>
<polygon fill="midnightblue" stroke="midnightblue" points="168.22,-416.8 161.79,-425.22 172.07,-422.64 168.22,-416.8"/>
</g>
<!-- Node2 -->
<g id="node3" class="node">
<title>Node2</title>
<g id="a_node3"><a xlink:href="class_chimera_t_k_1_1_type_changing_string_impl_decorator_3_01_t_00_01std_1_1string_01_4.html" target="_top" xlink:title="The actual partial implementation for strings as impl type.">
<polygon fill="white" stroke="black" points="455,-824.5 455,-854.5 628,-854.5 628,-824.5 455,-824.5"/>
<text text-anchor="start" x="463" y="-842.5" font-family="Helvetica,sans-Serif" font-size="10.00">ChimeraTK::TypeChangingString</text>
<text text-anchor="middle" x="541.5" y="-831.5" font-family="Helvetica,sans-Serif" font-size="10.00">ImplDecorator&lt; T, std::string &gt;</text>
</a>
</g>
</g>
<!-- Node1&#45;&gt;Node2 -->
<g id="edge2" class="edge">
<title>Node1&#45;&gt;Node2</title>
<path fill="none" stroke="midnightblue" d="M335.28,-608.59C361.53,-640.67 410.94,-700.32 455,-749.5 479.16,-776.47 508.43,-806.8 525.7,-824.47"/>
<polygon fill="midnightblue" stroke="midnightblue" points="337.85,-606.21 328.82,-600.67 332.43,-610.63 337.85,-606.21"/>
</g>
<!-- Node3 -->
<g id="node4" class="node">
<title>Node3</title>
<g id="a_node4"><a xlink:href="class_chimera_t_k_1_1_type_changing_direct_cast_decorator_3_01_t_00_01std_1_1string_01_4.html" target="_top" xlink:title="Partial template specialisation for strings as impl type.">
<polygon fill="white" stroke="black" points="670.5,-879.5 670.5,-909.5 844.5,-909.5 844.5,-879.5 670.5,-879.5"/>
<text text-anchor="start" x="678.5" y="-897.5" font-family="Helvetica,sans-Serif" font-size="10.00">ChimeraTK::TypeChangingDirect</text>
<text text-anchor="middle" x="757.5" y="-886.5" font-family="Helvetica,sans-Serif" font-size="10.00">CastDecorator&lt; T, std::string &gt;</text>
</a>
</g>
</g>
<!-- Node2&#45;&gt;Node3 -->
<g id="edge3" class="edge">
<title>Node2&#45;&gt;Node3</title>
<path fill="none" stroke="midnightblue" d="M610.73,-857.04C638.85,-864.26 671.09,-872.55 698.09,-879.49"/>
<polygon fill="midnightblue" stroke="midnightblue" points="611.53,-853.63 600.98,-854.53 609.79,-860.41 611.53,-853.63"/>
</g>
<!-- Node4 -->
<g id="node5" class="node">
<title>Node4</title>
<g id="a_node5"><a xlink:href="class_chimera_t_k_1_1_type_changing_range_checking_decorator_3_01_t_00_01std_1_1string_01_4.html" target="_top" xlink:title=" ">
<polygon fill="white" stroke="black" points="669.5,-819 669.5,-860 845.5,-860 845.5,-819 669.5,-819"/>
<text text-anchor="start" x="677.5" y="-848" font-family="Helvetica,sans-Serif" font-size="10.00">ChimeraTK::TypeChangingRange</text>
<text text-anchor="start" x="677.5" y="-837" font-family="Helvetica,sans-Serif" font-size="10.00">CheckingDecorator&lt; T, std</text>
<text text-anchor="middle" x="757.5" y="-826" font-family="Helvetica,sans-Serif" font-size="10.00">::string &gt;</text>
</a>
</g>
</g>
<!-- Node2&#45;&gt;Node4 -->
<g id="edge4" class="edge">
<title>Node2&#45;&gt;Node4</title>
<path fill="none" stroke="midnightblue" d="M638.29,-839.5C648.65,-839.5 659.14,-839.5 669.39,-839.5"/>
<polygon fill="midnightblue" stroke="midnightblue" points="638,-836 628,-839.5 638,-843 638,-836"/>
</g>
<!-- Node6 -->
<g id="node7" class="node">
<title>Node6</title>
<g id="a_node7"><a xlink:href="class_chimera_t_k_1_1_type_changing_string_impl_decorator_3_01_t_00_01_chimera_t_k_1_1_void_01_4.html" target="_top" xlink:title="The actual partial implementation for Void as impl type.">
<polygon fill="white" stroke="black" points="455,-699 455,-740 628,-740 628,-699 455,-699"/>
<text text-anchor="start" x="463" y="-728" font-family="Helvetica,sans-Serif" font-size="10.00">ChimeraTK::TypeChangingString</text>
<text text-anchor="start" x="463" y="-717" font-family="Helvetica,sans-Serif" font-size="10.00">ImplDecorator&lt; T, ChimeraTK</text>
<text text-anchor="middle" x="541.5" y="-706" font-family="Helvetica,sans-Serif" font-size="10.00">::Void &gt;</text>
</a>
</g>
</g>
<!-- Node5&#45;&gt;Node6 -->
<g id="edge6" class="edge">
<title>Node5&#45;&gt;Node6</title>
<path fill="none" stroke="midnightblue" d="M411.67,-556.42C414.21,-557.99 416.66,-559.68 419,-561.5 445.98,-582.51 435.04,-601.73 455,-629.5 473.62,-655.4 499.29,-681.43 517.63,-698.79"/>
<polygon fill="midnightblue" stroke="midnightblue" points="413.17,-553.26 402.72,-551.54 409.82,-559.4 413.17,-553.26"/>
</g>
<!-- Node7 -->
<g id="node8" class="node">
<title>Node7</title>
<g id="a_node8"><a xlink:href="class_chimera_t_k_1_1_type_changing_direct_cast_decorator_3_01_t_00_01_chimera_t_k_1_1_void_01_4.html" target="_top" xlink:title="Partial template specialisation for Void as impl type.">
<polygon fill="white" stroke="black" points="670.5,-759 670.5,-800 844.5,-800 844.5,-759 670.5,-759"/>
<text text-anchor="start" x="678.5" y="-788" font-family="Helvetica,sans-Serif" font-size="10.00">ChimeraTK::TypeChangingDirect</text>
<text text-anchor="start" x="678.5" y="-777" font-family="Helvetica,sans-Serif" font-size="10.00">CastDecorator&lt; T, ChimeraTK</text>
<text text-anchor="middle" x="757.5" y="-766" font-family="Helvetica,sans-Serif" font-size="10.00">::Void &gt;</text>
</a>
</g>
</g>
<!-- Node6&#45;&gt;Node7 -->
<g id="edge7" class="edge">
<title>Node6&#45;&gt;Node7</title>
<path fill="none" stroke="midnightblue" d="M625.67,-742.82C644.66,-748.14 664.71,-753.76 683.25,-758.96"/>
<polygon fill="midnightblue" stroke="midnightblue" points="626.42,-739.39 615.85,-740.06 624.53,-746.13 626.42,-739.39"/>
</g>
<!-- Node8 -->
<g id="node9" class="node">
<title>Node8</title>
<g id="a_node9"><a xlink:href="class_chimera_t_k_1_1_type_changing_range_checking_decorator_3_01_t_00_01_chimera_t_k_1_1_void_01_4.html" target="_top" xlink:title=" ">
<polygon fill="white" stroke="black" points="664,-699 664,-740 851,-740 851,-699 664,-699"/>
<text text-anchor="start" x="672" y="-728" font-family="Helvetica,sans-Serif" font-size="10.00">ChimeraTK::TypeChangingRange</text>
<text text-anchor="start" x="672" y="-717" font-family="Helvetica,sans-Serif" font-size="10.00">CheckingDecorator&lt; T, ChimeraTK</text>
<text text-anchor="middle" x="757.5" y="-706" font-family="Helvetica,sans-Serif" font-size="10.00">::Void &gt;</text>
</a>
</g>
</g>
<!-- Node6&#45;&gt;Node8 -->
<g id="edge8" class="edge">
<title>Node6&#45;&gt;Node8</title>
<path fill="none" stroke="midnightblue" d="M638.27,-719.5C646.75,-719.5 655.31,-719.5 663.76,-719.5"/>
<polygon fill="midnightblue" stroke="midnightblue" points="638,-716 628,-719.5 638,-723 638,-716"/>
</g>
<!-- Node10 -->
<g id="node11" class="node">
<title>Node10</title>
<g id="a_node11"><a xlink:href="class_chimera_t_k_1_1_type_changing_string_impl_decorator_3_01_chimera_t_k_1_1_void_00_01_chimera_t_k_1_1_void_01_4.html" target="_top" xlink:title="The actual partial implementation for Void as user type and Void as impl type.">
<polygon fill="white" stroke="black" points="455,-579 455,-620 628,-620 628,-579 455,-579"/>
<text text-anchor="start" x="463" y="-608" font-family="Helvetica,sans-Serif" font-size="10.00">ChimeraTK::TypeChangingString</text>
<text text-anchor="start" x="463" y="-597" font-family="Helvetica,sans-Serif" font-size="10.00">ImplDecorator&lt; ChimeraTK</text>
<text text-anchor="middle" x="541.5" y="-586" font-family="Helvetica,sans-Serif" font-size="10.00">::Void, ChimeraTK::Void &gt;</text>
</a>
</g>
</g>
<!-- Node9&#45;&gt;Node10 -->
<g id="edge10" class="edge">
<title>Node9&#45;&gt;Node10</title>
<path fill="none" stroke="midnightblue" d="M402.17,-505.74C407.95,-507.78 413.61,-510.03 419,-512.5 456.49,-529.71 494.28,-559.1 517.54,-578.91"/>
<polygon fill="midnightblue" stroke="midnightblue" points="402.95,-502.31 392.36,-502.51 400.76,-508.96 402.95,-502.31"/>
</g>
<!-- Node11 -->
<g id="node12" class="node">
<title>Node11</title>
<g id="a_node12"><a xlink:href="class_chimera_t_k_1_1_type_changing_direct_cast_decorator_3_01_chimera_t_k_1_1_void_00_01_chimera_t_k_1_1_void_01_4.html" target="_top" xlink:title="template specialisation for Void as user type and string as impl type.">
<polygon fill="white" stroke="black" points="670.5,-639 670.5,-680 844.5,-680 844.5,-639 670.5,-639"/>
<text text-anchor="start" x="678.5" y="-668" font-family="Helvetica,sans-Serif" font-size="10.00">ChimeraTK::TypeChangingDirect</text>
<text text-anchor="start" x="678.5" y="-657" font-family="Helvetica,sans-Serif" font-size="10.00">CastDecorator&lt; ChimeraTK</text>
<text text-anchor="middle" x="757.5" y="-646" font-family="Helvetica,sans-Serif" font-size="10.00">::Void, ChimeraTK::Void &gt;</text>
</a>
</g>
</g>
<!-- Node10&#45;&gt;Node11 -->
<g id="edge11" class="edge">
<title>Node10&#45;&gt;Node11</title>
<path fill="none" stroke="midnightblue" d="M625.67,-622.82C644.66,-628.14 664.71,-633.76 683.25,-638.96"/>
<polygon fill="midnightblue" stroke="midnightblue" points="626.42,-619.39 615.85,-620.06 624.53,-626.13 626.42,-619.39"/>
</g>
<!-- Node12 -->
<g id="node13" class="node">
<title>Node12</title>
<g id="a_node13"><a xlink:href="class_chimera_t_k_1_1_type_changing_range_checking_decorator_3_01_chimera_t_k_1_1_void_00_01_chimera_t_k_1_1_void_01_4.html" target="_top" xlink:title=" ">
<polygon fill="white" stroke="black" points="669.5,-579 669.5,-620 845.5,-620 845.5,-579 669.5,-579"/>
<text text-anchor="start" x="677.5" y="-608" font-family="Helvetica,sans-Serif" font-size="10.00">ChimeraTK::TypeChangingRange</text>
<text text-anchor="start" x="677.5" y="-597" font-family="Helvetica,sans-Serif" font-size="10.00">CheckingDecorator&lt; ChimeraTK</text>
<text text-anchor="middle" x="757.5" y="-586" font-family="Helvetica,sans-Serif" font-size="10.00">::Void, ChimeraTK::Void &gt;</text>
</a>
</g>
</g>
<!-- Node10&#45;&gt;Node12 -->
<g id="edge12" class="edge">
<title>Node10&#45;&gt;Node12</title>
<path fill="none" stroke="midnightblue" d="M638.29,-599.5C648.65,-599.5 659.14,-599.5 669.39,-599.5"/>
<polygon fill="midnightblue" stroke="midnightblue" points="638,-596 628,-599.5 638,-603 638,-596"/>
</g>
<!-- Node14 -->
<g id="node15" class="node">
<title>Node14</title>
<g id="a_node15"><a xlink:href="class_chimera_t_k_1_1_type_changing_string_impl_decorator_3_01std_1_1string_00_01_chimera_t_k_1_1_void_01_4.html" target="_top" xlink:title="The actual partial implementation for std::string as user type and Void as impl type.">
<polygon fill="white" stroke="black" points="455,-459 455,-500 628,-500 628,-459 455,-459"/>
<text text-anchor="start" x="463" y="-488" font-family="Helvetica,sans-Serif" font-size="10.00">ChimeraTK::TypeChangingString</text>
<text text-anchor="start" x="463" y="-477" font-family="Helvetica,sans-Serif" font-size="10.00">ImplDecorator&lt; std::string,</text>
<text text-anchor="middle" x="541.5" y="-466" font-family="Helvetica,sans-Serif" font-size="10.00"> ChimeraTK::Void &gt;</text>
</a>
</g>
</g>
<!-- Node13&#45;&gt;Node14 -->
<g id="edge14" class="edge">
<title>Node13&#45;&gt;Node14</title>
<path fill="none" stroke="midnightblue" d="M408.63,-455.36C423.97,-458.17 439.82,-461.07 454.99,-463.85"/>
<polygon fill="midnightblue" stroke="midnightblue" points="409.1,-451.89 398.64,-453.53 407.84,-458.78 409.1,-451.89"/>
</g>
<!-- Node15 -->
<g id="node16" class="node">
<title>Node15</title>
<g id="a_node16"><a xlink:href="class_chimera_t_k_1_1_type_changing_direct_cast_decorator_3_01std_1_1string_00_01_chimera_t_k_1_1_void_01_4.html" target="_top" xlink:title="template specialisation for Void as impl type and string as user type.">
<polygon fill="white" stroke="black" points="670.5,-519 670.5,-560 844.5,-560 844.5,-519 670.5,-519"/>
<text text-anchor="start" x="678.5" y="-548" font-family="Helvetica,sans-Serif" font-size="10.00">ChimeraTK::TypeChangingDirect</text>
<text text-anchor="start" x="678.5" y="-537" font-family="Helvetica,sans-Serif" font-size="10.00">CastDecorator&lt; std::string,</text>
<text text-anchor="middle" x="757.5" y="-526" font-family="Helvetica,sans-Serif" font-size="10.00"> ChimeraTK::Void &gt;</text>
</a>
</g>
</g>
<!-- Node14&#45;&gt;Node15 -->
<g id="edge15" class="edge">
<title>Node14&#45;&gt;Node15</title>
<path fill="none" stroke="midnightblue" d="M625.67,-502.82C644.66,-508.14 664.71,-513.76 683.25,-518.96"/>
<polygon fill="midnightblue" stroke="midnightblue" points="626.42,-499.39 615.85,-500.06 624.53,-506.13 626.42,-499.39"/>
</g>
<!-- Node16 -->
<g id="node17" class="node">
<title>Node16</title>
<g id="a_node17"><a xlink:href="class_chimera_t_k_1_1_type_changing_range_checking_decorator_3_01std_1_1string_00_01_chimera_t_k_1_1_void_01_4.html" target="_top" xlink:title=" ">
<polygon fill="white" stroke="black" points="669.5,-459 669.5,-500 845.5,-500 845.5,-459 669.5,-459"/>
<text text-anchor="start" x="677.5" y="-488" font-family="Helvetica,sans-Serif" font-size="10.00">ChimeraTK::TypeChangingRange</text>
<text text-anchor="start" x="677.5" y="-477" font-family="Helvetica,sans-Serif" font-size="10.00">CheckingDecorator&lt; std::</text>
<text text-anchor="middle" x="757.5" y="-466" font-family="Helvetica,sans-Serif" font-size="10.00">string, ChimeraTK::Void &gt;</text>
</a>
</g>
</g>
<!-- Node14&#45;&gt;Node16 -->
<g id="edge16" class="edge">
<title>Node14&#45;&gt;Node16</title>
<path fill="none" stroke="midnightblue" d="M638.29,-479.5C648.65,-479.5 659.14,-479.5 669.39,-479.5"/>
<polygon fill="midnightblue" stroke="midnightblue" points="638,-476 628,-479.5 638,-483 638,-476"/>
</g>
<!-- Node18 -->
<g id="node19" class="node">
<title>Node18</title>
<g id="a_node19"><a xlink:href="class_chimera_t_k_1_1_type_changing_string_impl_decorator_3_01std_1_1string_00_01_i_m_p_l___t_01_4.html" target="_top" xlink:title="The actual partial implementation for strings as user type.">
<polygon fill="white" stroke="black" points="455,-369 455,-410 628,-410 628,-369 455,-369"/>
<text text-anchor="start" x="463" y="-398" font-family="Helvetica,sans-Serif" font-size="10.00">ChimeraTK::TypeChangingString</text>
<text text-anchor="start" x="463" y="-387" font-family="Helvetica,sans-Serif" font-size="10.00">ImplDecorator&lt; std::string,</text>
<text text-anchor="middle" x="541.5" y="-376" font-family="Helvetica,sans-Serif" font-size="10.00"> IMPL_T &gt;</text>
</a>
</g>
</g>
<!-- Node17&#45;&gt;Node18 -->
<g id="edge18" class="edge">
<title>Node17&#45;&gt;Node18</title>
<path fill="none" stroke="midnightblue" d="M422.48,-389.5C433.29,-389.5 444.18,-389.5 454.74,-389.5"/>
<polygon fill="midnightblue" stroke="midnightblue" points="422.15,-386 412.15,-389.5 422.15,-393 422.15,-386"/>
</g>
<!-- Node19 -->
<g id="node20" class="node">
<title>Node19</title>
<g id="a_node20"><a xlink:href="class_chimera_t_k_1_1_type_changing_direct_cast_decorator_3_01std_1_1string_00_01_i_m_p_l___t_01_4.html" target="_top" xlink:title="Partial template specialisation for strings as user type.">
<polygon fill="white" stroke="black" points="670.5,-399 670.5,-440 844.5,-440 844.5,-399 670.5,-399"/>
<text text-anchor="start" x="678.5" y="-428" font-family="Helvetica,sans-Serif" font-size="10.00">ChimeraTK::TypeChangingDirect</text>
<text text-anchor="start" x="678.5" y="-417" font-family="Helvetica,sans-Serif" font-size="10.00">CastDecorator&lt; std::string,</text>
<text text-anchor="middle" x="757.5" y="-406" font-family="Helvetica,sans-Serif" font-size="10.00"> IMPL_T &gt;</text>
</a>
</g>
</g>
<!-- Node18&#45;&gt;Node19 -->
<g id="edge19" class="edge">
<title>Node18&#45;&gt;Node19</title>
<path fill="none" stroke="midnightblue" d="M638.23,-402.92C648.96,-404.42 659.84,-405.95 670.44,-407.43"/>
<polygon fill="midnightblue" stroke="midnightblue" points="638.39,-399.41 628,-401.49 637.42,-406.34 638.39,-399.41"/>
</g>
<!-- Node20 -->
<g id="node21" class="node">
<title>Node20</title>
<g id="a_node21"><a xlink:href="class_chimera_t_k_1_1_type_changing_range_checking_decorator_3_01std_1_1string_00_01_i_m_p_l___t_01_4.html" target="_top" xlink:title=" ">
<polygon fill="white" stroke="black" points="669.5,-339 669.5,-380 845.5,-380 845.5,-339 669.5,-339"/>
<text text-anchor="start" x="677.5" y="-368" font-family="Helvetica,sans-Serif" font-size="10.00">ChimeraTK::TypeChangingRange</text>
<text text-anchor="start" x="677.5" y="-357" font-family="Helvetica,sans-Serif" font-size="10.00">CheckingDecorator&lt; std::</text>
<text text-anchor="middle" x="757.5" y="-346" font-family="Helvetica,sans-Serif" font-size="10.00">string, IMPL_T &gt;</text>
</a>
</g>
</g>
<!-- Node18&#45;&gt;Node20 -->
<g id="edge20" class="edge">
<title>Node18&#45;&gt;Node20</title>
<path fill="none" stroke="midnightblue" d="M637.97,-376.12C648.43,-374.65 659.04,-373.16 669.39,-371.71"/>
<polygon fill="midnightblue" stroke="midnightblue" points="637.42,-372.66 628,-377.51 638.39,-379.59 637.42,-372.66"/>
</g>
<!-- Node22 -->
<g id="node23" class="node">
<title>Node22</title>
<g id="a_node23"><a xlink:href="class_chimera_t_k_1_1_type_changing_string_impl_decorator_3_01_chimera_t_k_1_1_void_00_01std_1_1string_01_4.html" target="_top" xlink:title="The actual partial implementation for Void as user type and std::string as impl type.">
<polygon fill="white" stroke="black" points="455,-279 455,-320 628,-320 628,-279 455,-279"/>
<text text-anchor="start" x="463" y="-308" font-family="Helvetica,sans-Serif" font-size="10.00">ChimeraTK::TypeChangingString</text>
<text text-anchor="start" x="463" y="-297" font-family="Helvetica,sans-Serif" font-size="10.00">ImplDecorator&lt; ChimeraTK</text>
<text text-anchor="middle" x="541.5" y="-286" font-family="Helvetica,sans-Serif" font-size="10.00">::Void, std::string &gt;</text>
</a>
</g>
</g>
<!-- Node21&#45;&gt;Node22 -->
<g id="edge22" class="edge">
<title>Node21&#45;&gt;Node22</title>
<path fill="none" stroke="midnightblue" d="M408.63,-323.64C423.97,-320.83 439.82,-317.93 454.99,-315.15"/>
<polygon fill="midnightblue" stroke="midnightblue" points="407.84,-320.22 398.64,-325.47 409.1,-327.11 407.84,-320.22"/>
</g>
<!-- Node23 -->
<g id="node24" class="node">
<title>Node23</title>
<g id="a_node24"><a xlink:href="class_chimera_t_k_1_1_type_changing_direct_cast_decorator_3_01_chimera_t_k_1_1_void_00_01std_1_1string_01_4.html" target="_top" xlink:title="template specialisation for Void as user type and string as impl type.">
<polygon fill="white" stroke="black" points="670.5,-279 670.5,-320 844.5,-320 844.5,-279 670.5,-279"/>
<text text-anchor="start" x="678.5" y="-308" font-family="Helvetica,sans-Serif" font-size="10.00">ChimeraTK::TypeChangingDirect</text>
<text text-anchor="start" x="678.5" y="-297" font-family="Helvetica,sans-Serif" font-size="10.00">CastDecorator&lt; ChimeraTK</text>
<text text-anchor="middle" x="757.5" y="-286" font-family="Helvetica,sans-Serif" font-size="10.00">::Void, std::string &gt;</text>
</a>
</g>
</g>
<!-- Node22&#45;&gt;Node23 -->
<g id="edge23" class="edge">
<title>Node22&#45;&gt;Node23</title>
<path fill="none" stroke="midnightblue" d="M638.23,-299.5C648.96,-299.5 659.84,-299.5 670.44,-299.5"/>
<polygon fill="midnightblue" stroke="midnightblue" points="638,-296 628,-299.5 638,-303 638,-296"/>
</g>
<!-- Node24 -->
<g id="node25" class="node">
<title>Node24</title>
<g id="a_node25"><a xlink:href="class_chimera_t_k_1_1_type_changing_range_checking_decorator_3_01_chimera_t_k_1_1_void_00_01std_1_1string_01_4.html" target="_top" xlink:title=" ">
<polygon fill="white" stroke="black" points="669.5,-219 669.5,-260 845.5,-260 845.5,-219 669.5,-219"/>
<text text-anchor="start" x="677.5" y="-248" font-family="Helvetica,sans-Serif" font-size="10.00">ChimeraTK::TypeChangingRange</text>
<text text-anchor="start" x="677.5" y="-237" font-family="Helvetica,sans-Serif" font-size="10.00">CheckingDecorator&lt; ChimeraTK</text>
<text text-anchor="middle" x="757.5" y="-226" font-family="Helvetica,sans-Serif" font-size="10.00">::Void, std::string &gt;</text>
</a>
</g>
</g>
<!-- Node22&#45;&gt;Node24 -->
<g id="edge24" class="edge">
<title>Node22&#45;&gt;Node24</title>
<path fill="none" stroke="midnightblue" d="M625.67,-276.18C644.66,-270.86 664.71,-265.24 683.25,-260.04"/>
<polygon fill="midnightblue" stroke="midnightblue" points="624.53,-272.87 615.85,-278.94 626.42,-279.61 624.53,-272.87"/>
</g>
<!-- Node26 -->
<g id="node27" class="node">
<title>Node26</title>
<g id="a_node27"><a xlink:href="class_chimera_t_k_1_1_type_changing_string_impl_decorator_3_01_chimera_t_k_1_1_void_00_01_i_m_p_l___t_01_4.html" target="_top" xlink:title="The actual partial implementation for Void as user type.">
<polygon fill="white" stroke="black" points="455,-189 455,-230 628,-230 628,-189 455,-189"/>
<text text-anchor="start" x="463" y="-218" font-family="Helvetica,sans-Serif" font-size="10.00">ChimeraTK::TypeChangingString</text>
<text text-anchor="start" x="463" y="-207" font-family="Helvetica,sans-Serif" font-size="10.00">ImplDecorator&lt; ChimeraTK</text>
<text text-anchor="middle" x="541.5" y="-196" font-family="Helvetica,sans-Serif" font-size="10.00">::Void, IMPL_T &gt;</text>
</a>
</g>
</g>
<!-- Node25&#45;&gt;Node26 -->
<g id="edge26" class="edge">
<title>Node25&#45;&gt;Node26</title>
<path fill="none" stroke="midnightblue" d="M367.11,-272.97C402.03,-260.19 448.46,-243.19 484.49,-230"/>
<polygon fill="midnightblue" stroke="midnightblue" points="365.77,-269.74 357.59,-276.46 368.18,-276.31 365.77,-269.74"/>
</g>
<!-- Node27 -->
<g id="node28" class="node">
<title>Node27</title>
<g id="a_node28"><a xlink:href="class_chimera_t_k_1_1_type_changing_direct_cast_decorator_3_01_chimera_t_k_1_1_void_00_01_i_m_p_l___t_01_4.html" target="_top" xlink:title="Partial template specialisation for Void as user type.">
<polygon fill="white" stroke="black" points="670.5,-159 670.5,-200 844.5,-200 844.5,-159 670.5,-159"/>
<text text-anchor="start" x="678.5" y="-188" font-family="Helvetica,sans-Serif" font-size="10.00">ChimeraTK::TypeChangingDirect</text>
<text text-anchor="start" x="678.5" y="-177" font-family="Helvetica,sans-Serif" font-size="10.00">CastDecorator&lt; ChimeraTK</text>
<text text-anchor="middle" x="757.5" y="-166" font-family="Helvetica,sans-Serif" font-size="10.00">::Void, IMPL_T &gt;</text>
</a>
</g>
</g>
<!-- Node26&#45;&gt;Node27 -->
<g id="edge27" class="edge">
<title>Node26&#45;&gt;Node27</title>
<path fill="none" stroke="midnightblue" d="M638.23,-196.08C648.96,-194.58 659.84,-193.05 670.44,-191.57"/>
<polygon fill="midnightblue" stroke="midnightblue" points="637.42,-192.66 628,-197.51 638.39,-199.59 637.42,-192.66"/>
</g>
<!-- Node28 -->
<g id="node29" class="node">
<title>Node28</title>
<g id="a_node29"><a xlink:href="class_chimera_t_k_1_1_type_changing_range_checking_decorator_3_01_chimera_t_k_1_1_void_00_01_i_m_p_l___t_01_4.html" target="_top" xlink:title=" ">
<polygon fill="white" stroke="black" points="669.5,-99 669.5,-140 845.5,-140 845.5,-99 669.5,-99"/>
<text text-anchor="start" x="677.5" y="-128" font-family="Helvetica,sans-Serif" font-size="10.00">ChimeraTK::TypeChangingRange</text>
<text text-anchor="start" x="677.5" y="-117" font-family="Helvetica,sans-Serif" font-size="10.00">CheckingDecorator&lt; ChimeraTK</text>
<text text-anchor="middle" x="757.5" y="-106" font-family="Helvetica,sans-Serif" font-size="10.00">::Void, IMPL_T &gt;</text>
</a>
</g>
</g>
<!-- Node26&#45;&gt;Node28 -->
<g id="edge28" class="edge">
<title>Node26&#45;&gt;Node28</title>
<path fill="none" stroke="midnightblue" d="M618.07,-184.7C621.47,-183.05 624.8,-181.31 628,-179.5 646.11,-169.22 645.76,-159.56 664,-149.5 670.21,-146.07 676.87,-142.97 683.67,-140.16"/>
<polygon fill="midnightblue" stroke="midnightblue" points="616.55,-181.55 608.91,-188.88 619.46,-187.91 616.55,-181.55"/>
</g>
<!-- Node30 -->
<g id="node31" class="node">
<title>Node30</title>
<g id="a_node31"><a xlink:href="class_chimera_t_k_1_1_type_changing_string_impl_decorator.html" target="_top" xlink:title="This class is intended as a base class.">
<polygon fill="white" stroke="black" points="455,-49.5 455,-79.5 628,-79.5 628,-49.5 455,-49.5"/>
<text text-anchor="start" x="463" y="-67.5" font-family="Helvetica,sans-Serif" font-size="10.00">ChimeraTK::TypeChangingString</text>
<text text-anchor="middle" x="541.5" y="-56.5" font-family="Helvetica,sans-Serif" font-size="10.00">ImplDecorator&lt; T, IMPL_T &gt;</text>
</a>
</g>
</g>
<!-- Node29&#45;&gt;Node30 -->
<g id="edge30" class="edge">
<title>Node29&#45;&gt;Node30</title>
<path fill="none" stroke="midnightblue" d="M345.5,-207.27C391.44,-173.63 479.83,-108.92 519.88,-79.6"/>
<polygon fill="midnightblue" stroke="midnightblue" points="343.17,-204.63 337.17,-213.37 347.31,-210.28 343.17,-204.63"/>
</g>
<!-- Node33 -->
<g id="node34" class="node">
<title>Node33</title>
<g id="a_node34"><a xlink:href="class_chimera_t_k_1_1_type_changing_void_impl_decorator.html" target="_top" xlink:title="This class is intended as a base class.">
<polygon fill="white" stroke="black" points="458.5,-139.5 458.5,-169.5 624.5,-169.5 624.5,-139.5 458.5,-139.5"/>
<text text-anchor="start" x="466.5" y="-157.5" font-family="Helvetica,sans-Serif" font-size="10.00">ChimeraTK::TypeChangingVoid</text>
<text text-anchor="middle" x="541.5" y="-146.5" font-family="Helvetica,sans-Serif" font-size="10.00">ImplDecorator&lt; T, IMPL_T &gt;</text>
</a>
</g>
</g>
<!-- Node29&#45;&gt;Node33 -->
<g id="edge33" class="edge">
<title>Node29&#45;&gt;Node33</title>
<path fill="none" stroke="midnightblue" d="M366.9,-209.91C393.06,-200.45 425.62,-188.98 455,-179.5 465.45,-176.13 476.68,-172.7 487.45,-169.51"/>
<polygon fill="midnightblue" stroke="midnightblue" points="365.41,-206.73 357.2,-213.43 367.8,-213.31 365.41,-206.73"/>
</g>
<!-- Node31 -->
<g id="node32" class="node">
<title>Node31</title>
<g id="a_node32"><a xlink:href="class_chimera_t_k_1_1_type_changing_direct_cast_decorator.html" target="_top" xlink:title="This decorator does not do mathematical rounding and range checking, but directly assigns the data ty...">
<polygon fill="white" stroke="black" points="670.5,-49.5 670.5,-79.5 844.5,-79.5 844.5,-49.5 670.5,-49.5"/>
<text text-anchor="start" x="678.5" y="-67.5" font-family="Helvetica,sans-Serif" font-size="10.00">ChimeraTK::TypeChangingDirect</text>
<text text-anchor="middle" x="757.5" y="-56.5" font-family="Helvetica,sans-Serif" font-size="10.00">CastDecorator&lt; T, IMPL_T &gt;</text>
</a>
</g>
</g>
<!-- Node30&#45;&gt;Node31 -->
<g id="edge31" class="edge">
<title>Node30&#45;&gt;Node31</title>
<path fill="none" stroke="midnightblue" d="M638.23,-64.5C648.96,-64.5 659.84,-64.5 670.44,-64.5"/>
<polygon fill="midnightblue" stroke="midnightblue" points="638,-61 628,-64.5 638,-68 638,-61"/>
</g>
<!-- Node32 -->
<g id="node33" class="node">
<title>Node32</title>
<g id="a_node33"><a xlink:href="class_chimera_t_k_1_1_type_changing_range_checking_decorator.html" target="_top" xlink:title="This decorator uses the boost numeric converter which performs two tasks:">
<polygon fill="white" stroke="black" points="668,-0.5 668,-30.5 847,-30.5 847,-0.5 668,-0.5"/>
<text text-anchor="start" x="676" y="-18.5" font-family="Helvetica,sans-Serif" font-size="10.00">ChimeraTK::TypeChangingRange</text>
<text text-anchor="middle" x="757.5" y="-7.5" font-family="Helvetica,sans-Serif" font-size="10.00">CheckingDecorator&lt; T, IMPL_T &gt;</text>
</a>
</g>
</g>
<!-- Node30&#45;&gt;Node32 -->
<g id="edge32" class="edge">
<title>Node30&#45;&gt;Node32</title>
<path fill="none" stroke="midnightblue" d="M618.19,-47.17C641.95,-41.73 667.97,-35.77 690.96,-30.51"/>
<polygon fill="midnightblue" stroke="midnightblue" points="617.13,-43.82 608.16,-49.47 618.69,-50.65 617.13,-43.82"/>
</g>
<!-- Node67 -->
<g id="node35" class="node">
<title>Node67</title>
<g id="a_node35"><a xlink:title=" ">
<polygon fill="white" stroke="#bfbfbf" points="0,-374.5 0,-404.5 176,-404.5 176,-374.5 0,-374.5"/>
<text text-anchor="start" x="8" y="-392.5" font-family="Helvetica,sans-Serif" font-size="10.00">ChimeraTK::NDRegisterAccessor</text>
<text text-anchor="middle" x="88" y="-381.5" font-family="Helvetica,sans-Serif" font-size="10.00">Decorator</text>
</a>
</g>
</g>
<!-- Node67&#45;&gt;Node1 -->
<g id="edge34" class="edge">
<title>Node67&#45;&gt;Node1</title>
<path fill="none" stroke="midnightblue" d="M171.61,-410.41C173.15,-411.69 174.61,-413.06 176,-414.5 222.61,-463 164.2,-514.18 212,-561.5 215.38,-564.84 219.13,-567.75 223.14,-570.29"/>
<polygon fill="midnightblue" stroke="midnightblue" points="173.63,-407.55 163.45,-404.6 169.57,-413.25 173.63,-407.55"/>
</g>
<!-- Node67&#45;&gt;Node5 -->
<g id="edge35" class="edge">
<title>Node67&#45;&gt;Node5</title>
<path fill="none" stroke="midnightblue" d="M170.69,-410.09C172.54,-411.47 174.32,-412.93 176,-414.5 209.97,-446.1 177.25,-481.75 212,-512.5 215.83,-515.89 220.05,-518.83 224.53,-521.37"/>
<polygon fill="midnightblue" stroke="midnightblue" points="172.45,-407.06 162.14,-404.62 168.68,-412.96 172.45,-407.06"/>
</g>
<!-- Node67&#45;&gt;Node9 -->
<g id="edge36" class="edge">
<title>Node67&#45;&gt;Node9</title>
<path fill="none" stroke="midnightblue" d="M167,-408.98C170.12,-410.67 173.14,-412.51 176,-414.5 198.17,-429.95 189.45,-448.61 212,-463.5 217.26,-466.97 222.97,-469.95 228.9,-472.49"/>
<polygon fill="midnightblue" stroke="midnightblue" points="168.47,-405.81 157.95,-404.6 165.42,-412.11 168.47,-405.81"/>
</g>
<!-- Node67&#45;&gt;Node13 -->
<g id="edge37" class="edge">
<title>Node67&#45;&gt;Node13</title>
<path fill="none" stroke="midnightblue" d="M168.09,-406.69C193.3,-412.16 220.99,-418.18 245.44,-423.49"/>
<polygon fill="midnightblue" stroke="midnightblue" points="168.71,-403.24 158.19,-404.53 167.22,-410.08 168.71,-403.24"/>
</g>
<!-- Node67&#45;&gt;Node17 -->
<g id="edge38" class="edge">
<title>Node67&#45;&gt;Node17</title>
<path fill="none" stroke="midnightblue" d="M186.44,-389.5C197.22,-389.5 208.19,-389.5 218.94,-389.5"/>
<polygon fill="midnightblue" stroke="midnightblue" points="186.18,-386 176.18,-389.5 186.18,-393 186.18,-386"/>
</g>
<!-- Node67&#45;&gt;Node21 -->
<g id="edge39" class="edge">
<title>Node67&#45;&gt;Node21</title>
<path fill="none" stroke="midnightblue" d="M168.09,-372.31C193.3,-366.84 220.99,-360.82 245.44,-355.51"/>
<polygon fill="midnightblue" stroke="midnightblue" points="167.22,-368.92 158.19,-374.47 168.71,-375.76 167.22,-368.92"/>
</g>
<!-- Node67&#45;&gt;Node25 -->
<g id="edge40" class="edge">
<title>Node67&#45;&gt;Node25</title>
<path fill="none" stroke="midnightblue" d="M118.55,-368.55C142.69,-352.3 178.21,-330.29 212,-316.5 221.24,-312.73 231.2,-309.43 241.14,-306.57"/>
<polygon fill="midnightblue" stroke="midnightblue" points="116.48,-365.73 110.2,-374.25 120.43,-371.51 116.48,-365.73"/>
</g>
<!-- Node67&#45;&gt;Node29 -->
<g id="edge41" class="edge">
<title>Node67&#45;&gt;Node29</title>
<path fill="none" stroke="midnightblue" d="M107.26,-366.22C129.48,-339.25 169.34,-294.99 212,-267.5 227.36,-257.6 245.62,-249.64 262.44,-243.56"/>
<polygon fill="midnightblue" stroke="midnightblue" points="104.27,-364.36 100.69,-374.33 109.7,-368.77 104.27,-364.36"/>
</g>
</g>
</svg>
