<?xml version="1.0" encoding="UTF-8" standalone="no"?>
<!DOCTYPE svg PUBLIC "-//W3C//DTD SVG 1.1//EN"
 "http://www.w3.org/Graphics/SVG/1.1/DTD/svg11.dtd">
<!-- Generated by graphviz version 2.43.0 (0)
 -->
<!-- Title: ChimeraTK::EpicsBackendRegisterAccessor&lt; EpicsBaseType, EpicsType, CTKType &gt; Pages: 1 -->
<svg width="1230pt" height="214pt"
 viewBox="0.00 0.00 1230.00 214.00" xmlns="http://www.w3.org/2000/svg" xmlns:xlink="http://www.w3.org/1999/xlink">
<g id="graph0" class="graph" transform="scale(1 1) rotate(0) translate(4 210)">
<title>ChimeraTK::EpicsBackendRegisterAccessor&lt; EpicsBaseType, EpicsType, CTKType &gt;</title>
<!-- Node1 -->
<g id="Node000001" class="node">
<title>Node1</title>
<g id="a_Node000001"><a xlink:title=" ">
<polygon fill="#999999" stroke="#666666" points="1222,-140 1022,-140 1022,-99 1222,-99 1222,-140"/>
<text text-anchor="start" x="1030" y="-128" font-family="Helvetica,sans-Serif" font-size="10.00">ChimeraTK::EpicsBackendRegister</text>
<text text-anchor="start" x="1030" y="-117" font-family="Helvetica,sans-Serif" font-size="10.00">Accessor&lt; EpicsBaseType, EpicsType,</text>
<text text-anchor="middle" x="1122" y="-106" font-family="Helvetica,sans-Serif" font-size="10.00"> CTKType &gt;</text>
</a>
</g>
</g>
<!-- Node2 -->
<g id="Node000002" class="node">
<title>Node2</title>
<g id="a_Node000002"><a xlink:href="class_chimera_t_k_1_1_epics_backend_register_accessor_base.html" target="_top" xlink:title=" ">
<polygon fill="white" stroke="#666666" points="941,-196.5 757,-196.5 757,-166.5 941,-166.5 941,-196.5"/>
<text text-anchor="start" x="765" y="-184.5" font-family="Helvetica,sans-Serif" font-size="10.00">ChimeraTK::EpicsBackendRegister</text>
<text text-anchor="middle" x="849" y="-173.5" font-family="Helvetica,sans-Serif" font-size="10.00">AccessorBase</text>
</a>
</g>
</g>
<!-- Node2&#45;&gt;Node1 -->
<g id="edge1_Node000001_Node000002" class="edge">
<title>Node2&#45;&gt;Node1</title>
<g id="a_edge1_Node000001_Node000002"><a xlink:title=" ">
<path fill="none" stroke="#63b8ff" d="M925.57,-164.21C958.34,-156.71 996.96,-147.88 1031.18,-140.05"/>
<polygon fill="#63b8ff" stroke="#63b8ff" points="924.57,-160.85 915.6,-166.49 926.13,-167.67 924.57,-160.85"/>
</a>
</g>
</g>
<!-- Node3 -->
<g id="Node000003" class="node">
<title>Node3</title>
<g id="a_Node000003"><a xlink:href="struct_chimera_t_k_1_1_epics_backend_register_info.html" target="_top" xlink:title=" ">
<polygon fill="white" stroke="#666666" points="570,-191 367,-191 367,-172 570,-172 570,-191"/>
<text text-anchor="middle" x="468.5" y="-179" font-family="Helvetica,sans-Serif" font-size="10.00">ChimeraTK::EpicsBackendRegisterInfo</text>
</a>
</g>
</g>
<!-- Node3&#45;&gt;Node2 -->
<g id="edge2_Node000002_Node000003" class="edge">
<title>Node3&#45;&gt;Node2</title>
<g id="a_edge2_Node000002_Node000003"><a xlink:title=" ">
<path fill="none" stroke="#9a32cd" stroke-dasharray="5,2" d="M580.76,-181.5C636.76,-181.5 703.8,-181.5 756.73,-181.5"/>
<polygon fill="#9a32cd" stroke="#9a32cd" points="580.43,-178 570.43,-181.5 580.43,-185 580.43,-178"/>
</a>
</g>
<text text-anchor="middle" x="660.5" y="-184.5" font-family="Helvetica,sans-Serif" font-size="10.00" fill="grey"> _info</text>
</g>
<!-- Node4 -->
<g id="Node000004" class="node">
<title>Node4</title>
<g id="a_Node000004"><a xlink:title=" ">
<polygon fill="white" stroke="#666666" points="282,-206 141,-206 141,-187 282,-187 282,-206"/>
<text text-anchor="middle" x="211.5" y="-194" font-family="Helvetica,sans-Serif" font-size="10.00">BackendRegisterInfoBase</text>
</a>
</g>
</g>
<!-- Node4&#45;&gt;Node3 -->
<g id="edge3_Node000003_Node000004" class="edge">
<title>Node4&#45;&gt;Node3</title>
<g id="a_edge3_Node000003_Node000004"><a xlink:title=" ">
<path fill="none" stroke="#63b8ff" d="M292.47,-191.8C316.04,-190.41 342.14,-188.87 366.83,-187.42"/>
<polygon fill="#63b8ff" stroke="#63b8ff" points="291.96,-188.32 282.18,-192.4 292.37,-195.31 291.96,-188.32"/>
</a>
</g>
</g>
<!-- Node5 -->
<g id="Node000005" class="node">
<title>Node5</title>
<g id="a_Node000005"><a xlink:title=" ">
<polygon fill="white" stroke="#666666" points="244,-169 179,-169 179,-150 244,-150 244,-169"/>
<text text-anchor="middle" x="211.5" y="-157" font-family="Helvetica,sans-Serif" font-size="10.00">std::string</text>
</a>
</g>
</g>
<!-- Node5&#45;&gt;Node3 -->
<g id="edge4_Node000003_Node000005" class="edge">
<title>Node5&#45;&gt;Node3</title>
<g id="a_edge4_Node000003_Node000005"><a xlink:title=" ">
<path fill="none" stroke="#9a32cd" stroke-dasharray="5,2" d="M254.3,-163.11C284.89,-165.75 327.72,-169.44 366.98,-172.83"/>
<polygon fill="#9a32cd" stroke="#9a32cd" points="254.29,-159.59 244.02,-162.22 253.69,-166.57 254.29,-159.59"/>
</a>
</g>
<text text-anchor="middle" x="324.5" y="-173.5" font-family="Helvetica,sans-Serif" font-size="10.00" fill="grey"> _caName</text>
</g>
<!-- Node6 -->
<g id="Node000006" class="node">
<title>Node6</title>
<g id="a_Node000006"><a xlink:title=" ">
<polygon fill="white" stroke="#666666" points="104,-174.5 0,-174.5 0,-144.5 104,-144.5 104,-174.5"/>
<text text-anchor="start" x="8" y="-162.5" font-family="Helvetica,sans-Serif" font-size="10.00">std::basic_string&lt;</text>
<text text-anchor="middle" x="52" y="-151.5" font-family="Helvetica,sans-Serif" font-size="10.00"> Char &gt;</text>
</a>
</g>
</g>
<!-- Node6&#45;&gt;Node5 -->
<g id="edge5_Node000005_Node000006" class="edge">
<title>Node6&#45;&gt;Node5</title>
<g id="a_edge5_Node000005_Node000006"><a xlink:title=" ">
<path fill="none" stroke="#63b8ff" d="M114.43,-159.5C136.47,-159.5 160.4,-159.5 178.87,-159.5"/>
<polygon fill="#63b8ff" stroke="#63b8ff" points="114.14,-156 104.14,-159.5 114.14,-163 114.14,-156"/>
</a>
</g>
</g>
<!-- Node7 -->
<g id="Node000007" class="node">
<title>Node7</title>
<g id="a_Node000007"><a xlink:title=" ">
<polygon fill="white" stroke="#666666" points="907,-148.5 791,-148.5 791,-118.5 907,-118.5 907,-148.5"/>
<text text-anchor="start" x="799" y="-136.5" font-family="Helvetica,sans-Serif" font-size="10.00">NDRegisterAccessor</text>
<text text-anchor="middle" x="849" y="-125.5" font-family="Helvetica,sans-Serif" font-size="10.00">&lt; CTKType &gt;</text>
</a>
</g>
</g>
<!-- Node7&#45;&gt;Node1 -->
<g id="edge6_Node000001_Node000007" class="edge">
<title>Node7&#45;&gt;Node1</title>
<g id="a_edge6_Node000001_Node000007"><a xlink:title=" ">
<path fill="none" stroke="#63b8ff" d="M917.14,-130.03C948.69,-128.4 986.95,-126.42 1021.76,-124.63"/>
<polygon fill="#63b8ff" stroke="#63b8ff" points="916.95,-126.54 907.14,-130.55 917.31,-133.53 916.95,-126.54"/>
</a>
</g>
</g>
<!-- Node8 -->
<g id="Node000008" class="node">
<title>Node8</title>
<g id="a_Node000008"><a xlink:href="class_chimera_t_k_1_1_epics_range_checking_data_converter.html" target="_top" xlink:title=" ">
<polygon fill="white" stroke="#666666" points="947,-100 751,-100 751,-59 947,-59 947,-100"/>
<text text-anchor="start" x="759" y="-88" font-family="Helvetica,sans-Serif" font-size="10.00">ChimeraTK::EpicsRangeChecking</text>
<text text-anchor="start" x="759" y="-77" font-family="Helvetica,sans-Serif" font-size="10.00">DataConverter&lt; CTKType, EpicsBase</text>
<text text-anchor="middle" x="849" y="-66" font-family="Helvetica,sans-Serif" font-size="10.00">Type &gt;</text>
</a>
</g>
</g>
<!-- Node8&#45;&gt;Node1 -->
<g id="edge7_Node000001_Node000008" class="edge">
<title>Node8&#45;&gt;Node1</title>
<g id="a_edge7_Node000001_Node000008"><a xlink:title=" ">
<path fill="none" stroke="#9a32cd" stroke-dasharray="5,2" d="M957.13,-95.31C978.48,-98.46 1000.81,-101.76 1021.87,-104.87"/>
<polygon fill="#9a32cd" stroke="#9a32cd" points="957.48,-91.83 947.07,-93.83 956.45,-98.75 957.48,-91.83"/>
</a>
</g>
<text text-anchor="middle" x="984.5" y="-104.5" font-family="Helvetica,sans-Serif" font-size="10.00" fill="grey"> toCTK</text>
</g>
<!-- Node9 -->
<g id="Node000009" class="node">
<title>Node9</title>
<g id="a_Node000009"><a xlink:href="class_chimera_t_k_1_1_epics_range_checking_data_converter.html" target="_top" xlink:title=" ">
<polygon fill="white" stroke="#666666" points="557.5,-68 379.5,-68 379.5,-27 557.5,-27 557.5,-68"/>
<text text-anchor="start" x="387.5" y="-56" font-family="Helvetica,sans-Serif" font-size="10.00">ChimeraTK::EpicsRangeChecking</text>
<text text-anchor="start" x="387.5" y="-45" font-family="Helvetica,sans-Serif" font-size="10.00">DataConverter&lt; DestType,</text>
<text text-anchor="middle" x="468.5" y="-34" font-family="Helvetica,sans-Serif" font-size="10.00"> SourceType &gt;</text>
</a>
</g>
</g>
<!-- Node9&#45;&gt;Node8 -->
<g id="edge8_Node000008_Node000009" class="edge">
<title>Node9&#45;&gt;Node8</title>
<g id="a_edge8_Node000008_Node000009"><a xlink:title=" ">
<path fill="none" stroke="orange" stroke-dasharray="5,2" d="M567.77,-55.81C624.18,-60.58 694.74,-66.54 750.95,-71.29"/>
<polygon fill="orange" stroke="orange" points="568.02,-52.32 557.76,-54.96 567.43,-59.29 568.02,-52.32"/>
</a>
</g>
<text text-anchor="middle" x="660.5" y="-72.5" font-family="Helvetica,sans-Serif" font-size="10.00" fill="grey"> &lt; CTKType, EpicsBaseType &gt;</text>
</g>
<!-- Node10 -->
<g id="Node000010" class="node">
<title>Node10</title>
<g id="a_Node000010"><a xlink:href="class_chimera_t_k_1_1_epics_range_checking_data_converter.html" target="_top" xlink:title=" ">
<polygon fill="white" stroke="#666666" points="938,-41 760,-41 760,0 938,0 938,-41"/>
<text text-anchor="start" x="768" y="-29" font-family="Helvetica,sans-Serif" font-size="10.00">ChimeraTK::EpicsRangeChecking</text>
<text text-anchor="start" x="768" y="-18" font-family="Helvetica,sans-Serif" font-size="10.00">DataConverter&lt; EpicsBaseType,</text>
<text text-anchor="middle" x="849" y="-7" font-family="Helvetica,sans-Serif" font-size="10.00"> CTKType &gt;</text>
</a>
</g>
</g>
<!-- Node9&#45;&gt;Node10 -->
<g id="edge10_Node000010_Node000009" class="edge">
<title>Node9&#45;&gt;Node10</title>
<g id="a_edge10_Node000010_Node000009"><a xlink:title=" ">
<path fill="none" stroke="orange" stroke-dasharray="5,2" d="M567.8,-36.29C574.63,-35.64 581.42,-35.04 588,-34.5 645.11,-29.83 709.4,-26.36 759.77,-24.03"/>
<polygon fill="orange" stroke="orange" points="567.39,-32.82 557.78,-37.27 568.07,-39.78 567.39,-32.82"/>
</a>
</g>
<text text-anchor="middle" x="660.5" y="-37.5" font-family="Helvetica,sans-Serif" font-size="10.00" fill="grey"> &lt; EpicsBaseType, CTKType &gt;</text>
</g>
<!-- Node10&#45;&gt;Node1 -->
<g id="edge9_Node000001_Node000010" class="edge">
<title>Node10&#45;&gt;Node1</title>
<g id="a_edge9_Node000001_Node000010"><a xlink:title=" ">
<path fill="none" stroke="#9a32cd" stroke-dasharray="5,2" d="M931.19,-44.17C936.56,-45.92 941.87,-47.7 947,-49.5 990.34,-64.66 1038.72,-84.35 1073.44,-98.99"/>
<polygon fill="#9a32cd" stroke="#9a32cd" points="932.08,-40.78 921.49,-41.06 929.95,-47.44 932.08,-40.78"/>
</a>
</g>
<text text-anchor="middle" x="984.5" y="-72.5" font-family="Helvetica,sans-Serif" font-size="10.00" fill="grey"> toEpics</text>
</g>
</g>
</svg>
