<?xml version="1.0" encoding="UTF-8" standalone="no"?>
<!DOCTYPE svg PUBLIC "-//W3C//DTD SVG 1.1//EN"
 "http://www.w3.org/Graphics/SVG/1.1/DTD/svg11.dtd">
<!-- Generated by graphviz version 2.40.1 (20161225.0304)
 -->
<!-- Title: src/VariableNetworkNodeDumpingVisitor.cc Pages: 1 -->
<!--zoomable 240 -->
<svg id="main" version="1.1" xmlns="http://www.w3.org/2000/svg" xmlns:xlink="http://www.w3.org/1999/xlink" xml:space="preserve" onload="init(evt)">
<style type="text/css"><![CDATA[
.edge:hover path { stroke: red; }
.edge:hover polygon { stroke: red; fill: red; }
]]></style>
<script type="text/javascript"><![CDATA[
var edges = document.getElementsByTagName('g');
if (edges && edges.length) {
  for (var i=0;i<edges.length;i++) {
    if (edges[i].id.substr(0,4)=='edge') {
      edges[i].setAttribute('class','edge');
    }
  }
}
]]></script>
        <defs>
                <circle id="rim" cx="0" cy="0" r="7"/>
                <circle id="rim2" cx="0" cy="0" r="3.5"/>
                <g id="zoomPlus">
                        <use xlink:href="#rim" fill="#404040">
                                <set attributeName="fill" to="#808080" begin="zoomplus.mouseover" end="zoomplus.mouseout"/>
                        </use>
                        <path d="M-4,0h8M0,-4v8" fill="none" stroke="white" stroke-width="1.5" pointer-events="none"/>
                </g>
                <g id="zoomMin">
                        <use xlink:href="#rim" fill="#404040">
                                <set attributeName="fill" to="#808080" begin="zoomminus.mouseover" end="zoomminus.mouseout"/>
                        </use>
                        <path d="M-4,0h8" fill="none" stroke="white" stroke-width="1.5" pointer-events="none"/>
                </g>
                <g id="dirArrow">
                        <path fill="none" stroke="white" stroke-width="1.5" d="M0,-3.0v7 M-2.5,-0.5L0,-3.0L2.5,-0.5"/>
                </g>
               <g id="resetDef">
                       <use xlink:href="#rim2" fill="#404040">
                               <set attributeName="fill" to="#808080" begin="reset.mouseover" end="reset.mouseout"/>
                       </use>
               </g>
        </defs>

<script type="text/javascript">
var viewWidth = 1355;
var viewHeight = 240;
var sectionId = 'dynsection-0';
</script>
<script xlink:href="svgpan.js"/>
<svg id="graph" class="graph">
<g id="viewport">
<title>src/VariableNetworkNodeDumpingVisitor.cc</title>
<polygon fill="#ffffff" stroke="transparent" points="-4,4 -4,-236 1350.5,-236 1350.5,4 -4,4"/>
<!-- Node0 -->
<g id="node1" class="node">
<title>Node0</title>
<polygon fill="#bfbfbf" stroke="#000000" points="291,-201.5 291,-231.5 476,-231.5 476,-201.5 291,-201.5"/>
<text text-anchor="start" x="299" y="-219.5" font-family="Helvetica,sans-Serif" font-size="10.00" fill="#000000">src/VariableNetworkNodeDumping</text>
<text text-anchor="middle" x="383.5" y="-208.5" font-family="Helvetica,sans-Serif" font-size="10.00" fill="#000000">Visitor.cc</text>
</g>
<!-- Node1 -->
<g id="node2" class="node">
<title>Node1</title>
<g id="a_node2"><a xlink:href="_variable_network_node_dumping_visitor_8h.html" target="_top" xlink:title="VariableNetworkNodeDumping\lVisitor.h">
<polygon fill="#ffffff" stroke="#000000" points="79,-134.5 79,-164.5 246,-164.5 246,-134.5 79,-134.5"/>
<text text-anchor="start" x="87" y="-152.5" font-family="Helvetica,sans-Serif" font-size="10.00" fill="#000000">VariableNetworkNodeDumping</text>
<text text-anchor="middle" x="162.5" y="-141.5" font-family="Helvetica,sans-Serif" font-size="10.00" fill="#000000">Visitor.h</text>
</a>
</g>
</g>
<!-- Node0&#45;&gt;Node1 -->
<g id="edge1" class="edge">
<title>Node0&#45;&gt;Node1</title>
<path fill="none" stroke="#191970" d="M333.9033,-201.4639C300.7505,-191.4131 256.9611,-178.1375 221.9416,-167.5208"/>
<polygon fill="#191970" stroke="#191970" points="222.8984,-164.1536 212.313,-164.6017 220.8674,-170.8525 222.8984,-164.1536"/>
</g>
<!-- Node6 -->
<g id="node7" class="node">
<title>Node6</title>
<g id="a_node7"><a xlink:href="_variable_network_node_8h.html" target="_top" xlink:title="VariableNetworkNode.h">
<polygon fill="#ffffff" stroke="#000000" points="539.5,-140 539.5,-159 671.5,-159 671.5,-140 539.5,-140"/>
<text text-anchor="middle" x="605.5" y="-147" font-family="Helvetica,sans-Serif" font-size="10.00" fill="#000000">VariableNetworkNode.h</text>
</a>
</g>
</g>
<!-- Node0&#45;&gt;Node6 -->
<g id="edge6" class="edge">
<title>Node0&#45;&gt;Node6</title>
<path fill="none" stroke="#191970" d="M433.3211,-201.4639C472.7002,-189.5792 527.0188,-173.1858 564.0465,-162.0108"/>
<polygon fill="#191970" stroke="#191970" points="565.4426,-165.2454 574.0049,-159.0053 563.4201,-158.5439 565.4426,-165.2454"/>
</g>
<!-- Node2 -->
<g id="node3" class="node">
<title>Node2</title>
<g id="a_node3"><a xlink:href="_visitor_8h.html" target="_top" xlink:title="Visitor.h">
<polygon fill="#ffffff" stroke="#000000" points="209.5,-73 209.5,-92 265.5,-92 265.5,-73 209.5,-73"/>
<text text-anchor="middle" x="237.5" y="-80" font-family="Helvetica,sans-Serif" font-size="10.00" fill="#000000">Visitor.h</text>
</a>
</g>
</g>
<!-- Node1&#45;&gt;Node2 -->
<g id="edge2" class="edge">
<title>Node1&#45;&gt;Node2</title>
<path fill="none" stroke="#191970" d="M179.5187,-134.2967C191.3175,-123.7564 207.0184,-109.7303 219.1057,-98.9323"/>
<polygon fill="#191970" stroke="#191970" points="221.6783,-101.3273 226.8041,-92.055 217.0147,-96.107 221.6783,-101.3273"/>
</g>
<!-- Node3 -->
<g id="node4" class="node">
<title>Node3</title>
<polygon fill="#ffffff" stroke="#bfbfbf" points="0,-73 0,-92 65,-92 65,-73 0,-73"/>
<text text-anchor="middle" x="32.5" y="-80" font-family="Helvetica,sans-Serif" font-size="10.00" fill="#000000">functional</text>
</g>
<!-- Node1&#45;&gt;Node3 -->
<g id="edge3" class="edge">
<title>Node1&#45;&gt;Node3</title>
<path fill="none" stroke="#191970" d="M133.3255,-134.4639C111.4149,-123.1715 81.6062,-107.8086 60.0895,-96.7192"/>
<polygon fill="#191970" stroke="#191970" points="61.6268,-93.5741 51.1345,-92.1039 58.4199,-99.7963 61.6268,-93.5741"/>
</g>
<!-- Node4 -->
<g id="node5" class="node">
<title>Node4</title>
<polygon fill="#ffffff" stroke="#bfbfbf" points="83.5,-73 83.5,-92 115.5,-92 115.5,-73 83.5,-73"/>
<text text-anchor="middle" x="99.5" y="-80" font-family="Helvetica,sans-Serif" font-size="10.00" fill="#000000">list</text>
</g>
<!-- Node1&#45;&gt;Node4 -->
<g id="edge4" class="edge">
<title>Node1&#45;&gt;Node4</title>
<path fill="none" stroke="#191970" d="M148.2043,-134.2967C138.4839,-123.9591 125.6106,-110.2684 115.5403,-99.5588"/>
<polygon fill="#191970" stroke="#191970" points="117.8846,-96.9426 108.4845,-92.055 112.785,-101.7378 117.8846,-96.9426"/>
</g>
<!-- Node5 -->
<g id="node6" class="node">
<title>Node5</title>
<polygon fill="#ffffff" stroke="#bfbfbf" points="134,-73 134,-92 191,-92 191,-73 134,-73"/>
<text text-anchor="middle" x="162.5" y="-80" font-family="Helvetica,sans-Serif" font-size="10.00" fill="#000000">ostream</text>
</g>
<!-- Node1&#45;&gt;Node5 -->
<g id="edge5" class="edge">
<title>Node1&#45;&gt;Node5</title>
<path fill="none" stroke="#191970" d="M162.5,-134.2967C162.5,-124.7699 162.5,-112.3954 162.5,-102.1306"/>
<polygon fill="#191970" stroke="#191970" points="166.0001,-102.0549 162.5,-92.055 159.0001,-102.055 166.0001,-102.0549"/>
</g>
<!-- Node6&#45;&gt;Node2 -->
<g id="edge18" class="edge">
<title>Node6&#45;&gt;Node2</title>
<path fill="none" stroke="#191970" d="M539.4925,-143.9798C471.9552,-137.2325 364.4606,-123.4338 274.5,-98 272.1816,-97.3445 269.8141,-96.5832 267.4532,-95.7565"/>
<polygon fill="#191970" stroke="#191970" points="268.517,-92.4158 257.927,-92.0946 266.0053,-98.9497 268.517,-92.4158"/>
</g>
<!-- Node7 -->
<g id="node8" class="node">
<title>Node7</title>
<polygon fill="#ffffff" stroke="#bfbfbf" points="283.5,-73 283.5,-92 343.5,-92 343.5,-73 283.5,-73"/>
<text text-anchor="middle" x="313.5" y="-80" font-family="Helvetica,sans-Serif" font-size="10.00" fill="#000000">iostream</text>
</g>
<!-- Node6&#45;&gt;Node7 -->
<g id="edge7" class="edge">
<title>Node6&#45;&gt;Node7</title>
<path fill="none" stroke="#191970" d="M543.1374,-139.9808C491.4607,-131.3392 416.4006,-117.0377 352.5,-98 350.0561,-97.2719 347.5514,-96.4531 345.0483,-95.5822"/>
<polygon fill="#191970" stroke="#191970" points="346.1265,-92.249 335.5336,-92.0452 343.6873,-98.8103 346.1265,-92.249"/>
</g>
<!-- Node8 -->
<g id="node9" class="node">
<title>Node8</title>
<polygon fill="#ffffff" stroke="#bfbfbf" points="362,-73 362,-92 455,-92 455,-73 362,-73"/>
<text text-anchor="middle" x="408.5" y="-80" font-family="Helvetica,sans-Serif" font-size="10.00" fill="#000000">unordered_map</text>
</g>
<!-- Node6&#45;&gt;Node8 -->
<g id="edge8" class="edge">
<title>Node6&#45;&gt;Node8</title>
<path fill="none" stroke="#191970" d="M577.2747,-139.9005C542.8971,-128.2086 484.6896,-108.4122 446.4228,-95.3976"/>
<polygon fill="#191970" stroke="#191970" points="447.2674,-91.988 436.6729,-92.0817 445.0134,-98.6152 447.2674,-91.988"/>
</g>
<!-- Node9 -->
<g id="node10" class="node">
<title>Node9</title>
<polygon fill="#ffffff" stroke="#bfbfbf" points="473.5,-73 473.5,-92 559.5,-92 559.5,-73 473.5,-73"/>
<text text-anchor="middle" x="516.5" y="-80" font-family="Helvetica,sans-Serif" font-size="10.00" fill="#000000">unordered_set</text>
</g>
<!-- Node6&#45;&gt;Node9 -->
<g id="edge9" class="edge">
<title>Node6&#45;&gt;Node9</title>
<path fill="none" stroke="#191970" d="M592.7485,-139.9005C578.341,-129.0544 554.669,-111.2339 537.5184,-98.3229"/>
<polygon fill="#191970" stroke="#191970" points="539.3221,-95.2998 529.2279,-92.0817 535.1121,-100.8923 539.3221,-95.2998"/>
</g>
<!-- Node10 -->
<g id="node11" class="node">
<title>Node10</title>
<polygon fill="#ffffff" stroke="#bfbfbf" points="577.5,-73 577.5,-92 633.5,-92 633.5,-73 577.5,-73"/>
<text text-anchor="middle" x="605.5" y="-80" font-family="Helvetica,sans-Serif" font-size="10.00" fill="#000000">assert.h</text>
</g>
<!-- Node6&#45;&gt;Node10 -->
<g id="edge10" class="edge">
<title>Node6&#45;&gt;Node10</title>
<path fill="none" stroke="#191970" d="M605.5,-139.9005C605.5,-130.149 605.5,-114.7597 605.5,-102.3695"/>
<polygon fill="#191970" stroke="#191970" points="609.0001,-102.0816 605.5,-92.0817 602.0001,-102.0817 609.0001,-102.0816"/>
</g>
<!-- Node11 -->
<g id="node12" class="node">
<title>Node11</title>
<polygon fill="#ffffff" stroke="#bfbfbf" points="652,-73 652,-92 771,-92 771,-73 652,-73"/>
<text text-anchor="middle" x="711.5" y="-80" font-family="Helvetica,sans-Serif" font-size="10.00" fill="#000000">boost/shared_ptr.hpp</text>
</g>
<!-- Node6&#45;&gt;Node11 -->
<g id="edge11" class="edge">
<title>Node6&#45;&gt;Node11</title>
<path fill="none" stroke="#191970" d="M620.6872,-139.9005C638.2403,-128.8057 667.3394,-110.4128 687.8598,-97.4424"/>
<polygon fill="#191970" stroke="#191970" points="689.758,-100.3832 696.341,-92.0817 686.0179,-94.4661 689.758,-100.3832"/>
</g>
<!-- Node12 -->
<g id="node13" class="node">
<title>Node12</title>
<polygon fill="#ffffff" stroke="#bfbfbf" points="789.5,-67.5 789.5,-97.5 961.5,-97.5 961.5,-67.5 789.5,-67.5"/>
<text text-anchor="start" x="797.5" y="-85.5" font-family="Helvetica,sans-Serif" font-size="10.00" fill="#000000">ChimeraTK/NDRegisterAccessor</text>
<text text-anchor="middle" x="875.5" y="-74.5" font-family="Helvetica,sans-Serif" font-size="10.00" fill="#000000">Abstractor.h</text>
</g>
<!-- Node6&#45;&gt;Node12 -->
<g id="edge12" class="edge">
<title>Node6&#45;&gt;Node12</title>
<path fill="none" stroke="#191970" d="M643.8977,-139.9717C685.7509,-129.5859 753.6178,-112.7449 805.0923,-99.9715"/>
<polygon fill="#191970" stroke="#191970" points="805.9665,-103.3608 814.8292,-97.5553 804.2806,-96.5669 805.9665,-103.3608"/>
</g>
<!-- Node13 -->
<g id="node14" class="node">
<title>Node13</title>
<g id="a_node14"><a xlink:href="_constant_accessor_8h.html" target="_top" xlink:title="ConstantAccessor.h">
<polygon fill="#ffffff" stroke="#000000" points="979.5,-73 979.5,-92 1091.5,-92 1091.5,-73 979.5,-73"/>
<text text-anchor="middle" x="1035.5" y="-80" font-family="Helvetica,sans-Serif" font-size="10.00" fill="#000000">ConstantAccessor.h</text>
</a>
</g>
</g>
<!-- Node6&#45;&gt;Node13 -->
<g id="edge13" class="edge">
<title>Node6&#45;&gt;Node13</title>
<path fill="none" stroke="#191970" d="M671.7444,-142.0508C745.1121,-133.3602 866.7505,-117.6445 970.5,-98 976.2688,-96.9077 982.297,-95.6415 988.2567,-94.3129"/>
<polygon fill="#191970" stroke="#191970" points="989.2009,-97.6872 998.1637,-92.0376 987.634,-90.8648 989.2009,-97.6872"/>
</g>
<!-- Node15 -->
<g id="node16" class="node">
<title>Node15</title>
<g id="a_node16"><a xlink:href="_flags_8h.html" target="_top" xlink:title="Flags.h">
<polygon fill="#ffffff" stroke="#000000" points="1110,-73 1110,-92 1161,-92 1161,-73 1110,-73"/>
<text text-anchor="middle" x="1135.5" y="-80" font-family="Helvetica,sans-Serif" font-size="10.00" fill="#000000">Flags.h</text>
</a>
</g>
</g>
<!-- Node6&#45;&gt;Node15 -->
<g id="edge15" class="edge">
<title>Node6&#45;&gt;Node15</title>
<path fill="none" stroke="#191970" d="M671.8799,-145.1765C787.5516,-137.2127 1021.2878,-119.0961 1100.5,-98 1102.6914,-97.4164 1104.9205,-96.7129 1107.1383,-95.932"/>
<polygon fill="#191970" stroke="#191970" points="1108.6455,-99.099 1116.6372,-92.1431 1106.052,-92.5971 1108.6455,-99.099"/>
</g>
<!-- Node16 -->
<g id="node17" class="node">
<title>Node16</title>
<g id="a_node17"><a xlink:href="_meta_data_propagating_register_decorator_8h.html" target="_top" xlink:title="MetaDataPropagatingRegister\lDecorator.h">
<polygon fill="#ffffff" stroke="#000000" points="1179.5,-67.5 1179.5,-97.5 1341.5,-97.5 1341.5,-67.5 1179.5,-67.5"/>
<text text-anchor="start" x="1187.5" y="-85.5" font-family="Helvetica,sans-Serif" font-size="10.00" fill="#000000">MetaDataPropagatingRegister</text>
<text text-anchor="middle" x="1260.5" y="-74.5" font-family="Helvetica,sans-Serif" font-size="10.00" fill="#000000">Decorator.h</text>
</a>
</g>
</g>
<!-- Node6&#45;&gt;Node16 -->
<g id="edge16" class="edge">
<title>Node6&#45;&gt;Node16</title>
<path fill="none" stroke="#191970" d="M671.7969,-145.1764C775.6868,-138.0217 983.3476,-122.1935 1169.157,-98.1166"/>
<polygon fill="#191970" stroke="#191970" points="1169.6469,-101.5824 1179.1092,-96.8163 1168.74,-94.6414 1169.6469,-101.5824"/>
</g>
<!-- Node14 -->
<g id="node15" class="node">
<title>Node14</title>
<polygon fill="#ffffff" stroke="#bfbfbf" points="959.5,-.5 959.5,-30.5 1111.5,-30.5 1111.5,-.5 959.5,-.5"/>
<text text-anchor="start" x="967.5" y="-18.5" font-family="Helvetica,sans-Serif" font-size="10.00" fill="#000000">ChimeraTK/SyncNDRegister</text>
<text text-anchor="middle" x="1035.5" y="-7.5" font-family="Helvetica,sans-Serif" font-size="10.00" fill="#000000">Accessor.h</text>
</g>
<!-- Node13&#45;&gt;Node14 -->
<g id="edge14" class="edge">
<title>Node13&#45;&gt;Node14</title>
<path fill="none" stroke="#191970" d="M1035.5,-72.9005C1035.5,-64.5099 1035.5,-51.9451 1035.5,-40.7085"/>
<polygon fill="#191970" stroke="#191970" points="1039.0001,-40.5217 1035.5,-30.5218 1032.0001,-40.5218 1039.0001,-40.5217"/>
</g>
<!-- Node17 -->
<g id="node18" class="node">
<title>Node17</title>
<polygon fill="#ffffff" stroke="#bfbfbf" points="1174.5,-.5 1174.5,-30.5 1346.5,-30.5 1346.5,-.5 1174.5,-.5"/>
<text text-anchor="start" x="1182.5" y="-18.5" font-family="Helvetica,sans-Serif" font-size="10.00" fill="#000000">ChimeraTK/NDRegisterAccessor</text>
<text text-anchor="middle" x="1260.5" y="-7.5" font-family="Helvetica,sans-Serif" font-size="10.00" fill="#000000">Decorator.h</text>
</g>
<!-- Node16&#45;&gt;Node17 -->
<g id="edge17" class="edge">
<title>Node16&#45;&gt;Node17</title>
<path fill="none" stroke="#191970" d="M1260.5,-67.2967C1260.5,-59.5013 1260.5,-49.7991 1260.5,-40.9064"/>
<polygon fill="#191970" stroke="#191970" points="1264.0001,-40.6431 1260.5,-30.6432 1257.0001,-40.6432 1264.0001,-40.6431"/>
</g>
</g>
</svg>
        <g id="navigator" transform="translate(0 0)" fill="#404254">
                <rect fill="#f2f5e9" fill-opacity="0.5" stroke="#606060" stroke-width=".5" x="0" y="0" width="60" height="60"/>
                <use id="zoomplus" xlink:href="#zoomPlus" x="17" y="9" onmousedown="handleZoom(evt,'in')"/>
                <use id="zoomminus" xlink:href="#zoomMin" x="42" y="9" onmousedown="handleZoom(evt,'out')"/>
                <use id="reset" xlink:href="#resetDef" x="30" y="36" onmousedown="handleReset()"/>
                <g id="arrowUp" xlink:href="#dirArrow" transform="translate(30 24)" onmousedown="handlePan(0,-1)">
                  <use xlink:href="#rim" fill="#404040">
                        <set attributeName="fill" to="#808080" begin="arrowUp.mouseover" end="arrowUp.mouseout"/>
                  </use>
                  <path fill="none" stroke="white" stroke-width="1.5" d="M0,-3.0v7 M-2.5,-0.5L0,-3.0L2.5,-0.5"/>
                </g>
                <g id="arrowRight" xlink:href="#dirArrow" transform="rotate(90) translate(36 -43)" onmousedown="handlePan(1,0)">
                  <use xlink:href="#rim" fill="#404040">
                        <set attributeName="fill" to="#808080" begin="arrowRight.mouseover" end="arrowRight.mouseout"/>
                  </use>
                  <path fill="none" stroke="white" stroke-width="1.5" d="M0,-3.0v7 M-2.5,-0.5L0,-3.0L2.5,-0.5"/>
                </g>
                <g id="arrowDown" xlink:href="#dirArrow" transform="rotate(180) translate(-30 -48)" onmousedown="handlePan(0,1)">
                  <use xlink:href="#rim" fill="#404040">
                        <set attributeName="fill" to="#808080" begin="arrowDown.mouseover" end="arrowDown.mouseout"/>
                  </use>
                  <path fill="none" stroke="white" stroke-width="1.5" d="M0,-3.0v7 M-2.5,-0.5L0,-3.0L2.5,-0.5"/>
                </g>
                <g id="arrowLeft" xlink:href="#dirArrow" transform="rotate(270) translate(-36 17)" onmousedown="handlePan(-1,0)">
                  <use xlink:href="#rim" fill="#404040">
                        <set attributeName="fill" to="#808080" begin="arrowLeft.mouseover" end="arrowLeft.mouseout"/>
                  </use>
                  <path fill="none" stroke="white" stroke-width="1.5" d="M0,-3.0v7 M-2.5,-0.5L0,-3.0L2.5,-0.5"/>
                </g>
        </g>
        <svg viewBox="0 0 15 15" width="100%" height="30px" preserveAspectRatio="xMaxYMin meet">
         <g id="arrow_out" transform="scale(0.3 0.3)">
          <a xlink:href="_variable_network_node_dumping_visitor_8cc__incl_org.svg" target="_base">
           <rect id="button" ry="5" rx="5" y="6" x="6" height="38" width="38"
                fill="#f2f5e9" fill-opacity="0.5" stroke="#606060" stroke-width="1.0"/>
           <path id="arrow"
             d="M 11.500037,31.436501 C 11.940474,20.09759 22.043105,11.32322 32.158766,21.979434 L 37.068811,17.246167 C 37.068811,17.246167 37.088388,32 37.088388,32 L 22.160133,31.978069 C 22.160133,31.978069 26.997745,27.140456 26.997745,27.140456 C 18.528582,18.264221 13.291696,25.230495 11.500037,31.436501 z"
             style="fill:#404040;"/>
          </a>
         </g>
        </svg>
</svg>
