<?xml version="1.0" encoding="UTF-8" standalone="no"?>
<!DOCTYPE svg PUBLIC "-//W3C//DTD SVG 1.1//EN"
 "http://www.w3.org/Graphics/SVG/1.1/DTD/svg11.dtd">
<!-- Generated by graphviz version 2.40.1 (20161225.0304)
 -->
<!-- Title: ChimeraTK::FanOut&lt; UserType &gt; Pages: 1 -->
<svg width="281pt" height="284pt"
 viewBox="0.00 0.00 280.50 284.00" xmlns="http://www.w3.org/2000/svg" xmlns:xlink="http://www.w3.org/1999/xlink">
<g id="graph0" class="graph" transform="scale(1 1) rotate(0) translate(4 280)">
<title>ChimeraTK::FanOut&lt; UserType &gt;</title>
<polygon fill="#ffffff" stroke="transparent" points="-4,4 -4,-280 276.5,-280 276.5,4 -4,4"/>
<!-- Node5 -->
<g id="node1" class="node">
<title>Node5</title>
<polygon fill="#bfbfbf" stroke="#000000" points="43,-.5 43,-30.5 162,-30.5 162,-.5 43,-.5"/>
<text text-anchor="start" x="51" y="-18.5" font-family="Helvetica,sans-Serif" font-size="10.00" fill="#000000">ChimeraTK::FanOut&lt;</text>
<text text-anchor="middle" x="102.5" y="-7.5" font-family="Helvetica,sans-Serif" font-size="10.00" fill="#000000"> UserType &gt;</text>
</g>
<!-- Node6 -->
<g id="node2" class="node">
<title>Node6</title>
<polygon fill="#ffffff" stroke="#bfbfbf" points="0,-78.5 0,-119.5 205,-119.5 205,-78.5 0,-78.5"/>
<text text-anchor="start" x="8" y="-107.5" font-family="Helvetica,sans-Serif" font-size="10.00" fill="#000000">std::list&lt; boost::shared</text>
<text text-anchor="start" x="8" y="-96.5" font-family="Helvetica,sans-Serif" font-size="10.00" fill="#000000">_ptr&lt; ChimeraTK::NDRegisterAccessor</text>
<text text-anchor="middle" x="102.5" y="-85.5" font-family="Helvetica,sans-Serif" font-size="10.00" fill="#000000">&lt; UserType &gt; &gt; &gt;</text>
</g>
<!-- Node6&#45;&gt;Node5 -->
<g id="edge1" class="edge">
<title>Node6&#45;&gt;Node5</title>
<path fill="none" stroke="#9a32cd" stroke-dasharray="5,2" d="M102.5,-68.0892C102.5,-55.3184 102.5,-41.0939 102.5,-30.6621"/>
<polygon fill="#9a32cd" stroke="#9a32cd" points="99.0001,-68.3595 102.5,-78.3595 106.0001,-68.3596 99.0001,-68.3595"/>
<text text-anchor="middle" x="120" y="-52" font-family="Helvetica,sans-Serif" font-size="10.00" fill="#000000"> slaves</text>
</g>
<!-- Node7 -->
<g id="node3" class="node">
<title>Node7</title>
<g id="a_node3"><a xlink:title="STL class. ">
<polygon fill="#ffffff" stroke="#bfbfbf" points="62,-189.5 62,-208.5 143,-208.5 143,-189.5 62,-189.5"/>
<text text-anchor="middle" x="102.5" y="-196.5" font-family="Helvetica,sans-Serif" font-size="10.00" fill="#000000">std::list&lt; T &gt;</text>
</a>
</g>
</g>
<!-- Node7&#45;&gt;Node6 -->
<g id="edge2" class="edge">
<title>Node7&#45;&gt;Node6</title>
<path fill="none" stroke="#ffa500" stroke-dasharray="5,2" d="M102.5,-179.3945C102.5,-162.2216 102.5,-137.3404 102.5,-119.8169"/>
<polygon fill="#ffa500" stroke="#ffa500" points="99.0001,-179.4115 102.5,-189.4116 106.0001,-179.4116 99.0001,-179.4115"/>
<text text-anchor="start" x="102.5" y="-163" font-family="Helvetica,sans-Serif" font-size="10.00" fill="#000000"> &lt; boost::shared_ptr</text>
<text text-anchor="start" x="102.5" y="-152" font-family="Helvetica,sans-Serif" font-size="10.00" fill="#000000">&lt; ChimeraTK::NDRegisterAccessor</text>
<text text-anchor="middle" x="187.5" y="-141" font-family="Helvetica,sans-Serif" font-size="10.00" fill="#000000">&lt; UserType &gt; &gt; &gt;</text>
</g>
<!-- Node8 -->
<g id="node4" class="node">
<title>Node8</title>
<polygon fill="#ffffff" stroke="#bfbfbf" points="88,-256.5 88,-275.5 117,-275.5 117,-256.5 88,-256.5"/>
<text text-anchor="middle" x="102.5" y="-263.5" font-family="Helvetica,sans-Serif" font-size="10.00" fill="#000000">T</text>
</g>
<!-- Node8&#45;&gt;Node7 -->
<g id="edge3" class="edge">
<title>Node8&#45;&gt;Node7</title>
<path fill="none" stroke="#9a32cd" stroke-dasharray="5,2" d="M102.5,-246.1079C102.5,-233.714 102.5,-218.3263 102.5,-208.5817"/>
<polygon fill="#9a32cd" stroke="#9a32cd" points="99.0001,-246.4005 102.5,-256.4005 106.0001,-246.4006 99.0001,-246.4005"/>
<text text-anchor="middle" x="127" y="-230" font-family="Helvetica,sans-Serif" font-size="10.00" fill="#000000"> elements</text>
</g>
</g>
</svg>
