<?xml version="1.0" encoding="UTF-8" standalone="no"?>
<!DOCTYPE svg PUBLIC "-//W3C//DTD SVG 1.1//EN"
 "http://www.w3.org/Graphics/SVG/1.1/DTD/svg11.dtd">
<!-- Generated by graphviz version 2.40.1 (20161225.0304)
 -->
<!-- Title: backend/include/DFMC_MD22Constants.h Pages: 1 -->
<svg width="264pt" height="151pt"
 viewBox="0.00 0.00 264.00 151.00" xmlns="http://www.w3.org/2000/svg" xmlns:xlink="http://www.w3.org/1999/xlink">
<g id="graph0" class="graph" transform="scale(1 1) rotate(0) translate(4 147)">
<title>backend/include/DFMC_MD22Constants.h</title>
<polygon fill="#ffffff" stroke="transparent" points="-4,4 -4,-147 260,-147 260,4 -4,4"/>
<!-- Node0 -->
<g id="node1" class="node">
<title>Node0</title>
<polygon fill="#bfbfbf" stroke="#000000" points="67,-112.5 67,-142.5 194,-142.5 194,-112.5 67,-112.5"/>
<text text-anchor="start" x="75" y="-130.5" font-family="Helvetica,sans-Serif" font-size="10.00" fill="#000000">backend/include/DFMC</text>
<text text-anchor="middle" x="130.5" y="-119.5" font-family="Helvetica,sans-Serif" font-size="10.00" fill="#000000">_MD22Constants.h</text>
</g>
<!-- Node1 -->
<g id="node2" class="node">
<title>Node1</title>
<polygon fill="#ffffff" stroke="#bfbfbf" points="0,-56.5 0,-75.5 125,-75.5 125,-56.5 0,-56.5"/>
<text text-anchor="middle" x="62.5" y="-63.5" font-family="Helvetica,sans-Serif" font-size="10.00" fill="#000000">boost/lexical_cast.hpp</text>
</g>
<!-- Node0&#45;&gt;Node1 -->
<g id="edge1" class="edge">
<title>Node0&#45;&gt;Node1</title>
<path fill="none" stroke="#191970" d="M113.691,-112.2977C103.7603,-103.3163 91.1743,-91.9334 80.9673,-82.702"/>
<polygon fill="#191970" stroke="#191970" points="83.152,-79.9588 73.3877,-75.8469 78.4566,-85.1505 83.152,-79.9588"/>
</g>
<!-- Node2 -->
<g id="node3" class="node">
<title>Node2</title>
<g id="a_node3"><a xlink:href="_t_m_c429_constants_8h.html" target="_top" xlink:title="TMC429Constants.h">
<polygon fill="#ffffff" stroke="#000000" points="143,-56.5 143,-75.5 256,-75.5 256,-56.5 143,-56.5"/>
<text text-anchor="middle" x="199.5" y="-63.5" font-family="Helvetica,sans-Serif" font-size="10.00" fill="#000000">TMC429Constants.h</text>
</a>
</g>
</g>
<!-- Node0&#45;&gt;Node2 -->
<g id="edge2" class="edge">
<title>Node0&#45;&gt;Node2</title>
<path fill="none" stroke="#191970" d="M147.5562,-112.2977C157.6329,-103.3163 170.404,-91.9334 180.7611,-82.702"/>
<polygon fill="#191970" stroke="#191970" points="183.3159,-85.1135 188.4522,-75.8469 178.6583,-79.8879 183.3159,-85.1135"/>
</g>
<!-- Node3 -->
<g id="node4" class="node">
<title>Node3</title>
<polygon fill="#ffffff" stroke="#bfbfbf" points="173,-.5 173,-19.5 226,-19.5 226,-.5 173,-.5"/>
<text text-anchor="middle" x="199.5" y="-7.5" font-family="Helvetica,sans-Serif" font-size="10.00" fill="#000000">stdint.h</text>
</g>
<!-- Node2&#45;&gt;Node3 -->
<g id="edge3" class="edge">
<title>Node2&#45;&gt;Node3</title>
<path fill="none" stroke="#191970" d="M199.5,-56.2455C199.5,-48.9382 199.5,-38.6944 199.5,-29.7046"/>
<polygon fill="#191970" stroke="#191970" points="203.0001,-29.6426 199.5,-19.6427 196.0001,-29.6427 203.0001,-29.6426"/>
</g>
</g>
</svg>
