<?xml version="1.0" encoding="UTF-8" standalone="no"?>
<!DOCTYPE svg PUBLIC "-//W3C//DTD SVG 1.1//EN"
 "http://www.w3.org/Graphics/SVG/1.1/DTD/svg11.dtd">
<!-- Generated by graphviz version 2.40.1 (20161225.0304)
 -->
<!-- Title: util/include/StateMachine.h Pages: 1 -->
<svg width="536pt" height="84pt"
 viewBox="0.00 0.00 535.50 84.00" xmlns="http://www.w3.org/2000/svg" xmlns:xlink="http://www.w3.org/1999/xlink">
<g id="graph0" class="graph" transform="scale(1 1) rotate(0) translate(4 80)">
<title>util/include/StateMachine.h</title>
<polygon fill="#ffffff" stroke="transparent" points="-4,4 -4,-80 531.5,-80 531.5,4 -4,4"/>
<!-- Node0 -->
<g id="node1" class="node">
<title>Node0</title>
<polygon fill="#bfbfbf" stroke="#000000" points="204.5,-56.5 204.5,-75.5 353.5,-75.5 353.5,-56.5 204.5,-56.5"/>
<text text-anchor="middle" x="279" y="-63.5" font-family="Helvetica,sans-Serif" font-size="10.00" fill="#000000">util/include/StateMachine.h</text>
</g>
<!-- Node1 -->
<g id="node2" class="node">
<title>Node1</title>
<polygon fill="#ffffff" stroke="#bfbfbf" points="0,-.5 0,-19.5 50,-19.5 50,-.5 0,-.5"/>
<text text-anchor="middle" x="25" y="-7.5" font-family="Helvetica,sans-Serif" font-size="10.00" fill="#000000">atomic</text>
</g>
<!-- Node0&#45;&gt;Node1 -->
<g id="edge1" class="edge">
<title>Node0&#45;&gt;Node1</title>
<path fill="none" stroke="#191970" d="M227.6138,-56.4618C185.1306,-48.304 123.0351,-35.7564 60.2664,-20.1783"/>
<polygon fill="#191970" stroke="#191970" points="60.7405,-16.6889 50.1895,-17.6523 59.0384,-23.4788 60.7405,-16.6889"/>
</g>
<!-- Node2 -->
<g id="node3" class="node">
<title>Node2</title>
<polygon fill="#ffffff" stroke="#bfbfbf" points="68.5,-.5 68.5,-19.5 133.5,-19.5 133.5,-.5 68.5,-.5"/>
<text text-anchor="middle" x="101" y="-7.5" font-family="Helvetica,sans-Serif" font-size="10.00" fill="#000000">functional</text>
</g>
<!-- Node0&#45;&gt;Node2 -->
<g id="edge2" class="edge">
<title>Node0&#45;&gt;Node2</title>
<path fill="none" stroke="#191970" d="M248.4007,-56.3733C218.6739,-47.021 173.3841,-32.7725 140.8544,-22.5385"/>
<polygon fill="#191970" stroke="#191970" points="141.7895,-19.1636 131.2,-19.5011 139.6887,-25.8409 141.7895,-19.1636"/>
</g>
<!-- Node3 -->
<g id="node4" class="node">
<title>Node3</title>
<polygon fill="#ffffff" stroke="#bfbfbf" points="152,-.5 152,-19.5 212,-19.5 212,-.5 152,-.5"/>
<text text-anchor="middle" x="182" y="-7.5" font-family="Helvetica,sans-Serif" font-size="10.00" fill="#000000">iostream</text>
</g>
<!-- Node0&#45;&gt;Node3 -->
<g id="edge3" class="edge">
<title>Node0&#45;&gt;Node3</title>
<path fill="none" stroke="#191970" d="M262.1039,-56.2455C247.082,-47.5731 224.8957,-34.7645 207.679,-24.825"/>
<polygon fill="#191970" stroke="#191970" points="209.1128,-21.6114 198.7025,-19.6427 205.6129,-27.6737 209.1128,-21.6114"/>
</g>
<!-- Node4 -->
<g id="node5" class="node">
<title>Node4</title>
<polygon fill="#ffffff" stroke="#bfbfbf" points="230,-.5 230,-19.5 268,-19.5 268,-.5 230,-.5"/>
<text text-anchor="middle" x="249" y="-7.5" font-family="Helvetica,sans-Serif" font-size="10.00" fill="#000000">map</text>
</g>
<!-- Node0&#45;&gt;Node4 -->
<g id="edge4" class="edge">
<title>Node0&#45;&gt;Node4</title>
<path fill="none" stroke="#191970" d="M273.7744,-56.2455C269.6877,-48.617 263.8865,-37.7881 258.925,-28.5267"/>
<polygon fill="#191970" stroke="#191970" points="261.9732,-26.8047 254.1657,-19.6427 255.8028,-30.1103 261.9732,-26.8047"/>
</g>
<!-- Node5 -->
<g id="node6" class="node">
<title>Node5</title>
<polygon fill="#ffffff" stroke="#bfbfbf" points="286,-.5 286,-19.5 334,-19.5 334,-.5 286,-.5"/>
<text text-anchor="middle" x="310" y="-7.5" font-family="Helvetica,sans-Serif" font-size="10.00" fill="#000000">mutex</text>
</g>
<!-- Node0&#45;&gt;Node5 -->
<g id="edge5" class="edge">
<title>Node0&#45;&gt;Node5</title>
<path fill="none" stroke="#191970" d="M284.3998,-56.2455C288.6227,-48.617 294.6173,-37.7881 299.7441,-28.5267"/>
<polygon fill="#191970" stroke="#191970" points="302.881,-30.0867 304.6621,-19.6427 296.7568,-26.6965 302.881,-30.0867"/>
</g>
<!-- Node6 -->
<g id="node7" class="node">
<title>Node6</title>
<polygon fill="#ffffff" stroke="#bfbfbf" points="352,-.5 352,-19.5 396,-19.5 396,-.5 352,-.5"/>
<text text-anchor="middle" x="374" y="-7.5" font-family="Helvetica,sans-Serif" font-size="10.00" fill="#000000">string</text>
</g>
<!-- Node0&#45;&gt;Node6 -->
<g id="edge6" class="edge">
<title>Node0&#45;&gt;Node6</title>
<path fill="none" stroke="#191970" d="M295.5477,-56.2455C310.2599,-47.5731 331.9888,-34.7645 348.8505,-24.825"/>
<polygon fill="#191970" stroke="#191970" points="350.8046,-27.736 357.6419,-19.6427 347.2498,-21.7057 350.8046,-27.736"/>
</g>
<!-- Node7 -->
<g id="node8" class="node">
<title>Node7</title>
<polygon fill="#ffffff" stroke="#bfbfbf" points="414,-.5 414,-19.5 462,-19.5 462,-.5 414,-.5"/>
<text text-anchor="middle" x="438" y="-7.5" font-family="Helvetica,sans-Serif" font-size="10.00" fill="#000000">thread</text>
</g>
<!-- Node0&#45;&gt;Node7 -->
<g id="edge7" class="edge">
<title>Node0&#45;&gt;Node7</title>
<path fill="none" stroke="#191970" d="M306.3331,-56.3733C333.4171,-46.8342 374.9637,-32.2015 404.1268,-21.9302"/>
<polygon fill="#191970" stroke="#191970" points="405.6123,-25.1178 413.8817,-18.4945 403.2869,-18.5153 405.6123,-25.1178"/>
</g>
<!-- Node8 -->
<g id="node9" class="node">
<title>Node8</title>
<polygon fill="#ffffff" stroke="#bfbfbf" points="480.5,-.5 480.5,-19.5 527.5,-19.5 527.5,-.5 480.5,-.5"/>
<text text-anchor="middle" x="504" y="-7.5" font-family="Helvetica,sans-Serif" font-size="10.00" fill="#000000">vector</text>
</g>
<!-- Node0&#45;&gt;Node8 -->
<g id="edge8" class="edge">
<title>Node0&#45;&gt;Node8</title>
<path fill="none" stroke="#191970" d="M321.8881,-56.4883C358.786,-48.1341 413.6449,-35.3084 470.391,-20.0505"/>
<polygon fill="#191970" stroke="#191970" points="471.5183,-23.3713 480.2553,-17.3784 469.688,-16.6148 471.5183,-23.3713"/>
</g>
</g>
</svg>
