<?xml version="1.0" encoding="UTF-8" standalone="no"?>
<!DOCTYPE svg PUBLIC "-//W3C//DTD SVG 1.1//EN"
 "http://www.w3.org/Graphics/SVG/1.1/DTD/svg11.dtd">
<!-- Generated by graphviz version 2.43.0 (0)
 -->
<!-- Title: mtca4u_steppermotor/src/StepperMotor.cc Pages: 1 -->
<svg width="792pt" height="151pt"
 viewBox="0.00 0.00 791.50 151.00" xmlns="http://www.w3.org/2000/svg" xmlns:xlink="http://www.w3.org/1999/xlink">
<g id="graph0" class="graph" transform="scale(1 1) rotate(0) translate(4 147)">
<title>mtca4u_steppermotor/src/StepperMotor.cc</title>
<polygon fill="white" stroke="transparent" points="-4,4 -4,-147 787.5,-147 787.5,4 -4,4"/>
<!-- Node1 -->
<g id="node1" class="node">
<title>Node1</title>
<g id="a_node1"><a xlink:title=" ">
<polygon fill="#bfbfbf" stroke="black" points="457,-112.5 457,-142.5 582,-142.5 582,-112.5 457,-112.5"/>
<text text-anchor="start" x="465" y="-130.5" font-family="Helvetica,sans-Serif" font-size="10.00">mtca4u_steppermotor</text>
<text text-anchor="middle" x="519.5" y="-119.5" font-family="Helvetica,sans-Serif" font-size="10.00">/src/StepperMotor.cc</text>
</a>
</g>
</g>
<!-- Node2 -->
<g id="node2" class="node">
<title>Node2</title>
<g id="a_node2"><a xlink:title=" ">
<polygon fill="white" stroke="#bfbfbf" points="28,-56.5 28,-75.5 119,-75.5 119,-56.5 28,-56.5"/>
<text text-anchor="middle" x="73.5" y="-63.5" font-family="Helvetica,sans-Serif" font-size="10.00">StepperMotor.h</text>
</a>
</g>
</g>
<!-- Node1&#45;&gt;Node2 -->
<g id="edge1" class="edge">
<title>Node1&#45;&gt;Node2</title>
<path fill="none" stroke="midnightblue" d="M456.77,-119.06C381.5,-109.98 251.24,-93.81 129.01,-76.03"/>
<polygon fill="midnightblue" stroke="midnightblue" points="129.5,-72.57 119.1,-74.58 128.49,-79.49 129.5,-72.57"/>
</g>
<!-- Node3 -->
<g id="node3" class="node">
<title>Node3</title>
<g id="a_node3"><a xlink:href="_motor_driver_card_factory_8h.html" target="_top" xlink:title=" ">
<polygon fill="white" stroke="black" points="137.5,-56.5 137.5,-75.5 277.5,-75.5 277.5,-56.5 137.5,-56.5"/>
<text text-anchor="middle" x="207.5" y="-63.5" font-family="Helvetica,sans-Serif" font-size="10.00">MotorDriverCardFactory.h</text>
</a>
</g>
</g>
<!-- Node1&#45;&gt;Node3 -->
<g id="edge2" class="edge">
<title>Node1&#45;&gt;Node3</title>
<path fill="none" stroke="midnightblue" d="M456.74,-114.53C399.9,-103.69 316.98,-87.88 262.64,-77.51"/>
<polygon fill="midnightblue" stroke="midnightblue" points="262.98,-74.02 252.5,-75.58 261.67,-80.89 262.98,-74.02"/>
</g>
<!-- Node8 -->
<g id="node8" class="node">
<title>Node8</title>
<g id="a_node8"><a xlink:href="_motor_driver_exception_8h.html" target="_top" xlink:title=" ">
<polygon fill="white" stroke="black" points="453.5,-56.5 453.5,-75.5 585.5,-75.5 585.5,-56.5 453.5,-56.5"/>
<text text-anchor="middle" x="519.5" y="-63.5" font-family="Helvetica,sans-Serif" font-size="10.00">MotorDriverException.h</text>
</a>
</g>
</g>
<!-- Node1&#45;&gt;Node8 -->
<g id="edge7" class="edge">
<title>Node1&#45;&gt;Node8</title>
<path fill="none" stroke="midnightblue" d="M519.5,-112.4C519.5,-104.47 519.5,-94.46 519.5,-85.86"/>
<polygon fill="midnightblue" stroke="midnightblue" points="523,-85.66 519.5,-75.66 516,-85.66 523,-85.66"/>
</g>
<!-- Node10 -->
<g id="node10" class="node">
<title>Node10</title>
<g id="a_node10"><a xlink:href="_stepper_motor_exception_8h.html" target="_top" xlink:title=" ">
<polygon fill="white" stroke="black" points="295.5,-56.5 295.5,-75.5 435.5,-75.5 435.5,-56.5 295.5,-56.5"/>
<text text-anchor="middle" x="365.5" y="-63.5" font-family="Helvetica,sans-Serif" font-size="10.00">StepperMotorException.h</text>
</a>
</g>
</g>
<!-- Node1&#45;&gt;Node10 -->
<g id="edge10" class="edge">
<title>Node1&#45;&gt;Node10</title>
<path fill="none" stroke="midnightblue" d="M483,-112.4C456.93,-102.33 422.21,-88.91 397.28,-79.28"/>
<polygon fill="midnightblue" stroke="midnightblue" points="398.5,-76 387.91,-75.66 395.97,-82.53 398.5,-76"/>
</g>
<!-- Node11 -->
<g id="node11" class="node">
<title>Node11</title>
<g id="a_node11"><a xlink:title=" ">
<polygon fill="white" stroke="#bfbfbf" points="603.5,-56.5 603.5,-75.5 653.5,-75.5 653.5,-56.5 603.5,-56.5"/>
<text text-anchor="middle" x="628.5" y="-63.5" font-family="Helvetica,sans-Serif" font-size="10.00">chrono</text>
</a>
</g>
</g>
<!-- Node1&#45;&gt;Node11 -->
<g id="edge13" class="edge">
<title>Node1&#45;&gt;Node11</title>
<path fill="none" stroke="midnightblue" d="M545.33,-112.4C562.97,-102.77 586.2,-90.09 603.63,-80.58"/>
<polygon fill="midnightblue" stroke="midnightblue" points="605.54,-83.52 612.64,-75.66 602.19,-77.38 605.54,-83.52"/>
</g>
<!-- Node12 -->
<g id="node12" class="node">
<title>Node12</title>
<g id="a_node12"><a xlink:title=" ">
<polygon fill="white" stroke="#bfbfbf" points="672,-56.5 672,-75.5 719,-75.5 719,-56.5 672,-56.5"/>
<text text-anchor="middle" x="695.5" y="-63.5" font-family="Helvetica,sans-Serif" font-size="10.00">cmath</text>
</a>
</g>
</g>
<!-- Node1&#45;&gt;Node12 -->
<g id="edge14" class="edge">
<title>Node1&#45;&gt;Node12</title>
<path fill="none" stroke="midnightblue" d="M561.21,-112.4C592.13,-101.95 633.7,-87.89 662.36,-78.2"/>
<polygon fill="midnightblue" stroke="midnightblue" points="663.57,-81.49 671.92,-74.97 661.32,-74.86 663.57,-81.49"/>
</g>
<!-- Node13 -->
<g id="node13" class="node">
<title>Node13</title>
<g id="a_node13"><a xlink:title=" ">
<polygon fill="white" stroke="#bfbfbf" points="737.5,-56.5 737.5,-75.5 783.5,-75.5 783.5,-56.5 737.5,-56.5"/>
<text text-anchor="middle" x="760.5" y="-63.5" font-family="Helvetica,sans-Serif" font-size="10.00">future</text>
</a>
</g>
</g>
<!-- Node1&#45;&gt;Node13 -->
<g id="edge15" class="edge">
<title>Node1&#45;&gt;Node13</title>
<path fill="none" stroke="midnightblue" d="M580.47,-112.4C619.87,-103.14 672.48,-90.51 727.52,-76.19"/>
<polygon fill="midnightblue" stroke="midnightblue" points="728.67,-79.51 737.46,-73.59 726.9,-72.73 728.67,-79.51"/>
</g>
<!-- Node4 -->
<g id="node4" class="node">
<title>Node4</title>
<g id="a_node4"><a xlink:title=" ">
<polygon fill="white" stroke="#bfbfbf" points="0,-0.5 0,-19.5 119,-19.5 119,-0.5 0,-0.5"/>
<text text-anchor="middle" x="59.5" y="-7.5" font-family="Helvetica,sans-Serif" font-size="10.00">boost/shared_ptr.hpp</text>
</a>
</g>
</g>
<!-- Node3&#45;&gt;Node4 -->
<g id="edge3" class="edge">
<title>Node3&#45;&gt;Node4</title>
<path fill="none" stroke="midnightblue" d="M184.05,-56.44C159.37,-47.44 120.31,-33.19 92.52,-23.05"/>
<polygon fill="midnightblue" stroke="midnightblue" points="93.44,-19.66 82.84,-19.52 91.04,-26.23 93.44,-19.66"/>
</g>
<!-- Node5 -->
<g id="node5" class="node">
<title>Node5</title>
<g id="a_node5"><a xlink:title=" ">
<polygon fill="white" stroke="#bfbfbf" points="137.5,-0.5 137.5,-19.5 271.5,-19.5 271.5,-0.5 137.5,-0.5"/>
<text text-anchor="middle" x="204.5" y="-7.5" font-family="Helvetica,sans-Serif" font-size="10.00">boost/thread/mutex.hpp</text>
</a>
</g>
</g>
<!-- Node3&#45;&gt;Node5 -->
<g id="edge4" class="edge">
<title>Node3&#45;&gt;Node5</title>
<path fill="none" stroke="midnightblue" d="M207,-56.08C206.61,-49.01 206.05,-38.86 205.55,-29.99"/>
<polygon fill="midnightblue" stroke="midnightblue" points="209.04,-29.54 204.99,-19.75 202.05,-29.93 209.04,-29.54"/>
</g>
<!-- Node6 -->
<g id="node6" class="node">
<title>Node6</title>
<g id="a_node6"><a xlink:title=" ">
<polygon fill="white" stroke="#bfbfbf" points="289.5,-0.5 289.5,-19.5 327.5,-19.5 327.5,-0.5 289.5,-0.5"/>
<text text-anchor="middle" x="308.5" y="-7.5" font-family="Helvetica,sans-Serif" font-size="10.00">map</text>
</a>
</g>
</g>
<!-- Node3&#45;&gt;Node6 -->
<g id="edge5" class="edge">
<title>Node3&#45;&gt;Node6</title>
<path fill="none" stroke="midnightblue" d="M223.73,-56.32C239.85,-47.7 264.8,-34.36 283.46,-24.39"/>
<polygon fill="midnightblue" stroke="midnightblue" points="285.14,-27.46 292.31,-19.65 281.84,-21.28 285.14,-27.46"/>
</g>
<!-- Node7 -->
<g id="node7" class="node">
<title>Node7</title>
<g id="a_node7"><a xlink:title=" ">
<polygon fill="white" stroke="#bfbfbf" points="345.5,-0.5 345.5,-19.5 389.5,-19.5 389.5,-0.5 345.5,-0.5"/>
<text text-anchor="middle" x="367.5" y="-7.5" font-family="Helvetica,sans-Serif" font-size="10.00">string</text>
</a>
</g>
</g>
<!-- Node3&#45;&gt;Node7 -->
<g id="edge6" class="edge">
<title>Node3&#45;&gt;Node7</title>
<path fill="none" stroke="midnightblue" d="M232.85,-56.44C260.72,-47.04 305.53,-31.91 335.72,-21.72"/>
<polygon fill="midnightblue" stroke="midnightblue" points="337,-24.99 345.36,-18.47 334.76,-18.35 337,-24.99"/>
</g>
<!-- Node8&#45;&gt;Node7 -->
<g id="edge9" class="edge">
<title>Node8&#45;&gt;Node7</title>
<path fill="none" stroke="midnightblue" d="M495.42,-56.44C469.51,-47.24 428.18,-32.56 399.54,-22.38"/>
<polygon fill="midnightblue" stroke="midnightblue" points="400.58,-19.04 389.99,-18.99 398.24,-25.63 400.58,-19.04"/>
</g>
<!-- Node9 -->
<g id="node9" class="node">
<title>Node9</title>
<g id="a_node9"><a xlink:title=" ">
<polygon fill="white" stroke="#bfbfbf" points="448,-0.5 448,-19.5 513,-19.5 513,-0.5 448,-0.5"/>
<text text-anchor="middle" x="480.5" y="-7.5" font-family="Helvetica,sans-Serif" font-size="10.00">exception</text>
</a>
</g>
</g>
<!-- Node8&#45;&gt;Node9 -->
<g id="edge8" class="edge">
<title>Node8&#45;&gt;Node9</title>
<path fill="none" stroke="midnightblue" d="M513.06,-56.08C507.55,-48.46 499.47,-37.26 492.74,-27.94"/>
<polygon fill="midnightblue" stroke="midnightblue" points="495.51,-25.81 486.82,-19.75 489.84,-29.91 495.51,-25.81"/>
</g>
<!-- Node10&#45;&gt;Node7 -->
<g id="edge12" class="edge">
<title>Node10&#45;&gt;Node7</title>
<path fill="none" stroke="midnightblue" d="M365.83,-56.08C366.09,-49.01 366.47,-38.86 366.8,-29.99"/>
<polygon fill="midnightblue" stroke="midnightblue" points="370.3,-29.87 367.18,-19.75 363.31,-29.61 370.3,-29.87"/>
</g>
<!-- Node10&#45;&gt;Node9 -->
<g id="edge11" class="edge">
<title>Node10&#45;&gt;Node9</title>
<path fill="none" stroke="midnightblue" d="M383.72,-56.44C402.4,-47.68 431.66,-33.94 453.12,-23.86"/>
<polygon fill="midnightblue" stroke="midnightblue" points="454.8,-26.93 462.36,-19.52 451.82,-20.6 454.8,-26.93"/>
</g>
</g>
</svg>
