<?xml version="1.0" encoding="UTF-8" standalone="no"?>
<!DOCTYPE svg PUBLIC "-//W3C//DTD SVG 1.1//EN"
 "http://www.w3.org/Graphics/SVG/1.1/DTD/svg11.dtd">
<!-- Generated by graphviz version 2.40.1 (20161225.0304)
 -->
<!-- Title: steppermotor/src/StepperMotorStateMachine.cc Pages: 1 -->
<svg width="1003pt" height="263pt"
 viewBox="0.00 0.00 1002.50 263.00" xmlns="http://www.w3.org/2000/svg" xmlns:xlink="http://www.w3.org/1999/xlink">
<g id="graph0" class="graph" transform="scale(1 1) rotate(0) translate(4 259)">
<title>steppermotor/src/StepperMotorStateMachine.cc</title>
<polygon fill="#ffffff" stroke="transparent" points="-4,4 -4,-259 998.5,-259 998.5,4 -4,4"/>
<!-- Node0 -->
<g id="node1" class="node">
<title>Node0</title>
<polygon fill="#bfbfbf" stroke="#000000" points="594,-224.5 594,-254.5 734,-254.5 734,-224.5 594,-224.5"/>
<text text-anchor="start" x="602" y="-242.5" font-family="Helvetica,sans-Serif" font-size="10.00" fill="#000000">steppermotor/src/Stepper</text>
<text text-anchor="middle" x="664" y="-231.5" font-family="Helvetica,sans-Serif" font-size="10.00" fill="#000000">MotorStateMachine.cc</text>
</g>
<!-- Node1 -->
<g id="node2" class="node">
<title>Node1</title>
<g id="a_node2"><a xlink:href="_basic_stepper_motor_8h.html" target="_top" xlink:title="BasicStepperMotor.h">
<polygon fill="#ffffff" stroke="#000000" points="297,-168.5 297,-187.5 413,-187.5 413,-168.5 297,-168.5"/>
<text text-anchor="middle" x="355" y="-175.5" font-family="Helvetica,sans-Serif" font-size="10.00" fill="#000000">BasicStepperMotor.h</text>
</a>
</g>
</g>
<!-- Node0&#45;&gt;Node1 -->
<g id="edge1" class="edge">
<title>Node0&#45;&gt;Node1</title>
<path fill="none" stroke="#191970" d="M593.8831,-225.5447C539.1289,-214.647 463.978,-199.6898 412.6803,-189.4801"/>
<polygon fill="#191970" stroke="#191970" points="413.2428,-186.0234 402.7519,-187.504 411.8763,-192.8888 413.2428,-186.0234"/>
</g>
<!-- Node9 -->
<g id="node10" class="node">
<title>Node9</title>
<polygon fill="#ffffff" stroke="#bfbfbf" points="683,-56.5 683,-75.5 731,-75.5 731,-56.5 683,-56.5"/>
<text text-anchor="middle" x="707" y="-63.5" font-family="Helvetica,sans-Serif" font-size="10.00" fill="#000000">thread</text>
</g>
<!-- Node0&#45;&gt;Node9 -->
<g id="edge31" class="edge">
<title>Node0&#45;&gt;Node9</title>
<path fill="none" stroke="#191970" d="M664.6414,-224.2096C666.0213,-199.8944 670.2652,-151.1603 683,-112 686.0834,-102.5183 690.9872,-92.6364 695.5607,-84.4728"/>
<polygon fill="#191970" stroke="#191970" points="698.6044,-86.2015 700.6491,-75.8058 692.5678,-82.6574 698.6044,-86.2015"/>
</g>
<!-- Node13 -->
<g id="node14" class="node">
<title>Node13</title>
<polygon fill="#ffffff" stroke="#bfbfbf" points="0,-56.5 0,-75.5 58,-75.5 58,-56.5 0,-56.5"/>
<text text-anchor="middle" x="29" y="-63.5" font-family="Helvetica,sans-Serif" font-size="10.00" fill="#000000">memory</text>
</g>
<!-- Node0&#45;&gt;Node13 -->
<g id="edge30" class="edge">
<title>Node0&#45;&gt;Node13</title>
<path fill="none" stroke="#191970" d="M593.7595,-236.3317C450.3665,-228.4433 130.8309,-203.1494 52,-132 38.9359,-120.2089 33.2922,-100.5948 30.8542,-85.806"/>
<polygon fill="#191970" stroke="#191970" points="34.2945,-85.1175 29.5448,-75.647 27.3519,-86.0124 34.2945,-85.1175"/>
</g>
<!-- Node16 -->
<g id="node17" class="node">
<title>Node16</title>
<g id="a_node17"><a xlink:href="_motor_controler_8h.html" target="_top" xlink:title="MotorControler.h">
<polygon fill="#ffffff" stroke="#000000" points="707,-168.5 707,-187.5 805,-187.5 805,-168.5 707,-168.5"/>
<text text-anchor="middle" x="756" y="-175.5" font-family="Helvetica,sans-Serif" font-size="10.00" fill="#000000">MotorControler.h</text>
</a>
</g>
</g>
<!-- Node0&#45;&gt;Node16 -->
<g id="edge22" class="edge">
<title>Node0&#45;&gt;Node16</title>
<path fill="none" stroke="#191970" d="M686.7416,-224.2977C700.7967,-214.9022 718.783,-202.8787 732.9036,-193.4395"/>
<polygon fill="#191970" stroke="#191970" points="735.1759,-196.1305 741.5444,-187.6633 731.2857,-190.311 735.1759,-196.1305"/>
</g>
<!-- Node22 -->
<g id="node23" class="node">
<title>Node22</title>
<polygon fill="#ffffff" stroke="#bfbfbf" points="823,-168.5 823,-187.5 873,-187.5 873,-168.5 823,-168.5"/>
<text text-anchor="middle" x="848" y="-175.5" font-family="Helvetica,sans-Serif" font-size="10.00" fill="#000000">chrono</text>
</g>
<!-- Node0&#45;&gt;Node22 -->
<g id="edge29" class="edge">
<title>Node0&#45;&gt;Node22</title>
<path fill="none" stroke="#191970" d="M709.0115,-224.4554C741.0842,-213.7354 783.5717,-199.5344 813.0914,-189.6678"/>
<polygon fill="#191970" stroke="#191970" points="814.579,-192.861 822.9537,-186.3714 812.36,-186.222 814.579,-192.861"/>
</g>
<!-- Node2 -->
<g id="node3" class="node">
<title>Node2</title>
<g id="a_node3"><a xlink:href="_state_machine_8h.html" target="_top" xlink:title="StateMachine.h">
<polygon fill="#ffffff" stroke="#000000" points="524,-112.5 524,-131.5 616,-131.5 616,-112.5 524,-112.5"/>
<text text-anchor="middle" x="570" y="-119.5" font-family="Helvetica,sans-Serif" font-size="10.00" fill="#000000">StateMachine.h</text>
</a>
</g>
</g>
<!-- Node1&#45;&gt;Node2 -->
<g id="edge2" class="edge">
<title>Node1&#45;&gt;Node2</title>
<path fill="none" stroke="#191970" d="M391.9598,-168.3733C428.4075,-158.8799 484.2246,-144.3415 523.6289,-134.0781"/>
<polygon fill="#191970" stroke="#191970" points="524.7276,-137.4087 533.5225,-131.5011 522.9631,-130.6348 524.7276,-137.4087"/>
</g>
<!-- Node3 -->
<g id="node4" class="node">
<title>Node3</title>
<polygon fill="#ffffff" stroke="#bfbfbf" points="387,-56.5 387,-75.5 437,-75.5 437,-56.5 387,-56.5"/>
<text text-anchor="middle" x="412" y="-63.5" font-family="Helvetica,sans-Serif" font-size="10.00" fill="#000000">atomic</text>
</g>
<!-- Node1&#45;&gt;Node3 -->
<g id="edge17" class="edge">
<title>Node1&#45;&gt;Node3</title>
<path fill="none" stroke="#191970" d="M393.5713,-168.4404C425.195,-159.7303 466.2711,-146.1067 476,-132 489.6189,-112.2527 465.1884,-92.9441 442.6908,-80.3652"/>
<polygon fill="#191970" stroke="#191970" points="444.0833,-77.1425 433.6064,-75.5657 440.8132,-83.3318 444.0833,-77.1425"/>
</g>
<!-- Node8 -->
<g id="node9" class="node">
<title>Node8</title>
<polygon fill="#ffffff" stroke="#bfbfbf" points="202,-56.5 202,-75.5 246,-75.5 246,-56.5 202,-56.5"/>
<text text-anchor="middle" x="224" y="-63.5" font-family="Helvetica,sans-Serif" font-size="10.00" fill="#000000">string</text>
</g>
<!-- Node1&#45;&gt;Node8 -->
<g id="edge21" class="edge">
<title>Node1&#45;&gt;Node8</title>
<path fill="none" stroke="#191970" d="M310.5984,-168.4639C276.1736,-160.0647 232.5953,-146.8756 222,-132 212.4606,-118.6069 214.239,-99.5022 217.6472,-85.2909"/>
<polygon fill="#191970" stroke="#191970" points="221.0476,-86.1287 220.4107,-75.553 214.3135,-84.2176 221.0476,-86.1287"/>
</g>
<!-- Node11 -->
<g id="node12" class="node">
<title>Node11</title>
<g id="a_node12"><a xlink:href="steppermotor_2include_2_stepper_motor_8h.html" target="_top" xlink:title="StepperMotor.h">
<polygon fill="#ffffff" stroke="#000000" points="85,-112.5 85,-131.5 175,-131.5 175,-112.5 85,-112.5"/>
<text text-anchor="middle" x="130" y="-119.5" font-family="Helvetica,sans-Serif" font-size="10.00" fill="#000000">StepperMotor.h</text>
</a>
</g>
</g>
<!-- Node1&#45;&gt;Node11 -->
<g id="edge11" class="edge">
<title>Node1&#45;&gt;Node11</title>
<path fill="none" stroke="#191970" d="M316.5768,-168.4369C278.3125,-158.9133 219.4663,-144.2672 178.1151,-133.9753"/>
<polygon fill="#191970" stroke="#191970" points="178.8141,-130.5426 168.2647,-131.5237 177.1234,-137.3353 178.8141,-130.5426"/>
</g>
<!-- Node1&#45;&gt;Node13 -->
<g id="edge20" class="edge">
<title>Node1&#45;&gt;Node13</title>
<path fill="none" stroke="#191970" d="M296.7824,-173.6629C226.1143,-167.504 111.9257,-154.4083 76,-132 58.1809,-120.8855 45.1604,-100.2874 37.402,-85.0473"/>
<polygon fill="#191970" stroke="#191970" points="40.5312,-83.4778 33.066,-75.9597 34.2135,-86.4922 40.5312,-83.4778"/>
</g>
<!-- Node14 -->
<g id="node15" class="node">
<title>Node14</title>
<polygon fill="#ffffff" stroke="#bfbfbf" points="231.5,-112.5 231.5,-131.5 350.5,-131.5 350.5,-112.5 231.5,-112.5"/>
<text text-anchor="middle" x="291" y="-119.5" font-family="Helvetica,sans-Serif" font-size="10.00" fill="#000000">boost/shared_ptr.hpp</text>
</g>
<!-- Node1&#45;&gt;Node14 -->
<g id="edge18" class="edge">
<title>Node1&#45;&gt;Node14</title>
<path fill="none" stroke="#191970" d="M343.8521,-168.2455C334.4913,-160.0549 320.9142,-148.1749 309.8651,-138.5069"/>
<polygon fill="#191970" stroke="#191970" points="311.8508,-135.5937 302.0202,-131.6427 307.2412,-140.8618 311.8508,-135.5937"/>
</g>
<!-- Node15 -->
<g id="node16" class="node">
<title>Node15</title>
<polygon fill="#ffffff" stroke="#bfbfbf" points="368.5,-112.5 368.5,-131.5 467.5,-131.5 467.5,-112.5 368.5,-112.5"/>
<text text-anchor="middle" x="418" y="-119.5" font-family="Helvetica,sans-Serif" font-size="10.00" fill="#000000">boost/thread.hpp</text>
</g>
<!-- Node1&#45;&gt;Node15 -->
<g id="edge19" class="edge">
<title>Node1&#45;&gt;Node15</title>
<path fill="none" stroke="#191970" d="M365.9738,-168.2455C375.1882,-160.0549 388.5532,-148.1749 399.4297,-138.5069"/>
<polygon fill="#191970" stroke="#191970" points="402.0032,-140.9023 407.152,-131.6427 397.3526,-135.6704 402.0032,-140.9023"/>
</g>
<!-- Node2&#45;&gt;Node3 -->
<g id="edge3" class="edge">
<title>Node2&#45;&gt;Node3</title>
<path fill="none" stroke="#191970" d="M542.8388,-112.3733C516.3197,-102.9741 475.8474,-88.6295 446.9428,-78.3848"/>
<polygon fill="#191970" stroke="#191970" points="447.8378,-74.9887 437.2431,-74.9469 445.4993,-81.5866 447.8378,-74.9887"/>
</g>
<!-- Node4 -->
<g id="node5" class="node">
<title>Node4</title>
<polygon fill="#ffffff" stroke="#bfbfbf" points="455.5,-56.5 455.5,-75.5 520.5,-75.5 520.5,-56.5 455.5,-56.5"/>
<text text-anchor="middle" x="488" y="-63.5" font-family="Helvetica,sans-Serif" font-size="10.00" fill="#000000">functional</text>
</g>
<!-- Node2&#45;&gt;Node4 -->
<g id="edge4" class="edge">
<title>Node2&#45;&gt;Node4</title>
<path fill="none" stroke="#191970" d="M555.7167,-112.2455C543.253,-103.7337 524.9549,-91.2375 510.5208,-81.3801"/>
<polygon fill="#191970" stroke="#191970" points="512.3515,-78.392 502.1196,-75.6427 508.4038,-84.1726 512.3515,-78.392"/>
</g>
<!-- Node5 -->
<g id="node6" class="node">
<title>Node5</title>
<polygon fill="#ffffff" stroke="#bfbfbf" points="539,-56.5 539,-75.5 599,-75.5 599,-56.5 539,-56.5"/>
<text text-anchor="middle" x="569" y="-63.5" font-family="Helvetica,sans-Serif" font-size="10.00" fill="#000000">iostream</text>
</g>
<!-- Node2&#45;&gt;Node5 -->
<g id="edge5" class="edge">
<title>Node2&#45;&gt;Node5</title>
<path fill="none" stroke="#191970" d="M569.8258,-112.2455C569.6953,-104.9382 569.5124,-94.6944 569.3519,-85.7046"/>
<polygon fill="#191970" stroke="#191970" points="572.8503,-85.5786 569.1722,-75.6427 565.8514,-85.7036 572.8503,-85.5786"/>
</g>
<!-- Node6 -->
<g id="node7" class="node">
<title>Node6</title>
<polygon fill="#ffffff" stroke="#bfbfbf" points="331,-56.5 331,-75.5 369,-75.5 369,-56.5 331,-56.5"/>
<text text-anchor="middle" x="350" y="-63.5" font-family="Helvetica,sans-Serif" font-size="10.00" fill="#000000">map</text>
</g>
<!-- Node2&#45;&gt;Node6 -->
<g id="edge6" class="edge">
<title>Node2&#45;&gt;Node6</title>
<path fill="none" stroke="#191970" d="M524.2445,-112.4948C487.3288,-104.4994 433.9188,-92.1987 379.0797,-76.1015"/>
<polygon fill="#191970" stroke="#191970" points="379.7724,-72.6561 369.1896,-73.161 377.7775,-79.3658 379.7724,-72.6561"/>
</g>
<!-- Node7 -->
<g id="node8" class="node">
<title>Node7</title>
<polygon fill="#ffffff" stroke="#bfbfbf" points="265,-56.5 265,-75.5 313,-75.5 313,-56.5 265,-56.5"/>
<text text-anchor="middle" x="289" y="-63.5" font-family="Helvetica,sans-Serif" font-size="10.00" fill="#000000">mutex</text>
</g>
<!-- Node2&#45;&gt;Node7 -->
<g id="edge7" class="edge">
<title>Node2&#45;&gt;Node7</title>
<path fill="none" stroke="#191970" d="M523.9685,-115.0294C476.0817,-107.4299 398.7781,-94.1886 323.2284,-76.0955"/>
<polygon fill="#191970" stroke="#191970" points="323.6091,-72.5863 313.0657,-73.6292 321.9582,-79.3889 323.6091,-72.5863"/>
</g>
<!-- Node2&#45;&gt;Node8 -->
<g id="edge8" class="edge">
<title>Node2&#45;&gt;Node8</title>
<path fill="none" stroke="#191970" d="M523.9133,-116.1565C449.4635,-106.5637 306.0241,-87.4058 256,-76 255.9007,-75.9774 255.8012,-75.9546 255.7017,-75.9316"/>
<polygon fill="#191970" stroke="#191970" points="256.8187,-72.6064 246.2572,-73.447 255.0377,-79.3761 256.8187,-72.6064"/>
</g>
<!-- Node2&#45;&gt;Node9 -->
<g id="edge9" class="edge">
<title>Node2&#45;&gt;Node9</title>
<path fill="none" stroke="#191970" d="M593.5511,-112.3733C615.8391,-103.2629 649.4937,-89.5062 674.3637,-79.3404"/>
<polygon fill="#191970" stroke="#191970" points="675.8239,-82.5247 683.7562,-75.5011 673.1753,-76.0451 675.8239,-82.5247"/>
</g>
<!-- Node10 -->
<g id="node11" class="node">
<title>Node10</title>
<polygon fill="#ffffff" stroke="#bfbfbf" points="617.5,-56.5 617.5,-75.5 664.5,-75.5 664.5,-56.5 617.5,-56.5"/>
<text text-anchor="middle" x="641" y="-63.5" font-family="Helvetica,sans-Serif" font-size="10.00" fill="#000000">vector</text>
</g>
<!-- Node2&#45;&gt;Node10 -->
<g id="edge10" class="edge">
<title>Node2&#45;&gt;Node10</title>
<path fill="none" stroke="#191970" d="M582.3673,-112.2455C592.9554,-103.8943 608.4064,-91.7076 620.7893,-81.9408"/>
<polygon fill="#191970" stroke="#191970" points="623.0903,-84.5837 628.7745,-75.6427 618.7553,-79.0875 623.0903,-84.5837"/>
</g>
<!-- Node11&#45;&gt;Node6 -->
<g id="edge13" class="edge">
<title>Node11&#45;&gt;Node6</title>
<path fill="none" stroke="#191970" d="M175.3661,-112.5791C212.2876,-104.5876 265.8928,-92.2519 320.8919,-76.1097"/>
<polygon fill="#191970" stroke="#191970" points="322.2224,-79.3656 330.8104,-73.161 320.2276,-72.6558 322.2224,-79.3656"/>
</g>
<!-- Node11&#45;&gt;Node7 -->
<g id="edge15" class="edge">
<title>Node11&#45;&gt;Node7</title>
<path fill="none" stroke="#191970" d="M157.3331,-112.3733C184.4171,-102.8342 225.9637,-88.2015 255.1268,-77.9302"/>
<polygon fill="#191970" stroke="#191970" points="256.6123,-81.1178 264.8817,-74.4945 254.2869,-74.5153 256.6123,-81.1178"/>
</g>
<!-- Node11&#45;&gt;Node8 -->
<g id="edge16" class="edge">
<title>Node11&#45;&gt;Node8</title>
<path fill="none" stroke="#191970" d="M146.3736,-112.2455C160.9308,-103.5731 182.431,-90.7645 199.1152,-80.825"/>
<polygon fill="#191970" stroke="#191970" points="201.0144,-83.7676 207.8141,-75.6427 197.4317,-77.7539 201.0144,-83.7676"/>
</g>
<!-- Node12 -->
<g id="node13" class="node">
<title>Node12</title>
<g id="a_node13"><a xlink:href="_stepper_motor_util_8h.html" target="_top" xlink:title="StepperMotorUtil.h">
<polygon fill="#ffffff" stroke="#000000" points="76,-56.5 76,-75.5 184,-75.5 184,-56.5 76,-56.5"/>
<text text-anchor="middle" x="130" y="-63.5" font-family="Helvetica,sans-Serif" font-size="10.00" fill="#000000">StepperMotorUtil.h</text>
</a>
</g>
</g>
<!-- Node11&#45;&gt;Node12 -->
<g id="edge12" class="edge">
<title>Node11&#45;&gt;Node12</title>
<path fill="none" stroke="#191970" d="M130,-112.2455C130,-104.9382 130,-94.6944 130,-85.7046"/>
<polygon fill="#191970" stroke="#191970" points="133.5001,-85.6426 130,-75.6427 126.5001,-85.6427 133.5001,-85.6426"/>
</g>
<!-- Node11&#45;&gt;Node13 -->
<g id="edge14" class="edge">
<title>Node11&#45;&gt;Node13</title>
<path fill="none" stroke="#191970" d="M112.4071,-112.2455C96.621,-103.4928 73.2361,-90.527 55.2413,-80.5496"/>
<polygon fill="#191970" stroke="#191970" points="56.8341,-77.4308 46.3913,-75.6427 53.4397,-83.5528 56.8341,-77.4308"/>
</g>
<!-- Node17 -->
<g id="node18" class="node">
<title>Node17</title>
<g id="a_node18"><a xlink:href="_motor_reference_switch_data_8h.html" target="_top" xlink:title="MotorReferenceSwitchData.h">
<polygon fill="#ffffff" stroke="#000000" points="692,-112.5 692,-131.5 850,-131.5 850,-112.5 692,-112.5"/>
<text text-anchor="middle" x="771" y="-119.5" font-family="Helvetica,sans-Serif" font-size="10.00" fill="#000000">MotorReferenceSwitchData.h</text>
</a>
</g>
</g>
<!-- Node16&#45;&gt;Node17 -->
<g id="edge23" class="edge">
<title>Node16&#45;&gt;Node17</title>
<path fill="none" stroke="#191970" d="M758.6128,-168.2455C760.5916,-160.8579 763.3744,-150.4689 765.8012,-141.4087"/>
<polygon fill="#191970" stroke="#191970" points="769.2105,-142.2078 768.4171,-131.6427 762.4489,-140.3966 769.2105,-142.2078"/>
</g>
<!-- Node19 -->
<g id="node20" class="node">
<title>Node19</title>
<g id="a_node20"><a xlink:href="_t_m_c260_words_8h.html" target="_top" xlink:title="TMC260Words.h">
<polygon fill="#ffffff" stroke="#000000" points="868.5,-112.5 868.5,-131.5 963.5,-131.5 963.5,-112.5 868.5,-112.5"/>
<text text-anchor="middle" x="916" y="-119.5" font-family="Helvetica,sans-Serif" font-size="10.00" fill="#000000">TMC260Words.h</text>
</a>
</g>
</g>
<!-- Node16&#45;&gt;Node19 -->
<g id="edge25" class="edge">
<title>Node16&#45;&gt;Node19</title>
<path fill="none" stroke="#191970" d="M783.505,-168.3733C809.8802,-159.1419 849.8851,-145.1402 879.0358,-134.9375"/>
<polygon fill="#191970" stroke="#191970" points="880.5716,-138.1082 888.8539,-131.5011 878.2591,-131.5012 880.5716,-138.1082"/>
</g>
<!-- Node18 -->
<g id="node19" class="node">
<title>Node18</title>
<g id="a_node19"><a xlink:href="_multi_variable_word_8h.html" target="_top" xlink:title="MultiVariableWord.h">
<polygon fill="#ffffff" stroke="#000000" points="749,-56.5 749,-75.5 863,-75.5 863,-56.5 749,-56.5"/>
<text text-anchor="middle" x="806" y="-63.5" font-family="Helvetica,sans-Serif" font-size="10.00" fill="#000000">MultiVariableWord.h</text>
</a>
</g>
</g>
<!-- Node17&#45;&gt;Node18 -->
<g id="edge24" class="edge">
<title>Node17&#45;&gt;Node18</title>
<path fill="none" stroke="#191970" d="M777.0965,-112.2455C781.9145,-104.5367 788.7751,-93.5598 794.6032,-84.2348"/>
<polygon fill="#191970" stroke="#191970" points="797.6413,-85.9777 799.9733,-75.6427 791.7053,-82.2677 797.6413,-85.9777"/>
</g>
<!-- Node19&#45;&gt;Node18 -->
<g id="edge26" class="edge">
<title>Node19&#45;&gt;Node18</title>
<path fill="none" stroke="#191970" d="M896.8395,-112.2455C879.4889,-103.4125 853.7099,-90.2887 834.0417,-80.2758"/>
<polygon fill="#191970" stroke="#191970" points="835.4405,-77.0605 824.941,-75.6427 832.2647,-83.2986 835.4405,-77.0605"/>
</g>
<!-- Node20 -->
<g id="node21" class="node">
<title>Node20</title>
<g id="a_node21"><a xlink:href="_t_m_c260_constants_8h.html" target="_top" xlink:title="TMC260Constants.h">
<polygon fill="#ffffff" stroke="#000000" points="881.5,-56.5 881.5,-75.5 994.5,-75.5 994.5,-56.5 881.5,-56.5"/>
<text text-anchor="middle" x="938" y="-63.5" font-family="Helvetica,sans-Serif" font-size="10.00" fill="#000000">TMC260Constants.h</text>
</a>
</g>
</g>
<!-- Node19&#45;&gt;Node20 -->
<g id="edge27" class="edge">
<title>Node19&#45;&gt;Node20</title>
<path fill="none" stroke="#191970" d="M919.8321,-112.2455C922.7659,-104.7776 926.9047,-94.2427 930.491,-85.1137"/>
<polygon fill="#191970" stroke="#191970" points="933.8129,-86.23 934.2118,-75.6427 927.2976,-83.6704 933.8129,-86.23"/>
</g>
<!-- Node21 -->
<g id="node22" class="node">
<title>Node21</title>
<polygon fill="#ffffff" stroke="#bfbfbf" points="911.5,-.5 911.5,-19.5 964.5,-19.5 964.5,-.5 911.5,-.5"/>
<text text-anchor="middle" x="938" y="-7.5" font-family="Helvetica,sans-Serif" font-size="10.00" fill="#000000">stdint.h</text>
</g>
<!-- Node20&#45;&gt;Node21 -->
<g id="edge28" class="edge">
<title>Node20&#45;&gt;Node21</title>
<path fill="none" stroke="#191970" d="M938,-56.2455C938,-48.9382 938,-38.6944 938,-29.7046"/>
<polygon fill="#191970" stroke="#191970" points="941.5001,-29.6426 938,-19.6427 934.5001,-29.6427 941.5001,-29.6426"/>
</g>
</g>
</svg>
