<?xml version="1.0" encoding="UTF-8" standalone="no"?>
<!DOCTYPE svg PUBLIC "-//W3C//DTD SVG 1.1//EN"
 "http://www.w3.org/Graphics/SVG/1.1/DTD/svg11.dtd">
<!-- Generated by graphviz version 2.43.0 (0)
 -->
<!-- Title: ChimeraTK::MotorDriver::LinearStepperMotor::setActualPositionInSteps Pages: 1 -->
<svg width="558pt" height="110pt"
 viewBox="0.00 0.00 558.00 110.00" xmlns="http://www.w3.org/2000/svg" xmlns:xlink="http://www.w3.org/1999/xlink">
<g id="graph0" class="graph" transform="scale(1 1) rotate(0) translate(4 106)">
<title>ChimeraTK::MotorDriver::LinearStepperMotor::setActualPositionInSteps</title>
<polygon fill="white" stroke="transparent" points="-4,4 -4,-106 554,-106 554,4 -4,4"/>
<!-- Node1 -->
<g id="node1" class="node">
<title>Node1</title>
<g id="a_node1"><a xlink:title="Simple calibration of the linear stage by defining the actual position in steps.">
<polygon fill="#bfbfbf" stroke="black" points="0,-30.5 0,-71.5 137,-71.5 137,-30.5 0,-30.5"/>
<text text-anchor="start" x="8" y="-59.5" font-family="Helvetica,sans-Serif" font-size="10.00">ChimeraTK::MotorDriver</text>
<text text-anchor="start" x="8" y="-48.5" font-family="Helvetica,sans-Serif" font-size="10.00">::LinearStepperMotor::</text>
<text text-anchor="middle" x="68.5" y="-37.5" font-family="Helvetica,sans-Serif" font-size="10.00">setActualPositionInSteps</text>
</a>
</g>
</g>
<!-- Node2 -->
<g id="node2" class="node">
<title>Node2</title>
<g id="a_node2"><a xlink:href="class_chimera_t_k_1_1_motor_driver_1_1_linear_stepper_motor.html#ad58c11de4025eb5e34eaccab0af1431d" target="_top" xlink:title="Returns true if the motor is not active, i.e.">
<polygon fill="white" stroke="black" points="189,-60.5 189,-101.5 324,-101.5 324,-60.5 189,-60.5"/>
<text text-anchor="start" x="197" y="-89.5" font-family="Helvetica,sans-Serif" font-size="10.00">ChimeraTK::MotorDriver</text>
<text text-anchor="start" x="197" y="-78.5" font-family="Helvetica,sans-Serif" font-size="10.00">::LinearStepperMotor::</text>
<text text-anchor="middle" x="256.5" y="-67.5" font-family="Helvetica,sans-Serif" font-size="10.00">motorActive</text>
</a>
</g>
</g>
<!-- Node1&#45;&gt;Node2 -->
<g id="edge1" class="edge">
<title>Node1&#45;&gt;Node2</title>
<path fill="none" stroke="midnightblue" d="M137.18,-61.92C150.72,-64.1 165.03,-66.41 178.85,-68.64"/>
<polygon fill="midnightblue" stroke="midnightblue" points="178.38,-72.11 188.81,-70.24 179.49,-65.2 178.38,-72.11"/>
</g>
<!-- Node3 -->
<g id="node3" class="node">
<title>Node3</title>
<g id="a_node3"><a xlink:href="class_chimera_t_k_1_1_motor_driver_1_1_basic_stepper_motor.html#a0af82d152bb50f81710ce55083792cbd" target="_top" xlink:title="Common actions for setActualPosition for this and derived classes.">
<polygon fill="white" stroke="black" points="173,-0.5 173,-41.5 340,-41.5 340,-0.5 173,-0.5"/>
<text text-anchor="start" x="181" y="-29.5" font-family="Helvetica,sans-Serif" font-size="10.00">ChimeraTK::MotorDriver</text>
<text text-anchor="start" x="181" y="-18.5" font-family="Helvetica,sans-Serif" font-size="10.00">::BasicStepperMotor::setActual</text>
<text text-anchor="middle" x="256.5" y="-7.5" font-family="Helvetica,sans-Serif" font-size="10.00">PositionActions</text>
</a>
</g>
</g>
<!-- Node1&#45;&gt;Node3 -->
<g id="edge2" class="edge">
<title>Node1&#45;&gt;Node3</title>
<path fill="none" stroke="midnightblue" d="M137.18,-40.08C145.54,-38.74 154.2,-37.34 162.85,-35.94"/>
<polygon fill="midnightblue" stroke="midnightblue" points="163.67,-39.36 172.99,-34.31 162.56,-32.45 163.67,-39.36"/>
</g>
<!-- Node4 -->
<g id="node4" class="node">
<title>Node4</title>
<g id="a_node4"><a xlink:href="class_chimera_t_k_1_1_motor_driver_1_1_basic_stepper_motor.html#aaa0689df9c3ec7257b749563a49e93c9" target="_top" xlink:title="Resets target and actual postions of the MotorControler.">
<polygon fill="white" stroke="black" points="376,-0.5 376,-41.5 550,-41.5 550,-0.5 376,-0.5"/>
<text text-anchor="start" x="384" y="-29.5" font-family="Helvetica,sans-Serif" font-size="10.00">ChimeraTK::MotorDriver</text>
<text text-anchor="start" x="384" y="-18.5" font-family="Helvetica,sans-Serif" font-size="10.00">::BasicStepperMotor::resetMotor</text>
<text text-anchor="middle" x="463" y="-7.5" font-family="Helvetica,sans-Serif" font-size="10.00">ControllerPositions</text>
</a>
</g>
</g>
<!-- Node3&#45;&gt;Node4 -->
<g id="edge3" class="edge">
<title>Node3&#45;&gt;Node4</title>
<path fill="none" stroke="midnightblue" d="M340.09,-21C348.53,-21 357.17,-21 365.74,-21"/>
<polygon fill="midnightblue" stroke="midnightblue" points="365.77,-24.5 375.77,-21 365.77,-17.5 365.77,-24.5"/>
</g>
</g>
</svg>
