<?xml version="1.0" encoding="UTF-8" standalone="no"?>
<!DOCTYPE svg PUBLIC "-//W3C//DTD SVG 1.1//EN"
 "http://www.w3.org/Graphics/SVG/1.1/DTD/svg11.dtd">
<!-- Generated by graphviz version 2.40.1 (20161225.0304)
 -->
<!-- Title: mtca4u::MotorReferenceSwitchData::getPositiveSwitchEnabled Pages: 1 -->
<svg width="370pt" height="39pt"
 viewBox="0.00 0.00 370.00 39.00" xmlns="http://www.w3.org/2000/svg" xmlns:xlink="http://www.w3.org/1999/xlink">
<g id="graph0" class="graph" transform="scale(1 1) rotate(0) translate(4 35)">
<title>mtca4u::MotorReferenceSwitchData::getPositiveSwitchEnabled</title>
<polygon fill="#ffffff" stroke="transparent" points="-4,4 -4,-35 366,-35 366,4 -4,4"/>
<!-- Node12 -->
<g id="node1" class="node">
<title>Node12</title>
<polygon fill="#bfbfbf" stroke="#000000" points="0,-.5 0,-30.5 172,-30.5 172,-.5 0,-.5"/>
<text text-anchor="start" x="8" y="-18.5" font-family="Helvetica,sans-Serif" font-size="10.00" fill="#000000">mtca4u::MotorReferenceSwitch</text>
<text text-anchor="middle" x="86" y="-7.5" font-family="Helvetica,sans-Serif" font-size="10.00" fill="#000000">Data::getPositiveSwitchEnabled</text>
</g>
<!-- Node13 -->
<g id="node2" class="node">
<title>Node13</title>
<g id="a_node2"><a xlink:href="classmtca4u_1_1_motor_controler_impl.html#af54e43e269debc45741787fa63c13828" target="_top" xlink:title="Returns True if the motor is in motion or False if at standstill. ">
<polygon fill="#ffffff" stroke="#000000" points="208,-.5 208,-30.5 362,-30.5 362,-.5 208,-.5"/>
<text text-anchor="start" x="216" y="-18.5" font-family="Helvetica,sans-Serif" font-size="10.00" fill="#000000">mtca4u::MotorControlerImpl</text>
<text text-anchor="middle" x="285" y="-7.5" font-family="Helvetica,sans-Serif" font-size="10.00" fill="#000000">::isMotorMoving</text>
</a>
</g>
</g>
<!-- Node12&#45;&gt;Node13 -->
<g id="edge1" class="edge">
<title>Node12&#45;&gt;Node13</title>
<path fill="none" stroke="#191970" d="M182.1881,-15.5C190.7847,-15.5 199.4144,-15.5 207.82,-15.5"/>
<polygon fill="#191970" stroke="#191970" points="182.1269,-12.0001 172.1269,-15.5 182.1269,-19.0001 182.1269,-12.0001"/>
</g>
</g>
</svg>
