<?xml version="1.0" encoding="UTF-8" standalone="no"?>
<!DOCTYPE svg PUBLIC "-//W3C//DTD SVG 1.1//EN"
 "http://www.w3.org/Graphics/SVG/1.1/DTD/svg11.dtd">
<!-- Generated by graphviz version 2.43.0 (0)
 -->
<!-- Title: DerivedStateMachine::actionIdleToFirstState Pages: 1 -->
<svg width="486pt" height="110pt"
 viewBox="0.00 0.00 486.00 110.00" xmlns="http://www.w3.org/2000/svg" xmlns:xlink="http://www.w3.org/1999/xlink">
<g id="graph0" class="graph" transform="scale(1 1) rotate(0) translate(4 106)">
<title>DerivedStateMachine::actionIdleToFirstState</title>
<polygon fill="white" stroke="transparent" points="-4,4 -4,-106 482,-106 482,4 -4,4"/>
<!-- Node1 -->
<g id="node1" class="node">
<title>Node1</title>
<g id="a_node1"><a xlink:title=" ">
<polygon fill="#bfbfbf" stroke="black" points="0,-36 0,-66 128,-66 128,-36 0,-36"/>
<text text-anchor="start" x="8" y="-54" font-family="Helvetica,sans-Serif" font-size="10.00">DerivedStateMachine</text>
<text text-anchor="middle" x="64" y="-43" font-family="Helvetica,sans-Serif" font-size="10.00">::actionIdleToFirstState</text>
</a>
</g>
</g>
<!-- Node2 -->
<g id="node2" class="node">
<title>Node2</title>
<g id="a_node2"><a xlink:href="class_chimera_t_k_1_1_motor_driver_1_1utility_1_1_state_machine.html#add8fc02a17647ecb68e0d1a4fb3b01be" target="_top" xlink:title=" ">
<polygon fill="white" stroke="black" points="164,-30.5 164,-71.5 299,-71.5 299,-30.5 164,-30.5"/>
<text text-anchor="start" x="172" y="-59.5" font-family="Helvetica,sans-Serif" font-size="10.00">ChimeraTK::MotorDriver</text>
<text text-anchor="start" x="172" y="-48.5" font-family="Helvetica,sans-Serif" font-size="10.00">::utility::StateMachine</text>
<text text-anchor="middle" x="231.5" y="-37.5" font-family="Helvetica,sans-Serif" font-size="10.00">::performTransition</text>
</a>
</g>
</g>
<!-- Node1&#45;&gt;Node2 -->
<g id="edge1" class="edge">
<title>Node1&#45;&gt;Node2</title>
<path fill="none" stroke="midnightblue" d="M128.04,-51C136.44,-51 145.14,-51 153.74,-51"/>
<polygon fill="midnightblue" stroke="midnightblue" points="153.78,-54.5 163.78,-51 153.78,-47.5 153.78,-54.5"/>
</g>
<!-- Node3 -->
<g id="node3" class="node">
<title>Node3</title>
<g id="a_node3"><a xlink:href="class_chimera_t_k_1_1_motor_driver_1_1utility_1_1_state_machine_1_1_state.html#a7afb1c83674efaf220caa9f1890ae1ea" target="_top" xlink:title=" ">
<polygon fill="white" stroke="black" points="335,-60.5 335,-101.5 478,-101.5 478,-60.5 335,-60.5"/>
<text text-anchor="start" x="343" y="-89.5" font-family="Helvetica,sans-Serif" font-size="10.00">ChimeraTK::MotorDriver</text>
<text text-anchor="start" x="343" y="-78.5" font-family="Helvetica,sans-Serif" font-size="10.00">::utility::StateMachine</text>
<text text-anchor="middle" x="406.5" y="-67.5" font-family="Helvetica,sans-Serif" font-size="10.00">::State::getTransitionTable</text>
</a>
</g>
</g>
<!-- Node2&#45;&gt;Node3 -->
<g id="edge2" class="edge">
<title>Node2&#45;&gt;Node3</title>
<path fill="none" stroke="midnightblue" d="M299.39,-62.6C307.72,-64.04 316.32,-65.53 324.84,-67.01"/>
<polygon fill="midnightblue" stroke="midnightblue" points="324.33,-70.48 334.78,-68.74 325.53,-63.58 324.33,-70.48"/>
</g>
<!-- Node4 -->
<g id="node4" class="node">
<title>Node4</title>
<g id="a_node4"><a xlink:href="class_chimera_t_k_1_1_motor_driver_1_1utility_1_1_state_machine.html#a23561311d70598fc9dbc4ab5a3fc0263" target="_top" xlink:title=" ">
<polygon fill="white" stroke="black" points="337.5,-0.5 337.5,-41.5 475.5,-41.5 475.5,-0.5 337.5,-0.5"/>
<text text-anchor="start" x="345.5" y="-29.5" font-family="Helvetica,sans-Serif" font-size="10.00">ChimeraTK::MotorDriver</text>
<text text-anchor="start" x="345.5" y="-18.5" font-family="Helvetica,sans-Serif" font-size="10.00">::utility::StateMachine</text>
<text text-anchor="middle" x="406.5" y="-7.5" font-family="Helvetica,sans-Serif" font-size="10.00">::moveToRequestedState</text>
</a>
</g>
</g>
<!-- Node2&#45;&gt;Node4 -->
<g id="edge3" class="edge">
<title>Node2&#45;&gt;Node4</title>
<path fill="none" stroke="midnightblue" d="M299.39,-39.4C308.53,-37.81 317.99,-36.18 327.32,-34.56"/>
<polygon fill="midnightblue" stroke="midnightblue" points="328.11,-37.97 337.36,-32.82 326.91,-31.08 328.11,-37.97"/>
</g>
</g>
</svg>
