<?xml version="1.0" encoding="UTF-8" standalone="no"?>
<!DOCTYPE svg PUBLIC "-//W3C//DTD SVG 1.1//EN"
 "http://www.w3.org/Graphics/SVG/1.1/DTD/svg11.dtd">
<!-- Generated by graphviz version 2.40.1 (20161225.0304)
 -->
<!-- Title: mtca4u::MotorControlerImpl::getReferenceSwitchBit Pages: 1 -->
<svg width="543pt" height="100pt"
 viewBox="0.00 0.00 543.00 99.50" xmlns="http://www.w3.org/2000/svg" xmlns:xlink="http://www.w3.org/1999/xlink">
<g id="graph0" class="graph" transform="scale(1 1) rotate(0) translate(4 95.5)">
<title>mtca4u::MotorControlerImpl::getReferenceSwitchBit</title>
<polygon fill="#ffffff" stroke="transparent" points="-4,4 -4,-95.5 539,-95.5 539,4 -4,4"/>
<!-- Node63 -->
<g id="node1" class="node">
<title>Node63</title>
<polygon fill="#bfbfbf" stroke="#000000" points="0,-33 0,-63 154,-63 154,-33 0,-33"/>
<text text-anchor="start" x="8" y="-51" font-family="Helvetica,sans-Serif" font-size="10.00" fill="#000000">mtca4u::MotorControlerImpl</text>
<text text-anchor="middle" x="77" y="-40" font-family="Helvetica,sans-Serif" font-size="10.00" fill="#000000">::getReferenceSwitchBit</text>
</g>
<!-- Node64 -->
<g id="node2" class="node">
<title>Node64</title>
<g id="a_node2"><a xlink:href="classmtca4u_1_1_t_m_c429_status_word.html#a2fffe7098156bb5513fad655d3646b1b" target="_top" xlink:title="Convenience function to avoid switch statements on the motor ID. ">
<polygon fill="#ffffff" stroke="#000000" points="193.5,-61 193.5,-91 347.5,-91 347.5,-61 193.5,-61"/>
<text text-anchor="start" x="201.5" y="-79" font-family="Helvetica,sans-Serif" font-size="10.00" fill="#000000">mtca4u::TMC429StatusWord</text>
<text text-anchor="middle" x="270.5" y="-68" font-family="Helvetica,sans-Serif" font-size="10.00" fill="#000000">::getReferenceSwitchBit</text>
</a>
</g>
</g>
<!-- Node63&#45;&gt;Node64 -->
<g id="edge1" class="edge">
<title>Node63&#45;&gt;Node64</title>
<path fill="none" stroke="#191970" d="M154.0323,-59.1468C163.6535,-60.539 173.5463,-61.9705 183.3081,-63.3831"/>
<polygon fill="#191970" stroke="#191970" points="183.0184,-66.8775 193.4166,-64.8458 184.021,-59.9497 183.0184,-66.8775"/>
</g>
<!-- Node66 -->
<g id="node4" class="node">
<title>Node66</title>
<g id="a_node4"><a xlink:href="classmtca4u_1_1_dividers_and_micro_step_resolution_data.html#a424aeee1c9141aef8503aca8e228f459" target="_top" xlink:title="mtca4u::DividersAndMicro\lStepResolutionData::getPulse\lDivider">
<polygon fill="#ffffff" stroke="#000000" points="190,-.5 190,-41.5 351,-41.5 351,-.5 190,-.5"/>
<text text-anchor="start" x="198" y="-29.5" font-family="Helvetica,sans-Serif" font-size="10.00" fill="#000000">mtca4u::DividersAndMicro</text>
<text text-anchor="start" x="198" y="-18.5" font-family="Helvetica,sans-Serif" font-size="10.00" fill="#000000">StepResolutionData::getPulse</text>
<text text-anchor="middle" x="270.5" y="-7.5" font-family="Helvetica,sans-Serif" font-size="10.00" fill="#000000">Divider</text>
</a>
</g>
</g>
<!-- Node63&#45;&gt;Node66 -->
<g id="edge3" class="edge">
<title>Node63&#45;&gt;Node66</title>
<path fill="none" stroke="#191970" d="M154.0323,-37.2513C162.5164,-36.0675 171.2118,-34.8542 179.8422,-33.6499"/>
<polygon fill="#191970" stroke="#191970" points="180.5069,-37.0912 189.9272,-32.2427 179.5395,-30.1583 180.5069,-37.0912"/>
</g>
<!-- Node65 -->
<g id="node3" class="node">
<title>Node65</title>
<g id="a_node3"><a xlink:href="classmtca4u_1_1_multi_variable_word.html#a50597aba3dc5fe3c639006e0dfa17de2" target="_top" xlink:title="Get the encoded 32 bit data word. ">
<polygon fill="#ffffff" stroke="#000000" points="387,-61 387,-91 535,-91 535,-61 387,-61"/>
<text text-anchor="start" x="395" y="-79" font-family="Helvetica,sans-Serif" font-size="10.00" fill="#000000">mtca4u::MultiVariableWord</text>
<text text-anchor="middle" x="461" y="-68" font-family="Helvetica,sans-Serif" font-size="10.00" fill="#000000">::getDataWord</text>
</a>
</g>
</g>
<!-- Node64&#45;&gt;Node65 -->
<g id="edge2" class="edge">
<title>Node64&#45;&gt;Node65</title>
<path fill="none" stroke="#191970" d="M347.709,-76C357.2774,-76 367.0979,-76 376.7649,-76"/>
<polygon fill="#191970" stroke="#191970" points="376.7666,-79.5001 386.7665,-76 376.7665,-72.5001 376.7666,-79.5001"/>
</g>
</g>
</svg>
