<?xml version="1.0" encoding="UTF-8" standalone="no"?>
<!DOCTYPE svg PUBLIC "-//W3C//DTD SVG 1.1//EN"
 "http://www.w3.org/Graphics/SVG/1.1/DTD/svg11.dtd">
<!-- Generated by graphviz version 2.43.0 (0)
 -->
<!-- Title: test_fixture_xpath_paths_predicate_filter_number Pages: 1 -->
<svg width="225pt" height="343pt"
 viewBox="0.00 0.00 225.00 343.00" xmlns="http://www.w3.org/2000/svg" xmlns:xlink="http://www.w3.org/1999/xlink">
<g id="graph0" class="graph" transform="scale(1 1) rotate(0) translate(4 339)">
<title>test_fixture_xpath_paths_predicate_filter_number</title>
<polygon fill="white" stroke="transparent" points="-4,4 -4,-339 221,-339 221,4 -4,4"/>
<!-- Node1 -->
<g id="node1" class="node">
<title>Node1</title>
<g id="a_node1"><a xlink:title=" ">
<polygon fill="#bfbfbf" stroke="black" points="0,-0.5 0,-41.5 128,-41.5 128,-0.5 0,-0.5"/>
<text text-anchor="start" x="8" y="-29.5" font-family="Helvetica,sans-Serif" font-size="10.00">test_fixture_xpath</text>
<text text-anchor="start" x="8" y="-18.5" font-family="Helvetica,sans-Serif" font-size="10.00">_paths_predicate_filter</text>
<text text-anchor="middle" x="64" y="-7.5" font-family="Helvetica,sans-Serif" font-size="10.00">_number</text>
</a>
</g>
</g>
<!-- Node2 -->
<g id="node2" class="node">
<title>Node2</title>
<g id="a_node2"><a xlink:href="classpugi_1_1xml__document.html" target="_top" xlink:title=" ">
<polygon fill="white" stroke="black" points="6,-89.5 6,-108.5 122,-108.5 122,-89.5 6,-89.5"/>
<text text-anchor="middle" x="64" y="-96.5" font-family="Helvetica,sans-Serif" font-size="10.00">pugi::xml_document</text>
</a>
</g>
</g>
<!-- Node2&#45;&gt;Node1 -->
<g id="edge1" class="edge">
<title>Node2&#45;&gt;Node1</title>
<path fill="none" stroke="#9a32cd" stroke-dasharray="5,2" d="M64,-79.14C64,-67.73 64,-53.21 64,-41.66"/>
<polygon fill="#9a32cd" stroke="#9a32cd" points="60.5,-79.28 64,-89.28 67.5,-79.28 60.5,-79.28"/>
<text text-anchor="middle" x="74.5" y="-63" font-family="Helvetica,sans-Serif" font-size="10.00"> doc</text>
</g>
<!-- Node3 -->
<g id="node3" class="node">
<title>Node3</title>
<g id="a_node3"><a xlink:href="classpugi_1_1xml__node.html" target="_top" xlink:title=" ">
<polygon fill="white" stroke="black" points="18,-146.5 18,-165.5 110,-165.5 110,-146.5 18,-146.5"/>
<text text-anchor="middle" x="64" y="-153.5" font-family="Helvetica,sans-Serif" font-size="10.00">pugi::xml_node</text>
</a>
</g>
</g>
<!-- Node3&#45;&gt;Node2 -->
<g id="edge2" class="edge">
<title>Node3&#45;&gt;Node2</title>
<path fill="none" stroke="midnightblue" d="M64,-136.12C64,-126.82 64,-116.06 64,-108.71"/>
<polygon fill="midnightblue" stroke="midnightblue" points="60.5,-136.41 64,-146.41 67.5,-136.41 60.5,-136.41"/>
</g>
<!-- Node4 -->
<g id="node4" class="node">
<title>Node4</title>
<g id="a_node4"><a xlink:href="structpugi_1_1xml__node__struct.html" target="_top" xlink:title="An XML document tree node.">
<polygon fill="white" stroke="black" points="1.5,-225.5 1.5,-244.5 126.5,-244.5 126.5,-225.5 1.5,-225.5"/>
<text text-anchor="middle" x="64" y="-232.5" font-family="Helvetica,sans-Serif" font-size="10.00">pugi::xml_node_struct</text>
</a>
</g>
</g>
<!-- Node4&#45;&gt;Node3 -->
<g id="edge3" class="edge">
<title>Node4&#45;&gt;Node3</title>
<path fill="none" stroke="#9a32cd" stroke-dasharray="5,2" d="M64,-215.31C64,-199.59 64,-177.81 64,-165.81"/>
<polygon fill="#9a32cd" stroke="#9a32cd" points="60.5,-215.47 64,-225.47 67.5,-215.47 60.5,-215.47"/>
<text text-anchor="middle" x="78" y="-187" font-family="Helvetica,sans-Serif" font-size="10.00"> _root</text>
</g>
<!-- Node4&#45;&gt;Node4 -->
<g id="edge6" class="edge">
<title>Node4&#45;&gt;Node4</title>
<path fill="none" stroke="#9a32cd" stroke-dasharray="5,2" d="M136.64,-240.94C141.53,-239.57 144.5,-237.59 144.5,-235 144.5,-230.96 137.26,-228.4 126.78,-227.33"/>
<polygon fill="#9a32cd" stroke="#9a32cd" points="136.02,-237.49 126.78,-242.67 137.23,-244.39 136.02,-237.49"/>
<text text-anchor="middle" x="179.5" y="-249" font-family="Helvetica,sans-Serif" font-size="10.00"> first_child</text>
<text text-anchor="middle" x="179.5" y="-238" font-family="Helvetica,sans-Serif" font-size="10.00">next_sibling</text>
<text text-anchor="middle" x="179.5" y="-227" font-family="Helvetica,sans-Serif" font-size="10.00">parent</text>
<text text-anchor="middle" x="179.5" y="-216" font-family="Helvetica,sans-Serif" font-size="10.00">prev_sibling_c</text>
</g>
<!-- Node5 -->
<g id="node5" class="node">
<title>Node5</title>
<g id="a_node5"><a xlink:href="structpugi_1_1xml__attribute__struct.html" target="_top" xlink:title="A &#39;name=value&#39; XML attribute structure.">
<polygon fill="white" stroke="black" points="9,-304.5 9,-334.5 119,-334.5 119,-304.5 9,-304.5"/>
<text text-anchor="start" x="17" y="-322.5" font-family="Helvetica,sans-Serif" font-size="10.00">pugi::xml_attribute</text>
<text text-anchor="middle" x="64" y="-311.5" font-family="Helvetica,sans-Serif" font-size="10.00">_struct</text>
</a>
</g>
</g>
<!-- Node5&#45;&gt;Node4 -->
<g id="edge4" class="edge">
<title>Node5&#45;&gt;Node4</title>
<path fill="none" stroke="#9a32cd" stroke-dasharray="5,2" d="M64,-293.95C64,-277.28 64,-256.23 64,-244.64"/>
<polygon fill="#9a32cd" stroke="#9a32cd" points="60.5,-294.13 64,-304.13 67.5,-294.13 60.5,-294.13"/>
<text text-anchor="middle" x="99" y="-278" font-family="Helvetica,sans-Serif" font-size="10.00"> first_attribute</text>
</g>
<!-- Node5&#45;&gt;Node5 -->
<g id="edge5" class="edge">
<title>Node5&#45;&gt;Node5</title>
<path fill="none" stroke="#9a32cd" stroke-dasharray="5,2" d="M129,-324.85C133.95,-323.66 137,-321.88 137,-319.5 137,-315.79 129.57,-313.53 119.07,-312.72"/>
<polygon fill="#9a32cd" stroke="#9a32cd" points="128.47,-321.39 119.07,-326.28 129.47,-328.32 128.47,-321.39"/>
<text text-anchor="middle" x="177" y="-322.5" font-family="Helvetica,sans-Serif" font-size="10.00"> next_attribute</text>
<text text-anchor="middle" x="177" y="-311.5" font-family="Helvetica,sans-Serif" font-size="10.00">prev_attribute_c</text>
</g>
</g>
</svg>
