<?xml version="1.0" encoding="UTF-8" standalone="no"?>
<!DOCTYPE svg PUBLIC "-//W3C//DTD SVG 1.1//EN"
 "http://www.w3.org/Graphics/SVG/1.1/DTD/svg11.dtd">
<!-- Generated by graphviz version 2.43.0 (0)
 -->
<!-- Title: main Pages: 1 -->
<svg width="404pt" height="183pt"
 viewBox="0.00 0.00 404.00 183.00" xmlns="http://www.w3.org/2000/svg" xmlns:xlink="http://www.w3.org/1999/xlink">
<g id="graph0" class="graph" transform="scale(1 1) rotate(0) translate(4 179)">
<title>main</title>
<polygon fill="white" stroke="transparent" points="-4,4 -4,-179 400,-179 400,4 -4,4"/>
<!-- Node1 -->
<g id="node1" class="node">
<title>Node1</title>
<g id="a_node1"><a xlink:title=" ">
<polygon fill="#bfbfbf" stroke="black" points="0,-66.5 0,-85.5 41,-85.5 41,-66.5 0,-66.5"/>
<text text-anchor="middle" x="20.5" y="-73.5" font-family="Helvetica,sans-Serif" font-size="10.00">main</text>
</a>
</g>
</g>
<!-- Node2 -->
<g id="node2" class="node">
<title>Node2</title>
<g id="a_node2"><a xlink:href="classpugi_1_1xml__node.html#af3994814d80cdf2aef455bf3948c3385" target="_top" xlink:title=" ">
<polygon fill="white" stroke="black" points="85,-145.5 85,-164.5 206,-164.5 206,-145.5 85,-145.5"/>
<text text-anchor="middle" x="145.5" y="-152.5" font-family="Helvetica,sans-Serif" font-size="10.00">pugi::xml_node::child</text>
</a>
</g>
</g>
<!-- Node1&#45;&gt;Node2 -->
<g id="edge1" class="edge">
<title>Node1&#45;&gt;Node2</title>
<path fill="none" stroke="midnightblue" d="M33.54,-85.57C44.57,-94.17 61.51,-106.97 77,-117 89.86,-125.33 104.65,-133.77 117.1,-140.58"/>
<polygon fill="midnightblue" stroke="midnightblue" points="115.63,-143.76 126.09,-145.43 118.96,-137.6 115.63,-143.76"/>
</g>
<!-- Node4 -->
<g id="node4" class="node">
<title>Node4</title>
<g id="a_node4"><a xlink:href="classpugi_1_1xml__node.html#a5a71c1067b728a67b5757aeef311f2de" target="_top" xlink:title=" ">
<polygon fill="white" stroke="black" points="77,-88.5 77,-107.5 214,-107.5 214,-88.5 77,-88.5"/>
<text text-anchor="middle" x="145.5" y="-95.5" font-family="Helvetica,sans-Serif" font-size="10.00">pugi::xml_node::children</text>
</a>
</g>
</g>
<!-- Node1&#45;&gt;Node4 -->
<g id="edge3" class="edge">
<title>Node1&#45;&gt;Node4</title>
<path fill="none" stroke="midnightblue" d="M41.26,-79.53C52.3,-81.51 66.73,-84.09 81.29,-86.69"/>
<polygon fill="midnightblue" stroke="midnightblue" points="80.88,-90.18 91.34,-88.49 82.12,-83.29 80.88,-90.18"/>
</g>
<!-- Node7 -->
<g id="node7" class="node">
<title>Node7</title>
<g id="a_node7"><a xlink:href="classpugi_1_1xml__document.html#a340e0688c19ba9195537bc9af6d72cd2" target="_top" xlink:title=" ">
<polygon fill="white" stroke="black" points="87.5,-39 87.5,-69 203.5,-69 203.5,-39 87.5,-39"/>
<text text-anchor="start" x="95.5" y="-57" font-family="Helvetica,sans-Serif" font-size="10.00">pugi::xml_document</text>
<text text-anchor="middle" x="145.5" y="-46" font-family="Helvetica,sans-Serif" font-size="10.00">::load_file</text>
</a>
</g>
</g>
<!-- Node1&#45;&gt;Node7 -->
<g id="edge6" class="edge">
<title>Node1&#45;&gt;Node7</title>
<path fill="none" stroke="midnightblue" d="M41.26,-72.47C51.27,-70.67 64.08,-68.38 77.24,-66.03"/>
<polygon fill="midnightblue" stroke="midnightblue" points="78.1,-69.43 87.33,-64.23 76.87,-62.54 78.1,-69.43"/>
</g>
<!-- Node9 -->
<g id="node9" class="node">
<title>Node9</title>
<g id="a_node9"><a xlink:href="classpugi_1_1xml__node.html#a5afaf684fb8589f5bf0b57b6a8910274" target="_top" xlink:title=" ">
<polygon fill="white" stroke="black" points="83,-0.5 83,-19.5 208,-19.5 208,-0.5 83,-0.5"/>
<text text-anchor="middle" x="145.5" y="-7.5" font-family="Helvetica,sans-Serif" font-size="10.00">pugi::xml_node::name</text>
</a>
</g>
</g>
<!-- Node1&#45;&gt;Node9 -->
<g id="edge8" class="edge">
<title>Node1&#45;&gt;Node9</title>
<path fill="none" stroke="midnightblue" d="M30.39,-66.3C40.65,-55.68 58.49,-38.84 77,-29 81.28,-26.73 85.85,-24.7 90.54,-22.9"/>
<polygon fill="midnightblue" stroke="midnightblue" points="91.94,-26.12 100.23,-19.52 89.63,-19.51 91.94,-26.12"/>
</g>
<!-- Node3 -->
<g id="node3" class="node">
<title>Node3</title>
<g id="a_node3"><a xlink:href="classpugi_1_1xml__node.html#a1db6c67c97cddd74f59d872057987432" target="_top" xlink:title=" ">
<polygon fill="white" stroke="black" points="250,-155.5 250,-174.5 396,-174.5 396,-155.5 250,-155.5"/>
<text text-anchor="middle" x="323" y="-162.5" font-family="Helvetica,sans-Serif" font-size="10.00">pugi::xml_node::xml_node</text>
</a>
</g>
</g>
<!-- Node2&#45;&gt;Node3 -->
<g id="edge2" class="edge">
<title>Node2&#45;&gt;Node3</title>
<path fill="none" stroke="midnightblue" d="M206.41,-158.41C217.13,-159.02 228.46,-159.67 239.68,-160.31"/>
<polygon fill="midnightblue" stroke="midnightblue" points="239.75,-163.82 249.93,-160.89 240.15,-156.83 239.75,-163.82"/>
</g>
<!-- Node5 -->
<g id="node5" class="node">
<title>Node5</title>
<g id="a_node5"><a xlink:href="classpugi_1_1xml__node.html#ad37b3df6daac9a449b0fd82aa5214edf" target="_top" xlink:title=" ">
<polygon fill="white" stroke="black" points="260.5,-117.5 260.5,-136.5 385.5,-136.5 385.5,-117.5 260.5,-117.5"/>
<text text-anchor="middle" x="323" y="-124.5" font-family="Helvetica,sans-Serif" font-size="10.00">pugi::xml_node::begin</text>
</a>
</g>
</g>
<!-- Node4&#45;&gt;Node5 -->
<g id="edge4" class="edge">
<title>Node4&#45;&gt;Node5</title>
<path fill="none" stroke="midnightblue" d="M204.45,-107.58C220.41,-110.21 237.86,-113.1 254.31,-115.82"/>
<polygon fill="midnightblue" stroke="midnightblue" points="253.97,-119.31 264.41,-117.48 255.11,-112.4 253.97,-119.31"/>
</g>
<!-- Node6 -->
<g id="node6" class="node">
<title>Node6</title>
<g id="a_node6"><a xlink:href="classpugi_1_1xml__node.html#a9ad59765e701650a6c2b99f0db0828a4" target="_top" xlink:title=" ">
<polygon fill="white" stroke="black" points="265,-79.5 265,-98.5 381,-98.5 381,-79.5 265,-79.5"/>
<text text-anchor="middle" x="323" y="-86.5" font-family="Helvetica,sans-Serif" font-size="10.00">pugi::xml_node::end</text>
</a>
</g>
</g>
<!-- Node4&#45;&gt;Node6 -->
<g id="edge5" class="edge">
<title>Node4&#45;&gt;Node6</title>
<path fill="none" stroke="midnightblue" d="M214.1,-94.53C227.49,-93.85 241.54,-93.13 254.91,-92.44"/>
<polygon fill="midnightblue" stroke="midnightblue" points="255.18,-95.93 264.98,-91.92 254.82,-88.94 255.18,-95.93"/>
</g>
<!-- Node8 -->
<g id="node8" class="node">
<title>Node8</title>
<g id="a_node8"><a xlink:href="classpugi_1_1xml__document.html#a7d325c6309910157080fe69f73922186" target="_top" xlink:title=" ">
<polygon fill="white" stroke="black" points="265,-30 265,-60 381,-60 381,-30 265,-30"/>
<text text-anchor="start" x="273" y="-48" font-family="Helvetica,sans-Serif" font-size="10.00">pugi::xml_document</text>
<text text-anchor="middle" x="323" y="-37" font-family="Helvetica,sans-Serif" font-size="10.00">::reset</text>
</a>
</g>
</g>
<!-- Node7&#45;&gt;Node8 -->
<g id="edge7" class="edge">
<title>Node7&#45;&gt;Node8</title>
<path fill="none" stroke="midnightblue" d="M203.97,-51.05C220.11,-50.23 237.81,-49.32 254.48,-48.46"/>
<polygon fill="midnightblue" stroke="midnightblue" points="254.9,-51.95 264.71,-47.94 254.54,-44.96 254.9,-51.95"/>
</g>
</g>
</svg>
