<?xml version="1.0" encoding="UTF-8" standalone="no"?>
<!DOCTYPE svg PUBLIC "-//W3C//DTD SVG 1.1//EN"
 "http://www.w3.org/Graphics/SVG/1.1/DTD/svg11.dtd">
<!-- Generated by graphviz version 2.43.0 (0)
 -->
<!-- Title: /scratch/dragon/sources/Consatt&#45;apps/src/linklock/CsaLinkLockCtrlFMC25.cc Pages: 1 -->
<svg width="1582pt" height="240pt"
 viewBox="0.00 0.00 1581.50 240.00" xmlns="http://www.w3.org/2000/svg" xmlns:xlink="http://www.w3.org/1999/xlink">
<g id="graph0" class="graph" transform="scale(1 1) rotate(0) translate(4 236)">
<title>/scratch/dragon/sources/Consatt&#45;apps/src/linklock/CsaLinkLockCtrlFMC25.cc</title>
<polygon fill="white" stroke="transparent" points="-4,4 -4,-236 1577.5,-236 1577.5,4 -4,4"/>
<!-- Node1 -->
<g id="node1" class="node">
<title>Node1</title>
<g id="a_node1"><a xlink:title=" ">
<polygon fill="#bfbfbf" stroke="black" points="788,-190.5 788,-231.5 933,-231.5 933,-190.5 788,-190.5"/>
<text text-anchor="start" x="796" y="-219.5" font-family="Helvetica,sans-Serif" font-size="10.00">/scratch/dragon/sources</text>
<text text-anchor="start" x="796" y="-208.5" font-family="Helvetica,sans-Serif" font-size="10.00">/Consatt&#45;apps/src/linklock</text>
<text text-anchor="middle" x="860.5" y="-197.5" font-family="Helvetica,sans-Serif" font-size="10.00">/CsaLinkLockCtrlFMC25.cc</text>
</a>
</g>
</g>
<!-- Node2 -->
<g id="node2" class="node">
<title>Node2</title>
<g id="a_node2"><a xlink:href="_csa_link_lock_ctrl_f_m_c25_8h.html" target="_top" xlink:title=" ">
<polygon fill="white" stroke="black" points="136,-129 136,-148 273,-148 273,-129 136,-129"/>
<text text-anchor="middle" x="204.5" y="-136" font-family="Helvetica,sans-Serif" font-size="10.00">CsaLinkLockCtrlFMC25.h</text>
</a>
</g>
</g>
<!-- Node1&#45;&gt;Node2 -->
<g id="edge1" class="edge">
<title>Node1&#45;&gt;Node2</title>
<path fill="none" stroke="midnightblue" d="M787.72,-205C677.9,-196.98 463.44,-179.53 282.5,-154 274.07,-152.81 265.16,-151.35 256.5,-149.82"/>
<polygon fill="midnightblue" stroke="midnightblue" points="256.95,-146.34 246.49,-148 255.7,-153.23 256.95,-146.34"/>
</g>
<!-- Node7 -->
<g id="node7" class="node">
<title>Node7</title>
<g id="a_node7"><a xlink:title=" ">
<polygon fill="white" stroke="#bfbfbf" points="291.5,-129 291.5,-148 413.5,-148 413.5,-129 291.5,-129"/>
<text text-anchor="middle" x="352.5" y="-136" font-family="Helvetica,sans-Serif" font-size="10.00">Consatt/CsaAdapter.h</text>
</a>
</g>
</g>
<!-- Node1&#45;&gt;Node7 -->
<g id="edge7" class="edge">
<title>Node1&#45;&gt;Node7</title>
<path fill="none" stroke="midnightblue" d="M787.78,-202.44C700.68,-192.98 550.47,-175.4 422.5,-154 415.59,-152.84 408.33,-151.49 401.2,-150.09"/>
<polygon fill="midnightblue" stroke="midnightblue" points="401.41,-146.56 390.91,-148.01 400.02,-153.42 401.41,-146.56"/>
</g>
<!-- Node8 -->
<g id="node8" class="node">
<title>Node8</title>
<g id="a_node8"><a xlink:href="_csa_link_lock_ctrl_channel_8h.html" target="_top" xlink:title=" ">
<polygon fill="white" stroke="black" points="432,-129 432,-148 575,-148 575,-129 432,-129"/>
<text text-anchor="middle" x="503.5" y="-136" font-family="Helvetica,sans-Serif" font-size="10.00">CsaLinkLockCtrlChannel.h</text>
</a>
</g>
</g>
<!-- Node1&#45;&gt;Node8 -->
<g id="edge8" class="edge">
<title>Node1&#45;&gt;Node8</title>
<path fill="none" stroke="midnightblue" d="M787.83,-195.65C719.17,-182.09 617.83,-162.08 556.5,-149.97"/>
<polygon fill="midnightblue" stroke="midnightblue" points="557.13,-146.52 546.64,-148.02 555.77,-153.39 557.13,-146.52"/>
</g>
<!-- Node10 -->
<g id="node10" class="node">
<title>Node10</title>
<g id="a_node10"><a xlink:title=" ">
<polygon fill="white" stroke="#bfbfbf" points="593.5,-123.5 593.5,-153.5 751.5,-153.5 751.5,-123.5 593.5,-123.5"/>
<text text-anchor="start" x="601.5" y="-141.5" font-family="Helvetica,sans-Serif" font-size="10.00">Demac/CsaCtrlOnStateSpace</text>
<text text-anchor="middle" x="672.5" y="-130.5" font-family="Helvetica,sans-Serif" font-size="10.00">Manager.h</text>
</a>
</g>
</g>
<!-- Node1&#45;&gt;Node10 -->
<g id="edge12" class="edge">
<title>Node1&#45;&gt;Node10</title>
<path fill="none" stroke="midnightblue" d="M808.13,-190.36C780.36,-179.95 746.51,-167.25 719.58,-157.15"/>
<polygon fill="midnightblue" stroke="midnightblue" points="720.58,-153.79 709.99,-153.56 718.13,-160.35 720.58,-153.79"/>
</g>
<!-- Node11 -->
<g id="node11" class="node">
<title>Node11</title>
<g id="a_node11"><a xlink:title=" ">
<polygon fill="white" stroke="#bfbfbf" points="769.5,-129 769.5,-148 951.5,-148 951.5,-129 769.5,-129"/>
<text text-anchor="middle" x="860.5" y="-136" font-family="Helvetica,sans-Serif" font-size="10.00">Demac/CsaPidCtrlOnStateSpace.h</text>
</a>
</g>
</g>
<!-- Node1&#45;&gt;Node11 -->
<g id="edge13" class="edge">
<title>Node1&#45;&gt;Node11</title>
<path fill="none" stroke="midnightblue" d="M860.5,-190.36C860.5,-180.3 860.5,-168.1 860.5,-158.18"/>
<polygon fill="midnightblue" stroke="midnightblue" points="864,-158.17 860.5,-148.17 857,-158.17 864,-158.17"/>
</g>
<!-- Node12 -->
<g id="node12" class="node">
<title>Node12</title>
<g id="a_node12"><a xlink:title=" ">
<polygon fill="white" stroke="#bfbfbf" points="970,-123.5 970,-153.5 1121,-153.5 1121,-123.5 970,-123.5"/>
<text text-anchor="start" x="978" y="-141.5" font-family="Helvetica,sans-Serif" font-size="10.00">Demac/CsaUserCtrlOnState</text>
<text text-anchor="middle" x="1045.5" y="-130.5" font-family="Helvetica,sans-Serif" font-size="10.00">Space.h</text>
</a>
</g>
</g>
<!-- Node1&#45;&gt;Node12 -->
<g id="edge14" class="edge">
<title>Node1&#45;&gt;Node12</title>
<path fill="none" stroke="midnightblue" d="M912.03,-190.36C939.36,-179.95 972.67,-167.25 999.17,-157.15"/>
<polygon fill="midnightblue" stroke="midnightblue" points="1000.51,-160.39 1008.61,-153.56 998.02,-153.85 1000.51,-160.39"/>
</g>
<!-- Node13 -->
<g id="node13" class="node">
<title>Node13</title>
<g id="a_node13"><a xlink:title=" ">
<polygon fill="white" stroke="#bfbfbf" points="1139.5,-129 1139.5,-148 1323.5,-148 1323.5,-129 1139.5,-129"/>
<text text-anchor="middle" x="1231.5" y="-136" font-family="Helvetica,sans-Serif" font-size="10.00">Demac/M_ENT_FirmwareVersion.h</text>
</a>
</g>
</g>
<!-- Node1&#45;&gt;Node13 -->
<g id="edge15" class="edge">
<title>Node1&#45;&gt;Node13</title>
<path fill="none" stroke="midnightblue" d="M933.36,-196.16C1004.77,-182.59 1112.02,-162.2 1176.54,-149.94"/>
<polygon fill="midnightblue" stroke="midnightblue" points="1177.35,-153.35 1186.52,-148.05 1176.04,-146.48 1177.35,-153.35"/>
</g>
<!-- Node14 -->
<g id="node14" class="node">
<title>Node14</title>
<g id="a_node14"><a xlink:href="_generic_utils_8h.html" target="_top" xlink:title=" ">
<polygon fill="white" stroke="black" points="1341.5,-129 1341.5,-148 1427.5,-148 1427.5,-129 1341.5,-129"/>
<text text-anchor="middle" x="1384.5" y="-136" font-family="Helvetica,sans-Serif" font-size="10.00">GenericUtils.h</text>
</a>
</g>
</g>
<!-- Node1&#45;&gt;Node14 -->
<g id="edge16" class="edge">
<title>Node1&#45;&gt;Node14</title>
<path fill="none" stroke="midnightblue" d="M933.01,-204.88C1026.13,-197.51 1192.45,-181.66 1332.5,-154 1337.25,-153.06 1342.2,-151.91 1347.08,-150.67"/>
<polygon fill="midnightblue" stroke="midnightblue" points="1348.14,-154.01 1356.89,-148.05 1346.33,-147.25 1348.14,-154.01"/>
</g>
<!-- Node18 -->
<g id="node18" class="node">
<title>Node18</title>
<g id="a_node18"><a xlink:title=" ">
<polygon fill="white" stroke="#bfbfbf" points="1445.5,-129 1445.5,-148 1573.5,-148 1573.5,-129 1445.5,-129"/>
<text text-anchor="middle" x="1509.5" y="-136" font-family="Helvetica,sans-Serif" font-size="10.00">boost/pointer_cast.hpp</text>
</a>
</g>
</g>
<!-- Node1&#45;&gt;Node18 -->
<g id="edge20" class="edge">
<title>Node1&#45;&gt;Node18</title>
<path fill="none" stroke="midnightblue" d="M933.07,-205.26C1042.56,-197.6 1256.35,-180.58 1436.5,-154 1444.23,-152.86 1452.38,-151.45 1460.32,-149.96"/>
<polygon fill="midnightblue" stroke="midnightblue" points="1461.07,-153.38 1470.22,-148.04 1459.74,-146.51 1461.07,-153.38"/>
</g>
<!-- Node3 -->
<g id="node3" class="node">
<title>Node3</title>
<g id="a_node3"><a xlink:title=" ">
<polygon fill="white" stroke="#bfbfbf" points="307.5,-56.5 307.5,-86.5 449.5,-86.5 449.5,-56.5 307.5,-56.5"/>
<text text-anchor="start" x="315.5" y="-74.5" font-family="Helvetica,sans-Serif" font-size="10.00">Consatt/CsaAppConfigFile</text>
<text text-anchor="middle" x="378.5" y="-63.5" font-family="Helvetica,sans-Serif" font-size="10.00">Parser.h</text>
</a>
</g>
</g>
<!-- Node2&#45;&gt;Node3 -->
<g id="edge2" class="edge">
<title>Node2&#45;&gt;Node3</title>
<path fill="none" stroke="midnightblue" d="M227.61,-128.87C253.94,-119.03 297.69,-102.69 331.31,-90.13"/>
<polygon fill="midnightblue" stroke="midnightblue" points="332.81,-93.31 340.95,-86.53 330.36,-86.75 332.81,-93.31"/>
</g>
<!-- Node4 -->
<g id="node4" class="node">
<title>Node4</title>
<g id="a_node4"><a xlink:title=" ">
<polygon fill="white" stroke="#bfbfbf" points="0,-62 0,-81 139,-81 139,-62 0,-62"/>
<text text-anchor="middle" x="69.5" y="-69" font-family="Helvetica,sans-Serif" font-size="10.00">Consatt/CsaApplication.h</text>
</a>
</g>
</g>
<!-- Node2&#45;&gt;Node4 -->
<g id="edge3" class="edge">
<title>Node2&#45;&gt;Node4</title>
<path fill="none" stroke="midnightblue" d="M186.57,-128.87C163.58,-117.8 123.47,-98.49 96.7,-85.6"/>
<polygon fill="midnightblue" stroke="midnightblue" points="98.03,-82.35 87.5,-81.17 94.99,-88.66 98.03,-82.35"/>
</g>
<!-- Node5 -->
<g id="node5" class="node">
<title>Node5</title>
<g id="a_node5"><a xlink:href="_csa_server_info_8h.html" target="_top" xlink:title=" ">
<polygon fill="white" stroke="black" points="157.5,-62 157.5,-81 251.5,-81 251.5,-62 157.5,-62"/>
<text text-anchor="middle" x="204.5" y="-69" font-family="Helvetica,sans-Serif" font-size="10.00">CsaServerInfo.h</text>
</a>
</g>
</g>
<!-- Node2&#45;&gt;Node5 -->
<g id="edge4" class="edge">
<title>Node2&#45;&gt;Node5</title>
<path fill="none" stroke="midnightblue" d="M204.5,-128.73C204.5,-119.18 204.5,-103.62 204.5,-91.28"/>
<polygon fill="midnightblue" stroke="midnightblue" points="208,-91.13 204.5,-81.13 201,-91.13 208,-91.13"/>
</g>
<!-- Node6 -->
<g id="node6" class="node">
<title>Node6</title>
<g id="a_node6"><a xlink:title=" ">
<polygon fill="white" stroke="#bfbfbf" points="220.5,-0.5 220.5,-19.5 338.5,-19.5 338.5,-0.5 220.5,-0.5"/>
<text text-anchor="middle" x="279.5" y="-7.5" font-family="Helvetica,sans-Serif" font-size="10.00">Demac/DevModLib.h</text>
</a>
</g>
</g>
<!-- Node2&#45;&gt;Node6 -->
<g id="edge6" class="edge">
<title>Node2&#45;&gt;Node6</title>
<path fill="none" stroke="midnightblue" d="M218.15,-128.76C231.01,-119.81 249.85,-104.73 260.5,-87 271.1,-69.36 275.8,-46.03 277.88,-29.89"/>
<polygon fill="midnightblue" stroke="midnightblue" points="281.4,-29.91 278.98,-19.6 274.44,-29.17 281.4,-29.91"/>
</g>
<!-- Node5&#45;&gt;Node6 -->
<g id="edge5" class="edge">
<title>Node5&#45;&gt;Node6</title>
<path fill="none" stroke="midnightblue" d="M215.25,-61.98C227.05,-52.61 246.24,-37.38 260.58,-26.01"/>
<polygon fill="midnightblue" stroke="midnightblue" points="263.12,-28.47 268.77,-19.51 258.76,-22.98 263.12,-28.47"/>
</g>
<!-- Node8&#45;&gt;Node3 -->
<g id="edge9" class="edge">
<title>Node8&#45;&gt;Node3</title>
<path fill="none" stroke="midnightblue" d="M486.9,-128.87C468.61,-119.36 438.63,-103.77 414.82,-91.39"/>
<polygon fill="midnightblue" stroke="midnightblue" points="416.2,-88.16 405.71,-86.65 412.97,-94.37 416.2,-88.16"/>
</g>
<!-- Node8&#45;&gt;Node6 -->
<g id="edge11" class="edge">
<title>Node8&#45;&gt;Node6</title>
<path fill="none" stroke="midnightblue" d="M501.23,-128.84C496.38,-112.07 483.34,-75.13 458.5,-56 427.17,-31.87 384.46,-20.55 348.61,-15.29"/>
<polygon fill="midnightblue" stroke="midnightblue" points="349.07,-11.82 338.7,-13.97 348.14,-18.76 349.07,-11.82"/>
</g>
<!-- Node9 -->
<g id="node9" class="node">
<title>Node9</title>
<g id="a_node9"><a xlink:title=" ">
<polygon fill="white" stroke="#bfbfbf" points="506,-62 506,-81 663,-81 663,-62 506,-62"/>
<text text-anchor="middle" x="584.5" y="-69" font-family="Helvetica,sans-Serif" font-size="10.00">Demac/DeviceModuleBase.h</text>
</a>
</g>
</g>
<!-- Node8&#45;&gt;Node9 -->
<g id="edge10" class="edge">
<title>Node8&#45;&gt;Node9</title>
<path fill="none" stroke="midnightblue" d="M514.42,-128.73C527.54,-118.21 549.76,-100.38 565.66,-87.62"/>
<polygon fill="midnightblue" stroke="midnightblue" points="568.14,-90.12 573.75,-81.13 563.76,-84.66 568.14,-90.12"/>
</g>
<!-- Node15 -->
<g id="node15" class="node">
<title>Node15</title>
<g id="a_node15"><a xlink:title=" ">
<polygon fill="white" stroke="#bfbfbf" points="1195.5,-62 1195.5,-81 1311.5,-81 1311.5,-62 1195.5,-62"/>
<text text-anchor="middle" x="1253.5" y="-69" font-family="Helvetica,sans-Serif" font-size="10.00">ChimeraTK/Device.h</text>
</a>
</g>
</g>
<!-- Node14&#45;&gt;Node15 -->
<g id="edge17" class="edge">
<title>Node14&#45;&gt;Node15</title>
<path fill="none" stroke="midnightblue" d="M1367.1,-128.87C1344.89,-117.84 1306.21,-98.66 1280.24,-85.77"/>
<polygon fill="midnightblue" stroke="midnightblue" points="1281.48,-82.48 1270.97,-81.17 1278.37,-88.75 1281.48,-82.48"/>
</g>
<!-- Node16 -->
<g id="node16" class="node">
<title>Node16</title>
<g id="a_node16"><a xlink:title=" ">
<polygon fill="white" stroke="#bfbfbf" points="1329.5,-62 1329.5,-81 1439.5,-81 1439.5,-62 1329.5,-62"/>
<text text-anchor="middle" x="1384.5" y="-69" font-family="Helvetica,sans-Serif" font-size="10.00">Consatt/CsaLoger.h</text>
</a>
</g>
</g>
<!-- Node14&#45;&gt;Node16 -->
<g id="edge18" class="edge">
<title>Node14&#45;&gt;Node16</title>
<path fill="none" stroke="midnightblue" d="M1384.5,-128.73C1384.5,-119.18 1384.5,-103.62 1384.5,-91.28"/>
<polygon fill="midnightblue" stroke="midnightblue" points="1388,-91.13 1384.5,-81.13 1381,-91.13 1388,-91.13"/>
</g>
<!-- Node17 -->
<g id="node17" class="node">
<title>Node17</title>
<g id="a_node17"><a xlink:title=" ">
<polygon fill="white" stroke="#bfbfbf" points="1457.5,-62 1457.5,-81 1501.5,-81 1501.5,-62 1457.5,-62"/>
<text text-anchor="middle" x="1479.5" y="-69" font-family="Helvetica,sans-Serif" font-size="10.00">string</text>
</a>
</g>
</g>
<!-- Node14&#45;&gt;Node17 -->
<g id="edge19" class="edge">
<title>Node14&#45;&gt;Node17</title>
<path fill="none" stroke="midnightblue" d="M1397.31,-128.73C1412.98,-118.01 1439.72,-99.72 1458.43,-86.91"/>
<polygon fill="midnightblue" stroke="midnightblue" points="1460.61,-89.66 1466.89,-81.13 1456.66,-83.89 1460.61,-89.66"/>
</g>
</g>
</svg>
