<?xml version="1.0" encoding="UTF-8" standalone="no"?>
<!DOCTYPE svg PUBLIC "-//W3C//DTD SVG 1.1//EN"
 "http://www.w3.org/Graphics/SVG/1.1/DTD/svg11.dtd">
<!-- Generated by graphviz version 2.43.0 (0)
 -->
<!-- Title: CsaLsuOxcAdvAlg::determinePulsesSwitchDirectionSelection Pages: 1 -->
<svg width="566pt" height="60pt"
 viewBox="0.00 0.00 566.00 60.00" xmlns="http://www.w3.org/2000/svg" xmlns:xlink="http://www.w3.org/1999/xlink">
<g id="graph0" class="graph" transform="scale(1 1) rotate(0) translate(4 56)">
<title>CsaLsuOxcAdvAlg::determinePulsesSwitchDirectionSelection</title>
<!-- Node1 -->
<g id="Node000001" class="node">
<title>Node1</title>
<g id="a_Node000001"><a xlink:title=" ">
<polygon fill="#999999" stroke="#666666" points="558,-30 388,-30 388,0 558,0 558,-30"/>
<text text-anchor="start" x="396" y="-18" font-family="Helvetica,sans-Serif" font-size="10.00">CsaLsuOxcAdvAlg::determine</text>
<text text-anchor="middle" x="473" y="-7" font-family="Helvetica,sans-Serif" font-size="10.00">PulsesSwitchDirectionSelection</text>
</a>
</g>
</g>
<!-- Node2 -->
<g id="Node000002" class="node">
<title>Node2</title>
<g id="a_Node000002"><a xlink:href="class_csa_lsu_oxc_adv_alg.html#a2957f6b13fc297b145873ecec48d50c1" target="_top" xlink:title=" ">
<polygon fill="white" stroke="#666666" points="352,-52 179,-52 179,-22 352,-22 352,-52"/>
<text text-anchor="start" x="187" y="-40" font-family="Helvetica,sans-Serif" font-size="10.00">CsaLsuOxcAdvAlg::switchPulses</text>
<text text-anchor="middle" x="265.5" y="-29" font-family="Helvetica,sans-Serif" font-size="10.00">WithAutoDirSelection</text>
</a>
</g>
</g>
<!-- Node1&#45;&gt;Node2 -->
<g id="edge1_Node000001_Node000002" class="edge">
<title>Node1&#45;&gt;Node2</title>
<g id="a_edge1_Node000001_Node000002"><a xlink:title=" ">
<path fill="none" stroke="#63b8ff" d="M377.84,-25.08C369.3,-25.99 360.68,-26.92 352.21,-27.82"/>
<polygon fill="#63b8ff" stroke="#63b8ff" points="378.25,-28.56 387.82,-24.01 377.51,-21.6 378.25,-28.56"/>
</a>
</g>
</g>
<!-- Node3 -->
<g id="Node000003" class="node">
<title>Node3</title>
<g id="a_Node000003"><a xlink:href="class_csa_lsu_oxc_adv_alg.html#aeb672b00e83a8c485d1411224616a742" target="_top" xlink:title=" ">
<polygon fill="white" stroke="#666666" points="143,-30 0,-30 0,0 143,0 143,-30"/>
<text text-anchor="start" x="8" y="-18" font-family="Helvetica,sans-Serif" font-size="10.00">CsaLsuOxcAdvAlg::trigger</text>
<text text-anchor="middle" x="71.5" y="-7" font-family="Helvetica,sans-Serif" font-size="10.00">Command</text>
</a>
</g>
</g>
<!-- Node1&#45;&gt;Node3 -->
<g id="edge3_Node000001_Node000003" class="edge">
<title>Node1&#45;&gt;Node3</title>
<g id="a_edge3_Node000001_Node000003"><a xlink:title=" ">
<path fill="none" stroke="#63b8ff" d="M377.6,-13.28C368.95,-13.17 360.31,-13.07 352,-13 275.11,-12.36 255.89,-12.28 179,-13 167.44,-13.11 155.18,-13.28 143.25,-13.49"/>
<polygon fill="#63b8ff" stroke="#63b8ff" points="377.71,-16.78 387.75,-13.42 377.8,-9.78 377.71,-16.78"/>
</a>
</g>
</g>
<!-- Node2&#45;&gt;Node3 -->
<g id="edge2_Node000002_Node000003" class="edge">
<title>Node2&#45;&gt;Node3</title>
<g id="a_edge2_Node000002_Node000003"><a xlink:title=" ">
<path fill="none" stroke="#63b8ff" d="M168.81,-26.04C160.21,-25.05 151.61,-24.07 143.28,-23.11"/>
<polygon fill="#63b8ff" stroke="#63b8ff" points="168.55,-29.53 178.89,-27.19 169.35,-22.57 168.55,-29.53"/>
</a>
</g>
</g>
</g>
</svg>
