<?xml version="1.0" encoding="UTF-8" standalone="no"?>
<!DOCTYPE svg PUBLIC "-//W3C//DTD SVG 1.1//EN"
 "http://www.w3.org/Graphics/SVG/1.1/DTD/svg11.dtd">
<!-- Generated by graphviz version 2.43.0 (0)
 -->
<!-- Title: CsaPidCtrlSwitcherOnStateSpace::setEnable Pages: 1 -->
<!--zoomable 253 -->
<svg id="main" version="1.1" xmlns="http://www.w3.org/2000/svg" xmlns:xlink="http://www.w3.org/1999/xlink" xml:space="preserve" onload="init(evt)">
<style type="text/css"><![CDATA[
.edge:hover path { stroke: red; }
.edge:hover polygon { stroke: red; fill: red; }
]]></style>
<script type="text/javascript"><![CDATA[
var edges = document.getElementsByTagName('g');
if (edges && edges.length) {
  for (var i=0;i<edges.length;i++) {
    if (edges[i].id.substr(0,4)=='edge') {
      edges[i].setAttribute('class','edge');
    }
  }
}
]]></script>
        <defs>
                <circle id="rim" cx="0" cy="0" r="7"/>
                <circle id="rim2" cx="0" cy="0" r="3.5"/>
                <g id="zoomPlus">
                        <use xlink:href="#rim" fill="#404040">
                                <set attributeName="fill" to="#808080" begin="zoomplus.mouseover" end="zoomplus.mouseout"/>
                        </use>
                        <path d="M-4,0h8M0,-4v8" fill="none" stroke="white" stroke-width="1.5" pointer-events="none"/>
                </g>
                <g id="zoomMin">
                        <use xlink:href="#rim" fill="#404040">
                                <set attributeName="fill" to="#808080" begin="zoomminus.mouseover" end="zoomminus.mouseout"/>
                        </use>
                        <path d="M-4,0h8" fill="none" stroke="white" stroke-width="1.5" pointer-events="none"/>
                </g>
                <g id="dirArrow">
                        <path fill="none" stroke="white" stroke-width="1.5" d="M0,-3.0v7 M-2.5,-0.5L0,-3.0L2.5,-0.5"/>
                </g>
               <g id="resetDef">
                       <use xlink:href="#rim2" fill="#404040">
                               <set attributeName="fill" to="#808080" begin="reset.mouseover" end="reset.mouseout"/>
                       </use>
               </g>
        </defs>

<script type="text/javascript">
var viewWidth = 1170;
var viewHeight = 253;
var sectionId = 'dynsection-24';
</script>
<script xlink:href="svgpan.js"/>
<svg id="graph" class="graph">
<g id="viewport">
<title>CsaPidCtrlSwitcherOnStateSpace::setEnable</title>
<polygon fill="white" stroke="transparent" points="-4,4 -4,-248.5 1166,-248.5 1166,4 -4,4"/>
<!-- Node1 -->
<g id="node1" class="node">
<title>Node1</title>
<g id="a_node1"><a xlink:title=" ">
<polygon fill="#bfbfbf" stroke="black" points="0,-148.5 0,-178.5 148,-178.5 148,-148.5 0,-148.5"/>
<text text-anchor="start" x="8" y="-166.5" font-family="Helvetica,sans-Serif" font-size="10.00">CsaPidCtrlSwitcherOnState</text>
<text text-anchor="middle" x="74" y="-155.5" font-family="Helvetica,sans-Serif" font-size="10.00">Space::setEnable</text>
</a>
</g>
</g>
<!-- Node2 -->
<g id="node2" class="node">
<title>Node2</title>
<g id="a_node2"><a xlink:href="class_csa_pid_ctrl_switcher_on_state_space.html#a59f5ef0ddd48073097ca2d7af4a95add" target="_top" xlink:title=" ">
<polygon fill="white" stroke="black" points="184,-203 184,-244 376,-244 376,-203 184,-203"/>
<text text-anchor="start" x="192" y="-232" font-family="Helvetica,sans-Serif" font-size="10.00">CsaPidCtrlSwitcherOnState</text>
<text text-anchor="start" x="192" y="-221" font-family="Helvetica,sans-Serif" font-size="10.00">Space::checkAndTryEnableFastPiezo</text>
<text text-anchor="middle" x="280" y="-210" font-family="Helvetica,sans-Serif" font-size="10.00">Channel</text>
</a>
</g>
</g>
<!-- Node1&#45;&gt;Node2 -->
<g id="edge1" class="edge">
<title>Node1&#45;&gt;Node2</title>
<path fill="none" stroke="midnightblue" d="M126.21,-178.56C148.41,-185.09 174.91,-192.88 199.56,-200.13"/>
<polygon fill="midnightblue" stroke="midnightblue" points="198.68,-203.52 209.26,-202.99 200.66,-196.81 198.68,-203.52"/>
</g>
<!-- Node3 -->
<g id="node3" class="node">
<title>Node3</title>
<g id="a_node3"><a xlink:href="class_csa_pid_ctrl_switcher_on_state_space.html#a8a53e3d036397f272d8e2cbacf346294" target="_top" xlink:title=" ">
<polygon fill="white" stroke="black" points="187.5,-143 187.5,-184 372.5,-184 372.5,-143 187.5,-143"/>
<text text-anchor="start" x="195.5" y="-172" font-family="Helvetica,sans-Serif" font-size="10.00">CsaPidCtrlSwitcherOnState</text>
<text text-anchor="start" x="195.5" y="-161" font-family="Helvetica,sans-Serif" font-size="10.00">Space::checkAndTryEnableSis8300</text>
<text text-anchor="middle" x="280" y="-150" font-family="Helvetica,sans-Serif" font-size="10.00">DacChannel</text>
</a>
</g>
</g>
<!-- Node1&#45;&gt;Node3 -->
<g id="edge2" class="edge">
<title>Node1&#45;&gt;Node3</title>
<path fill="none" stroke="midnightblue" d="M148.07,-163.5C157.49,-163.5 167.27,-163.5 177.05,-163.5"/>
<polygon fill="midnightblue" stroke="midnightblue" points="177.22,-167 187.22,-163.5 177.22,-160 177.22,-167"/>
</g>
<!-- Node4 -->
<g id="node4" class="node">
<title>Node4</title>
<g id="a_node4"><a xlink:href="class_csa_pid_ctrl_switcher_on_state_space.html#ac92fa7dda48fee22b307396c0ef2a4ba" target="_top" xlink:title=" ">
<polygon fill="white" stroke="black" points="206,-93.5 206,-123.5 354,-123.5 354,-93.5 206,-93.5"/>
<text text-anchor="start" x="214" y="-111.5" font-family="Helvetica,sans-Serif" font-size="10.00">CsaPidCtrlSwitcherOnState</text>
<text text-anchor="middle" x="280" y="-100.5" font-family="Helvetica,sans-Serif" font-size="10.00">Space::switchInputs</text>
</a>
</g>
</g>
<!-- Node1&#45;&gt;Node4 -->
<g id="edge3" class="edge">
<title>Node1&#45;&gt;Node4</title>
<path fill="none" stroke="midnightblue" d="M129.3,-148.43C146.76,-143.61 166.18,-138.3 184,-133.5 192.89,-131.11 202.25,-128.61 211.5,-126.16"/>
<polygon fill="midnightblue" stroke="midnightblue" points="212.68,-129.47 221.45,-123.53 210.89,-122.7 212.68,-129.47"/>
</g>
<!-- Node5 -->
<g id="node5" class="node">
<title>Node5</title>
<g id="a_node5"><a xlink:href="class_csa_pid_ctrl_switcher_on_state_space.html#a7c4eea8670068433e8b7584151b605a2" target="_top" xlink:title=" ">
<polygon fill="white" stroke="black" points="413.5,-142.5 413.5,-172.5 561.5,-172.5 561.5,-142.5 413.5,-142.5"/>
<text text-anchor="start" x="421.5" y="-160.5" font-family="Helvetica,sans-Serif" font-size="10.00">CsaPidCtrlSwitcherOnState</text>
<text text-anchor="middle" x="487.5" y="-149.5" font-family="Helvetica,sans-Serif" font-size="10.00">Space::rampingController</text>
</a>
</g>
</g>
<!-- Node4&#45;&gt;Node5 -->
<g id="edge4" class="edge">
<title>Node4&#45;&gt;Node5</title>
<path fill="none" stroke="midnightblue" d="M344.05,-123.53C366.05,-128.78 390.91,-134.71 413.63,-140.13"/>
<polygon fill="midnightblue" stroke="midnightblue" points="413.03,-143.58 423.57,-142.49 414.65,-136.77 413.03,-143.58"/>
</g>
<!-- Node6 -->
<g id="node6" class="node">
<title>Node6</title>
<g id="a_node6"><a xlink:href="class_csa_pid_ctrl_switcher_on_state_space.html#a4637fafa771a677454b36306a92358a9" target="_top" xlink:title=" ">
<polygon fill="white" stroke="black" points="412,-93.5 412,-123.5 563,-123.5 563,-93.5 412,-93.5"/>
<text text-anchor="start" x="420" y="-111.5" font-family="Helvetica,sans-Serif" font-size="10.00">CsaPidCtrlSwitcherOnState</text>
<text text-anchor="middle" x="487.5" y="-100.5" font-family="Helvetica,sans-Serif" font-size="10.00">Space::switchInputsInternal</text>
</a>
</g>
</g>
<!-- Node4&#45;&gt;Node6 -->
<g id="edge5" class="edge">
<title>Node4&#45;&gt;Node6</title>
<path fill="none" stroke="midnightblue" d="M354.03,-108.5C369.46,-108.5 385.86,-108.5 401.68,-108.5"/>
<polygon fill="midnightblue" stroke="midnightblue" points="401.97,-112 411.97,-108.5 401.97,-105 401.97,-112"/>
</g>
<!-- Node14 -->
<g id="node14" class="node">
<title>Node14</title>
<g id="a_node14"><a xlink:href="class_csa_pid_ctrl_switcher_on_state_space.html#a093f6abd849fb10323e1254468bb727b" target="_top" xlink:title=" ">
<polygon fill="white" stroke="black" points="413.5,-44.5 413.5,-74.5 561.5,-74.5 561.5,-44.5 413.5,-44.5"/>
<text text-anchor="start" x="421.5" y="-62.5" font-family="Helvetica,sans-Serif" font-size="10.00">CsaPidCtrlSwitcherOnState</text>
<text text-anchor="middle" x="487.5" y="-51.5" font-family="Helvetica,sans-Serif" font-size="10.00">Space::validateLock</text>
</a>
</g>
</g>
<!-- Node4&#45;&gt;Node14 -->
<g id="edge14" class="edge">
<title>Node4&#45;&gt;Node14</title>
<path fill="none" stroke="midnightblue" d="M344.05,-93.47C366.05,-88.22 390.91,-82.29 413.63,-76.87"/>
<polygon fill="midnightblue" stroke="midnightblue" points="414.65,-80.23 423.57,-74.51 413.03,-73.42 414.65,-80.23"/>
</g>
<!-- Node7 -->
<g id="node7" class="node">
<title>Node7</title>
<g id="a_node7"><a xlink:href="class_csa_pid_ctrl_switcher_on_state_space.html#abfba2159cbb6a3cbabdc976186c35264" target="_top" xlink:title=" ">
<polygon fill="white" stroke="black" points="599,-186.5 599,-216.5 765,-216.5 765,-186.5 599,-186.5"/>
<text text-anchor="start" x="607" y="-204.5" font-family="Helvetica,sans-Serif" font-size="10.00">CsaPidCtrlSwitcherOnState</text>
<text text-anchor="middle" x="682" y="-193.5" font-family="Helvetica,sans-Serif" font-size="10.00">Space::checkIfControllerActive</text>
</a>
</g>
</g>
<!-- Node6&#45;&gt;Node7 -->
<g id="edge6" class="edge">
<title>Node6&#45;&gt;Node7</title>
<path fill="none" stroke="midnightblue" d="M545.07,-123.65C551.38,-126.44 557.5,-129.7 563,-133.5 583.79,-147.86 577.93,-163.55 599,-177.5 601.43,-179.11 603.98,-180.62 606.6,-182.03"/>
<polygon fill="midnightblue" stroke="midnightblue" points="605.26,-185.26 615.79,-186.44 608.29,-178.95 605.26,-185.26"/>
</g>
<!-- Node8 -->
<g id="node8" class="node">
<title>Node8</title>
<g id="a_node8"><a xlink:href="class_csa_pid_ctrl_switcher_on_state_space.html#a04cda38c141da8f0038d7b6d6dfe2c1d" target="_top" xlink:title=" ">
<polygon fill="white" stroke="black" points="608,-137.5 608,-167.5 756,-167.5 756,-137.5 608,-137.5"/>
<text text-anchor="start" x="616" y="-155.5" font-family="Helvetica,sans-Serif" font-size="10.00">CsaPidCtrlSwitcherOnState</text>
<text text-anchor="middle" x="682" y="-144.5" font-family="Helvetica,sans-Serif" font-size="10.00">Space::enableStage</text>
</a>
</g>
</g>
<!-- Node6&#45;&gt;Node8 -->
<g id="edge7" class="edge">
<title>Node6&#45;&gt;Node8</title>
<path fill="none" stroke="midnightblue" d="M554.21,-123.52C570.69,-127.29 588.5,-131.36 605.42,-135.22"/>
<polygon fill="midnightblue" stroke="midnightblue" points="604.73,-138.66 615.26,-137.47 606.29,-131.83 604.73,-138.66"/>
</g>
<!-- Node11 -->
<g id="node11" class="node">
<title>Node11</title>
<g id="a_node11"><a xlink:href="class_csa_pid_ctrl_switcher_on_state_space.html#a0ae48750b199d2b3f904489c9754f8cd" target="_top" xlink:title=" ">
<polygon fill="white" stroke="black" points="1014,-115.5 1014,-145.5 1162,-145.5 1162,-115.5 1014,-115.5"/>
<text text-anchor="start" x="1022" y="-133.5" font-family="Helvetica,sans-Serif" font-size="10.00">CsaPidCtrlSwitcherOnState</text>
<text text-anchor="middle" x="1088" y="-122.5" font-family="Helvetica,sans-Serif" font-size="10.00">Space::getLockType</text>
</a>
</g>
</g>
<!-- Node6&#45;&gt;Node11 -->
<g id="edge11" class="edge">
<title>Node6&#45;&gt;Node11</title>
<path fill="none" stroke="midnightblue" d="M563.09,-111.24C675.18,-115.36 886.37,-123.13 1003.48,-127.43"/>
<polygon fill="midnightblue" stroke="midnightblue" points="1003.7,-130.94 1013.82,-127.81 1003.95,-123.94 1003.7,-130.94"/>
</g>
<!-- Node12 -->
<g id="node12" class="node">
<title>Node12</title>
<g id="a_node12"><a xlink:href="class_csa_pid_ctrl_switcher_on_state_space.html#a7252927b0a202566fc8cf572c8702a50" target="_top" xlink:title=" ">
<polygon fill="white" stroke="black" points="608,-49.5 608,-79.5 756,-79.5 756,-49.5 608,-49.5"/>
<text text-anchor="start" x="616" y="-67.5" font-family="Helvetica,sans-Serif" font-size="10.00">CsaPidCtrlSwitcherOnState</text>
<text text-anchor="middle" x="682" y="-56.5" font-family="Helvetica,sans-Serif" font-size="10.00">Space::isStageLockable</text>
</a>
</g>
</g>
<!-- Node6&#45;&gt;Node12 -->
<g id="edge12" class="edge">
<title>Node6&#45;&gt;Node12</title>
<path fill="none" stroke="midnightblue" d="M554.21,-93.48C570.69,-89.71 588.5,-85.64 605.42,-81.78"/>
<polygon fill="midnightblue" stroke="midnightblue" points="606.29,-85.17 615.26,-79.53 604.73,-78.34 606.29,-85.17"/>
</g>
<!-- Node13 -->
<g id="node13" class="node">
<title>Node13</title>
<g id="a_node13"><a xlink:href="class_csa_pid_ctrl_switcher_on_state_space.html#af425835747c420e81702d31849c2905c" target="_top" xlink:title=" ">
<polygon fill="white" stroke="black" points="604,-0.5 604,-30.5 760,-30.5 760,-0.5 604,-0.5"/>
<text text-anchor="start" x="612" y="-18.5" font-family="Helvetica,sans-Serif" font-size="10.00">CsaPidCtrlSwitcherOnState</text>
<text text-anchor="middle" x="682" y="-7.5" font-family="Helvetica,sans-Serif" font-size="10.00">Space::waitForNewDmaData</text>
</a>
</g>
</g>
<!-- Node6&#45;&gt;Node13 -->
<g id="edge13" class="edge">
<title>Node6&#45;&gt;Node13</title>
<path fill="none" stroke="midnightblue" d="M547.03,-93.37C552.65,-90.83 558.08,-87.89 563,-84.5 584.08,-69.96 577.72,-53.76 599,-39.5 601.43,-37.87 603.96,-36.36 606.58,-34.94"/>
<polygon fill="midnightblue" stroke="midnightblue" points="608.27,-38.01 615.75,-30.5 605.22,-31.71 608.27,-38.01"/>
</g>
<!-- Node9 -->
<g id="node9" class="node">
<title>Node9</title>
<g id="a_node9"><a xlink:href="class_csa_pid_ctrl_switcher_on_state_space.html#abbdc29f1ef24d07d67b9d43b1f02a895" target="_top" xlink:title=" ">
<polygon fill="white" stroke="black" points="815.5,-186.5 815.5,-216.5 963.5,-216.5 963.5,-186.5 815.5,-186.5"/>
<text text-anchor="start" x="823.5" y="-204.5" font-family="Helvetica,sans-Serif" font-size="10.00">CsaPidCtrlSwitcherOnState</text>
<text text-anchor="middle" x="889.5" y="-193.5" font-family="Helvetica,sans-Serif" font-size="10.00">Space::enableStageDelay</text>
</a>
</g>
</g>
<!-- Node8&#45;&gt;Node9 -->
<g id="edge8" class="edge">
<title>Node8&#45;&gt;Node9</title>
<path fill="none" stroke="midnightblue" d="M746.05,-167.53C768.05,-172.78 792.91,-178.71 815.63,-184.13"/>
<polygon fill="midnightblue" stroke="midnightblue" points="815.03,-187.58 825.57,-186.49 816.65,-180.77 815.03,-187.58"/>
</g>
<!-- Node10 -->
<g id="node10" class="node">
<title>Node10</title>
<g id="a_node10"><a xlink:href="class_csa_pid_ctrl_switcher_on_state_space.html#aa345b853f5ced9e2b8f1e2dd956f035d" target="_top" xlink:title=" ">
<polygon fill="white" stroke="black" points="801,-137.5 801,-167.5 978,-167.5 978,-137.5 801,-137.5"/>
<text text-anchor="start" x="809" y="-155.5" font-family="Helvetica,sans-Serif" font-size="10.00">CsaPidCtrlSwitcherOnState</text>
<text text-anchor="middle" x="889.5" y="-144.5" font-family="Helvetica,sans-Serif" font-size="10.00">Space::recalibrateForRfHarmonic</text>
</a>
</g>
</g>
<!-- Node8&#45;&gt;Node10 -->
<g id="edge9" class="edge">
<title>Node8&#45;&gt;Node10</title>
<path fill="none" stroke="midnightblue" d="M756.03,-152.5C767.27,-152.5 779.03,-152.5 790.71,-152.5"/>
<polygon fill="midnightblue" stroke="midnightblue" points="790.94,-156 800.94,-152.5 790.94,-149 790.94,-156"/>
</g>
<!-- Node10&#45;&gt;Node11 -->
<g id="edge10" class="edge">
<title>Node10&#45;&gt;Node11</title>
<path fill="none" stroke="midnightblue" d="M978.12,-142.69C986.72,-141.73 995.44,-140.75 1004,-139.79"/>
<polygon fill="midnightblue" stroke="midnightblue" points="1004.41,-143.27 1013.96,-138.68 1003.63,-136.31 1004.41,-143.27"/>
</g>
</g>
</svg>
        <g id="navigator" transform="translate(0 0)" fill="#404254">
                <rect fill="#f2f5e9" fill-opacity="0.5" stroke="#606060" stroke-width=".5" x="0" y="0" width="60" height="60"/>
                <use id="zoomplus" xlink:href="#zoomPlus" x="17" y="9" onmousedown="handleZoom(evt,'in')"/>
                <use id="zoomminus" xlink:href="#zoomMin" x="42" y="9" onmousedown="handleZoom(evt,'out')"/>
                <use id="reset" xlink:href="#resetDef" x="30" y="36" onmousedown="handleReset()"/>
                <g id="arrowUp" xlink:href="#dirArrow" transform="translate(30 24)" onmousedown="handlePan(0,-1)">
                  <use xlink:href="#rim" fill="#404040">
                        <set attributeName="fill" to="#808080" begin="arrowUp.mouseover" end="arrowUp.mouseout"/>
                  </use>
                  <path fill="none" stroke="white" stroke-width="1.5" d="M0,-3.0v7 M-2.5,-0.5L0,-3.0L2.5,-0.5"/>
                </g>
                <g id="arrowRight" xlink:href="#dirArrow" transform="rotate(90) translate(36 -43)" onmousedown="handlePan(1,0)">
                  <use xlink:href="#rim" fill="#404040">
                        <set attributeName="fill" to="#808080" begin="arrowRight.mouseover" end="arrowRight.mouseout"/>
                  </use>
                  <path fill="none" stroke="white" stroke-width="1.5" d="M0,-3.0v7 M-2.5,-0.5L0,-3.0L2.5,-0.5"/>
                </g>
                <g id="arrowDown" xlink:href="#dirArrow" transform="rotate(180) translate(-30 -48)" onmousedown="handlePan(0,1)">
                  <use xlink:href="#rim" fill="#404040">
                        <set attributeName="fill" to="#808080" begin="arrowDown.mouseover" end="arrowDown.mouseout"/>
                  </use>
                  <path fill="none" stroke="white" stroke-width="1.5" d="M0,-3.0v7 M-2.5,-0.5L0,-3.0L2.5,-0.5"/>
                </g>
                <g id="arrowLeft" xlink:href="#dirArrow" transform="rotate(270) translate(-36 17)" onmousedown="handlePan(-1,0)">
                  <use xlink:href="#rim" fill="#404040">
                        <set attributeName="fill" to="#808080" begin="arrowLeft.mouseover" end="arrowLeft.mouseout"/>
                  </use>
                  <path fill="none" stroke="white" stroke-width="1.5" d="M0,-3.0v7 M-2.5,-0.5L0,-3.0L2.5,-0.5"/>
                </g>
        </g>
        <svg viewBox="0 0 15 15" width="100%" height="30px" preserveAspectRatio="xMaxYMin meet">
         <g id="arrow_out" transform="scale(0.3 0.3)">
          <a xlink:href="class_csa_pid_ctrl_switcher_on_state_space_a4c4194b67d0551d4d4987908c3f33020_cgraph_org.svg" target="_base">
           <rect id="button" ry="5" rx="5" y="6" x="6" height="38" width="38"
                fill="#f2f5e9" fill-opacity="0.5" stroke="#606060" stroke-width="1.0"/>
           <path id="arrow"
             d="M 11.500037,31.436501 C 11.940474,20.09759 22.043105,11.32322 32.158766,21.979434 L 37.068811,17.246167 C 37.068811,17.246167 37.088388,32 37.088388,32 L 22.160133,31.978069 C 22.160133,31.978069 26.997745,27.140456 26.997745,27.140456 C 18.528582,18.264221 13.291696,25.230495 11.500037,31.436501 z"
             style="fill:#404040;"/>
          </a>
         </g>
        </svg>
</svg>
