<?xml version="1.0" encoding="UTF-8" standalone="no"?>
<!DOCTYPE svg PUBLIC "-//W3C//DTD SVG 1.1//EN"
 "http://www.w3.org/Graphics/SVG/1.1/DTD/svg11.dtd">
<!-- Generated by graphviz version 2.43.0 (0)
 -->
<!-- Title: ChimeraTK::EpicsBackendRegisterAccessor&lt; EpicsBaseType, EpicsType, CTKType &gt; Pages: 1 -->
<!--zoomable 219 -->
<svg id="main" version="1.1" xmlns="http://www.w3.org/2000/svg" xmlns:xlink="http://www.w3.org/1999/xlink" xml:space="preserve" onload="init(evt)">
<style type="text/css"><![CDATA[
.edge:hover path { stroke: red; }
.edge:hover polygon { stroke: red; fill: red; }
]]></style>
<script type="text/javascript"><![CDATA[
var edges = document.getElementsByTagName('g');
if (edges && edges.length) {
  for (var i=0;i<edges.length;i++) {
    if (edges[i].id.substr(0,4)=='edge') {
      edges[i].setAttribute('class','edge');
    }
  }
}
]]></script>
        <defs>
                <circle id="rim" cx="0" cy="0" r="7"/>
                <circle id="rim2" cx="0" cy="0" r="3.5"/>
                <g id="zoomPlus">
                        <use xlink:href="#rim" fill="#404040">
                                <set attributeName="fill" to="#808080" begin="zoomplus.mouseover" end="zoomplus.mouseout"/>
                        </use>
                        <path d="M-4,0h8M0,-4v8" fill="none" stroke="white" stroke-width="1.5" pointer-events="none"/>
                </g>
                <g id="zoomMin">
                        <use xlink:href="#rim" fill="#404040">
                                <set attributeName="fill" to="#808080" begin="zoomminus.mouseover" end="zoomminus.mouseout"/>
                        </use>
                        <path d="M-4,0h8" fill="none" stroke="white" stroke-width="1.5" pointer-events="none"/>
                </g>
                <g id="dirArrow">
                        <path fill="none" stroke="white" stroke-width="1.5" d="M0,-3.0v7 M-2.5,-0.5L0,-3.0L2.5,-0.5"/>
                </g>
               <g id="resetDef">
                       <use xlink:href="#rim2" fill="#404040">
                               <set attributeName="fill" to="#808080" begin="reset.mouseover" end="reset.mouseout"/>
                       </use>
               </g>
        </defs>

<script type="text/javascript">
var viewWidth = 1230;
var viewHeight = 219;
var sectionId = 'dynsection-1';
</script>
<script xlink:href="svgpan.js"/>
<svg id="graph" class="graph">
<g id="viewport">
<title>ChimeraTK::EpicsBackendRegisterAccessor&lt; EpicsBaseType, EpicsType, CTKType &gt;</title>
<polygon fill="white" stroke="transparent" points="-4,4 -4,-215 1226,-215 1226,4 -4,4"/>
<!-- Node1 -->
<g id="node1" class="node">
<title>Node1</title>
<g id="a_node1"><a xlink:title=" ">
<polygon fill="#bfbfbf" stroke="black" points="1022,-101.5 1022,-142.5 1222,-142.5 1222,-101.5 1022,-101.5"/>
<text text-anchor="start" x="1030" y="-130.5" font-family="Helvetica,sans-Serif" font-size="10.00">ChimeraTK::EpicsBackendRegister</text>
<text text-anchor="start" x="1030" y="-119.5" font-family="Helvetica,sans-Serif" font-size="10.00">Accessor&lt; EpicsBaseType, EpicsType,</text>
<text text-anchor="middle" x="1122" y="-108.5" font-family="Helvetica,sans-Serif" font-size="10.00"> CTKType &gt;</text>
</a>
</g>
</g>
<!-- Node2 -->
<g id="node2" class="node">
<title>Node2</title>
<g id="a_node2"><a xlink:href="class_chimera_t_k_1_1_epics_backend_register_accessor_base.html" target="_top" xlink:title=" ">
<polygon fill="white" stroke="black" points="757,-170 757,-200 941,-200 941,-170 757,-170"/>
<text text-anchor="start" x="765" y="-188" font-family="Helvetica,sans-Serif" font-size="10.00">ChimeraTK::EpicsBackendRegister</text>
<text text-anchor="middle" x="849" y="-177" font-family="Helvetica,sans-Serif" font-size="10.00">AccessorBase</text>
</a>
</g>
</g>
<!-- Node2&#45;&gt;Node1 -->
<g id="edge1" class="edge">
<title>Node2&#45;&gt;Node1</title>
<path fill="none" stroke="midnightblue" d="M924.72,-167.63C958.12,-159.87 997.73,-150.66 1032.59,-142.55"/>
<polygon fill="midnightblue" stroke="midnightblue" points="923.51,-164.32 914.57,-169.99 925.1,-171.13 923.51,-164.32"/>
</g>
<!-- Node3 -->
<g id="node3" class="node">
<title>Node3</title>
<g id="a_node3"><a xlink:href="struct_chimera_t_k_1_1_epics_backend_register_info.html" target="_top" xlink:title=" ">
<polygon fill="white" stroke="black" points="367,-175.5 367,-194.5 570,-194.5 570,-175.5 367,-175.5"/>
<text text-anchor="middle" x="468.5" y="-182.5" font-family="Helvetica,sans-Serif" font-size="10.00">ChimeraTK::EpicsBackendRegisterInfo</text>
</a>
</g>
</g>
<!-- Node3&#45;&gt;Node2 -->
<g id="edge2" class="edge">
<title>Node3&#45;&gt;Node2</title>
<path fill="none" stroke="#9a32cd" stroke-dasharray="5,2" d="M580.76,-185C636.76,-185 703.8,-185 756.73,-185"/>
<polygon fill="#9a32cd" stroke="#9a32cd" points="580.43,-181.5 570.43,-185 580.43,-188.5 580.43,-181.5"/>
<text text-anchor="middle" x="660.5" y="-188" font-family="Helvetica,sans-Serif" font-size="10.00"> _info</text>
</g>
<!-- Node4 -->
<g id="node4" class="node">
<title>Node4</title>
<g id="a_node4"><a xlink:title=" ">
<polygon fill="white" stroke="#bfbfbf" points="141,-191.5 141,-210.5 282,-210.5 282,-191.5 141,-191.5"/>
<text text-anchor="middle" x="211.5" y="-198.5" font-family="Helvetica,sans-Serif" font-size="10.00">BackendRegisterInfoBase</text>
</a>
</g>
</g>
<!-- Node4&#45;&gt;Node3 -->
<g id="edge3" class="edge">
<title>Node4&#45;&gt;Node3</title>
<path fill="none" stroke="midnightblue" d="M292.47,-195.98C316.04,-194.5 342.14,-192.87 366.83,-191.32"/>
<polygon fill="midnightblue" stroke="midnightblue" points="291.94,-192.51 282.18,-196.63 292.38,-199.49 291.94,-192.51"/>
</g>
<!-- Node5 -->
<g id="node5" class="node">
<title>Node5</title>
<g id="a_node5"><a xlink:title="STL class.">
<polygon fill="white" stroke="#bfbfbf" points="179,-153.5 179,-172.5 244,-172.5 244,-153.5 179,-153.5"/>
<text text-anchor="middle" x="211.5" y="-160.5" font-family="Helvetica,sans-Serif" font-size="10.00">std::string</text>
</a>
</g>
</g>
<!-- Node5&#45;&gt;Node3 -->
<g id="edge4" class="edge">
<title>Node5&#45;&gt;Node3</title>
<path fill="none" stroke="#9a32cd" stroke-dasharray="5,2" d="M254.3,-166.61C284.89,-169.25 327.72,-172.94 366.98,-176.33"/>
<polygon fill="#9a32cd" stroke="#9a32cd" points="254.29,-163.09 244.02,-165.72 253.69,-170.07 254.29,-163.09"/>
<text text-anchor="middle" x="324.5" y="-177" font-family="Helvetica,sans-Serif" font-size="10.00"> _caName</text>
</g>
<!-- Node6 -->
<g id="node6" class="node">
<title>Node6</title>
<g id="a_node6"><a xlink:title="STL class.">
<polygon fill="white" stroke="#bfbfbf" points="0,-148 0,-178 104,-178 104,-148 0,-148"/>
<text text-anchor="start" x="8" y="-166" font-family="Helvetica,sans-Serif" font-size="10.00">std::basic_string&lt;</text>
<text text-anchor="middle" x="52" y="-155" font-family="Helvetica,sans-Serif" font-size="10.00"> char &gt;</text>
</a>
</g>
</g>
<!-- Node6&#45;&gt;Node5 -->
<g id="edge5" class="edge">
<title>Node6&#45;&gt;Node5</title>
<path fill="none" stroke="midnightblue" d="M114.43,-163C136.47,-163 160.4,-163 178.87,-163"/>
<polygon fill="midnightblue" stroke="midnightblue" points="114.14,-159.5 104.14,-163 114.14,-166.5 114.14,-159.5"/>
</g>
<!-- Node7 -->
<g id="node7" class="node">
<title>Node7</title>
<g id="a_node7"><a xlink:title=" ">
<polygon fill="white" stroke="#bfbfbf" points="791,-121 791,-151 907,-151 907,-121 791,-121"/>
<text text-anchor="start" x="799" y="-139" font-family="Helvetica,sans-Serif" font-size="10.00">NDRegisterAccessor</text>
<text text-anchor="middle" x="849" y="-128" font-family="Helvetica,sans-Serif" font-size="10.00">&lt; CTKType &gt;</text>
</a>
</g>
</g>
<!-- Node7&#45;&gt;Node1 -->
<g id="edge6" class="edge">
<title>Node7&#45;&gt;Node1</title>
<path fill="none" stroke="midnightblue" d="M917.14,-132.53C948.69,-130.9 986.95,-128.92 1021.76,-127.13"/>
<polygon fill="midnightblue" stroke="midnightblue" points="916.95,-129.04 907.14,-133.05 917.31,-136.03 916.95,-129.04"/>
</g>
<!-- Node8 -->
<g id="node8" class="node">
<title>Node8</title>
<g id="a_node8"><a xlink:href="class_chimera_t_k_1_1_epics_range_checking_data_converter.html" target="_top" xlink:title=" ">
<polygon fill="white" stroke="black" points="760,-60.5 760,-101.5 938,-101.5 938,-60.5 760,-60.5"/>
<text text-anchor="start" x="768" y="-89.5" font-family="Helvetica,sans-Serif" font-size="10.00">ChimeraTK::EpicsRangeChecking</text>
<text text-anchor="start" x="768" y="-78.5" font-family="Helvetica,sans-Serif" font-size="10.00">DataConverter&lt; EpicsBaseType,</text>
<text text-anchor="middle" x="849" y="-67.5" font-family="Helvetica,sans-Serif" font-size="10.00"> CTKType &gt;</text>
</a>
</g>
</g>
<!-- Node8&#45;&gt;Node1 -->
<g id="edge7" class="edge">
<title>Node8&#45;&gt;Node1</title>
<path fill="none" stroke="#9a32cd" stroke-dasharray="5,2" d="M948.5,-95.9C972.43,-99.52 998.02,-103.39 1021.97,-107.02"/>
<polygon fill="#9a32cd" stroke="#9a32cd" points="948.77,-92.4 938.36,-94.37 947.72,-99.32 948.77,-92.4"/>
<text text-anchor="middle" x="984.5" y="-106" font-family="Helvetica,sans-Serif" font-size="10.00"> toEpics</text>
</g>
<!-- Node9 -->
<g id="node9" class="node">
<title>Node9</title>
<g id="a_node9"><a xlink:href="class_chimera_t_k_1_1_epics_range_checking_data_converter.html" target="_top" xlink:title=" ">
<polygon fill="white" stroke="black" points="379.5,-27.5 379.5,-68.5 557.5,-68.5 557.5,-27.5 379.5,-27.5"/>
<text text-anchor="start" x="387.5" y="-56.5" font-family="Helvetica,sans-Serif" font-size="10.00">ChimeraTK::EpicsRangeChecking</text>
<text text-anchor="start" x="387.5" y="-45.5" font-family="Helvetica,sans-Serif" font-size="10.00">DataConverter&lt; DestType,</text>
<text text-anchor="middle" x="468.5" y="-34.5" font-family="Helvetica,sans-Serif" font-size="10.00"> SourceType &gt;</text>
</a>
</g>
</g>
<!-- Node9&#45;&gt;Node8 -->
<g id="edge8" class="edge">
<title>Node9&#45;&gt;Node8</title>
<path fill="none" stroke="orange" stroke-dasharray="5,2" d="M567.92,-56.58C627.35,-61.76 702.45,-68.31 759.92,-73.32"/>
<polygon fill="orange" stroke="orange" points="568.03,-53.08 557.76,-55.7 567.42,-60.05 568.03,-53.08"/>
<text text-anchor="middle" x="660.5" y="-74" font-family="Helvetica,sans-Serif" font-size="10.00"> &lt; EpicsBaseType, CTKType &gt;</text>
</g>
<!-- Node10 -->
<g id="node10" class="node">
<title>Node10</title>
<g id="a_node10"><a xlink:href="class_chimera_t_k_1_1_epics_range_checking_data_converter.html" target="_top" xlink:title=" ">
<polygon fill="white" stroke="black" points="751,-0.5 751,-41.5 947,-41.5 947,-0.5 751,-0.5"/>
<text text-anchor="start" x="759" y="-29.5" font-family="Helvetica,sans-Serif" font-size="10.00">ChimeraTK::EpicsRangeChecking</text>
<text text-anchor="start" x="759" y="-18.5" font-family="Helvetica,sans-Serif" font-size="10.00">DataConverter&lt; CTKType, EpicsBase</text>
<text text-anchor="middle" x="849" y="-7.5" font-family="Helvetica,sans-Serif" font-size="10.00">Type &gt;</text>
</a>
</g>
</g>
<!-- Node9&#45;&gt;Node10 -->
<g id="edge10" class="edge">
<title>Node9&#45;&gt;Node10</title>
<path fill="none" stroke="orange" stroke-dasharray="5,2" d="M567.8,-36.79C574.63,-36.14 581.42,-35.54 588,-35 641.84,-30.6 702.07,-27.26 750.99,-24.94"/>
<polygon fill="orange" stroke="orange" points="567.39,-33.32 557.78,-37.77 568.07,-40.28 567.39,-33.32"/>
<text text-anchor="middle" x="660.5" y="-38" font-family="Helvetica,sans-Serif" font-size="10.00"> &lt; CTKType, EpicsBaseType &gt;</text>
</g>
<!-- Node10&#45;&gt;Node1 -->
<g id="edge9" class="edge">
<title>Node10&#45;&gt;Node1</title>
<path fill="none" stroke="#9a32cd" stroke-dasharray="5,2" d="M928.84,-44.75C935.01,-46.8 941.12,-48.9 947,-51 990.47,-66.56 1039.04,-86.61 1073.8,-101.43"/>
<polygon fill="#9a32cd" stroke="#9a32cd" points="929.73,-41.35 919.13,-41.57 927.55,-48.01 929.73,-41.35"/>
<text text-anchor="middle" x="984.5" y="-75" font-family="Helvetica,sans-Serif" font-size="10.00"> toCTK</text>
</g>
</g>
</svg>
        <g id="navigator" transform="translate(0 0)" fill="#404254">
                <rect fill="#f2f5e9" fill-opacity="0.5" stroke="#606060" stroke-width=".5" x="0" y="0" width="60" height="60"/>
                <use id="zoomplus" xlink:href="#zoomPlus" x="17" y="9" onmousedown="handleZoom(evt,'in')"/>
                <use id="zoomminus" xlink:href="#zoomMin" x="42" y="9" onmousedown="handleZoom(evt,'out')"/>
                <use id="reset" xlink:href="#resetDef" x="30" y="36" onmousedown="handleReset()"/>
                <g id="arrowUp" xlink:href="#dirArrow" transform="translate(30 24)" onmousedown="handlePan(0,-1)">
                  <use xlink:href="#rim" fill="#404040">
                        <set attributeName="fill" to="#808080" begin="arrowUp.mouseover" end="arrowUp.mouseout"/>
                  </use>
                  <path fill="none" stroke="white" stroke-width="1.5" d="M0,-3.0v7 M-2.5,-0.5L0,-3.0L2.5,-0.5"/>
                </g>
                <g id="arrowRight" xlink:href="#dirArrow" transform="rotate(90) translate(36 -43)" onmousedown="handlePan(1,0)">
                  <use xlink:href="#rim" fill="#404040">
                        <set attributeName="fill" to="#808080" begin="arrowRight.mouseover" end="arrowRight.mouseout"/>
                  </use>
                  <path fill="none" stroke="white" stroke-width="1.5" d="M0,-3.0v7 M-2.5,-0.5L0,-3.0L2.5,-0.5"/>
                </g>
                <g id="arrowDown" xlink:href="#dirArrow" transform="rotate(180) translate(-30 -48)" onmousedown="handlePan(0,1)">
                  <use xlink:href="#rim" fill="#404040">
                        <set attributeName="fill" to="#808080" begin="arrowDown.mouseover" end="arrowDown.mouseout"/>
                  </use>
                  <path fill="none" stroke="white" stroke-width="1.5" d="M0,-3.0v7 M-2.5,-0.5L0,-3.0L2.5,-0.5"/>
                </g>
                <g id="arrowLeft" xlink:href="#dirArrow" transform="rotate(270) translate(-36 17)" onmousedown="handlePan(-1,0)">
                  <use xlink:href="#rim" fill="#404040">
                        <set attributeName="fill" to="#808080" begin="arrowLeft.mouseover" end="arrowLeft.mouseout"/>
                  </use>
                  <path fill="none" stroke="white" stroke-width="1.5" d="M0,-3.0v7 M-2.5,-0.5L0,-3.0L2.5,-0.5"/>
                </g>
        </g>
        <svg viewBox="0 0 15 15" width="100%" height="30px" preserveAspectRatio="xMaxYMin meet">
         <g id="arrow_out" transform="scale(0.3 0.3)">
          <a xlink:href="class_chimera_t_k_1_1_epics_backend_register_accessor__coll__graph_org.svg" target="_base">
           <rect id="button" ry="5" rx="5" y="6" x="6" height="38" width="38"
                fill="#f2f5e9" fill-opacity="0.5" stroke="#606060" stroke-width="1.0"/>
           <path id="arrow"
             d="M 11.500037,31.436501 C 11.940474,20.09759 22.043105,11.32322 32.158766,21.979434 L 37.068811,17.246167 C 37.068811,17.246167 37.088388,32 37.088388,32 L 22.160133,31.978069 C 22.160133,31.978069 26.997745,27.140456 26.997745,27.140456 C 18.528582,18.264221 13.291696,25.230495 11.500037,31.436501 z"
             style="fill:#404040;"/>
          </a>
         </g>
        </svg>
</svg>
