<?xml version="1.0" encoding="UTF-8" standalone="no"?>
<!DOCTYPE svg PUBLIC "-//W3C//DTD SVG 1.1//EN"
 "http://www.w3.org/Graphics/SVG/1.1/DTD/svg11.dtd">
<!-- Generated by graphviz version 2.40.1 (20161225.0304)
 -->
<!-- Title: device_backends/Subdevice/include/SubdeviceBackend.h Pages: 1 -->
<svg width="462pt" height="95pt"
 viewBox="0.00 0.00 462.00 95.00" xmlns="http://www.w3.org/2000/svg" xmlns:xlink="http://www.w3.org/1999/xlink">
<g id="graph0" class="graph" transform="scale(1 1) rotate(0) translate(4 91)">
<title>device_backends/Subdevice/include/SubdeviceBackend.h</title>
<polygon fill="#ffffff" stroke="transparent" points="-4,4 -4,-91 458,-91 458,4 -4,4"/>
<!-- Node0 -->
<g id="node1" class="node">
<title>Node0</title>
<polygon fill="#bfbfbf" stroke="#000000" points="112,-56.5 112,-86.5 271,-86.5 271,-56.5 112,-56.5"/>
<text text-anchor="start" x="120" y="-74.5" font-family="Helvetica,sans-Serif" font-size="10.00" fill="#000000">device_backends/Subdevice</text>
<text text-anchor="middle" x="191.5" y="-63.5" font-family="Helvetica,sans-Serif" font-size="10.00" fill="#000000">/include/SubdeviceBackend.h</text>
</g>
<!-- Node1 -->
<g id="node2" class="node">
<title>Node1</title>
<polygon fill="#ffffff" stroke="#bfbfbf" points="0,-.5 0,-19.5 47,-19.5 47,-.5 0,-.5"/>
<text text-anchor="middle" x="23.5" y="-7.5" font-family="Helvetica,sans-Serif" font-size="10.00" fill="#000000">fcntl.h</text>
</g>
<!-- Node0&#45;&gt;Node1 -->
<g id="edge1" class="edge">
<title>Node0&#45;&gt;Node1</title>
<path fill="none" stroke="#191970" d="M150.4026,-56.4554C121.6329,-45.9237 83.6851,-32.0321 56.8036,-22.1915"/>
<polygon fill="#191970" stroke="#191970" points="57.6788,-18.7848 47.085,-18.6338 55.2724,-25.3582 57.6788,-18.7848"/>
</g>
<!-- Node2 -->
<g id="node3" class="node">
<title>Node2</title>
<polygon fill="#ffffff" stroke="#bfbfbf" points="65.5,-.5 65.5,-19.5 113.5,-19.5 113.5,-.5 65.5,-.5"/>
<text text-anchor="middle" x="89.5" y="-7.5" font-family="Helvetica,sans-Serif" font-size="10.00" fill="#000000">mutex</text>
</g>
<!-- Node0&#45;&gt;Node2 -->
<g id="edge2" class="edge">
<title>Node0&#45;&gt;Node2</title>
<path fill="none" stroke="#191970" d="M166.548,-56.4554C150.5741,-46.8241 129.9398,-34.3828 114.0457,-24.7996"/>
<polygon fill="#191970" stroke="#191970" points="115.6774,-21.6965 105.3064,-19.5303 112.063,-27.6912 115.6774,-21.6965"/>
</g>
<!-- Node3 -->
<g id="node4" class="node">
<title>Node3</title>
<polygon fill="#ffffff" stroke="#bfbfbf" points="132,-.5 132,-19.5 185,-19.5 185,-.5 132,-.5"/>
<text text-anchor="middle" x="158.5" y="-7.5" font-family="Helvetica,sans-Serif" font-size="10.00" fill="#000000">stdint.h</text>
</g>
<!-- Node0&#45;&gt;Node3 -->
<g id="edge3" class="edge">
<title>Node0&#45;&gt;Node3</title>
<path fill="none" stroke="#191970" d="M183.3427,-56.2977C178.9051,-48.0277 173.375,-37.7215 168.6596,-28.9339"/>
<polygon fill="#191970" stroke="#191970" points="171.596,-27.0037 163.7837,-19.8469 165.4279,-30.3134 171.596,-27.0037"/>
</g>
<!-- Node4 -->
<g id="node5" class="node">
<title>Node4</title>
<polygon fill="#ffffff" stroke="#bfbfbf" points="203.5,-.5 203.5,-19.5 247.5,-19.5 247.5,-.5 203.5,-.5"/>
<text text-anchor="middle" x="225.5" y="-7.5" font-family="Helvetica,sans-Serif" font-size="10.00" fill="#000000">string</text>
</g>
<!-- Node0&#45;&gt;Node4 -->
<g id="edge4" class="edge">
<title>Node0&#45;&gt;Node4</title>
<path fill="none" stroke="#191970" d="M199.9045,-56.2977C204.5257,-47.9388 210.2969,-37.4997 215.1889,-28.6509"/>
<polygon fill="#191970" stroke="#191970" points="218.2809,-30.292 220.0562,-19.8469 212.1548,-26.9051 218.2809,-30.292"/>
</g>
<!-- Node5 -->
<g id="node6" class="node">
<title>Node5</title>
<polygon fill="#ffffff" stroke="#bfbfbf" points="266,-.5 266,-19.5 313,-19.5 313,-.5 266,-.5"/>
<text text-anchor="middle" x="289.5" y="-7.5" font-family="Helvetica,sans-Serif" font-size="10.00" fill="#000000">vector</text>
</g>
<!-- Node0&#45;&gt;Node5 -->
<g id="edge5" class="edge">
<title>Node0&#45;&gt;Node5</title>
<path fill="none" stroke="#191970" d="M215.4735,-56.4554C230.6776,-46.9141 250.2759,-34.6151 265.4875,-25.0691"/>
<polygon fill="#191970" stroke="#191970" points="267.7037,-27.8105 274.3135,-19.5303 263.9828,-21.8813 267.7037,-27.8105"/>
</g>
<!-- Node6 -->
<g id="node7" class="node">
<title>Node6</title>
<polygon fill="#ffffff" stroke="#bfbfbf" points="331,-.5 331,-19.5 454,-19.5 454,-.5 331,-.5"/>
<text text-anchor="middle" x="392.5" y="-7.5" font-family="Helvetica,sans-Serif" font-size="10.00" fill="#000000">DeviceBackendImpl.h</text>
</g>
<!-- Node0&#45;&gt;Node6 -->
<g id="edge6" class="edge">
<title>Node0&#45;&gt;Node6</title>
<path fill="none" stroke="#191970" d="M240.6701,-56.4554C274.6488,-46.059 319.3281,-32.3884 351.4086,-22.5727"/>
<polygon fill="#191970" stroke="#191970" points="352.8138,-25.803 361.3521,-19.5303 350.7657,-19.1094 352.8138,-25.803"/>
</g>
</g>
</svg>
