<?xml version="1.0" encoding="UTF-8" standalone="no"?>
<!DOCTYPE svg PUBLIC "-//W3C//DTD SVG 1.1//EN"
 "http://www.w3.org/Graphics/SVG/1.1/DTD/svg11.dtd">
<!-- Generated by graphviz version 2.43.0 (0)
 -->
<!-- Title: /scratch/dragon/sources/AmtfDbAccess Pages: 1 -->
<svg width="360pt" height="183pt"
 viewBox="0.00 0.00 360.00 183.00" xmlns="http://www.w3.org/2000/svg" xmlns:xlink="http://www.w3.org/1999/xlink">
<g id="graph0" class="graph" transform="scale(1 1) rotate(0) translate(4 179)">
<title>/scratch/dragon/sources/AmtfDbAccess</title>
<polygon fill="white" stroke="transparent" points="-4,4 -4,-179 356,-179 356,4 -4,4"/>
<g id="clust1" class="cluster">
<title>clusterdir_08d237fc27d4ecd563f71c5d52f2fecc</title>
<g id="a_clust1"><a xlink:href="dir_08d237fc27d4ecd563f71c5d52f2fecc.html" target="_top" xlink:title="sources">
<polygon fill="#ddddee" stroke="black" points="8,-8 8,-167 344,-167 344,-8 8,-8"/>
<text text-anchor="middle" x="176" y="-155" font-family="Helvetica,sans-Serif" font-size="10.00">sources</text>
</a>
</g>
</g>
<g id="clust2" class="cluster">
<title>clusterdir_23b5124f55dce0492c338d0b708d147b</title>
<g id="a_clust2"><a xlink:href="dir_23b5124f55dce0492c338d0b708d147b.html" target="_top">
<polygon fill="#eeeeff" stroke="black" points="16,-16 16,-140 336,-140 336,-16 16,-16"/>
</a>
</g>
</g>
<!-- dir_23b5124f55dce0492c338d0b708d147b -->
<g id="node1" class="node">
<title>dir_23b5124f55dce0492c338d0b708d147b</title>
<text text-anchor="middle" x="284" y="-111.5" font-family="Helvetica,sans-Serif" font-size="10.00">AmtfDbAccess</text>
</g>
<!-- dir_14ba7153ad6d6ad68a0ea0024b113a5c -->
<g id="node2" class="node">
<title>dir_14ba7153ad6d6ad68a0ea0024b113a5c</title>
<g id="a_node2"><a xlink:href="dir_14ba7153ad6d6ad68a0ea0024b113a5c.html" target="_top" xlink:title="cmake">
<polygon fill="white" stroke="black" points="222,-132 168,-132 168,-96 222,-96 222,-132"/>
<text text-anchor="middle" x="195" y="-111.5" font-family="Helvetica,sans-Serif" font-size="10.00">cmake</text>
</a>
</g>
</g>
<!-- dir_70caa6488ae6ad33bee3702a1610fc42 -->
<g id="node3" class="node">
<title>dir_70caa6488ae6ad33bee3702a1610fc42</title>
<g id="a_node3"><a xlink:href="dir_70caa6488ae6ad33bee3702a1610fc42.html" target="_top" xlink:title="doc">
<polygon fill="white" stroke="black" points="150,-132 96,-132 96,-96 150,-96 150,-132"/>
<text text-anchor="middle" x="123" y="-111.5" font-family="Helvetica,sans-Serif" font-size="10.00">doc</text>
</a>
</g>
</g>
<!-- dir_8b6507e5da0b8a047921d8e5d7c2bd5a -->
<g id="node4" class="node">
<title>dir_8b6507e5da0b8a047921d8e5d7c2bd5a</title>
<g id="a_node4"><a xlink:href="dir_8b6507e5da0b8a047921d8e5d7c2bd5a.html" target="_top" xlink:title="include">
<polygon fill="white" stroke="black" points="78,-60 24,-60 24,-24 78,-24 78,-60"/>
<text text-anchor="middle" x="51" y="-39.5" font-family="Helvetica,sans-Serif" font-size="10.00">include</text>
</a>
</g>
</g>
<!-- dir_92f8cbd05ac6ac5c8f30f64e605cb01f -->
<g id="node5" class="node">
<title>dir_92f8cbd05ac6ac5c8f30f64e605cb01f</title>
<g id="a_node5"><a xlink:href="dir_92f8cbd05ac6ac5c8f30f64e605cb01f.html" target="_top" xlink:title="src">
<polygon fill="white" stroke="black" points="78,-132 24,-132 24,-96 78,-96 78,-132"/>
<text text-anchor="middle" x="51" y="-111.5" font-family="Helvetica,sans-Serif" font-size="10.00">src</text>
</a>
</g>
</g>
<!-- dir_92f8cbd05ac6ac5c8f30f64e605cb01f&#45;&gt;dir_8b6507e5da0b8a047921d8e5d7c2bd5a -->
<g id="edge1" class="edge">
<title>dir_92f8cbd05ac6ac5c8f30f64e605cb01f&#45;&gt;dir_8b6507e5da0b8a047921d8e5d7c2bd5a</title>
<path fill="none" stroke="black" d="M51,-95.7C51,-87.98 51,-78.71 51,-70.11"/>
<polygon fill="black" stroke="black" points="54.5,-70.1 51,-60.1 47.5,-70.1 54.5,-70.1"/>
<g id="a_edge1&#45;headlabel"><a xlink:href="dir_000005_000004.html" target="_top" xlink:title="25">
<text text-anchor="middle" x="57.34" y="-71.2" font-family="Helvetica,sans-Serif" font-size="10.00">25</text>
</a>
</g>
</g>
</g>
</svg>
