<?xml version="1.0" encoding="UTF-8" standalone="no"?>
<!DOCTYPE svg PUBLIC "-//W3C//DTD SVG 1.1//EN"
 "http://www.w3.org/Graphics/SVG/1.1/DTD/svg11.dtd">
<!-- Generated by graphviz version 2.40.1 (20161225.0304)
 -->
<!-- Title: ua_additionalvariable Pages: 1 -->
<svg width="252pt" height="297pt"
 viewBox="0.00 0.00 252.00 297.00" xmlns="http://www.w3.org/2000/svg" xmlns:xlink="http://www.w3.org/1999/xlink">
<g id="graph0" class="graph" transform="scale(1 1) rotate(0) translate(4 293)">
<title>ua_additionalvariable</title>
<polygon fill="#ffffff" stroke="transparent" points="-4,4 -4,-293 248,-293 248,4 -4,4"/>
<!-- Node2 -->
<g id="node1" class="node">
<title>Node2</title>
<polygon fill="#bfbfbf" stroke="#000000" points="27,-.5 27,-19.5 149,-19.5 149,-.5 27,-.5"/>
<text text-anchor="middle" x="88" y="-7.5" font-family="Helvetica,sans-Serif" font-size="10.00" fill="#000000">ua_additionalvariable</text>
</g>
<!-- Node3 -->
<g id="node2" class="node">
<title>Node3</title>
<g id="a_node2"><a xlink:href="classua__mapped__class.html" target="_top" xlink:title="This class mapped all inforamtion into the opca server. ">
<polygon fill="#ffffff" stroke="#000000" points="36,-57.5 36,-76.5 140,-76.5 140,-57.5 36,-57.5"/>
<text text-anchor="middle" x="88" y="-64.5" font-family="Helvetica,sans-Serif" font-size="10.00" fill="#000000">ua_mapped_class</text>
</a>
</g>
</g>
<!-- Node3&#45;&gt;Node2 -->
<g id="edge1" class="edge">
<title>Node3&#45;&gt;Node2</title>
<path fill="none" stroke="#8b1a1a" d="M88,-47.2342C88,-37.8491 88,-27.0651 88,-19.5265"/>
<polygon fill="#8b1a1a" stroke="#8b1a1a" points="84.5001,-47.3307 88,-57.3307 91.5001,-47.3308 84.5001,-47.3307"/>
</g>
<!-- Node4 -->
<g id="node3" class="node">
<title>Node4</title>
<polygon fill="#ffffff" stroke="#bfbfbf" points="29,-124.5 29,-154.5 147,-154.5 147,-124.5 29,-124.5"/>
<text text-anchor="start" x="37" y="-142.5" font-family="Helvetica,sans-Serif" font-size="10.00" fill="#000000">std::list&lt; UA_NodeId</text>
<text text-anchor="middle" x="88" y="-131.5" font-family="Helvetica,sans-Serif" font-size="10.00" fill="#000000">_pair * &gt;</text>
</g>
<!-- Node4&#45;&gt;Node3 -->
<g id="edge2" class="edge">
<title>Node4&#45;&gt;Node3</title>
<path fill="none" stroke="#9a32cd" stroke-dasharray="5,2" d="M88,-114.305C88,-101.424 88,-86.4836 88,-76.8957"/>
<polygon fill="#9a32cd" stroke="#9a32cd" points="84.5001,-114.4779 88,-124.478 91.5001,-114.478 84.5001,-114.4779"/>
<text text-anchor="middle" x="121.5" y="-98" font-family="Helvetica,sans-Serif" font-size="10.00" fill="#000000"> ownedNodes</text>
</g>
<!-- Node5 -->
<g id="node4" class="node">
<title>Node5</title>
<g id="a_node4"><a xlink:href="struct_u_a___node_id__pair__t.html" target="_top" xlink:title="This struct contains a NodeId generated from the open62541&#45;stack and the NodeId of the model side...">
<polygon fill="#ffffff" stroke="#000000" points="0,-202.5 0,-221.5 104,-221.5 104,-202.5 0,-202.5"/>
<text text-anchor="middle" x="52" y="-209.5" font-family="Helvetica,sans-Serif" font-size="10.00" fill="#000000">UA_NodeId_pair_t</text>
</a>
</g>
</g>
<!-- Node5&#45;&gt;Node4 -->
<g id="edge3" class="edge">
<title>Node5&#45;&gt;Node4</title>
<path fill="none" stroke="#9a32cd" stroke-dasharray="5,2" d="M61.3828,-193.1041C67.3287,-181.1296 74.9166,-165.8484 80.4683,-154.668"/>
<polygon fill="#9a32cd" stroke="#9a32cd" points="58.1678,-191.7091 56.8551,-202.2223 64.4374,-194.8223 58.1678,-191.7091"/>
<text text-anchor="middle" x="96.5" y="-176" font-family="Helvetica,sans-Serif" font-size="10.00" fill="#000000"> elements</text>
</g>
<!-- Node6 -->
<g id="node5" class="node">
<title>Node6</title>
<g id="a_node5"><a xlink:title="STL class. ">
<polygon fill="#ffffff" stroke="#bfbfbf" points="122.5,-202.5 122.5,-221.5 203.5,-221.5 203.5,-202.5 122.5,-202.5"/>
<text text-anchor="middle" x="163" y="-209.5" font-family="Helvetica,sans-Serif" font-size="10.00" fill="#000000">std::list&lt; T &gt;</text>
</a>
</g>
</g>
<!-- Node6&#45;&gt;Node4 -->
<g id="edge4" class="edge">
<title>Node6&#45;&gt;Node4</title>
<path fill="none" stroke="#ffa500" stroke-dasharray="5,2" d="M145.6436,-195.2222C132.9774,-182.9781 115.951,-166.5193 103.6911,-154.668"/>
<polygon fill="#ffa500" stroke="#ffa500" points="143.2627,-197.7885 152.8852,-202.2223 148.1278,-192.7556 143.2627,-197.7885"/>
<text text-anchor="middle" x="188" y="-176" font-family="Helvetica,sans-Serif" font-size="10.00" fill="#000000"> &lt; UA_NodeId_pair * &gt;</text>
</g>
<!-- Node7 -->
<g id="node6" class="node">
<title>Node7</title>
<polygon fill="#ffffff" stroke="#bfbfbf" points="148.5,-269.5 148.5,-288.5 177.5,-288.5 177.5,-269.5 148.5,-269.5"/>
<text text-anchor="middle" x="163" y="-276.5" font-family="Helvetica,sans-Serif" font-size="10.00" fill="#000000">T</text>
</g>
<!-- Node7&#45;&gt;Node6 -->
<g id="edge5" class="edge">
<title>Node7&#45;&gt;Node6</title>
<path fill="none" stroke="#9a32cd" stroke-dasharray="5,2" d="M163,-259.1079C163,-246.714 163,-231.3263 163,-221.5817"/>
<polygon fill="#9a32cd" stroke="#9a32cd" points="159.5001,-259.4005 163,-269.4005 166.5001,-259.4006 159.5001,-259.4005"/>
<text text-anchor="middle" x="187.5" y="-243" font-family="Helvetica,sans-Serif" font-size="10.00" fill="#000000"> elements</text>
</g>
</g>
</svg>
