<?xml version="1.0" encoding="UTF-8" standalone="no"?>
<!DOCTYPE svg PUBLIC "-//W3C//DTD SVG 1.1//EN"
 "http://www.w3.org/Graphics/SVG/1.1/DTD/svg11.dtd">
<!-- Generated by graphviz version 2.40.1 (20161225.0304)
 -->
<!-- Title: ChimeraTK::NumericAddressedRegisterInfo::ChannelInfo::operator!= Pages: 1 -->
<svg width="820pt" height="88pt"
 viewBox="0.00 0.00 820.00 88.00" xmlns="http://www.w3.org/2000/svg" xmlns:xlink="http://www.w3.org/1999/xlink">
<g id="graph0" class="graph" transform="scale(1 1) rotate(0) translate(4 84)">
<title>ChimeraTK::NumericAddressedRegisterInfo::ChannelInfo::operator!=</title>
<polygon fill="#ffffff" stroke="transparent" points="-4,4 -4,-84 816,-84 816,4 -4,4"/>
<!-- Node2 -->
<g id="node1" class="node">
<title>Node2</title>
<polygon fill="#bfbfbf" stroke="#000000" points="0,-19 0,-60 169,-60 169,-19 0,-19"/>
<text text-anchor="start" x="8" y="-48" font-family="Helvetica,sans-Serif" font-size="10.00" fill="#000000">ChimeraTK::NumericAddressed</text>
<text text-anchor="start" x="8" y="-37" font-family="Helvetica,sans-Serif" font-size="10.00" fill="#000000">RegisterInfo::ChannelInfo</text>
<text text-anchor="middle" x="84.5" y="-26" font-family="Helvetica,sans-Serif" font-size="10.00" fill="#000000">::operator!=</text>
</g>
<!-- Node3 -->
<g id="node2" class="node">
<title>Node3</title>
<g id="a_node2"><a xlink:href="class_chimera_t_k_1_1_numeric_addressed_register_info.html#a8232f919c49f06e92f35467e5e4a13fc" target="_top" xlink:title="ChimeraTK::NumericAddressed\lRegisterInfo::operator==">
<polygon fill="#ffffff" stroke="#000000" points="205,-24.5 205,-54.5 374,-54.5 374,-24.5 205,-24.5"/>
<text text-anchor="start" x="213" y="-42.5" font-family="Helvetica,sans-Serif" font-size="10.00" fill="#000000">ChimeraTK::NumericAddressed</text>
<text text-anchor="middle" x="289.5" y="-31.5" font-family="Helvetica,sans-Serif" font-size="10.00" fill="#000000">RegisterInfo::operator==</text>
</a>
</g>
</g>
<!-- Node2&#45;&gt;Node3 -->
<g id="edge1" class="edge">
<title>Node2&#45;&gt;Node3</title>
<path fill="none" stroke="#191970" d="M169.0649,-39.5C177.5471,-39.5 186.1983,-39.5 194.7766,-39.5"/>
<polygon fill="#191970" stroke="#191970" points="194.7986,-43.0001 204.7986,-39.5 194.7985,-36.0001 194.7986,-43.0001"/>
</g>
<!-- Node4 -->
<g id="node3" class="node">
<title>Node4</title>
<g id="a_node3"><a xlink:href="class_chimera_t_k_1_1_backend_register_info_base.html#a82e9a504d5b063a6e3b34f3229466287" target="_top" xlink:title="Return number of dimensions of this register. ">
<polygon fill="#ffffff" stroke="#000000" points="410,-24.5 410,-54.5 599,-54.5 599,-24.5 410,-24.5"/>
<text text-anchor="start" x="418" y="-42.5" font-family="Helvetica,sans-Serif" font-size="10.00" fill="#000000">ChimeraTK::BackendRegister</text>
<text text-anchor="middle" x="504.5" y="-31.5" font-family="Helvetica,sans-Serif" font-size="10.00" fill="#000000">InfoBase::getNumberOfDimensions</text>
</a>
</g>
</g>
<!-- Node3&#45;&gt;Node4 -->
<g id="edge2" class="edge">
<title>Node3&#45;&gt;Node4</title>
<path fill="none" stroke="#191970" d="M374.1651,-39.5C382.6111,-39.5 391.2543,-39.5 399.8728,-39.5"/>
<polygon fill="#191970" stroke="#191970" points="399.9657,-43.0001 409.9657,-39.5 399.9656,-36.0001 399.9657,-43.0001"/>
</g>
<!-- Node5 -->
<g id="node4" class="node">
<title>Node5</title>
<g id="a_node4"><a xlink:href="class_chimera_t_k_1_1_backend_register_info_base.html#a8507f34475d08bae6bfd8f14b2e8e361" target="_top" xlink:title="Return number of channels in register. ">
<polygon fill="#ffffff" stroke="#000000" points="635.5,-49.5 635.5,-79.5 811.5,-79.5 811.5,-49.5 635.5,-49.5"/>
<text text-anchor="start" x="643.5" y="-67.5" font-family="Helvetica,sans-Serif" font-size="10.00" fill="#000000">ChimeraTK::BackendRegister</text>
<text text-anchor="middle" x="723.5" y="-56.5" font-family="Helvetica,sans-Serif" font-size="10.00" fill="#000000">InfoBase::getNumberOfChannels</text>
</a>
</g>
</g>
<!-- Node4&#45;&gt;Node5 -->
<g id="edge3" class="edge">
<title>Node4&#45;&gt;Node5</title>
<path fill="none" stroke="#191970" d="M599.2829,-50.32C607.924,-51.3064 616.6896,-52.307 625.3593,-53.2967"/>
<polygon fill="#191970" stroke="#191970" points="625.1469,-56.7951 635.4793,-54.452 625.9409,-49.8403 625.1469,-56.7951"/>
</g>
<!-- Node6 -->
<g id="node5" class="node">
<title>Node6</title>
<g id="a_node5"><a xlink:href="class_chimera_t_k_1_1_backend_register_info_base.html#ad7a70e2d734cd02c65f713be0045a690" target="_top" xlink:title="Return number of elements per channel. ">
<polygon fill="#ffffff" stroke="#000000" points="635,-.5 635,-30.5 812,-30.5 812,-.5 635,-.5"/>
<text text-anchor="start" x="643" y="-18.5" font-family="Helvetica,sans-Serif" font-size="10.00" fill="#000000">ChimeraTK::BackendRegister</text>
<text text-anchor="middle" x="723.5" y="-7.5" font-family="Helvetica,sans-Serif" font-size="10.00" fill="#000000">InfoBase::getNumberOfElements</text>
</a>
</g>
</g>
<!-- Node4&#45;&gt;Node6 -->
<g id="edge4" class="edge">
<title>Node4&#45;&gt;Node6</title>
<path fill="none" stroke="#191970" d="M599.2829,-29.1128C607.6657,-28.1942 616.1657,-27.2627 624.5816,-26.3404"/>
<polygon fill="#191970" stroke="#191970" points="625.2326,-29.7901 634.7918,-25.2214 624.47,-22.8317 625.2326,-29.7901"/>
</g>
</g>
</svg>
