<?xml version="1.0" encoding="UTF-8" standalone="no"?>
<!DOCTYPE svg PUBLIC "-//W3C//DTD SVG 1.1//EN"
 "http://www.w3.org/Graphics/SVG/1.1/DTD/svg11.dtd">
<!-- Generated by graphviz version 2.43.0 (0)
 -->
<!-- Title: /scratch/dragon/sources/ChimeraTK_FirmwareProgrammer/include/progress_bar.h Pages: 1 -->
<!--zoomable 126 -->

<svg id="main" version="1.1" xmlns="http://www.w3.org/2000/svg" xmlns:xlink="http://www.w3.org/1999/xlink" xml:space="preserve" onload="init(evt)">
<style type="text/css"><![CDATA[
.node, .edge {opacity: 0.7;}
.node.selected, .edge.selected {opacity: 1;}
.edge:hover path { stroke: red; }
.edge:hover polygon { stroke: red; fill: red; }
]]></style>

<defs>
  <circle id="rim" cx="0" cy="0" r="7"/>
  <circle id="rim2" cx="0" cy="0" r="3.5"/>
  <g id="zoomPlus">
    <use xlink:href="#rim" fill="#404040"><set attributeName="fill" to="#808080" begin="zoomplus.mouseover" end="zoomplus.mouseout"/></use>
    <path d="M-4,0h8M0,-4v8" fill="none" stroke="white" stroke-width="1.5" pointer-events="none"/>
  </g>
  <g id="zoomMin">
    <use xlink:href="#rim" fill="#404040"><set attributeName="fill" to="#808080" begin="zoomminus.mouseover" end="zoomminus.mouseout"/></use>
    <path d="M-4,0h8" fill="none" stroke="white" stroke-width="1.5" pointer-events="none"/>
  </g>
  <g id="arrowUp" transform="translate(30 24)">
    <use xlink:href="#rim"/>
    <path pointer-events="none" fill="none" stroke="white" stroke-width="1.5" d="M0,-3.0v7 M-2.5,-0.5L0,-3.0L2.5,-0.5"/>
  </g>
  <g id="arrowRight" transform="rotate(90) translate(36 -43)">
    <use xlink:href="#rim"/>
    <path pointer-events="none" fill="none" stroke="white" stroke-width="1.5" d="M0,-3.0v7 M-2.5,-0.5L0,-3.0L2.5,-0.5"/>
  </g>
  <g id="arrowDown" transform="rotate(180) translate(-30 -48)">
    <use xlink:href="#rim"/>
    <path pointer-events="none" fill="none" stroke="white" stroke-width="1.5" d="M0,-3.0v7 M-2.5,-0.5L0,-3.0L2.5,-0.5"/>
  </g>
  <g id="arrowLeft" transform="rotate(270) translate(-36 17)">
    <use xlink:href="#rim"/>
    <path pointer-events="none" fill="none" stroke="white" stroke-width="1.5" d="M0,-3.0v7 M-2.5,-0.5L0,-3.0L2.5,-0.5"/>
  </g>
  <g id="resetDef">
    <use xlink:href="#rim2" fill="#404040"><set attributeName="fill" to="#808080" begin="reset.mouseover" end="reset.mouseout"/></use>
  </g>
</defs>
<script type="application/ecmascript">
var viewWidth = 1005;
var viewHeight = 126;
var sectionId = 'dynsection-0';
</script>
<script type="application/ecmascript" xlink:href="svg.min.js"/>
<svg id="graph" class="graph">
<g id="viewport">
<title>/scratch/dragon/sources/ChimeraTK_FirmwareProgrammer/include/progress_bar.h</title>
<!-- Node1 -->
<g id="Node000001" class="node">
<title>Node1</title>
<g id="a_Node000001"><a xlink:title=" ">
<polygon fill="#999999" stroke="#666666" points="591,-118 406,-118 406,-77 591,-77 591,-118"/>
<text text-anchor="start" x="414" y="-106" font-family="Helvetica,sans-Serif" font-size="10.00">/scratch/dragon/sources</text>
<text text-anchor="start" x="414" y="-95" font-family="Helvetica,sans-Serif" font-size="10.00">/ChimeraTK_FirmwareProgrammer</text>
<text text-anchor="middle" x="498.5" y="-84" font-family="Helvetica,sans-Serif" font-size="10.00">/include/progress_bar.h</text>
</a>
</g>
</g>
<!-- Node2 -->
<g id="Node000002" class="node">
<title>Node2</title>
<g id="a_Node000002"><a xlink:href="_mtca_programmer_j_t_a_g_8cpp.html" target="_top" xlink:title=" ">
<polygon fill="white" stroke="#666666" points="185,-41 0,-41 0,0 185,0 185,-41"/>
<text text-anchor="start" x="8" y="-29" font-family="Helvetica,sans-Serif" font-size="10.00">/scratch/dragon/sources</text>
<text text-anchor="start" x="8" y="-18" font-family="Helvetica,sans-Serif" font-size="10.00">/ChimeraTK_FirmwareProgrammer</text>
<text text-anchor="middle" x="92.5" y="-7" font-family="Helvetica,sans-Serif" font-size="10.00">/src/MtcaProgrammerJTAG.cpp</text>
</a>
</g>
</g>
<!-- Node1&#45;&gt;Node2 -->
<g id="edge1_Node000001_Node000002" class="edge">
<title>Node1&#45;&gt;Node2</title>
<g id="a_edge1_Node000001_Node000002"><a xlink:title=" ">
<path fill="none" stroke="#63b8ff" d="M395.59,-78.06C336.44,-67.39 260.76,-53.61 193.5,-41 190.78,-40.49 188.02,-39.97 185.23,-39.44"/>
<polygon fill="#63b8ff" stroke="#63b8ff" points="395.22,-81.55 405.69,-79.88 396.47,-74.66 395.22,-81.55"/>
</a>
</g>
</g>
<!-- Node3 -->
<g id="Node000003" class="node">
<title>Node3</title>
<g id="a_Node000003"><a xlink:href="_mtca_programmer_s_p_i_8cpp.html" target="_top" xlink:title=" ">
<polygon fill="white" stroke="#666666" points="388,-41 203,-41 203,0 388,0 388,-41"/>
<text text-anchor="start" x="211" y="-29" font-family="Helvetica,sans-Serif" font-size="10.00">/scratch/dragon/sources</text>
<text text-anchor="start" x="211" y="-18" font-family="Helvetica,sans-Serif" font-size="10.00">/ChimeraTK_FirmwareProgrammer</text>
<text text-anchor="middle" x="295.5" y="-7" font-family="Helvetica,sans-Serif" font-size="10.00">/src/MtcaProgrammerSPI.cpp</text>
</a>
</g>
</g>
<!-- Node1&#45;&gt;Node3 -->
<g id="edge2_Node000001_Node000003" class="edge">
<title>Node1&#45;&gt;Node3</title>
<g id="a_edge2_Node000001_Node000003"><a xlink:title=" ">
<path fill="none" stroke="#63b8ff" d="M435.99,-73.4C407.94,-63.04 375.2,-50.95 348.39,-41.04"/>
<polygon fill="#63b8ff" stroke="#63b8ff" points="435.1,-76.81 445.69,-76.99 437.53,-70.24 435.1,-76.81"/>
</a>
</g>
</g>
<!-- Node4 -->
<g id="Node000004" class="node">
<title>Node4</title>
<g id="a_Node000004"><a xlink:href="_x_s_v_f_player_8cpp.html" target="_top" xlink:title=" ">
<polygon fill="white" stroke="#666666" points="591,-41 406,-41 406,0 591,0 591,-41"/>
<text text-anchor="start" x="414" y="-29" font-family="Helvetica,sans-Serif" font-size="10.00">/scratch/dragon/sources</text>
<text text-anchor="start" x="414" y="-18" font-family="Helvetica,sans-Serif" font-size="10.00">/ChimeraTK_FirmwareProgrammer</text>
<text text-anchor="middle" x="498.5" y="-7" font-family="Helvetica,sans-Serif" font-size="10.00">/src/XSVFPlayer.cpp</text>
</a>
</g>
</g>
<!-- Node1&#45;&gt;Node4 -->
<g id="edge3_Node000001_Node000004" class="edge">
<title>Node1&#45;&gt;Node4</title>
<g id="a_edge3_Node000001_Node000004"><a xlink:title=" ">
<path fill="none" stroke="#63b8ff" d="M498.5,-66.69C498.5,-58.08 498.5,-48.9 498.5,-41.07"/>
<polygon fill="#63b8ff" stroke="#63b8ff" points="495,-66.79 498.5,-76.79 502,-66.79 495,-66.79"/>
</a>
</g>
</g>
<!-- Node5 -->
<g id="Node000005" class="node">
<title>Node5</title>
<g id="a_Node000005"><a xlink:href="main_8cpp.html" target="_top" xlink:title=" ">
<polygon fill="white" stroke="#666666" points="794,-41 609,-41 609,0 794,0 794,-41"/>
<text text-anchor="start" x="617" y="-29" font-family="Helvetica,sans-Serif" font-size="10.00">/scratch/dragon/sources</text>
<text text-anchor="start" x="617" y="-18" font-family="Helvetica,sans-Serif" font-size="10.00">/ChimeraTK_FirmwareProgrammer</text>
<text text-anchor="middle" x="701.5" y="-7" font-family="Helvetica,sans-Serif" font-size="10.00">/src/main.cpp</text>
</a>
</g>
</g>
<!-- Node1&#45;&gt;Node5 -->
<g id="edge4_Node000001_Node000005" class="edge">
<title>Node1&#45;&gt;Node5</title>
<g id="a_edge4_Node000001_Node000005"><a xlink:title=" ">
<path fill="none" stroke="#63b8ff" d="M561.01,-73.4C589.06,-63.04 621.8,-50.95 648.61,-41.04"/>
<polygon fill="#63b8ff" stroke="#63b8ff" points="559.47,-70.24 551.31,-76.99 561.9,-76.81 559.47,-70.24"/>
</a>
</g>
</g>
<!-- Node6 -->
<g id="Node000006" class="node">
<title>Node6</title>
<g id="a_Node000006"><a xlink:href="progress__bar_8cpp.html" target="_top" xlink:title=" ">
<polygon fill="white" stroke="#666666" points="997,-41 812,-41 812,0 997,0 997,-41"/>
<text text-anchor="start" x="820" y="-29" font-family="Helvetica,sans-Serif" font-size="10.00">/scratch/dragon/sources</text>
<text text-anchor="start" x="820" y="-18" font-family="Helvetica,sans-Serif" font-size="10.00">/ChimeraTK_FirmwareProgrammer</text>
<text text-anchor="middle" x="904.5" y="-7" font-family="Helvetica,sans-Serif" font-size="10.00">/src/progress_bar.cpp</text>
</a>
</g>
</g>
<!-- Node1&#45;&gt;Node6 -->
<g id="edge5_Node000001_Node000006" class="edge">
<title>Node1&#45;&gt;Node6</title>
<g id="a_edge5_Node000001_Node000006"><a xlink:title=" ">
<path fill="none" stroke="#63b8ff" d="M601.41,-78.06C660.56,-67.39 736.24,-53.61 803.5,-41 806.22,-40.49 808.98,-39.97 811.77,-39.44"/>
<polygon fill="#63b8ff" stroke="#63b8ff" points="600.53,-74.66 591.31,-79.88 601.78,-81.55 600.53,-74.66"/>
</a>
</g>
</g>
</g>
</svg>

<g id="navigator" transform="translate(0 0)" fill="#404254">
  <rect fill="#f2f5e9" fill-opacity="0.5" stroke="#606060" stroke-width=".5" x="0" y="0" width="60" height="60"/>
  <use id="zoomplus" xlink:href="#zoomPlus" x="17" y="9" onmousedown="handleZoom(evt,'in')"/>
  <use id="zoomminus" xlink:href="#zoomMin" x="42" y="9" onmousedown="handleZoom(evt,'out')"/>
  <use id="reset" xlink:href="#resetDef" x="30" y="36" onmousedown="handleReset()"/>
   <use id="arrowup" xlink:href="#arrowUp" x="0" y="0" onmousedown="handlePan(0,-1)"/>
  <use id="arrowright" xlink:href="#arrowRight" x="0" y="0" onmousedown="handlePan(1,0)"/>
  <use id="arrowdown" xlink:href="#arrowDown" x="0" y="0" onmousedown="handlePan(0,1)"/>
  <use id="arrowleft" xlink:href="#arrowLeft" x="0" y="0" onmousedown="handlePan(-1,0)"/>
</g>
<svg viewBox="0 0 15 15" width="100%" height="30px" preserveAspectRatio="xMaxYMin meet">
 <g id="arrow_out" transform="scale(0.3 0.3)">
  <a xlink:href="progress__bar_8h__dep__incl_org.svg" target="_base">
   <rect id="button" ry="5" rx="5" y="6" x="6" height="38" width="38"
        fill="#f2f5e9" fill-opacity="0.5" stroke="#606060" stroke-width="1.0"/>
   <path id="arrow"
     d="M 11.500037,31.436501 C 11.940474,20.09759 22.043105,11.32322 32.158766,21.979434 L 37.068811,17.246167 C 37.068811,17.246167 37.088388,32 37.088388,32 L 22.160133,31.978069 C 22.160133,31.978069 26.997745,27.140456 26.997745,27.140456 C 18.528582,18.264221 13.291696,25.230495 11.500037,31.436501 z"
     style="fill:#404040;"/>
  </a>
 </g>
</svg>

<style type='text/css'>
<![CDATA[
[data-mouse-over-selected='false'] { opacity: 0.7; }
[data-mouse-over-selected='true']  { opacity: 1.0; }
]]>
</style>
<script type="application/ecmascript"><![CDATA[
document.addEventListener('DOMContentLoaded', (event) => {
  highlightEdges();
  highlightAdjacentNodes();
});
]]></script>
</svg>
