<?xml version="1.0" encoding="UTF-8" standalone="no"?>
<!DOCTYPE svg PUBLIC "-//W3C//DTD SVG 1.1//EN"
 "http://www.w3.org/Graphics/SVG/1.1/DTD/svg11.dtd">
<!-- Generated by graphviz version 2.43.0 (0)
 -->
<!-- Title: src/csa_additionalvariable.cpp Pages: 1 -->
<svg width="502pt" height="308pt"
 viewBox="0.00 0.00 501.50 308.00" xmlns="http://www.w3.org/2000/svg" xmlns:xlink="http://www.w3.org/1999/xlink">
<g id="graph0" class="graph" transform="scale(1 1) rotate(0) translate(4 304)">
<title>src/csa_additionalvariable.cpp</title>
<polygon fill="white" stroke="transparent" points="-4,4 -4,-304 497.5,-304 497.5,4 -4,4"/>
<!-- Node1 -->
<g id="node1" class="node">
<title>Node1</title>
<g id="a_node1"><a xlink:title=" ">
<polygon fill="#bfbfbf" stroke="black" points="226,-280.5 226,-299.5 390,-299.5 390,-280.5 226,-280.5"/>
<text text-anchor="middle" x="308" y="-287.5" font-family="Helvetica,sans-Serif" font-size="10.00">src/csa_additionalvariable.cpp</text>
</a>
</g>
</g>
<!-- Node2 -->
<g id="node2" class="node">
<title>Node2</title>
<g id="a_node2"><a xlink:href="csa__additionalvariable_8h.html" target="_top" xlink:title=" ">
<polygon fill="white" stroke="black" points="134,-224.5 134,-243.5 270,-243.5 270,-224.5 134,-224.5"/>
<text text-anchor="middle" x="202" y="-231.5" font-family="Helvetica,sans-Serif" font-size="10.00">csa_additionalvariable.h</text>
</a>
</g>
</g>
<!-- Node1&#45;&gt;Node2 -->
<g id="edge1" class="edge">
<title>Node1&#45;&gt;Node2</title>
<path fill="none" stroke="midnightblue" d="M290.97,-280.32C273.97,-271.66 247.62,-258.24 228.01,-248.25"/>
<polygon fill="midnightblue" stroke="midnightblue" points="229.49,-245.08 218.99,-243.65 226.31,-251.31 229.49,-245.08"/>
</g>
<!-- Node5 -->
<g id="node5" class="node">
<title>Node5</title>
<g id="a_node5"><a xlink:href="ua__proxies_8h.html" target="_top" xlink:title=" ">
<polygon fill="white" stroke="black" points="101.5,-112.5 101.5,-131.5 180.5,-131.5 180.5,-112.5 101.5,-112.5"/>
<text text-anchor="middle" x="141" y="-119.5" font-family="Helvetica,sans-Serif" font-size="10.00">ua_proxies.h</text>
</a>
</g>
</g>
<!-- Node1&#45;&gt;Node5 -->
<g id="edge13" class="edge">
<title>Node1&#45;&gt;Node5</title>
<path fill="none" stroke="midnightblue" d="M242.34,-280.49C196.61,-273.19 141.06,-261.12 125,-244 101.7,-219.15 106.18,-200.91 115,-168 117.65,-158.1 123.07,-148.13 128.27,-140.1"/>
<polygon fill="midnightblue" stroke="midnightblue" points="131.29,-141.89 134.11,-131.68 125.54,-137.91 131.29,-141.89"/>
</g>
<!-- Node7 -->
<g id="node7" class="node">
<title>Node7</title>
<g id="a_node7"><a xlink:title=" ">
<polygon fill="white" stroke="#bfbfbf" points="358,-56.5 358,-75.5 418,-75.5 418,-56.5 358,-56.5"/>
<text text-anchor="middle" x="388" y="-63.5" font-family="Helvetica,sans-Serif" font-size="10.00">iostream</text>
</a>
</g>
</g>
<!-- Node1&#45;&gt;Node7 -->
<g id="edge14" class="edge">
<title>Node1&#45;&gt;Node7</title>
<path fill="none" stroke="midnightblue" d="M314.8,-280.41C327.67,-263.69 355.46,-225.14 369,-188 381.64,-153.33 385.87,-110.07 387.29,-85.79"/>
<polygon fill="midnightblue" stroke="midnightblue" points="390.79,-85.95 387.77,-75.79 383.79,-85.61 390.79,-85.95"/>
</g>
<!-- Node10 -->
<g id="node10" class="node">
<title>Node10</title>
<g id="a_node10"><a xlink:title=" ">
<polygon fill="white" stroke="#bfbfbf" points="416.5,-224.5 416.5,-243.5 493.5,-243.5 493.5,-224.5 416.5,-224.5"/>
<text text-anchor="middle" x="455" y="-231.5" font-family="Helvetica,sans-Serif" font-size="10.00">csa_config.h</text>
</a>
</g>
</g>
<!-- Node1&#45;&gt;Node10 -->
<g id="edge10" class="edge">
<title>Node1&#45;&gt;Node10</title>
<path fill="none" stroke="midnightblue" d="M331.29,-280.44C355.81,-271.44 394.6,-257.19 422.2,-247.05"/>
<polygon fill="midnightblue" stroke="midnightblue" points="423.64,-250.25 431.82,-243.52 421.22,-243.68 423.64,-250.25"/>
</g>
<!-- Node11 -->
<g id="node11" class="node">
<title>Node11</title>
<g id="a_node11"><a xlink:href="csa__namespace_8h.html" target="_top" xlink:title=" ">
<polygon fill="white" stroke="black" points="256,-168.5 256,-187.5 360,-187.5 360,-168.5 256,-168.5"/>
<text text-anchor="middle" x="308" y="-175.5" font-family="Helvetica,sans-Serif" font-size="10.00">csa_namespace.h</text>
</a>
</g>
</g>
<!-- Node1&#45;&gt;Node11 -->
<g id="edge11" class="edge">
<title>Node1&#45;&gt;Node11</title>
<path fill="none" stroke="midnightblue" d="M308,-280.37C308,-262.62 308,-221.67 308,-197.6"/>
<polygon fill="midnightblue" stroke="midnightblue" points="311.5,-197.59 308,-187.59 304.5,-197.59 311.5,-197.59"/>
</g>
<!-- Node3 -->
<g id="node3" class="node">
<title>Node3</title>
<g id="a_node3"><a xlink:href="ua__mapped__class_8h.html" target="_top" xlink:title=" ">
<polygon fill="white" stroke="black" points="124.5,-168.5 124.5,-187.5 237.5,-187.5 237.5,-168.5 124.5,-168.5"/>
<text text-anchor="middle" x="181" y="-175.5" font-family="Helvetica,sans-Serif" font-size="10.00">ua_mapped_class.h</text>
</a>
</g>
</g>
<!-- Node2&#45;&gt;Node3 -->
<g id="edge2" class="edge">
<title>Node2&#45;&gt;Node3</title>
<path fill="none" stroke="midnightblue" d="M198.53,-224.08C195.69,-216.77 191.57,-206.18 188.04,-197.1"/>
<polygon fill="midnightblue" stroke="midnightblue" points="191.29,-195.8 184.4,-187.75 184.77,-198.34 191.29,-195.8"/>
</g>
<!-- Node4 -->
<g id="node4" class="node">
<title>Node4</title>
<g id="a_node4"><a xlink:title=" ">
<polygon fill="white" stroke="#bfbfbf" points="226.5,-56.5 226.5,-75.5 339.5,-75.5 339.5,-56.5 226.5,-56.5"/>
<text text-anchor="middle" x="283" y="-63.5" font-family="Helvetica,sans-Serif" font-size="10.00">open62541/server.h</text>
</a>
</g>
</g>
<!-- Node3&#45;&gt;Node4 -->
<g id="edge3" class="edge">
<title>Node3&#45;&gt;Node4</title>
<path fill="none" stroke="midnightblue" d="M189,-168.37C206.06,-149.97 246.21,-106.67 268.12,-83.05"/>
<polygon fill="midnightblue" stroke="midnightblue" points="270.8,-85.3 275.03,-75.59 265.67,-80.54 270.8,-85.3"/>
</g>
<!-- Node3&#45;&gt;Node5 -->
<g id="edge4" class="edge">
<title>Node3&#45;&gt;Node5</title>
<path fill="none" stroke="midnightblue" d="M174.39,-168.08C168.74,-160.46 160.46,-149.26 153.55,-139.94"/>
<polygon fill="midnightblue" stroke="midnightblue" points="156.25,-137.7 147.48,-131.75 150.62,-141.87 156.25,-137.7"/>
</g>
<!-- Node5&#45;&gt;Node4 -->
<g id="edge5" class="edge">
<title>Node5&#45;&gt;Node4</title>
<path fill="none" stroke="midnightblue" d="M163.5,-112.44C187.08,-103.48 224.32,-89.31 250.96,-79.18"/>
<polygon fill="midnightblue" stroke="midnightblue" points="252.5,-82.34 260.6,-75.52 250.01,-75.8 252.5,-82.34"/>
</g>
<!-- Node6 -->
<g id="node6" class="node">
<title>Node6</title>
<g id="a_node6"><a xlink:title=" ">
<polygon fill="white" stroke="#bfbfbf" points="0,-56.5 0,-75.5 32,-75.5 32,-56.5 0,-56.5"/>
<text text-anchor="middle" x="16" y="-63.5" font-family="Helvetica,sans-Serif" font-size="10.00">list</text>
</a>
</g>
</g>
<!-- Node5&#45;&gt;Node6 -->
<g id="edge6" class="edge">
<title>Node5&#45;&gt;Node6</title>
<path fill="none" stroke="midnightblue" d="M121.19,-112.44C99.63,-103.13 65.08,-88.2 41.5,-78.02"/>
<polygon fill="midnightblue" stroke="midnightblue" points="42.7,-74.72 32.14,-73.97 39.93,-81.15 42.7,-74.72"/>
</g>
<!-- Node5&#45;&gt;Node7 -->
<g id="edge7" class="edge">
<title>Node5&#45;&gt;Node7</title>
<path fill="none" stroke="midnightblue" d="M180.52,-112.62C220.35,-104.13 283.83,-90.51 347.91,-76.22"/>
<polygon fill="midnightblue" stroke="midnightblue" points="348.78,-79.61 357.78,-74.02 347.25,-72.78 348.78,-79.61"/>
</g>
<!-- Node8 -->
<g id="node8" class="node">
<title>Node8</title>
<g id="a_node8"><a xlink:href="ua__proxies__typeconversion_8h.html" target="_top" xlink:title=" ">
<polygon fill="white" stroke="black" points="49.5,-56.5 49.5,-75.5 208.5,-75.5 208.5,-56.5 49.5,-56.5"/>
<text text-anchor="middle" x="129" y="-63.5" font-family="Helvetica,sans-Serif" font-size="10.00">ua_proxies_typeconversion.h</text>
</a>
</g>
</g>
<!-- Node5&#45;&gt;Node8 -->
<g id="edge8" class="edge">
<title>Node5&#45;&gt;Node8</title>
<path fill="none" stroke="midnightblue" d="M139.02,-112.08C137.43,-104.93 135.14,-94.64 133.15,-85.69"/>
<polygon fill="midnightblue" stroke="midnightblue" points="136.53,-84.75 130.94,-75.75 129.7,-86.27 136.53,-84.75"/>
</g>
<!-- Node9 -->
<g id="node9" class="node">
<title>Node9</title>
<g id="a_node9"><a xlink:title=" ">
<polygon fill="white" stroke="#bfbfbf" points="107,-0.5 107,-19.5 151,-19.5 151,-0.5 107,-0.5"/>
<text text-anchor="middle" x="129" y="-7.5" font-family="Helvetica,sans-Serif" font-size="10.00">string</text>
</a>
</g>
</g>
<!-- Node8&#45;&gt;Node9 -->
<g id="edge9" class="edge">
<title>Node8&#45;&gt;Node9</title>
<path fill="none" stroke="midnightblue" d="M129,-56.08C129,-49.01 129,-38.86 129,-29.99"/>
<polygon fill="midnightblue" stroke="midnightblue" points="132.5,-29.75 129,-19.75 125.5,-29.75 132.5,-29.75"/>
</g>
<!-- Node11&#45;&gt;Node4 -->
<g id="edge12" class="edge">
<title>Node11&#45;&gt;Node4</title>
<path fill="none" stroke="midnightblue" d="M306.04,-168.37C302,-150.62 292.7,-109.67 287.23,-85.6"/>
<polygon fill="midnightblue" stroke="midnightblue" points="290.58,-84.57 284.95,-75.59 283.76,-86.12 290.58,-84.57"/>
</g>
</g>
</svg>
