<?xml version="1.0" encoding="UTF-8" standalone="no"?>
<!DOCTYPE svg PUBLIC "-//W3C//DTD SVG 1.1//EN"
 "http://www.w3.org/Graphics/SVG/1.1/DTD/svg11.dtd">
<!-- Generated by graphviz version 2.40.1 (20161225.0304)
 -->
<!-- Title: ChimeraTK::NumericAddressedInterruptDispatcher::createAsyncVariable Pages: 1 -->
<svg width="430pt" height="50pt"
 viewBox="0.00 0.00 430.00 50.00" xmlns="http://www.w3.org/2000/svg" xmlns:xlink="http://www.w3.org/1999/xlink">
<g id="graph0" class="graph" transform="scale(1 1) rotate(0) translate(4 46)">
<title>ChimeraTK::NumericAddressedInterruptDispatcher::createAsyncVariable</title>
<polygon fill="#ffffff" stroke="transparent" points="-4,4 -4,-46 426,-46 426,4 -4,4"/>
<!-- Node12 -->
<g id="node1" class="node">
<title>Node12</title>
<polygon fill="#bfbfbf" stroke="#000000" points="0,-.5 0,-41.5 177,-41.5 177,-.5 0,-.5"/>
<text text-anchor="start" x="8" y="-29.5" font-family="Helvetica,sans-Serif" font-size="10.00" fill="#000000">ChimeraTK::NumericAddressed</text>
<text text-anchor="start" x="8" y="-18.5" font-family="Helvetica,sans-Serif" font-size="10.00" fill="#000000">InterruptDispatcher::createAsync</text>
<text text-anchor="middle" x="88.5" y="-7.5" font-family="Helvetica,sans-Serif" font-size="10.00" fill="#000000">Variable</text>
</g>
<!-- Node13 -->
<g id="node2" class="node">
<title>Node13</title>
<g id="a_node2"><a xlink:href="class_chimera_t_k_1_1_numeric_addressed_interrupt_dispatcher.html#a6b05d42dc22faf02e5a03e4aae2db8f0" target="_top" xlink:title="ChimeraTK::NumericAddressed\lInterruptDispatcher::NumericAddressed\lInterruptDispatcher">
<polygon fill="#ffffff" stroke="#000000" points="213,-.5 213,-41.5 422,-41.5 422,-.5 213,-.5"/>
<text text-anchor="start" x="221" y="-29.5" font-family="Helvetica,sans-Serif" font-size="10.00" fill="#000000">ChimeraTK::NumericAddressed</text>
<text text-anchor="start" x="221" y="-18.5" font-family="Helvetica,sans-Serif" font-size="10.00" fill="#000000">InterruptDispatcher::NumericAddressed</text>
<text text-anchor="middle" x="317.5" y="-7.5" font-family="Helvetica,sans-Serif" font-size="10.00" fill="#000000">InterruptDispatcher</text>
</a>
</g>
</g>
<!-- Node12&#45;&gt;Node13 -->
<g id="edge1" class="edge">
<title>Node12&#45;&gt;Node13</title>
<path fill="none" stroke="#191970" d="M187.2709,-21C195.7183,-21 204.2822,-21 212.7738,-21"/>
<polygon fill="#191970" stroke="#191970" points="187.0374,-17.5001 177.0374,-21 187.0373,-24.5001 187.0374,-17.5001"/>
</g>
</g>
</svg>
