<?xml version="1.0" encoding="UTF-8" standalone="no"?>
<!DOCTYPE svg PUBLIC "-//W3C//DTD SVG 1.1//EN"
 "http://www.w3.org/Graphics/SVG/1.1/DTD/svg11.dtd">
<!-- Generated by graphviz version 2.40.1 (20161225.0304)
 -->
<!-- Title: fileparsers Pages: 1 -->
<svg width="188pt" height="204pt"
 viewBox="0.00 0.00 187.50 204.00" xmlns="http://www.w3.org/2000/svg" xmlns:xlink="http://www.w3.org/1999/xlink">
<g id="graph0" class="graph" transform="scale(1 1) rotate(0) translate(4 200)">
<title>fileparsers</title>
<polygon fill="#ffffff" stroke="transparent" points="-4,4 -4,-200 183.5,-200 183.5,4 -4,4"/>
<g id="clust1" class="cluster">
<title>clusterdir_dea78313235eb47f342de8e8297f8ee6</title>
<g id="a_clust1"><a xlink:href="dir_dea78313235eb47f342de8e8297f8ee6.html" target="_top">
<polygon fill="#eeeeff" stroke="#000000" points="15.5,-64 15.5,-188 171.5,-188 171.5,-64 15.5,-64"/>
</a>
</g>
</g>
<!-- dir_dea78313235eb47f342de8e8297f8ee6 -->
<g id="node1" class="node">
<title>dir_dea78313235eb47f342de8e8297f8ee6</title>
<text text-anchor="middle" x="129.5" y="-159.5" font-family="Helvetica,sans-Serif" font-size="10.00" fill="#000000">fileparsers</text>
</g>
<!-- dir_c872042f09b1bc5ee39723da1e7cec52 -->
<g id="node2" class="node">
<title>dir_c872042f09b1bc5ee39723da1e7cec52</title>
<g id="a_node2"><a xlink:href="dir_c872042f09b1bc5ee39723da1e7cec52.html" target="_top" xlink:title="include">
<polygon fill="#ffffff" stroke="#000000" points="77.5,-108 23.5,-108 23.5,-72 77.5,-72 77.5,-108"/>
<text text-anchor="middle" x="50.5" y="-87.5" font-family="Helvetica,sans-Serif" font-size="10.00" fill="#000000">include</text>
</a>
</g>
</g>
<!-- dir_a6e0c1fcdf1d5a4727261697f51b55f1 -->
<g id="node4" class="node">
<title>dir_a6e0c1fcdf1d5a4727261697f51b55f1</title>
<g id="a_node4"><a xlink:href="dir_a6e0c1fcdf1d5a4727261697f51b55f1.html" target="_top" xlink:title="device_backends">
<polygon fill="#ffffff" stroke="#ff0000" points="101,-36 0,-36 0,0 101,0 101,-36"/>
<text text-anchor="middle" x="50.5" y="-15.5" font-family="Helvetica,sans-Serif" font-size="10.00" fill="#000000">device_backends</text>
</a>
</g>
</g>
<!-- dir_c872042f09b1bc5ee39723da1e7cec52&#45;&gt;dir_a6e0c1fcdf1d5a4727261697f51b55f1 -->
<g id="edge3" class="edge">
<title>dir_c872042f09b1bc5ee39723da1e7cec52&#45;&gt;dir_a6e0c1fcdf1d5a4727261697f51b55f1</title>
<path fill="none" stroke="#000000" d="M44.5476,-71.8314C43.7972,-64.131 43.5763,-54.9743 43.8849,-46.4166"/>
<polygon fill="#000000" stroke="#000000" points="47.3792,-46.6161 44.524,-36.4133 40.3935,-46.1697 47.3792,-46.6161"/>
<g id="a_edge3&#45;headlabel"><a xlink:href="dir_000038_000004.html" target="_top" xlink:title="1">
<text text-anchor="middle" x="49.9836" y="-47.8844" font-family="Helvetica,sans-Serif" font-size="10.00" fill="#000000">1</text>
</a>
</g>
</g>
<!-- dir_c53ed45d3ec6d7b879fd33b2d3a5927a -->
<g id="node3" class="node">
<title>dir_c53ed45d3ec6d7b879fd33b2d3a5927a</title>
<g id="a_node3"><a xlink:href="dir_c53ed45d3ec6d7b879fd33b2d3a5927a.html" target="_top" xlink:title="src">
<polygon fill="#ffffff" stroke="#000000" points="77.5,-180 23.5,-180 23.5,-144 77.5,-144 77.5,-180"/>
<text text-anchor="middle" x="50.5" y="-159.5" font-family="Helvetica,sans-Serif" font-size="10.00" fill="#000000">src</text>
</a>
</g>
</g>
<!-- dir_c53ed45d3ec6d7b879fd33b2d3a5927a&#45;&gt;dir_c872042f09b1bc5ee39723da1e7cec52 -->
<g id="edge2" class="edge">
<title>dir_c53ed45d3ec6d7b879fd33b2d3a5927a&#45;&gt;dir_c872042f09b1bc5ee39723da1e7cec52</title>
<path fill="none" stroke="#000000" d="M50.5,-143.8314C50.5,-136.131 50.5,-126.9743 50.5,-118.4166"/>
<polygon fill="#000000" stroke="#000000" points="54.0001,-118.4132 50.5,-108.4133 47.0001,-118.4133 54.0001,-118.4132"/>
<g id="a_edge2&#45;headlabel"><a xlink:href="dir_000039_000038.html" target="_top" xlink:title="2">
<text text-anchor="middle" x="56.8393" y="-119.5079" font-family="Helvetica,sans-Serif" font-size="10.00" fill="#000000">2</text>
</a>
</g>
</g>
<!-- dir_a6e0c1fcdf1d5a4727261697f51b55f1&#45;&gt;dir_c872042f09b1bc5ee39723da1e7cec52 -->
<g id="edge1" class="edge">
<title>dir_a6e0c1fcdf1d5a4727261697f51b55f1&#45;&gt;dir_c872042f09b1bc5ee39723da1e7cec52</title>
<path fill="none" stroke="#000000" d="M56.476,-36.4133C57.2071,-44.0593 57.4203,-53.1084 57.1155,-61.5726"/>
<polygon fill="#000000" stroke="#000000" points="53.6048,-61.6264 56.4524,-71.8314 60.5902,-62.078 53.6048,-61.6264"/>
<g id="a_edge1&#45;headlabel"><a xlink:href="dir_000004_000038.html" target="_top" xlink:title="2">
<text text-anchor="middle" x="51.0032" y="-55.3562" font-family="Helvetica,sans-Serif" font-size="10.00" fill="#000000">2</text>
</a>
</g>
</g>
</g>
</svg>
