<?xml version="1.0" encoding="UTF-8" standalone="no"?>
<!DOCTYPE svg PUBLIC "-//W3C//DTD SVG 1.1//EN"
 "http://www.w3.org/Graphics/SVG/1.1/DTD/svg11.dtd">
<!-- Generated by graphviz version 2.40.1 (20161225.0304)
 -->
<!-- Title: ChimeraTK::DMapFileParser::parseForLoadLib Pages: 1 -->
<!--zoomable 499 -->
<svg id="main" version="1.1" xmlns="http://www.w3.org/2000/svg" xmlns:xlink="http://www.w3.org/1999/xlink" xml:space="preserve" onload="init(evt)">
<style type="text/css"><![CDATA[
.edge:hover path { stroke: red; }
.edge:hover polygon { stroke: red; fill: red; }
]]></style>
<script type="text/javascript"><![CDATA[
var edges = document.getElementsByTagName('g');
if (edges && edges.length) {
  for (var i=0;i<edges.length;i++) {
    if (edges[i].id.substr(0,4)=='edge') {
      edges[i].setAttribute('class','edge');
    }
  }
}
]]></script>
        <defs>
                <circle id="rim" cx="0" cy="0" r="7"/>
                <circle id="rim2" cx="0" cy="0" r="3.5"/>
                <g id="zoomPlus">
                        <use xlink:href="#rim" fill="#404040">
                                <set attributeName="fill" to="#808080" begin="zoomplus.mouseover" end="zoomplus.mouseout"/>
                        </use>
                        <path d="M-4,0h8M0,-4v8" fill="none" stroke="white" stroke-width="1.5" pointer-events="none"/>
                </g>
                <g id="zoomMin">
                        <use xlink:href="#rim" fill="#404040">
                                <set attributeName="fill" to="#808080" begin="zoomminus.mouseover" end="zoomminus.mouseout"/>
                        </use>
                        <path d="M-4,0h8" fill="none" stroke="white" stroke-width="1.5" pointer-events="none"/>
                </g>
                <g id="dirArrow">
                        <path fill="none" stroke="white" stroke-width="1.5" d="M0,-3.0v7 M-2.5,-0.5L0,-3.0L2.5,-0.5"/>
                </g>
               <g id="resetDef">
                       <use xlink:href="#rim2" fill="#404040">
                               <set attributeName="fill" to="#808080" begin="reset.mouseover" end="reset.mouseout"/>
                       </use>
               </g>
        </defs>

<script type="text/javascript">
var viewWidth = 1433;
var viewHeight = 499;
var sectionId = 'dynsection-5';
</script>
<script xlink:href="svgpan.js"/>
<svg id="graph" class="graph">
<g id="viewport">
<title>ChimeraTK::DMapFileParser::parseForLoadLib</title>
<polygon fill="#ffffff" stroke="transparent" points="-4,4 -4,-495 1429,-495 1429,4 -4,4"/>
<!-- Node84 -->
<g id="node1" class="node">
<title>Node84</title>
<polygon fill="#bfbfbf" stroke="#000000" points="0,-171.5 0,-201.5 151,-201.5 151,-171.5 0,-171.5"/>
<text text-anchor="start" x="8" y="-189.5" font-family="Helvetica,sans-Serif" font-size="10.00" fill="#000000">ChimeraTK::DMapFileParser</text>
<text text-anchor="middle" x="75.5" y="-178.5" font-family="Helvetica,sans-Serif" font-size="10.00" fill="#000000">::parseForLoadLib</text>
</g>
<!-- Node85 -->
<g id="node2" class="node">
<title>Node85</title>
<g id="a_node2"><a xlink:href="class_chimera_t_k_1_1_d_map_file_parser.html#af5bc5f64b8e53e070862ac5e9992a412" target="_top" xlink:title="Performs parsing of specified DMAP file. ">
<polygon fill="#ffffff" stroke="#000000" points="187,-171.5 187,-201.5 338,-201.5 338,-171.5 187,-171.5"/>
<text text-anchor="start" x="195" y="-189.5" font-family="Helvetica,sans-Serif" font-size="10.00" fill="#000000">ChimeraTK::DMapFileParser</text>
<text text-anchor="middle" x="262.5" y="-178.5" font-family="Helvetica,sans-Serif" font-size="10.00" fill="#000000">::parse</text>
</a>
</g>
</g>
<!-- Node84&#45;&gt;Node85 -->
<g id="edge1" class="edge">
<title>Node84&#45;&gt;Node85</title>
<path fill="none" stroke="#191970" d="M161.2978,-186.5C169.7728,-186.5 178.3329,-186.5 186.6969,-186.5"/>
<polygon fill="#191970" stroke="#191970" points="161.0211,-183.0001 151.021,-186.5 161.021,-190.0001 161.0211,-183.0001"/>
</g>
<!-- Node86 -->
<g id="node3" class="node">
<title>Node86</title>
<g id="a_node3"><a xlink:href="class_chimera_t_k_1_1_backend_factory.html#afb11ba2d5dbe02a49f8e99ff9e84ae54" target="_top" xlink:title="Load all shared libraries specified in the dmap file. ">
<polygon fill="#ffffff" stroke="#000000" points="374,-366.5 374,-396.5 534,-396.5 534,-366.5 374,-366.5"/>
<text text-anchor="start" x="382" y="-384.5" font-family="Helvetica,sans-Serif" font-size="10.00" fill="#000000">ChimeraTK::BackendFactory</text>
<text text-anchor="middle" x="454" y="-373.5" font-family="Helvetica,sans-Serif" font-size="10.00" fill="#000000">::loadAllPluginsFromDMapFile</text>
</a>
</g>
</g>
<!-- Node85&#45;&gt;Node86 -->
<g id="edge2" class="edge">
<title>Node85&#45;&gt;Node86</title>
<path fill="none" stroke="#191970" d="M276.7205,-210.6296C295.9104,-241.7483 332.5102,-296.2843 374,-333.5 388.5893,-346.5864 407.2594,-358.0254 422.8935,-366.4508"/>
<polygon fill="#191970" stroke="#191970" points="279.521,-208.4984 271.3378,-201.7689 273.5384,-212.1327 279.521,-208.4984"/>
</g>
<!-- Node94 -->
<g id="node11" class="node">
<title>Node94</title>
<g id="a_node11"><a xlink:href="class_d_map_file_parser_test.html#ad2e10d86a9e4d09b943897c0e921b844" target="_top" xlink:title="DMapFileParserTest\l::testFileNotFound">
<polygon fill="#ffffff" stroke="#000000" points="399,-245.5 399,-275.5 509,-275.5 509,-245.5 399,-245.5"/>
<text text-anchor="start" x="407" y="-263.5" font-family="Helvetica,sans-Serif" font-size="10.00" fill="#000000">DMapFileParserTest</text>
<text text-anchor="middle" x="454" y="-252.5" font-family="Helvetica,sans-Serif" font-size="10.00" fill="#000000">::testFileNotFound</text>
</a>
</g>
</g>
<!-- Node85&#45;&gt;Node94 -->
<g id="edge10" class="edge">
<title>Node85&#45;&gt;Node94</title>
<path fill="none" stroke="#191970" d="M303.5239,-205.8348C324.3971,-215.3369 350.3045,-226.6223 374,-235.5 383.2659,-238.9715 393.2538,-242.3627 402.9264,-245.4713"/>
<polygon fill="#191970" stroke="#191970" points="304.8623,-202.5982 294.3137,-201.6096 301.9435,-208.9606 304.8623,-202.5982"/>
</g>
<!-- Node96 -->
<g id="node13" class="node">
<title>Node96</title>
<g id="a_node13"><a xlink:href="class_d_map_file_parser_test.html#a598675f30fb39d7980ee2a039392a4f7" target="_top" xlink:title="DMapFileParserTest\l::testErrorInDmapFile">
<polygon fill="#ffffff" stroke="#000000" points="394.5,-196.5 394.5,-226.5 513.5,-226.5 513.5,-196.5 394.5,-196.5"/>
<text text-anchor="start" x="402.5" y="-214.5" font-family="Helvetica,sans-Serif" font-size="10.00" fill="#000000">DMapFileParserTest</text>
<text text-anchor="middle" x="454" y="-203.5" font-family="Helvetica,sans-Serif" font-size="10.00" fill="#000000">::testErrorInDmapFile</text>
</a>
</g>
</g>
<!-- Node85&#45;&gt;Node96 -->
<g id="edge12" class="edge">
<title>Node85&#45;&gt;Node96</title>
<path fill="none" stroke="#191970" d="M348.3026,-197.7014C363.801,-199.7247 379.6508,-201.7938 394.2041,-203.6937"/>
<polygon fill="#191970" stroke="#191970" points="348.5548,-194.2047 338.1859,-196.3807 347.6486,-201.1458 348.5548,-194.2047"/>
</g>
<!-- Node97 -->
<g id="node14" class="node">
<title>Node97</title>
<g id="a_node14"><a xlink:href="class_d_map_file_parser_test.html#ae5c141f7c22c33d33cdaa6ccef4467c0" target="_top" xlink:title="DMapFileParserTest\l::testNoDataInDmapFile">
<polygon fill="#ffffff" stroke="#000000" points="387.5,-147.5 387.5,-177.5 520.5,-177.5 520.5,-147.5 387.5,-147.5"/>
<text text-anchor="start" x="395.5" y="-165.5" font-family="Helvetica,sans-Serif" font-size="10.00" fill="#000000">DMapFileParserTest</text>
<text text-anchor="middle" x="454" y="-154.5" font-family="Helvetica,sans-Serif" font-size="10.00" fill="#000000">::testNoDataInDmapFile</text>
</a>
</g>
</g>
<!-- Node85&#45;&gt;Node97 -->
<g id="edge14" class="edge">
<title>Node85&#45;&gt;Node97</title>
<path fill="none" stroke="#191970" d="M348.1434,-175.7666C361.2515,-174.1238 374.6152,-172.449 387.2368,-170.8672"/>
<polygon fill="#191970" stroke="#191970" points="347.673,-172.2981 338.1859,-177.0146 348.5435,-179.2438 347.673,-172.2981"/>
</g>
<!-- Node98 -->
<g id="node15" class="node">
<title>Node98</title>
<g id="a_node15"><a xlink:href="class_d_map_file_parser_test.html#ad2445cc1b8244fc71c7b78511e213d70" target="_top" xlink:title="DMapFileParserTest\l::testParseFile">
<polygon fill="#ffffff" stroke="#000000" points="399,-98.5 399,-128.5 509,-128.5 509,-98.5 399,-98.5"/>
<text text-anchor="start" x="407" y="-116.5" font-family="Helvetica,sans-Serif" font-size="10.00" fill="#000000">DMapFileParserTest</text>
<text text-anchor="middle" x="454" y="-105.5" font-family="Helvetica,sans-Serif" font-size="10.00" fill="#000000">::testParseFile</text>
</a>
</g>
</g>
<!-- Node85&#45;&gt;Node98 -->
<g id="edge16" class="edge">
<title>Node85&#45;&gt;Node98</title>
<path fill="none" stroke="#191970" d="M303.481,-167.0498C324.3435,-157.5187 350.2542,-146.2421 374,-137.5 382.4367,-134.394 391.4792,-131.3847 400.3393,-128.6076"/>
<polygon fill="#191970" stroke="#191970" points="301.8943,-163.9272 294.2767,-171.2908 304.8237,-170.2848 301.8943,-163.9272"/>
</g>
<!-- Node99 -->
<g id="node16" class="node">
<title>Node99</title>
<g id="a_node16"><a xlink:href="class_rebot_test_class.html#ac58d489c5a55ea8f6521c505c9aee6fc" target="_top" xlink:title="RebotTestClass::RebotTest\lClass">
<polygon fill="#ffffff" stroke="#000000" points="382.5,-49.5 382.5,-79.5 525.5,-79.5 525.5,-49.5 382.5,-49.5"/>
<text text-anchor="start" x="390.5" y="-67.5" font-family="Helvetica,sans-Serif" font-size="10.00" fill="#000000">RebotTestClass::RebotTest</text>
<text text-anchor="middle" x="454" y="-56.5" font-family="Helvetica,sans-Serif" font-size="10.00" fill="#000000">Class</text>
</a>
</g>
</g>
<!-- Node85&#45;&gt;Node99 -->
<g id="edge18" class="edge">
<title>Node85&#45;&gt;Node99</title>
<path fill="none" stroke="#191970" d="M282.7917,-163.687C303.6478,-141.5372 338.0675,-108.4227 374,-88.5 380.0872,-85.125 386.7042,-82.1718 393.4383,-79.601"/>
<polygon fill="#191970" stroke="#191970" points="279.9647,-161.5889 275.7438,-171.3067 285.1035,-166.3421 279.9647,-161.5889"/>
</g>
<!-- Node100 -->
<g id="node17" class="node">
<title>Node100</title>
<g id="a_node17"><a xlink:href="class_chimera_t_k_1_1_utilities.html#a0124cd7dc8ef468a7c292788414848ed" target="_top" xlink:title="Search for an alias in a given DMap file and return the DeviceInfo entry. ">
<polygon fill="#ffffff" stroke="#000000" points="396.5,-294.5 396.5,-324.5 511.5,-324.5 511.5,-294.5 396.5,-294.5"/>
<text text-anchor="start" x="404.5" y="-312.5" font-family="Helvetica,sans-Serif" font-size="10.00" fill="#000000">ChimeraTK::Utilities</text>
<text text-anchor="middle" x="454" y="-301.5" font-family="Helvetica,sans-Serif" font-size="10.00" fill="#000000">::aliasLookUp</text>
</a>
</g>
</g>
<!-- Node85&#45;&gt;Node100 -->
<g id="edge19" class="edge">
<title>Node85&#45;&gt;Node100</title>
<path fill="none" stroke="#191970" d="M282.8405,-209.2254C303.7341,-231.3082 338.1819,-264.3723 374,-284.5 380.977,-288.4207 388.6488,-291.8107 396.3946,-294.717"/>
<polygon fill="#191970" stroke="#191970" points="285.1514,-206.5708 275.7787,-201.6308 280.0251,-211.3375 285.1514,-206.5708"/>
</g>
<!-- Node114 -->
<g id="node31" class="node">
<title>Node114</title>
<g id="a_node31"><a xlink:href="class_chimera_t_k_1_1_utilities.html#a25a0748d411f914029fd961f040bd2ee" target="_top" xlink:title="Returns the list of device aliases from the DMap file set using BackendFactory::setDMapFilePath. ">
<polygon fill="#ffffff" stroke="#000000" points="396.5,-.5 396.5,-30.5 511.5,-30.5 511.5,-.5 396.5,-.5"/>
<text text-anchor="start" x="404.5" y="-18.5" font-family="Helvetica,sans-Serif" font-size="10.00" fill="#000000">ChimeraTK::Utilities</text>
<text text-anchor="middle" x="454" y="-7.5" font-family="Helvetica,sans-Serif" font-size="10.00" fill="#000000">::getAliasList</text>
</a>
</g>
</g>
<!-- Node85&#45;&gt;Node114 -->
<g id="edge36" class="edge">
<title>Node85&#45;&gt;Node114</title>
<path fill="none" stroke="#191970" d="M274.6214,-162.1399C292.1226,-129.4414 327.5342,-71.7458 374,-39.5 380.7903,-34.7877 388.5229,-30.9841 396.4415,-27.918"/>
<polygon fill="#191970" stroke="#191970" points="271.498,-160.5599 269.9688,-171.0439 277.702,-163.8018 271.498,-160.5599"/>
</g>
<!-- Node87 -->
<g id="node4" class="node">
<title>Node87</title>
<g id="a_node4"><a xlink:href="class_chimera_t_k_1_1_backend_factory.html#a7348fb0d34d8737df3fa4f396fc5163d" target="_top" xlink:title="This function sets the _DMapFilePath. ">
<polygon fill="#ffffff" stroke="#000000" points="570,-378.5 570,-408.5 724,-408.5 724,-378.5 570,-378.5"/>
<text text-anchor="start" x="578" y="-396.5" font-family="Helvetica,sans-Serif" font-size="10.00" fill="#000000">ChimeraTK::BackendFactory</text>
<text text-anchor="middle" x="647" y="-385.5" font-family="Helvetica,sans-Serif" font-size="10.00" fill="#000000">::setDMapFilePath</text>
</a>
</g>
</g>
<!-- Node86&#45;&gt;Node87 -->
<g id="edge3" class="edge">
<title>Node86&#45;&gt;Node87</title>
<path fill="none" stroke="#191970" d="M544.1979,-387.1082C552.778,-387.6416 561.4247,-388.1793 569.8654,-388.7041"/>
<polygon fill="#191970" stroke="#191970" points="544.3706,-383.6122 534.1727,-386.4848 543.9362,-390.5987 544.3706,-383.6122"/>
</g>
<!-- Node88 -->
<g id="node5" class="node">
<title>Node88</title>
<g id="a_node5"><a xlink:href="class_buffering_register_test_suite.html#a511f0d278a3adbbbe1b2678d2e016cde" target="_top" xlink:title="BufferingRegisterTestSuite\l::BufferingRegisterTestSuite">
<polygon fill="#ffffff" stroke="#000000" points="775.5,-460.5 775.5,-490.5 926.5,-490.5 926.5,-460.5 775.5,-460.5"/>
<text text-anchor="start" x="783.5" y="-478.5" font-family="Helvetica,sans-Serif" font-size="10.00" fill="#000000">BufferingRegisterTestSuite</text>
<text text-anchor="middle" x="851" y="-467.5" font-family="Helvetica,sans-Serif" font-size="10.00" fill="#000000">::BufferingRegisterTestSuite</text>
</a>
</g>
</g>
<!-- Node87&#45;&gt;Node88 -->
<g id="edge4" class="edge">
<title>Node87&#45;&gt;Node88</title>
<path fill="none" stroke="#191970" d="M682.1766,-413.5306C704.0686,-425.415 733.0881,-440.1347 760,-450.5 769.4793,-454.151 779.7046,-457.4999 789.7586,-460.4789"/>
<polygon fill="#191970" stroke="#191970" points="683.7075,-410.3783 673.2576,-408.6317 680.3376,-416.5137 683.7075,-410.3783"/>
</g>
<!-- Node89 -->
<g id="node6" class="node">
<title>Node89</title>
<g id="a_node6"><a xlink:href="test_device_8cpp.html#ab83892089340958763d777921ead7687" target="_top" xlink:title="BOOST_AUTO_TEST_CASE">
<polygon fill="#ffffff" stroke="#000000" points="1002,-365 1002,-384 1145,-384 1145,-365 1002,-365"/>
<text text-anchor="middle" x="1073.5" y="-372" font-family="Helvetica,sans-Serif" font-size="10.00" fill="#000000">BOOST_AUTO_TEST_CASE</text>
</a>
</g>
</g>
<!-- Node87&#45;&gt;Node89 -->
<g id="edge5" class="edge">
<title>Node87&#45;&gt;Node89</title>
<path fill="none" stroke="#191970" d="M734.3895,-377.3275C743.0187,-376.1757 751.6644,-375.1959 760,-374.5 842.7136,-367.5947 938.131,-368.9164 1001.7649,-371.1138"/>
<polygon fill="#191970" stroke="#191970" points="733.7001,-373.89 724.2867,-378.7518 734.6774,-380.8214 733.7001,-373.89"/>
</g>
<!-- Node90 -->
<g id="node7" class="node">
<title>Node90</title>
<g id="a_node7"><a xlink:href="test_rebot_backend_8cpp.html#a19823c5af9fff4070c144dacf022bf94" target="_top" xlink:title="init_unit_test">
<polygon fill="#ffffff" stroke="#000000" points="811,-384 811,-403 891,-403 891,-384 811,-384"/>
<text text-anchor="middle" x="851" y="-391" font-family="Helvetica,sans-Serif" font-size="10.00" fill="#000000">init_unit_test</text>
</a>
</g>
</g>
<!-- Node87&#45;&gt;Node90 -->
<g id="edge6" class="edge">
<title>Node87&#45;&gt;Node90</title>
<path fill="none" stroke="#191970" d="M734.2686,-393.5C760.9552,-393.5 789.0161,-393.5 810.9358,-393.5"/>
<polygon fill="#191970" stroke="#191970" points="734.1237,-390.0001 724.1237,-393.5 734.1236,-397.0001 734.1237,-390.0001"/>
</g>
<!-- Node91 -->
<g id="node8" class="node">
<title>Node91</title>
<g id="a_node8"><a xlink:href="namespace_chimera_t_k.html#ac081e51ebc9ef4fe64b469290d39b7a2" target="_top" xlink:title="Set the location of the dmap file. ">
<polygon fill="#ffffff" stroke="#000000" points="772.5,-422 772.5,-441 929.5,-441 929.5,-422 772.5,-422"/>
<text text-anchor="middle" x="851" y="-429" font-family="Helvetica,sans-Serif" font-size="10.00" fill="#000000">ChimeraTK::setDMapFilePath</text>
</a>
</g>
</g>
<!-- Node87&#45;&gt;Node91 -->
<g id="edge7" class="edge">
<title>Node87&#45;&gt;Node91</title>
<path fill="none" stroke="#191970" d="M733.9914,-409.7043C756.3973,-413.8779 779.791,-418.2356 799.7197,-421.9478"/>
<polygon fill="#191970" stroke="#191970" points="734.5955,-406.2567 724.1237,-407.8662 733.3136,-413.1383 734.5955,-406.2567"/>
</g>
<!-- Node92 -->
<g id="node9" class="node">
<title>Node92</title>
<g id="a_node9"><a xlink:href="accessor1_d_8cpp.html#ae66f6b31b5ad750f1fe042a706a4e3d4" target="_top" xlink:title="main">
<polygon fill="#ffffff" stroke="#000000" points="1053,-404 1053,-423 1094,-423 1094,-404 1053,-404"/>
<text text-anchor="middle" x="1073.5" y="-411" font-family="Helvetica,sans-Serif" font-size="10.00" fill="#000000">main</text>
</a>
</g>
</g>
<!-- Node91&#45;&gt;Node92 -->
<g id="edge8" class="edge">
<title>Node91&#45;&gt;Node92</title>
<path fill="none" stroke="#191970" d="M939.8713,-424.3104C981.1638,-420.9699 1026.7468,-417.2823 1052.5763,-415.1927"/>
<polygon fill="#191970" stroke="#191970" points="939.4435,-420.8335 929.7583,-425.1285 940.008,-427.8107 939.4435,-420.8335"/>
</g>
<!-- Node93 -->
<g id="node10" class="node">
<title>Node93</title>
<g id="a_node10"><a xlink:href="test_backend_factory_8cpp.html#a9f15aa63cc160538eda9419543a94d60" target="_top" xlink:title="BOOST_AUTO_TEST_CASE">
<polygon fill="#ffffff" stroke="#000000" points="1002,-442 1002,-461 1145,-461 1145,-442 1002,-442"/>
<text text-anchor="middle" x="1073.5" y="-449" font-family="Helvetica,sans-Serif" font-size="10.00" fill="#000000">BOOST_AUTO_TEST_CASE</text>
</a>
</g>
</g>
<!-- Node91&#45;&gt;Node93 -->
<g id="edge9" class="edge">
<title>Node91&#45;&gt;Node93</title>
<path fill="none" stroke="#191970" d="M939.786,-439.4808C960.4156,-441.3351 982.1205,-443.2861 1001.9012,-445.0642"/>
<polygon fill="#191970" stroke="#191970" points="940.0315,-435.9888 929.7583,-438.5794 939.4048,-442.9607 940.0315,-435.9888"/>
</g>
<!-- Node95 -->
<g id="node12" class="node">
<title>Node95</title>
<g id="a_node12"><a xlink:href="class_d_map_file_parser_test_suite.html#a0e28986d4837eca18c86797318d14d41" target="_top" xlink:title="DMapFileParserTestSuite\l::DMapFileParserTestSuite">
<polygon fill="#ffffff" stroke="#000000" points="576.5,-172.5 576.5,-202.5 717.5,-202.5 717.5,-172.5 576.5,-172.5"/>
<text text-anchor="start" x="584.5" y="-190.5" font-family="Helvetica,sans-Serif" font-size="10.00" fill="#000000">DMapFileParserTestSuite</text>
<text text-anchor="middle" x="647" y="-179.5" font-family="Helvetica,sans-Serif" font-size="10.00" fill="#000000">::DMapFileParserTestSuite</text>
</a>
</g>
</g>
<!-- Node94&#45;&gt;Node95 -->
<g id="edge11" class="edge">
<title>Node94&#45;&gt;Node95</title>
<path fill="none" stroke="#191970" d="M518.2266,-241.9767C523.6256,-239.9542 528.9475,-237.791 534,-235.5 551.0775,-227.7563 553.0118,-221.4375 570,-213.5 578.5647,-209.4983 587.9205,-205.8103 597.0667,-202.5459"/>
<polygon fill="#191970" stroke="#191970" points="516.7067,-238.8029 508.4666,-245.4625 519.0612,-245.395 516.7067,-238.8029"/>
</g>
<!-- Node96&#45;&gt;Node95 -->
<g id="edge13" class="edge">
<title>Node96&#45;&gt;Node95</title>
<path fill="none" stroke="#191970" d="M523.6763,-202.8356C540.8158,-200.7042 559.1817,-198.4204 576.3661,-196.2835"/>
<polygon fill="#191970" stroke="#191970" points="523.2363,-199.3633 513.7447,-204.0706 524.1002,-206.3098 523.2363,-199.3633"/>
</g>
<!-- Node97&#45;&gt;Node95 -->
<g id="edge15" class="edge">
<title>Node97&#45;&gt;Node95</title>
<path fill="none" stroke="#191970" d="M530.9451,-172.467C545.9369,-174.4089 561.5861,-176.436 576.3618,-178.35"/>
<polygon fill="#191970" stroke="#191970" points="531.0567,-168.9523 520.6899,-171.1386 530.1574,-175.8943 531.0567,-168.9523"/>
</g>
<!-- Node98&#45;&gt;Node95 -->
<g id="edge17" class="edge">
<title>Node98&#45;&gt;Node95</title>
<path fill="none" stroke="#191970" d="M517.2525,-131.6707C522.9461,-133.5486 528.5978,-135.5034 534,-137.5 562.1714,-147.9118 593.3255,-161.8893 615.7747,-172.4187"/>
<polygon fill="#191970" stroke="#191970" points="518.2588,-128.3179 507.6674,-128.5892 516.1163,-134.982 518.2588,-128.3179"/>
</g>
<!-- Node101 -->
<g id="node18" class="node">
<title>Node101</title>
<g id="a_node18"><a xlink:href="class_chimera_t_k_1_1_backend_factory.html#a240088c806406533d0aa975b7bf61b05" target="_top" xlink:title="Create a new backend and return the instance as a shared pointer. ">
<polygon fill="#ffffff" stroke="#000000" points="570,-223.5 570,-253.5 724,-253.5 724,-223.5 570,-223.5"/>
<text text-anchor="start" x="578" y="-241.5" font-family="Helvetica,sans-Serif" font-size="10.00" fill="#000000">ChimeraTK::BackendFactory</text>
<text text-anchor="middle" x="647" y="-230.5" font-family="Helvetica,sans-Serif" font-size="10.00" fill="#000000">::createBackend</text>
</a>
</g>
</g>
<!-- Node100&#45;&gt;Node101 -->
<g id="edge20" class="edge">
<title>Node100&#45;&gt;Node101</title>
<path fill="none" stroke="#191970" d="M514.3065,-291.2492C520.978,-289.0537 527.651,-286.7798 534,-284.5 560.5136,-274.9795 589.978,-262.9354 612.1709,-253.5596"/>
<polygon fill="#191970" stroke="#191970" points="513.0068,-287.991 504.5711,-294.4011 515.163,-294.6507 513.0068,-287.991"/>
</g>
<!-- Node102 -->
<g id="node19" class="node">
<title>Node102</title>
<g id="a_node19"><a xlink:href="class_chimera_t_k_1_1_logical_name_mapping_backend.html#a6b020ac5ae848f98a0220c858d7808e7" target="_top" xlink:title="parse the logical map file, if not yet done ">
<polygon fill="#ffffff" stroke="#000000" points="760,-223.5 760,-253.5 942,-253.5 942,-223.5 760,-223.5"/>
<text text-anchor="start" x="768" y="-241.5" font-family="Helvetica,sans-Serif" font-size="10.00" fill="#000000">ChimeraTK::LogicalNameMapping</text>
<text text-anchor="middle" x="851" y="-230.5" font-family="Helvetica,sans-Serif" font-size="10.00" fill="#000000">Backend::parse</text>
</a>
</g>
</g>
<!-- Node101&#45;&gt;Node102 -->
<g id="edge21" class="edge">
<title>Node101&#45;&gt;Node102</title>
<path fill="none" stroke="#191970" d="M734.3009,-238.5C742.7128,-238.5 751.2609,-238.5 759.7099,-238.5"/>
<polygon fill="#191970" stroke="#191970" points="734.1237,-235.0001 724.1237,-238.5 734.1236,-242.0001 734.1237,-235.0001"/>
</g>
<!-- Node109 -->
<g id="node26" class="node">
<title>Node109</title>
<g id="a_node26"><a xlink:href="test_device_8cpp.html#a3bc6cd2a07480ed43ccf87c31f6c9120" target="_top" xlink:title="BOOST_AUTO_TEST_CASE">
<polygon fill="#ffffff" stroke="#000000" points="779.5,-297 779.5,-316 922.5,-316 922.5,-297 779.5,-297"/>
<text text-anchor="middle" x="851" y="-304" font-family="Helvetica,sans-Serif" font-size="10.00" fill="#000000">BOOST_AUTO_TEST_CASE</text>
</a>
</g>
</g>
<!-- Node101&#45;&gt;Node109 -->
<g id="edge30" class="edge">
<title>Node101&#45;&gt;Node109</title>
<path fill="none" stroke="#191970" d="M701.6365,-256.7122C740.5326,-269.6775 791.24,-286.58 822.4379,-296.9793"/>
<polygon fill="#191970" stroke="#191970" points="702.6149,-253.349 692.0212,-253.5071 700.4012,-259.9898 702.6149,-253.349"/>
</g>
<!-- Node110 -->
<g id="node27" class="node">
<title>Node110</title>
<g id="a_node27"><a xlink:href="class_fixture__t.html#a8bdf52a6391665667fed0c8675788f53" target="_top" xlink:title="Fixture_t::getBackendInstance">
<polygon fill="#ffffff" stroke="#000000" points="769,-163 769,-182 933,-182 933,-163 769,-163"/>
<text text-anchor="middle" x="851" y="-170" font-family="Helvetica,sans-Serif" font-size="10.00" fill="#000000">Fixture_t::getBackendInstance</text>
</a>
</g>
</g>
<!-- Node101&#45;&gt;Node110 -->
<g id="edge32" class="edge">
<title>Node101&#45;&gt;Node110</title>
<path fill="none" stroke="#191970" d="M703.5094,-220.2176C741.7076,-207.8593 790.6103,-192.0378 821.3818,-182.0824"/>
<polygon fill="#191970" stroke="#191970" points="701.9831,-217.0327 693.546,-223.441 704.1379,-223.6928 701.9831,-217.0327"/>
</g>
<!-- Node112 -->
<g id="node29" class="node">
<title>Node112</title>
<g id="a_node29"><a xlink:href="class_pcie_backend_test.html#aff8b1840dd414e6ad2687c1f6e02aba7" target="_top" xlink:title="PcieBackendTest::testCreate\lBackend">
<polygon fill="#ffffff" stroke="#000000" points="773.5,-113.5 773.5,-143.5 928.5,-143.5 928.5,-113.5 773.5,-113.5"/>
<text text-anchor="start" x="781.5" y="-131.5" font-family="Helvetica,sans-Serif" font-size="10.00" fill="#000000">PcieBackendTest::testCreate</text>
<text text-anchor="middle" x="851" y="-120.5" font-family="Helvetica,sans-Serif" font-size="10.00" fill="#000000">Backend</text>
</a>
</g>
</g>
<!-- Node101&#45;&gt;Node112 -->
<g id="edge34" class="edge">
<title>Node101&#45;&gt;Node112</title>
<path fill="none" stroke="#191970" d="M713.3966,-218.7037C717.1354,-216.5371 720.7062,-214.1433 724,-211.5 747.6621,-192.5106 735.6957,-171.6602 760,-153.5 765.1187,-149.6753 770.7897,-146.4358 776.7261,-143.6918"/>
<polygon fill="#191970" stroke="#191970" points="711.6868,-215.6477 704.4195,-223.3572 714.9084,-221.8624 711.6868,-215.6477"/>
</g>
<!-- Node103 -->
<g id="node20" class="node">
<title>Node103</title>
<g id="a_node20"><a xlink:href="class_chimera_t_k_1_1_logical_name_mapping_backend.html#a8a63092ddf7030074e927eeaf67c5b13" target="_top" xlink:title="Return a device information string containing hardware details like the firmware version number or th...">
<polygon fill="#ffffff" stroke="#000000" points="1224,-217.5 1224,-247.5 1406,-247.5 1406,-217.5 1224,-217.5"/>
<text text-anchor="start" x="1232" y="-235.5" font-family="Helvetica,sans-Serif" font-size="10.00" fill="#000000">ChimeraTK::LogicalNameMapping</text>
<text text-anchor="middle" x="1315" y="-224.5" font-family="Helvetica,sans-Serif" font-size="10.00" fill="#000000">Backend::readDeviceInfo</text>
</a>
</g>
</g>
<!-- Node102&#45;&gt;Node103 -->
<g id="edge22" class="edge">
<title>Node102&#45;&gt;Node103</title>
<path fill="none" stroke="#191970" d="M910.3623,-220.8958C931.5098,-215.4567 955.6293,-210.1908 978,-207.5 1062.2814,-197.3625 1084.4161,-200.3105 1169,-207.5 1192.8301,-209.5255 1218.6142,-213.3787 1241.7877,-217.4643"/>
<polygon fill="#191970" stroke="#191970" points="909.333,-217.5475 900.5571,-223.4834 911.1192,-224.3158 909.333,-217.5475"/>
</g>
<!-- Node104 -->
<g id="node21" class="node">
<title>Node104</title>
<g id="a_node21"><a xlink:href="class_chimera_t_k_1_1_logical_name_mapping_backend.html#aa62cb97e2a5de85ae6151410b78f0ec6" target="_top" xlink:title="Open the device. ">
<polygon fill="#ffffff" stroke="#000000" points="982.5,-315.5 982.5,-345.5 1164.5,-345.5 1164.5,-315.5 982.5,-315.5"/>
<text text-anchor="start" x="990.5" y="-333.5" font-family="Helvetica,sans-Serif" font-size="10.00" fill="#000000">ChimeraTK::LogicalNameMapping</text>
<text text-anchor="middle" x="1073.5" y="-322.5" font-family="Helvetica,sans-Serif" font-size="10.00" fill="#000000">Backend::open</text>
</a>
</g>
</g>
<!-- Node102&#45;&gt;Node104 -->
<g id="edge23" class="edge">
<title>Node102&#45;&gt;Node104</title>
<path fill="none" stroke="#191970" d="M887.4379,-258.2697C921.5816,-276.7049 968.7219,-301.8934 978,-305.5 987.5046,-309.1946 997.75,-312.5223 1007.8783,-315.4541"/>
<polygon fill="#191970" stroke="#191970" points="889.0935,-255.186 878.6321,-253.5095 885.7647,-261.3439 889.0935,-255.186"/>
</g>
<!-- Node106 -->
<g id="node23" class="node">
<title>Node106</title>
<g id="a_node23"><a xlink:href="class_chimera_t_k_1_1_logical_name_mapping_backend.html#a98f6b271e1d6f1ec80f325e7b59af804" target="_top" xlink:title="ChimeraTK::LogicalNameMapping\lBackend::getRegisterAccessor_impl">
<polygon fill="#ffffff" stroke="#000000" points="978,-266.5 978,-296.5 1169,-296.5 1169,-266.5 978,-266.5"/>
<text text-anchor="start" x="986" y="-284.5" font-family="Helvetica,sans-Serif" font-size="10.00" fill="#000000">ChimeraTK::LogicalNameMapping</text>
<text text-anchor="middle" x="1073.5" y="-273.5" font-family="Helvetica,sans-Serif" font-size="10.00" fill="#000000">Backend::getRegisterAccessor_impl</text>
</a>
</g>
</g>
<!-- Node102&#45;&gt;Node106 -->
<g id="edge25" class="edge">
<title>Node102&#45;&gt;Node106</title>
<path fill="none" stroke="#191970" d="M938.8449,-255.4768C957.6308,-259.1073 977.3492,-262.9181 995.7242,-266.4692"/>
<polygon fill="#191970" stroke="#191970" points="939.3022,-252.0005 928.8197,-253.5393 937.9739,-258.8733 939.3022,-252.0005"/>
</g>
<!-- Node108 -->
<g id="node25" class="node">
<title>Node108</title>
<g id="a_node25"><a xlink:href="class_chimera_t_k_1_1_logical_name_mapping_backend.html#a72f1bf37a09e7c088658d00ed8b83ac8" target="_top" xlink:title="Return the register catalogue with detailed information on all registers. ">
<polygon fill="#ffffff" stroke="#000000" points="982.5,-217.5 982.5,-247.5 1164.5,-247.5 1164.5,-217.5 982.5,-217.5"/>
<text text-anchor="start" x="990.5" y="-235.5" font-family="Helvetica,sans-Serif" font-size="10.00" fill="#000000">ChimeraTK::LogicalNameMapping</text>
<text text-anchor="middle" x="1073.5" y="-224.5" font-family="Helvetica,sans-Serif" font-size="10.00" fill="#000000">Backend::getRegisterCatalogue</text>
</a>
</g>
</g>
<!-- Node102&#45;&gt;Node108 -->
<g id="edge28" class="edge">
<title>Node102&#45;&gt;Node108</title>
<path fill="none" stroke="#191970" d="M952.4163,-235.7652C962.3254,-235.498 972.3394,-235.2279 982.1404,-234.9636"/>
<polygon fill="#191970" stroke="#191970" points="952.0432,-232.2739 942.1413,-236.0423 952.232,-239.2713 952.0432,-232.2739"/>
</g>
<!-- Node105 -->
<g id="node22" class="node">
<title>Node105</title>
<g id="a_node22"><a xlink:href="class_chimera_t_k_1_1_logical_name_mapping_backend.html#aca8a90331ac46ea8e8afdfcd467fca01" target="_top" xlink:title="ChimeraTK::LogicalNameMapping\lBackend::~LogicalNameMappingBackend">
<polygon fill="#ffffff" stroke="#000000" points="1205,-315.5 1205,-345.5 1425,-345.5 1425,-315.5 1205,-315.5"/>
<text text-anchor="start" x="1213" y="-333.5" font-family="Helvetica,sans-Serif" font-size="10.00" fill="#000000">ChimeraTK::LogicalNameMapping</text>
<text text-anchor="middle" x="1315" y="-322.5" font-family="Helvetica,sans-Serif" font-size="10.00" fill="#000000">Backend::~LogicalNameMappingBackend</text>
</a>
</g>
</g>
<!-- Node104&#45;&gt;Node105 -->
<g id="edge24" class="edge">
<title>Node104&#45;&gt;Node105</title>
<path fill="none" stroke="#191970" d="M1175.0117,-330.5C1184.8822,-330.5 1194.9287,-330.5 1204.8782,-330.5"/>
<polygon fill="#191970" stroke="#191970" points="1174.8008,-327.0001 1164.8008,-330.5 1174.8008,-334.0001 1174.8008,-327.0001"/>
</g>
<!-- Node106&#45;&gt;Node103 -->
<g id="edge26" class="edge">
<title>Node106&#45;&gt;Node103</title>
<path fill="none" stroke="#191970" d="M1157.4829,-264.46C1184.6796,-258.9418 1214.6271,-252.8655 1241.0409,-247.5062"/>
<polygon fill="#191970" stroke="#191970" points="1156.7035,-261.0467 1147.5992,-266.4654 1158.0955,-267.9069 1156.7035,-261.0467"/>
</g>
<!-- Node107 -->
<g id="node24" class="node">
<title>Node107</title>
<g id="a_node24"><a xlink:href="class_chimera_t_k_1_1_logical_name_mapping_backend.html#a7d3c15281246ec70a9977004d4fb02c3" target="_top" xlink:title="ChimeraTK::LogicalNameMapping\lBackend::LogicalNameMappingBackend">
<polygon fill="#ffffff" stroke="#000000" points="1209,-266.5 1209,-296.5 1421,-296.5 1421,-266.5 1209,-266.5"/>
<text text-anchor="start" x="1217" y="-284.5" font-family="Helvetica,sans-Serif" font-size="10.00" fill="#000000">ChimeraTK::LogicalNameMapping</text>
<text text-anchor="middle" x="1315" y="-273.5" font-family="Helvetica,sans-Serif" font-size="10.00" fill="#000000">Backend::LogicalNameMappingBackend</text>
</a>
</g>
</g>
<!-- Node106&#45;&gt;Node107 -->
<g id="edge27" class="edge">
<title>Node106&#45;&gt;Node107</title>
<path fill="none" stroke="#191970" d="M1179.4475,-281.5C1189.2472,-281.5 1199.1789,-281.5 1208.9792,-281.5"/>
<polygon fill="#191970" stroke="#191970" points="1179.2941,-278.0001 1169.2941,-281.5 1179.294,-285.0001 1179.2941,-278.0001"/>
</g>
<!-- Node108&#45;&gt;Node103 -->
<g id="edge29" class="edge">
<title>Node108&#45;&gt;Node103</title>
<path fill="none" stroke="#191970" d="M1174.8718,-232.5C1191.1643,-232.5 1207.9401,-232.5 1223.9708,-232.5"/>
<polygon fill="#191970" stroke="#191970" points="1174.8008,-229.0001 1164.8008,-232.5 1174.8008,-236.0001 1174.8008,-229.0001"/>
</g>
<!-- Node109&#45;&gt;Node89 -->
<g id="edge31" class="edge">
<title>Node109&#45;&gt;Node89</title>
<path fill="none" stroke="#191970" d="M885.2179,-319.7455C919.5891,-332.9998 968.7583,-351.8034 978,-354.5 991.6596,-358.4856 1006.6372,-362.009 1020.5972,-364.9443"/>
<polygon fill="#191970" stroke="#191970" points="886.114,-316.3398 875.5245,-316.0035 883.593,-322.8701 886.114,-316.3398"/>
</g>
<!-- Node111 -->
<g id="node28" class="node">
<title>Node111</title>
<g id="a_node28"><a xlink:href="test_dummy_backend_8cpp.html#a4fe660407b9da474afad32e82fe3fcce" target="_top" xlink:title="BOOST_AUTO_TEST_CASE">
<polygon fill="#ffffff" stroke="#000000" points="1002,-141 1002,-160 1145,-160 1145,-141 1002,-141"/>
<text text-anchor="middle" x="1073.5" y="-148" font-family="Helvetica,sans-Serif" font-size="10.00" fill="#000000">BOOST_AUTO_TEST_CASE</text>
</a>
</g>
</g>
<!-- Node110&#45;&gt;Node111 -->
<g id="edge33" class="edge">
<title>Node110&#45;&gt;Node111</title>
<path fill="none" stroke="#191970" d="M943.3513,-163.3686C962.8928,-161.4364 983.2359,-159.425 1001.8725,-157.5823"/>
<polygon fill="#191970" stroke="#191970" points="942.8257,-159.9034 933.2186,-164.3705 943.5145,-166.8695 942.8257,-159.9034"/>
</g>
<!-- Node113 -->
<g id="node30" class="node">
<title>Node113</title>
<g id="a_node30"><a xlink:href="class_pcie_backend_test_suite.html#a862bf4f6e3375cd86ac41cc0c8e0b955" target="_top" xlink:title="PcieBackendTestSuite\l::PcieBackendTestSuite">
<polygon fill="#ffffff" stroke="#000000" points="1009,-91.5 1009,-121.5 1138,-121.5 1138,-91.5 1009,-91.5"/>
<text text-anchor="start" x="1017" y="-109.5" font-family="Helvetica,sans-Serif" font-size="10.00" fill="#000000">PcieBackendTestSuite</text>
<text text-anchor="middle" x="1073.5" y="-98.5" font-family="Helvetica,sans-Serif" font-size="10.00" fill="#000000">::PcieBackendTestSuite</text>
</a>
</g>
</g>
<!-- Node112&#45;&gt;Node113 -->
<g id="edge35" class="edge">
<title>Node112&#45;&gt;Node113</title>
<path fill="none" stroke="#191970" d="M938.7675,-119.8219C962.1247,-117.5124 986.9289,-115.0598 1008.8034,-112.897"/>
<polygon fill="#191970" stroke="#191970" points="938.1144,-116.3693 928.5074,-120.8364 938.8032,-123.3353 938.1144,-116.3693"/>
</g>
</g>
</svg>
        <g id="navigator" transform="translate(0 0)" fill="#404254">
                <rect fill="#f2f5e9" fill-opacity="0.5" stroke="#606060" stroke-width=".5" x="0" y="0" width="60" height="60"/>
                <use id="zoomplus" xlink:href="#zoomPlus" x="17" y="9" onmousedown="handleZoom(evt,'in')"/>
                <use id="zoomminus" xlink:href="#zoomMin" x="42" y="9" onmousedown="handleZoom(evt,'out')"/>
                <use id="reset" xlink:href="#resetDef" x="30" y="36" onmousedown="handleReset()"/>
                <g id="arrowUp" xlink:href="#dirArrow" transform="translate(30 24)" onmousedown="handlePan(0,-1)">
                  <use xlink:href="#rim" fill="#404040">
                        <set attributeName="fill" to="#808080" begin="arrowUp.mouseover" end="arrowUp.mouseout"/>
                  </use>
                  <path fill="none" stroke="white" stroke-width="1.5" d="M0,-3.0v7 M-2.5,-0.5L0,-3.0L2.5,-0.5"/>
                </g>
                <g id="arrowRight" xlink:href="#dirArrow" transform="rotate(90) translate(36 -43)" onmousedown="handlePan(1,0)">
                  <use xlink:href="#rim" fill="#404040">
                        <set attributeName="fill" to="#808080" begin="arrowRight.mouseover" end="arrowRight.mouseout"/>
                  </use>
                  <path fill="none" stroke="white" stroke-width="1.5" d="M0,-3.0v7 M-2.5,-0.5L0,-3.0L2.5,-0.5"/>
                </g>
                <g id="arrowDown" xlink:href="#dirArrow" transform="rotate(180) translate(-30 -48)" onmousedown="handlePan(0,1)">
                  <use xlink:href="#rim" fill="#404040">
                        <set attributeName="fill" to="#808080" begin="arrowDown.mouseover" end="arrowDown.mouseout"/>
                  </use>
                  <path fill="none" stroke="white" stroke-width="1.5" d="M0,-3.0v7 M-2.5,-0.5L0,-3.0L2.5,-0.5"/>
                </g>
                <g id="arrowLeft" xlink:href="#dirArrow" transform="rotate(270) translate(-36 17)" onmousedown="handlePan(-1,0)">
                  <use xlink:href="#rim" fill="#404040">
                        <set attributeName="fill" to="#808080" begin="arrowLeft.mouseover" end="arrowLeft.mouseout"/>
                  </use>
                  <path fill="none" stroke="white" stroke-width="1.5" d="M0,-3.0v7 M-2.5,-0.5L0,-3.0L2.5,-0.5"/>
                </g>
        </g>
        <svg viewBox="0 0 15 15" width="100%" height="30px" preserveAspectRatio="xMaxYMin meet">
         <g id="arrow_out" transform="scale(0.3 0.3)">
          <a xlink:href="class_chimera_t_k_1_1_d_map_file_parser_ac4e96383171637a155abc9a61dd453e2_icgraph_org.svg" target="_base">
           <rect id="button" ry="5" rx="5" y="6" x="6" height="38" width="38"
                fill="#f2f5e9" fill-opacity="0.5" stroke="#606060" stroke-width="1.0"/>
           <path id="arrow"
             d="M 11.500037,31.436501 C 11.940474,20.09759 22.043105,11.32322 32.158766,21.979434 L 37.068811,17.246167 C 37.068811,17.246167 37.088388,32 37.088388,32 L 22.160133,31.978069 C 22.160133,31.978069 26.997745,27.140456 26.997745,27.140456 C 18.528582,18.264221 13.291696,25.230495 11.500037,31.436501 z"
             style="fill:#404040;"/>
          </a>
         </g>
        </svg>
</svg>
