<?xml version="1.0" encoding="UTF-8" standalone="no"?>
<!DOCTYPE svg PUBLIC "-//W3C//DTD SVG 1.1//EN"
 "http://www.w3.org/Graphics/SVG/1.1/DTD/svg11.dtd">
<!-- Generated by graphviz version 2.40.1 (20161225.0304)
 -->
<!-- Title: fileparsers/include/parserUtilities.h Pages: 1 -->
<svg width="1210pt" height="106pt"
 viewBox="0.00 0.00 1210.00 106.00" xmlns="http://www.w3.org/2000/svg" xmlns:xlink="http://www.w3.org/1999/xlink">
<g id="graph0" class="graph" transform="scale(1 1) rotate(0) translate(4 102)">
<title>fileparsers/include/parserUtilities.h</title>
<polygon fill="#ffffff" stroke="transparent" points="-4,4 -4,-102 1206,-102 1206,4 -4,4"/>
<!-- Node2 -->
<g id="node1" class="node">
<title>Node2</title>
<polygon fill="#bfbfbf" stroke="#000000" points="578.5,-67.5 578.5,-97.5 684.5,-97.5 684.5,-67.5 578.5,-67.5"/>
<text text-anchor="start" x="586.5" y="-85.5" font-family="Helvetica,sans-Serif" font-size="10.00" fill="#000000">fileparsers/include</text>
<text text-anchor="middle" x="631.5" y="-74.5" font-family="Helvetica,sans-Serif" font-size="10.00" fill="#000000">/parserUtilities.h</text>
</g>
<!-- Node3 -->
<g id="node2" class="node">
<title>Node3</title>
<g id="a_node2"><a xlink:href="_dummy_backend_8cc.html" target="_top" xlink:title="device_backends/DummyBackend\l/src/DummyBackend.cc">
<polygon fill="#ffffff" stroke="#000000" points="0,-.5 0,-30.5 185,-30.5 185,-.5 0,-.5"/>
<text text-anchor="start" x="8" y="-18.5" font-family="Helvetica,sans-Serif" font-size="10.00" fill="#000000">device_backends/DummyBackend</text>
<text text-anchor="middle" x="92.5" y="-7.5" font-family="Helvetica,sans-Serif" font-size="10.00" fill="#000000">/src/DummyBackend.cc</text>
</a>
</g>
</g>
<!-- Node2&#45;&gt;Node3 -->
<g id="edge1" class="edge">
<title>Node2&#45;&gt;Node3</title>
<path fill="none" stroke="#191970" d="M568.4702,-75.7945C483.29,-66.5713 326.7405,-49.0514 193.5,-31 190.7752,-30.6308 188.0101,-30.2496 185.2195,-29.859"/>
<polygon fill="#191970" stroke="#191970" points="568.1799,-79.2834 578.4979,-76.8776 568.9316,-72.3239 568.1799,-79.2834"/>
</g>
<!-- Node4 -->
<g id="node3" class="node">
<title>Node4</title>
<g id="a_node3"><a xlink:href="_shared_dummy_backend_8cc.html" target="_top" xlink:title="device_backends/SharedDummy\l/src/SharedDummyBackend.cc">
<polygon fill="#ffffff" stroke="#000000" points="202.5,-.5 202.5,-30.5 378.5,-30.5 378.5,-.5 202.5,-.5"/>
<text text-anchor="start" x="210.5" y="-18.5" font-family="Helvetica,sans-Serif" font-size="10.00" fill="#000000">device_backends/SharedDummy</text>
<text text-anchor="middle" x="290.5" y="-7.5" font-family="Helvetica,sans-Serif" font-size="10.00" fill="#000000">/src/SharedDummyBackend.cc</text>
</a>
</g>
</g>
<!-- Node2&#45;&gt;Node4 -->
<g id="edge2" class="edge">
<title>Node2&#45;&gt;Node4</title>
<path fill="none" stroke="#191970" d="M568.279,-70.0783C511.427,-58.908 427.7733,-42.4716 367.1333,-30.557"/>
<polygon fill="#191970" stroke="#191970" points="567.7315,-73.5376 578.2188,-72.0313 569.0812,-66.6689 567.7315,-73.5376"/>
</g>
<!-- Node5 -->
<g id="node4" class="node">
<title>Node5</title>
<g id="a_node4"><a xlink:href="_d_map_file_parser_8cpp.html" target="_top" xlink:title="fileparsers/src/DMapFile\lParser.cpp">
<polygon fill="#ffffff" stroke="#000000" points="396.5,-.5 396.5,-30.5 528.5,-30.5 528.5,-.5 396.5,-.5"/>
<text text-anchor="start" x="404.5" y="-18.5" font-family="Helvetica,sans-Serif" font-size="10.00" fill="#000000">fileparsers/src/DMapFile</text>
<text text-anchor="middle" x="462.5" y="-7.5" font-family="Helvetica,sans-Serif" font-size="10.00" fill="#000000">Parser.cpp</text>
</a>
</g>
</g>
<!-- Node2&#45;&gt;Node5 -->
<g id="edge3" class="edge">
<title>Node2&#45;&gt;Node5</title>
<path fill="none" stroke="#191970" d="M584.1484,-63.7275C557.7567,-53.2645 525.3287,-40.4084 500.5923,-30.6017"/>
<polygon fill="#191970" stroke="#191970" points="582.9871,-67.032 593.5731,-67.4639 585.5669,-60.5248 582.9871,-67.032"/>
</g>
<!-- Node6 -->
<g id="node5" class="node">
<title>Node6</title>
<g id="a_node5"><a xlink:href="parser_utilities_8cc.html" target="_top" xlink:title="fileparsers/src/parserUtilities.cc">
<polygon fill="#ffffff" stroke="#000000" points="546.5,-6 546.5,-25 716.5,-25 716.5,-6 546.5,-6"/>
<text text-anchor="middle" x="631.5" y="-13" font-family="Helvetica,sans-Serif" font-size="10.00" fill="#000000">fileparsers/src/parserUtilities.cc</text>
</a>
</g>
</g>
<!-- Node2&#45;&gt;Node6 -->
<g id="edge4" class="edge">
<title>Node2&#45;&gt;Node6</title>
<path fill="none" stroke="#191970" d="M631.5,-57.1199C631.5,-45.9072 631.5,-33.4031 631.5,-25.055"/>
<polygon fill="#191970" stroke="#191970" points="628.0001,-57.2966 631.5,-67.2967 635.0001,-57.2967 628.0001,-57.2966"/>
</g>
<!-- Node7 -->
<g id="node6" class="node">
<title>Node7</title>
<g id="a_node6"><a xlink:href="test_d_map_file_parser_8cpp.html" target="_top" xlink:title="tests/executables_src\l/testDMapFileParser.cpp">
<polygon fill="#ffffff" stroke="#000000" points="734.5,-.5 734.5,-30.5 866.5,-30.5 866.5,-.5 734.5,-.5"/>
<text text-anchor="start" x="742.5" y="-18.5" font-family="Helvetica,sans-Serif" font-size="10.00" fill="#000000">tests/executables_src</text>
<text text-anchor="middle" x="800.5" y="-7.5" font-family="Helvetica,sans-Serif" font-size="10.00" fill="#000000">/testDMapFileParser.cpp</text>
</a>
</g>
</g>
<!-- Node2&#45;&gt;Node7 -->
<g id="edge5" class="edge">
<title>Node2&#45;&gt;Node7</title>
<path fill="none" stroke="#191970" d="M678.8516,-63.7275C705.2433,-53.2645 737.6713,-40.4084 762.4077,-30.6017"/>
<polygon fill="#191970" stroke="#191970" points="677.4331,-60.5248 669.4269,-67.4639 680.0129,-67.032 677.4331,-60.5248"/>
</g>
<!-- Node8 -->
<g id="node7" class="node">
<title>Node8</title>
<g id="a_node7"><a xlink:href="test_dummy_backend_8cpp.html" target="_top" xlink:title="tests/executables_src\l/testDummyBackend.cpp">
<polygon fill="#ffffff" stroke="#000000" points="884.5,-.5 884.5,-30.5 1024.5,-30.5 1024.5,-.5 884.5,-.5"/>
<text text-anchor="start" x="892.5" y="-18.5" font-family="Helvetica,sans-Serif" font-size="10.00" fill="#000000">tests/executables_src</text>
<text text-anchor="middle" x="954.5" y="-7.5" font-family="Helvetica,sans-Serif" font-size="10.00" fill="#000000">/testDummyBackend.cpp</text>
</a>
</g>
</g>
<!-- Node2&#45;&gt;Node8 -->
<g id="edge6" class="edge">
<title>Node2&#45;&gt;Node8</title>
<path fill="none" stroke="#191970" d="M694.7304,-69.3841C749.2776,-58.0693 827.9546,-41.7493 884.4107,-30.0386"/>
<polygon fill="#191970" stroke="#191970" points="693.9175,-65.9781 684.8369,-71.4363 695.3394,-72.8322 693.9175,-65.9781"/>
</g>
<!-- Node9 -->
<g id="node8" class="node">
<title>Node9</title>
<g id="a_node8"><a xlink:href="test_parser_utilities_8cpp.html" target="_top" xlink:title="tests/unitTestsNotUnderCtest\l/testParserUtilities.cpp">
<polygon fill="#ffffff" stroke="#000000" points="1043,-.5 1043,-30.5 1202,-30.5 1202,-.5 1043,-.5"/>
<text text-anchor="start" x="1051" y="-18.5" font-family="Helvetica,sans-Serif" font-size="10.00" fill="#000000">tests/unitTestsNotUnderCtest</text>
<text text-anchor="middle" x="1122.5" y="-7.5" font-family="Helvetica,sans-Serif" font-size="10.00" fill="#000000">/testParserUtilities.cpp</text>
</a>
</g>
</g>
<!-- Node2&#45;&gt;Node9 -->
<g id="edge7" class="edge">
<title>Node2&#45;&gt;Node9</title>
<path fill="none" stroke="#191970" d="M694.9159,-75.2699C774.2382,-66.0208 914.1494,-49.0285 1033.5,-31 1036.6016,-30.5315 1039.7618,-30.0416 1042.9525,-29.5365"/>
<polygon fill="#191970" stroke="#191970" points="694.1345,-71.8371 684.6054,-76.4683 694.9427,-78.7903 694.1345,-71.8371"/>
</g>
</g>
</svg>
