<?xml version="1.0" encoding="UTF-8" standalone="no"?>
<!DOCTYPE svg PUBLIC "-//W3C//DTD SVG 1.1//EN"
 "http://www.w3.org/Graphics/SVG/1.1/DTD/svg11.dtd">
<!-- Generated by graphviz version 2.43.0 (0)
 -->
<!-- Title: /scratch/dragon/sources/ChimeraTK&#45;ApplicationCore/include/RecoveryHelper.h Pages: 1 -->
<!--zoomable 379 -->

<svg id="main" version="1.1" xmlns="http://www.w3.org/2000/svg" xmlns:xlink="http://www.w3.org/1999/xlink" xml:space="preserve" onload="init(evt)">
<style type="text/css"><![CDATA[
.node, .edge {opacity: 0.7;}
.node.selected, .edge.selected {opacity: 1;}
.edge:hover path { stroke: red; }
.edge:hover polygon { stroke: red; fill: red; }
]]></style>

<defs>
  <circle id="rim" cx="0" cy="0" r="7"/>
  <circle id="rim2" cx="0" cy="0" r="3.5"/>
  <g id="zoomPlus">
    <use xlink:href="#rim" fill="#404040"><set attributeName="fill" to="#808080" begin="zoomplus.mouseover" end="zoomplus.mouseout"/></use>
    <path d="M-4,0h8M0,-4v8" fill="none" stroke="white" stroke-width="1.5" pointer-events="none"/>
  </g>
  <g id="zoomMin">
    <use xlink:href="#rim" fill="#404040"><set attributeName="fill" to="#808080" begin="zoomminus.mouseover" end="zoomminus.mouseout"/></use>
    <path d="M-4,0h8" fill="none" stroke="white" stroke-width="1.5" pointer-events="none"/>
  </g>
  <g id="arrowUp" transform="translate(30 24)">
    <use xlink:href="#rim"/>
    <path pointer-events="none" fill="none" stroke="white" stroke-width="1.5" d="M0,-3.0v7 M-2.5,-0.5L0,-3.0L2.5,-0.5"/>
  </g>
  <g id="arrowRight" transform="rotate(90) translate(36 -43)">
    <use xlink:href="#rim"/>
    <path pointer-events="none" fill="none" stroke="white" stroke-width="1.5" d="M0,-3.0v7 M-2.5,-0.5L0,-3.0L2.5,-0.5"/>
  </g>
  <g id="arrowDown" transform="rotate(180) translate(-30 -48)">
    <use xlink:href="#rim"/>
    <path pointer-events="none" fill="none" stroke="white" stroke-width="1.5" d="M0,-3.0v7 M-2.5,-0.5L0,-3.0L2.5,-0.5"/>
  </g>
  <g id="arrowLeft" transform="rotate(270) translate(-36 17)">
    <use xlink:href="#rim"/>
    <path pointer-events="none" fill="none" stroke="white" stroke-width="1.5" d="M0,-3.0v7 M-2.5,-0.5L0,-3.0L2.5,-0.5"/>
  </g>
  <g id="resetDef">
    <use xlink:href="#rim2" fill="#404040"><set attributeName="fill" to="#808080" begin="reset.mouseover" end="reset.mouseout"/></use>
  </g>
</defs>
<script type="application/ecmascript">
var viewWidth = 2301;
var viewHeight = 379;
var sectionId = 'dynsection-1';
</script>
<script type="application/ecmascript" xlink:href="svg.min.js"/>
<svg id="graph" class="graph">
<g id="viewport">
<title>/scratch/dragon/sources/ChimeraTK&#45;ApplicationCore/include/RecoveryHelper.h</title>
<!-- Node1 -->
<g id="Node000001" class="node">
<title>Node1</title>
<g id="a_Node000001"><a xlink:title=" ">
<polygon fill="#999999" stroke="#666666" points="1389,-371 1236,-371 1236,-330 1389,-330 1389,-371"/>
<text text-anchor="start" x="1244" y="-359" font-family="Helvetica,sans-Serif" font-size="10.00">/scratch/dragon/sources</text>
<text text-anchor="start" x="1244" y="-348" font-family="Helvetica,sans-Serif" font-size="10.00">/ChimeraTK&#45;ApplicationCore</text>
<text text-anchor="middle" x="1312.5" y="-337" font-family="Helvetica,sans-Serif" font-size="10.00">/include/RecoveryHelper.h</text>
</a>
</g>
</g>
<!-- Node2 -->
<g id="Node000002" class="node">
<title>Node2</title>
<g id="a_Node000002"><a xlink:href="_device_manager_8h.html" target="_top" xlink:title=" ">
<polygon fill="white" stroke="#666666" points="998,-294 845,-294 845,-253 998,-253 998,-294"/>
<text text-anchor="start" x="853" y="-282" font-family="Helvetica,sans-Serif" font-size="10.00">/scratch/dragon/sources</text>
<text text-anchor="start" x="853" y="-271" font-family="Helvetica,sans-Serif" font-size="10.00">/ChimeraTK&#45;ApplicationCore</text>
<text text-anchor="middle" x="921.5" y="-260" font-family="Helvetica,sans-Serif" font-size="10.00">/include/DeviceManager.h</text>
</a>
</g>
</g>
<!-- Node1&#45;&gt;Node2 -->
<g id="edge1_Node000001_Node000002" class="edge">
<title>Node1&#45;&gt;Node2</title>
<g id="a_edge1_Node000001_Node000002"><a xlink:title=" ">
<path fill="none" stroke="#63b8ff" d="M1225.85,-332.88C1157.67,-319.8 1063.56,-301.75 998.11,-289.19"/>
<polygon fill="#63b8ff" stroke="#63b8ff" points="1225.24,-336.33 1235.72,-334.77 1226.56,-329.45 1225.24,-336.33"/>
</a>
</g>
</g>
<!-- Node7 -->
<g id="Node000007" class="node">
<title>Node7</title>
<g id="a_Node000007"><a xlink:href="_device_manager_8cc.html" target="_top" xlink:title=" ">
<polygon fill="white" stroke="#666666" points="153,-211.5 0,-211.5 0,-170.5 153,-170.5 153,-211.5"/>
<text text-anchor="start" x="8" y="-199.5" font-family="Helvetica,sans-Serif" font-size="10.00">/scratch/dragon/sources</text>
<text text-anchor="start" x="8" y="-188.5" font-family="Helvetica,sans-Serif" font-size="10.00">/ChimeraTK&#45;ApplicationCore</text>
<text text-anchor="middle" x="76.5" y="-177.5" font-family="Helvetica,sans-Serif" font-size="10.00">/src/DeviceManager.cc</text>
</a>
</g>
</g>
<!-- Node1&#45;&gt;Node7 -->
<g id="edge23_Node000001_Node000007" class="edge">
<title>Node1&#45;&gt;Node7</title>
<g id="a_edge23_Node000001_Node000007"><a xlink:title=" ">
<path fill="none" stroke="#63b8ff" d="M1225.61,-344.6C1032.59,-332.6 554.14,-296.73 161.5,-217 153.96,-215.47 146.13,-213.58 138.4,-211.54"/>
<polygon fill="#63b8ff" stroke="#63b8ff" points="1225.5,-348.1 1235.69,-345.22 1225.93,-341.11 1225.5,-348.1"/>
</a>
</g>
</g>
<!-- Node9 -->
<g id="Node000009" class="node">
<title>Node9</title>
<g id="a_Node000009"><a xlink:href="_exception_handling_decorator_8cc.html" target="_top" xlink:title=" ">
<polygon fill="white" stroke="#666666" points="1844,-211.5 1655,-211.5 1655,-170.5 1844,-170.5 1844,-211.5"/>
<text text-anchor="start" x="1663" y="-199.5" font-family="Helvetica,sans-Serif" font-size="10.00">/scratch/dragon/sources</text>
<text text-anchor="start" x="1663" y="-188.5" font-family="Helvetica,sans-Serif" font-size="10.00">/ChimeraTK&#45;ApplicationCore</text>
<text text-anchor="middle" x="1749.5" y="-177.5" font-family="Helvetica,sans-Serif" font-size="10.00">/src/ExceptionHandlingDecorator.cc</text>
</a>
</g>
</g>
<!-- Node1&#45;&gt;Node9 -->
<g id="edge24_Node000001_Node000009" class="edge">
<title>Node1&#45;&gt;Node9</title>
<g id="a_edge24_Node000001_Node000009"><a xlink:title=" ">
<path fill="none" stroke="#63b8ff" d="M1376.63,-326.39C1462.85,-295.31 1614.62,-240.61 1695.38,-211.5"/>
<polygon fill="#63b8ff" stroke="#63b8ff" points="1375.18,-323.19 1366.96,-329.87 1377.56,-329.77 1375.18,-323.19"/>
</a>
</g>
</g>
<!-- Node16 -->
<g id="Node000016" class="node">
<title>Node16</title>
<g id="a_Node000016"><a xlink:href="_exception_handling_decorator_8h.html" target="_top" xlink:title=" ">
<polygon fill="white" stroke="#666666" points="1913.5,-294 1707.5,-294 1707.5,-253 1913.5,-253 1913.5,-294"/>
<text text-anchor="start" x="1715.5" y="-282" font-family="Helvetica,sans-Serif" font-size="10.00">/scratch/dragon/sources</text>
<text text-anchor="start" x="1715.5" y="-271" font-family="Helvetica,sans-Serif" font-size="10.00">/ChimeraTK&#45;ApplicationCore</text>
<text text-anchor="middle" x="1810.5" y="-260" font-family="Helvetica,sans-Serif" font-size="10.00">/include/ExceptionHandlingDecorator.h</text>
</a>
</g>
</g>
<!-- Node1&#45;&gt;Node16 -->
<g id="edge15_Node000001_Node000016" class="edge">
<title>Node1&#45;&gt;Node16</title>
<g id="a_edge15_Node000001_Node000016"><a xlink:title=" ">
<path fill="none" stroke="#63b8ff" d="M1399.19,-336.44C1484.94,-323.53 1616.21,-303.76 1707.3,-290.04"/>
<polygon fill="#63b8ff" stroke="#63b8ff" points="1398.59,-333 1389.22,-337.95 1399.63,-339.92 1398.59,-333"/>
</a>
</g>
</g>
<!-- Node3 -->
<g id="Node000003" class="node">
<title>Node3</title>
<g id="a_Node000003"><a xlink:href="_application_8cc.html" target="_top" xlink:title=" ">
<polygon fill="white" stroke="#666666" points="324,-211.5 171,-211.5 171,-170.5 324,-170.5 324,-211.5"/>
<text text-anchor="start" x="179" y="-199.5" font-family="Helvetica,sans-Serif" font-size="10.00">/scratch/dragon/sources</text>
<text text-anchor="start" x="179" y="-188.5" font-family="Helvetica,sans-Serif" font-size="10.00">/ChimeraTK&#45;ApplicationCore</text>
<text text-anchor="middle" x="247.5" y="-177.5" font-family="Helvetica,sans-Serif" font-size="10.00">/src/Application.cc</text>
</a>
</g>
</g>
<!-- Node2&#45;&gt;Node3 -->
<g id="edge2_Node000002_Node000003" class="edge">
<title>Node2&#45;&gt;Node3</title>
<g id="a_edge2_Node000002_Node000003"><a xlink:title=" ">
<path fill="none" stroke="#63b8ff" d="M834.39,-269.52C718.78,-264.37 508.73,-250.89 332.5,-217 324.8,-215.52 316.79,-213.63 308.9,-211.57"/>
<polygon fill="#63b8ff" stroke="#63b8ff" points="834.45,-273.02 844.59,-269.96 834.75,-266.03 834.45,-273.02"/>
</a>
</g>
</g>
<!-- Node4 -->
<g id="Node000004" class="node">
<title>Node4</title>
<g id="a_Node000004"><a xlink:href="_application_module_8cc.html" target="_top" xlink:title=" ">
<polygon fill="white" stroke="#666666" points="495,-211.5 342,-211.5 342,-170.5 495,-170.5 495,-211.5"/>
<text text-anchor="start" x="350" y="-199.5" font-family="Helvetica,sans-Serif" font-size="10.00">/scratch/dragon/sources</text>
<text text-anchor="start" x="350" y="-188.5" font-family="Helvetica,sans-Serif" font-size="10.00">/ChimeraTK&#45;ApplicationCore</text>
<text text-anchor="middle" x="418.5" y="-177.5" font-family="Helvetica,sans-Serif" font-size="10.00">/src/ApplicationModule.cc</text>
</a>
</g>
</g>
<!-- Node2&#45;&gt;Node4 -->
<g id="edge3_Node000002_Node000004" class="edge">
<title>Node2&#45;&gt;Node4</title>
<g id="a_edge3_Node000002_Node000004"><a xlink:title=" ">
<path fill="none" stroke="#63b8ff" d="M834.72,-264.8C749.92,-256.37 617.47,-240.8 504.5,-217 497.04,-215.43 489.29,-213.54 481.63,-211.52"/>
<polygon fill="#63b8ff" stroke="#63b8ff" points="834.53,-268.29 844.82,-265.79 835.21,-261.33 834.53,-268.29"/>
</a>
</g>
</g>
<!-- Node5 -->
<g id="Node000005" class="node">
<title>Node5</title>
<g id="a_Node000005"><a xlink:href="_circular_dependency_detector_8cc.html" target="_top" xlink:title=" ">
<polygon fill="white" stroke="#666666" points="703.5,-211.5 513.5,-211.5 513.5,-170.5 703.5,-170.5 703.5,-211.5"/>
<text text-anchor="start" x="521.5" y="-199.5" font-family="Helvetica,sans-Serif" font-size="10.00">/scratch/dragon/sources</text>
<text text-anchor="start" x="521.5" y="-188.5" font-family="Helvetica,sans-Serif" font-size="10.00">/ChimeraTK&#45;ApplicationCore</text>
<text text-anchor="middle" x="608.5" y="-177.5" font-family="Helvetica,sans-Serif" font-size="10.00">/src/CircularDependencyDetector.cc</text>
</a>
</g>
</g>
<!-- Node2&#45;&gt;Node5 -->
<g id="edge4_Node000002_Node000005" class="edge">
<title>Node2&#45;&gt;Node5</title>
<g id="a_edge4_Node000002_Node000005"><a xlink:title=" ">
<path fill="none" stroke="#63b8ff" d="M835.42,-250.36C788.15,-238.2 730.04,-223.26 684.47,-211.54"/>
<polygon fill="#63b8ff" stroke="#63b8ff" points="834.78,-253.81 845.33,-252.91 836.52,-247.03 834.78,-253.81"/>
</a>
</g>
</g>
<!-- Node6 -->
<g id="Node000006" class="node">
<title>Node6</title>
<g id="a_Node000006"><a xlink:href="_connection_maker_8cc.html" target="_top" xlink:title=" ">
<polygon fill="white" stroke="#666666" points="1968,-41 1815,-41 1815,0 1968,0 1968,-41"/>
<text text-anchor="start" x="1823" y="-29" font-family="Helvetica,sans-Serif" font-size="10.00">/scratch/dragon/sources</text>
<text text-anchor="start" x="1823" y="-18" font-family="Helvetica,sans-Serif" font-size="10.00">/ChimeraTK&#45;ApplicationCore</text>
<text text-anchor="middle" x="1891.5" y="-7" font-family="Helvetica,sans-Serif" font-size="10.00">/src/ConnectionMaker.cc</text>
</a>
</g>
</g>
<!-- Node2&#45;&gt;Node6 -->
<g id="edge5_Node000002_Node000006" class="edge">
<title>Node2&#45;&gt;Node6</title>
<g id="a_edge5_Node000002_Node000006"><a xlink:title=" ">
<path fill="none" stroke="#63b8ff" d="M835.05,-265.42C803.19,-258.13 770.12,-244 750.5,-217 736.91,-198.3 735.4,-182.5 750.5,-165 820.23,-84.17 1569.84,-38.24 1814.65,-25.31"/>
<polygon fill="#63b8ff" stroke="#63b8ff" points="834.37,-268.86 844.88,-267.48 835.8,-262.01 834.37,-268.86"/>
</a>
</g>
</g>
<!-- Node2&#45;&gt;Node7 -->
<g id="edge6_Node000002_Node000007" class="edge">
<title>Node2&#45;&gt;Node7</title>
<g id="a_edge6_Node000002_Node000007"><a xlink:title=" ">
<path fill="none" stroke="#63b8ff" d="M834.59,-268.49C663.48,-260.2 288.51,-240.04 161.5,-217 153.63,-215.57 145.45,-213.69 137.41,-211.6"/>
<polygon fill="#63b8ff" stroke="#63b8ff" points="834.66,-272 844.82,-268.98 835,-265 834.66,-272"/>
</a>
</g>
</g>
<!-- Node8 -->
<g id="Node000008" class="node">
<title>Node8</title>
<g id="a_Node000008"><a xlink:href="_device_module_8cc.html" target="_top" xlink:title=" ">
<polygon fill="white" stroke="#666666" points="913,-211.5 760,-211.5 760,-170.5 913,-170.5 913,-211.5"/>
<text text-anchor="start" x="768" y="-199.5" font-family="Helvetica,sans-Serif" font-size="10.00">/scratch/dragon/sources</text>
<text text-anchor="start" x="768" y="-188.5" font-family="Helvetica,sans-Serif" font-size="10.00">/ChimeraTK&#45;ApplicationCore</text>
<text text-anchor="middle" x="836.5" y="-177.5" font-family="Helvetica,sans-Serif" font-size="10.00">/src/DeviceModule.cc</text>
</a>
</g>
</g>
<!-- Node2&#45;&gt;Node8 -->
<g id="edge7_Node000002_Node000008" class="edge">
<title>Node2&#45;&gt;Node8</title>
<g id="a_edge7_Node000002_Node000008"><a xlink:title=" ">
<path fill="none" stroke="#63b8ff" d="M893.07,-245.57C881.36,-234.48 868.04,-221.87 857.27,-211.67"/>
<polygon fill="#63b8ff" stroke="#63b8ff" points="890.82,-248.27 900.49,-252.6 895.63,-243.18 890.82,-248.27"/>
</a>
</g>
</g>
<!-- Node2&#45;&gt;Node9 -->
<g id="edge8_Node000002_Node000009" class="edge">
<title>Node2&#45;&gt;Node9</title>
<g id="a_edge8_Node000002_Node000009"><a xlink:title=" ">
<path fill="none" stroke="#63b8ff" d="M1008.57,-270.38C1145.23,-266.03 1418.06,-253.22 1646.5,-217 1655.86,-215.52 1665.62,-213.62 1675.25,-211.53"/>
<polygon fill="#63b8ff" stroke="#63b8ff" points="1008.06,-266.89 998.17,-270.7 1008.27,-273.89 1008.06,-266.89"/>
</a>
</g>
</g>
<!-- Node10 -->
<g id="Node000010" class="node">
<title>Node10</title>
<g id="a_Node000010"><a xlink:href="_model_8cc.html" target="_top" xlink:title=" ">
<polygon fill="white" stroke="#666666" points="1084,-211.5 931,-211.5 931,-170.5 1084,-170.5 1084,-211.5"/>
<text text-anchor="start" x="939" y="-199.5" font-family="Helvetica,sans-Serif" font-size="10.00">/scratch/dragon/sources</text>
<text text-anchor="start" x="939" y="-188.5" font-family="Helvetica,sans-Serif" font-size="10.00">/ChimeraTK&#45;ApplicationCore</text>
<text text-anchor="middle" x="1007.5" y="-177.5" font-family="Helvetica,sans-Serif" font-size="10.00">/src/Model.cc</text>
</a>
</g>
</g>
<!-- Node2&#45;&gt;Node10 -->
<g id="edge9_Node000002_Node000010" class="edge">
<title>Node2&#45;&gt;Node10</title>
<g id="a_edge9_Node000002_Node000010"><a xlink:title=" ">
<path fill="none" stroke="#63b8ff" d="M950.27,-245.57C962.12,-234.48 975.59,-221.87 986.49,-211.67"/>
<polygon fill="#63b8ff" stroke="#63b8ff" points="947.67,-243.21 942.76,-252.6 952.45,-248.32 947.67,-243.21"/>
</a>
</g>
</g>
<!-- Node11 -->
<g id="Node000011" class="node">
<title>Node11</title>
<g id="a_Node000011"><a xlink:href="_trigger_fan_out_8cc.html" target="_top" xlink:title=" ">
<polygon fill="white" stroke="#666666" points="1255,-211.5 1102,-211.5 1102,-170.5 1255,-170.5 1255,-211.5"/>
<text text-anchor="start" x="1110" y="-199.5" font-family="Helvetica,sans-Serif" font-size="10.00">/scratch/dragon/sources</text>
<text text-anchor="start" x="1110" y="-188.5" font-family="Helvetica,sans-Serif" font-size="10.00">/ChimeraTK&#45;ApplicationCore</text>
<text text-anchor="middle" x="1178.5" y="-177.5" font-family="Helvetica,sans-Serif" font-size="10.00">/src/TriggerFanOut.cc</text>
</a>
</g>
</g>
<!-- Node2&#45;&gt;Node11 -->
<g id="edge10_Node000002_Node000011" class="edge">
<title>Node2&#45;&gt;Node11</title>
<g id="a_edge10_Node000002_Node000011"><a xlink:title=" ">
<path fill="none" stroke="#63b8ff" d="M993.65,-249.9C1032.19,-237.83 1079.17,-223.11 1116.12,-211.54"/>
<polygon fill="#63b8ff" stroke="#63b8ff" points="992.54,-246.58 984.04,-252.91 994.63,-253.26 992.54,-246.58"/>
</a>
</g>
</g>
<!-- Node12 -->
<g id="Node000012" class="node">
<title>Node12</title>
<g id="a_Node000012"><a xlink:href="test_recovery_groups_8cc.html" target="_top" xlink:title=" ">
<polygon fill="white" stroke="#666666" points="1465.5,-217 1273.5,-217 1273.5,-165 1465.5,-165 1465.5,-217"/>
<text text-anchor="start" x="1281.5" y="-205" font-family="Helvetica,sans-Serif" font-size="10.00">/scratch/dragon/sources</text>
<text text-anchor="start" x="1281.5" y="-194" font-family="Helvetica,sans-Serif" font-size="10.00">/ChimeraTK&#45;ApplicationCore</text>
<text text-anchor="start" x="1281.5" y="-183" font-family="Helvetica,sans-Serif" font-size="10.00">/tests/executables_src/testRecovery</text>
<text text-anchor="middle" x="1369.5" y="-172" font-family="Helvetica,sans-Serif" font-size="10.00">Groups.cc</text>
</a>
</g>
</g>
<!-- Node2&#45;&gt;Node12 -->
<g id="edge11_Node000002_Node000012" class="edge">
<title>Node2&#45;&gt;Node12</title>
<g id="a_edge11_Node000002_Node000012"><a xlink:title=" ">
<path fill="none" stroke="#63b8ff" d="M1008.19,-260.16C1077.5,-249.88 1177.04,-234.19 1263.5,-217 1266.75,-216.35 1270.04,-215.68 1273.37,-214.99"/>
<polygon fill="#63b8ff" stroke="#63b8ff" points="1007.56,-256.72 998.18,-261.64 1008.59,-263.64 1007.56,-256.72"/>
</a>
</g>
</g>
<!-- Node13 -->
<g id="Node000013" class="node">
<title>Node13</title>
<g id="a_Node000013"><a xlink:href="fixtures_8h.html" target="_top" xlink:title=" ">
<polygon fill="white" stroke="#666666" points="1637,-211.5 1484,-211.5 1484,-170.5 1637,-170.5 1637,-211.5"/>
<text text-anchor="start" x="1492" y="-199.5" font-family="Helvetica,sans-Serif" font-size="10.00">/scratch/dragon/sources</text>
<text text-anchor="start" x="1492" y="-188.5" font-family="Helvetica,sans-Serif" font-size="10.00">/ChimeraTK&#45;ApplicationCore</text>
<text text-anchor="middle" x="1560.5" y="-177.5" font-family="Helvetica,sans-Serif" font-size="10.00">/tests/include/fixtures.h</text>
</a>
</g>
</g>
<!-- Node2&#45;&gt;Node13 -->
<g id="edge12_Node000002_Node000013" class="edge">
<title>Node2&#45;&gt;Node13</title>
<g id="a_edge12_Node000002_Node000013"><a xlink:title=" ">
<path fill="none" stroke="#63b8ff" d="M1008.18,-268.71C1117.66,-262.8 1311.45,-248.61 1474.5,-217 1482.28,-215.49 1490.38,-213.59 1498.36,-211.52"/>
<polygon fill="#63b8ff" stroke="#63b8ff" points="1007.98,-265.21 998.17,-269.24 1008.35,-272.2 1007.98,-265.21"/>
</a>
</g>
</g>
<!-- Node14 -->
<g id="Node000014" class="node">
<title>Node14</title>
<g id="a_Node000014"><a xlink:href="test_exception_handling_8cc.html" target="_top" xlink:title=" ">
<polygon fill="white" stroke="#666666" points="1547.5,-129 1353.5,-129 1353.5,-77 1547.5,-77 1547.5,-129"/>
<text text-anchor="start" x="1361.5" y="-117" font-family="Helvetica,sans-Serif" font-size="10.00">/scratch/dragon/sources</text>
<text text-anchor="start" x="1361.5" y="-106" font-family="Helvetica,sans-Serif" font-size="10.00">/ChimeraTK&#45;ApplicationCore</text>
<text text-anchor="start" x="1361.5" y="-95" font-family="Helvetica,sans-Serif" font-size="10.00">/tests/executables_src/testException</text>
<text text-anchor="middle" x="1450.5" y="-84" font-family="Helvetica,sans-Serif" font-size="10.00">Handling.cc</text>
</a>
</g>
</g>
<!-- Node13&#45;&gt;Node14 -->
<g id="edge13_Node000013_Node000014" class="edge">
<title>Node13&#45;&gt;Node14</title>
<g id="a_edge13_Node000013_Node000014"><a xlink:title=" ">
<path fill="none" stroke="#63b8ff" d="M1527.52,-164.22C1513.4,-153.17 1496.95,-140.31 1482.88,-129.32"/>
<polygon fill="#63b8ff" stroke="#63b8ff" points="1525.51,-167.08 1535.54,-170.49 1529.82,-161.57 1525.51,-167.08"/>
</a>
</g>
</g>
<!-- Node15 -->
<g id="Node000015" class="node">
<title>Node15</title>
<g id="a_Node000015"><a xlink:href="test_version_propagation_8cc.html" target="_top" xlink:title=" ">
<polygon fill="white" stroke="#666666" points="1747.5,-129 1565.5,-129 1565.5,-77 1747.5,-77 1747.5,-129"/>
<text text-anchor="start" x="1573.5" y="-117" font-family="Helvetica,sans-Serif" font-size="10.00">/scratch/dragon/sources</text>
<text text-anchor="start" x="1573.5" y="-106" font-family="Helvetica,sans-Serif" font-size="10.00">/ChimeraTK&#45;ApplicationCore</text>
<text text-anchor="start" x="1573.5" y="-95" font-family="Helvetica,sans-Serif" font-size="10.00">/tests/executables_src/testVersion</text>
<text text-anchor="middle" x="1656.5" y="-84" font-family="Helvetica,sans-Serif" font-size="10.00">Propagation.cc</text>
</a>
</g>
</g>
<!-- Node13&#45;&gt;Node15 -->
<g id="edge14_Node000013_Node000015" class="edge">
<title>Node13&#45;&gt;Node15</title>
<g id="a_edge14_Node000013_Node000015"><a xlink:title=" ">
<path fill="none" stroke="#63b8ff" d="M1589.97,-163.6C1602.14,-152.69 1616.2,-140.11 1628.24,-129.32"/>
<polygon fill="#63b8ff" stroke="#63b8ff" points="1587.4,-161.21 1582.28,-170.49 1592.07,-166.42 1587.4,-161.21"/>
</a>
</g>
</g>
<!-- Node16&#45;&gt;Node6 -->
<g id="edge21_Node000016_Node000006" class="edge">
<title>Node16&#45;&gt;Node6</title>
<g id="a_edge21_Node000016_Node000006"><a xlink:title=" ">
<path fill="none" stroke="#63b8ff" d="M1835.71,-245.19C1842.4,-236.69 1849,-226.93 1853.5,-217 1880.76,-156.85 1888.5,-77.63 1890.67,-41.28"/>
<polygon fill="#63b8ff" stroke="#63b8ff" points="1833,-242.98 1829.34,-252.92 1838.4,-247.43 1833,-242.98"/>
</a>
</g>
</g>
<!-- Node16&#45;&gt;Node9 -->
<g id="edge22_Node000016_Node000009" class="edge">
<title>Node16&#45;&gt;Node9</title>
<g id="a_edge22_Node000016_Node000009"><a xlink:title=" ">
<path fill="none" stroke="#63b8ff" d="M1789.37,-244.62C1781.15,-233.76 1771.91,-221.58 1764.41,-211.67"/>
<polygon fill="#63b8ff" stroke="#63b8ff" points="1786.59,-246.74 1795.42,-252.6 1792.17,-242.52 1786.59,-246.74"/>
</a>
</g>
</g>
<!-- Node17 -->
<g id="Node000017" class="node">
<title>Node17</title>
<g id="a_Node000017"><a xlink:href="_reverse_recovery_decorator_8h.html" target="_top" xlink:title=" ">
<polygon fill="white" stroke="#666666" points="2108.5,-211.5 1908.5,-211.5 1908.5,-170.5 2108.5,-170.5 2108.5,-211.5"/>
<text text-anchor="start" x="1916.5" y="-199.5" font-family="Helvetica,sans-Serif" font-size="10.00">/scratch/dragon/sources</text>
<text text-anchor="start" x="1916.5" y="-188.5" font-family="Helvetica,sans-Serif" font-size="10.00">/ChimeraTK&#45;ApplicationCore</text>
<text text-anchor="middle" x="2008.5" y="-177.5" font-family="Helvetica,sans-Serif" font-size="10.00">/include/ReverseRecoveryDecorator.h</text>
</a>
</g>
</g>
<!-- Node16&#45;&gt;Node17 -->
<g id="edge16_Node000016_Node000017" class="edge">
<title>Node16&#45;&gt;Node17</title>
<g id="a_edge16_Node000016_Node000017"><a xlink:title=" ">
<path fill="none" stroke="#63b8ff" d="M1867.98,-249.13C1897.31,-237.21 1932.58,-222.87 1960.44,-211.54"/>
<polygon fill="#63b8ff" stroke="#63b8ff" points="1866.63,-245.9 1858.68,-252.91 1869.26,-252.39 1866.63,-245.9"/>
</a>
</g>
</g>
<!-- Node17&#45;&gt;Node6 -->
<g id="edge19_Node000017_Node000006" class="edge">
<title>Node17&#45;&gt;Node6</title>
<g id="a_edge19_Node000017_Node000006"><a xlink:title=" ">
<path fill="none" stroke="#63b8ff" d="M1966.86,-164.2C1953.8,-154.47 1940.27,-142.47 1930.5,-129 1910.92,-102 1900.24,-64.14 1895.21,-41.3"/>
<polygon fill="#63b8ff" stroke="#63b8ff" points="1965.15,-167.28 1975.32,-170.25 1969.22,-161.58 1965.15,-167.28"/>
</a>
</g>
</g>
<!-- Node18 -->
<g id="Node000018" class="node">
<title>Node18</title>
<g id="a_Node000018"><a xlink:href="_threaded_fan_out_8h.html" target="_top" xlink:title=" ">
<polygon fill="white" stroke="#666666" points="2092,-123.5 1939,-123.5 1939,-82.5 2092,-82.5 2092,-123.5"/>
<text text-anchor="start" x="1947" y="-111.5" font-family="Helvetica,sans-Serif" font-size="10.00">/scratch/dragon/sources</text>
<text text-anchor="start" x="1947" y="-100.5" font-family="Helvetica,sans-Serif" font-size="10.00">/ChimeraTK&#45;ApplicationCore</text>
<text text-anchor="middle" x="2015.5" y="-89.5" font-family="Helvetica,sans-Serif" font-size="10.00">/include/ThreadedFanOut.h</text>
</a>
</g>
</g>
<!-- Node17&#45;&gt;Node18 -->
<g id="edge17_Node000017_Node000018" class="edge">
<title>Node17&#45;&gt;Node18</title>
<g id="a_edge17_Node000017_Node000018"><a xlink:title=" ">
<path fill="none" stroke="#63b8ff" d="M2010.91,-160.36C2011.9,-148.26 2013.01,-134.58 2013.89,-123.74"/>
<polygon fill="#63b8ff" stroke="#63b8ff" points="2007.41,-160.23 2010.09,-170.49 2014.39,-160.8 2007.41,-160.23"/>
</a>
</g>
</g>
<!-- Node19 -->
<g id="Node000019" class="node">
<title>Node19</title>
<g id="a_Node000019"><a xlink:href="_reverse_recovery_decorator_8cc.html" target="_top" xlink:title=" ">
<polygon fill="white" stroke="#666666" points="2293,-123.5 2110,-123.5 2110,-82.5 2293,-82.5 2293,-123.5"/>
<text text-anchor="start" x="2118" y="-111.5" font-family="Helvetica,sans-Serif" font-size="10.00">/scratch/dragon/sources</text>
<text text-anchor="start" x="2118" y="-100.5" font-family="Helvetica,sans-Serif" font-size="10.00">/ChimeraTK&#45;ApplicationCore</text>
<text text-anchor="middle" x="2201.5" y="-89.5" font-family="Helvetica,sans-Serif" font-size="10.00">/src/ReverseRecoveryDecorator.cc</text>
</a>
</g>
</g>
<!-- Node17&#45;&gt;Node19 -->
<g id="edge20_Node000017_Node000019" class="edge">
<title>Node17&#45;&gt;Node19</title>
<g id="a_edge20_Node000017_Node000019"><a xlink:title=" ">
<path fill="none" stroke="#63b8ff" d="M2061.8,-166.25C2091.92,-152.83 2129.11,-136.26 2157.54,-123.59"/>
<polygon fill="#63b8ff" stroke="#63b8ff" points="2060,-163.22 2052.29,-170.49 2062.85,-169.61 2060,-163.22"/>
</a>
</g>
</g>
<!-- Node18&#45;&gt;Node6 -->
<g id="edge18_Node000018_Node000006" class="edge">
<title>Node18&#45;&gt;Node6</title>
<g id="a_edge18_Node000018_Node000006"><a xlink:title=" ">
<path fill="none" stroke="#63b8ff" d="M1976.76,-76.85C1959.1,-65.38 1938.48,-52 1921.95,-41.27"/>
<polygon fill="#63b8ff" stroke="#63b8ff" points="1974.87,-79.8 1985.17,-82.31 1978.68,-73.93 1974.87,-79.8"/>
</a>
</g>
</g>
</g>
</svg>

<g id="navigator" transform="translate(0 0)" fill="#404254">
  <rect fill="#f2f5e9" fill-opacity="0.5" stroke="#606060" stroke-width=".5" x="0" y="0" width="60" height="60"/>
  <use id="zoomplus" xlink:href="#zoomPlus" x="17" y="9" onmousedown="handleZoom(evt,'in')"/>
  <use id="zoomminus" xlink:href="#zoomMin" x="42" y="9" onmousedown="handleZoom(evt,'out')"/>
  <use id="reset" xlink:href="#resetDef" x="30" y="36" onmousedown="handleReset()"/>
   <use id="arrowup" xlink:href="#arrowUp" x="0" y="0" onmousedown="handlePan(0,-1)"/>
  <use id="arrowright" xlink:href="#arrowRight" x="0" y="0" onmousedown="handlePan(1,0)"/>
  <use id="arrowdown" xlink:href="#arrowDown" x="0" y="0" onmousedown="handlePan(0,1)"/>
  <use id="arrowleft" xlink:href="#arrowLeft" x="0" y="0" onmousedown="handlePan(-1,0)"/>
</g>
<svg viewBox="0 0 15 15" width="100%" height="30px" preserveAspectRatio="xMaxYMin meet">
 <g id="arrow_out" transform="scale(0.3 0.3)">
  <a xlink:href="_recovery_helper_8h__dep__incl_org.svg" target="_base">
   <rect id="button" ry="5" rx="5" y="6" x="6" height="38" width="38"
        fill="#f2f5e9" fill-opacity="0.5" stroke="#606060" stroke-width="1.0"/>
   <path id="arrow"
     d="M 11.500037,31.436501 C 11.940474,20.09759 22.043105,11.32322 32.158766,21.979434 L 37.068811,17.246167 C 37.068811,17.246167 37.088388,32 37.088388,32 L 22.160133,31.978069 C 22.160133,31.978069 26.997745,27.140456 26.997745,27.140456 C 18.528582,18.264221 13.291696,25.230495 11.500037,31.436501 z"
     style="fill:#404040;"/>
  </a>
 </g>
</svg>

<style type='text/css'>
<![CDATA[
[data-mouse-over-selected='false'] { opacity: 0.7; }
[data-mouse-over-selected='true']  { opacity: 1.0; }
]]>
</style>
<script type="application/ecmascript"><![CDATA[
document.addEventListener('DOMContentLoaded', (event) => {
  highlightEdges();
  highlightAdjacentNodes();
});
]]></script>
</svg>
