<?xml version="1.0" encoding="UTF-8" standalone="no"?>
<!DOCTYPE svg PUBLIC "-//W3C//DTD SVG 1.1//EN"
 "http://www.w3.org/Graphics/SVG/1.1/DTD/svg11.dtd">
<!-- Generated by graphviz version 2.43.0 (0)
 -->
<!-- Title: /scratch/dragon/sources/ChimeraTK&#45;ApplicationCore/tests/executables_src/manual Pages: 1 -->
<svg width="119pt" height="151pt"
 viewBox="0.00 0.00 119.00 151.00" xmlns="http://www.w3.org/2000/svg" xmlns:xlink="http://www.w3.org/1999/xlink">
<g id="graph0" class="graph" transform="scale(1 1) rotate(0) translate(4 147)">
<title>/scratch/dragon/sources/ChimeraTK&#45;ApplicationCore/tests/executables_src/manual</title>
<polygon fill="white" stroke="transparent" points="-4,4 -4,-147 115,-147 115,4 -4,4"/>
<g id="clust1" class="cluster">
<title>clusterdir_12103a13d03486cdb1fa8b48e27c887f</title>
<g id="a_clust1"><a xlink:href="dir_12103a13d03486cdb1fa8b48e27c887f.html" target="_top" xlink:title="executables_src">
<polygon fill="#ddddee" stroke="black" points="8,-64 8,-135 103,-135 103,-64 8,-64"/>
<text text-anchor="middle" x="55.5" y="-123" font-family="Helvetica,sans-Serif" font-size="10.00">executables_src</text>
</a>
</g>
</g>
<!-- dir_76dd53ff3fbe0e4107a99dd8d68da870 -->
<g id="node1" class="node">
<title>dir_76dd53ff3fbe0e4107a99dd8d68da870</title>
<g id="a_node1"><a xlink:href="dir_76dd53ff3fbe0e4107a99dd8d68da870.html" target="_top" xlink:title="manual">
<polygon fill="#eeeeff" stroke="black" points="82,-108 28,-108 28,-72 82,-72 82,-108"/>
<text text-anchor="middle" x="55" y="-87.5" font-family="Helvetica,sans-Serif" font-size="10.00">manual</text>
</a>
</g>
</g>
<!-- dir_5268d16357f2f33886914e670b2df6cb -->
<g id="node2" class="node">
<title>dir_5268d16357f2f33886914e670b2df6cb</title>
<g id="a_node2"><a xlink:href="dir_5268d16357f2f33886914e670b2df6cb.html" target="_top" xlink:title="include">
<polygon fill="none" stroke="black" points="82,-36 28,-36 28,0 82,0 82,-36"/>
<text text-anchor="middle" x="55" y="-15.5" font-family="Helvetica,sans-Serif" font-size="10.00">include</text>
</a>
</g>
</g>
<!-- dir_76dd53ff3fbe0e4107a99dd8d68da870&#45;&gt;dir_5268d16357f2f33886914e670b2df6cb -->
<g id="edge1" class="edge">
<title>dir_76dd53ff3fbe0e4107a99dd8d68da870&#45;&gt;dir_5268d16357f2f33886914e670b2df6cb</title>
<path fill="none" stroke="black" d="M55,-71.7C55,-63.98 55,-54.71 55,-46.11"/>
<polygon fill="black" stroke="black" points="58.5,-46.1 55,-36.1 51.5,-46.1 58.5,-46.1"/>
<g id="a_edge1&#45;headlabel"><a xlink:href="dir_000017_000010.html" target="_top" xlink:title="5">
<text text-anchor="middle" x="61.34" y="-47.2" font-family="Helvetica,sans-Serif" font-size="10.00">5</text>
</a>
</g>
</g>
</g>
</svg>
