<?xml version="1.0" encoding="UTF-8" standalone="no"?>
<!DOCTYPE svg PUBLIC "-//W3C//DTD SVG 1.1//EN"
 "http://www.w3.org/Graphics/SVG/1.1/DTD/svg11.dtd">
<!-- Generated by graphviz version 2.43.0 (0)
 -->
<!-- Title: ChimeraTK::ScriptedInitHandler::ScriptedInitHandler Pages: 1 -->
<svg width="722pt" height="107pt"
 viewBox="0.00 0.00 722.00 107.00" xmlns="http://www.w3.org/2000/svg" xmlns:xlink="http://www.w3.org/1999/xlink">
<g id="graph0" class="graph" transform="scale(1 1) rotate(0) translate(4 103)">
<title>ChimeraTK::ScriptedInitHandler::ScriptedInitHandler</title>
<!-- Node1 -->
<g id="Node000001" class="node">
<title>Node1</title>
<g id="a_Node000001"><a xlink:title="Constructor.">
<polygon fill="#999999" stroke="#666666" points="170,-75 0,-75 0,-45 170,-45 170,-75"/>
<text text-anchor="start" x="8" y="-63" font-family="Helvetica,sans-Serif" font-size="10.00">ChimeraTK::ScriptedInitHandler</text>
<text text-anchor="middle" x="85" y="-52" font-family="Helvetica,sans-Serif" font-size="10.00">::ScriptedInitHandler</text>
</a>
</g>
</g>
<!-- Node2 -->
<g id="Node000002" class="node">
<title>Node2</title>
<g id="a_Node000002"><a xlink:href="class_chimera_t_k_1_1_device_module.html#a4a9e010d61ef112b7d688e72cbfc20a3" target="_top" xlink:title=" ">
<polygon fill="white" stroke="#666666" points="364,-99 218,-99 218,-69 364,-69 364,-99"/>
<text text-anchor="start" x="226" y="-87" font-family="Helvetica,sans-Serif" font-size="10.00">ChimeraTK::DeviceModule</text>
<text text-anchor="middle" x="291" y="-76" font-family="Helvetica,sans-Serif" font-size="10.00">::addInitialisationHandler</text>
</a>
</g>
</g>
<!-- Node1&#45;&gt;Node2 -->
<g id="edge1_Node000001_Node000002" class="edge">
<title>Node1&#45;&gt;Node2</title>
<g id="a_edge1_Node000001_Node000002"><a xlink:title=" ">
<path fill="none" stroke="#63b8ff" d="M170.15,-69.9C182.5,-71.35 195.21,-72.85 207.52,-74.3"/>
<polygon fill="#63b8ff" stroke="#63b8ff" points="207.41,-77.81 217.75,-75.5 208.23,-70.86 207.41,-77.81"/>
</a>
</g>
</g>
<!-- Node3 -->
<g id="Node000003" class="node">
<title>Node3</title>
<g id="a_Node000003"><a xlink:href="struct_chimera_t_k_1_1_scripted_init_handler.html#a60c5a9417572eb6b06caa8b5ac7c70dc" target="_top" xlink:title=" ">
<polygon fill="white" stroke="#666666" points="376,-51 206,-51 206,-21 376,-21 376,-51"/>
<text text-anchor="start" x="214" y="-39" font-family="Helvetica,sans-Serif" font-size="10.00">ChimeraTK::ScriptedInitHandler</text>
<text text-anchor="middle" x="291" y="-28" font-family="Helvetica,sans-Serif" font-size="10.00">::doInit</text>
</a>
</g>
</g>
<!-- Node1&#45;&gt;Node3 -->
<g id="edge2_Node000001_Node000003" class="edge">
<title>Node1&#45;&gt;Node3</title>
<g id="a_edge2_Node000001_Node000003"><a xlink:title=" ">
<path fill="none" stroke="#63b8ff" d="M170.15,-50.1C178.59,-49.11 187.2,-48.09 195.74,-47.09"/>
<polygon fill="#63b8ff" stroke="#63b8ff" points="196.19,-50.56 205.71,-45.92 195.37,-43.61 196.19,-50.56"/>
</a>
</g>
</g>
<!-- Node4 -->
<g id="Node000004" class="node">
<title>Node4</title>
<g id="a_Node000004"><a xlink:href="namespace_chimera_t_k.html#afd1ff17ff1ee9c50c855b99af5b0c580" target="_top" xlink:title="Convenience function to obtain the logger stream.">
<polygon fill="white" stroke="#666666" points="540.5,-67.5 433.5,-67.5 433.5,-48.5 540.5,-48.5 540.5,-67.5"/>
<text text-anchor="middle" x="487" y="-55.5" font-family="Helvetica,sans-Serif" font-size="10.00">ChimeraTK::logger</text>
</a>
</g>
</g>
<!-- Node3&#45;&gt;Node4 -->
<g id="edge3_Node000003_Node000004" class="edge">
<title>Node3&#45;&gt;Node4</title>
<g id="a_edge3_Node000003_Node000004"><a xlink:title=" ">
<path fill="none" stroke="#63b8ff" d="M376.24,-45.55C392.03,-47.34 408.28,-49.19 423.27,-50.89"/>
<polygon fill="#63b8ff" stroke="#63b8ff" points="423.09,-54.39 433.42,-52.04 423.88,-47.43 423.09,-54.39"/>
</a>
</g>
</g>
<!-- Node7 -->
<g id="Node000007" class="node">
<title>Node7</title>
<g id="a_Node000007"><a xlink:href="class_chimera_t_k_1_1_scalar_accessor.html#a02f5ea46e0582dfceb8e9cc06b25c302" target="_top" xlink:title=" ">
<polygon fill="white" stroke="#666666" points="562,-30 412,-30 412,0 562,0 562,-30"/>
<text text-anchor="start" x="420" y="-18" font-family="Helvetica,sans-Serif" font-size="10.00">ChimeraTK::ScalarAccessor</text>
<text text-anchor="middle" x="487" y="-7" font-family="Helvetica,sans-Serif" font-size="10.00">::write</text>
</a>
</g>
</g>
<!-- Node3&#45;&gt;Node7 -->
<g id="edge6_Node000003_Node000007" class="edge">
<title>Node3&#45;&gt;Node7</title>
<g id="a_edge6_Node000003_Node000007"><a xlink:title=" ">
<path fill="none" stroke="#63b8ff" d="M376.24,-26.88C384.68,-25.97 393.24,-25.04 401.68,-24.13"/>
<polygon fill="#63b8ff" stroke="#63b8ff" points="402.32,-27.58 411.88,-23.02 401.56,-20.62 402.32,-27.58"/>
</a>
</g>
</g>
<!-- Node5 -->
<g id="Node000005" class="node">
<title>Node5</title>
<g id="a_Node000005"><a xlink:href="class_chimera_t_k_1_1_logger.html#acbeb8e7b69c0d862cc7308863806b49e" target="_top" xlink:title="Obtain global instance of Logger singleton.">
<polygon fill="white" stroke="#666666" points="714,-97 598,-97 598,-67 714,-67 714,-97"/>
<text text-anchor="start" x="606" y="-85" font-family="Helvetica,sans-Serif" font-size="10.00">ChimeraTK::Logger::</text>
<text text-anchor="middle" x="656" y="-74" font-family="Helvetica,sans-Serif" font-size="10.00">getInstance</text>
</a>
</g>
</g>
<!-- Node4&#45;&gt;Node5 -->
<g id="edge4_Node000004_Node000005" class="edge">
<title>Node4&#45;&gt;Node5</title>
<g id="a_edge4_Node000004_Node000005"><a xlink:title=" ">
<path fill="none" stroke="#63b8ff" d="M540.84,-65.59C555.73,-67.73 572.14,-70.09 587.75,-72.34"/>
<polygon fill="#63b8ff" stroke="#63b8ff" points="587.48,-75.83 597.88,-73.79 588.48,-68.9 587.48,-75.83"/>
</a>
</g>
</g>
<!-- Node6 -->
<g id="Node000006" class="node">
<title>Node6</title>
<g id="a_Node000006"><a xlink:href="class_chimera_t_k_1_1_logger.html#aa9336a82c056a0cb1b7de8d05264531f" target="_top" xlink:title="Return an output stream object for the given severity.">
<polygon fill="white" stroke="#666666" points="714,-49 598,-49 598,-19 714,-19 714,-49"/>
<text text-anchor="start" x="606" y="-37" font-family="Helvetica,sans-Serif" font-size="10.00">ChimeraTK::Logger::</text>
<text text-anchor="middle" x="656" y="-26" font-family="Helvetica,sans-Serif" font-size="10.00">getStream</text>
</a>
</g>
</g>
<!-- Node4&#45;&gt;Node6 -->
<g id="edge5_Node000004_Node000006" class="edge">
<title>Node4&#45;&gt;Node6</title>
<g id="a_edge5_Node000004_Node000006"><a xlink:title=" ">
<path fill="none" stroke="#63b8ff" d="M540.84,-50.41C555.73,-48.27 572.14,-45.91 587.75,-43.66"/>
<polygon fill="#63b8ff" stroke="#63b8ff" points="588.48,-47.1 597.88,-42.21 587.48,-40.17 588.48,-47.1"/>
</a>
</g>
</g>
</g>
</svg>
