<?xml version="1.0" encoding="UTF-8" standalone="no"?>
<!DOCTYPE svg PUBLIC "-//W3C//DTD SVG 1.1//EN"
 "http://www.w3.org/Graphics/SVG/1.1/DTD/svg11.dtd">
<!-- Generated by graphviz version 2.43.0 (0)
 -->
<!-- Title: /scratch/dragon/sources/mtca4u&#45;MotorDriverCard/backend/src/MotorControlerImpl.cc Pages: 1 -->
<!--zoomable 445 -->

<svg id="main" version="1.1" xmlns="http://www.w3.org/2000/svg" xmlns:xlink="http://www.w3.org/1999/xlink" xml:space="preserve" onload="init(evt)">
<style type="text/css"><![CDATA[
.node, .edge {opacity: 0.7;}
.node.selected, .edge.selected {opacity: 1;}
.edge:hover path { stroke: red; }
.edge:hover polygon { stroke: red; fill: red; }
]]></style>

<defs>
  <circle id="rim" cx="0" cy="0" r="7"/>
  <circle id="rim2" cx="0" cy="0" r="3.5"/>
  <g id="zoomPlus">
    <use xlink:href="#rim" fill="#404040"><set attributeName="fill" to="#808080" begin="zoomplus.mouseover" end="zoomplus.mouseout"/></use>
    <path d="M-4,0h8M0,-4v8" fill="none" stroke="white" stroke-width="1.5" pointer-events="none"/>
  </g>
  <g id="zoomMin">
    <use xlink:href="#rim" fill="#404040"><set attributeName="fill" to="#808080" begin="zoomminus.mouseover" end="zoomminus.mouseout"/></use>
    <path d="M-4,0h8" fill="none" stroke="white" stroke-width="1.5" pointer-events="none"/>
  </g>
  <g id="arrowUp" transform="translate(30 24)">
    <use xlink:href="#rim"/>
    <path pointer-events="none" fill="none" stroke="white" stroke-width="1.5" d="M0,-3.0v7 M-2.5,-0.5L0,-3.0L2.5,-0.5"/>
  </g>
  <g id="arrowRight" transform="rotate(90) translate(36 -43)">
    <use xlink:href="#rim"/>
    <path pointer-events="none" fill="none" stroke="white" stroke-width="1.5" d="M0,-3.0v7 M-2.5,-0.5L0,-3.0L2.5,-0.5"/>
  </g>
  <g id="arrowDown" transform="rotate(180) translate(-30 -48)">
    <use xlink:href="#rim"/>
    <path pointer-events="none" fill="none" stroke="white" stroke-width="1.5" d="M0,-3.0v7 M-2.5,-0.5L0,-3.0L2.5,-0.5"/>
  </g>
  <g id="arrowLeft" transform="rotate(270) translate(-36 17)">
    <use xlink:href="#rim"/>
    <path pointer-events="none" fill="none" stroke="white" stroke-width="1.5" d="M0,-3.0v7 M-2.5,-0.5L0,-3.0L2.5,-0.5"/>
  </g>
  <g id="resetDef">
    <use xlink:href="#rim2" fill="#404040"><set attributeName="fill" to="#808080" begin="reset.mouseover" end="reset.mouseout"/></use>
  </g>
</defs>
<script type="application/ecmascript">
var viewWidth = 1398;
var viewHeight = 445;
var sectionId = 'dynsection-0';
</script>
<script type="application/ecmascript" xlink:href="svg.min.js"/>
<svg id="graph" class="graph">
<g id="viewport">
<title>/scratch/dragon/sources/mtca4u&#45;MotorDriverCard/backend/src/MotorControlerImpl.cc</title>
<!-- Node1 -->
<g id="Node000001" class="node">
<title>Node1</title>
<g id="a_Node000001"><a xlink:title=" ">
<polygon fill="#999999" stroke="#666666" points="1236.5,-437 1047.5,-437 1047.5,-396 1236.5,-396 1236.5,-437"/>
<text text-anchor="start" x="1055.5" y="-425" font-family="Helvetica,sans-Serif" font-size="10.00">/scratch/dragon/sources</text>
<text text-anchor="start" x="1055.5" y="-414" font-family="Helvetica,sans-Serif" font-size="10.00">/mtca4u&#45;MotorDriverCard</text>
<text text-anchor="middle" x="1142" y="-403" font-family="Helvetica,sans-Serif" font-size="10.00">/backend/src/MotorControlerImpl.cc</text>
</a>
</g>
</g>
<!-- Node2 -->
<g id="Node000002" class="node">
<title>Node2</title>
<g id="a_Node000002"><a xlink:href="_motor_controler_impl_8h.html" target="_top" xlink:title=" ">
<polygon fill="white" stroke="#666666" points="1049,-360 903,-360 903,-341 1049,-341 1049,-360"/>
<text text-anchor="middle" x="976" y="-348" font-family="Helvetica,sans-Serif" font-size="10.00">impl/MotorControlerImpl.h</text>
</a>
</g>
</g>
<!-- Node1&#45;&gt;Node2 -->
<g id="edge1_Node000001_Node000002" class="edge">
<title>Node1&#45;&gt;Node2</title>
<g id="a_edge1_Node000001_Node000002"><a xlink:title=" ">
<path fill="none" stroke="#63b8ff" d="M1091.29,-395.95C1064.09,-385.46 1031.42,-372.87 1007.81,-363.76"/>
<polygon fill="#63b8ff" stroke="#63b8ff" points="1008.87,-360.42 998.29,-360.09 1006.36,-366.95 1008.87,-360.42"/>
</a>
</g>
</g>
<!-- Node9 -->
<g id="Node000009" class="node">
<title>Node9</title>
<g id="a_Node000009"><a xlink:href="_d_f_m_c___m_d22_constants_8h.html" target="_top" xlink:title=" ">
<polygon fill="white" stroke="#666666" points="567.5,-129 430.5,-129 430.5,-110 567.5,-110 567.5,-129"/>
<text text-anchor="middle" x="499" y="-117" font-family="Helvetica,sans-Serif" font-size="10.00">DFMC_MD22Constants.h</text>
</a>
</g>
</g>
<!-- Node1&#45;&gt;Node9 -->
<g id="edge31_Node000001_Node000009" class="edge">
<title>Node1&#45;&gt;Node9</title>
<g id="a_edge31_Node000001_Node000009"><a xlink:title=" ">
<path fill="none" stroke="#63b8ff" d="M1047.09,-415.5C773.05,-414.26 0,-401.46 0,-296.5 0,-296.5 0,-296.5 0,-239.5 0,-184.79 47.2,-185.31 98,-165 154.75,-142.32 320.46,-129.88 420.22,-124.26"/>
<polygon fill="#63b8ff" stroke="#63b8ff" points="420.46,-127.75 430.25,-123.71 420.08,-120.76 420.46,-127.75"/>
</a>
</g>
</g>
<!-- Node10 -->
<g id="Node000010" class="node">
<title>Node10</title>
<g id="a_Node000010"><a xlink:href="_t_m_c429_constants_8h.html" target="_top" xlink:title=" ">
<polygon fill="white" stroke="#666666" points="924,-74 810,-74 810,-55 924,-55 924,-74"/>
<text text-anchor="middle" x="867" y="-62" font-family="Helvetica,sans-Serif" font-size="10.00">TMC429Constants.h</text>
</a>
</g>
</g>
<!-- Node1&#45;&gt;Node10 -->
<g id="edge32_Node000001_Node000010" class="edge">
<title>Node1&#45;&gt;Node10</title>
<g id="a_edge32_Node000001_Node000010"><a xlink:title=" ">
<path fill="none" stroke="#63b8ff" d="M1215.44,-395.84C1262.19,-378.38 1314,-347.52 1314,-296.5 1314,-296.5 1314,-296.5 1314,-179 1314,-101.61 1059.11,-76.38 934.28,-68.66"/>
<polygon fill="#63b8ff" stroke="#63b8ff" points="934.26,-65.16 924.07,-68.05 933.84,-72.14 934.26,-65.16"/>
</a>
</g>
</g>
<!-- Node18 -->
<g id="Node000018" class="node">
<title>Node18</title>
<g id="a_Node000018"><a xlink:title=" ">
<polygon fill="#e0e0e0" stroke="#999999" points="1286,-189.5 1170,-189.5 1170,-170.5 1286,-170.5 1286,-189.5"/>
<text text-anchor="middle" x="1228" y="-177.5" font-family="Helvetica,sans-Serif" font-size="10.00">ChimeraTK/Device.h</text>
</a>
</g>
</g>
<!-- Node1&#45;&gt;Node18 -->
<g id="edge48_Node000001_Node000018" class="edge">
<title>Node1&#45;&gt;Node18</title>
<g id="a_edge48_Node000001_Node000018"><a xlink:title=" ">
<path fill="none" stroke="#63b8ff" d="M1164.55,-395.8C1186.59,-375.3 1219.45,-341.18 1238,-305 1253.23,-275.28 1258.14,-263.62 1251,-231 1248.54,-219.76 1243.3,-208.03 1238.45,-198.76"/>
<polygon fill="#63b8ff" stroke="#63b8ff" points="1241.39,-196.85 1233.48,-189.8 1235.27,-200.24 1241.39,-196.85"/>
</a>
</g>
</g>
<!-- Node24 -->
<g id="Node000024" class="node">
<title>Node24</title>
<g id="a_Node000024"><a xlink:href="_motor_driver_card_impl_8h.html" target="_top" xlink:title=" ">
<polygon fill="white" stroke="#666666" points="526.5,-360 373.5,-360 373.5,-341 526.5,-341 526.5,-360"/>
<text text-anchor="middle" x="450" y="-348" font-family="Helvetica,sans-Serif" font-size="10.00">impl/MotorDriverCardImpl.h</text>
</a>
</g>
</g>
<!-- Node1&#45;&gt;Node24 -->
<g id="edge33_Node000001_Node000024" class="edge">
<title>Node1&#45;&gt;Node24</title>
<g id="a_edge33_Node000001_Node000024"><a xlink:title=" ">
<path fill="none" stroke="#63b8ff" d="M1047.23,-406.74C912.44,-394.27 667.29,-371.6 536.93,-359.54"/>
<polygon fill="#63b8ff" stroke="#63b8ff" points="536.88,-356.02 526.6,-358.58 536.24,-362.99 536.88,-356.02"/>
</a>
</g>
</g>
<!-- Node31 -->
<g id="Node000031" class="node">
<title>Node31</title>
<g id="a_Node000031"><a xlink:title=" ">
<polygon fill="#e0e0e0" stroke="#999999" points="1389.5,-360 1342.5,-360 1342.5,-341 1389.5,-341 1389.5,-360"/>
<text text-anchor="middle" x="1366" y="-348" font-family="Helvetica,sans-Serif" font-size="10.00">cmath</text>
</a>
</g>
</g>
<!-- Node1&#45;&gt;Node31 -->
<g id="edge49_Node000001_Node000031" class="edge">
<title>Node1&#45;&gt;Node31</title>
<g id="a_edge49_Node000001_Node000031"><a xlink:title=" ">
<path fill="none" stroke="#63b8ff" d="M1210.42,-395.95C1250.94,-384.37 1300.47,-370.22 1332.6,-361.04"/>
<polygon fill="#63b8ff" stroke="#63b8ff" points="1333.74,-364.36 1342.39,-358.25 1331.81,-357.63 1333.74,-364.36"/>
</a>
</g>
</g>
<!-- Node3 -->
<g id="Node000003" class="node">
<title>Node3</title>
<g id="a_Node000003"><a xlink:href="_motor_controler_config_8h.html" target="_top" xlink:title=" ">
<polygon fill="white" stroke="#666666" points="694,-250 564,-250 564,-231 694,-231 694,-250"/>
<text text-anchor="middle" x="629" y="-238" font-family="Helvetica,sans-Serif" font-size="10.00">MotorControlerConfig.h</text>
</a>
</g>
</g>
<!-- Node2&#45;&gt;Node3 -->
<g id="edge2_Node000002_Node000003" class="edge">
<title>Node2&#45;&gt;Node3</title>
<g id="a_edge2_Node000002_Node000003"><a xlink:title=" ">
<path fill="none" stroke="#63b8ff" d="M902.81,-343.25C831.2,-336.21 727.83,-323.31 692,-305 670.7,-294.12 652.22,-273.34 640.88,-258.52"/>
<polygon fill="#63b8ff" stroke="#63b8ff" points="643.52,-256.19 634.79,-250.2 637.88,-260.33 643.52,-256.19"/>
</a>
</g>
</g>
<!-- Node12 -->
<g id="Node000012" class="node">
<title>Node12</title>
<g id="a_Node000012"><a xlink:href="_motor_controler_expert_8h.html" target="_top" xlink:title=" ">
<polygon fill="white" stroke="#666666" points="831.5,-305 700.5,-305 700.5,-286 831.5,-286 831.5,-305"/>
<text text-anchor="middle" x="766" y="-293" font-family="Helvetica,sans-Serif" font-size="10.00">MotorControlerExpert.h</text>
</a>
</g>
</g>
<!-- Node2&#45;&gt;Node12 -->
<g id="edge13_Node000002_Node000012" class="edge">
<title>Node2&#45;&gt;Node12</title>
<g id="a_edge13_Node000002_Node000012"><a xlink:title=" ">
<path fill="none" stroke="#63b8ff" d="M942.26,-340.98C906.32,-331.91 849.28,-317.52 809.87,-307.57"/>
<polygon fill="#63b8ff" stroke="#63b8ff" points="810.56,-304.14 800,-305.08 808.84,-310.92 810.56,-304.14"/>
</a>
</g>
</g>
<!-- Node15 -->
<g id="Node000015" class="node">
<title>Node15</title>
<g id="a_Node000015"><a xlink:href="_signed_int_converter_8h.html" target="_top" xlink:title=" ">
<polygon fill="white" stroke="#666666" points="1209.5,-305 1090.5,-305 1090.5,-286 1209.5,-286 1209.5,-305"/>
<text text-anchor="middle" x="1150" y="-293" font-family="Helvetica,sans-Serif" font-size="10.00">SignedIntConverter.h</text>
</a>
</g>
</g>
<!-- Node2&#45;&gt;Node15 -->
<g id="edge19_Node000002_Node000015" class="edge">
<title>Node2&#45;&gt;Node15</title>
<g id="a_edge19_Node000002_Node000015"><a xlink:title=" ">
<path fill="none" stroke="#63b8ff" d="M1003.96,-340.98C1033.3,-332.05 1079.6,-317.94 1112.19,-308.02"/>
<polygon fill="#63b8ff" stroke="#63b8ff" points="1113.28,-311.34 1121.82,-305.08 1111.24,-304.65 1113.28,-311.34"/>
</a>
</g>
</g>
<!-- Node17 -->
<g id="Node000017" class="node">
<title>Node17</title>
<g id="a_Node000017"><a xlink:href="_s_p_ivia_p_c_ie_8h.html" target="_top" xlink:title=" ">
<polygon fill="white" stroke="#666666" points="1086.5,-250 1009.5,-250 1009.5,-231 1086.5,-231 1086.5,-250"/>
<text text-anchor="middle" x="1048" y="-238" font-family="Helvetica,sans-Serif" font-size="10.00">SPIviaPCIe.h</text>
</a>
</g>
</g>
<!-- Node2&#45;&gt;Node17 -->
<g id="edge21_Node000002_Node000017" class="edge">
<title>Node2&#45;&gt;Node17</title>
<g id="a_edge21_Node000002_Node000017"><a xlink:title=" ">
<path fill="none" stroke="#63b8ff" d="M998.37,-340.9C1013.71,-333.75 1033.02,-321.97 1043,-305 1050.97,-291.45 1051.63,-273.36 1050.64,-259.96"/>
<polygon fill="#63b8ff" stroke="#63b8ff" points="1054.12,-259.56 1049.55,-250 1047.16,-260.32 1054.12,-259.56"/>
</a>
</g>
</g>
<!-- Node2&#45;&gt;Node18 -->
<g id="edge27_Node000002_Node000018" class="edge">
<title>Node2&#45;&gt;Node18</title>
<g id="a_edge27_Node000002_Node000018"><a xlink:title=" ">
<path fill="none" stroke="#63b8ff" d="M1049.26,-345.74C1112.41,-340.84 1196.81,-329.75 1219,-305 1244.98,-276.04 1238.83,-226.39 1232.93,-199.54"/>
<polygon fill="#63b8ff" stroke="#63b8ff" points="1236.26,-198.45 1230.5,-189.55 1229.46,-200.1 1236.26,-198.45"/>
</a>
</g>
</g>
<!-- Node20 -->
<g id="Node000020" class="node">
<title>Node20</title>
<g id="a_Node000020"><a xlink:href="_t_m_c429_s_p_i_8h.html" target="_top" xlink:title=" ">
<polygon fill="white" stroke="#666666" points="644,-305 564,-305 564,-286 644,-286 644,-305"/>
<text text-anchor="middle" x="604" y="-293" font-family="Helvetica,sans-Serif" font-size="10.00">TMC429SPI.h</text>
</a>
</g>
</g>
<!-- Node2&#45;&gt;Node20 -->
<g id="edge24_Node000002_Node000020" class="edge">
<title>Node2&#45;&gt;Node20</title>
<g id="a_edge24_Node000002_Node000020"><a xlink:title=" ">
<path fill="none" stroke="#63b8ff" d="M912.9,-340.99C848.71,-332.26 746.36,-318.14 658,-305 656.73,-304.81 655.45,-304.62 654.15,-304.42"/>
<polygon fill="#63b8ff" stroke="#63b8ff" points="654.51,-300.94 644.09,-302.89 653.45,-307.86 654.51,-300.94"/>
</a>
</g>
</g>
<!-- Node21 -->
<g id="Node000021" class="node">
<title>Node21</title>
<g id="a_Node000021"><a xlink:title=" ">
<polygon fill="#e0e0e0" stroke="#999999" points="900,-305 850,-305 850,-286 900,-286 900,-305"/>
<text text-anchor="middle" x="875" y="-293" font-family="Helvetica,sans-Serif" font-size="10.00">atomic</text>
</a>
</g>
</g>
<!-- Node2&#45;&gt;Node21 -->
<g id="edge28_Node000002_Node000021" class="edge">
<title>Node2&#45;&gt;Node21</title>
<g id="a_edge28_Node000002_Node000021"><a xlink:title=" ">
<path fill="none" stroke="#63b8ff" d="M959.77,-340.98C943.82,-332.61 919.22,-319.7 900.62,-309.95"/>
<polygon fill="#63b8ff" stroke="#63b8ff" points="902,-306.72 891.52,-305.17 898.75,-312.92 902,-306.72"/>
</a>
</g>
</g>
<!-- Node22 -->
<g id="Node000022" class="node">
<title>Node22</title>
<g id="a_Node000022"><a xlink:title=" ">
<polygon fill="#e0e0e0" stroke="#999999" points="968,-305 918,-305 918,-286 968,-286 968,-305"/>
<text text-anchor="middle" x="943" y="-293" font-family="Helvetica,sans-Serif" font-size="10.00">cstdint</text>
</a>
</g>
</g>
<!-- Node2&#45;&gt;Node22 -->
<g id="edge29_Node000002_Node000022" class="edge">
<title>Node2&#45;&gt;Node22</title>
<g id="a_edge29_Node000002_Node000022"><a xlink:title=" ">
<path fill="none" stroke="#63b8ff" d="M970.55,-340.75C965.99,-333.42 959.33,-322.73 953.71,-313.7"/>
<polygon fill="#63b8ff" stroke="#63b8ff" points="956.6,-311.73 948.35,-305.09 950.66,-315.43 956.6,-311.73"/>
</a>
</g>
</g>
<!-- Node23 -->
<g id="Node000023" class="node">
<title>Node23</title>
<g id="a_Node000023"><a xlink:title=" ">
<polygon fill="#e0e0e0" stroke="#999999" points="1034,-305 986,-305 986,-286 1034,-286 1034,-305"/>
<text text-anchor="middle" x="1010" y="-293" font-family="Helvetica,sans-Serif" font-size="10.00">mutex</text>
</a>
</g>
</g>
<!-- Node2&#45;&gt;Node23 -->
<g id="edge30_Node000002_Node000023" class="edge">
<title>Node2&#45;&gt;Node23</title>
<g id="a_edge30_Node000002_Node000023"><a xlink:title=" ">
<path fill="none" stroke="#63b8ff" d="M981.61,-340.75C986.32,-333.42 993.17,-322.73 998.97,-313.7"/>
<polygon fill="#63b8ff" stroke="#63b8ff" points="1002.04,-315.4 1004.49,-305.09 996.14,-311.62 1002.04,-315.4"/>
</a>
</g>
</g>
<!-- Node4 -->
<g id="Node000004" class="node">
<title>Node4</title>
<g id="a_Node000004"><a xlink:href="_t_m_c260_words_8h.html" target="_top" xlink:title=" ">
<polygon fill="white" stroke="#666666" points="697.5,-189.5 602.5,-189.5 602.5,-170.5 697.5,-170.5 697.5,-189.5"/>
<text text-anchor="middle" x="650" y="-177.5" font-family="Helvetica,sans-Serif" font-size="10.00">TMC260Words.h</text>
</a>
</g>
</g>
<!-- Node3&#45;&gt;Node4 -->
<g id="edge3_Node000003_Node000004" class="edge">
<title>Node3&#45;&gt;Node4</title>
<g id="a_edge3_Node000003_Node000004"><a xlink:title=" ">
<path fill="none" stroke="#63b8ff" d="M632.1,-230.87C635.08,-222.57 639.67,-209.78 643.46,-199.22"/>
<polygon fill="#63b8ff" stroke="#63b8ff" points="646.8,-200.26 646.89,-189.67 640.22,-197.9 646.8,-200.26"/>
</a>
</g>
</g>
<!-- Node8 -->
<g id="Node000008" class="node">
<title>Node8</title>
<g id="a_Node000008"><a xlink:href="_t_m_c429_words_8h.html" target="_top" xlink:title=" ">
<polygon fill="white" stroke="#666666" points="546.5,-189.5 451.5,-189.5 451.5,-170.5 546.5,-170.5 546.5,-189.5"/>
<text text-anchor="middle" x="499" y="-177.5" font-family="Helvetica,sans-Serif" font-size="10.00">TMC429Words.h</text>
</a>
</g>
</g>
<!-- Node3&#45;&gt;Node8 -->
<g id="edge7_Node000003_Node000008" class="edge">
<title>Node3&#45;&gt;Node8</title>
<g id="a_edge7_Node000003_Node000008"><a xlink:title=" ">
<path fill="none" stroke="#63b8ff" d="M610.1,-230.99C588.34,-221.2 552.38,-205.02 527.29,-193.73"/>
<polygon fill="#63b8ff" stroke="#63b8ff" points="528.48,-190.43 517.93,-189.52 525.61,-196.81 528.48,-190.43"/>
</a>
</g>
</g>
<!-- Node5 -->
<g id="Node000005" class="node">
<title>Node5</title>
<g id="a_Node000005"><a xlink:href="_multi_variable_word_8h.html" target="_top" xlink:title=" ">
<polygon fill="white" stroke="#666666" points="706.5,-129 591.5,-129 591.5,-110 706.5,-110 706.5,-129"/>
<text text-anchor="middle" x="649" y="-117" font-family="Helvetica,sans-Serif" font-size="10.00">MultiVariableWord.h</text>
</a>
</g>
</g>
<!-- Node4&#45;&gt;Node5 -->
<g id="edge4_Node000004_Node000005" class="edge">
<title>Node4&#45;&gt;Node5</title>
<g id="a_edge4_Node000004_Node000005"><a xlink:title=" ">
<path fill="none" stroke="#63b8ff" d="M649.85,-170.37C649.71,-162.25 649.5,-149.81 649.32,-139.39"/>
<polygon fill="#63b8ff" stroke="#63b8ff" points="652.82,-139.11 649.15,-129.17 645.82,-139.23 652.82,-139.11"/>
</a>
</g>
</g>
<!-- Node6 -->
<g id="Node000006" class="node">
<title>Node6</title>
<g id="a_Node000006"><a xlink:href="_t_m_c260_constants_8h.html" target="_top" xlink:title=" ">
<polygon fill="white" stroke="#666666" points="792,-74 678,-74 678,-55 792,-55 792,-74"/>
<text text-anchor="middle" x="735" y="-62" font-family="Helvetica,sans-Serif" font-size="10.00">TMC260Constants.h</text>
</a>
</g>
</g>
<!-- Node4&#45;&gt;Node6 -->
<g id="edge5_Node000004_Node000006" class="edge">
<title>Node4&#45;&gt;Node6</title>
<g id="a_edge5_Node000004_Node000006"><a xlink:title=" ">
<path fill="none" stroke="#63b8ff" d="M666.78,-170.34C681.78,-161.77 703.3,-147.31 716,-129 725.33,-115.56 730.15,-97.46 732.6,-84.02"/>
<polygon fill="#63b8ff" stroke="#63b8ff" points="736.08,-84.45 734.15,-74.04 729.16,-83.38 736.08,-84.45"/>
</a>
</g>
</g>
<!-- Node7 -->
<g id="Node000007" class="node">
<title>Node7</title>
<g id="a_Node000007"><a xlink:title=" ">
<polygon fill="#e0e0e0" stroke="#999999" points="827.5,-19 774.5,-19 774.5,0 827.5,0 827.5,-19"/>
<text text-anchor="middle" x="801" y="-7" font-family="Helvetica,sans-Serif" font-size="10.00">stdint.h</text>
</a>
</g>
</g>
<!-- Node6&#45;&gt;Node7 -->
<g id="edge6_Node000006_Node000007" class="edge">
<title>Node6&#45;&gt;Node7</title>
<g id="a_edge6_Node000006_Node000007"><a xlink:title=" ">
<path fill="none" stroke="#63b8ff" d="M745.6,-54.98C755.46,-47.07 770.35,-35.11 782.22,-25.58"/>
<polygon fill="#63b8ff" stroke="#63b8ff" points="784.6,-28.16 790.2,-19.17 780.21,-22.7 784.6,-28.16"/>
</a>
</g>
</g>
<!-- Node8&#45;&gt;Node5 -->
<g id="edge12_Node000008_Node000005" class="edge">
<title>Node8&#45;&gt;Node5</title>
<g id="a_edge12_Node000008_Node000005"><a xlink:title=" ">
<path fill="none" stroke="#63b8ff" d="M520.81,-170.49C546.25,-160.57 588.51,-144.09 617.51,-132.78"/>
<polygon fill="#63b8ff" stroke="#63b8ff" points="619.12,-135.91 627.16,-129.02 616.57,-129.39 619.12,-135.91"/>
</a>
</g>
</g>
<!-- Node8&#45;&gt;Node9 -->
<g id="edge8_Node000008_Node000009" class="edge">
<title>Node8&#45;&gt;Node9</title>
<g id="a_edge8_Node000008_Node000009"><a xlink:title=" ">
<path fill="none" stroke="#63b8ff" d="M499,-170.37C499,-162.25 499,-149.81 499,-139.39"/>
<polygon fill="#63b8ff" stroke="#63b8ff" points="502.5,-139.17 499,-129.17 495.5,-139.17 502.5,-139.17"/>
</a>
</g>
</g>
<!-- Node9&#45;&gt;Node10 -->
<g id="edge9_Node000009_Node000010" class="edge">
<title>Node9&#45;&gt;Node10</title>
<g id="a_edge9_Node000009_Node000010"><a xlink:title=" ">
<path fill="none" stroke="#63b8ff" d="M558.13,-109.98C624.16,-100.47 730.82,-85.11 799.92,-75.16"/>
<polygon fill="#63b8ff" stroke="#63b8ff" points="800.44,-78.62 809.84,-73.73 799.44,-71.69 800.44,-78.62"/>
</a>
</g>
</g>
<!-- Node11 -->
<g id="Node000011" class="node">
<title>Node11</title>
<g id="a_Node000011"><a xlink:title=" ">
<polygon fill="#e0e0e0" stroke="#999999" points="561.5,-74 436.5,-74 436.5,-55 561.5,-55 561.5,-74"/>
<text text-anchor="middle" x="499" y="-62" font-family="Helvetica,sans-Serif" font-size="10.00">boost/lexical_cast.hpp</text>
</a>
</g>
</g>
<!-- Node9&#45;&gt;Node11 -->
<g id="edge11_Node000009_Node000011" class="edge">
<title>Node9&#45;&gt;Node11</title>
<g id="a_edge11_Node000009_Node000011"><a xlink:title=" ">
<path fill="none" stroke="#63b8ff" d="M499,-109.75C499,-102.8 499,-92.85 499,-84.13"/>
<polygon fill="#63b8ff" stroke="#63b8ff" points="502.5,-84.09 499,-74.09 495.5,-84.09 502.5,-84.09"/>
</a>
</g>
</g>
<!-- Node10&#45;&gt;Node7 -->
<g id="edge10_Node000010_Node000007" class="edge">
<title>Node10&#45;&gt;Node7</title>
<g id="a_edge10_Node000010_Node000007"><a xlink:title=" ">
<path fill="none" stroke="#63b8ff" d="M856.4,-54.98C846.54,-47.07 831.65,-35.11 819.78,-25.58"/>
<polygon fill="#63b8ff" stroke="#63b8ff" points="821.79,-22.7 811.8,-19.17 817.4,-28.16 821.79,-22.7"/>
</a>
</g>
</g>
<!-- Node12&#45;&gt;Node8 -->
<g id="edge18_Node000012_Node000008" class="edge">
<title>Node12&#45;&gt;Node8</title>
<g id="a_edge18_Node000012_Node000008"><a xlink:title=" ">
<path fill="none" stroke="#63b8ff" d="M759.75,-285.6C749.54,-271.72 727.87,-245.07 703,-231 678.23,-216.99 607.82,-201.47 556.64,-191.5"/>
<polygon fill="#63b8ff" stroke="#63b8ff" points="557.16,-188.03 546.68,-189.58 555.84,-194.91 557.16,-188.03"/>
</a>
</g>
</g>
<!-- Node13 -->
<g id="Node000013" class="node">
<title>Node13</title>
<g id="a_Node000013"><a xlink:href="_motor_controler_8h.html" target="_top" xlink:title=" ">
<polygon fill="white" stroke="#666666" points="848,-250 750,-250 750,-231 848,-231 848,-250"/>
<text text-anchor="middle" x="799" y="-238" font-family="Helvetica,sans-Serif" font-size="10.00">MotorControler.h</text>
</a>
</g>
</g>
<!-- Node12&#45;&gt;Node13 -->
<g id="edge14_Node000012_Node000013" class="edge">
<title>Node12&#45;&gt;Node13</title>
<g id="a_edge14_Node000012_Node000013"><a xlink:title=" ">
<path fill="none" stroke="#63b8ff" d="M771.45,-285.75C776.01,-278.42 782.67,-267.73 788.29,-258.7"/>
<polygon fill="#63b8ff" stroke="#63b8ff" points="791.34,-260.43 793.65,-250.09 785.4,-256.73 791.34,-260.43"/>
</a>
</g>
</g>
<!-- Node13&#45;&gt;Node4 -->
<g id="edge17_Node000013_Node000004" class="edge">
<title>Node13&#45;&gt;Node4</title>
<g id="a_edge17_Node000013_Node000004"><a xlink:title=" ">
<path fill="none" stroke="#63b8ff" d="M777.33,-230.99C752.06,-221.07 710.09,-204.59 681.28,-193.28"/>
<polygon fill="#63b8ff" stroke="#63b8ff" points="682.28,-189.91 671.69,-189.52 679.72,-196.43 682.28,-189.91"/>
</a>
</g>
</g>
<!-- Node14 -->
<g id="Node000014" class="node">
<title>Node14</title>
<g id="a_Node000014"><a xlink:href="_motor_reference_switch_data_8h.html" target="_top" xlink:title=" ">
<polygon fill="white" stroke="#666666" points="877.5,-189.5 718.5,-189.5 718.5,-170.5 877.5,-170.5 877.5,-189.5"/>
<text text-anchor="middle" x="798" y="-177.5" font-family="Helvetica,sans-Serif" font-size="10.00">MotorReferenceSwitchData.h</text>
</a>
</g>
</g>
<!-- Node13&#45;&gt;Node14 -->
<g id="edge15_Node000013_Node000014" class="edge">
<title>Node13&#45;&gt;Node14</title>
<g id="a_edge15_Node000013_Node000014"><a xlink:title=" ">
<path fill="none" stroke="#63b8ff" d="M798.85,-230.87C798.71,-222.75 798.5,-210.31 798.32,-199.89"/>
<polygon fill="#63b8ff" stroke="#63b8ff" points="801.82,-199.61 798.15,-189.67 794.82,-199.73 801.82,-199.61"/>
</a>
</g>
</g>
<!-- Node14&#45;&gt;Node5 -->
<g id="edge16_Node000014_Node000005" class="edge">
<title>Node14&#45;&gt;Node5</title>
<g id="a_edge16_Node000014_Node000005"><a xlink:title=" ">
<path fill="none" stroke="#63b8ff" d="M776.33,-170.49C751.06,-160.57 709.09,-144.09 680.28,-132.78"/>
<polygon fill="#63b8ff" stroke="#63b8ff" points="681.28,-129.41 670.69,-129.02 678.72,-135.93 681.28,-129.41"/>
</a>
</g>
</g>
<!-- Node16 -->
<g id="Node000016" class="node">
<title>Node16</title>
<g id="a_Node000016"><a xlink:title=" ">
<polygon fill="#e0e0e0" stroke="#999999" points="1205.5,-250 1104.5,-250 1104.5,-231 1205.5,-231 1205.5,-250"/>
<text text-anchor="middle" x="1155" y="-238" font-family="Helvetica,sans-Serif" font-size="10.00">boost/cstdint.hpp</text>
</a>
</g>
</g>
<!-- Node15&#45;&gt;Node16 -->
<g id="edge20_Node000015_Node000016" class="edge">
<title>Node15&#45;&gt;Node16</title>
<g id="a_edge20_Node000015_Node000016"><a xlink:title=" ">
<path fill="none" stroke="#63b8ff" d="M1150.83,-285.75C1151.48,-278.8 1152.42,-268.85 1153.24,-260.13"/>
<polygon fill="#63b8ff" stroke="#63b8ff" points="1156.73,-260.37 1154.19,-250.09 1149.77,-259.72 1156.73,-260.37"/>
</a>
</g>
</g>
<!-- Node17&#45;&gt;Node18 -->
<g id="edge22_Node000017_Node000018" class="edge">
<title>Node17&#45;&gt;Node18</title>
<g id="a_edge22_Node000017_Node000018"><a xlink:title=" ">
<path fill="none" stroke="#63b8ff" d="M1074.17,-230.99C1105.23,-220.9 1157.19,-204.01 1192.02,-192.69"/>
<polygon fill="#63b8ff" stroke="#63b8ff" points="1193.37,-195.94 1201.79,-189.52 1191.2,-189.28 1193.37,-195.94"/>
</a>
</g>
</g>
<!-- Node19 -->
<g id="Node000019" class="node">
<title>Node19</title>
<g id="a_Node000019"><a xlink:title=" ">
<polygon fill="#e0e0e0" stroke="#999999" points="1111,-195 985,-195 985,-165 1111,-165 1111,-195"/>
<text text-anchor="start" x="993" y="-183" font-family="Helvetica,sans-Serif" font-size="10.00">boost/thread/recursive</text>
<text text-anchor="middle" x="1048" y="-172" font-family="Helvetica,sans-Serif" font-size="10.00">_mutex.hpp</text>
</a>
</g>
</g>
<!-- Node17&#45;&gt;Node19 -->
<g id="edge23_Node000017_Node000019" class="edge">
<title>Node17&#45;&gt;Node19</title>
<g id="a_edge23_Node000017_Node000019"><a xlink:title=" ">
<path fill="none" stroke="#63b8ff" d="M1048,-230.87C1048,-224.11 1048,-214.35 1048,-205.26"/>
<polygon fill="#63b8ff" stroke="#63b8ff" points="1051.5,-205.11 1048,-195.11 1044.5,-205.11 1051.5,-205.11"/>
</a>
</g>
</g>
<!-- Node20&#45;&gt;Node8 -->
<g id="edge26_Node000020_Node000008" class="edge">
<title>Node20&#45;&gt;Node8</title>
<g id="a_edge26_Node000020_Node000008"><a xlink:title=" ">
<path fill="none" stroke="#63b8ff" d="M593.44,-285.73C583.22,-277.05 567.48,-263.19 555,-250 539.02,-233.11 522.45,-212.19 511.52,-197.84"/>
<polygon fill="#63b8ff" stroke="#63b8ff" points="514.31,-195.73 505.5,-189.85 508.72,-199.94 514.31,-195.73"/>
</a>
</g>
</g>
<!-- Node20&#45;&gt;Node17 -->
<g id="edge25_Node000020_Node000017" class="edge">
<title>Node20&#45;&gt;Node17</title>
<g id="a_edge25_Node000020_Node000017"><a xlink:title=" ">
<path fill="none" stroke="#63b8ff" d="M644.19,-289.7C725.91,-279.95 911.19,-257.83 999.47,-247.29"/>
<polygon fill="#63b8ff" stroke="#63b8ff" points="999.98,-250.76 1009.49,-246.1 999.15,-243.81 999.98,-250.76"/>
</a>
</g>
</g>
<!-- Node24&#45;&gt;Node8 -->
<g id="edge46_Node000024_Node000008" class="edge">
<title>Node24&#45;&gt;Node8</title>
<g id="a_edge46_Node000024_Node000008"><a xlink:title=" ">
<path fill="none" stroke="#63b8ff" d="M457.19,-340.9C463.93,-332.36 473.75,-318.59 479,-305 492.71,-269.53 497.02,-224.85 498.38,-199.96"/>
<polygon fill="#63b8ff" stroke="#63b8ff" points="501.88,-199.88 498.83,-189.74 494.89,-199.58 501.88,-199.88"/>
</a>
</g>
</g>
<!-- Node24&#45;&gt;Node13 -->
<g id="edge34_Node000024_Node000013" class="edge">
<title>Node24&#45;&gt;Node13</title>
<g id="a_edge34_Node000024_Node000013"><a xlink:title=" ">
<path fill="none" stroke="#63b8ff" d="M461.25,-340.78C479.72,-326.91 518.14,-299.96 555,-286 615.65,-263.02 689.4,-251.68 739.84,-246.23"/>
<polygon fill="#63b8ff" stroke="#63b8ff" points="740.33,-249.7 749.92,-245.19 739.61,-242.74 740.33,-249.7"/>
</a>
</g>
</g>
<!-- Node24&#45;&gt;Node20 -->
<g id="edge45_Node000024_Node000020" class="edge">
<title>Node24&#45;&gt;Node20</title>
<g id="a_edge45_Node000024_Node000020"><a xlink:title=" ">
<path fill="none" stroke="#63b8ff" d="M474.74,-340.98C500.37,-332.16 540.63,-318.31 569.41,-308.41"/>
<polygon fill="#63b8ff" stroke="#63b8ff" points="570.75,-311.65 579.06,-305.08 568.47,-305.03 570.75,-311.65"/>
</a>
</g>
</g>
<!-- Node25 -->
<g id="Node000025" class="node">
<title>Node25</title>
<g id="a_Node000025"><a xlink:href="_motor_driver_card_config_8h.html" target="_top" xlink:title=" ">
<polygon fill="white" stroke="#666666" points="469.5,-305 332.5,-305 332.5,-286 469.5,-286 469.5,-305"/>
<text text-anchor="middle" x="401" y="-293" font-family="Helvetica,sans-Serif" font-size="10.00">MotorDriverCardConfig.h</text>
</a>
</g>
</g>
<!-- Node24&#45;&gt;Node25 -->
<g id="edge35_Node000024_Node000025" class="edge">
<title>Node24&#45;&gt;Node25</title>
<g id="a_edge35_Node000024_Node000025"><a xlink:title=" ">
<path fill="none" stroke="#63b8ff" d="M441.91,-340.75C434.84,-333.11 424.41,-321.82 415.85,-312.56"/>
<polygon fill="#63b8ff" stroke="#63b8ff" points="418.3,-310.06 408.94,-305.09 413.16,-314.81 418.3,-310.06"/>
</a>
</g>
</g>
<!-- Node27 -->
<g id="Node000027" class="node">
<title>Node27</title>
<g id="a_Node000027"><a xlink:href="_motor_driver_card_expert_8h.html" target="_top" xlink:title=" ">
<polygon fill="white" stroke="#666666" points="314,-305 176,-305 176,-286 314,-286 314,-305"/>
<text text-anchor="middle" x="245" y="-293" font-family="Helvetica,sans-Serif" font-size="10.00">MotorDriverCardExpert.h</text>
</a>
</g>
</g>
<!-- Node24&#45;&gt;Node27 -->
<g id="edge39_Node000024_Node000027" class="edge">
<title>Node24&#45;&gt;Node27</title>
<g id="a_edge39_Node000024_Node000027"><a xlink:title=" ">
<path fill="none" stroke="#63b8ff" d="M417.06,-340.98C382.05,-331.93 326.53,-317.58 288.07,-307.64"/>
<polygon fill="#63b8ff" stroke="#63b8ff" points="288.75,-304.2 278.19,-305.08 287,-310.97 288.75,-304.2"/>
</a>
</g>
</g>
<!-- Node29 -->
<g id="Node000029" class="node">
<title>Node29</title>
<g id="a_Node000029"><a xlink:title=" ">
<polygon fill="#e0e0e0" stroke="#999999" points="226.5,-189.5 107.5,-189.5 107.5,-170.5 226.5,-170.5 226.5,-189.5"/>
<text text-anchor="middle" x="167" y="-177.5" font-family="Helvetica,sans-Serif" font-size="10.00">boost/shared_ptr.hpp</text>
</a>
</g>
</g>
<!-- Node24&#45;&gt;Node29 -->
<g id="edge47_Node000024_Node000029" class="edge">
<title>Node24&#45;&gt;Node29</title>
<g id="a_edge47_Node000024_Node000029"><a xlink:title=" ">
<path fill="none" stroke="#63b8ff" d="M373.45,-346.22C265.07,-340.79 77.67,-328.14 57,-305 21.09,-264.79 96.64,-217.03 139.75,-194.3"/>
<polygon fill="#63b8ff" stroke="#63b8ff" points="141.62,-197.27 148.91,-189.59 138.42,-191.05 141.62,-197.27"/>
</a>
</g>
</g>
<!-- Node30 -->
<g id="Node000030" class="node">
<title>Node30</title>
<g id="a_Node000030"><a xlink:href="_power_monitor_8h.html" target="_top" xlink:title=" ">
<polygon fill="white" stroke="#666666" points="158,-305 66,-305 66,-286 158,-286 158,-305"/>
<text text-anchor="middle" x="112" y="-293" font-family="Helvetica,sans-Serif" font-size="10.00">PowerMonitor.h</text>
</a>
</g>
</g>
<!-- Node24&#45;&gt;Node30 -->
<g id="edge44_Node000024_Node000030" class="edge">
<title>Node24&#45;&gt;Node30</title>
<g id="a_edge44_Node000024_Node000030"><a xlink:title=" ">
<path fill="none" stroke="#63b8ff" d="M395.69,-340.98C333.29,-331.2 231.4,-315.22 168.21,-305.31"/>
<polygon fill="#63b8ff" stroke="#63b8ff" points="168.45,-301.81 158.03,-303.72 167.36,-308.72 168.45,-301.81"/>
</a>
</g>
</g>
<!-- Node25&#45;&gt;Node3 -->
<g id="edge36_Node000025_Node000003" class="edge">
<title>Node25&#45;&gt;Node3</title>
<g id="a_edge36_Node000025_Node000003"><a xlink:title=" ">
<path fill="none" stroke="#63b8ff" d="M437.63,-285.98C476.91,-276.86 539.37,-262.33 582.19,-252.38"/>
<polygon fill="#63b8ff" stroke="#63b8ff" points="583.13,-255.76 592.08,-250.08 581.55,-248.94 583.13,-255.76"/>
</a>
</g>
</g>
<!-- Node25&#45;&gt;Node8 -->
<g id="edge37_Node000025_Node000008" class="edge">
<title>Node25&#45;&gt;Node8</title>
<g id="a_edge37_Node000025_Node000008"><a xlink:title=" ">
<path fill="none" stroke="#63b8ff" d="M400.65,-285.83C400.54,-272.73 402.09,-247.66 414,-231 426.18,-213.96 446.13,-201.79 463.64,-193.72"/>
<polygon fill="#63b8ff" stroke="#63b8ff" points="465.26,-196.83 473.06,-189.66 462.49,-190.41 465.26,-196.83"/>
</a>
</g>
</g>
<!-- Node26 -->
<g id="Node000026" class="node">
<title>Node26</title>
<g id="a_Node000026"><a xlink:title=" ">
<polygon fill="#e0e0e0" stroke="#999999" points="469.5,-250 422.5,-250 422.5,-231 469.5,-231 469.5,-250"/>
<text text-anchor="middle" x="446" y="-238" font-family="Helvetica,sans-Serif" font-size="10.00">vector</text>
</a>
</g>
</g>
<!-- Node25&#45;&gt;Node26 -->
<g id="edge38_Node000025_Node000026" class="edge">
<title>Node25&#45;&gt;Node26</title>
<g id="a_edge38_Node000025_Node000026"><a xlink:title=" ">
<path fill="none" stroke="#63b8ff" d="M408.43,-285.75C414.85,-278.18 424.31,-267.05 432.12,-257.84"/>
<polygon fill="#63b8ff" stroke="#63b8ff" points="434.9,-259.98 438.71,-250.09 429.57,-255.45 434.9,-259.98"/>
</a>
</g>
</g>
<!-- Node27&#45;&gt;Node8 -->
<g id="edge43_Node000027_Node000008" class="edge">
<title>Node27&#45;&gt;Node8</title>
<g id="a_edge43_Node000027_Node000008"><a xlink:title=" ">
<path fill="none" stroke="#63b8ff" d="M264.09,-285.97C308.31,-266.21 417.98,-217.21 470.31,-193.82"/>
<polygon fill="#63b8ff" stroke="#63b8ff" points="471.99,-196.91 479.69,-189.63 469.13,-190.51 471.99,-196.91"/>
</a>
</g>
</g>
<!-- Node28 -->
<g id="Node000028" class="node">
<title>Node28</title>
<g id="a_Node000028"><a xlink:href="_motor_driver_card_8h.html" target="_top" xlink:title=" ">
<polygon fill="white" stroke="#666666" points="298.5,-250 191.5,-250 191.5,-231 298.5,-231 298.5,-250"/>
<text text-anchor="middle" x="245" y="-238" font-family="Helvetica,sans-Serif" font-size="10.00">MotorDriverCard.h</text>
</a>
</g>
</g>
<!-- Node27&#45;&gt;Node28 -->
<g id="edge40_Node000027_Node000028" class="edge">
<title>Node27&#45;&gt;Node28</title>
<g id="a_edge40_Node000027_Node000028"><a xlink:title=" ">
<path fill="none" stroke="#63b8ff" d="M245,-285.75C245,-278.8 245,-268.85 245,-260.13"/>
<polygon fill="#63b8ff" stroke="#63b8ff" points="248.5,-260.09 245,-250.09 241.5,-260.09 248.5,-260.09"/>
</a>
</g>
</g>
<!-- Node28&#45;&gt;Node8 -->
<g id="edge41_Node000028_Node000008" class="edge">
<title>Node28&#45;&gt;Node8</title>
<g id="a_edge41_Node000028_Node000008"><a xlink:title=" ">
<path fill="none" stroke="#63b8ff" d="M281.93,-230.99C326.89,-220.64 402.88,-203.14 451.97,-191.83"/>
<polygon fill="#63b8ff" stroke="#63b8ff" points="453.06,-195.17 462.02,-189.52 451.49,-188.35 453.06,-195.17"/>
</a>
</g>
</g>
<!-- Node28&#45;&gt;Node29 -->
<g id="edge42_Node000028_Node000029" class="edge">
<title>Node28&#45;&gt;Node29</title>
<g id="a_edge42_Node000028_Node000029"><a xlink:title=" ">
<path fill="none" stroke="#63b8ff" d="M233.49,-230.87C221.16,-221.62 201.38,-206.78 186.59,-195.69"/>
<polygon fill="#63b8ff" stroke="#63b8ff" points="188.66,-192.87 178.56,-189.67 184.46,-198.47 188.66,-192.87"/>
</a>
</g>
</g>
</g>
</svg>

<g id="navigator" transform="translate(0 0)" fill="#404254">
  <rect fill="#f2f5e9" fill-opacity="0.5" stroke="#606060" stroke-width=".5" x="0" y="0" width="60" height="60"/>
  <use id="zoomplus" xlink:href="#zoomPlus" x="17" y="9" onmousedown="handleZoom(evt,'in')"/>
  <use id="zoomminus" xlink:href="#zoomMin" x="42" y="9" onmousedown="handleZoom(evt,'out')"/>
  <use id="reset" xlink:href="#resetDef" x="30" y="36" onmousedown="handleReset()"/>
   <use id="arrowup" xlink:href="#arrowUp" x="0" y="0" onmousedown="handlePan(0,-1)"/>
  <use id="arrowright" xlink:href="#arrowRight" x="0" y="0" onmousedown="handlePan(1,0)"/>
  <use id="arrowdown" xlink:href="#arrowDown" x="0" y="0" onmousedown="handlePan(0,1)"/>
  <use id="arrowleft" xlink:href="#arrowLeft" x="0" y="0" onmousedown="handlePan(-1,0)"/>
</g>
<svg viewBox="0 0 15 15" width="100%" height="30px" preserveAspectRatio="xMaxYMin meet">
 <g id="arrow_out" transform="scale(0.3 0.3)">
  <a xlink:href="_motor_controler_impl_8cc__incl_org.svg" target="_base">
   <rect id="button" ry="5" rx="5" y="6" x="6" height="38" width="38"
        fill="#f2f5e9" fill-opacity="0.5" stroke="#606060" stroke-width="1.0"/>
   <path id="arrow"
     d="M 11.500037,31.436501 C 11.940474,20.09759 22.043105,11.32322 32.158766,21.979434 L 37.068811,17.246167 C 37.068811,17.246167 37.088388,32 37.088388,32 L 22.160133,31.978069 C 22.160133,31.978069 26.997745,27.140456 26.997745,27.140456 C 18.528582,18.264221 13.291696,25.230495 11.500037,31.436501 z"
     style="fill:#404040;"/>
  </a>
 </g>
</svg>

<style type='text/css'>
<![CDATA[
[data-mouse-over-selected='false'] { opacity: 0.7; }
[data-mouse-over-selected='true']  { opacity: 1.0; }
]]>
</style>
<script type="application/ecmascript"><![CDATA[
document.addEventListener('DOMContentLoaded', (event) => {
  highlightEdges();
  highlightAdjacentNodes();
});
]]></script>
</svg>
