<?xml version="1.0" encoding="UTF-8" standalone="no"?>
<!DOCTYPE svg PUBLIC "-//W3C//DTD SVG 1.1//EN"
 "http://www.w3.org/Graphics/SVG/1.1/DTD/svg11.dtd">
<!-- Generated by graphviz version 2.43.0 (0)
 -->
<!-- Title: /scratch/dragon/sources/mtca4u&#45;MotorDriverCard/util/include/StateMachine.h Pages: 1 -->
<!--zoomable 225 -->

<svg id="main" version="1.1" xmlns="http://www.w3.org/2000/svg" xmlns:xlink="http://www.w3.org/1999/xlink" xml:space="preserve" onload="init(evt)">
<style type="text/css"><![CDATA[
.node, .edge {opacity: 0.7;}
.node.selected, .edge.selected {opacity: 1;}
.edge:hover path { stroke: red; }
.edge:hover polygon { stroke: red; fill: red; }
]]></style>

<defs>
  <circle id="rim" cx="0" cy="0" r="7"/>
  <circle id="rim2" cx="0" cy="0" r="3.5"/>
  <g id="zoomPlus">
    <use xlink:href="#rim" fill="#404040"><set attributeName="fill" to="#808080" begin="zoomplus.mouseover" end="zoomplus.mouseout"/></use>
    <path d="M-4,0h8M0,-4v8" fill="none" stroke="white" stroke-width="1.5" pointer-events="none"/>
  </g>
  <g id="zoomMin">
    <use xlink:href="#rim" fill="#404040"><set attributeName="fill" to="#808080" begin="zoomminus.mouseover" end="zoomminus.mouseout"/></use>
    <path d="M-4,0h8" fill="none" stroke="white" stroke-width="1.5" pointer-events="none"/>
  </g>
  <g id="arrowUp" transform="translate(30 24)">
    <use xlink:href="#rim"/>
    <path pointer-events="none" fill="none" stroke="white" stroke-width="1.5" d="M0,-3.0v7 M-2.5,-0.5L0,-3.0L2.5,-0.5"/>
  </g>
  <g id="arrowRight" transform="rotate(90) translate(36 -43)">
    <use xlink:href="#rim"/>
    <path pointer-events="none" fill="none" stroke="white" stroke-width="1.5" d="M0,-3.0v7 M-2.5,-0.5L0,-3.0L2.5,-0.5"/>
  </g>
  <g id="arrowDown" transform="rotate(180) translate(-30 -48)">
    <use xlink:href="#rim"/>
    <path pointer-events="none" fill="none" stroke="white" stroke-width="1.5" d="M0,-3.0v7 M-2.5,-0.5L0,-3.0L2.5,-0.5"/>
  </g>
  <g id="arrowLeft" transform="rotate(270) translate(-36 17)">
    <use xlink:href="#rim"/>
    <path pointer-events="none" fill="none" stroke="white" stroke-width="1.5" d="M0,-3.0v7 M-2.5,-0.5L0,-3.0L2.5,-0.5"/>
  </g>
  <g id="resetDef">
    <use xlink:href="#rim2" fill="#404040"><set attributeName="fill" to="#808080" begin="reset.mouseover" end="reset.mouseout"/></use>
  </g>
</defs>
<script type="application/ecmascript">
var viewWidth = 1074;
var viewHeight = 225;
var sectionId = 'dynsection-1';
</script>
<script type="application/ecmascript" xlink:href="svg.min.js"/>
<svg id="graph" class="graph">
<g id="viewport">
<title>/scratch/dragon/sources/mtca4u&#45;MotorDriverCard/util/include/StateMachine.h</title>
<!-- Node1 -->
<g id="Node000001" class="node">
<title>Node1</title>
<g id="a_Node000001"><a xlink:title=" ">
<polygon fill="#999999" stroke="#666666" points="811,-217 659,-217 659,-176 811,-176 811,-217"/>
<text text-anchor="start" x="667" y="-205" font-family="Helvetica,sans-Serif" font-size="10.00">/scratch/dragon/sources</text>
<text text-anchor="start" x="667" y="-194" font-family="Helvetica,sans-Serif" font-size="10.00">/mtca4u&#45;MotorDriverCard</text>
<text text-anchor="middle" x="735" y="-183" font-family="Helvetica,sans-Serif" font-size="10.00">/util/include/StateMachine.h</text>
</a>
</g>
</g>
<!-- Node2 -->
<g id="Node000002" class="node">
<title>Node2</title>
<g id="a_Node000002"><a xlink:href="_basic_stepper_motor_8h.html" target="_top" xlink:title=" ">
<polygon fill="white" stroke="#666666" points="646.5,-140 455.5,-140 455.5,-88 646.5,-88 646.5,-140"/>
<text text-anchor="start" x="463.5" y="-128" font-family="Helvetica,sans-Serif" font-size="10.00">/scratch/dragon/sources</text>
<text text-anchor="start" x="463.5" y="-117" font-family="Helvetica,sans-Serif" font-size="10.00">/mtca4u&#45;MotorDriverCard</text>
<text text-anchor="start" x="463.5" y="-106" font-family="Helvetica,sans-Serif" font-size="10.00">/steppermotor/include/BasicStepper</text>
<text text-anchor="middle" x="551" y="-95" font-family="Helvetica,sans-Serif" font-size="10.00">Motor.h</text>
</a>
</g>
</g>
<!-- Node1&#45;&gt;Node2 -->
<g id="edge1_Node000001_Node000002" class="edge">
<title>Node1&#45;&gt;Node2</title>
<g id="a_edge1_Node000001_Node000002"><a xlink:title=" ">
<path fill="none" stroke="#63b8ff" d="M680.81,-171.79C658.04,-161.83 631.54,-150.23 608.43,-140.13"/>
<polygon fill="#63b8ff" stroke="#63b8ff" points="679.42,-175.01 689.99,-175.81 682.23,-168.59 679.42,-175.01"/>
</a>
</g>
</g>
<!-- Node8 -->
<g id="Node000008" class="node">
<title>Node8</title>
<g id="a_Node000008"><a xlink:href="test_state_machine_8cc.html" target="_top" xlink:title=" ">
<polygon fill="white" stroke="#666666" points="805.5,-140 664.5,-140 664.5,-88 805.5,-88 805.5,-140"/>
<text text-anchor="start" x="672.5" y="-128" font-family="Helvetica,sans-Serif" font-size="10.00">/scratch/dragon/sources</text>
<text text-anchor="start" x="672.5" y="-117" font-family="Helvetica,sans-Serif" font-size="10.00">/mtca4u&#45;MotorDriverCard</text>
<text text-anchor="start" x="672.5" y="-106" font-family="Helvetica,sans-Serif" font-size="10.00">/tests/src/steppermotor</text>
<text text-anchor="middle" x="735" y="-95" font-family="Helvetica,sans-Serif" font-size="10.00">/testStateMachine.cc</text>
</a>
</g>
</g>
<!-- Node1&#45;&gt;Node8 -->
<g id="edge7_Node000001_Node000008" class="edge">
<title>Node1&#45;&gt;Node8</title>
<g id="a_edge7_Node000001_Node000008"><a xlink:title=" ">
<path fill="none" stroke="#63b8ff" d="M735,-165.49C735,-157.15 735,-148.19 735,-140.16"/>
<polygon fill="#63b8ff" stroke="#63b8ff" points="731.5,-165.6 735,-175.6 738.5,-165.6 731.5,-165.6"/>
</a>
</g>
</g>
<!-- Node9 -->
<g id="Node000009" class="node">
<title>Node9</title>
<g id="a_Node000009"><a xlink:href="_state_machine_8cc.html" target="_top" xlink:title=" ">
<polygon fill="white" stroke="#666666" points="964.5,-134.5 823.5,-134.5 823.5,-93.5 964.5,-93.5 964.5,-134.5"/>
<text text-anchor="start" x="831.5" y="-122.5" font-family="Helvetica,sans-Serif" font-size="10.00">/scratch/dragon/sources</text>
<text text-anchor="start" x="831.5" y="-111.5" font-family="Helvetica,sans-Serif" font-size="10.00">/mtca4u&#45;MotorDriverCard</text>
<text text-anchor="middle" x="894" y="-100.5" font-family="Helvetica,sans-Serif" font-size="10.00">/util/src/StateMachine.cc</text>
</a>
</g>
</g>
<!-- Node1&#45;&gt;Node9 -->
<g id="edge8_Node000001_Node000009" class="edge">
<title>Node1&#45;&gt;Node9</title>
<g id="a_edge8_Node000001_Node000009"><a xlink:title=" ">
<path fill="none" stroke="#63b8ff" d="M782.86,-171.27C806,-159.55 833.42,-145.67 855.23,-134.63"/>
<polygon fill="#63b8ff" stroke="#63b8ff" points="781.24,-168.17 773.9,-175.81 784.4,-174.41 781.24,-168.17"/>
</a>
</g>
</g>
<!-- Node3 -->
<g id="Node000003" class="node">
<title>Node3</title>
<g id="a_Node000003"><a xlink:href="steppermotor_2include_2_linear_stepper_motor_8h.html" target="_top" xlink:title=" ">
<polygon fill="white" stroke="#666666" points="194,-52 0,-52 0,0 194,0 194,-52"/>
<text text-anchor="start" x="8" y="-40" font-family="Helvetica,sans-Serif" font-size="10.00">/scratch/dragon/sources</text>
<text text-anchor="start" x="8" y="-29" font-family="Helvetica,sans-Serif" font-size="10.00">/mtca4u&#45;MotorDriverCard</text>
<text text-anchor="start" x="8" y="-18" font-family="Helvetica,sans-Serif" font-size="10.00">/steppermotor/include/LinearStepper</text>
<text text-anchor="middle" x="97" y="-7" font-family="Helvetica,sans-Serif" font-size="10.00">Motor.h</text>
</a>
</g>
</g>
<!-- Node2&#45;&gt;Node3 -->
<g id="edge2_Node000002_Node000003" class="edge">
<title>Node2&#45;&gt;Node3</title>
<g id="a_edge2_Node000002_Node000003"><a xlink:title=" ">
<path fill="none" stroke="#63b8ff" d="M445.42,-96.13C376.27,-84.68 284.03,-68.64 203,-52 200.13,-51.41 197.22,-50.8 194.28,-50.18"/>
<polygon fill="#63b8ff" stroke="#63b8ff" points="445.01,-99.61 455.45,-97.79 446.15,-92.7 445.01,-99.61"/>
</a>
</g>
</g>
<!-- Node4 -->
<g id="Node000004" class="node">
<title>Node4</title>
<g id="a_Node000004"><a xlink:href="_basic_stepper_motor_8cc.html" target="_top" xlink:title=" ">
<polygon fill="white" stroke="#666666" points="423.5,-46.5 212.5,-46.5 212.5,-5.5 423.5,-5.5 423.5,-46.5"/>
<text text-anchor="start" x="220.5" y="-34.5" font-family="Helvetica,sans-Serif" font-size="10.00">/scratch/dragon/sources</text>
<text text-anchor="start" x="220.5" y="-23.5" font-family="Helvetica,sans-Serif" font-size="10.00">/mtca4u&#45;MotorDriverCard</text>
<text text-anchor="middle" x="318" y="-12.5" font-family="Helvetica,sans-Serif" font-size="10.00">/steppermotor/src/BasicStepperMotor.cc</text>
</a>
</g>
</g>
<!-- Node2&#45;&gt;Node4 -->
<g id="edge3_Node000002_Node000004" class="edge">
<title>Node2&#45;&gt;Node4</title>
<g id="a_edge3_Node000002_Node000004"><a xlink:title=" ">
<path fill="none" stroke="#63b8ff" d="M473.18,-84.28C439.58,-71.88 401.13,-57.68 370.91,-46.53"/>
<polygon fill="#63b8ff" stroke="#63b8ff" points="472.39,-87.71 482.98,-87.89 474.81,-81.15 472.39,-87.71"/>
</a>
</g>
</g>
<!-- Node5 -->
<g id="Node000005" class="node">
<title>Node5</title>
<g id="a_Node000005"><a xlink:href="_stepper_motor_factory_8cc.html" target="_top" xlink:title=" ">
<polygon fill="white" stroke="#666666" points="660.5,-46.5 441.5,-46.5 441.5,-5.5 660.5,-5.5 660.5,-46.5"/>
<text text-anchor="start" x="449.5" y="-34.5" font-family="Helvetica,sans-Serif" font-size="10.00">/scratch/dragon/sources</text>
<text text-anchor="start" x="449.5" y="-23.5" font-family="Helvetica,sans-Serif" font-size="10.00">/mtca4u&#45;MotorDriverCard</text>
<text text-anchor="middle" x="551" y="-12.5" font-family="Helvetica,sans-Serif" font-size="10.00">/steppermotor/src/StepperMotorFactory.cc</text>
</a>
</g>
</g>
<!-- Node2&#45;&gt;Node5 -->
<g id="edge4_Node000002_Node000005" class="edge">
<title>Node2&#45;&gt;Node5</title>
<g id="a_edge4_Node000002_Node000005"><a xlink:title=" ">
<path fill="none" stroke="#63b8ff" d="M551,-77.45C551,-66.94 551,-55.82 551,-46.7"/>
<polygon fill="#63b8ff" stroke="#63b8ff" points="547.5,-77.66 551,-87.66 554.5,-77.66 547.5,-77.66"/>
</a>
</g>
</g>
<!-- Node6 -->
<g id="Node000006" class="node">
<title>Node6</title>
<g id="a_Node000006"><a xlink:href="_stepper_motor_state_machine_8cc.html" target="_top" xlink:title=" ">
<polygon fill="white" stroke="#666666" points="875.5,-52 678.5,-52 678.5,0 875.5,0 875.5,-52"/>
<text text-anchor="start" x="686.5" y="-40" font-family="Helvetica,sans-Serif" font-size="10.00">/scratch/dragon/sources</text>
<text text-anchor="start" x="686.5" y="-29" font-family="Helvetica,sans-Serif" font-size="10.00">/mtca4u&#45;MotorDriverCard</text>
<text text-anchor="start" x="686.5" y="-18" font-family="Helvetica,sans-Serif" font-size="10.00">/steppermotor/src/StepperMotorState</text>
<text text-anchor="middle" x="777" y="-7" font-family="Helvetica,sans-Serif" font-size="10.00">Machine.cc</text>
</a>
</g>
</g>
<!-- Node2&#45;&gt;Node6 -->
<g id="edge5_Node000002_Node000006" class="edge">
<title>Node2&#45;&gt;Node6</title>
<g id="a_edge5_Node000002_Node000006"><a xlink:title=" ">
<path fill="none" stroke="#63b8ff" d="M626.5,-84.27C653.84,-73.87 684.48,-62.21 710.94,-52.14"/>
<polygon fill="#63b8ff" stroke="#63b8ff" points="625.08,-81.07 616.98,-87.89 627.57,-87.61 625.08,-81.07"/>
</a>
</g>
</g>
<!-- Node7 -->
<g id="Node000007" class="node">
<title>Node7</title>
<g id="a_Node000007"><a xlink:href="test_stepper_motor_chimera_t_k_8cc.html" target="_top" xlink:title=" ">
<polygon fill="white" stroke="#666666" points="1066,-52 894,-52 894,0 1066,0 1066,-52"/>
<text text-anchor="start" x="902" y="-40" font-family="Helvetica,sans-Serif" font-size="10.00">/scratch/dragon/sources</text>
<text text-anchor="start" x="902" y="-29" font-family="Helvetica,sans-Serif" font-size="10.00">/mtca4u&#45;MotorDriverCard</text>
<text text-anchor="start" x="902" y="-18" font-family="Helvetica,sans-Serif" font-size="10.00">/tests/src/steppermotor</text>
<text text-anchor="middle" x="980" y="-7" font-family="Helvetica,sans-Serif" font-size="10.00">/testStepperMotorChimeraTK.cc</text>
</a>
</g>
</g>
<!-- Node2&#45;&gt;Node7 -->
<g id="edge6_Node000002_Node000007" class="edge">
<title>Node2&#45;&gt;Node7</title>
<g id="a_edge6_Node000002_Node000007"><a xlink:title=" ">
<path fill="none" stroke="#63b8ff" d="M656.32,-88.01C758.79,-68.34 787.22,-72.5 885,-52 887.92,-51.39 890.89,-50.74 893.88,-50.07"/>
<polygon fill="#63b8ff" stroke="#63b8ff" points="655.65,-84.58 646.5,-89.93 656.99,-91.45 655.65,-84.58"/>
</a>
</g>
</g>
</g>
</svg>

<g id="navigator" transform="translate(0 0)" fill="#404254">
  <rect fill="#f2f5e9" fill-opacity="0.5" stroke="#606060" stroke-width=".5" x="0" y="0" width="60" height="60"/>
  <use id="zoomplus" xlink:href="#zoomPlus" x="17" y="9" onmousedown="handleZoom(evt,'in')"/>
  <use id="zoomminus" xlink:href="#zoomMin" x="42" y="9" onmousedown="handleZoom(evt,'out')"/>
  <use id="reset" xlink:href="#resetDef" x="30" y="36" onmousedown="handleReset()"/>
   <use id="arrowup" xlink:href="#arrowUp" x="0" y="0" onmousedown="handlePan(0,-1)"/>
  <use id="arrowright" xlink:href="#arrowRight" x="0" y="0" onmousedown="handlePan(1,0)"/>
  <use id="arrowdown" xlink:href="#arrowDown" x="0" y="0" onmousedown="handlePan(0,1)"/>
  <use id="arrowleft" xlink:href="#arrowLeft" x="0" y="0" onmousedown="handlePan(-1,0)"/>
</g>
<svg viewBox="0 0 15 15" width="100%" height="30px" preserveAspectRatio="xMaxYMin meet">
 <g id="arrow_out" transform="scale(0.3 0.3)">
  <a xlink:href="_state_machine_8h__dep__incl_org.svg" target="_base">
   <rect id="button" ry="5" rx="5" y="6" x="6" height="38" width="38"
        fill="#f2f5e9" fill-opacity="0.5" stroke="#606060" stroke-width="1.0"/>
   <path id="arrow"
     d="M 11.500037,31.436501 C 11.940474,20.09759 22.043105,11.32322 32.158766,21.979434 L 37.068811,17.246167 C 37.068811,17.246167 37.088388,32 37.088388,32 L 22.160133,31.978069 C 22.160133,31.978069 26.997745,27.140456 26.997745,27.140456 C 18.528582,18.264221 13.291696,25.230495 11.500037,31.436501 z"
     style="fill:#404040;"/>
  </a>
 </g>
</svg>

<style type='text/css'>
<![CDATA[
[data-mouse-over-selected='false'] { opacity: 0.7; }
[data-mouse-over-selected='true']  { opacity: 1.0; }
]]>
</style>
<script type="application/ecmascript"><![CDATA[
document.addEventListener('DOMContentLoaded', (event) => {
  highlightEdges();
  highlightAdjacentNodes();
});
]]></script>
</svg>
