<?xml version="1.0" encoding="UTF-8" standalone="no"?>
<!DOCTYPE svg PUBLIC "-//W3C//DTD SVG 1.1//EN"
 "http://www.w3.org/Graphics/SVG/1.1/DTD/svg11.dtd">
<!-- Generated by graphviz version 2.43.0 (0)
 -->
<!-- Title: /scratch/dragon/sources/mtca4u&#45;MotorDriverCard/util/include/StateMachine.h Pages: 1 -->
<!--zoomable 489 -->

<svg id="main" version="1.1" xmlns="http://www.w3.org/2000/svg" xmlns:xlink="http://www.w3.org/1999/xlink" xml:space="preserve" onload="init(evt)">
<style type="text/css"><![CDATA[
.node, .edge {opacity: 0.7;}
.node.selected, .edge.selected {opacity: 1;}
.edge:hover path { stroke: red; }
.edge:hover polygon { stroke: red; fill: red; }
]]></style>

<defs>
  <circle id="rim" cx="0" cy="0" r="7"/>
  <circle id="rim2" cx="0" cy="0" r="3.5"/>
  <g id="zoomPlus">
    <use xlink:href="#rim" fill="#404040"><set attributeName="fill" to="#808080" begin="zoomplus.mouseover" end="zoomplus.mouseout"/></use>
    <path d="M-4,0h8M0,-4v8" fill="none" stroke="white" stroke-width="1.5" pointer-events="none"/>
  </g>
  <g id="zoomMin">
    <use xlink:href="#rim" fill="#404040"><set attributeName="fill" to="#808080" begin="zoomminus.mouseover" end="zoomminus.mouseout"/></use>
    <path d="M-4,0h8" fill="none" stroke="white" stroke-width="1.5" pointer-events="none"/>
  </g>
  <g id="arrowUp" transform="translate(30 24)">
    <use xlink:href="#rim"/>
    <path pointer-events="none" fill="none" stroke="white" stroke-width="1.5" d="M0,-3.0v7 M-2.5,-0.5L0,-3.0L2.5,-0.5"/>
  </g>
  <g id="arrowRight" transform="rotate(90) translate(36 -43)">
    <use xlink:href="#rim"/>
    <path pointer-events="none" fill="none" stroke="white" stroke-width="1.5" d="M0,-3.0v7 M-2.5,-0.5L0,-3.0L2.5,-0.5"/>
  </g>
  <g id="arrowDown" transform="rotate(180) translate(-30 -48)">
    <use xlink:href="#rim"/>
    <path pointer-events="none" fill="none" stroke="white" stroke-width="1.5" d="M0,-3.0v7 M-2.5,-0.5L0,-3.0L2.5,-0.5"/>
  </g>
  <g id="arrowLeft" transform="rotate(270) translate(-36 17)">
    <use xlink:href="#rim"/>
    <path pointer-events="none" fill="none" stroke="white" stroke-width="1.5" d="M0,-3.0v7 M-2.5,-0.5L0,-3.0L2.5,-0.5"/>
  </g>
  <g id="resetDef">
    <use xlink:href="#rim2" fill="#404040"><set attributeName="fill" to="#808080" begin="reset.mouseover" end="reset.mouseout"/></use>
  </g>
</defs>
<script type="application/ecmascript">
var viewWidth = 1726;
var viewHeight = 489;
var sectionId = 'dynsection-1';
</script>
<script type="application/ecmascript" xlink:href="svg.min.js"/>
<svg id="graph" class="graph">
<g id="viewport">
<title>/scratch/dragon/sources/mtca4u&#45;MotorDriverCard/util/include/StateMachine.h</title>
<!-- Node1 -->
<g id="Node000001" class="node">
<title>Node1</title>
<g id="a_Node000001"><a xlink:title=" ">
<polygon fill="#999999" stroke="#666666" points="1498.5,-481 1346.5,-481 1346.5,-440 1498.5,-440 1498.5,-481"/>
<text text-anchor="start" x="1354.5" y="-469" font-family="Helvetica,sans-Serif" font-size="10.00">/scratch/dragon/sources</text>
<text text-anchor="start" x="1354.5" y="-458" font-family="Helvetica,sans-Serif" font-size="10.00">/mtca4u&#45;MotorDriverCard</text>
<text text-anchor="middle" x="1422.5" y="-447" font-family="Helvetica,sans-Serif" font-size="10.00">/util/include/StateMachine.h</text>
</a>
</g>
</g>
<!-- Node2 -->
<g id="Node000002" class="node">
<title>Node2</title>
<g id="a_Node000002"><a xlink:href="_basic_stepper_motor_8h.html" target="_top" xlink:title=" ">
<polygon fill="white" stroke="#666666" points="1334,-404 1143,-404 1143,-352 1334,-352 1334,-404"/>
<text text-anchor="start" x="1151" y="-392" font-family="Helvetica,sans-Serif" font-size="10.00">/scratch/dragon/sources</text>
<text text-anchor="start" x="1151" y="-381" font-family="Helvetica,sans-Serif" font-size="10.00">/mtca4u&#45;MotorDriverCard</text>
<text text-anchor="start" x="1151" y="-370" font-family="Helvetica,sans-Serif" font-size="10.00">/steppermotor/include/BasicStepper</text>
<text text-anchor="middle" x="1238.5" y="-359" font-family="Helvetica,sans-Serif" font-size="10.00">Motor.h</text>
</a>
</g>
</g>
<!-- Node1&#45;&gt;Node2 -->
<g id="edge1_Node000001_Node000002" class="edge">
<title>Node1&#45;&gt;Node2</title>
<g id="a_edge1_Node000001_Node000002"><a xlink:title=" ">
<path fill="none" stroke="#63b8ff" d="M1368.31,-435.79C1345.54,-425.83 1319.04,-414.23 1295.93,-404.13"/>
<polygon fill="#63b8ff" stroke="#63b8ff" points="1366.92,-439.01 1377.49,-439.81 1369.73,-432.59 1366.92,-439.01"/>
</a>
</g>
</g>
<!-- Node20 -->
<g id="Node000020" class="node">
<title>Node20</title>
<g id="a_Node000020"><a xlink:href="test_state_machine_8cc.html" target="_top" xlink:title=" ">
<polygon fill="white" stroke="#666666" points="1493,-404 1352,-404 1352,-352 1493,-352 1493,-404"/>
<text text-anchor="start" x="1360" y="-392" font-family="Helvetica,sans-Serif" font-size="10.00">/scratch/dragon/sources</text>
<text text-anchor="start" x="1360" y="-381" font-family="Helvetica,sans-Serif" font-size="10.00">/mtca4u&#45;MotorDriverCard</text>
<text text-anchor="start" x="1360" y="-370" font-family="Helvetica,sans-Serif" font-size="10.00">/tests/src/steppermotor</text>
<text text-anchor="middle" x="1422.5" y="-359" font-family="Helvetica,sans-Serif" font-size="10.00">/testStateMachine.cc</text>
</a>
</g>
</g>
<!-- Node1&#45;&gt;Node20 -->
<g id="edge27_Node000001_Node000020" class="edge">
<title>Node1&#45;&gt;Node20</title>
<g id="a_edge27_Node000001_Node000020"><a xlink:title=" ">
<path fill="none" stroke="#63b8ff" d="M1422.5,-429.49C1422.5,-421.15 1422.5,-412.19 1422.5,-404.16"/>
<polygon fill="#63b8ff" stroke="#63b8ff" points="1419,-429.6 1422.5,-439.6 1426,-429.6 1419,-429.6"/>
</a>
</g>
</g>
<!-- Node21 -->
<g id="Node000021" class="node">
<title>Node21</title>
<g id="a_Node000021"><a xlink:href="_state_machine_8cc.html" target="_top" xlink:title=" ">
<polygon fill="white" stroke="#666666" points="1652,-398.5 1511,-398.5 1511,-357.5 1652,-357.5 1652,-398.5"/>
<text text-anchor="start" x="1519" y="-386.5" font-family="Helvetica,sans-Serif" font-size="10.00">/scratch/dragon/sources</text>
<text text-anchor="start" x="1519" y="-375.5" font-family="Helvetica,sans-Serif" font-size="10.00">/mtca4u&#45;MotorDriverCard</text>
<text text-anchor="middle" x="1581.5" y="-364.5" font-family="Helvetica,sans-Serif" font-size="10.00">/util/src/StateMachine.cc</text>
</a>
</g>
</g>
<!-- Node1&#45;&gt;Node21 -->
<g id="edge28_Node000001_Node000021" class="edge">
<title>Node1&#45;&gt;Node21</title>
<g id="a_edge28_Node000001_Node000021"><a xlink:title=" ">
<path fill="none" stroke="#63b8ff" d="M1470.36,-435.27C1493.5,-423.55 1520.92,-409.67 1542.73,-398.63"/>
<polygon fill="#63b8ff" stroke="#63b8ff" points="1468.74,-432.17 1461.4,-439.81 1471.9,-438.41 1468.74,-432.17"/>
</a>
</g>
</g>
<!-- Node3 -->
<g id="Node000003" class="node">
<title>Node3</title>
<g id="a_Node000003"><a xlink:href="_reference_stepper_motor_8h.html" target="_top" xlink:title=" ">
<polygon fill="white" stroke="#666666" points="947.5,-316 771.5,-316 771.5,-264 947.5,-264 947.5,-316"/>
<text text-anchor="start" x="779.5" y="-304" font-family="Helvetica,sans-Serif" font-size="10.00">/scratch/dragon/sources</text>
<text text-anchor="start" x="779.5" y="-293" font-family="Helvetica,sans-Serif" font-size="10.00">/mtca4u&#45;MotorDriverCard</text>
<text text-anchor="start" x="779.5" y="-282" font-family="Helvetica,sans-Serif" font-size="10.00">/steppermotor/include/Reference</text>
<text text-anchor="middle" x="859.5" y="-271" font-family="Helvetica,sans-Serif" font-size="10.00">StepperMotor.h</text>
</a>
</g>
</g>
<!-- Node2&#45;&gt;Node3 -->
<g id="edge2_Node000002_Node000003" class="edge">
<title>Node2&#45;&gt;Node3</title>
<g id="a_edge2_Node000002_Node000003"><a xlink:title=" ">
<path fill="none" stroke="#63b8ff" d="M1132.88,-353.03C1074.55,-339.8 1002.93,-323.55 947.63,-311"/>
<polygon fill="#63b8ff" stroke="#63b8ff" points="1132.34,-356.5 1142.86,-355.3 1133.88,-349.67 1132.34,-356.5"/>
</a>
</g>
</g>
<!-- Node7 -->
<g id="Node000007" class="node">
<title>Node7</title>
<g id="a_Node000007"><a xlink:href="_stepper_motor_factory_8cc.html" target="_top" xlink:title=" ">
<polygon fill="white" stroke="#666666" points="1341,-134.5 1122,-134.5 1122,-93.5 1341,-93.5 1341,-134.5"/>
<text text-anchor="start" x="1130" y="-122.5" font-family="Helvetica,sans-Serif" font-size="10.00">/scratch/dragon/sources</text>
<text text-anchor="start" x="1130" y="-111.5" font-family="Helvetica,sans-Serif" font-size="10.00">/mtca4u&#45;MotorDriverCard</text>
<text text-anchor="middle" x="1231.5" y="-100.5" font-family="Helvetica,sans-Serif" font-size="10.00">/steppermotor/src/StepperMotorFactory.cc</text>
</a>
</g>
</g>
<!-- Node2&#45;&gt;Node7 -->
<g id="edge24_Node000002_Node000007" class="edge">
<title>Node2&#45;&gt;Node7</title>
<g id="a_edge24_Node000002_Node000007"><a xlink:title=" ">
<path fill="none" stroke="#63b8ff" d="M1155.34,-346.7C1143.04,-338.61 1132,-328.52 1124.5,-316 1085.7,-251.23 1164.36,-171.22 1206.8,-134.77"/>
<polygon fill="#63b8ff" stroke="#63b8ff" points="1153.66,-349.78 1164.03,-351.99 1157.3,-343.8 1153.66,-349.78"/>
</a>
</g>
</g>
<!-- Node17 -->
<g id="Node000017" class="node">
<title>Node17</title>
<g id="a_Node000017"><a xlink:href="_basic_stepper_motor_8cc.html" target="_top" xlink:title=" ">
<polygon fill="white" stroke="#666666" points="1344,-310.5 1133,-310.5 1133,-269.5 1344,-269.5 1344,-310.5"/>
<text text-anchor="start" x="1141" y="-298.5" font-family="Helvetica,sans-Serif" font-size="10.00">/scratch/dragon/sources</text>
<text text-anchor="start" x="1141" y="-287.5" font-family="Helvetica,sans-Serif" font-size="10.00">/mtca4u&#45;MotorDriverCard</text>
<text text-anchor="middle" x="1238.5" y="-276.5" font-family="Helvetica,sans-Serif" font-size="10.00">/steppermotor/src/BasicStepperMotor.cc</text>
</a>
</g>
</g>
<!-- Node2&#45;&gt;Node17 -->
<g id="edge23_Node000002_Node000017" class="edge">
<title>Node2&#45;&gt;Node17</title>
<g id="a_edge23_Node000002_Node000017"><a xlink:title=" ">
<path fill="none" stroke="#63b8ff" d="M1238.5,-341.45C1238.5,-330.94 1238.5,-319.82 1238.5,-310.7"/>
<polygon fill="#63b8ff" stroke="#63b8ff" points="1235,-341.66 1238.5,-351.66 1242,-341.66 1235,-341.66"/>
</a>
</g>
</g>
<!-- Node18 -->
<g id="Node000018" class="node">
<title>Node18</title>
<g id="a_Node000018"><a xlink:href="_stepper_motor_state_machine_8cc.html" target="_top" xlink:title=" ">
<polygon fill="white" stroke="#666666" points="1559,-316 1362,-316 1362,-264 1559,-264 1559,-316"/>
<text text-anchor="start" x="1370" y="-304" font-family="Helvetica,sans-Serif" font-size="10.00">/scratch/dragon/sources</text>
<text text-anchor="start" x="1370" y="-293" font-family="Helvetica,sans-Serif" font-size="10.00">/mtca4u&#45;MotorDriverCard</text>
<text text-anchor="start" x="1370" y="-282" font-family="Helvetica,sans-Serif" font-size="10.00">/steppermotor/src/StepperMotorState</text>
<text text-anchor="middle" x="1460.5" y="-271" font-family="Helvetica,sans-Serif" font-size="10.00">Machine.cc</text>
</a>
</g>
</g>
<!-- Node2&#45;&gt;Node18 -->
<g id="edge25_Node000002_Node000018" class="edge">
<title>Node2&#45;&gt;Node18</title>
<g id="a_edge25_Node000002_Node000018"><a xlink:title=" ">
<path fill="none" stroke="#63b8ff" d="M1312.66,-348.27C1339.51,-337.87 1369.61,-326.21 1395.61,-316.14"/>
<polygon fill="#63b8ff" stroke="#63b8ff" points="1311.37,-345.02 1303.31,-351.89 1313.9,-351.55 1311.37,-345.02"/>
</a>
</g>
</g>
<!-- Node19 -->
<g id="Node000019" class="node">
<title>Node19</title>
<g id="a_Node000019"><a xlink:href="test_stepper_motor_8cc.html" target="_top" xlink:title=" ">
<polygon fill="white" stroke="#666666" points="1718,-316 1577,-316 1577,-264 1718,-264 1718,-316"/>
<text text-anchor="start" x="1585" y="-304" font-family="Helvetica,sans-Serif" font-size="10.00">/scratch/dragon/sources</text>
<text text-anchor="start" x="1585" y="-293" font-family="Helvetica,sans-Serif" font-size="10.00">/mtca4u&#45;MotorDriverCard</text>
<text text-anchor="start" x="1585" y="-282" font-family="Helvetica,sans-Serif" font-size="10.00">/tests/src/steppermotor</text>
<text text-anchor="middle" x="1647.5" y="-271" font-family="Helvetica,sans-Serif" font-size="10.00">/testStepperMotor.cc</text>
</a>
</g>
</g>
<!-- Node2&#45;&gt;Node19 -->
<g id="edge26_Node000002_Node000019" class="edge">
<title>Node2&#45;&gt;Node19</title>
<g id="a_edge26_Node000002_Node000019"><a xlink:title=" ">
<path fill="none" stroke="#63b8ff" d="M1343.97,-351.99C1444.59,-332.67 1473.03,-338.61 1568.5,-316 1571.16,-315.37 1573.86,-314.7 1576.58,-313.99"/>
<polygon fill="#63b8ff" stroke="#63b8ff" points="1343.14,-348.58 1334,-353.94 1344.49,-355.45 1343.14,-348.58"/>
</a>
</g>
</g>
<!-- Node4 -->
<g id="Node000004" class="node">
<title>Node4</title>
<g id="a_Node000004"><a xlink:href="_linear_stepper_motor_8h.html" target="_top" xlink:title=" ">
<polygon fill="white" stroke="#666666" points="956.5,-228 762.5,-228 762.5,-176 956.5,-176 956.5,-228"/>
<text text-anchor="start" x="770.5" y="-216" font-family="Helvetica,sans-Serif" font-size="10.00">/scratch/dragon/sources</text>
<text text-anchor="start" x="770.5" y="-205" font-family="Helvetica,sans-Serif" font-size="10.00">/mtca4u&#45;MotorDriverCard</text>
<text text-anchor="start" x="770.5" y="-194" font-family="Helvetica,sans-Serif" font-size="10.00">/steppermotor/include/LinearStepper</text>
<text text-anchor="middle" x="859.5" y="-183" font-family="Helvetica,sans-Serif" font-size="10.00">Motor.h</text>
</a>
</g>
</g>
<!-- Node3&#45;&gt;Node4 -->
<g id="edge3_Node000003_Node000004" class="edge">
<title>Node3&#45;&gt;Node4</title>
<g id="a_edge3_Node000003_Node000004"><a xlink:title=" ">
<path fill="none" stroke="#63b8ff" d="M859.5,-253.56C859.5,-245.04 859.5,-236.1 859.5,-228.16"/>
<polygon fill="#63b8ff" stroke="#63b8ff" points="856,-253.66 859.5,-263.66 863,-253.66 856,-253.66"/>
</a>
</g>
</g>
<!-- Node9 -->
<g id="Node000009" class="node">
<title>Node9</title>
<g id="a_Node000009"><a xlink:href="_reference_state_machine_8h.html" target="_top" xlink:title=" ">
<polygon fill="white" stroke="#666666" points="679.5,-228 503.5,-228 503.5,-176 679.5,-176 679.5,-228"/>
<text text-anchor="start" x="511.5" y="-216" font-family="Helvetica,sans-Serif" font-size="10.00">/scratch/dragon/sources</text>
<text text-anchor="start" x="511.5" y="-205" font-family="Helvetica,sans-Serif" font-size="10.00">/mtca4u&#45;MotorDriverCard</text>
<text text-anchor="start" x="511.5" y="-194" font-family="Helvetica,sans-Serif" font-size="10.00">/steppermotor/include/Reference</text>
<text text-anchor="middle" x="591.5" y="-183" font-family="Helvetica,sans-Serif" font-size="10.00">StateMachine.h</text>
</a>
</g>
</g>
<!-- Node3&#45;&gt;Node9 -->
<g id="edge8_Node000003_Node000009" class="edge">
<title>Node3&#45;&gt;Node9</title>
<g id="a_edge8_Node000003_Node000009"><a xlink:title=" ">
<path fill="none" stroke="#63b8ff" d="M771.67,-260.82C738.82,-250.28 701.77,-238.38 669.83,-228.14"/>
<polygon fill="#63b8ff" stroke="#63b8ff" points="770.67,-264.17 781.26,-263.89 772.81,-257.51 770.67,-264.17"/>
</a>
</g>
</g>
<!-- Node15 -->
<g id="Node000015" class="node">
<title>Node15</title>
<g id="a_Node000015"><a xlink:href="_reference_stepper_motor_8cc.html" target="_top" xlink:title=" ">
<polygon fill="white" stroke="#666666" points="193,-140 0,-140 0,-88 193,-88 193,-140"/>
<text text-anchor="start" x="8" y="-128" font-family="Helvetica,sans-Serif" font-size="10.00">/scratch/dragon/sources</text>
<text text-anchor="start" x="8" y="-117" font-family="Helvetica,sans-Serif" font-size="10.00">/mtca4u&#45;MotorDriverCard</text>
<text text-anchor="start" x="8" y="-106" font-family="Helvetica,sans-Serif" font-size="10.00">/steppermotor/src/ReferenceStepper</text>
<text text-anchor="middle" x="96.5" y="-95" font-family="Helvetica,sans-Serif" font-size="10.00">Motor.cc</text>
</a>
</g>
</g>
<!-- Node3&#45;&gt;Node15 -->
<g id="edge22_Node000003_Node000015" class="edge">
<title>Node3&#45;&gt;Node15</title>
<g id="a_edge22_Node000003_Node000015"><a xlink:title=" ">
<path fill="none" stroke="#63b8ff" d="M760.99,-275.57C687.21,-264.77 584,-248.12 494.5,-228 382.2,-202.76 254.54,-164.84 174.75,-140"/>
<polygon fill="#63b8ff" stroke="#63b8ff" points="760.8,-279.07 771.2,-277.05 761.81,-272.15 760.8,-279.07"/>
</a>
</g>
</g>
<!-- Node16 -->
<g id="Node000016" class="node">
<title>Node16</title>
<g id="a_Node000016"><a xlink:href="_rotary_stepper_motor_8h.html" target="_top" xlink:title=" ">
<polygon fill="white" stroke="#666666" points="1399,-228 1202,-228 1202,-176 1399,-176 1399,-228"/>
<text text-anchor="start" x="1210" y="-216" font-family="Helvetica,sans-Serif" font-size="10.00">/scratch/dragon/sources</text>
<text text-anchor="start" x="1210" y="-205" font-family="Helvetica,sans-Serif" font-size="10.00">/mtca4u&#45;MotorDriverCard</text>
<text text-anchor="start" x="1210" y="-194" font-family="Helvetica,sans-Serif" font-size="10.00">/steppermotor/include/RotaryStepper</text>
<text text-anchor="middle" x="1300.5" y="-183" font-family="Helvetica,sans-Serif" font-size="10.00">Motor.h</text>
</a>
</g>
</g>
<!-- Node3&#45;&gt;Node16 -->
<g id="edge18_Node000003_Node000016" class="edge">
<title>Node3&#45;&gt;Node16</title>
<g id="a_edge18_Node000003_Node000016"><a xlink:title=" ">
<path fill="none" stroke="#63b8ff" d="M957.76,-269.84C1030.41,-255.67 1128.94,-236.46 1201.71,-222.26"/>
<polygon fill="#63b8ff" stroke="#63b8ff" points="956.83,-266.45 947.68,-271.8 958.17,-273.32 956.83,-266.45"/>
</a>
</g>
</g>
<!-- Node5 -->
<g id="Node000005" class="node">
<title>Node5</title>
<g id="a_Node000005"><a xlink:href="_linear_stepper_motor_8cc.html" target="_top" xlink:title=" ">
<polygon fill="white" stroke="#666666" points="670,-52 497,-52 497,0 670,0 670,-52"/>
<text text-anchor="start" x="505" y="-40" font-family="Helvetica,sans-Serif" font-size="10.00">/scratch/dragon/sources</text>
<text text-anchor="start" x="505" y="-29" font-family="Helvetica,sans-Serif" font-size="10.00">/mtca4u&#45;MotorDriverCard</text>
<text text-anchor="start" x="505" y="-18" font-family="Helvetica,sans-Serif" font-size="10.00">/steppermotor/src/LinearStepper</text>
<text text-anchor="middle" x="583.5" y="-7" font-family="Helvetica,sans-Serif" font-size="10.00">Motor.cc</text>
</a>
</g>
</g>
<!-- Node4&#45;&gt;Node5 -->
<g id="edge4_Node000004_Node000005" class="edge">
<title>Node4&#45;&gt;Node5</title>
<g id="a_edge4_Node000004_Node000005"><a xlink:title=" ">
<path fill="none" stroke="#63b8ff" d="M856.39,-165.5C852.34,-140.47 842.99,-107.97 821.5,-88 799.35,-67.42 728.76,-50.93 670.16,-40.31"/>
<polygon fill="#63b8ff" stroke="#63b8ff" points="852.97,-166.3 857.83,-175.71 859.9,-165.32 852.97,-166.3"/>
</a>
</g>
</g>
<!-- Node6 -->
<g id="Node000006" class="node">
<title>Node6</title>
<g id="a_Node000006"><a xlink:href="_linear_stepper_motor_state_machine_8cc.html" target="_top" xlink:title=" ">
<polygon fill="white" stroke="#666666" points="918,-52 745,-52 745,0 918,0 918,-52"/>
<text text-anchor="start" x="753" y="-40" font-family="Helvetica,sans-Serif" font-size="10.00">/scratch/dragon/sources</text>
<text text-anchor="start" x="753" y="-29" font-family="Helvetica,sans-Serif" font-size="10.00">/mtca4u&#45;MotorDriverCard</text>
<text text-anchor="start" x="753" y="-18" font-family="Helvetica,sans-Serif" font-size="10.00">/steppermotor/src/LinearStepper</text>
<text text-anchor="middle" x="831.5" y="-7" font-family="Helvetica,sans-Serif" font-size="10.00">MotorStateMachine.cc</text>
</a>
</g>
</g>
<!-- Node4&#45;&gt;Node6 -->
<g id="edge5_Node000004_Node000006" class="edge">
<title>Node4&#45;&gt;Node6</title>
<g id="a_edge5_Node000004_Node000006"><a xlink:title=" ">
<path fill="none" stroke="#63b8ff" d="M860.78,-165.5C860.89,-143.06 859.75,-113.57 854.5,-88 852.02,-75.92 847.48,-63.06 843.09,-52.29"/>
<polygon fill="#63b8ff" stroke="#63b8ff" points="857.28,-165.54 860.65,-175.59 864.28,-165.63 857.28,-165.54"/>
</a>
</g>
</g>
<!-- Node4&#45;&gt;Node7 -->
<g id="edge6_Node000004_Node000007" class="edge">
<title>Node4&#45;&gt;Node7</title>
<g id="a_edge6_Node000004_Node000007"><a xlink:title=" ">
<path fill="none" stroke="#63b8ff" d="M966.58,-176.24C1023.96,-162.98 1093.64,-146.87 1147.14,-134.5"/>
<polygon fill="#63b8ff" stroke="#63b8ff" points="965.71,-172.85 956.75,-178.52 967.28,-179.67 965.71,-172.85"/>
</a>
</g>
</g>
<!-- Node8 -->
<g id="Node000008" class="node">
<title>Node8</title>
<g id="a_Node000008"><a xlink:href="test_stepper_motor_with_reference_8cc.html" target="_top" xlink:title=" ">
<polygon fill="white" stroke="#666666" points="812.5,-140 622.5,-140 622.5,-88 812.5,-88 812.5,-140"/>
<text text-anchor="start" x="630.5" y="-128" font-family="Helvetica,sans-Serif" font-size="10.00">/scratch/dragon/sources</text>
<text text-anchor="start" x="630.5" y="-117" font-family="Helvetica,sans-Serif" font-size="10.00">/mtca4u&#45;MotorDriverCard</text>
<text text-anchor="start" x="630.5" y="-106" font-family="Helvetica,sans-Serif" font-size="10.00">/tests/src/steppermotor</text>
<text text-anchor="middle" x="717.5" y="-95" font-family="Helvetica,sans-Serif" font-size="10.00">/testStepperMotorWithReference.cc</text>
</a>
</g>
</g>
<!-- Node4&#45;&gt;Node8 -->
<g id="edge7_Node000004_Node000008" class="edge">
<title>Node4&#45;&gt;Node8</title>
<g id="a_edge7_Node000004_Node000008"><a xlink:title=" ">
<path fill="none" stroke="#63b8ff" d="M809.16,-170.51C792.82,-160.62 774.89,-149.76 759.25,-140.29"/>
<polygon fill="#63b8ff" stroke="#63b8ff" points="807.68,-173.71 818.05,-175.89 811.31,-167.72 807.68,-173.71"/>
</a>
</g>
</g>
<!-- Node9&#45;&gt;Node8 -->
<g id="edge17_Node000009_Node000008" class="edge">
<title>Node9&#45;&gt;Node8</title>
<g id="a_edge17_Node000009_Node000008"><a xlink:title=" ">
<path fill="none" stroke="#63b8ff" d="M636.57,-170.24C650.96,-160.42 666.7,-149.67 680.45,-140.29"/>
<polygon fill="#63b8ff" stroke="#63b8ff" points="634.57,-167.37 628.28,-175.89 638.52,-173.15 634.57,-167.37"/>
</a>
</g>
</g>
<!-- Node10 -->
<g id="Node000010" class="node">
<title>Node10</title>
<g id="a_Node000010"><a xlink:href="_linear_stepper_motor_state_machine_8h.html" target="_top" xlink:title=" ">
<polygon fill="white" stroke="#666666" points="604.5,-140 410.5,-140 410.5,-88 604.5,-88 604.5,-140"/>
<text text-anchor="start" x="418.5" y="-128" font-family="Helvetica,sans-Serif" font-size="10.00">/scratch/dragon/sources</text>
<text text-anchor="start" x="418.5" y="-117" font-family="Helvetica,sans-Serif" font-size="10.00">/mtca4u&#45;MotorDriverCard</text>
<text text-anchor="start" x="418.5" y="-106" font-family="Helvetica,sans-Serif" font-size="10.00">/steppermotor/include/LinearStepper</text>
<text text-anchor="middle" x="507.5" y="-95" font-family="Helvetica,sans-Serif" font-size="10.00">MotorStateMachine.h</text>
</a>
</g>
</g>
<!-- Node9&#45;&gt;Node10 -->
<g id="edge9_Node000009_Node000010" class="edge">
<title>Node9&#45;&gt;Node10</title>
<g id="a_edge9_Node000009_Node000010"><a xlink:title=" ">
<path fill="none" stroke="#63b8ff" d="M559.61,-168.35C550.49,-159.01 540.69,-148.98 532.07,-140.16"/>
<polygon fill="#63b8ff" stroke="#63b8ff" points="557.26,-170.95 566.75,-175.66 562.27,-166.06 557.26,-170.95"/>
</a>
</g>
</g>
<!-- Node11 -->
<g id="Node000011" class="node">
<title>Node11</title>
<g id="a_Node000011"><a xlink:href="_rotary_stepper_motor_state_machine_8h.html" target="_top" xlink:title=" ">
<polygon fill="white" stroke="#666666" points="1104,-140 907,-140 907,-88 1104,-88 1104,-140"/>
<text text-anchor="start" x="915" y="-128" font-family="Helvetica,sans-Serif" font-size="10.00">/scratch/dragon/sources</text>
<text text-anchor="start" x="915" y="-117" font-family="Helvetica,sans-Serif" font-size="10.00">/mtca4u&#45;MotorDriverCard</text>
<text text-anchor="start" x="915" y="-106" font-family="Helvetica,sans-Serif" font-size="10.00">/steppermotor/include/RotaryStepper</text>
<text text-anchor="middle" x="1005.5" y="-95" font-family="Helvetica,sans-Serif" font-size="10.00">MotorStateMachine.h</text>
</a>
</g>
</g>
<!-- Node9&#45;&gt;Node11 -->
<g id="edge12_Node000009_Node000011" class="edge">
<title>Node9&#45;&gt;Node11</title>
<g id="a_edge12_Node000009_Node000011"><a xlink:title=" ">
<path fill="none" stroke="#63b8ff" d="M689.48,-180.65C755.03,-167.03 840.98,-149.18 906.69,-135.52"/>
<polygon fill="#63b8ff" stroke="#63b8ff" points="688.63,-177.25 679.55,-182.71 690.05,-184.1 688.63,-177.25"/>
</a>
</g>
</g>
<!-- Node14 -->
<g id="Node000014" class="node">
<title>Node14</title>
<g id="a_Node000014"><a xlink:href="_reference_state_machine_8cc.html" target="_top" xlink:title=" ">
<polygon fill="white" stroke="#666666" points="392,-140 211,-140 211,-88 392,-88 392,-140"/>
<text text-anchor="start" x="219" y="-128" font-family="Helvetica,sans-Serif" font-size="10.00">/scratch/dragon/sources</text>
<text text-anchor="start" x="219" y="-117" font-family="Helvetica,sans-Serif" font-size="10.00">/mtca4u&#45;MotorDriverCard</text>
<text text-anchor="start" x="219" y="-106" font-family="Helvetica,sans-Serif" font-size="10.00">/steppermotor/src/ReferenceState</text>
<text text-anchor="middle" x="301.5" y="-95" font-family="Helvetica,sans-Serif" font-size="10.00">Machine.cc</text>
</a>
</g>
</g>
<!-- Node9&#45;&gt;Node14 -->
<g id="edge15_Node000009_Node000014" class="edge">
<title>Node9&#45;&gt;Node14</title>
<g id="a_edge15_Node000009_Node000014"><a xlink:title=" ">
<path fill="none" stroke="#63b8ff" d="M496.89,-172.94C461.16,-162.35 420.76,-150.37 386.01,-140.06"/>
<polygon fill="#63b8ff" stroke="#63b8ff" points="496.26,-176.41 506.84,-175.89 498.25,-169.7 496.26,-176.41"/>
</a>
</g>
</g>
<!-- Node9&#45;&gt;Node15 -->
<g id="edge16_Node000009_Node000015" class="edge">
<title>Node9&#45;&gt;Node15</title>
<g id="a_edge16_Node000009_Node000015"><a xlink:title=" ">
<path fill="none" stroke="#63b8ff" d="M493.3,-187.82C414.21,-176.68 300.32,-159.46 201.5,-140 198.74,-139.46 195.95,-138.89 193.13,-138.31"/>
<polygon fill="#63b8ff" stroke="#63b8ff" points="492.86,-191.29 503.25,-189.22 493.84,-184.36 492.86,-191.29"/>
</a>
</g>
</g>
<!-- Node10&#45;&gt;Node5 -->
<g id="edge10_Node000010_Node000005" class="edge">
<title>Node10&#45;&gt;Node5</title>
<g id="a_edge10_Node000010_Node000005"><a xlink:title=" ">
<path fill="none" stroke="#63b8ff" d="M536.59,-80.08C544.78,-70.81 553.55,-60.89 561.27,-52.16"/>
<polygon fill="#63b8ff" stroke="#63b8ff" points="533.89,-77.85 529.89,-87.66 539.14,-82.49 533.89,-77.85"/>
</a>
</g>
</g>
<!-- Node10&#45;&gt;Node6 -->
<g id="edge11_Node000010_Node000006" class="edge">
<title>Node10&#45;&gt;Node6</title>
<g id="a_edge11_Node000010_Node000006"><a xlink:title=" ">
<path fill="none" stroke="#63b8ff" d="M611.99,-85.26C654.89,-73.88 703.97,-60.85 744.83,-50.01"/>
<polygon fill="#63b8ff" stroke="#63b8ff" points="610.85,-81.95 602.09,-87.89 612.65,-88.71 610.85,-81.95"/>
</a>
</g>
</g>
<!-- Node12 -->
<g id="Node000012" class="node">
<title>Node12</title>
<g id="a_Node000012"><a xlink:href="_rotary_stepper_motor_8cc.html" target="_top" xlink:title=" ">
<polygon fill="white" stroke="#666666" points="1140.5,-52 964.5,-52 964.5,0 1140.5,0 1140.5,-52"/>
<text text-anchor="start" x="972.5" y="-40" font-family="Helvetica,sans-Serif" font-size="10.00">/scratch/dragon/sources</text>
<text text-anchor="start" x="972.5" y="-29" font-family="Helvetica,sans-Serif" font-size="10.00">/mtca4u&#45;MotorDriverCard</text>
<text text-anchor="start" x="972.5" y="-18" font-family="Helvetica,sans-Serif" font-size="10.00">/steppermotor/src/RotaryStepper</text>
<text text-anchor="middle" x="1052.5" y="-7" font-family="Helvetica,sans-Serif" font-size="10.00">Motor.cc</text>
</a>
</g>
</g>
<!-- Node11&#45;&gt;Node12 -->
<g id="edge13_Node000011_Node000012" class="edge">
<title>Node11&#45;&gt;Node12</title>
<g id="a_edge13_Node000011_Node000012"><a xlink:title=" ">
<path fill="none" stroke="#63b8ff" d="M1024.25,-78.68C1029.1,-69.82 1034.22,-60.45 1038.75,-52.16"/>
<polygon fill="#63b8ff" stroke="#63b8ff" points="1021.07,-77.21 1019.35,-87.66 1027.21,-80.57 1021.07,-77.21"/>
</a>
</g>
</g>
<!-- Node13 -->
<g id="Node000013" class="node">
<title>Node13</title>
<g id="a_Node000013"><a xlink:href="_rotary_stepper_motor_state_machine_8cc.html" target="_top" xlink:title=" ">
<polygon fill="white" stroke="#666666" points="1438.5,-52 1262.5,-52 1262.5,0 1438.5,0 1438.5,-52"/>
<text text-anchor="start" x="1270.5" y="-40" font-family="Helvetica,sans-Serif" font-size="10.00">/scratch/dragon/sources</text>
<text text-anchor="start" x="1270.5" y="-29" font-family="Helvetica,sans-Serif" font-size="10.00">/mtca4u&#45;MotorDriverCard</text>
<text text-anchor="start" x="1270.5" y="-18" font-family="Helvetica,sans-Serif" font-size="10.00">/steppermotor/src/RotaryStepper</text>
<text text-anchor="middle" x="1350.5" y="-7" font-family="Helvetica,sans-Serif" font-size="10.00">MotorStateMachine.cc</text>
</a>
</g>
</g>
<!-- Node11&#45;&gt;Node13 -->
<g id="edge14_Node000011_Node000013" class="edge">
<title>Node11&#45;&gt;Node13</title>
<g id="a_edge14_Node000011_Node000013"><a xlink:title=" ">
<path fill="none" stroke="#63b8ff" d="M1114.13,-85.92C1161.93,-74.01 1217.34,-60.19 1262.5,-48.94"/>
<polygon fill="#63b8ff" stroke="#63b8ff" points="1113.22,-82.54 1104.36,-88.36 1114.91,-89.33 1113.22,-82.54"/>
</a>
</g>
</g>
<!-- Node16&#45;&gt;Node7 -->
<g id="edge21_Node000016_Node000007" class="edge">
<title>Node16&#45;&gt;Node7</title>
<g id="a_edge21_Node000016_Node000007"><a xlink:title=" ">
<path fill="none" stroke="#63b8ff" d="M1273.82,-167.74C1264.86,-156.58 1255.16,-144.49 1247.31,-134.7"/>
<polygon fill="#63b8ff" stroke="#63b8ff" points="1271.18,-170.05 1280.17,-175.66 1276.64,-165.67 1271.18,-170.05"/>
</a>
</g>
</g>
<!-- Node16&#45;&gt;Node12 -->
<g id="edge19_Node000016_Node000012" class="edge">
<title>Node16&#45;&gt;Node12</title>
<g id="a_edge19_Node000016_Node000012"><a xlink:title=" ">
<path fill="none" stroke="#63b8ff" d="M1332.89,-167.75C1352.28,-143.77 1369.75,-111.59 1350.5,-88 1337.12,-71.61 1223.72,-51.84 1140.77,-39.34"/>
<polygon fill="#63b8ff" stroke="#63b8ff" points="1330.08,-165.65 1326.29,-175.54 1335.43,-170.17 1330.08,-165.65"/>
</a>
</g>
</g>
<!-- Node16&#45;&gt;Node13 -->
<g id="edge20_Node000016_Node000013" class="edge">
<title>Node16&#45;&gt;Node13</title>
<g id="a_edge20_Node000016_Node000013"><a xlink:title=" ">
<path fill="none" stroke="#63b8ff" d="M1358.57,-169.5C1368.63,-161.29 1377.7,-151.46 1383.5,-140 1397.9,-111.55 1382.49,-75.81 1368.26,-52.23"/>
<polygon fill="#63b8ff" stroke="#63b8ff" points="1356.19,-166.91 1350.34,-175.74 1360.42,-172.49 1356.19,-166.91"/>
</a>
</g>
</g>
</g>
</svg>

<g id="navigator" transform="translate(0 0)" fill="#404254">
  <rect fill="#f2f5e9" fill-opacity="0.5" stroke="#606060" stroke-width=".5" x="0" y="0" width="60" height="60"/>
  <use id="zoomplus" xlink:href="#zoomPlus" x="17" y="9" onmousedown="handleZoom(evt,'in')"/>
  <use id="zoomminus" xlink:href="#zoomMin" x="42" y="9" onmousedown="handleZoom(evt,'out')"/>
  <use id="reset" xlink:href="#resetDef" x="30" y="36" onmousedown="handleReset()"/>
   <use id="arrowup" xlink:href="#arrowUp" x="0" y="0" onmousedown="handlePan(0,-1)"/>
  <use id="arrowright" xlink:href="#arrowRight" x="0" y="0" onmousedown="handlePan(1,0)"/>
  <use id="arrowdown" xlink:href="#arrowDown" x="0" y="0" onmousedown="handlePan(0,1)"/>
  <use id="arrowleft" xlink:href="#arrowLeft" x="0" y="0" onmousedown="handlePan(-1,0)"/>
</g>
<svg viewBox="0 0 15 15" width="100%" height="30px" preserveAspectRatio="xMaxYMin meet">
 <g id="arrow_out" transform="scale(0.3 0.3)">
  <a xlink:href="_state_machine_8h__dep__incl_org.svg" target="_base">
   <rect id="button" ry="5" rx="5" y="6" x="6" height="38" width="38"
        fill="#f2f5e9" fill-opacity="0.5" stroke="#606060" stroke-width="1.0"/>
   <path id="arrow"
     d="M 11.500037,31.436501 C 11.940474,20.09759 22.043105,11.32322 32.158766,21.979434 L 37.068811,17.246167 C 37.068811,17.246167 37.088388,32 37.088388,32 L 22.160133,31.978069 C 22.160133,31.978069 26.997745,27.140456 26.997745,27.140456 C 18.528582,18.264221 13.291696,25.230495 11.500037,31.436501 z"
     style="fill:#404040;"/>
  </a>
 </g>
</svg>

<style type='text/css'>
<![CDATA[
[data-mouse-over-selected='false'] { opacity: 0.7; }
[data-mouse-over-selected='true']  { opacity: 1.0; }
]]>
</style>
<script type="application/ecmascript"><![CDATA[
document.addEventListener('DOMContentLoaded', (event) => {
  highlightEdges();
  highlightAdjacentNodes();
});
]]></script>
</svg>
