<?xml version="1.0" encoding="UTF-8" standalone="no"?>
<!DOCTYPE svg PUBLIC "-//W3C//DTD SVG 1.1//EN"
 "http://www.w3.org/Graphics/SVG/1.1/DTD/svg11.dtd">
<!-- Generated by graphviz version 2.43.0 (0)
 -->
<!-- Title: /scratch/dragon/sources/mtca4u&#45;MotorDriverCard/mtca4u_steppermotor/include/StepperMotorCalibrationStatus.h Pages: 1 -->
<!--zoomable 236 -->

<svg id="main" version="1.1" xmlns="http://www.w3.org/2000/svg" xmlns:xlink="http://www.w3.org/1999/xlink" xml:space="preserve" onload="init(evt)">
<style type="text/css"><![CDATA[
.node, .edge {opacity: 0.7;}
.node.selected, .edge.selected {opacity: 1;}
.edge:hover path { stroke: red; }
.edge:hover polygon { stroke: red; fill: red; }
]]></style>

<defs>
  <circle id="rim" cx="0" cy="0" r="7"/>
  <circle id="rim2" cx="0" cy="0" r="3.5"/>
  <g id="zoomPlus">
    <use xlink:href="#rim" fill="#404040"><set attributeName="fill" to="#808080" begin="zoomplus.mouseover" end="zoomplus.mouseout"/></use>
    <path d="M-4,0h8M0,-4v8" fill="none" stroke="white" stroke-width="1.5" pointer-events="none"/>
  </g>
  <g id="zoomMin">
    <use xlink:href="#rim" fill="#404040"><set attributeName="fill" to="#808080" begin="zoomminus.mouseover" end="zoomminus.mouseout"/></use>
    <path d="M-4,0h8" fill="none" stroke="white" stroke-width="1.5" pointer-events="none"/>
  </g>
  <g id="arrowUp" transform="translate(30 24)">
    <use xlink:href="#rim"/>
    <path pointer-events="none" fill="none" stroke="white" stroke-width="1.5" d="M0,-3.0v7 M-2.5,-0.5L0,-3.0L2.5,-0.5"/>
  </g>
  <g id="arrowRight" transform="rotate(90) translate(36 -43)">
    <use xlink:href="#rim"/>
    <path pointer-events="none" fill="none" stroke="white" stroke-width="1.5" d="M0,-3.0v7 M-2.5,-0.5L0,-3.0L2.5,-0.5"/>
  </g>
  <g id="arrowDown" transform="rotate(180) translate(-30 -48)">
    <use xlink:href="#rim"/>
    <path pointer-events="none" fill="none" stroke="white" stroke-width="1.5" d="M0,-3.0v7 M-2.5,-0.5L0,-3.0L2.5,-0.5"/>
  </g>
  <g id="arrowLeft" transform="rotate(270) translate(-36 17)">
    <use xlink:href="#rim"/>
    <path pointer-events="none" fill="none" stroke="white" stroke-width="1.5" d="M0,-3.0v7 M-2.5,-0.5L0,-3.0L2.5,-0.5"/>
  </g>
  <g id="resetDef">
    <use xlink:href="#rim2" fill="#404040"><set attributeName="fill" to="#808080" begin="reset.mouseover" end="reset.mouseout"/></use>
  </g>
</defs>
<script type="application/ecmascript">
var viewWidth = 596;
var viewHeight = 236;
var sectionId = 'dynsection-1';
</script>
<script type="application/ecmascript" xlink:href="svg.min.js"/>
<svg id="graph" class="graph">
<g id="viewport">
<title>/scratch/dragon/sources/mtca4u&#45;MotorDriverCard/mtca4u_steppermotor/include/StepperMotorCalibrationStatus.h</title>
<!-- Node1 -->
<g id="Node000001" class="node">
<title>Node1</title>
<g id="a_Node000001"><a xlink:title=" ">
<polygon fill="#999999" stroke="#666666" points="365.5,-228 186.5,-228 186.5,-176 365.5,-176 365.5,-228"/>
<text text-anchor="start" x="194.5" y="-216" font-family="Helvetica,sans-Serif" font-size="10.00">/scratch/dragon/sources</text>
<text text-anchor="start" x="194.5" y="-205" font-family="Helvetica,sans-Serif" font-size="10.00">/mtca4u&#45;MotorDriverCard</text>
<text text-anchor="start" x="194.5" y="-194" font-family="Helvetica,sans-Serif" font-size="10.00">/mtca4u_steppermotor/include</text>
<text text-anchor="middle" x="276" y="-183" font-family="Helvetica,sans-Serif" font-size="10.00">/StepperMotorCalibrationStatus.h</text>
</a>
</g>
</g>
<!-- Node2 -->
<g id="Node000002" class="node">
<title>Node2</title>
<g id="a_Node000002"><a xlink:href="mtca4u__steppermotor_2include_2_stepper_motor_8h.html" target="_top" xlink:title=" ">
<polygon fill="white" stroke="#666666" points="166,-140 0,-140 0,-88 166,-88 166,-140"/>
<text text-anchor="start" x="8" y="-128" font-family="Helvetica,sans-Serif" font-size="10.00">/scratch/dragon/sources</text>
<text text-anchor="start" x="8" y="-117" font-family="Helvetica,sans-Serif" font-size="10.00">/mtca4u&#45;MotorDriverCard</text>
<text text-anchor="start" x="8" y="-106" font-family="Helvetica,sans-Serif" font-size="10.00">/mtca4u_steppermotor/include</text>
<text text-anchor="middle" x="83" y="-95" font-family="Helvetica,sans-Serif" font-size="10.00">/StepperMotor.h</text>
</a>
</g>
</g>
<!-- Node1&#45;&gt;Node2 -->
<g id="edge1_Node000001_Node000002" class="edge">
<title>Node1&#45;&gt;Node2</title>
<g id="a_edge1_Node000001_Node000002"><a xlink:title=" ">
<path fill="none" stroke="#63b8ff" d="M210.3,-171.73C187.27,-161.46 161.62,-150.03 139.41,-140.14"/>
<polygon fill="#63b8ff" stroke="#63b8ff" points="209.1,-175.02 219.66,-175.89 211.95,-168.63 209.1,-175.02"/>
</a>
</g>
</g>
<!-- Node4 -->
<g id="Node000004" class="node">
<title>Node4</title>
<g id="a_Node000004"><a xlink:href="_stepper_motor_calibration_status_8cc.html" target="_top" xlink:title=" ">
<polygon fill="white" stroke="#666666" points="367.5,-140 184.5,-140 184.5,-88 367.5,-88 367.5,-140"/>
<text text-anchor="start" x="192.5" y="-128" font-family="Helvetica,sans-Serif" font-size="10.00">/scratch/dragon/sources</text>
<text text-anchor="start" x="192.5" y="-117" font-family="Helvetica,sans-Serif" font-size="10.00">/mtca4u&#45;MotorDriverCard</text>
<text text-anchor="start" x="192.5" y="-106" font-family="Helvetica,sans-Serif" font-size="10.00">/mtca4u_steppermotor/src</text>
<text text-anchor="middle" x="276" y="-95" font-family="Helvetica,sans-Serif" font-size="10.00">/StepperMotorCalibrationStatus.cc</text>
</a>
</g>
</g>
<!-- Node1&#45;&gt;Node4 -->
<g id="edge3_Node000001_Node000004" class="edge">
<title>Node1&#45;&gt;Node4</title>
<g id="a_edge3_Node000001_Node000004"><a xlink:title=" ">
<path fill="none" stroke="#63b8ff" d="M276,-165.56C276,-157.04 276,-148.1 276,-140.16"/>
<polygon fill="#63b8ff" stroke="#63b8ff" points="272.5,-165.66 276,-175.66 279.5,-165.66 272.5,-165.66"/>
</a>
</g>
</g>
<!-- Node5 -->
<g id="Node000005" class="node">
<title>Node5</title>
<g id="a_Node000005"><a xlink:href="test_stepper_motor_calibration_status_8cc.html" target="_top" xlink:title=" ">
<polygon fill="white" stroke="#666666" points="588,-140 386,-140 386,-88 588,-88 588,-140"/>
<text text-anchor="start" x="394" y="-128" font-family="Helvetica,sans-Serif" font-size="10.00">/scratch/dragon/sources</text>
<text text-anchor="start" x="394" y="-117" font-family="Helvetica,sans-Serif" font-size="10.00">/mtca4u&#45;MotorDriverCard</text>
<text text-anchor="start" x="394" y="-106" font-family="Helvetica,sans-Serif" font-size="10.00">/tests/src/testStepperMotorCalibration</text>
<text text-anchor="middle" x="487" y="-95" font-family="Helvetica,sans-Serif" font-size="10.00">Status.cc</text>
</a>
</g>
</g>
<!-- Node1&#45;&gt;Node5 -->
<g id="edge4_Node000001_Node000005" class="edge">
<title>Node1&#45;&gt;Node5</title>
<g id="a_edge4_Node000001_Node000005"><a xlink:title=" ">
<path fill="none" stroke="#63b8ff" d="M347.15,-172C372.51,-161.66 400.83,-150.12 425.33,-140.14"/>
<polygon fill="#63b8ff" stroke="#63b8ff" points="345.54,-168.88 337.6,-175.89 348.18,-175.36 345.54,-168.88"/>
</a>
</g>
</g>
<!-- Node3 -->
<g id="Node000003" class="node">
<title>Node3</title>
<g id="a_Node000003"><a xlink:href="mtca4u__steppermotor_2include_2_linear_stepper_motor_8h.html" target="_top" xlink:title=" ">
<polygon fill="white" stroke="#666666" points="166,-52 0,-52 0,0 166,0 166,-52"/>
<text text-anchor="start" x="8" y="-40" font-family="Helvetica,sans-Serif" font-size="10.00">/scratch/dragon/sources</text>
<text text-anchor="start" x="8" y="-29" font-family="Helvetica,sans-Serif" font-size="10.00">/mtca4u&#45;MotorDriverCard</text>
<text text-anchor="start" x="8" y="-18" font-family="Helvetica,sans-Serif" font-size="10.00">/mtca4u_steppermotor/include</text>
<text text-anchor="middle" x="83" y="-7" font-family="Helvetica,sans-Serif" font-size="10.00">/LinearStepperMotor.h</text>
</a>
</g>
</g>
<!-- Node2&#45;&gt;Node3 -->
<g id="edge2_Node000002_Node000003" class="edge">
<title>Node2&#45;&gt;Node3</title>
<g id="a_edge2_Node000002_Node000003"><a xlink:title=" ">
<path fill="none" stroke="#63b8ff" d="M83,-77.56C83,-69.04 83,-60.1 83,-52.16"/>
<polygon fill="#63b8ff" stroke="#63b8ff" points="79.5,-77.66 83,-87.66 86.5,-77.66 79.5,-77.66"/>
</a>
</g>
</g>
</g>
</svg>

<g id="navigator" transform="translate(0 0)" fill="#404254">
  <rect fill="#f2f5e9" fill-opacity="0.5" stroke="#606060" stroke-width=".5" x="0" y="0" width="60" height="60"/>
  <use id="zoomplus" xlink:href="#zoomPlus" x="17" y="9" onmousedown="handleZoom(evt,'in')"/>
  <use id="zoomminus" xlink:href="#zoomMin" x="42" y="9" onmousedown="handleZoom(evt,'out')"/>
  <use id="reset" xlink:href="#resetDef" x="30" y="36" onmousedown="handleReset()"/>
   <use id="arrowup" xlink:href="#arrowUp" x="0" y="0" onmousedown="handlePan(0,-1)"/>
  <use id="arrowright" xlink:href="#arrowRight" x="0" y="0" onmousedown="handlePan(1,0)"/>
  <use id="arrowdown" xlink:href="#arrowDown" x="0" y="0" onmousedown="handlePan(0,1)"/>
  <use id="arrowleft" xlink:href="#arrowLeft" x="0" y="0" onmousedown="handlePan(-1,0)"/>
</g>
<svg viewBox="0 0 15 15" width="100%" height="30px" preserveAspectRatio="xMaxYMin meet">
 <g id="arrow_out" transform="scale(0.3 0.3)">
  <a xlink:href="_stepper_motor_calibration_status_8h__dep__incl_org.svg" target="_base">
   <rect id="button" ry="5" rx="5" y="6" x="6" height="38" width="38"
        fill="#f2f5e9" fill-opacity="0.5" stroke="#606060" stroke-width="1.0"/>
   <path id="arrow"
     d="M 11.500037,31.436501 C 11.940474,20.09759 22.043105,11.32322 32.158766,21.979434 L 37.068811,17.246167 C 37.068811,17.246167 37.088388,32 37.088388,32 L 22.160133,31.978069 C 22.160133,31.978069 26.997745,27.140456 26.997745,27.140456 C 18.528582,18.264221 13.291696,25.230495 11.500037,31.436501 z"
     style="fill:#404040;"/>
  </a>
 </g>
</svg>

<style type='text/css'>
<![CDATA[
[data-mouse-over-selected='false'] { opacity: 0.7; }
[data-mouse-over-selected='true']  { opacity: 1.0; }
]]>
</style>
<script type="application/ecmascript"><![CDATA[
document.addEventListener('DOMContentLoaded', (event) => {
  highlightEdges();
  highlightAdjacentNodes();
});
]]></script>
</svg>
