<?xml version="1.0" encoding="UTF-8" standalone="no"?>
<!DOCTYPE svg PUBLIC "-//W3C//DTD SVG 1.1//EN"
 "http://www.w3.org/Graphics/SVG/1.1/DTD/svg11.dtd">
<!-- Generated by graphviz version 2.43.0 (0)
 -->
<!-- Title: mtca4u::LinearStepperMotor::setCurrentPositionInStepsAs Pages: 1 -->
<svg width="551pt" height="125pt"
 viewBox="0.00 0.00 551.00 124.53" xmlns="http://www.w3.org/2000/svg" xmlns:xlink="http://www.w3.org/1999/xlink">
<g id="graph0" class="graph" transform="scale(1 1) rotate(0) translate(4 120.53)">
<title>mtca4u::LinearStepperMotor::setCurrentPositionInStepsAs</title>
<!-- Node1 -->
<g id="Node000001" class="node">
<title>Node1</title>
<g id="a_Node000001"><a xlink:title="Set position in steps passed as parameter as current position of the motor.">
<polygon fill="#999999" stroke="#666666" points="161,-75 0,-75 0,-45 161,-45 161,-75"/>
<text text-anchor="start" x="8" y="-63" font-family="Helvetica,sans-Serif" font-size="10.00">mtca4u::LinearStepperMotor</text>
<text text-anchor="middle" x="80.5" y="-52" font-family="Helvetica,sans-Serif" font-size="10.00">::setCurrentPositionInStepsAs</text>
</a>
</g>
</g>
<!-- Node2 -->
<g id="Node000002" class="node">
<title>Node2</title>
<g id="a_Node000002"><a xlink:href="classmtca4u_1_1_stepper_motor.html#adf08bf83e9011fc2a1f94745f65c6d4c" target="_top" xlink:title="Return real motor position read directly from the hardware and expressed in the arbitrary units.">
<polygon fill="white" stroke="#666666" points="340,-51 215,-51 215,-21 340,-21 340,-51"/>
<text text-anchor="start" x="223" y="-39" font-family="Helvetica,sans-Serif" font-size="10.00">mtca4u::StepperMotor</text>
<text text-anchor="middle" x="277.5" y="-28" font-family="Helvetica,sans-Serif" font-size="10.00">::getCurrentPosition</text>
</a>
</g>
</g>
<!-- Node1&#45;&gt;Node2 -->
<g id="edge1_Node000001_Node000002" class="edge">
<title>Node1&#45;&gt;Node2</title>
<g id="a_edge1_Node000001_Node000002"><a xlink:title=" ">
<path fill="none" stroke="#63b8ff" d="M161.1,-50.2C175.5,-48.43 190.45,-46.59 204.62,-44.85"/>
<polygon fill="#63b8ff" stroke="#63b8ff" points="205.28,-48.29 214.78,-43.6 204.43,-41.34 205.28,-48.29"/>
</a>
</g>
</g>
<!-- Node3 -->
<g id="Node000003" class="node">
<title>Node3</title>
<g id="a_Node000003"><a xlink:href="classmtca4u_1_1_stepper_motor.html#a8e637e795edd150063f1d8a75e0d325d" target="_top" xlink:title="Return real motor position read directly from the hardware and expressed in steps.">
<polygon fill="white" stroke="#666666" points="543,-99 394,-99 394,-69 543,-69 543,-99"/>
<text text-anchor="start" x="402" y="-87" font-family="Helvetica,sans-Serif" font-size="10.00">mtca4u::StepperMotor</text>
<text text-anchor="middle" x="468.5" y="-76" font-family="Helvetica,sans-Serif" font-size="10.00">::getCurrentPositionInSteps</text>
</a>
</g>
</g>
<!-- Node1&#45;&gt;Node3 -->
<g id="edge4_Node000001_Node000003" class="edge">
<title>Node1&#45;&gt;Node3</title>
<g id="a_edge4_Node000001_Node000003"><a xlink:title=" ">
<path fill="none" stroke="#63b8ff" d="M109,-75.06C131.8,-86.65 165.48,-101.71 197,-108 267.17,-122 286.86,-115.7 358,-108 371.7,-106.52 386.2,-104.02 400.01,-101.18"/>
<polygon fill="#63b8ff" stroke="#63b8ff" points="400.87,-104.57 409.92,-99.06 399.41,-97.73 400.87,-104.57"/>
</a>
</g>
</g>
<!-- Node4 -->
<g id="Node000004" class="node">
<title>Node4</title>
<g id="a_Node000004"><a xlink:href="classmtca4u_1_1_stepper_motor.html#a4407fcc4a1beb1f38921cebd85e91b22" target="_top" xlink:title="Recalculate arbitrary units into steps.">
<polygon fill="white" stroke="#666666" points="538.5,-30 398.5,-30 398.5,0 538.5,0 538.5,-30"/>
<text text-anchor="start" x="406.5" y="-18" font-family="Helvetica,sans-Serif" font-size="10.00">mtca4u::StepperMotor</text>
<text text-anchor="middle" x="468.5" y="-7" font-family="Helvetica,sans-Serif" font-size="10.00">::recalculateStepsToUnits</text>
</a>
</g>
</g>
<!-- Node1&#45;&gt;Node4 -->
<g id="edge5_Node000001_Node000004" class="edge">
<title>Node1&#45;&gt;Node4</title>
<g id="a_edge5_Node000001_Node000004"><a xlink:title=" ">
<path fill="none" stroke="#63b8ff" d="M109,-44.94C131.8,-33.35 165.48,-18.29 197,-12 260.39,0.65 333.8,-1.17 388.14,-5.56"/>
<polygon fill="#63b8ff" stroke="#63b8ff" points="388.14,-9.07 398.4,-6.43 388.74,-2.1 388.14,-9.07"/>
</a>
</g>
</g>
<!-- Node5 -->
<g id="Node000005" class="node">
<title>Node5</title>
<g id="a_Node000005"><a xlink:href="classmtca4u_1_1_stepper_motor.html#a302d597731454c16411241214d5fbca2" target="_top" xlink:title="Set position passed as parameter as current position of the motor.">
<polygon fill="white" stroke="#666666" points="358,-99 197,-99 197,-69 358,-69 358,-99"/>
<text text-anchor="start" x="205" y="-87" font-family="Helvetica,sans-Serif" font-size="10.00">mtca4u::StepperMotor</text>
<text text-anchor="middle" x="277.5" y="-76" font-family="Helvetica,sans-Serif" font-size="10.00">::setCurrentPositionInStepsAs</text>
</a>
</g>
</g>
<!-- Node1&#45;&gt;Node5 -->
<g id="edge6_Node000001_Node000005" class="edge">
<title>Node1&#45;&gt;Node5</title>
<g id="a_edge6_Node000001_Node000005"><a xlink:title=" ">
<path fill="none" stroke="#63b8ff" d="M161.1,-69.8C169.57,-70.84 178.24,-71.91 186.82,-72.96"/>
<polygon fill="#63b8ff" stroke="#63b8ff" points="186.49,-76.45 196.84,-74.2 187.35,-69.5 186.49,-76.45"/>
</a>
</g>
</g>
<!-- Node2&#45;&gt;Node3 -->
<g id="edge2_Node000002_Node000003" class="edge">
<title>Node2&#45;&gt;Node3</title>
<g id="a_edge2_Node000002_Node000003"><a xlink:title=" ">
<path fill="none" stroke="#63b8ff" d="M337.78,-51.06C357.05,-55.95 378.59,-61.42 398.5,-66.48"/>
<polygon fill="#63b8ff" stroke="#63b8ff" points="397.87,-69.93 408.43,-69 399.6,-63.14 397.87,-69.93"/>
</a>
</g>
</g>
<!-- Node2&#45;&gt;Node4 -->
<g id="edge3_Node000002_Node000004" class="edge">
<title>Node2&#45;&gt;Node4</title>
<g id="a_edge3_Node000002_Node000004"><a xlink:title=" ">
<path fill="none" stroke="#63b8ff" d="M340.12,-29.15C355.56,-27.44 372.33,-25.57 388.48,-23.78"/>
<polygon fill="#63b8ff" stroke="#63b8ff" points="388.88,-27.26 398.43,-22.67 388.11,-20.3 388.88,-27.26"/>
</a>
</g>
</g>
<!-- Node5&#45;&gt;Node3 -->
<g id="edge7_Node000005_Node000003" class="edge">
<title>Node5&#45;&gt;Node3</title>
<g id="a_edge7_Node000005_Node000003"><a xlink:title=" ">
<path fill="none" stroke="#63b8ff" d="M358.11,-84C366.5,-84 375.05,-84 383.49,-84"/>
<polygon fill="#63b8ff" stroke="#63b8ff" points="383.71,-87.5 393.71,-84 383.71,-80.5 383.71,-87.5"/>
</a>
</g>
</g>
</g>
</svg>
