<?xml version="1.0" encoding="UTF-8" standalone="no"?>
<!DOCTYPE svg PUBLIC "-//W3C//DTD SVG 1.1//EN"
 "http://www.w3.org/Graphics/SVG/1.1/DTD/svg11.dtd">
<!-- Generated by graphviz version 2.43.0 (0)
 -->
<!-- Title: ChimeraTK::MotorDriverCardDetail::Logger Pages: 1 -->
<svg width="166pt" height="172pt"
 viewBox="0.00 0.00 166.00 172.00" xmlns="http://www.w3.org/2000/svg" xmlns:xlink="http://www.w3.org/1999/xlink">
<g id="graph0" class="graph" transform="scale(1 1) rotate(0) translate(4 168)">
<title>ChimeraTK::MotorDriverCardDetail::Logger</title>
<polygon fill="white" stroke="transparent" points="-4,4 -4,-168 162,-168 162,4 -4,4"/>
<!-- Node1 -->
<g id="node1" class="node">
<title>Node1</title>
<g id="a_node1"><a xlink:title="Logger class which provides logging feature with 5 different logging levels.">
<polygon fill="#bfbfbf" stroke="black" points="0,-0.5 0,-30.5 158,-30.5 158,-0.5 0,-0.5"/>
<text text-anchor="start" x="8" y="-18.5" font-family="Helvetica,sans-Serif" font-size="10.00">ChimeraTK::MotorDriverCard</text>
<text text-anchor="middle" x="79" y="-7.5" font-family="Helvetica,sans-Serif" font-size="10.00">Detail::Logger</text>
</a>
</g>
</g>
<!-- Node2 -->
<g id="node2" class="node">
<title>Node2</title>
<g id="a_node2"><a xlink:href="class_chimera_t_k_1_1_motor_driver_card_detail_1_1_logger_1_1_log_level.html" target="_top" xlink:title="Helper class which represent logging level.">
<polygon fill="white" stroke="black" points="0,-133.5 0,-163.5 158,-163.5 158,-133.5 0,-133.5"/>
<text text-anchor="start" x="8" y="-151.5" font-family="Helvetica,sans-Serif" font-size="10.00">ChimeraTK::MotorDriverCard</text>
<text text-anchor="middle" x="79" y="-140.5" font-family="Helvetica,sans-Serif" font-size="10.00">Detail::Logger::LogLevel</text>
</a>
</g>
</g>
<!-- Node2&#45;&gt;Node1 -->
<g id="edge1" class="edge">
<title>Node2&#45;&gt;Node1</title>
<path fill="none" stroke="#9a32cd" stroke-dasharray="5,2" d="M79,-123.27C79,-96.13 79,-53.05 79,-30.82"/>
<polygon fill="#9a32cd" stroke="#9a32cd" points="75.5,-123.48 79,-133.48 82.5,-123.48 75.5,-123.48"/>
<text text-anchor="middle" x="112.5" y="-107" font-family="Helvetica,sans-Serif" font-size="10.00"> DETAIL</text>
<text text-anchor="middle" x="112.5" y="-96" font-family="Helvetica,sans-Serif" font-size="10.00">ERROR</text>
<text text-anchor="middle" x="112.5" y="-85" font-family="Helvetica,sans-Serif" font-size="10.00">WARNING</text>
<text text-anchor="middle" x="112.5" y="-74" font-family="Helvetica,sans-Serif" font-size="10.00">FULL_DETAIL</text>
<text text-anchor="middle" x="112.5" y="-63" font-family="Helvetica,sans-Serif" font-size="10.00">INFO</text>
<text text-anchor="middle" x="112.5" y="-52" font-family="Helvetica,sans-Serif" font-size="10.00">NO_LOGGING</text>
</g>
</g>
</svg>
