<?xml version="1.0" encoding="UTF-8" standalone="no"?>
<!DOCTYPE svg PUBLIC "-//W3C//DTD SVG 1.1//EN"
 "http://www.w3.org/Graphics/SVG/1.1/DTD/svg11.dtd">
<!-- Generated by graphviz version 2.43.0 (0)
 -->
<!-- Title: mtca4u::TMC260Word Pages: 1 -->
<svg width="522pt" height="175pt"
 viewBox="0.00 0.00 522.00 175.00" xmlns="http://www.w3.org/2000/svg" xmlns:xlink="http://www.w3.org/1999/xlink">
<g id="graph0" class="graph" transform="scale(1 1) rotate(0) translate(4 171)">
<title>mtca4u::TMC260Word</title>
<!-- Node1 -->
<g id="Node000001" class="node">
<title>Node1</title>
<g id="a_Node000001"><a xlink:title=" ">
<polygon fill="#999999" stroke="#666666" points="309,-93 185,-93 185,-74 309,-74 309,-93"/>
<text text-anchor="middle" x="247" y="-81" font-family="Helvetica,sans-Serif" font-size="10.00">mtca4u::TMC260Word</text>
</a>
</g>
</g>
<!-- Node3 -->
<g id="Node000003" class="node">
<title>Node3</title>
<g id="a_Node000003"><a xlink:href="classmtca4u_1_1_chopper_control_data.html" target="_top" xlink:title=" ">
<polygon fill="white" stroke="#666666" points="508.5,-167 350.5,-167 350.5,-148 508.5,-148 508.5,-167"/>
<text text-anchor="middle" x="429.5" y="-155" font-family="Helvetica,sans-Serif" font-size="10.00">mtca4u::ChopperControlData</text>
</a>
</g>
</g>
<!-- Node1&#45;&gt;Node3 -->
<g id="edge2_Node000001_Node000003" class="edge">
<title>Node1&#45;&gt;Node3</title>
<g id="a_edge2_Node000001_Node000003"><a xlink:title=" ">
<path fill="none" stroke="#63b8ff" d="M269.97,-98.86C289.01,-111.49 317.71,-128.98 345,-139.5 353.72,-142.86 363.2,-145.66 372.55,-147.96"/>
<polygon fill="#63b8ff" stroke="#63b8ff" points="271.7,-95.8 261.45,-93.09 267.77,-101.6 271.7,-95.8"/>
</a>
</g>
</g>
<!-- Node4 -->
<g id="Node000004" class="node">
<title>Node4</title>
<g id="a_Node000004"><a xlink:href="classmtca4u_1_1_cool_step_control_data.html" target="_top" xlink:title=" ">
<polygon fill="white" stroke="#666666" points="510,-130 349,-130 349,-111 510,-111 510,-130"/>
<text text-anchor="middle" x="429.5" y="-118" font-family="Helvetica,sans-Serif" font-size="10.00">mtca4u::CoolStepControlData</text>
</a>
</g>
</g>
<!-- Node1&#45;&gt;Node4 -->
<g id="edge3_Node000001_Node000004" class="edge">
<title>Node1&#45;&gt;Node4</title>
<g id="a_edge3_Node000001_Node000004"><a xlink:title=" ">
<path fill="none" stroke="#63b8ff" d="M304.51,-95.08C329.38,-100.18 358.24,-106.1 381.86,-110.94"/>
<polygon fill="#63b8ff" stroke="#63b8ff" points="304.98,-91.61 294.48,-93.03 303.58,-98.47 304.98,-91.61"/>
</a>
</g>
</g>
<!-- Node5 -->
<g id="Node000005" class="node">
<title>Node5</title>
<g id="a_Node000005"><a xlink:href="classmtca4u_1_1_driver_config_data.html" target="_top" xlink:title=" ">
<polygon fill="white" stroke="#666666" points="501,-93 358,-93 358,-74 501,-74 501,-93"/>
<text text-anchor="middle" x="429.5" y="-81" font-family="Helvetica,sans-Serif" font-size="10.00">mtca4u::DriverConfigData</text>
</a>
</g>
</g>
<!-- Node1&#45;&gt;Node5 -->
<g id="edge4_Node000001_Node000005" class="edge">
<title>Node1&#45;&gt;Node5</title>
<g id="a_edge4_Node000001_Node000005"><a xlink:title=" ">
<path fill="none" stroke="#63b8ff" d="M319.17,-83.5C331.87,-83.5 345.11,-83.5 357.8,-83.5"/>
<polygon fill="#63b8ff" stroke="#63b8ff" points="319.11,-80 309.11,-83.5 319.11,-87 319.11,-80"/>
</a>
</g>
</g>
<!-- Node6 -->
<g id="Node000006" class="node">
<title>Node6</title>
<g id="a_Node000006"><a xlink:href="classmtca4u_1_1_driver_control_data.html" target="_top" xlink:title=" ">
<polygon fill="white" stroke="#666666" points="503.5,-56 355.5,-56 355.5,-37 503.5,-37 503.5,-56"/>
<text text-anchor="middle" x="429.5" y="-44" font-family="Helvetica,sans-Serif" font-size="10.00">mtca4u::DriverControlData</text>
</a>
</g>
</g>
<!-- Node1&#45;&gt;Node6 -->
<g id="edge5_Node000001_Node000006" class="edge">
<title>Node1&#45;&gt;Node6</title>
<g id="a_edge5_Node000001_Node000006"><a xlink:title=" ">
<path fill="none" stroke="#63b8ff" d="M304.51,-71.92C329.38,-66.82 358.24,-60.9 381.86,-56.06"/>
<polygon fill="#63b8ff" stroke="#63b8ff" points="303.58,-68.53 294.48,-73.97 304.98,-75.39 303.58,-68.53"/>
</a>
</g>
</g>
<!-- Node7 -->
<g id="Node000007" class="node">
<title>Node7</title>
<g id="a_Node000007"><a xlink:href="classmtca4u_1_1_stall_guard_control_data.html" target="_top" xlink:title=" ">
<polygon fill="white" stroke="#666666" points="514,-19 345,-19 345,0 514,0 514,-19"/>
<text text-anchor="middle" x="429.5" y="-7" font-family="Helvetica,sans-Serif" font-size="10.00">mtca4u::StallGuardControlData</text>
</a>
</g>
</g>
<!-- Node1&#45;&gt;Node7 -->
<g id="edge6_Node000001_Node000007" class="edge">
<title>Node1&#45;&gt;Node7</title>
<g id="a_edge6_Node000001_Node000007"><a xlink:title=" ">
<path fill="none" stroke="#63b8ff" d="M269.97,-68.14C289.01,-55.51 317.71,-38.02 345,-27.5 353.72,-24.14 363.2,-21.34 372.55,-19.04"/>
<polygon fill="#63b8ff" stroke="#63b8ff" points="267.77,-65.4 261.45,-73.91 271.7,-71.2 267.77,-65.4"/>
</a>
</g>
</g>
<!-- Node2 -->
<g id="Node000002" class="node">
<title>Node2</title>
<g id="a_Node000002"><a xlink:href="classmtca4u_1_1_multi_variable_word.html" target="_top" xlink:title="The MultiVariableWord encodes and decodes multiple short words into one unsigned int.">
<polygon fill="white" stroke="#666666" points="149,-93 0,-93 0,-74 149,-74 149,-93"/>
<text text-anchor="middle" x="74.5" y="-81" font-family="Helvetica,sans-Serif" font-size="10.00">mtca4u::MultiVariableWord</text>
</a>
</g>
</g>
<!-- Node2&#45;&gt;Node1 -->
<g id="edge1_Node000001_Node000002" class="edge">
<title>Node2&#45;&gt;Node1</title>
<g id="a_edge1_Node000001_Node000002"><a xlink:title=" ">
<path fill="none" stroke="#63b8ff" d="M159.37,-83.5C167.97,-83.5 176.6,-83.5 184.89,-83.5"/>
<polygon fill="#63b8ff" stroke="#63b8ff" points="159.29,-80 149.29,-83.5 159.29,-87 159.29,-80"/>
</a>
</g>
</g>
</g>
</svg>
