<?xml version="1.0" encoding="UTF-8" standalone="no"?>
<!DOCTYPE svg PUBLIC "-//W3C//DTD SVG 1.1//EN"
 "http://www.w3.org/Graphics/SVG/1.1/DTD/svg11.dtd">
<!-- Generated by graphviz version 2.40.1 (20161225.0304)
 -->
<!-- Title: ChimeraTK::VariableNetworkNodeDumpingVisitor Pages: 1 -->
<svg width="831pt" height="95pt"
 viewBox="0.00 0.00 831.00 95.00" xmlns="http://www.w3.org/2000/svg" xmlns:xlink="http://www.w3.org/1999/xlink">
<g id="graph0" class="graph" transform="scale(1 1) rotate(0) translate(4 91)">
<title>ChimeraTK::VariableNetworkNodeDumpingVisitor</title>
<polygon fill="#ffffff" stroke="transparent" points="-4,4 -4,-91 827,-91 827,4 -4,4"/>
<!-- Node0 -->
<g id="node1" class="node">
<title>Node0</title>
<polygon fill="#bfbfbf" stroke="#000000" points="470,-24.5 470,-54.5 628,-54.5 628,-24.5 470,-24.5"/>
<text text-anchor="start" x="478" y="-42.5" font-family="Helvetica,sans-Serif" font-size="10.00" fill="#000000">ChimeraTK::VariableNetwork</text>
<text text-anchor="middle" x="549" y="-31.5" font-family="Helvetica,sans-Serif" font-size="10.00" fill="#000000">NodeDumpingVisitor</text>
</g>
<!-- Node4 -->
<g id="node5" class="node">
<title>Node4</title>
<g id="a_node5"><a xlink:href="class_chimera_t_k_1_1_variable_network_dumping_visitor.html" target="_top" xlink:title="The VariableNetworkDumpingVisitor class. ">
<polygon fill="#ffffff" stroke="#000000" points="665,-49.5 665,-79.5 823,-79.5 823,-49.5 665,-49.5"/>
<text text-anchor="start" x="673" y="-67.5" font-family="Helvetica,sans-Serif" font-size="10.00" fill="#000000">ChimeraTK::VariableNetwork</text>
<text text-anchor="middle" x="744" y="-56.5" font-family="Helvetica,sans-Serif" font-size="10.00" fill="#000000">DumpingVisitor</text>
</a>
</g>
</g>
<!-- Node0&#45;&gt;Node4 -->
<g id="edge4" class="edge">
<title>Node0&#45;&gt;Node4</title>
<path fill="none" stroke="#191970" d="M638.065,-50.9186C647.0007,-52.0642 656.0317,-53.222 664.8546,-54.3532"/>
<polygon fill="#191970" stroke="#191970" points="638.3968,-47.4326 628.0329,-49.6324 637.5066,-54.3757 638.3968,-47.4326"/>
</g>
<!-- Node5 -->
<g id="node6" class="node">
<title>Node5</title>
<g id="a_node6"><a xlink:href="class_chimera_t_k_1_1_variable_network_graph_dumping_visitor.html" target="_top" xlink:title="The VariableNetworkGraphDumpingVisitor class. ">
<polygon fill="#ffffff" stroke="#000000" points="665,-.5 665,-30.5 823,-30.5 823,-.5 665,-.5"/>
<text text-anchor="start" x="673" y="-18.5" font-family="Helvetica,sans-Serif" font-size="10.00" fill="#000000">ChimeraTK::VariableNetwork</text>
<text text-anchor="middle" x="744" y="-7.5" font-family="Helvetica,sans-Serif" font-size="10.00" fill="#000000">GraphDumpingVisitor</text>
</a>
</g>
</g>
<!-- Node0&#45;&gt;Node5 -->
<g id="edge5" class="edge">
<title>Node0&#45;&gt;Node5</title>
<path fill="none" stroke="#8b1a1a" d="M638.065,-28.5382C647.0007,-27.4384 656.0317,-26.3269 664.8546,-25.241"/>
<polygon fill="#8b1a1a" stroke="#8b1a1a" points="637.5304,-25.0775 628.0329,-29.7729 638.3855,-32.025 637.5304,-25.0775"/>
</g>
<!-- Node1 -->
<g id="node2" class="node">
<title>Node1</title>
<g id="a_node2"><a xlink:href="class_chimera_t_k_1_1_visitor.html" target="_top" xlink:title="ChimeraTK::Visitor\l\&lt; VariableNetworkNode \&gt;">
<polygon fill="#ffffff" stroke="#000000" points="282,-56.5 282,-86.5 428,-86.5 428,-56.5 282,-56.5"/>
<text text-anchor="start" x="290" y="-74.5" font-family="Helvetica,sans-Serif" font-size="10.00" fill="#000000">ChimeraTK::Visitor</text>
<text text-anchor="middle" x="355" y="-63.5" font-family="Helvetica,sans-Serif" font-size="10.00" fill="#000000">&lt; VariableNetworkNode &gt;</text>
</a>
</g>
</g>
<!-- Node1&#45;&gt;Node0 -->
<g id="edge1" class="edge">
<title>Node1&#45;&gt;Node0</title>
<path fill="none" stroke="#191970" d="M438.0794,-57.7962C448.6117,-56.0589 459.3676,-54.2847 469.8365,-52.5579"/>
<polygon fill="#191970" stroke="#191970" points="437.3637,-54.3669 428.0666,-59.4478 438.503,-61.2735 437.3637,-54.3669"/>
</g>
<!-- Node2 -->
<g id="node3" class="node">
<title>Node2</title>
<g id="a_node3"><a xlink:href="class_chimera_t_k_1_1_visitor.html" target="_top" xlink:title="ChimeraTK::Visitor\l\&lt; Types \&gt;">
<polygon fill="#ffffff" stroke="#000000" points="0,-56.5 0,-86.5 108,-86.5 108,-56.5 0,-56.5"/>
<text text-anchor="start" x="8" y="-74.5" font-family="Helvetica,sans-Serif" font-size="10.00" fill="#000000">ChimeraTK::Visitor</text>
<text text-anchor="middle" x="54" y="-63.5" font-family="Helvetica,sans-Serif" font-size="10.00" fill="#000000">&lt; Types &gt;</text>
</a>
</g>
</g>
<!-- Node2&#45;&gt;Node1 -->
<g id="edge2" class="edge">
<title>Node2&#45;&gt;Node1</title>
<path fill="none" stroke="#ffa500" stroke-dasharray="5,2" d="M118.4147,-71.5C166.346,-71.5 231.8285,-71.5 281.7516,-71.5"/>
<polygon fill="#ffa500" stroke="#ffa500" points="118.1604,-68.0001 108.1604,-71.5 118.1604,-75.0001 118.1604,-68.0001"/>
<text text-anchor="middle" x="192.5" y="-74.5" font-family="Helvetica,sans-Serif" font-size="10.00" fill="#000000"> &lt; VariableNetworkNode &gt;</text>
</g>
<!-- Node3 -->
<g id="node4" class="node">
<title>Node3</title>
<g id="a_node4"><a xlink:href="class_chimera_t_k_1_1_pushable_stream.html" target="_top" xlink:title="A helper class to replace the output stream temporarily. ">
<polygon fill="#ffffff" stroke="#000000" points="277,-18 277,-37 433,-37 433,-18 277,-18"/>
<text text-anchor="middle" x="355" y="-25" font-family="Helvetica,sans-Serif" font-size="10.00" fill="#000000">ChimeraTK::PushableStream</text>
</a>
</g>
</g>
<!-- Node3&#45;&gt;Node0 -->
<g id="edge3" class="edge">
<title>Node3&#45;&gt;Node0</title>
<path fill="none" stroke="#191970" d="M443.0767,-32.948C451.9935,-33.4996 461.0118,-34.0574 469.8266,-34.6027"/>
<polygon fill="#191970" stroke="#191970" points="443.2657,-29.4531 433.0686,-32.329 442.8335,-36.4398 443.2657,-29.4531"/>
</g>
</g>
</svg>
