<?xml version="1.0" encoding="UTF-8" standalone="no"?>
<!DOCTYPE svg PUBLIC "-//W3C//DTD SVG 1.1//EN"
 "http://www.w3.org/Graphics/SVG/1.1/DTD/svg11.dtd">
<!-- Generated by graphviz version 2.43.0 (0)
 -->
<!-- Title: /scratch/dragon/sources/Consatt&#45;apps/src/linklock/CsaLsuOxcAdvAlg.cc Pages: 1 -->
<svg width="369pt" height="229pt"
 viewBox="0.00 0.00 368.50 229.00" xmlns="http://www.w3.org/2000/svg" xmlns:xlink="http://www.w3.org/1999/xlink">
<g id="graph0" class="graph" transform="scale(1 1) rotate(0) translate(4 225)">
<title>/scratch/dragon/sources/Consatt&#45;apps/src/linklock/CsaLsuOxcAdvAlg.cc</title>
<polygon fill="white" stroke="transparent" points="-4,4 -4,-225 364.5,-225 364.5,4 -4,4"/>
<!-- Node1 -->
<g id="node1" class="node">
<title>Node1</title>
<g id="a_node1"><a xlink:title=" ">
<polygon fill="#bfbfbf" stroke="black" points="110.5,-179.5 110.5,-220.5 253.5,-220.5 253.5,-179.5 110.5,-179.5"/>
<text text-anchor="start" x="118.5" y="-208.5" font-family="Helvetica,sans-Serif" font-size="10.00">/scratch/dragon/sources</text>
<text text-anchor="start" x="118.5" y="-197.5" font-family="Helvetica,sans-Serif" font-size="10.00">/Consatt&#45;apps/src/linklock</text>
<text text-anchor="middle" x="182" y="-186.5" font-family="Helvetica,sans-Serif" font-size="10.00">/CsaLsuOxcAdvAlg.cc</text>
</a>
</g>
</g>
<!-- Node2 -->
<g id="node2" class="node">
<title>Node2</title>
<g id="a_node2"><a xlink:href="_csa_lsu_oxc_adv_alg_8h.html" target="_top" xlink:title=" ">
<polygon fill="white" stroke="black" points="125.5,-123.5 125.5,-142.5 238.5,-142.5 238.5,-123.5 125.5,-123.5"/>
<text text-anchor="middle" x="182" y="-130.5" font-family="Helvetica,sans-Serif" font-size="10.00">CsaLsuOxcAdvAlg.h</text>
</a>
</g>
</g>
<!-- Node1&#45;&gt;Node2 -->
<g id="edge1" class="edge">
<title>Node1&#45;&gt;Node2</title>
<path fill="none" stroke="midnightblue" d="M182,-179.5C182,-171.07 182,-161.24 182,-152.87"/>
<polygon fill="midnightblue" stroke="midnightblue" points="185.5,-152.65 182,-142.65 178.5,-152.65 185.5,-152.65"/>
</g>
<!-- Node3 -->
<g id="node3" class="node">
<title>Node3</title>
<g id="a_node3"><a xlink:href="_csa_lsu_oxc_tune_search_alg_8h.html" target="_top" xlink:title=" ">
<polygon fill="white" stroke="black" points="107,-67.5 107,-86.5 257,-86.5 257,-67.5 107,-67.5"/>
<text text-anchor="middle" x="182" y="-74.5" font-family="Helvetica,sans-Serif" font-size="10.00">CsaLsuOxcTuneSearchAlg.h</text>
</a>
</g>
</g>
<!-- Node2&#45;&gt;Node3 -->
<g id="edge2" class="edge">
<title>Node2&#45;&gt;Node3</title>
<path fill="none" stroke="midnightblue" d="M182,-123.08C182,-116.01 182,-105.86 182,-96.99"/>
<polygon fill="midnightblue" stroke="midnightblue" points="185.5,-96.75 182,-86.75 178.5,-96.75 185.5,-96.75"/>
</g>
<!-- Node4 -->
<g id="node4" class="node">
<title>Node4</title>
<g id="a_node4"><a xlink:title=" ">
<polygon fill="white" stroke="#bfbfbf" points="0,-6 0,-25 176,-25 176,-6 0,-6"/>
<text text-anchor="middle" x="88" y="-13" font-family="Helvetica,sans-Serif" font-size="10.00">Demac/CoarseTuningAlgorithm.h</text>
</a>
</g>
</g>
<!-- Node3&#45;&gt;Node4 -->
<g id="edge3" class="edge">
<title>Node3&#45;&gt;Node4</title>
<path fill="none" stroke="midnightblue" d="M168.53,-67.48C153.32,-57.84 128.31,-42.02 110.2,-30.55"/>
<polygon fill="midnightblue" stroke="midnightblue" points="111.76,-27.4 101.44,-25.01 108.02,-33.31 111.76,-27.4"/>
</g>
<!-- Node5 -->
<g id="node5" class="node">
<title>Node5</title>
<g id="a_node5"><a xlink:title=" ">
<polygon fill="white" stroke="#bfbfbf" points="193.5,-0.5 193.5,-30.5 360.5,-30.5 360.5,-0.5 193.5,-0.5"/>
<text text-anchor="start" x="201.5" y="-18.5" font-family="Helvetica,sans-Serif" font-size="10.00">Demac/CsaCoarseTuningSingle</text>
<text text-anchor="middle" x="277" y="-7.5" font-family="Helvetica,sans-Serif" font-size="10.00">DetectorAlgorithm.h</text>
</a>
</g>
</g>
<!-- Node3&#45;&gt;Node5 -->
<g id="edge4" class="edge">
<title>Node3&#45;&gt;Node5</title>
<path fill="none" stroke="midnightblue" d="M195.61,-67.48C208.72,-59.27 229.01,-46.56 246.05,-35.88"/>
<polygon fill="midnightblue" stroke="midnightblue" points="247.99,-38.8 254.61,-30.52 244.28,-32.86 247.99,-38.8"/>
</g>
</g>
</svg>
