<?xml version="1.0" encoding="UTF-8" standalone="no"?>
<!DOCTYPE svg PUBLIC "-//W3C//DTD SVG 1.1//EN"
 "http://www.w3.org/Graphics/SVG/1.1/DTD/svg11.dtd">
<!-- Generated by graphviz version 2.43.0 (0)
 -->
<!-- Title: /scratch/dragon/sources/Consatt&#45;apps/include/linklock/FastCalibrationOxcLsu.h Pages: 1 -->
<svg width="768pt" height="162pt"
 viewBox="0.00 0.00 768.00 162.00" xmlns="http://www.w3.org/2000/svg" xmlns:xlink="http://www.w3.org/1999/xlink">
<g id="graph0" class="graph" transform="scale(1 1) rotate(0) translate(4 158)">
<title>/scratch/dragon/sources/Consatt&#45;apps/include/linklock/FastCalibrationOxcLsu.h</title>
<polygon fill="white" stroke="transparent" points="-4,4 -4,-158 764,-158 764,4 -4,4"/>
<!-- Node1 -->
<g id="node1" class="node">
<title>Node1</title>
<g id="a_node1"><a xlink:title=" ">
<polygon fill="#bfbfbf" stroke="black" points="517,-112.5 517,-153.5 695,-153.5 695,-112.5 517,-112.5"/>
<text text-anchor="start" x="525" y="-141.5" font-family="Helvetica,sans-Serif" font-size="10.00">/scratch/dragon/sources</text>
<text text-anchor="start" x="525" y="-130.5" font-family="Helvetica,sans-Serif" font-size="10.00">/Consatt&#45;apps/include</text>
<text text-anchor="middle" x="606" y="-119.5" font-family="Helvetica,sans-Serif" font-size="10.00">/linklock/FastCalibrationOxcLsu.h</text>
</a>
</g>
</g>
<!-- Node2 -->
<g id="node2" class="node">
<title>Node2</title>
<g id="a_node2"><a xlink:title=" ">
<polygon fill="white" stroke="#bfbfbf" points="0,-0.5 0,-19.5 142,-19.5 142,-0.5 0,-0.5"/>
<text text-anchor="middle" x="71" y="-7.5" font-family="Helvetica,sans-Serif" font-size="10.00">Consatt/CsaLibTypedefs.h</text>
</a>
</g>
</g>
<!-- Node1&#45;&gt;Node2 -->
<g id="edge1" class="edge">
<title>Node1&#45;&gt;Node2</title>
<path fill="none" stroke="midnightblue" d="M519.75,-112.49C405.77,-86.71 208.91,-42.19 118.68,-21.78"/>
<polygon fill="midnightblue" stroke="midnightblue" points="119.26,-18.33 108.74,-19.53 117.72,-25.15 119.26,-18.33"/>
</g>
<!-- Node3 -->
<g id="node3" class="node">
<title>Node3</title>
<g id="a_node3"><a xlink:href="_fast_calibration_base_8h.html" target="_top" xlink:title=" ">
<polygon fill="white" stroke="black" points="498,-56.5 498,-75.5 620,-75.5 620,-56.5 498,-56.5"/>
<text text-anchor="middle" x="559" y="-63.5" font-family="Helvetica,sans-Serif" font-size="10.00">FastCalibrationBase.h</text>
</a>
</g>
</g>
<!-- Node1&#45;&gt;Node3 -->
<g id="edge2" class="edge">
<title>Node1&#45;&gt;Node3</title>
<path fill="none" stroke="midnightblue" d="M591.9,-112.5C585.32,-103.39 577.56,-92.66 571.23,-83.91"/>
<polygon fill="midnightblue" stroke="midnightblue" points="573.95,-81.71 565.26,-75.65 568.28,-85.81 573.95,-81.71"/>
</g>
<!-- Node7 -->
<g id="node7" class="node">
<title>Node7</title>
<g id="a_node7"><a xlink:title=" ">
<polygon fill="white" stroke="#bfbfbf" points="636,-0.5 636,-19.5 686,-19.5 686,-0.5 636,-0.5"/>
<text text-anchor="middle" x="661" y="-7.5" font-family="Helvetica,sans-Serif" font-size="10.00">atomic</text>
</a>
</g>
</g>
<!-- Node1&#45;&gt;Node7 -->
<g id="edge9" class="edge">
<title>Node1&#45;&gt;Node7</title>
<path fill="none" stroke="midnightblue" d="M614.96,-112.29C625.47,-89.17 642.75,-51.16 652.88,-28.86"/>
<polygon fill="midnightblue" stroke="midnightblue" points="656.15,-30.13 657.1,-19.57 649.78,-27.23 656.15,-30.13"/>
</g>
<!-- Node8 -->
<g id="node8" class="node">
<title>Node8</title>
<g id="a_node8"><a xlink:title=" ">
<polygon fill="white" stroke="#bfbfbf" points="704,-0.5 704,-19.5 760,-19.5 760,-0.5 704,-0.5"/>
<text text-anchor="middle" x="732" y="-7.5" font-family="Helvetica,sans-Serif" font-size="10.00">sstream</text>
</a>
</g>
</g>
<!-- Node1&#45;&gt;Node8 -->
<g id="edge10" class="edge">
<title>Node1&#45;&gt;Node8</title>
<path fill="none" stroke="midnightblue" d="M626.52,-112.29C651.48,-88.33 693.07,-48.39 715.85,-26.51"/>
<polygon fill="midnightblue" stroke="midnightblue" points="718.28,-29.03 723.07,-19.57 713.43,-23.98 718.28,-29.03"/>
</g>
<!-- Node3&#45;&gt;Node2 -->
<g id="edge3" class="edge">
<title>Node3&#45;&gt;Node2</title>
<path fill="none" stroke="midnightblue" d="M497.82,-58.29C420.05,-49.76 281.33,-34.51 152.17,-20.13"/>
<polygon fill="midnightblue" stroke="midnightblue" points="152.43,-16.64 142.1,-19.01 151.65,-23.59 152.43,-16.64"/>
</g>
<!-- Node4 -->
<g id="node4" class="node">
<title>Node4</title>
<g id="a_node4"><a xlink:title=" ">
<polygon fill="white" stroke="#bfbfbf" points="160,-0.5 160,-19.5 288,-19.5 288,-0.5 160,-0.5"/>
<text text-anchor="middle" x="224" y="-7.5" font-family="Helvetica,sans-Serif" font-size="10.00">Consatt/StringBuilder.h</text>
</a>
</g>
</g>
<!-- Node3&#45;&gt;Node4 -->
<g id="edge4" class="edge">
<title>Node3&#45;&gt;Node4</title>
<path fill="none" stroke="midnightblue" d="M505.92,-56.44C446.5,-46.87 350.28,-31.36 287.07,-21.17"/>
<polygon fill="midnightblue" stroke="midnightblue" points="287.26,-17.65 276.83,-19.52 286.15,-24.56 287.26,-17.65"/>
</g>
<!-- Node5 -->
<g id="node5" class="node">
<title>Node5</title>
<g id="a_node5"><a xlink:title=" ">
<polygon fill="white" stroke="#bfbfbf" points="306,-0.5 306,-19.5 482,-19.5 482,-0.5 306,-0.5"/>
<text text-anchor="middle" x="394" y="-7.5" font-family="Helvetica,sans-Serif" font-size="10.00">Demac/CoarseTuningAlgorithm.h</text>
</a>
</g>
</g>
<!-- Node3&#45;&gt;Node5 -->
<g id="edge5" class="edge">
<title>Node3&#45;&gt;Node5</title>
<path fill="none" stroke="midnightblue" d="M532.86,-56.44C504.98,-47.32 460.65,-32.81 429.6,-22.65"/>
<polygon fill="midnightblue" stroke="midnightblue" points="430.62,-19.3 420.02,-19.52 428.44,-25.95 430.62,-19.3"/>
</g>
<!-- Node6 -->
<g id="node6" class="node">
<title>Node6</title>
<g id="a_node6"><a xlink:title=" ">
<polygon fill="white" stroke="#bfbfbf" points="500,-0.5 500,-19.5 618,-19.5 618,-0.5 500,-0.5"/>
<text text-anchor="middle" x="559" y="-7.5" font-family="Helvetica,sans-Serif" font-size="10.00">Demac/DevModLib.h</text>
</a>
</g>
</g>
<!-- Node3&#45;&gt;Node6 -->
<g id="edge6" class="edge">
<title>Node3&#45;&gt;Node6</title>
<path fill="none" stroke="midnightblue" d="M559,-56.08C559,-49.01 559,-38.86 559,-29.99"/>
<polygon fill="midnightblue" stroke="midnightblue" points="562.5,-29.75 559,-19.75 555.5,-29.75 562.5,-29.75"/>
</g>
<!-- Node3&#45;&gt;Node7 -->
<g id="edge7" class="edge">
<title>Node3&#45;&gt;Node7</title>
<path fill="none" stroke="midnightblue" d="M575.39,-56.32C591.67,-47.7 616.87,-34.36 635.72,-24.39"/>
<polygon fill="midnightblue" stroke="midnightblue" points="637.45,-27.43 644.65,-19.65 634.18,-21.24 637.45,-27.43"/>
</g>
<!-- Node3&#45;&gt;Node8 -->
<g id="edge8" class="edge">
<title>Node3&#45;&gt;Node8</title>
<path fill="none" stroke="midnightblue" d="M586.41,-56.44C615.77,-47.28 662.52,-32.69 695.1,-22.52"/>
<polygon fill="midnightblue" stroke="midnightblue" points="696.21,-25.84 704.72,-19.52 694.13,-19.16 696.21,-25.84"/>
</g>
</g>
</svg>
