<?xml version="1.0" encoding="UTF-8" standalone="no"?>
<!DOCTYPE svg PUBLIC "-//W3C//DTD SVG 1.1//EN"
 "http://www.w3.org/Graphics/SVG/1.1/DTD/svg11.dtd">
<!-- Generated by graphviz version 2.43.0 (0)
 -->
<!-- Title: /scratch/dragon/sources/Consatt&#45;apps/include/misc/GenericUtils.h Pages: 1 -->
<svg width="2703pt" height="128pt"
 viewBox="0.00 0.00 2703.00 128.00" xmlns="http://www.w3.org/2000/svg" xmlns:xlink="http://www.w3.org/1999/xlink">
<g id="graph0" class="graph" transform="scale(1 1) rotate(0) translate(4 124)">
<title>/scratch/dragon/sources/Consatt&#45;apps/include/misc/GenericUtils.h</title>
<polygon fill="white" stroke="transparent" points="-4,4 -4,-124 2699,-124 2699,4 -4,4"/>
<!-- Node1 -->
<g id="node1" class="node">
<title>Node1</title>
<g id="a_node1"><a xlink:title=" ">
<polygon fill="#bfbfbf" stroke="black" points="1333.5,-78.5 1333.5,-119.5 1465.5,-119.5 1465.5,-78.5 1333.5,-78.5"/>
<text text-anchor="start" x="1341.5" y="-107.5" font-family="Helvetica,sans-Serif" font-size="10.00">/scratch/dragon/sources</text>
<text text-anchor="start" x="1341.5" y="-96.5" font-family="Helvetica,sans-Serif" font-size="10.00">/Consatt&#45;apps/include</text>
<text text-anchor="middle" x="1399.5" y="-85.5" font-family="Helvetica,sans-Serif" font-size="10.00">/misc/GenericUtils.h</text>
</a>
</g>
</g>
<!-- Node2 -->
<g id="node2" class="node">
<title>Node2</title>
<g id="a_node2"><a xlink:href="_csa_laser_lock_8cc.html" target="_top" xlink:title=" ">
<polygon fill="white" stroke="black" points="0,-0.5 0,-41.5 149,-41.5 149,-0.5 0,-0.5"/>
<text text-anchor="start" x="8" y="-29.5" font-family="Helvetica,sans-Serif" font-size="10.00">/scratch/dragon/sources</text>
<text text-anchor="start" x="8" y="-18.5" font-family="Helvetica,sans-Serif" font-size="10.00">/Consatt&#45;apps/src/laserlock</text>
<text text-anchor="middle" x="74.5" y="-7.5" font-family="Helvetica,sans-Serif" font-size="10.00">/CsaLaserLock.cc</text>
</a>
</g>
</g>
<!-- Node1&#45;&gt;Node2 -->
<g id="edge1" class="edge">
<title>Node1&#45;&gt;Node2</title>
<path fill="none" stroke="midnightblue" d="M1323.26,-96.47C1089.4,-91.49 384.4,-74.15 157.5,-42 154.71,-41.6 151.88,-41.16 149.03,-40.67"/>
<polygon fill="midnightblue" stroke="midnightblue" points="1323.3,-99.98 1333.37,-96.69 1323.45,-92.98 1323.3,-99.98"/>
</g>
<!-- Node3 -->
<g id="node3" class="node">
<title>Node3</title>
<g id="a_node3"><a xlink:href="_csa_laser_lock_generic_8cc.html" target="_top" xlink:title=" ">
<polygon fill="white" stroke="black" points="167,-0.5 167,-41.5 316,-41.5 316,-0.5 167,-0.5"/>
<text text-anchor="start" x="175" y="-29.5" font-family="Helvetica,sans-Serif" font-size="10.00">/scratch/dragon/sources</text>
<text text-anchor="start" x="175" y="-18.5" font-family="Helvetica,sans-Serif" font-size="10.00">/Consatt&#45;apps/src/laserlock</text>
<text text-anchor="middle" x="241.5" y="-7.5" font-family="Helvetica,sans-Serif" font-size="10.00">/CsaLaserLockGeneric.cc</text>
</a>
</g>
</g>
<!-- Node1&#45;&gt;Node3 -->
<g id="edge2" class="edge">
<title>Node1&#45;&gt;Node3</title>
<path fill="none" stroke="midnightblue" d="M1323.1,-98.84C1146.37,-99.72 696,-95.96 324.5,-42 321.71,-41.6 318.88,-41.14 316.03,-40.64"/>
<polygon fill="midnightblue" stroke="midnightblue" points="1323.36,-102.33 1333.34,-98.78 1323.32,-95.33 1323.36,-102.33"/>
</g>
<!-- Node4 -->
<g id="node4" class="node">
<title>Node4</title>
<g id="a_node4"><a xlink:href="_csa_laser_lock_hed_8cc.html" target="_top" xlink:title=" ">
<polygon fill="white" stroke="black" points="334,-0.5 334,-41.5 483,-41.5 483,-0.5 334,-0.5"/>
<text text-anchor="start" x="342" y="-29.5" font-family="Helvetica,sans-Serif" font-size="10.00">/scratch/dragon/sources</text>
<text text-anchor="start" x="342" y="-18.5" font-family="Helvetica,sans-Serif" font-size="10.00">/Consatt&#45;apps/src/laserlock</text>
<text text-anchor="middle" x="408.5" y="-7.5" font-family="Helvetica,sans-Serif" font-size="10.00">/CsaLaserLockHed.cc</text>
</a>
</g>
</g>
<!-- Node1&#45;&gt;Node4 -->
<g id="edge3" class="edge">
<title>Node1&#45;&gt;Node4</title>
<path fill="none" stroke="midnightblue" d="M1323.28,-97.78C1166.59,-96.36 797.36,-87.92 491.5,-42 488.72,-41.58 485.89,-41.12 483.04,-40.61"/>
<polygon fill="midnightblue" stroke="midnightblue" points="1323.26,-101.28 1333.29,-97.87 1323.32,-94.28 1323.26,-101.28"/>
</g>
<!-- Node5 -->
<g id="node5" class="node">
<title>Node5</title>
<g id="a_node5"><a xlink:href="_csa_laser_lock_lasy_8cc.html" target="_top" xlink:title=" ">
<polygon fill="white" stroke="black" points="501,-0.5 501,-41.5 650,-41.5 650,-0.5 501,-0.5"/>
<text text-anchor="start" x="509" y="-29.5" font-family="Helvetica,sans-Serif" font-size="10.00">/scratch/dragon/sources</text>
<text text-anchor="start" x="509" y="-18.5" font-family="Helvetica,sans-Serif" font-size="10.00">/Consatt&#45;apps/src/laserlock</text>
<text text-anchor="middle" x="575.5" y="-7.5" font-family="Helvetica,sans-Serif" font-size="10.00">/CsaLaserLockLasy.cc</text>
</a>
</g>
</g>
<!-- Node1&#45;&gt;Node5 -->
<g id="edge4" class="edge">
<title>Node1&#45;&gt;Node5</title>
<path fill="none" stroke="midnightblue" d="M1323.05,-96.2C1188.27,-92.13 899.89,-79.47 659.5,-42 656.39,-41.52 653.22,-40.98 650.03,-40.39"/>
<polygon fill="midnightblue" stroke="midnightblue" points="1323.17,-99.7 1333.27,-96.5 1323.37,-92.7 1323.17,-99.7"/>
</g>
<!-- Node6 -->
<g id="node6" class="node">
<title>Node6</title>
<g id="a_node6"><a xlink:href="_csa_laser_lock_sis8300_l_standalone_8cc.html" target="_top" xlink:title=" ">
<polygon fill="white" stroke="black" points="668.5,-0.5 668.5,-41.5 866.5,-41.5 866.5,-0.5 668.5,-0.5"/>
<text text-anchor="start" x="676.5" y="-29.5" font-family="Helvetica,sans-Serif" font-size="10.00">/scratch/dragon/sources</text>
<text text-anchor="start" x="676.5" y="-18.5" font-family="Helvetica,sans-Serif" font-size="10.00">/Consatt&#45;apps/src/laserlock</text>
<text text-anchor="middle" x="767.5" y="-7.5" font-family="Helvetica,sans-Serif" font-size="10.00">/CsaLaserLockSis8300LStandalone.cc</text>
</a>
</g>
</g>
<!-- Node1&#45;&gt;Node6 -->
<g id="edge5" class="edge">
<title>Node1&#45;&gt;Node6</title>
<path fill="none" stroke="midnightblue" d="M1322.89,-91.67C1220.6,-82.79 1033.92,-65.1 875.5,-42 872.58,-41.57 869.61,-41.13 866.62,-40.66"/>
<polygon fill="midnightblue" stroke="midnightblue" points="1322.86,-95.18 1333.12,-92.55 1323.46,-88.2 1322.86,-95.18"/>
</g>
<!-- Node7 -->
<g id="node7" class="node">
<title>Node7</title>
<g id="a_node7"><a xlink:href="_csa_laser_lock_status_validator_8cc.html" target="_top" xlink:title=" ">
<polygon fill="white" stroke="black" points="885,-0.5 885,-41.5 1058,-41.5 1058,-0.5 885,-0.5"/>
<text text-anchor="start" x="893" y="-29.5" font-family="Helvetica,sans-Serif" font-size="10.00">/scratch/dragon/sources</text>
<text text-anchor="start" x="893" y="-18.5" font-family="Helvetica,sans-Serif" font-size="10.00">/Consatt&#45;apps/src/laserlock</text>
<text text-anchor="middle" x="971.5" y="-7.5" font-family="Helvetica,sans-Serif" font-size="10.00">/CsaLaserLockStatusValidator.cc</text>
</a>
</g>
</g>
<!-- Node1&#45;&gt;Node7 -->
<g id="edge6" class="edge">
<title>Node1&#45;&gt;Node7</title>
<path fill="none" stroke="midnightblue" d="M1323.2,-86.08C1255.6,-75.3 1154.3,-58.62 1066.5,-42 1063.77,-41.48 1060.99,-40.95 1058.19,-40.4"/>
<polygon fill="midnightblue" stroke="midnightblue" points="1322.91,-89.58 1333.33,-87.69 1324.01,-82.66 1322.91,-89.58"/>
</g>
<!-- Node8 -->
<g id="node8" class="node">
<title>Node8</title>
<g id="a_node8"><a xlink:href="_csa_mzm_bias_ctrl_8cc.html" target="_top" xlink:title=" ">
<polygon fill="white" stroke="black" points="1076,-0.5 1076,-41.5 1225,-41.5 1225,-0.5 1076,-0.5"/>
<text text-anchor="start" x="1084" y="-29.5" font-family="Helvetica,sans-Serif" font-size="10.00">/scratch/dragon/sources</text>
<text text-anchor="start" x="1084" y="-18.5" font-family="Helvetica,sans-Serif" font-size="10.00">/Consatt&#45;apps/src/laserlock</text>
<text text-anchor="middle" x="1150.5" y="-7.5" font-family="Helvetica,sans-Serif" font-size="10.00">/CsaMzmBiasCtrl.cc</text>
</a>
</g>
</g>
<!-- Node1&#45;&gt;Node8 -->
<g id="edge7" class="edge">
<title>Node1&#45;&gt;Node8</title>
<path fill="none" stroke="midnightblue" d="M1325.59,-75.44C1290.25,-64.66 1248.35,-51.87 1214.41,-41.51"/>
<polygon fill="midnightblue" stroke="midnightblue" points="1324.79,-78.86 1335.38,-78.43 1326.83,-72.16 1324.79,-78.86"/>
</g>
<!-- Node9 -->
<g id="node9" class="node">
<title>Node9</title>
<g id="a_node9"><a xlink:href="_csa_test_sis8300_l_8cc.html" target="_top" xlink:title=" ">
<polygon fill="white" stroke="black" points="1243,-0.5 1243,-41.5 1392,-41.5 1392,-0.5 1243,-0.5"/>
<text text-anchor="start" x="1251" y="-29.5" font-family="Helvetica,sans-Serif" font-size="10.00">/scratch/dragon/sources</text>
<text text-anchor="start" x="1251" y="-18.5" font-family="Helvetica,sans-Serif" font-size="10.00">/Consatt&#45;apps/src/laserlock</text>
<text text-anchor="middle" x="1317.5" y="-7.5" font-family="Helvetica,sans-Serif" font-size="10.00">/CsaTestSis8300L.cc</text>
</a>
</g>
</g>
<!-- Node1&#45;&gt;Node9 -->
<g id="edge8" class="edge">
<title>Node1&#45;&gt;Node9</title>
<path fill="none" stroke="midnightblue" d="M1370.9,-71.49C1360.26,-61.63 1348.39,-50.63 1338.55,-41.51"/>
<polygon fill="midnightblue" stroke="midnightblue" points="1368.67,-74.2 1378.38,-78.43 1373.43,-69.06 1368.67,-74.2"/>
</g>
<!-- Node10 -->
<g id="node10" class="node">
<title>Node10</title>
<g id="a_node10"><a xlink:href="_csa_link_lock_8cc.html" target="_top" xlink:title=" ">
<polygon fill="white" stroke="black" points="1410,-0.5 1410,-41.5 1553,-41.5 1553,-0.5 1410,-0.5"/>
<text text-anchor="start" x="1418" y="-29.5" font-family="Helvetica,sans-Serif" font-size="10.00">/scratch/dragon/sources</text>
<text text-anchor="start" x="1418" y="-18.5" font-family="Helvetica,sans-Serif" font-size="10.00">/Consatt&#45;apps/src/linklock</text>
<text text-anchor="middle" x="1481.5" y="-7.5" font-family="Helvetica,sans-Serif" font-size="10.00">/CsaLinkLock.cc</text>
</a>
</g>
</g>
<!-- Node1&#45;&gt;Node10 -->
<g id="edge9" class="edge">
<title>Node1&#45;&gt;Node10</title>
<path fill="none" stroke="midnightblue" d="M1428.1,-71.49C1438.74,-61.63 1450.61,-50.63 1460.45,-41.51"/>
<polygon fill="midnightblue" stroke="midnightblue" points="1425.57,-69.06 1420.62,-78.43 1430.33,-74.2 1425.57,-69.06"/>
</g>
<!-- Node11 -->
<g id="node11" class="node">
<title>Node11</title>
<g id="a_node11"><a xlink:href="_csa_link_lock_ctrl_f_m_c25_8cc.html" target="_top" xlink:title=" ">
<polygon fill="white" stroke="black" points="1571,-0.5 1571,-41.5 1716,-41.5 1716,-0.5 1571,-0.5"/>
<text text-anchor="start" x="1579" y="-29.5" font-family="Helvetica,sans-Serif" font-size="10.00">/scratch/dragon/sources</text>
<text text-anchor="start" x="1579" y="-18.5" font-family="Helvetica,sans-Serif" font-size="10.00">/Consatt&#45;apps/src/linklock</text>
<text text-anchor="middle" x="1643.5" y="-7.5" font-family="Helvetica,sans-Serif" font-size="10.00">/CsaLinkLockCtrlFMC25.cc</text>
</a>
</g>
</g>
<!-- Node1&#45;&gt;Node11 -->
<g id="edge10" class="edge">
<title>Node1&#45;&gt;Node11</title>
<path fill="none" stroke="midnightblue" d="M1471.92,-75.44C1506.55,-64.66 1547.61,-51.87 1580.88,-41.51"/>
<polygon fill="midnightblue" stroke="midnightblue" points="1470.84,-72.11 1462.34,-78.43 1472.92,-78.8 1470.84,-72.11"/>
</g>
<!-- Node12 -->
<g id="node12" class="node">
<title>Node12</title>
<g id="a_node12"><a xlink:href="_csa_link_lock_status_validator_8cc.html" target="_top" xlink:title=" ">
<polygon fill="white" stroke="black" points="1734,-0.5 1734,-41.5 1901,-41.5 1901,-0.5 1734,-0.5"/>
<text text-anchor="start" x="1742" y="-29.5" font-family="Helvetica,sans-Serif" font-size="10.00">/scratch/dragon/sources</text>
<text text-anchor="start" x="1742" y="-18.5" font-family="Helvetica,sans-Serif" font-size="10.00">/Consatt&#45;apps/src/linklock</text>
<text text-anchor="middle" x="1817.5" y="-7.5" font-family="Helvetica,sans-Serif" font-size="10.00">/CsaLinkLockStatusValidator.cc</text>
</a>
</g>
</g>
<!-- Node1&#45;&gt;Node12 -->
<g id="edge11" class="edge">
<title>Node1&#45;&gt;Node12</title>
<path fill="none" stroke="midnightblue" d="M1475.46,-85.92C1541.64,-75.17 1640.11,-58.61 1725.5,-42 1728.23,-41.47 1731,-40.92 1733.8,-40.36"/>
<polygon fill="midnightblue" stroke="midnightblue" points="1474.84,-82.48 1465.53,-87.53 1475.96,-89.39 1474.84,-82.48"/>
</g>
<!-- Node13 -->
<g id="node13" class="node">
<title>Node13</title>
<g id="a_node13"><a xlink:href="_csa_lll_data_hub_8cc.html" target="_top" xlink:title=" ">
<polygon fill="white" stroke="black" points="1919.5,-0.5 1919.5,-41.5 2051.5,-41.5 2051.5,-0.5 1919.5,-0.5"/>
<text text-anchor="start" x="1927.5" y="-29.5" font-family="Helvetica,sans-Serif" font-size="10.00">/scratch/dragon/sources</text>
<text text-anchor="start" x="1927.5" y="-18.5" font-family="Helvetica,sans-Serif" font-size="10.00">/Consatt&#45;apps/src/misc</text>
<text text-anchor="middle" x="1985.5" y="-7.5" font-family="Helvetica,sans-Serif" font-size="10.00">/CsaLllDataHub.cc</text>
</a>
</g>
</g>
<!-- Node1&#45;&gt;Node13 -->
<g id="edge12" class="edge">
<title>Node1&#45;&gt;Node13</title>
<path fill="none" stroke="midnightblue" d="M1475.76,-93.26C1576.09,-86.21 1757.62,-70.59 1910.5,-42 1913.41,-41.46 1916.38,-40.86 1919.37,-40.22"/>
<polygon fill="midnightblue" stroke="midnightblue" points="1475.44,-89.78 1465.71,-93.96 1475.93,-96.76 1475.44,-89.78"/>
</g>
<!-- Node14 -->
<g id="node14" class="node">
<title>Node14</title>
<g id="a_node14"><a xlink:href="_csa_l_synch_fmc20_8cc.html" target="_top" xlink:title=" ">
<polygon fill="white" stroke="black" points="2069.5,-0.5 2069.5,-41.5 2201.5,-41.5 2201.5,-0.5 2069.5,-0.5"/>
<text text-anchor="start" x="2077.5" y="-29.5" font-family="Helvetica,sans-Serif" font-size="10.00">/scratch/dragon/sources</text>
<text text-anchor="start" x="2077.5" y="-18.5" font-family="Helvetica,sans-Serif" font-size="10.00">/Consatt&#45;apps/src/misc</text>
<text text-anchor="middle" x="2135.5" y="-7.5" font-family="Helvetica,sans-Serif" font-size="10.00">/CsaLSynchFmc20.cc</text>
</a>
</g>
</g>
<!-- Node1&#45;&gt;Node14 -->
<g id="edge13" class="edge">
<title>Node1&#45;&gt;Node14</title>
<path fill="none" stroke="midnightblue" d="M1475.79,-95.89C1599.41,-91.51 1850.83,-78.55 2060.5,-42 2063.42,-41.49 2066.39,-40.92 2069.39,-40.31"/>
<polygon fill="midnightblue" stroke="midnightblue" points="1475.54,-92.4 1465.67,-96.24 1475.78,-99.4 1475.54,-92.4"/>
</g>
<!-- Node15 -->
<g id="node15" class="node">
<title>Node15</title>
<g id="a_node15"><a xlink:href="_csa_tec_controller_8cc.html" target="_top" xlink:title=" ">
<polygon fill="white" stroke="black" points="2219.5,-0.5 2219.5,-41.5 2351.5,-41.5 2351.5,-0.5 2219.5,-0.5"/>
<text text-anchor="start" x="2227.5" y="-29.5" font-family="Helvetica,sans-Serif" font-size="10.00">/scratch/dragon/sources</text>
<text text-anchor="start" x="2227.5" y="-18.5" font-family="Helvetica,sans-Serif" font-size="10.00">/Consatt&#45;apps/src/misc</text>
<text text-anchor="middle" x="2285.5" y="-7.5" font-family="Helvetica,sans-Serif" font-size="10.00">/CsaTecController.cc</text>
</a>
</g>
</g>
<!-- Node1&#45;&gt;Node15 -->
<g id="edge14" class="edge">
<title>Node1&#45;&gt;Node15</title>
<path fill="none" stroke="midnightblue" d="M1475.79,-97.59C1620.19,-95.74 1943,-86.48 2210.5,-42 2213.42,-41.51 2216.4,-40.96 2219.4,-40.36"/>
<polygon fill="midnightblue" stroke="midnightblue" points="1475.66,-94.09 1465.7,-97.71 1475.74,-101.09 1475.66,-94.09"/>
</g>
<!-- Node16 -->
<g id="node16" class="node">
<title>Node16</title>
<g id="a_node16"><a xlink:href="_generic_utils_8cc.html" target="_top" xlink:title=" ">
<polygon fill="white" stroke="black" points="2369.5,-0.5 2369.5,-41.5 2501.5,-41.5 2501.5,-0.5 2369.5,-0.5"/>
<text text-anchor="start" x="2377.5" y="-29.5" font-family="Helvetica,sans-Serif" font-size="10.00">/scratch/dragon/sources</text>
<text text-anchor="start" x="2377.5" y="-18.5" font-family="Helvetica,sans-Serif" font-size="10.00">/Consatt&#45;apps/src/misc</text>
<text text-anchor="middle" x="2435.5" y="-7.5" font-family="Helvetica,sans-Serif" font-size="10.00">/GenericUtils.cc</text>
</a>
</g>
</g>
<!-- Node1&#45;&gt;Node16 -->
<g id="edge15" class="edge">
<title>Node1&#45;&gt;Node16</title>
<path fill="none" stroke="midnightblue" d="M1475.97,-98.77C1639.43,-99.28 2034.55,-94.4 2360.5,-42 2363.43,-41.53 2366.4,-40.99 2369.4,-40.4"/>
<polygon fill="midnightblue" stroke="midnightblue" points="1475.55,-95.27 1465.54,-98.73 1475.52,-102.27 1475.55,-95.27"/>
</g>
<!-- Node17 -->
<g id="node17" class="node">
<title>Node17</title>
<g id="a_node17"><a xlink:href="_unlock_event_data_store_queue_8cc.html" target="_top" xlink:title=" ">
<polygon fill="white" stroke="black" points="2520,-0.5 2520,-41.5 2695,-41.5 2695,-0.5 2520,-0.5"/>
<text text-anchor="start" x="2528" y="-29.5" font-family="Helvetica,sans-Serif" font-size="10.00">/scratch/dragon/sources</text>
<text text-anchor="start" x="2528" y="-18.5" font-family="Helvetica,sans-Serif" font-size="10.00">/Consatt&#45;apps/src/misc</text>
<text text-anchor="middle" x="2607.5" y="-7.5" font-family="Helvetica,sans-Serif" font-size="10.00">/UnlockEventDataStoreQueue.cc</text>
</a>
</g>
</g>
<!-- Node1&#45;&gt;Node17 -->
<g id="edge16" class="edge">
<title>Node1&#45;&gt;Node17</title>
<path fill="none" stroke="midnightblue" d="M1475.74,-98.16C1656.29,-97.68 2123.84,-91.31 2510.5,-42 2513.57,-41.61 2516.69,-41.17 2519.83,-40.7"/>
<polygon fill="midnightblue" stroke="midnightblue" points="1475.55,-94.66 1465.55,-98.18 1475.56,-101.66 1475.55,-94.66"/>
</g>
</g>
</svg>
