<?xml version="1.0" encoding="UTF-8" standalone="no"?>
<!DOCTYPE svg PUBLIC "-//W3C//DTD SVG 1.1//EN"
 "http://www.w3.org/Graphics/SVG/1.1/DTD/svg11.dtd">
<!-- Generated by graphviz version 2.43.0 (0)
 -->
<!-- Title: /scratch/dragon/sources/Consatt&#45;apps/include/laserlock/LaserLockStatusValidator.h Pages: 1 -->
<!--zoomable 203 -->

<svg id="main" version="1.1" xmlns="http://www.w3.org/2000/svg" xmlns:xlink="http://www.w3.org/1999/xlink" xml:space="preserve" onload="init(evt)">
<style type="text/css"><![CDATA[
.node, .edge {opacity: 0.7;}
.node.selected, .edge.selected {opacity: 1;}
.edge:hover path { stroke: red; }
.edge:hover polygon { stroke: red; fill: red; }
]]></style>

<defs>
  <circle id="rim" cx="0" cy="0" r="7"/>
  <circle id="rim2" cx="0" cy="0" r="3.5"/>
  <g id="zoomPlus">
    <use xlink:href="#rim" fill="#404040"><set attributeName="fill" to="#808080" begin="zoomplus.mouseover" end="zoomplus.mouseout"/></use>
    <path d="M-4,0h8M0,-4v8" fill="none" stroke="white" stroke-width="1.5" pointer-events="none"/>
  </g>
  <g id="zoomMin">
    <use xlink:href="#rim" fill="#404040"><set attributeName="fill" to="#808080" begin="zoomminus.mouseover" end="zoomminus.mouseout"/></use>
    <path d="M-4,0h8" fill="none" stroke="white" stroke-width="1.5" pointer-events="none"/>
  </g>
  <g id="arrowUp" transform="translate(30 24)">
    <use xlink:href="#rim"/>
    <path pointer-events="none" fill="none" stroke="white" stroke-width="1.5" d="M0,-3.0v7 M-2.5,-0.5L0,-3.0L2.5,-0.5"/>
  </g>
  <g id="arrowRight" transform="rotate(90) translate(36 -43)">
    <use xlink:href="#rim"/>
    <path pointer-events="none" fill="none" stroke="white" stroke-width="1.5" d="M0,-3.0v7 M-2.5,-0.5L0,-3.0L2.5,-0.5"/>
  </g>
  <g id="arrowDown" transform="rotate(180) translate(-30 -48)">
    <use xlink:href="#rim"/>
    <path pointer-events="none" fill="none" stroke="white" stroke-width="1.5" d="M0,-3.0v7 M-2.5,-0.5L0,-3.0L2.5,-0.5"/>
  </g>
  <g id="arrowLeft" transform="rotate(270) translate(-36 17)">
    <use xlink:href="#rim"/>
    <path pointer-events="none" fill="none" stroke="white" stroke-width="1.5" d="M0,-3.0v7 M-2.5,-0.5L0,-3.0L2.5,-0.5"/>
  </g>
  <g id="resetDef">
    <use xlink:href="#rim2" fill="#404040"><set attributeName="fill" to="#808080" begin="reset.mouseover" end="reset.mouseout"/></use>
  </g>
</defs>
<script type="application/ecmascript">
var viewWidth = 2131;
var viewHeight = 203;
var sectionId = 'dynsection-1';
</script>
<script type="application/ecmascript" xlink:href="svg.min.js"/>
<svg id="graph" class="graph">
<g id="viewport">
<title>/scratch/dragon/sources/Consatt&#45;apps/include/laserlock/LaserLockStatusValidator.h</title>
<!-- Node1 -->
<g id="Node000001" class="node">
<title>Node1</title>
<g id="a_Node000001"><a xlink:title=" ">
<polygon fill="#999999" stroke="#666666" points="957.5,-195 759.5,-195 759.5,-154 957.5,-154 957.5,-195"/>
<text text-anchor="start" x="767.5" y="-183" font-family="Helvetica,sans-Serif" font-size="10.00">/scratch/dragon/sources</text>
<text text-anchor="start" x="767.5" y="-172" font-family="Helvetica,sans-Serif" font-size="10.00">/Consatt&#45;apps/include</text>
<text text-anchor="middle" x="858.5" y="-161" font-family="Helvetica,sans-Serif" font-size="10.00">/laserlock/LaserLockStatusValidator.h</text>
</a>
</g>
</g>
<!-- Node2 -->
<g id="Node000002" class="node">
<title>Node2</title>
<g id="a_Node000002"><a xlink:href="_relock_script_action_manager_8h.html" target="_top" xlink:title=" ">
<polygon fill="white" stroke="#666666" points="678.5,-118 490.5,-118 490.5,-77 678.5,-77 678.5,-118"/>
<text text-anchor="start" x="498.5" y="-106" font-family="Helvetica,sans-Serif" font-size="10.00">/scratch/dragon/sources</text>
<text text-anchor="start" x="498.5" y="-95" font-family="Helvetica,sans-Serif" font-size="10.00">/Consatt&#45;apps/include</text>
<text text-anchor="middle" x="584.5" y="-84" font-family="Helvetica,sans-Serif" font-size="10.00">/misc/RelockScriptActionManager.h</text>
</a>
</g>
</g>
<!-- Node1&#45;&gt;Node2 -->
<g id="edge1_Node000001_Node000002" class="edge">
<title>Node1&#45;&gt;Node2</title>
<g id="a_edge1_Node000001_Node000002"><a xlink:title=" ">
<path fill="none" stroke="#63b8ff" d="M777.57,-151.35C738.97,-140.78 693.19,-128.25 655.89,-118.04"/>
<polygon fill="#63b8ff" stroke="#63b8ff" points="776.66,-154.73 787.22,-153.99 778.5,-147.97 776.66,-154.73"/>
</a>
</g>
</g>
<!-- Node3 -->
<g id="Node000003" class="node">
<title>Node3</title>
<g id="a_Node000003"><a xlink:href="_csa_laser_lock_8cc.html" target="_top" xlink:title=" ">
<polygon fill="white" stroke="#666666" points="149,-41 0,-41 0,0 149,0 149,-41"/>
<text text-anchor="start" x="8" y="-29" font-family="Helvetica,sans-Serif" font-size="10.00">/scratch/dragon/sources</text>
<text text-anchor="start" x="8" y="-18" font-family="Helvetica,sans-Serif" font-size="10.00">/Consatt&#45;apps/src/laserlock</text>
<text text-anchor="middle" x="74.5" y="-7" font-family="Helvetica,sans-Serif" font-size="10.00">/CsaLaserLock.cc</text>
</a>
</g>
</g>
<!-- Node1&#45;&gt;Node3 -->
<g id="edge10_Node000001_Node000003" class="edge">
<title>Node1&#45;&gt;Node3</title>
<g id="a_edge10_Node000001_Node000003"><a xlink:title=" ">
<path fill="none" stroke="#63b8ff" d="M748.87,-169.92C641.72,-164.55 474.6,-151.18 333.5,-118 254.79,-99.49 167.49,-63.54 117,-41.13"/>
<polygon fill="#63b8ff" stroke="#63b8ff" points="748.89,-173.42 759.05,-170.41 749.23,-166.43 748.89,-173.42"/>
</a>
</g>
</g>
<!-- Node4 -->
<g id="Node000004" class="node">
<title>Node4</title>
<g id="a_Node000004"><a xlink:href="_csa_laser_lock_generic_8cc.html" target="_top" xlink:title=" ">
<polygon fill="white" stroke="#666666" points="316,-41 167,-41 167,0 316,0 316,-41"/>
<text text-anchor="start" x="175" y="-29" font-family="Helvetica,sans-Serif" font-size="10.00">/scratch/dragon/sources</text>
<text text-anchor="start" x="175" y="-18" font-family="Helvetica,sans-Serif" font-size="10.00">/Consatt&#45;apps/src/laserlock</text>
<text text-anchor="middle" x="241.5" y="-7" font-family="Helvetica,sans-Serif" font-size="10.00">/CsaLaserLockGeneric.cc</text>
</a>
</g>
</g>
<!-- Node1&#45;&gt;Node4 -->
<g id="edge11_Node000001_Node000004" class="edge">
<title>Node1&#45;&gt;Node4</title>
<g id="a_edge11_Node000001_Node000004"><a xlink:title=" ">
<path fill="none" stroke="#63b8ff" d="M748.99,-169.06C662.33,-163.2 539.08,-149.59 435.5,-118 374.87,-99.51 310.01,-63.55 272.75,-41.13"/>
<polygon fill="#63b8ff" stroke="#63b8ff" points="748.9,-172.56 759.1,-169.72 749.35,-165.58 748.9,-172.56"/>
</a>
</g>
</g>
<!-- Node5 -->
<g id="Node000005" class="node">
<title>Node5</title>
<g id="a_Node000005"><a xlink:href="_csa_laser_lock_hed_8cc.html" target="_top" xlink:title=" ">
<polygon fill="white" stroke="#666666" points="483,-41 334,-41 334,0 483,0 483,-41"/>
<text text-anchor="start" x="342" y="-29" font-family="Helvetica,sans-Serif" font-size="10.00">/scratch/dragon/sources</text>
<text text-anchor="start" x="342" y="-18" font-family="Helvetica,sans-Serif" font-size="10.00">/Consatt&#45;apps/src/laserlock</text>
<text text-anchor="middle" x="408.5" y="-7" font-family="Helvetica,sans-Serif" font-size="10.00">/CsaLaserLockHed.cc</text>
</a>
</g>
</g>
<!-- Node1&#45;&gt;Node5 -->
<g id="edge12_Node000001_Node000005" class="edge">
<title>Node1&#45;&gt;Node5</title>
<g id="a_edge12_Node000001_Node000005"><a xlink:title=" ">
<path fill="none" stroke="#63b8ff" d="M749.1,-166.58C654.28,-158.93 525.58,-144.1 481.5,-118 450.95,-99.91 428.92,-63.65 417.48,-41.09"/>
<polygon fill="#63b8ff" stroke="#63b8ff" points="749.08,-170.09 759.32,-167.39 749.63,-163.11 749.08,-170.09"/>
</a>
</g>
</g>
<!-- Node6 -->
<g id="Node000006" class="node">
<title>Node6</title>
<g id="a_Node000006"><a xlink:href="_csa_laser_lock_lasy_8cc.html" target="_top" xlink:title=" ">
<polygon fill="white" stroke="#666666" points="835,-41 686,-41 686,0 835,0 835,-41"/>
<text text-anchor="start" x="694" y="-29" font-family="Helvetica,sans-Serif" font-size="10.00">/scratch/dragon/sources</text>
<text text-anchor="start" x="694" y="-18" font-family="Helvetica,sans-Serif" font-size="10.00">/Consatt&#45;apps/src/laserlock</text>
<text text-anchor="middle" x="760.5" y="-7" font-family="Helvetica,sans-Serif" font-size="10.00">/CsaLaserLockLasy.cc</text>
</a>
</g>
</g>
<!-- Node1&#45;&gt;Node6 -->
<g id="edge13_Node000001_Node000006" class="edge">
<title>Node1&#45;&gt;Node6</title>
<g id="a_edge13_Node000001_Node000006"><a xlink:title=" ">
<path fill="none" stroke="#63b8ff" d="M789.46,-149.14C776.33,-141.27 764.27,-131.08 756.5,-118 742.54,-94.5 747.98,-61.81 753.77,-41.15"/>
<polygon fill="#63b8ff" stroke="#63b8ff" points="787.77,-152.2 798.22,-153.98 791.16,-146.08 787.77,-152.2"/>
</a>
</g>
</g>
<!-- Node7 -->
<g id="Node000007" class="node">
<title>Node7</title>
<g id="a_Node000007"><a xlink:href="_csa_laser_lock_sis8300_l_standalone_8cc.html" target="_top" xlink:title=" ">
<polygon fill="white" stroke="#666666" points="1051.5,-41 853.5,-41 853.5,0 1051.5,0 1051.5,-41"/>
<text text-anchor="start" x="861.5" y="-29" font-family="Helvetica,sans-Serif" font-size="10.00">/scratch/dragon/sources</text>
<text text-anchor="start" x="861.5" y="-18" font-family="Helvetica,sans-Serif" font-size="10.00">/Consatt&#45;apps/src/laserlock</text>
<text text-anchor="middle" x="952.5" y="-7" font-family="Helvetica,sans-Serif" font-size="10.00">/CsaLaserLockSis8300LStandalone.cc</text>
</a>
</g>
</g>
<!-- Node1&#45;&gt;Node7 -->
<g id="edge14_Node000001_Node000007" class="edge">
<title>Node1&#45;&gt;Node7</title>
<g id="a_edge14_Node000001_Node000007"><a xlink:title=" ">
<path fill="none" stroke="#63b8ff" d="M798.62,-148.47C786.58,-140.55 775.48,-130.51 768.5,-118 759.62,-102.09 757.63,-91.63 768.5,-77 779.59,-62.07 815.93,-49.61 853.41,-40.31"/>
<polygon fill="#63b8ff" stroke="#63b8ff" points="797.15,-151.67 807.52,-153.86 800.78,-145.68 797.15,-151.67"/>
</a>
</g>
</g>
<!-- Node8 -->
<g id="Node000008" class="node">
<title>Node8</title>
<g id="a_Node000008"><a xlink:href="_laser_server_commands_8cc.html" target="_top" xlink:title=" ">
<polygon fill="white" stroke="#666666" points="1219,-41 1070,-41 1070,0 1219,0 1219,-41"/>
<text text-anchor="start" x="1078" y="-29" font-family="Helvetica,sans-Serif" font-size="10.00">/scratch/dragon/sources</text>
<text text-anchor="start" x="1078" y="-18" font-family="Helvetica,sans-Serif" font-size="10.00">/Consatt&#45;apps/src/laserlock</text>
<text text-anchor="middle" x="1144.5" y="-7" font-family="Helvetica,sans-Serif" font-size="10.00">/LaserServerCommands.cc</text>
</a>
</g>
</g>
<!-- Node1&#45;&gt;Node8 -->
<g id="edge19_Node000001_Node000008" class="edge">
<title>Node1&#45;&gt;Node8</title>
<g id="a_edge19_Node000001_Node000008"><a xlink:title=" ">
<path fill="none" stroke="#63b8ff" d="M826,-147.1C804.71,-126.65 783.96,-98.31 802.5,-77 840.5,-33.33 1003.58,-51.56 1060.5,-41 1063.59,-40.43 1066.74,-39.82 1069.92,-39.18"/>
<polygon fill="#63b8ff" stroke="#63b8ff" points="823.76,-149.79 833.49,-153.98 828.49,-144.64 823.76,-149.79"/>
</a>
</g>
</g>
<!-- Node10 -->
<g id="Node000010" class="node">
<title>Node10</title>
<g id="a_Node000010"><a xlink:href="_csa_coarse_tuning_multi_det_multi_act_algorithm_8cc.html" target="_top" xlink:title=" ">
<polygon fill="white" stroke="#666666" points="1058,-118 811,-118 811,-77 1058,-77 1058,-118"/>
<text text-anchor="start" x="819" y="-106" font-family="Helvetica,sans-Serif" font-size="10.00">/scratch/dragon/sources</text>
<text text-anchor="start" x="819" y="-95" font-family="Helvetica,sans-Serif" font-size="10.00">/Consatt&#45;apps/src/laserlock</text>
<text text-anchor="middle" x="934.5" y="-84" font-family="Helvetica,sans-Serif" font-size="10.00">/CsaCoarseTuningMultiDetMultiActAlgorithm.cc</text>
</a>
</g>
</g>
<!-- Node1&#45;&gt;Node10 -->
<g id="edge9_Node000001_Node000010" class="edge">
<title>Node1&#45;&gt;Node10</title>
<g id="a_edge9_Node000001_Node000010"><a xlink:title=" ">
<path fill="none" stroke="#63b8ff" d="M885.85,-146.51C895.37,-137.11 905.87,-126.76 914.67,-118.07"/>
<polygon fill="#63b8ff" stroke="#63b8ff" points="883.13,-144.28 878.47,-153.79 888.04,-149.26 883.13,-144.28"/>
</a>
</g>
</g>
<!-- Node11 -->
<g id="Node000011" class="node">
<title>Node11</title>
<g id="a_Node000011"><a xlink:href="_csa_test_sis8300_l_8cc.html" target="_top" xlink:title=" ">
<polygon fill="white" stroke="#666666" points="1225,-118 1076,-118 1076,-77 1225,-77 1225,-118"/>
<text text-anchor="start" x="1084" y="-106" font-family="Helvetica,sans-Serif" font-size="10.00">/scratch/dragon/sources</text>
<text text-anchor="start" x="1084" y="-95" font-family="Helvetica,sans-Serif" font-size="10.00">/Consatt&#45;apps/src/laserlock</text>
<text text-anchor="middle" x="1150.5" y="-84" font-family="Helvetica,sans-Serif" font-size="10.00">/CsaTestSis8300L.cc</text>
</a>
</g>
</g>
<!-- Node1&#45;&gt;Node11 -->
<g id="edge15_Node000001_Node000011" class="edge">
<title>Node1&#45;&gt;Node11</title>
<g id="a_edge15_Node000001_Node000011"><a xlink:title=" ">
<path fill="none" stroke="#63b8ff" d="M944.34,-151.45C986.09,-140.73 1035.79,-127.96 1075.93,-117.65"/>
<polygon fill="#63b8ff" stroke="#63b8ff" points="943.27,-148.11 934.46,-153.99 945.01,-154.89 943.27,-148.11"/>
</a>
</g>
</g>
<!-- Node12 -->
<g id="Node000012" class="node">
<title>Node12</title>
<g id="a_Node000012"><a xlink:href="_laser_lock_status_validator_8cc.html" target="_top" xlink:title=" ">
<polygon fill="white" stroke="#666666" points="1398,-118 1243,-118 1243,-77 1398,-77 1398,-118"/>
<text text-anchor="start" x="1251" y="-106" font-family="Helvetica,sans-Serif" font-size="10.00">/scratch/dragon/sources</text>
<text text-anchor="start" x="1251" y="-95" font-family="Helvetica,sans-Serif" font-size="10.00">/Consatt&#45;apps/src/laserlock</text>
<text text-anchor="middle" x="1320.5" y="-84" font-family="Helvetica,sans-Serif" font-size="10.00">/LaserLockStatusValidator.cc</text>
</a>
</g>
</g>
<!-- Node1&#45;&gt;Node12 -->
<g id="edge16_Node000001_Node000012" class="edge">
<title>Node1&#45;&gt;Node12</title>
<g id="a_edge16_Node000001_Node000012"><a xlink:title=" ">
<path fill="none" stroke="#63b8ff" d="M967.77,-159.62C1043,-149.51 1145.11,-134.71 1234.5,-118 1237.21,-117.49 1239.96,-116.96 1242.74,-116.41"/>
<polygon fill="#63b8ff" stroke="#63b8ff" points="967.25,-156.15 957.8,-160.95 968.18,-163.09 967.25,-156.15"/>
</a>
</g>
</g>
<!-- Node13 -->
<g id="Node000013" class="node">
<title>Node13</title>
<g id="a_Node000013"><a xlink:href="_laser_lock_system_reset_manager_8cc.html" target="_top" xlink:title=" ">
<polygon fill="white" stroke="#666666" points="1604.5,-118 1416.5,-118 1416.5,-77 1604.5,-77 1604.5,-118"/>
<text text-anchor="start" x="1424.5" y="-106" font-family="Helvetica,sans-Serif" font-size="10.00">/scratch/dragon/sources</text>
<text text-anchor="start" x="1424.5" y="-95" font-family="Helvetica,sans-Serif" font-size="10.00">/Consatt&#45;apps/src/laserlock</text>
<text text-anchor="middle" x="1510.5" y="-84" font-family="Helvetica,sans-Serif" font-size="10.00">/LaserLockSystemResetManager.cc</text>
</a>
</g>
</g>
<!-- Node1&#45;&gt;Node13 -->
<g id="edge17_Node000001_Node000013" class="edge">
<title>Node1&#45;&gt;Node13</title>
<g id="a_edge17_Node000001_Node000013"><a xlink:title=" ">
<path fill="none" stroke="#63b8ff" d="M968.2,-165.22C1079.27,-156.17 1255.8,-139.99 1407.5,-118 1410.38,-117.58 1413.31,-117.14 1416.26,-116.68"/>
<polygon fill="#63b8ff" stroke="#63b8ff" points="967.68,-161.75 957.99,-166.04 968.24,-168.72 967.68,-161.75"/>
</a>
</g>
</g>
<!-- Node14 -->
<g id="Node000014" class="node">
<title>Node14</title>
<g id="a_Node000014"><a xlink:href="_laser_lock_timing_validator_8cc.html" target="_top" xlink:title=" ">
<polygon fill="white" stroke="#666666" points="1780.5,-118 1622.5,-118 1622.5,-77 1780.5,-77 1780.5,-118"/>
<text text-anchor="start" x="1630.5" y="-106" font-family="Helvetica,sans-Serif" font-size="10.00">/scratch/dragon/sources</text>
<text text-anchor="start" x="1630.5" y="-95" font-family="Helvetica,sans-Serif" font-size="10.00">/Consatt&#45;apps/src/laserlock</text>
<text text-anchor="middle" x="1701.5" y="-84" font-family="Helvetica,sans-Serif" font-size="10.00">/LaserLockTimingValidator.cc</text>
</a>
</g>
</g>
<!-- Node1&#45;&gt;Node14 -->
<g id="edge18_Node000001_Node000014" class="edge">
<title>Node1&#45;&gt;Node14</title>
<g id="a_edge18_Node000001_Node000014"><a xlink:title=" ">
<path fill="none" stroke="#63b8ff" d="M968.03,-170.42C1115.4,-165.13 1385.4,-151.48 1613.5,-118 1616.44,-117.57 1619.43,-117.09 1622.45,-116.58"/>
<polygon fill="#63b8ff" stroke="#63b8ff" points="967.5,-166.93 957.63,-170.78 967.75,-173.93 967.5,-166.93"/>
</a>
</g>
</g>
<!-- Node15 -->
<g id="Node000015" class="node">
<title>Node15</title>
<g id="a_Node000015"><a xlink:href="_oxc_signal_search_laser_sys_8cc.html" target="_top" xlink:title=" ">
<polygon fill="white" stroke="#666666" points="1956.5,-118 1798.5,-118 1798.5,-77 1956.5,-77 1956.5,-118"/>
<text text-anchor="start" x="1806.5" y="-106" font-family="Helvetica,sans-Serif" font-size="10.00">/scratch/dragon/sources</text>
<text text-anchor="start" x="1806.5" y="-95" font-family="Helvetica,sans-Serif" font-size="10.00">/Consatt&#45;apps/src/laserlock</text>
<text text-anchor="middle" x="1877.5" y="-84" font-family="Helvetica,sans-Serif" font-size="10.00">/OxcSignalSearchLaserSys.cc</text>
</a>
</g>
</g>
<!-- Node1&#45;&gt;Node15 -->
<g id="edge20_Node000001_Node000015" class="edge">
<title>Node1&#45;&gt;Node15</title>
<g id="a_edge20_Node000001_Node000015"><a xlink:title=" ">
<path fill="none" stroke="#63b8ff" d="M967.75,-172.58C1142.25,-169.87 1494.3,-159.24 1789.5,-118 1792.44,-117.59 1795.44,-117.13 1798.45,-116.64"/>
<polygon fill="#63b8ff" stroke="#63b8ff" points="967.48,-169.09 957.53,-172.74 967.59,-176.09 967.48,-169.09"/>
</a>
</g>
</g>
<!-- Node16 -->
<g id="Node000016" class="node">
<title>Node16</title>
<g id="a_Node000016"><a xlink:href="_slow_signal_feedback_8cc.html" target="_top" xlink:title=" ">
<polygon fill="white" stroke="#666666" points="2123,-118 1974,-118 1974,-77 2123,-77 2123,-118"/>
<text text-anchor="start" x="1982" y="-106" font-family="Helvetica,sans-Serif" font-size="10.00">/scratch/dragon/sources</text>
<text text-anchor="start" x="1982" y="-95" font-family="Helvetica,sans-Serif" font-size="10.00">/Consatt&#45;apps/src/laserlock</text>
<text text-anchor="middle" x="2048.5" y="-84" font-family="Helvetica,sans-Serif" font-size="10.00">/SlowSignalFeedback.cc</text>
</a>
</g>
</g>
<!-- Node1&#45;&gt;Node16 -->
<g id="edge21_Node000001_Node000016" class="edge">
<title>Node1&#45;&gt;Node16</title>
<g id="a_edge21_Node000001_Node000016"><a xlink:title=" ">
<path fill="none" stroke="#63b8ff" d="M967.77,-170.54C1207.87,-163.61 1775.2,-144.9 1965.5,-118 1968.28,-117.61 1971.11,-117.16 1973.96,-116.68"/>
<polygon fill="#63b8ff" stroke="#63b8ff" points="967.52,-167.04 957.63,-170.83 967.72,-174.04 967.52,-167.04"/>
</a>
</g>
</g>
<!-- Node2&#45;&gt;Node3 -->
<g id="edge2_Node000002_Node000003" class="edge">
<title>Node2&#45;&gt;Node3</title>
<g id="a_edge2_Node000002_Node000003"><a xlink:title=" ">
<path fill="none" stroke="#63b8ff" d="M480.25,-85.94C393.51,-76.44 266.98,-60.92 157.5,-41 154.73,-40.5 151.92,-39.96 149.08,-39.4"/>
<polygon fill="#63b8ff" stroke="#63b8ff" points="480.04,-89.44 490.36,-87.04 480.8,-82.48 480.04,-89.44"/>
</a>
</g>
</g>
<!-- Node2&#45;&gt;Node4 -->
<g id="edge3_Node000002_Node000004" class="edge">
<title>Node2&#45;&gt;Node4</title>
<g id="a_edge3_Node000002_Node000004"><a xlink:title=" ">
<path fill="none" stroke="#63b8ff" d="M480.81,-74.87C433.15,-64.8 375.9,-52.52 324.5,-41 321.76,-40.38 318.96,-39.75 316.14,-39.11"/>
<polygon fill="#63b8ff" stroke="#63b8ff" points="480.33,-78.35 490.83,-76.99 481.77,-71.5 480.33,-78.35"/>
</a>
</g>
</g>
<!-- Node2&#45;&gt;Node5 -->
<g id="edge4_Node000002_Node000005" class="edge">
<title>Node2&#45;&gt;Node5</title>
<g id="a_edge4_Node000002_Node000005"><a xlink:title=" ">
<path fill="none" stroke="#63b8ff" d="M529.34,-73C505.24,-62.72 477.3,-50.82 454.36,-41.04"/>
<polygon fill="#63b8ff" stroke="#63b8ff" points="528.15,-76.29 538.72,-76.99 530.89,-69.85 528.15,-76.29"/>
</a>
</g>
</g>
<!-- Node2&#45;&gt;Node6 -->
<g id="edge5_Node000002_Node000006" class="edge">
<title>Node2&#45;&gt;Node6</title>
<g id="a_edge5_Node000002_Node000006"><a xlink:title=" ">
<path fill="none" stroke="#63b8ff" d="M639.66,-73C663.76,-62.72 691.7,-50.82 714.64,-41.04"/>
<polygon fill="#63b8ff" stroke="#63b8ff" points="638.11,-69.85 630.28,-76.99 640.85,-76.29 638.11,-69.85"/>
</a>
</g>
</g>
<!-- Node2&#45;&gt;Node7 -->
<g id="edge6_Node000002_Node000007" class="edge">
<title>Node2&#45;&gt;Node7</title>
<g id="a_edge6_Node000002_Node000007"><a xlink:title=" ">
<path fill="none" stroke="#63b8ff" d="M688.84,-75.23C741.54,-64.49 805.05,-51.55 856.53,-41.06"/>
<polygon fill="#63b8ff" stroke="#63b8ff" points="687.89,-71.86 678.79,-77.28 689.29,-78.72 687.89,-71.86"/>
</a>
</g>
</g>
<!-- Node2&#45;&gt;Node8 -->
<g id="edge7_Node000002_Node000008" class="edge">
<title>Node2&#45;&gt;Node8</title>
<g id="a_edge7_Node000002_Node000008"><a xlink:title=" ">
<path fill="none" stroke="#63b8ff" d="M688.94,-84.95C817.96,-70.59 1024.86,-47.19 1060.5,-41 1063.6,-40.46 1066.75,-39.88 1069.93,-39.27"/>
<polygon fill="#63b8ff" stroke="#63b8ff" points="688.19,-81.51 678.63,-86.1 688.96,-88.47 688.19,-81.51"/>
</a>
</g>
</g>
<!-- Node9 -->
<g id="Node000009" class="node">
<title>Node9</title>
<g id="a_Node000009"><a xlink:href="_relock_script_action_manager_8cc.html" target="_top" xlink:title=" ">
<polygon fill="white" stroke="#666666" points="668,-41 501,-41 501,0 668,0 668,-41"/>
<text text-anchor="start" x="509" y="-29" font-family="Helvetica,sans-Serif" font-size="10.00">/scratch/dragon/sources</text>
<text text-anchor="start" x="509" y="-18" font-family="Helvetica,sans-Serif" font-size="10.00">/Consatt&#45;apps/src/misc</text>
<text text-anchor="middle" x="584.5" y="-7" font-family="Helvetica,sans-Serif" font-size="10.00">/RelockScriptActionManager.cc</text>
</a>
</g>
</g>
<!-- Node2&#45;&gt;Node9 -->
<g id="edge8_Node000002_Node000009" class="edge">
<title>Node2&#45;&gt;Node9</title>
<g id="a_edge8_Node000002_Node000009"><a xlink:title=" ">
<path fill="none" stroke="#63b8ff" d="M584.5,-66.69C584.5,-58.08 584.5,-48.9 584.5,-41.07"/>
<polygon fill="#63b8ff" stroke="#63b8ff" points="581,-66.79 584.5,-76.79 588,-66.79 581,-66.79"/>
</a>
</g>
</g>
</g>
</svg>

<g id="navigator" transform="translate(0 0)" fill="#404254">
  <rect fill="#f2f5e9" fill-opacity="0.5" stroke="#606060" stroke-width=".5" x="0" y="0" width="60" height="60"/>
  <use id="zoomplus" xlink:href="#zoomPlus" x="17" y="9" onmousedown="handleZoom(evt,'in')"/>
  <use id="zoomminus" xlink:href="#zoomMin" x="42" y="9" onmousedown="handleZoom(evt,'out')"/>
  <use id="reset" xlink:href="#resetDef" x="30" y="36" onmousedown="handleReset()"/>
   <use id="arrowup" xlink:href="#arrowUp" x="0" y="0" onmousedown="handlePan(0,-1)"/>
  <use id="arrowright" xlink:href="#arrowRight" x="0" y="0" onmousedown="handlePan(1,0)"/>
  <use id="arrowdown" xlink:href="#arrowDown" x="0" y="0" onmousedown="handlePan(0,1)"/>
  <use id="arrowleft" xlink:href="#arrowLeft" x="0" y="0" onmousedown="handlePan(-1,0)"/>
</g>
<svg viewBox="0 0 15 15" width="100%" height="30px" preserveAspectRatio="xMaxYMin meet">
 <g id="arrow_out" transform="scale(0.3 0.3)">
  <a xlink:href="_laser_lock_status_validator_8h__dep__incl_org.svg" target="_base">
   <rect id="button" ry="5" rx="5" y="6" x="6" height="38" width="38"
        fill="#f2f5e9" fill-opacity="0.5" stroke="#606060" stroke-width="1.0"/>
   <path id="arrow"
     d="M 11.500037,31.436501 C 11.940474,20.09759 22.043105,11.32322 32.158766,21.979434 L 37.068811,17.246167 C 37.068811,17.246167 37.088388,32 37.088388,32 L 22.160133,31.978069 C 22.160133,31.978069 26.997745,27.140456 26.997745,27.140456 C 18.528582,18.264221 13.291696,25.230495 11.500037,31.436501 z"
     style="fill:#404040;"/>
  </a>
 </g>
</svg>

<style type='text/css'>
<![CDATA[
[data-mouse-over-selected='false'] { opacity: 0.7; }
[data-mouse-over-selected='true']  { opacity: 1.0; }
]]>
</style>
<script type="application/ecmascript"><![CDATA[
document.addEventListener('DOMContentLoaded', (event) => {
  highlightEdges();
  highlightAdjacentNodes();
});
]]></script>
</svg>
