<?xml version="1.0" encoding="UTF-8" standalone="no"?>
<!DOCTYPE svg PUBLIC "-//W3C//DTD SVG 1.1//EN"
 "http://www.w3.org/Graphics/SVG/1.1/DTD/svg11.dtd">
<!-- Generated by graphviz version 2.43.0 (0)
 -->
<!-- Title: CsaLsuOxcTuneSearchAlg::oxcSignalFloorDetection Pages: 1 -->
<svg width="574pt" height="50pt"
 viewBox="0.00 0.00 574.00 50.00" xmlns="http://www.w3.org/2000/svg" xmlns:xlink="http://www.w3.org/1999/xlink">
<g id="graph0" class="graph" transform="scale(1 1) rotate(0) translate(4 46)">
<title>CsaLsuOxcTuneSearchAlg::oxcSignalFloorDetection</title>
<polygon fill="white" stroke="transparent" points="-4,4 -4,-46 570,-46 570,4 -4,4"/>
<!-- Node1 -->
<g id="node1" class="node">
<title>Node1</title>
<g id="a_node1"><a xlink:title=" ">
<polygon fill="#bfbfbf" stroke="black" points="0,-6 0,-36 142,-36 142,-6 0,-6"/>
<text text-anchor="start" x="8" y="-24" font-family="Helvetica,sans-Serif" font-size="10.00">CsaLsuOxcTuneSearchAlg</text>
<text text-anchor="middle" x="71" y="-13" font-family="Helvetica,sans-Serif" font-size="10.00">::oxcSignalFloorDetection</text>
</a>
</g>
</g>
<!-- Node2 -->
<g id="node2" class="node">
<title>Node2</title>
<g id="a_node2"><a xlink:href="class_csa_lsu_oxc_tune_search_alg.html#ad4a1809691895e893f9dfa4b00e14894" target="_top" xlink:title=" ">
<polygon fill="white" stroke="black" points="178,-6 178,-36 357,-36 357,-6 178,-6"/>
<text text-anchor="start" x="186" y="-24" font-family="Helvetica,sans-Serif" font-size="10.00">CsaLsuOxcTuneSearchAlg</text>
<text text-anchor="middle" x="267.5" y="-13" font-family="Helvetica,sans-Serif" font-size="10.00">::oxcSignalFloorDetectionInternal</text>
</a>
</g>
</g>
<!-- Node1&#45;&gt;Node2 -->
<g id="edge1" class="edge">
<title>Node1&#45;&gt;Node2</title>
<path fill="none" stroke="midnightblue" d="M142.22,-21C150.51,-21 159.08,-21 167.68,-21"/>
<polygon fill="midnightblue" stroke="midnightblue" points="167.75,-24.5 177.75,-21 167.75,-17.5 167.75,-24.5"/>
</g>
<!-- Node3 -->
<g id="node3" class="node">
<title>Node3</title>
<g id="a_node3"><a xlink:href="class_csa_lsu_oxc_tune_search_alg.html#a1ce48167e2c6fb44b8bca9e3375779a3" target="_top" xlink:title=" ">
<polygon fill="white" stroke="black" points="393,-0.5 393,-41.5 566,-41.5 566,-0.5 393,-0.5"/>
<text text-anchor="start" x="401" y="-29.5" font-family="Helvetica,sans-Serif" font-size="10.00">CsaLsuOxcTuneSearchAlg</text>
<text text-anchor="start" x="401" y="-18.5" font-family="Helvetica,sans-Serif" font-size="10.00">::moveToPositionWithEndSwitch</text>
<text text-anchor="middle" x="479.5" y="-7.5" font-family="Helvetica,sans-Serif" font-size="10.00">Correction</text>
</a>
</g>
</g>
<!-- Node2&#45;&gt;Node3 -->
<g id="edge2" class="edge">
<title>Node2&#45;&gt;Node3</title>
<path fill="none" stroke="midnightblue" d="M357.25,-21C365.61,-21 374.11,-21 382.53,-21"/>
<polygon fill="midnightblue" stroke="midnightblue" points="382.74,-24.5 392.74,-21 382.74,-17.5 382.74,-24.5"/>
</g>
</g>
</svg>
