<?xml version="1.0" encoding="UTF-8" standalone="no"?>
<!DOCTYPE svg PUBLIC "-//W3C//DTD SVG 1.1//EN"
 "http://www.w3.org/Graphics/SVG/1.1/DTD/svg11.dtd">
<!-- Generated by graphviz version 2.43.0 (0)
 -->
<!-- Title: EqLaserLockSis8300LStandaloneServer::post_init Pages: 1 -->
<svg width="706pt" height="50pt"
 viewBox="0.00 0.00 706.00 50.00" xmlns="http://www.w3.org/2000/svg" xmlns:xlink="http://www.w3.org/1999/xlink">
<g id="graph0" class="graph" transform="scale(1 1) rotate(0) translate(4 46)">
<title>EqLaserLockSis8300LStandaloneServer::post_init</title>
<polygon fill="white" stroke="transparent" points="-4,4 -4,-46 702,-46 702,4 -4,4"/>
<!-- Node1 -->
<g id="node1" class="node">
<title>Node1</title>
<g id="a_node1"><a xlink:title=" ">
<polygon fill="#bfbfbf" stroke="black" points="0,-6 0,-36 176,-36 176,-6 0,-6"/>
<text text-anchor="start" x="8" y="-24" font-family="Helvetica,sans-Serif" font-size="10.00">EqLaserLockSis8300LStandalone</text>
<text text-anchor="middle" x="88" y="-13" font-family="Helvetica,sans-Serif" font-size="10.00">Server::post_init</text>
</a>
</g>
</g>
<!-- Node2 -->
<g id="node2" class="node">
<title>Node2</title>
<g id="a_node2"><a xlink:href="_eq_laser_lock_sis8300_l_standalone_server_8cc.html#a272dda1f7be47cd17fefe8c4942e7b9f" target="_top" xlink:title=" ">
<polygon fill="white" stroke="black" points="212,-0.5 212,-41.5 331,-41.5 331,-0.5 212,-0.5"/>
<text text-anchor="start" x="220" y="-29.5" font-family="Helvetica,sans-Serif" font-size="10.00">sig_usr1_zmq_cb_for</text>
<text text-anchor="start" x="220" y="-18.5" font-family="Helvetica,sans-Serif" font-size="10.00">_laser_lock_sis8300l</text>
<text text-anchor="middle" x="271.5" y="-7.5" font-family="Helvetica,sans-Serif" font-size="10.00">_standalone_server</text>
</a>
</g>
</g>
<!-- Node1&#45;&gt;Node2 -->
<g id="edge1" class="edge">
<title>Node1&#45;&gt;Node2</title>
<path fill="none" stroke="midnightblue" d="M176.03,-21C184.7,-21 193.41,-21 201.85,-21"/>
<polygon fill="midnightblue" stroke="midnightblue" points="201.99,-24.5 211.99,-21 201.99,-17.5 201.99,-24.5"/>
</g>
<!-- Node3 -->
<g id="node3" class="node">
<title>Node3</title>
<g id="a_node3"><a xlink:href="class_eq_laser_lock_sis8300_l_standalone_server.html#a30e9c5d986c050f532ac4aa6fa44aaa3" target="_top" xlink:title=" ">
<polygon fill="white" stroke="black" points="367,-6 367,-36 543,-36 543,-6 367,-6"/>
<text text-anchor="start" x="375" y="-24" font-family="Helvetica,sans-Serif" font-size="10.00">EqLaserLockSis8300LStandalone</text>
<text text-anchor="middle" x="455" y="-13" font-family="Helvetica,sans-Serif" font-size="10.00">Server::interrupt_usr1_core</text>
</a>
</g>
</g>
<!-- Node2&#45;&gt;Node3 -->
<g id="edge2" class="edge">
<title>Node2&#45;&gt;Node3</title>
<path fill="none" stroke="midnightblue" d="M331.18,-21C339.37,-21 347.95,-21 356.62,-21"/>
<polygon fill="midnightblue" stroke="midnightblue" points="356.82,-24.5 366.82,-21 356.82,-17.5 356.82,-24.5"/>
</g>
<!-- Node4 -->
<g id="node4" class="node">
<title>Node4</title>
<g id="a_node4"><a xlink:href="class_doocs_helper.html#a64b424cbaedbbac5510ba37cab4e598d" target="_top" xlink:title=" ">
<polygon fill="white" stroke="black" points="579,-11.5 579,-30.5 698,-30.5 698,-11.5 579,-11.5"/>
<text text-anchor="middle" x="638.5" y="-18.5" font-family="Helvetica,sans-Serif" font-size="10.00">DoocsHelper::update</text>
</a>
</g>
</g>
<!-- Node3&#45;&gt;Node4 -->
<g id="edge3" class="edge">
<title>Node3&#45;&gt;Node4</title>
<path fill="none" stroke="midnightblue" d="M543.03,-21C551.7,-21 560.41,-21 568.85,-21"/>
<polygon fill="midnightblue" stroke="midnightblue" points="568.99,-24.5 578.99,-21 568.99,-17.5 568.99,-24.5"/>
</g>
</g>
</svg>
