<?xml version="1.0" encoding="UTF-8" standalone="no"?>
<!DOCTYPE svg PUBLIC "-//W3C//DTD SVG 1.1//EN"
 "http://www.w3.org/Graphics/SVG/1.1/DTD/svg11.dtd">
<!-- Generated by graphviz version 2.43.0 (0)
 -->
<!-- Title: /scratch/dragon/sources/ChimeraTK&#45;ControlSystemAdapter&#45;DoocsAdapter/src/VariableMapper.cc Pages: 1 -->
<!--zoomable 225 -->

<svg id="main" version="1.1" xmlns="http://www.w3.org/2000/svg" xmlns:xlink="http://www.w3.org/1999/xlink" xml:space="preserve" onload="init(evt)">
<style type="text/css"><![CDATA[
.node, .edge {opacity: 0.7;}
.node.selected, .edge.selected {opacity: 1;}
.edge:hover path { stroke: red; }
.edge:hover polygon { stroke: red; fill: red; }
]]></style>

<defs>
  <circle id="rim" cx="0" cy="0" r="7"/>
  <circle id="rim2" cx="0" cy="0" r="3.5"/>
  <g id="zoomPlus">
    <use xlink:href="#rim" fill="#404040"><set attributeName="fill" to="#808080" begin="zoomplus.mouseover" end="zoomplus.mouseout"/></use>
    <path d="M-4,0h8M0,-4v8" fill="none" stroke="white" stroke-width="1.5" pointer-events="none"/>
  </g>
  <g id="zoomMin">
    <use xlink:href="#rim" fill="#404040"><set attributeName="fill" to="#808080" begin="zoomminus.mouseover" end="zoomminus.mouseout"/></use>
    <path d="M-4,0h8" fill="none" stroke="white" stroke-width="1.5" pointer-events="none"/>
  </g>
  <g id="arrowUp" transform="translate(30 24)">
    <use xlink:href="#rim"/>
    <path pointer-events="none" fill="none" stroke="white" stroke-width="1.5" d="M0,-3.0v7 M-2.5,-0.5L0,-3.0L2.5,-0.5"/>
  </g>
  <g id="arrowRight" transform="rotate(90) translate(36 -43)">
    <use xlink:href="#rim"/>
    <path pointer-events="none" fill="none" stroke="white" stroke-width="1.5" d="M0,-3.0v7 M-2.5,-0.5L0,-3.0L2.5,-0.5"/>
  </g>
  <g id="arrowDown" transform="rotate(180) translate(-30 -48)">
    <use xlink:href="#rim"/>
    <path pointer-events="none" fill="none" stroke="white" stroke-width="1.5" d="M0,-3.0v7 M-2.5,-0.5L0,-3.0L2.5,-0.5"/>
  </g>
  <g id="arrowLeft" transform="rotate(270) translate(-36 17)">
    <use xlink:href="#rim"/>
    <path pointer-events="none" fill="none" stroke="white" stroke-width="1.5" d="M0,-3.0v7 M-2.5,-0.5L0,-3.0L2.5,-0.5"/>
  </g>
  <g id="resetDef">
    <use xlink:href="#rim2" fill="#404040"><set attributeName="fill" to="#808080" begin="reset.mouseover" end="reset.mouseout"/></use>
  </g>
</defs>
<script type="application/ecmascript">
var viewWidth = 897;
var viewHeight = 225;
var sectionId = 'dynsection-0';
</script>
<script type="application/ecmascript" xlink:href="svg.min.js"/>
<svg id="graph" class="graph">
<g id="viewport">
<title>/scratch/dragon/sources/ChimeraTK&#45;ControlSystemAdapter&#45;DoocsAdapter/src/VariableMapper.cc</title>
<!-- Node1 -->
<g id="Node000001" class="node">
<title>Node1</title>
<g id="a_Node000001"><a xlink:title=" ">
<polygon fill="#999999" stroke="#666666" points="571.5,-217 373.5,-217 373.5,-176 571.5,-176 571.5,-217"/>
<text text-anchor="start" x="381.5" y="-205" font-family="Helvetica,sans-Serif" font-size="10.00">/scratch/dragon/sources</text>
<text text-anchor="start" x="381.5" y="-194" font-family="Helvetica,sans-Serif" font-size="10.00">/ChimeraTK&#45;ControlSystemAdapter</text>
<text text-anchor="middle" x="472.5" y="-183" font-family="Helvetica,sans-Serif" font-size="10.00">&#45;DoocsAdapter/src/VariableMapper.cc</text>
</a>
</g>
</g>
<!-- Node2 -->
<g id="Node000002" class="node">
<title>Node2</title>
<g id="a_Node000002"><a xlink:href="_variable_mapper_8h.html" target="_top" xlink:title=" ">
<polygon fill="white" stroke="#666666" points="388,-140 287,-140 287,-121 388,-121 388,-140"/>
<text text-anchor="middle" x="337.5" y="-128" font-family="Helvetica,sans-Serif" font-size="10.00">VariableMapper.h</text>
</a>
</g>
</g>
<!-- Node1&#45;&gt;Node2 -->
<g id="edge1_Node000001_Node000002" class="edge">
<title>Node1&#45;&gt;Node2</title>
<g id="a_edge1_Node000001_Node000002"><a xlink:title=" ">
<path fill="none" stroke="#63b8ff" d="M431.26,-175.95C409.64,-165.7 383.75,-153.43 364.66,-144.38"/>
<polygon fill="#63b8ff" stroke="#63b8ff" points="366.16,-141.21 355.62,-140.09 363.16,-147.54 366.16,-141.21"/>
</a>
</g>
</g>
<!-- Node5 -->
<g id="Node000005" class="node">
<title>Node5</title>
<g id="a_Node000005"><a xlink:title=" ">
<polygon fill="#e0e0e0" stroke="#999999" points="227.5,-24.5 83.5,-24.5 83.5,-5.5 227.5,-5.5 227.5,-24.5"/>
<text text-anchor="middle" x="155.5" y="-12.5" font-family="Helvetica,sans-Serif" font-size="10.00">ChimeraTK/RegisterPath.h</text>
</a>
</g>
</g>
<!-- Node1&#45;&gt;Node5 -->
<g id="edge18_Node000001_Node000005" class="edge">
<title>Node1&#45;&gt;Node5</title>
<g id="a_edge18_Node000001_Node000005"><a xlink:title=" ">
<path fill="none" stroke="#63b8ff" d="M373.23,-183.48C262.75,-167.75 94.91,-136.01 58.5,-85 39.98,-59.05 79.01,-39.32 112.95,-27.73"/>
<polygon fill="#63b8ff" stroke="#63b8ff" points="114.36,-30.96 122.79,-24.54 112.2,-24.3 114.36,-30.96"/>
</a>
</g>
</g>
<!-- Node7 -->
<g id="Node000007" class="node">
<title>Node7</title>
<g id="a_Node000007"><a xlink:title=" ">
<polygon fill="#e0e0e0" stroke="#999999" points="45,-24.5 0,-24.5 0,-5.5 45,-5.5 45,-24.5"/>
<text text-anchor="middle" x="22.5" y="-12.5" font-family="Helvetica,sans-Serif" font-size="10.00">utility</text>
</a>
</g>
</g>
<!-- Node1&#45;&gt;Node7 -->
<g id="edge24_Node000001_Node000007" class="edge">
<title>Node1&#45;&gt;Node7</title>
<g id="a_edge24_Node000001_Node000007"><a xlink:title=" ">
<path fill="none" stroke="#63b8ff" d="M373.37,-186.6C282.92,-177.34 156.7,-161.23 111.5,-140 78.16,-124.34 70.57,-115.21 49.5,-85 38.71,-69.53 31.42,-49.15 27.17,-34.55"/>
<polygon fill="#63b8ff" stroke="#63b8ff" points="30.49,-33.43 24.49,-24.7 23.73,-35.26 30.49,-33.43"/>
</a>
</g>
</g>
<!-- Node9 -->
<g id="Node000009" class="node">
<title>Node9</title>
<g id="a_Node000009"><a xlink:title=" ">
<polygon fill="#e0e0e0" stroke="#999999" points="127.5,-85 67.5,-85 67.5,-66 127.5,-66 127.5,-85"/>
<text text-anchor="middle" x="97.5" y="-73" font-family="Helvetica,sans-Serif" font-size="10.00">iostream</text>
</a>
</g>
</g>
<!-- Node1&#45;&gt;Node9 -->
<g id="edge21_Node000001_Node000009" class="edge">
<title>Node1&#45;&gt;Node9</title>
<g id="a_edge21_Node000001_Node000009"><a xlink:title=" ">
<path fill="none" stroke="#63b8ff" d="M400.34,-175.94C363.69,-165.74 318.56,-152.75 278.5,-140 226.14,-123.34 166.09,-101.78 130.01,-88.55"/>
<polygon fill="#63b8ff" stroke="#63b8ff" points="131.09,-85.22 120.5,-85.06 128.67,-91.79 131.09,-85.22"/>
</a>
</g>
</g>
<!-- Node15 -->
<g id="Node000015" class="node">
<title>Node15</title>
<g id="a_Node000015"><a xlink:href="split_string_at_first_slash_8h.html" target="_top" xlink:title=" ">
<polygon fill="white" stroke="#666666" points="539,-140 406,-140 406,-121 539,-121 539,-140"/>
<text text-anchor="middle" x="472.5" y="-128" font-family="Helvetica,sans-Serif" font-size="10.00">splitStringAtFirstSlash.h</text>
</a>
</g>
</g>
<!-- Node1&#45;&gt;Node15 -->
<g id="edge16_Node000001_Node000015" class="edge">
<title>Node1&#45;&gt;Node15</title>
<g id="a_edge16_Node000001_Node000015"><a xlink:title=" ">
<path fill="none" stroke="#63b8ff" d="M472.5,-175.95C472.5,-167.85 472.5,-158.5 472.5,-150.47"/>
<polygon fill="#63b8ff" stroke="#63b8ff" points="476,-150.26 472.5,-140.26 469,-150.26 476,-150.26"/>
</a>
</g>
</g>
<!-- Node16 -->
<g id="Node000016" class="node">
<title>Node16</title>
<g id="a_Node000016"><a xlink:title=" ">
<polygon fill="#e0e0e0" stroke="#999999" points="680,-140 557,-140 557,-121 680,-121 680,-140"/>
<text text-anchor="middle" x="618.5" y="-128" font-family="Helvetica,sans-Serif" font-size="10.00">libxml++/libxml++.h</text>
</a>
</g>
</g>
<!-- Node1&#45;&gt;Node16 -->
<g id="edge19_Node000001_Node000016" class="edge">
<title>Node1&#45;&gt;Node16</title>
<g id="a_edge19_Node000001_Node000016"><a xlink:title=" ">
<path fill="none" stroke="#63b8ff" d="M517.1,-175.95C540.7,-165.6 568.99,-153.2 589.69,-144.13"/>
<polygon fill="#63b8ff" stroke="#63b8ff" points="591.15,-147.31 598.9,-140.09 588.34,-140.9 591.15,-147.31"/>
</a>
</g>
</g>
<!-- Node17 -->
<g id="Node000017" class="node">
<title>Node17</title>
<g id="a_Node000017"><a xlink:title=" ">
<polygon fill="#e0e0e0" stroke="#999999" points="762.5,-140 698.5,-140 698.5,-121 762.5,-121 762.5,-140"/>
<text text-anchor="middle" x="730.5" y="-128" font-family="Helvetica,sans-Serif" font-size="10.00">algorithm</text>
</a>
</g>
</g>
<!-- Node1&#45;&gt;Node17 -->
<g id="edge20_Node000001_Node000017" class="edge">
<title>Node1&#45;&gt;Node17</title>
<g id="a_edge20_Node000001_Node000017"><a xlink:title=" ">
<path fill="none" stroke="#63b8ff" d="M551.31,-175.95C596.42,-164.76 651.22,-151.17 688.25,-141.98"/>
<polygon fill="#63b8ff" stroke="#63b8ff" points="689.34,-145.32 698.2,-139.51 687.65,-138.52 689.34,-145.32"/>
</a>
</g>
</g>
<!-- Node18 -->
<g id="Node000018" class="node">
<title>Node18</title>
<g id="a_Node000018"><a xlink:title=" ">
<polygon fill="#e0e0e0" stroke="#999999" points="826.5,-140 780.5,-140 780.5,-121 826.5,-121 826.5,-140"/>
<text text-anchor="middle" x="803.5" y="-128" font-family="Helvetica,sans-Serif" font-size="10.00">locale</text>
</a>
</g>
</g>
<!-- Node1&#45;&gt;Node18 -->
<g id="edge22_Node000001_Node000018" class="edge">
<title>Node1&#45;&gt;Node18</title>
<g id="a_edge22_Node000001_Node000018"><a xlink:title=" ">
<path fill="none" stroke="#63b8ff" d="M571.53,-179.07C627.32,-169.35 698.46,-156.18 770.33,-140.12"/>
<polygon fill="#63b8ff" stroke="#63b8ff" points="771.49,-143.45 780.48,-137.84 769.95,-136.62 771.49,-143.45"/>
</a>
</g>
</g>
<!-- Node19 -->
<g id="Node000019" class="node">
<title>Node19</title>
<g id="a_Node000019"><a xlink:title=" ">
<polygon fill="#e0e0e0" stroke="#999999" points="888.5,-140 844.5,-140 844.5,-121 888.5,-121 888.5,-140"/>
<text text-anchor="middle" x="866.5" y="-128" font-family="Helvetica,sans-Serif" font-size="10.00">regex</text>
</a>
</g>
</g>
<!-- Node1&#45;&gt;Node19 -->
<g id="edge23_Node000001_Node000019" class="edge">
<title>Node1&#45;&gt;Node19</title>
<g id="a_edge23_Node000001_Node000019"><a xlink:title=" ">
<path fill="none" stroke="#63b8ff" d="M571.66,-183.49C642.45,-174.19 740.01,-159.86 834.24,-140.06"/>
<polygon fill="#63b8ff" stroke="#63b8ff" points="835.17,-143.44 844.22,-137.94 833.72,-136.59 835.17,-143.44"/>
</a>
</g>
</g>
<!-- Node3 -->
<g id="Node000003" class="node">
<title>Node3</title>
<g id="a_Node000003"><a xlink:href="_property_description_8h.html" target="_top" xlink:title=" ">
<polygon fill="white" stroke="#666666" points="459.5,-85 337.5,-85 337.5,-66 459.5,-66 459.5,-85"/>
<text text-anchor="middle" x="398.5" y="-73" font-family="Helvetica,sans-Serif" font-size="10.00">PropertyDescription.h</text>
</a>
</g>
</g>
<!-- Node2&#45;&gt;Node3 -->
<g id="edge2_Node000002_Node000003" class="edge">
<title>Node2&#45;&gt;Node3</title>
<g id="a_edge2_Node000002_Node000003"><a xlink:title=" ">
<path fill="none" stroke="#63b8ff" d="M347.3,-120.98C356.32,-113.15 369.91,-101.34 380.82,-91.86"/>
<polygon fill="#63b8ff" stroke="#63b8ff" points="383.27,-94.37 388.52,-85.17 378.68,-89.09 383.27,-94.37"/>
</a>
</g>
</g>
<!-- Node2&#45;&gt;Node5 -->
<g id="edge7_Node000002_Node000005" class="edge">
<title>Node2&#45;&gt;Node5</title>
<g id="a_edge7_Node000002_Node000005"><a xlink:title=" ">
<path fill="none" stroke="#63b8ff" d="M286.86,-128.39C250.91,-124.9 203.99,-114.42 174.5,-85 161.19,-71.72 156.98,-50.04 155.76,-34.53"/>
<polygon fill="#63b8ff" stroke="#63b8ff" points="159.25,-34.36 155.31,-24.53 152.26,-34.67 159.25,-34.36"/>
</a>
</g>
</g>
<!-- Node6 -->
<g id="Node000006" class="node">
<title>Node6</title>
<g id="a_Node000006"><a xlink:title=" ">
<polygon fill="#e0e0e0" stroke="#999999" points="793.5,-24.5 749.5,-24.5 749.5,-5.5 793.5,-5.5 793.5,-24.5"/>
<text text-anchor="middle" x="771.5" y="-12.5" font-family="Helvetica,sans-Serif" font-size="10.00">string</text>
</a>
</g>
</g>
<!-- Node2&#45;&gt;Node6 -->
<g id="edge14_Node000002_Node000006" class="edge">
<title>Node2&#45;&gt;Node6</title>
<g id="a_edge14_Node000002_Node000006"><a xlink:title=" ">
<path fill="none" stroke="#63b8ff" d="M388.22,-122.17C391.36,-121.76 394.47,-121.37 397.5,-121 476.21,-111.44 691.93,-136.18 752.5,-85 766.86,-72.87 770.88,-50.98 771.77,-35.1"/>
<polygon fill="#63b8ff" stroke="#63b8ff" points="775.28,-34.89 771.97,-24.83 768.28,-34.76 775.28,-34.89"/>
</a>
</g>
</g>
<!-- Node8 -->
<g id="Node000008" class="node">
<title>Node8</title>
<g id="a_Node000008"><a xlink:title=" ">
<polygon fill="#e0e0e0" stroke="#999999" points="561.5,-85 477.5,-85 477.5,-66 561.5,-66 561.5,-85"/>
<text text-anchor="middle" x="519.5" y="-73" font-family="Helvetica,sans-Serif" font-size="10.00">boost/any.hpp</text>
</a>
</g>
</g>
<!-- Node2&#45;&gt;Node8 -->
<g id="edge8_Node000002_Node000008" class="edge">
<title>Node2&#45;&gt;Node8</title>
<g id="a_edge8_Node000002_Node000008"><a xlink:title=" ">
<path fill="none" stroke="#63b8ff" d="M366.74,-120.98C397.56,-112.01 446.28,-97.82 480.39,-87.89"/>
<polygon fill="#63b8ff" stroke="#63b8ff" points="481.41,-91.24 490.03,-85.08 479.45,-84.52 481.41,-91.24"/>
</a>
</g>
</g>
<!-- Node2&#45;&gt;Node9 -->
<g id="edge9_Node000002_Node000009" class="edge">
<title>Node2&#45;&gt;Node9</title>
<g id="a_edge9_Node000002_Node000009"><a xlink:title=" ">
<path fill="none" stroke="#63b8ff" d="M298.94,-120.98C254.69,-111.21 182.45,-95.26 137.57,-85.35"/>
<polygon fill="#63b8ff" stroke="#63b8ff" points="138.13,-81.89 127.61,-83.15 136.62,-88.72 138.13,-81.89"/>
</a>
</g>
</g>
<!-- Node10 -->
<g id="Node000010" class="node">
<title>Node10</title>
<g id="a_Node000010"><a xlink:title=" ">
<polygon fill="#e0e0e0" stroke="#999999" points="611.5,-85 579.5,-85 579.5,-66 611.5,-66 611.5,-85"/>
<text text-anchor="middle" x="595.5" y="-73" font-family="Helvetica,sans-Serif" font-size="10.00">list</text>
</a>
</g>
</g>
<!-- Node2&#45;&gt;Node10 -->
<g id="edge10_Node000002_Node000010" class="edge">
<title>Node2&#45;&gt;Node10</title>
<g id="a_edge10_Node000002_Node000010"><a xlink:title=" ">
<path fill="none" stroke="#63b8ff" d="M388.41,-121.87C433.69,-114.62 501.83,-102.55 569.49,-84.96"/>
<polygon fill="#63b8ff" stroke="#63b8ff" points="570.69,-88.26 579.46,-82.32 568.9,-81.49 570.69,-88.26"/>
</a>
</g>
</g>
<!-- Node11 -->
<g id="Node000011" class="node">
<title>Node11</title>
<g id="a_Node000011"><a xlink:title=" ">
<polygon fill="#e0e0e0" stroke="#999999" points="667.5,-85 629.5,-85 629.5,-66 667.5,-66 667.5,-85"/>
<text text-anchor="middle" x="648.5" y="-73" font-family="Helvetica,sans-Serif" font-size="10.00">map</text>
</a>
</g>
</g>
<!-- Node2&#45;&gt;Node11 -->
<g id="edge11_Node000002_Node000011" class="edge">
<title>Node2&#45;&gt;Node11</title>
<g id="a_edge11_Node000002_Node000011"><a xlink:title=" ">
<path fill="none" stroke="#63b8ff" d="M388,-121.95C456.92,-111.59 576.05,-93.47 619.4,-84.83"/>
<polygon fill="#63b8ff" stroke="#63b8ff" points="620.27,-88.22 629.31,-82.71 618.8,-81.38 620.27,-88.22"/>
</a>
</g>
</g>
<!-- Node12 -->
<g id="Node000012" class="node">
<title>Node12</title>
<g id="a_Node000012"><a xlink:title=" ">
<polygon fill="#e0e0e0" stroke="#999999" points="743.5,-85 685.5,-85 685.5,-66 743.5,-66 743.5,-85"/>
<text text-anchor="middle" x="714.5" y="-73" font-family="Helvetica,sans-Serif" font-size="10.00">memory</text>
</a>
</g>
</g>
<!-- Node2&#45;&gt;Node12 -->
<g id="edge12_Node000002_Node000012" class="edge">
<title>Node2&#45;&gt;Node12</title>
<g id="a_edge12_Node000002_Node000012"><a xlink:title=" ">
<path fill="none" stroke="#63b8ff" d="M388.23,-122.27C391.37,-121.83 394.48,-121.41 397.5,-121 518.13,-104.67 551.61,-106.55 674.88,-85.15"/>
<polygon fill="#63b8ff" stroke="#63b8ff" points="675.85,-88.53 685.1,-83.36 674.64,-81.64 675.85,-88.53"/>
</a>
</g>
</g>
<!-- Node13 -->
<g id="Node000013" class="node">
<title>Node13</title>
<g id="a_Node000013"><a xlink:title=" ">
<polygon fill="#e0e0e0" stroke="#999999" points="215.5,-85 183.5,-85 183.5,-66 215.5,-66 215.5,-85"/>
<text text-anchor="middle" x="199.5" y="-73" font-family="Helvetica,sans-Serif" font-size="10.00">set</text>
</a>
</g>
</g>
<!-- Node2&#45;&gt;Node13 -->
<g id="edge13_Node000002_Node000013" class="edge">
<title>Node2&#45;&gt;Node13</title>
<g id="a_edge13_Node000002_Node000013"><a xlink:title=" ">
<path fill="none" stroke="#63b8ff" d="M315.33,-120.98C290.71,-111.53 251.03,-96.29 225.11,-86.34"/>
<polygon fill="#63b8ff" stroke="#63b8ff" points="226.17,-82.99 215.58,-82.68 223.66,-89.53 226.17,-82.99"/>
</a>
</g>
</g>
<!-- Node14 -->
<g id="Node000014" class="node">
<title>Node14</title>
<g id="a_Node000014"><a xlink:title=" ">
<polygon fill="#e0e0e0" stroke="#999999" points="319.5,-85 233.5,-85 233.5,-66 319.5,-66 319.5,-85"/>
<text text-anchor="middle" x="276.5" y="-73" font-family="Helvetica,sans-Serif" font-size="10.00">unordered_set</text>
</a>
</g>
</g>
<!-- Node2&#45;&gt;Node14 -->
<g id="edge15_Node000002_Node000014" class="edge">
<title>Node2&#45;&gt;Node14</title>
<g id="a_edge15_Node000002_Node000014"><a xlink:title=" ">
<path fill="none" stroke="#63b8ff" d="M327.7,-120.98C318.68,-113.15 305.09,-101.34 294.18,-91.86"/>
<polygon fill="#63b8ff" stroke="#63b8ff" points="296.32,-89.09 286.48,-85.17 291.73,-94.37 296.32,-89.09"/>
</a>
</g>
</g>
<!-- Node4 -->
<g id="Node000004" class="node">
<title>Node4</title>
<g id="a_Node000004"><a xlink:title=" ">
<polygon fill="#e0e0e0" stroke="#999999" points="476.5,-30 320.5,-30 320.5,0 476.5,0 476.5,-30"/>
<text text-anchor="start" x="328.5" y="-18" font-family="Helvetica,sans-Serif" font-size="10.00">ChimeraTK/DataConsistency</text>
<text text-anchor="middle" x="398.5" y="-7" font-family="Helvetica,sans-Serif" font-size="10.00">Group.h</text>
</a>
</g>
</g>
<!-- Node3&#45;&gt;Node4 -->
<g id="edge3_Node000003_Node000004" class="edge">
<title>Node3&#45;&gt;Node4</title>
<g id="a_edge3_Node000003_Node000004"><a xlink:title=" ">
<path fill="none" stroke="#63b8ff" d="M398.5,-65.87C398.5,-59.11 398.5,-49.35 398.5,-40.26"/>
<polygon fill="#63b8ff" stroke="#63b8ff" points="402,-40.11 398.5,-30.11 395,-40.11 402,-40.11"/>
</a>
</g>
</g>
<!-- Node3&#45;&gt;Node5 -->
<g id="edge4_Node000003_Node000005" class="edge">
<title>Node3&#45;&gt;Node5</title>
<g id="a_edge4_Node000003_Node000005"><a xlink:title=" ">
<path fill="none" stroke="#63b8ff" d="M363.17,-65.99C320.24,-55.66 247.76,-38.21 200.78,-26.9"/>
<polygon fill="#63b8ff" stroke="#63b8ff" points="201.42,-23.45 190.88,-24.52 199.78,-30.26 201.42,-23.45"/>
</a>
</g>
</g>
<!-- Node3&#45;&gt;Node6 -->
<g id="edge5_Node000003_Node000006" class="edge">
<title>Node3&#45;&gt;Node6</title>
<g id="a_edge5_Node000003_Node000006"><a xlink:title=" ">
<path fill="none" stroke="#63b8ff" d="M452.74,-65.99C531.59,-53.63 675.44,-31.07 739.39,-21.04"/>
<polygon fill="#63b8ff" stroke="#63b8ff" points="739.96,-24.49 749.3,-19.48 738.88,-17.57 739.96,-24.49"/>
</a>
</g>
</g>
<!-- Node3&#45;&gt;Node7 -->
<g id="edge6_Node000003_Node000007" class="edge">
<title>Node3&#45;&gt;Node7</title>
<g id="a_edge6_Node000003_Node000007"><a xlink:title=" ">
<path fill="none" stroke="#63b8ff" d="M337.36,-67.04C257.86,-57.18 123.4,-39.9 74.5,-30 68.13,-28.71 61.38,-27.09 54.93,-25.41"/>
<polygon fill="#63b8ff" stroke="#63b8ff" points="55.7,-21.99 45.13,-22.76 53.87,-28.75 55.7,-21.99"/>
</a>
</g>
</g>
<!-- Node15&#45;&gt;Node6 -->
<g id="edge17_Node000015_Node000006" class="edge">
<title>Node15&#45;&gt;Node6</title>
<g id="a_edge17_Node000015_Node000006"><a xlink:title=" ">
<path fill="none" stroke="#63b8ff" d="M539.32,-121.1C630.05,-109.55 781.48,-89.64 785.5,-85 797.72,-70.91 790.4,-49.11 782.49,-33.79"/>
<polygon fill="#63b8ff" stroke="#63b8ff" points="785.38,-31.78 777.41,-24.8 779.29,-35.23 785.38,-31.78"/>
</a>
</g>
</g>
</g>
</svg>

<g id="navigator" transform="translate(0 0)" fill="#404254">
  <rect fill="#f2f5e9" fill-opacity="0.5" stroke="#606060" stroke-width=".5" x="0" y="0" width="60" height="60"/>
  <use id="zoomplus" xlink:href="#zoomPlus" x="17" y="9" onmousedown="handleZoom(evt,'in')"/>
  <use id="zoomminus" xlink:href="#zoomMin" x="42" y="9" onmousedown="handleZoom(evt,'out')"/>
  <use id="reset" xlink:href="#resetDef" x="30" y="36" onmousedown="handleReset()"/>
   <use id="arrowup" xlink:href="#arrowUp" x="0" y="0" onmousedown="handlePan(0,-1)"/>
  <use id="arrowright" xlink:href="#arrowRight" x="0" y="0" onmousedown="handlePan(1,0)"/>
  <use id="arrowdown" xlink:href="#arrowDown" x="0" y="0" onmousedown="handlePan(0,1)"/>
  <use id="arrowleft" xlink:href="#arrowLeft" x="0" y="0" onmousedown="handlePan(-1,0)"/>
</g>
<svg viewBox="0 0 15 15" width="100%" height="30px" preserveAspectRatio="xMaxYMin meet">
 <g id="arrow_out" transform="scale(0.3 0.3)">
  <a xlink:href="_variable_mapper_8cc__incl_org.svg" target="_base">
   <rect id="button" ry="5" rx="5" y="6" x="6" height="38" width="38"
        fill="#f2f5e9" fill-opacity="0.5" stroke="#606060" stroke-width="1.0"/>
   <path id="arrow"
     d="M 11.500037,31.436501 C 11.940474,20.09759 22.043105,11.32322 32.158766,21.979434 L 37.068811,17.246167 C 37.068811,17.246167 37.088388,32 37.088388,32 L 22.160133,31.978069 C 22.160133,31.978069 26.997745,27.140456 26.997745,27.140456 C 18.528582,18.264221 13.291696,25.230495 11.500037,31.436501 z"
     style="fill:#404040;"/>
  </a>
 </g>
</svg>

<style type='text/css'>
<![CDATA[
[data-mouse-over-selected='false'] { opacity: 0.7; }
[data-mouse-over-selected='true']  { opacity: 1.0; }
]]>
</style>
<script type="application/ecmascript"><![CDATA[
document.addEventListener('DOMContentLoaded', (event) => {
  highlightEdges();
  highlightAdjacentNodes();
});
]]></script>
</svg>
