<?xml version="1.0" encoding="UTF-8" standalone="no"?>
<!DOCTYPE svg PUBLIC "-//W3C//DTD SVG 1.1//EN"
 "http://www.w3.org/Graphics/SVG/1.1/DTD/svg11.dtd">
<!-- Generated by graphviz version 2.43.0 (0)
 -->
<!-- Title: ua_node_types.opcua_referencePointer_t.__cmp__ Pages: 1 -->
<svg width="350pt" height="137pt"
 viewBox="0.00 0.00 350.00 137.00" xmlns="http://www.w3.org/2000/svg" xmlns:xlink="http://www.w3.org/1999/xlink">
<g id="graph0" class="graph" transform="scale(1 1) rotate(0) translate(4 133)">
<title>ua_node_types.opcua_referencePointer_t.__cmp__</title>
<polygon fill="white" stroke="transparent" points="-4,4 -4,-133 346,-133 346,4 -4,4"/>
<!-- Node1 -->
<g id="node1" class="node">
<title>Node1</title>
<g id="a_node1"><a xlink:title=" ">
<polygon fill="#bfbfbf" stroke="black" points="0,-44 0,-85 122,-85 122,-44 0,-44"/>
<text text-anchor="start" x="8" y="-73" font-family="Helvetica,sans-Serif" font-size="10.00">ua_node_types.opcua</text>
<text text-anchor="start" x="8" y="-62" font-family="Helvetica,sans-Serif" font-size="10.00">_referencePointer_t.</text>
<text text-anchor="middle" x="61" y="-51" font-family="Helvetica,sans-Serif" font-size="10.00">__cmp__</text>
</a>
</g>
</g>
<!-- Node2 -->
<g id="node2" class="node">
<title>Node2</title>
<g id="a_node2"><a xlink:href="classua__node__types_1_1opcua__reference_pointer__t.html#a3e8d8229461202b24eee41d9a2c7218a" target="_top" xlink:title=" ">
<polygon fill="white" stroke="black" points="169,-98.5 169,-128.5 331,-128.5 331,-98.5 169,-98.5"/>
<text text-anchor="start" x="177" y="-116.5" font-family="Helvetica,sans-Serif" font-size="10.00">ua_node_types.opcua</text>
<text text-anchor="middle" x="250" y="-105.5" font-family="Helvetica,sans-Serif" font-size="10.00">_referencePointer_t.isForward</text>
</a>
</g>
</g>
<!-- Node1&#45;&gt;Node2 -->
<g id="edge1" class="edge">
<title>Node1&#45;&gt;Node2</title>
<path fill="none" stroke="midnightblue" d="M122.2,-80.27C141.2,-85.25 162.3,-90.78 181.76,-95.88"/>
<polygon fill="midnightblue" stroke="midnightblue" points="180.9,-99.27 191.46,-98.42 182.68,-92.5 180.9,-99.27"/>
</g>
<!-- Node3 -->
<g id="node3" class="node">
<title>Node3</title>
<g id="a_node3"><a xlink:href="classua__node__types_1_1opcua__reference_pointer__t.html#a688d54d79bf086afca6c88bb2ec7e87d" target="_top" xlink:title=" ">
<polygon fill="white" stroke="black" points="158,-49.5 158,-79.5 342,-79.5 342,-49.5 158,-49.5"/>
<text text-anchor="start" x="166" y="-67.5" font-family="Helvetica,sans-Serif" font-size="10.00">ua_node_types.opcua</text>
<text text-anchor="middle" x="250" y="-56.5" font-family="Helvetica,sans-Serif" font-size="10.00">_referencePointer_t.referenceType</text>
</a>
</g>
</g>
<!-- Node1&#45;&gt;Node3 -->
<g id="edge2" class="edge">
<title>Node1&#45;&gt;Node3</title>
<path fill="none" stroke="midnightblue" d="M122.2,-64.5C130.41,-64.5 139.01,-64.5 147.71,-64.5"/>
<polygon fill="midnightblue" stroke="midnightblue" points="147.94,-68 157.94,-64.5 147.94,-61 147.94,-68"/>
</g>
<!-- Node4 -->
<g id="node4" class="node">
<title>Node4</title>
<g id="a_node4"><a xlink:href="classua__node__types_1_1opcua__reference_pointer__t.html#ac6b7634ecd046746b5576a174a60fe56" target="_top" xlink:title=" ">
<polygon fill="white" stroke="black" points="178,-0.5 178,-30.5 322,-30.5 322,-0.5 178,-0.5"/>
<text text-anchor="start" x="186" y="-18.5" font-family="Helvetica,sans-Serif" font-size="10.00">ua_node_types.opcua</text>
<text text-anchor="middle" x="250" y="-7.5" font-family="Helvetica,sans-Serif" font-size="10.00">_referencePointer_t.target</text>
</a>
</g>
</g>
<!-- Node1&#45;&gt;Node4 -->
<g id="edge3" class="edge">
<title>Node1&#45;&gt;Node4</title>
<path fill="none" stroke="midnightblue" d="M122.2,-48.73C141.2,-43.75 162.3,-38.22 181.76,-33.12"/>
<polygon fill="midnightblue" stroke="midnightblue" points="182.68,-36.5 191.46,-30.58 180.9,-29.73 182.68,-36.5"/>
</g>
</g>
</svg>
