<?xml version="1.0" encoding="UTF-8" standalone="no"?>
<!DOCTYPE svg PUBLIC "-//W3C//DTD SVG 1.1//EN"
 "http://www.w3.org/Graphics/SVG/1.1/DTD/svg11.dtd">
<!-- Generated by graphviz version 2.43.0 (0)
 -->
<!-- Title: ua_builtin_types.opcua_BuiltinType_int64_t.printOpen62541CCode_SubType Pages: 1 -->
<svg width="392pt" height="134pt"
 viewBox="0.00 0.00 392.00 134.00" xmlns="http://www.w3.org/2000/svg" xmlns:xlink="http://www.w3.org/1999/xlink">
<g id="graph0" class="graph" transform="scale(1 1) rotate(0) translate(4 130)">
<title>ua_builtin_types.opcua_BuiltinType_int64_t.printOpen62541CCode_SubType</title>
<!-- Node1 -->
<g id="Node000001" class="node">
<title>Node1</title>
<g id="a_Node000001"><a xlink:title=" ">
<polygon fill="#999999" stroke="#666666" points="196,-83.5 0,-83.5 0,-42.5 196,-42.5 196,-83.5"/>
<text text-anchor="start" x="8" y="-71.5" font-family="Helvetica,sans-Serif" font-size="10.00">ua_builtin_types.opcua</text>
<text text-anchor="start" x="8" y="-60.5" font-family="Helvetica,sans-Serif" font-size="10.00">_BuiltinType_int64_t.printOpen62541</text>
<text text-anchor="middle" x="98" y="-49.5" font-family="Helvetica,sans-Serif" font-size="10.00">CCode_SubType</text>
</a>
</g>
</g>
<!-- Node2 -->
<g id="Node000002" class="node">
<title>Node2</title>
<g id="a_Node000002"><a xlink:href="classua__builtin__types_1_1opcua__value__t.html#a2c8354c361087f556c8d513a0e39d014" target="_top" xlink:title=" ">
<polygon fill="white" stroke="#666666" points="372.5,-126 243.5,-126 243.5,-96 372.5,-96 372.5,-126"/>
<text text-anchor="start" x="251.5" y="-114" font-family="Helvetica,sans-Serif" font-size="10.00">ua_builtin_types.opcua</text>
<text text-anchor="middle" x="308" y="-103" font-family="Helvetica,sans-Serif" font-size="10.00">_value_t.value</text>
</a>
</g>
</g>
<!-- Node1&#45;&gt;Node2 -->
<g id="edge1_Node000001_Node000002" class="edge">
<title>Node1&#45;&gt;Node2</title>
<g id="a_edge1_Node000001_Node000002"><a xlink:title=" ">
<path fill="none" stroke="#63b8ff" d="M188.12,-83.57C203.17,-87.04 218.64,-90.61 233.25,-93.98"/>
<polygon fill="#63b8ff" stroke="#63b8ff" points="232.67,-97.44 243.2,-96.28 234.24,-90.62 232.67,-97.44"/>
</a>
</g>
</g>
<!-- Node3 -->
<g id="Node000003" class="node">
<title>Node3</title>
<g id="a_Node000003"><a xlink:href="classua__node__types_1_1opcua__node__variable__t.html#aeaf5b5fc3c195839d7a42a95e13bedda" target="_top" xlink:title=" ">
<polygon fill="white" stroke="#666666" points="373,-78 243,-78 243,-48 373,-48 373,-78"/>
<text text-anchor="start" x="251" y="-66" font-family="Helvetica,sans-Serif" font-size="10.00">ua_node_types.opcua</text>
<text text-anchor="middle" x="308" y="-55" font-family="Helvetica,sans-Serif" font-size="10.00">_node_variable_t.value</text>
</a>
</g>
</g>
<!-- Node1&#45;&gt;Node3 -->
<g id="edge2_Node000001_Node000003" class="edge">
<title>Node1&#45;&gt;Node3</title>
<g id="a_edge2_Node000001_Node000003"><a xlink:title=" ">
<path fill="none" stroke="#63b8ff" d="M196.3,-63C208.49,-63 220.79,-63 232.55,-63"/>
<polygon fill="#63b8ff" stroke="#63b8ff" points="232.73,-66.5 242.73,-63 232.73,-59.5 232.73,-66.5"/>
</a>
</g>
</g>
<!-- Node4 -->
<g id="Node000004" class="node">
<title>Node4</title>
<g id="a_Node000004"><a xlink:href="classua__node__types_1_1opcua__node__variable_type__t.html#a7cb8818c28b71676606a53814e3f3f55" target="_top" xlink:title=" ">
<polygon fill="white" stroke="#666666" points="384,-30 232,-30 232,0 384,0 384,-30"/>
<text text-anchor="start" x="240" y="-18" font-family="Helvetica,sans-Serif" font-size="10.00">ua_node_types.opcua</text>
<text text-anchor="middle" x="308" y="-7" font-family="Helvetica,sans-Serif" font-size="10.00">_node_variableType_t.value</text>
</a>
</g>
</g>
<!-- Node1&#45;&gt;Node4 -->
<g id="edge3_Node000001_Node000004" class="edge">
<title>Node1&#45;&gt;Node4</title>
<g id="a_edge3_Node000001_Node000004"><a xlink:title=" ">
<path fill="none" stroke="#63b8ff" d="M188.12,-42.43C202.81,-39.04 217.91,-35.56 232.2,-32.26"/>
<polygon fill="#63b8ff" stroke="#63b8ff" points="233,-35.67 241.96,-30.01 231.43,-28.85 233,-35.67"/>
</a>
</g>
</g>
</g>
</svg>
