<?xml version="1.0" encoding="UTF-8" standalone="no"?>
<!DOCTYPE svg PUBLIC "-//W3C//DTD SVG 1.1//EN"
 "http://www.w3.org/Graphics/SVG/1.1/DTD/svg11.dtd">
<!-- Generated by graphviz version 2.43.0 (0)
 -->
<!-- Title: ctk_opcua_generator_tools.generatorForm.MapGeneratorForm._createVariableNode Pages: 1 -->
<svg width="1122pt" height="167pt"
 viewBox="0.00 0.00 1122.00 167.00" xmlns="http://www.w3.org/2000/svg" xmlns:xlink="http://www.w3.org/1999/xlink">
<g id="graph0" class="graph" transform="scale(1 1) rotate(0) translate(4 163)">
<title>ctk_opcua_generator_tools.generatorForm.MapGeneratorForm._createVariableNode</title>
<!-- Node1 -->
<g id="Node000001" class="node">
<title>Node1</title>
<g id="a_Node000001"><a xlink:title=" ">
<polygon fill="#999999" stroke="#666666" points="194,-70 0,-70 0,-29 194,-29 194,-70"/>
<text text-anchor="start" x="8" y="-58" font-family="Helvetica,sans-Serif" font-size="10.00">ctk_opcua_generator</text>
<text text-anchor="start" x="8" y="-47" font-family="Helvetica,sans-Serif" font-size="10.00">_tools.generatorForm.MapGenerator</text>
<text text-anchor="middle" x="97" y="-36" font-family="Helvetica,sans-Serif" font-size="10.00">Form._createVariableNode</text>
</a>
</g>
</g>
<!-- Node2 -->
<g id="Node000002" class="node">
<title>Node2</title>
<g id="a_Node000002"><a xlink:href="classctk__opcua__generator__tools_1_1generator_form_1_1_map_generator_form.html#af7966559c06458d08d87e813cf6ae74c" target="_top" xlink:title=" ">
<polygon fill="white" stroke="#666666" points="424,-70 230,-70 230,-29 424,-29 424,-70"/>
<text text-anchor="start" x="238" y="-58" font-family="Helvetica,sans-Serif" font-size="10.00">ctk_opcua_generator</text>
<text text-anchor="start" x="238" y="-47" font-family="Helvetica,sans-Serif" font-size="10.00">_tools.generatorForm.MapGenerator</text>
<text text-anchor="middle" x="327" y="-36" font-family="Helvetica,sans-Serif" font-size="10.00">Form._setupRow</text>
</a>
</g>
</g>
<!-- Node1&#45;&gt;Node2 -->
<g id="edge1_Node000001_Node000002" class="edge">
<title>Node1&#45;&gt;Node2</title>
<g id="a_edge1_Node000001_Node000002"><a xlink:title=" ">
<path fill="none" stroke="#63b8ff" d="M194.03,-49.5C202.52,-49.5 211.14,-49.5 219.7,-49.5"/>
<polygon fill="#63b8ff" stroke="#63b8ff" points="219.71,-53 229.71,-49.5 219.71,-46 219.71,-53"/>
</a>
</g>
</g>
<!-- Node3 -->
<g id="Node000003" class="node">
<title>Node3</title>
<g id="a_Node000003"><a xlink:href="classctk__opcua__generator__tools_1_1generator_form_1_1_map_generator_form.html#ab82dd7925142c113f86686db50599a57" target="_top" xlink:title=" ">
<polygon fill="white" stroke="#666666" points="654,-100 460,-100 460,-59 654,-59 654,-100"/>
<text text-anchor="start" x="468" y="-88" font-family="Helvetica,sans-Serif" font-size="10.00">ctk_opcua_generator</text>
<text text-anchor="start" x="468" y="-77" font-family="Helvetica,sans-Serif" font-size="10.00">_tools.generatorForm.MapGenerator</text>
<text text-anchor="middle" x="557" y="-66" font-family="Helvetica,sans-Serif" font-size="10.00">Form._getCheckBox</text>
</a>
</g>
</g>
<!-- Node2&#45;&gt;Node3 -->
<g id="edge2_Node000002_Node000003" class="edge">
<title>Node2&#45;&gt;Node3</title>
<g id="a_edge2_Node000002_Node000003"><a xlink:title=" ">
<path fill="none" stroke="#63b8ff" d="M424.03,-62.14C432.52,-63.25 441.14,-64.39 449.7,-65.51"/>
<polygon fill="#63b8ff" stroke="#63b8ff" points="449.34,-69 459.71,-66.83 450.26,-62.06 449.34,-69"/>
</a>
</g>
</g>
<!-- Node7 -->
<g id="Node000007" class="node">
<title>Node7</title>
<g id="a_Node000007"><a xlink:href="classctk__opcua__generator__tools_1_1generator_form_1_1_map_generator_form.html#a655564f2550dda4c993fa1cd7c1b11a2" target="_top" xlink:title=" ">
<polygon fill="white" stroke="#666666" points="654,-41 460,-41 460,0 654,0 654,-41"/>
<text text-anchor="start" x="468" y="-29" font-family="Helvetica,sans-Serif" font-size="10.00">ctk_opcua_generator</text>
<text text-anchor="start" x="468" y="-18" font-family="Helvetica,sans-Serif" font-size="10.00">_tools.generatorForm.MapGenerator</text>
<text text-anchor="middle" x="557" y="-7" font-family="Helvetica,sans-Serif" font-size="10.00">Form._getComboBox</text>
</a>
</g>
</g>
<!-- Node2&#45;&gt;Node7 -->
<g id="edge7_Node000002_Node000007" class="edge">
<title>Node2&#45;&gt;Node7</title>
<g id="a_edge7_Node000002_Node000007"><a xlink:title=" ">
<path fill="none" stroke="#63b8ff" d="M424.03,-37.29C432.52,-36.21 441.14,-35.11 449.7,-34.02"/>
<polygon fill="#63b8ff" stroke="#63b8ff" points="450.24,-37.48 459.71,-32.75 449.35,-30.54 450.24,-37.48"/>
</a>
</g>
</g>
<!-- Node4 -->
<g id="Node000004" class="node">
<title>Node4</title>
<g id="a_Node000004"><a xlink:href="classctk__opcua__generator__tools_1_1generator_form_1_1_map_generator_form.html#afa3b4b730a20f22c8fab3bc3af491e99" target="_top" xlink:title=" ">
<polygon fill="white" stroke="#666666" points="884,-159 690,-159 690,-118 884,-118 884,-159"/>
<text text-anchor="start" x="698" y="-147" font-family="Helvetica,sans-Serif" font-size="10.00">ctk_opcua_generator</text>
<text text-anchor="start" x="698" y="-136" font-family="Helvetica,sans-Serif" font-size="10.00">_tools.generatorForm.MapGenerator</text>
<text text-anchor="middle" x="787" y="-125" font-family="Helvetica,sans-Serif" font-size="10.00">Form._mapDirectory</text>
</a>
</g>
</g>
<!-- Node3&#45;&gt;Node4 -->
<g id="edge3_Node000003_Node000004" class="edge">
<title>Node3&#45;&gt;Node4</title>
<g id="a_edge3_Node000003_Node000004"><a xlink:title=" ">
<path fill="none" stroke="#63b8ff" d="M637.42,-100.05C656.55,-105 677.12,-110.32 696.67,-115.38"/>
<polygon fill="#63b8ff" stroke="#63b8ff" points="695.92,-118.8 706.48,-117.92 697.67,-112.03 695.92,-118.8"/>
</a>
</g>
</g>
<!-- Node6 -->
<g id="Node000006" class="node">
<title>Node6</title>
<g id="a_Node000006"><a xlink:href="classctk__opcua__generator__tools_1_1generator_form_1_1_map_generator_form.html#a4a13a5b30d01d0a87717b5ffe6016937" target="_top" xlink:title=" ">
<polygon fill="white" stroke="#666666" points="884,-100 690,-100 690,-59 884,-59 884,-100"/>
<text text-anchor="start" x="698" y="-88" font-family="Helvetica,sans-Serif" font-size="10.00">ctk_opcua_generator</text>
<text text-anchor="start" x="698" y="-77" font-family="Helvetica,sans-Serif" font-size="10.00">_tools.generatorForm.MapGenerator</text>
<text text-anchor="middle" x="787" y="-66" font-family="Helvetica,sans-Serif" font-size="10.00">Form._mapItem</text>
</a>
</g>
</g>
<!-- Node3&#45;&gt;Node6 -->
<g id="edge5_Node000003_Node000006" class="edge">
<title>Node3&#45;&gt;Node6</title>
<g id="a_edge5_Node000003_Node000006"><a xlink:title=" ">
<path fill="none" stroke="#63b8ff" d="M654.03,-79.5C662.52,-79.5 671.14,-79.5 679.7,-79.5"/>
<polygon fill="#63b8ff" stroke="#63b8ff" points="679.71,-83 689.71,-79.5 679.71,-76 679.71,-83"/>
</a>
</g>
</g>
<!-- Node5 -->
<g id="Node000005" class="node">
<title>Node5</title>
<g id="a_Node000005"><a xlink:href="classctk__opcua__generator__tools_1_1generator_form_1_1_map_generator_form.html#ab8e436b129323a58cafa98acd601855d" target="_top" xlink:title=" ">
<polygon fill="white" stroke="#666666" points="1114,-129 920,-129 920,-88 1114,-88 1114,-129"/>
<text text-anchor="start" x="928" y="-117" font-family="Helvetica,sans-Serif" font-size="10.00">ctk_opcua_generator</text>
<text text-anchor="start" x="928" y="-106" font-family="Helvetica,sans-Serif" font-size="10.00">_tools.generatorForm.MapGenerator</text>
<text text-anchor="middle" x="1017" y="-95" font-family="Helvetica,sans-Serif" font-size="10.00">Form._setState</text>
</a>
</g>
</g>
<!-- Node4&#45;&gt;Node5 -->
<g id="edge4_Node000004_Node000005" class="edge">
<title>Node4&#45;&gt;Node5</title>
<g id="a_edge4_Node000004_Node000005"><a xlink:title=" ">
<path fill="none" stroke="#63b8ff" d="M884.03,-125.86C892.52,-124.75 901.14,-123.61 909.7,-122.49"/>
<polygon fill="#63b8ff" stroke="#63b8ff" points="910.26,-125.94 919.71,-121.17 909.34,-119 910.26,-125.94"/>
</a>
</g>
</g>
<!-- Node6&#45;&gt;Node5 -->
<g id="edge6_Node000006_Node000005" class="edge">
<title>Node6&#45;&gt;Node5</title>
<g id="a_edge6_Node000006_Node000005"><a xlink:title=" ">
<path fill="none" stroke="#63b8ff" d="M884.03,-91.71C892.52,-92.79 901.14,-93.89 909.7,-94.98"/>
<polygon fill="#63b8ff" stroke="#63b8ff" points="909.35,-98.46 919.71,-96.25 910.24,-91.52 909.35,-98.46"/>
</a>
</g>
</g>
<!-- Node8 -->
<g id="Node000008" class="node">
<title>Node8</title>
<g id="a_Node000008"><a xlink:href="classctk__opcua__generator__tools_1_1generator_form_1_1_map_generator_form.html#af082f0c0a84c2ec4f9d964de9c3bda38" target="_top" xlink:title=" ">
<polygon fill="white" stroke="#666666" points="884,-41 690,-41 690,0 884,0 884,-41"/>
<text text-anchor="start" x="698" y="-29" font-family="Helvetica,sans-Serif" font-size="10.00">ctk_opcua_generator</text>
<text text-anchor="start" x="698" y="-18" font-family="Helvetica,sans-Serif" font-size="10.00">_tools.generatorForm.MapGenerator</text>
<text text-anchor="middle" x="787" y="-7" font-family="Helvetica,sans-Serif" font-size="10.00">Form._setHistoryItem</text>
</a>
</g>
</g>
<!-- Node7&#45;&gt;Node8 -->
<g id="edge8_Node000007_Node000008" class="edge">
<title>Node7&#45;&gt;Node8</title>
<g id="a_edge8_Node000007_Node000008"><a xlink:title=" ">
<path fill="none" stroke="#63b8ff" d="M654.03,-20.5C662.52,-20.5 671.14,-20.5 679.7,-20.5"/>
<polygon fill="#63b8ff" stroke="#63b8ff" points="679.71,-24 689.71,-20.5 679.71,-17 679.71,-24"/>
</a>
</g>
</g>
</g>
</svg>
