<?xml version="1.0" encoding="UTF-8" standalone="no"?>
<!DOCTYPE svg PUBLIC "-//W3C//DTD SVG 1.1//EN"
 "http://www.w3.org/Graphics/SVG/1.1/DTD/svg11.dtd">
<!-- Generated by graphviz version 2.43.0 (0)
 -->
<!-- Title: CsaProcessVariable::CsaProcessVariable Pages: 1 -->
<svg width="520pt" height="220pt"
 viewBox="0.00 0.00 520.00 220.00" xmlns="http://www.w3.org/2000/svg" xmlns:xlink="http://www.w3.org/1999/xlink">
<g id="graph0" class="graph" transform="scale(1 1) rotate(0) translate(4 216)">
<title>CsaProcessVariable::CsaProcessVariable</title>
<!-- Node1 -->
<g id="Node000001" class="node">
<title>Node1</title>
<g id="a_Node000001"><a xlink:title=" ">
<polygon fill="#999999" stroke="#666666" points="118,-126 0,-126 0,-96 118,-96 118,-126"/>
<text text-anchor="start" x="8" y="-114" font-family="Helvetica,sans-Serif" font-size="10.00">CsaProcessVariable</text>
<text text-anchor="middle" x="59" y="-103" font-family="Helvetica,sans-Serif" font-size="10.00">::CsaProcessVariable</text>
</a>
</g>
</g>
<!-- Node2 -->
<g id="Node000002" class="node">
<title>Node2</title>
<g id="a_Node000002"><a xlink:href="class_csa_adapter.html#a8aad6a52c7cad0a615b779f13629dc2b" target="_top" xlink:title=" ">
<polygon fill="white" stroke="#666666" points="301,-212 154,-212 154,-182 301,-182 301,-212"/>
<text text-anchor="start" x="162" y="-200" font-family="Helvetica,sans-Serif" font-size="10.00">CsaAdapter::createProcess</text>
<text text-anchor="middle" x="227.5" y="-189" font-family="Helvetica,sans-Serif" font-size="10.00">Variable</text>
</a>
</g>
</g>
<!-- Node1&#45;&gt;Node2 -->
<g id="edge1_Node000001_Node000002" class="edge">
<title>Node1&#45;&gt;Node2</title>
<g id="a_edge1_Node000001_Node000002"><a xlink:title=" ">
<path fill="none" stroke="#63b8ff" d="M79.62,-126.16C98.02,-139.84 126.73,-159.78 154,-173 157.76,-174.82 161.69,-176.56 165.69,-178.2"/>
<polygon fill="#63b8ff" stroke="#63b8ff" points="164.53,-181.51 175.12,-181.87 167.07,-174.99 164.53,-181.51"/>
</a>
</g>
</g>
<!-- Node4 -->
<g id="Node000004" class="node">
<title>Node4</title>
<g id="a_Node000004"><a xlink:href="class_csa_adapter.html#a35b99782efccb2b3b981b251341a1d97" target="_top" xlink:title=" ">
<polygon fill="white" stroke="#666666" points="295.5,-163.5 159.5,-163.5 159.5,-144.5 295.5,-144.5 295.5,-163.5"/>
<text text-anchor="middle" x="227.5" y="-151.5" font-family="Helvetica,sans-Serif" font-size="10.00">CsaAdapter::getInstance</text>
</a>
</g>
</g>
<!-- Node1&#45;&gt;Node4 -->
<g id="edge3_Node000001_Node000004" class="edge">
<title>Node1&#45;&gt;Node4</title>
<g id="a_edge3_Node000001_Node000004"><a xlink:title=" ">
<path fill="none" stroke="#63b8ff" d="M118.23,-126.04C138.27,-131.21 160.43,-136.94 179.46,-141.85"/>
<polygon fill="#63b8ff" stroke="#63b8ff" points="178.82,-145.3 189.38,-144.41 180.57,-138.52 178.82,-145.3"/>
</a>
</g>
</g>
<!-- Node5 -->
<g id="Node000005" class="node">
<title>Node5</title>
<g id="a_Node000005"><a xlink:href="class_csa_process_variable.html#aa2b84009b84fcfd6092226d2b5240718" target="_top" xlink:title=" ">
<polygon fill="white" stroke="#666666" points="283.5,-126 171.5,-126 171.5,-96 283.5,-96 283.5,-126"/>
<text text-anchor="start" x="179.5" y="-114" font-family="Helvetica,sans-Serif" font-size="10.00">CsaProcessVariable</text>
<text text-anchor="middle" x="227.5" y="-103" font-family="Helvetica,sans-Serif" font-size="10.00">::getToCs</text>
</a>
</g>
</g>
<!-- Node1&#45;&gt;Node5 -->
<g id="edge4_Node000001_Node000005" class="edge">
<title>Node1&#45;&gt;Node5</title>
<g id="a_edge4_Node000001_Node000005"><a xlink:title=" ">
<path fill="none" stroke="#63b8ff" d="M118.23,-111C132.12,-111 147.03,-111 161.21,-111"/>
<polygon fill="#63b8ff" stroke="#63b8ff" points="161.38,-114.5 171.38,-111 161.38,-107.5 161.38,-114.5"/>
</a>
</g>
</g>
<!-- Node6 -->
<g id="Node000006" class="node">
<title>Node6</title>
<g id="a_Node000006"><a xlink:href="class_csa_process_variable.html#a3daab00f4778e65d3ba88bac51871e34" target="_top" xlink:title=" ">
<polygon fill="white" stroke="#666666" points="283.5,-78 171.5,-78 171.5,-48 283.5,-48 283.5,-78"/>
<text text-anchor="start" x="179.5" y="-66" font-family="Helvetica,sans-Serif" font-size="10.00">CsaProcessVariable</text>
<text text-anchor="middle" x="227.5" y="-55" font-family="Helvetica,sans-Serif" font-size="10.00">::initFromCS</text>
</a>
</g>
</g>
<!-- Node1&#45;&gt;Node6 -->
<g id="edge5_Node000001_Node000006" class="edge">
<title>Node1&#45;&gt;Node6</title>
<g id="a_edge5_Node000001_Node000006"><a xlink:title=" ">
<path fill="none" stroke="#63b8ff" d="M112.22,-95.94C128.81,-91.16 147.31,-85.83 164.51,-80.87"/>
<polygon fill="#63b8ff" stroke="#63b8ff" points="165.82,-84.14 174.46,-78 163.88,-77.41 165.82,-84.14"/>
</a>
</g>
</g>
<!-- Node7 -->
<g id="Node000007" class="node">
<title>Node7</title>
<g id="a_Node000007"><a xlink:href="class_csa_process_variable.html#a15fca9d344cb602ff72af46db7563d0f" target="_top" xlink:title=" ">
<polygon fill="white" stroke="#666666" points="283.5,-30 171.5,-30 171.5,0 283.5,0 283.5,-30"/>
<text text-anchor="start" x="179.5" y="-18" font-family="Helvetica,sans-Serif" font-size="10.00">CsaProcessVariable</text>
<text text-anchor="middle" x="227.5" y="-7" font-family="Helvetica,sans-Serif" font-size="10.00">::setFromCS</text>
</a>
</g>
</g>
<!-- Node1&#45;&gt;Node7 -->
<g id="edge6_Node000001_Node000007" class="edge">
<title>Node1&#45;&gt;Node7</title>
<g id="a_edge6_Node000001_Node000007"><a xlink:title=" ">
<path fill="none" stroke="#63b8ff" d="M76.15,-95.9C94,-79.88 124.2,-54.77 154,-39 157.3,-37.25 160.75,-35.6 164.28,-34.04"/>
<polygon fill="#63b8ff" stroke="#63b8ff" points="165.84,-37.19 173.75,-30.14 163.17,-30.71 165.84,-37.19"/>
</a>
</g>
</g>
<!-- Node3 -->
<g id="Node000003" class="node">
<title>Node3</title>
<g id="a_Node000003"><a xlink:href="class_consatt_bindable.html#ab674174459073d6525dcca29fc6a6a29" target="_top" xlink:title=" ">
<polygon fill="white" stroke="#666666" points="512,-206.5 337,-206.5 337,-187.5 512,-187.5 512,-206.5"/>
<text text-anchor="middle" x="424.5" y="-194.5" font-family="Helvetica,sans-Serif" font-size="10.00">ConsattBindable::printProperties</text>
</a>
</g>
</g>
<!-- Node2&#45;&gt;Node3 -->
<g id="edge2_Node000002_Node000003" class="edge">
<title>Node2&#45;&gt;Node3</title>
<g id="a_edge2_Node000002_Node000003"><a xlink:title=" ">
<path fill="none" stroke="#63b8ff" d="M301.11,-197C309.52,-197 318.19,-197 326.85,-197"/>
<polygon fill="#63b8ff" stroke="#63b8ff" points="326.99,-200.5 336.99,-197 326.99,-193.5 326.99,-200.5"/>
</a>
</g>
</g>
</g>
</svg>
