<?xml version="1.0" encoding="UTF-8" standalone="no"?>
<!DOCTYPE svg PUBLIC "-//W3C//DTD SVG 1.1//EN"
 "http://www.w3.org/Graphics/SVG/1.1/DTD/svg11.dtd">
<!-- Generated by graphviz version 2.43.0 (0)
 -->
<!-- Title: ThreadSafeString Pages: 1 -->
<svg width="301pt" height="241pt"
 viewBox="0.00 0.00 300.50 241.00" xmlns="http://www.w3.org/2000/svg" xmlns:xlink="http://www.w3.org/1999/xlink">
<g id="graph0" class="graph" transform="scale(1 1) rotate(0) translate(4 237)">
<title>ThreadSafeString</title>
<polygon fill="white" stroke="transparent" points="-4,4 -4,-237 296.5,-237 296.5,4 -4,4"/>
<!-- Node1 -->
<g id="node1" class="node">
<title>Node1</title>
<g id="a_node1"><a xlink:title=" ">
<polygon fill="#bfbfbf" stroke="black" points="77,-0.5 77,-19.5 178,-19.5 178,-0.5 77,-0.5"/>
<text text-anchor="middle" x="127.5" y="-7.5" font-family="Helvetica,sans-Serif" font-size="10.00">ThreadSafeString</text>
</a>
</g>
</g>
<!-- Node2 -->
<g id="node2" class="node">
<title>Node2</title>
<g id="a_node2"><a xlink:href="class_thread_safe_data.html" target="_top" xlink:title=" ">
<polygon fill="white" stroke="black" points="66.5,-57.5 66.5,-87.5 188.5,-87.5 188.5,-57.5 66.5,-57.5"/>
<text text-anchor="start" x="74.5" y="-75.5" font-family="Helvetica,sans-Serif" font-size="10.00">ThreadSafeData&lt; std</text>
<text text-anchor="middle" x="127.5" y="-64.5" font-family="Helvetica,sans-Serif" font-size="10.00">::string &gt;</text>
</a>
</g>
</g>
<!-- Node2&#45;&gt;Node1 -->
<g id="edge1" class="edge">
<title>Node2&#45;&gt;Node1</title>
<path fill="none" stroke="midnightblue" d="M127.5,-47.35C127.5,-37.51 127.5,-26.78 127.5,-19.54"/>
<polygon fill="midnightblue" stroke="midnightblue" points="124,-47.47 127.5,-57.47 131,-47.47 124,-47.47"/>
</g>
<!-- Node3 -->
<g id="node3" class="node">
<title>Node3</title>
<g id="a_node3"><a xlink:title="STL class.">
<polygon fill="white" stroke="#bfbfbf" points="0,-208 0,-227 69,-227 69,-208 0,-208"/>
<text text-anchor="middle" x="34.5" y="-215" font-family="Helvetica,sans-Serif" font-size="10.00">std::mutex</text>
</a>
</g>
</g>
<!-- Node3&#45;&gt;Node2 -->
<g id="edge2" class="edge">
<title>Node3&#45;&gt;Node2</title>
<path fill="none" stroke="#9a32cd" stroke-dasharray="5,2" d="M23.64,-198.76C14.56,-181.42 4.82,-154.83 16.5,-135 30.03,-112.03 55.57,-97.04 78.74,-87.61"/>
<polygon fill="#9a32cd" stroke="#9a32cd" points="20.77,-200.79 28.74,-207.77 26.86,-197.35 20.77,-200.79"/>
<text text-anchor="middle" x="36.5" y="-142.5" font-family="Helvetica,sans-Serif" font-size="10.00"> _mutex</text>
</g>
<!-- Node6 -->
<g id="node6" class="node">
<title>Node6</title>
<g id="a_node6"><a xlink:href="class_thread_safe_data.html" target="_top" xlink:title=" ">
<polygon fill="white" stroke="black" points="65.5,-135.5 65.5,-154.5 189.5,-154.5 189.5,-135.5 65.5,-135.5"/>
<text text-anchor="middle" x="127.5" y="-142.5" font-family="Helvetica,sans-Serif" font-size="10.00">ThreadSafeData&lt; T &gt;</text>
</a>
</g>
</g>
<!-- Node3&#45;&gt;Node6 -->
<g id="edge6" class="edge">
<title>Node3&#45;&gt;Node6</title>
<path fill="none" stroke="#9a32cd" stroke-dasharray="5,2" d="M50.48,-201.02C59.78,-192.35 71.91,-181.6 83.5,-173 92.57,-166.27 103.37,-159.63 112,-154.61"/>
<polygon fill="#9a32cd" stroke="#9a32cd" points="47.98,-198.57 43.13,-207.99 52.8,-203.65 47.98,-198.57"/>
<text text-anchor="middle" x="103.5" y="-176" font-family="Helvetica,sans-Serif" font-size="10.00"> _mutex</text>
</g>
<!-- Node4 -->
<g id="node4" class="node">
<title>Node4</title>
<g id="a_node4"><a xlink:title="STL class.">
<polygon fill="white" stroke="#bfbfbf" points="208,-135.5 208,-154.5 273,-154.5 273,-135.5 208,-135.5"/>
<text text-anchor="middle" x="240.5" y="-142.5" font-family="Helvetica,sans-Serif" font-size="10.00">std::string</text>
</a>
</g>
</g>
<!-- Node4&#45;&gt;Node2 -->
<g id="edge3" class="edge">
<title>Node4&#45;&gt;Node2</title>
<path fill="none" stroke="#9a32cd" stroke-dasharray="5,2" d="M228.48,-127.47C222.52,-120.14 214.81,-111.88 206.5,-106 195.97,-98.55 183.47,-92.41 171.56,-87.55"/>
<polygon fill="#9a32cd" stroke="#9a32cd" points="225.74,-129.64 234.62,-135.43 231.29,-125.37 225.74,-129.64"/>
<text text-anchor="middle" x="235" y="-109" font-family="Helvetica,sans-Serif" font-size="10.00"> _data</text>
</g>
<!-- Node5 -->
<g id="node5" class="node">
<title>Node5</title>
<g id="a_node5"><a xlink:title="STL class.">
<polygon fill="white" stroke="#bfbfbf" points="188.5,-202.5 188.5,-232.5 292.5,-232.5 292.5,-202.5 188.5,-202.5"/>
<text text-anchor="start" x="196.5" y="-220.5" font-family="Helvetica,sans-Serif" font-size="10.00">std::basic_string&lt;</text>
<text text-anchor="middle" x="240.5" y="-209.5" font-family="Helvetica,sans-Serif" font-size="10.00"> char &gt;</text>
</a>
</g>
</g>
<!-- Node5&#45;&gt;Node4 -->
<g id="edge4" class="edge">
<title>Node5&#45;&gt;Node4</title>
<path fill="none" stroke="midnightblue" d="M240.5,-192.09C240.5,-179.21 240.5,-164.2 240.5,-154.89"/>
<polygon fill="midnightblue" stroke="midnightblue" points="237,-192.23 240.5,-202.23 244,-192.23 237,-192.23"/>
</g>
<!-- Node6&#45;&gt;Node2 -->
<g id="edge5" class="edge">
<title>Node6&#45;&gt;Node2</title>
<path fill="none" stroke="orange" stroke-dasharray="5,2" d="M127.5,-125.24C127.5,-113.41 127.5,-98.38 127.5,-87.58"/>
<polygon fill="orange" stroke="orange" points="124,-125.36 127.5,-135.36 131,-125.36 124,-125.36"/>
<text text-anchor="middle" x="165" y="-109" font-family="Helvetica,sans-Serif" font-size="10.00"> &lt; std::string &gt;</text>
</g>
<!-- Node7 -->
<g id="node7" class="node">
<title>Node7</title>
<g id="a_node7"><a xlink:title=" ">
<polygon fill="white" stroke="#bfbfbf" points="113,-208 113,-227 142,-227 142,-208 113,-208"/>
<text text-anchor="middle" x="127.5" y="-215" font-family="Helvetica,sans-Serif" font-size="10.00">T</text>
</a>
</g>
</g>
<!-- Node7&#45;&gt;Node6 -->
<g id="edge7" class="edge">
<title>Node7&#45;&gt;Node6</title>
<path fill="none" stroke="#9a32cd" stroke-dasharray="5,2" d="M127.5,-197.44C127.5,-183.53 127.5,-165.32 127.5,-154.72"/>
<polygon fill="#9a32cd" stroke="#9a32cd" points="124,-197.86 127.5,-207.86 131,-197.86 124,-197.86"/>
<text text-anchor="middle" x="143" y="-176" font-family="Helvetica,sans-Serif" font-size="10.00"> _data</text>
</g>
</g>
</svg>
