<?xml version="1.0" encoding="UTF-8" standalone="no"?>
<!DOCTYPE svg PUBLIC "-//W3C//DTD SVG 1.1//EN"
 "http://www.w3.org/Graphics/SVG/1.1/DTD/svg11.dtd">
<!-- Generated by graphviz version 2.43.0 (0)
 -->
<!-- Title: /scratch/dragon/sources/ChimeraTK&#45;ControlSystemAdapter&#45;TangoAdapter/include/TangoAdapter.h Pages: 1 -->
<svg width="1516pt" height="139pt"
 viewBox="0.00 0.00 1515.50 139.00" xmlns="http://www.w3.org/2000/svg" xmlns:xlink="http://www.w3.org/1999/xlink">
<g id="graph0" class="graph" transform="scale(1 1) rotate(0) translate(4 135)">
<title>/scratch/dragon/sources/ChimeraTK&#45;ControlSystemAdapter&#45;TangoAdapter/include/TangoAdapter.h</title>
<polygon fill="white" stroke="transparent" points="-4,4 -4,-135 1511.5,-135 1511.5,4 -4,4"/>
<!-- Node1 -->
<g id="node1" class="node">
<title>Node1</title>
<g id="a_node1"><a xlink:title=" ">
<polygon fill="#bfbfbf" stroke="black" points="693,-89.5 693,-130.5 896,-130.5 896,-89.5 693,-89.5"/>
<text text-anchor="start" x="701" y="-118.5" font-family="Helvetica,sans-Serif" font-size="10.00">/scratch/dragon/sources</text>
<text text-anchor="start" x="701" y="-107.5" font-family="Helvetica,sans-Serif" font-size="10.00">/ChimeraTK&#45;ControlSystemAdapter</text>
<text text-anchor="middle" x="794.5" y="-96.5" font-family="Helvetica,sans-Serif" font-size="10.00">&#45;TangoAdapter/include/TangoAdapter.h</text>
</a>
</g>
</g>
<!-- Node2 -->
<g id="node2" class="node">
<title>Node2</title>
<g id="a_node2"><a xlink:href="_adapter_device_class_8cpp.html" target="_top" xlink:title=" ">
<polygon fill="white" stroke="black" points="0,-6 0,-47 225,-47 225,-6 0,-6"/>
<text text-anchor="start" x="8" y="-35" font-family="Helvetica,sans-Serif" font-size="10.00">/scratch/dragon/sources</text>
<text text-anchor="start" x="8" y="-24" font-family="Helvetica,sans-Serif" font-size="10.00">/ChimeraTK&#45;ControlSystemAdapter</text>
<text text-anchor="middle" x="112.5" y="-13" font-family="Helvetica,sans-Serif" font-size="10.00">&#45;TangoAdapter/src/AdapterDeviceClass.cpp</text>
</a>
</g>
</g>
<!-- Node1&#45;&gt;Node2 -->
<g id="edge1" class="edge">
<title>Node1&#45;&gt;Node2</title>
<path fill="none" stroke="midnightblue" d="M682.9,-101.44C569.36,-92.9 388.54,-77 233.5,-53 222.47,-51.29 210.93,-49.23 199.53,-47.02"/>
<polygon fill="midnightblue" stroke="midnightblue" points="682.76,-104.93 692.99,-102.19 683.28,-97.95 682.76,-104.93"/>
</g>
<!-- Node3 -->
<g id="node3" class="node">
<title>Node3</title>
<g id="a_node3"><a xlink:href="_adapter_device_impl_8cpp.html" target="_top" xlink:title=" ">
<polygon fill="white" stroke="black" points="243,-6 243,-47 464,-47 464,-6 243,-6"/>
<text text-anchor="start" x="251" y="-35" font-family="Helvetica,sans-Serif" font-size="10.00">/scratch/dragon/sources</text>
<text text-anchor="start" x="251" y="-24" font-family="Helvetica,sans-Serif" font-size="10.00">/ChimeraTK&#45;ControlSystemAdapter</text>
<text text-anchor="middle" x="353.5" y="-13" font-family="Helvetica,sans-Serif" font-size="10.00">&#45;TangoAdapter/src/AdapterDeviceImpl.cpp</text>
</a>
</g>
</g>
<!-- Node1&#45;&gt;Node3 -->
<g id="edge2" class="edge">
<title>Node1&#45;&gt;Node3</title>
<path fill="none" stroke="midnightblue" d="M682.6,-90.51C620.84,-80.05 542.82,-66.41 473.5,-53 463.78,-51.12 453.63,-49.08 443.52,-47"/>
<polygon fill="midnightblue" stroke="midnightblue" points="682.32,-94.02 692.76,-92.23 683.49,-87.11 682.32,-94.02"/>
</g>
<!-- Node4 -->
<g id="node4" class="node">
<title>Node4</title>
<g id="a_node4"><a xlink:href="_attribut_mapper_8cpp.html" target="_top" xlink:title=" ">
<polygon fill="white" stroke="black" points="482.5,-6 482.5,-47 682.5,-47 682.5,-6 482.5,-6"/>
<text text-anchor="start" x="490.5" y="-35" font-family="Helvetica,sans-Serif" font-size="10.00">/scratch/dragon/sources</text>
<text text-anchor="start" x="490.5" y="-24" font-family="Helvetica,sans-Serif" font-size="10.00">/ChimeraTK&#45;ControlSystemAdapter</text>
<text text-anchor="middle" x="582.5" y="-13" font-family="Helvetica,sans-Serif" font-size="10.00">&#45;TangoAdapter/src/AttributMapper.cpp</text>
</a>
</g>
</g>
<!-- Node1&#45;&gt;Node4 -->
<g id="edge3" class="edge">
<title>Node1&#45;&gt;Node4</title>
<path fill="none" stroke="midnightblue" d="M734.06,-85.77C702.19,-73.51 663.53,-58.65 633.23,-47"/>
<polygon fill="midnightblue" stroke="midnightblue" points="733.13,-89.16 743.72,-89.48 735.64,-82.62 733.13,-89.16"/>
</g>
<!-- Node5 -->
<g id="node5" class="node">
<title>Node5</title>
<g id="a_node5"><a xlink:href="_class_factory_8cpp.html" target="_top" xlink:title=" ">
<polygon fill="white" stroke="black" points="701,-6 701,-47 888,-47 888,-6 701,-6"/>
<text text-anchor="start" x="709" y="-35" font-family="Helvetica,sans-Serif" font-size="10.00">/scratch/dragon/sources</text>
<text text-anchor="start" x="709" y="-24" font-family="Helvetica,sans-Serif" font-size="10.00">/ChimeraTK&#45;ControlSystemAdapter</text>
<text text-anchor="middle" x="794.5" y="-13" font-family="Helvetica,sans-Serif" font-size="10.00">&#45;TangoAdapter/src/ClassFactory.cpp</text>
</a>
</g>
</g>
<!-- Node1&#45;&gt;Node5 -->
<g id="edge4" class="edge">
<title>Node1&#45;&gt;Node5</title>
<path fill="none" stroke="midnightblue" d="M794.5,-79.06C794.5,-68.38 794.5,-56.63 794.5,-47.05"/>
<polygon fill="midnightblue" stroke="midnightblue" points="791,-79.27 794.5,-89.27 798,-79.27 791,-79.27"/>
</g>
<!-- Node6 -->
<g id="node6" class="node">
<title>Node6</title>
<g id="a_node6"><a xlink:href="main_8cpp.html" target="_top" xlink:title=" ">
<polygon fill="white" stroke="black" points="905.5,-6 905.5,-47 1091.5,-47 1091.5,-6 905.5,-6"/>
<text text-anchor="start" x="913.5" y="-35" font-family="Helvetica,sans-Serif" font-size="10.00">/scratch/dragon/sources</text>
<text text-anchor="start" x="913.5" y="-24" font-family="Helvetica,sans-Serif" font-size="10.00">/ChimeraTK&#45;ControlSystemAdapter</text>
<text text-anchor="middle" x="998.5" y="-13" font-family="Helvetica,sans-Serif" font-size="10.00">&#45;TangoAdapter/src/main.cpp</text>
</a>
</g>
</g>
<!-- Node1&#45;&gt;Node6 -->
<g id="edge5" class="edge">
<title>Node1&#45;&gt;Node6</title>
<path fill="none" stroke="midnightblue" d="M852.66,-85.77C883.33,-73.51 920.53,-58.65 949.68,-47"/>
<polygon fill="midnightblue" stroke="midnightblue" points="851.35,-82.52 843.36,-89.48 853.95,-89.02 851.35,-82.52"/>
</g>
<!-- Node7 -->
<g id="node7" class="node">
<title>Node7</title>
<g id="a_node7"><a xlink:href="_tango_adapter_8cpp.html" target="_top" xlink:title=" ">
<polygon fill="white" stroke="black" points="1110,-6 1110,-47 1303,-47 1303,-6 1110,-6"/>
<text text-anchor="start" x="1118" y="-35" font-family="Helvetica,sans-Serif" font-size="10.00">/scratch/dragon/sources</text>
<text text-anchor="start" x="1118" y="-24" font-family="Helvetica,sans-Serif" font-size="10.00">/ChimeraTK&#45;ControlSystemAdapter</text>
<text text-anchor="middle" x="1206.5" y="-13" font-family="Helvetica,sans-Serif" font-size="10.00">&#45;TangoAdapter/src/TangoAdapter.cpp</text>
</a>
</g>
</g>
<!-- Node1&#45;&gt;Node7 -->
<g id="edge6" class="edge">
<title>Node1&#45;&gt;Node7</title>
<path fill="none" stroke="midnightblue" d="M906.02,-90.11C964.15,-79.88 1036.32,-66.58 1100.5,-53 1109.2,-51.16 1118.28,-49.13 1127.31,-47.05"/>
<polygon fill="midnightblue" stroke="midnightblue" points="905.32,-86.68 896.08,-91.86 906.53,-93.58 905.32,-86.68"/>
</g>
<!-- Node8 -->
<g id="node8" class="node">
<title>Node8</title>
<g id="a_node8"><a xlink:href="_tango_test_server_8cc.html" target="_top" xlink:title=" ">
<polygon fill="white" stroke="black" points="1321.5,-0.5 1321.5,-52.5 1507.5,-52.5 1507.5,-0.5 1321.5,-0.5"/>
<text text-anchor="start" x="1329.5" y="-40.5" font-family="Helvetica,sans-Serif" font-size="10.00">/scratch/dragon/sources</text>
<text text-anchor="start" x="1329.5" y="-29.5" font-family="Helvetica,sans-Serif" font-size="10.00">/ChimeraTK&#45;ControlSystemAdapter</text>
<text text-anchor="start" x="1329.5" y="-18.5" font-family="Helvetica,sans-Serif" font-size="10.00">&#45;TangoAdapter/tests/src_lib</text>
<text text-anchor="middle" x="1414.5" y="-7.5" font-family="Helvetica,sans-Serif" font-size="10.00">/TangoTestServer.cc</text>
</a>
</g>
</g>
<!-- Node1&#45;&gt;Node8 -->
<g id="edge7" class="edge">
<title>Node1&#45;&gt;Node8</title>
<path fill="none" stroke="midnightblue" d="M906.34,-101.37C1011.68,-93.13 1173.61,-77.75 1312.5,-53 1315.38,-52.49 1318.29,-51.94 1321.23,-51.36"/>
<polygon fill="midnightblue" stroke="midnightblue" points="906.03,-97.88 896.33,-102.14 906.57,-104.86 906.03,-97.88"/>
</g>
</g>
</svg>
