<?xml version="1.0" encoding="UTF-8" standalone="no"?>
<!DOCTYPE svg PUBLIC "-//W3C//DTD SVG 1.1//EN"
 "http://www.w3.org/Graphics/SVG/1.1/DTD/svg11.dtd">
<!-- Generated by graphviz version 2.40.1 (20161225.0304)
 -->
<!-- Title: include/model_prebuilt/csa_namespaceinit_generated.h Pages: 1 -->
<svg width="1387pt" height="173pt"
 viewBox="0.00 0.00 1386.50 173.00" xmlns="http://www.w3.org/2000/svg" xmlns:xlink="http://www.w3.org/1999/xlink">
<g id="graph0" class="graph" transform="scale(1 1) rotate(0) translate(4 169)">
<title>include/model_prebuilt/csa_namespaceinit_generated.h</title>
<polygon fill="#ffffff" stroke="transparent" points="-4,4 -4,-169 1382.5,-169 1382.5,4 -4,4"/>
<!-- Node2 -->
<g id="node1" class="node">
<title>Node2</title>
<polygon fill="#bfbfbf" stroke="#000000" points="609.5,-134.5 609.5,-164.5 786.5,-164.5 786.5,-134.5 609.5,-134.5"/>
<text text-anchor="start" x="617.5" y="-152.5" font-family="Helvetica,sans-Serif" font-size="10.00" fill="#000000">include/model_prebuilt</text>
<text text-anchor="middle" x="698" y="-141.5" font-family="Helvetica,sans-Serif" font-size="10.00" fill="#000000">/csa_namespaceinit_generated.h</text>
</g>
<!-- Node3 -->
<g id="node2" class="node">
<title>Node3</title>
<g id="a_node2"><a xlink:href="csa__opcua__adapter__example_8cpp.html" target="_top" xlink:title="examples/csa_opcua\l_adapter_example.cpp">
<polygon fill="#ffffff" stroke="#000000" points="0,-67.5 0,-97.5 128,-97.5 128,-67.5 0,-67.5"/>
<text text-anchor="start" x="8" y="-85.5" font-family="Helvetica,sans-Serif" font-size="10.00" fill="#000000">examples/csa_opcua</text>
<text text-anchor="middle" x="64" y="-74.5" font-family="Helvetica,sans-Serif" font-size="10.00" fill="#000000">_adapter_example.cpp</text>
</a>
</g>
</g>
<!-- Node2&#45;&gt;Node3 -->
<g id="edge1" class="edge">
<title>Node2&#45;&gt;Node3</title>
<path fill="none" stroke="#191970" d="M598.8869,-143.9386C486.452,-136.8104 297.8225,-122.3689 137,-98 134.0537,-97.5536 131.0476,-97.0622 128.0162,-96.5377"/>
<polygon fill="#191970" stroke="#191970" points="598.9916,-147.4519 609.1911,-144.5849 599.4298,-140.4657 598.9916,-147.4519"/>
</g>
<!-- Node4 -->
<g id="node3" class="node">
<title>Node4</title>
<g id="a_node3"><a xlink:href="csa__opcua__adapter__example2_8cpp.html" target="_top" xlink:title="examples/csa_opcua\l_adapter_example2.cpp">
<polygon fill="#ffffff" stroke="#000000" points="146,-67.5 146,-97.5 280,-97.5 280,-67.5 146,-67.5"/>
<text text-anchor="start" x="154" y="-85.5" font-family="Helvetica,sans-Serif" font-size="10.00" fill="#000000">examples/csa_opcua</text>
<text text-anchor="middle" x="213" y="-74.5" font-family="Helvetica,sans-Serif" font-size="10.00" fill="#000000">_adapter_example2.cpp</text>
</a>
</g>
</g>
<!-- Node2&#45;&gt;Node4 -->
<g id="edge2" class="edge">
<title>Node2&#45;&gt;Node4</title>
<path fill="none" stroke="#191970" d="M598.9764,-139.1622C515.9551,-129.9852 394.4119,-115.3601 289,-98 286.0768,-97.5186 283.0948,-97.0055 280.0856,-96.4696"/>
<polygon fill="#191970" stroke="#191970" points="598.837,-142.6679 609.1596,-140.2819 599.6021,-135.7099 598.837,-142.6679"/>
</g>
<!-- Node5 -->
<g id="node4" class="node">
<title>Node5</title>
<g id="a_node4"><a xlink:href="csa__namespaceinit__generated_8c.html" target="_top" xlink:title="include/model_prebuilt\l/csa_namespaceinit_generated.c">
<polygon fill="#ffffff" stroke="#000000" points="298,-67.5 298,-97.5 474,-97.5 474,-67.5 298,-67.5"/>
<text text-anchor="start" x="306" y="-85.5" font-family="Helvetica,sans-Serif" font-size="10.00" fill="#000000">include/model_prebuilt</text>
<text text-anchor="middle" x="386" y="-74.5" font-family="Helvetica,sans-Serif" font-size="10.00" fill="#000000">/csa_namespaceinit_generated.c</text>
</a>
</g>
</g>
<!-- Node2&#45;&gt;Node5 -->
<g id="edge3" class="edge">
<title>Node2&#45;&gt;Node5</title>
<path fill="none" stroke="#191970" d="M618.1609,-132.3551C568.0912,-121.6029 504.1506,-107.8721 456.0546,-97.5438"/>
<polygon fill="#191970" stroke="#191970" points="617.4691,-135.7862 627.9811,-134.4639 618.9389,-128.9423 617.4691,-135.7862"/>
</g>
<!-- Node6 -->
<g id="node5" class="node">
<title>Node6</title>
<g id="a_node5"><a xlink:href="ua__adapter_8cpp.html" target="_top" xlink:title="src/ua_adapter.cpp">
<polygon fill="#ffffff" stroke="#000000" points="492,-73 492,-92 600,-92 600,-73 492,-73"/>
<text text-anchor="middle" x="546" y="-80" font-family="Helvetica,sans-Serif" font-size="10.00" fill="#000000">src/ua_adapter.cpp</text>
</a>
</g>
</g>
<!-- Node2&#45;&gt;Node6 -->
<g id="edge4" class="edge">
<title>Node2&#45;&gt;Node6</title>
<path fill="none" stroke="#191970" d="M654.5809,-130.3613C626.2026,-117.8525 590.3486,-102.0484 567.788,-92.1039"/>
<polygon fill="#191970" stroke="#191970" points="653.326,-133.6331 663.8882,-134.4639 656.1495,-127.2277 653.326,-133.6331"/>
</g>
<!-- Node7 -->
<g id="node6" class="node">
<title>Node7</title>
<g id="a_node6"><a xlink:href="ua__additionalvariable_8cpp.html" target="_top" xlink:title="src/ua_additionalvariable.cpp">
<polygon fill="#ffffff" stroke="#000000" points="618,-73 618,-92 778,-92 778,-73 618,-73"/>
<text text-anchor="middle" x="698" y="-80" font-family="Helvetica,sans-Serif" font-size="10.00" fill="#000000">src/ua_additionalvariable.cpp</text>
</a>
</g>
</g>
<!-- Node2&#45;&gt;Node7 -->
<g id="edge5" class="edge">
<title>Node2&#45;&gt;Node7</title>
<path fill="none" stroke="#191970" d="M698,-124.1199C698,-112.9072 698,-100.4031 698,-92.055"/>
<polygon fill="#191970" stroke="#191970" points="694.5001,-124.2966 698,-134.2967 701.5001,-124.2967 694.5001,-124.2966"/>
</g>
<!-- Node8 -->
<g id="node7" class="node">
<title>Node8</title>
<g id="a_node7"><a xlink:href="ua__processvariable_8cpp.html" target="_top" xlink:title="src/ua_processvariable.cpp">
<polygon fill="#ffffff" stroke="#000000" points="796.5,-73 796.5,-92 945.5,-92 945.5,-73 796.5,-73"/>
<text text-anchor="middle" x="871" y="-80" font-family="Helvetica,sans-Serif" font-size="10.00" fill="#000000">src/ua_processvariable.cpp</text>
</a>
</g>
</g>
<!-- Node2&#45;&gt;Node8 -->
<g id="edge6" class="edge">
<title>Node2&#45;&gt;Node8</title>
<path fill="none" stroke="#191970" d="M746.187,-130.838C778.7803,-118.2151 820.4688,-102.0699 846.4565,-92.0053"/>
<polygon fill="#191970" stroke="#191970" points="744.8856,-127.5886 736.8246,-134.4639 747.4137,-134.1162 744.8856,-127.5886"/>
</g>
<!-- Node9 -->
<g id="node8" class="node">
<title>Node9</title>
<g id="a_node8"><a xlink:href="test__sample__data_8h.html" target="_top" xlink:title="tests/include/test\l_sample_data.h">
<polygon fill="#ffffff" stroke="#000000" points="1001.5,-67.5 1001.5,-97.5 1102.5,-97.5 1102.5,-67.5 1001.5,-67.5"/>
<text text-anchor="start" x="1009.5" y="-85.5" font-family="Helvetica,sans-Serif" font-size="10.00" fill="#000000">tests/include/test</text>
<text text-anchor="middle" x="1052" y="-74.5" font-family="Helvetica,sans-Serif" font-size="10.00" fill="#000000">_sample_data.h</text>
</a>
</g>
</g>
<!-- Node2&#45;&gt;Node9 -->
<g id="edge7" class="edge">
<title>Node2&#45;&gt;Node9</title>
<path fill="none" stroke="#191970" d="M796.7058,-133.3627C852.6784,-123.8486 923.9281,-111.1284 987,-98 991.6567,-97.0307 996.489,-95.9743 1001.3213,-94.8836"/>
<polygon fill="#191970" stroke="#191970" points="796.0693,-129.9206 786.794,-135.0411 797.2381,-136.8223 796.0693,-129.9206"/>
</g>
<!-- Node10 -->
<g id="node9" class="node">
<title>Node10</title>
<g id="a_node9"><a xlink:href="test__csa__opcua__adapter_8cpp.html" target="_top" xlink:title="tests/src/test_csa\l_opcua_adapter.cpp">
<polygon fill="#ffffff" stroke="#000000" points="714.5,-.5 714.5,-30.5 827.5,-30.5 827.5,-.5 714.5,-.5"/>
<text text-anchor="start" x="722.5" y="-18.5" font-family="Helvetica,sans-Serif" font-size="10.00" fill="#000000">tests/src/test_csa</text>
<text text-anchor="middle" x="771" y="-7.5" font-family="Helvetica,sans-Serif" font-size="10.00" fill="#000000">_opcua_adapter.cpp</text>
</a>
</g>
</g>
<!-- Node2&#45;&gt;Node10 -->
<g id="edge13" class="edge">
<title>Node2&#45;&gt;Node10</title>
<path fill="none" stroke="#191970" d="M796.682,-142.4683C860.3383,-135.6429 934.8768,-122.5557 955,-98 963.733,-87.3434 963.3265,-77.9771 955,-67 950.9905,-61.7142 880.1179,-42.9185 827.5272,-29.565"/>
<polygon fill="#191970" stroke="#191970" points="796.1573,-139.0038 786.5689,-143.5108 796.8752,-145.9669 796.1573,-139.0038"/>
</g>
<!-- Node13 -->
<g id="node12" class="node">
<title>Node13</title>
<g id="a_node12"><a xlink:href="test__opcua__processvariable_8cpp.html" target="_top" xlink:title="tests/src/test_opcua\l_processvariable.cpp">
<polygon fill="#ffffff" stroke="#000000" points="1259.5,-.5 1259.5,-30.5 1378.5,-30.5 1378.5,-.5 1259.5,-.5"/>
<text text-anchor="start" x="1267.5" y="-18.5" font-family="Helvetica,sans-Serif" font-size="10.00" fill="#000000">tests/src/test_opcua</text>
<text text-anchor="middle" x="1319" y="-7.5" font-family="Helvetica,sans-Serif" font-size="10.00" fill="#000000">_processvariable.cpp</text>
</a>
</g>
</g>
<!-- Node2&#45;&gt;Node13 -->
<g id="edge14" class="edge">
<title>Node2&#45;&gt;Node13</title>
<path fill="none" stroke="#191970" d="M796.9765,-144.3068C881.6873,-138.1803 1006.3349,-125.1506 1112,-98 1176.8221,-81.344 1248.5659,-49.5235 1288.2733,-30.6407"/>
<polygon fill="#191970" stroke="#191970" points="796.5772,-140.8261 786.8479,-145.0201 797.0691,-147.8088 796.5772,-140.8261"/>
</g>
<!-- Node9&#45;&gt;Node10 -->
<g id="edge8" class="edge">
<title>Node9&#45;&gt;Node10</title>
<path fill="none" stroke="#191970" d="M991.6987,-68.1221C943.1918,-56.5564 875.5101,-40.4188 827.9234,-29.0725"/>
<polygon fill="#191970" stroke="#191970" points="990.8992,-71.5295 1001.4383,-70.4444 992.5228,-64.7204 990.8992,-71.5295"/>
</g>
<!-- Node11 -->
<g id="node10" class="node">
<title>Node11</title>
<g id="a_node10"><a xlink:href="test__opcua__additionalvariable_8cpp.html" target="_top" xlink:title="tests/src/test_opcua\l_additionalvariable.cpp">
<polygon fill="#ffffff" stroke="#000000" points="845.5,-.5 845.5,-30.5 976.5,-30.5 976.5,-.5 845.5,-.5"/>
<text text-anchor="start" x="853.5" y="-18.5" font-family="Helvetica,sans-Serif" font-size="10.00" fill="#000000">tests/src/test_opcua</text>
<text text-anchor="middle" x="911" y="-7.5" font-family="Helvetica,sans-Serif" font-size="10.00" fill="#000000">_additionalvariable.cpp</text>
</a>
</g>
</g>
<!-- Node9&#45;&gt;Node11 -->
<g id="edge9" class="edge">
<title>Node9&#45;&gt;Node11</title>
<path fill="none" stroke="#191970" d="M1011.0717,-63.0518C989.4059,-52.7567 963.1892,-40.2991 943.0254,-30.7177"/>
<polygon fill="#191970" stroke="#191970" points="1009.8225,-66.3332 1020.3568,-67.4639 1012.8269,-60.0107 1009.8225,-66.3332"/>
</g>
<!-- Node12 -->
<g id="node11" class="node">
<title>Node12</title>
<g id="a_node11"><a xlink:href="test__opcua__mapping_8cpp.html" target="_top" xlink:title="tests/src/test_opcua\l_mapping.cpp">
<polygon fill="#ffffff" stroke="#000000" points="995,-.5 995,-30.5 1109,-30.5 1109,-.5 995,-.5"/>
<text text-anchor="start" x="1003" y="-18.5" font-family="Helvetica,sans-Serif" font-size="10.00" fill="#000000">tests/src/test_opcua</text>
<text text-anchor="middle" x="1052" y="-7.5" font-family="Helvetica,sans-Serif" font-size="10.00" fill="#000000">_mapping.cpp</text>
</a>
</g>
</g>
<!-- Node9&#45;&gt;Node12 -->
<g id="edge10" class="edge">
<title>Node9&#45;&gt;Node12</title>
<path fill="none" stroke="#191970" d="M1052,-57.0249C1052,-48.128 1052,-38.4287 1052,-30.6432"/>
<polygon fill="#191970" stroke="#191970" points="1048.5001,-57.2966 1052,-67.2967 1055.5001,-57.2967 1048.5001,-57.2966"/>
</g>
<!-- Node9&#45;&gt;Node13 -->
<g id="edge11" class="edge">
<title>Node9&#45;&gt;Node13</title>
<path fill="none" stroke="#191970" d="M1112.5097,-67.3159C1156.4443,-56.2911 1215.6071,-41.445 1259.3429,-30.4701"/>
<polygon fill="#191970" stroke="#191970" points="1111.3819,-63.9903 1102.5346,-69.819 1113.0857,-70.7798 1111.3819,-63.9903"/>
</g>
<!-- Node14 -->
<g id="node13" class="node">
<title>Node14</title>
<g id="a_node13"><a xlink:href="test__opcua__uaadapter_8cpp.html" target="_top" xlink:title="tests/src/test_opcua\l_uaadapter.cpp">
<polygon fill="#ffffff" stroke="#000000" points="1127,-.5 1127,-30.5 1241,-30.5 1241,-.5 1127,-.5"/>
<text text-anchor="start" x="1135" y="-18.5" font-family="Helvetica,sans-Serif" font-size="10.00" fill="#000000">tests/src/test_opcua</text>
<text text-anchor="middle" x="1184" y="-7.5" font-family="Helvetica,sans-Serif" font-size="10.00" fill="#000000">_uaadapter.cpp</text>
</a>
</g>
</g>
<!-- Node9&#45;&gt;Node14 -->
<g id="edge12" class="edge">
<title>Node9&#45;&gt;Node14</title>
<path fill="none" stroke="#191970" d="M1090.589,-62.9132C1110.8187,-52.645 1135.2267,-40.2561 1154.0188,-30.7177"/>
<polygon fill="#191970" stroke="#191970" points="1088.9563,-59.8168 1081.6234,-67.4639 1092.1246,-66.0587 1088.9563,-59.8168"/>
</g>
</g>
</svg>
