<?xml version="1.0" encoding="UTF-8" standalone="no"?>
<!DOCTYPE svg PUBLIC "-//W3C//DTD SVG 1.1//EN"
 "http://www.w3.org/Graphics/SVG/1.1/DTD/svg11.dtd">
<!-- Generated by graphviz version 2.43.0 (0)
 -->
<!-- Title: ctk_opcua_generator_tools.generatorForm.MapGeneratorForm._setupRow Pages: 1 -->
<!--zoomable 167 -->

<svg id="main" version="1.1" xmlns="http://www.w3.org/2000/svg" xmlns:xlink="http://www.w3.org/1999/xlink" xml:space="preserve" onload="init(evt)">
<style type="text/css"><![CDATA[
.node, .edge {opacity: 0.7;}
.node.selected, .edge.selected {opacity: 1;}
.edge:hover path { stroke: red; }
.edge:hover polygon { stroke: red; fill: red; }
]]></style>

<defs>
  <circle id="rim" cx="0" cy="0" r="7"/>
  <circle id="rim2" cx="0" cy="0" r="3.5"/>
  <g id="zoomPlus">
    <use xlink:href="#rim" fill="#404040"><set attributeName="fill" to="#808080" begin="zoomplus.mouseover" end="zoomplus.mouseout"/></use>
    <path d="M-4,0h8M0,-4v8" fill="none" stroke="white" stroke-width="1.5" pointer-events="none"/>
  </g>
  <g id="zoomMin">
    <use xlink:href="#rim" fill="#404040"><set attributeName="fill" to="#808080" begin="zoomminus.mouseover" end="zoomminus.mouseout"/></use>
    <path d="M-4,0h8" fill="none" stroke="white" stroke-width="1.5" pointer-events="none"/>
  </g>
  <g id="arrowUp" transform="translate(30 24)">
    <use xlink:href="#rim"/>
    <path pointer-events="none" fill="none" stroke="white" stroke-width="1.5" d="M0,-3.0v7 M-2.5,-0.5L0,-3.0L2.5,-0.5"/>
  </g>
  <g id="arrowRight" transform="rotate(90) translate(36 -43)">
    <use xlink:href="#rim"/>
    <path pointer-events="none" fill="none" stroke="white" stroke-width="1.5" d="M0,-3.0v7 M-2.5,-0.5L0,-3.0L2.5,-0.5"/>
  </g>
  <g id="arrowDown" transform="rotate(180) translate(-30 -48)">
    <use xlink:href="#rim"/>
    <path pointer-events="none" fill="none" stroke="white" stroke-width="1.5" d="M0,-3.0v7 M-2.5,-0.5L0,-3.0L2.5,-0.5"/>
  </g>
  <g id="arrowLeft" transform="rotate(270) translate(-36 17)">
    <use xlink:href="#rim"/>
    <path pointer-events="none" fill="none" stroke="white" stroke-width="1.5" d="M0,-3.0v7 M-2.5,-0.5L0,-3.0L2.5,-0.5"/>
  </g>
  <g id="resetDef">
    <use xlink:href="#rim2" fill="#404040"><set attributeName="fill" to="#808080" begin="reset.mouseover" end="reset.mouseout"/></use>
  </g>
</defs>
<script type="application/ecmascript">
var viewWidth = 892;
var viewHeight = 167;
var sectionId = 'dynsection-22';
</script>
<script type="application/ecmascript" xlink:href="svg.min.js"/>
<svg id="graph" class="graph">
<g id="viewport">
<title>ctk_opcua_generator_tools.generatorForm.MapGeneratorForm._setupRow</title>
<!-- Node1 -->
<g id="Node000001" class="node">
<title>Node1</title>
<g id="a_Node000001"><a xlink:title=" ">
<polygon fill="#999999" stroke="#666666" points="194,-70 0,-70 0,-29 194,-29 194,-70"/>
<text text-anchor="start" x="8" y="-58" font-family="Helvetica,sans-Serif" font-size="10.00">ctk_opcua_generator</text>
<text text-anchor="start" x="8" y="-47" font-family="Helvetica,sans-Serif" font-size="10.00">_tools.generatorForm.MapGenerator</text>
<text text-anchor="middle" x="97" y="-36" font-family="Helvetica,sans-Serif" font-size="10.00">Form._setupRow</text>
</a>
</g>
</g>
<!-- Node2 -->
<g id="Node000002" class="node">
<title>Node2</title>
<g id="a_Node000002"><a xlink:href="classctk__opcua__generator__tools_1_1generator_form_1_1_map_generator_form.html#ab82dd7925142c113f86686db50599a57" target="_top" xlink:title=" ">
<polygon fill="white" stroke="#666666" points="424,-100 230,-100 230,-59 424,-59 424,-100"/>
<text text-anchor="start" x="238" y="-88" font-family="Helvetica,sans-Serif" font-size="10.00">ctk_opcua_generator</text>
<text text-anchor="start" x="238" y="-77" font-family="Helvetica,sans-Serif" font-size="10.00">_tools.generatorForm.MapGenerator</text>
<text text-anchor="middle" x="327" y="-66" font-family="Helvetica,sans-Serif" font-size="10.00">Form._getCheckBox</text>
</a>
</g>
</g>
<!-- Node1&#45;&gt;Node2 -->
<g id="edge1_Node000001_Node000002" class="edge">
<title>Node1&#45;&gt;Node2</title>
<g id="a_edge1_Node000001_Node000002"><a xlink:title=" ">
<path fill="none" stroke="#63b8ff" d="M194.03,-62.14C202.52,-63.25 211.14,-64.39 219.7,-65.51"/>
<polygon fill="#63b8ff" stroke="#63b8ff" points="219.34,-69 229.71,-66.83 220.26,-62.06 219.34,-69"/>
</a>
</g>
</g>
<!-- Node6 -->
<g id="Node000006" class="node">
<title>Node6</title>
<g id="a_Node000006"><a xlink:href="classctk__opcua__generator__tools_1_1generator_form_1_1_map_generator_form.html#a655564f2550dda4c993fa1cd7c1b11a2" target="_top" xlink:title=" ">
<polygon fill="white" stroke="#666666" points="424,-41 230,-41 230,0 424,0 424,-41"/>
<text text-anchor="start" x="238" y="-29" font-family="Helvetica,sans-Serif" font-size="10.00">ctk_opcua_generator</text>
<text text-anchor="start" x="238" y="-18" font-family="Helvetica,sans-Serif" font-size="10.00">_tools.generatorForm.MapGenerator</text>
<text text-anchor="middle" x="327" y="-7" font-family="Helvetica,sans-Serif" font-size="10.00">Form._getComboBox</text>
</a>
</g>
</g>
<!-- Node1&#45;&gt;Node6 -->
<g id="edge6_Node000001_Node000006" class="edge">
<title>Node1&#45;&gt;Node6</title>
<g id="a_edge6_Node000001_Node000006"><a xlink:title=" ">
<path fill="none" stroke="#63b8ff" d="M194.03,-37.29C202.52,-36.21 211.14,-35.11 219.7,-34.02"/>
<polygon fill="#63b8ff" stroke="#63b8ff" points="220.24,-37.48 229.71,-32.75 219.35,-30.54 220.24,-37.48"/>
</a>
</g>
</g>
<!-- Node3 -->
<g id="Node000003" class="node">
<title>Node3</title>
<g id="a_Node000003"><a xlink:href="classctk__opcua__generator__tools_1_1generator_form_1_1_map_generator_form.html#afa3b4b730a20f22c8fab3bc3af491e99" target="_top" xlink:title=" ">
<polygon fill="white" stroke="#666666" points="654,-159 460,-159 460,-118 654,-118 654,-159"/>
<text text-anchor="start" x="468" y="-147" font-family="Helvetica,sans-Serif" font-size="10.00">ctk_opcua_generator</text>
<text text-anchor="start" x="468" y="-136" font-family="Helvetica,sans-Serif" font-size="10.00">_tools.generatorForm.MapGenerator</text>
<text text-anchor="middle" x="557" y="-125" font-family="Helvetica,sans-Serif" font-size="10.00">Form._mapDirectory</text>
</a>
</g>
</g>
<!-- Node2&#45;&gt;Node3 -->
<g id="edge2_Node000002_Node000003" class="edge">
<title>Node2&#45;&gt;Node3</title>
<g id="a_edge2_Node000002_Node000003"><a xlink:title=" ">
<path fill="none" stroke="#63b8ff" d="M407.42,-100.05C426.55,-105 447.12,-110.32 466.67,-115.38"/>
<polygon fill="#63b8ff" stroke="#63b8ff" points="465.92,-118.8 476.48,-117.92 467.67,-112.03 465.92,-118.8"/>
</a>
</g>
</g>
<!-- Node5 -->
<g id="Node000005" class="node">
<title>Node5</title>
<g id="a_Node000005"><a xlink:href="classctk__opcua__generator__tools_1_1generator_form_1_1_map_generator_form.html#a4a13a5b30d01d0a87717b5ffe6016937" target="_top" xlink:title=" ">
<polygon fill="white" stroke="#666666" points="654,-100 460,-100 460,-59 654,-59 654,-100"/>
<text text-anchor="start" x="468" y="-88" font-family="Helvetica,sans-Serif" font-size="10.00">ctk_opcua_generator</text>
<text text-anchor="start" x="468" y="-77" font-family="Helvetica,sans-Serif" font-size="10.00">_tools.generatorForm.MapGenerator</text>
<text text-anchor="middle" x="557" y="-66" font-family="Helvetica,sans-Serif" font-size="10.00">Form._mapItem</text>
</a>
</g>
</g>
<!-- Node2&#45;&gt;Node5 -->
<g id="edge4_Node000002_Node000005" class="edge">
<title>Node2&#45;&gt;Node5</title>
<g id="a_edge4_Node000002_Node000005"><a xlink:title=" ">
<path fill="none" stroke="#63b8ff" d="M424.03,-79.5C432.52,-79.5 441.14,-79.5 449.7,-79.5"/>
<polygon fill="#63b8ff" stroke="#63b8ff" points="449.71,-83 459.71,-79.5 449.71,-76 449.71,-83"/>
</a>
</g>
</g>
<!-- Node4 -->
<g id="Node000004" class="node">
<title>Node4</title>
<g id="a_Node000004"><a xlink:href="classctk__opcua__generator__tools_1_1generator_form_1_1_map_generator_form.html#ab8e436b129323a58cafa98acd601855d" target="_top" xlink:title=" ">
<polygon fill="white" stroke="#666666" points="884,-129 690,-129 690,-88 884,-88 884,-129"/>
<text text-anchor="start" x="698" y="-117" font-family="Helvetica,sans-Serif" font-size="10.00">ctk_opcua_generator</text>
<text text-anchor="start" x="698" y="-106" font-family="Helvetica,sans-Serif" font-size="10.00">_tools.generatorForm.MapGenerator</text>
<text text-anchor="middle" x="787" y="-95" font-family="Helvetica,sans-Serif" font-size="10.00">Form._setState</text>
</a>
</g>
</g>
<!-- Node3&#45;&gt;Node4 -->
<g id="edge3_Node000003_Node000004" class="edge">
<title>Node3&#45;&gt;Node4</title>
<g id="a_edge3_Node000003_Node000004"><a xlink:title=" ">
<path fill="none" stroke="#63b8ff" d="M654.03,-125.86C662.52,-124.75 671.14,-123.61 679.7,-122.49"/>
<polygon fill="#63b8ff" stroke="#63b8ff" points="680.26,-125.94 689.71,-121.17 679.34,-119 680.26,-125.94"/>
</a>
</g>
</g>
<!-- Node5&#45;&gt;Node4 -->
<g id="edge5_Node000005_Node000004" class="edge">
<title>Node5&#45;&gt;Node4</title>
<g id="a_edge5_Node000005_Node000004"><a xlink:title=" ">
<path fill="none" stroke="#63b8ff" d="M654.03,-91.71C662.52,-92.79 671.14,-93.89 679.7,-94.98"/>
<polygon fill="#63b8ff" stroke="#63b8ff" points="679.35,-98.46 689.71,-96.25 680.24,-91.52 679.35,-98.46"/>
</a>
</g>
</g>
<!-- Node7 -->
<g id="Node000007" class="node">
<title>Node7</title>
<g id="a_Node000007"><a xlink:href="classctk__opcua__generator__tools_1_1generator_form_1_1_map_generator_form.html#af082f0c0a84c2ec4f9d964de9c3bda38" target="_top" xlink:title=" ">
<polygon fill="white" stroke="#666666" points="654,-41 460,-41 460,0 654,0 654,-41"/>
<text text-anchor="start" x="468" y="-29" font-family="Helvetica,sans-Serif" font-size="10.00">ctk_opcua_generator</text>
<text text-anchor="start" x="468" y="-18" font-family="Helvetica,sans-Serif" font-size="10.00">_tools.generatorForm.MapGenerator</text>
<text text-anchor="middle" x="557" y="-7" font-family="Helvetica,sans-Serif" font-size="10.00">Form._setHistoryItem</text>
</a>
</g>
</g>
<!-- Node6&#45;&gt;Node7 -->
<g id="edge7_Node000006_Node000007" class="edge">
<title>Node6&#45;&gt;Node7</title>
<g id="a_edge7_Node000006_Node000007"><a xlink:title=" ">
<path fill="none" stroke="#63b8ff" d="M424.03,-20.5C432.52,-20.5 441.14,-20.5 449.7,-20.5"/>
<polygon fill="#63b8ff" stroke="#63b8ff" points="449.71,-24 459.71,-20.5 449.71,-17 449.71,-24"/>
</a>
</g>
</g>
</g>
</svg>

<g id="navigator" transform="translate(0 0)" fill="#404254">
  <rect fill="#f2f5e9" fill-opacity="0.5" stroke="#606060" stroke-width=".5" x="0" y="0" width="60" height="60"/>
  <use id="zoomplus" xlink:href="#zoomPlus" x="17" y="9" onmousedown="handleZoom(evt,'in')"/>
  <use id="zoomminus" xlink:href="#zoomMin" x="42" y="9" onmousedown="handleZoom(evt,'out')"/>
  <use id="reset" xlink:href="#resetDef" x="30" y="36" onmousedown="handleReset()"/>
   <use id="arrowup" xlink:href="#arrowUp" x="0" y="0" onmousedown="handlePan(0,-1)"/>
  <use id="arrowright" xlink:href="#arrowRight" x="0" y="0" onmousedown="handlePan(1,0)"/>
  <use id="arrowdown" xlink:href="#arrowDown" x="0" y="0" onmousedown="handlePan(0,1)"/>
  <use id="arrowleft" xlink:href="#arrowLeft" x="0" y="0" onmousedown="handlePan(-1,0)"/>
</g>
<svg viewBox="0 0 15 15" width="100%" height="30px" preserveAspectRatio="xMaxYMin meet">
 <g id="arrow_out" transform="scale(0.3 0.3)">
  <a xlink:href="classctk__opcua__generator__tools_1_1generator_form_1_1_map_generator_form_af7966559c06458d08d87e813cf6ae74c_cgraph_org.svg" target="_base">
   <rect id="button" ry="5" rx="5" y="6" x="6" height="38" width="38"
        fill="#f2f5e9" fill-opacity="0.5" stroke="#606060" stroke-width="1.0"/>
   <path id="arrow"
     d="M 11.500037,31.436501 C 11.940474,20.09759 22.043105,11.32322 32.158766,21.979434 L 37.068811,17.246167 C 37.068811,17.246167 37.088388,32 37.088388,32 L 22.160133,31.978069 C 22.160133,31.978069 26.997745,27.140456 26.997745,27.140456 C 18.528582,18.264221 13.291696,25.230495 11.500037,31.436501 z"
     style="fill:#404040;"/>
  </a>
 </g>
</svg>

<style type='text/css'>
<![CDATA[
[data-mouse-over-selected='false'] { opacity: 0.7; }
[data-mouse-over-selected='true']  { opacity: 1.0; }
]]>
</style>
<script type="application/ecmascript"><![CDATA[
document.addEventListener('DOMContentLoaded', (event) => {
  highlightEdges();
  highlightAdjacentNodes();
});
]]></script>
</svg>
