<?xml version="1.0" encoding="UTF-8" standalone="no"?>
<!DOCTYPE svg PUBLIC "-//W3C//DTD SVG 1.1//EN"
 "http://www.w3.org/Graphics/SVG/1.1/DTD/svg11.dtd">
<!-- Generated by graphviz version 2.43.0 (0)
 -->
<!-- Title: ctk_opcua_generator_tools.generatorForm.MapGeneratorForm.updateHistories Pages: 1 -->
<svg width="662pt" height="68pt"
 viewBox="0.00 0.00 662.00 68.00" xmlns="http://www.w3.org/2000/svg" xmlns:xlink="http://www.w3.org/1999/xlink">
<g id="graph0" class="graph" transform="scale(1 1) rotate(0) translate(4 64)">
<title>ctk_opcua_generator_tools.generatorForm.MapGeneratorForm.updateHistories</title>
<polygon fill="white" stroke="transparent" points="-4,4 -4,-64 658,-64 658,4 -4,4"/>
<!-- Node1 -->
<g id="node1" class="node">
<title>Node1</title>
<g id="a_node1"><a xlink:title=" ">
<polygon fill="#bfbfbf" stroke="black" points="460,-0.5 460,-41.5 654,-41.5 654,-0.5 460,-0.5"/>
<text text-anchor="start" x="468" y="-29.5" font-family="Helvetica,sans-Serif" font-size="10.00">ctk_opcua_generator</text>
<text text-anchor="start" x="468" y="-18.5" font-family="Helvetica,sans-Serif" font-size="10.00">_tools.generatorForm.MapGenerator</text>
<text text-anchor="middle" x="557" y="-7.5" font-family="Helvetica,sans-Serif" font-size="10.00">Form.updateHistories</text>
</a>
</g>
</g>
<!-- Node1&#45;&gt;Node1 -->
<g id="edge3" class="edge">
<title>Node1&#45;&gt;Node1</title>
<path fill="none" stroke="midnightblue" d="M596.23,-51.86C590.39,-56.7 577.32,-60 557,-60 524.49,-60 510.52,-51.54 515.1,-41.86"/>
<polygon fill="midnightblue" stroke="midnightblue" points="599.7,-52.43 598.9,-41.86 592.93,-50.62 599.7,-52.43"/>
</g>
<!-- Node2 -->
<g id="node2" class="node">
<title>Node2</title>
<g id="a_node2"><a xlink:href="classctk__opcua__generator__tools_1_1generator_form_1_1_map_generator_form.html#ac17e606fe0439c3a8658c0850d0c9c56" target="_top" xlink:title=" ">
<polygon fill="white" stroke="black" points="230,-0.5 230,-41.5 424,-41.5 424,-0.5 230,-0.5"/>
<text text-anchor="start" x="238" y="-29.5" font-family="Helvetica,sans-Serif" font-size="10.00">ctk_opcua_generator</text>
<text text-anchor="start" x="238" y="-18.5" font-family="Helvetica,sans-Serif" font-size="10.00">_tools.generatorForm.MapGenerator</text>
<text text-anchor="middle" x="327" y="-7.5" font-family="Helvetica,sans-Serif" font-size="10.00">Form.loadMapFile</text>
</a>
</g>
</g>
<!-- Node1&#45;&gt;Node2 -->
<g id="edge1" class="edge">
<title>Node1&#45;&gt;Node2</title>
<path fill="none" stroke="midnightblue" d="M449.96,-21C441.4,-21 432.77,-21 424.29,-21"/>
<polygon fill="midnightblue" stroke="midnightblue" points="449.97,-24.5 459.97,-21 449.97,-17.5 449.97,-24.5"/>
</g>
<!-- Node3 -->
<g id="node3" class="node">
<title>Node3</title>
<g id="a_node3"><a xlink:href="classctk__opcua__generator__tools_1_1generator_form_1_1_map_generator_form.html#ada09140111d3ffe5e351cdbe11cf2d39" target="_top" xlink:title=" ">
<polygon fill="white" stroke="black" points="0,-0.5 0,-41.5 194,-41.5 194,-0.5 0,-0.5"/>
<text text-anchor="start" x="8" y="-29.5" font-family="Helvetica,sans-Serif" font-size="10.00">ctk_opcua_generator</text>
<text text-anchor="start" x="8" y="-18.5" font-family="Helvetica,sans-Serif" font-size="10.00">_tools.generatorForm.MapGenerator</text>
<text text-anchor="middle" x="97" y="-7.5" font-family="Helvetica,sans-Serif" font-size="10.00">Form.__init__</text>
</a>
</g>
</g>
<!-- Node2&#45;&gt;Node3 -->
<g id="edge2" class="edge">
<title>Node2&#45;&gt;Node3</title>
<path fill="none" stroke="midnightblue" d="M219.96,-21C211.4,-21 202.77,-21 194.29,-21"/>
<polygon fill="midnightblue" stroke="midnightblue" points="219.97,-24.5 229.97,-21 219.97,-17.5 219.97,-24.5"/>
</g>
</g>
</svg>
