<?xml version="1.0" encoding="UTF-8" standalone="no"?>
<!DOCTYPE svg PUBLIC "-//W3C//DTD SVG 1.1//EN"
 "http://www.w3.org/Graphics/SVG/1.1/DTD/svg11.dtd">
<!-- Generated by graphviz version 2.43.0 (0)
 -->
<!-- Title: ChimeraTK::ua_uaadapter::existFolderPath Pages: 1 -->
<svg width="1063pt" height="242pt"
 viewBox="0.00 0.00 1063.00 242.00" xmlns="http://www.w3.org/2000/svg" xmlns:xlink="http://www.w3.org/1999/xlink">
<g id="graph0" class="graph" transform="scale(1 1) rotate(0) translate(4 238)">
<title>ChimeraTK::ua_uaadapter::existFolderPath</title>
<!-- Node1 -->
<g id="Node000001" class="node">
<title>Node1</title>
<g id="a_Node000001"><a xlink:title="Check if a folder path exist in opcua server.">
<polygon fill="#999999" stroke="#666666" points="1055,-30 912,-30 912,0 1055,0 1055,-30"/>
<text text-anchor="start" x="920" y="-18" font-family="Helvetica,sans-Serif" font-size="10.00">ChimeraTK::ua_uaadapter</text>
<text text-anchor="middle" x="983.5" y="-7" font-family="Helvetica,sans-Serif" font-size="10.00">::existFolderPath</text>
</a>
</g>
</g>
<!-- Node2 -->
<g id="Node000002" class="node">
<title>Node2</title>
<g id="a_Node000002"><a xlink:href="class_chimera_t_k_1_1ua__uaadapter.html#a90156024b9fd7b0da7e65b81248e2fc1" target="_top" xlink:title="Create a path of folders in the given parent node.">
<polygon fill="white" stroke="#666666" points="876,-52 733,-52 733,-22 876,-22 876,-52"/>
<text text-anchor="start" x="741" y="-40" font-family="Helvetica,sans-Serif" font-size="10.00">ChimeraTK::ua_uaadapter</text>
<text text-anchor="middle" x="804.5" y="-29" font-family="Helvetica,sans-Serif" font-size="10.00">::createFolderPath</text>
</a>
</g>
</g>
<!-- Node1&#45;&gt;Node2 -->
<g id="edge1_Node000001_Node000002" class="edge">
<title>Node1&#45;&gt;Node2</title>
<g id="a_edge1_Node000001_Node000002"><a xlink:title=" ">
<path fill="none" stroke="#63b8ff" d="M901.79,-25.03C893.22,-26.1 884.55,-27.17 876.11,-28.22"/>
<polygon fill="#63b8ff" stroke="#63b8ff" points="902.29,-28.5 911.78,-23.79 901.43,-21.55 902.29,-28.5"/>
</a>
</g>
</g>
<!-- Node9 -->
<g id="Node000009" class="node">
<title>Node9</title>
<g id="a_Node000009"><a xlink:href="class_u_a_adapter_test.html#a689b5eb4987fd7d66d22d6893291c6f0" target="_top" xlink:title=" ">
<polygon fill="white" stroke="#666666" points="327,-41.5 155,-41.5 155,-22.5 327,-22.5 327,-41.5"/>
<text text-anchor="middle" x="241" y="-29.5" font-family="Helvetica,sans-Serif" font-size="10.00">UAAdapterTest::testExampleSet</text>
</a>
</g>
</g>
<!-- Node1&#45;&gt;Node9 -->
<g id="edge13_Node000001_Node000009" class="edge">
<title>Node1&#45;&gt;Node9</title>
<g id="a_edge13_Node000001_Node000009"><a xlink:title=" ">
<path fill="none" stroke="#63b8ff" d="M901.63,-13.32C892.98,-13.19 884.31,-13.08 876,-13 812.45,-12.4 796.54,-11.77 733,-13 590.56,-15.75 425.02,-23 327.12,-27.71"/>
<polygon fill="#63b8ff" stroke="#63b8ff" points="901.7,-16.82 911.75,-13.49 901.81,-9.82 901.7,-16.82"/>
</a>
</g>
</g>
<!-- Node3 -->
<g id="Node000003" class="node">
<title>Node3</title>
<g id="a_Node000003"><a xlink:href="class_chimera_t_k_1_1ua__uaadapter.html#aa45a196bafb72c69beddaed2c4d35f50" target="_top" xlink:title="Create folder structure based on the given path.">
<polygon fill="white" stroke="#666666" points="697,-138 542,-138 542,-108 697,-108 697,-138"/>
<text text-anchor="start" x="550" y="-126" font-family="Helvetica,sans-Serif" font-size="10.00">ChimeraTK::ua_uaadapter</text>
<text text-anchor="middle" x="619.5" y="-115" font-family="Helvetica,sans-Serif" font-size="10.00">::enrollFolderPathFromString</text>
</a>
</g>
</g>
<!-- Node2&#45;&gt;Node3 -->
<g id="edge2_Node000002_Node000003" class="edge">
<title>Node2&#45;&gt;Node3</title>
<g id="a_edge2_Node000002_Node000003"><a xlink:title=" ">
<path fill="none" stroke="#63b8ff" d="M761.77,-56.61C728.57,-72.21 682.81,-93.72 652.47,-107.97"/>
<polygon fill="#63b8ff" stroke="#63b8ff" points="763.64,-59.6 771.2,-52.18 760.67,-53.26 763.64,-59.6"/>
</a>
</g>
</g>
<!-- Node2&#45;&gt;Node9 -->
<g id="edge12_Node000002_Node000009" class="edge">
<title>Node2&#45;&gt;Node9</title>
<g id="a_edge12_Node000002_Node000009"><a xlink:title=" ">
<path fill="none" stroke="#63b8ff" d="M722.72,-36.28C617.6,-35.34 434.72,-33.72 327.39,-32.76"/>
<polygon fill="#63b8ff" stroke="#63b8ff" points="722.92,-39.78 732.95,-36.37 722.99,-32.78 722.92,-39.78"/>
</a>
</g>
</g>
<!-- Node4 -->
<g id="Node000004" class="node">
<title>Node4</title>
<g id="a_Node000004"><a xlink:href="class_chimera_t_k_1_1ua__uaadapter.html#a5b6d195113f58f9c35b50a4406de60ff" target="_top" xlink:title="Read mapping file and add contained additional variables to the server.">
<polygon fill="white" stroke="#666666" points="506,-234 363,-234 363,-204 506,-204 506,-234"/>
<text text-anchor="start" x="371" y="-222" font-family="Helvetica,sans-Serif" font-size="10.00">ChimeraTK::ua_uaadapter</text>
<text text-anchor="middle" x="434.5" y="-211" font-family="Helvetica,sans-Serif" font-size="10.00">::addAdditionalVariables</text>
</a>
</g>
</g>
<!-- Node3&#45;&gt;Node4 -->
<g id="edge3_Node000003_Node000004" class="edge">
<title>Node3&#45;&gt;Node4</title>
<g id="a_edge3_Node000003_Node000004"><a xlink:title=" ">
<path fill="none" stroke="#63b8ff" d="M589.97,-144C567.88,-159.57 536.06,-180.52 506,-195 499.24,-198.25 491.93,-201.26 484.66,-203.98"/>
<polygon fill="#63b8ff" stroke="#63b8ff" points="592.12,-146.77 598.23,-138.11 588.06,-141.07 592.12,-146.77"/>
</a>
</g>
</g>
<!-- Node6 -->
<g id="Node000006" class="node">
<title>Node6</title>
<g id="a_Node000006"><a xlink:href="class_chimera_t_k_1_1ua__uaadapter.html#a5595a41087312d83ecb812abb189bb33" target="_top" xlink:title="Read mapping file and and add contained folders to the server.">
<polygon fill="white" stroke="#666666" points="506,-186 363,-186 363,-156 506,-156 506,-186"/>
<text text-anchor="start" x="371" y="-174" font-family="Helvetica,sans-Serif" font-size="10.00">ChimeraTK::ua_uaadapter</text>
<text text-anchor="middle" x="434.5" y="-163" font-family="Helvetica,sans-Serif" font-size="10.00">::buildFolderStructure</text>
</a>
</g>
</g>
<!-- Node3&#45;&gt;Node6 -->
<g id="edge5_Node000003_Node000006" class="edge">
<title>Node3&#45;&gt;Node6</title>
<g id="a_edge5_Node000003_Node000006"><a xlink:title=" ">
<path fill="none" stroke="#63b8ff" d="M551.21,-140.65C532,-145.69 511.25,-151.13 492.7,-156"/>
<polygon fill="#63b8ff" stroke="#63b8ff" points="552.31,-143.98 561.1,-138.06 550.54,-137.21 552.31,-143.98"/>
</a>
</g>
</g>
<!-- Node7 -->
<g id="Node000007" class="node">
<title>Node7</title>
<g id="a_Node000007"><a xlink:href="class_chimera_t_k_1_1ua__uaadapter.html#a7dc34883eb77fe8731b72705921f6232" target="_top" xlink:title="Read mapping file and apply contained PV mappings.">
<polygon fill="white" stroke="#666666" points="506,-138 363,-138 363,-108 506,-108 506,-138"/>
<text text-anchor="start" x="371" y="-126" font-family="Helvetica,sans-Serif" font-size="10.00">ChimeraTK::ua_uaadapter</text>
<text text-anchor="middle" x="434.5" y="-115" font-family="Helvetica,sans-Serif" font-size="10.00">::explicitVarMapping</text>
</a>
</g>
</g>
<!-- Node3&#45;&gt;Node7 -->
<g id="edge7_Node000003_Node000007" class="edge">
<title>Node3&#45;&gt;Node7</title>
<g id="a_edge7_Node000003_Node000007"><a xlink:title=" ">
<path fill="none" stroke="#63b8ff" d="M531.89,-123C523.28,-123 514.61,-123 506.19,-123"/>
<polygon fill="#63b8ff" stroke="#63b8ff" points="531.95,-126.5 541.95,-123 531.95,-119.5 531.95,-126.5"/>
</a>
</g>
</g>
<!-- Node8 -->
<g id="Node000008" class="node">
<title>Node8</title>
<g id="a_Node000008"><a xlink:href="class_chimera_t_k_1_1ua__uaadapter.html#a136f4d273a108c6e789b95aa4b1aebf2" target="_top" xlink:title="Start implicit mapping process.">
<polygon fill="white" stroke="#666666" points="506,-90 363,-90 363,-60 506,-60 506,-90"/>
<text text-anchor="start" x="371" y="-78" font-family="Helvetica,sans-Serif" font-size="10.00">ChimeraTK::ua_uaadapter</text>
<text text-anchor="middle" x="434.5" y="-67" font-family="Helvetica,sans-Serif" font-size="10.00">::implicitVarMapping</text>
</a>
</g>
</g>
<!-- Node3&#45;&gt;Node8 -->
<g id="edge9_Node000003_Node000008" class="edge">
<title>Node3&#45;&gt;Node8</title>
<g id="a_edge9_Node000003_Node000008"><a xlink:title=" ">
<path fill="none" stroke="#63b8ff" d="M551.21,-105.35C532,-100.31 511.25,-94.87 492.7,-90"/>
<polygon fill="#63b8ff" stroke="#63b8ff" points="550.54,-108.79 561.1,-107.94 552.31,-102.02 550.54,-108.79"/>
</a>
</g>
</g>
<!-- Node5 -->
<g id="Node000005" class="node">
<title>Node5</title>
<g id="a_Node000005"><a xlink:href="class_chimera_t_k_1_1ua__uaadapter.html#abe8a10745b50e8e0752e6d2c07206984" target="_top" xlink:title="Read mapping file and apply the contained folders, additional variables and pv mappings.">
<polygon fill="white" stroke="#666666" points="312.5,-186 169.5,-186 169.5,-156 312.5,-156 312.5,-186"/>
<text text-anchor="start" x="177.5" y="-174" font-family="Helvetica,sans-Serif" font-size="10.00">ChimeraTK::ua_uaadapter</text>
<text text-anchor="middle" x="241" y="-163" font-family="Helvetica,sans-Serif" font-size="10.00">::applyMapping</text>
</a>
</g>
</g>
<!-- Node4&#45;&gt;Node5 -->
<g id="edge4_Node000004_Node000005" class="edge">
<title>Node4&#45;&gt;Node5</title>
<g id="a_edge4_Node000004_Node000005"><a xlink:title=" ">
<path fill="none" stroke="#63b8ff" d="M363.64,-201.49C343.38,-196.41 321.44,-190.91 301.85,-186"/>
<polygon fill="#63b8ff" stroke="#63b8ff" points="362.88,-204.91 373.43,-203.94 364.58,-198.12 362.88,-204.91"/>
</a>
</g>
</g>
<!-- Node6&#45;&gt;Node5 -->
<g id="edge6_Node000006_Node000005" class="edge">
<title>Node6&#45;&gt;Node5</title>
<g id="a_edge6_Node000006_Node000005"><a xlink:title=" ">
<path fill="none" stroke="#63b8ff" d="M352.69,-171C339.43,-171 325.78,-171 312.79,-171"/>
<polygon fill="#63b8ff" stroke="#63b8ff" points="352.74,-174.5 362.74,-171 352.74,-167.5 352.74,-174.5"/>
</a>
</g>
</g>
<!-- Node7&#45;&gt;Node5 -->
<g id="edge8_Node000007_Node000005" class="edge">
<title>Node7&#45;&gt;Node5</title>
<g id="a_edge8_Node000007_Node000005"><a xlink:title=" ">
<path fill="none" stroke="#63b8ff" d="M363.64,-140.51C343.38,-145.59 321.44,-151.09 301.85,-156"/>
<polygon fill="#63b8ff" stroke="#63b8ff" points="364.58,-143.88 373.43,-138.06 362.88,-137.09 364.58,-143.88"/>
</a>
</g>
</g>
<!-- Node8&#45;&gt;Node9 -->
<g id="edge10_Node000008_Node000009" class="edge">
<title>Node8&#45;&gt;Node9</title>
<g id="a_edge10_Node000008_Node000009"><a xlink:title=" ">
<path fill="none" stroke="#63b8ff" d="M356.48,-57.7C331.89,-52.18 305.59,-46.28 284.41,-41.52"/>
<polygon fill="#63b8ff" stroke="#63b8ff" points="356,-61.18 366.52,-59.96 357.53,-54.35 356,-61.18"/>
</a>
</g>
</g>
<!-- Node10 -->
<g id="Node000010" class="node">
<title>Node10</title>
<g id="a_Node000010"><a xlink:href="class_u_a_adapter_test_suite.html#a7ff319d8d44afb4fe7d764286b1e0b31" target="_top" xlink:title=" ">
<polygon fill="white" stroke="#666666" points="119,-47 0,-47 0,-17 119,-17 119,-47"/>
<text text-anchor="start" x="8" y="-35" font-family="Helvetica,sans-Serif" font-size="10.00">UAAdapterTestSuite</text>
<text text-anchor="middle" x="59.5" y="-24" font-family="Helvetica,sans-Serif" font-size="10.00">::UAAdapterTestSuite</text>
</a>
</g>
</g>
<!-- Node9&#45;&gt;Node10 -->
<g id="edge11_Node000009_Node000010" class="edge">
<title>Node9&#45;&gt;Node10</title>
<g id="a_edge11_Node000009_Node000010"><a xlink:title=" ">
<path fill="none" stroke="#63b8ff" d="M144.73,-32C136,-32 127.35,-32 119.1,-32"/>
<polygon fill="#63b8ff" stroke="#63b8ff" points="144.98,-35.5 154.98,-32 144.98,-28.5 144.98,-35.5"/>
</a>
</g>
</g>
</g>
</svg>
