<?xml version="1.0" encoding="UTF-8" standalone="no"?>
<!DOCTYPE svg PUBLIC "-//W3C//DTD SVG 1.1//EN"
 "http://www.w3.org/Graphics/SVG/1.1/DTD/svg11.dtd">
<!-- Generated by graphviz version 2.43.0 (0)
 -->
<!-- Title: /scratch/dragon/sources/ChimeraTK&#45;ControlSystemAdapter&#45;DoocsAdapter/src/DoocsAdapter.cc Pages: 1 -->
<svg width="2270pt" height="302pt"
 viewBox="0.00 0.00 2270.00 302.00" xmlns="http://www.w3.org/2000/svg" xmlns:xlink="http://www.w3.org/1999/xlink">
<g id="graph0" class="graph" transform="scale(1 1) rotate(0) translate(4 298)">
<title>/scratch/dragon/sources/ChimeraTK&#45;ControlSystemAdapter&#45;DoocsAdapter/src/DoocsAdapter.cc</title>
<!-- Node1 -->
<g id="Node000001" class="node">
<title>Node1</title>
<g id="a_Node000001"><a xlink:title=" ">
<polygon fill="#999999" stroke="#666666" points="1720,-294 1530,-294 1530,-253 1720,-253 1720,-294"/>
<text text-anchor="start" x="1538" y="-282" font-family="Helvetica,sans-Serif" font-size="10.00">/scratch/dragon/sources</text>
<text text-anchor="start" x="1538" y="-271" font-family="Helvetica,sans-Serif" font-size="10.00">/ChimeraTK&#45;ControlSystemAdapter</text>
<text text-anchor="middle" x="1625" y="-260" font-family="Helvetica,sans-Serif" font-size="10.00">&#45;DoocsAdapter/src/DoocsAdapter.cc</text>
</a>
</g>
</g>
<!-- Node2 -->
<g id="Node000002" class="node">
<title>Node2</title>
<g id="a_Node000002"><a xlink:href="_doocs_adapter_8h.html" target="_top" xlink:title=" ">
<polygon fill="white" stroke="#666666" points="804.5,-156.5 711.5,-156.5 711.5,-137.5 804.5,-137.5 804.5,-156.5"/>
<text text-anchor="middle" x="758" y="-144.5" font-family="Helvetica,sans-Serif" font-size="10.00">DoocsAdapter.h</text>
</a>
</g>
</g>
<!-- Node1&#45;&gt;Node2 -->
<g id="edge1_Node000001_Node000002" class="edge">
<title>Node1&#45;&gt;Node2</title>
<g id="a_edge1_Node000001_Node000002"><a xlink:title=" ">
<path fill="none" stroke="#63b8ff" d="M1529.86,-264.6C1426.82,-255.47 1257.76,-238.88 1113,-217 1002.58,-200.31 874.22,-173.51 806.16,-158.7"/>
<polygon fill="#63b8ff" stroke="#63b8ff" points="806.68,-155.23 796.17,-156.51 805.19,-162.07 806.68,-155.23"/>
</a>
</g>
</g>
<!-- Node9 -->
<g id="Node000009" class="node">
<title>Node9</title>
<g id="a_Node000009"><a xlink:href="_property_description_8h.html" target="_top" xlink:title=" ">
<polygon fill="white" stroke="#666666" points="1688,-90.5 1566,-90.5 1566,-71.5 1688,-71.5 1688,-90.5"/>
<text text-anchor="middle" x="1627" y="-78.5" font-family="Helvetica,sans-Serif" font-size="10.00">PropertyDescription.h</text>
</a>
</g>
</g>
<!-- Node1&#45;&gt;Node9 -->
<g id="edge43_Node000001_Node000009" class="edge">
<title>Node1&#45;&gt;Node9</title>
<g id="a_edge43_Node000001_Node000009"><a xlink:title=" ">
<path fill="none" stroke="#63b8ff" d="M1625.21,-252.83C1625.59,-215.95 1626.42,-136.86 1626.8,-100.71"/>
<polygon fill="#63b8ff" stroke="#63b8ff" points="1630.3,-100.63 1626.91,-90.6 1623.3,-100.56 1630.3,-100.63"/>
</a>
</g>
</g>
<!-- Node14 -->
<g id="Node000014" class="node">
<title>Node14</title>
<g id="a_Node000014"><a xlink:href="_c_s_adapter_eq_fct_8h.html" target="_top" xlink:title=" ">
<polygon fill="white" stroke="#666666" points="421,-217 317,-217 317,-198 421,-198 421,-217"/>
<text text-anchor="middle" x="369" y="-205" font-family="Helvetica,sans-Serif" font-size="10.00">CSAdapterEqFct.h</text>
</a>
</g>
</g>
<!-- Node1&#45;&gt;Node14 -->
<g id="edge19_Node000001_Node000014" class="edge">
<title>Node1&#45;&gt;Node14</title>
<g id="a_edge19_Node000001_Node000014"><a xlink:title=" ">
<path fill="none" stroke="#63b8ff" d="M1529.82,-267.65C1284.56,-255.15 635.92,-222.1 431.57,-211.69"/>
<polygon fill="#63b8ff" stroke="#63b8ff" points="431.49,-208.18 421.32,-211.17 431.13,-215.17 431.49,-208.18"/>
</a>
</g>
</g>
<!-- Node18 -->
<g id="Node000018" class="node">
<title>Node18</title>
<g id="a_Node000018"><a xlink:href="_doocs_updater_8h.html" target="_top" xlink:title=" ">
<polygon fill="white" stroke="#666666" points="1216,-217 1122,-217 1122,-198 1216,-198 1216,-217"/>
<text text-anchor="middle" x="1169" y="-205" font-family="Helvetica,sans-Serif" font-size="10.00">DoocsUpdater.h</text>
</a>
</g>
</g>
<!-- Node1&#45;&gt;Node18 -->
<g id="edge25_Node000001_Node000018" class="edge">
<title>Node1&#45;&gt;Node18</title>
<g id="a_edge25_Node000001_Node000018"><a xlink:title=" ">
<path fill="none" stroke="#63b8ff" d="M1529.96,-259.16C1438.35,-246.3 1302.71,-227.27 1226.46,-216.56"/>
<polygon fill="#63b8ff" stroke="#63b8ff" points="1226.49,-213.03 1216.1,-215.11 1225.52,-219.97 1226.49,-213.03"/>
</a>
</g>
</g>
<!-- Node26 -->
<g id="Node000026" class="node">
<title>Node26</title>
<g id="a_Node000026"><a xlink:href="get_all_variable_names_8h.html" target="_top" xlink:title=" ">
<polygon fill="white" stroke="#666666" points="1781,-156.5 1653,-156.5 1653,-137.5 1781,-137.5 1781,-156.5"/>
<text text-anchor="middle" x="1717" y="-144.5" font-family="Helvetica,sans-Serif" font-size="10.00">getAllVariableNames.h</text>
</a>
</g>
</g>
<!-- Node1&#45;&gt;Node26 -->
<g id="edge39_Node000001_Node000026" class="edge">
<title>Node1&#45;&gt;Node26</title>
<g id="a_edge39_Node000001_Node000026"><a xlink:title=" ">
<path fill="none" stroke="#63b8ff" d="M1639.58,-252.77C1657.56,-228.44 1687.81,-187.5 1704.68,-164.67"/>
<polygon fill="#63b8ff" stroke="#63b8ff" points="1707.51,-166.74 1710.64,-156.61 1701.88,-162.58 1707.51,-166.74"/>
</a>
</g>
</g>
<!-- Node28 -->
<g id="Node000028" class="node">
<title>Node28</title>
<g id="a_Node000028"><a xlink:href="_variable_mapper_8h.html" target="_top" xlink:title=" ">
<polygon fill="white" stroke="#666666" points="1963.5,-156.5 1862.5,-156.5 1862.5,-137.5 1963.5,-137.5 1963.5,-156.5"/>
<text text-anchor="middle" x="1913" y="-144.5" font-family="Helvetica,sans-Serif" font-size="10.00">VariableMapper.h</text>
</a>
</g>
</g>
<!-- Node1&#45;&gt;Node28 -->
<g id="edge44_Node000001_Node000028" class="edge">
<title>Node1&#45;&gt;Node28</title>
<g id="a_edge44_Node000001_Node000028"><a xlink:title=" ">
<path fill="none" stroke="#63b8ff" d="M1644.8,-252.93C1662.94,-236.05 1691.25,-212.22 1720,-198 1761.81,-177.32 1813.09,-164.56 1852.28,-157.11"/>
<polygon fill="#63b8ff" stroke="#63b8ff" points="1853.02,-160.53 1862.22,-155.28 1851.76,-153.64 1853.02,-160.53"/>
</a>
</g>
</g>
<!-- Node34 -->
<g id="Node000034" class="node">
<title>Node34</title>
<g id="a_Node000034"><a xlink:title=" ">
<polygon fill="#e0e0e0" stroke="#999999" points="1797,-217 1729,-217 1729,-198 1797,-198 1797,-217"/>
<text text-anchor="middle" x="1763" y="-205" font-family="Helvetica,sans-Serif" font-size="10.00">filesystem</text>
</a>
</g>
</g>
<!-- Node1&#45;&gt;Node34 -->
<g id="edge55_Node000001_Node000034" class="edge">
<title>Node1&#45;&gt;Node34</title>
<g id="a_edge55_Node000001_Node000034"><a xlink:title=" ">
<path fill="none" stroke="#63b8ff" d="M1667.15,-252.95C1689.26,-242.7 1715.72,-230.43 1735.23,-221.38"/>
<polygon fill="#63b8ff" stroke="#63b8ff" points="1736.87,-224.47 1744.47,-217.09 1733.93,-218.12 1736.87,-224.47"/>
</a>
</g>
</g>
<!-- Node3 -->
<g id="Node000003" class="node">
<title>Node3</title>
<g id="a_Node000003"><a xlink:href="_property_base_8h.html" target="_top" xlink:title=" ">
<polygon fill="white" stroke="#666666" points="621.5,-90.5 530.5,-90.5 530.5,-71.5 621.5,-71.5 621.5,-90.5"/>
<text text-anchor="middle" x="576" y="-78.5" font-family="Helvetica,sans-Serif" font-size="10.00">PropertyBase.h</text>
</a>
</g>
</g>
<!-- Node2&#45;&gt;Node3 -->
<g id="edge2_Node000002_Node000003" class="edge">
<title>Node2&#45;&gt;Node3</title>
<g id="a_edge2_Node000002_Node000003"><a xlink:title=" ">
<path fill="none" stroke="#63b8ff" d="M733.45,-137.37C701.62,-126.17 645.91,-106.58 610.01,-93.96"/>
<polygon fill="#63b8ff" stroke="#63b8ff" points="611.04,-90.61 600.45,-90.6 608.72,-97.22 611.04,-90.61"/>
</a>
</g>
</g>
<!-- Node4 -->
<g id="Node000004" class="node">
<title>Node4</title>
<g id="a_Node000004"><a xlink:title=" ">
<polygon fill="#e0e0e0" stroke="#999999" points="742,-30 558,-30 558,0 742,0 742,-30"/>
<text text-anchor="start" x="566" y="-18" font-family="Helvetica,sans-Serif" font-size="10.00">ChimeraTK/ControlSystemAdapter</text>
<text text-anchor="middle" x="650" y="-7" font-family="Helvetica,sans-Serif" font-size="10.00">/ControlSystemPVManager.h</text>
</a>
</g>
</g>
<!-- Node2&#45;&gt;Node4 -->
<g id="edge13_Node000002_Node000004" class="edge">
<title>Node2&#45;&gt;Node4</title>
<g id="a_edge13_Node000002_Node000004"><a xlink:title=" ">
<path fill="none" stroke="#63b8ff" d="M730.62,-137.36C710.6,-129.65 684.36,-116.38 669,-96 656.94,-80.01 652.4,-57.53 650.75,-40.46"/>
<polygon fill="#63b8ff" stroke="#63b8ff" points="654.22,-39.89 650.03,-30.16 647.23,-40.37 654.22,-39.89"/>
</a>
</g>
</g>
<!-- Node5 -->
<g id="Node000005" class="node">
<title>Node5</title>
<g id="a_Node000005"><a xlink:title=" ">
<polygon fill="#e0e0e0" stroke="#999999" points="1128,-30 972,-30 972,0 1128,0 1128,-30"/>
<text text-anchor="start" x="980" y="-18" font-family="Helvetica,sans-Serif" font-size="10.00">ChimeraTK/DataConsistency</text>
<text text-anchor="middle" x="1050" y="-7" font-family="Helvetica,sans-Serif" font-size="10.00">Group.h</text>
</a>
</g>
</g>
<!-- Node2&#45;&gt;Node5 -->
<g id="edge14_Node000002_Node000005" class="edge">
<title>Node2&#45;&gt;Node5</title>
<g id="a_edge14_Node000002_Node000005"><a xlink:title=" ">
<path fill="none" stroke="#63b8ff" d="M768.74,-137.29C780.83,-127.41 801.02,-110.78 818,-96 832.95,-82.99 833.53,-75.36 851,-66 871.62,-54.95 923.48,-42.07 969.08,-32.16"/>
<polygon fill="#63b8ff" stroke="#63b8ff" points="969.97,-35.55 979.01,-30.02 968.49,-28.7 969.97,-35.55"/>
</a>
</g>
</g>
<!-- Node6 -->
<g id="Node000006" class="node">
<title>Node6</title>
<g id="a_Node000006"><a xlink:title=" ">
<polygon fill="#e0e0e0" stroke="#999999" points="953.5,-24.5 760.5,-24.5 760.5,-5.5 953.5,-5.5 953.5,-24.5"/>
<text text-anchor="middle" x="857" y="-12.5" font-family="Helvetica,sans-Serif" font-size="10.00">ChimeraTK/OneDRegisterAccessor.h</text>
</a>
</g>
</g>
<!-- Node2&#45;&gt;Node6 -->
<g id="edge15_Node000002_Node000006" class="edge">
<title>Node2&#45;&gt;Node6</title>
<g id="a_edge15_Node000002_Node000006"><a xlink:title=" ">
<path fill="none" stroke="#63b8ff" d="M764.6,-137.08C775.6,-122.26 798.38,-91.65 818,-66 826.5,-54.89 836.17,-42.48 843.76,-32.81"/>
<polygon fill="#63b8ff" stroke="#63b8ff" points="846.62,-34.84 850.05,-24.81 841.11,-30.51 846.62,-34.84"/>
</a>
</g>
</g>
<!-- Node7 -->
<g id="Node000007" class="node">
<title>Node7</title>
<g id="a_Node000007"><a xlink:title=" ">
<polygon fill="#e0e0e0" stroke="#999999" points="540,-30 396,-30 396,0 540,0 540,-30"/>
<text text-anchor="start" x="404" y="-18" font-family="Helvetica,sans-Serif" font-size="10.00">ChimeraTK/ScalarRegister</text>
<text text-anchor="middle" x="468" y="-7" font-family="Helvetica,sans-Serif" font-size="10.00">Accessor.h</text>
</a>
</g>
</g>
<!-- Node2&#45;&gt;Node7 -->
<g id="edge16_Node000002_Node000007" class="edge">
<title>Node2&#45;&gt;Node7</title>
<g id="a_edge16_Node000002_Node000007"><a xlink:title=" ">
<path fill="none" stroke="#63b8ff" d="M711.49,-140.43C651.58,-132.54 551.52,-116.74 521,-96 500.56,-82.11 486.01,-57.46 477.39,-39.18"/>
<polygon fill="#63b8ff" stroke="#63b8ff" points="480.59,-37.75 473.32,-30.04 474.19,-40.6 480.59,-37.75"/>
</a>
</g>
</g>
<!-- Node8 -->
<g id="Node000008" class="node">
<title>Node8</title>
<g id="a_Node000008"><a xlink:title=" ">
<polygon fill="#e0e0e0" stroke="#999999" points="378,-24.5 322,-24.5 322,-5.5 378,-5.5 378,-24.5"/>
<text text-anchor="middle" x="350" y="-12.5" font-family="Helvetica,sans-Serif" font-size="10.00">eq_fct.h</text>
</a>
</g>
</g>
<!-- Node2&#45;&gt;Node8 -->
<g id="edge18_Node000002_Node000008" class="edge">
<title>Node2&#45;&gt;Node8</title>
<g id="a_edge18_Node000002_Node000008"><a xlink:title=" ">
<path fill="none" stroke="#63b8ff" d="M711.04,-142.12C656.33,-136.5 563.88,-123.59 489,-96 443.66,-79.3 395.92,-48.48 369.86,-30.35"/>
<polygon fill="#63b8ff" stroke="#63b8ff" points="371.78,-27.42 361.59,-24.52 367.74,-33.14 371.78,-27.42"/>
</a>
</g>
</g>
<!-- Node2&#45;&gt;Node9 -->
<g id="edge8_Node000002_Node000009" class="edge">
<title>Node2&#45;&gt;Node9</title>
<g id="a_edge8_Node000002_Node000009"><a xlink:title=" ">
<path fill="none" stroke="#63b8ff" d="M804.9,-142.92C943.33,-133.8 1348.71,-106.92 1481,-96 1505.43,-93.98 1532.12,-91.51 1555.93,-89.2"/>
<polygon fill="#63b8ff" stroke="#63b8ff" points="1556.33,-92.67 1565.94,-88.22 1555.65,-85.71 1556.33,-92.67"/>
</a>
</g>
</g>
<!-- Node13 -->
<g id="Node000013" class="node">
<title>Node13</title>
<g id="a_Node000013"><a xlink:title=" ">
<polygon fill="#e0e0e0" stroke="#999999" points="766,-90.5 678,-90.5 678,-71.5 766,-71.5 766,-90.5"/>
<text text-anchor="middle" x="722" y="-78.5" font-family="Helvetica,sans-Serif" font-size="10.00">doocs/Server.h</text>
</a>
</g>
</g>
<!-- Node2&#45;&gt;Node13 -->
<g id="edge17_Node000002_Node000013" class="edge">
<title>Node2&#45;&gt;Node13</title>
<g id="a_edge17_Node000002_Node000013"><a xlink:title=" ">
<path fill="none" stroke="#63b8ff" d="M753.14,-137.37C747.75,-127.78 738.9,-112.05 732.01,-99.8"/>
<polygon fill="#63b8ff" stroke="#63b8ff" points="734.96,-97.91 727.01,-90.91 728.86,-101.34 734.96,-97.91"/>
</a>
</g>
</g>
<!-- Node3&#45;&gt;Node4 -->
<g id="edge3_Node000003_Node000004" class="edge">
<title>Node3&#45;&gt;Node4</title>
<g id="a_edge3_Node000003_Node000004"><a xlink:title=" ">
<path fill="none" stroke="#63b8ff" d="M585.98,-71.37C596.2,-62.53 612.48,-48.45 626.06,-36.71"/>
<polygon fill="#63b8ff" stroke="#63b8ff" points="628.4,-39.3 633.68,-30.12 623.83,-34.01 628.4,-39.3"/>
</a>
</g>
</g>
<!-- Node3&#45;&gt;Node5 -->
<g id="edge4_Node000003_Node000005" class="edge">
<title>Node3&#45;&gt;Node5</title>
<g id="a_edge4_Node000003_Node000005"><a xlink:title=" ">
<path fill="none" stroke="#63b8ff" d="M621.85,-72.84C636.86,-70.57 653.63,-68.1 669,-66 796.25,-48.63 830.98,-48.46 961.76,-30.14"/>
<polygon fill="#63b8ff" stroke="#63b8ff" points="962.35,-33.59 971.77,-28.73 961.38,-26.66 962.35,-33.59"/>
</a>
</g>
</g>
<!-- Node3&#45;&gt;Node6 -->
<g id="edge5_Node000003_Node000006" class="edge">
<title>Node3&#45;&gt;Node6</title>
<g id="a_edge5_Node000003_Node000006"><a xlink:title=" ">
<path fill="none" stroke="#63b8ff" d="M613.61,-71.44C664.29,-59.89 754.52,-39.34 809.73,-26.77"/>
<polygon fill="#63b8ff" stroke="#63b8ff" points="810.64,-30.15 819.62,-24.51 809.09,-23.32 810.64,-30.15"/>
</a>
</g>
</g>
<!-- Node3&#45;&gt;Node7 -->
<g id="edge6_Node000003_Node000007" class="edge">
<title>Node3&#45;&gt;Node7</title>
<g id="a_edge6_Node000003_Node000007"><a xlink:title=" ">
<path fill="none" stroke="#63b8ff" d="M561.43,-71.37C545.89,-62.16 520.75,-47.26 500.46,-35.24"/>
<polygon fill="#63b8ff" stroke="#63b8ff" points="502.21,-32.2 491.82,-30.12 498.64,-38.22 502.21,-32.2"/>
</a>
</g>
</g>
<!-- Node3&#45;&gt;Node8 -->
<g id="edge7_Node000003_Node000008" class="edge">
<title>Node3&#45;&gt;Node8</title>
<g id="a_edge7_Node000003_Node000008"><a xlink:title=" ">
<path fill="none" stroke="#63b8ff" d="M539.09,-71.43C500.76,-62.25 439.2,-46.73 387,-30 385.09,-29.39 383.13,-28.73 381.16,-28.05"/>
<polygon fill="#63b8ff" stroke="#63b8ff" points="381.98,-24.63 371.39,-24.52 379.61,-31.21 381.98,-24.63"/>
</a>
</g>
</g>
<!-- Node9&#45;&gt;Node5 -->
<g id="edge9_Node000009_Node000005" class="edge">
<title>Node9&#45;&gt;Node5</title>
<g id="a_edge9_Node000009_Node000005"><a xlink:title=" ">
<path fill="none" stroke="#63b8ff" d="M1565.74,-72.23C1548.97,-70.15 1530.79,-67.94 1514,-66 1383.15,-50.85 1231.36,-34.77 1138,-25.06"/>
<polygon fill="#63b8ff" stroke="#63b8ff" points="1138.34,-21.58 1128.04,-24.03 1137.62,-28.54 1138.34,-21.58"/>
</a>
</g>
</g>
<!-- Node10 -->
<g id="Node000010" class="node">
<title>Node10</title>
<g id="a_Node000010"><a xlink:title=" ">
<polygon fill="#e0e0e0" stroke="#999999" points="2048,-24.5 1904,-24.5 1904,-5.5 2048,-5.5 2048,-24.5"/>
<text text-anchor="middle" x="1976" y="-12.5" font-family="Helvetica,sans-Serif" font-size="10.00">ChimeraTK/RegisterPath.h</text>
</a>
</g>
</g>
<!-- Node9&#45;&gt;Node10 -->
<g id="edge10_Node000009_Node000010" class="edge">
<title>Node9&#45;&gt;Node10</title>
<g id="a_edge10_Node000009_Node000010"><a xlink:title=" ">
<path fill="none" stroke="#63b8ff" d="M1673.71,-71.44C1737.31,-59.77 1851.05,-38.91 1919.41,-26.38"/>
<polygon fill="#63b8ff" stroke="#63b8ff" points="1920.37,-29.76 1929.57,-24.51 1919.1,-22.88 1920.37,-29.76"/>
</a>
</g>
</g>
<!-- Node11 -->
<g id="Node000011" class="node">
<title>Node11</title>
<g id="a_Node000011"><a xlink:title=" ">
<polygon fill="#e0e0e0" stroke="#999999" points="1738,-24.5 1694,-24.5 1694,-5.5 1738,-5.5 1738,-24.5"/>
<text text-anchor="middle" x="1716" y="-12.5" font-family="Helvetica,sans-Serif" font-size="10.00">string</text>
</a>
</g>
</g>
<!-- Node9&#45;&gt;Node11 -->
<g id="edge11_Node000009_Node000011" class="edge">
<title>Node9&#45;&gt;Node11</title>
<g id="a_edge11_Node000009_Node000011"><a xlink:title=" ">
<path fill="none" stroke="#63b8ff" d="M1639,-71.37C1653.47,-60.97 1678.01,-43.32 1695.49,-30.75"/>
<polygon fill="#63b8ff" stroke="#63b8ff" points="1697.83,-33.38 1703.9,-24.7 1693.74,-27.7 1697.83,-33.38"/>
</a>
</g>
</g>
<!-- Node12 -->
<g id="Node000012" class="node">
<title>Node12</title>
<g id="a_Node000012"><a xlink:title=" ">
<polygon fill="#e0e0e0" stroke="#999999" points="1604.5,-24.5 1559.5,-24.5 1559.5,-5.5 1604.5,-5.5 1604.5,-24.5"/>
<text text-anchor="middle" x="1582" y="-12.5" font-family="Helvetica,sans-Serif" font-size="10.00">utility</text>
</a>
</g>
</g>
<!-- Node9&#45;&gt;Node12 -->
<g id="edge12_Node000009_Node000012" class="edge">
<title>Node9&#45;&gt;Node12</title>
<g id="a_edge12_Node000009_Node000012"><a xlink:title=" ">
<path fill="none" stroke="#63b8ff" d="M1620.93,-71.37C1614.13,-61.69 1602.91,-45.74 1594.26,-33.44"/>
<polygon fill="#63b8ff" stroke="#63b8ff" points="1596.88,-31.07 1588.26,-24.91 1591.15,-35.1 1596.88,-31.07"/>
</a>
</g>
</g>
<!-- Node14&#45;&gt;Node4 -->
<g id="edge20_Node000014_Node000004" class="edge">
<title>Node14&#45;&gt;Node4</title>
<g id="a_edge20_Node000014_Node000004"><a xlink:title=" ">
<path fill="none" stroke="#63b8ff" d="M374.24,-198C383.5,-183.41 403.86,-153.15 426,-132 463.18,-96.49 475.6,-90.13 521,-66 544.95,-53.27 572.88,-42.04 596.61,-33.47"/>
<polygon fill="#63b8ff" stroke="#63b8ff" points="597.91,-36.72 606.16,-30.08 595.57,-30.12 597.91,-36.72"/>
</a>
</g>
</g>
<!-- Node14&#45;&gt;Node8 -->
<g id="edge24_Node000014_Node000008" class="edge">
<title>Node14&#45;&gt;Node8</title>
<g id="a_edge24_Node000014_Node000008"><a xlink:title=" ">
<path fill="none" stroke="#63b8ff" d="M368.13,-197.82C365.25,-168.87 355.9,-75.2 351.88,-34.82"/>
<polygon fill="#63b8ff" stroke="#63b8ff" points="355.35,-34.33 350.87,-24.73 348.38,-35.03 355.35,-34.33"/>
</a>
</g>
</g>
<!-- Node15 -->
<g id="Node000015" class="node">
<title>Node15</title>
<g id="a_Node000015"><a xlink:title=" ">
<polygon fill="#e0e0e0" stroke="#999999" points="184,-162 0,-162 0,-132 184,-132 184,-162"/>
<text text-anchor="start" x="8" y="-150" font-family="Helvetica,sans-Serif" font-size="10.00">ChimeraTK/ControlSystemAdapter</text>
<text text-anchor="middle" x="92" y="-139" font-family="Helvetica,sans-Serif" font-size="10.00">/ProcessVariable.h</text>
</a>
</g>
</g>
<!-- Node14&#45;&gt;Node15 -->
<g id="edge21_Node000014_Node000015" class="edge">
<title>Node14&#45;&gt;Node15</title>
<g id="a_edge21_Node000014_Node000015"><a xlink:title=" ">
<path fill="none" stroke="#63b8ff" d="M328.72,-197.99C286.78,-189.14 220.09,-175.05 168.17,-164.09"/>
<polygon fill="#63b8ff" stroke="#63b8ff" points="168.83,-160.65 158.33,-162.01 167.39,-167.5 168.83,-160.65"/>
</a>
</g>
</g>
<!-- Node16 -->
<g id="Node000016" class="node">
<title>Node16</title>
<g id="a_Node000016"><a xlink:title=" ">
<polygon fill="#e0e0e0" stroke="#999999" points="565,-156.5 435,-156.5 435,-137.5 565,-137.5 565,-156.5"/>
<text text-anchor="middle" x="500" y="-144.5" font-family="Helvetica,sans-Serif" font-size="10.00">boost/noncopyable.hpp</text>
</a>
</g>
</g>
<!-- Node14&#45;&gt;Node16 -->
<g id="edge22_Node000014_Node000016" class="edge">
<title>Node14&#45;&gt;Node16</title>
<g id="a_edge22_Node000014_Node000016"><a xlink:title=" ">
<path fill="none" stroke="#63b8ff" d="M388.05,-197.99C409.97,-188.2 446.21,-172.02 471.5,-160.73"/>
<polygon fill="#63b8ff" stroke="#63b8ff" points="473.22,-163.79 480.93,-156.52 470.37,-157.4 473.22,-163.79"/>
</a>
</g>
</g>
<!-- Node17 -->
<g id="Node000017" class="node">
<title>Node17</title>
<g id="a_Node000017"><a xlink:title=" ">
<polygon fill="#e0e0e0" stroke="#999999" points="322,-156.5 202,-156.5 202,-137.5 322,-137.5 322,-156.5"/>
<text text-anchor="middle" x="262" y="-144.5" font-family="Helvetica,sans-Serif" font-size="10.00">boost/scoped_ptr.hpp</text>
</a>
</g>
</g>
<!-- Node14&#45;&gt;Node17 -->
<g id="edge23_Node000014_Node000017" class="edge">
<title>Node14&#45;&gt;Node17</title>
<g id="a_edge23_Node000014_Node000017"><a xlink:title=" ">
<path fill="none" stroke="#63b8ff" d="M353.21,-197.87C335.67,-188.28 307.12,-172.67 286.63,-161.47"/>
<polygon fill="#63b8ff" stroke="#63b8ff" points="288.31,-158.39 277.85,-156.67 284.95,-164.54 288.31,-158.39"/>
</a>
</g>
</g>
<!-- Node18&#45;&gt;Node2 -->
<g id="edge27_Node000018_Node000002" class="edge">
<title>Node18&#45;&gt;Node2</title>
<g id="a_edge27_Node000018_Node000002"><a xlink:title=" ">
<path fill="none" stroke="#63b8ff" d="M1121.85,-199.79C1045.82,-188.97 896.42,-167.7 814.7,-156.07"/>
<polygon fill="#63b8ff" stroke="#63b8ff" points="814.99,-152.58 804.6,-154.63 814,-159.51 814.99,-152.58"/>
</a>
</g>
</g>
<!-- Node18&#45;&gt;Node8 -->
<g id="edge36_Node000018_Node000008" class="edge">
<title>Node18&#45;&gt;Node8</title>
<g id="a_edge36_Node000018_Node000008"><a xlink:title=" ">
<path fill="none" stroke="#63b8ff" d="M1121.99,-204.2C1037.47,-199.58 854.44,-187.36 702,-162 698.11,-161.35 429.41,-97.97 426,-96 398.45,-80.12 374.68,-51.21 361.37,-32.84"/>
<polygon fill="#63b8ff" stroke="#63b8ff" points="364.16,-30.71 355.55,-24.54 358.43,-34.74 364.16,-30.71"/>
</a>
</g>
</g>
<!-- Node18&#45;&gt;Node12 -->
<g id="edge38_Node000018_Node000012" class="edge">
<title>Node18&#45;&gt;Node12</title>
<g id="a_edge38_Node000018_Node000012"><a xlink:title=" ">
<path fill="none" stroke="#63b8ff" d="M1216.23,-199.29C1255.77,-192.38 1313.22,-180.27 1361,-162 1417.85,-140.26 1430.3,-129.68 1481,-96 1511.84,-75.51 1545.02,-48.08 1564.62,-31.24"/>
<polygon fill="#63b8ff" stroke="#63b8ff" points="1567.11,-33.71 1572.38,-24.52 1562.53,-28.42 1567.11,-33.71"/>
</a>
</g>
</g>
<!-- Node18&#45;&gt;Node16 -->
<g id="edge35_Node000018_Node000016" class="edge">
<title>Node18&#45;&gt;Node16</title>
<g id="a_edge35_Node000018_Node000016"><a xlink:title=" ">
<path fill="none" stroke="#63b8ff" d="M1121.8,-204.55C1021.54,-200.04 780.03,-187.33 579,-162 570.85,-160.97 562.25,-159.67 553.86,-158.29"/>
<polygon fill="#63b8ff" stroke="#63b8ff" points="554.2,-154.79 543.76,-156.56 553.02,-161.69 554.2,-154.79"/>
</a>
</g>
</g>
<!-- Node19 -->
<g id="Node000019" class="node">
<title>Node19</title>
<g id="a_Node000019"><a xlink:title=" ">
<polygon fill="#e0e0e0" stroke="#999999" points="1182,-156.5 984,-156.5 984,-137.5 1182,-137.5 1182,-156.5"/>
<text text-anchor="middle" x="1083" y="-144.5" font-family="Helvetica,sans-Serif" font-size="10.00">ChimeraTK/TypeChangingDecorator.h</text>
</a>
</g>
</g>
<!-- Node18&#45;&gt;Node19 -->
<g id="edge26_Node000018_Node000019" class="edge">
<title>Node18&#45;&gt;Node19</title>
<g id="a_edge26_Node000018_Node000019"><a xlink:title=" ">
<path fill="none" stroke="#63b8ff" d="M1156.31,-197.87C1142.59,-188.54 1120.5,-173.51 1104.15,-162.38"/>
<polygon fill="#63b8ff" stroke="#63b8ff" points="1105.98,-159.4 1095.74,-156.67 1102.04,-165.19 1105.98,-159.4"/>
</a>
</g>
</g>
<!-- Node20 -->
<g id="Node000020" class="node">
<title>Node20</title>
<g id="a_Node000020"><a xlink:href="_routing_decorator_8h.html" target="_top" xlink:title=" ">
<polygon fill="white" stroke="#666666" points="1310,-156.5 1200,-156.5 1200,-137.5 1310,-137.5 1310,-156.5"/>
<text text-anchor="middle" x="1255" y="-144.5" font-family="Helvetica,sans-Serif" font-size="10.00">RoutingDecorator.h</text>
</a>
</g>
</g>
<!-- Node18&#45;&gt;Node20 -->
<g id="edge28_Node000018_Node000020" class="edge">
<title>Node18&#45;&gt;Node20</title>
<g id="a_edge28_Node000018_Node000020"><a xlink:title=" ">
<path fill="none" stroke="#63b8ff" d="M1181.69,-197.87C1195.41,-188.54 1217.5,-173.51 1233.85,-162.38"/>
<polygon fill="#63b8ff" stroke="#63b8ff" points="1235.96,-165.19 1242.26,-156.67 1232.02,-159.4 1235.96,-165.19"/>
</a>
</g>
</g>
<!-- Node23 -->
<g id="Node000023" class="node">
<title>Node23</title>
<g id="a_Node000023"><a xlink:title=" ">
<polygon fill="#e0e0e0" stroke="#999999" points="1022,-90.5 860,-90.5 860,-71.5 1022,-71.5 1022,-90.5"/>
<text text-anchor="middle" x="941" y="-78.5" font-family="Helvetica,sans-Serif" font-size="10.00">ChimeraTK/TransferElement.h</text>
</a>
</g>
</g>
<!-- Node18&#45;&gt;Node23 -->
<g id="edge33_Node000018_Node000023" class="edge">
<title>Node18&#45;&gt;Node23</title>
<g id="a_edge33_Node000018_Node000023"><a xlink:title=" ">
<path fill="none" stroke="#63b8ff" d="M1121.63,-200.63C1071.58,-193.58 996.92,-180.36 975,-162 956.51,-146.51 947.85,-119.18 943.96,-100.83"/>
<polygon fill="#63b8ff" stroke="#63b8ff" points="947.36,-99.95 942.11,-90.75 940.47,-101.22 947.36,-99.95"/>
</a>
</g>
</g>
<!-- Node24 -->
<g id="Node000024" class="node">
<title>Node24</title>
<g id="a_Node000024"><a xlink:title=" ">
<polygon fill="#e0e0e0" stroke="#999999" points="1472,-90.5 1434,-90.5 1434,-71.5 1472,-71.5 1472,-90.5"/>
<text text-anchor="middle" x="1453" y="-78.5" font-family="Helvetica,sans-Serif" font-size="10.00">map</text>
</a>
</g>
</g>
<!-- Node18&#45;&gt;Node24 -->
<g id="edge37_Node000018_Node000024" class="edge">
<title>Node18&#45;&gt;Node24</title>
<g id="a_edge37_Node000018_Node000024"><a xlink:title=" ">
<path fill="none" stroke="#63b8ff" d="M1207.22,-197.97C1238.1,-190.41 1282.31,-178.09 1319,-162 1361.43,-143.39 1406.96,-113.95 1432.52,-96.45"/>
<polygon fill="#63b8ff" stroke="#63b8ff" points="1434.77,-99.15 1441,-90.58 1430.78,-93.4 1434.77,-99.15"/>
</a>
</g>
</g>
<!-- Node25 -->
<g id="Node000025" class="node">
<title>Node25</title>
<g id="a_Node000025"><a xlink:title=" ">
<polygon fill="#e0e0e0" stroke="#999999" points="1596.5,-162 1443.5,-162 1443.5,-132 1596.5,-132 1596.5,-162"/>
<text text-anchor="start" x="1451.5" y="-150" font-family="Helvetica,sans-Serif" font-size="10.00">ChimeraTK/TransferElement</text>
<text text-anchor="middle" x="1520" y="-139" font-family="Helvetica,sans-Serif" font-size="10.00">Abstractor.h</text>
</a>
</g>
</g>
<!-- Node18&#45;&gt;Node25 -->
<g id="edge34_Node000018_Node000025" class="edge">
<title>Node18&#45;&gt;Node25</title>
<g id="a_edge34_Node000018_Node000025"><a xlink:title=" ">
<path fill="none" stroke="#63b8ff" d="M1216.34,-198.61C1271.81,-189.37 1364.83,-173.86 1433.33,-162.44"/>
<polygon fill="#63b8ff" stroke="#63b8ff" points="1433.96,-165.89 1443.25,-160.79 1432.81,-158.98 1433.96,-165.89"/>
</a>
</g>
</g>
<!-- Node21 -->
<g id="Node000021" class="node">
<title>Node21</title>
<g id="a_Node000021"><a xlink:title=" ">
<polygon fill="#e0e0e0" stroke="#999999" points="1416,-96 1232,-96 1232,-66 1416,-66 1416,-96"/>
<text text-anchor="start" x="1240" y="-84" font-family="Helvetica,sans-Serif" font-size="10.00">ChimeraTK/ControlSystemAdapter</text>
<text text-anchor="middle" x="1324" y="-73" font-family="Helvetica,sans-Serif" font-size="10.00">/UnidirectionalProcessArray.h</text>
</a>
</g>
</g>
<!-- Node20&#45;&gt;Node21 -->
<g id="edge29_Node000020_Node000021" class="edge">
<title>Node20&#45;&gt;Node21</title>
<g id="a_edge29_Node000020_Node000021"><a xlink:title=" ">
<path fill="none" stroke="#63b8ff" d="M1264.31,-137.37C1273.75,-128.61 1288.73,-114.71 1301.32,-103.04"/>
<polygon fill="#63b8ff" stroke="#63b8ff" points="1303.83,-105.48 1308.78,-96.12 1299.07,-100.35 1303.83,-105.48"/>
</a>
</g>
</g>
<!-- Node22 -->
<g id="Node000022" class="node">
<title>Node22</title>
<g id="a_Node000022"><a xlink:title=" ">
<polygon fill="#e0e0e0" stroke="#999999" points="1213.5,-96 1040.5,-96 1040.5,-66 1213.5,-66 1213.5,-96"/>
<text text-anchor="start" x="1048.5" y="-84" font-family="Helvetica,sans-Serif" font-size="10.00">ChimeraTK/NDRegisterAccessor</text>
<text text-anchor="middle" x="1127" y="-73" font-family="Helvetica,sans-Serif" font-size="10.00">Decorator.h</text>
</a>
</g>
</g>
<!-- Node20&#45;&gt;Node22 -->
<g id="edge30_Node000020_Node000022" class="edge">
<title>Node20&#45;&gt;Node22</title>
<g id="a_edge30_Node000020_Node000022"><a xlink:title=" ">
<path fill="none" stroke="#63b8ff" d="M1237.74,-137.37C1218.98,-127.99 1188.44,-112.72 1164.18,-100.59"/>
<polygon fill="#63b8ff" stroke="#63b8ff" points="1165.74,-97.46 1155.23,-96.12 1162.61,-103.72 1165.74,-97.46"/>
</a>
</g>
</g>
<!-- Node20&#45;&gt;Node23 -->
<g id="edge31_Node000020_Node000023" class="edge">
<title>Node20&#45;&gt;Node23</title>
<g id="a_edge31_Node000020_Node000023"><a xlink:title=" ">
<path fill="none" stroke="#63b8ff" d="M1216.44,-137.45C1208.06,-135.62 1199.24,-133.72 1191,-132 1123.52,-117.87 1045.6,-102.42 994.93,-92.49"/>
<polygon fill="#63b8ff" stroke="#63b8ff" points="995.34,-89.01 984.85,-90.52 994,-95.88 995.34,-89.01"/>
</a>
</g>
</g>
<!-- Node20&#45;&gt;Node24 -->
<g id="edge32_Node000020_Node000024" class="edge">
<title>Node20&#45;&gt;Node24</title>
<g id="a_edge32_Node000020_Node000024"><a xlink:title=" ">
<path fill="none" stroke="#63b8ff" d="M1290.78,-137.45C1325.61,-128.67 1379.77,-113.8 1425,-96 1425.86,-95.66 1426.74,-95.3 1427.61,-94.93"/>
<polygon fill="#63b8ff" stroke="#63b8ff" points="1429.32,-98 1436.94,-90.64 1426.39,-91.64 1429.32,-98"/>
</a>
</g>
</g>
<!-- Node26&#45;&gt;Node4 -->
<g id="edge40_Node000026_Node000004" class="edge">
<title>Node26&#45;&gt;Node4</title>
<g id="a_edge40_Node000026_Node000004"><a xlink:title=" ">
<path fill="none" stroke="#63b8ff" d="M1687.3,-137.43C1655.01,-127.94 1602.01,-111.89 1557,-96 1522.76,-83.91 1516.5,-73.66 1481,-66 1166.73,1.84 1076.27,-59.05 752.3,-30.05"/>
<polygon fill="#63b8ff" stroke="#63b8ff" points="752.44,-26.55 742.16,-29.12 751.8,-33.52 752.44,-26.55"/>
</a>
</g>
</g>
<!-- Node26&#45;&gt;Node11 -->
<g id="edge42_Node000026_Node000011" class="edge">
<title>Node26&#45;&gt;Node11</title>
<g id="a_edge42_Node000026_Node000011"><a xlink:title=" ">
<path fill="none" stroke="#63b8ff" d="M1716.93,-137.47C1716.78,-116.82 1716.37,-63.72 1716.15,-35.04"/>
<polygon fill="#63b8ff" stroke="#63b8ff" points="1719.64,-34.7 1716.07,-24.73 1712.64,-34.76 1719.64,-34.7"/>
</a>
</g>
</g>
<!-- Node27 -->
<g id="Node000027" class="node">
<title>Node27</title>
<g id="a_Node000027"><a xlink:title=" ">
<polygon fill="#e0e0e0" stroke="#999999" points="1776,-90.5 1744,-90.5 1744,-71.5 1776,-71.5 1776,-90.5"/>
<text text-anchor="middle" x="1760" y="-78.5" font-family="Helvetica,sans-Serif" font-size="10.00">set</text>
</a>
</g>
</g>
<!-- Node26&#45;&gt;Node27 -->
<g id="edge41_Node000026_Node000027" class="edge">
<title>Node26&#45;&gt;Node27</title>
<g id="a_edge41_Node000026_Node000027"><a xlink:title=" ">
<path fill="none" stroke="#63b8ff" d="M1722.8,-137.37C1729.3,-127.69 1740.02,-111.74 1748.28,-99.44"/>
<polygon fill="#63b8ff" stroke="#63b8ff" points="1751.35,-101.16 1754.02,-90.91 1745.53,-97.25 1751.35,-101.16"/>
</a>
</g>
</g>
<!-- Node28&#45;&gt;Node9 -->
<g id="edge45_Node000028_Node000009" class="edge">
<title>Node28&#45;&gt;Node9</title>
<g id="a_edge45_Node000028_Node000009"><a xlink:title=" ">
<path fill="none" stroke="#63b8ff" d="M1874.73,-137.44C1823.14,-125.89 1731.31,-105.34 1675.11,-92.77"/>
<polygon fill="#63b8ff" stroke="#63b8ff" points="1675.57,-89.28 1665.05,-90.51 1674.04,-96.11 1675.57,-89.28"/>
</a>
</g>
</g>
<!-- Node28&#45;&gt;Node10 -->
<g id="edge46_Node000028_Node000010" class="edge">
<title>Node28&#45;&gt;Node10</title>
<g id="a_edge46_Node000028_Node000010"><a xlink:title=" ">
<path fill="none" stroke="#63b8ff" d="M1963.81,-139.79C2014.69,-132.41 2087.83,-118.21 2105,-96 2130.95,-62.42 2073.2,-39.43 2026.79,-26.99"/>
<polygon fill="#63b8ff" stroke="#63b8ff" points="2027.65,-23.6 2017.09,-24.5 2025.91,-30.38 2027.65,-23.6"/>
</a>
</g>
</g>
<!-- Node28&#45;&gt;Node11 -->
<g id="edge53_Node000028_Node000011" class="edge">
<title>Node28&#45;&gt;Node11</title>
<g id="a_edge53_Node000028_Node000011"><a xlink:title=" ">
<path fill="none" stroke="#63b8ff" d="M1925.9,-137.41C1947.04,-122.28 1984.84,-90.22 1965,-66 1937.98,-33.02 1809.69,-21.33 1748.55,-17.59"/>
<polygon fill="#63b8ff" stroke="#63b8ff" points="1748.48,-14.08 1738.3,-17 1748.08,-21.07 1748.48,-14.08"/>
</a>
</g>
</g>
<!-- Node28&#45;&gt;Node24 -->
<g id="edge50_Node000028_Node000024" class="edge">
<title>Node28&#45;&gt;Node24</title>
<g id="a_edge50_Node000028_Node000024"><a xlink:title=" ">
<path fill="none" stroke="#63b8ff" d="M1862.46,-138.97C1766.14,-125.57 1559.06,-96.76 1482.36,-86.08"/>
<polygon fill="#63b8ff" stroke="#63b8ff" points="1482.41,-82.56 1472.02,-84.65 1481.44,-89.49 1482.41,-82.56"/>
</a>
</g>
</g>
<!-- Node28&#45;&gt;Node27 -->
<g id="edge52_Node000028_Node000027" class="edge">
<title>Node28&#45;&gt;Node27</title>
<g id="a_edge52_Node000028_Node000027"><a xlink:title=" ">
<path fill="none" stroke="#63b8ff" d="M1888.03,-137.41C1861.92,-128.15 1819.94,-112.51 1785,-96 1784.57,-95.8 1784.14,-95.59 1783.71,-95.38"/>
<polygon fill="#63b8ff" stroke="#63b8ff" points="1785.11,-92.17 1774.63,-90.64 1781.87,-98.37 1785.11,-92.17"/>
</a>
</g>
</g>
<!-- Node29 -->
<g id="Node000029" class="node">
<title>Node29</title>
<g id="a_Node000029"><a xlink:title=" ">
<polygon fill="#e0e0e0" stroke="#999999" points="2096,-90.5 2012,-90.5 2012,-71.5 2096,-71.5 2096,-90.5"/>
<text text-anchor="middle" x="2054" y="-78.5" font-family="Helvetica,sans-Serif" font-size="10.00">boost/any.hpp</text>
</a>
</g>
</g>
<!-- Node28&#45;&gt;Node29 -->
<g id="edge47_Node000028_Node000029" class="edge">
<title>Node28&#45;&gt;Node29</title>
<g id="a_edge47_Node000028_Node000029"><a xlink:title=" ">
<path fill="none" stroke="#63b8ff" d="M1932.02,-137.37C1956.09,-126.44 1997.77,-107.52 2025.61,-94.88"/>
<polygon fill="#63b8ff" stroke="#63b8ff" points="2027.18,-98.02 2034.84,-90.7 2024.28,-91.65 2027.18,-98.02"/>
</a>
</g>
</g>
<!-- Node30 -->
<g id="Node000030" class="node">
<title>Node30</title>
<g id="a_Node000030"><a xlink:title=" ">
<polygon fill="#e0e0e0" stroke="#999999" points="2212,-90.5 2152,-90.5 2152,-71.5 2212,-71.5 2212,-90.5"/>
<text text-anchor="middle" x="2182" y="-78.5" font-family="Helvetica,sans-Serif" font-size="10.00">iostream</text>
</a>
</g>
</g>
<!-- Node28&#45;&gt;Node30 -->
<g id="edge48_Node000028_Node000030" class="edge">
<title>Node28&#45;&gt;Node30</title>
<g id="a_edge48_Node000028_Node000030"><a xlink:title=" ">
<path fill="none" stroke="#63b8ff" d="M1956.84,-137.47C2002.39,-128.32 2075.6,-112.82 2138,-96 2140.83,-95.24 2143.75,-94.41 2146.67,-93.54"/>
<polygon fill="#63b8ff" stroke="#63b8ff" points="2147.98,-96.8 2156.52,-90.53 2145.93,-90.11 2147.98,-96.8"/>
</a>
</g>
</g>
<!-- Node31 -->
<g id="Node000031" class="node">
<title>Node31</title>
<g id="a_Node000031"><a xlink:title=" ">
<polygon fill="#e0e0e0" stroke="#999999" points="2262,-90.5 2230,-90.5 2230,-71.5 2262,-71.5 2262,-90.5"/>
<text text-anchor="middle" x="2246" y="-78.5" font-family="Helvetica,sans-Serif" font-size="10.00">list</text>
</a>
</g>
</g>
<!-- Node28&#45;&gt;Node31 -->
<g id="edge49_Node000028_Node000031" class="edge">
<title>Node28&#45;&gt;Node31</title>
<g id="a_edge49_Node000028_Node000031"><a xlink:title=" ">
<path fill="none" stroke="#63b8ff" d="M1963.66,-143.2C2025.81,-138.54 2133.66,-126.47 2221,-96 2221.86,-95.7 2222.73,-95.37 2223.6,-95.02"/>
<polygon fill="#63b8ff" stroke="#63b8ff" points="2225.2,-98.13 2232.65,-90.6 2222.13,-91.84 2225.2,-98.13"/>
</a>
</g>
</g>
<!-- Node32 -->
<g id="Node000032" class="node">
<title>Node32</title>
<g id="a_Node000032"><a xlink:title=" ">
<polygon fill="#e0e0e0" stroke="#999999" points="1852,-90.5 1794,-90.5 1794,-71.5 1852,-71.5 1852,-90.5"/>
<text text-anchor="middle" x="1823" y="-78.5" font-family="Helvetica,sans-Serif" font-size="10.00">memory</text>
</a>
</g>
</g>
<!-- Node28&#45;&gt;Node32 -->
<g id="edge51_Node000028_Node000032" class="edge">
<title>Node28&#45;&gt;Node32</title>
<g id="a_edge51_Node000028_Node000032"><a xlink:title=" ">
<path fill="none" stroke="#63b8ff" d="M1900.86,-137.37C1886.23,-126.97 1861.42,-109.32 1843.74,-96.75"/>
<polygon fill="#63b8ff" stroke="#63b8ff" points="1845.41,-93.64 1835.23,-90.7 1841.35,-99.35 1845.41,-93.64"/>
</a>
</g>
</g>
<!-- Node33 -->
<g id="Node000033" class="node">
<title>Node33</title>
<g id="a_Node000033"><a xlink:title=" ">
<polygon fill="#e0e0e0" stroke="#999999" points="1956,-90.5 1870,-90.5 1870,-71.5 1956,-71.5 1956,-90.5"/>
<text text-anchor="middle" x="1913" y="-78.5" font-family="Helvetica,sans-Serif" font-size="10.00">unordered_set</text>
</a>
</g>
</g>
<!-- Node28&#45;&gt;Node33 -->
<g id="edge54_Node000028_Node000033" class="edge">
<title>Node28&#45;&gt;Node33</title>
<g id="a_edge54_Node000028_Node000033"><a xlink:title=" ">
<path fill="none" stroke="#63b8ff" d="M1913,-137.37C1913,-128.16 1913,-113.29 1913,-101.27"/>
<polygon fill="#63b8ff" stroke="#63b8ff" points="1916.5,-100.91 1913,-90.91 1909.5,-100.91 1916.5,-100.91"/>
</a>
</g>
</g>
</g>
</svg>
