<?xml version="1.0" encoding="UTF-8" standalone="no"?>
<!DOCTYPE svg PUBLIC "-//W3C//DTD SVG 1.1//EN"
 "http://www.w3.org/Graphics/SVG/1.1/DTD/svg11.dtd">
<!-- Generated by graphviz version 2.43.0 (0)
 -->
<!-- Title: ChimeraTK::VariableMapper::getContentString Pages: 1 -->
<svg width="1508pt" height="398pt"
 viewBox="0.00 0.00 1508.00 397.50" xmlns="http://www.w3.org/2000/svg" xmlns:xlink="http://www.w3.org/1999/xlink">
<g id="graph0" class="graph" transform="scale(1 1) rotate(0) translate(4 393.5)">
<title>ChimeraTK::VariableMapper::getContentString</title>
<!-- Node1 -->
<g id="Node000001" class="node">
<title>Node1</title>
<g id="a_Node000001"><a xlink:title="Loop through the sub nodes and take the string from the first non&#45;empty which can be casted to a stri...">
<polygon fill="#999999" stroke="#666666" points="1500,-248 1347,-248 1347,-218 1500,-218 1500,-248"/>
<text text-anchor="start" x="1355" y="-236" font-family="Helvetica,sans-Serif" font-size="10.00">ChimeraTK::VariableMapper</text>
<text text-anchor="middle" x="1423.5" y="-225" font-family="Helvetica,sans-Serif" font-size="10.00">::getContentString</text>
</a>
</g>
</g>
<!-- Node2 -->
<g id="Node000002" class="node">
<title>Node2</title>
<g id="a_Node000002"><a xlink:href="class_chimera_t_k_1_1_variable_mapper.html#af6548dff0d621b0ce5d68d3ec59253fa" target="_top" xlink:title=" ">
<polygon fill="white" stroke="#666666" points="694,-262 541,-262 541,-232 694,-232 694,-262"/>
<text text-anchor="start" x="549" y="-250" font-family="Helvetica,sans-Serif" font-size="10.00">ChimeraTK::VariableMapper</text>
<text text-anchor="middle" x="617.5" y="-239" font-family="Helvetica,sans-Serif" font-size="10.00">::prepareOutput</text>
</a>
</g>
</g>
<!-- Node1&#45;&gt;Node2 -->
<g id="edge1_Node000001_Node000002" class="edge">
<title>Node1&#45;&gt;Node2</title>
<g id="a_edge1_Node000001_Node000002"><a xlink:title=" ">
<path fill="none" stroke="#63b8ff" d="M1396.67,-254.3C1375.21,-270.55 1343.11,-291.69 1311,-301 1076.75,-368.91 780.4,-295.81 666.28,-262.12"/>
<polygon fill="#63b8ff" stroke="#63b8ff" points="1398.87,-257.02 1404.63,-248.12 1394.58,-251.49 1398.87,-257.02"/>
</a>
</g>
</g>
<!-- Node15 -->
<g id="Node000015" class="node">
<title>Node15</title>
<g id="a_Node000015"><a xlink:href="class_chimera_t_k_1_1_variable_mapper.html#afa5124221c16d532a41344ebc8b97c82" target="_top" xlink:title=" ">
<polygon fill="white" stroke="#666666" points="1311,-174 1108,-174 1108,-144 1311,-144 1311,-174"/>
<text text-anchor="start" x="1116" y="-162" font-family="Helvetica,sans-Serif" font-size="10.00">ChimeraTK::VariableMapper</text>
<text text-anchor="middle" x="1209.5" y="-151" font-family="Helvetica,sans-Serif" font-size="10.00">::processHistoryAndWritableAttributes</text>
</a>
</g>
</g>
<!-- Node1&#45;&gt;Node15 -->
<g id="edge14_Node000001_Node000015" class="edge">
<title>Node1&#45;&gt;Node15</title>
<g id="a_edge14_Node000001_Node000015"><a xlink:title=" ">
<path fill="none" stroke="#63b8ff" d="M1369.56,-214.52C1333.77,-202.03 1287.11,-185.74 1253.6,-174.04"/>
<polygon fill="#63b8ff" stroke="#63b8ff" points="1368.75,-217.94 1379.34,-217.94 1371.06,-211.34 1368.75,-217.94"/>
</a>
</g>
</g>
<!-- Node17 -->
<g id="Node000017" class="node">
<title>Node17</title>
<g id="a_Node000017"><a xlink:href="class_chimera_t_k_1_1_variable_mapper.html#a6938122cddbec29e7714a2fc72ac50df" target="_top" xlink:title=" ">
<polygon fill="white" stroke="#666666" points="883,-198 730,-198 730,-168 883,-168 883,-198"/>
<text text-anchor="start" x="738" y="-186" font-family="Helvetica,sans-Serif" font-size="10.00">ChimeraTK::VariableMapper</text>
<text text-anchor="middle" x="806.5" y="-175" font-family="Helvetica,sans-Serif" font-size="10.00">::processLocationNode</text>
</a>
</g>
</g>
<!-- Node1&#45;&gt;Node17 -->
<g id="edge29_Node000001_Node000017" class="edge">
<title>Node1&#45;&gt;Node17</title>
<g id="a_edge29_Node000001_Node000017"><a xlink:title=" ">
<path fill="none" stroke="#63b8ff" d="M1372.76,-251.42C1280.2,-282.72 1076.61,-337.5 919,-279 875.42,-262.82 837.45,-221.13 819.14,-198.37"/>
<polygon fill="#63b8ff" stroke="#63b8ff" points="1374.11,-254.66 1382.43,-248.1 1371.83,-248.04 1374.11,-254.66"/>
</a>
</g>
</g>
<!-- Node19 -->
<g id="Node000019" class="node">
<title>Node19</title>
<g id="a_Node000019"><a xlink:href="class_chimera_t_k_1_1_variable_mapper.html#a9f182df7ceedccbc34d4b85788dbdd05" target="_top" xlink:title=" ">
<polygon fill="white" stroke="#666666" points="1072,-30 919,-30 919,0 1072,0 1072,-30"/>
<text text-anchor="start" x="927" y="-18" font-family="Helvetica,sans-Serif" font-size="10.00">ChimeraTK::VariableMapper</text>
<text text-anchor="middle" x="995.5" y="-7" font-family="Helvetica,sans-Serif" font-size="10.00">::processImageNode</text>
</a>
</g>
</g>
<!-- Node1&#45;&gt;Node19 -->
<g id="edge28_Node000001_Node000019" class="edge">
<title>Node1&#45;&gt;Node19</title>
<g id="a_edge28_Node000001_Node000019"><a xlink:title=" ">
<path fill="none" stroke="#63b8ff" d="M1401.45,-210.51C1380.26,-188.88 1345.8,-156.41 1311,-135 1228.12,-84.02 1120.01,-48.59 1054.55,-30.05"/>
<polygon fill="#63b8ff" stroke="#63b8ff" points="1399.17,-213.19 1408.64,-217.94 1404.21,-208.32 1399.17,-213.19"/>
</a>
</g>
</g>
<!-- Node21 -->
<g id="Node000021" class="node">
<title>Node21</title>
<g id="a_Node000021"><a xlink:href="class_chimera_t_k_1_1_variable_mapper.html#adf41b596b8025aa21313faf719f1e643" target="_top" xlink:title=" ">
<polygon fill="white" stroke="#666666" points="1072,-270 919,-270 919,-240 1072,-240 1072,-270"/>
<text text-anchor="start" x="927" y="-258" font-family="Helvetica,sans-Serif" font-size="10.00">ChimeraTK::VariableMapper</text>
<text text-anchor="middle" x="995.5" y="-247" font-family="Helvetica,sans-Serif" font-size="10.00">::processSpectrumNode</text>
</a>
</g>
</g>
<!-- Node1&#45;&gt;Node21 -->
<g id="edge30_Node000001_Node000021" class="edge">
<title>Node1&#45;&gt;Node21</title>
<g id="a_edge30_Node000001_Node000021"><a xlink:title=" ">
<path fill="none" stroke="#63b8ff" d="M1336.62,-237.44C1259.15,-241.44 1146.32,-247.26 1072.18,-251.09"/>
<polygon fill="#63b8ff" stroke="#63b8ff" points="1337.02,-240.92 1346.83,-236.91 1336.66,-233.93 1337.02,-240.92"/>
</a>
</g>
</g>
<!-- Node22 -->
<g id="Node000022" class="node">
<title>Node22</title>
<g id="a_Node000022"><a xlink:href="class_chimera_t_k_1_1_variable_mapper.html#a0ae04625dba7e9b611a0368b55ec7b28" target="_top" xlink:title=" ">
<polygon fill="white" stroke="#666666" points="1072,-222 919,-222 919,-192 1072,-192 1072,-222"/>
<text text-anchor="start" x="927" y="-210" font-family="Helvetica,sans-Serif" font-size="10.00">ChimeraTK::VariableMapper</text>
<text text-anchor="middle" x="995.5" y="-199" font-family="Helvetica,sans-Serif" font-size="10.00">::processXyNode</text>
</a>
</g>
</g>
<!-- Node1&#45;&gt;Node22 -->
<g id="edge31_Node000001_Node000022" class="edge">
<title>Node1&#45;&gt;Node22</title>
<g id="a_edge31_Node000001_Node000022"><a xlink:title=" ">
<path fill="none" stroke="#63b8ff" d="M1336.62,-227.76C1259.15,-223.03 1146.32,-216.14 1072.18,-211.62"/>
<polygon fill="#63b8ff" stroke="#63b8ff" points="1336.64,-231.27 1346.83,-228.38 1337.06,-224.28 1336.64,-231.27"/>
</a>
</g>
</g>
<!-- Node3 -->
<g id="Node000003" class="node">
<title>Node3</title>
<g id="a_Node000003"><a xlink:href="class_chimera_t_k_1_1_doocs_adapter.html#a74f831d45dd0772d0787e89ef87a236a" target="_top" xlink:title=" ">
<polygon fill="white" stroke="#666666" points="505,-330 360,-330 360,-300 505,-300 505,-330"/>
<text text-anchor="start" x="368" y="-318" font-family="Helvetica,sans-Serif" font-size="10.00">ChimeraTK::DoocsAdapter</text>
<text text-anchor="middle" x="432.5" y="-307" font-family="Helvetica,sans-Serif" font-size="10.00">::eqInitProlog</text>
</a>
</g>
</g>
<!-- Node2&#45;&gt;Node3 -->
<g id="edge2_Node000002_Node000003" class="edge">
<title>Node2&#45;&gt;Node3</title>
<g id="a_edge2_Node000002_Node000003"><a xlink:title=" ">
<path fill="none" stroke="#63b8ff" d="M566.33,-265.64C537.29,-276.43 501.22,-289.84 474,-299.95"/>
<polygon fill="#63b8ff" stroke="#63b8ff" points="567.73,-268.86 575.89,-262.09 565.29,-262.29 567.73,-268.86"/>
</a>
</g>
</g>
<!-- Node7 -->
<g id="Node000007" class="node">
<title>Node7</title>
<g id="a_Node000007"><a xlink:href="test_variable_mapper_8cpp.html#ad7cc765a56d441c093fb4ce50133e6a1" target="_top" xlink:title=" ">
<polygon fill="white" stroke="#666666" points="477.5,-235.5 387.5,-235.5 387.5,-216.5 477.5,-216.5 477.5,-235.5"/>
<text text-anchor="middle" x="432.5" y="-223.5" font-family="Helvetica,sans-Serif" font-size="10.00">testXmlParsing</text>
</a>
</g>
</g>
<!-- Node2&#45;&gt;Node7 -->
<g id="edge6_Node000002_Node000007" class="edge">
<title>Node2&#45;&gt;Node7</title>
<g id="a_edge6_Node000002_Node000007"><a xlink:title=" ">
<path fill="none" stroke="#63b8ff" d="M530.58,-237.14C512.2,-235.03 493.51,-232.89 477.51,-231.05"/>
<polygon fill="#63b8ff" stroke="#63b8ff" points="530.41,-240.64 540.75,-238.31 531.21,-233.69 530.41,-240.64"/>
</a>
</g>
</g>
<!-- Node4 -->
<g id="Node000004" class="node">
<title>Node4</title>
<g id="a_Node000004"><a xlink:href="class_chimera_t_k_1_1_doocs_adapter.html#a540df5860a62d5acf30c784bbe21b18b" target="_top" xlink:title=" ">
<polygon fill="white" stroke="#666666" points="324,-377 179,-377 179,-347 324,-347 324,-377"/>
<text text-anchor="start" x="187" y="-365" font-family="Helvetica,sans-Serif" font-size="10.00">ChimeraTK::DoocsAdapter</text>
<text text-anchor="middle" x="251.5" y="-354" font-family="Helvetica,sans-Serif" font-size="10.00">::createServer</text>
</a>
</g>
</g>
<!-- Node3&#45;&gt;Node4 -->
<g id="edge3_Node000003_Node000004" class="edge">
<title>Node3&#45;&gt;Node4</title>
<g id="a_edge3_Node000003_Node000004"><a xlink:title=" ">
<path fill="none" stroke="#63b8ff" d="M364.51,-332.59C346.48,-337.32 327.14,-342.4 309.7,-346.98"/>
<polygon fill="#63b8ff" stroke="#63b8ff" points="365.59,-335.93 374.37,-330 363.81,-329.15 365.59,-335.93"/>
</a>
</g>
</g>
<!-- Node5 -->
<g id="Node000005" class="node">
<title>Node5</title>
<g id="a_Node000005"><a xlink:href="server_test_spectrum_buffer-exception_8cpp.html#a1f8893621f4cebe2116c94e600749fa9" target="_top" xlink:title=" ">
<polygon fill="white" stroke="#666666" points="143,-389.5 0,-389.5 0,-370.5 143,-370.5 143,-389.5"/>
<text text-anchor="middle" x="71.5" y="-377.5" font-family="Helvetica,sans-Serif" font-size="10.00">BOOST_AUTO_TEST_CASE</text>
</a>
</g>
</g>
<!-- Node4&#45;&gt;Node5 -->
<g id="edge4_Node000004_Node000005" class="edge">
<title>Node4&#45;&gt;Node5</title>
<g id="a_edge4_Node000004_Node000005"><a xlink:title=" ">
<path fill="none" stroke="#63b8ff" d="M168.84,-370.26C160.25,-371.13 151.57,-372 143.11,-372.86"/>
<polygon fill="#63b8ff" stroke="#63b8ff" points="169.27,-373.73 178.87,-369.24 168.57,-366.77 169.27,-373.73"/>
</a>
</g>
</g>
<!-- Node6 -->
<g id="Node000006" class="node">
<title>Node6</title>
<g id="a_Node000006"><a xlink:href="main_8cc.html#a0ddf1224851353fc92bfbff6f499fa97" target="_top" xlink:title=" ">
<polygon fill="white" stroke="#666666" points="92,-352.5 51,-352.5 51,-333.5 92,-333.5 92,-352.5"/>
<text text-anchor="middle" x="71.5" y="-340.5" font-family="Helvetica,sans-Serif" font-size="10.00">main</text>
</a>
</g>
</g>
<!-- Node4&#45;&gt;Node6 -->
<g id="edge5_Node000004_Node000006" class="edge">
<title>Node4&#45;&gt;Node6</title>
<g id="a_edge5_Node000004_Node000006"><a xlink:title=" ">
<path fill="none" stroke="#63b8ff" d="M168.89,-353.29C140.49,-350.26 111.08,-347.12 92.33,-345.12"/>
<polygon fill="#63b8ff" stroke="#63b8ff" points="168.55,-356.77 178.87,-354.35 169.3,-349.81 168.55,-356.77"/>
</a>
</g>
</g>
<!-- Node8 -->
<g id="Node000008" class="node">
<title>Node8</title>
<g id="a_Node000008"><a xlink:href="test_variable_mapper_8cpp.html#aa2d26fdd1406418c229c49bbcafc6234" target="_top" xlink:title=" ">
<polygon fill="white" stroke="#666666" points="323,-217.5 180,-217.5 180,-198.5 323,-198.5 323,-217.5"/>
<text text-anchor="middle" x="251.5" y="-205.5" font-family="Helvetica,sans-Serif" font-size="10.00">BOOST_AUTO_TEST_CASE</text>
</a>
</g>
</g>
<!-- Node7&#45;&gt;Node8 -->
<g id="edge7_Node000007_Node000008" class="edge">
<title>Node7&#45;&gt;Node8</title>
<g id="a_edge7_Node000007_Node000008"><a xlink:title=" ">
<path fill="none" stroke="#63b8ff" d="M376.96,-220.52C359.97,-218.81 340.98,-216.9 323.05,-215.09"/>
<polygon fill="#63b8ff" stroke="#63b8ff" points="376.95,-224.03 387.25,-221.55 377.65,-217.07 376.95,-224.03"/>
</a>
</g>
</g>
<!-- Node9 -->
<g id="Node000009" class="node">
<title>Node9</title>
<g id="a_Node000009"><a xlink:href="test_variable_mapper_8cpp.html#abaab131a1edb8448526df009d9b9bb50" target="_top" xlink:title=" ">
<polygon fill="white" stroke="#666666" points="323,-180.5 180,-180.5 180,-161.5 323,-161.5 323,-180.5"/>
<text text-anchor="middle" x="251.5" y="-168.5" font-family="Helvetica,sans-Serif" font-size="10.00">BOOST_AUTO_TEST_CASE</text>
</a>
</g>
</g>
<!-- Node7&#45;&gt;Node9 -->
<g id="edge8_Node000007_Node000009" class="edge">
<title>Node7&#45;&gt;Node9</title>
<g id="a_edge8_Node000007_Node000009"><a xlink:title=" ">
<path fill="none" stroke="#63b8ff" d="M395.03,-213.15C374.3,-206 347.82,-197.14 324,-190 313.05,-186.72 301.07,-183.42 290.1,-180.51"/>
<polygon fill="#63b8ff" stroke="#63b8ff" points="394.11,-216.53 404.7,-216.5 396.4,-209.92 394.11,-216.53"/>
</a>
</g>
</g>
<!-- Node10 -->
<g id="Node000010" class="node">
<title>Node10</title>
<g id="a_Node000010"><a xlink:href="test_variable_mapper_8cpp.html#a661428b8129ffb61e34b706a8d356026" target="_top" xlink:title=" ">
<polygon fill="white" stroke="#666666" points="323,-143.5 180,-143.5 180,-124.5 323,-124.5 323,-143.5"/>
<text text-anchor="middle" x="251.5" y="-131.5" font-family="Helvetica,sans-Serif" font-size="10.00">BOOST_AUTO_TEST_CASE</text>
</a>
</g>
</g>
<!-- Node7&#45;&gt;Node10 -->
<g id="edge9_Node000007_Node000010" class="edge">
<title>Node7&#45;&gt;Node10</title>
<g id="a_edge9_Node000007_Node000010"><a xlink:title=" ">
<path fill="none" stroke="#63b8ff" d="M412.06,-209.8C391.41,-193.34 357.22,-168.16 324,-153 315.82,-149.27 306.77,-146.16 297.93,-143.6"/>
<polygon fill="#63b8ff" stroke="#63b8ff" points="410.07,-212.69 420.04,-216.27 414.48,-207.25 410.07,-212.69"/>
</a>
</g>
</g>
<!-- Node11 -->
<g id="Node000011" class="node">
<title>Node11</title>
<g id="a_Node000011"><a xlink:href="test_variable_mapper_8cpp.html#a58cb6241e2ed4d80452eb8962c7f1430" target="_top" xlink:title=" ">
<polygon fill="white" stroke="#666666" points="323,-106.5 180,-106.5 180,-87.5 323,-87.5 323,-106.5"/>
<text text-anchor="middle" x="251.5" y="-94.5" font-family="Helvetica,sans-Serif" font-size="10.00">BOOST_AUTO_TEST_CASE</text>
</a>
</g>
</g>
<!-- Node7&#45;&gt;Node11 -->
<g id="edge10_Node000007_Node000011" class="edge">
<title>Node7&#45;&gt;Node11</title>
<g id="a_edge10_Node000007_Node000011"><a xlink:title=" ">
<path fill="none" stroke="#63b8ff" d="M419.19,-208.07C401.22,-183.29 365.37,-138.91 324,-115 318.13,-111.61 311.62,-108.84 304.99,-106.6"/>
<polygon fill="#63b8ff" stroke="#63b8ff" points="416.35,-210.11 424.99,-216.24 422.06,-206.06 416.35,-210.11"/>
</a>
</g>
</g>
<!-- Node12 -->
<g id="Node000012" class="node">
<title>Node12</title>
<g id="a_Node000012"><a xlink:href="test_variable_mapper_8cpp.html#afbd763163476492fbf3cc6a33747c357" target="_top" xlink:title=" ">
<polygon fill="white" stroke="#666666" points="323,-328.5 180,-328.5 180,-309.5 323,-309.5 323,-328.5"/>
<text text-anchor="middle" x="251.5" y="-316.5" font-family="Helvetica,sans-Serif" font-size="10.00">BOOST_AUTO_TEST_CASE</text>
</a>
</g>
</g>
<!-- Node7&#45;&gt;Node12 -->
<g id="edge11_Node000007_Node000012" class="edge">
<title>Node7&#45;&gt;Node12</title>
<g id="a_edge11_Node000007_Node000012"><a xlink:title=" ">
<path fill="none" stroke="#63b8ff" d="M412.84,-242.21C392.37,-259.21 357.88,-285.55 324,-301 316.66,-304.35 308.61,-307.14 300.63,-309.44"/>
<polygon fill="#63b8ff" stroke="#63b8ff" points="415.34,-244.69 420.72,-235.56 410.82,-239.34 415.34,-244.69"/>
</a>
</g>
</g>
<!-- Node13 -->
<g id="Node000013" class="node">
<title>Node13</title>
<g id="a_Node000013"><a xlink:href="test_variable_mapper_8cpp.html#ac4496423b41156884bb226eeb580fd9a" target="_top" xlink:title=" ">
<polygon fill="white" stroke="#666666" points="323,-291.5 180,-291.5 180,-272.5 323,-272.5 323,-291.5"/>
<text text-anchor="middle" x="251.5" y="-279.5" font-family="Helvetica,sans-Serif" font-size="10.00">BOOST_AUTO_TEST_CASE</text>
</a>
</g>
</g>
<!-- Node7&#45;&gt;Node13 -->
<g id="edge12_Node000007_Node000013" class="edge">
<title>Node7&#45;&gt;Node13</title>
<g id="a_edge12_Node000007_Node000013"><a xlink:title=" ">
<path fill="none" stroke="#63b8ff" d="M397.08,-239.09C376.12,-246.83 348.7,-256.54 324,-264 314.07,-267 303.27,-269.9 293.14,-272.47"/>
<polygon fill="#63b8ff" stroke="#63b8ff" points="398.37,-242.34 406.52,-235.57 395.93,-235.78 398.37,-242.34"/>
</a>
</g>
</g>
<!-- Node14 -->
<g id="Node000014" class="node">
<title>Node14</title>
<g id="a_Node000014"><a xlink:href="test_variable_mapper_8cpp.html#ac6ab0f2ec46da87f9c3785f4a92a9965" target="_top" xlink:title=" ">
<polygon fill="white" stroke="#666666" points="323,-254.5 180,-254.5 180,-235.5 323,-235.5 323,-254.5"/>
<text text-anchor="middle" x="251.5" y="-242.5" font-family="Helvetica,sans-Serif" font-size="10.00">BOOST_AUTO_TEST_CASE</text>
</a>
</g>
</g>
<!-- Node7&#45;&gt;Node14 -->
<g id="edge13_Node000007_Node000014" class="edge">
<title>Node7&#45;&gt;Node14</title>
<g id="a_edge13_Node000007_Node000014"><a xlink:title=" ">
<path fill="none" stroke="#63b8ff" d="M376.96,-231.79C359.97,-233.59 340.98,-235.61 323.05,-237.51"/>
<polygon fill="#63b8ff" stroke="#63b8ff" points="377.68,-235.23 387.25,-230.7 376.94,-228.27 377.68,-235.23"/>
</a>
</g>
</g>
<!-- Node16 -->
<g id="Node000016" class="node">
<title>Node16</title>
<g id="a_Node000016"><a xlink:href="class_chimera_t_k_1_1_variable_mapper.html#ac7ffa344a61aceb701bf12d62cfcab20" target="_top" xlink:title=" ">
<polygon fill="white" stroke="#666666" points="1072,-126 919,-126 919,-96 1072,-96 1072,-126"/>
<text text-anchor="start" x="927" y="-114" font-family="Helvetica,sans-Serif" font-size="10.00">ChimeraTK::VariableMapper</text>
<text text-anchor="middle" x="995.5" y="-103" font-family="Helvetica,sans-Serif" font-size="10.00">::processIfffNode</text>
</a>
</g>
</g>
<!-- Node15&#45;&gt;Node16 -->
<g id="edge15_Node000015_Node000016" class="edge">
<title>Node15&#45;&gt;Node16</title>
<g id="a_edge15_Node000015_Node000016"><a xlink:title=" ">
<path fill="none" stroke="#63b8ff" d="M1132.08,-141.7C1109.39,-136.56 1084.74,-130.98 1062.76,-126"/>
<polygon fill="#63b8ff" stroke="#63b8ff" points="1131.48,-145.15 1142,-143.94 1133.02,-138.32 1131.48,-145.15"/>
</a>
</g>
</g>
<!-- Node18 -->
<g id="Node000018" class="node">
<title>Node18</title>
<g id="a_Node000018"><a xlink:href="class_chimera_t_k_1_1_variable_mapper.html#ac198c398c161eafe5607199e00ec0a72" target="_top" xlink:title=" ">
<polygon fill="white" stroke="#666666" points="1072,-78 919,-78 919,-48 1072,-48 1072,-78"/>
<text text-anchor="start" x="927" y="-66" font-family="Helvetica,sans-Serif" font-size="10.00">ChimeraTK::VariableMapper</text>
<text text-anchor="middle" x="995.5" y="-55" font-family="Helvetica,sans-Serif" font-size="10.00">::processIiiiNode</text>
</a>
</g>
</g>
<!-- Node15&#45;&gt;Node18 -->
<g id="edge18_Node000015_Node000018" class="edge">
<title>Node15&#45;&gt;Node18</title>
<g id="a_edge18_Node000015_Node000018"><a xlink:title=" ">
<path fill="none" stroke="#63b8ff" d="M1174.28,-138.77C1147.16,-123.27 1107.97,-102.06 1072,-87 1064.39,-83.81 1056.2,-80.8 1048.12,-78.06"/>
<polygon fill="#63b8ff" stroke="#63b8ff" points="1172.59,-141.83 1183,-143.79 1176.08,-135.76 1172.59,-141.83"/>
</a>
</g>
</g>
<!-- Node15&#45;&gt;Node19 -->
<g id="edge20_Node000015_Node000019" class="edge">
<title>Node15&#45;&gt;Node19</title>
<g id="a_edge20_Node000015_Node000019"><a xlink:title=" ">
<path fill="none" stroke="#63b8ff" d="M1178.69,-137.83C1158.05,-122.64 1130.38,-101.19 1108,-80 1090.39,-63.33 1092.3,-52.27 1072,-39 1066.82,-35.61 1061.13,-32.68 1055.26,-30.13"/>
<polygon fill="#63b8ff" stroke="#63b8ff" points="1176.64,-140.67 1186.79,-143.73 1180.77,-135.01 1176.64,-140.67"/>
</a>
</g>
</g>
<!-- Node20 -->
<g id="Node000020" class="node">
<title>Node20</title>
<g id="a_Node000020"><a xlink:href="class_chimera_t_k_1_1_variable_mapper.html#ac3686bd70845c1269f59f271e7ffa964" target="_top" xlink:title=" ">
<polygon fill="white" stroke="#666666" points="1072,-174 919,-174 919,-144 1072,-144 1072,-174"/>
<text text-anchor="start" x="927" y="-162" font-family="Helvetica,sans-Serif" font-size="10.00">ChimeraTK::VariableMapper</text>
<text text-anchor="middle" x="995.5" y="-151" font-family="Helvetica,sans-Serif" font-size="10.00">::processNode</text>
</a>
</g>
</g>
<!-- Node15&#45;&gt;Node20 -->
<g id="edge22_Node000015_Node000020" class="edge">
<title>Node15&#45;&gt;Node20</title>
<g id="a_edge22_Node000015_Node000020"><a xlink:title=" ">
<path fill="none" stroke="#63b8ff" d="M1097.67,-159C1089.07,-159 1080.51,-159 1072.22,-159"/>
<polygon fill="#63b8ff" stroke="#63b8ff" points="1097.78,-162.5 1107.78,-159 1097.78,-155.5 1097.78,-162.5"/>
</a>
</g>
</g>
<!-- Node15&#45;&gt;Node21 -->
<g id="edge24_Node000015_Node000021" class="edge">
<title>Node15&#45;&gt;Node21</title>
<g id="a_edge24_Node000015_Node000021"><a xlink:title=" ">
<path fill="none" stroke="#63b8ff" d="M1174.28,-179.23C1147.16,-194.73 1107.97,-215.94 1072,-231 1064.39,-234.19 1056.2,-237.2 1048.12,-239.94"/>
<polygon fill="#63b8ff" stroke="#63b8ff" points="1176.08,-182.24 1183,-174.21 1172.59,-176.17 1176.08,-182.24"/>
</a>
</g>
</g>
<!-- Node15&#45;&gt;Node22 -->
<g id="edge26_Node000015_Node000022" class="edge">
<title>Node15&#45;&gt;Node22</title>
<g id="a_edge26_Node000015_Node000022"><a xlink:title=" ">
<path fill="none" stroke="#63b8ff" d="M1132.08,-176.3C1109.39,-181.44 1084.74,-187.02 1062.76,-192"/>
<polygon fill="#63b8ff" stroke="#63b8ff" points="1133.02,-179.68 1142,-174.06 1131.48,-172.85 1133.02,-179.68"/>
</a>
</g>
</g>
<!-- Node16&#45;&gt;Node17 -->
<g id="edge16_Node000016_Node000017" class="edge">
<title>Node16&#45;&gt;Node17</title>
<g id="a_edge16_Node000016_Node000017"><a xlink:title=" ">
<path fill="none" stroke="#63b8ff" d="M934.96,-129.32C929.54,-131.17 924.15,-133.08 919,-135 892.15,-145.02 862.36,-157.94 840.33,-167.85"/>
<polygon fill="#63b8ff" stroke="#63b8ff" points="936.34,-132.55 944.71,-126.06 934.12,-125.91 936.34,-132.55"/>
</a>
</g>
</g>
<!-- Node17&#45;&gt;Node2 -->
<g id="edge17_Node000017_Node000002" class="edge">
<title>Node17&#45;&gt;Node2</title>
<g id="a_edge17_Node000017_Node000002"><a xlink:title=" ">
<path fill="none" stroke="#63b8ff" d="M751.9,-201.34C723.54,-211.05 689.15,-222.82 662.39,-231.98"/>
<polygon fill="#63b8ff" stroke="#63b8ff" points="753.33,-204.55 761.66,-198.01 751.06,-197.93 753.33,-204.55"/>
</a>
</g>
</g>
<!-- Node18&#45;&gt;Node17 -->
<g id="edge19_Node000018_Node000017" class="edge">
<title>Node18&#45;&gt;Node17</title>
<g id="a_edge19_Node000018_Node000017"><a xlink:title=" ">
<path fill="none" stroke="#63b8ff" d="M928.96,-81.99C925.53,-83.55 922.19,-85.22 919,-87 879.3,-109.17 840.9,-146.92 821.19,-167.87"/>
<polygon fill="#63b8ff" stroke="#63b8ff" points="930.32,-85.21 938.18,-78.1 927.6,-78.76 930.32,-85.21"/>
</a>
</g>
</g>
<!-- Node19&#45;&gt;Node17 -->
<g id="edge21_Node000019_Node000017" class="edge">
<title>Node19&#45;&gt;Node17</title>
<g id="a_edge21_Node000019_Node000017"><a xlink:title=" ">
<path fill="none" stroke="#63b8ff" d="M925.63,-34.81C923.34,-36.12 921.12,-37.52 919,-39 868.72,-74.13 830.61,-138.71 815.1,-167.93"/>
<polygon fill="#63b8ff" stroke="#63b8ff" points="927.43,-37.82 934.74,-30.16 924.25,-31.59 927.43,-37.82"/>
</a>
</g>
</g>
<!-- Node20&#45;&gt;Node17 -->
<g id="edge23_Node000020_Node000017" class="edge">
<title>Node20&#45;&gt;Node17</title>
<g id="a_edge23_Node000020_Node000017"><a xlink:title=" ">
<path fill="none" stroke="#63b8ff" d="M908.98,-169.98C900.42,-171.08 891.76,-172.19 883.3,-173.27"/>
<polygon fill="#63b8ff" stroke="#63b8ff" points="909.51,-173.44 918.98,-168.69 908.61,-166.49 909.51,-173.44"/>
</a>
</g>
</g>
<!-- Node21&#45;&gt;Node17 -->
<g id="edge25_Node000021_Node000017" class="edge">
<title>Node21&#45;&gt;Node17</title>
<g id="a_edge25_Node000021_Node000017"><a xlink:title=" ">
<path fill="none" stroke="#63b8ff" d="M934.96,-236.68C929.54,-234.83 924.15,-232.92 919,-231 892.15,-220.98 862.36,-208.06 840.33,-198.15"/>
<polygon fill="#63b8ff" stroke="#63b8ff" points="934.12,-240.09 944.71,-239.94 936.34,-233.45 934.12,-240.09"/>
</a>
</g>
</g>
<!-- Node22&#45;&gt;Node17 -->
<g id="edge27_Node000022_Node000017" class="edge">
<title>Node22&#45;&gt;Node17</title>
<g id="a_edge27_Node000022_Node000017"><a xlink:title=" ">
<path fill="none" stroke="#63b8ff" d="M908.98,-196.02C900.42,-194.92 891.76,-193.81 883.3,-192.73"/>
<polygon fill="#63b8ff" stroke="#63b8ff" points="908.61,-199.51 918.98,-197.31 909.51,-192.56 908.61,-199.51"/>
</a>
</g>
</g>
</g>
</svg>
