<?xml version="1.0" encoding="UTF-8" standalone="no"?>
<!DOCTYPE svg PUBLIC "-//W3C//DTD SVG 1.1//EN"
 "http://www.w3.org/Graphics/SVG/1.1/DTD/svg11.dtd">
<!-- Generated by graphviz version 2.40.1 (20161225.0304)
 -->
<!-- Title: ChimeraTK::DeviceModule::virtualiseFromCatalog Pages: 1 -->
<!--zoomable 184 -->
<svg id="main" version="1.1" xmlns="http://www.w3.org/2000/svg" xmlns:xlink="http://www.w3.org/1999/xlink" xml:space="preserve" onload="init(evt)">
<style type="text/css"><![CDATA[
.edge:hover path { stroke: red; }
.edge:hover polygon { stroke: red; fill: red; }
]]></style>
<script type="text/javascript"><![CDATA[
var edges = document.getElementsByTagName('g');
if (edges && edges.length) {
  for (var i=0;i<edges.length;i++) {
    if (edges[i].id.substr(0,4)=='edge') {
      edges[i].setAttribute('class','edge');
    }
  }
}
]]></script>
        <defs>
                <circle id="rim" cx="0" cy="0" r="7"/>
                <circle id="rim2" cx="0" cy="0" r="3.5"/>
                <g id="zoomPlus">
                        <use xlink:href="#rim" fill="#404040">
                                <set attributeName="fill" to="#808080" begin="zoomplus.mouseover" end="zoomplus.mouseout"/>
                        </use>
                        <path d="M-4,0h8M0,-4v8" fill="none" stroke="white" stroke-width="1.5" pointer-events="none"/>
                </g>
                <g id="zoomMin">
                        <use xlink:href="#rim" fill="#404040">
                                <set attributeName="fill" to="#808080" begin="zoomminus.mouseover" end="zoomminus.mouseout"/>
                        </use>
                        <path d="M-4,0h8" fill="none" stroke="white" stroke-width="1.5" pointer-events="none"/>
                </g>
                <g id="dirArrow">
                        <path fill="none" stroke="white" stroke-width="1.5" d="M0,-3.0v7 M-2.5,-0.5L0,-3.0L2.5,-0.5"/>
                </g>
               <g id="resetDef">
                       <use xlink:href="#rim2" fill="#404040">
                               <set attributeName="fill" to="#808080" begin="reset.mouseover" end="reset.mouseout"/>
                       </use>
               </g>
        </defs>

<script type="text/javascript">
var viewWidth = 552;
var viewHeight = 184;
var sectionId = 'dynsection-24';
</script>
<script xlink:href="svgpan.js"/>
<svg id="graph" class="graph">
<g id="viewport">
<title>ChimeraTK::DeviceModule::virtualiseFromCatalog</title>
<polygon fill="#ffffff" stroke="transparent" points="-4,4 -4,-180 548,-180 548,4 -4,4"/>
<!-- Node296 -->
<g id="node1" class="node">
<title>Node296</title>
<polygon fill="#bfbfbf" stroke="#000000" points="0,-49.5 0,-79.5 146,-79.5 146,-49.5 0,-49.5"/>
<text text-anchor="start" x="8" y="-67.5" font-family="Helvetica,sans-Serif" font-size="10.00" fill="#000000">ChimeraTK::DeviceModule</text>
<text text-anchor="middle" x="73" y="-56.5" font-family="Helvetica,sans-Serif" font-size="10.00" fill="#000000">::virtualiseFromCatalog</text>
</g>
<!-- Node297 -->
<g id="node2" class="node">
<title>Node297</title>
<g id="a_node2"><a xlink:href="class_chimera_t_k_1_1history_1_1_server_history.html#a33aa8c21f07687aa1588fc4473fa8a69" target="_top" xlink:title="Ad variables of a device to the ServerHistory. ">
<polygon fill="#ffffff" stroke="#000000" points="191.5,-98.5 191.5,-128.5 337.5,-128.5 337.5,-98.5 191.5,-98.5"/>
<text text-anchor="start" x="199.5" y="-116.5" font-family="Helvetica,sans-Serif" font-size="10.00" fill="#000000">ChimeraTK::history</text>
<text text-anchor="middle" x="264.5" y="-105.5" font-family="Helvetica,sans-Serif" font-size="10.00" fill="#000000">::ServerHistory::addSource</text>
</a>
</g>
</g>
<!-- Node296&#45;&gt;Node297 -->
<g id="edge1" class="edge">
<title>Node296&#45;&gt;Node297</title>
<path fill="none" stroke="#191970" d="M141.5875,-82.0498C162.6166,-87.4306 185.5513,-93.299 205.8534,-98.4938"/>
<polygon fill="#191970" stroke="#191970" points="142.3133,-78.6228 131.7577,-79.5346 140.578,-85.4043 142.3133,-78.6228"/>
</g>
<!-- Node300 -->
<g id="node5" class="node">
<title>Node300</title>
<g id="a_node5"><a xlink:href="class_chimera_t_k_1_1_device_module.html#a9f8221a93d4b964e0daf9b00e81b450b" target="_top" xlink:title="Connect the entire module into another module. ">
<polygon fill="#ffffff" stroke="#000000" points="191.5,-49.5 191.5,-79.5 337.5,-79.5 337.5,-49.5 191.5,-49.5"/>
<text text-anchor="start" x="199.5" y="-67.5" font-family="Helvetica,sans-Serif" font-size="10.00" fill="#000000">ChimeraTK::DeviceModule</text>
<text text-anchor="middle" x="264.5" y="-56.5" font-family="Helvetica,sans-Serif" font-size="10.00" fill="#000000">::connectTo</text>
</a>
</g>
</g>
<!-- Node296&#45;&gt;Node300 -->
<g id="edge4" class="edge">
<title>Node296&#45;&gt;Node300</title>
<path fill="none" stroke="#191970" d="M156.3643,-64.5C168.0034,-64.5 179.8908,-64.5 191.323,-64.5"/>
<polygon fill="#191970" stroke="#191970" points="156.2177,-61.0001 146.2176,-64.5 156.2176,-68.0001 156.2177,-61.0001"/>
</g>
<!-- Node303 -->
<g id="node8" class="node">
<title>Node303</title>
<g id="a_node8"><a xlink:href="class_chimera_t_k_1_1_connecting_device_module.html#a5ce43a31e588040cbfbb358efb875f69" target="_top" xlink:title="ChimeraTK::ConnectingDevice\lModule::defineConnections">
<polygon fill="#ffffff" stroke="#000000" points="182,-.5 182,-30.5 347,-30.5 347,-.5 182,-.5"/>
<text text-anchor="start" x="190" y="-18.5" font-family="Helvetica,sans-Serif" font-size="10.00" fill="#000000">ChimeraTK::ConnectingDevice</text>
<text text-anchor="middle" x="264.5" y="-7.5" font-family="Helvetica,sans-Serif" font-size="10.00" fill="#000000">Module::defineConnections</text>
</a>
</g>
</g>
<!-- Node296&#45;&gt;Node303 -->
<g id="edge7" class="edge">
<title>Node296&#45;&gt;Node303</title>
<path fill="none" stroke="#191970" d="M141.5875,-46.9502C162.6166,-41.5694 185.5513,-35.701 205.8534,-30.5062"/>
<polygon fill="#191970" stroke="#191970" points="140.578,-43.5957 131.7577,-49.4654 142.3133,-50.3772 140.578,-43.5957"/>
</g>
<!-- Node298 -->
<g id="node3" class="node">
<title>Node298</title>
<g id="a_node3"><a xlink:href="class_chimera_t_k_1_1history_1_1_server_history.html#a9f56ce4e8b12cc5d1e295892e9bbb7b1" target="_top" xlink:title="Constructor. ">
<polygon fill="#ffffff" stroke="#000000" points="383,-145.5 383,-175.5 544,-175.5 544,-145.5 383,-145.5"/>
<text text-anchor="start" x="391" y="-163.5" font-family="Helvetica,sans-Serif" font-size="10.00" fill="#000000">ChimeraTK::history</text>
<text text-anchor="middle" x="463.5" y="-152.5" font-family="Helvetica,sans-Serif" font-size="10.00" fill="#000000">::ServerHistory::ServerHistory</text>
</a>
</g>
</g>
<!-- Node297&#45;&gt;Node298 -->
<g id="edge2" class="edge">
<title>Node297&#45;&gt;Node298</title>
<path fill="none" stroke="#191970" d="M337.8645,-130.8273C358.2251,-135.6361 380.1572,-140.816 399.9088,-145.481"/>
<polygon fill="#191970" stroke="#191970" points="338.5488,-127.3927 328.012,-128.5003 336.9397,-134.2052 338.5488,-127.3927"/>
</g>
<!-- Node299 -->
<g id="node4" class="node">
<title>Node299</title>
<g id="a_node4"><a xlink:href="class_chimera_t_k_1_1history_1_1_server_history.html#a62d91eb11555643246ed8ea440354421" target="_top" xlink:title="Just gets the device module from the ConnectingDeviceModule before calling the DeviceModule version o...">
<polygon fill="#ffffff" stroke="#000000" points="390.5,-96.5 390.5,-126.5 536.5,-126.5 536.5,-96.5 390.5,-96.5"/>
<text text-anchor="start" x="398.5" y="-114.5" font-family="Helvetica,sans-Serif" font-size="10.00" fill="#000000">ChimeraTK::history</text>
<text text-anchor="middle" x="463.5" y="-103.5" font-family="Helvetica,sans-Serif" font-size="10.00" fill="#000000">::ServerHistory::addSource</text>
</a>
</g>
</g>
<!-- Node297&#45;&gt;Node299 -->
<g id="edge3" class="edge">
<title>Node297&#45;&gt;Node299</title>
<path fill="none" stroke="#191970" d="M347.9293,-112.6615C362.036,-112.5197 376.5853,-112.3735 390.4024,-112.2346"/>
<polygon fill="#191970" stroke="#191970" points="347.7168,-109.1634 337.7525,-112.7638 347.7872,-116.163 347.7168,-109.1634"/>
</g>
<!-- Node301 -->
<g id="node6" class="node">
<title>Node301</title>
<g id="a_node6"><a xlink:href="struct_server.html#ad44a7669c1ed714994987d5fe366f247" target="_top" xlink:title="Define the connections between process variables. ">
<polygon fill="#ffffff" stroke="#000000" points="391.5,-56 391.5,-75 535.5,-75 535.5,-56 391.5,-56"/>
<text text-anchor="middle" x="463.5" y="-63" font-family="Helvetica,sans-Serif" font-size="10.00" fill="#000000">Server::defineConnections</text>
</a>
</g>
</g>
<!-- Node300&#45;&gt;Node301 -->
<g id="edge5" class="edge">
<title>Node300&#45;&gt;Node301</title>
<path fill="none" stroke="#191970" d="M348.1281,-64.9202C362.512,-64.9925 377.3502,-65.0671 391.3982,-65.1377"/>
<polygon fill="#191970" stroke="#191970" points="347.77,-61.4185 337.7525,-64.8681 347.7347,-68.4184 347.77,-61.4185"/>
</g>
<!-- Node302 -->
<g id="node7" class="node">
<title>Node302</title>
<g id="a_node7"><a xlink:href="test_direct_device_to_c_s_8cc.html#a08399741d25e3a09169c4d2aa997dc57" target="_top" xlink:title="BOOST_AUTO_TEST_CASE">
<polygon fill="#ffffff" stroke="#000000" points="392,-18 392,-37 535,-37 535,-18 392,-18"/>
<text text-anchor="middle" x="463.5" y="-25" font-family="Helvetica,sans-Serif" font-size="10.00" fill="#000000">BOOST_AUTO_TEST_CASE</text>
</a>
</g>
</g>
<!-- Node300&#45;&gt;Node302 -->
<g id="edge6" class="edge">
<title>Node300&#45;&gt;Node302</title>
<path fill="none" stroke="#191970" d="M347.7067,-49.0294C369.5711,-44.9642 392.5146,-40.6983 412.1581,-37.046"/>
<polygon fill="#191970" stroke="#191970" points="346.9442,-45.6111 337.7525,-50.8802 348.2238,-52.4932 346.9442,-45.6111"/>
</g>
</g>
</svg>
        <g id="navigator" transform="translate(0 0)" fill="#404254">
                <rect fill="#f2f5e9" fill-opacity="0.5" stroke="#606060" stroke-width=".5" x="0" y="0" width="60" height="60"/>
                <use id="zoomplus" xlink:href="#zoomPlus" x="17" y="9" onmousedown="handleZoom(evt,'in')"/>
                <use id="zoomminus" xlink:href="#zoomMin" x="42" y="9" onmousedown="handleZoom(evt,'out')"/>
                <use id="reset" xlink:href="#resetDef" x="30" y="36" onmousedown="handleReset()"/>
                <g id="arrowUp" xlink:href="#dirArrow" transform="translate(30 24)" onmousedown="handlePan(0,-1)">
                  <use xlink:href="#rim" fill="#404040">
                        <set attributeName="fill" to="#808080" begin="arrowUp.mouseover" end="arrowUp.mouseout"/>
                  </use>
                  <path fill="none" stroke="white" stroke-width="1.5" d="M0,-3.0v7 M-2.5,-0.5L0,-3.0L2.5,-0.5"/>
                </g>
                <g id="arrowRight" xlink:href="#dirArrow" transform="rotate(90) translate(36 -43)" onmousedown="handlePan(1,0)">
                  <use xlink:href="#rim" fill="#404040">
                        <set attributeName="fill" to="#808080" begin="arrowRight.mouseover" end="arrowRight.mouseout"/>
                  </use>
                  <path fill="none" stroke="white" stroke-width="1.5" d="M0,-3.0v7 M-2.5,-0.5L0,-3.0L2.5,-0.5"/>
                </g>
                <g id="arrowDown" xlink:href="#dirArrow" transform="rotate(180) translate(-30 -48)" onmousedown="handlePan(0,1)">
                  <use xlink:href="#rim" fill="#404040">
                        <set attributeName="fill" to="#808080" begin="arrowDown.mouseover" end="arrowDown.mouseout"/>
                  </use>
                  <path fill="none" stroke="white" stroke-width="1.5" d="M0,-3.0v7 M-2.5,-0.5L0,-3.0L2.5,-0.5"/>
                </g>
                <g id="arrowLeft" xlink:href="#dirArrow" transform="rotate(270) translate(-36 17)" onmousedown="handlePan(-1,0)">
                  <use xlink:href="#rim" fill="#404040">
                        <set attributeName="fill" to="#808080" begin="arrowLeft.mouseover" end="arrowLeft.mouseout"/>
                  </use>
                  <path fill="none" stroke="white" stroke-width="1.5" d="M0,-3.0v7 M-2.5,-0.5L0,-3.0L2.5,-0.5"/>
                </g>
        </g>
        <svg viewBox="0 0 15 15" width="100%" height="30px" preserveAspectRatio="xMaxYMin meet">
         <g id="arrow_out" transform="scale(0.3 0.3)">
          <a xlink:href="class_chimera_t_k_1_1_device_module_a984e0e97ec34d3f8f05f1eebb28e3acc_icgraph_org.svg" target="_base">
           <rect id="button" ry="5" rx="5" y="6" x="6" height="38" width="38"
                fill="#f2f5e9" fill-opacity="0.5" stroke="#606060" stroke-width="1.0"/>
           <path id="arrow"
             d="M 11.500037,31.436501 C 11.940474,20.09759 22.043105,11.32322 32.158766,21.979434 L 37.068811,17.246167 C 37.068811,17.246167 37.088388,32 37.088388,32 L 22.160133,31.978069 C 22.160133,31.978069 26.997745,27.140456 26.997745,27.140456 C 18.528582,18.264221 13.291696,25.230495 11.500037,31.436501 z"
             style="fill:#404040;"/>
          </a>
         </g>
        </svg>
</svg>
