<?xml version="1.0" encoding="UTF-8" standalone="no"?>
<!DOCTYPE svg PUBLIC "-//W3C//DTD SVG 1.1//EN"
 "http://www.w3.org/Graphics/SVG/1.1/DTD/svg11.dtd">
<!-- Generated by graphviz version 2.40.1 (20161225.0304)
 -->
<!-- Title: ChimeraTK::VariableNetworkModuleGraphDumpingVisitor::~VariableNetworkModuleGraphDumpingVisitor Pages: 1 -->
<svg width="2082pt" height="756pt"
 viewBox="0.00 0.00 2082.00 756.00" xmlns="http://www.w3.org/2000/svg" xmlns:xlink="http://www.w3.org/1999/xlink">
<g id="graph0" class="graph" transform="scale(1 1) rotate(0) translate(4 752)">
<title>ChimeraTK::VariableNetworkModuleGraphDumpingVisitor::~VariableNetworkModuleGraphDumpingVisitor</title>
<polygon fill="#ffffff" stroke="transparent" points="-4,4 -4,-752 2078,-752 2078,4 -4,4"/>
<!-- Node2 -->
<g id="node1" class="node">
<title>Node2</title>
<polygon fill="#bfbfbf" stroke="#000000" points="0,-662.5 0,-714.5 221,-714.5 221,-662.5 0,-662.5"/>
<text text-anchor="start" x="8" y="-702.5" font-family="Helvetica,sans-Serif" font-size="10.00" fill="#000000">ChimeraTK::VariableNetwork</text>
<text text-anchor="start" x="8" y="-691.5" font-family="Helvetica,sans-Serif" font-size="10.00" fill="#000000">ModuleGraphDumpingVisitor</text>
<text text-anchor="start" x="8" y="-680.5" font-family="Helvetica,sans-Serif" font-size="10.00" fill="#000000">::~VariableNetworkModuleGraphDumping</text>
<text text-anchor="middle" x="110.5" y="-669.5" font-family="Helvetica,sans-Serif" font-size="10.00" fill="#000000">Visitor</text>
</g>
<!-- Node3 -->
<g id="node2" class="node">
<title>Node3</title>
<g id="a_node2"><a xlink:href="class_chimera_t_k_1_1_variable_network_module_graph_dumping_visitor.html#a7280896bd92ebbd3e4d943418498b838" target="_top" xlink:title="ChimeraTK::VariableNetwork\lModuleGraphDumpingVisitor\l::dispatch">
<polygon fill="#ffffff" stroke="#000000" points="257,-668 257,-709 415,-709 415,-668 257,-668"/>
<text text-anchor="start" x="265" y="-697" font-family="Helvetica,sans-Serif" font-size="10.00" fill="#000000">ChimeraTK::VariableNetwork</text>
<text text-anchor="start" x="265" y="-686" font-family="Helvetica,sans-Serif" font-size="10.00" fill="#000000">ModuleGraphDumpingVisitor</text>
<text text-anchor="middle" x="336" y="-675" font-family="Helvetica,sans-Serif" font-size="10.00" fill="#000000">::dispatch</text>
</a>
</g>
</g>
<!-- Node2&#45;&gt;Node3 -->
<g id="edge1" class="edge">
<title>Node2&#45;&gt;Node3</title>
<path fill="none" stroke="#191970" d="M221.2682,-688.5C229.8202,-688.5 238.3875,-688.5 246.7731,-688.5"/>
<polygon fill="#191970" stroke="#191970" points="246.8984,-692.0001 256.8984,-688.5 246.8984,-685.0001 246.8984,-692.0001"/>
</g>
<!-- Node4 -->
<g id="node3" class="node">
<title>Node4</title>
<g id="a_node3"><a xlink:href="class_chimera_t_k_1_1_pushable_stream.html#a916dbc0fd3430135e4fbb2a73c22e52e" target="_top" xlink:title="ChimeraTK::PushableStream\l::stream">
<polygon fill="#ffffff" stroke="#000000" points="452,-717.5 452,-747.5 608,-747.5 608,-717.5 452,-717.5"/>
<text text-anchor="start" x="460" y="-735.5" font-family="Helvetica,sans-Serif" font-size="10.00" fill="#000000">ChimeraTK::PushableStream</text>
<text text-anchor="middle" x="530" y="-724.5" font-family="Helvetica,sans-Serif" font-size="10.00" fill="#000000">::stream</text>
</a>
</g>
</g>
<!-- Node3&#45;&gt;Node4 -->
<g id="edge2" class="edge">
<title>Node3&#45;&gt;Node4</title>
<path fill="none" stroke="#191970" d="M415.187,-706.4599C427.9184,-709.3475 441.0738,-712.3312 453.7347,-715.2027"/>
<polygon fill="#191970" stroke="#191970" points="453.2385,-718.679 463.765,-717.4776 454.7869,-711.8524 453.2385,-718.679"/>
</g>
<!-- Node5 -->
<g id="node4" class="node">
<title>Node5</title>
<g id="a_node4"><a xlink:href="class_chimera_t_k_1_1_entity_owner.html#a9ac0f0454393196b8abb3b2393ca69c5" target="_top" xlink:title="Get the name of the module instance. ">
<polygon fill="#ffffff" stroke="#000000" points="1576,-557.5 1576,-587.5 1713,-587.5 1713,-557.5 1576,-557.5"/>
<text text-anchor="start" x="1584" y="-575.5" font-family="Helvetica,sans-Serif" font-size="10.00" fill="#000000">ChimeraTK::EntityOwner</text>
<text text-anchor="middle" x="1644.5" y="-564.5" font-family="Helvetica,sans-Serif" font-size="10.00" fill="#000000">::getName</text>
</a>
</g>
</g>
<!-- Node3&#45;&gt;Node5 -->
<g id="edge3" class="edge">
<title>Node3&#45;&gt;Node5</title>
<path fill="none" stroke="#191970" d="M415.1731,-688.5C491.5562,-688.5 610.4412,-688.5 713.5,-688.5 713.5,-688.5 713.5,-688.5 1266,-688.5 1385.1285,-688.5 1421.3489,-699.6353 1532,-655.5 1566.7835,-641.6259 1600.5037,-614.3267 1621.8077,-594.8244"/>
<polygon fill="#191970" stroke="#191970" points="1624.4301,-597.1639 1629.341,-587.776 1619.6476,-592.0524 1624.4301,-597.1639"/>
</g>
<!-- Node7 -->
<g id="node6" class="node">
<title>Node7</title>
<g id="a_node6"><a xlink:href="class_chimera_t_k_1_1_entity_owner.html#a01f4d19a8090e46f70e71758f3e5eaf8" target="_top" xlink:title="Obtain the list of submodules associated with this instance and any submodules. ">
<polygon fill="#ffffff" stroke="#000000" points="451,-312.5 451,-342.5 609,-342.5 609,-312.5 451,-312.5"/>
<text text-anchor="start" x="459" y="-330.5" font-family="Helvetica,sans-Serif" font-size="10.00" fill="#000000">ChimeraTK::EntityOwner</text>
<text text-anchor="middle" x="530" y="-319.5" font-family="Helvetica,sans-Serif" font-size="10.00" fill="#000000">::getSubmoduleListRecursive</text>
</a>
</g>
</g>
<!-- Node3&#45;&gt;Node7 -->
<g id="edge5" class="edge">
<title>Node3&#45;&gt;Node7</title>
<path fill="none" stroke="#191970" d="M347.1271,-667.7945C380.7386,-605.2493 481.1172,-418.4623 517.0376,-351.6208"/>
<polygon fill="#191970" stroke="#191970" points="520.2032,-353.1238 521.8539,-342.6584 514.0371,-349.8102 520.2032,-353.1238"/>
</g>
<!-- Node6 -->
<g id="node5" class="node">
<title>Node6</title>
<g id="a_node5"><a xlink:href="class_chimera_t_k_1_1_entity_owner.html#aa3fc963233d251705cd197ced1aa0876" target="_top" xlink:title="Get the fully qualified name of the module instance, i.e. ">
<polygon fill="#ffffff" stroke="#000000" points="1760.5,-538.5 1760.5,-568.5 1897.5,-568.5 1897.5,-538.5 1760.5,-538.5"/>
<text text-anchor="start" x="1768.5" y="-556.5" font-family="Helvetica,sans-Serif" font-size="10.00" fill="#000000">ChimeraTK::EntityOwner</text>
<text text-anchor="middle" x="1829" y="-545.5" font-family="Helvetica,sans-Serif" font-size="10.00" fill="#000000">::getQualifiedName</text>
</a>
</g>
</g>
<!-- Node5&#45;&gt;Node6 -->
<g id="edge4" class="edge">
<title>Node5&#45;&gt;Node6</title>
<path fill="none" stroke="#191970" d="M1713.201,-565.4251C1725.2072,-564.1887 1737.7838,-562.8935 1750.0406,-561.6313"/>
<polygon fill="#191970" stroke="#191970" points="1750.6528,-565.0869 1760.2416,-560.5808 1749.9357,-558.1237 1750.6528,-565.0869"/>
</g>
<!-- Node8 -->
<g id="node7" class="node">
<title>Node8</title>
<g id="a_node7"><a xlink:href="class_chimera_t_k_1_1_entity_owner.html#ad0a0084d1642fdf174613b127f0c54ed" target="_top" xlink:title="Obtain the list of submodules associated with this instance. ">
<polygon fill="#ffffff" stroke="#000000" points="645,-312.5 645,-342.5 782,-342.5 782,-312.5 645,-312.5"/>
<text text-anchor="start" x="653" y="-330.5" font-family="Helvetica,sans-Serif" font-size="10.00" fill="#000000">ChimeraTK::EntityOwner</text>
<text text-anchor="middle" x="713.5" y="-319.5" font-family="Helvetica,sans-Serif" font-size="10.00" fill="#000000">::getSubmoduleList</text>
</a>
</g>
</g>
<!-- Node7&#45;&gt;Node8 -->
<g id="edge6" class="edge">
<title>Node7&#45;&gt;Node8</title>
<path fill="none" stroke="#191970" d="M609.1519,-320.8069C617.6342,-320.7299 626.2628,-320.7311 634.7404,-320.8105"/>
<polygon fill="#191970" stroke="#191970" points="634.9409,-324.3134 644.9864,-320.9462 635.0336,-317.314 634.9409,-324.3134"/>
</g>
<!-- Node8&#45;&gt;Node7 -->
<g id="edge10" class="edge">
<title>Node8&#45;&gt;Node7</title>
<path fill="none" stroke="#191970" d="M644.9864,-334.0538C636.5895,-334.1984 627.9146,-334.2631 619.2691,-334.2478"/>
<polygon fill="#191970" stroke="#191970" points="619.1707,-330.7473 609.1519,-334.1931 619.1328,-337.7472 619.1707,-330.7473"/>
</g>
<!-- Node9 -->
<g id="node8" class="node">
<title>Node9</title>
<g id="a_node8"><a xlink:href="class_chimera_t_k_1_1_entity_owner.html#af3c7e88dc9dc1d10febc624a98cc6a57" target="_top" xlink:title="Obtain the list of accessors/variables associated with this instance and any submodules. ">
<polygon fill="#ffffff" stroke="#000000" points="818,-238.5 818,-268.5 964,-268.5 964,-238.5 818,-238.5"/>
<text text-anchor="start" x="826" y="-256.5" font-family="Helvetica,sans-Serif" font-size="10.00" fill="#000000">ChimeraTK::EntityOwner</text>
<text text-anchor="middle" x="891" y="-245.5" font-family="Helvetica,sans-Serif" font-size="10.00" fill="#000000">::getAccessorListRecursive</text>
</a>
</g>
</g>
<!-- Node8&#45;&gt;Node9 -->
<g id="edge7" class="edge">
<title>Node8&#45;&gt;Node9</title>
<path fill="none" stroke="#191970" d="M730.2147,-312.3133C748.5385,-300.4471 779.2111,-284.812 808.2683,-272.5156"/>
<polygon fill="#191970" stroke="#191970" points="809.7216,-275.7022 817.628,-268.6496 807.0492,-269.2324 809.7216,-275.7022"/>
</g>
<!-- Node11 -->
<g id="node10" class="node">
<title>Node11</title>
<g id="a_node10"><a xlink:href="class_chimera_t_k_1_1_entity_owner.html#a0bcb02caefb83338f3ad8def4c5f0af7" target="_top" xlink:title="Check whether a submodule exists by the given name (not taking into account eliminated hierarchies et...">
<polygon fill="#ffffff" stroke="#000000" points="1576,-139.5 1576,-169.5 1713,-169.5 1713,-139.5 1576,-139.5"/>
<text text-anchor="start" x="1584" y="-157.5" font-family="Helvetica,sans-Serif" font-size="10.00" fill="#000000">ChimeraTK::EntityOwner</text>
<text text-anchor="middle" x="1644.5" y="-146.5" font-family="Helvetica,sans-Serif" font-size="10.00" fill="#000000">::hasSubmodule</text>
</a>
</g>
</g>
<!-- Node8&#45;&gt;Node11 -->
<g id="edge11" class="edge">
<title>Node8&#45;&gt;Node11</title>
<path fill="none" stroke="#191970" d="M721.2431,-312.3729C737.1416,-288.3552 775.5589,-243.4505 818,-219.5 922.7975,-160.3605 958.6671,-147.5 1079,-147.5 1079,-147.5 1079,-147.5 1266,-147.5 1369.6098,-147.5 1489.1711,-146.7413 1565.7318,-148.2612"/>
<polygon fill="#191970" stroke="#191970" points="1565.7048,-151.7614 1575.7787,-148.48 1565.8573,-144.763 1565.7048,-151.7614"/>
</g>
<!-- Node12 -->
<g id="node11" class="node">
<title>Node12</title>
<g id="a_node11"><a xlink:href="class_chimera_t_k_1_1_entity_owner.html#a2906bfcc6c188b9515b67efaad030d7e" target="_top" xlink:title="Get a submodule by the given name (not taking into account eliminated hierarchies etc...">
<polygon fill="#ffffff" stroke="#000000" points="822.5,-512.5 822.5,-542.5 959.5,-542.5 959.5,-512.5 822.5,-512.5"/>
<text text-anchor="start" x="830.5" y="-530.5" font-family="Helvetica,sans-Serif" font-size="10.00" fill="#000000">ChimeraTK::EntityOwner</text>
<text text-anchor="middle" x="891" y="-519.5" font-family="Helvetica,sans-Serif" font-size="10.00" fill="#000000">::getSubmodule</text>
</a>
</g>
</g>
<!-- Node8&#45;&gt;Node12 -->
<g id="edge13" class="edge">
<title>Node8&#45;&gt;Node12</title>
<path fill="none" stroke="#191970" d="M721.2007,-342.7446C735.2851,-374.4013 768.3861,-446.3041 818,-488.5 828.1302,-497.1156 841.0718,-503.5105 853.2369,-508.6206"/>
<polygon fill="#191970" stroke="#191970" points="852.1748,-511.9661 862.7581,-512.4612 854.7935,-505.4744 852.1748,-511.9661"/>
</g>
<!-- Node13 -->
<g id="node12" class="node">
<title>Node13</title>
<g id="a_node12"><a xlink:href="class_chimera_t_k_1_1_entity_owner.html#a10abe5f666483380a4dee7fb8caacd86" target="_top" xlink:title="Return a VirtualModule containing the part of the tree structure matching the given tag...">
<polygon fill="#ffffff" stroke="#000000" points="822.5,-336.5 822.5,-366.5 959.5,-366.5 959.5,-336.5 822.5,-336.5"/>
<text text-anchor="start" x="830.5" y="-354.5" font-family="Helvetica,sans-Serif" font-size="10.00" fill="#000000">ChimeraTK::EntityOwner</text>
<text text-anchor="middle" x="891" y="-343.5" font-family="Helvetica,sans-Serif" font-size="10.00" fill="#000000">::findTag</text>
</a>
</g>
</g>
<!-- Node8&#45;&gt;Node13 -->
<g id="edge16" class="edge">
<title>Node8&#45;&gt;Node13</title>
<path fill="none" stroke="#191970" d="M782.1261,-336.779C792.0036,-338.1146 802.2322,-339.4976 812.2867,-340.8571"/>
<polygon fill="#191970" stroke="#191970" points="811.8849,-344.3345 822.2637,-342.2061 812.8229,-337.3976 811.8849,-344.3345"/>
</g>
<!-- Node33 -->
<g id="node32" class="node">
<title>Node33</title>
<g id="a_node32"><a xlink:href="class_chimera_t_k_1_1_entity_owner.html#a260d2a06bf851b4b685ae498cf5a2237" target="_top" xlink:title="Called inside the constructor of Accessor: adds the accessor to the list. ">
<polygon fill="#ffffff" stroke="#000000" points="1197.5,-591.5 1197.5,-621.5 1334.5,-621.5 1334.5,-591.5 1197.5,-591.5"/>
<text text-anchor="start" x="1205.5" y="-609.5" font-family="Helvetica,sans-Serif" font-size="10.00" fill="#000000">ChimeraTK::EntityOwner</text>
<text text-anchor="middle" x="1266" y="-598.5" font-family="Helvetica,sans-Serif" font-size="10.00" fill="#000000">::registerAccessor</text>
</a>
</g>
</g>
<!-- Node8&#45;&gt;Node33 -->
<g id="edge55" class="edge">
<title>Node8&#45;&gt;Node33</title>
<path fill="none" stroke="#191970" d="M723.9896,-342.6496C741.1196,-366.3632 777.2969,-412.3401 818,-439.5 852.1399,-462.2805 1100.931,-549.5406 1212.325,-588.0517"/>
<polygon fill="#191970" stroke="#191970" points="1211.4311,-591.4458 1222.0258,-591.4023 1213.7164,-584.8293 1211.4311,-591.4458"/>
</g>
<!-- Node35 -->
<g id="node34" class="node">
<title>Node35</title>
<g id="a_node34"><a xlink:href="class_chimera_t_k_1_1_entity_owner.html#af3793d15629cb8b73413a1444008d709" target="_top" xlink:title="Return a VirtualModule containing the part of the tree structure not matching the given tag...">
<polygon fill="#ffffff" stroke="#000000" points="822.5,-287.5 822.5,-317.5 959.5,-317.5 959.5,-287.5 822.5,-287.5"/>
<text text-anchor="start" x="830.5" y="-305.5" font-family="Helvetica,sans-Serif" font-size="10.00" fill="#000000">ChimeraTK::EntityOwner</text>
<text text-anchor="middle" x="891" y="-294.5" font-family="Helvetica,sans-Serif" font-size="10.00" fill="#000000">::excludeTag</text>
</a>
</g>
</g>
<!-- Node8&#45;&gt;Node35 -->
<g id="edge51" class="edge">
<title>Node8&#45;&gt;Node35</title>
<path fill="none" stroke="#191970" d="M782.1261,-317.8343C792.0036,-316.4431 802.2322,-315.0025 812.2867,-313.5864"/>
<polygon fill="#191970" stroke="#191970" points="812.8496,-317.0417 822.2637,-312.1812 811.8733,-310.1101 812.8496,-317.0417"/>
</g>
<!-- Node9&#45;&gt;Node8 -->
<g id="edge9" class="edge">
<title>Node9&#45;&gt;Node8</title>
<path fill="none" stroke="#191970" d="M866.3844,-268.6013C852.0959,-274.135 833.8459,-280.135 818,-286.5 801.619,-293.0799 784.1863,-301.0256 768.3488,-308.2643"/>
<polygon fill="#191970" stroke="#191970" points="766.871,-305.0914 759.2282,-312.4289 769.7786,-311.459 766.871,-305.0914"/>
</g>
<!-- Node10 -->
<g id="node9" class="node">
<title>Node10</title>
<g id="a_node9"><a xlink:href="class_chimera_t_k_1_1_entity_owner.html#ad46327064e76c3cca1cfd32bd6f99412" target="_top" xlink:title="Obtain the list of accessors/variables directly associated with this instance. ">
<polygon fill="#ffffff" stroke="#000000" points="1937,-276.5 1937,-306.5 2074,-306.5 2074,-276.5 1937,-276.5"/>
<text text-anchor="start" x="1945" y="-294.5" font-family="Helvetica,sans-Serif" font-size="10.00" fill="#000000">ChimeraTK::EntityOwner</text>
<text text-anchor="middle" x="2005.5" y="-283.5" font-family="Helvetica,sans-Serif" font-size="10.00" fill="#000000">::getAccessorList</text>
</a>
</g>
</g>
<!-- Node9&#45;&gt;Node10 -->
<g id="edge8" class="edge">
<title>Node9&#45;&gt;Node10</title>
<path fill="none" stroke="#191970" d="M964.0588,-252.8797C1108.6767,-252.0422 1441.6101,-252.0553 1721,-266.5 1790.7175,-270.1045 1869.8046,-277.3062 1926.8665,-283.0581"/>
<polygon fill="#191970" stroke="#191970" points="1926.5971,-286.5486 1936.8997,-284.0773 1927.3047,-279.5845 1926.5971,-286.5486"/>
</g>
<!-- Node11&#45;&gt;Node8 -->
<g id="edge12" class="edge">
<title>Node11&#45;&gt;Node8</title>
<path fill="none" stroke="#191970" d="M1575.7787,-161.6823C1499.9393,-164.6717 1374.2617,-165.5 1266,-165.5 1079,-165.5 1079,-165.5 1079,-165.5 958.6671,-165.5 922.7975,-178.3605 818,-237.5 786.5424,-255.2522 757.2955,-284.5164 737.7904,-305.0151"/>
<polygon fill="#191970" stroke="#191970" points="735.135,-302.7291 730.8076,-312.3999 740.2213,-307.5385 735.135,-302.7291"/>
</g>
<!-- Node12&#45;&gt;Node5 -->
<g id="edge15" class="edge">
<title>Node12&#45;&gt;Node5</title>
<path fill="none" stroke="#191970" d="M923.7052,-542.6109C978.2899,-566.9089 1092.0415,-613.6441 1194,-630.5 1342.2105,-655.0024 1386.0126,-665.9174 1532,-630.5 1561.8424,-623.2601 1592.6275,-606.6411 1614.4335,-593.0403"/>
<polygon fill="#191970" stroke="#191970" points="1616.3683,-595.9575 1622.9093,-587.6229 1612.5985,-590.0593 1616.3683,-595.9575"/>
</g>
<!-- Node12&#45;&gt;Node8 -->
<g id="edge14" class="edge">
<title>Node12&#45;&gt;Node8</title>
<path fill="none" stroke="#191970" d="M825.9766,-512.4834C823.182,-510.6252 820.505,-508.6305 818,-506.5 767.9459,-463.9297 734.699,-391.1231 720.8303,-352.5912"/>
<polygon fill="#191970" stroke="#191970" points="723.9884,-351.0103 717.4347,-342.6857 717.3667,-353.2803 723.9884,-351.0103"/>
</g>
<!-- Node14 -->
<g id="node13" class="node">
<title>Node14</title>
<g id="a_node13"><a xlink:href="class_chimera_t_k_1_1_entity_owner.html#a44d138bbe63552b5b8dd9a128c76fcbe" target="_top" xlink:title="Return the module type of this module, or in case of a VirtualModule the module type this VirtualModu...">
<polygon fill="#ffffff" stroke="#000000" points="1010.5,-287.5 1010.5,-317.5 1147.5,-317.5 1147.5,-287.5 1010.5,-287.5"/>
<text text-anchor="start" x="1018.5" y="-305.5" font-family="Helvetica,sans-Serif" font-size="10.00" fill="#000000">ChimeraTK::EntityOwner</text>
<text text-anchor="middle" x="1079" y="-294.5" font-family="Helvetica,sans-Serif" font-size="10.00" fill="#000000">::getModuleType</text>
</a>
</g>
</g>
<!-- Node13&#45;&gt;Node14 -->
<g id="edge17" class="edge">
<title>Node13&#45;&gt;Node14</title>
<path fill="none" stroke="#191970" d="M948.6838,-336.4654C968.534,-331.2917 990.9374,-325.4525 1011.4987,-320.0934"/>
<polygon fill="#191970" stroke="#191970" points="1012.6313,-323.4152 1021.4252,-317.5062 1010.8658,-316.6415 1012.6313,-323.4152"/>
</g>
<!-- Node15 -->
<g id="node14" class="node">
<title>Node15</title>
<g id="a_node14"><a xlink:href="class_chimera_t_k_1_1_application.html#aa3c1c63e078d14fb104431a15951a070" target="_top" xlink:title="Obtain instance of the application. ">
<polygon fill="#ffffff" stroke="#000000" points="1013.5,-336.5 1013.5,-366.5 1144.5,-366.5 1144.5,-336.5 1013.5,-336.5"/>
<text text-anchor="start" x="1021.5" y="-354.5" font-family="Helvetica,sans-Serif" font-size="10.00" fill="#000000">ChimeraTK::Application</text>
<text text-anchor="middle" x="1079" y="-343.5" font-family="Helvetica,sans-Serif" font-size="10.00" fill="#000000">::getInstance</text>
</a>
</g>
</g>
<!-- Node13&#45;&gt;Node15 -->
<g id="edge18" class="edge">
<title>Node13&#45;&gt;Node15</title>
<path fill="none" stroke="#191970" d="M959.6703,-351.5C973.766,-351.5 988.6829,-351.5 1003.0188,-351.5"/>
<polygon fill="#191970" stroke="#191970" points="1003.3349,-355.0001 1013.3349,-351.5 1003.3349,-348.0001 1003.3349,-355.0001"/>
</g>
<!-- Node16 -->
<g id="node15" class="node">
<title>Node16</title>
<g id="a_node15"><a xlink:href="class_chimera_t_k_1_1_entity_owner.html#abde59a69fac6f2d07b199dfe4ec78b85" target="_top" xlink:title="Add the part of the tree structure matching the given tag to a VirtualModule. ">
<polygon fill="#ffffff" stroke="#000000" points="1000,-424.5 1000,-454.5 1158,-454.5 1158,-424.5 1000,-424.5"/>
<text text-anchor="start" x="1008" y="-442.5" font-family="Helvetica,sans-Serif" font-size="10.00" fill="#000000">ChimeraTK::EntityOwner</text>
<text text-anchor="middle" x="1079" y="-431.5" font-family="Helvetica,sans-Serif" font-size="10.00" fill="#000000">::findTagAndAppendToModule</text>
</a>
</g>
</g>
<!-- Node13&#45;&gt;Node16 -->
<g id="edge19" class="edge">
<title>Node13&#45;&gt;Node16</title>
<path fill="none" stroke="#191970" d="M923.3184,-366.6277C954.8899,-381.4059 1003.0822,-403.964 1037.4788,-420.0646"/>
<polygon fill="#191970" stroke="#191970" points="1036.2486,-423.3531 1046.7894,-424.4227 1039.2163,-417.0133 1036.2486,-423.3531"/>
</g>
<!-- Node16&#45;&gt;Node5 -->
<g id="edge45" class="edge">
<title>Node16&#45;&gt;Node5</title>
<path fill="none" stroke="#191970" d="M1134.6284,-454.6649C1143.0604,-458.5837 1151.2002,-463.4585 1158,-469.5 1183.8578,-492.4743 1165.1168,-519.4683 1194,-538.5 1253.1453,-577.4719 1453.0713,-578.3769 1565.6929,-575.5301"/>
<polygon fill="#191970" stroke="#191970" points="1566.0761,-579.0212 1575.9784,-575.2536 1565.8879,-572.0237 1566.0761,-579.0212"/>
</g>
<!-- Node16&#45;&gt;Node6 -->
<g id="edge46" class="edge">
<title>Node16&#45;&gt;Node6</title>
<path fill="none" stroke="#191970" d="M1100.7491,-454.5046C1123.0556,-469.0342 1159.3034,-490.3165 1194,-500.5 1246.1289,-515.7999 1592.1445,-538.8259 1750.336,-548.7125"/>
<polygon fill="#191970" stroke="#191970" points="1750.2807,-552.2158 1760.4791,-549.3445 1750.7161,-545.2293 1750.2807,-552.2158"/>
</g>
<!-- Node16&#45;&gt;Node8 -->
<g id="edge50" class="edge">
<title>Node16&#45;&gt;Node8</title>
<path fill="none" stroke="#191970" d="M999.9987,-441.4824C946.7398,-440.1973 875.9028,-433.2936 818,-409.5 785.2346,-396.0359 754.1655,-369.2061 734.554,-349.8981"/>
<polygon fill="#191970" stroke="#191970" points="736.899,-347.2922 727.3726,-342.6555 731.9283,-352.2209 736.899,-347.2922"/>
</g>
<!-- Node16&#45;&gt;Node10 -->
<g id="edge47" class="edge">
<title>Node16&#45;&gt;Node10</title>
<path fill="none" stroke="#191970" d="M1136.6866,-454.5258C1250.8872,-481.63 1512.7294,-530.569 1721,-470.5 1828.9038,-439.3786 1935.3509,-353.8925 1981.5537,-313.3649"/>
<polygon fill="#191970" stroke="#191970" points="1984.0529,-315.8267 1989.2117,-306.5727 1979.4079,-310.5898 1984.0529,-315.8267"/>
</g>
<!-- Node17 -->
<g id="node16" class="node">
<title>Node17</title>
<g id="a_node16"><a xlink:href="class_chimera_t_k_1_1_entity_owner.html#a86a370822f4d962d9a4a4634ddd29d27" target="_top" xlink:title="Returns the flag whether this level of hierarchy should be eliminated. ">
<polygon fill="#ffffff" stroke="#000000" points="1197.5,-285.5 1197.5,-315.5 1334.5,-315.5 1334.5,-285.5 1197.5,-285.5"/>
<text text-anchor="start" x="1205.5" y="-303.5" font-family="Helvetica,sans-Serif" font-size="10.00" fill="#000000">ChimeraTK::EntityOwner</text>
<text text-anchor="middle" x="1266" y="-292.5" font-family="Helvetica,sans-Serif" font-size="10.00" fill="#000000">::getEliminateHierarchy</text>
</a>
</g>
</g>
<!-- Node16&#45;&gt;Node17 -->
<g id="edge20" class="edge">
<title>Node16&#45;&gt;Node17</title>
<path fill="none" stroke="#191970" d="M1100.8132,-424.3772C1117.4894,-412.2374 1140.5112,-394.1871 1158,-375.5 1176.9584,-355.2427 1171.7284,-341.0456 1194,-324.5 1196.036,-322.9874 1198.173,-321.5666 1200.3842,-320.2323"/>
<polygon fill="#191970" stroke="#191970" points="1202.0574,-323.3066 1209.2244,-315.5038 1198.7557,-317.1342 1202.0574,-323.3066"/>
</g>
<!-- Node18 -->
<g id="node17" class="node">
<title>Node18</title>
<g id="a_node17"><a xlink:href="class_chimera_t_k_1_1_virtual_module.html#a00cabd2cb202e7dc2a2daba1a5db58bd" target="_top" xlink:title="Return the submodule with the given name. ">
<polygon fill="#ffffff" stroke="#000000" points="1194,-334.5 1194,-364.5 1338,-364.5 1338,-334.5 1194,-334.5"/>
<text text-anchor="start" x="1202" y="-352.5" font-family="Helvetica,sans-Serif" font-size="10.00" fill="#000000">ChimeraTK::VirtualModule</text>
<text text-anchor="middle" x="1266" y="-341.5" font-family="Helvetica,sans-Serif" font-size="10.00" fill="#000000">::createAndGetSubmodule</text>
</a>
</g>
</g>
<!-- Node16&#45;&gt;Node18 -->
<g id="edge21" class="edge">
<title>Node16&#45;&gt;Node18</title>
<path fill="none" stroke="#191970" d="M1110.2996,-424.436C1141.8522,-409.2503 1190.7004,-385.7405 1225.2568,-369.109"/>
<polygon fill="#191970" stroke="#191970" points="1227.1054,-372.1036 1234.5983,-364.6131 1224.0697,-365.7961 1227.1054,-372.1036"/>
</g>
<!-- Node32 -->
<g id="node31" class="node">
<title>Node32</title>
<g id="a_node31"><a xlink:href="class_chimera_t_k_1_1_module.html#acf4cf5c7d86e570d7d92d257666e2fad" target="_top" xlink:title="ChimeraTK::Module::\lgetOwner">
<polygon fill="#ffffff" stroke="#000000" points="1207,-424.5 1207,-454.5 1325,-454.5 1325,-424.5 1207,-424.5"/>
<text text-anchor="start" x="1215" y="-442.5" font-family="Helvetica,sans-Serif" font-size="10.00" fill="#000000">ChimeraTK::Module::</text>
<text text-anchor="middle" x="1266" y="-431.5" font-family="Helvetica,sans-Serif" font-size="10.00" fill="#000000">getOwner</text>
</a>
</g>
</g>
<!-- Node16&#45;&gt;Node32 -->
<g id="edge44" class="edge">
<title>Node16&#45;&gt;Node32</title>
<path fill="none" stroke="#191970" d="M1158.0338,-439.5C1170.8054,-439.5 1183.946,-439.5 1196.4712,-439.5"/>
<polygon fill="#191970" stroke="#191970" points="1196.826,-443.0001 1206.826,-439.5 1196.826,-436.0001 1196.826,-443.0001"/>
</g>
<!-- Node16&#45;&gt;Node33 -->
<g id="edge48" class="edge">
<title>Node16&#45;&gt;Node33</title>
<path fill="none" stroke="#191970" d="M1137.0833,-454.5749C1144.8178,-458.4759 1152.0997,-463.3688 1158,-469.5 1192.7919,-505.6533 1159.7886,-539.797 1194,-576.5 1197.3442,-580.0877 1201.1833,-583.2608 1205.3103,-586.0646"/>
<polygon fill="#191970" stroke="#191970" points="1203.7379,-589.202 1214.1197,-591.3161 1207.3223,-583.1893 1203.7379,-589.202"/>
</g>
<!-- Node19 -->
<g id="node18" class="node">
<title>Node19</title>
<g id="a_node18"><a xlink:href="class_chimera_t_k_1_1_virtual_module.html#a050961da9eb30eac1111fd75587f768e" target="_top" xlink:title="Add a virtual sub&#45;module. ">
<polygon fill="#ffffff" stroke="#000000" points="1381,-364.5 1381,-394.5 1525,-394.5 1525,-364.5 1381,-364.5"/>
<text text-anchor="start" x="1389" y="-382.5" font-family="Helvetica,sans-Serif" font-size="10.00" fill="#000000">ChimeraTK::VirtualModule</text>
<text text-anchor="middle" x="1453" y="-371.5" font-family="Helvetica,sans-Serif" font-size="10.00" fill="#000000">::addSubModule</text>
</a>
</g>
</g>
<!-- Node18&#45;&gt;Node19 -->
<g id="edge22" class="edge">
<title>Node18&#45;&gt;Node19</title>
<path fill="none" stroke="#191970" d="M1338.0316,-361.0559C1348.7448,-362.7746 1359.8555,-364.557 1370.759,-366.3063"/>
<polygon fill="#191970" stroke="#191970" points="1370.2686,-369.7723 1380.6967,-367.9005 1371.3774,-362.8606 1370.2686,-369.7723"/>
</g>
<!-- Node24 -->
<g id="node23" class="node">
<title>Node24</title>
<g id="a_node23"><a xlink:href="class_chimera_t_k_1_1_virtual_module.html#a2d37b8fe9e613c2574af9078a73fd53d" target="_top" xlink:title="Constructor. ">
<polygon fill="#ffffff" stroke="#000000" points="1381,-315.5 1381,-345.5 1525,-345.5 1525,-315.5 1381,-315.5"/>
<text text-anchor="start" x="1389" y="-333.5" font-family="Helvetica,sans-Serif" font-size="10.00" fill="#000000">ChimeraTK::VirtualModule</text>
<text text-anchor="middle" x="1453" y="-322.5" font-family="Helvetica,sans-Serif" font-size="10.00" fill="#000000">::VirtualModule</text>
</a>
</g>
</g>
<!-- Node18&#45;&gt;Node24 -->
<g id="edge35" class="edge">
<title>Node18&#45;&gt;Node24</title>
<path fill="none" stroke="#191970" d="M1338.0316,-342.1813C1348.6355,-341.1039 1359.6288,-339.9869 1370.4251,-338.89"/>
<polygon fill="#191970" stroke="#191970" points="1371.1018,-342.3393 1380.6967,-337.8463 1370.3941,-335.3752 1371.1018,-342.3393"/>
</g>
<!-- Node25 -->
<g id="node24" class="node">
<title>Node25</title>
<g id="a_node24"><a xlink:href="class_chimera_t_k_1_1_entity_owner.html#ad7b95816cec9192c997e0447bcf73d4a" target="_top" xlink:title="Get the description of the module instance. ">
<polygon fill="#ffffff" stroke="#000000" points="1384.5,-194.5 1384.5,-224.5 1521.5,-224.5 1521.5,-194.5 1384.5,-194.5"/>
<text text-anchor="start" x="1392.5" y="-212.5" font-family="Helvetica,sans-Serif" font-size="10.00" fill="#000000">ChimeraTK::EntityOwner</text>
<text text-anchor="middle" x="1453" y="-201.5" font-family="Helvetica,sans-Serif" font-size="10.00" fill="#000000">::getDescription</text>
</a>
</g>
</g>
<!-- Node18&#45;&gt;Node25 -->
<g id="edge36" class="edge">
<title>Node18&#45;&gt;Node25</title>
<path fill="none" stroke="#191970" d="M1318.4314,-334.455C1325.2413,-331.6002 1331.9453,-328.2943 1338,-324.5 1377.7667,-299.5795 1414.3726,-258.5417 1435.1588,-232.8203"/>
<polygon fill="#191970" stroke="#191970" points="1438.1054,-234.7377 1441.5832,-224.7299 1432.6236,-230.3846 1438.1054,-234.7377"/>
</g>
<!-- Node27 -->
<g id="node26" class="node">
<title>Node27</title>
<g id="a_node26"><a xlink:href="class_chimera_t_k_1_1_virtual_module.html#a32325205379c2b52646789b074c71921" target="_top" xlink:title="Return the module type of this module, or in case of a VirtualModule the module type this VirtualModu...">
<polygon fill="#ffffff" stroke="#000000" points="1381,-88.5 1381,-118.5 1525,-118.5 1525,-88.5 1381,-88.5"/>
<text text-anchor="start" x="1389" y="-106.5" font-family="Helvetica,sans-Serif" font-size="10.00" fill="#000000">ChimeraTK::VirtualModule</text>
<text text-anchor="middle" x="1453" y="-95.5" font-family="Helvetica,sans-Serif" font-size="10.00" fill="#000000">::getModuleType</text>
</a>
</g>
</g>
<!-- Node18&#45;&gt;Node27 -->
<g id="edge38" class="edge">
<title>Node18&#45;&gt;Node27</title>
<path fill="none" stroke="#191970" d="M1325.6191,-334.4564C1330.1924,-331.6811 1334.4149,-328.3938 1338,-324.5 1381.5168,-277.236 1342.5078,-240.4986 1374,-184.5 1386.9086,-161.5463 1407.9623,-140.4199 1425.0902,-125.5017"/>
<polygon fill="#191970" stroke="#191970" points="1427.7588,-127.8284 1433.1302,-118.6962 1423.2362,-122.4855 1427.7588,-127.8284"/>
</g>
<!-- Node19&#45;&gt;Node5 -->
<g id="edge24" class="edge">
<title>Node19&#45;&gt;Node5</title>
<path fill="none" stroke="#191970" d="M1468.0267,-394.6444C1501.5874,-428.4679 1582.7785,-510.295 1622.2348,-550.0604"/>
<polygon fill="#191970" stroke="#191970" points="1620.0151,-552.7925 1629.5431,-557.426 1624.9842,-547.8621 1620.0151,-552.7925"/>
</g>
<!-- Node19&#45;&gt;Node8 -->
<g id="edge31" class="edge">
<title>Node19&#45;&gt;Node8</title>
<path fill="none" stroke="#191970" d="M1380.9537,-388.787C1262.0301,-401.9617 1017.9142,-419.8779 818,-375.5 793.0981,-369.9722 767.0231,-358.006 747.1486,-347.4048"/>
<polygon fill="#191970" stroke="#191970" points="748.6534,-344.2384 738.2019,-342.5018 745.2893,-350.3771 748.6534,-344.2384"/>
</g>
<!-- Node19&#45;&gt;Node10 -->
<g id="edge33" class="edge">
<title>Node19&#45;&gt;Node10</title>
<path fill="none" stroke="#191970" d="M1518.2166,-364.4797C1534.4362,-360.9769 1551.814,-357.4209 1568,-354.5 1692.7632,-331.9852 1838.702,-312.2923 1926.5248,-301.156"/>
<polygon fill="#191970" stroke="#191970" points="1927.1956,-304.5991 1936.6783,-299.8738 1926.3185,-297.6543 1927.1956,-304.5991"/>
</g>
<!-- Node19&#45;&gt;Node11 -->
<g id="edge23" class="edge">
<title>Node19&#45;&gt;Node11</title>
<path fill="none" stroke="#191970" d="M1520.075,-364.371C1524.4817,-361.6092 1528.5347,-358.3486 1532,-354.5 1585.4245,-295.1659 1514.5018,-237.7677 1568,-178.5 1568.7695,-177.6476 1569.5688,-176.8251 1570.3952,-176.0317"/>
<polygon fill="#191970" stroke="#191970" points="1572.8087,-178.5857 1578.4923,-169.6444 1568.4733,-173.0899 1572.8087,-178.5857"/>
</g>
<!-- Node19&#45;&gt;Node19 -->
<g id="edge32" class="edge">
<title>Node19&#45;&gt;Node19</title>
<path fill="none" stroke="#191970" d="M1420.5857,-394.659C1412.7694,-404.0566 1423.5742,-413 1453,-413 1470.9313,-413 1481.948,-409.679 1486.05,-404.9579"/>
<polygon fill="#191970" stroke="#191970" points="1489.5238,-404.4244 1485.4143,-394.659 1482.5371,-404.8556 1489.5238,-404.4244"/>
</g>
<!-- Node20 -->
<g id="node19" class="node">
<title>Node20</title>
<g id="a_node19"><a xlink:href="class_chimera_t_k_1_1_entity_owner.html#a9690d4ae29d8a9e05d34feed82533e94" target="_top" xlink:title="Register another module as a sub&#45;module. ">
<polygon fill="#ffffff" stroke="#000000" points="1576,-276.5 1576,-306.5 1713,-306.5 1713,-276.5 1576,-276.5"/>
<text text-anchor="start" x="1584" y="-294.5" font-family="Helvetica,sans-Serif" font-size="10.00" fill="#000000">ChimeraTK::EntityOwner</text>
<text text-anchor="middle" x="1644.5" y="-283.5" font-family="Helvetica,sans-Serif" font-size="10.00" fill="#000000">::registerModule</text>
</a>
</g>
</g>
<!-- Node19&#45;&gt;Node20 -->
<g id="edge25" class="edge">
<title>Node19&#45;&gt;Node20</title>
<path fill="none" stroke="#191970" d="M1510.7925,-364.47C1518.1458,-361.6239 1525.3994,-358.3163 1532,-354.5 1550.7905,-343.6359 1549.5854,-332.9896 1568,-321.5 1574.324,-317.5542 1581.2533,-313.9694 1588.2774,-310.7626"/>
<polygon fill="#191970" stroke="#191970" points="1590.0711,-313.8006 1597.8665,-306.6255 1587.2981,-307.3733 1590.0711,-313.8006"/>
</g>
<!-- Node22 -->
<g id="node21" class="node">
<title>Node22</title>
<g id="a_node21"><a xlink:href="class_chimera_t_k_1_1_module.html#a7956cea755837779d3d50113083be937" target="_top" xlink:title="Convenience function which works similar as the subscript operator []. ">
<polygon fill="#ffffff" stroke="#000000" points="1585.5,-364.5 1585.5,-394.5 1703.5,-394.5 1703.5,-364.5 1585.5,-364.5"/>
<text text-anchor="start" x="1593.5" y="-382.5" font-family="Helvetica,sans-Serif" font-size="10.00" fill="#000000">ChimeraTK::Module::</text>
<text text-anchor="middle" x="1644.5" y="-371.5" font-family="Helvetica,sans-Serif" font-size="10.00" fill="#000000">submodule</text>
</a>
</g>
</g>
<!-- Node19&#45;&gt;Node22 -->
<g id="edge29" class="edge">
<title>Node19&#45;&gt;Node22</title>
<path fill="none" stroke="#191970" d="M1525.1251,-379.5C1541.389,-379.5 1558.623,-379.5 1574.7858,-379.5"/>
<polygon fill="#191970" stroke="#191970" points="1575.2314,-383.0001 1585.2314,-379.5 1575.2314,-376.0001 1575.2314,-383.0001"/>
</g>
<!-- Node23 -->
<g id="node22" class="node">
<title>Node23</title>
<g id="a_node22"><a xlink:href="class_chimera_t_k_1_1_virtual_module.html#a45df12c39c69536c12a2a481d5d99253" target="_top" xlink:title="Add an accessor. ">
<polygon fill="#ffffff" stroke="#000000" points="1572.5,-431.5 1572.5,-461.5 1716.5,-461.5 1716.5,-431.5 1572.5,-431.5"/>
<text text-anchor="start" x="1580.5" y="-449.5" font-family="Helvetica,sans-Serif" font-size="10.00" fill="#000000">ChimeraTK::VirtualModule</text>
<text text-anchor="middle" x="1644.5" y="-438.5" font-family="Helvetica,sans-Serif" font-size="10.00" fill="#000000">::addAccessor</text>
</a>
</g>
</g>
<!-- Node19&#45;&gt;Node23 -->
<g id="edge34" class="edge">
<title>Node19&#45;&gt;Node23</title>
<path fill="none" stroke="#191970" d="M1493.0614,-394.5137C1515.1081,-402.6794 1542.9912,-412.8496 1568,-421.5 1574.3878,-423.7095 1581.0932,-425.9767 1587.7679,-428.2008"/>
<polygon fill="#191970" stroke="#191970" points="1586.8914,-431.5974 1597.4847,-431.4169 1589.091,-424.9519 1586.8914,-431.5974"/>
</g>
<!-- Node21 -->
<g id="node20" class="node">
<title>Node21</title>
<g id="a_node20"><a xlink:href="class_chimera_t_k_1_1_entity_owner.html#aba60e1945471166d25fec22172788b08" target="_top" xlink:title="Add a tag to all Application&#45;type nodes inside this group. ">
<polygon fill="#ffffff" stroke="#000000" points="1760.5,-188.5 1760.5,-218.5 1897.5,-218.5 1897.5,-188.5 1760.5,-188.5"/>
<text text-anchor="start" x="1768.5" y="-206.5" font-family="Helvetica,sans-Serif" font-size="10.00" fill="#000000">ChimeraTK::EntityOwner</text>
<text text-anchor="middle" x="1829" y="-195.5" font-family="Helvetica,sans-Serif" font-size="10.00" fill="#000000">::addTag</text>
</a>
</g>
</g>
<!-- Node20&#45;&gt;Node21 -->
<g id="edge26" class="edge">
<title>Node20&#45;&gt;Node21</title>
<path fill="none" stroke="#191970" d="M1676.2167,-276.3723C1707.2005,-261.5941 1754.4956,-239.036 1788.2518,-222.9354"/>
<polygon fill="#191970" stroke="#191970" points="1789.8699,-226.0415 1797.389,-218.5773 1786.8563,-219.7233 1789.8699,-226.0415"/>
</g>
<!-- Node21&#45;&gt;Node8 -->
<g id="edge28" class="edge">
<title>Node21&#45;&gt;Node8</title>
<path fill="none" stroke="#191970" d="M1821.1197,-188.1626C1805.9883,-160.5434 1769.9738,-103.0393 1721,-78.5 1614.2421,-25.0068 1572.4101,-59.5 1453,-59.5 1079,-59.5 1079,-59.5 1079,-59.5 954.2939,-59.5 914.0956,-83.019 818,-162.5 771.1515,-201.2486 738.6652,-266.6596 723.4043,-302.3765"/>
<polygon fill="#191970" stroke="#191970" points="719.9975,-301.4539 719.3912,-312.0314 726.4614,-304.1406 719.9975,-301.4539"/>
</g>
<!-- Node21&#45;&gt;Node10 -->
<g id="edge27" class="edge">
<title>Node21&#45;&gt;Node10</title>
<path fill="none" stroke="#191970" d="M1867.4672,-218.5953C1878.4137,-223.1415 1890.2735,-228.3087 1901,-233.5 1924.9708,-245.1012 1951.172,-259.648 1971.3422,-271.271"/>
<polygon fill="#191970" stroke="#191970" points="1969.7495,-274.3934 1980.1555,-276.3845 1973.2624,-268.3386 1969.7495,-274.3934"/>
</g>
<!-- Node22&#45;&gt;Node22 -->
<g id="edge30" class="edge">
<title>Node22&#45;&gt;Node22</title>
<path fill="none" stroke="#191970" d="M1612.4342,-394.659C1604.702,-404.0566 1615.3906,-413 1644.5,-413 1662.2385,-413 1673.1367,-409.679 1677.1946,-404.9579"/>
<polygon fill="#191970" stroke="#191970" points="1680.6688,-404.4271 1676.5658,-394.659 1673.6818,-404.8537 1680.6688,-404.4271"/>
</g>
<!-- Node26 -->
<g id="node25" class="node">
<title>Node26</title>
<g id="a_node25"><a xlink:href="class_chimera_t_k_1_1_entity_owner.html#ac9889d98c6076fa8ac966ae5b89ab687" target="_top" xlink:title="Obtain the full description including the full description of the owner. ">
<polygon fill="#ffffff" stroke="#000000" points="1576,-188.5 1576,-218.5 1713,-218.5 1713,-188.5 1576,-188.5"/>
<text text-anchor="start" x="1584" y="-206.5" font-family="Helvetica,sans-Serif" font-size="10.00" fill="#000000">ChimeraTK::EntityOwner</text>
<text text-anchor="middle" x="1644.5" y="-195.5" font-family="Helvetica,sans-Serif" font-size="10.00" fill="#000000">::getFullDescription</text>
</a>
</g>
</g>
<!-- Node25&#45;&gt;Node26 -->
<g id="edge37" class="edge">
<title>Node25&#45;&gt;Node26</title>
<path fill="none" stroke="#191970" d="M1521.595,-207.3508C1535.8957,-206.9027 1551.0773,-206.4271 1565.7128,-205.9685"/>
<polygon fill="#191970" stroke="#191970" points="1565.8548,-209.4659 1575.7403,-205.6544 1565.6356,-202.4693 1565.8548,-209.4659"/>
</g>
<!-- Node28 -->
<g id="node27" class="node">
<title>Node28</title>
<g id="a_node27"><a xlink:href="class_chimera_t_k_1_1_virtual_module.html#abc61ba0a45c257edef5f9a29d5667003" target="_top" xlink:title="Return the virtual version of this module and its sub&#45;modules, i.e. ">
<polygon fill="#ffffff" stroke="#000000" points="1572.5,-88.5 1572.5,-118.5 1716.5,-118.5 1716.5,-88.5 1572.5,-88.5"/>
<text text-anchor="start" x="1580.5" y="-106.5" font-family="Helvetica,sans-Serif" font-size="10.00" fill="#000000">ChimeraTK::VirtualModule</text>
<text text-anchor="middle" x="1644.5" y="-95.5" font-family="Helvetica,sans-Serif" font-size="10.00" fill="#000000">::virtualise</text>
</a>
</g>
</g>
<!-- Node27&#45;&gt;Node28 -->
<g id="edge39" class="edge">
<title>Node27&#45;&gt;Node28</title>
<path fill="none" stroke="#191970" d="M1525.1251,-103.5C1537.2185,-103.5 1549.8482,-103.5 1562.175,-103.5"/>
<polygon fill="#191970" stroke="#191970" points="1562.44,-107.0001 1572.4399,-103.5 1562.4399,-100.0001 1562.44,-107.0001"/>
</g>
<!-- Node29 -->
<g id="node28" class="node">
<title>Node29</title>
<g id="a_node28"><a xlink:href="class_chimera_t_k_1_1_virtual_module.html#aebd71b0d2d77aa279c6879cc16e27c7d" target="_top" xlink:title="ChimeraTK::VirtualModule\l::stripEmptyChildsRecursive">
<polygon fill="#ffffff" stroke="#000000" points="1568,-.5 1568,-30.5 1721,-30.5 1721,-.5 1568,-.5"/>
<text text-anchor="start" x="1576" y="-18.5" font-family="Helvetica,sans-Serif" font-size="10.00" fill="#000000">ChimeraTK::VirtualModule</text>
<text text-anchor="middle" x="1644.5" y="-7.5" font-family="Helvetica,sans-Serif" font-size="10.00" fill="#000000">::stripEmptyChildsRecursive</text>
</a>
</g>
</g>
<!-- Node27&#45;&gt;Node29 -->
<g id="edge40" class="edge">
<title>Node27&#45;&gt;Node29</title>
<path fill="none" stroke="#191970" d="M1485.92,-88.3723C1518.0794,-73.5941 1567.1689,-51.036 1602.2058,-34.9354"/>
<polygon fill="#191970" stroke="#191970" points="1604.0646,-37.9332 1611.6897,-30.5773 1601.1417,-31.5726 1604.0646,-37.9332"/>
</g>
<!-- Node29&#45;&gt;Node8 -->
<g id="edge41" class="edge">
<title>Node29&#45;&gt;Node8</title>
<path fill="none" stroke="#191970" d="M1567.6595,-16.4657C1491.1893,-17.3427 1370.4851,-18.5 1266,-18.5 1079,-18.5 1079,-18.5 1079,-18.5 962.381,-18.5 910.1639,25.955 818,-45.5 775.6782,-78.3123 734.0838,-239.6066 719.2251,-302.4095"/>
<polygon fill="#191970" stroke="#191970" points="715.7868,-301.7423 716.9198,-312.2764 722.6032,-303.335 715.7868,-301.7423"/>
</g>
<!-- Node30 -->
<g id="node29" class="node">
<title>Node30</title>
<g id="a_node29"><a xlink:href="class_chimera_t_k_1_1_virtual_module.html#accf66f988af47798d958b356923054db" target="_top" xlink:title="Remove a virtual sub&#45;module with the given name if it currently exists. ">
<polygon fill="#ffffff" stroke="#000000" points="1757,-.5 1757,-30.5 1901,-30.5 1901,-.5 1757,-.5"/>
<text text-anchor="start" x="1765" y="-18.5" font-family="Helvetica,sans-Serif" font-size="10.00" fill="#000000">ChimeraTK::VirtualModule</text>
<text text-anchor="middle" x="1829" y="-7.5" font-family="Helvetica,sans-Serif" font-size="10.00" fill="#000000">::removeSubModule</text>
</a>
</g>
</g>
<!-- Node29&#45;&gt;Node30 -->
<g id="edge42" class="edge">
<title>Node29&#45;&gt;Node30</title>
<path fill="none" stroke="#191970" d="M1721.1418,-15.5C1729.5178,-15.5 1738.0707,-15.5 1746.5133,-15.5"/>
<polygon fill="#191970" stroke="#191970" points="1746.7374,-19.0001 1756.7374,-15.5 1746.7373,-12.0001 1746.7374,-19.0001"/>
</g>
<!-- Node31 -->
<g id="node30" class="node">
<title>Node31</title>
<g id="a_node30"><a xlink:href="class_chimera_t_k_1_1_entity_owner.html#a4f4a46dfc054d0653e4f1dd1c088bd00" target="_top" xlink:title="Unregister another module as a sub&#45;module. ">
<polygon fill="#ffffff" stroke="#000000" points="1937,-.5 1937,-30.5 2074,-30.5 2074,-.5 1937,-.5"/>
<text text-anchor="start" x="1945" y="-18.5" font-family="Helvetica,sans-Serif" font-size="10.00" fill="#000000">ChimeraTK::EntityOwner</text>
<text text-anchor="middle" x="2005.5" y="-7.5" font-family="Helvetica,sans-Serif" font-size="10.00" fill="#000000">::unregisterModule</text>
</a>
</g>
</g>
<!-- Node30&#45;&gt;Node31 -->
<g id="edge43" class="edge">
<title>Node30&#45;&gt;Node31</title>
<path fill="none" stroke="#191970" d="M1901.0439,-15.5C1909.447,-15.5 1918.0531,-15.5 1926.5432,-15.5"/>
<polygon fill="#191970" stroke="#191970" points="1926.8203,-19.0001 1936.8203,-15.5 1926.8202,-12.0001 1926.8203,-19.0001"/>
</g>
<!-- Node34 -->
<g id="node33" class="node">
<title>Node34</title>
<g id="a_node33"><a xlink:href="class_chimera_t_k_1_1_variable_network_node.html#a4899ab9738a12b99bb1c61d0cf98d265" target="_top" xlink:title="Add a tag. ">
<polygon fill="#ffffff" stroke="#000000" points="1374,-591.5 1374,-621.5 1532,-621.5 1532,-591.5 1374,-591.5"/>
<text text-anchor="start" x="1382" y="-609.5" font-family="Helvetica,sans-Serif" font-size="10.00" fill="#000000">ChimeraTK::VariableNetwork</text>
<text text-anchor="middle" x="1453" y="-598.5" font-family="Helvetica,sans-Serif" font-size="10.00" fill="#000000">Node::addTag</text>
</a>
</g>
</g>
<!-- Node33&#45;&gt;Node34 -->
<g id="edge49" class="edge">
<title>Node33&#45;&gt;Node34</title>
<path fill="none" stroke="#191970" d="M1334.5701,-606.5C1344.0858,-606.5 1353.9732,-606.5 1363.7973,-606.5"/>
<polygon fill="#191970" stroke="#191970" points="1363.9938,-610.0001 1373.9937,-606.5 1363.9937,-603.0001 1363.9938,-610.0001"/>
</g>
<!-- Node35&#45;&gt;Node14 -->
<g id="edge52" class="edge">
<title>Node35&#45;&gt;Node14</title>
<path fill="none" stroke="#191970" d="M959.6703,-302.5C972.7933,-302.5 986.6281,-302.5 1000.0431,-302.5"/>
<polygon fill="#191970" stroke="#191970" points="1000.2012,-306.0001 1010.2012,-302.5 1000.2011,-299.0001 1000.2012,-306.0001"/>
</g>
<!-- Node35&#45;&gt;Node15 -->
<g id="edge53" class="edge">
<title>Node35&#45;&gt;Node15</title>
<path fill="none" stroke="#191970" d="M948.6838,-317.5346C968.534,-322.7083 990.9374,-328.5475 1011.4987,-333.9066"/>
<polygon fill="#191970" stroke="#191970" points="1010.8658,-337.3585 1021.4252,-336.4938 1012.6313,-330.5848 1010.8658,-337.3585"/>
</g>
<!-- Node35&#45;&gt;Node16 -->
<g id="edge54" class="edge">
<title>Node35&#45;&gt;Node16</title>
<path fill="none" stroke="#191970" d="M948.4949,-317.5272C953.9728,-320.0837 959.2479,-323.0541 964,-326.5 985.8771,-342.3639 981.3482,-355.9454 1000,-375.5 1014.9051,-391.1266 1033.6068,-406.4343 1049.0721,-418.1589"/>
<polygon fill="#191970" stroke="#191970" points="1047.1772,-421.1118 1057.2863,-424.2832 1051.3613,-415.4999 1047.1772,-421.1118"/>
</g>
</g>
</svg>
