<?xml version="1.0" encoding="UTF-8" standalone="no"?>
<!DOCTYPE svg PUBLIC "-//W3C//DTD SVG 1.1//EN"
 "http://www.w3.org/Graphics/SVG/1.1/DTD/svg11.dtd">
<!-- Generated by graphviz version 2.40.1 (20161225.0304)
 -->
<!-- Title: ChimeraTK::InversionOfControlAccessor::addTag Pages: 1 -->
<svg width="373pt" height="39pt"
 viewBox="0.00 0.00 373.00 39.00" xmlns="http://www.w3.org/2000/svg" xmlns:xlink="http://www.w3.org/1999/xlink">
<g id="graph0" class="graph" transform="scale(1 1) rotate(0) translate(4 35)">
<title>ChimeraTK::InversionOfControlAccessor::addTag</title>
<polygon fill="#ffffff" stroke="transparent" points="-4,4 -4,-35 369,-35 369,4 -4,4"/>
<!-- Node8 -->
<g id="node1" class="node">
<title>Node8</title>
<polygon fill="#bfbfbf" stroke="#000000" points="0,-.5 0,-30.5 168,-30.5 168,-.5 0,-.5"/>
<text text-anchor="start" x="8" y="-18.5" font-family="Helvetica,sans-Serif" font-size="10.00" fill="#000000">ChimeraTK::InversionOfControl</text>
<text text-anchor="middle" x="84" y="-7.5" font-family="Helvetica,sans-Serif" font-size="10.00" fill="#000000">Accessor::addTag</text>
</g>
<!-- Node9 -->
<g id="node2" class="node">
<title>Node9</title>
<g id="a_node2"><a xlink:href="struct_chimera_t_k_1_1_status_aggregator.html#a12bd1241969741655614c5d741d67e9b" target="_top" xlink:title="Construct StatusAggregator object. ">
<polygon fill="#ffffff" stroke="#000000" points="204,-.5 204,-30.5 365,-30.5 365,-.5 204,-.5"/>
<text text-anchor="start" x="212" y="-18.5" font-family="Helvetica,sans-Serif" font-size="10.00" fill="#000000">ChimeraTK::StatusAggregator</text>
<text text-anchor="middle" x="284.5" y="-7.5" font-family="Helvetica,sans-Serif" font-size="10.00" fill="#000000">::StatusAggregator</text>
</a>
</g>
</g>
<!-- Node8&#45;&gt;Node9 -->
<g id="edge1" class="edge">
<title>Node8&#45;&gt;Node9</title>
<path fill="none" stroke="#191970" d="M178.1622,-15.5C186.7199,-15.5 195.3369,-15.5 203.7627,-15.5"/>
<polygon fill="#191970" stroke="#191970" points="178.1586,-12.0001 168.1586,-15.5 178.1585,-19.0001 178.1586,-12.0001"/>
</g>
</g>
</svg>
