<?xml version="1.0" encoding="UTF-8" standalone="no"?>
<!DOCTYPE svg PUBLIC "-//W3C//DTD SVG 1.1//EN"
 "http://www.w3.org/Graphics/SVG/1.1/DTD/svg11.dtd">
<!-- Generated by graphviz version 2.40.1 (20161225.0304)
 -->
<!-- Title: ChimeraTK::Module::connectTo Pages: 1 -->
<!--zoomable 439 -->
<svg id="main" version="1.1" xmlns="http://www.w3.org/2000/svg" xmlns:xlink="http://www.w3.org/1999/xlink" xml:space="preserve" onload="init(evt)">
<style type="text/css"><![CDATA[
.edge:hover path { stroke: red; }
.edge:hover polygon { stroke: red; fill: red; }
]]></style>
<script type="text/javascript"><![CDATA[
var edges = document.getElementsByTagName('g');
if (edges && edges.length) {
  for (var i=0;i<edges.length;i++) {
    if (edges[i].id.substr(0,4)=='edge') {
      edges[i].setAttribute('class','edge');
    }
  }
}
]]></script>
        <defs>
                <circle id="rim" cx="0" cy="0" r="7"/>
                <circle id="rim2" cx="0" cy="0" r="3.5"/>
                <g id="zoomPlus">
                        <use xlink:href="#rim" fill="#404040">
                                <set attributeName="fill" to="#808080" begin="zoomplus.mouseover" end="zoomplus.mouseout"/>
                        </use>
                        <path d="M-4,0h8M0,-4v8" fill="none" stroke="white" stroke-width="1.5" pointer-events="none"/>
                </g>
                <g id="zoomMin">
                        <use xlink:href="#rim" fill="#404040">
                                <set attributeName="fill" to="#808080" begin="zoomminus.mouseover" end="zoomminus.mouseout"/>
                        </use>
                        <path d="M-4,0h8" fill="none" stroke="white" stroke-width="1.5" pointer-events="none"/>
                </g>
                <g id="dirArrow">
                        <path fill="none" stroke="white" stroke-width="1.5" d="M0,-3.0v7 M-2.5,-0.5L0,-3.0L2.5,-0.5"/>
                </g>
               <g id="resetDef">
                       <use xlink:href="#rim2" fill="#404040">
                               <set attributeName="fill" to="#808080" begin="reset.mouseover" end="reset.mouseout"/>
                       </use>
               </g>
        </defs>

<script type="text/javascript">
var viewWidth = 842;
var viewHeight = 439;
var sectionId = 'dynsection-8';
</script>
<script xlink:href="svgpan.js"/>
<svg id="graph" class="graph">
<g id="viewport">
<title>ChimeraTK::Module::connectTo</title>
<polygon fill="#ffffff" stroke="transparent" points="-4,4 -4,-434.5 838,-434.5 838,4 -4,4"/>
<!-- Node112 -->
<g id="node1" class="node">
<title>Node112</title>
<polygon fill="#bfbfbf" stroke="#000000" points="0,-274.5 0,-304.5 118,-304.5 118,-274.5 0,-274.5"/>
<text text-anchor="start" x="8" y="-292.5" font-family="Helvetica,sans-Serif" font-size="10.00" fill="#000000">ChimeraTK::Module::</text>
<text text-anchor="middle" x="59" y="-281.5" font-family="Helvetica,sans-Serif" font-size="10.00" fill="#000000">connectTo</text>
</g>
<!-- Node113 -->
<g id="node2" class="node">
<title>Node113</title>
<g id="a_node2"><a xlink:href="class_chimera_t_k_1_1_module.html#a9b3536e232d1163debcdca29279191e2" target="_top" xlink:title="ChimeraTK::Module::\ldefineConnections">
<polygon fill="#ffffff" stroke="#000000" points="167,-364.5 167,-394.5 285,-394.5 285,-364.5 167,-364.5"/>
<text text-anchor="start" x="175" y="-382.5" font-family="Helvetica,sans-Serif" font-size="10.00" fill="#000000">ChimeraTK::Module::</text>
<text text-anchor="middle" x="226" y="-371.5" font-family="Helvetica,sans-Serif" font-size="10.00" fill="#000000">defineConnections</text>
</a>
</g>
</g>
<!-- Node112&#45;&gt;Node113 -->
<g id="edge1" class="edge">
<title>Node112&#45;&gt;Node113</title>
<path fill="none" stroke="#191970" d="M96.0792,-309.4828C126.8635,-326.0731 169.9866,-349.3131 197.9568,-364.3869"/>
<polygon fill="#191970" stroke="#191970" points="97.4155,-306.2271 86.952,-304.564 94.0946,-312.3892 97.4155,-306.2271"/>
</g>
<!-- Node115 -->
<g id="node4" class="node">
<title>Node115</title>
<g id="a_node4"><a xlink:href="class_chimera_t_k_1_1_module_impl.html#a7632c8eb1514701bf081a61845451537" target="_top" xlink:title="Connect the entire module into another module. ">
<polygon fill="#ffffff" stroke="#000000" points="159,-274.5 159,-304.5 293,-304.5 293,-274.5 159,-274.5"/>
<text text-anchor="start" x="167" y="-292.5" font-family="Helvetica,sans-Serif" font-size="10.00" fill="#000000">ChimeraTK::ModuleImpl</text>
<text text-anchor="middle" x="226" y="-281.5" font-family="Helvetica,sans-Serif" font-size="10.00" fill="#000000">::connectTo</text>
</a>
</g>
</g>
<!-- Node112&#45;&gt;Node115 -->
<g id="edge3" class="edge">
<title>Node112&#45;&gt;Node115</title>
<path fill="none" stroke="#191970" d="M128.6484,-289.5C138.6512,-289.5 148.9268,-289.5 158.8792,-289.5"/>
<polygon fill="#191970" stroke="#191970" points="128.3482,-286.0001 118.3482,-289.5 128.3481,-293.0001 128.3482,-286.0001"/>
</g>
<!-- Node121 -->
<g id="node10" class="node">
<title>Node121</title>
<g id="a_node10"><a xlink:href="class_chimera_t_k_1_1_virtual_module.html#a2fbf47f6be36e9ebcf8abf3d3f955741" target="_top" xlink:title="Connect the entire module into another module. ">
<polygon fill="#ffffff" stroke="#000000" points="154,-115.5 154,-145.5 298,-145.5 298,-115.5 154,-115.5"/>
<text text-anchor="start" x="162" y="-133.5" font-family="Helvetica,sans-Serif" font-size="10.00" fill="#000000">ChimeraTK::VirtualModule</text>
<text text-anchor="middle" x="226" y="-122.5" font-family="Helvetica,sans-Serif" font-size="10.00" fill="#000000">::connectTo</text>
</a>
</g>
</g>
<!-- Node112&#45;&gt;Node121 -->
<g id="edge9" class="edge">
<title>Node112&#45;&gt;Node121</title>
<path fill="none" stroke="#191970" d="M82.2815,-267.3338C116.6349,-234.626 180.041,-174.2573 209.7904,-145.9331"/>
<polygon fill="#191970" stroke="#191970" points="79.8417,-264.8241 75.0127,-274.2544 84.6685,-269.8938 79.8417,-264.8241"/>
</g>
<!-- Node114 -->
<g id="node3" class="node">
<title>Node114</title>
<g id="a_node3"><a xlink:href="struct_example_app.html#aecb5f2041899e8eea99688077e998a2b" target="_top" xlink:title="ExampleApp::~ExampleApp">
<polygon fill="#ffffff" stroke="#000000" points="334,-411 334,-430 488,-430 488,-411 334,-411"/>
<text text-anchor="middle" x="411" y="-418" font-family="Helvetica,sans-Serif" font-size="10.00" fill="#000000">ExampleApp::~ExampleApp</text>
</a>
</g>
</g>
<!-- Node113&#45;&gt;Node114 -->
<g id="edge2" class="edge">
<title>Node113&#45;&gt;Node114</title>
<path fill="none" stroke="#191970" d="M295.0129,-394.7948C319.5033,-400.2224 346.3459,-406.1713 368.035,-410.978"/>
<polygon fill="#191970" stroke="#191970" points="295.5642,-391.3321 285.0438,-392.5854 294.0496,-398.1663 295.5642,-391.3321"/>
</g>
<!-- Node116 -->
<g id="node5" class="node">
<title>Node116</title>
<g id="a_node5"><a xlink:href="struct_server.html#ad44a7669c1ed714994987d5fe366f247" target="_top" xlink:title="Define the connections between process variables. ">
<polygon fill="#ffffff" stroke="#000000" points="339,-373 339,-392 483,-392 483,-373 339,-373"/>
<text text-anchor="middle" x="411" y="-380" font-family="Helvetica,sans-Serif" font-size="10.00" fill="#000000">Server::defineConnections</text>
</a>
</g>
</g>
<!-- Node115&#45;&gt;Node116 -->
<g id="edge4" class="edge">
<title>Node115&#45;&gt;Node116</title>
<path fill="none" stroke="#191970" d="M251.9548,-311.2643C272.8912,-327.7991 303.7385,-349.9382 334,-363.5 342.4185,-367.2728 351.7047,-370.3722 360.8277,-372.8923"/>
<polygon fill="#191970" stroke="#191970" points="253.8805,-308.3217 243.893,-304.7861 249.4958,-313.7783 253.8805,-308.3217"/>
</g>
<!-- Node117 -->
<g id="node6" class="node">
<title>Node117</title>
<g id="a_node6"><a xlink:href="class_chimera_t_k_1_1_module_impl.html#a6261404cd0905f82b8b5d0696dc642c2" target="_top" xlink:title="Move constructor. ">
<polygon fill="#ffffff" stroke="#000000" points="344,-323.5 344,-353.5 478,-353.5 478,-323.5 344,-323.5"/>
<text text-anchor="start" x="352" y="-341.5" font-family="Helvetica,sans-Serif" font-size="10.00" fill="#000000">ChimeraTK::ModuleImpl</text>
<text text-anchor="middle" x="411" y="-330.5" font-family="Helvetica,sans-Serif" font-size="10.00" fill="#000000">::ModuleImpl</text>
</a>
</g>
</g>
<!-- Node115&#45;&gt;Node117 -->
<g id="edge5" class="edge">
<title>Node115&#45;&gt;Node117</title>
<path fill="none" stroke="#191970" d="M292.5354,-307.1229C312.7752,-312.4837 334.8198,-318.3225 354.344,-323.4938"/>
<polygon fill="#191970" stroke="#191970" points="293.3262,-303.7117 282.7633,-304.5346 291.5339,-310.4784 293.3262,-303.7117"/>
</g>
<!-- Node118 -->
<g id="node7" class="node">
<title>Node118</title>
<g id="a_node7"><a xlink:href="class_chimera_t_k_1_1_device_module.html#a54e3bc866064cb19cbc2c6cab5ee9e51" target="_top" xlink:title="This function connects DeviceError VariableGroup to ContolSystem. ">
<polygon fill="#ffffff" stroke="#000000" points="338,-274.5 338,-304.5 484,-304.5 484,-274.5 338,-274.5"/>
<text text-anchor="start" x="346" y="-292.5" font-family="Helvetica,sans-Serif" font-size="10.00" fill="#000000">ChimeraTK::DeviceModule</text>
<text text-anchor="middle" x="411" y="-281.5" font-family="Helvetica,sans-Serif" font-size="10.00" fill="#000000">::defineConnections</text>
</a>
</g>
</g>
<!-- Node115&#45;&gt;Node118 -->
<g id="edge6" class="edge">
<title>Node115&#45;&gt;Node118</title>
<path fill="none" stroke="#191970" d="M303.083,-289.5C314.6165,-289.5 326.4792,-289.5 337.9262,-289.5"/>
<polygon fill="#191970" stroke="#191970" points="303.0508,-286.0001 293.0508,-289.5 303.0508,-293.0001 303.0508,-286.0001"/>
</g>
<!-- Node119 -->
<g id="node8" class="node">
<title>Node119</title>
<g id="a_node8"><a xlink:href="test_bidirectional_variables_8cc.html#a770cbc1044b9190bbc8583fa9858a27f" target="_top" xlink:title="BOOST_AUTO_TEST_CASE">
<polygon fill="#ffffff" stroke="#000000" points="339.5,-236 339.5,-255 482.5,-255 482.5,-236 339.5,-236"/>
<text text-anchor="middle" x="411" y="-243" font-family="Helvetica,sans-Serif" font-size="10.00" fill="#000000">BOOST_AUTO_TEST_CASE</text>
</a>
</g>
</g>
<!-- Node115&#45;&gt;Node119 -->
<g id="edge7" class="edge">
<title>Node115&#45;&gt;Node119</title>
<path fill="none" stroke="#191970" d="M299.1439,-272.1036C323.6319,-266.2794 350.0148,-260.0046 371.0046,-255.0124"/>
<polygon fill="#191970" stroke="#191970" points="298.0678,-268.7618 289.1491,-274.4808 299.6876,-275.5719 298.0678,-268.7618"/>
</g>
<!-- Node120 -->
<g id="node9" class="node">
<title>Node120</title>
<g id="a_node9"><a xlink:href="test_device_accessors_8cc.html#a452001b4092fde9925d5e61726dcd05b" target="_top" xlink:title="BOOST_AUTO_TEST_CASE\l_TEMPLATE">
<polygon fill="#ffffff" stroke="#000000" points="339.5,-186.5 339.5,-216.5 482.5,-216.5 482.5,-186.5 339.5,-186.5"/>
<text text-anchor="start" x="347.5" y="-204.5" font-family="Helvetica,sans-Serif" font-size="10.00" fill="#000000">BOOST_AUTO_TEST_CASE</text>
<text text-anchor="middle" x="411" y="-193.5" font-family="Helvetica,sans-Serif" font-size="10.00" fill="#000000">_TEMPLATE</text>
</a>
</g>
</g>
<!-- Node115&#45;&gt;Node120 -->
<g id="edge8" class="edge">
<title>Node115&#45;&gt;Node120</title>
<path fill="none" stroke="#191970" d="M257.358,-268.792C278.4187,-255.4972 307.1307,-238.5315 334,-226.5 342.0814,-222.8813 350.8486,-219.5296 359.4745,-216.5327"/>
<polygon fill="#191970" stroke="#191970" points="255.3718,-265.9075 248.828,-274.2399 259.1397,-271.8069 255.3718,-265.9075"/>
</g>
<!-- Node121&#45;&gt;Node120 -->
<g id="edge17" class="edge">
<title>Node121&#45;&gt;Node120</title>
<path fill="none" stroke="#191970" d="M267.347,-149.7462C287.2834,-158.7025 311.6654,-169.1873 334,-177.5 342.2674,-180.5771 351.129,-183.5931 359.7916,-186.3919"/>
<polygon fill="#191970" stroke="#191970" points="268.7886,-146.5569 258.2352,-145.6206 265.9013,-152.9337 268.7886,-146.5569"/>
</g>
<!-- Node122 -->
<g id="node11" class="node">
<title>Node122</title>
<g id="a_node11"><a xlink:href="class_chimera_t_k_1_1_application.html#ab770876d2aa67d7a13d25aa9b4350d22" target="_top" xlink:title="Define the connections between process variables. ">
<polygon fill="#ffffff" stroke="#000000" points="345.5,-137.5 345.5,-167.5 476.5,-167.5 476.5,-137.5 345.5,-137.5"/>
<text text-anchor="start" x="353.5" y="-155.5" font-family="Helvetica,sans-Serif" font-size="10.00" fill="#000000">ChimeraTK::Application</text>
<text text-anchor="middle" x="411" y="-144.5" font-family="Helvetica,sans-Serif" font-size="10.00" fill="#000000">::defineConnections</text>
</a>
</g>
</g>
<!-- Node121&#45;&gt;Node122 -->
<g id="edge10" class="edge">
<title>Node121&#45;&gt;Node122</title>
<path fill="none" stroke="#191970" d="M308.0341,-140.2554C320.5682,-141.746 333.362,-143.2674 345.4789,-144.7083"/>
<polygon fill="#191970" stroke="#191970" points="308.3989,-136.7742 298.0556,-139.0688 307.5723,-143.7252 308.3989,-136.7742"/>
</g>
<!-- Node129 -->
<g id="node18" class="node">
<title>Node129</title>
<g id="a_node18"><a xlink:href="test_device_accessors_8cc.html#ae84dceaf3829df2cacfb84265b52bab7" target="_top" xlink:title="BOOST_AUTO_TEST_CASE">
<polygon fill="#ffffff" stroke="#000000" points="339.5,-99 339.5,-118 482.5,-118 482.5,-99 339.5,-99"/>
<text text-anchor="middle" x="411" y="-106" font-family="Helvetica,sans-Serif" font-size="10.00" fill="#000000">BOOST_AUTO_TEST_CASE</text>
</a>
</g>
</g>
<!-- Node121&#45;&gt;Node129 -->
<g id="edge18" class="edge">
<title>Node121&#45;&gt;Node129</title>
<path fill="none" stroke="#191970" d="M308.0244,-120.7457C318.4987,-119.5002 329.1545,-118.233 339.4452,-117.0092"/>
<polygon fill="#191970" stroke="#191970" points="307.5723,-117.2748 298.0556,-121.9312 308.3989,-124.2258 307.5723,-117.2748"/>
</g>
<!-- Node130 -->
<g id="node19" class="node">
<title>Node130</title>
<g id="a_node19"><a xlink:href="struct_test_application1.html#a4bd749f21c7fd9809cce26a1c0917e9b" target="_top" xlink:title="Define the connections between process variables. ">
<polygon fill="#ffffff" stroke="#000000" points="344.5,-49.5 344.5,-79.5 477.5,-79.5 477.5,-49.5 344.5,-49.5"/>
<text text-anchor="start" x="352.5" y="-67.5" font-family="Helvetica,sans-Serif" font-size="10.00" fill="#000000">TestApplication1::define</text>
<text text-anchor="middle" x="411" y="-56.5" font-family="Helvetica,sans-Serif" font-size="10.00" fill="#000000">Connections</text>
</a>
</g>
</g>
<!-- Node121&#45;&gt;Node130 -->
<g id="edge19" class="edge">
<title>Node121&#45;&gt;Node130</title>
<path fill="none" stroke="#191970" d="M273.8028,-111.7775C292.5045,-104.604 314.1845,-96.4734 334,-89.5 343.4132,-86.1874 353.5278,-82.7892 363.2307,-79.6078"/>
<polygon fill="#191970" stroke="#191970" points="272.3936,-108.5696 264.3202,-115.4303 274.9099,-115.1017 272.3936,-108.5696"/>
</g>
<!-- Node131 -->
<g id="node20" class="node">
<title>Node131</title>
<g id="a_node20"><a xlink:href="struct_dummy_application.html#ad0420e423c4b93768823b4eeaa692e15" target="_top" xlink:title="Define the connections between process variables. ">
<polygon fill="#ffffff" stroke="#000000" points="338,-.5 338,-30.5 484,-30.5 484,-.5 338,-.5"/>
<text text-anchor="start" x="346" y="-18.5" font-family="Helvetica,sans-Serif" font-size="10.00" fill="#000000">DummyApplication::define</text>
<text text-anchor="middle" x="411" y="-7.5" font-family="Helvetica,sans-Serif" font-size="10.00" fill="#000000">Connections</text>
</a>
</g>
</g>
<!-- Node121&#45;&gt;Node131 -->
<g id="edge20" class="edge">
<title>Node121&#45;&gt;Node131</title>
<path fill="none" stroke="#191970" d="M247.1835,-108.1282C267.662,-87.6722 300.4413,-57.8838 334,-39.5 340.1402,-36.1363 346.8192,-33.1711 353.5923,-30.5769"/>
<polygon fill="#191970" stroke="#191970" points="244.4802,-105.8853 239.9612,-115.468 249.4697,-110.7949 244.4802,-105.8853"/>
</g>
<!-- Node123 -->
<g id="node12" class="node">
<title>Node123</title>
<g id="a_node12"><a xlink:href="class_chimera_t_k_1_1_application.html#a697d4a47ece6750203eecbff97039773" target="_top" xlink:title="ChimeraTK::Application\l::initialise">
<polygon fill="#ffffff" stroke="#000000" points="524,-165.5 524,-195.5 655,-195.5 655,-165.5 524,-165.5"/>
<text text-anchor="start" x="532" y="-183.5" font-family="Helvetica,sans-Serif" font-size="10.00" fill="#000000">ChimeraTK::Application</text>
<text text-anchor="middle" x="589.5" y="-172.5" font-family="Helvetica,sans-Serif" font-size="10.00" fill="#000000">::initialise</text>
</a>
</g>
</g>
<!-- Node122&#45;&gt;Node123 -->
<g id="edge11" class="edge">
<title>Node122&#45;&gt;Node123</title>
<path fill="none" stroke="#191970" d="M486.9414,-164.4124C499.248,-166.3428 511.8998,-168.3274 523.9326,-170.2149"/>
<polygon fill="#191970" stroke="#191970" points="487.128,-160.8989 476.7064,-162.8069 486.0431,-167.8144 487.128,-160.8989"/>
</g>
<!-- Node127 -->
<g id="node16" class="node">
<title>Node127</title>
<g id="a_node16"><a xlink:href="class_chimera_t_k_1_1_application.html#a1c9c06d9a92bfb9f42875faf48771e2d" target="_top" xlink:title="Instead of running the application, just initialise it and output the published variables to an XML f...">
<polygon fill="#ffffff" stroke="#000000" points="524,-108.5 524,-138.5 655,-138.5 655,-108.5 524,-108.5"/>
<text text-anchor="start" x="532" y="-126.5" font-family="Helvetica,sans-Serif" font-size="10.00" fill="#000000">ChimeraTK::Application</text>
<text text-anchor="middle" x="589.5" y="-115.5" font-family="Helvetica,sans-Serif" font-size="10.00" fill="#000000">::generateXML</text>
</a>
</g>
</g>
<!-- Node122&#45;&gt;Node127 -->
<g id="edge15" class="edge">
<title>Node122&#45;&gt;Node127</title>
<path fill="none" stroke="#191970" d="M486.9414,-140.1622C499.248,-138.1628 511.8998,-136.1073 523.9326,-134.1524"/>
<polygon fill="#191970" stroke="#191970" points="486.0156,-136.7666 476.7064,-141.825 487.1382,-143.676 486.0156,-136.7666"/>
</g>
<!-- Node124 -->
<g id="node13" class="node">
<title>Node124</title>
<g id="a_node13"><a xlink:href="class_chimera_t_k_1_1_test_facility.html#afc1238aaadcddda96d35a6c64b88326a" target="_top" xlink:title="The constructor will internally obtain the instance of the application, so the instance of the TestFa...">
<polygon fill="#ffffff" stroke="#000000" points="697,-223.5 697,-253.5 828,-253.5 828,-223.5 697,-223.5"/>
<text text-anchor="start" x="705" y="-241.5" font-family="Helvetica,sans-Serif" font-size="10.00" fill="#000000">ChimeraTK::TestFacility</text>
<text text-anchor="middle" x="762.5" y="-230.5" font-family="Helvetica,sans-Serif" font-size="10.00" fill="#000000">::TestFacility</text>
</a>
</g>
</g>
<!-- Node123&#45;&gt;Node124 -->
<g id="edge12" class="edge">
<title>Node123&#45;&gt;Node124</title>
<path fill="none" stroke="#191970" d="M644.0704,-198.7953C667.7876,-206.7467 695.2302,-215.9471 717.7232,-223.4881"/>
<polygon fill="#191970" stroke="#191970" points="645.096,-195.4477 634.5021,-195.5874 642.8709,-202.0847 645.096,-195.4477"/>
</g>
<!-- Node125 -->
<g id="node14" class="node">
<title>Node125</title>
<g id="a_node14"><a xlink:href="test_app_module_connections_8cc.html#a5ce7368e009c920d69740c3053f16a88" target="_top" xlink:title="BOOST_AUTO_TEST_CASE\l_TEMPLATE">
<polygon fill="#ffffff" stroke="#000000" points="691,-174.5 691,-204.5 834,-204.5 834,-174.5 691,-174.5"/>
<text text-anchor="start" x="699" y="-192.5" font-family="Helvetica,sans-Serif" font-size="10.00" fill="#000000">BOOST_AUTO_TEST_CASE</text>
<text text-anchor="middle" x="762.5" y="-181.5" font-family="Helvetica,sans-Serif" font-size="10.00" fill="#000000">_TEMPLATE</text>
</a>
</g>
</g>
<!-- Node123&#45;&gt;Node125 -->
<g id="edge13" class="edge">
<title>Node123&#45;&gt;Node125</title>
<path fill="none" stroke="#191970" d="M665.5259,-184.4551C673.9011,-184.8908 682.4093,-185.3334 690.7302,-185.7663"/>
<polygon fill="#191970" stroke="#191970" points="665.5658,-180.9525 655.3974,-183.9282 665.202,-187.9431 665.5658,-180.9525"/>
</g>
<!-- Node126 -->
<g id="node15" class="node">
<title>Node126</title>
<g id="a_node15"><a xlink:href="test_config_reader_8cc.html#a1ccf0660b8a3b63bada3a4be8e40f839" target="_top" xlink:title="BOOST_AUTO_TEST_CASE">
<polygon fill="#ffffff" stroke="#000000" points="691,-136 691,-155 834,-155 834,-136 691,-136"/>
<text text-anchor="middle" x="762.5" y="-143" font-family="Helvetica,sans-Serif" font-size="10.00" fill="#000000">BOOST_AUTO_TEST_CASE</text>
</a>
</g>
</g>
<!-- Node123&#45;&gt;Node126 -->
<g id="edge14" class="edge">
<title>Node123&#45;&gt;Node126</title>
<path fill="none" stroke="#191970" d="M665.3251,-165.1597C682.3306,-161.7192 699.8951,-158.1657 715.335,-155.042"/>
<polygon fill="#191970" stroke="#191970" points="664.5048,-161.7546 655.3974,-167.1682 665.8929,-168.6156 664.5048,-161.7546"/>
</g>
<!-- Node128 -->
<g id="node17" class="node">
<title>Node128</title>
<g id="a_node17"><a xlink:href="test_application_8cc.html#aad34393c6eebcac19bba852aaeb4e934" target="_top" xlink:title="BOOST_AUTO_TEST_CASE">
<polygon fill="#ffffff" stroke="#000000" points="691,-98 691,-117 834,-117 834,-98 691,-98"/>
<text text-anchor="middle" x="762.5" y="-105" font-family="Helvetica,sans-Serif" font-size="10.00" fill="#000000">BOOST_AUTO_TEST_CASE</text>
</a>
</g>
</g>
<!-- Node127&#45;&gt;Node128 -->
<g id="edge16" class="edge">
<title>Node127&#45;&gt;Node128</title>
<path fill="none" stroke="#191970" d="M665.5259,-116.4687C673.9011,-115.6941 682.4093,-114.9072 690.7302,-114.1377"/>
<polygon fill="#191970" stroke="#191970" points="665.0325,-112.9993 655.3974,-117.4054 665.6773,-119.9696 665.0325,-112.9993"/>
</g>
</g>
</svg>
        <g id="navigator" transform="translate(0 0)" fill="#404254">
                <rect fill="#f2f5e9" fill-opacity="0.5" stroke="#606060" stroke-width=".5" x="0" y="0" width="60" height="60"/>
                <use id="zoomplus" xlink:href="#zoomPlus" x="17" y="9" onmousedown="handleZoom(evt,'in')"/>
                <use id="zoomminus" xlink:href="#zoomMin" x="42" y="9" onmousedown="handleZoom(evt,'out')"/>
                <use id="reset" xlink:href="#resetDef" x="30" y="36" onmousedown="handleReset()"/>
                <g id="arrowUp" xlink:href="#dirArrow" transform="translate(30 24)" onmousedown="handlePan(0,-1)">
                  <use xlink:href="#rim" fill="#404040">
                        <set attributeName="fill" to="#808080" begin="arrowUp.mouseover" end="arrowUp.mouseout"/>
                  </use>
                  <path fill="none" stroke="white" stroke-width="1.5" d="M0,-3.0v7 M-2.5,-0.5L0,-3.0L2.5,-0.5"/>
                </g>
                <g id="arrowRight" xlink:href="#dirArrow" transform="rotate(90) translate(36 -43)" onmousedown="handlePan(1,0)">
                  <use xlink:href="#rim" fill="#404040">
                        <set attributeName="fill" to="#808080" begin="arrowRight.mouseover" end="arrowRight.mouseout"/>
                  </use>
                  <path fill="none" stroke="white" stroke-width="1.5" d="M0,-3.0v7 M-2.5,-0.5L0,-3.0L2.5,-0.5"/>
                </g>
                <g id="arrowDown" xlink:href="#dirArrow" transform="rotate(180) translate(-30 -48)" onmousedown="handlePan(0,1)">
                  <use xlink:href="#rim" fill="#404040">
                        <set attributeName="fill" to="#808080" begin="arrowDown.mouseover" end="arrowDown.mouseout"/>
                  </use>
                  <path fill="none" stroke="white" stroke-width="1.5" d="M0,-3.0v7 M-2.5,-0.5L0,-3.0L2.5,-0.5"/>
                </g>
                <g id="arrowLeft" xlink:href="#dirArrow" transform="rotate(270) translate(-36 17)" onmousedown="handlePan(-1,0)">
                  <use xlink:href="#rim" fill="#404040">
                        <set attributeName="fill" to="#808080" begin="arrowLeft.mouseover" end="arrowLeft.mouseout"/>
                  </use>
                  <path fill="none" stroke="white" stroke-width="1.5" d="M0,-3.0v7 M-2.5,-0.5L0,-3.0L2.5,-0.5"/>
                </g>
        </g>
        <svg viewBox="0 0 15 15" width="100%" height="30px" preserveAspectRatio="xMaxYMin meet">
         <g id="arrow_out" transform="scale(0.3 0.3)">
          <a xlink:href="class_chimera_t_k_1_1_module_a71810be216fbbd436ba3d0d8180c9279_icgraph_org.svg" target="_base">
           <rect id="button" ry="5" rx="5" y="6" x="6" height="38" width="38"
                fill="#f2f5e9" fill-opacity="0.5" stroke="#606060" stroke-width="1.0"/>
           <path id="arrow"
             d="M 11.500037,31.436501 C 11.940474,20.09759 22.043105,11.32322 32.158766,21.979434 L 37.068811,17.246167 C 37.068811,17.246167 37.088388,32 37.088388,32 L 22.160133,31.978069 C 22.160133,31.978069 26.997745,27.140456 26.997745,27.140456 C 18.528582,18.264221 13.291696,25.230495 11.500037,31.436501 z"
             style="fill:#404040;"/>
          </a>
         </g>
        </svg>
</svg>
