<?xml version="1.0" encoding="UTF-8" standalone="no"?>
<!DOCTYPE svg PUBLIC "-//W3C//DTD SVG 1.1//EN"
 "http://www.w3.org/Graphics/SVG/1.1/DTD/svg11.dtd">
<!-- Generated by graphviz version 2.40.1 (20161225.0304)
 -->
<!-- Title: src/ServerMockup.cc Pages: 1 -->
<svg width="537pt" height="218pt"
 viewBox="0.00 0.00 536.50 218.00" xmlns="http://www.w3.org/2000/svg" xmlns:xlink="http://www.w3.org/1999/xlink">
<g id="graph0" class="graph" transform="scale(1 1) rotate(0) translate(4 214)">
<title>src/ServerMockup.cc</title>
<polygon fill="#ffffff" stroke="transparent" points="-4,4 -4,-214 532.5,-214 532.5,4 -4,4"/>
<!-- Node0 -->
<g id="node1" class="node">
<title>Node0</title>
<polygon fill="#bfbfbf" stroke="#000000" points="155.5,-190.5 155.5,-209.5 271.5,-209.5 271.5,-190.5 155.5,-190.5"/>
<text text-anchor="middle" x="213.5" y="-197.5" font-family="Helvetica,sans-Serif" font-size="10.00" fill="#000000">src/ServerMockup.cc</text>
</g>
<!-- Node1 -->
<g id="node2" class="node">
<title>Node1</title>
<g id="a_node2"><a xlink:href="_server_mockup_8h.html" target="_top" xlink:title="ServerMockup.h">
<polygon fill="#ffffff" stroke="#000000" points="118,-134.5 118,-153.5 213,-153.5 213,-134.5 118,-134.5"/>
<text text-anchor="middle" x="165.5" y="-141.5" font-family="Helvetica,sans-Serif" font-size="10.00" fill="#000000">ServerMockup.h</text>
</a>
</g>
</g>
<!-- Node0&#45;&gt;Node1 -->
<g id="edge1" class="edge">
<title>Node0&#45;&gt;Node1</title>
<path fill="none" stroke="#191970" d="M205.139,-190.2455C198.325,-182.2958 188.5319,-170.8706 180.3848,-161.3656"/>
<polygon fill="#191970" stroke="#191970" points="182.9305,-158.9575 173.7651,-153.6427 177.6157,-163.513 182.9305,-158.9575"/>
</g>
<!-- Node8 -->
<g id="node9" class="node">
<title>Node8</title>
<polygon fill="#ffffff" stroke="#bfbfbf" points="231.5,-134.5 231.5,-153.5 293.5,-153.5 293.5,-134.5 231.5,-134.5"/>
<text text-anchor="middle" x="262.5" y="-141.5" font-family="Helvetica,sans-Serif" font-size="10.00" fill="#000000">version.h</text>
</g>
<!-- Node0&#45;&gt;Node8 -->
<g id="edge9" class="edge">
<title>Node0&#45;&gt;Node8</title>
<path fill="none" stroke="#191970" d="M222.0351,-190.2455C228.9912,-182.2958 238.9883,-170.8706 247.3051,-161.3656"/>
<polygon fill="#191970" stroke="#191970" points="250.1116,-163.4732 254.0627,-153.6427 244.8436,-158.8637 250.1116,-163.4732"/>
</g>
<!-- Node2 -->
<g id="node3" class="node">
<title>Node2</title>
<polygon fill="#ffffff" stroke="#bfbfbf" points="0,-.5 0,-30.5 151,-30.5 151,-.5 0,-.5"/>
<text text-anchor="start" x="8" y="-18.5" font-family="Helvetica,sans-Serif" font-size="10.00" fill="#000000">ChimeraTK/ApplicationCore</text>
<text text-anchor="middle" x="75.5" y="-7.5" font-family="Helvetica,sans-Serif" font-size="10.00" fill="#000000">/ApplicationCore.h</text>
</g>
<!-- Node1&#45;&gt;Node2 -->
<g id="edge2" class="edge">
<title>Node1&#45;&gt;Node2</title>
<path fill="none" stroke="#191970" d="M117.8065,-134.9202C80.8214,-126.7958 33.9816,-113.7543 22.5,-98 7.9595,-78.0484 26.9007,-54.2268 46.0561,-37.3223"/>
<polygon fill="#191970" stroke="#191970" points="48.4774,-39.8599 53.8989,-30.7572 43.9842,-34.4923 48.4774,-39.8599"/>
</g>
<!-- Node3 -->
<g id="node4" class="node">
<title>Node3</title>
<polygon fill="#ffffff" stroke="#bfbfbf" points="32,-67.5 32,-97.5 183,-97.5 183,-67.5 32,-67.5"/>
<text text-anchor="start" x="40" y="-85.5" font-family="Helvetica,sans-Serif" font-size="10.00" fill="#000000">ChimeraTK/ApplicationCore</text>
<text text-anchor="middle" x="107.5" y="-74.5" font-family="Helvetica,sans-Serif" font-size="10.00" fill="#000000">/PeriodicTrigger.h</text>
</g>
<!-- Node1&#45;&gt;Node3 -->
<g id="edge3" class="edge">
<title>Node1&#45;&gt;Node3</title>
<path fill="none" stroke="#191970" d="M156.4375,-134.3906C149.024,-126.5298 138.2413,-115.0964 128.683,-104.9612"/>
<polygon fill="#191970" stroke="#191970" points="131.0957,-102.4183 121.6884,-97.5446 126.0032,-107.221 131.0957,-102.4183"/>
</g>
<!-- Node4 -->
<g id="node5" class="node">
<title>Node4</title>
<polygon fill="#ffffff" stroke="#bfbfbf" points="201,-73 201,-92 248,-92 248,-73 201,-73"/>
<text text-anchor="middle" x="224.5" y="-80" font-family="Helvetica,sans-Serif" font-size="10.00" fill="#000000">vector</text>
</g>
<!-- Node1&#45;&gt;Node4 -->
<g id="edge4" class="edge">
<title>Node1&#45;&gt;Node4</title>
<path fill="none" stroke="#191970" d="M174.7188,-134.3906C183.5858,-125.1478 197.1912,-110.966 207.9389,-99.7628"/>
<polygon fill="#191970" stroke="#191970" points="210.7541,-101.8841 215.1513,-92.2449 205.7027,-97.0381 210.7541,-101.8841"/>
</g>
<!-- Node5 -->
<g id="node6" class="node">
<title>Node5</title>
<g id="a_node6"><a xlink:href="_x_m_l_parser_8h.html" target="_top" xlink:title="XMLParser.h">
<polygon fill="#ffffff" stroke="#000000" points="266,-73 266,-92 341,-92 341,-73 266,-73"/>
<text text-anchor="middle" x="303.5" y="-80" font-family="Helvetica,sans-Serif" font-size="10.00" fill="#000000">XMLParser.h</text>
</a>
</g>
</g>
<!-- Node1&#45;&gt;Node5 -->
<g id="edge5" class="edge">
<title>Node1&#45;&gt;Node5</title>
<path fill="none" stroke="#191970" d="M187.0625,-134.3906C210.0512,-124.1457 246.656,-107.8326 272.6824,-96.2339"/>
<polygon fill="#191970" stroke="#191970" points="274.3796,-99.3095 282.0889,-92.0419 271.5302,-92.9156 274.3796,-99.3095"/>
</g>
<!-- Node5&#45;&gt;Node2 -->
<g id="edge8" class="edge">
<title>Node5&#45;&gt;Node2</title>
<path fill="none" stroke="#191970" d="M275.8413,-72.9345C269.8137,-70.9188 263.457,-68.8452 257.5,-67 219.2439,-55.15 176.1311,-42.9021 141.472,-33.325"/>
<polygon fill="#191970" stroke="#191970" points="142.0385,-29.8508 131.4681,-30.5699 140.1798,-36.5995 142.0385,-29.8508"/>
</g>
<!-- Node6 -->
<g id="node7" class="node">
<title>Node6</title>
<polygon fill="#ffffff" stroke="#bfbfbf" points="205,-6 205,-25 328,-25 328,-6 205,-6"/>
<text text-anchor="middle" x="266.5" y="-13" font-family="Helvetica,sans-Serif" font-size="10.00" fill="#000000">libxml++/libxml++.h</text>
</g>
<!-- Node5&#45;&gt;Node6 -->
<g id="edge6" class="edge">
<title>Node5&#45;&gt;Node6</title>
<path fill="none" stroke="#191970" d="M298.1988,-72.9005C292.5938,-62.751 283.6161,-46.4941 276.6435,-33.8679"/>
<polygon fill="#191970" stroke="#191970" points="279.6895,-32.1435 271.7914,-25.0817 273.5618,-35.5275 279.6895,-32.1435"/>
</g>
<!-- Node7 -->
<g id="node8" class="node">
<title>Node7</title>
<polygon fill="#ffffff" stroke="#bfbfbf" points="346.5,-6 346.5,-25 528.5,-25 528.5,-6 346.5,-6"/>
<text text-anchor="middle" x="437.5" y="-13" font-family="Helvetica,sans-Serif" font-size="10.00" fill="#000000">ChimeraTK/SupportedUserTypes.h</text>
</g>
<!-- Node5&#45;&gt;Node7 -->
<g id="edge7" class="edge">
<title>Node5&#45;&gt;Node7</title>
<path fill="none" stroke="#191970" d="M322.6989,-72.9005C345.3862,-61.5569 383.3313,-42.5844 409.3435,-29.5783"/>
<polygon fill="#191970" stroke="#191970" points="410.9577,-32.6843 418.3367,-25.0817 407.8271,-26.4234 410.9577,-32.6843"/>
</g>
</g>
</svg>
