<?xml version="1.0" encoding="UTF-8" standalone="no"?>
<!DOCTYPE svg PUBLIC "-//W3C//DTD SVG 1.1//EN"
 "http://www.w3.org/Graphics/SVG/1.1/DTD/svg11.dtd">
<!-- Generated by graphviz version 2.40.1 (20161225.0304)
 -->
<!-- Title: ChimeraTK::DummyBackend::setException Pages: 1 -->
<svg width="1214pt" height="88pt"
 viewBox="0.00 0.00 1214.00 88.00" xmlns="http://www.w3.org/2000/svg" xmlns:xlink="http://www.w3.org/1999/xlink">
<g id="graph0" class="graph" transform="scale(1 1) rotate(0) translate(4 84)">
<title>ChimeraTK::DummyBackend::setException</title>
<polygon fill="#ffffff" stroke="transparent" points="-4,4 -4,-84 1210,-84 1210,4 -4,4"/>
<!-- Node125 -->
<g id="node1" class="node">
<title>Node125</title>
<polygon fill="#bfbfbf" stroke="#000000" points="0,-24.5 0,-54.5 158,-54.5 158,-24.5 0,-24.5"/>
<text text-anchor="start" x="8" y="-42.5" font-family="Helvetica,sans-Serif" font-size="10.00" fill="#000000">ChimeraTK::DummyBackend</text>
<text text-anchor="middle" x="79" y="-31.5" font-family="Helvetica,sans-Serif" font-size="10.00" fill="#000000">::setException</text>
</g>
<!-- Node126 -->
<g id="node2" class="node">
<title>Node126</title>
<g id="a_node2"><a xlink:href="class_chimera_t_k_1_1_exception_dummy.html#a58c3f67cedde1d1ce738943d48065606" target="_top" xlink:title="Set the backend into an exception state. ">
<polygon fill="#ffffff" stroke="#000000" points="194,-24.5 194,-54.5 358,-54.5 358,-24.5 194,-24.5"/>
<text text-anchor="start" x="202" y="-42.5" font-family="Helvetica,sans-Serif" font-size="10.00" fill="#000000">ChimeraTK::ExceptionDummy</text>
<text text-anchor="middle" x="276" y="-31.5" font-family="Helvetica,sans-Serif" font-size="10.00" fill="#000000">::setException</text>
</a>
</g>
</g>
<!-- Node125&#45;&gt;Node126 -->
<g id="edge1" class="edge">
<title>Node125&#45;&gt;Node126</title>
<path fill="none" stroke="#191970" d="M168.553,-39.5C177.0286,-39.5 185.5933,-39.5 193.9932,-39.5"/>
<polygon fill="#191970" stroke="#191970" points="168.2759,-36.0001 158.2759,-39.5 168.2759,-43.0001 168.2759,-36.0001"/>
</g>
<!-- Node127 -->
<g id="node3" class="node">
<title>Node127</title>
<g id="a_node3"><a xlink:href="class_chimera_t_k_1_1_exception_dummy.html#a57b4caf50ca9534e518129f4ae1668cc" target="_top" xlink:title="This closes the device, clears all internal registers, read&#45;only settings and callback functions...">
<polygon fill="#ffffff" stroke="#000000" points="394,-49.5 394,-79.5 558,-79.5 558,-49.5 394,-49.5"/>
<text text-anchor="start" x="402" y="-67.5" font-family="Helvetica,sans-Serif" font-size="10.00" fill="#000000">ChimeraTK::ExceptionDummy</text>
<text text-anchor="middle" x="476" y="-56.5" font-family="Helvetica,sans-Serif" font-size="10.00" fill="#000000">::close</text>
</a>
</g>
</g>
<!-- Node126&#45;&gt;Node127 -->
<g id="edge2" class="edge">
<title>Node126&#45;&gt;Node127</title>
<path fill="none" stroke="#191970" d="M368.1874,-51.0234C376.7264,-52.0908 385.3418,-53.1677 393.7826,-54.2228"/>
<polygon fill="#191970" stroke="#191970" points="368.5704,-47.5441 358.2135,-49.7767 367.7021,-54.4901 368.5704,-47.5441"/>
</g>
<!-- Node128 -->
<g id="node4" class="node">
<title>Node128</title>
<g id="a_node4"><a xlink:href="class_chimera_t_k_1_1_exception_dummy.html#a3b9d8307fb2ba845e1ac817952ad70a0" target="_top" xlink:title="Specific override which allows to create push&#45;type accessors. ">
<polygon fill="#ffffff" stroke="#000000" points="394,-.5 394,-30.5 558,-30.5 558,-.5 394,-.5"/>
<text text-anchor="start" x="402" y="-18.5" font-family="Helvetica,sans-Serif" font-size="10.00" fill="#000000">ChimeraTK::ExceptionDummy</text>
<text text-anchor="middle" x="476" y="-7.5" font-family="Helvetica,sans-Serif" font-size="10.00" fill="#000000">::getRegisterAccessor_impl</text>
</a>
</g>
</g>
<!-- Node126&#45;&gt;Node128 -->
<g id="edge3" class="edge">
<title>Node126&#45;&gt;Node128</title>
<path fill="none" stroke="#191970" d="M368.1874,-28.4375C376.7264,-27.4128 385.3418,-26.379 393.7826,-25.3661"/>
<polygon fill="#191970" stroke="#191970" points="367.7252,-24.9678 358.2135,-29.6344 368.5593,-31.9179 367.7252,-24.9678"/>
</g>
<!-- Node129 -->
<g id="node5" class="node">
<title>Node129</title>
<g id="a_node5"><a xlink:href="class_chimera_t_k_1_1_exception_dummy.html#af9d7b6889e101ce97fd4321a2e380e3e" target="_top" xlink:title="ChimeraTK::ExceptionDummy\l::ExceptionDummy">
<polygon fill="#ffffff" stroke="#000000" points="594,-.5 594,-30.5 758,-30.5 758,-.5 594,-.5"/>
<text text-anchor="start" x="602" y="-18.5" font-family="Helvetica,sans-Serif" font-size="10.00" fill="#000000">ChimeraTK::ExceptionDummy</text>
<text text-anchor="middle" x="676" y="-7.5" font-family="Helvetica,sans-Serif" font-size="10.00" fill="#000000">::ExceptionDummy</text>
</a>
</g>
</g>
<!-- Node128&#45;&gt;Node129 -->
<g id="edge4" class="edge">
<title>Node128&#45;&gt;Node129</title>
<path fill="none" stroke="#191970" d="M568.4658,-15.5C576.9136,-15.5 585.4335,-15.5 593.7826,-15.5"/>
<polygon fill="#191970" stroke="#191970" points="568.2135,-12.0001 558.2135,-15.5 568.2134,-19.0001 568.2135,-12.0001"/>
</g>
<!-- Node130 -->
<g id="node6" class="node">
<title>Node130</title>
<g id="a_node6"><a xlink:href="class_chimera_t_k_1_1_exception_dummy.html#aa3e76d50d879e81ff5fbb0539b519658" target="_top" xlink:title="ChimeraTK::ExceptionDummy\l::createInstance">
<polygon fill="#ffffff" stroke="#000000" points="794,-.5 794,-30.5 958,-30.5 958,-.5 794,-.5"/>
<text text-anchor="start" x="802" y="-18.5" font-family="Helvetica,sans-Serif" font-size="10.00" fill="#000000">ChimeraTK::ExceptionDummy</text>
<text text-anchor="middle" x="876" y="-7.5" font-family="Helvetica,sans-Serif" font-size="10.00" fill="#000000">::createInstance</text>
</a>
</g>
</g>
<!-- Node129&#45;&gt;Node130 -->
<g id="edge5" class="edge">
<title>Node129&#45;&gt;Node130</title>
<path fill="none" stroke="#191970" d="M768.4658,-15.5C776.9136,-15.5 785.4335,-15.5 793.7826,-15.5"/>
<polygon fill="#191970" stroke="#191970" points="768.2135,-12.0001 758.2135,-15.5 768.2134,-19.0001 768.2135,-12.0001"/>
</g>
<!-- Node131 -->
<g id="node7" class="node">
<title>Node131</title>
<g id="a_node7"><a xlink:href="class_chimera_t_k_1_1_exception_dummy_1_1_backend_registerer.html#a976225cf2e58e87d10b277e52fd32a03" target="_top" xlink:title="ChimeraTK::ExceptionDummy\l::BackendRegisterer::BackendRegisterer">
<polygon fill="#ffffff" stroke="#000000" points="994,-.5 994,-30.5 1206,-30.5 1206,-.5 994,-.5"/>
<text text-anchor="start" x="1002" y="-18.5" font-family="Helvetica,sans-Serif" font-size="10.00" fill="#000000">ChimeraTK::ExceptionDummy</text>
<text text-anchor="middle" x="1100" y="-7.5" font-family="Helvetica,sans-Serif" font-size="10.00" fill="#000000">::BackendRegisterer::BackendRegisterer</text>
</a>
</g>
</g>
<!-- Node130&#45;&gt;Node131 -->
<g id="edge6" class="edge">
<title>Node130&#45;&gt;Node131</title>
<path fill="none" stroke="#191970" d="M968.3099,-15.5C976.7226,-15.5 985.2883,-15.5 993.8091,-15.5"/>
<polygon fill="#191970" stroke="#191970" points="968.1374,-12.0001 958.1374,-15.5 968.1374,-19.0001 968.1374,-12.0001"/>
</g>
</g>
</svg>
