<?xml version="1.0" encoding="UTF-8" standalone="no"?>
<!DOCTYPE svg PUBLIC "-//W3C//DTD SVG 1.1//EN"
 "http://www.w3.org/Graphics/SVG/1.1/DTD/svg11.dtd">
<!-- Generated by graphviz version 2.40.1 (20161225.0304)
 -->
<!-- Title: tests/RebotDummyServer/main.cpp Pages: 1 -->
<svg width="621pt" height="207pt"
 viewBox="0.00 0.00 620.50 207.00" xmlns="http://www.w3.org/2000/svg" xmlns:xlink="http://www.w3.org/1999/xlink">
<g id="graph0" class="graph" transform="scale(1 1) rotate(0) translate(4 203)">
<title>tests/RebotDummyServer/main.cpp</title>
<polygon fill="#ffffff" stroke="transparent" points="-4,4 -4,-203 616.5,-203 616.5,4 -4,4"/>
<!-- Node0 -->
<g id="node1" class="node">
<title>Node0</title>
<polygon fill="#bfbfbf" stroke="#000000" points="339.5,-168.5 339.5,-198.5 481.5,-198.5 481.5,-168.5 339.5,-168.5"/>
<text text-anchor="start" x="347.5" y="-186.5" font-family="Helvetica,sans-Serif" font-size="10.00" fill="#000000">tests/RebotDummyServer</text>
<text text-anchor="middle" x="410.5" y="-175.5" font-family="Helvetica,sans-Serif" font-size="10.00" fill="#000000">/main.cpp</text>
</g>
<!-- Node1 -->
<g id="node2" class="node">
<title>Node1</title>
<polygon fill="#ffffff" stroke="#bfbfbf" points="270.5,-112.5 270.5,-131.5 330.5,-131.5 330.5,-112.5 270.5,-112.5"/>
<text text-anchor="middle" x="300.5" y="-119.5" font-family="Helvetica,sans-Serif" font-size="10.00" fill="#000000">iostream</text>
</g>
<!-- Node0&#45;&gt;Node1 -->
<g id="edge1" class="edge">
<title>Node0&#45;&gt;Node1</title>
<path fill="none" stroke="#191970" d="M383.591,-168.4554C366.2032,-158.734 343.6951,-146.15 326.4916,-136.5317"/>
<polygon fill="#191970" stroke="#191970" points="327.9826,-133.3554 317.5461,-131.5303 324.5665,-139.4653 327.9826,-133.3554"/>
</g>
<!-- Node2 -->
<g id="node3" class="node">
<title>Node2</title>
<g id="a_node3"><a xlink:href="_rebot_dummy_server_8h.html" target="_top" xlink:title="RebotDummyServer.h">
<polygon fill="#ffffff" stroke="#000000" points="349,-112.5 349,-131.5 472,-131.5 472,-112.5 349,-112.5"/>
<text text-anchor="middle" x="410.5" y="-119.5" font-family="Helvetica,sans-Serif" font-size="10.00" fill="#000000">RebotDummyServer.h</text>
</a>
</g>
</g>
<!-- Node0&#45;&gt;Node2 -->
<g id="edge2" class="edge">
<title>Node0&#45;&gt;Node2</title>
<path fill="none" stroke="#191970" d="M410.5,-168.2977C410.5,-160.3834 410.5,-150.6043 410.5,-142.0759"/>
<polygon fill="#191970" stroke="#191970" points="414.0001,-141.8469 410.5,-131.8469 407.0001,-141.847 414.0001,-141.8469"/>
</g>
<!-- Node11 -->
<g id="node12" class="node">
<title>Node11</title>
<g id="a_node12"><a xlink:href="argument_parser_8h.html" target="_top" xlink:title="argumentParser.h">
<polygon fill="#ffffff" stroke="#000000" points="510.5,-112.5 510.5,-131.5 612.5,-131.5 612.5,-112.5 510.5,-112.5"/>
<text text-anchor="middle" x="561.5" y="-119.5" font-family="Helvetica,sans-Serif" font-size="10.00" fill="#000000">argumentParser.h</text>
</a>
</g>
</g>
<!-- Node0&#45;&gt;Node11 -->
<g id="edge11" class="edge">
<title>Node0&#45;&gt;Node11</title>
<path fill="none" stroke="#191970" d="M447.4388,-168.4554C472.302,-158.329 504.7918,-145.0964 528.7336,-135.3453"/>
<polygon fill="#191970" stroke="#191970" points="530.1593,-138.5438 538.1004,-131.5303 527.5188,-132.0609 530.1593,-138.5438"/>
</g>
<!-- Node3 -->
<g id="node4" class="node">
<title>Node3</title>
<polygon fill="#ffffff" stroke="#bfbfbf" points="0,-56.5 0,-75.5 107,-75.5 107,-56.5 0,-56.5"/>
<text text-anchor="middle" x="53.5" y="-63.5" font-family="Helvetica,sans-Serif" font-size="10.00" fill="#000000">DummyBackend.h</text>
</g>
<!-- Node2&#45;&gt;Node3 -->
<g id="edge3" class="edge">
<title>Node2&#45;&gt;Node3</title>
<path fill="none" stroke="#191970" d="M348.8993,-112.4904C291.4245,-103.5958 202.9931,-89.8552 117.1744,-76.2604"/>
<polygon fill="#191970" stroke="#191970" points="117.6905,-72.7986 107.2657,-74.6895 116.5943,-79.7122 117.6905,-72.7986"/>
</g>
<!-- Node4 -->
<g id="node5" class="node">
<title>Node4</title>
<g id="a_node5"><a xlink:href="_dummy_protocol_implementor_8h.html" target="_top" xlink:title="DummyProtocolImplementor.h">
<polygon fill="#ffffff" stroke="#000000" points="125,-56.5 125,-75.5 292,-75.5 292,-56.5 125,-56.5"/>
<text text-anchor="middle" x="208.5" y="-63.5" font-family="Helvetica,sans-Serif" font-size="10.00" fill="#000000">DummyProtocolImplementor.h</text>
</a>
</g>
</g>
<!-- Node2&#45;&gt;Node4 -->
<g id="edge4" class="edge">
<title>Node2&#45;&gt;Node4</title>
<path fill="none" stroke="#191970" d="M375.775,-112.3733C341.7492,-102.9404 289.7563,-88.5265 252.7766,-78.2747"/>
<polygon fill="#191970" stroke="#191970" points="253.3435,-74.7999 242.7719,-75.5011 251.4734,-81.5455 253.3435,-74.7999"/>
</g>
<!-- Node7 -->
<g id="node8" class="node">
<title>Node7</title>
<polygon fill="#ffffff" stroke="#bfbfbf" points="309.5,-56.5 309.5,-75.5 367.5,-75.5 367.5,-56.5 309.5,-56.5"/>
<text text-anchor="middle" x="338.5" y="-63.5" font-family="Helvetica,sans-Serif" font-size="10.00" fill="#000000">memory</text>
</g>
<!-- Node2&#45;&gt;Node7 -->
<g id="edge7" class="edge">
<title>Node2&#45;&gt;Node7</title>
<path fill="none" stroke="#191970" d="M397.9586,-112.2455C387.2213,-103.8943 371.5527,-91.7076 358.9953,-81.9408"/>
<polygon fill="#191970" stroke="#191970" points="360.9401,-79.0194 350.8977,-75.6427 356.6425,-84.5449 360.9401,-79.0194"/>
</g>
<!-- Node8 -->
<g id="node9" class="node">
<title>Node8</title>
<polygon fill="#ffffff" stroke="#bfbfbf" points="385.5,-56.5 385.5,-75.5 435.5,-75.5 435.5,-56.5 385.5,-56.5"/>
<text text-anchor="middle" x="410.5" y="-63.5" font-family="Helvetica,sans-Serif" font-size="10.00" fill="#000000">atomic</text>
</g>
<!-- Node2&#45;&gt;Node8 -->
<g id="edge8" class="edge">
<title>Node2&#45;&gt;Node8</title>
<path fill="none" stroke="#191970" d="M410.5,-112.2455C410.5,-104.9382 410.5,-94.6944 410.5,-85.7046"/>
<polygon fill="#191970" stroke="#191970" points="414.0001,-85.6426 410.5,-75.6427 407.0001,-85.6427 414.0001,-85.6426"/>
</g>
<!-- Node9 -->
<g id="node10" class="node">
<title>Node9</title>
<polygon fill="#ffffff" stroke="#bfbfbf" points="453.5,-56.5 453.5,-75.5 541.5,-75.5 541.5,-56.5 453.5,-56.5"/>
<text text-anchor="middle" x="497.5" y="-63.5" font-family="Helvetica,sans-Serif" font-size="10.00" fill="#000000">boost/asio.hpp</text>
</g>
<!-- Node2&#45;&gt;Node9 -->
<g id="edge9" class="edge">
<title>Node2&#45;&gt;Node9</title>
<path fill="none" stroke="#191970" d="M425.6542,-112.2455C439.0027,-103.6534 458.6586,-91.0014 474.0383,-81.1018"/>
<polygon fill="#191970" stroke="#191970" points="476.0051,-83.9982 482.5194,-75.6427 472.2164,-78.1121 476.0051,-83.9982"/>
</g>
<!-- Node10 -->
<g id="node11" class="node">
<title>Node10</title>
<polygon fill="#ffffff" stroke="#bfbfbf" points="559.5,-56.5 559.5,-75.5 603.5,-75.5 603.5,-56.5 559.5,-56.5"/>
<text text-anchor="middle" x="581.5" y="-63.5" font-family="Helvetica,sans-Serif" font-size="10.00" fill="#000000">string</text>
</g>
<!-- Node2&#45;&gt;Node10 -->
<g id="edge10" class="edge">
<title>Node2&#45;&gt;Node10</title>
<path fill="none" stroke="#191970" d="M439.8959,-112.3733C470.4848,-102.3559 518.2268,-86.721 549.6848,-76.419"/>
<polygon fill="#191970" stroke="#191970" points="550.8697,-79.7139 559.2838,-73.2755 548.6911,-73.0616 550.8697,-79.7139"/>
</g>
<!-- Node5 -->
<g id="node6" class="node">
<title>Node5</title>
<polygon fill="#ffffff" stroke="#bfbfbf" points="150.5,-.5 150.5,-19.5 200.5,-19.5 200.5,-.5 150.5,-.5"/>
<text text-anchor="middle" x="175.5" y="-7.5" font-family="Helvetica,sans-Serif" font-size="10.00" fill="#000000">cstdint</text>
</g>
<!-- Node4&#45;&gt;Node5 -->
<g id="edge5" class="edge">
<title>Node4&#45;&gt;Node5</title>
<path fill="none" stroke="#191970" d="M202.7518,-56.2455C198.2565,-48.617 191.8752,-37.7881 186.4175,-28.5267"/>
<polygon fill="#191970" stroke="#191970" points="189.2747,-26.4811 181.1823,-19.6427 183.2439,-30.035 189.2747,-26.4811"/>
</g>
<!-- Node6 -->
<g id="node7" class="node">
<title>Node6</title>
<polygon fill="#ffffff" stroke="#bfbfbf" points="219,-.5 219,-19.5 266,-19.5 266,-.5 219,-.5"/>
<text text-anchor="middle" x="242.5" y="-7.5" font-family="Helvetica,sans-Serif" font-size="10.00" fill="#000000">vector</text>
</g>
<!-- Node4&#45;&gt;Node6 -->
<g id="edge6" class="edge">
<title>Node4&#45;&gt;Node6</title>
<path fill="none" stroke="#191970" d="M214.4223,-56.2455C219.1027,-48.5367 225.7673,-37.5598 231.4289,-28.2348"/>
<polygon fill="#191970" stroke="#191970" points="234.4475,-30.007 236.6455,-19.6427 228.4639,-26.3741 234.4475,-30.007"/>
</g>
<!-- Node11&#45;&gt;Node10 -->
<g id="edge12" class="edge">
<title>Node11&#45;&gt;Node10</title>
<path fill="none" stroke="#191970" d="M564.9837,-112.2455C567.6508,-104.7776 571.4133,-94.2427 574.6737,-85.1137"/>
<polygon fill="#191970" stroke="#191970" points="577.9889,-86.2373 578.0562,-75.6427 571.3967,-83.8829 577.9889,-86.2373"/>
</g>
</g>
</svg>
