<?xml version="1.0" encoding="UTF-8" standalone="no"?>
<!DOCTYPE svg PUBLIC "-//W3C//DTD SVG 1.1//EN"
 "http://www.w3.org/Graphics/SVG/1.1/DTD/svg11.dtd">
<!-- Generated by graphviz version 2.43.0 (0)
 -->
<!-- Title: /scratch/dragon/sources/ChimeraTK&#45;cppext/include/future_queue.hpp Pages: 1 -->
<!--zoomable 126 -->

<svg id="main" version="1.1" xmlns="http://www.w3.org/2000/svg" xmlns:xlink="http://www.w3.org/1999/xlink" xml:space="preserve" onload="init(evt)">
<style type="text/css"><![CDATA[
.node, .edge {opacity: 0.7;}
.node.selected, .edge.selected {opacity: 1;}
.edge:hover path { stroke: red; }
.edge:hover polygon { stroke: red; fill: red; }
]]></style>

<defs>
  <circle id="rim" cx="0" cy="0" r="7"/>
  <circle id="rim2" cx="0" cy="0" r="3.5"/>
  <g id="zoomPlus">
    <use xlink:href="#rim" fill="#404040"><set attributeName="fill" to="#808080" begin="zoomplus.mouseover" end="zoomplus.mouseout"/></use>
    <path d="M-4,0h8M0,-4v8" fill="none" stroke="white" stroke-width="1.5" pointer-events="none"/>
  </g>
  <g id="zoomMin">
    <use xlink:href="#rim" fill="#404040"><set attributeName="fill" to="#808080" begin="zoomminus.mouseover" end="zoomminus.mouseout"/></use>
    <path d="M-4,0h8" fill="none" stroke="white" stroke-width="1.5" pointer-events="none"/>
  </g>
  <g id="arrowUp" transform="translate(30 24)">
    <use xlink:href="#rim"/>
    <path pointer-events="none" fill="none" stroke="white" stroke-width="1.5" d="M0,-3.0v7 M-2.5,-0.5L0,-3.0L2.5,-0.5"/>
  </g>
  <g id="arrowRight" transform="rotate(90) translate(36 -43)">
    <use xlink:href="#rim"/>
    <path pointer-events="none" fill="none" stroke="white" stroke-width="1.5" d="M0,-3.0v7 M-2.5,-0.5L0,-3.0L2.5,-0.5"/>
  </g>
  <g id="arrowDown" transform="rotate(180) translate(-30 -48)">
    <use xlink:href="#rim"/>
    <path pointer-events="none" fill="none" stroke="white" stroke-width="1.5" d="M0,-3.0v7 M-2.5,-0.5L0,-3.0L2.5,-0.5"/>
  </g>
  <g id="arrowLeft" transform="rotate(270) translate(-36 17)">
    <use xlink:href="#rim"/>
    <path pointer-events="none" fill="none" stroke="white" stroke-width="1.5" d="M0,-3.0v7 M-2.5,-0.5L0,-3.0L2.5,-0.5"/>
  </g>
  <g id="resetDef">
    <use xlink:href="#rim2" fill="#404040"><set attributeName="fill" to="#808080" begin="reset.mouseover" end="reset.mouseout"/></use>
  </g>
</defs>
<script type="application/ecmascript">
var viewWidth = 2344;
var viewHeight = 126;
var sectionId = 'dynsection-1';
</script>
<script type="application/ecmascript" xlink:href="svg.min.js"/>
<svg id="graph" class="graph">
<g id="viewport">
<title>/scratch/dragon/sources/ChimeraTK&#45;cppext/include/future_queue.hpp</title>
<!-- Node1 -->
<g id="Node000001" class="node">
<title>Node1</title>
<g id="a_Node000001"><a xlink:title=" ">
<polygon fill="#999999" stroke="#666666" points="1219.5,-118 1072.5,-118 1072.5,-77 1219.5,-77 1219.5,-118"/>
<text text-anchor="start" x="1080.5" y="-106" font-family="Helvetica,sans-Serif" font-size="10.00">/scratch/dragon/sources</text>
<text text-anchor="start" x="1080.5" y="-95" font-family="Helvetica,sans-Serif" font-size="10.00">/ChimeraTK&#45;cppext/include</text>
<text text-anchor="middle" x="1146" y="-84" font-family="Helvetica,sans-Serif" font-size="10.00">/future_queue.hpp</text>
</a>
</g>
</g>
<!-- Node2 -->
<g id="Node000002" class="node">
<title>Node2</title>
<g id="a_Node000002"><a xlink:href="example_8cc.html" target="_top" xlink:title=" ">
<polygon fill="white" stroke="#666666" points="136,-41 0,-41 0,0 136,0 136,-41"/>
<text text-anchor="start" x="8" y="-29" font-family="Helvetica,sans-Serif" font-size="10.00">/scratch/dragon/sources</text>
<text text-anchor="start" x="8" y="-18" font-family="Helvetica,sans-Serif" font-size="10.00">/ChimeraTK&#45;cppext/tests</text>
<text text-anchor="middle" x="68" y="-7" font-family="Helvetica,sans-Serif" font-size="10.00">/example.cc</text>
</a>
</g>
</g>
<!-- Node1&#45;&gt;Node2 -->
<g id="edge1_Node000001_Node000002" class="edge">
<title>Node1&#45;&gt;Node2</title>
<g id="a_edge1_Node000001_Node000002"><a xlink:title=" ">
<path fill="none" stroke="#63b8ff" d="M1062.31,-97.28C889.72,-97.7 482.17,-92.55 145,-41 142.14,-40.56 139.23,-40.07 136.29,-39.52"/>
<polygon fill="#63b8ff" stroke="#63b8ff" points="1062.35,-100.78 1072.34,-97.25 1062.33,-93.78 1062.35,-100.78"/>
</a>
</g>
</g>
<!-- Node3 -->
<g id="Node000003" class="node">
<title>Node3</title>
<g id="a_Node000003"><a xlink:href="example2_8cc.html" target="_top" xlink:title=" ">
<polygon fill="white" stroke="#666666" points="290,-41 154,-41 154,0 290,0 290,-41"/>
<text text-anchor="start" x="162" y="-29" font-family="Helvetica,sans-Serif" font-size="10.00">/scratch/dragon/sources</text>
<text text-anchor="start" x="162" y="-18" font-family="Helvetica,sans-Serif" font-size="10.00">/ChimeraTK&#45;cppext/tests</text>
<text text-anchor="middle" x="222" y="-7" font-family="Helvetica,sans-Serif" font-size="10.00">/example2.cc</text>
</a>
</g>
</g>
<!-- Node1&#45;&gt;Node3 -->
<g id="edge2_Node000001_Node000003" class="edge">
<title>Node1&#45;&gt;Node3</title>
<g id="a_edge2_Node000001_Node000003"><a xlink:title=" ">
<path fill="none" stroke="#63b8ff" d="M1062.19,-96.06C909.48,-94.14 576.11,-84.79 299,-41 296.14,-40.55 293.23,-40.04 290.3,-39.49"/>
<polygon fill="#63b8ff" stroke="#63b8ff" points="1062.38,-99.56 1072.43,-96.18 1062.47,-92.56 1062.38,-99.56"/>
</a>
</g>
</g>
<!-- Node4 -->
<g id="Node000004" class="node">
<title>Node4</title>
<g id="a_Node000004"><a xlink:href="test_continuations_8cc.html" target="_top" xlink:title=" ">
<polygon fill="white" stroke="#666666" points="444,-41 308,-41 308,0 444,0 444,-41"/>
<text text-anchor="start" x="316" y="-29" font-family="Helvetica,sans-Serif" font-size="10.00">/scratch/dragon/sources</text>
<text text-anchor="start" x="316" y="-18" font-family="Helvetica,sans-Serif" font-size="10.00">/ChimeraTK&#45;cppext/tests</text>
<text text-anchor="middle" x="376" y="-7" font-family="Helvetica,sans-Serif" font-size="10.00">/testContinuations.cc</text>
</a>
</g>
</g>
<!-- Node1&#45;&gt;Node4 -->
<g id="edge3_Node000001_Node000004" class="edge">
<title>Node1&#45;&gt;Node4</title>
<g id="a_edge3_Node000001_Node000004"><a xlink:title=" ">
<path fill="none" stroke="#63b8ff" d="M1062.07,-94.32C931.18,-89.91 670.82,-77.04 453,-41 450.14,-40.53 447.24,-40 444.31,-39.43"/>
<polygon fill="#63b8ff" stroke="#63b8ff" points="1062.31,-97.83 1072.42,-94.67 1062.54,-90.84 1062.31,-97.83"/>
</a>
</g>
</g>
<!-- Node5 -->
<g id="Node000005" class="node">
<title>Node5</title>
<g id="a_Node000005"><a xlink:href="test_empty_8cc.html" target="_top" xlink:title=" ">
<polygon fill="white" stroke="#666666" points="598,-41 462,-41 462,0 598,0 598,-41"/>
<text text-anchor="start" x="470" y="-29" font-family="Helvetica,sans-Serif" font-size="10.00">/scratch/dragon/sources</text>
<text text-anchor="start" x="470" y="-18" font-family="Helvetica,sans-Serif" font-size="10.00">/ChimeraTK&#45;cppext/tests</text>
<text text-anchor="middle" x="530" y="-7" font-family="Helvetica,sans-Serif" font-size="10.00">/testEmpty.cc</text>
</a>
</g>
</g>
<!-- Node1&#45;&gt;Node5 -->
<g id="edge4_Node000001_Node000005" class="edge">
<title>Node1&#45;&gt;Node5</title>
<g id="a_edge4_Node000001_Node000005"><a xlink:title=" ">
<path fill="none" stroke="#63b8ff" d="M1062.26,-91.66C955.83,-84.65 766.73,-69.29 607,-41 604.15,-40.49 601.25,-39.94 598.32,-39.35"/>
<polygon fill="#63b8ff" stroke="#63b8ff" points="1062.09,-95.16 1072.3,-92.32 1062.55,-88.18 1062.09,-95.16"/>
</a>
</g>
</g>
<!-- Node6 -->
<g id="Node000006" class="node">
<title>Node6</title>
<g id="a_Node000006"><a xlink:href="test_exceptions_8cc.html" target="_top" xlink:title=" ">
<polygon fill="white" stroke="#666666" points="752,-41 616,-41 616,0 752,0 752,-41"/>
<text text-anchor="start" x="624" y="-29" font-family="Helvetica,sans-Serif" font-size="10.00">/scratch/dragon/sources</text>
<text text-anchor="start" x="624" y="-18" font-family="Helvetica,sans-Serif" font-size="10.00">/ChimeraTK&#45;cppext/tests</text>
<text text-anchor="middle" x="684" y="-7" font-family="Helvetica,sans-Serif" font-size="10.00">/testExceptions.cc</text>
</a>
</g>
</g>
<!-- Node1&#45;&gt;Node6 -->
<g id="edge5_Node000001_Node000006" class="edge">
<title>Node1&#45;&gt;Node6</title>
<g id="a_edge5_Node000001_Node000006"><a xlink:title=" ">
<path fill="none" stroke="#63b8ff" d="M1061.87,-86.95C983.59,-77.46 863.86,-61.38 761,-41 758.16,-40.44 755.27,-39.84 752.35,-39.21"/>
<polygon fill="#63b8ff" stroke="#63b8ff" points="1061.82,-90.47 1072.16,-88.19 1062.65,-83.52 1061.82,-90.47"/>
</a>
</g>
</g>
<!-- Node7 -->
<g id="Node000007" class="node">
<title>Node7</title>
<g id="a_Node000007"><a xlink:href="test_front_8cc.html" target="_top" xlink:title=" ">
<polygon fill="white" stroke="#666666" points="906,-41 770,-41 770,0 906,0 906,-41"/>
<text text-anchor="start" x="778" y="-29" font-family="Helvetica,sans-Serif" font-size="10.00">/scratch/dragon/sources</text>
<text text-anchor="start" x="778" y="-18" font-family="Helvetica,sans-Serif" font-size="10.00">/ChimeraTK&#45;cppext/tests</text>
<text text-anchor="middle" x="838" y="-7" font-family="Helvetica,sans-Serif" font-size="10.00">/testFront.cc</text>
</a>
</g>
</g>
<!-- Node1&#45;&gt;Node7 -->
<g id="edge6_Node000001_Node000007" class="edge">
<title>Node1&#45;&gt;Node7</title>
<g id="a_edge6_Node000001_Node000007"><a xlink:title=" ">
<path fill="none" stroke="#63b8ff" d="M1062.56,-76.71C1018.63,-66.23 963.86,-53.06 915,-41 912.05,-40.27 909.05,-39.53 906.01,-38.77"/>
<polygon fill="#63b8ff" stroke="#63b8ff" points="1061.8,-80.13 1072.34,-79.05 1063.43,-73.32 1061.8,-80.13"/>
</a>
</g>
</g>
<!-- Node8 -->
<g id="Node000008" class="node">
<title>Node8</title>
<g id="a_Node000008"><a xlink:href="test_performance_8cc.html" target="_top" xlink:title=" ">
<polygon fill="white" stroke="#666666" points="1060,-41 924,-41 924,0 1060,0 1060,-41"/>
<text text-anchor="start" x="932" y="-29" font-family="Helvetica,sans-Serif" font-size="10.00">/scratch/dragon/sources</text>
<text text-anchor="start" x="932" y="-18" font-family="Helvetica,sans-Serif" font-size="10.00">/ChimeraTK&#45;cppext/tests</text>
<text text-anchor="middle" x="992" y="-7" font-family="Helvetica,sans-Serif" font-size="10.00">/testPerformance.cc</text>
</a>
</g>
</g>
<!-- Node1&#45;&gt;Node8 -->
<g id="edge7_Node000001_Node000008" class="edge">
<title>Node1&#45;&gt;Node8</title>
<g id="a_edge7_Node000001_Node000008"><a xlink:title=" ">
<path fill="none" stroke="#63b8ff" d="M1096.9,-72.59C1076,-62.41 1051.93,-50.69 1032.13,-41.04"/>
<polygon fill="#63b8ff" stroke="#63b8ff" points="1095.42,-75.76 1105.94,-76.99 1098.48,-69.47 1095.42,-75.76"/>
</a>
</g>
</g>
<!-- Node9 -->
<g id="Node000009" class="node">
<title>Node9</title>
<g id="a_Node000009"><a xlink:href="test_push_pop_8cc.html" target="_top" xlink:title=" ">
<polygon fill="white" stroke="#666666" points="1214,-41 1078,-41 1078,0 1214,0 1214,-41"/>
<text text-anchor="start" x="1086" y="-29" font-family="Helvetica,sans-Serif" font-size="10.00">/scratch/dragon/sources</text>
<text text-anchor="start" x="1086" y="-18" font-family="Helvetica,sans-Serif" font-size="10.00">/ChimeraTK&#45;cppext/tests</text>
<text text-anchor="middle" x="1146" y="-7" font-family="Helvetica,sans-Serif" font-size="10.00">/testPushPop.cc</text>
</a>
</g>
</g>
<!-- Node1&#45;&gt;Node9 -->
<g id="edge8_Node000001_Node000009" class="edge">
<title>Node1&#45;&gt;Node9</title>
<g id="a_edge8_Node000001_Node000009"><a xlink:title=" ">
<path fill="none" stroke="#63b8ff" d="M1146,-66.69C1146,-58.08 1146,-48.9 1146,-41.07"/>
<polygon fill="#63b8ff" stroke="#63b8ff" points="1142.5,-66.79 1146,-76.79 1149.5,-66.79 1142.5,-66.79"/>
</a>
</g>
</g>
<!-- Node10 -->
<g id="Node000010" class="node">
<title>Node10</title>
<g id="a_Node000010"><a xlink:href="test_read_write_available_8cc.html" target="_top" xlink:title=" ">
<polygon fill="white" stroke="#666666" points="1380,-41 1232,-41 1232,0 1380,0 1380,-41"/>
<text text-anchor="start" x="1240" y="-29" font-family="Helvetica,sans-Serif" font-size="10.00">/scratch/dragon/sources</text>
<text text-anchor="start" x="1240" y="-18" font-family="Helvetica,sans-Serif" font-size="10.00">/ChimeraTK&#45;cppext/tests</text>
<text text-anchor="middle" x="1306" y="-7" font-family="Helvetica,sans-Serif" font-size="10.00">/testReadWriteAvailable.cc</text>
</a>
</g>
</g>
<!-- Node1&#45;&gt;Node10 -->
<g id="edge9_Node000001_Node000010" class="edge">
<title>Node1&#45;&gt;Node10</title>
<g id="a_edge9_Node000001_Node000010"><a xlink:title=" ">
<path fill="none" stroke="#63b8ff" d="M1196.73,-72.72C1218.5,-62.51 1243.64,-50.73 1264.31,-41.04"/>
<polygon fill="#63b8ff" stroke="#63b8ff" points="1195.19,-69.58 1187.62,-76.99 1198.16,-75.92 1195.19,-69.58"/>
</a>
</g>
</g>
<!-- Node11 -->
<g id="Node000011" class="node">
<title>Node11</title>
<g id="a_Node000011"><a xlink:href="test_sharing_8cc.html" target="_top" xlink:title=" ">
<polygon fill="white" stroke="#666666" points="1534,-41 1398,-41 1398,0 1534,0 1534,-41"/>
<text text-anchor="start" x="1406" y="-29" font-family="Helvetica,sans-Serif" font-size="10.00">/scratch/dragon/sources</text>
<text text-anchor="start" x="1406" y="-18" font-family="Helvetica,sans-Serif" font-size="10.00">/ChimeraTK&#45;cppext/tests</text>
<text text-anchor="middle" x="1466" y="-7" font-family="Helvetica,sans-Serif" font-size="10.00">/testSharing.cc</text>
</a>
</g>
</g>
<!-- Node1&#45;&gt;Node11 -->
<g id="edge10_Node000001_Node000011" class="edge">
<title>Node1&#45;&gt;Node11</title>
<g id="a_edge10_Node000001_Node000011"><a xlink:title=" ">
<path fill="none" stroke="#63b8ff" d="M1229.56,-77.92C1276.48,-67.37 1336.07,-53.74 1389,-41 1391.82,-40.32 1394.69,-39.62 1397.59,-38.91"/>
<polygon fill="#63b8ff" stroke="#63b8ff" points="1228.74,-74.52 1219.75,-80.13 1230.27,-81.35 1228.74,-74.52"/>
</a>
</g>
</g>
<!-- Node12 -->
<g id="Node000012" class="node">
<title>Node12</title>
<g id="a_Node000012"><a xlink:href="test_stresstest_8cc.html" target="_top" xlink:title=" ">
<polygon fill="white" stroke="#666666" points="1688,-41 1552,-41 1552,0 1688,0 1688,-41"/>
<text text-anchor="start" x="1560" y="-29" font-family="Helvetica,sans-Serif" font-size="10.00">/scratch/dragon/sources</text>
<text text-anchor="start" x="1560" y="-18" font-family="Helvetica,sans-Serif" font-size="10.00">/ChimeraTK&#45;cppext/tests</text>
<text text-anchor="middle" x="1620" y="-7" font-family="Helvetica,sans-Serif" font-size="10.00">/testStresstest.cc</text>
</a>
</g>
</g>
<!-- Node1&#45;&gt;Node12 -->
<g id="edge11_Node000001_Node000012" class="edge">
<title>Node1&#45;&gt;Node12</title>
<g id="a_edge11_Node000001_Node000012"><a xlink:title=" ">
<path fill="none" stroke="#63b8ff" d="M1229.67,-87.49C1310.32,-78.18 1435.59,-62.04 1543,-41 1545.84,-40.44 1548.74,-39.85 1551.65,-39.22"/>
<polygon fill="#63b8ff" stroke="#63b8ff" points="1229.11,-84.03 1219.57,-88.65 1229.9,-90.99 1229.11,-84.03"/>
</a>
</g>
</g>
<!-- Node13 -->
<g id="Node000013" class="node">
<title>Node13</title>
<g id="a_Node000013"><a xlink:href="test_stresstest_multiproducer_8cc.html" target="_top" xlink:title=" ">
<polygon fill="white" stroke="#666666" points="1873.5,-41 1706.5,-41 1706.5,0 1873.5,0 1873.5,-41"/>
<text text-anchor="start" x="1714.5" y="-29" font-family="Helvetica,sans-Serif" font-size="10.00">/scratch/dragon/sources</text>
<text text-anchor="start" x="1714.5" y="-18" font-family="Helvetica,sans-Serif" font-size="10.00">/ChimeraTK&#45;cppext/tests</text>
<text text-anchor="middle" x="1790" y="-7" font-family="Helvetica,sans-Serif" font-size="10.00">/testStresstestMultiproducer.cc</text>
</a>
</g>
</g>
<!-- Node1&#45;&gt;Node13 -->
<g id="edge12_Node000001_Node000013" class="edge">
<title>Node1&#45;&gt;Node13</title>
<g id="a_edge12_Node000001_Node000013"><a xlink:title=" ">
<path fill="none" stroke="#63b8ff" d="M1230.06,-90.83C1338.42,-82.87 1532.47,-66.46 1697,-41 1700.1,-40.52 1703.25,-40.01 1706.43,-39.46"/>
<polygon fill="#63b8ff" stroke="#63b8ff" points="1229.56,-87.35 1219.84,-91.57 1230.07,-94.33 1229.56,-87.35"/>
</a>
</g>
</g>
<!-- Node14 -->
<g id="Node000014" class="node">
<title>Node14</title>
<g id="a_Node000014"><a xlink:href="test_swap_8cc.html" target="_top" xlink:title=" ">
<polygon fill="white" stroke="#666666" points="2028,-41 1892,-41 1892,0 2028,0 2028,-41"/>
<text text-anchor="start" x="1900" y="-29" font-family="Helvetica,sans-Serif" font-size="10.00">/scratch/dragon/sources</text>
<text text-anchor="start" x="1900" y="-18" font-family="Helvetica,sans-Serif" font-size="10.00">/ChimeraTK&#45;cppext/tests</text>
<text text-anchor="middle" x="1960" y="-7" font-family="Helvetica,sans-Serif" font-size="10.00">/testSwap.cc</text>
</a>
</g>
</g>
<!-- Node1&#45;&gt;Node14 -->
<g id="edge13_Node000001_Node000014" class="edge">
<title>Node1&#45;&gt;Node14</title>
<g id="a_edge13_Node000001_Node000014"><a xlink:title=" ">
<path fill="none" stroke="#63b8ff" d="M1229.76,-94.9C1367.06,-91.22 1648.25,-79.27 1883,-41 1885.86,-40.53 1888.77,-40.01 1891.69,-39.45"/>
<polygon fill="#63b8ff" stroke="#63b8ff" points="1229.63,-91.4 1219.72,-95.16 1229.81,-98.4 1229.63,-91.4"/>
</a>
</g>
</g>
<!-- Node15 -->
<g id="Node000015" class="node">
<title>Node15</title>
<g id="a_Node000015"><a xlink:href="test_when_all_8cc.html" target="_top" xlink:title=" ">
<polygon fill="white" stroke="#666666" points="2182,-41 2046,-41 2046,0 2182,0 2182,-41"/>
<text text-anchor="start" x="2054" y="-29" font-family="Helvetica,sans-Serif" font-size="10.00">/scratch/dragon/sources</text>
<text text-anchor="start" x="2054" y="-18" font-family="Helvetica,sans-Serif" font-size="10.00">/ChimeraTK&#45;cppext/tests</text>
<text text-anchor="middle" x="2114" y="-7" font-family="Helvetica,sans-Serif" font-size="10.00">/testWhenAll.cc</text>
</a>
</g>
</g>
<!-- Node1&#45;&gt;Node15 -->
<g id="edge14_Node000001_Node000015" class="edge">
<title>Node1&#45;&gt;Node15</title>
<g id="a_edge14_Node000001_Node000015"><a xlink:title=" ">
<path fill="none" stroke="#63b8ff" d="M1229.71,-96.45C1388.24,-95.22 1742.76,-87.01 2037,-41 2039.86,-40.55 2042.77,-40.05 2045.7,-39.5"/>
<polygon fill="#63b8ff" stroke="#63b8ff" points="1229.53,-92.95 1219.55,-96.52 1229.58,-99.95 1229.53,-92.95"/>
</a>
</g>
</g>
<!-- Node16 -->
<g id="Node000016" class="node">
<title>Node16</title>
<g id="a_Node000016"><a xlink:href="test_when_any_8cc.html" target="_top" xlink:title=" ">
<polygon fill="white" stroke="#666666" points="2336,-41 2200,-41 2200,0 2336,0 2336,-41"/>
<text text-anchor="start" x="2208" y="-29" font-family="Helvetica,sans-Serif" font-size="10.00">/scratch/dragon/sources</text>
<text text-anchor="start" x="2208" y="-18" font-family="Helvetica,sans-Serif" font-size="10.00">/ChimeraTK&#45;cppext/tests</text>
<text text-anchor="middle" x="2268" y="-7" font-family="Helvetica,sans-Serif" font-size="10.00">/testWhenAny.cc</text>
</a>
</g>
</g>
<!-- Node1&#45;&gt;Node16 -->
<g id="edge15_Node000001_Node000016" class="edge">
<title>Node1&#45;&gt;Node16</title>
<g id="a_edge15_Node000001_Node000016"><a xlink:title=" ">
<path fill="none" stroke="#63b8ff" d="M1229.99,-94.15C1444.08,-87.83 2006.32,-69.02 2191,-41 2193.86,-40.57 2196.77,-40.07 2199.71,-39.53"/>
<polygon fill="#63b8ff" stroke="#63b8ff" points="1229.65,-90.66 1219.76,-94.45 1229.85,-97.66 1229.65,-90.66"/>
</a>
</g>
</g>
</g>
</svg>

<g id="navigator" transform="translate(0 0)" fill="#404254">
  <rect fill="#f2f5e9" fill-opacity="0.5" stroke="#606060" stroke-width=".5" x="0" y="0" width="60" height="60"/>
  <use id="zoomplus" xlink:href="#zoomPlus" x="17" y="9" onmousedown="handleZoom(evt,'in')"/>
  <use id="zoomminus" xlink:href="#zoomMin" x="42" y="9" onmousedown="handleZoom(evt,'out')"/>
  <use id="reset" xlink:href="#resetDef" x="30" y="36" onmousedown="handleReset()"/>
   <use id="arrowup" xlink:href="#arrowUp" x="0" y="0" onmousedown="handlePan(0,-1)"/>
  <use id="arrowright" xlink:href="#arrowRight" x="0" y="0" onmousedown="handlePan(1,0)"/>
  <use id="arrowdown" xlink:href="#arrowDown" x="0" y="0" onmousedown="handlePan(0,1)"/>
  <use id="arrowleft" xlink:href="#arrowLeft" x="0" y="0" onmousedown="handlePan(-1,0)"/>
</g>
<svg viewBox="0 0 15 15" width="100%" height="30px" preserveAspectRatio="xMaxYMin meet">
 <g id="arrow_out" transform="scale(0.3 0.3)">
  <a xlink:href="future__queue_8hpp__dep__incl_org.svg" target="_base">
   <rect id="button" ry="5" rx="5" y="6" x="6" height="38" width="38"
        fill="#f2f5e9" fill-opacity="0.5" stroke="#606060" stroke-width="1.0"/>
   <path id="arrow"
     d="M 11.500037,31.436501 C 11.940474,20.09759 22.043105,11.32322 32.158766,21.979434 L 37.068811,17.246167 C 37.068811,17.246167 37.088388,32 37.088388,32 L 22.160133,31.978069 C 22.160133,31.978069 26.997745,27.140456 26.997745,27.140456 C 18.528582,18.264221 13.291696,25.230495 11.500037,31.436501 z"
     style="fill:#404040;"/>
  </a>
 </g>
</svg>

<style type='text/css'>
<![CDATA[
[data-mouse-over-selected='false'] { opacity: 0.7; }
[data-mouse-over-selected='true']  { opacity: 1.0; }
]]>
</style>
<script type="application/ecmascript"><![CDATA[
document.addEventListener('DOMContentLoaded', (event) => {
  highlightEdges();
  highlightAdjacentNodes();
});
]]></script>
</svg>
