<?xml version="1.0" encoding="UTF-8" standalone="no"?>
<!DOCTYPE svg PUBLIC "-//W3C//DTD SVG 1.1//EN"
 "http://www.w3.org/Graphics/SVG/1.1/DTD/svg11.dtd">
<!-- Generated by graphviz version 2.43.0 (0)
 -->
<!-- Title: device_backends/src/DeviceBackendImpl.cc Pages: 1 -->
<!--zoomable 520 -->
<svg id="main" version="1.1" xmlns="http://www.w3.org/2000/svg" xmlns:xlink="http://www.w3.org/1999/xlink" xml:space="preserve" onload="init(evt)">
<style type="text/css"><![CDATA[
.edge:hover path { stroke: red; }
.edge:hover polygon { stroke: red; fill: red; }
]]></style>
<script type="text/javascript"><![CDATA[
var edges = document.getElementsByTagName('g');
if (edges && edges.length) {
  for (var i=0;i<edges.length;i++) {
    if (edges[i].id.substr(0,4)=='edge') {
      edges[i].setAttribute('class','edge');
    }
  }
}
]]></script>
        <defs>
                <circle id="rim" cx="0" cy="0" r="7"/>
                <circle id="rim2" cx="0" cy="0" r="3.5"/>
                <g id="zoomPlus">
                        <use xlink:href="#rim" fill="#404040">
                                <set attributeName="fill" to="#808080" begin="zoomplus.mouseover" end="zoomplus.mouseout"/>
                        </use>
                        <path d="M-4,0h8M0,-4v8" fill="none" stroke="white" stroke-width="1.5" pointer-events="none"/>
                </g>
                <g id="zoomMin">
                        <use xlink:href="#rim" fill="#404040">
                                <set attributeName="fill" to="#808080" begin="zoomminus.mouseover" end="zoomminus.mouseout"/>
                        </use>
                        <path d="M-4,0h8" fill="none" stroke="white" stroke-width="1.5" pointer-events="none"/>
                </g>
                <g id="dirArrow">
                        <path fill="none" stroke="white" stroke-width="1.5" d="M0,-3.0v7 M-2.5,-0.5L0,-3.0L2.5,-0.5"/>
                </g>
               <g id="resetDef">
                       <use xlink:href="#rim2" fill="#404040">
                               <set attributeName="fill" to="#808080" begin="reset.mouseover" end="reset.mouseout"/>
                       </use>
               </g>
        </defs>

<script type="text/javascript">
var viewWidth = 2136;
var viewHeight = 520;
var sectionId = 'dynsection-0';
</script>
<script xlink:href="svgpan.js"/>
<svg id="graph" class="graph">
<g id="viewport">
<title>device_backends/src/DeviceBackendImpl.cc</title>
<polygon fill="white" stroke="transparent" points="-4,4 -4,-516 2132,-516 2132,4 -4,4"/>
<!-- Node1 -->
<g id="node1" class="node">
<title>Node1</title>
<g id="a_node1"><a xlink:title=" ">
<polygon fill="#bfbfbf" stroke="black" points="1665,-481.5 1665,-511.5 1795,-511.5 1795,-481.5 1665,-481.5"/>
<text text-anchor="start" x="1673" y="-499.5" font-family="Helvetica,sans-Serif" font-size="10.00">device_backends/src</text>
<text text-anchor="middle" x="1730" y="-488.5" font-family="Helvetica,sans-Serif" font-size="10.00">/DeviceBackendImpl.cc</text>
</a>
</g>
</g>
<!-- Node2 -->
<g id="node2" class="node">
<title>Node2</title>
<g id="a_node2"><a xlink:href="_device_backend_impl_8h.html" target="_top" xlink:title=" ">
<polygon fill="white" stroke="black" points="1616,-425.5 1616,-444.5 1738,-444.5 1738,-425.5 1616,-425.5"/>
<text text-anchor="middle" x="1677" y="-432.5" font-family="Helvetica,sans-Serif" font-size="10.00">DeviceBackendImpl.h</text>
</a>
</g>
</g>
<!-- Node1&#45;&gt;Node2 -->
<g id="edge1" class="edge">
<title>Node1&#45;&gt;Node2</title>
<path fill="none" stroke="midnightblue" d="M1717.44,-481.4C1709.66,-472.66 1699.64,-461.41 1691.52,-452.3"/>
<polygon fill="midnightblue" stroke="midnightblue" points="1693.98,-449.8 1684.71,-444.66 1688.75,-454.45 1693.98,-449.8"/>
</g>
<!-- Node44 -->
<g id="node44" class="node">
<title>Node44</title>
<g id="a_node44"><a xlink:title=" ">
<polygon fill="white" stroke="#bfbfbf" points="1756,-425.5 1756,-444.5 1812,-444.5 1812,-425.5 1756,-425.5"/>
<text text-anchor="middle" x="1784" y="-432.5" font-family="Helvetica,sans-Serif" font-size="10.00">unistd.h</text>
</a>
</g>
</g>
<!-- Node1&#45;&gt;Node44 -->
<g id="edge60" class="edge">
<title>Node1&#45;&gt;Node44</title>
<path fill="none" stroke="midnightblue" d="M1742.8,-481.4C1750.72,-472.66 1760.94,-461.41 1769.21,-452.3"/>
<polygon fill="midnightblue" stroke="midnightblue" points="1772.01,-454.42 1776.14,-444.66 1766.83,-449.71 1772.01,-454.42"/>
</g>
<!-- Node3 -->
<g id="node3" class="node">
<title>Node3</title>
<g id="a_node3"><a xlink:href="_async_domains_container_base_8h.html" target="_top" xlink:title=" ">
<polygon fill="white" stroke="black" points="111,-369.5 111,-388.5 281,-388.5 281,-369.5 111,-369.5"/>
<text text-anchor="middle" x="196" y="-376.5" font-family="Helvetica,sans-Serif" font-size="10.00">AsyncDomainsContainerBase.h</text>
</a>
</g>
</g>
<!-- Node2&#45;&gt;Node3 -->
<g id="edge2" class="edge">
<title>Node2&#45;&gt;Node3</title>
<path fill="none" stroke="midnightblue" d="M1615.72,-431.77C1385.47,-423.37 571.09,-393.68 291.25,-383.47"/>
<polygon fill="midnightblue" stroke="midnightblue" points="291.24,-379.97 281.12,-383.1 290.99,-386.97 291.24,-379.97"/>
</g>
<!-- Node4 -->
<g id="node4" class="node">
<title>Node4</title>
<g id="a_node4"><a xlink:title=" ">
<polygon fill="white" stroke="#bfbfbf" points="63,-308 63,-327 113,-327 113,-308 63,-308"/>
<text text-anchor="middle" x="88" y="-315" font-family="Helvetica,sans-Serif" font-size="10.00">atomic</text>
</a>
</g>
</g>
<!-- Node2&#45;&gt;Node4 -->
<g id="edge57" class="edge">
<title>Node2&#45;&gt;Node4</title>
<path fill="none" stroke="midnightblue" d="M1615.89,-434.36C1332.88,-435.79 160.76,-438.66 102,-389 87.29,-376.57 85.23,-353.49 85.91,-337.13"/>
<polygon fill="midnightblue" stroke="midnightblue" points="89.41,-337.33 86.7,-327.09 82.43,-336.78 89.41,-337.33"/>
</g>
<!-- Node7 -->
<g id="node7" class="node">
<title>Node7</title>
<g id="a_node7"><a xlink:href="_device_backend_8h.html" target="_top" xlink:title=" ">
<polygon fill="white" stroke="black" points="1097.5,-369.5 1097.5,-388.5 1198.5,-388.5 1198.5,-369.5 1097.5,-369.5"/>
<text text-anchor="middle" x="1148" y="-376.5" font-family="Helvetica,sans-Serif" font-size="10.00">DeviceBackend.h</text>
</a>
</g>
</g>
<!-- Node2&#45;&gt;Node7 -->
<g id="edge6" class="edge">
<title>Node2&#45;&gt;Node7</title>
<path fill="none" stroke="midnightblue" d="M1615.8,-427.75C1513.91,-417.35 1310.67,-396.61 1208.95,-386.22"/>
<polygon fill="midnightblue" stroke="midnightblue" points="1209.14,-382.72 1198.83,-385.19 1208.43,-389.69 1209.14,-382.72"/>
</g>
<!-- Node13 -->
<g id="node13" class="node">
<title>Node13</title>
<g id="a_node13"><a xlink:href="_exception_8h.html" target="_top" xlink:title=" ">
<polygon fill="white" stroke="black" points="1411,-67.5 1411,-86.5 1485,-86.5 1485,-67.5 1411,-67.5"/>
<text text-anchor="middle" x="1448" y="-74.5" font-family="Helvetica,sans-Serif" font-size="10.00">Exception.h</text>
</a>
</g>
</g>
<!-- Node2&#45;&gt;Node13 -->
<g id="edge53" class="edge">
<title>Node2&#45;&gt;Node13</title>
<path fill="none" stroke="midnightblue" d="M1659.22,-425.35C1645.23,-417.66 1626.27,-405.14 1615,-389 1596.35,-362.3 1595,-351.07 1595,-318.5 1595,-318.5 1595,-318.5 1595,-188 1595,-135.25 1533.57,-104.73 1490.14,-89.75"/>
<polygon fill="midnightblue" stroke="midnightblue" points="1491.22,-86.42 1480.62,-86.61 1489.03,-93.07 1491.22,-86.42"/>
</g>
<!-- Node39 -->
<g id="node39" class="node">
<title>Node39</title>
<g id="a_node39"><a xlink:title=" ">
<polygon fill="white" stroke="#bfbfbf" points="1623.5,-369.5 1623.5,-388.5 1730.5,-388.5 1730.5,-369.5 1623.5,-369.5"/>
<text text-anchor="middle" x="1677" y="-376.5" font-family="Helvetica,sans-Serif" font-size="10.00">condition_variable</text>
</a>
</g>
</g>
<!-- Node2&#45;&gt;Node39 -->
<g id="edge54" class="edge">
<title>Node2&#45;&gt;Node39</title>
<path fill="none" stroke="midnightblue" d="M1677,-425.08C1677,-418.01 1677,-407.86 1677,-398.99"/>
<polygon fill="midnightblue" stroke="midnightblue" points="1680.5,-398.75 1677,-388.75 1673.5,-398.75 1680.5,-398.75"/>
</g>
<!-- Node40 -->
<g id="node40" class="node">
<title>Node40</title>
<g id="a_node40"><a xlink:title=" ">
<polygon fill="white" stroke="#bfbfbf" points="1749,-369.5 1749,-388.5 1835,-388.5 1835,-369.5 1749,-369.5"/>
<text text-anchor="middle" x="1792" y="-376.5" font-family="Helvetica,sans-Serif" font-size="10.00">shared_mutex</text>
</a>
</g>
</g>
<!-- Node2&#45;&gt;Node40 -->
<g id="edge55" class="edge">
<title>Node2&#45;&gt;Node40</title>
<path fill="none" stroke="midnightblue" d="M1695.22,-425.44C1713.9,-416.68 1743.16,-402.94 1764.62,-392.86"/>
<polygon fill="midnightblue" stroke="midnightblue" points="1766.3,-395.93 1773.86,-388.52 1763.32,-389.6 1766.3,-395.93"/>
</g>
<!-- Node41 -->
<g id="node41" class="node">
<title>Node41</title>
<g id="a_node41"><a xlink:title=" ">
<polygon fill="white" stroke="#bfbfbf" points="1853.5,-369.5 1853.5,-388.5 2012.5,-388.5 2012.5,-369.5 1853.5,-369.5"/>
<text text-anchor="middle" x="1933" y="-376.5" font-family="Helvetica,sans-Serif" font-size="10.00">ChimeraTK/cppext/finally.hpp</text>
</a>
</g>
</g>
<!-- Node2&#45;&gt;Node41 -->
<g id="edge56" class="edge">
<title>Node2&#45;&gt;Node41</title>
<path fill="none" stroke="midnightblue" d="M1717.56,-425.44C1762.32,-416 1834.38,-400.8 1882.7,-390.61"/>
<polygon fill="midnightblue" stroke="midnightblue" points="1883.56,-394.01 1892.63,-388.52 1882.12,-387.16 1883.56,-394.01"/>
</g>
<!-- Node42 -->
<g id="node42" class="node">
<title>Node42</title>
<g id="a_node42"><a xlink:title=" ">
<polygon fill="white" stroke="#bfbfbf" points="2030,-369.5 2030,-388.5 2062,-388.5 2062,-369.5 2030,-369.5"/>
<text text-anchor="middle" x="2046" y="-376.5" font-family="Helvetica,sans-Serif" font-size="10.00">list</text>
</a>
</g>
</g>
<!-- Node2&#45;&gt;Node42 -->
<g id="edge58" class="edge">
<title>Node2&#45;&gt;Node42</title>
<path fill="none" stroke="midnightblue" d="M1738.33,-426.09C1825.43,-414.84 1978.41,-395.05 2019.85,-388.45"/>
<polygon fill="midnightblue" stroke="midnightblue" points="2020.69,-391.86 2029.89,-386.61 2019.43,-384.97 2020.69,-391.86"/>
</g>
<!-- Node43 -->
<g id="node43" class="node">
<title>Node43</title>
<g id="a_node43"><a xlink:title=" ">
<polygon fill="white" stroke="#bfbfbf" points="2080,-369.5 2080,-388.5 2128,-388.5 2128,-369.5 2080,-369.5"/>
<text text-anchor="middle" x="2104" y="-376.5" font-family="Helvetica,sans-Serif" font-size="10.00">mutex</text>
</a>
</g>
</g>
<!-- Node2&#45;&gt;Node43 -->
<g id="edge59" class="edge">
<title>Node2&#45;&gt;Node43</title>
<path fill="none" stroke="midnightblue" d="M1738.08,-426.08C1741.09,-425.71 1744.08,-425.35 1747,-425 1887.63,-408.15 1926.93,-415.78 2069.93,-388.93"/>
<polygon fill="midnightblue" stroke="midnightblue" points="2070.78,-392.33 2079.95,-387.02 2069.47,-385.45 2070.78,-392.33"/>
</g>
<!-- Node3&#45;&gt;Node4 -->
<g id="edge3" class="edge">
<title>Node3&#45;&gt;Node4</title>
<path fill="none" stroke="midnightblue" d="M180.53,-369.48C162.72,-359.67 133.26,-343.43 112.37,-331.92"/>
<polygon fill="midnightblue" stroke="midnightblue" points="113.89,-328.77 103.45,-327.01 110.51,-334.9 113.89,-328.77"/>
</g>
<!-- Node5 -->
<g id="node5" class="node">
<title>Node5</title>
<g id="a_node5"><a xlink:title=" ">
<polygon fill="white" stroke="#bfbfbf" points="1187,-6 1187,-25 1231,-25 1231,-6 1187,-6"/>
<text text-anchor="middle" x="1209" y="-13" font-family="Helvetica,sans-Serif" font-size="10.00">string</text>
</a>
</g>
</g>
<!-- Node3&#45;&gt;Node5 -->
<g id="edge4" class="edge">
<title>Node3&#45;&gt;Node5</title>
<path fill="none" stroke="midnightblue" d="M189.53,-369.22C172.59,-345.1 130.48,-276.85 163,-235 292.08,-68.89 1013.37,-25.61 1176.29,-17.9"/>
<polygon fill="midnightblue" stroke="midnightblue" points="1176.8,-21.38 1186.63,-17.42 1176.47,-14.39 1176.8,-21.38"/>
</g>
<!-- Node6 -->
<g id="node6" class="node">
<title>Node6</title>
<g id="a_node6"><a xlink:title=" ">
<polygon fill="white" stroke="#bfbfbf" points="172.5,-241 172.5,-260 213.5,-260 213.5,-241 172.5,-241"/>
<text text-anchor="middle" x="193" y="-248" font-family="Helvetica,sans-Serif" font-size="10.00">tuple</text>
</a>
</g>
</g>
<!-- Node3&#45;&gt;Node6 -->
<g id="edge5" class="edge">
<title>Node3&#45;&gt;Node6</title>
<path fill="none" stroke="midnightblue" d="M195.79,-369.31C195.31,-348.99 194.1,-298.05 193.45,-270.28"/>
<polygon fill="midnightblue" stroke="midnightblue" points="196.94,-270.17 193.21,-260.26 189.95,-270.34 196.94,-270.17"/>
</g>
<!-- Node7&#45;&gt;Node5 -->
<g id="edge52" class="edge">
<title>Node7&#45;&gt;Node5</title>
<path fill="none" stroke="midnightblue" d="M1198.7,-373.1C1267.79,-363.32 1383,-334.55 1383,-251.5 1383,-251.5 1383,-251.5 1383,-132 1383,-64.64 1291.36,-34.22 1241.09,-22.6"/>
<polygon fill="midnightblue" stroke="midnightblue" points="1241.55,-19.12 1231.04,-20.4 1240.06,-25.95 1241.55,-19.12"/>
</g>
<!-- Node8 -->
<g id="node8" class="node">
<title>Node8</title>
<g id="a_node8"><a xlink:href="_access_mode_8h.html" target="_top" xlink:title=" ">
<polygon fill="white" stroke="black" points="907,-123.5 907,-142.5 993,-142.5 993,-123.5 907,-123.5"/>
<text text-anchor="middle" x="950" y="-130.5" font-family="Helvetica,sans-Serif" font-size="10.00">AccessMode.h</text>
</a>
</g>
</g>
<!-- Node7&#45;&gt;Node8 -->
<g id="edge7" class="edge">
<title>Node7&#45;&gt;Node8</title>
<path fill="none" stroke="midnightblue" d="M1121.97,-369.45C1067.12,-349.79 941.18,-295.47 898,-199 889.25,-179.46 908.05,-160.76 925.44,-148.48"/>
<polygon fill="midnightblue" stroke="midnightblue" points="927.83,-151.1 934.25,-142.67 923.97,-145.25 927.83,-151.1"/>
</g>
<!-- Node7&#45;&gt;Node13 -->
<g id="edge12" class="edge">
<title>Node7&#45;&gt;Node13</title>
<path fill="none" stroke="midnightblue" d="M1198.69,-375.03C1262.84,-370.25 1368.44,-358.64 1397,-333 1425.1,-307.77 1421,-289.26 1421,-251.5 1421,-251.5 1421,-251.5 1421,-188 1421,-154.86 1432.7,-117.68 1440.7,-96.14"/>
<polygon fill="midnightblue" stroke="midnightblue" points="1444.02,-97.25 1444.36,-86.66 1437.49,-94.73 1444.02,-97.25"/>
</g>
<!-- Node15 -->
<g id="node15" class="node">
<title>Node15</title>
<g id="a_node15"><a xlink:href="_forward_declarations_8h.html" target="_top" xlink:title=" ">
<polygon fill="white" stroke="black" points="907,-179.5 907,-198.5 1033,-198.5 1033,-179.5 907,-179.5"/>
<text text-anchor="middle" x="970" y="-186.5" font-family="Helvetica,sans-Serif" font-size="10.00">ForwardDeclarations.h</text>
</a>
</g>
</g>
<!-- Node7&#45;&gt;Node15 -->
<g id="edge15" class="edge">
<title>Node7&#45;&gt;Node15</title>
<path fill="none" stroke="midnightblue" d="M1132.36,-369.43C1118.09,-361.19 1096.88,-347.82 1081,-333 1038.28,-293.11 999.05,-235.71 980.78,-207.29"/>
<polygon fill="midnightblue" stroke="midnightblue" points="983.73,-205.4 975.42,-198.83 977.82,-209.15 983.73,-205.4"/>
</g>
<!-- Node16 -->
<g id="node16" class="node">
<title>Node16</title>
<g id="a_node16"><a xlink:href="_metadata_catalogue_8h.html" target="_top" xlink:title=" ">
<polygon fill="white" stroke="black" points="729,-123.5 729,-142.5 851,-142.5 851,-123.5 729,-123.5"/>
<text text-anchor="middle" x="790" y="-130.5" font-family="Helvetica,sans-Serif" font-size="10.00">MetadataCatalogue.h</text>
</a>
</g>
</g>
<!-- Node7&#45;&gt;Node16 -->
<g id="edge17" class="edge">
<title>Node7&#45;&gt;Node16</title>
<path fill="none" stroke="midnightblue" d="M1097.23,-370.29C1064.47,-363.77 1021.83,-352.32 988,-333 903.33,-284.65 830.08,-190.35 802.11,-151.44"/>
<polygon fill="midnightblue" stroke="midnightblue" points="804.63,-148.94 795.99,-142.8 798.91,-152.98 804.63,-148.94"/>
</g>
<!-- Node17 -->
<g id="node17" class="node">
<title>Node17</title>
<g id="a_node17"><a xlink:href="_register_catalogue_8h.html" target="_top" xlink:title=" ">
<polygon fill="white" stroke="black" points="1090,-308 1090,-327 1206,-327 1206,-308 1090,-308"/>
<text text-anchor="middle" x="1148" y="-315" font-family="Helvetica,sans-Serif" font-size="10.00">RegisterCatalogue.h</text>
</a>
</g>
</g>
<!-- Node7&#45;&gt;Node17 -->
<g id="edge20" class="edge">
<title>Node7&#45;&gt;Node17</title>
<path fill="none" stroke="midnightblue" d="M1148,-369.48C1148,-361.08 1148,-347.98 1148,-337.16"/>
<polygon fill="midnightblue" stroke="midnightblue" points="1151.5,-337.01 1148,-327.01 1144.5,-337.01 1151.5,-337.01"/>
</g>
<!-- Node33 -->
<g id="node33" class="node">
<title>Node33</title>
<g id="a_node33"><a xlink:href="_virtual_function_template_8h.html" target="_top" xlink:title=" ">
<polygon fill="white" stroke="black" points="389,-308 389,-327 533,-327 533,-308 389,-308"/>
<text text-anchor="middle" x="461" y="-315" font-family="Helvetica,sans-Serif" font-size="10.00">VirtualFunctionTemplate.h</text>
</a>
</g>
</g>
<!-- Node7&#45;&gt;Node33 -->
<g id="edge44" class="edge">
<title>Node7&#45;&gt;Node33</title>
<path fill="none" stroke="midnightblue" d="M1097.48,-373.62C979.92,-363.44 687.1,-338.08 543.31,-325.63"/>
<polygon fill="midnightblue" stroke="midnightblue" points="543.48,-322.13 533.22,-324.75 542.88,-329.1 543.48,-322.13"/>
</g>
<!-- Node38 -->
<g id="node38" class="node">
<title>Node38</title>
<g id="a_node38"><a xlink:title=" ">
<polygon fill="white" stroke="#bfbfbf" points="1449,-302.5 1449,-332.5 1567,-332.5 1567,-302.5 1449,-302.5"/>
<text text-anchor="start" x="1457" y="-320.5" font-family="Helvetica,sans-Serif" font-size="10.00">boost/enable_shared</text>
<text text-anchor="middle" x="1508" y="-309.5" font-family="Helvetica,sans-Serif" font-size="10.00">_from_this.hpp</text>
</a>
</g>
</g>
<!-- Node7&#45;&gt;Node38 -->
<g id="edge51" class="edge">
<title>Node7&#45;&gt;Node38</title>
<path fill="none" stroke="midnightblue" d="M1198.65,-370.69C1256.08,-362.26 1352.44,-347.66 1435,-333 1436.25,-332.78 1437.52,-332.55 1438.79,-332.32"/>
<polygon fill="midnightblue" stroke="midnightblue" points="1439.48,-335.75 1448.68,-330.49 1438.21,-328.87 1439.48,-335.75"/>
</g>
<!-- Node9 -->
<g id="node9" class="node">
<title>Node9</title>
<g id="a_node9"><a xlink:title=" ">
<polygon fill="white" stroke="#bfbfbf" points="860,-67.5 860,-86.5 898,-86.5 898,-67.5 860,-67.5"/>
<text text-anchor="middle" x="879" y="-74.5" font-family="Helvetica,sans-Serif" font-size="10.00">map</text>
</a>
</g>
</g>
<!-- Node8&#45;&gt;Node9 -->
<g id="edge8" class="edge">
<title>Node8&#45;&gt;Node9</title>
<path fill="none" stroke="midnightblue" d="M938.59,-123.32C927.89,-115.18 911.66,-102.84 898.84,-93.09"/>
<polygon fill="midnightblue" stroke="midnightblue" points="900.69,-90.1 890.61,-86.83 896.46,-95.67 900.69,-90.1"/>
</g>
<!-- Node10 -->
<g id="node10" class="node">
<title>Node10</title>
<g id="a_node10"><a xlink:title=" ">
<polygon fill="white" stroke="#bfbfbf" points="934,-67.5 934,-86.5 966,-86.5 966,-67.5 934,-67.5"/>
<text text-anchor="middle" x="950" y="-74.5" font-family="Helvetica,sans-Serif" font-size="10.00">set</text>
</a>
</g>
</g>
<!-- Node8&#45;&gt;Node10 -->
<g id="edge9" class="edge">
<title>Node8&#45;&gt;Node10</title>
<path fill="none" stroke="midnightblue" d="M950,-123.08C950,-116.01 950,-105.86 950,-96.99"/>
<polygon fill="midnightblue" stroke="midnightblue" points="953.5,-96.75 950,-86.75 946.5,-96.75 953.5,-96.75"/>
</g>
<!-- Node11 -->
<g id="node11" class="node">
<title>Node11</title>
<g id="a_node11"><a xlink:title=" ">
<polygon fill="white" stroke="#bfbfbf" points="0,-6 0,-25 56,-25 56,-6 0,-6"/>
<text text-anchor="middle" x="28" y="-13" font-family="Helvetica,sans-Serif" font-size="10.00">sstream</text>
</a>
</g>
</g>
<!-- Node8&#45;&gt;Node11 -->
<g id="edge10" class="edge">
<title>Node8&#45;&gt;Node11</title>
<path fill="none" stroke="midnightblue" d="M906.55,-127.22C891.79,-125.71 875.19,-124.14 860,-123 701.14,-111.07 296.28,-133.8 144,-87 105.99,-75.32 67.68,-48.4 45.99,-31.41"/>
<polygon fill="midnightblue" stroke="midnightblue" points="48.01,-28.54 38.02,-25.02 43.63,-34.01 48.01,-28.54"/>
</g>
<!-- Node12 -->
<g id="node12" class="node">
<title>Node12</title>
<g id="a_node12"><a xlink:title=" ">
<polygon fill="white" stroke="#bfbfbf" points="997.5,-67.5 997.5,-86.5 1044.5,-86.5 1044.5,-67.5 997.5,-67.5"/>
<text text-anchor="middle" x="1021" y="-74.5" font-family="Helvetica,sans-Serif" font-size="10.00">vector</text>
</a>
</g>
</g>
<!-- Node8&#45;&gt;Node12 -->
<g id="edge11" class="edge">
<title>Node8&#45;&gt;Node12</title>
<path fill="none" stroke="midnightblue" d="M961.41,-123.32C972.11,-115.18 988.34,-102.84 1001.16,-93.09"/>
<polygon fill="midnightblue" stroke="midnightblue" points="1003.54,-95.67 1009.39,-86.83 999.31,-90.1 1003.54,-95.67"/>
</g>
<!-- Node13&#45;&gt;Node5 -->
<g id="edge14" class="edge">
<title>Node13&#45;&gt;Node5</title>
<path fill="none" stroke="midnightblue" d="M1413.76,-67.48C1367.54,-55.97 1285.8,-35.62 1240.85,-24.43"/>
<polygon fill="midnightblue" stroke="midnightblue" points="1241.6,-21.01 1231.05,-21.99 1239.9,-27.8 1241.6,-21.01"/>
</g>
<!-- Node14 -->
<g id="node14" class="node">
<title>Node14</title>
<g id="a_node14"><a xlink:title=" ">
<polygon fill="white" stroke="#bfbfbf" points="1415.5,-6 1415.5,-25 1480.5,-25 1480.5,-6 1415.5,-6"/>
<text text-anchor="middle" x="1448" y="-13" font-family="Helvetica,sans-Serif" font-size="10.00">exception</text>
</a>
</g>
</g>
<!-- Node13&#45;&gt;Node14 -->
<g id="edge13" class="edge">
<title>Node13&#45;&gt;Node14</title>
<path fill="none" stroke="midnightblue" d="M1448,-67.48C1448,-59.08 1448,-45.98 1448,-35.16"/>
<polygon fill="midnightblue" stroke="midnightblue" points="1451.5,-35.01 1448,-25.01 1444.5,-35.01 1451.5,-35.01"/>
</g>
<!-- Node15&#45;&gt;Node12 -->
<g id="edge16" class="edge">
<title>Node15&#45;&gt;Node12</title>
<path fill="none" stroke="midnightblue" d="M977.57,-179.26C984.75,-170.58 995.39,-156.63 1002,-143 1009.21,-128.12 1014.23,-109.98 1017.29,-96.64"/>
<polygon fill="midnightblue" stroke="midnightblue" points="1020.74,-97.26 1019.41,-86.75 1013.9,-95.8 1020.74,-97.26"/>
</g>
<!-- Node16&#45;&gt;Node5 -->
<g id="edge19" class="edge">
<title>Node16&#45;&gt;Node5</title>
<path fill="none" stroke="midnightblue" d="M795.46,-123.05C804.83,-108.56 825.45,-80.26 851,-67 907.54,-37.66 1099.44,-23.1 1176.54,-18.33"/>
<polygon fill="midnightblue" stroke="midnightblue" points="1176.86,-21.81 1186.63,-17.72 1176.44,-14.83 1176.86,-21.81"/>
</g>
<!-- Node16&#45;&gt;Node9 -->
<g id="edge18" class="edge">
<title>Node16&#45;&gt;Node9</title>
<path fill="none" stroke="midnightblue" d="M804.3,-123.32C818.18,-114.9 839.49,-101.97 855.8,-92.07"/>
<polygon fill="midnightblue" stroke="midnightblue" points="858,-94.83 864.74,-86.65 854.37,-88.85 858,-94.83"/>
</g>
<!-- Node17&#45;&gt;Node9 -->
<g id="edge43" class="edge">
<title>Node17&#45;&gt;Node9</title>
<path fill="none" stroke="midnightblue" d="M1100.15,-307.99C1042.5,-295.08 947.28,-264.7 898,-199 875.43,-168.91 874.98,-122.62 876.86,-96.9"/>
<polygon fill="midnightblue" stroke="midnightblue" points="880.37,-96.94 877.81,-86.65 873.4,-96.29 880.37,-96.94"/>
</g>
<!-- Node18 -->
<g id="node18" class="node">
<title>Node18</title>
<g id="a_node18"><a xlink:href="_register_info_8h.html" target="_top" xlink:title=" ">
<polygon fill="white" stroke="black" points="1269.5,-241 1269.5,-260 1354.5,-260 1354.5,-241 1269.5,-241"/>
<text text-anchor="middle" x="1312" y="-248" font-family="Helvetica,sans-Serif" font-size="10.00">RegisterInfo.h</text>
</a>
</g>
</g>
<!-- Node17&#45;&gt;Node18 -->
<g id="edge21" class="edge">
<title>Node17&#45;&gt;Node18</title>
<path fill="none" stroke="midnightblue" d="M1169.78,-307.87C1198.28,-296.57 1248.43,-276.7 1280.92,-263.82"/>
<polygon fill="midnightblue" stroke="midnightblue" points="1282.39,-267 1290.39,-260.06 1279.81,-260.49 1282.39,-267"/>
</g>
<!-- Node29 -->
<g id="node29" class="node">
<title>Node29</title>
<g id="a_node29"><a xlink:href="_register_path_8h.html" target="_top" xlink:title=" ">
<polygon fill="white" stroke="black" points="1165.5,-123.5 1165.5,-142.5 1252.5,-142.5 1252.5,-123.5 1165.5,-123.5"/>
<text text-anchor="middle" x="1209" y="-130.5" font-family="Helvetica,sans-Serif" font-size="10.00">RegisterPath.h</text>
</a>
</g>
</g>
<!-- Node17&#45;&gt;Node29 -->
<g id="edge41" class="edge">
<title>Node17&#45;&gt;Node29</title>
<path fill="none" stroke="midnightblue" d="M1140.95,-307.95C1128.94,-292.3 1107.29,-258.5 1123,-235 1146.25,-200.21 1186.75,-233.79 1210,-199 1219.01,-185.53 1217.59,-166.71 1214.62,-152.79"/>
<polygon fill="midnightblue" stroke="midnightblue" points="1217.95,-151.68 1212.06,-142.87 1211.17,-153.43 1217.95,-151.68"/>
</g>
<!-- Node32 -->
<g id="node32" class="node">
<title>Node32</title>
<g id="a_node32"><a xlink:title=" ">
<polygon fill="white" stroke="#bfbfbf" points="1132.5,-241 1132.5,-260 1251.5,-260 1251.5,-241 1132.5,-241"/>
<text text-anchor="middle" x="1192" y="-248" font-family="Helvetica,sans-Serif" font-size="10.00">boost/shared_ptr.hpp</text>
</a>
</g>
</g>
<!-- Node17&#45;&gt;Node32 -->
<g id="edge42" class="edge">
<title>Node17&#45;&gt;Node32</title>
<path fill="none" stroke="midnightblue" d="M1153.93,-307.73C1160.73,-297.7 1172.02,-281.01 1180.55,-268.42"/>
<polygon fill="midnightblue" stroke="midnightblue" points="1183.45,-270.37 1186.16,-260.13 1177.66,-266.45 1183.45,-270.37"/>
</g>
<!-- Node19 -->
<g id="node19" class="node">
<title>Node19</title>
<g id="a_node19"><a xlink:href="_backend_register_info_base_8h.html" target="_top" xlink:title=" ">
<polygon fill="white" stroke="black" points="1051,-179.5 1051,-198.5 1201,-198.5 1201,-179.5 1051,-179.5"/>
<text text-anchor="middle" x="1126" y="-186.5" font-family="Helvetica,sans-Serif" font-size="10.00">BackendRegisterInfoBase.h</text>
</a>
</g>
</g>
<!-- Node18&#45;&gt;Node19 -->
<g id="edge22" class="edge">
<title>Node18&#45;&gt;Node19</title>
<path fill="none" stroke="midnightblue" d="M1285.35,-240.98C1253.03,-230.64 1198.4,-213.16 1162.27,-201.6"/>
<polygon fill="midnightblue" stroke="midnightblue" points="1163.19,-198.22 1152.6,-198.51 1161.06,-204.89 1163.19,-198.22"/>
</g>
<!-- Node30 -->
<g id="node30" class="node">
<title>Node30</title>
<g id="a_node30"><a xlink:title=" ">
<polygon fill="white" stroke="#bfbfbf" points="1271,-123.5 1271,-142.5 1329,-142.5 1329,-123.5 1271,-123.5"/>
<text text-anchor="middle" x="1300" y="-130.5" font-family="Helvetica,sans-Serif" font-size="10.00">memory</text>
</a>
</g>
</g>
<!-- Node18&#45;&gt;Node30 -->
<g id="edge40" class="edge">
<title>Node18&#45;&gt;Node30</title>
<path fill="none" stroke="midnightblue" d="M1305.82,-240.71C1299.41,-231.02 1289.81,-214.72 1286,-199 1282.18,-183.24 1286.77,-165.21 1291.68,-152.14"/>
<polygon fill="midnightblue" stroke="midnightblue" points="1294.93,-153.44 1295.55,-142.86 1288.47,-150.75 1294.93,-153.44"/>
</g>
<!-- Node31 -->
<g id="node31" class="node">
<title>Node31</title>
<g id="a_node31"><a xlink:title=" ">
<polygon fill="white" stroke="#bfbfbf" points="1295,-179.5 1295,-198.5 1355,-198.5 1355,-179.5 1295,-179.5"/>
<text text-anchor="middle" x="1325" y="-186.5" font-family="Helvetica,sans-Serif" font-size="10.00">iostream</text>
</a>
</g>
</g>
<!-- Node18&#45;&gt;Node31 -->
<g id="edge39" class="edge">
<title>Node18&#45;&gt;Node31</title>
<path fill="none" stroke="midnightblue" d="M1313.86,-240.98C1315.72,-232.49 1318.62,-219.2 1321,-208.32"/>
<polygon fill="midnightblue" stroke="midnightblue" points="1324.43,-209.03 1323.14,-198.51 1317.59,-207.53 1324.43,-209.03"/>
</g>
<!-- Node19&#45;&gt;Node8 -->
<g id="edge23" class="edge">
<title>Node19&#45;&gt;Node8</title>
<path fill="none" stroke="midnightblue" d="M1098.11,-179.44C1068.25,-170.28 1020.69,-155.69 987.54,-145.52"/>
<polygon fill="midnightblue" stroke="midnightblue" points="988.34,-142.1 977.76,-142.52 986.29,-148.8 988.34,-142.1"/>
</g>
<!-- Node20 -->
<g id="node20" class="node">
<title>Node20</title>
<g id="a_node20"><a xlink:href="_data_descriptor_8h.html" target="_top" xlink:title=" ">
<polygon fill="white" stroke="black" points="1049,-123.5 1049,-142.5 1147,-142.5 1147,-123.5 1049,-123.5"/>
<text text-anchor="middle" x="1098" y="-130.5" font-family="Helvetica,sans-Serif" font-size="10.00">DataDescriptor.h</text>
</a>
</g>
</g>
<!-- Node19&#45;&gt;Node20 -->
<g id="edge24" class="edge">
<title>Node19&#45;&gt;Node20</title>
<path fill="none" stroke="midnightblue" d="M1121.38,-179.08C1117.54,-171.69 1111.98,-160.95 1107.24,-151.81"/>
<polygon fill="midnightblue" stroke="midnightblue" points="1110.25,-150.02 1102.54,-142.75 1104.03,-153.24 1110.25,-150.02"/>
</g>
<!-- Node19&#45;&gt;Node29 -->
<g id="edge34" class="edge">
<title>Node19&#45;&gt;Node29</title>
<path fill="none" stroke="midnightblue" d="M1139.34,-179.32C1152.16,-170.98 1171.78,-158.21 1186.94,-148.35"/>
<polygon fill="midnightblue" stroke="midnightblue" points="1189.22,-151.04 1195.7,-142.65 1185.41,-145.17 1189.22,-151.04"/>
</g>
<!-- Node19&#45;&gt;Node30 -->
<g id="edge38" class="edge">
<title>Node19&#45;&gt;Node30</title>
<path fill="none" stroke="midnightblue" d="M1153.57,-179.44C1183.1,-170.28 1230.12,-155.69 1262.88,-145.52"/>
<polygon fill="midnightblue" stroke="midnightblue" points="1264.04,-148.82 1272.56,-142.52 1261.97,-142.14 1264.04,-148.82"/>
</g>
<!-- Node21 -->
<g id="node21" class="node">
<title>Node21</title>
<g id="a_node21"><a xlink:href="_supported_user_types_8h.html" target="_top" xlink:title=" ">
<polygon fill="white" stroke="black" points="153.5,-67.5 153.5,-86.5 278.5,-86.5 278.5,-67.5 153.5,-67.5"/>
<text text-anchor="middle" x="216" y="-74.5" font-family="Helvetica,sans-Serif" font-size="10.00">SupportedUserTypes.h</text>
</a>
</g>
</g>
<!-- Node20&#45;&gt;Node21 -->
<g id="edge25" class="edge">
<title>Node20&#45;&gt;Node21</title>
<path fill="none" stroke="midnightblue" d="M1048.7,-127.03C1033.71,-125.62 1017.19,-124.15 1002,-123 739.72,-103.2 427.62,-87.74 288.8,-81.28"/>
<polygon fill="midnightblue" stroke="midnightblue" points="288.86,-77.78 278.71,-80.82 288.54,-84.78 288.86,-77.78"/>
</g>
<!-- Node28 -->
<g id="node28" class="node">
<title>Node28</title>
<g id="a_node28"><a xlink:title=" ">
<polygon fill="white" stroke="#bfbfbf" points="1072,-67.5 1072,-86.5 1124,-86.5 1124,-67.5 1072,-67.5"/>
<text text-anchor="middle" x="1098" y="-74.5" font-family="Helvetica,sans-Serif" font-size="10.00">cassert</text>
</a>
</g>
</g>
<!-- Node20&#45;&gt;Node28 -->
<g id="edge33" class="edge">
<title>Node20&#45;&gt;Node28</title>
<path fill="none" stroke="midnightblue" d="M1098,-123.08C1098,-116.01 1098,-105.86 1098,-96.99"/>
<polygon fill="midnightblue" stroke="midnightblue" points="1101.5,-96.75 1098,-86.75 1094.5,-96.75 1101.5,-96.75"/>
</g>
<!-- Node21&#45;&gt;Node11 -->
<g id="edge31" class="edge">
<title>Node21&#45;&gt;Node11</title>
<path fill="none" stroke="midnightblue" d="M184.52,-67.45C153.81,-58.91 105.87,-45.07 65,-31 62.88,-30.27 60.7,-29.49 58.51,-28.69"/>
<polygon fill="midnightblue" stroke="midnightblue" points="59.61,-25.36 49.02,-25.09 57.13,-31.91 59.61,-25.36"/>
</g>
<!-- Node22 -->
<g id="node22" class="node">
<title>Node22</title>
<g id="a_node22"><a xlink:title=" ">
<polygon fill="white" stroke="#bfbfbf" points="291,-6 291,-25 439,-25 439,-6 291,-6"/>
<text text-anchor="middle" x="365" y="-13" font-family="Helvetica,sans-Serif" font-size="10.00">boost/fusion/algorithm.hpp</text>
</a>
</g>
</g>
<!-- Node21&#45;&gt;Node22 -->
<g id="edge26" class="edge">
<title>Node21&#45;&gt;Node22</title>
<path fill="none" stroke="midnightblue" d="M237.35,-67.48C262.69,-57.36 305.14,-40.4 334.07,-28.85"/>
<polygon fill="midnightblue" stroke="midnightblue" points="335.7,-31.97 343.69,-25.01 333.11,-25.47 335.7,-31.97"/>
</g>
<!-- Node23 -->
<g id="node23" class="node">
<title>Node23</title>
<g id="a_node23"><a xlink:title=" ">
<polygon fill="white" stroke="#bfbfbf" points="457.5,-0.5 457.5,-30.5 582.5,-30.5 582.5,-0.5 457.5,-0.5"/>
<text text-anchor="start" x="465.5" y="-18.5" font-family="Helvetica,sans-Serif" font-size="10.00">boost/fusion/container</text>
<text text-anchor="middle" x="520" y="-7.5" font-family="Helvetica,sans-Serif" font-size="10.00">/map.hpp</text>
</a>
</g>
</g>
<!-- Node21&#45;&gt;Node23 -->
<g id="edge27" class="edge">
<title>Node21&#45;&gt;Node23</title>
<path fill="none" stroke="midnightblue" d="M260.49,-67.47C305.11,-58.89 376.06,-45.19 447.15,-31.16"/>
<polygon fill="midnightblue" stroke="midnightblue" points="448.04,-34.55 457.18,-29.18 446.69,-27.68 448.04,-34.55"/>
</g>
<!-- Node24 -->
<g id="node24" class="node">
<title>Node24</title>
<g id="a_node24"><a xlink:title=" ">
<polygon fill="white" stroke="#bfbfbf" points="600.5,-0.5 600.5,-30.5 743.5,-30.5 743.5,-0.5 600.5,-0.5"/>
<text text-anchor="start" x="608.5" y="-18.5" font-family="Helvetica,sans-Serif" font-size="10.00">boost/numeric/conversion</text>
<text text-anchor="middle" x="672" y="-7.5" font-family="Helvetica,sans-Serif" font-size="10.00">/cast.hpp</text>
</a>
</g>
</g>
<!-- Node21&#45;&gt;Node24 -->
<g id="edge28" class="edge">
<title>Node21&#45;&gt;Node24</title>
<path fill="none" stroke="midnightblue" d="M278.81,-68.66C370.79,-57.89 536.25,-38.4 590.43,-30.97"/>
<polygon fill="midnightblue" stroke="midnightblue" points="591.08,-34.41 600.48,-29.53 590.09,-27.48 591.08,-34.41"/>
</g>
<!-- Node25 -->
<g id="node25" class="node">
<title>Node25</title>
<g id="a_node25"><a xlink:title=" ">
<polygon fill="white" stroke="#bfbfbf" points="74,-6 74,-25 138,-25 138,-6 74,-6"/>
<text text-anchor="middle" x="106" y="-13" font-family="Helvetica,sans-Serif" font-size="10.00">algorithm</text>
</a>
</g>
</g>
<!-- Node21&#45;&gt;Node25 -->
<g id="edge29" class="edge">
<title>Node21&#45;&gt;Node25</title>
<path fill="none" stroke="midnightblue" d="M200.24,-67.48C182.02,-57.62 151.83,-41.29 130.53,-29.77"/>
<polygon fill="midnightblue" stroke="midnightblue" points="132.19,-26.69 121.73,-25.01 128.86,-32.85 132.19,-26.69"/>
</g>
<!-- Node26 -->
<g id="node26" class="node">
<title>Node26</title>
<g id="a_node26"><a xlink:title=" ">
<polygon fill="white" stroke="#bfbfbf" points="156.5,-6 156.5,-25 209.5,-25 209.5,-6 156.5,-6"/>
<text text-anchor="middle" x="183" y="-13" font-family="Helvetica,sans-Serif" font-size="10.00">iterator</text>
</a>
</g>
</g>
<!-- Node21&#45;&gt;Node26 -->
<g id="edge30" class="edge">
<title>Node21&#45;&gt;Node26</title>
<path fill="none" stroke="midnightblue" d="M211.27,-67.48C206.42,-58.73 198.73,-44.87 192.6,-33.81"/>
<polygon fill="midnightblue" stroke="midnightblue" points="195.63,-32.06 187.72,-25.01 189.51,-35.45 195.63,-32.06"/>
</g>
<!-- Node27 -->
<g id="node27" class="node">
<title>Node27</title>
<g id="a_node27"><a xlink:title=" ">
<polygon fill="white" stroke="#bfbfbf" points="227.5,-6 227.5,-25 272.5,-25 272.5,-6 227.5,-6"/>
<text text-anchor="middle" x="250" y="-13" font-family="Helvetica,sans-Serif" font-size="10.00">utility</text>
</a>
</g>
</g>
<!-- Node21&#45;&gt;Node27 -->
<g id="edge32" class="edge">
<title>Node21&#45;&gt;Node27</title>
<path fill="none" stroke="midnightblue" d="M220.87,-67.48C225.87,-58.73 233.79,-44.87 240.11,-33.81"/>
<polygon fill="midnightblue" stroke="midnightblue" points="243.22,-35.43 245.14,-25.01 237.14,-31.96 243.22,-35.43"/>
</g>
<!-- Node29&#45;&gt;Node5 -->
<g id="edge36" class="edge">
<title>Node29&#45;&gt;Node5</title>
<path fill="none" stroke="midnightblue" d="M1209,-123.32C1209,-104.76 1209,-60.84 1209,-35.47"/>
<polygon fill="midnightblue" stroke="midnightblue" points="1212.5,-35.28 1209,-25.28 1205.5,-35.28 1212.5,-35.28"/>
</g>
<!-- Node29&#45;&gt;Node12 -->
<g id="edge37" class="edge">
<title>Node29&#45;&gt;Node12</title>
<path fill="none" stroke="midnightblue" d="M1179.21,-123.44C1145.29,-113.7 1089.99,-97.82 1054.57,-87.64"/>
<polygon fill="midnightblue" stroke="midnightblue" points="1055.27,-84.2 1044.7,-84.81 1053.34,-90.93 1055.27,-84.2"/>
</g>
<!-- Node29&#45;&gt;Node13 -->
<g id="edge35" class="edge">
<title>Node29&#45;&gt;Node13</title>
<path fill="none" stroke="midnightblue" d="M1246.87,-123.44C1288.6,-114.02 1355.76,-98.84 1400.87,-88.65"/>
<polygon fill="midnightblue" stroke="midnightblue" points="1401.72,-92.05 1410.7,-86.43 1400.17,-85.22 1401.72,-92.05"/>
</g>
<!-- Node33&#45;&gt;Node6 -->
<g id="edge50" class="edge">
<title>Node33&#45;&gt;Node6</title>
<path fill="none" stroke="midnightblue" d="M408.95,-307.98C361.26,-299.53 289.03,-285.09 228,-266 225.86,-265.33 223.66,-264.58 221.47,-263.79"/>
<polygon fill="midnightblue" stroke="midnightblue" points="222.62,-260.48 212.03,-260.11 220.08,-267 222.62,-260.48"/>
</g>
<!-- Node33&#45;&gt;Node21 -->
<g id="edge45" class="edge">
<title>Node33&#45;&gt;Node21</title>
<path fill="none" stroke="midnightblue" d="M399.02,-307.98C347.71,-299.68 280.22,-285.46 261,-266 214.83,-219.26 212.96,-134.08 214.63,-96.57"/>
<polygon fill="midnightblue" stroke="midnightblue" points="218.13,-96.75 215.22,-86.56 211.14,-96.34 218.13,-96.75"/>
</g>
<!-- Node34 -->
<g id="node34" class="node">
<title>Node34</title>
<g id="a_node34"><a xlink:title=" ">
<polygon fill="white" stroke="#bfbfbf" points="536.5,-241 536.5,-260 649.5,-260 649.5,-241 536.5,-241"/>
<text text-anchor="middle" x="593" y="-248" font-family="Helvetica,sans-Serif" font-size="10.00">boost/bind/bind.hpp</text>
</a>
</g>
</g>
<!-- Node33&#45;&gt;Node34 -->
<g id="edge46" class="edge">
<title>Node33&#45;&gt;Node34</title>
<path fill="none" stroke="midnightblue" d="M478.53,-307.87C501.01,-296.8 540.23,-277.49 566.4,-264.6"/>
<polygon fill="midnightblue" stroke="midnightblue" points="567.97,-267.72 575.4,-260.17 564.88,-261.44 567.97,-267.72"/>
</g>
<!-- Node35 -->
<g id="node35" class="node">
<title>Node35</title>
<g id="a_node35"><a xlink:title=" ">
<polygon fill="white" stroke="#bfbfbf" points="667.5,-241 667.5,-260 774.5,-260 774.5,-241 667.5,-241"/>
<text text-anchor="middle" x="721" y="-248" font-family="Helvetica,sans-Serif" font-size="10.00">boost/function.hpp</text>
</a>
</g>
</g>
<!-- Node33&#45;&gt;Node35 -->
<g id="edge47" class="edge">
<title>Node33&#45;&gt;Node35</title>
<path fill="none" stroke="midnightblue" d="M495.26,-307.94C541.93,-296.27 625.53,-275.37 676.85,-262.54"/>
<polygon fill="midnightblue" stroke="midnightblue" points="677.81,-265.9 686.67,-260.08 676.12,-259.11 677.81,-265.9"/>
</g>
<!-- Node36 -->
<g id="node36" class="node">
<title>Node36</title>
<g id="a_node36"><a xlink:title=" ">
<polygon fill="white" stroke="#bfbfbf" points="270.5,-235.5 270.5,-265.5 385.5,-265.5 385.5,-235.5 270.5,-235.5"/>
<text text-anchor="start" x="278.5" y="-253.5" font-family="Helvetica,sans-Serif" font-size="10.00">boost/fusion/include</text>
<text text-anchor="middle" x="328" y="-242.5" font-family="Helvetica,sans-Serif" font-size="10.00">/at_key.hpp</text>
</a>
</g>
</g>
<!-- Node33&#45;&gt;Node36 -->
<g id="edge48" class="edge">
<title>Node33&#45;&gt;Node36</title>
<path fill="none" stroke="midnightblue" d="M443.34,-307.87C423.64,-298.24 391.2,-282.39 365.73,-269.94"/>
<polygon fill="midnightblue" stroke="midnightblue" points="367.22,-266.77 356.7,-265.53 364.15,-273.06 367.22,-266.77"/>
</g>
<!-- Node37 -->
<g id="node37" class="node">
<title>Node37</title>
<g id="a_node37"><a xlink:title=" ">
<polygon fill="white" stroke="#bfbfbf" points="403.5,-235.5 403.5,-265.5 518.5,-265.5 518.5,-235.5 403.5,-235.5"/>
<text text-anchor="start" x="411.5" y="-253.5" font-family="Helvetica,sans-Serif" font-size="10.00">boost/fusion/include</text>
<text text-anchor="middle" x="461" y="-242.5" font-family="Helvetica,sans-Serif" font-size="10.00">/for_each.hpp</text>
</a>
</g>
</g>
<!-- Node33&#45;&gt;Node37 -->
<g id="edge49" class="edge">
<title>Node33&#45;&gt;Node37</title>
<path fill="none" stroke="midnightblue" d="M461,-307.73C461,-299.54 461,-286.92 461,-275.71"/>
<polygon fill="midnightblue" stroke="midnightblue" points="464.5,-275.59 461,-265.59 457.5,-275.59 464.5,-275.59"/>
</g>
</g>
</svg>
        <g id="navigator" transform="translate(0 0)" fill="#404254">
                <rect fill="#f2f5e9" fill-opacity="0.5" stroke="#606060" stroke-width=".5" x="0" y="0" width="60" height="60"/>
                <use id="zoomplus" xlink:href="#zoomPlus" x="17" y="9" onmousedown="handleZoom(evt,'in')"/>
                <use id="zoomminus" xlink:href="#zoomMin" x="42" y="9" onmousedown="handleZoom(evt,'out')"/>
                <use id="reset" xlink:href="#resetDef" x="30" y="36" onmousedown="handleReset()"/>
                <g id="arrowUp" xlink:href="#dirArrow" transform="translate(30 24)" onmousedown="handlePan(0,-1)">
                  <use xlink:href="#rim" fill="#404040">
                        <set attributeName="fill" to="#808080" begin="arrowUp.mouseover" end="arrowUp.mouseout"/>
                  </use>
                  <path fill="none" stroke="white" stroke-width="1.5" d="M0,-3.0v7 M-2.5,-0.5L0,-3.0L2.5,-0.5"/>
                </g>
                <g id="arrowRight" xlink:href="#dirArrow" transform="rotate(90) translate(36 -43)" onmousedown="handlePan(1,0)">
                  <use xlink:href="#rim" fill="#404040">
                        <set attributeName="fill" to="#808080" begin="arrowRight.mouseover" end="arrowRight.mouseout"/>
                  </use>
                  <path fill="none" stroke="white" stroke-width="1.5" d="M0,-3.0v7 M-2.5,-0.5L0,-3.0L2.5,-0.5"/>
                </g>
                <g id="arrowDown" xlink:href="#dirArrow" transform="rotate(180) translate(-30 -48)" onmousedown="handlePan(0,1)">
                  <use xlink:href="#rim" fill="#404040">
                        <set attributeName="fill" to="#808080" begin="arrowDown.mouseover" end="arrowDown.mouseout"/>
                  </use>
                  <path fill="none" stroke="white" stroke-width="1.5" d="M0,-3.0v7 M-2.5,-0.5L0,-3.0L2.5,-0.5"/>
                </g>
                <g id="arrowLeft" xlink:href="#dirArrow" transform="rotate(270) translate(-36 17)" onmousedown="handlePan(-1,0)">
                  <use xlink:href="#rim" fill="#404040">
                        <set attributeName="fill" to="#808080" begin="arrowLeft.mouseover" end="arrowLeft.mouseout"/>
                  </use>
                  <path fill="none" stroke="white" stroke-width="1.5" d="M0,-3.0v7 M-2.5,-0.5L0,-3.0L2.5,-0.5"/>
                </g>
        </g>
        <svg viewBox="0 0 15 15" width="100%" height="30px" preserveAspectRatio="xMaxYMin meet">
         <g id="arrow_out" transform="scale(0.3 0.3)">
          <a xlink:href="_device_backend_impl_8cc__incl_org.svg" target="_base">
           <rect id="button" ry="5" rx="5" y="6" x="6" height="38" width="38"
                fill="#f2f5e9" fill-opacity="0.5" stroke="#606060" stroke-width="1.0"/>
           <path id="arrow"
             d="M 11.500037,31.436501 C 11.940474,20.09759 22.043105,11.32322 32.158766,21.979434 L 37.068811,17.246167 C 37.068811,17.246167 37.088388,32 37.088388,32 L 22.160133,31.978069 C 22.160133,31.978069 26.997745,27.140456 26.997745,27.140456 C 18.528582,18.264221 13.291696,25.230495 11.500037,31.436501 z"
             style="fill:#404040;"/>
          </a>
         </g>
        </svg>
</svg>
