<?xml version="1.0" encoding="UTF-8" standalone="no"?>
<!DOCTYPE svg PUBLIC "-//W3C//DTD SVG 1.1//EN"
 "http://www.w3.org/Graphics/SVG/1.1/DTD/svg11.dtd">
<!-- Generated by graphviz version 2.40.1 (20161225.0304)
 -->
<!-- Title: tests/RebotDummyServer/include/DummyProtocolImplementor.h Pages: 1 -->
<!--zoomable 240 -->
<svg id="main" version="1.1" xmlns="http://www.w3.org/2000/svg" xmlns:xlink="http://www.w3.org/1999/xlink" xml:space="preserve" onload="init(evt)">
<style type="text/css"><![CDATA[
.edge:hover path { stroke: red; }
.edge:hover polygon { stroke: red; fill: red; }
]]></style>
<script type="text/javascript"><![CDATA[
var edges = document.getElementsByTagName('g');
if (edges && edges.length) {
  for (var i=0;i<edges.length;i++) {
    if (edges[i].id.substr(0,4)=='edge') {
      edges[i].setAttribute('class','edge');
    }
  }
}
]]></script>
        <defs>
                <circle id="rim" cx="0" cy="0" r="7"/>
                <circle id="rim2" cx="0" cy="0" r="3.5"/>
                <g id="zoomPlus">
                        <use xlink:href="#rim" fill="#404040">
                                <set attributeName="fill" to="#808080" begin="zoomplus.mouseover" end="zoomplus.mouseout"/>
                        </use>
                        <path d="M-4,0h8M0,-4v8" fill="none" stroke="white" stroke-width="1.5" pointer-events="none"/>
                </g>
                <g id="zoomMin">
                        <use xlink:href="#rim" fill="#404040">
                                <set attributeName="fill" to="#808080" begin="zoomminus.mouseover" end="zoomminus.mouseout"/>
                        </use>
                        <path d="M-4,0h8" fill="none" stroke="white" stroke-width="1.5" pointer-events="none"/>
                </g>
                <g id="dirArrow">
                        <path fill="none" stroke="white" stroke-width="1.5" d="M0,-3.0v7 M-2.5,-0.5L0,-3.0L2.5,-0.5"/>
                </g>
               <g id="resetDef">
                       <use xlink:href="#rim2" fill="#404040">
                               <set attributeName="fill" to="#808080" begin="reset.mouseover" end="reset.mouseout"/>
                       </use>
               </g>
        </defs>

<script type="text/javascript">
var viewWidth = 922;
var viewHeight = 240;
var sectionId = 'dynsection-1';
</script>
<script xlink:href="svgpan.js"/>
<svg id="graph" class="graph">
<g id="viewport">
<title>tests/RebotDummyServer/include/DummyProtocolImplementor.h</title>
<polygon fill="#ffffff" stroke="transparent" points="-4,4 -4,-236 917.8185,-236 917.8185,4 -4,4"/>
<!-- Node3 -->
<g id="node1" class="node">
<title>Node3</title>
<polygon fill="#bfbfbf" stroke="#000000" points="469.8185,-201.5 469.8185,-231.5 677.8185,-231.5 677.8185,-201.5 469.8185,-201.5"/>
<text text-anchor="start" x="477.8185" y="-219.5" font-family="Helvetica,sans-Serif" font-size="10.00" fill="#000000">tests/RebotDummyServer</text>
<text text-anchor="middle" x="573.8185" y="-208.5" font-family="Helvetica,sans-Serif" font-size="10.00" fill="#000000">/include/DummyProtocolImplementor.h</text>
</g>
<!-- Node4 -->
<g id="node2" class="node">
<title>Node4</title>
<g id="a_node2"><a xlink:href="_dummy_protocol0_8h.html" target="_top" xlink:title="tests/RebotDummyServer\l/include/DummyProtocol0.h">
<polygon fill="#ffffff" stroke="#000000" points="596.8185,-134.5 596.8185,-164.5 748.8185,-164.5 748.8185,-134.5 596.8185,-134.5"/>
<text text-anchor="start" x="604.8185" y="-152.5" font-family="Helvetica,sans-Serif" font-size="10.00" fill="#000000">tests/RebotDummyServer</text>
<text text-anchor="middle" x="672.8185" y="-141.5" font-family="Helvetica,sans-Serif" font-size="10.00" fill="#000000">/include/DummyProtocol0.h</text>
</a>
</g>
</g>
<!-- Node3&#45;&gt;Node4 -->
<g id="edge1" class="edge">
<title>Node3&#45;&gt;Node4</title>
<path fill="none" stroke="#191970" d="M604.6584,-195.6286C619.4798,-185.5979 636.9161,-173.7976 650.4428,-164.6432"/>
<polygon fill="#191970" stroke="#191970" points="602.6032,-192.7932 596.2832,-201.2967 606.5266,-198.5904 602.6032,-192.7932"/>
</g>
<!-- Node9 -->
<g id="node7" class="node">
<title>Node9</title>
<g id="a_node7"><a xlink:href="_rebot_dummy_server_8h.html" target="_top" xlink:title="tests/RebotDummyServer\l/include/RebotDummyServer.h">
<polygon fill="#ffffff" stroke="#000000" points="392.8185,-134.5 392.8185,-164.5 556.8185,-164.5 556.8185,-134.5 392.8185,-134.5"/>
<text text-anchor="start" x="400.8185" y="-152.5" font-family="Helvetica,sans-Serif" font-size="10.00" fill="#000000">tests/RebotDummyServer</text>
<text text-anchor="middle" x="474.8185" y="-141.5" font-family="Helvetica,sans-Serif" font-size="10.00" fill="#000000">/include/RebotDummyServer.h</text>
</a>
</g>
</g>
<!-- Node3&#45;&gt;Node9 -->
<g id="edge6" class="edge">
<title>Node3&#45;&gt;Node9</title>
<path fill="none" stroke="#191970" d="M542.9787,-195.6286C528.1572,-185.5979 510.721,-173.7976 497.1943,-164.6432"/>
<polygon fill="#191970" stroke="#191970" points="541.1105,-198.5904 551.3539,-201.2967 545.0339,-192.7932 541.1105,-198.5904"/>
</g>
<!-- Node5 -->
<g id="node3" class="node">
<title>Node5</title>
<g id="a_node3"><a xlink:href="_dummy_protocol1_8h.html" target="_top" xlink:title="tests/RebotDummyServer\l/include/DummyProtocol1.h">
<polygon fill="#ffffff" stroke="#000000" points="761.8185,-67.5 761.8185,-97.5 913.8185,-97.5 913.8185,-67.5 761.8185,-67.5"/>
<text text-anchor="start" x="769.8185" y="-85.5" font-family="Helvetica,sans-Serif" font-size="10.00" fill="#000000">tests/RebotDummyServer</text>
<text text-anchor="middle" x="837.8185" y="-74.5" font-family="Helvetica,sans-Serif" font-size="10.00" fill="#000000">/include/DummyProtocol1.h</text>
</a>
</g>
</g>
<!-- Node4&#45;&gt;Node5 -->
<g id="edge2" class="edge">
<title>Node4&#45;&gt;Node5</title>
<path fill="none" stroke="#191970" d="M719.3888,-130.5897C745.094,-120.1518 776.5828,-107.3654 800.6278,-97.6017"/>
<polygon fill="#191970" stroke="#191970" points="717.7962,-127.4587 709.8478,-134.4639 720.4299,-133.9444 717.7962,-127.4587"/>
</g>
<!-- Node8 -->
<g id="node6" class="node">
<title>Node8</title>
<g id="a_node6"><a xlink:href="_dummy_protocol0_8cc.html" target="_top" xlink:title="tests/RebotDummyServer\l/src/DummyProtocol0.cc">
<polygon fill="#ffffff" stroke="#000000" points="601.8185,-67.5 601.8185,-97.5 743.8185,-97.5 743.8185,-67.5 601.8185,-67.5"/>
<text text-anchor="start" x="609.8185" y="-85.5" font-family="Helvetica,sans-Serif" font-size="10.00" fill="#000000">tests/RebotDummyServer</text>
<text text-anchor="middle" x="672.8185" y="-74.5" font-family="Helvetica,sans-Serif" font-size="10.00" fill="#000000">/src/DummyProtocol0.cc</text>
</a>
</g>
</g>
<!-- Node4&#45;&gt;Node8 -->
<g id="edge5" class="edge">
<title>Node4&#45;&gt;Node8</title>
<path fill="none" stroke="#191970" d="M672.8185,-124.0249C672.8185,-115.128 672.8185,-105.4287 672.8185,-97.6432"/>
<polygon fill="#191970" stroke="#191970" points="669.3186,-124.2966 672.8185,-134.2967 676.3186,-124.2967 669.3186,-124.2966"/>
</g>
<!-- Node6 -->
<g id="node4" class="node">
<title>Node6</title>
<g id="a_node4"><a xlink:href="_dummy_protocol1_8cc.html" target="_top" xlink:title="tests/RebotDummyServer\l/src/DummyProtocol1.cc">
<polygon fill="#ffffff" stroke="#000000" points="634.8185,-.5 634.8185,-30.5 776.8185,-30.5 776.8185,-.5 634.8185,-.5"/>
<text text-anchor="start" x="642.8185" y="-18.5" font-family="Helvetica,sans-Serif" font-size="10.00" fill="#000000">tests/RebotDummyServer</text>
<text text-anchor="middle" x="705.8185" y="-7.5" font-family="Helvetica,sans-Serif" font-size="10.00" fill="#000000">/src/DummyProtocol1.cc</text>
</a>
</g>
</g>
<!-- Node5&#45;&gt;Node6 -->
<g id="edge3" class="edge">
<title>Node5&#45;&gt;Node6</title>
<path fill="none" stroke="#191970" d="M799.2296,-62.9132C778.9998,-52.645 754.5918,-40.2561 735.7997,-30.7177"/>
<polygon fill="#191970" stroke="#191970" points="797.6939,-66.0587 808.1952,-67.4639 800.8622,-59.8168 797.6939,-66.0587"/>
</g>
<!-- Node7 -->
<g id="node5" class="node">
<title>Node7</title>
<g id="a_node5"><a xlink:href="_rebot_dummy_server_8cc.html" target="_top" xlink:title="tests/RebotDummyServer\l/src/RebotDummyServer.cc">
<polygon fill="#ffffff" stroke="#000000" points="257.8185,-.5 257.8185,-30.5 405.8185,-30.5 405.8185,-.5 257.8185,-.5"/>
<text text-anchor="start" x="265.8185" y="-18.5" font-family="Helvetica,sans-Serif" font-size="10.00" fill="#000000">tests/RebotDummyServer</text>
<text text-anchor="middle" x="331.8185" y="-7.5" font-family="Helvetica,sans-Serif" font-size="10.00" fill="#000000">/src/RebotDummyServer.cc</text>
</a>
</g>
</g>
<!-- Node5&#45;&gt;Node7 -->
<g id="edge4" class="edge">
<title>Node5&#45;&gt;Node7</title>
<path fill="none" stroke="#191970" d="M751.5045,-66.8474C624.6511,-47.7605 488.2681,-32.1332 406.1466,-23.259"/>
<polygon fill="#191970" stroke="#191970" points="750.9869,-70.3088 761.3983,-68.3462 752.0354,-63.3878 750.9869,-70.3088"/>
</g>
<!-- Node9&#45;&gt;Node6 -->
<g id="edge11" class="edge">
<title>Node9&#45;&gt;Node6</title>
<path fill="none" stroke="#191970" d="M508.4745,-129.0122C522.9823,-119.8811 539.9874,-108.7712 554.8185,-98 572.4542,-85.192 574.3052,-78.503 592.8185,-67 616.0753,-52.5497 644.0674,-39.7622 666.3726,-30.544"/>
<polygon fill="#191970" stroke="#191970" points="506.437,-126.158 499.8059,-134.4212 510.1426,-132.0968 506.437,-126.158"/>
</g>
<!-- Node9&#45;&gt;Node7 -->
<g id="edge12" class="edge">
<title>Node9&#45;&gt;Node7</title>
<path fill="none" stroke="#191970" d="M382.3208,-145.834C253.0652,-139.7462 31.3812,-125.4138 6.8185,-98 -2.3756,-87.7386 -2.129,-77.477 6.8185,-67 22.9338,-48.1301 166.8846,-31.1512 257.7207,-22.1888"/>
<polygon fill="#191970" stroke="#191970" points="382.4616,-149.3442 392.6129,-146.3105 382.7855,-142.3517 382.4616,-149.3442"/>
</g>
<!-- Node9&#45;&gt;Node8 -->
<g id="edge10" class="edge">
<title>Node9&#45;&gt;Node8</title>
<path fill="none" stroke="#191970" d="M529.0787,-131.1392C560.2146,-120.6033 598.8272,-107.5375 628.1897,-97.6017"/>
<polygon fill="#191970" stroke="#191970" points="527.6041,-127.9432 519.2536,-134.4639 529.8479,-134.5739 527.6041,-127.9432"/>
</g>
<!-- Node10 -->
<g id="node8" class="node">
<title>Node10</title>
<g id="a_node8"><a xlink:href="test_rebot_connection_timeouts_8cpp.html" target="_top" xlink:title="tests/executables_src\l/testRebotConnectionTimeouts.cpp">
<polygon fill="#ffffff" stroke="#000000" points="16.3185,-67.5 16.3185,-97.5 203.3185,-97.5 203.3185,-67.5 16.3185,-67.5"/>
<text text-anchor="start" x="24.3185" y="-85.5" font-family="Helvetica,sans-Serif" font-size="10.00" fill="#000000">tests/executables_src</text>
<text text-anchor="middle" x="109.8185" y="-74.5" font-family="Helvetica,sans-Serif" font-size="10.00" fill="#000000">/testRebotConnectionTimeouts.cpp</text>
</a>
</g>
</g>
<!-- Node9&#45;&gt;Node10 -->
<g id="edge7" class="edge">
<title>Node9&#45;&gt;Node10</title>
<path fill="none" stroke="#191970" d="M382.878,-132.6232C324.0899,-121.832 248.5085,-107.9582 191.7734,-97.5438"/>
<polygon fill="#191970" stroke="#191970" points="382.4378,-136.1008 392.9054,-134.4639 383.7017,-129.2159 382.4378,-136.1008"/>
</g>
<!-- Node11 -->
<g id="node9" class="node">
<title>Node11</title>
<g id="a_node9"><a xlink:href="test_rebot_heartbeat_count_8cpp.html" target="_top" xlink:title="tests/executables_src\l/testRebotHeartbeatCount.cpp">
<polygon fill="#ffffff" stroke="#000000" points="221.8185,-67.5 221.8185,-97.5 385.8185,-97.5 385.8185,-67.5 221.8185,-67.5"/>
<text text-anchor="start" x="229.8185" y="-85.5" font-family="Helvetica,sans-Serif" font-size="10.00" fill="#000000">tests/executables_src</text>
<text text-anchor="middle" x="303.8185" y="-74.5" font-family="Helvetica,sans-Serif" font-size="10.00" fill="#000000">/testRebotHeartbeatCount.cpp</text>
</a>
</g>
</g>
<!-- Node9&#45;&gt;Node11 -->
<g id="edge8" class="edge">
<title>Node9&#45;&gt;Node11</title>
<path fill="none" stroke="#191970" d="M426.9065,-130.7275C400.2025,-120.2645 367.3908,-107.4084 342.3616,-97.6017"/>
<polygon fill="#191970" stroke="#191970" points="425.8551,-134.0745 436.4428,-134.4639 428.4088,-127.5569 425.8551,-134.0745"/>
</g>
<!-- Node12 -->
<g id="node10" class="node">
<title>Node12</title>
<g id="a_node10"><a xlink:href="main_8cpp.html" target="_top" xlink:title="tests/RebotDummyServer\l/main.cpp">
<polygon fill="#ffffff" stroke="#000000" points="403.8185,-67.5 403.8185,-97.5 545.8185,-97.5 545.8185,-67.5 403.8185,-67.5"/>
<text text-anchor="start" x="411.8185" y="-85.5" font-family="Helvetica,sans-Serif" font-size="10.00" fill="#000000">tests/RebotDummyServer</text>
<text text-anchor="middle" x="474.8185" y="-74.5" font-family="Helvetica,sans-Serif" font-size="10.00" fill="#000000">/main.cpp</text>
</a>
</g>
</g>
<!-- Node9&#45;&gt;Node12 -->
<g id="edge9" class="edge">
<title>Node9&#45;&gt;Node12</title>
<path fill="none" stroke="#191970" d="M474.8185,-124.0249C474.8185,-115.128 474.8185,-105.4287 474.8185,-97.6432"/>
<polygon fill="#191970" stroke="#191970" points="471.3186,-124.2966 474.8185,-134.2967 478.3186,-124.2967 471.3186,-124.2966"/>
</g>
</g>
</svg>
        <g id="navigator" transform="translate(0 0)" fill="#404254">
                <rect fill="#f2f5e9" fill-opacity="0.5" stroke="#606060" stroke-width=".5" x="0" y="0" width="60" height="60"/>
                <use id="zoomplus" xlink:href="#zoomPlus" x="17" y="9" onmousedown="handleZoom(evt,'in')"/>
                <use id="zoomminus" xlink:href="#zoomMin" x="42" y="9" onmousedown="handleZoom(evt,'out')"/>
                <use id="reset" xlink:href="#resetDef" x="30" y="36" onmousedown="handleReset()"/>
                <g id="arrowUp" xlink:href="#dirArrow" transform="translate(30 24)" onmousedown="handlePan(0,-1)">
                  <use xlink:href="#rim" fill="#404040">
                        <set attributeName="fill" to="#808080" begin="arrowUp.mouseover" end="arrowUp.mouseout"/>
                  </use>
                  <path fill="none" stroke="white" stroke-width="1.5" d="M0,-3.0v7 M-2.5,-0.5L0,-3.0L2.5,-0.5"/>
                </g>
                <g id="arrowRight" xlink:href="#dirArrow" transform="rotate(90) translate(36 -43)" onmousedown="handlePan(1,0)">
                  <use xlink:href="#rim" fill="#404040">
                        <set attributeName="fill" to="#808080" begin="arrowRight.mouseover" end="arrowRight.mouseout"/>
                  </use>
                  <path fill="none" stroke="white" stroke-width="1.5" d="M0,-3.0v7 M-2.5,-0.5L0,-3.0L2.5,-0.5"/>
                </g>
                <g id="arrowDown" xlink:href="#dirArrow" transform="rotate(180) translate(-30 -48)" onmousedown="handlePan(0,1)">
                  <use xlink:href="#rim" fill="#404040">
                        <set attributeName="fill" to="#808080" begin="arrowDown.mouseover" end="arrowDown.mouseout"/>
                  </use>
                  <path fill="none" stroke="white" stroke-width="1.5" d="M0,-3.0v7 M-2.5,-0.5L0,-3.0L2.5,-0.5"/>
                </g>
                <g id="arrowLeft" xlink:href="#dirArrow" transform="rotate(270) translate(-36 17)" onmousedown="handlePan(-1,0)">
                  <use xlink:href="#rim" fill="#404040">
                        <set attributeName="fill" to="#808080" begin="arrowLeft.mouseover" end="arrowLeft.mouseout"/>
                  </use>
                  <path fill="none" stroke="white" stroke-width="1.5" d="M0,-3.0v7 M-2.5,-0.5L0,-3.0L2.5,-0.5"/>
                </g>
        </g>
        <svg viewBox="0 0 15 15" width="100%" height="30px" preserveAspectRatio="xMaxYMin meet">
         <g id="arrow_out" transform="scale(0.3 0.3)">
          <a xlink:href="_dummy_protocol_implementor_8h__dep__incl_org.svg" target="_base">
           <rect id="button" ry="5" rx="5" y="6" x="6" height="38" width="38"
                fill="#f2f5e9" fill-opacity="0.5" stroke="#606060" stroke-width="1.0"/>
           <path id="arrow"
             d="M 11.500037,31.436501 C 11.940474,20.09759 22.043105,11.32322 32.158766,21.979434 L 37.068811,17.246167 C 37.068811,17.246167 37.088388,32 37.088388,32 L 22.160133,31.978069 C 22.160133,31.978069 26.997745,27.140456 26.997745,27.140456 C 18.528582,18.264221 13.291696,25.230495 11.500037,31.436501 z"
             style="fill:#404040;"/>
          </a>
         </g>
        </svg>
</svg>
