<?xml version="1.0" encoding="UTF-8" standalone="no"?>
<!DOCTYPE svg PUBLIC "-//W3C//DTD SVG 1.1//EN"
 "http://www.w3.org/Graphics/SVG/1.1/DTD/svg11.dtd">
<!-- Generated by graphviz version 2.40.1 (20161225.0304)
 -->
<!-- Title: exception/src/Exception.cpp Pages: 1 -->
<svg width="202pt" height="140pt"
 viewBox="0.00 0.00 201.50 140.00" xmlns="http://www.w3.org/2000/svg" xmlns:xlink="http://www.w3.org/1999/xlink">
<g id="graph0" class="graph" transform="scale(1 1) rotate(0) translate(4 136)">
<title>exception/src/Exception.cpp</title>
<polygon fill="#ffffff" stroke="transparent" points="-4,4 -4,-136 197.5,-136 197.5,4 -4,4"/>
<!-- Node0 -->
<g id="node1" class="node">
<title>Node0</title>
<polygon fill="#bfbfbf" stroke="#000000" points="29,-112.5 29,-131.5 182,-131.5 182,-112.5 29,-112.5"/>
<text text-anchor="middle" x="105.5" y="-119.5" font-family="Helvetica,sans-Serif" font-size="10.00" fill="#000000">exception/src/Exception.cpp</text>
</g>
<!-- Node1 -->
<g id="node2" class="node">
<title>Node1</title>
<g id="a_node2"><a xlink:href="_exception_8h.html" target="_top" xlink:title="Exception.h">
<polygon fill="#ffffff" stroke="#000000" points="3.5,-56.5 3.5,-75.5 77.5,-75.5 77.5,-56.5 3.5,-56.5"/>
<text text-anchor="middle" x="40.5" y="-63.5" font-family="Helvetica,sans-Serif" font-size="10.00" fill="#000000">Exception.h</text>
</a>
</g>
</g>
<!-- Node0&#45;&gt;Node1 -->
<g id="edge1" class="edge">
<title>Node0&#45;&gt;Node1</title>
<path fill="none" stroke="#191970" d="M94.1779,-112.2455C84.5777,-103.9746 70.6108,-91.9416 59.3305,-82.2232"/>
<polygon fill="#191970" stroke="#191970" points="61.553,-79.5182 51.6924,-75.6427 56.984,-84.8214 61.553,-79.5182"/>
</g>
<!-- Node3 -->
<g id="node4" class="node">
<title>Node3</title>
<polygon fill="#ffffff" stroke="#bfbfbf" points="83.5,-.5 83.5,-19.5 127.5,-19.5 127.5,-.5 83.5,-.5"/>
<text text-anchor="middle" x="105.5" y="-7.5" font-family="Helvetica,sans-Serif" font-size="10.00" fill="#000000">string</text>
</g>
<!-- Node0&#45;&gt;Node3 -->
<g id="edge5" class="edge">
<title>Node0&#45;&gt;Node3</title>
<path fill="none" stroke="#191970" d="M105.5,-112.4509C105.5,-94.184 105.5,-53.9553 105.5,-29.6976"/>
<polygon fill="#191970" stroke="#191970" points="109.0001,-29.5249 105.5,-19.5249 102.0001,-29.5249 109.0001,-29.5249"/>
</g>
<!-- Node4 -->
<g id="node5" class="node">
<title>Node4</title>
<polygon fill="#ffffff" stroke="#bfbfbf" points="133.5,-56.5 133.5,-75.5 193.5,-75.5 193.5,-56.5 133.5,-56.5"/>
<text text-anchor="middle" x="163.5" y="-63.5" font-family="Helvetica,sans-Serif" font-size="10.00" fill="#000000">iostream</text>
</g>
<!-- Node0&#45;&gt;Node4 -->
<g id="edge4" class="edge">
<title>Node0&#45;&gt;Node4</title>
<path fill="none" stroke="#191970" d="M115.6028,-112.2455C124.0028,-104.1352 136.1494,-92.4075 146.1084,-82.7919"/>
<polygon fill="#191970" stroke="#191970" points="148.75,-85.1066 153.5129,-75.6427 143.8878,-80.0707 148.75,-85.1066"/>
</g>
<!-- Node2 -->
<g id="node3" class="node">
<title>Node2</title>
<polygon fill="#ffffff" stroke="#bfbfbf" points="0,-.5 0,-19.5 65,-19.5 65,-.5 0,-.5"/>
<text text-anchor="middle" x="32.5" y="-7.5" font-family="Helvetica,sans-Serif" font-size="10.00" fill="#000000">exception</text>
</g>
<!-- Node1&#45;&gt;Node2 -->
<g id="edge2" class="edge">
<title>Node1&#45;&gt;Node2</title>
<path fill="none" stroke="#191970" d="M39.1065,-56.2455C38.0626,-48.9382 36.5992,-38.6944 35.3149,-29.7046"/>
<polygon fill="#191970" stroke="#191970" points="38.7566,-29.0472 33.8775,-19.6427 31.827,-30.0372 38.7566,-29.0472"/>
</g>
<!-- Node1&#45;&gt;Node3 -->
<g id="edge3" class="edge">
<title>Node1&#45;&gt;Node3</title>
<path fill="none" stroke="#191970" d="M51.8221,-56.2455C61.4223,-47.9746 75.3892,-35.9416 86.6695,-26.2232"/>
<polygon fill="#191970" stroke="#191970" points="89.016,-28.8214 94.3076,-19.6427 84.447,-23.5182 89.016,-28.8214"/>
</g>
</g>
</svg>
