<?xml version="1.0" encoding="UTF-8" standalone="no"?>
<!DOCTYPE svg PUBLIC "-//W3C//DTD SVG 1.1//EN"
 "http://www.w3.org/Graphics/SVG/1.1/DTD/svg11.dtd">
<!-- Generated by graphviz version 2.40.1 (20161225.0304)
 -->
<!-- Title: device_backends/include/IEEE754_SingleConverter.h Pages: 1 -->
<!--zoomable 474 -->
<svg id="main" version="1.1" xmlns="http://www.w3.org/2000/svg" xmlns:xlink="http://www.w3.org/1999/xlink" xml:space="preserve" onload="init(evt)">
<style type="text/css"><![CDATA[
.edge:hover path { stroke: red; }
.edge:hover polygon { stroke: red; fill: red; }
]]></style>
<script type="text/javascript"><![CDATA[
var edges = document.getElementsByTagName('g');
if (edges && edges.length) {
  for (var i=0;i<edges.length;i++) {
    if (edges[i].id.substr(0,4)=='edge') {
      edges[i].setAttribute('class','edge');
    }
  }
}
]]></script>
        <defs>
                <circle id="rim" cx="0" cy="0" r="7"/>
                <circle id="rim2" cx="0" cy="0" r="3.5"/>
                <g id="zoomPlus">
                        <use xlink:href="#rim" fill="#404040">
                                <set attributeName="fill" to="#808080" begin="zoomplus.mouseover" end="zoomplus.mouseout"/>
                        </use>
                        <path d="M-4,0h8M0,-4v8" fill="none" stroke="white" stroke-width="1.5" pointer-events="none"/>
                </g>
                <g id="zoomMin">
                        <use xlink:href="#rim" fill="#404040">
                                <set attributeName="fill" to="#808080" begin="zoomminus.mouseover" end="zoomminus.mouseout"/>
                        </use>
                        <path d="M-4,0h8" fill="none" stroke="white" stroke-width="1.5" pointer-events="none"/>
                </g>
                <g id="dirArrow">
                        <path fill="none" stroke="white" stroke-width="1.5" d="M0,-3.0v7 M-2.5,-0.5L0,-3.0L2.5,-0.5"/>
                </g>
               <g id="resetDef">
                       <use xlink:href="#rim2" fill="#404040">
                               <set attributeName="fill" to="#808080" begin="reset.mouseover" end="reset.mouseout"/>
                       </use>
               </g>
        </defs>

<script type="text/javascript">
var viewWidth = 1500;
var viewHeight = 474;
var sectionId = 'dynsection-1';
</script>
<script xlink:href="svgpan.js"/>
<svg id="graph" class="graph">
<g id="viewport">
<title>device_backends/include/IEEE754_SingleConverter.h</title>
<polygon fill="#ffffff" stroke="transparent" points="-4,4 -4,-470 1495.5,-470 1495.5,4 -4,4"/>
<!-- Node6 -->
<g id="node1" class="node">
<title>Node6</title>
<polygon fill="#bfbfbf" stroke="#000000" points="1083.5,-435.5 1083.5,-465.5 1233.5,-465.5 1233.5,-435.5 1083.5,-435.5"/>
<text text-anchor="start" x="1091.5" y="-453.5" font-family="Helvetica,sans-Serif" font-size="10.00" fill="#000000">device_backends/include</text>
<text text-anchor="middle" x="1158.5" y="-442.5" font-family="Helvetica,sans-Serif" font-size="10.00" fill="#000000">/IEEE754_SingleConverter.h</text>
</g>
<!-- Node7 -->
<g id="node2" class="node">
<title>Node7</title>
<g id="a_node2"><a xlink:href="device__backends_2include_2_numeric_addressed_backend_register_accessor_8h.html" target="_top" xlink:title="device_backends/include\l/NumericAddressedBackendRegister\lAccessor.h">
<polygon fill="#ffffff" stroke="#000000" points="868.5,-357.5 868.5,-398.5 1062.5,-398.5 1062.5,-357.5 868.5,-357.5"/>
<text text-anchor="start" x="876.5" y="-386.5" font-family="Helvetica,sans-Serif" font-size="10.00" fill="#000000">device_backends/include</text>
<text text-anchor="start" x="876.5" y="-375.5" font-family="Helvetica,sans-Serif" font-size="10.00" fill="#000000">/NumericAddressedBackendRegister</text>
<text text-anchor="middle" x="965.5" y="-364.5" font-family="Helvetica,sans-Serif" font-size="10.00" fill="#000000">Accessor.h</text>
</a>
</g>
</g>
<!-- Node6&#45;&gt;Node7 -->
<g id="edge1" class="edge">
<title>Node6&#45;&gt;Node7</title>
<path fill="none" stroke="#191970" d="M1108.822,-431.8386C1081.6612,-421.6357 1047.9686,-408.9791 1020.0764,-398.5015"/>
<polygon fill="#191970" stroke="#191970" points="1107.9182,-435.2378 1118.5103,-435.478 1110.3798,-428.6849 1107.9182,-435.2378"/>
</g>
<!-- Node29 -->
<g id="node24" class="node">
<title>Node29</title>
<g id="a_node24"><a xlink:href="_i_e_e_e754___single_converter_8cc.html" target="_top" xlink:title="device_backends/src\l/IEEE754_SingleConverter.cc">
<polygon fill="#ffffff" stroke="#000000" points="1081,-363 1081,-393 1236,-393 1236,-363 1081,-363"/>
<text text-anchor="start" x="1089" y="-381" font-family="Helvetica,sans-Serif" font-size="10.00" fill="#000000">device_backends/src</text>
<text text-anchor="middle" x="1158.5" y="-370" font-family="Helvetica,sans-Serif" font-size="10.00" fill="#000000">/IEEE754_SingleConverter.cc</text>
</a>
</g>
</g>
<!-- Node6&#45;&gt;Node29 -->
<g id="edge25" class="edge">
<title>Node6&#45;&gt;Node29</title>
<path fill="none" stroke="#191970" d="M1158.5,-425.3409C1158.5,-414.5601 1158.5,-402.3309 1158.5,-393.0028"/>
<polygon fill="#191970" stroke="#191970" points="1155.0001,-425.4779 1158.5,-435.478 1162.0001,-425.478 1155.0001,-425.4779"/>
</g>
<!-- Node30 -->
<g id="node25" class="node">
<title>Node30</title>
<g id="a_node25"><a xlink:href="test_i_e_e_e754___single_converter_8cpp.html" target="_top" xlink:title="tests/executables_src\l/testIEEE754_SingleConverter.cpp">
<polygon fill="#ffffff" stroke="#000000" points="1254.5,-363 1254.5,-393 1434.5,-393 1434.5,-363 1254.5,-363"/>
<text text-anchor="start" x="1262.5" y="-381" font-family="Helvetica,sans-Serif" font-size="10.00" fill="#000000">tests/executables_src</text>
<text text-anchor="middle" x="1344.5" y="-370" font-family="Helvetica,sans-Serif" font-size="10.00" fill="#000000">/testIEEE754_SingleConverter.cpp</text>
</a>
</g>
</g>
<!-- Node6&#45;&gt;Node30 -->
<g id="edge26" class="edge">
<title>Node6&#45;&gt;Node30</title>
<path fill="none" stroke="#191970" d="M1206.7451,-431.6948C1237.6517,-419.6478 1277.2176,-404.2257 1306.0101,-393.0028"/>
<polygon fill="#191970" stroke="#191970" points="1205.0854,-428.5851 1197.0393,-435.478 1207.6277,-435.1072 1205.0854,-428.5851"/>
</g>
<!-- Node8 -->
<g id="node3" class="node">
<title>Node8</title>
<g id="a_node3"><a xlink:href="_dummy_backend_base_8h.html" target="_top" xlink:title="Common definitions and base class for DummyBackends. ">
<polygon fill="#ffffff" stroke="#000000" points="742,-218 742,-248 881,-248 881,-218 742,-218"/>
<text text-anchor="start" x="750" y="-236" font-family="Helvetica,sans-Serif" font-size="10.00" fill="#000000">device_backends/include</text>
<text text-anchor="middle" x="811.5" y="-225" font-family="Helvetica,sans-Serif" font-size="10.00" fill="#000000">/DummyBackendBase.h</text>
</a>
</g>
</g>
<!-- Node7&#45;&gt;Node8 -->
<g id="edge2" class="edge">
<title>Node7&#45;&gt;Node8</title>
<path fill="none" stroke="#191970" d="M936.078,-350.2975C903.9361,-320.034 853.6051,-272.6444 827.8622,-248.406"/>
<polygon fill="#191970" stroke="#191970" points="933.7556,-352.9181 943.4356,-357.225 938.5542,-347.8217 933.7556,-352.9181"/>
</g>
<!-- Node25 -->
<g id="node20" class="node">
<title>Node25</title>
<g id="a_node20"><a xlink:href="_numeric_addressed_interrupt_dispatcher_8h.html" target="_top" xlink:title="device_backends/include\l/NumericAddressedInterruptDispatcher.h">
<polygon fill="#ffffff" stroke="#000000" points="931,-290.5 931,-320.5 1146,-320.5 1146,-290.5 931,-290.5"/>
<text text-anchor="start" x="939" y="-308.5" font-family="Helvetica,sans-Serif" font-size="10.00" fill="#000000">device_backends/include</text>
<text text-anchor="middle" x="1038.5" y="-297.5" font-family="Helvetica,sans-Serif" font-size="10.00" fill="#000000">/NumericAddressedInterruptDispatcher.h</text>
</a>
</g>
</g>
<!-- Node7&#45;&gt;Node25 -->
<g id="edge19" class="edge">
<title>Node7&#45;&gt;Node25</title>
<path fill="none" stroke="#191970" d="M993.4026,-350.2885C1003.5568,-340.2038 1014.6523,-329.1843 1023.2968,-320.5991"/>
<polygon fill="#191970" stroke="#191970" points="990.8526,-347.8882 986.2236,-357.4183 995.7853,-352.855 990.8526,-347.8882"/>
</g>
<!-- Node9 -->
<g id="node4" class="node">
<title>Node9</title>
<g id="a_node4"><a xlink:href="device__backends_2include_2_dummy_backend_8h.html" target="_top" xlink:title="device_backends/include\l/DummyBackend.h">
<polygon fill="#ffffff" stroke="#000000" points="627,-145.5 627,-175.5 766,-175.5 766,-145.5 627,-145.5"/>
<text text-anchor="start" x="635" y="-163.5" font-family="Helvetica,sans-Serif" font-size="10.00" fill="#000000">device_backends/include</text>
<text text-anchor="middle" x="696.5" y="-152.5" font-family="Helvetica,sans-Serif" font-size="10.00" fill="#000000">/DummyBackend.h</text>
</a>
</g>
</g>
<!-- Node8&#45;&gt;Node9 -->
<g id="edge3" class="edge">
<title>Node8&#45;&gt;Node9</title>
<path fill="none" stroke="#191970" d="M779.1603,-212.6119C760.4566,-200.8205 737.3287,-186.2398 720.2975,-175.5028"/>
<polygon fill="#191970" stroke="#191970" points="777.3461,-215.6056 787.6719,-217.978 781.0792,-209.6842 777.3461,-215.6056"/>
</g>
<!-- Node20 -->
<g id="node15" class="node">
<title>Node20</title>
<g id="a_node15"><a xlink:href="_shared_dummy_backend_8h.html" target="_top" xlink:title="device_backends/SharedDummy\l/include/SharedDummyBackend.h">
<polygon fill="#ffffff" stroke="#000000" points="982.5,-145.5 982.5,-175.5 1164.5,-175.5 1164.5,-145.5 982.5,-145.5"/>
<text text-anchor="start" x="990.5" y="-163.5" font-family="Helvetica,sans-Serif" font-size="10.00" fill="#000000">device_backends/SharedDummy</text>
<text text-anchor="middle" x="1073.5" y="-152.5" font-family="Helvetica,sans-Serif" font-size="10.00" fill="#000000">/include/SharedDummyBackend.h</text>
</a>
</g>
</g>
<!-- Node8&#45;&gt;Node20 -->
<g id="edge14" class="edge">
<title>Node8&#45;&gt;Node20</title>
<path fill="none" stroke="#191970" d="M875.5347,-215.2805C919.6016,-203.0864 977.4968,-187.0658 1019.283,-175.5028"/>
<polygon fill="#191970" stroke="#191970" points="874.4909,-211.9377 865.7866,-217.978 876.3578,-218.6842 874.4909,-211.9377"/>
</g>
<!-- Node10 -->
<g id="node5" class="node">
<title>Node10</title>
<g id="a_node5"><a xlink:href="device__backends_2include_2_dummy_register_accessor_8h.html" target="_top" xlink:title="device_backends/include\l/DummyRegisterAccessor.h">
<polygon fill="#ffffff" stroke="#000000" points="449.5,-78.5 449.5,-108.5 599.5,-108.5 599.5,-78.5 449.5,-78.5"/>
<text text-anchor="start" x="457.5" y="-96.5" font-family="Helvetica,sans-Serif" font-size="10.00" fill="#000000">device_backends/include</text>
<text text-anchor="middle" x="524.5" y="-85.5" font-family="Helvetica,sans-Serif" font-size="10.00" fill="#000000">/DummyRegisterAccessor.h</text>
</a>
</g>
</g>
<!-- Node9&#45;&gt;Node10 -->
<g id="edge4" class="edge">
<title>Node9&#45;&gt;Node10</title>
<path fill="none" stroke="#191970" d="M648.3078,-141.7275C621.4477,-131.2645 588.4441,-118.4084 563.2685,-108.6017"/>
<polygon fill="#191970" stroke="#191970" points="647.3114,-145.0954 657.8998,-145.4639 649.8522,-138.5728 647.3114,-145.0954"/>
</g>
<!-- Node11 -->
<g id="node6" class="node">
<title>Node11</title>
<g id="a_node6"><a xlink:href="_exception_dummy_backend_8h.html" target="_top" xlink:title="device_backends/include\l/ExceptionDummyBackend.h">
<polygon fill="#ffffff" stroke="#000000" points="617.5,-78.5 617.5,-108.5 775.5,-108.5 775.5,-78.5 617.5,-78.5"/>
<text text-anchor="start" x="625.5" y="-96.5" font-family="Helvetica,sans-Serif" font-size="10.00" fill="#000000">device_backends/include</text>
<text text-anchor="middle" x="696.5" y="-85.5" font-family="Helvetica,sans-Serif" font-size="10.00" fill="#000000">/ExceptionDummyBackend.h</text>
</a>
</g>
</g>
<!-- Node9&#45;&gt;Node11 -->
<g id="edge5" class="edge">
<title>Node9&#45;&gt;Node11</title>
<path fill="none" stroke="#191970" d="M696.5,-135.0249C696.5,-126.128 696.5,-116.4287 696.5,-108.6432"/>
<polygon fill="#191970" stroke="#191970" points="693.0001,-135.2966 696.5,-145.2967 700.0001,-135.2967 693.0001,-135.2966"/>
</g>
<!-- Node12 -->
<g id="node7" class="node">
<title>Node12</title>
<g id="a_node7"><a xlink:href="test_exception_dummy_device_8cc.html" target="_top" xlink:title="tests/executables_src\l/testExceptionDummyDevice.cc">
<polygon fill="#ffffff" stroke="#000000" points="0,-6 0,-36 173,-36 173,-6 0,-6"/>
<text text-anchor="start" x="8" y="-24" font-family="Helvetica,sans-Serif" font-size="10.00" fill="#000000">tests/executables_src</text>
<text text-anchor="middle" x="86.5" y="-13" font-family="Helvetica,sans-Serif" font-size="10.00" fill="#000000">/testExceptionDummyDevice.cc</text>
</a>
</g>
</g>
<!-- Node11&#45;&gt;Node12 -->
<g id="edge6" class="edge">
<title>Node11&#45;&gt;Node12</title>
<path fill="none" stroke="#191970" d="M607.409,-77.9388C418.3395,-54.0585 367.1685,-69.8782 182.5,-42 171.7878,-40.3828 160.4832,-38.2759 149.5393,-36.0216"/>
<polygon fill="#191970" stroke="#191970" points="607.0333,-81.4192 617.3975,-79.2209 607.9245,-74.4762 607.0333,-81.4192"/>
</g>
<!-- Node13 -->
<g id="node8" class="node">
<title>Node13</title>
<g id="a_node8"><a xlink:href="test_l_map_backend_8cpp.html" target="_top" xlink:title="tests/executables_src\l/testLMapBackend.cpp">
<polygon fill="#ffffff" stroke="#000000" points="191.5,-6 191.5,-36 317.5,-36 317.5,-6 191.5,-6"/>
<text text-anchor="start" x="199.5" y="-24" font-family="Helvetica,sans-Serif" font-size="10.00" fill="#000000">tests/executables_src</text>
<text text-anchor="middle" x="254.5" y="-13" font-family="Helvetica,sans-Serif" font-size="10.00" fill="#000000">/testLMapBackend.cpp</text>
</a>
</g>
</g>
<!-- Node11&#45;&gt;Node13 -->
<g id="edge7" class="edge">
<title>Node11&#45;&gt;Node13</title>
<path fill="none" stroke="#191970" d="M607.3747,-77.8864C481.8272,-59.4571 447.0543,-67.114 326.5,-42 318.5968,-40.3536 310.2985,-38.2729 302.2601,-36.0649"/>
<polygon fill="#191970" stroke="#191970" points="606.9675,-81.3643 617.375,-79.3809 608.0022,-74.4412 606.9675,-81.3643"/>
</g>
<!-- Node14 -->
<g id="node9" class="node">
<title>Node14</title>
<g id="a_node9"><a xlink:href="test_l_map_backend_unified_8cpp.html" target="_top" xlink:title="tests/executables_src\l/testLMapBackendUnified.cpp">
<polygon fill="#ffffff" stroke="#000000" points="336,-6 336,-36 497,-36 497,-6 336,-6"/>
<text text-anchor="start" x="344" y="-24" font-family="Helvetica,sans-Serif" font-size="10.00" fill="#000000">tests/executables_src</text>
<text text-anchor="middle" x="416.5" y="-13" font-family="Helvetica,sans-Serif" font-size="10.00" fill="#000000">/testLMapBackendUnified.cpp</text>
</a>
</g>
</g>
<!-- Node11&#45;&gt;Node14 -->
<g id="edge8" class="edge">
<title>Node11&#45;&gt;Node14</title>
<path fill="none" stroke="#191970" d="M628.6588,-75.934C581.4918,-63.7211 519.2865,-47.6144 474.4419,-36.0028"/>
<polygon fill="#191970" stroke="#191970" points="627.9257,-79.3595 638.4838,-78.478 629.6804,-72.583 627.9257,-79.3595"/>
</g>
<!-- Node15 -->
<g id="node10" class="node">
<title>Node15</title>
<g id="a_node10"><a xlink:href="test_numeric_addressed_backend_register_accessor_8cpp.html" target="_top" xlink:title="tests/executables_src\l/testNumericAddressedBackend\lRegisterAccessor.cpp">
<polygon fill="#ffffff" stroke="#000000" points="515,-.5 515,-41.5 688,-41.5 688,-.5 515,-.5"/>
<text text-anchor="start" x="523" y="-29.5" font-family="Helvetica,sans-Serif" font-size="10.00" fill="#000000">tests/executables_src</text>
<text text-anchor="start" x="523" y="-18.5" font-family="Helvetica,sans-Serif" font-size="10.00" fill="#000000">/testNumericAddressedBackend</text>
<text text-anchor="middle" x="601.5" y="-7.5" font-family="Helvetica,sans-Serif" font-size="10.00" fill="#000000">RegisterAccessor.cpp</text>
</a>
</g>
</g>
<!-- Node11&#45;&gt;Node15 -->
<g id="edge9" class="edge">
<title>Node11&#45;&gt;Node15</title>
<path fill="none" stroke="#191970" d="M668.8236,-72.3785C656.077,-62.6509 641.0095,-51.152 628.364,-41.5015"/>
<polygon fill="#191970" stroke="#191970" points="666.743,-75.1935 676.8159,-78.478 670.9898,-69.6288 666.743,-75.1935"/>
</g>
<!-- Node16 -->
<g id="node11" class="node">
<title>Node16</title>
<g id="a_node11"><a xlink:href="test_numeric_addressed_backend_unified_8cpp.html" target="_top" xlink:title="tests/executables_src\l/testNumericAddressedBackend\lUnified.cpp">
<polygon fill="#ffffff" stroke="#000000" points="706,-.5 706,-41.5 879,-41.5 879,-.5 706,-.5"/>
<text text-anchor="start" x="714" y="-29.5" font-family="Helvetica,sans-Serif" font-size="10.00" fill="#000000">tests/executables_src</text>
<text text-anchor="start" x="714" y="-18.5" font-family="Helvetica,sans-Serif" font-size="10.00" fill="#000000">/testNumericAddressedBackend</text>
<text text-anchor="middle" x="792.5" y="-7.5" font-family="Helvetica,sans-Serif" font-size="10.00" fill="#000000">Unified.cpp</text>
</a>
</g>
</g>
<!-- Node11&#45;&gt;Node16 -->
<g id="edge10" class="edge">
<title>Node11&#45;&gt;Node16</title>
<path fill="none" stroke="#191970" d="M724.4678,-72.3785C737.3485,-62.6509 752.5747,-51.152 765.3532,-41.5015"/>
<polygon fill="#191970" stroke="#191970" points="722.262,-69.6583 716.3913,-78.478 726.4806,-75.2444 722.262,-69.6583"/>
</g>
<!-- Node17 -->
<g id="node12" class="node">
<title>Node17</title>
<g id="a_node12"><a xlink:href="test_subdevice_backend_unified_8cpp.html" target="_top" xlink:title="tests/executables_src\l/testSubdeviceBackendUnified.cpp">
<polygon fill="#ffffff" stroke="#000000" points="897,-6 897,-36 1082,-36 1082,-6 897,-6"/>
<text text-anchor="start" x="905" y="-24" font-family="Helvetica,sans-Serif" font-size="10.00" fill="#000000">tests/executables_src</text>
<text text-anchor="middle" x="989.5" y="-13" font-family="Helvetica,sans-Serif" font-size="10.00" fill="#000000">/testSubdeviceBackendUnified.cpp</text>
</a>
</g>
</g>
<!-- Node11&#45;&gt;Node17 -->
<g id="edge11" class="edge">
<title>Node11&#45;&gt;Node17</title>
<path fill="none" stroke="#191970" d="M767.1814,-76.0106C816.5755,-63.7885 881.8431,-47.6386 928.868,-36.0028"/>
<polygon fill="#191970" stroke="#191970" points="766.0763,-72.6784 757.2098,-78.478 767.7577,-79.4735 766.0763,-72.6784"/>
</g>
<!-- Node18 -->
<g id="node13" class="node">
<title>Node18</title>
<g id="a_node13"><a xlink:href="test_transfer_group_8cpp.html" target="_top" xlink:title="tests/executables_src\l/testTransferGroup.cpp">
<polygon fill="#ffffff" stroke="#000000" points="1100,-6 1100,-36 1227,-36 1227,-6 1100,-6"/>
<text text-anchor="start" x="1108" y="-24" font-family="Helvetica,sans-Serif" font-size="10.00" fill="#000000">tests/executables_src</text>
<text text-anchor="middle" x="1163.5" y="-13" font-family="Helvetica,sans-Serif" font-size="10.00" fill="#000000">/testTransferGroup.cpp</text>
</a>
</g>
</g>
<!-- Node11&#45;&gt;Node18 -->
<g id="edge12" class="edge">
<title>Node11&#45;&gt;Node18</title>
<path fill="none" stroke="#191970" d="M785.5948,-77.9033C921.7403,-58.6051 959.4004,-68.3853 1090.5,-42 1098.6449,-40.3608 1107.202,-38.2565 1115.4751,-36.0154"/>
<polygon fill="#191970" stroke="#191970" points="785.0165,-74.4505 775.6195,-79.344 786.0171,-81.3786 785.0165,-74.4505"/>
</g>
<!-- Node19 -->
<g id="node14" class="node">
<title>Node19</title>
<g id="a_node14"><a xlink:href="test_void_register_accessor_8cpp.html" target="_top" xlink:title="tests/executables_src\l/testVoidRegisterAccessor.cpp">
<polygon fill="#ffffff" stroke="#000000" points="1245.5,-6 1245.5,-36 1407.5,-36 1407.5,-6 1245.5,-6"/>
<text text-anchor="start" x="1253.5" y="-24" font-family="Helvetica,sans-Serif" font-size="10.00" fill="#000000">tests/executables_src</text>
<text text-anchor="middle" x="1326.5" y="-13" font-family="Helvetica,sans-Serif" font-size="10.00" fill="#000000">/testVoidRegisterAccessor.cpp</text>
</a>
</g>
</g>
<!-- Node11&#45;&gt;Node19 -->
<g id="edge13" class="edge">
<title>Node11&#45;&gt;Node19</title>
<path fill="none" stroke="#191970" d="M785.5736,-77.9479C986.1491,-53.1394 1040.5795,-72.4838 1236.5,-42 1246.6465,-40.4213 1257.3448,-38.3194 1267.6848,-36.0546"/>
<polygon fill="#191970" stroke="#191970" points="785.085,-74.4817 775.6001,-79.2027 785.9589,-81.4269 785.085,-74.4817"/>
</g>
<!-- Node21 -->
<g id="node16" class="node">
<title>Node21</title>
<g id="a_node16"><a xlink:href="_shared_dummy_backend_8cc.html" target="_top" xlink:title="device_backends/SharedDummy\l/src/SharedDummyBackend.cc">
<polygon fill="#ffffff" stroke="#000000" points="1315.5,-78.5 1315.5,-108.5 1491.5,-108.5 1491.5,-78.5 1315.5,-78.5"/>
<text text-anchor="start" x="1323.5" y="-96.5" font-family="Helvetica,sans-Serif" font-size="10.00" fill="#000000">device_backends/SharedDummy</text>
<text text-anchor="middle" x="1403.5" y="-85.5" font-family="Helvetica,sans-Serif" font-size="10.00" fill="#000000">/src/SharedDummyBackend.cc</text>
</a>
</g>
</g>
<!-- Node20&#45;&gt;Node21 -->
<g id="edge15" class="edge">
<title>Node20&#45;&gt;Node21</title>
<path fill="none" stroke="#191970" d="M1157.6144,-143.4222C1210.6217,-132.6601 1278.427,-118.8936 1329.4038,-108.5438"/>
<polygon fill="#191970" stroke="#191970" points="1156.6621,-140.0441 1147.5584,-145.4639 1158.0549,-146.9041 1156.6621,-140.0441"/>
</g>
<!-- Node22 -->
<g id="node17" class="node">
<title>Node22</title>
<g id="a_node17"><a xlink:href="_shared_memory_manager_8cc.html" target="_top" xlink:title="device_backends/SharedDummy\l/src/SharedMemoryManager.cc">
<polygon fill="#ffffff" stroke="#000000" points="985.5,-78.5 985.5,-108.5 1161.5,-108.5 1161.5,-78.5 985.5,-78.5"/>
<text text-anchor="start" x="993.5" y="-96.5" font-family="Helvetica,sans-Serif" font-size="10.00" fill="#000000">device_backends/SharedDummy</text>
<text text-anchor="middle" x="1073.5" y="-85.5" font-family="Helvetica,sans-Serif" font-size="10.00" fill="#000000">/src/SharedMemoryManager.cc</text>
</a>
</g>
</g>
<!-- Node20&#45;&gt;Node22 -->
<g id="edge16" class="edge">
<title>Node20&#45;&gt;Node22</title>
<path fill="none" stroke="#191970" d="M1073.5,-135.0249C1073.5,-126.128 1073.5,-116.4287 1073.5,-108.6432"/>
<polygon fill="#191970" stroke="#191970" points="1070.0001,-135.2966 1073.5,-145.2967 1077.0001,-135.2967 1070.0001,-135.2966"/>
</g>
<!-- Node23 -->
<g id="node18" class="node">
<title>Node23</title>
<g id="a_node18"><a xlink:href="_backend_factory_8cc.html" target="_top" xlink:title="device_backends/src\l/BackendFactory.cc">
<polygon fill="#ffffff" stroke="#000000" points="1179.5,-78.5 1179.5,-108.5 1297.5,-108.5 1297.5,-78.5 1179.5,-78.5"/>
<text text-anchor="start" x="1187.5" y="-96.5" font-family="Helvetica,sans-Serif" font-size="10.00" fill="#000000">device_backends/src</text>
<text text-anchor="middle" x="1238.5" y="-85.5" font-family="Helvetica,sans-Serif" font-size="10.00" fill="#000000">/BackendFactory.cc</text>
</a>
</g>
</g>
<!-- Node20&#45;&gt;Node23 -->
<g id="edge17" class="edge">
<title>Node20&#45;&gt;Node23</title>
<path fill="none" stroke="#191970" d="M1120.0702,-141.5897C1145.7755,-131.1518 1177.2642,-118.3654 1201.3093,-108.6017"/>
<polygon fill="#191970" stroke="#191970" points="1118.4777,-138.4587 1110.5292,-145.4639 1121.1113,-144.9444 1118.4777,-138.4587"/>
</g>
<!-- Node24 -->
<g id="node19" class="node">
<title>Node24</title>
<g id="a_node19"><a xlink:href="test_shared_dummy_backend_8cpp.html" target="_top" xlink:title="tests/executables_src\l/testSharedDummyBackend.cpp">
<polygon fill="#ffffff" stroke="#000000" points="794,-78.5 794,-108.5 967,-108.5 967,-78.5 794,-78.5"/>
<text text-anchor="start" x="802" y="-96.5" font-family="Helvetica,sans-Serif" font-size="10.00" fill="#000000">tests/executables_src</text>
<text text-anchor="middle" x="880.5" y="-85.5" font-family="Helvetica,sans-Serif" font-size="10.00" fill="#000000">/testSharedDummyBackend.cpp</text>
</a>
</g>
</g>
<!-- Node20&#45;&gt;Node24 -->
<g id="edge18" class="edge">
<title>Node20&#45;&gt;Node24</title>
<path fill="none" stroke="#191970" d="M1020.61,-142.1392C990.2604,-131.6033 952.6229,-118.5375 924.0019,-108.6017"/>
<polygon fill="#191970" stroke="#191970" points="1019.5922,-145.4907 1030.187,-145.4639 1021.8879,-138.8779 1019.5922,-145.4907"/>
</g>
<!-- Node25&#45;&gt;Node8 -->
<g id="edge20" class="edge">
<title>Node25&#45;&gt;Node8</title>
<path fill="none" stroke="#191970" d="M981.5701,-287.3175C943.5771,-275.1832 894.222,-259.42 858.4743,-248.0028"/>
<polygon fill="#191970" stroke="#191970" points="980.8746,-290.7695 991.4655,-290.478 983.0044,-284.1014 980.8746,-290.7695"/>
</g>
<!-- Node25&#45;&gt;Node21 -->
<g id="edge21" class="edge">
<title>Node25&#45;&gt;Node21</title>
<path fill="none" stroke="#191970" d="M1156.421,-295.0093C1250.2746,-285.5086 1368.4824,-270.5043 1384.5,-254 1422.9972,-214.3331 1413.4962,-140.6714 1407.072,-108.8249"/>
<polygon fill="#191970" stroke="#191970" points="1155.8665,-291.5472 1146.2648,-296.0258 1156.5637,-298.5124 1155.8665,-291.5472"/>
</g>
<!-- Node26 -->
<g id="node21" class="node">
<title>Node26</title>
<g id="a_node21"><a xlink:href="_dummy_backend_8cc.html" target="_top" xlink:title="device_backends/src\l/DummyBackend.cc">
<polygon fill="#ffffff" stroke="#000000" points="899.5,-218 899.5,-248 1017.5,-248 1017.5,-218 899.5,-218"/>
<text text-anchor="start" x="907.5" y="-236" font-family="Helvetica,sans-Serif" font-size="10.00" fill="#000000">device_backends/src</text>
<text text-anchor="middle" x="958.5" y="-225" font-family="Helvetica,sans-Serif" font-size="10.00" fill="#000000">/DummyBackend.cc</text>
</a>
</g>
</g>
<!-- Node25&#45;&gt;Node26 -->
<g id="edge22" class="edge">
<title>Node25&#45;&gt;Node26</title>
<path fill="none" stroke="#191970" d="M1014.3984,-283.6579C1001.6882,-272.1393 986.4201,-258.3026 975.0548,-248.0028"/>
<polygon fill="#191970" stroke="#191970" points="1012.1637,-286.3562 1021.9239,-290.478 1016.8644,-281.1693 1012.1637,-286.3562"/>
</g>
<!-- Node27 -->
<g id="node22" class="node">
<title>Node27</title>
<g id="a_node22"><a xlink:href="_numeric_addressed_backend_8cc.html" target="_top" xlink:title="device_backends/src\l/NumericAddressedBackend.cc">
<polygon fill="#ffffff" stroke="#000000" points="1036,-218 1036,-248 1203,-248 1203,-218 1036,-218"/>
<text text-anchor="start" x="1044" y="-236" font-family="Helvetica,sans-Serif" font-size="10.00" fill="#000000">device_backends/src</text>
<text text-anchor="middle" x="1119.5" y="-225" font-family="Helvetica,sans-Serif" font-size="10.00" fill="#000000">/NumericAddressedBackend.cc</text>
</a>
</g>
</g>
<!-- Node25&#45;&gt;Node27 -->
<g id="edge23" class="edge">
<title>Node25&#45;&gt;Node27</title>
<path fill="none" stroke="#191970" d="M1062.9029,-283.6579C1075.772,-272.1393 1091.2309,-258.3026 1102.7382,-248.0028"/>
<polygon fill="#191970" stroke="#191970" points="1060.4002,-281.2007 1055.2833,-290.478 1065.0688,-286.4166 1060.4002,-281.2007"/>
</g>
<!-- Node28 -->
<g id="node23" class="node">
<title>Node28</title>
<g id="a_node23"><a xlink:href="_numeric_addressed_interrupt_dispatcher_8cc.html" target="_top" xlink:title="device_backends/src\l/NumericAddressedInterrupt\lDispatcher.cc">
<polygon fill="#ffffff" stroke="#000000" points="1221.5,-212.5 1221.5,-253.5 1375.5,-253.5 1375.5,-212.5 1221.5,-212.5"/>
<text text-anchor="start" x="1229.5" y="-241.5" font-family="Helvetica,sans-Serif" font-size="10.00" fill="#000000">device_backends/src</text>
<text text-anchor="start" x="1229.5" y="-230.5" font-family="Helvetica,sans-Serif" font-size="10.00" fill="#000000">/NumericAddressedInterrupt</text>
<text text-anchor="middle" x="1298.5" y="-219.5" font-family="Helvetica,sans-Serif" font-size="10.00" fill="#000000">Dispatcher.cc</text>
</a>
</g>
</g>
<!-- Node25&#45;&gt;Node28 -->
<g id="edge24" class="edge">
<title>Node25&#45;&gt;Node28</title>
<path fill="none" stroke="#191970" d="M1102.079,-287.7712C1139.2191,-277.4149 1186.2488,-264.3008 1224.9773,-253.5015"/>
<polygon fill="#191970" stroke="#191970" points="1101.0646,-284.4205 1092.3722,-290.478 1102.9448,-291.1633 1101.0646,-284.4205"/>
</g>
</g>
</svg>
        <g id="navigator" transform="translate(0 0)" fill="#404254">
                <rect fill="#f2f5e9" fill-opacity="0.5" stroke="#606060" stroke-width=".5" x="0" y="0" width="60" height="60"/>
                <use id="zoomplus" xlink:href="#zoomPlus" x="17" y="9" onmousedown="handleZoom(evt,'in')"/>
                <use id="zoomminus" xlink:href="#zoomMin" x="42" y="9" onmousedown="handleZoom(evt,'out')"/>
                <use id="reset" xlink:href="#resetDef" x="30" y="36" onmousedown="handleReset()"/>
                <g id="arrowUp" xlink:href="#dirArrow" transform="translate(30 24)" onmousedown="handlePan(0,-1)">
                  <use xlink:href="#rim" fill="#404040">
                        <set attributeName="fill" to="#808080" begin="arrowUp.mouseover" end="arrowUp.mouseout"/>
                  </use>
                  <path fill="none" stroke="white" stroke-width="1.5" d="M0,-3.0v7 M-2.5,-0.5L0,-3.0L2.5,-0.5"/>
                </g>
                <g id="arrowRight" xlink:href="#dirArrow" transform="rotate(90) translate(36 -43)" onmousedown="handlePan(1,0)">
                  <use xlink:href="#rim" fill="#404040">
                        <set attributeName="fill" to="#808080" begin="arrowRight.mouseover" end="arrowRight.mouseout"/>
                  </use>
                  <path fill="none" stroke="white" stroke-width="1.5" d="M0,-3.0v7 M-2.5,-0.5L0,-3.0L2.5,-0.5"/>
                </g>
                <g id="arrowDown" xlink:href="#dirArrow" transform="rotate(180) translate(-30 -48)" onmousedown="handlePan(0,1)">
                  <use xlink:href="#rim" fill="#404040">
                        <set attributeName="fill" to="#808080" begin="arrowDown.mouseover" end="arrowDown.mouseout"/>
                  </use>
                  <path fill="none" stroke="white" stroke-width="1.5" d="M0,-3.0v7 M-2.5,-0.5L0,-3.0L2.5,-0.5"/>
                </g>
                <g id="arrowLeft" xlink:href="#dirArrow" transform="rotate(270) translate(-36 17)" onmousedown="handlePan(-1,0)">
                  <use xlink:href="#rim" fill="#404040">
                        <set attributeName="fill" to="#808080" begin="arrowLeft.mouseover" end="arrowLeft.mouseout"/>
                  </use>
                  <path fill="none" stroke="white" stroke-width="1.5" d="M0,-3.0v7 M-2.5,-0.5L0,-3.0L2.5,-0.5"/>
                </g>
        </g>
        <svg viewBox="0 0 15 15" width="100%" height="30px" preserveAspectRatio="xMaxYMin meet">
         <g id="arrow_out" transform="scale(0.3 0.3)">
          <a xlink:href="_i_e_e_e754___single_converter_8h__dep__incl_org.svg" target="_base">
           <rect id="button" ry="5" rx="5" y="6" x="6" height="38" width="38"
                fill="#f2f5e9" fill-opacity="0.5" stroke="#606060" stroke-width="1.0"/>
           <path id="arrow"
             d="M 11.500037,31.436501 C 11.940474,20.09759 22.043105,11.32322 32.158766,21.979434 L 37.068811,17.246167 C 37.068811,17.246167 37.088388,32 37.088388,32 L 22.160133,31.978069 C 22.160133,31.978069 26.997745,27.140456 26.997745,27.140456 C 18.528582,18.264221 13.291696,25.230495 11.500037,31.436501 z"
             style="fill:#404040;"/>
          </a>
         </g>
        </svg>
</svg>
