<?xml version="1.0" encoding="UTF-8" standalone="no"?>
<!DOCTYPE svg PUBLIC "-//W3C//DTD SVG 1.1//EN"
 "http://www.w3.org/Graphics/SVG/1.1/DTD/svg11.dtd">
<!-- Generated by graphviz version 2.43.0 (0)
 -->
<!-- Title: util/include/Utilities.h Pages: 1 -->
<svg width="535pt" height="140pt"
 viewBox="0.00 0.00 534.50 140.00" xmlns="http://www.w3.org/2000/svg" xmlns:xlink="http://www.w3.org/1999/xlink">
<g id="graph0" class="graph" transform="scale(1 1) rotate(0) translate(4 136)">
<title>util/include/Utilities.h</title>
<polygon fill="white" stroke="transparent" points="-4,4 -4,-136 530.5,-136 530.5,4 -4,4"/>
<!-- Node1 -->
<g id="node1" class="node">
<title>Node1</title>
<g id="a_node1"><a xlink:title=" ">
<polygon fill="#bfbfbf" stroke="black" points="331.5,-112.5 331.5,-131.5 452.5,-131.5 452.5,-112.5 331.5,-112.5"/>
<text text-anchor="middle" x="392" y="-119.5" font-family="Helvetica,sans-Serif" font-size="10.00">util/include/Utilities.h</text>
</a>
</g>
</g>
<!-- Node2 -->
<g id="node2" class="node">
<title>Node2</title>
<g id="a_node2"><a xlink:href="_device_info_map_8h.html" target="_top" xlink:title=" ">
<polygon fill="white" stroke="black" points="221.5,-56.5 221.5,-75.5 320.5,-75.5 320.5,-56.5 221.5,-56.5"/>
<text text-anchor="middle" x="271" y="-63.5" font-family="Helvetica,sans-Serif" font-size="10.00">DeviceInfoMap.h</text>
</a>
</g>
</g>
<!-- Node1&#45;&gt;Node2 -->
<g id="edge1" class="edge">
<title>Node1&#45;&gt;Node2</title>
<path fill="none" stroke="midnightblue" d="M372.83,-112.44C353.09,-103.64 322.11,-89.81 299.51,-79.72"/>
<polygon fill="midnightblue" stroke="midnightblue" points="300.64,-76.4 290.08,-75.52 297.79,-82.79 300.64,-76.4"/>
</g>
<!-- Node6 -->
<g id="node6" class="node">
<title>Node6</title>
<g id="a_node6"><a xlink:title=" ">
<polygon fill="white" stroke="#bfbfbf" points="349,-0.5 349,-19.5 381,-19.5 381,-0.5 349,-0.5"/>
<text text-anchor="middle" x="365" y="-7.5" font-family="Helvetica,sans-Serif" font-size="10.00">list</text>
</a>
</g>
</g>
<!-- Node1&#45;&gt;Node6 -->
<g id="edge11" class="edge">
<title>Node1&#45;&gt;Node6</title>
<path fill="none" stroke="midnightblue" d="M389.33,-112.42C386.57,-103.4 382.22,-88.77 379,-76 375.12,-60.59 371.36,-42.95 368.72,-29.95"/>
<polygon fill="midnightblue" stroke="midnightblue" points="372.1,-29 366.71,-19.88 365.24,-30.37 372.1,-29"/>
</g>
<!-- Node9 -->
<g id="node9" class="node">
<title>Node9</title>
<g id="a_node9"><a xlink:href="_exception_8h.html" target="_top" xlink:title=" ">
<polygon fill="white" stroke="black" points="388,-56.5 388,-75.5 462,-75.5 462,-56.5 388,-56.5"/>
<text text-anchor="middle" x="425" y="-63.5" font-family="Helvetica,sans-Serif" font-size="10.00">Exception.h</text>
</a>
</g>
</g>
<!-- Node1&#45;&gt;Node9 -->
<g id="edge8" class="edge">
<title>Node1&#45;&gt;Node9</title>
<path fill="none" stroke="midnightblue" d="M397.45,-112.08C402.01,-104.61 408.67,-93.72 414.29,-84.52"/>
<polygon fill="midnightblue" stroke="midnightblue" points="417.42,-86.11 419.65,-75.75 411.45,-82.46 417.42,-86.11"/>
</g>
<!-- Node11 -->
<g id="node11" class="node">
<title>Node11</title>
<g id="a_node11"><a xlink:title=" ">
<polygon fill="white" stroke="#bfbfbf" points="480,-56.5 480,-75.5 518,-75.5 518,-56.5 480,-56.5"/>
<text text-anchor="middle" x="499" y="-63.5" font-family="Helvetica,sans-Serif" font-size="10.00">map</text>
</a>
</g>
</g>
<!-- Node1&#45;&gt;Node11 -->
<g id="edge12" class="edge">
<title>Node1&#45;&gt;Node11</title>
<path fill="none" stroke="midnightblue" d="M409.19,-112.32C426.35,-103.66 452.95,-90.24 472.75,-80.25"/>
<polygon fill="midnightblue" stroke="midnightblue" points="474.5,-83.28 481.85,-75.65 471.35,-77.04 474.5,-83.28"/>
</g>
<!-- Node3 -->
<g id="node3" class="node">
<title>Node3</title>
<g id="a_node3"><a xlink:title=" ">
<polygon fill="white" stroke="#bfbfbf" points="211.5,-0.5 211.5,-19.5 330.5,-19.5 330.5,-0.5 211.5,-0.5"/>
<text text-anchor="middle" x="271" y="-7.5" font-family="Helvetica,sans-Serif" font-size="10.00">boost/shared_ptr.hpp</text>
</a>
</g>
</g>
<!-- Node2&#45;&gt;Node3 -->
<g id="edge2" class="edge">
<title>Node2&#45;&gt;Node3</title>
<path fill="none" stroke="midnightblue" d="M271,-56.08C271,-49.01 271,-38.86 271,-29.99"/>
<polygon fill="midnightblue" stroke="midnightblue" points="274.5,-29.75 271,-19.75 267.5,-29.75 274.5,-29.75"/>
</g>
<!-- Node4 -->
<g id="node4" class="node">
<title>Node4</title>
<g id="a_node4"><a xlink:title=" ">
<polygon fill="white" stroke="#bfbfbf" points="0,-0.5 0,-19.5 50,-19.5 50,-0.5 0,-0.5"/>
<text text-anchor="middle" x="25" y="-7.5" font-family="Helvetica,sans-Serif" font-size="10.00">cstdint</text>
</a>
</g>
</g>
<!-- Node2&#45;&gt;Node4 -->
<g id="edge3" class="edge">
<title>Node2&#45;&gt;Node4</title>
<path fill="none" stroke="midnightblue" d="M227.82,-56.49C186.98,-48.29 123.75,-35.22 60.03,-20.16"/>
<polygon fill="midnightblue" stroke="midnightblue" points="60.75,-16.73 50.22,-17.82 59.13,-23.54 60.75,-16.73"/>
</g>
<!-- Node5 -->
<g id="node5" class="node">
<title>Node5</title>
<g id="a_node5"><a xlink:title=" ">
<polygon fill="white" stroke="#bfbfbf" points="68,-0.5 68,-19.5 128,-19.5 128,-0.5 68,-0.5"/>
<text text-anchor="middle" x="98" y="-7.5" font-family="Helvetica,sans-Serif" font-size="10.00">iostream</text>
</a>
</g>
</g>
<!-- Node2&#45;&gt;Node5 -->
<g id="edge4" class="edge">
<title>Node2&#45;&gt;Node5</title>
<path fill="none" stroke="midnightblue" d="M243.59,-56.44C214.23,-47.28 167.48,-32.69 134.9,-22.52"/>
<polygon fill="midnightblue" stroke="midnightblue" points="135.87,-19.16 125.28,-19.52 133.79,-25.84 135.87,-19.16"/>
</g>
<!-- Node2&#45;&gt;Node6 -->
<g id="edge5" class="edge">
<title>Node2&#45;&gt;Node6</title>
<path fill="none" stroke="midnightblue" d="M286.1,-56.32C300.9,-47.82 323.69,-34.73 340.98,-24.8"/>
<polygon fill="midnightblue" stroke="midnightblue" points="343.01,-27.67 349.93,-19.65 339.52,-21.6 343.01,-27.67"/>
</g>
<!-- Node7 -->
<g id="node7" class="node">
<title>Node7</title>
<g id="a_node7"><a xlink:title=" ">
<polygon fill="white" stroke="#bfbfbf" points="399,-0.5 399,-19.5 443,-19.5 443,-0.5 399,-0.5"/>
<text text-anchor="middle" x="421" y="-7.5" font-family="Helvetica,sans-Serif" font-size="10.00">string</text>
</a>
</g>
</g>
<!-- Node2&#45;&gt;Node7 -->
<g id="edge6" class="edge">
<title>Node2&#45;&gt;Node7</title>
<path fill="none" stroke="midnightblue" d="M294.77,-56.44C320.34,-47.24 361.12,-32.56 389.38,-22.38"/>
<polygon fill="midnightblue" stroke="midnightblue" points="390.59,-25.67 398.81,-18.99 388.22,-19.08 390.59,-25.67"/>
</g>
<!-- Node8 -->
<g id="node8" class="node">
<title>Node8</title>
<g id="a_node8"><a xlink:title=" ">
<polygon fill="white" stroke="#bfbfbf" points="146.5,-0.5 146.5,-19.5 193.5,-19.5 193.5,-0.5 146.5,-0.5"/>
<text text-anchor="middle" x="170" y="-7.5" font-family="Helvetica,sans-Serif" font-size="10.00">vector</text>
</a>
</g>
</g>
<!-- Node2&#45;&gt;Node8 -->
<g id="edge7" class="edge">
<title>Node2&#45;&gt;Node8</title>
<path fill="none" stroke="midnightblue" d="M254.77,-56.32C238.65,-47.7 213.7,-34.36 195.04,-24.39"/>
<polygon fill="midnightblue" stroke="midnightblue" points="196.66,-21.28 186.19,-19.65 193.36,-27.46 196.66,-21.28"/>
</g>
<!-- Node9&#45;&gt;Node7 -->
<g id="edge10" class="edge">
<title>Node9&#45;&gt;Node7</title>
<path fill="none" stroke="midnightblue" d="M424.34,-56.08C423.82,-49.01 423.06,-38.86 422.41,-29.99"/>
<polygon fill="midnightblue" stroke="midnightblue" points="425.88,-29.47 421.65,-19.75 418.9,-29.98 425.88,-29.47"/>
</g>
<!-- Node10 -->
<g id="node10" class="node">
<title>Node10</title>
<g id="a_node10"><a xlink:title=" ">
<polygon fill="white" stroke="#bfbfbf" points="461.5,-0.5 461.5,-19.5 526.5,-19.5 526.5,-0.5 461.5,-0.5"/>
<text text-anchor="middle" x="494" y="-7.5" font-family="Helvetica,sans-Serif" font-size="10.00">exception</text>
</a>
</g>
</g>
<!-- Node9&#45;&gt;Node10 -->
<g id="edge9" class="edge">
<title>Node9&#45;&gt;Node10</title>
<path fill="none" stroke="midnightblue" d="M436.09,-56.32C446.49,-48.18 462.26,-35.84 474.72,-26.09"/>
<polygon fill="midnightblue" stroke="midnightblue" points="476.99,-28.75 482.71,-19.83 472.68,-23.24 476.99,-28.75"/>
</g>
</g>
</svg>
