<?xml version="1.0" encoding="UTF-8" standalone="no"?>
<!DOCTYPE svg PUBLIC "-//W3C//DTD SVG 1.1//EN"
 "http://www.w3.org/Graphics/SVG/1.1/DTD/svg11.dtd">
<!-- Generated by graphviz version 2.40.1 (20161225.0304)
 -->
<!-- Title: device_backends/xdma/src/XdmaBackend.cc Pages: 1 -->
<!--zoomable 274 -->
<svg id="main" version="1.1" xmlns="http://www.w3.org/2000/svg" xmlns:xlink="http://www.w3.org/1999/xlink" xml:space="preserve" onload="init(evt)">
<style type="text/css"><![CDATA[
.edge:hover path { stroke: red; }
.edge:hover polygon { stroke: red; fill: red; }
]]></style>
<script type="text/javascript"><![CDATA[
var edges = document.getElementsByTagName('g');
if (edges && edges.length) {
  for (var i=0;i<edges.length;i++) {
    if (edges[i].id.substr(0,4)=='edge') {
      edges[i].setAttribute('class','edge');
    }
  }
}
]]></script>
        <defs>
                <circle id="rim" cx="0" cy="0" r="7"/>
                <circle id="rim2" cx="0" cy="0" r="3.5"/>
                <g id="zoomPlus">
                        <use xlink:href="#rim" fill="#404040">
                                <set attributeName="fill" to="#808080" begin="zoomplus.mouseover" end="zoomplus.mouseout"/>
                        </use>
                        <path d="M-4,0h8M0,-4v8" fill="none" stroke="white" stroke-width="1.5" pointer-events="none"/>
                </g>
                <g id="zoomMin">
                        <use xlink:href="#rim" fill="#404040">
                                <set attributeName="fill" to="#808080" begin="zoomminus.mouseover" end="zoomminus.mouseout"/>
                        </use>
                        <path d="M-4,0h8" fill="none" stroke="white" stroke-width="1.5" pointer-events="none"/>
                </g>
                <g id="dirArrow">
                        <path fill="none" stroke="white" stroke-width="1.5" d="M0,-3.0v7 M-2.5,-0.5L0,-3.0L2.5,-0.5"/>
                </g>
               <g id="resetDef">
                       <use xlink:href="#rim2" fill="#404040">
                               <set attributeName="fill" to="#808080" begin="reset.mouseover" end="reset.mouseout"/>
                       </use>
               </g>
        </defs>

<script type="text/javascript">
var viewWidth = 1137;
var viewHeight = 274;
var sectionId = 'dynsection-0';
</script>
<script xlink:href="svgpan.js"/>
<svg id="graph" class="graph">
<g id="viewport">
<title>device_backends/xdma/src/XdmaBackend.cc</title>
<polygon fill="#ffffff" stroke="transparent" points="-4,4 -4,-270 1133,-270 1133,4 -4,4"/>
<!-- Node0 -->
<g id="node1" class="node">
<title>Node0</title>
<polygon fill="#bfbfbf" stroke="#000000" points="874.5,-235.5 874.5,-265.5 1005.5,-265.5 1005.5,-235.5 874.5,-235.5"/>
<text text-anchor="start" x="882.5" y="-253.5" font-family="Helvetica,sans-Serif" font-size="10.00" fill="#000000">device_backends/xdma</text>
<text text-anchor="middle" x="940" y="-242.5" font-family="Helvetica,sans-Serif" font-size="10.00" fill="#000000">/src/XdmaBackend.cc</text>
</g>
<!-- Node1 -->
<g id="node2" class="node">
<title>Node1</title>
<g id="a_node2"><a xlink:href="_xdma_backend_8h.html" target="_top" xlink:title="XdmaBackend.h">
<polygon fill="#ffffff" stroke="#000000" points="529,-179.5 529,-198.5 625,-198.5 625,-179.5 529,-179.5"/>
<text text-anchor="middle" x="577" y="-186.5" font-family="Helvetica,sans-Serif" font-size="10.00" fill="#000000">XdmaBackend.h</text>
</a>
</g>
</g>
<!-- Node0&#45;&gt;Node1 -->
<g id="edge1" class="edge">
<title>Node0&#45;&gt;Node1</title>
<path fill="none" stroke="#191970" d="M874.2634,-239.3628C806.0954,-227.8137 700.5358,-209.9296 635.2662,-198.8715"/>
<polygon fill="#191970" stroke="#191970" points="635.5929,-195.3771 625.1487,-197.1574 634.4235,-202.2787 635.5929,-195.3771"/>
</g>
<!-- Node16 -->
<g id="node17" class="node">
<title>Node16</title>
<polygon fill="#ffffff" stroke="#bfbfbf" points="860.5,-62 860.5,-81 925.5,-81 925.5,-62 860.5,-62"/>
<text text-anchor="middle" x="893" y="-69" font-family="Helvetica,sans-Serif" font-size="10.00" fill="#000000">functional</text>
</g>
<!-- Node0&#45;&gt;Node16 -->
<g id="edge29" class="edge">
<title>Node0&#45;&gt;Node16</title>
<path fill="none" stroke="#191970" d="M929.9325,-235.3704C923.7968,-225.4363 916.3281,-211.9322 912,-199 899.6811,-162.1917 895.3332,-116.7363 893.8101,-91.2452"/>
<polygon fill="#191970" stroke="#191970" points="897.2946,-90.8498 893.2905,-81.0407 890.3036,-91.2058 897.2946,-90.8498"/>
</g>
<!-- Node20 -->
<g id="node21" class="node">
<title>Node20</title>
<polygon fill="#ffffff" stroke="#bfbfbf" points="921,-179.5 921,-198.5 1055,-198.5 1055,-179.5 921,-179.5"/>
<text text-anchor="middle" x="988" y="-186.5" font-family="Helvetica,sans-Serif" font-size="10.00" fill="#000000">boost/make_shared.hpp</text>
</g>
<!-- Node0&#45;&gt;Node20 -->
<g id="edge27" class="edge">
<title>Node0&#45;&gt;Node20</title>
<path fill="none" stroke="#191970" d="M951.8652,-235.2977C958.5975,-226.672 967.0585,-215.8312 974.1006,-206.8087"/>
<polygon fill="#191970" stroke="#191970" points="976.921,-208.8836 980.3146,-198.8469 971.4027,-204.5766 976.921,-208.8836"/>
</g>
<!-- Node21 -->
<g id="node22" class="node">
<title>Node21</title>
<polygon fill="#ffffff" stroke="#bfbfbf" points="1073,-179.5 1073,-198.5 1129,-198.5 1129,-179.5 1073,-179.5"/>
<text text-anchor="middle" x="1101" y="-186.5" font-family="Helvetica,sans-Serif" font-size="10.00" fill="#000000">iomanip</text>
</g>
<!-- Node0&#45;&gt;Node21 -->
<g id="edge28" class="edge">
<title>Node0&#45;&gt;Node21</title>
<path fill="none" stroke="#191970" d="M979.385,-235.4554C1006.0127,-225.284 1040.8444,-211.9787 1066.4034,-202.2155"/>
<polygon fill="#191970" stroke="#191970" points="1067.958,-205.3684 1076.0507,-198.5303 1065.4601,-198.8292 1067.958,-205.3684"/>
</g>
<!-- Node2 -->
<g id="node3" class="node">
<title>Node2</title>
<polygon fill="#ffffff" stroke="#bfbfbf" points="675,-123.5 675,-142.5 725,-142.5 725,-123.5 675,-123.5"/>
<text text-anchor="middle" x="700" y="-130.5" font-family="Helvetica,sans-Serif" font-size="10.00" fill="#000000">atomic</text>
</g>
<!-- Node1&#45;&gt;Node2 -->
<g id="edge2" class="edge">
<title>Node1&#45;&gt;Node2</title>
<path fill="none" stroke="#191970" d="M598.1445,-179.3733C617.8892,-170.3838 647.5698,-156.8706 669.8055,-146.7471"/>
<polygon fill="#191970" stroke="#191970" points="671.4806,-149.8302 679.1315,-142.5011 668.58,-143.4594 671.4806,-149.8302"/>
</g>
<!-- Node3 -->
<g id="node4" class="node">
<title>Node3</title>
<polygon fill="#ffffff" stroke="#bfbfbf" points="743,-123.5 743,-142.5 799,-142.5 799,-123.5 743,-123.5"/>
<text text-anchor="middle" x="771" y="-130.5" font-family="Helvetica,sans-Serif" font-size="10.00" fill="#000000">optional</text>
</g>
<!-- Node1&#45;&gt;Node3 -->
<g id="edge3" class="edge">
<title>Node1&#45;&gt;Node3</title>
<path fill="none" stroke="#191970" d="M610.3498,-179.3733C644.3674,-169.5537 697.084,-154.3366 732.7691,-144.0357"/>
<polygon fill="#191970" stroke="#191970" points="734.1675,-147.275 742.8045,-141.1389 732.2261,-140.5496 734.1675,-147.275"/>
</g>
<!-- Node4 -->
<g id="node5" class="node">
<title>Node4</title>
<polygon fill="#ffffff" stroke="#bfbfbf" points="817.5,-123.5 817.5,-142.5 864.5,-142.5 864.5,-123.5 817.5,-123.5"/>
<text text-anchor="middle" x="841" y="-130.5" font-family="Helvetica,sans-Serif" font-size="10.00" fill="#000000">vector</text>
</g>
<!-- Node1&#45;&gt;Node4 -->
<g id="edge4" class="edge">
<title>Node1&#45;&gt;Node4</title>
<path fill="none" stroke="#191970" d="M625.0847,-180.8385C669.9147,-172.9126 738.7943,-159.9288 807.5812,-142.9163"/>
<polygon fill="#191970" stroke="#191970" points="808.4324,-146.3113 817.2842,-140.4891 806.7337,-139.5205 808.4324,-146.3113"/>
</g>
<!-- Node5 -->
<g id="node6" class="node">
<title>Node5</title>
<polygon fill="#ffffff" stroke="#bfbfbf" points="0,-.5 0,-19.5 154,-19.5 154,-.5 0,-.5"/>
<text text-anchor="middle" x="77" y="-7.5" font-family="Helvetica,sans-Serif" font-size="10.00" fill="#000000">boost/core/noncopyable.hpp</text>
</g>
<!-- Node1&#45;&gt;Node5 -->
<g id="edge5" class="edge">
<title>Node1&#45;&gt;Node5</title>
<path fill="none" stroke="#191970" d="M528.9814,-187.6109C460.5636,-184.5357 331.7137,-174.6637 227,-143 172.9666,-126.6612 152.5296,-127.2986 113,-87 97.233,-70.9262 87.4724,-46.6603 82.1593,-29.6772"/>
<polygon fill="#191970" stroke="#191970" points="85.4243,-28.3673 79.2917,-19.7278 78.6981,-30.306 85.4243,-28.3673"/>
</g>
<!-- Node6 -->
<g id="node7" class="node">
<title>Node6</title>
<g id="a_node7"><a xlink:href="_ctrl_intf_8h.html" target="_top" xlink:title="CtrlIntf.h">
<polygon fill="#ffffff" stroke="#000000" points="236.5,-123.5 236.5,-142.5 295.5,-142.5 295.5,-123.5 236.5,-123.5"/>
<text text-anchor="middle" x="266" y="-130.5" font-family="Helvetica,sans-Serif" font-size="10.00" fill="#000000">CtrlIntf.h</text>
</a>
</g>
</g>
<!-- Node1&#45;&gt;Node6 -->
<g id="edge6" class="edge">
<title>Node1&#45;&gt;Node6</title>
<path fill="none" stroke="#191970" d="M528.7188,-181.7036C474.7444,-173.3241 384.8254,-158.6976 308,-143 307.2564,-142.8481 306.506,-142.6925 305.7504,-142.5339"/>
<polygon fill="#191970" stroke="#191970" points="306.2933,-139.0697 295.7748,-140.3394 304.7893,-145.9062 306.2933,-139.0697"/>
</g>
<!-- Node12 -->
<g id="node13" class="node">
<title>Node12</title>
<g id="a_node13"><a xlink:href="_dma_intf_8h.html" target="_top" xlink:title="DmaIntf.h">
<polygon fill="#ffffff" stroke="#000000" points="317.5,-123.5 317.5,-142.5 382.5,-142.5 382.5,-123.5 317.5,-123.5"/>
<text text-anchor="middle" x="350" y="-130.5" font-family="Helvetica,sans-Serif" font-size="10.00" fill="#000000">DmaIntf.h</text>
</a>
</g>
</g>
<!-- Node1&#45;&gt;Node12 -->
<g id="edge14" class="edge">
<title>Node1&#45;&gt;Node12</title>
<path fill="none" stroke="#191970" d="M538.2352,-179.4369C497.7591,-169.4516 434.4558,-153.8349 392.6035,-143.5101"/>
<polygon fill="#191970" stroke="#191970" points="393.2606,-140.0674 382.7133,-141.0702 391.5839,-146.8636 393.2606,-140.0674"/>
</g>
<!-- Node13 -->
<g id="node14" class="node">
<title>Node13</title>
<g id="a_node14"><a xlink:href="_event_file_8h.html" target="_top" xlink:title="EventFile.h">
<polygon fill="#ffffff" stroke="#000000" points="409,-123.5 409,-142.5 479,-142.5 479,-123.5 409,-123.5"/>
<text text-anchor="middle" x="444" y="-130.5" font-family="Helvetica,sans-Serif" font-size="10.00" fill="#000000">EventFile.h</text>
</a>
</g>
</g>
<!-- Node1&#45;&gt;Node13 -->
<g id="edge18" class="edge">
<title>Node1&#45;&gt;Node13</title>
<path fill="none" stroke="#191970" d="M554.1365,-179.3733C532.595,-170.3032 500.1162,-156.6279 476.0044,-146.4755"/>
<polygon fill="#191970" stroke="#191970" points="477.1397,-143.156 466.5652,-142.5011 474.4233,-149.6075 477.1397,-143.156"/>
</g>
<!-- Node19 -->
<g id="node20" class="node">
<title>Node19</title>
<polygon fill="#ffffff" stroke="#bfbfbf" points="497,-123.5 497,-142.5 657,-142.5 657,-123.5 497,-123.5"/>
<text text-anchor="middle" x="577" y="-130.5" font-family="Helvetica,sans-Serif" font-size="10.00" fill="#000000">NumericAddressedBackend.h</text>
</g>
<!-- Node1&#45;&gt;Node19 -->
<g id="edge26" class="edge">
<title>Node1&#45;&gt;Node19</title>
<path fill="none" stroke="#191970" d="M577,-179.2455C577,-171.9382 577,-161.6944 577,-152.7046"/>
<polygon fill="#191970" stroke="#191970" points="580.5001,-152.6426 577,-142.6427 573.5001,-152.6427 580.5001,-152.6426"/>
</g>
<!-- Node7 -->
<g id="node8" class="node">
<title>Node7</title>
<polygon fill="#ffffff" stroke="#bfbfbf" points="342,-.5 342,-19.5 386,-19.5 386,-.5 342,-.5"/>
<text text-anchor="middle" x="364" y="-7.5" font-family="Helvetica,sans-Serif" font-size="10.00" fill="#000000">string</text>
</g>
<!-- Node6&#45;&gt;Node7 -->
<g id="edge7" class="edge">
<title>Node6&#45;&gt;Node7</title>
<path fill="none" stroke="#191970" d="M265.4103,-123.4731C264.9361,-107.8535 266.1053,-76.4904 281,-56 293.5051,-38.7969 314.5044,-27.2465 332.2511,-20.0224"/>
<polygon fill="#191970" stroke="#191970" points="333.5876,-23.259 341.7012,-16.4457 331.1097,-16.7122 333.5876,-23.259"/>
</g>
<!-- Node8 -->
<g id="node9" class="node">
<title>Node8</title>
<g id="a_node9"><a xlink:href="_device_file_8h.html" target="_top" xlink:title="DeviceFile.h">
<polygon fill="#ffffff" stroke="#000000" points="290,-62 290,-81 366,-81 366,-62 290,-62"/>
<text text-anchor="middle" x="328" y="-69" font-family="Helvetica,sans-Serif" font-size="10.00" fill="#000000">DeviceFile.h</text>
</a>
</g>
</g>
<!-- Node6&#45;&gt;Node8 -->
<g id="edge8" class="edge">
<title>Node6&#45;&gt;Node8</title>
<path fill="none" stroke="#191970" d="M275.6875,-123.3906C285.0959,-114.0581 299.5807,-99.6902 310.9249,-88.4374"/>
<polygon fill="#191970" stroke="#191970" points="313.5411,-90.7722 318.1759,-81.2449 308.6114,-85.8024 313.5411,-90.7722"/>
</g>
<!-- Node9 -->
<g id="node10" class="node">
<title>Node9</title>
<g id="a_node10"><a xlink:href="_xdma_intf_abstract_8h.html" target="_top" xlink:title="XdmaIntfAbstract.h">
<polygon fill="#ffffff" stroke="#000000" points="122.5,-62 122.5,-81 233.5,-81 233.5,-62 122.5,-62"/>
<text text-anchor="middle" x="178" y="-69" font-family="Helvetica,sans-Serif" font-size="10.00" fill="#000000">XdmaIntfAbstract.h</text>
</a>
</g>
</g>
<!-- Node6&#45;&gt;Node9 -->
<g id="edge11" class="edge">
<title>Node6&#45;&gt;Node9</title>
<path fill="none" stroke="#191970" d="M252.25,-123.3906C238.3009,-113.6421 216.4902,-98.3994 200.1103,-86.9521"/>
<polygon fill="#191970" stroke="#191970" points="201.8551,-83.9015 191.6534,-81.0419 197.8452,-89.6392 201.8551,-83.9015"/>
</g>
<!-- Node8&#45;&gt;Node5 -->
<g id="edge9" class="edge">
<title>Node8&#45;&gt;Node5</title>
<path fill="none" stroke="#191970" d="M289.8785,-62.1595C245.9627,-51.3992 173.7084,-33.6955 125.7419,-21.9427"/>
<polygon fill="#191970" stroke="#191970" points="126.4396,-18.5102 115.8939,-19.5298 124.7737,-25.3091 126.4396,-18.5102"/>
</g>
<!-- Node8&#45;&gt;Node7 -->
<g id="edge10" class="edge">
<title>Node8&#45;&gt;Node7</title>
<path fill="none" stroke="#191970" d="M333.625,-61.8906C338.8253,-53.0068 346.6966,-39.5601 353.1233,-28.5811"/>
<polygon fill="#191970" stroke="#191970" points="356.2644,-30.1432 358.2957,-19.7449 350.2233,-26.6069 356.2644,-30.1432"/>
</g>
<!-- Node10 -->
<g id="node11" class="node">
<title>Node10</title>
<polygon fill="#ffffff" stroke="#bfbfbf" points="172,-.5 172,-19.5 222,-19.5 222,-.5 172,-.5"/>
<text text-anchor="middle" x="197" y="-7.5" font-family="Helvetica,sans-Serif" font-size="10.00" fill="#000000">cstdint</text>
</g>
<!-- Node9&#45;&gt;Node10 -->
<g id="edge12" class="edge">
<title>Node9&#45;&gt;Node10</title>
<path fill="none" stroke="#191970" d="M180.9688,-61.8906C183.6302,-53.276 187.6171,-40.3708 190.9491,-29.5858"/>
<polygon fill="#191970" stroke="#191970" points="194.3816,-30.3324 193.9894,-19.7449 187.6935,-28.2661 194.3816,-30.3324"/>
</g>
<!-- Node11 -->
<g id="node12" class="node">
<title>Node11</title>
<polygon fill="#ffffff" stroke="#bfbfbf" points="240.5,-.5 240.5,-19.5 293.5,-19.5 293.5,-.5 240.5,-.5"/>
<text text-anchor="middle" x="267" y="-7.5" font-family="Helvetica,sans-Serif" font-size="10.00" fill="#000000">cstddef</text>
</g>
<!-- Node9&#45;&gt;Node11 -->
<g id="edge13" class="edge">
<title>Node9&#45;&gt;Node11</title>
<path fill="none" stroke="#191970" d="M191.9063,-61.8906C206.0138,-52.1421 228.0724,-36.8994 244.6385,-25.4521"/>
<polygon fill="#191970" stroke="#191970" points="246.9542,-28.1063 253.1914,-19.5419 242.9747,-22.3474 246.9542,-28.1063"/>
</g>
<!-- Node12&#45;&gt;Node7 -->
<g id="edge15" class="edge">
<title>Node12&#45;&gt;Node7</title>
<path fill="none" stroke="#191970" d="M357.1015,-123.3724C363.2052,-114.4569 371.5517,-100.5662 375,-87 379.9193,-67.6467 375.4851,-44.9596 370.8619,-29.2477"/>
<polygon fill="#191970" stroke="#191970" points="374.1525,-28.048 367.7437,-19.6112 367.4925,-30.2031 374.1525,-28.048"/>
</g>
<!-- Node12&#45;&gt;Node8 -->
<g id="edge16" class="edge">
<title>Node12&#45;&gt;Node8</title>
<path fill="none" stroke="#191970" d="M346.5625,-123.3906C343.4487,-114.6862 338.768,-101.6015 334.886,-90.7494"/>
<polygon fill="#191970" stroke="#191970" points="338.1497,-89.4817 331.486,-81.2449 331.5588,-91.8394 338.1497,-89.4817"/>
</g>
<!-- Node12&#45;&gt;Node9 -->
<g id="edge17" class="edge">
<title>Node12&#45;&gt;Node9</title>
<path fill="none" stroke="#191970" d="M323.125,-123.3906C293.8414,-112.92 246.831,-96.1111 214.2863,-84.4745"/>
<polygon fill="#191970" stroke="#191970" points="215.2809,-81.1131 204.6863,-81.0419 212.9241,-87.7045 215.2809,-81.1131"/>
</g>
<!-- Node13&#45;&gt;Node7 -->
<g id="edge19" class="edge">
<title>Node13&#45;&gt;Node7</title>
<path fill="none" stroke="#191970" d="M437.7225,-123.3484C424.4034,-102.8703 393.1265,-54.782 375.8999,-28.2962"/>
<polygon fill="#191970" stroke="#191970" points="378.6346,-26.0814 370.2483,-19.6068 372.7666,-29.898 378.6346,-26.0814"/>
</g>
<!-- Node13&#45;&gt;Node8 -->
<g id="edge25" class="edge">
<title>Node13&#45;&gt;Node8</title>
<path fill="none" stroke="#191970" d="M425.875,-123.3906C406.8917,-113.3262 376.8627,-97.4057 355.0693,-85.8514"/>
<polygon fill="#191970" stroke="#191970" points="356.4723,-82.6338 345.9977,-81.0419 353.1934,-88.8184 356.4723,-82.6338"/>
</g>
<!-- Node14 -->
<g id="node15" class="node">
<title>Node14</title>
<polygon fill="#ffffff" stroke="#bfbfbf" points="460,-62 460,-81 508,-81 508,-62 460,-62"/>
<text text-anchor="middle" x="484" y="-69" font-family="Helvetica,sans-Serif" font-size="10.00" fill="#000000">thread</text>
</g>
<!-- Node13&#45;&gt;Node14 -->
<g id="edge20" class="edge">
<title>Node13&#45;&gt;Node14</title>
<path fill="none" stroke="#191970" d="M450.25,-123.3906C456.0865,-114.417 464.9509,-100.7879 472.1306,-89.7491"/>
<polygon fill="#191970" stroke="#191970" points="475.1436,-91.5361 477.6619,-81.2449 469.2755,-87.7194 475.1436,-91.5361"/>
</g>
<!-- Node15 -->
<g id="node16" class="node">
<title>Node15</title>
<polygon fill="#ffffff" stroke="#bfbfbf" points="526,-62 526,-81 584,-81 584,-62 526,-62"/>
<text text-anchor="middle" x="555" y="-69" font-family="Helvetica,sans-Serif" font-size="10.00" fill="#000000">memory</text>
</g>
<!-- Node13&#45;&gt;Node15 -->
<g id="edge21" class="edge">
<title>Node13&#45;&gt;Node15</title>
<path fill="none" stroke="#191970" d="M461.3438,-123.3906C479.4273,-113.3713 507.9859,-97.5483 528.8165,-86.0071"/>
<polygon fill="#191970" stroke="#191970" points="530.7271,-88.9498 537.778,-81.0419 527.3346,-82.8268 530.7271,-88.9498"/>
</g>
<!-- Node13&#45;&gt;Node16 -->
<g id="edge22" class="edge">
<title>Node13&#45;&gt;Node16</title>
<path fill="none" stroke="#191970" d="M479.4671,-124.5403C482.3456,-123.9756 485.2164,-123.4525 488,-123 648.0238,-96.9844 693.0051,-123.3601 851,-87 854.1812,-86.2679 857.4491,-85.3588 860.6896,-84.3505"/>
<polygon fill="#191970" stroke="#191970" points="861.8775,-87.6434 870.2147,-81.1058 859.6203,-81.0173 861.8775,-87.6434"/>
</g>
<!-- Node17 -->
<g id="node18" class="node">
<title>Node17</title>
<polygon fill="#ffffff" stroke="#bfbfbf" points="602,-62 602,-81 690,-81 690,-62 602,-62"/>
<text text-anchor="middle" x="646" y="-69" font-family="Helvetica,sans-Serif" font-size="10.00" fill="#000000">boost/asio.hpp</text>
</g>
<!-- Node13&#45;&gt;Node17 -->
<g id="edge23" class="edge">
<title>Node13&#45;&gt;Node17</title>
<path fill="none" stroke="#191970" d="M475.5625,-123.3906C510.3985,-112.7846 566.595,-95.6753 604.8588,-84.0257"/>
<polygon fill="#191970" stroke="#191970" points="606.1121,-87.3028 614.6591,-81.0419 604.0733,-80.6063 606.1121,-87.3028"/>
</g>
<!-- Node18 -->
<g id="node19" class="node">
<title>Node18</title>
<polygon fill="#ffffff" stroke="#bfbfbf" points="708,-56.5 708,-86.5 842,-86.5 842,-56.5 708,-56.5"/>
<text text-anchor="start" x="716" y="-74.5" font-family="Helvetica,sans-Serif" font-size="10.00" fill="#000000">boost/asio/posix/stream</text>
<text text-anchor="middle" x="775" y="-63.5" font-family="Helvetica,sans-Serif" font-size="10.00" fill="#000000">_descriptor.hpp</text>
</g>
<!-- Node13&#45;&gt;Node18 -->
<g id="edge24" class="edge">
<title>Node13&#45;&gt;Node18</title>
<path fill="none" stroke="#191970" d="M479.0277,-124.8583C482.058,-124.2088 485.0803,-123.5804 488,-123 578.209,-105.0673 603.8097,-104.5244 697.9401,-87.1597"/>
<polygon fill="#191970" stroke="#191970" points="698.6949,-90.5794 707.8862,-85.3097 697.4148,-83.6974 698.6949,-90.5794"/>
</g>
</g>
</svg>
        <g id="navigator" transform="translate(0 0)" fill="#404254">
                <rect fill="#f2f5e9" fill-opacity="0.5" stroke="#606060" stroke-width=".5" x="0" y="0" width="60" height="60"/>
                <use id="zoomplus" xlink:href="#zoomPlus" x="17" y="9" onmousedown="handleZoom(evt,'in')"/>
                <use id="zoomminus" xlink:href="#zoomMin" x="42" y="9" onmousedown="handleZoom(evt,'out')"/>
                <use id="reset" xlink:href="#resetDef" x="30" y="36" onmousedown="handleReset()"/>
                <g id="arrowUp" xlink:href="#dirArrow" transform="translate(30 24)" onmousedown="handlePan(0,-1)">
                  <use xlink:href="#rim" fill="#404040">
                        <set attributeName="fill" to="#808080" begin="arrowUp.mouseover" end="arrowUp.mouseout"/>
                  </use>
                  <path fill="none" stroke="white" stroke-width="1.5" d="M0,-3.0v7 M-2.5,-0.5L0,-3.0L2.5,-0.5"/>
                </g>
                <g id="arrowRight" xlink:href="#dirArrow" transform="rotate(90) translate(36 -43)" onmousedown="handlePan(1,0)">
                  <use xlink:href="#rim" fill="#404040">
                        <set attributeName="fill" to="#808080" begin="arrowRight.mouseover" end="arrowRight.mouseout"/>
                  </use>
                  <path fill="none" stroke="white" stroke-width="1.5" d="M0,-3.0v7 M-2.5,-0.5L0,-3.0L2.5,-0.5"/>
                </g>
                <g id="arrowDown" xlink:href="#dirArrow" transform="rotate(180) translate(-30 -48)" onmousedown="handlePan(0,1)">
                  <use xlink:href="#rim" fill="#404040">
                        <set attributeName="fill" to="#808080" begin="arrowDown.mouseover" end="arrowDown.mouseout"/>
                  </use>
                  <path fill="none" stroke="white" stroke-width="1.5" d="M0,-3.0v7 M-2.5,-0.5L0,-3.0L2.5,-0.5"/>
                </g>
                <g id="arrowLeft" xlink:href="#dirArrow" transform="rotate(270) translate(-36 17)" onmousedown="handlePan(-1,0)">
                  <use xlink:href="#rim" fill="#404040">
                        <set attributeName="fill" to="#808080" begin="arrowLeft.mouseover" end="arrowLeft.mouseout"/>
                  </use>
                  <path fill="none" stroke="white" stroke-width="1.5" d="M0,-3.0v7 M-2.5,-0.5L0,-3.0L2.5,-0.5"/>
                </g>
        </g>
        <svg viewBox="0 0 15 15" width="100%" height="30px" preserveAspectRatio="xMaxYMin meet">
         <g id="arrow_out" transform="scale(0.3 0.3)">
          <a xlink:href="_xdma_backend_8cc__incl_org.svg" target="_base">
           <rect id="button" ry="5" rx="5" y="6" x="6" height="38" width="38"
                fill="#f2f5e9" fill-opacity="0.5" stroke="#606060" stroke-width="1.0"/>
           <path id="arrow"
             d="M 11.500037,31.436501 C 11.940474,20.09759 22.043105,11.32322 32.158766,21.979434 L 37.068811,17.246167 C 37.068811,17.246167 37.088388,32 37.088388,32 L 22.160133,31.978069 C 22.160133,31.978069 26.997745,27.140456 26.997745,27.140456 C 18.528582,18.264221 13.291696,25.230495 11.500037,31.436501 z"
             style="fill:#404040;"/>
          </a>
         </g>
        </svg>
</svg>
