<?xml version="1.0" encoding="UTF-8" standalone="no"?>
<!DOCTYPE svg PUBLIC "-//W3C//DTD SVG 1.1//EN"
 "http://www.w3.org/Graphics/SVG/1.1/DTD/svg11.dtd">
<!-- Generated by graphviz version 2.43.0 (0)
 -->
<!-- Title: ChimeraTK::NumericAddressedBackendMuxedRegisterAccessor&lt; UserType, ConverterType &gt; Pages: 1 -->
<!--zoomable 599 -->
<svg id="main" version="1.1" xmlns="http://www.w3.org/2000/svg" xmlns:xlink="http://www.w3.org/1999/xlink" xml:space="preserve" onload="init(evt)">
<style type="text/css"><![CDATA[
.edge:hover path { stroke: red; }
.edge:hover polygon { stroke: red; fill: red; }
]]></style>
<script type="text/javascript"><![CDATA[
var edges = document.getElementsByTagName('g');
if (edges && edges.length) {
  for (var i=0;i<edges.length;i++) {
    if (edges[i].id.substr(0,4)=='edge') {
      edges[i].setAttribute('class','edge');
    }
  }
}
]]></script>
        <defs>
                <circle id="rim" cx="0" cy="0" r="7"/>
                <circle id="rim2" cx="0" cy="0" r="3.5"/>
                <g id="zoomPlus">
                        <use xlink:href="#rim" fill="#404040">
                                <set attributeName="fill" to="#808080" begin="zoomplus.mouseover" end="zoomplus.mouseout"/>
                        </use>
                        <path d="M-4,0h8M0,-4v8" fill="none" stroke="white" stroke-width="1.5" pointer-events="none"/>
                </g>
                <g id="zoomMin">
                        <use xlink:href="#rim" fill="#404040">
                                <set attributeName="fill" to="#808080" begin="zoomminus.mouseover" end="zoomminus.mouseout"/>
                        </use>
                        <path d="M-4,0h8" fill="none" stroke="white" stroke-width="1.5" pointer-events="none"/>
                </g>
                <g id="dirArrow">
                        <path fill="none" stroke="white" stroke-width="1.5" d="M0,-3.0v7 M-2.5,-0.5L0,-3.0L2.5,-0.5"/>
                </g>
               <g id="resetDef">
                       <use xlink:href="#rim2" fill="#404040">
                               <set attributeName="fill" to="#808080" begin="reset.mouseover" end="reset.mouseout"/>
                       </use>
               </g>
        </defs>

<script type="text/javascript">
var viewWidth = 1430;
var viewHeight = 599;
var sectionId = 'dynsection-1';
</script>
<script xlink:href="svgpan.js"/>
<svg id="graph" class="graph">
<g id="viewport">
<title>ChimeraTK::NumericAddressedBackendMuxedRegisterAccessor&lt; UserType, ConverterType &gt;</title>
<polygon fill="white" stroke="transparent" points="-4,4 -4,-595 1426,-595 1426,4 -4,4"/>
<!-- Node1 -->
<g id="node1" class="node">
<title>Node1</title>
<g id="a_node1"><a xlink:title="Implementation of the NDRegisterAccessor for NumericAddressedBackends for multiplexd 2D registers.">
<polygon fill="#bfbfbf" stroke="black" points="1248,-141.5 1248,-182.5 1422,-182.5 1422,-141.5 1248,-141.5"/>
<text text-anchor="start" x="1256" y="-170.5" font-family="Helvetica,sans-Serif" font-size="10.00">ChimeraTK::NumericAddressed</text>
<text text-anchor="start" x="1256" y="-159.5" font-family="Helvetica,sans-Serif" font-size="10.00">BackendMuxedRegisterAccessor</text>
<text text-anchor="middle" x="1335" y="-148.5" font-family="Helvetica,sans-Serif" font-size="10.00">&lt; UserType, ConverterType &gt;</text>
</a>
</g>
</g>
<!-- Node2 -->
<g id="node2" class="node">
<title>Node2</title>
<g id="a_node2"><a xlink:href="class_chimera_t_k_1_1_n_d_register_accessor.html" target="_top" xlink:title="N&#45;dimensional register accessor.">
<polygon fill="white" stroke="black" points="971,-367 971,-397 1147,-397 1147,-367 971,-367"/>
<text text-anchor="start" x="979" y="-385" font-family="Helvetica,sans-Serif" font-size="10.00">ChimeraTK::NDRegisterAccessor</text>
<text text-anchor="middle" x="1059" y="-374" font-family="Helvetica,sans-Serif" font-size="10.00">&lt; UserType &gt;</text>
</a>
</g>
</g>
<!-- Node2&#45;&gt;Node1 -->
<g id="edge1" class="edge">
<title>Node2&#45;&gt;Node1</title>
<path fill="none" stroke="midnightblue" d="M1086.74,-360.53C1139.54,-318.13 1256.58,-224.16 1308.43,-182.53"/>
<polygon fill="midnightblue" stroke="midnightblue" points="1084.44,-357.89 1078.83,-366.88 1088.82,-363.35 1084.44,-357.89"/>
</g>
<!-- Node3 -->
<g id="node3" class="node">
<title>Node3</title>
<g id="a_node3"><a xlink:href="class_chimera_t_k_1_1_transfer_element.html" target="_top" xlink:title="Base class for register accessors which can be part of a TransferGroup.">
<polygon fill="white" stroke="black" points="609,-468.5 609,-487.5 765,-487.5 765,-468.5 609,-468.5"/>
<text text-anchor="middle" x="687" y="-475.5" font-family="Helvetica,sans-Serif" font-size="10.00">ChimeraTK::TransferElement</text>
</a>
</g>
</g>
<!-- Node3&#45;&gt;Node2 -->
<g id="edge2" class="edge">
<title>Node3&#45;&gt;Node2</title>
<path fill="none" stroke="midnightblue" d="M775.14,-471.22C827.65,-465.42 895.29,-454.87 953,-436 982.22,-426.44 1013.25,-409.55 1033.93,-397.19"/>
<polygon fill="midnightblue" stroke="midnightblue" points="774.76,-467.74 765.19,-472.28 775.5,-474.7 774.76,-467.74"/>
</g>
<!-- Node4 -->
<g id="node4" class="node">
<title>Node4</title>
<g id="a_node4"><a xlink:title=" ">
<polygon fill="white" stroke="#bfbfbf" points="227,-522 227,-552 397,-552 397,-522 227,-522"/>
<text text-anchor="start" x="235" y="-540" font-family="Helvetica,sans-Serif" font-size="10.00">boost::enable_shared</text>
<text text-anchor="middle" x="312" y="-529" font-family="Helvetica,sans-Serif" font-size="10.00">_from_this&lt; TransferElement &gt;</text>
</a>
</g>
</g>
<!-- Node4&#45;&gt;Node3 -->
<g id="edge3" class="edge">
<title>Node4&#45;&gt;Node3</title>
<path fill="none" stroke="midnightblue" d="M407.44,-527.64C459.2,-521.86 524.37,-513.54 582,-503 605.02,-498.79 630.57,-492.67 650.59,-487.54"/>
<polygon fill="midnightblue" stroke="midnightblue" points="406.83,-524.19 397.27,-528.76 407.6,-531.14 406.83,-524.19"/>
</g>
<!-- Node5 -->
<g id="node5" class="node">
<title>Node5</title>
<g id="a_node5"><a xlink:href="class_chimera_t_k_1_1_version_number.html" target="_top" xlink:title="Class for generating and holding version numbers without exposing a numeric representation.">
<polygon fill="white" stroke="black" points="236,-483.5 236,-502.5 388,-502.5 388,-483.5 236,-483.5"/>
<text text-anchor="middle" x="312" y="-490.5" font-family="Helvetica,sans-Serif" font-size="10.00">ChimeraTK::VersionNumber</text>
</a>
</g>
</g>
<!-- Node5&#45;&gt;Node3 -->
<g id="edge4" class="edge">
<title>Node5&#45;&gt;Node3</title>
<path fill="none" stroke="#9a32cd" stroke-dasharray="5,2" d="M398.4,-489.57C461.79,-487.02 547.51,-483.57 608.84,-481.1"/>
<polygon fill="#9a32cd" stroke="#9a32cd" points="397.88,-486.08 388.03,-489.98 398.17,-493.08 397.88,-486.08"/>
<text text-anchor="middle" x="498.5" y="-491" font-family="Helvetica,sans-Serif" font-size="10.00"> _versionNumber</text>
</g>
<!-- Node6 -->
<g id="node6" class="node">
<title>Node6</title>
<g id="a_node6"><a xlink:href="class_chimera_t_k_1_1_transfer_element_i_d.html" target="_top" xlink:title="Simple class holding a unique ID for a TransferElement.">
<polygon fill="white" stroke="black" points="228.5,-445.5 228.5,-464.5 395.5,-464.5 395.5,-445.5 228.5,-445.5"/>
<text text-anchor="middle" x="312" y="-452.5" font-family="Helvetica,sans-Serif" font-size="10.00">ChimeraTK::TransferElementID</text>
</a>
</g>
</g>
<!-- Node6&#45;&gt;Node3 -->
<g id="edge5" class="edge">
<title>Node6&#45;&gt;Node3</title>
<path fill="none" stroke="#9a32cd" stroke-dasharray="5,2" d="M405.97,-457.75C457.82,-459.64 523.55,-462.61 582,-467 590.69,-467.65 599.78,-468.45 608.81,-469.31"/>
<polygon fill="#9a32cd" stroke="#9a32cd" points="405.91,-454.25 395.79,-457.39 405.66,-461.25 405.91,-454.25"/>
<text text-anchor="middle" x="498.5" y="-470" font-family="Helvetica,sans-Serif" font-size="10.00"> _id</text>
</g>
<!-- Node7 -->
<g id="node7" class="node">
<title>Node7</title>
<g id="a_node7"><a xlink:href="class_chimera_t_k_1_1_access_mode_flags.html" target="_top" xlink:title="Set of AccessMode flags with additional functionality for an easier handling.">
<polygon fill="white" stroke="black" points="230,-571.5 230,-590.5 394,-590.5 394,-571.5 230,-571.5"/>
<text text-anchor="middle" x="312" y="-578.5" font-family="Helvetica,sans-Serif" font-size="10.00">ChimeraTK::AccessModeFlags</text>
</a>
</g>
</g>
<!-- Node7&#45;&gt;Node3 -->
<g id="edge6" class="edge">
<title>Node7&#45;&gt;Node3</title>
<path fill="none" stroke="#9a32cd" stroke-dasharray="5,2" d="M397.82,-569.93C451.5,-561.55 521.86,-548.02 582,-528 614.12,-517.31 649.16,-498.94 669.26,-487.69"/>
<polygon fill="#9a32cd" stroke="#9a32cd" points="397.01,-566.51 387.66,-571.49 398.07,-573.43 397.01,-566.51"/>
<text text-anchor="middle" x="498.5" y="-569" font-family="Helvetica,sans-Serif" font-size="10.00"> _accessModeFlags</text>
</g>
<!-- Node8 -->
<g id="node8" class="node">
<title>Node8</title>
<g id="a_node8"><a xlink:title=" ">
<polygon fill="white" stroke="#bfbfbf" points="279.5,-370.5 279.5,-389.5 344.5,-389.5 344.5,-370.5 279.5,-370.5"/>
<text text-anchor="middle" x="312" y="-377.5" font-family="Helvetica,sans-Serif" font-size="10.00">std::string</text>
</a>
</g>
</g>
<!-- Node8&#45;&gt;Node3 -->
<g id="edge7" class="edge">
<title>Node8&#45;&gt;Node3</title>
<path fill="none" stroke="#9a32cd" stroke-dasharray="5,2" d="M354.84,-382.53C420.59,-387.13 544.48,-398.55 582,-421 593.44,-427.85 589.36,-436.96 600,-445 614.04,-455.6 631.89,-463.19 647.69,-468.39"/>
<polygon fill="#9a32cd" stroke="#9a32cd" points="355.02,-379.03 344.81,-381.85 354.55,-386.01 355.02,-379.03"/>
<text text-anchor="middle" x="498.5" y="-446" font-family="Helvetica,sans-Serif" font-size="10.00"> _description</text>
<text text-anchor="middle" x="498.5" y="-435" font-family="Helvetica,sans-Serif" font-size="10.00">_name</text>
<text text-anchor="middle" x="498.5" y="-424" font-family="Helvetica,sans-Serif" font-size="10.00">_unit</text>
</g>
<!-- Node18 -->
<g id="node18" class="node">
<title>Node18</title>
<g id="a_node18"><a xlink:href="class_chimera_t_k_1_1_register_path.html" target="_top" xlink:title="Class to store a register path name.">
<polygon fill="white" stroke="black" points="618,-416.5 618,-435.5 756,-435.5 756,-416.5 618,-416.5"/>
<text text-anchor="middle" x="687" y="-423.5" font-family="Helvetica,sans-Serif" font-size="10.00">ChimeraTK::RegisterPath</text>
</a>
</g>
</g>
<!-- Node8&#45;&gt;Node18 -->
<g id="edge20" class="edge">
<title>Node8&#45;&gt;Node18</title>
<path fill="none" stroke="#9a32cd" stroke-dasharray="5,2" d="M354.76,-370.49C420.99,-356.41 546.28,-334.24 582,-359 600.73,-371.98 582.79,-392.07 600,-407 605.2,-411.51 611.22,-415.02 617.63,-417.75"/>
<polygon fill="#9a32cd" stroke="#9a32cd" points="353.7,-367.13 344.66,-372.67 355.18,-373.98 353.7,-367.13"/>
<text text-anchor="middle" x="498.5" y="-373" font-family="Helvetica,sans-Serif" font-size="10.00"> path</text>
<text text-anchor="middle" x="498.5" y="-362" font-family="Helvetica,sans-Serif" font-size="10.00">separator_alt</text>
</g>
<!-- Node9 -->
<g id="node9" class="node">
<title>Node9</title>
<g id="a_node9"><a xlink:title=" ">
<polygon fill="white" stroke="#bfbfbf" points="13.5,-365 13.5,-395 117.5,-395 117.5,-365 13.5,-365"/>
<text text-anchor="start" x="21.5" y="-383" font-family="Helvetica,sans-Serif" font-size="10.00">std::basic_string&lt;</text>
<text text-anchor="middle" x="65.5" y="-372" font-family="Helvetica,sans-Serif" font-size="10.00"> Char &gt;</text>
</a>
</g>
</g>
<!-- Node9&#45;&gt;Node8 -->
<g id="edge8" class="edge">
<title>Node9&#45;&gt;Node8</title>
<path fill="none" stroke="midnightblue" d="M128.05,-380C176.15,-380 241.05,-380 279.22,-380"/>
<polygon fill="midnightblue" stroke="midnightblue" points="127.76,-376.5 117.76,-380 127.76,-383.5 127.76,-376.5"/>
</g>
<!-- Node10 -->
<g id="node10" class="node">
<title>Node10</title>
<g id="a_node10"><a xlink:title=" ">
<polygon fill="white" stroke="#bfbfbf" points="621.5,-367 621.5,-397 752.5,-397 752.5,-367 621.5,-367"/>
<text text-anchor="start" x="629.5" y="-385" font-family="Helvetica,sans-Serif" font-size="10.00">std::vector&lt; std::vector</text>
<text text-anchor="middle" x="687" y="-374" font-family="Helvetica,sans-Serif" font-size="10.00">&lt; UserType &gt; &gt;</text>
</a>
</g>
</g>
<!-- Node10&#45;&gt;Node2 -->
<g id="edge9" class="edge">
<title>Node10&#45;&gt;Node2</title>
<path fill="none" stroke="#9a32cd" stroke-dasharray="5,2" d="M763.06,-382C823.24,-382 907.78,-382 970.93,-382"/>
<polygon fill="#9a32cd" stroke="#9a32cd" points="762.87,-378.5 752.87,-382 762.87,-385.5 762.87,-378.5"/>
<text text-anchor="middle" x="872.5" y="-385" font-family="Helvetica,sans-Serif" font-size="10.00"> buffer_2D</text>
</g>
<!-- Node11 -->
<g id="node11" class="node">
<title>Node11</title>
<g id="a_node11"><a xlink:title=" ">
<polygon fill="white" stroke="#bfbfbf" points="263.5,-162.5 263.5,-181.5 360.5,-181.5 360.5,-162.5 263.5,-162.5"/>
<text text-anchor="middle" x="312" y="-169.5" font-family="Helvetica,sans-Serif" font-size="10.00">std::vector&lt; T &gt;</text>
</a>
</g>
</g>
<!-- Node11&#45;&gt;Node10 -->
<g id="edge10" class="edge">
<title>Node11&#45;&gt;Node10</title>
<path fill="none" stroke="orange" stroke-dasharray="5,2" d="M333.39,-187.82C351.87,-202.97 378.9,-227.28 397,-253 408.22,-268.94 399.98,-280.57 415,-293 473.79,-341.67 518.21,-291.1 582,-333 593.14,-340.32 589.03,-349.42 600,-357 606.52,-361.51 613.86,-365.22 621.43,-368.26"/>
<polygon fill="orange" stroke="orange" points="335.55,-185.06 325.56,-181.53 331.16,-190.52 335.55,-185.06"/>
<text text-anchor="middle" x="498.5" y="-336" font-family="Helvetica,sans-Serif" font-size="10.00"> &lt; std::vector&lt; UserType &gt; &gt;</text>
</g>
<!-- Node15 -->
<g id="node15" class="node">
<title>Node15</title>
<g id="a_node15"><a xlink:title=" ">
<polygon fill="white" stroke="#bfbfbf" points="600,-257.5 600,-298.5 774,-298.5 774,-257.5 600,-257.5"/>
<text text-anchor="start" x="608" y="-286.5" font-family="Helvetica,sans-Serif" font-size="10.00">std::vector&lt; ChimeraTK</text>
<text text-anchor="start" x="608" y="-275.5" font-family="Helvetica,sans-Serif" font-size="10.00">::NumericAddressedRegisterInfo</text>
<text text-anchor="middle" x="687" y="-264.5" font-family="Helvetica,sans-Serif" font-size="10.00">::ChannelInfo &gt;</text>
</a>
</g>
</g>
<!-- Node11&#45;&gt;Node15 -->
<g id="edge16" class="edge">
<title>Node11&#45;&gt;Node15</title>
<path fill="none" stroke="orange" stroke-dasharray="5,2" d="M356.26,-184.3C374.4,-189.46 395.73,-195.52 415,-201 482.4,-220.16 559.22,-241.98 613.82,-257.5"/>
<polygon fill="orange" stroke="orange" points="357.11,-180.9 346.54,-181.54 355.2,-187.64 357.11,-180.9"/>
<text text-anchor="start" x="415" y="-261" font-family="Helvetica,sans-Serif" font-size="10.00"> &lt; ChimeraTK::NumericAddressed</text>
<text text-anchor="middle" x="498.5" y="-250" font-family="Helvetica,sans-Serif" font-size="10.00">RegisterInfo::ChannelInfo &gt;</text>
</g>
<!-- Node17 -->
<g id="node17" class="node">
<title>Node17</title>
<g id="a_node17"><a xlink:title=" ">
<polygon fill="white" stroke="#bfbfbf" points="621.5,-181.5 621.5,-200.5 752.5,-200.5 752.5,-181.5 621.5,-181.5"/>
<text text-anchor="middle" x="687" y="-188.5" font-family="Helvetica,sans-Serif" font-size="10.00">std::vector&lt; uint32_t &gt;</text>
</a>
</g>
</g>
<!-- Node11&#45;&gt;Node17 -->
<g id="edge18" class="edge">
<title>Node11&#45;&gt;Node17</title>
<path fill="none" stroke="orange" stroke-dasharray="5,2" d="M370.7,-174.94C438.54,-178.39 550.81,-184.11 621.47,-187.71"/>
<polygon fill="orange" stroke="orange" points="370.78,-171.44 360.62,-174.43 370.43,-178.43 370.78,-171.44"/>
<text text-anchor="middle" x="498.5" y="-189" font-family="Helvetica,sans-Serif" font-size="10.00"> &lt; uint32_t &gt;</text>
</g>
<!-- Node20 -->
<g id="node20" class="node">
<title>Node20</title>
<g id="a_node20"><a xlink:title=" ">
<polygon fill="white" stroke="#bfbfbf" points="792,-46.5 792,-65.5 953,-65.5 953,-46.5 792,-46.5"/>
<text text-anchor="middle" x="872.5" y="-53.5" font-family="Helvetica,sans-Serif" font-size="10.00">std::vector&lt; ConverterType &gt;</text>
</a>
</g>
</g>
<!-- Node11&#45;&gt;Node20 -->
<g id="edge23" class="edge">
<title>Node11&#45;&gt;Node20</title>
<path fill="none" stroke="orange" stroke-dasharray="5,2" d="M325.82,-154.19C343.15,-131.75 376.37,-94.17 415,-78 548.21,-22.25 722.74,-34.65 812.51,-46.48"/>
<polygon fill="orange" stroke="orange" points="322.98,-152.14 319.78,-162.24 328.58,-156.34 322.98,-152.14"/>
<text text-anchor="middle" x="498.5" y="-81" font-family="Helvetica,sans-Serif" font-size="10.00"> &lt; ConverterType &gt;</text>
</g>
<!-- Node21 -->
<g id="node21" class="node">
<title>Node21</title>
<g id="a_node21"><a xlink:title=" ">
<polygon fill="white" stroke="#bfbfbf" points="810,-146.5 810,-165.5 935,-165.5 935,-146.5 810,-146.5"/>
<text text-anchor="middle" x="872.5" y="-153.5" font-family="Helvetica,sans-Serif" font-size="10.00">std::vector&lt; int32_t &gt;</text>
</a>
</g>
</g>
<!-- Node11&#45;&gt;Node21 -->
<g id="edge25" class="edge">
<title>Node11&#45;&gt;Node21</title>
<path fill="none" stroke="orange" stroke-dasharray="5,2" d="M370.95,-166.15C385.33,-164.9 400.71,-163.74 415,-163 556.1,-155.7 722.03,-155.17 809.8,-155.53"/>
<polygon fill="orange" stroke="orange" points="370.34,-162.69 360.69,-167.07 370.96,-169.66 370.34,-162.69"/>
<text text-anchor="middle" x="498.5" y="-166" font-family="Helvetica,sans-Serif" font-size="10.00"> &lt; int32_t &gt;</text>
</g>
<!-- Node22 -->
<g id="node22" class="node">
<title>Node22</title>
<g id="a_node22"><a xlink:title=" ">
<polygon fill="white" stroke="#bfbfbf" points="633,-83.5 633,-124.5 741,-124.5 741,-83.5 633,-83.5"/>
<text text-anchor="start" x="641" y="-112.5" font-family="Helvetica,sans-Serif" font-size="10.00">std::vector&lt; detail</text>
<text text-anchor="start" x="641" y="-101.5" font-family="Helvetica,sans-Serif" font-size="10.00">::pitched_iterator&lt;</text>
<text text-anchor="middle" x="687" y="-90.5" font-family="Helvetica,sans-Serif" font-size="10.00"> int32_t &gt; &gt;</text>
</a>
</g>
</g>
<!-- Node11&#45;&gt;Node22 -->
<g id="edge29" class="edge">
<title>Node11&#45;&gt;Node22</title>
<path fill="none" stroke="orange" stroke-dasharray="5,2" d="M331.95,-155.9C351.37,-140.53 383.14,-118.37 415,-109 488.14,-87.5 577.23,-91.21 632.8,-96.83"/>
<polygon fill="orange" stroke="orange" points="329.5,-153.39 323.95,-162.42 333.91,-158.82 329.5,-153.39"/>
<text text-anchor="start" x="435.5" y="-123" font-family="Helvetica,sans-Serif" font-size="10.00"> &lt; detail::pitched_iterator</text>
<text text-anchor="middle" x="498.5" y="-112" font-family="Helvetica,sans-Serif" font-size="10.00">&lt; int32_t &gt; &gt;</text>
</g>
<!-- Node12 -->
<g id="node12" class="node">
<title>Node12</title>
<g id="a_node12"><a xlink:title=" ">
<polygon fill="white" stroke="#bfbfbf" points="51,-162.5 51,-181.5 80,-181.5 80,-162.5 51,-162.5"/>
<text text-anchor="middle" x="65.5" y="-169.5" font-family="Helvetica,sans-Serif" font-size="10.00">T</text>
</a>
</g>
</g>
<!-- Node12&#45;&gt;Node11 -->
<g id="edge11" class="edge">
<title>Node12&#45;&gt;Node11</title>
<path fill="none" stroke="#9a32cd" stroke-dasharray="5,2" d="M90.45,-172C130.33,-172 211.09,-172 263.03,-172"/>
<polygon fill="#9a32cd" stroke="#9a32cd" points="90.35,-168.5 80.35,-172 90.35,-175.5 90.35,-168.5"/>
<text text-anchor="middle" x="179" y="-175" font-family="Helvetica,sans-Serif" font-size="10.00"> elements</text>
</g>
<!-- Node13 -->
<g id="node13" class="node">
<title>Node13</title>
<g id="a_node13"><a xlink:href="class_chimera_t_k_1_1_numeric_addressed_register_info.html" target="_top" xlink:title=" ">
<polygon fill="white" stroke="black" points="974.5,-232 974.5,-262 1143.5,-262 1143.5,-232 974.5,-232"/>
<text text-anchor="start" x="982.5" y="-250" font-family="Helvetica,sans-Serif" font-size="10.00">ChimeraTK::NumericAddressed</text>
<text text-anchor="middle" x="1059" y="-239" font-family="Helvetica,sans-Serif" font-size="10.00">RegisterInfo</text>
</a>
</g>
</g>
<!-- Node13&#45;&gt;Node1 -->
<g id="edge12" class="edge">
<title>Node13&#45;&gt;Node1</title>
<path fill="none" stroke="#9a32cd" stroke-dasharray="5,2" d="M1118.01,-229C1161.88,-215.4 1222.15,-196.7 1267.88,-182.51"/>
<polygon fill="#9a32cd" stroke="#9a32cd" points="1116.87,-225.69 1108.35,-232 1118.94,-232.38 1116.87,-225.69"/>
<text text-anchor="middle" x="1197.5" y="-216" font-family="Helvetica,sans-Serif" font-size="10.00"> _registerInfo</text>
</g>
<!-- Node14 -->
<g id="node14" class="node">
<title>Node14</title>
<g id="a_node14"><a xlink:href="class_chimera_t_k_1_1_backend_register_info_base.html" target="_top" xlink:title="DeviceBackend&#45;independent register description.">
<polygon fill="white" stroke="black" points="608,-318 608,-348 766,-348 766,-318 608,-318"/>
<text text-anchor="start" x="616" y="-336" font-family="Helvetica,sans-Serif" font-size="10.00">ChimeraTK::BackendRegister</text>
<text text-anchor="middle" x="687" y="-325" font-family="Helvetica,sans-Serif" font-size="10.00">InfoBase</text>
</a>
</g>
</g>
<!-- Node14&#45;&gt;Node13 -->
<g id="edge13" class="edge">
<title>Node14&#45;&gt;Node13</title>
<path fill="none" stroke="midnightblue" d="M776.29,-320.21C828.19,-311.82 894.83,-299.52 953,-284 975.41,-278.02 999.88,-269.52 1019.56,-262.17"/>
<polygon fill="midnightblue" stroke="midnightblue" points="775.43,-316.81 766.11,-321.84 776.54,-323.72 775.43,-316.81"/>
</g>
<!-- Node15&#45;&gt;Node13 -->
<g id="edge14" class="edge">
<title>Node15&#45;&gt;Node13</title>
<path fill="none" stroke="#9a32cd" stroke-dasharray="5,2" d="M784.35,-269.93C843.31,-264.99 918,-258.73 974.45,-254"/>
<polygon fill="#9a32cd" stroke="#9a32cd" points="783.95,-266.45 774.28,-270.77 784.54,-273.42 783.95,-266.45"/>
<text text-anchor="middle" x="872.5" y="-272" font-family="Helvetica,sans-Serif" font-size="10.00"> channels</text>
</g>
<!-- Node16 -->
<g id="node16" class="node">
<title>Node16</title>
<g id="a_node16"><a xlink:href="struct_chimera_t_k_1_1_numeric_addressed_register_info_1_1_channel_info.html" target="_top" xlink:title="Per&#45;channel information.">
<polygon fill="white" stroke="black" points="227.5,-263 227.5,-293 396.5,-293 396.5,-263 227.5,-263"/>
<text text-anchor="start" x="235.5" y="-281" font-family="Helvetica,sans-Serif" font-size="10.00">ChimeraTK::NumericAddressed</text>
<text text-anchor="middle" x="312" y="-270" font-family="Helvetica,sans-Serif" font-size="10.00">RegisterInfo::ChannelInfo</text>
</a>
</g>
</g>
<!-- Node16&#45;&gt;Node15 -->
<g id="edge15" class="edge">
<title>Node16&#45;&gt;Node15</title>
<path fill="none" stroke="#9a32cd" stroke-dasharray="5,2" d="M406.83,-278C466.14,-278 542.23,-278 599.98,-278"/>
<polygon fill="#9a32cd" stroke="#9a32cd" points="406.71,-274.5 396.71,-278 406.71,-281.5 406.71,-274.5"/>
<text text-anchor="middle" x="498.5" y="-281" font-family="Helvetica,sans-Serif" font-size="10.00"> elements</text>
</g>
<!-- Node17&#45;&gt;Node13 -->
<g id="edge17" class="edge">
<title>Node17&#45;&gt;Node13</title>
<path fill="none" stroke="#9a32cd" stroke-dasharray="5,2" d="M762.78,-194.73C816.15,-198.26 889.43,-204.9 953,-217 972.65,-220.74 993.94,-226.49 1012.17,-231.96"/>
<polygon fill="#9a32cd" stroke="#9a32cd" points="762.93,-191.23 752.72,-194.08 762.48,-198.21 762.93,-191.23"/>
<text text-anchor="middle" x="872.5" y="-220" font-family="Helvetica,sans-Serif" font-size="10.00"> interruptId</text>
</g>
<!-- Node18&#45;&gt;Node13 -->
<g id="edge19" class="edge">
<title>Node18&#45;&gt;Node13</title>
<path fill="none" stroke="#9a32cd" stroke-dasharray="5,2" d="M766.22,-421.37C838.88,-416.44 938.07,-407.85 953,-397 968.77,-385.54 960.88,-373.66 971,-357 993.13,-320.59 1025.66,-282.55 1044.03,-262.13"/>
<polygon fill="#9a32cd" stroke="#9a32cd" points="765.89,-417.88 756.15,-422.04 766.36,-424.87 765.89,-417.88"/>
<text text-anchor="middle" x="872.5" y="-422" font-family="Helvetica,sans-Serif" font-size="10.00"> pathName</text>
</g>
<!-- Node19 -->
<g id="node19" class="node">
<title>Node19</title>
<g id="a_node19"><a xlink:href="class_chimera_t_k_1_1_data_descriptor.html" target="_top" xlink:title="Class describing the actual payload data format of a register in an abstract manner.">
<polygon fill="white" stroke="black" points="612,-219.5 612,-238.5 762,-238.5 762,-219.5 612,-219.5"/>
<text text-anchor="middle" x="687" y="-226.5" font-family="Helvetica,sans-Serif" font-size="10.00">ChimeraTK::DataDescriptor</text>
</a>
</g>
</g>
<!-- Node19&#45;&gt;Node13 -->
<g id="edge21" class="edge">
<title>Node19&#45;&gt;Node13</title>
<path fill="none" stroke="#9a32cd" stroke-dasharray="5,2" d="M772.21,-230.75C824.32,-232.11 892.58,-234.39 953,-238 959.94,-238.42 967.13,-238.91 974.35,-239.44"/>
<polygon fill="#9a32cd" stroke="#9a32cd" points="772.1,-227.25 762.01,-230.49 771.92,-234.25 772.1,-227.25"/>
<text text-anchor="middle" x="872.5" y="-241" font-family="Helvetica,sans-Serif" font-size="10.00"> dataDescriptor</text>
</g>
<!-- Node20&#45;&gt;Node1 -->
<g id="edge22" class="edge">
<title>Node20&#45;&gt;Node1</title>
<path fill="none" stroke="#9a32cd" stroke-dasharray="5,2" d="M963.51,-49.28C1038.04,-47.22 1145.1,-52.57 1230,-90 1259.74,-103.11 1289.85,-125.13 1309.97,-141.37"/>
<polygon fill="#9a32cd" stroke="#9a32cd" points="963.09,-45.79 953.21,-49.61 963.32,-52.78 963.09,-45.79"/>
<text text-anchor="middle" x="1059" y="-67" font-family="Helvetica,sans-Serif" font-size="10.00"> _converters</text>
</g>
<!-- Node21&#45;&gt;Node1 -->
<g id="edge24" class="edge">
<title>Node21&#45;&gt;Node1</title>
<path fill="none" stroke="#9a32cd" stroke-dasharray="5,2" d="M945.32,-156.94C1027,-158 1160.34,-159.74 1247.63,-160.87"/>
<polygon fill="#9a32cd" stroke="#9a32cd" points="945.17,-153.43 935.13,-156.8 945.08,-160.43 945.17,-153.43"/>
<text text-anchor="middle" x="1059" y="-163" font-family="Helvetica,sans-Serif" font-size="10.00"> _ioBuffer</text>
</g>
<!-- Node22&#45;&gt;Node1 -->
<g id="edge26" class="edge">
<title>Node22&#45;&gt;Node1</title>
<path fill="none" stroke="#9a32cd" stroke-dasharray="5,2" d="M751.32,-105.9C840.01,-109 1006.17,-116.45 1147,-132 1180.01,-135.65 1216.08,-141.08 1247.66,-146.33"/>
<polygon fill="#9a32cd" stroke="#9a32cd" points="751.27,-102.39 741.15,-105.55 751.03,-109.39 751.27,-102.39"/>
<text text-anchor="middle" x="1059" y="-146" font-family="Helvetica,sans-Serif" font-size="10.00"> _endIterators</text>
<text text-anchor="middle" x="1059" y="-135" font-family="Helvetica,sans-Serif" font-size="10.00">_startIterators</text>
</g>
<!-- Node23 -->
<g id="node23" class="node">
<title>Node23</title>
<g id="a_node23"><a xlink:title=" ">
<polygon fill="white" stroke="#bfbfbf" points="237,-6 237,-36 387,-36 387,-6 237,-6"/>
<text text-anchor="start" x="245" y="-24" font-family="Helvetica,sans-Serif" font-size="10.00">ChimeraTK::detail::</text>
<text text-anchor="middle" x="312" y="-13" font-family="Helvetica,sans-Serif" font-size="10.00">pitched_iterator&lt; int32_t &gt;</text>
</a>
</g>
</g>
<!-- Node23&#45;&gt;Node22 -->
<g id="edge27" class="edge">
<title>Node23&#45;&gt;Node22</title>
<path fill="none" stroke="#9a32cd" stroke-dasharray="5,2" d="M397.38,-7.46C451.62,-2.08 522.76,-1.33 582,-22 616.74,-34.12 648.68,-63.12 667.75,-83.17"/>
<polygon fill="#9a32cd" stroke="#9a32cd" points="396.68,-4.01 387.11,-8.55 397.42,-10.97 396.68,-4.01"/>
<text text-anchor="middle" x="498.5" y="-25" font-family="Helvetica,sans-Serif" font-size="10.00"> elements</text>
</g>
<!-- Node24 -->
<g id="node24" class="node">
<title>Node24</title>
<g id="a_node24"><a xlink:title=" ">
<polygon fill="white" stroke="#bfbfbf" points="0,-0.5 0,-41.5 131,-41.5 131,-0.5 0,-0.5"/>
<text text-anchor="start" x="8" y="-29.5" font-family="Helvetica,sans-Serif" font-size="10.00">ChimeraTK::detail::</text>
<text text-anchor="start" x="8" y="-18.5" font-family="Helvetica,sans-Serif" font-size="10.00">pitched_iterator&lt; DATA</text>
<text text-anchor="middle" x="65.5" y="-7.5" font-family="Helvetica,sans-Serif" font-size="10.00">_TYPE &gt;</text>
</a>
</g>
</g>
<!-- Node24&#45;&gt;Node23 -->
<g id="edge28" class="edge">
<title>Node24&#45;&gt;Node23</title>
<path fill="none" stroke="orange" stroke-dasharray="5,2" d="M141.18,-21C171.59,-21 206.65,-21 236.98,-21"/>
<polygon fill="orange" stroke="orange" points="141.06,-17.5 131.06,-21 141.06,-24.5 141.06,-17.5"/>
<text text-anchor="middle" x="179" y="-24" font-family="Helvetica,sans-Serif" font-size="10.00"> &lt; int32_t &gt;</text>
</g>
</g>
</svg>
        <g id="navigator" transform="translate(0 0)" fill="#404254">
                <rect fill="#f2f5e9" fill-opacity="0.5" stroke="#606060" stroke-width=".5" x="0" y="0" width="60" height="60"/>
                <use id="zoomplus" xlink:href="#zoomPlus" x="17" y="9" onmousedown="handleZoom(evt,'in')"/>
                <use id="zoomminus" xlink:href="#zoomMin" x="42" y="9" onmousedown="handleZoom(evt,'out')"/>
                <use id="reset" xlink:href="#resetDef" x="30" y="36" onmousedown="handleReset()"/>
                <g id="arrowUp" xlink:href="#dirArrow" transform="translate(30 24)" onmousedown="handlePan(0,-1)">
                  <use xlink:href="#rim" fill="#404040">
                        <set attributeName="fill" to="#808080" begin="arrowUp.mouseover" end="arrowUp.mouseout"/>
                  </use>
                  <path fill="none" stroke="white" stroke-width="1.5" d="M0,-3.0v7 M-2.5,-0.5L0,-3.0L2.5,-0.5"/>
                </g>
                <g id="arrowRight" xlink:href="#dirArrow" transform="rotate(90) translate(36 -43)" onmousedown="handlePan(1,0)">
                  <use xlink:href="#rim" fill="#404040">
                        <set attributeName="fill" to="#808080" begin="arrowRight.mouseover" end="arrowRight.mouseout"/>
                  </use>
                  <path fill="none" stroke="white" stroke-width="1.5" d="M0,-3.0v7 M-2.5,-0.5L0,-3.0L2.5,-0.5"/>
                </g>
                <g id="arrowDown" xlink:href="#dirArrow" transform="rotate(180) translate(-30 -48)" onmousedown="handlePan(0,1)">
                  <use xlink:href="#rim" fill="#404040">
                        <set attributeName="fill" to="#808080" begin="arrowDown.mouseover" end="arrowDown.mouseout"/>
                  </use>
                  <path fill="none" stroke="white" stroke-width="1.5" d="M0,-3.0v7 M-2.5,-0.5L0,-3.0L2.5,-0.5"/>
                </g>
                <g id="arrowLeft" xlink:href="#dirArrow" transform="rotate(270) translate(-36 17)" onmousedown="handlePan(-1,0)">
                  <use xlink:href="#rim" fill="#404040">
                        <set attributeName="fill" to="#808080" begin="arrowLeft.mouseover" end="arrowLeft.mouseout"/>
                  </use>
                  <path fill="none" stroke="white" stroke-width="1.5" d="M0,-3.0v7 M-2.5,-0.5L0,-3.0L2.5,-0.5"/>
                </g>
        </g>
        <svg viewBox="0 0 15 15" width="100%" height="30px" preserveAspectRatio="xMaxYMin meet">
         <g id="arrow_out" transform="scale(0.3 0.3)">
          <a xlink:href="class_chimera_t_k_1_1_numeric_addressed_backend_muxed_register_accessor__coll__graph_org.svg" target="_base">
           <rect id="button" ry="5" rx="5" y="6" x="6" height="38" width="38"
                fill="#f2f5e9" fill-opacity="0.5" stroke="#606060" stroke-width="1.0"/>
           <path id="arrow"
             d="M 11.500037,31.436501 C 11.940474,20.09759 22.043105,11.32322 32.158766,21.979434 L 37.068811,17.246167 C 37.068811,17.246167 37.088388,32 37.088388,32 L 22.160133,31.978069 C 22.160133,31.978069 26.997745,27.140456 26.997745,27.140456 C 18.528582,18.264221 13.291696,25.230495 11.500037,31.436501 z"
             style="fill:#404040;"/>
          </a>
         </g>
        </svg>
</svg>
