<?xml version="1.0" encoding="UTF-8" standalone="no"?>
<!DOCTYPE svg PUBLIC "-//W3C//DTD SVG 1.1//EN"
 "http://www.w3.org/Graphics/SVG/1.1/DTD/svg11.dtd">
<!-- Generated by graphviz version 2.40.1 (20161225.0304)
 -->
<!-- Title: ChimeraTK::LogicalNameMappingBackend::readDeviceInfo Pages: 1 -->
<svg width="1998pt" height="407pt"
 viewBox="0.00 0.00 1998.00 406.85" xmlns="http://www.w3.org/2000/svg" xmlns:xlink="http://www.w3.org/1999/xlink">
<g id="graph0" class="graph" transform="scale(1 1) rotate(0) translate(4 402.8459)">
<title>ChimeraTK::LogicalNameMappingBackend::readDeviceInfo</title>
<polygon fill="#ffffff" stroke="transparent" points="-4,4 -4,-402.8459 1994,-402.8459 1994,4 -4,4"/>
<!-- Node213 -->
<g id="node1" class="node">
<title>Node213</title>
<polygon fill="#bfbfbf" stroke="#000000" points="0,-140 0,-170 182,-170 182,-140 0,-140"/>
<text text-anchor="start" x="8" y="-158" font-family="Helvetica,sans-Serif" font-size="10.00" fill="#000000">ChimeraTK::LogicalNameMapping</text>
<text text-anchor="middle" x="91" y="-147" font-family="Helvetica,sans-Serif" font-size="10.00" fill="#000000">Backend::readDeviceInfo</text>
</g>
<!-- Node214 -->
<g id="node2" class="node">
<title>Node214</title>
<g id="a_node2"><a xlink:href="class_chimera_t_k_1_1_logical_name_mapping_backend.html#a64318838cfa707b222c53cc4a0f4b4fa" target="_top" xlink:title="ChimeraTK::LogicalNameMapping\lBackend::createInstance">
<polygon fill="#ffffff" stroke="#000000" points="222.5,-277 222.5,-307 404.5,-307 404.5,-277 222.5,-277"/>
<text text-anchor="start" x="230.5" y="-295" font-family="Helvetica,sans-Serif" font-size="10.00" fill="#000000">ChimeraTK::LogicalNameMapping</text>
<text text-anchor="middle" x="313.5" y="-284" font-family="Helvetica,sans-Serif" font-size="10.00" fill="#000000">Backend::createInstance</text>
</a>
</g>
</g>
<!-- Node213&#45;&gt;Node214 -->
<g id="edge1" class="edge">
<title>Node213&#45;&gt;Node214</title>
<path fill="none" stroke="#191970" d="M103.7514,-170.362C124.9075,-194.8238 169.7404,-242.4649 218,-268 221.5533,-269.8801 225.2597,-271.6174 229.061,-273.2221"/>
<polygon fill="#191970" stroke="#191970" points="228.0831,-276.5967 238.6723,-276.944 230.6109,-270.069 228.0831,-276.5967"/>
</g>
<!-- Node215 -->
<g id="node3" class="node">
<title>Node215</title>
<g id="a_node3"><a xlink:href="class_chimera_t_k_1_1_logical_name_mapping_backend.html#a72f1bf37a09e7c088658d00ed8b83ac8" target="_top" xlink:title="Return the register catalogue with detailed information on all registers. ">
<polygon fill="#ffffff" stroke="#000000" points="222.5,-140 222.5,-170 404.5,-170 404.5,-140 222.5,-140"/>
<text text-anchor="start" x="230.5" y="-158" font-family="Helvetica,sans-Serif" font-size="10.00" fill="#000000">ChimeraTK::LogicalNameMapping</text>
<text text-anchor="middle" x="313.5" y="-147" font-family="Helvetica,sans-Serif" font-size="10.00" fill="#000000">Backend::getRegisterCatalogue</text>
</a>
</g>
</g>
<!-- Node213&#45;&gt;Node215 -->
<g id="edge2" class="edge">
<title>Node213&#45;&gt;Node215</title>
<path fill="none" stroke="#191970" d="M182.1413,-155C191.9391,-155 201.9523,-155 211.8629,-155"/>
<polygon fill="#191970" stroke="#191970" points="212.1405,-158.5001 222.1404,-155 212.1404,-151.5001 212.1405,-158.5001"/>
</g>
<!-- Node216 -->
<g id="node4" class="node">
<title>Node216</title>
<g id="a_node4"><a xlink:href="class_chimera_t_k_1_1_logical_name_mapping_backend.html#a6b020ac5ae848f98a0220c858d7808e7" target="_top" xlink:title="parse the logical map file, if not yet done ">
<polygon fill="#ffffff" stroke="#000000" points="445,-187 445,-217 627,-217 627,-187 445,-187"/>
<text text-anchor="start" x="453" y="-205" font-family="Helvetica,sans-Serif" font-size="10.00" fill="#000000">ChimeraTK::LogicalNameMapping</text>
<text text-anchor="middle" x="536" y="-194" font-family="Helvetica,sans-Serif" font-size="10.00" fill="#000000">Backend::parse</text>
</a>
</g>
</g>
<!-- Node213&#45;&gt;Node216 -->
<g id="edge43" class="edge">
<title>Node213&#45;&gt;Node216</title>
<path fill="none" stroke="#191970" d="M158.9569,-170.0085C177.9831,-173.7651 198.7303,-177.447 218,-180 290.1054,-189.5529 371.9932,-195.0957 434.6123,-198.228"/>
<polygon fill="#191970" stroke="#191970" points="434.7276,-201.7377 444.8862,-198.729 435.0686,-194.746 434.7276,-201.7377"/>
</g>
<!-- Node241 -->
<g id="node29" class="node">
<title>Node241</title>
<g id="a_node29"><a xlink:href="class_chimera_t_k_1_1_logical_name_mapping_backend.html#a9cd1370e52314a5c8c20bf6885f77236" target="_top" xlink:title="Set the backend into an exception state. ">
<polygon fill="#ffffff" stroke="#000000" points="445,-99 445,-129 627,-129 627,-99 445,-99"/>
<text text-anchor="start" x="453" y="-117" font-family="Helvetica,sans-Serif" font-size="10.00" fill="#000000">ChimeraTK::LogicalNameMapping</text>
<text text-anchor="middle" x="536" y="-106" font-family="Helvetica,sans-Serif" font-size="10.00" fill="#000000">Backend::setException</text>
</a>
</g>
</g>
<!-- Node213&#45;&gt;Node241 -->
<g id="edge35" class="edge">
<title>Node213&#45;&gt;Node241</title>
<path fill="none" stroke="#191970" d="M157.9383,-139.9487C177.2322,-136.121 198.3726,-132.4128 218,-130 290.111,-121.1352 371.9986,-117.1555 434.6163,-115.3815"/>
<polygon fill="#191970" stroke="#191970" points="434.9876,-118.8729 444.8899,-115.1053 434.7994,-111.8754 434.9876,-118.8729"/>
</g>
<!-- Node242 -->
<g id="node30" class="node">
<title>Node242</title>
<g id="a_node30"><a xlink:href="class_chimera_t_k_1_1_logical_name_mapping_backend.html#ac0aa218e9c9f77da85b197b6c27d996c" target="_top" xlink:title="Activate asyncronous read for all transfer elements where AccessMode::wait_for_new_data is set...">
<polygon fill="#ffffff" stroke="#000000" points="445,-50 445,-80 627,-80 627,-50 445,-50"/>
<text text-anchor="start" x="453" y="-68" font-family="Helvetica,sans-Serif" font-size="10.00" fill="#000000">ChimeraTK::LogicalNameMapping</text>
<text text-anchor="middle" x="536" y="-57" font-family="Helvetica,sans-Serif" font-size="10.00" fill="#000000">Backend::activateAsyncRead</text>
</a>
</g>
</g>
<!-- Node213&#45;&gt;Node242 -->
<g id="edge37" class="edge">
<title>Node213&#45;&gt;Node242</title>
<path fill="none" stroke="#191970" d="M130.5391,-139.9995C155.3516,-131.0695 188.1853,-120.1257 218,-113 289.5024,-95.9109 371.5764,-83.7029 434.432,-75.8757"/>
<polygon fill="#191970" stroke="#191970" points="435.2469,-79.302 444.7457,-74.6091 434.3937,-72.3542 435.2469,-79.302"/>
</g>
<!-- Node243 -->
<g id="node31" class="node">
<title>Node243</title>
<g id="a_node31"><a xlink:href="class_chimera_t_k_1_1_logical_name_mapping_backend.html#a98f6b271e1d6f1ec80f325e7b59af804" target="_top" xlink:title="ChimeraTK::LogicalNameMapping\lBackend::getRegisterAccessor_impl">
<polygon fill="#ffffff" stroke="#000000" points="218,-228 218,-258 409,-258 409,-228 218,-228"/>
<text text-anchor="start" x="226" y="-246" font-family="Helvetica,sans-Serif" font-size="10.00" fill="#000000">ChimeraTK::LogicalNameMapping</text>
<text text-anchor="middle" x="313.5" y="-235" font-family="Helvetica,sans-Serif" font-size="10.00" fill="#000000">Backend::getRegisterAccessor_impl</text>
</a>
</g>
</g>
<!-- Node213&#45;&gt;Node243 -->
<g id="edge39" class="edge">
<title>Node213&#45;&gt;Node243</title>
<path fill="none" stroke="#191970" d="M121.0855,-170.0217C146.5387,-182.4184 184.1677,-200.018 218,-213 228.7923,-217.1412 240.4235,-221.1557 251.7292,-224.8298"/>
<polygon fill="#191970" stroke="#191970" points="250.9605,-228.2583 261.5513,-227.9655 253.0895,-221.5899 250.9605,-228.2583"/>
</g>
<!-- Node244 -->
<g id="node32" class="node">
<title>Node244</title>
<g id="a_node32"><a xlink:href="class_chimera_t_k_1_1_logical_name_mapping_backend.html#a863d826eb0fc7dbabbd8f9815d872549" target="_top" xlink:title="ChimeraTK::LogicalNameMapping\lBackend::getRegisterAccessor\l_internal">
<polygon fill="#ffffff" stroke="#000000" points="222.5,-.5 222.5,-41.5 404.5,-41.5 404.5,-.5 222.5,-.5"/>
<text text-anchor="start" x="230.5" y="-29.5" font-family="Helvetica,sans-Serif" font-size="10.00" fill="#000000">ChimeraTK::LogicalNameMapping</text>
<text text-anchor="start" x="230.5" y="-18.5" font-family="Helvetica,sans-Serif" font-size="10.00" fill="#000000">Backend::getRegisterAccessor</text>
<text text-anchor="middle" x="313.5" y="-7.5" font-family="Helvetica,sans-Serif" font-size="10.00" fill="#000000">_internal</text>
</a>
</g>
</g>
<!-- Node213&#45;&gt;Node244 -->
<g id="edge41" class="edge">
<title>Node213&#45;&gt;Node244</title>
<path fill="none" stroke="#191970" d="M107.0679,-139.7545C130.0872,-118.5788 174.4907,-80.1498 218,-56 224.7849,-52.234 232.0545,-48.7297 239.4426,-45.508"/>
<polygon fill="#191970" stroke="#191970" points="240.9608,-48.6669 248.8365,-41.5801 238.2603,-42.2088 240.9608,-48.6669"/>
</g>
<!-- Node215&#45;&gt;Node216 -->
<g id="edge3" class="edge">
<title>Node215&#45;&gt;Node216</title>
<path fill="none" stroke="#191970" d="M384.5121,-170.0003C406.8909,-174.7275 431.7801,-179.985 454.8111,-184.85"/>
<polygon fill="#191970" stroke="#191970" points="454.3919,-188.3386 464.8993,-186.981 455.8386,-181.4897 454.3919,-188.3386"/>
</g>
<!-- Node217 -->
<g id="node5" class="node">
<title>Node217</title>
<g id="a_node5"><a xlink:href="class_chimera_t_k_1_1_logical_name_map_parser.html#a63e405294bc4a2b05069bf7168690cc0" target="_top" xlink:title="parse the given XML file ">
<polygon fill="#ffffff" stroke="#000000" points="673.5,-187 673.5,-217 834.5,-217 834.5,-187 673.5,-187"/>
<text text-anchor="start" x="681.5" y="-205" font-family="Helvetica,sans-Serif" font-size="10.00" fill="#000000">ChimeraTK::LogicalNameMap</text>
<text text-anchor="middle" x="754" y="-194" font-family="Helvetica,sans-Serif" font-size="10.00" fill="#000000">Parser::parseFile</text>
</a>
</g>
</g>
<!-- Node216&#45;&gt;Node217 -->
<g id="edge4" class="edge">
<title>Node216&#45;&gt;Node217</title>
<path fill="none" stroke="#191970" d="M627.1885,-202C639.0101,-202 651.1189,-202 662.9384,-202"/>
<polygon fill="#191970" stroke="#191970" points="663.2363,-205.5001 673.2362,-202 663.2362,-198.5001 663.2363,-205.5001"/>
</g>
<!-- Node225 -->
<g id="node13" class="node">
<title>Node225</title>
<g id="a_node13"><a xlink:href="class_chimera_t_k_1_1_logical_name_mapping_backend.html#a3e1f51a139fe2d82286824b7f02f24df" target="_top" xlink:title="Obtain list of all target devices referenced in the catalogue. ">
<polygon fill="#ffffff" stroke="#000000" points="663,-138 663,-168 845,-168 845,-138 663,-138"/>
<text text-anchor="start" x="671" y="-156" font-family="Helvetica,sans-Serif" font-size="10.00" fill="#000000">ChimeraTK::LogicalNameMapping</text>
<text text-anchor="middle" x="754" y="-145" font-family="Helvetica,sans-Serif" font-size="10.00" fill="#000000">Backend::getTargetDevices</text>
</a>
</g>
</g>
<!-- Node216&#45;&gt;Node225 -->
<g id="edge13" class="edge">
<title>Node216&#45;&gt;Node225</title>
<path fill="none" stroke="#191970" d="M602.8887,-186.9654C626.4296,-181.6741 653.0672,-175.6867 677.3495,-170.2288"/>
<polygon fill="#191970" stroke="#191970" points="678.2488,-173.6141 687.2378,-168.0062 676.7136,-166.7845 678.2488,-173.6141"/>
</g>
<!-- Node226 -->
<g id="node14" class="node">
<title>Node226</title>
<g id="a_node14"><a xlink:href="class_chimera_t_k_1_1_backend_factory.html#a1176b9ab5e2ef7a1b8aa4a4aaaeb924e" target="_top" xlink:title="Static function to get an instance of factory. ">
<polygon fill="#ffffff" stroke="#000000" points="677,-307 677,-337 831,-337 831,-307 677,-307"/>
<text text-anchor="start" x="685" y="-325" font-family="Helvetica,sans-Serif" font-size="10.00" fill="#000000">ChimeraTK::BackendFactory</text>
<text text-anchor="middle" x="754" y="-314" font-family="Helvetica,sans-Serif" font-size="10.00" fill="#000000">::getInstance</text>
</a>
</g>
</g>
<!-- Node216&#45;&gt;Node226 -->
<g id="edge14" class="edge">
<title>Node216&#45;&gt;Node226</title>
<path fill="none" stroke="#191970" d="M551.8631,-217.3141C574.639,-238.4785 618.7553,-276.4871 663,-298 666.9926,-299.9413 671.1629,-301.7409 675.4281,-303.407"/>
<polygon fill="#191970" stroke="#191970" points="674.2908,-306.7176 684.8849,-306.8443 676.6821,-300.1387 674.2908,-306.7176"/>
</g>
<!-- Node227 -->
<g id="node15" class="node">
<title>Node227</title>
<g id="a_node15"><a xlink:href="class_chimera_t_k_1_1_backend_factory.html#a240088c806406533d0aa975b7bf61b05" target="_top" xlink:title="Create a new backend and return the instance as a shared pointer. ">
<polygon fill="#ffffff" stroke="#000000" points="677,-258 677,-288 831,-288 831,-258 677,-258"/>
<text text-anchor="start" x="685" y="-276" font-family="Helvetica,sans-Serif" font-size="10.00" fill="#000000">ChimeraTK::BackendFactory</text>
<text text-anchor="middle" x="754" y="-265" font-family="Helvetica,sans-Serif" font-size="10.00" fill="#000000">::createBackend</text>
</a>
</g>
</g>
<!-- Node216&#45;&gt;Node227 -->
<g id="edge15" class="edge">
<title>Node216&#45;&gt;Node227</title>
<path fill="none" stroke="#191970" d="M582.2322,-217.0573C616.0482,-228.0708 662.091,-243.0663 697.9951,-254.7599"/>
<polygon fill="#191970" stroke="#191970" points="697.2421,-258.1955 707.8344,-257.9644 699.4099,-251.5396 697.2421,-258.1955"/>
</g>
<!-- Node218 -->
<g id="node6" class="node">
<title>Node218</title>
<g id="a_node6"><a xlink:href="class_chimera_t_k_1_1_logical_name_map_parser.html#ab77f9b049edc5f2c4dd465a2b3c6ba62" target="_top" xlink:title="throw a parsing error with more information ">
<polygon fill="#ffffff" stroke="#000000" points="1078,-241 1078,-271 1239,-271 1239,-241 1078,-241"/>
<text text-anchor="start" x="1086" y="-259" font-family="Helvetica,sans-Serif" font-size="10.00" fill="#000000">ChimeraTK::LogicalNameMap</text>
<text text-anchor="middle" x="1158.5" y="-248" font-family="Helvetica,sans-Serif" font-size="10.00" fill="#000000">Parser::parsingError</text>
</a>
</g>
</g>
<!-- Node217&#45;&gt;Node218 -->
<g id="edge5" class="edge">
<title>Node217&#45;&gt;Node218</title>
<path fill="none" stroke="#191970" d="M834.6397,-202.983C892.6973,-204.8095 972.6766,-209.6253 1042,-222 1045.1289,-222.5585 1071.1967,-230.146 1097.8812,-238.0114"/>
<polygon fill="#191970" stroke="#191970" points="1097.1171,-241.4351 1107.6989,-240.9093 1099.0988,-234.7215 1097.1171,-241.4351"/>
</g>
<!-- Node219 -->
<g id="node7" class="node">
<title>Node219</title>
<g id="a_node7"><a xlink:href="class_chimera_t_k_1_1_logical_name_map_parser.html#a4c94691489dc26f8edca6cb5c80ec934" target="_top" xlink:title="called inside parseFile() to parse an XML element and its sub&#45;elements recursivly ...">
<polygon fill="#ffffff" stroke="#000000" points="881,-143 881,-173 1042,-173 1042,-143 881,-143"/>
<text text-anchor="start" x="889" y="-161" font-family="Helvetica,sans-Serif" font-size="10.00" fill="#000000">ChimeraTK::LogicalNameMap</text>
<text text-anchor="middle" x="961.5" y="-150" font-family="Helvetica,sans-Serif" font-size="10.00" fill="#000000">Parser::parseElement</text>
</a>
</g>
</g>
<!-- Node217&#45;&gt;Node219 -->
<g id="edge6" class="edge">
<title>Node217&#45;&gt;Node219</title>
<path fill="none" stroke="#191970" d="M824.8294,-186.9808C842.8423,-183.1612 862.3321,-179.0284 880.7963,-175.1131"/>
<polygon fill="#191970" stroke="#191970" points="881.5813,-178.5245 890.6378,-173.0262 880.1292,-171.6768 881.5813,-178.5245"/>
</g>
<!-- Node219&#45;&gt;Node218 -->
<g id="edge7" class="edge">
<title>Node219&#45;&gt;Node218</title>
<path fill="none" stroke="#191970" d="M1014.2094,-173.0529C1023.9234,-177.0739 1033.6297,-182.013 1042,-188 1062.5511,-202.6994 1056.9683,-217.9969 1078,-232 1080.3899,-233.5912 1082.8883,-235.0796 1085.4644,-236.4716"/>
<polygon fill="#191970" stroke="#191970" points="1083.9525,-239.6282 1094.4776,-240.8423 1087.0068,-233.3297 1083.9525,-239.6282"/>
</g>
<!-- Node220 -->
<g id="node8" class="node">
<title>Node220</title>
<g id="a_node8"><a xlink:href="class_chimera_t_k_1_1_register_path.html#ac4b813fafa64ea898bc9b114291621a5" target="_top" xlink:title="return the length of the path (including leading slash) ">
<polygon fill="#ffffff" stroke="#000000" points="1090,-94 1090,-124 1227,-124 1227,-94 1090,-94"/>
<text text-anchor="start" x="1098" y="-112" font-family="Helvetica,sans-Serif" font-size="10.00" fill="#000000">ChimeraTK::RegisterPath</text>
<text text-anchor="middle" x="1158.5" y="-101" font-family="Helvetica,sans-Serif" font-size="10.00" fill="#000000">::length</text>
</a>
</g>
</g>
<!-- Node219&#45;&gt;Node220 -->
<g id="edge8" class="edge">
<title>Node219&#45;&gt;Node220</title>
<path fill="none" stroke="#191970" d="M1021.9453,-142.9654C1042.9348,-137.7446 1066.6487,-131.8463 1088.3544,-126.4474"/>
<polygon fill="#191970" stroke="#191970" points="1089.3095,-129.8165 1098.169,-124.0062 1087.6198,-123.0235 1089.3095,-129.8165"/>
</g>
<!-- Node221 -->
<g id="node9" class="node">
<title>Node221</title>
<g id="a_node9"><a xlink:href="namespace_chimera_t_k.html#a7f5acdbb978c1916af3a896bea089a7d" target="_top" xlink:title="Helper function for running code which uses some compile&#45;time type that is specified at runtime as a ...">
<polygon fill="#ffffff" stroke="#000000" points="1093,-55.5 1093,-74.5 1224,-74.5 1224,-55.5 1093,-55.5"/>
<text text-anchor="middle" x="1158.5" y="-62.5" font-family="Helvetica,sans-Serif" font-size="10.00" fill="#000000">ChimeraTK::callForType</text>
</a>
</g>
</g>
<!-- Node219&#45;&gt;Node221 -->
<g id="edge9" class="edge">
<title>Node219&#45;&gt;Node221</title>
<path fill="none" stroke="#191970" d="M1000.2577,-142.9568C1014.012,-136.7928 1029.2349,-128.9831 1042,-120 1060.5047,-106.9779 1058.2365,-95.0183 1078,-84 1082.1703,-81.675 1086.6153,-79.6335 1091.1933,-77.841"/>
<polygon fill="#191970" stroke="#191970" points="1092.4506,-81.1091 1100.7315,-74.5003 1090.1367,-74.5026 1092.4506,-81.1091"/>
</g>
<!-- Node223 -->
<g id="node11" class="node">
<title>Node223</title>
<g id="a_node11"><a xlink:href="namespace_chimera_t_k_1_1_l_n_m_backend.html#a92a9e1128129c84332ebdb679286fd95" target="_top" xlink:title="Factory function for accessor plugins. ">
<polygon fill="#ffffff" stroke="#000000" points="1088.5,-192 1088.5,-222 1228.5,-222 1228.5,-192 1088.5,-192"/>
<text text-anchor="start" x="1096.5" y="-210" font-family="Helvetica,sans-Serif" font-size="10.00" fill="#000000">ChimeraTK::LNMBackend</text>
<text text-anchor="middle" x="1158.5" y="-199" font-family="Helvetica,sans-Serif" font-size="10.00" fill="#000000">::makePlugin</text>
</a>
</g>
</g>
<!-- Node219&#45;&gt;Node223 -->
<g id="edge11" class="edge">
<title>Node219&#45;&gt;Node223</title>
<path fill="none" stroke="#191970" d="M1021.9453,-173.0346C1042.9348,-178.2554 1066.6487,-184.1537 1088.3544,-189.5526"/>
<polygon fill="#191970" stroke="#191970" points="1087.6198,-192.9765 1098.169,-191.9938 1089.3095,-186.1835 1087.6198,-192.9765"/>
</g>
<!-- Node224 -->
<g id="node12" class="node">
<title>Node224</title>
<g id="a_node12"><a xlink:href="class_chimera_t_k_1_1_backend_register_catalogue.html#a2761d0dccddca7293a2ac7a5ce8345fc" target="_top" xlink:title="Add register information to the catalogue. ">
<polygon fill="#ffffff" stroke="#000000" points="1079.5,-143 1079.5,-173 1237.5,-173 1237.5,-143 1079.5,-143"/>
<text text-anchor="start" x="1087.5" y="-161" font-family="Helvetica,sans-Serif" font-size="10.00" fill="#000000">ChimeraTK::BackendRegister</text>
<text text-anchor="middle" x="1158.5" y="-150" font-family="Helvetica,sans-Serif" font-size="10.00" fill="#000000">Catalogue::addRegister</text>
</a>
</g>
</g>
<!-- Node219&#45;&gt;Node224 -->
<g id="edge12" class="edge">
<title>Node219&#45;&gt;Node224</title>
<path fill="none" stroke="#191970" d="M1042.1959,-158C1051.0742,-158 1060.1522,-158 1069.1282,-158"/>
<polygon fill="#191970" stroke="#191970" points="1069.2031,-161.5001 1079.2031,-158 1069.203,-154.5001 1069.2031,-161.5001"/>
</g>
<!-- Node222 -->
<g id="node10" class="node">
<title>Node222</title>
<g id="a_node10"><a xlink:href="namespace_chimera_t_k.html#ae7a87d6ef5da36852a971cab2ac6eddc" target="_top" xlink:title="Variant of boost::fusion::for_each() to iterate a boost::fusion::map, which accepts a lambda instead ...">
<polygon fill="#ffffff" stroke="#000000" points="1291,-55.5 1291,-74.5 1410,-74.5 1410,-55.5 1291,-55.5"/>
<text text-anchor="middle" x="1350.5" y="-62.5" font-family="Helvetica,sans-Serif" font-size="10.00" fill="#000000">ChimeraTK::for_each</text>
</a>
</g>
</g>
<!-- Node221&#45;&gt;Node222 -->
<g id="edge10" class="edge">
<title>Node221&#45;&gt;Node222</title>
<path fill="none" stroke="#191970" d="M1224.0385,-65C1242.2789,-65 1262.1562,-65 1280.635,-65"/>
<polygon fill="#191970" stroke="#191970" points="1280.7379,-68.5001 1290.7378,-65 1280.7378,-61.5001 1280.7379,-68.5001"/>
</g>
<!-- Node228 -->
<g id="node16" class="node">
<title>Node228</title>
<g id="a_node16"><a xlink:href="class_chimera_t_k_1_1_utilities.html#ac9962632f9db42e2b2e7be4b3875a7bc" target="_top" xlink:title="Check whether the given string seems to be a CDD. ">
<polygon fill="#ffffff" stroke="#000000" points="1101,-356 1101,-386 1216,-386 1216,-356 1101,-356"/>
<text text-anchor="start" x="1109" y="-374" font-family="Helvetica,sans-Serif" font-size="10.00" fill="#000000">ChimeraTK::Utilities</text>
<text text-anchor="middle" x="1158.5" y="-363" font-family="Helvetica,sans-Serif" font-size="10.00" fill="#000000">::isDeviceDescriptor</text>
</a>
</g>
</g>
<!-- Node227&#45;&gt;Node228 -->
<g id="edge16" class="edge">
<title>Node227&#45;&gt;Node228</title>
<path fill="none" stroke="#191970" d="M829.5383,-288.1658C835.0658,-290.9172 840.3047,-294.1655 845,-298 872.4031,-320.3791 850.9187,-350.3757 881,-369 945.2796,-408.7976 1035.0232,-400.5567 1094.8608,-388.2167"/>
<polygon fill="#191970" stroke="#191970" points="1095.8984,-391.5734 1104.9349,-386.0424 1094.4215,-384.731 1095.8984,-391.5734"/>
</g>
<!-- Node229 -->
<g id="node17" class="node">
<title>Node229</title>
<g id="a_node17"><a xlink:href="class_chimera_t_k_1_1_utilities.html#a83888fde6b9a0555101d7cbc6d66a1c9" target="_top" xlink:title="Check wehter the given string seems to be an SDM. ">
<polygon fill="#ffffff" stroke="#000000" points="904,-280 904,-310 1019,-310 1019,-280 904,-280"/>
<text text-anchor="start" x="912" y="-298" font-family="Helvetica,sans-Serif" font-size="10.00" fill="#000000">ChimeraTK::Utilities</text>
<text text-anchor="middle" x="961.5" y="-287" font-family="Helvetica,sans-Serif" font-size="10.00" fill="#000000">::isSdm</text>
</a>
</g>
</g>
<!-- Node227&#45;&gt;Node229 -->
<g id="edge17" class="edge">
<title>Node227&#45;&gt;Node229</title>
<path fill="none" stroke="#191970" d="M831.2653,-281.192C851.8668,-283.3762 873.9613,-285.7188 893.9939,-287.8427"/>
<polygon fill="#191970" stroke="#191970" points="893.6404,-291.3248 903.9537,-288.8987 894.3785,-284.3638 893.6404,-291.3248"/>
</g>
<!-- Node230 -->
<g id="node18" class="node">
<title>Node230</title>
<g id="a_node18"><a xlink:href="class_chimera_t_k_1_1_backend_factory.html#a517b7eba664608f0cff9bf3b4dca8141" target="_top" xlink:title="Internal function to return a DeviceBackend. ">
<polygon fill="#ffffff" stroke="#000000" points="884.5,-329 884.5,-359 1038.5,-359 1038.5,-329 884.5,-329"/>
<text text-anchor="start" x="892.5" y="-347" font-family="Helvetica,sans-Serif" font-size="10.00" fill="#000000">ChimeraTK::BackendFactory</text>
<text text-anchor="middle" x="961.5" y="-336" font-family="Helvetica,sans-Serif" font-size="10.00" fill="#000000">::createBackendInternal</text>
</a>
</g>
</g>
<!-- Node227&#45;&gt;Node230 -->
<g id="edge18" class="edge">
<title>Node227&#45;&gt;Node230</title>
<path fill="none" stroke="#191970" d="M817.9372,-288.1115C827.1633,-290.9954 836.4289,-294.2918 845,-298 862.2095,-305.4456 863.872,-312.3686 881,-320 885.3502,-321.9382 889.9005,-323.7725 894.529,-325.4978"/>
<polygon fill="#191970" stroke="#191970" points="893.5057,-328.8483 904.1005,-328.8846 895.8408,-322.2493 893.5057,-328.8483"/>
</g>
<!-- Node231 -->
<g id="node19" class="node">
<title>Node231</title>
<g id="a_node19"><a xlink:href="class_chimera_t_k_1_1_utilities.html#a0124cd7dc8ef468a7c292788414848ed" target="_top" xlink:title="Search for an alias in a given DMap file and return the DeviceInfo entry. ">
<polygon fill="#ffffff" stroke="#000000" points="904,-231 904,-261 1019,-261 1019,-231 904,-231"/>
<text text-anchor="start" x="912" y="-249" font-family="Helvetica,sans-Serif" font-size="10.00" fill="#000000">ChimeraTK::Utilities</text>
<text text-anchor="middle" x="961.5" y="-238" font-family="Helvetica,sans-Serif" font-size="10.00" fill="#000000">::aliasLookUp</text>
</a>
</g>
</g>
<!-- Node227&#45;&gt;Node231 -->
<g id="edge20" class="edge">
<title>Node227&#45;&gt;Node231</title>
<path fill="none" stroke="#191970" d="M831.2653,-262.9462C851.8668,-260.2655 873.9613,-257.3906 893.9939,-254.7839"/>
<polygon fill="#191970" stroke="#191970" points="894.489,-258.2491 903.9537,-253.4879 893.5857,-251.3076 894.489,-258.2491"/>
</g>
<!-- Node230&#45;&gt;Node228 -->
<g id="edge19" class="edge">
<title>Node230&#45;&gt;Node228</title>
<path fill="none" stroke="#191970" d="M1038.5117,-354.5549C1055.6703,-356.9066 1073.7434,-359.3836 1090.5082,-361.6813"/>
<polygon fill="#191970" stroke="#191970" points="1090.3751,-365.1957 1100.7578,-363.0861 1091.3257,-358.2606 1090.3751,-365.1957"/>
</g>
<!-- Node232 -->
<g id="node20" class="node">
<title>Node232</title>
<g id="a_node20"><a xlink:href="class_chimera_t_k_1_1_d_map_file_parser.html#af5bc5f64b8e53e070862ac5e9992a412" target="_top" xlink:title="Performs parsing of specified DMAP file. ">
<polygon fill="#ffffff" stroke="#000000" points="1083,-290 1083,-320 1234,-320 1234,-290 1083,-290"/>
<text text-anchor="start" x="1091" y="-308" font-family="Helvetica,sans-Serif" font-size="10.00" fill="#000000">ChimeraTK::DMapFileParser</text>
<text text-anchor="middle" x="1158.5" y="-297" font-family="Helvetica,sans-Serif" font-size="10.00" fill="#000000">::parse</text>
</a>
</g>
</g>
<!-- Node231&#45;&gt;Node232 -->
<g id="edge21" class="edge">
<title>Node231&#45;&gt;Node232</title>
<path fill="none" stroke="#191970" d="M1011.3819,-261.0111C1032.0007,-267.2094 1056.1494,-274.4605 1078,-281 1084.477,-282.9385 1091.2481,-284.9619 1097.9943,-286.976"/>
<polygon fill="#191970" stroke="#191970" points="1097.2401,-290.4033 1107.8234,-289.9091 1099.2418,-283.6956 1097.2401,-290.4033"/>
</g>
<!-- Node233 -->
<g id="node21" class="node">
<title>Node233</title>
<g id="a_node21"><a xlink:href="namespace_chimera_t_k_1_1parser_utilities.html#ae2b9a4195d7e35aeb3bf43b51d160fe6" target="_top" xlink:title="Converts a relative path to its absolute path. ">
<polygon fill="#ffffff" stroke="#000000" points="1649,-315 1649,-345 1795,-345 1795,-315 1649,-315"/>
<text text-anchor="start" x="1657" y="-333" font-family="Helvetica,sans-Serif" font-size="10.00" fill="#000000">ChimeraTK::parserUtilities</text>
<text text-anchor="middle" x="1722" y="-322" font-family="Helvetica,sans-Serif" font-size="10.00" fill="#000000">::convertToAbsolutePath</text>
</a>
</g>
</g>
<!-- Node232&#45;&gt;Node233 -->
<g id="edge22" class="edge">
<title>Node232&#45;&gt;Node233</title>
<path fill="none" stroke="#191970" d="M1217.0837,-320.0344C1235.4918,-324.0926 1255.9776,-327.9305 1275,-330 1401.2862,-343.7391 1548.8319,-339.9081 1638.8166,-335.359"/>
<polygon fill="#191970" stroke="#191970" points="1639.1551,-338.8462 1648.9595,-334.8308 1638.791,-331.8557 1639.1551,-338.8462"/>
</g>
<!-- Node236 -->
<g id="node24" class="node">
<title>Node236</title>
<g id="a_node24"><a xlink:href="class_chimera_t_k_1_1_d_map_file_parser.html#ac4e96383171637a155abc9a61dd453e2" target="_top" xlink:title="ChimeraTK::DMapFileParser\l::parseForLoadLib">
<polygon fill="#ffffff" stroke="#000000" points="1275,-241 1275,-271 1426,-271 1426,-241 1275,-241"/>
<text text-anchor="start" x="1283" y="-259" font-family="Helvetica,sans-Serif" font-size="10.00" fill="#000000">ChimeraTK::DMapFileParser</text>
<text text-anchor="middle" x="1350.5" y="-248" font-family="Helvetica,sans-Serif" font-size="10.00" fill="#000000">::parseForLoadLib</text>
</a>
</g>
</g>
<!-- Node232&#45;&gt;Node236 -->
<g id="edge25" class="edge">
<title>Node232&#45;&gt;Node236</title>
<path fill="none" stroke="#191970" d="M1217.4111,-289.9654C1237.7758,-284.7682 1260.7718,-278.8994 1281.8488,-273.5204"/>
<polygon fill="#191970" stroke="#191970" points="1282.8763,-276.8704 1291.7003,-271.0062 1281.1453,-270.0878 1282.8763,-276.8704"/>
</g>
<!-- Node240 -->
<g id="node28" class="node">
<title>Node240</title>
<g id="a_node28"><a xlink:href="class_chimera_t_k_1_1_d_map_file_parser.html#a6a14373d71237411082ba2d86894e646" target="_top" xlink:title="ChimeraTK::DMapFileParser\l::parseRegularLine">
<polygon fill="#ffffff" stroke="#000000" points="1275,-290 1275,-320 1426,-320 1426,-290 1275,-290"/>
<text text-anchor="start" x="1283" y="-308" font-family="Helvetica,sans-Serif" font-size="10.00" fill="#000000">ChimeraTK::DMapFileParser</text>
<text text-anchor="middle" x="1350.5" y="-297" font-family="Helvetica,sans-Serif" font-size="10.00" fill="#000000">::parseRegularLine</text>
</a>
</g>
</g>
<!-- Node232&#45;&gt;Node240 -->
<g id="edge31" class="edge">
<title>Node232&#45;&gt;Node240</title>
<path fill="none" stroke="#191970" d="M1234.1079,-305C1244.182,-305 1254.5703,-305 1264.8007,-305"/>
<polygon fill="#191970" stroke="#191970" points="1264.961,-308.5001 1274.961,-305 1264.961,-301.5001 1264.961,-308.5001"/>
</g>
<!-- Node234 -->
<g id="node22" class="node">
<title>Node234</title>
<g id="a_node22"><a xlink:href="namespace_chimera_t_k_1_1parser_utilities.html#aa12c9ae1b43184cbb38d56f9aec8f630" target="_top" xlink:title="Concatenates two given paths using custom rules. ">
<polygon fill="#ffffff" stroke="#000000" points="1837.5,-271 1837.5,-301 1983.5,-301 1983.5,-271 1837.5,-271"/>
<text text-anchor="start" x="1845.5" y="-289" font-family="Helvetica,sans-Serif" font-size="10.00" fill="#000000">ChimeraTK::parserUtilities</text>
<text text-anchor="middle" x="1910.5" y="-278" font-family="Helvetica,sans-Serif" font-size="10.00" fill="#000000">::concatenatePaths</text>
</a>
</g>
</g>
<!-- Node233&#45;&gt;Node234 -->
<g id="edge23" class="edge">
<title>Node233&#45;&gt;Node234</title>
<path fill="none" stroke="#191970" d="M1786.3438,-314.9808C1802.3303,-311.2492 1819.5974,-307.2186 1836.0252,-303.384"/>
<polygon fill="#191970" stroke="#191970" points="1837.1838,-306.7078 1846.1264,-301.0262 1835.5925,-299.891 1837.1838,-306.7078"/>
</g>
<!-- Node235 -->
<g id="node23" class="node">
<title>Node235</title>
<g id="a_node23"><a xlink:href="namespace_chimera_t_k_1_1parser_utilities.html#a529f65d15e870ea369edaa98ad14ec84" target="_top" xlink:title="Returns absolute path to current working directory. The returned path ends with a forward slash...">
<polygon fill="#ffffff" stroke="#000000" points="1831,-320 1831,-350 1990,-350 1990,-320 1831,-320"/>
<text text-anchor="start" x="1839" y="-338" font-family="Helvetica,sans-Serif" font-size="10.00" fill="#000000">ChimeraTK::parserUtilities</text>
<text text-anchor="middle" x="1910.5" y="-327" font-family="Helvetica,sans-Serif" font-size="10.00" fill="#000000">::getCurrentWorkingDirectory</text>
</a>
</g>
</g>
<!-- Node233&#45;&gt;Node235 -->
<g id="edge24" class="edge">
<title>Node233&#45;&gt;Node235</title>
<path fill="none" stroke="#191970" d="M1795.1488,-331.9403C1803.554,-332.1632 1812.1952,-332.3924 1820.7861,-332.6203"/>
<polygon fill="#191970" stroke="#191970" points="1820.7413,-336.1203 1830.8306,-332.8868 1820.927,-329.1227 1820.7413,-336.1203"/>
</g>
<!-- Node237 -->
<g id="node25" class="node">
<title>Node237</title>
<g id="a_node25"><a xlink:href="class_chimera_t_k_1_1_d_map_file_parser.html#acf85a1a19c1c9e4a3d06c17256e6e31c" target="_top" xlink:title="ChimeraTK::DMapFileParser\l::absPathOfDMapContent">
<polygon fill="#ffffff" stroke="#000000" points="1462,-271 1462,-301 1613,-301 1613,-271 1462,-271"/>
<text text-anchor="start" x="1470" y="-289" font-family="Helvetica,sans-Serif" font-size="10.00" fill="#000000">ChimeraTK::DMapFileParser</text>
<text text-anchor="middle" x="1537.5" y="-278" font-family="Helvetica,sans-Serif" font-size="10.00" fill="#000000">::absPathOfDMapContent</text>
</a>
</g>
</g>
<!-- Node236&#45;&gt;Node237 -->
<g id="edge26" class="edge">
<title>Node236&#45;&gt;Node237</title>
<path fill="none" stroke="#191970" d="M1426.021,-268.1157C1434.4724,-269.4715 1443.1275,-270.86 1451.6957,-272.2346"/>
<polygon fill="#191970" stroke="#191970" points="1451.2687,-275.7108 1461.6969,-273.8391 1452.3776,-268.7992 1451.2687,-275.7108"/>
</g>
<!-- Node239 -->
<g id="node27" class="node">
<title>Node239</title>
<g id="a_node27"><a xlink:href="class_chimera_t_k_1_1_d_map_file_parser.html#aa26fc8c7291f2aa8cb393b25f61f6074" target="_top" xlink:title="ChimeraTK::DMapFileParser\l::raiseException">
<polygon fill="#ffffff" stroke="#000000" points="1462,-222 1462,-252 1613,-252 1613,-222 1462,-222"/>
<text text-anchor="start" x="1470" y="-240" font-family="Helvetica,sans-Serif" font-size="10.00" fill="#000000">ChimeraTK::DMapFileParser</text>
<text text-anchor="middle" x="1537.5" y="-229" font-family="Helvetica,sans-Serif" font-size="10.00" fill="#000000">::raiseException</text>
</a>
</g>
</g>
<!-- Node236&#45;&gt;Node239 -->
<g id="edge30" class="edge">
<title>Node236&#45;&gt;Node239</title>
<path fill="none" stroke="#191970" d="M1426.021,-248.3267C1434.4724,-247.468 1443.1275,-246.5887 1451.6957,-245.7181"/>
<polygon fill="#191970" stroke="#191970" points="1452.1019,-249.1949 1461.6969,-244.7019 1451.3943,-242.2308 1452.1019,-249.1949"/>
</g>
<!-- Node237&#45;&gt;Node233 -->
<g id="edge27" class="edge">
<title>Node237&#45;&gt;Node233</title>
<path fill="none" stroke="#191970" d="M1600.4784,-301.0192C1616.1256,-304.7508 1633.0263,-308.7814 1649.1055,-312.616"/>
<polygon fill="#191970" stroke="#191970" points="1648.4532,-316.0585 1658.9924,-314.9738 1650.0771,-309.2494 1648.4532,-316.0585"/>
</g>
<!-- Node237&#45;&gt;Node234 -->
<g id="edge29" class="edge">
<title>Node237&#45;&gt;Node234</title>
<path fill="none" stroke="#191970" d="M1613.4317,-286C1675.5042,-286 1763.1516,-286 1827.1536,-286"/>
<polygon fill="#191970" stroke="#191970" points="1827.2149,-289.5001 1837.2149,-286 1827.2149,-282.5001 1827.2149,-289.5001"/>
</g>
<!-- Node238 -->
<g id="node26" class="node">
<title>Node238</title>
<g id="a_node26"><a xlink:href="namespace_chimera_t_k_1_1parser_utilities.html#a91ebf0d4263ce92117ee4f260cdd5edf" target="_top" xlink:title="Returns the path to the directory containing the file provided as the input parameter. ">
<polygon fill="#ffffff" stroke="#000000" points="1649,-227 1649,-257 1795,-257 1795,-227 1649,-227"/>
<text text-anchor="start" x="1657" y="-245" font-family="Helvetica,sans-Serif" font-size="10.00" fill="#000000">ChimeraTK::parserUtilities</text>
<text text-anchor="middle" x="1722" y="-234" font-family="Helvetica,sans-Serif" font-size="10.00" fill="#000000">::extractDirectory</text>
</a>
</g>
</g>
<!-- Node237&#45;&gt;Node238 -->
<g id="edge28" class="edge">
<title>Node237&#45;&gt;Node238</title>
<path fill="none" stroke="#191970" d="M1600.4784,-270.9808C1616.1256,-267.2492 1633.0263,-263.2186 1649.1055,-259.384"/>
<polygon fill="#191970" stroke="#191970" points="1650.0771,-262.7506 1658.9924,-257.0262 1648.4532,-255.9415 1650.0771,-262.7506"/>
</g>
<!-- Node240&#45;&gt;Node233 -->
<g id="edge32" class="edge">
<title>Node240&#45;&gt;Node233</title>
<path fill="none" stroke="#191970" d="M1426.1264,-310.0893C1487.8485,-314.2428 1574.9599,-320.105 1638.6771,-324.3928"/>
<polygon fill="#191970" stroke="#191970" points="1638.4825,-327.8875 1648.695,-325.067 1638.9526,-320.9033 1638.4825,-327.8875"/>
</g>
<!-- Node240&#45;&gt;Node237 -->
<g id="edge33" class="edge">
<title>Node240&#45;&gt;Node237</title>
<path fill="none" stroke="#191970" d="M1426.021,-297.3267C1434.4724,-296.468 1443.1275,-295.5887 1451.6957,-294.7181"/>
<polygon fill="#191970" stroke="#191970" points="1452.1019,-298.1949 1461.6969,-293.7019 1451.3943,-291.2308 1452.1019,-298.1949"/>
</g>
<!-- Node240&#45;&gt;Node239 -->
<g id="edge34" class="edge">
<title>Node240&#45;&gt;Node239</title>
<path fill="none" stroke="#191970" d="M1402.1169,-289.9443C1410.1976,-287.2008 1418.3885,-284.1885 1426,-281 1442.6867,-274.0098 1445.3555,-269.0901 1462,-262 1467.2896,-259.7468 1472.856,-257.5651 1478.4692,-255.4914"/>
<polygon fill="#191970" stroke="#191970" points="1479.6832,-258.7743 1487.9193,-252.1096 1477.3247,-252.1836 1479.6832,-258.7743"/>
</g>
<!-- Node241&#45;&gt;Node221 -->
<g id="edge36" class="edge">
<title>Node241&#45;&gt;Node221</title>
<path fill="none" stroke="#191970" d="M627.0631,-109.0905C728.451,-103.3011 897.1325,-92.7059 1042,-79 1055.1713,-77.7539 1069.1577,-76.239 1082.6978,-74.6719"/>
<polygon fill="#191970" stroke="#191970" points="1083.4213,-78.111 1092.9441,-73.4669 1082.6037,-71.1589 1083.4213,-78.111"/>
</g>
<!-- Node242&#45;&gt;Node221 -->
<g id="edge38" class="edge">
<title>Node242&#45;&gt;Node221</title>
<path fill="none" stroke="#191970" d="M627.1835,-65C750.4408,-65 967.9666,-65 1082.7247,-65"/>
<polygon fill="#191970" stroke="#191970" points="1082.8291,-68.5001 1092.829,-65 1082.829,-61.5001 1082.8291,-68.5001"/>
</g>
<!-- Node243&#45;&gt;Node216 -->
<g id="edge40" class="edge">
<title>Node243&#45;&gt;Node216</title>
<path fill="none" stroke="#191970" d="M395.0874,-227.9659C411.11,-225.0134 428.0182,-221.8978 444.345,-218.8892"/>
<polygon fill="#191970" stroke="#191970" points="445.2224,-222.2866 454.4225,-217.0323 443.9538,-215.4025 445.2224,-222.2866"/>
</g>
<!-- Node245 -->
<g id="node33" class="node">
<title>Node245</title>
<g id="a_node33"><a xlink:href="class_chimera_t_k_1_1_device_backend.html#a85a134106068b02a89cbfa9a4559ccfc" target="_top" xlink:title="Get a NDRegisterAccessor object from the register name. ">
<polygon fill="#ffffff" stroke="#000000" points="460,-1 460,-31 612,-31 612,-1 460,-1"/>
<text text-anchor="start" x="468" y="-19" font-family="Helvetica,sans-Serif" font-size="10.00" fill="#000000">ChimeraTK::DeviceBackend</text>
<text text-anchor="middle" x="536" y="-8" font-family="Helvetica,sans-Serif" font-size="10.00" fill="#000000">::getRegisterAccessor</text>
</a>
</g>
</g>
<!-- Node244&#45;&gt;Node245 -->
<g id="edge42" class="edge">
<title>Node244&#45;&gt;Node245</title>
<path fill="none" stroke="#191970" d="M404.6413,-18.9519C419.5603,-18.6166 434.9784,-18.2701 449.7738,-17.9377"/>
<polygon fill="#191970" stroke="#191970" points="449.9847,-21.4339 459.9035,-17.71 449.8273,-14.4357 449.9847,-21.4339"/>
</g>
</g>
</svg>
