<?xml version="1.0" encoding="UTF-8" standalone="no"?>
<!DOCTYPE svg PUBLIC "-//W3C//DTD SVG 1.1//EN"
 "http://www.w3.org/Graphics/SVG/1.1/DTD/svg11.dtd">
<!-- Generated by graphviz version 2.40.1 (20161225.0304)
 -->
<!-- Title: TestableDummyBackend Pages: 1 -->
<svg width="2025pt" height="587pt"
 viewBox="0.00 0.00 2025.00 586.64" xmlns="http://www.w3.org/2000/svg" xmlns:xlink="http://www.w3.org/1999/xlink">
<g id="graph0" class="graph" transform="scale(1 1) rotate(0) translate(4 582.6423)">
<title>TestableDummyBackend</title>
<polygon fill="#ffffff" stroke="transparent" points="-4,4 -4,-582.6423 2021,-582.6423 2021,4 -4,4"/>
<!-- Node3 -->
<g id="node1" class="node">
<title>Node3</title>
<polygon fill="#bfbfbf" stroke="#000000" points="1879,-443.1423 1879,-462.1423 2017,-462.1423 2017,-443.1423 1879,-443.1423"/>
<text text-anchor="middle" x="1948" y="-450.1423" font-family="Helvetica,sans-Serif" font-size="10.00" fill="#000000">TestableDummyBackend</text>
</g>
<!-- Node4 -->
<g id="node2" class="node">
<title>Node4</title>
<g id="a_node2"><a xlink:href="class_chimera_t_k_1_1_dummy_backend.html" target="_top" xlink:title="The dummy device opens a mapping file instead of a device, and implements all registers defined in th...">
<polygon fill="#ffffff" stroke="#000000" points="1080,-459.1423 1080,-478.1423 1238,-478.1423 1238,-459.1423 1080,-459.1423"/>
<text text-anchor="middle" x="1159" y="-466.1423" font-family="Helvetica,sans-Serif" font-size="10.00" fill="#000000">ChimeraTK::DummyBackend</text>
</a>
</g>
</g>
<!-- Node4&#45;&gt;Node3 -->
<g id="edge1" class="edge">
<title>Node4&#45;&gt;Node3</title>
<path fill="none" stroke="#191970" d="M1248.3785,-467.0163C1252.9833,-467.2548 1257.5446,-467.4695 1262,-467.6423 1279.3203,-468.3139 1283.6669,-467.733 1301,-467.6423 1385.8924,-467.1978 1407.143,-468.1326 1492,-465.6423 1629.2567,-461.6141 1789.5828,-452.9621 1878.8898,-450.5792"/>
<polygon fill="#191970" stroke="#191970" points="1248.4291,-463.5139 1238.253,-466.463 1248.0471,-470.5035 1248.4291,-463.5139"/>
</g>
<!-- Node4&#45;&gt;Node3 -->
<g id="edge20" class="edge">
<title>Node4&#45;&gt;Node3</title>
<path fill="none" stroke="#191970" d="M1193.0201,-479.8102C1213.0736,-482.7344 1238.9544,-484.7486 1262,-485.6423 1279.3203,-486.3139 1283.6669,-485.733 1301,-485.6423 1385.8924,-485.1978 1407.143,-486.1326 1492,-483.6423 1634.0102,-479.4745 1800.7153,-470.3572 1887.909,-462.1754"/>
<polygon fill="#191970" stroke="#191970" points="1193.5425,-476.3492 1183.1104,-478.1992 1192.4192,-483.2585 1193.5425,-476.3492"/>
</g>
<!-- Node19 -->
<g id="node17" class="node">
<title>Node19</title>
<g id="a_node17"><a xlink:href="class_chimera_t_k_1_1_dummy_register_accessor.html" target="_top" xlink:title="ChimeraTK::DummyRegister\lAccessor\&lt; int \&gt;">
<polygon fill="#ffffff" stroke="#000000" points="1576,-390.6423 1576,-420.6423 1731,-420.6423 1731,-390.6423 1576,-390.6423"/>
<text text-anchor="start" x="1584" y="-408.6423" font-family="Helvetica,sans-Serif" font-size="10.00" fill="#000000">ChimeraTK::DummyRegister</text>
<text text-anchor="middle" x="1653.5" y="-397.6423" font-family="Helvetica,sans-Serif" font-size="10.00" fill="#000000">Accessor&lt; int &gt;</text>
</a>
</g>
</g>
<!-- Node4&#45;&gt;Node19 -->
<g id="edge30" class="edge">
<title>Node4&#45;&gt;Node19</title>
<path fill="none" stroke="#9a32cd" stroke-dasharray="5,2" d="M1248.7501,-464.4745C1328.1486,-459.811 1446.9098,-450.4465 1549,-432.6423 1566.4443,-429.6 1585.2494,-425.1247 1602.0337,-420.6888"/>
<polygon fill="#9a32cd" stroke="#9a32cd" points="1248.0816,-461.0071 1238.2987,-465.0746 1248.4829,-467.9956 1248.0816,-461.0071"/>
<text text-anchor="middle" x="1405.5" y="-462.6423" font-family="Helvetica,sans-Serif" font-size="10.00" fill="#000000"> _dev</text>
</g>
<!-- Node26 -->
<g id="node24" class="node">
<title>Node26</title>
<g id="a_node24"><a xlink:href="class_chimera_t_k_1_1_dummy_register_accessor.html" target="_top" xlink:title="Register accessor for accessing single word or 1D array registers internally of a DummyBackend implem...">
<polygon fill="#ffffff" stroke="#000000" points="1328,-312.6423 1328,-342.6423 1483,-342.6423 1483,-312.6423 1328,-312.6423"/>
<text text-anchor="start" x="1336" y="-330.6423" font-family="Helvetica,sans-Serif" font-size="10.00" fill="#000000">ChimeraTK::DummyRegister</text>
<text text-anchor="middle" x="1405.5" y="-319.6423" font-family="Helvetica,sans-Serif" font-size="10.00" fill="#000000">Accessor&lt; T &gt;</text>
</a>
</g>
</g>
<!-- Node4&#45;&gt;Node26 -->
<g id="edge35" class="edge">
<title>Node4&#45;&gt;Node26</title>
<path fill="none" stroke="#9a32cd" stroke-dasharray="5,2" d="M1176.8594,-452.1939C1196.6977,-434.4283 1230.1428,-405.9471 1262,-385.6423 1285.8014,-370.472 1292.951,-368.5092 1319,-357.6423 1331.6158,-352.3793 1345.5173,-347.2667 1358.4168,-342.7975"/>
<polygon fill="#9a32cd" stroke="#9a32cd" points="1174.2991,-449.7906 1169.2347,-459.0967 1178.9971,-454.98 1174.2991,-449.7906"/>
<text text-anchor="middle" x="1281.5" y="-388.6423" font-family="Helvetica,sans-Serif" font-size="10.00" fill="#000000"> _dev</text>
</g>
<!-- Node27 -->
<g id="node25" class="node">
<title>Node27</title>
<g id="a_node25"><a xlink:href="class_chimera_t_k_1_1_dummy_multiplexed_register_accessor.html" target="_top" xlink:title="ChimeraTK::DummyMultiplexed\lRegisterAccessor\&lt; int \&gt;">
<polygon fill="#ffffff" stroke="#000000" points="1567,-124.6423 1567,-154.6423 1740,-154.6423 1740,-124.6423 1567,-124.6423"/>
<text text-anchor="start" x="1575" y="-142.6423" font-family="Helvetica,sans-Serif" font-size="10.00" fill="#000000">ChimeraTK::DummyMultiplexed</text>
<text text-anchor="middle" x="1653.5" y="-131.6423" font-family="Helvetica,sans-Serif" font-size="10.00" fill="#000000">RegisterAccessor&lt; int &gt;</text>
</a>
</g>
</g>
<!-- Node4&#45;&gt;Node27 -->
<g id="edge39" class="edge">
<title>Node4&#45;&gt;Node27</title>
<path fill="none" stroke="#9a32cd" stroke-dasharray="5,2" d="M1210.1483,-456.6742C1237.3815,-449.8718 1271.2944,-440.7121 1301,-430.6423 1388.0007,-401.1499 1419.2031,-407.6738 1492,-351.6423 1567.1641,-293.7887 1625.5102,-192.6461 1645.7743,-154.6432"/>
<polygon fill="#9a32cd" stroke="#9a32cd" points="1209.3073,-453.2766 1200.4373,-459.071 1210.9847,-460.0727 1209.3073,-453.2766"/>
<text text-anchor="middle" x="1405.5" y="-427.6423" font-family="Helvetica,sans-Serif" font-size="10.00" fill="#000000"> _dev</text>
</g>
<!-- Node30 -->
<g id="node28" class="node">
<title>Node30</title>
<g id="a_node28"><a xlink:href="class_chimera_t_k_1_1_dummy_multiplexed_register_accessor.html" target="_top" xlink:title="Register accessor for accessing multiplexed 2D array registers internally of a DummyBackend implement...">
<polygon fill="#ffffff" stroke="#000000" points="1319,-52.6423 1319,-82.6423 1492,-82.6423 1492,-52.6423 1319,-52.6423"/>
<text text-anchor="start" x="1327" y="-70.6423" font-family="Helvetica,sans-Serif" font-size="10.00" fill="#000000">ChimeraTK::DummyMultiplexed</text>
<text text-anchor="middle" x="1405.5" y="-59.6423" font-family="Helvetica,sans-Serif" font-size="10.00" fill="#000000">RegisterAccessor&lt; T &gt;</text>
</a>
</g>
</g>
<!-- Node4&#45;&gt;Node30 -->
<g id="edge47" class="edge">
<title>Node4&#45;&gt;Node30</title>
<path fill="none" stroke="#9a32cd" stroke-dasharray="5,2" d="M1174.4904,-451.2527C1208.3847,-412.777 1287.2074,-320.8305 1301,-282.6423 1315.0313,-243.7932 1293.4481,-130.0957 1319,-97.6423 1323.8181,-91.5229 1329.9607,-86.6469 1336.7445,-82.7627"/>
<polygon fill="#9a32cd" stroke="#9a32cd" points="1171.6243,-449.2101 1167.6186,-459.0186 1176.8666,-453.8489 1171.6243,-449.2101"/>
<text text-anchor="middle" x="1281.5" y="-347.6423" font-family="Helvetica,sans-Serif" font-size="10.00" fill="#000000"> _dev</text>
</g>
<!-- Node5 -->
<g id="node3" class="node">
<title>Node5</title>
<polygon fill="#ffffff" stroke="#bfbfbf" points="692,-557.1423 692,-576.1423 917,-576.1423 917,-557.1423 692,-557.1423"/>
<text text-anchor="middle" x="804.5" y="-564.1423" font-family="Helvetica,sans-Serif" font-size="10.00" fill="#000000">DummyBackendBase&lt; DummyBackend &gt;</text>
</g>
<!-- Node5&#45;&gt;Node4 -->
<g id="edge2" class="edge">
<title>Node5&#45;&gt;Node4</title>
<path fill="none" stroke="#191970" d="M886.0597,-555.4934C935.9641,-547.3552 1000.6443,-534.4288 1056,-515.6423 1086.7114,-505.2195 1120.6222,-488.7075 1140.85,-478.2856"/>
<polygon fill="#191970" stroke="#191970" points="885.2857,-552.0726 875.9637,-557.1076 886.3909,-558.9848 885.2857,-552.0726"/>
</g>
<!-- Node6 -->
<g id="node4" class="node">
<title>Node6</title>
<polygon fill="#ffffff" stroke="#bfbfbf" points="747,-459.1423 747,-478.1423 862,-478.1423 862,-459.1423 747,-459.1423"/>
<text text-anchor="middle" x="804.5" y="-466.1423" font-family="Helvetica,sans-Serif" font-size="10.00" fill="#000000">std::set&lt; uint64_t &gt;</text>
</g>
<!-- Node6&#45;&gt;Node4 -->
<g id="edge3" class="edge">
<title>Node6&#45;&gt;Node4</title>
<path fill="none" stroke="#9a32cd" stroke-dasharray="5,2" d="M872.6059,-468.6423C931.7796,-468.6423 1017.5254,-468.6423 1079.7596,-468.6423"/>
<polygon fill="#9a32cd" stroke="#9a32cd" points="872.2456,-465.1423 862.2455,-468.6423 872.2455,-472.1423 872.2456,-465.1423"/>
<text text-anchor="middle" x="995.5" y="-471.6423" font-family="Helvetica,sans-Serif" font-size="10.00" fill="#000000"> _readOnlyAddresses</text>
</g>
<!-- Node7 -->
<g id="node5" class="node">
<title>Node7</title>
<g id="a_node5"><a xlink:title="STL class. ">
<polygon fill="#ffffff" stroke="#bfbfbf" points="352,-458.1423 352,-477.1423 434,-477.1423 434,-458.1423 352,-458.1423"/>
<text text-anchor="middle" x="393" y="-465.1423" font-family="Helvetica,sans-Serif" font-size="10.00" fill="#000000">std::set&lt; K &gt;</text>
</a>
</g>
</g>
<!-- Node7&#45;&gt;Node6 -->
<g id="edge4" class="edge">
<title>Node7&#45;&gt;Node6</title>
<path fill="none" stroke="#ffa500" stroke-dasharray="5,2" d="M444.7581,-467.768C521.8577,-467.9554 666.3926,-468.3066 746.8002,-468.502"/>
<polygon fill="#ffa500" stroke="#ffa500" points="444.3488,-464.2671 434.3403,-467.7427 444.3317,-471.2671 444.3488,-464.2671"/>
<text text-anchor="middle" x="582" y="-471.6423" font-family="Helvetica,sans-Serif" font-size="10.00" fill="#000000"> &lt; uint64_t &gt;</text>
</g>
<!-- Node8 -->
<g id="node6" class="node">
<title>Node8</title>
<polygon fill="#ffffff" stroke="#bfbfbf" points="151.5,-458.1423 151.5,-477.1423 180.5,-477.1423 180.5,-458.1423 151.5,-458.1423"/>
<text text-anchor="middle" x="166" y="-465.1423" font-family="Helvetica,sans-Serif" font-size="10.00" fill="#000000">K</text>
</g>
<!-- Node8&#45;&gt;Node7 -->
<g id="edge5" class="edge">
<title>Node8&#45;&gt;Node7</title>
<path fill="none" stroke="#9a32cd" stroke-dasharray="5,2" d="M190.8838,-467.6423C229.5928,-467.6423 304.6512,-467.6423 351.607,-467.6423"/>
<polygon fill="#9a32cd" stroke="#9a32cd" points="190.5452,-464.1423 180.5452,-467.6423 190.5452,-471.1423 190.5452,-464.1423"/>
<text text-anchor="middle" x="266" y="-470.6423" font-family="Helvetica,sans-Serif" font-size="10.00" fill="#000000"> keys</text>
</g>
<!-- Node11 -->
<g id="node9" class="node">
<title>Node11</title>
<g id="a_node9"><a xlink:title="STL class. ">
<polygon fill="#ffffff" stroke="#bfbfbf" points="330,-546.1423 330,-565.1423 456,-565.1423 456,-546.1423 330,-546.1423"/>
<text text-anchor="middle" x="393" y="-553.1423" font-family="Helvetica,sans-Serif" font-size="10.00" fill="#000000">std::multimap&lt; K, T &gt;</text>
</a>
</g>
</g>
<!-- Node8&#45;&gt;Node11 -->
<g id="edge9" class="edge">
<title>Node8&#45;&gt;Node11</title>
<path fill="none" stroke="#9a32cd" stroke-dasharray="5,2" d="M190.4792,-476.6533C217.0831,-486.7955 260.5372,-504.3895 296,-523.6423 304.4499,-528.2297 305.2129,-531.7395 314,-535.6423 323.5682,-539.892 334.2058,-543.356 344.495,-546.1334"/>
<polygon fill="#9a32cd" stroke="#9a32cd" points="191.4256,-473.2698 180.8336,-473.0218 188.9591,-479.8209 191.4256,-473.2698"/>
<text text-anchor="middle" x="266" y="-526.6423" font-family="Helvetica,sans-Serif" font-size="10.00" fill="#000000"> keys</text>
</g>
<!-- Node18 -->
<g id="node16" class="node">
<title>Node18</title>
<g id="a_node16"><a xlink:title="STL class. ">
<polygon fill="#ffffff" stroke="#bfbfbf" points="342.5,-420.1423 342.5,-439.1423 443.5,-439.1423 443.5,-420.1423 342.5,-420.1423"/>
<text text-anchor="middle" x="393" y="-427.1423" font-family="Helvetica,sans-Serif" font-size="10.00" fill="#000000">std::map&lt; K, T &gt;</text>
</a>
</g>
</g>
<!-- Node8&#45;&gt;Node18 -->
<g id="edge18" class="edge">
<title>Node8&#45;&gt;Node18</title>
<path fill="none" stroke="#9a32cd" stroke-dasharray="5,2" d="M190.5805,-461.9622C203.9673,-458.9731 220.8471,-455.3727 236,-452.6423 271.3802,-446.2671 311.4873,-440.4148 342.3082,-436.2089"/>
<polygon fill="#9a32cd" stroke="#9a32cd" points="189.6738,-458.5788 180.6932,-464.2 191.2191,-465.4061 189.6738,-458.5788"/>
<text text-anchor="middle" x="266" y="-455.6423" font-family="Helvetica,sans-Serif" font-size="10.00" fill="#000000"> keys</text>
</g>
<!-- Node9 -->
<g id="node7" class="node">
<title>Node9</title>
<polygon fill="#ffffff" stroke="#bfbfbf" points="713.5,-497.1423 713.5,-538.1423 895.5,-538.1423 895.5,-497.1423 713.5,-497.1423"/>
<text text-anchor="start" x="721.5" y="-526.1423" font-family="Helvetica,sans-Serif" font-size="10.00" fill="#000000">std::multimap&lt; ChimeraTK</text>
<text text-anchor="start" x="721.5" y="-515.1423" font-family="Helvetica,sans-Serif" font-size="10.00" fill="#000000">::DummyBackend::AddressRange,</text>
<text text-anchor="middle" x="804.5" y="-504.1423" font-family="Helvetica,sans-Serif" font-size="10.00" fill="#000000"> boost::function&lt; void(void)&gt; &gt;</text>
</g>
<!-- Node9&#45;&gt;Node4 -->
<g id="edge6" class="edge">
<title>Node9&#45;&gt;Node4</title>
<path fill="none" stroke="#9a32cd" stroke-dasharray="5,2" d="M905.5809,-504.2175C951.5011,-498.057 1006.509,-490.5911 1056,-483.6423 1068.4371,-481.896 1081.7127,-479.9924 1094.4549,-478.1455"/>
<polygon fill="#9a32cd" stroke="#9a32cd" points="905.0717,-500.7544 895.6253,-505.5518 906.0016,-507.6923 905.0717,-500.7544"/>
<text text-anchor="middle" x="995.5" y="-503.6423" font-family="Helvetica,sans-Serif" font-size="10.00" fill="#000000"> _writeCallbackFunctions</text>
</g>
<!-- Node10 -->
<g id="node8" class="node">
<title>Node10</title>
<g id="a_node8"><a xlink:href="struct_chimera_t_k_1_1_dummy_backend_1_1_address_range.html" target="_top" xlink:title="ChimeraTK::DummyBackend\l::AddressRange">
<polygon fill="#ffffff" stroke="#000000" points="314,-496.6423 314,-526.6423 472,-526.6423 472,-496.6423 314,-496.6423"/>
<text text-anchor="start" x="322" y="-514.6423" font-family="Helvetica,sans-Serif" font-size="10.00" fill="#000000">ChimeraTK::DummyBackend</text>
<text text-anchor="middle" x="393" y="-503.6423" font-family="Helvetica,sans-Serif" font-size="10.00" fill="#000000">::AddressRange</text>
</a>
</g>
</g>
<!-- Node10&#45;&gt;Node9 -->
<g id="edge7" class="edge">
<title>Node10&#45;&gt;Node9</title>
<path fill="none" stroke="#9a32cd" stroke-dasharray="5,2" d="M482.6477,-512.9494C550.9159,-513.9448 644.5356,-515.3098 713.2067,-516.3111"/>
<polygon fill="#9a32cd" stroke="#9a32cd" points="482.3913,-509.4454 472.3413,-512.7991 482.2892,-516.4446 482.3913,-509.4454"/>
<text text-anchor="middle" x="582" y="-519.6423" font-family="Helvetica,sans-Serif" font-size="10.00" fill="#000000"> keys</text>
</g>
<!-- Node11&#45;&gt;Node9 -->
<g id="edge8" class="edge">
<title>Node11&#45;&gt;Node9</title>
<path fill="none" stroke="#ffa500" stroke-dasharray="5,2" d="M466.7391,-548.8328C535.721,-542.4627 638.9704,-532.9281 713.1439,-526.0785"/>
<polygon fill="#ffa500" stroke="#ffa500" points="466.0308,-545.3832 456.3951,-549.788 466.6746,-552.3536 466.0308,-545.3832"/>
<text text-anchor="start" x="504" y="-570.6423" font-family="Helvetica,sans-Serif" font-size="10.00" fill="#000000"> &lt; ChimeraTK::DummyBackend</text>
<text text-anchor="start" x="504" y="-559.6423" font-family="Helvetica,sans-Serif" font-size="10.00" fill="#000000">::AddressRange, boost::</text>
<text text-anchor="middle" x="582" y="-548.6423" font-family="Helvetica,sans-Serif" font-size="10.00" fill="#000000">function&lt; void(void)&gt; &gt;</text>
</g>
<!-- Node12 -->
<g id="node10" class="node">
<title>Node12</title>
<polygon fill="#ffffff" stroke="#bfbfbf" points="0,-342.1423 0,-361.1423 29,-361.1423 29,-342.1423 0,-342.1423"/>
<text text-anchor="middle" x="14.5" y="-349.1423" font-family="Helvetica,sans-Serif" font-size="10.00" fill="#000000">T</text>
</g>
<!-- Node12&#45;&gt;Node11 -->
<g id="edge10" class="edge">
<title>Node12&#45;&gt;Node11</title>
<path fill="none" stroke="#9a32cd" stroke-dasharray="5,2" d="M23.7579,-370.2156C38.926,-398.9126 71.6656,-454.1079 114,-486.6423 176.8066,-534.9097 269.0064,-549.8478 329.993,-554.2318"/>
<polygon fill="#9a32cd" stroke="#9a32cd" points="26.8304,-368.5369 19.1387,-361.2507 20.6078,-371.7432 26.8304,-368.5369"/>
<text text-anchor="middle" x="166" y="-537.6423" font-family="Helvetica,sans-Serif" font-size="10.00" fill="#000000"> elements</text>
</g>
<!-- Node17 -->
<g id="node15" class="node">
<title>Node17</title>
<g id="a_node15"><a xlink:title="STL class. ">
<polygon fill="#ffffff" stroke="#bfbfbf" points="117.5,-207.1423 117.5,-226.1423 214.5,-226.1423 214.5,-207.1423 117.5,-207.1423"/>
<text text-anchor="middle" x="166" y="-214.1423" font-family="Helvetica,sans-Serif" font-size="10.00" fill="#000000">std::vector&lt; T &gt;</text>
</a>
</g>
</g>
<!-- Node12&#45;&gt;Node17 -->
<g id="edge16" class="edge">
<title>Node12&#45;&gt;Node17</title>
<path fill="none" stroke="#9a32cd" stroke-dasharray="5,2" d="M33.1534,-335.0204C65.1801,-306.4817 129.6432,-249.0394 155.2032,-226.2631"/>
<polygon fill="#9a32cd" stroke="#9a32cd" points="30.533,-332.6675 25.3955,-341.9334 35.19,-337.8936 30.533,-332.6675"/>
<text text-anchor="middle" x="71.5" y="-325.6423" font-family="Helvetica,sans-Serif" font-size="10.00" fill="#000000"> elements</text>
</g>
<!-- Node12&#45;&gt;Node18 -->
<g id="edge19" class="edge">
<title>Node12&#45;&gt;Node18</title>
<path fill="none" stroke="#9a32cd" stroke-dasharray="5,2" d="M39.4948,-349.3257C78.4131,-346.4751 155.5148,-343.8735 218,-360.6423 264.4629,-373.1112 268.9448,-393.781 314,-410.6423 323.9086,-414.3504 334.7921,-417.5166 345.2286,-420.1401"/>
<polygon fill="#9a32cd" stroke="#9a32cd" points="38.8238,-345.8683 29.1366,-350.1588 39.385,-352.8457 38.8238,-345.8683"/>
<text text-anchor="middle" x="166" y="-363.6423" font-family="Helvetica,sans-Serif" font-size="10.00" fill="#000000"> elements</text>
</g>
<!-- Node13 -->
<g id="node11" class="node">
<title>Node13</title>
<g id="a_node11"><a xlink:title="STL class. ">
<polygon fill="#ffffff" stroke="#bfbfbf" points="360.5,-382.1423 360.5,-401.1423 425.5,-401.1423 425.5,-382.1423 360.5,-382.1423"/>
<text text-anchor="middle" x="393" y="-389.1423" font-family="Helvetica,sans-Serif" font-size="10.00" fill="#000000">std::string</text>
</a>
</g>
</g>
<!-- Node13&#45;&gt;Node4 -->
<g id="edge11" class="edge">
<title>Node13&#45;&gt;Node4</title>
<path fill="none" stroke="#9a32cd" stroke-dasharray="5,2" d="M436.0301,-393.9191C491.2093,-396.9841 589.8291,-402.9516 674,-410.6423 782.2636,-420.5343 809.0546,-425.7326 917,-438.6423 972.8027,-445.3159 1035.8055,-453.1353 1083.5357,-459.1175"/>
<polygon fill="#9a32cd" stroke="#9a32cd" points="436.0953,-390.4175 425.9182,-393.363 435.7108,-397.4069 436.0953,-390.4175"/>
<text text-anchor="middle" x="804.5" y="-441.6423" font-family="Helvetica,sans-Serif" font-size="10.00" fill="#000000"> _mapFile</text>
</g>
<!-- Node24 -->
<g id="node22" class="node">
<title>Node24</title>
<g id="a_node22"><a xlink:href="class_chimera_t_k_1_1_register_info_map_1_1_register_info.html" target="_top" xlink:title="Stores information about one PCIe register. ">
<polygon fill="#ffffff" stroke="#000000" points="727,-190.6423 727,-220.6423 882,-220.6423 882,-190.6423 727,-190.6423"/>
<text text-anchor="start" x="735" y="-208.6423" font-family="Helvetica,sans-Serif" font-size="10.00" fill="#000000">ChimeraTK::RegisterInfoMap</text>
<text text-anchor="middle" x="804.5" y="-197.6423" font-family="Helvetica,sans-Serif" font-size="10.00" fill="#000000">::RegisterInfo</text>
</a>
</g>
</g>
<!-- Node13&#45;&gt;Node24 -->
<g id="edge29" class="edge">
<title>Node13&#45;&gt;Node24</title>
<path fill="none" stroke="#9a32cd" stroke-dasharray="5,2" d="M435.5251,-380.1167C448.3499,-375.0945 461.733,-368.1256 472,-358.6423 484.8495,-346.7736 476.9346,-335.2729 490,-323.6423 557.1897,-263.8311 657.5908,-233.2568 726.7876,-218.4012"/>
<polygon fill="#9a32cd" stroke="#9a32cd" points="434.1103,-376.9061 425.8876,-383.5872 436.482,-383.4921 434.1103,-376.9061"/>
<text text-anchor="middle" x="582" y="-337.6423" font-family="Helvetica,sans-Serif" font-size="10.00" fill="#000000"> module</text>
<text text-anchor="middle" x="582" y="-326.6423" font-family="Helvetica,sans-Serif" font-size="10.00" fill="#000000">name</text>
</g>
<!-- Node14 -->
<g id="node12" class="node">
<title>Node14</title>
<g id="a_node12"><a xlink:title="STL class. ">
<polygon fill="#ffffff" stroke="#bfbfbf" points="114,-381.6423 114,-411.6423 218,-411.6423 218,-381.6423 114,-381.6423"/>
<text text-anchor="start" x="122" y="-399.6423" font-family="Helvetica,sans-Serif" font-size="10.00" fill="#000000">std::basic_string&lt;</text>
<text text-anchor="middle" x="166" y="-388.6423" font-family="Helvetica,sans-Serif" font-size="10.00" fill="#000000"> char &gt;</text>
</a>
</g>
</g>
<!-- Node14&#45;&gt;Node13 -->
<g id="edge12" class="edge">
<title>Node14&#45;&gt;Node13</title>
<path fill="none" stroke="#191970" d="M228.114,-395.2741C270.9021,-394.3316 326.0405,-393.1171 360.4604,-392.359"/>
<polygon fill="#191970" stroke="#191970" points="227.9989,-391.7757 218.0784,-395.4952 228.1531,-398.774 227.9989,-391.7757"/>
</g>
<!-- Node15 -->
<g id="node13" class="node">
<title>Node15</title>
<polygon fill="#ffffff" stroke="#bfbfbf" points="735,-362.6423 735,-392.6423 874,-392.6423 874,-362.6423 735,-362.6423"/>
<text text-anchor="start" x="743" y="-380.6423" font-family="Helvetica,sans-Serif" font-size="10.00" fill="#000000">std::map&lt; uint8_t,</text>
<text text-anchor="middle" x="804.5" y="-369.6423" font-family="Helvetica,sans-Serif" font-size="10.00" fill="#000000"> std::vector&lt; int32_t &gt; &gt;</text>
</g>
<!-- Node15&#45;&gt;Node4 -->
<g id="edge13" class="edge">
<title>Node15&#45;&gt;Node4</title>
<path fill="none" stroke="#9a32cd" stroke-dasharray="5,2" d="M884.2028,-384.7752C945.5912,-390.8887 1025.032,-400.3227 1056,-410.6423 1074.0094,-416.6435 1119.7795,-444.2606 1143.7823,-459.1177"/>
<polygon fill="#9a32cd" stroke="#9a32cd" points="884.4239,-381.2801 874.1296,-383.7854 883.7394,-388.2466 884.4239,-381.2801"/>
<text text-anchor="middle" x="995.5" y="-413.6423" font-family="Helvetica,sans-Serif" font-size="10.00" fill="#000000"> _barContents</text>
</g>
<!-- Node16 -->
<g id="node14" class="node">
<title>Node16</title>
<polygon fill="#ffffff" stroke="#bfbfbf" points="330.5,-330.1423 330.5,-349.1423 455.5,-349.1423 455.5,-330.1423 330.5,-330.1423"/>
<text text-anchor="middle" x="393" y="-337.1423" font-family="Helvetica,sans-Serif" font-size="10.00" fill="#000000">std::vector&lt; int32_t &gt;</text>
</g>
<!-- Node16&#45;&gt;Node15 -->
<g id="edge14" class="edge">
<title>Node16&#45;&gt;Node15</title>
<path fill="none" stroke="#9a32cd" stroke-dasharray="5,2" d="M465.9098,-346.3751C541.8345,-353.3864 659.9165,-364.2907 734.6746,-371.1942"/>
<polygon fill="#9a32cd" stroke="#9a32cd" points="466.2254,-342.8895 455.9459,-345.455 465.5817,-349.8598 466.2254,-342.8895"/>
<text text-anchor="middle" x="582" y="-368.6423" font-family="Helvetica,sans-Serif" font-size="10.00" fill="#000000"> elements</text>
</g>
<!-- Node17&#45;&gt;Node16 -->
<g id="edge15" class="edge">
<title>Node17&#45;&gt;Node16</title>
<path fill="none" stroke="#ffa500" stroke-dasharray="5,2" d="M192.7835,-231.1549C239.7302,-256.593 335.6495,-308.5669 375.2704,-330.0355"/>
<polygon fill="#ffa500" stroke="#ffa500" points="194.272,-227.9807 183.8123,-226.2939 190.9371,-234.1353 194.272,-227.9807"/>
<text text-anchor="middle" x="266" y="-288.6423" font-family="Helvetica,sans-Serif" font-size="10.00" fill="#000000"> &lt; int32_t &gt;</text>
</g>
<!-- Node28 -->
<g id="node26" class="node">
<title>Node28</title>
<polygon fill="#ffffff" stroke="#bfbfbf" points="1092,-99.6423 1092,-129.6423 1226,-129.6423 1226,-99.6423 1092,-99.6423"/>
<text text-anchor="start" x="1100" y="-117.6423" font-family="Helvetica,sans-Serif" font-size="10.00" fill="#000000">std::vector&lt; ChimeraTK</text>
<text text-anchor="middle" x="1159" y="-106.6423" font-family="Helvetica,sans-Serif" font-size="10.00" fill="#000000">::FixedPointConverter &gt;</text>
</g>
<!-- Node17&#45;&gt;Node28 -->
<g id="edge42" class="edge">
<title>Node17&#45;&gt;Node28</title>
<path fill="none" stroke="#ffa500" stroke-dasharray="5,2" d="M216.7244,-204.8572C245.1812,-198.6251 281.4109,-191.3178 314,-186.6423 601.8378,-145.3462 948.4849,-124.9151 1091.8827,-117.7339"/>
<polygon fill="#ffa500" stroke="#ffa500" points="215.6192,-201.5171 206.6132,-207.0977 217.1336,-208.3514 215.6192,-201.5171"/>
<text text-anchor="middle" x="582" y="-167.6423" font-family="Helvetica,sans-Serif" font-size="10.00" fill="#000000"> &lt; ChimeraTK::FixedPointConverter &gt;</text>
</g>
<!-- Node29 -->
<g id="node27" class="node">
<title>Node29</title>
<polygon fill="#ffffff" stroke="#bfbfbf" points="1107,-14.1423 1107,-33.1423 1211,-33.1423 1211,-14.1423 1107,-14.1423"/>
<text text-anchor="middle" x="1159" y="-21.1423" font-family="Helvetica,sans-Serif" font-size="10.00" fill="#000000">std::vector&lt; int &gt;</text>
</g>
<!-- Node17&#45;&gt;Node29 -->
<g id="edge44" class="edge">
<title>Node17&#45;&gt;Node29</title>
<path fill="none" stroke="#ffa500" stroke-dasharray="5,2" d="M195.0221,-202.6812C207.4738,-196.9825 222.2857,-190.5848 236,-185.6423 269.8858,-173.43 278.8857,-171.6653 314,-163.6423 610.8166,-95.8241 973.3786,-46.9323 1106.6491,-30.0744"/>
<polygon fill="#ffa500" stroke="#ffa500" points="193.1989,-199.6691 185.6082,-207.0605 196.1515,-206.016 193.1989,-199.6691"/>
<text text-anchor="middle" x="582" y="-130.6423" font-family="Helvetica,sans-Serif" font-size="10.00" fill="#000000"> &lt; int &gt;</text>
</g>
<!-- Node18&#45;&gt;Node15 -->
<g id="edge17" class="edge">
<title>Node18&#45;&gt;Node15</title>
<path fill="none" stroke="#ffa500" stroke-dasharray="5,2" d="M454.1037,-421.9208C529.1414,-412.4385 656.1233,-396.3922 734.8652,-386.4418"/>
<polygon fill="#ffa500" stroke="#ffa500" points="453.353,-418.4877 443.8707,-423.2139 454.2306,-425.4325 453.353,-418.4877"/>
<text text-anchor="start" x="529" y="-431.6423" font-family="Helvetica,sans-Serif" font-size="10.00" fill="#000000"> &lt; uint8_t, std::vector</text>
<text text-anchor="middle" x="582" y="-420.6423" font-family="Helvetica,sans-Serif" font-size="10.00" fill="#000000">&lt; int32_t &gt; &gt;</text>
</g>
<!-- Node19&#45;&gt;Node3 -->
<g id="edge21" class="edge">
<title>Node19&#45;&gt;Node3</title>
<path fill="none" stroke="#9a32cd" stroke-dasharray="5,2" d="M1741.207,-419.6396C1788.558,-427.1965 1845.7876,-436.3299 1888.0263,-443.0709"/>
<polygon fill="#9a32cd" stroke="#9a32cd" points="1741.6883,-416.1722 1731.2616,-418.0524 1740.585,-423.0848 1741.6883,-416.1722"/>
<text text-anchor="middle" x="1809.5" y="-442.6423" font-family="Helvetica,sans-Serif" font-size="10.00" fill="#000000"> someRegister</text>
</g>
<!-- Node20 -->
<g id="node18" class="node">
<title>Node20</title>
<g id="a_node18"><a xlink:href="class_chimera_t_k_1_1proxies_1_1_dummy_register_element.html" target="_top" xlink:title="ChimeraTK::proxies\l::DummyRegisterElement\l\&lt; int \&gt;">
<polygon fill="#ffffff" stroke="#000000" points="1334.5,-246.1423 1334.5,-287.1423 1476.5,-287.1423 1476.5,-246.1423 1334.5,-246.1423"/>
<text text-anchor="start" x="1342.5" y="-275.1423" font-family="Helvetica,sans-Serif" font-size="10.00" fill="#000000">ChimeraTK::proxies</text>
<text text-anchor="start" x="1342.5" y="-264.1423" font-family="Helvetica,sans-Serif" font-size="10.00" fill="#000000">::DummyRegisterElement</text>
<text text-anchor="middle" x="1405.5" y="-253.1423" font-family="Helvetica,sans-Serif" font-size="10.00" fill="#000000">&lt; int &gt;</text>
</a>
</g>
</g>
<!-- Node20&#45;&gt;Node19 -->
<g id="edge22" class="edge">
<title>Node20&#45;&gt;Node19</title>
<path fill="none" stroke="#191970" d="M1468.5741,-291.3855C1476.5576,-294.9559 1484.5377,-298.7473 1492,-302.6423 1544.6234,-330.1092 1602.3798,-369.3491 1632.5267,-390.5904"/>
<polygon fill="#191970" stroke="#191970" points="1469.7961,-288.0999 1459.2313,-287.3025 1466.9929,-294.5142 1469.7961,-288.0999"/>
</g>
<!-- Node21 -->
<g id="node19" class="node">
<title>Node21</title>
<g id="a_node19"><a xlink:href="class_chimera_t_k_1_1_fixed_point_converter.html" target="_top" xlink:title="The fixed point converter provides conversion functions between a user type and up to 32 bit fixed po...">
<polygon fill="#ffffff" stroke="#000000" points="717,-270.1423 717,-289.1423 892,-289.1423 892,-270.1423 717,-270.1423"/>
<text text-anchor="middle" x="804.5" y="-277.1423" font-family="Helvetica,sans-Serif" font-size="10.00" fill="#000000">ChimeraTK::FixedPointConverter</text>
</a>
</g>
</g>
<!-- Node21&#45;&gt;Node19 -->
<g id="edge31" class="edge">
<title>Node21&#45;&gt;Node19</title>
<path fill="none" stroke="#9a32cd" stroke-dasharray="5,2" d="M839.7034,-292.6375C865.7896,-301.9907 902.3295,-314.5153 935,-323.6423 1102.9901,-370.5724 1145.0199,-392.2313 1319,-404.6423 1406.9027,-410.9128 1508.1293,-410.1007 1575.9965,-408.3994"/>
<polygon fill="#9a32cd" stroke="#9a32cd" points="840.8416,-289.3274 830.2473,-289.2218 838.4635,-295.911 840.8416,-289.3274"/>
<text text-anchor="middle" x="1281.5" y="-406.6423" font-family="Helvetica,sans-Serif" font-size="10.00" fill="#000000"> fpc</text>
</g>
<!-- Node21&#45;&gt;Node20 -->
<g id="edge23" class="edge">
<title>Node21&#45;&gt;Node20</title>
<path fill="none" stroke="#9a32cd" stroke-dasharray="5,2" d="M869.7122,-268.4609C924.1426,-259.7237 1003.8669,-248.3058 1074,-243.6423 1149.3891,-238.6293 1168.6334,-238.3025 1244,-243.6423 1273.6628,-245.7439 1306.1617,-249.9907 1334.1801,-254.2696"/>
<polygon fill="#9a32cd" stroke="#9a32cd" points="868.8238,-265.0591 859.5127,-270.1143 869.944,-271.9689 868.8238,-265.0591"/>
<text text-anchor="middle" x="1159" y="-246.6423" font-family="Helvetica,sans-Serif" font-size="10.00" fill="#000000"> fpcptr</text>
</g>
<!-- Node22 -->
<g id="node20" class="node">
<title>Node22</title>
<g id="a_node20"><a xlink:href="class_chimera_t_k_1_1proxies_1_1_dummy_register_element.html" target="_top" xlink:title="Temporary proxy class for use in the DummyRegister and DummyMultiplexedRegister classes. ">
<polygon fill="#ffffff" stroke="#000000" points="1074,-264.6423 1074,-294.6423 1244,-294.6423 1244,-264.6423 1074,-264.6423"/>
<text text-anchor="start" x="1082" y="-282.6423" font-family="Helvetica,sans-Serif" font-size="10.00" fill="#000000">ChimeraTK::proxies</text>
<text text-anchor="middle" x="1159" y="-271.6423" font-family="Helvetica,sans-Serif" font-size="10.00" fill="#000000">::DummyRegisterElement&lt; T &gt;</text>
</a>
</g>
</g>
<!-- Node21&#45;&gt;Node22 -->
<g id="edge25" class="edge">
<title>Node21&#45;&gt;Node22</title>
<path fill="none" stroke="#9a32cd" stroke-dasharray="5,2" d="M902.3709,-279.6423C956.1708,-279.6423 1022.2674,-279.6423 1073.907,-279.6423"/>
<polygon fill="#9a32cd" stroke="#9a32cd" points="902.1293,-276.1424 892.1292,-279.6423 902.1292,-283.1424 902.1293,-276.1424"/>
<text text-anchor="middle" x="995.5" y="-282.6423" font-family="Helvetica,sans-Serif" font-size="10.00" fill="#000000"> fpcptr</text>
</g>
<!-- Node21&#45;&gt;Node26 -->
<g id="edge36" class="edge">
<title>Node21&#45;&gt;Node26</title>
<path fill="none" stroke="#9a32cd" stroke-dasharray="5,2" d="M871.283,-290.7934C960.1598,-305.0163 1122.3565,-328.8258 1262,-337.6423 1283.31,-338.9877 1306.3924,-338.3189 1327.6862,-336.8314"/>
<polygon fill="#9a32cd" stroke="#9a32cd" points="871.7684,-287.3265 861.3393,-289.1931 870.6561,-294.2376 871.7684,-287.3265"/>
<text text-anchor="middle" x="1159" y="-339.6423" font-family="Helvetica,sans-Serif" font-size="10.00" fill="#000000"> fpc</text>
</g>
<!-- Node21&#45;&gt;Node28 -->
<g id="edge41" class="edge">
<title>Node21&#45;&gt;Node28</title>
<path fill="none" stroke="#9a32cd" stroke-dasharray="5,2" d="M852.3872,-266.9007C874.2804,-259.0957 899.2341,-247.1579 917,-229.6423 930.5944,-216.2394 919.9552,-202.3938 935,-190.6423 978.14,-156.9453 1010.8692,-198.6222 1056,-167.6423 1068.5067,-159.0571 1061.88,-147.7653 1074,-138.6423 1079.3905,-134.5847 1085.4389,-131.2129 1091.76,-128.4111"/>
<polygon fill="#9a32cd" stroke="#9a32cd" points="851.2596,-263.5872 842.9021,-270.0988 853.4962,-270.2203 851.2596,-263.5872"/>
<text text-anchor="middle" x="995.5" y="-193.6423" font-family="Helvetica,sans-Serif" font-size="10.00" fill="#000000"> elements</text>
</g>
<!-- Node22&#45;&gt;Node20 -->
<g id="edge24" class="edge">
<title>Node22&#45;&gt;Node20</title>
<path fill="none" stroke="#ffa500" stroke-dasharray="5,2" d="M1254.245,-268.17C1256.8562,-267.9763 1259.445,-267.7995 1262,-267.6423 1285.4991,-266.1958 1311.2032,-265.681 1334.2824,-265.6071"/>
<polygon fill="#ffa500" stroke="#ffa500" points="1253.7713,-264.6969 1244.0876,-268.9953 1254.3383,-271.6739 1253.7713,-264.6969"/>
<text text-anchor="middle" x="1281.5" y="-270.6423" font-family="Helvetica,sans-Serif" font-size="10.00" fill="#000000"> &lt; int &gt;</text>
</g>
<!-- Node22&#45;&gt;Node26 -->
<g id="edge33" class="edge">
<title>Node22&#45;&gt;Node26</title>
<path fill="none" stroke="#191970" d="M1249.0722,-296.6222C1266.316,-299.9144 1284.2212,-303.3613 1301,-306.6423 1310.807,-308.5599 1321.1264,-310.603 1331.3056,-312.6332"/>
<polygon fill="#191970" stroke="#191970" points="1249.4878,-293.1385 1239.0093,-294.7041 1248.1771,-300.0147 1249.4878,-293.1385"/>
</g>
<!-- Node23 -->
<g id="node21" class="node">
<title>Node23</title>
<g id="a_node21"><a xlink:href="class_chimera_t_k_1_1_dummy_register_address_checker.html" target="_top" xlink:title="Class providing a function to check whether a given address is inside the address range of a register...">
<polygon fill="#ffffff" stroke="#000000" points="1081.5,-148.6423 1081.5,-178.6423 1236.5,-178.6423 1236.5,-148.6423 1081.5,-148.6423"/>
<text text-anchor="start" x="1089.5" y="-166.6423" font-family="Helvetica,sans-Serif" font-size="10.00" fill="#000000">ChimeraTK::DummyRegister</text>
<text text-anchor="middle" x="1159" y="-155.6423" font-family="Helvetica,sans-Serif" font-size="10.00" fill="#000000">AddressChecker</text>
</a>
</g>
</g>
<!-- Node23&#45;&gt;Node19 -->
<g id="edge26" class="edge">
<title>Node23&#45;&gt;Node19</title>
<path fill="none" stroke="#191970" d="M1246.7392,-168.8207C1316.9461,-176.1588 1415.8959,-193.8781 1492,-236.6423 1562.7602,-276.4036 1621.5294,-357.1873 1643.8549,-390.6275"/>
<polygon fill="#191970" stroke="#191970" points="1246.8929,-165.3188 1236.5955,-167.8116 1246.1999,-172.2844 1246.8929,-165.3188"/>
</g>
<!-- Node23&#45;&gt;Node26 -->
<g id="edge34" class="edge">
<title>Node23&#45;&gt;Node26</title>
<path fill="none" stroke="#191970" d="M1224.8128,-182.7488C1231.5564,-185.8999 1238.0909,-189.5139 1244,-193.6423 1276.6073,-216.4235 1278.9134,-229.5605 1301,-262.6423 1310.4939,-276.8624 1306.0782,-285.4452 1319,-296.6423 1326.5953,-303.2238 1335.691,-308.4434 1345.0885,-312.5728"/>
<polygon fill="#191970" stroke="#191970" points="1226.0944,-179.4898 1215.5266,-178.7341 1223.3165,-185.9151 1226.0944,-179.4898"/>
</g>
<!-- Node23&#45;&gt;Node27 -->
<g id="edge38" class="edge">
<title>Node23&#45;&gt;Node27</title>
<path fill="none" stroke="#191970" d="M1246.7556,-159.3831C1337.093,-154.9987 1476.9874,-148.2091 1566.8995,-143.8453"/>
<polygon fill="#191970" stroke="#191970" points="1246.356,-155.8983 1236.5374,-159.8791 1246.6954,-162.8901 1246.356,-155.8983"/>
</g>
<!-- Node23&#45;&gt;Node30 -->
<g id="edge46" class="edge">
<title>Node23&#45;&gt;Node30</title>
<path fill="none" stroke="#191970" d="M1225.9728,-145.4245C1232.1284,-143.3071 1238.219,-141.04 1244,-138.6423 1279.0904,-124.0881 1284.2673,-113.0306 1319,-97.6423 1331.2073,-92.2338 1344.7166,-87.1447 1357.3593,-82.7476"/>
<polygon fill="#191970" stroke="#191970" points="1224.6787,-142.1658 1216.2812,-148.6258 1226.8744,-148.8126 1224.6787,-142.1658"/>
</g>
<!-- Node24&#45;&gt;Node23 -->
<g id="edge27" class="edge">
<title>Node24&#45;&gt;Node23</title>
<path fill="none" stroke="#9a32cd" stroke-dasharray="5,2" d="M844.2455,-186.4492C869.5668,-175.3079 903.4345,-162.373 935,-156.6423 983.1397,-147.9024 1038.0345,-149.4378 1081.4324,-153.2626"/>
<polygon fill="#9a32cd" stroke="#9a32cd" points="842.6682,-183.3208 834.9819,-190.6126 845.5378,-189.7056 842.6682,-183.3208"/>
<text text-anchor="middle" x="995.5" y="-159.6423" font-family="Helvetica,sans-Serif" font-size="10.00" fill="#000000"> registerInfo</text>
</g>
<!-- Node25 -->
<g id="node23" class="node">
<title>Node25</title>
<g id="a_node23"><a xlink:href="class_chimera_t_k_1_1_register_info.html" target="_top" xlink:title="DeviceBackend&#45;independent register description. ">
<polygon fill="#ffffff" stroke="#000000" points="325.5,-196.1423 325.5,-215.1423 460.5,-215.1423 460.5,-196.1423 325.5,-196.1423"/>
<text text-anchor="middle" x="393" y="-203.1423" font-family="Helvetica,sans-Serif" font-size="10.00" fill="#000000">ChimeraTK::RegisterInfo</text>
</a>
</g>
</g>
<!-- Node25&#45;&gt;Node24 -->
<g id="edge28" class="edge">
<title>Node25&#45;&gt;Node24</title>
<path fill="none" stroke="#191970" d="M471.0636,-205.6423C544.4722,-205.6423 653.743,-205.6423 726.9754,-205.6423"/>
<polygon fill="#191970" stroke="#191970" points="470.9509,-202.1424 460.9509,-205.6423 470.9508,-209.1424 470.9509,-202.1424"/>
</g>
<!-- Node26&#45;&gt;Node19 -->
<g id="edge32" class="edge">
<title>Node26&#45;&gt;Node19</title>
<path fill="none" stroke="#ffa500" stroke-dasharray="5,2" d="M1463.1155,-345.7632C1506.2995,-359.3453 1564.7161,-377.7183 1605.4074,-390.5164"/>
<polygon fill="#ffa500" stroke="#ffa500" points="1463.9063,-342.343 1453.3169,-342.6814 1461.8061,-349.0205 1463.9063,-342.343"/>
<text text-anchor="middle" x="1529.5" y="-374.6423" font-family="Helvetica,sans-Serif" font-size="10.00" fill="#000000"> &lt; int &gt;</text>
</g>
<!-- Node27&#45;&gt;Node3 -->
<g id="edge37" class="edge">
<title>Node27&#45;&gt;Node3</title>
<path fill="none" stroke="#9a32cd" stroke-dasharray="5,2" d="M1674.6824,-162.1553C1733.7282,-224.9103 1898.4786,-400.01 1938.9394,-443.0125"/>
<polygon fill="#9a32cd" stroke="#9a32cd" points="1677.106,-159.6235 1667.7043,-154.7389 1672.0079,-164.4204 1677.106,-159.6235"/>
<text text-anchor="middle" x="1809.5" y="-363.6423" font-family="Helvetica,sans-Serif" font-size="10.00" fill="#000000"> someMuxedRegister</text>
</g>
<!-- Node28&#45;&gt;Node27 -->
<g id="edge40" class="edge">
<title>Node28&#45;&gt;Node27</title>
<path fill="none" stroke="#9a32cd" stroke-dasharray="5,2" d="M1236.3092,-118.5507C1325.9832,-123.0843 1473.4342,-130.5388 1566.8912,-135.2636"/>
<polygon fill="#9a32cd" stroke="#9a32cd" points="1236.3691,-115.0494 1226.2051,-118.0399 1236.0156,-122.0404 1236.3691,-115.0494"/>
<text text-anchor="middle" x="1405.5" y="-134.6423" font-family="Helvetica,sans-Serif" font-size="10.00" fill="#000000"> fpc</text>
</g>
<!-- Node28&#45;&gt;Node30 -->
<g id="edge48" class="edge">
<title>Node28&#45;&gt;Node30</title>
<path fill="none" stroke="#9a32cd" stroke-dasharray="5,2" d="M1194.5709,-94.9059C1213.8896,-85.2818 1238.5606,-74.7098 1262,-69.6423 1280.143,-65.7198 1299.8792,-63.911 1318.7448,-63.3178"/>
<polygon fill="#9a32cd" stroke="#9a32cd" points="1192.8525,-91.8536 1185.546,-99.526 1196.0423,-98.0846 1192.8525,-91.8536"/>
<text text-anchor="middle" x="1281.5" y="-72.6423" font-family="Helvetica,sans-Serif" font-size="10.00" fill="#000000"> fpc</text>
</g>
<!-- Node29&#45;&gt;Node27 -->
<g id="edge43" class="edge">
<title>Node29&#45;&gt;Node27</title>
<path fill="none" stroke="#9a32cd" stroke-dasharray="5,2" d="M1213.833,-12.3313C1281.3063,-.8284 1398.4213,11.2 1492,-20.6423 1554.6451,-41.9587 1613.2624,-97.1838 1639.3231,-124.2424"/>
<polygon fill="#9a32cd" stroke="#9a32cd" points="1213.0845,-8.9092 1203.8442,-14.0926 1214.3001,-15.8028 1213.0845,-8.9092"/>
<text text-anchor="middle" x="1405.5" y="-34.6423" font-family="Helvetica,sans-Serif" font-size="10.00" fill="#000000"> offsets</text>
<text text-anchor="middle" x="1405.5" y="-23.6423" font-family="Helvetica,sans-Serif" font-size="10.00" fill="#000000">nbytes</text>
</g>
<!-- Node29&#45;&gt;Node30 -->
<g id="edge49" class="edge">
<title>Node29&#45;&gt;Node30</title>
<path fill="none" stroke="#9a32cd" stroke-dasharray="5,2" d="M1221.1844,-18.9688C1246.2057,-18.4101 1275.1914,-19.4454 1301,-24.6423 1327.9251,-30.0639 1356.6539,-42.4158 1377.1611,-52.4964"/>
<polygon fill="#9a32cd" stroke="#9a32cd" points="1220.9726,-15.4736 1211.0867,-19.2838 1221.191,-22.4702 1220.9726,-15.4736"/>
<text text-anchor="middle" x="1281.5" y="-38.6423" font-family="Helvetica,sans-Serif" font-size="10.00" fill="#000000"> offsets</text>
<text text-anchor="middle" x="1281.5" y="-27.6423" font-family="Helvetica,sans-Serif" font-size="10.00" fill="#000000">nbytes</text>
</g>
<!-- Node30&#45;&gt;Node27 -->
<g id="edge45" class="edge">
<title>Node30&#45;&gt;Node27</title>
<path fill="none" stroke="#ffa500" stroke-dasharray="5,2" d="M1502.609,-82.896C1518.2619,-86.2162 1534.1827,-90.1187 1549,-94.6423 1574.8823,-102.5438 1602.9905,-114.8759 1623.5296,-124.6335"/>
<polygon fill="#ffa500" stroke="#ffa500" points="1502.875,-79.3778 1492.3758,-80.7976 1501.4688,-86.2351 1502.875,-79.3778"/>
<text text-anchor="middle" x="1529.5" y="-97.6423" font-family="Helvetica,sans-Serif" font-size="10.00" fill="#000000"> &lt; int &gt;</text>
</g>
</g>
</svg>
