<?xml version="1.0" encoding="UTF-8" standalone="no"?>
<!DOCTYPE svg PUBLIC "-//W3C//DTD SVG 1.1//EN"
 "http://www.w3.org/Graphics/SVG/1.1/DTD/svg11.dtd">
<!-- Generated by graphviz version 2.43.0 (0)
 -->
<!-- Title: ChimeraTK::AsyncDomainsContainer&lt; KeyType &gt; Pages: 1 -->
<!--zoomable 172 -->
<svg id="main" version="1.1" xmlns="http://www.w3.org/2000/svg" xmlns:xlink="http://www.w3.org/1999/xlink" xml:space="preserve" onload="init(evt)">
<style type="text/css"><![CDATA[
.edge:hover path { stroke: red; }
.edge:hover polygon { stroke: red; fill: red; }
]]></style>
<script type="text/javascript"><![CDATA[
var edges = document.getElementsByTagName('g');
if (edges && edges.length) {
  for (var i=0;i<edges.length;i++) {
    if (edges[i].id.substr(0,4)=='edge') {
      edges[i].setAttribute('class','edge');
    }
  }
}
]]></script>
        <defs>
                <circle id="rim" cx="0" cy="0" r="7"/>
                <circle id="rim2" cx="0" cy="0" r="3.5"/>
                <g id="zoomPlus">
                        <use xlink:href="#rim" fill="#404040">
                                <set attributeName="fill" to="#808080" begin="zoomplus.mouseover" end="zoomplus.mouseout"/>
                        </use>
                        <path d="M-4,0h8M0,-4v8" fill="none" stroke="white" stroke-width="1.5" pointer-events="none"/>
                </g>
                <g id="zoomMin">
                        <use xlink:href="#rim" fill="#404040">
                                <set attributeName="fill" to="#808080" begin="zoomminus.mouseover" end="zoomminus.mouseout"/>
                        </use>
                        <path d="M-4,0h8" fill="none" stroke="white" stroke-width="1.5" pointer-events="none"/>
                </g>
                <g id="dirArrow">
                        <path fill="none" stroke="white" stroke-width="1.5" d="M0,-3.0v7 M-2.5,-0.5L0,-3.0L2.5,-0.5"/>
                </g>
               <g id="resetDef">
                       <use xlink:href="#rim2" fill="#404040">
                               <set attributeName="fill" to="#808080" begin="reset.mouseover" end="reset.mouseout"/>
                       </use>
               </g>
        </defs>

<script type="text/javascript">
var viewWidth = 987;
var viewHeight = 172;
var sectionId = 'dynsection-1';
</script>
<script xlink:href="svgpan.js"/>
<svg id="graph" class="graph">
<g id="viewport">
<title>ChimeraTK::AsyncDomainsContainer&lt; KeyType &gt;</title>
<polygon fill="white" stroke="transparent" points="-4,4 -4,-168 983,-168 983,4 -4,4"/>
<!-- Node1 -->
<g id="node1" class="node">
<title>Node1</title>
<g id="a_node1"><a xlink:title="The AsyncDomainsContainer has a container with AsyncDomains and is performing actions on all of them.">
<polygon fill="#bfbfbf" stroke="black" points="782,-82 782,-112 979,-112 979,-82 782,-82"/>
<text text-anchor="start" x="790" y="-100" font-family="Helvetica,sans-Serif" font-size="10.00">ChimeraTK::AsyncDomainsContainer</text>
<text text-anchor="middle" x="880.5" y="-89" font-family="Helvetica,sans-Serif" font-size="10.00">&lt; KeyType &gt;</text>
</a>
</g>
</g>
<!-- Node2 -->
<g id="node2" class="node">
<title>Node2</title>
<g id="a_node2"><a xlink:href="class_chimera_t_k_1_1_async_domains_container_base.html" target="_top" xlink:title=" ">
<polygon fill="white" stroke="black" points="432,-144.5 432,-163.5 653,-163.5 653,-144.5 432,-144.5"/>
<text text-anchor="middle" x="542.5" y="-151.5" font-family="Helvetica,sans-Serif" font-size="10.00">ChimeraTK::AsyncDomainsContainerBase</text>
</a>
</g>
</g>
<!-- Node2&#45;&gt;Node1 -->
<g id="edge1" class="edge">
<title>Node2&#45;&gt;Node1</title>
<path fill="none" stroke="midnightblue" d="M632.64,-143.15C672.89,-137.82 720.97,-130.86 764,-123 781.29,-119.84 799.91,-115.9 817.05,-112.04"/>
<polygon fill="midnightblue" stroke="midnightblue" points="632.05,-139.7 622.59,-144.47 632.96,-146.64 632.05,-139.7"/>
</g>
<!-- Node3 -->
<g id="node3" class="node">
<title>Node3</title>
<g id="a_node3"><a xlink:title=" ">
<polygon fill="white" stroke="#bfbfbf" points="508,-106.5 508,-125.5 577,-125.5 577,-106.5 508,-106.5"/>
<text text-anchor="middle" x="542.5" y="-113.5" font-family="Helvetica,sans-Serif" font-size="10.00">std::mutex</text>
</a>
</g>
</g>
<!-- Node3&#45;&gt;Node1 -->
<g id="edge2" class="edge">
<title>Node3&#45;&gt;Node1</title>
<path fill="none" stroke="#9a32cd" stroke-dasharray="5,2" d="M587.54,-113.51C636.66,-110.73 717.67,-106.15 781.92,-102.52"/>
<polygon fill="#9a32cd" stroke="#9a32cd" points="587.04,-110.03 577.26,-114.09 587.44,-117.02 587.04,-110.03"/>
<text text-anchor="middle" x="717.5" y="-111" font-family="Helvetica,sans-Serif" font-size="10.00"> _domainsMutex</text>
</g>
<!-- Node4 -->
<g id="node4" class="node">
<title>Node4</title>
<g id="a_node4"><a xlink:title=" ">
<polygon fill="white" stroke="#bfbfbf" points="508,-68.5 508,-87.5 577,-87.5 577,-68.5 508,-68.5"/>
<text text-anchor="middle" x="542.5" y="-75.5" font-family="Helvetica,sans-Serif" font-size="10.00">std::thread</text>
</a>
</g>
</g>
<!-- Node4&#45;&gt;Node1 -->
<g id="edge3" class="edge">
<title>Node4&#45;&gt;Node1</title>
<path fill="none" stroke="#9a32cd" stroke-dasharray="5,2" d="M587.32,-79.57C631.83,-81.26 702.74,-84.23 764,-88 769.82,-88.36 775.81,-88.75 781.84,-89.17"/>
<polygon fill="#9a32cd" stroke="#9a32cd" points="587.26,-76.06 577.14,-79.19 587,-83.06 587.26,-76.06"/>
<text text-anchor="middle" x="717.5" y="-91" font-family="Helvetica,sans-Serif" font-size="10.00"> _distributorThread</text>
</g>
<!-- Node5 -->
<g id="node5" class="node">
<title>Node5</title>
<g id="a_node5"><a xlink:title=" ">
<polygon fill="white" stroke="#bfbfbf" points="461,-8.5 461,-49.5 624,-49.5 624,-8.5 461,-8.5"/>
<text text-anchor="start" x="469" y="-37.5" font-family="Helvetica,sans-Serif" font-size="10.00">std::map&lt; KeyType,</text>
<text text-anchor="start" x="469" y="-26.5" font-family="Helvetica,sans-Serif" font-size="10.00"> boost::weak_ptr&lt; ChimeraTK</text>
<text text-anchor="middle" x="542.5" y="-15.5" font-family="Helvetica,sans-Serif" font-size="10.00">::AsyncDomain &gt; &gt;</text>
</a>
</g>
</g>
<!-- Node5&#45;&gt;Node1 -->
<g id="edge4" class="edge">
<title>Node5&#45;&gt;Node1</title>
<path fill="none" stroke="#9a32cd" stroke-dasharray="5,2" d="M634.14,-43.54C674.08,-50.33 721.51,-58.92 764,-68 783.31,-72.13 804.28,-77.21 823,-81.96"/>
<polygon fill="#9a32cd" stroke="#9a32cd" points="634.59,-40.07 624.15,-41.85 633.43,-46.97 634.59,-40.07"/>
<text text-anchor="middle" x="717.5" y="-71" font-family="Helvetica,sans-Serif" font-size="10.00"> _asyncDomains</text>
</g>
<!-- Node6 -->
<g id="node6" class="node">
<title>Node6</title>
<g id="a_node6"><a xlink:title=" ">
<polygon fill="white" stroke="#bfbfbf" points="114,-19.5 114,-38.5 215,-38.5 215,-19.5 114,-19.5"/>
<text text-anchor="middle" x="164.5" y="-26.5" font-family="Helvetica,sans-Serif" font-size="10.00">std::map&lt; K, T &gt;</text>
</a>
</g>
</g>
<!-- Node6&#45;&gt;Node5 -->
<g id="edge5" class="edge">
<title>Node6&#45;&gt;Node5</title>
<path fill="none" stroke="orange" stroke-dasharray="5,2" d="M225.32,-29C289.02,-29 390.19,-29 460.89,-29"/>
<polygon fill="orange" stroke="orange" points="225.04,-25.5 215.04,-29 225.04,-32.5 225.04,-25.5"/>
<text text-anchor="start" x="233" y="-43" font-family="Helvetica,sans-Serif" font-size="10.00"> &lt; KeyType, boost::weak</text>
<text text-anchor="middle" x="323.5" y="-32" font-family="Helvetica,sans-Serif" font-size="10.00">_ptr&lt; ChimeraTK::AsyncDomain &gt; &gt;</text>
</g>
<!-- Node7 -->
<g id="node7" class="node">
<title>Node7</title>
<g id="a_node7"><a xlink:title=" ">
<polygon fill="white" stroke="#bfbfbf" points="0,-38.5 0,-57.5 29,-57.5 29,-38.5 0,-38.5"/>
<text text-anchor="middle" x="14.5" y="-45.5" font-family="Helvetica,sans-Serif" font-size="10.00">K</text>
</a>
</g>
</g>
<!-- Node7&#45;&gt;Node6 -->
<g id="edge6" class="edge">
<title>Node7&#45;&gt;Node6</title>
<path fill="none" stroke="#9a32cd" stroke-dasharray="5,2" d="M39.24,-44.95C59.28,-42.38 88.63,-38.61 113.78,-35.38"/>
<polygon fill="#9a32cd" stroke="#9a32cd" points="38.63,-41.5 29.16,-46.25 39.52,-48.44 38.63,-41.5"/>
<text text-anchor="middle" x="71.5" y="-46" font-family="Helvetica,sans-Serif" font-size="10.00"> keys</text>
</g>
<!-- Node8 -->
<g id="node8" class="node">
<title>Node8</title>
<g id="a_node8"><a xlink:title=" ">
<polygon fill="white" stroke="#bfbfbf" points="0,-0.5 0,-19.5 29,-19.5 29,-0.5 0,-0.5"/>
<text text-anchor="middle" x="14.5" y="-7.5" font-family="Helvetica,sans-Serif" font-size="10.00">T</text>
</a>
</g>
</g>
<!-- Node8&#45;&gt;Node6 -->
<g id="edge7" class="edge">
<title>Node8&#45;&gt;Node6</title>
<path fill="none" stroke="#9a32cd" stroke-dasharray="5,2" d="M39.24,-13.05C59.28,-15.62 88.63,-19.39 113.78,-22.62"/>
<polygon fill="#9a32cd" stroke="#9a32cd" points="39.52,-9.56 29.16,-11.75 38.63,-16.5 39.52,-9.56"/>
<text text-anchor="middle" x="71.5" y="-23" font-family="Helvetica,sans-Serif" font-size="10.00"> elements</text>
</g>
</g>
</svg>
        <g id="navigator" transform="translate(0 0)" fill="#404254">
                <rect fill="#f2f5e9" fill-opacity="0.5" stroke="#606060" stroke-width=".5" x="0" y="0" width="60" height="60"/>
                <use id="zoomplus" xlink:href="#zoomPlus" x="17" y="9" onmousedown="handleZoom(evt,'in')"/>
                <use id="zoomminus" xlink:href="#zoomMin" x="42" y="9" onmousedown="handleZoom(evt,'out')"/>
                <use id="reset" xlink:href="#resetDef" x="30" y="36" onmousedown="handleReset()"/>
                <g id="arrowUp" xlink:href="#dirArrow" transform="translate(30 24)" onmousedown="handlePan(0,-1)">
                  <use xlink:href="#rim" fill="#404040">
                        <set attributeName="fill" to="#808080" begin="arrowUp.mouseover" end="arrowUp.mouseout"/>
                  </use>
                  <path fill="none" stroke="white" stroke-width="1.5" d="M0,-3.0v7 M-2.5,-0.5L0,-3.0L2.5,-0.5"/>
                </g>
                <g id="arrowRight" xlink:href="#dirArrow" transform="rotate(90) translate(36 -43)" onmousedown="handlePan(1,0)">
                  <use xlink:href="#rim" fill="#404040">
                        <set attributeName="fill" to="#808080" begin="arrowRight.mouseover" end="arrowRight.mouseout"/>
                  </use>
                  <path fill="none" stroke="white" stroke-width="1.5" d="M0,-3.0v7 M-2.5,-0.5L0,-3.0L2.5,-0.5"/>
                </g>
                <g id="arrowDown" xlink:href="#dirArrow" transform="rotate(180) translate(-30 -48)" onmousedown="handlePan(0,1)">
                  <use xlink:href="#rim" fill="#404040">
                        <set attributeName="fill" to="#808080" begin="arrowDown.mouseover" end="arrowDown.mouseout"/>
                  </use>
                  <path fill="none" stroke="white" stroke-width="1.5" d="M0,-3.0v7 M-2.5,-0.5L0,-3.0L2.5,-0.5"/>
                </g>
                <g id="arrowLeft" xlink:href="#dirArrow" transform="rotate(270) translate(-36 17)" onmousedown="handlePan(-1,0)">
                  <use xlink:href="#rim" fill="#404040">
                        <set attributeName="fill" to="#808080" begin="arrowLeft.mouseover" end="arrowLeft.mouseout"/>
                  </use>
                  <path fill="none" stroke="white" stroke-width="1.5" d="M0,-3.0v7 M-2.5,-0.5L0,-3.0L2.5,-0.5"/>
                </g>
        </g>
        <svg viewBox="0 0 15 15" width="100%" height="30px" preserveAspectRatio="xMaxYMin meet">
         <g id="arrow_out" transform="scale(0.3 0.3)">
          <a xlink:href="class_chimera_t_k_1_1_async_domains_container__coll__graph_org.svg" target="_base">
           <rect id="button" ry="5" rx="5" y="6" x="6" height="38" width="38"
                fill="#f2f5e9" fill-opacity="0.5" stroke="#606060" stroke-width="1.0"/>
           <path id="arrow"
             d="M 11.500037,31.436501 C 11.940474,20.09759 22.043105,11.32322 32.158766,21.979434 L 37.068811,17.246167 C 37.068811,17.246167 37.088388,32 37.088388,32 L 22.160133,31.978069 C 22.160133,31.978069 26.997745,27.140456 26.997745,27.140456 C 18.528582,18.264221 13.291696,25.230495 11.500037,31.436501 z"
             style="fill:#404040;"/>
          </a>
         </g>
        </svg>
</svg>
