<?xml version="1.0" encoding="UTF-8" standalone="no"?>
<!DOCTYPE svg PUBLIC "-//W3C//DTD SVG 1.1//EN"
 "http://www.w3.org/Graphics/SVG/1.1/DTD/svg11.dtd">
<!-- Generated by graphviz version 2.40.1 (20161225.0304)
 -->
<!-- Title: ChimeraTK::Device::getBufferingRegisterAccessor Pages: 1 -->
<svg width="886pt" height="137pt"
 viewBox="0.00 0.00 886.00 137.00" xmlns="http://www.w3.org/2000/svg" xmlns:xlink="http://www.w3.org/1999/xlink">
<g id="graph0" class="graph" transform="scale(1 1) rotate(0) translate(4 133)">
<title>ChimeraTK::Device::getBufferingRegisterAccessor</title>
<polygon fill="#ffffff" stroke="transparent" points="-4,4 -4,-133 882,-133 882,4 -4,4"/>
<!-- Node161 -->
<g id="node1" class="node">
<title>Node161</title>
<polygon fill="#bfbfbf" stroke="#000000" points="0,-24.5 0,-54.5 160,-54.5 160,-24.5 0,-24.5"/>
<text text-anchor="start" x="8" y="-42.5" font-family="Helvetica,sans-Serif" font-size="10.00" fill="#000000">ChimeraTK::Device::</text>
<text text-anchor="middle" x="80" y="-31.5" font-family="Helvetica,sans-Serif" font-size="10.00" fill="#000000">getBufferingRegisterAccessor</text>
</g>
<!-- Node162 -->
<g id="node2" class="node">
<title>Node162</title>
<g id="a_node2"><a xlink:href="class_chimera_t_k_1_1_device.html#a488fb42cc1f9f41e08467685310c6785" target="_top" xlink:title="Obtain the backend. ">
<polygon fill="#ffffff" stroke="#000000" points="200.5,-49.5 200.5,-79.5 316.5,-79.5 316.5,-49.5 200.5,-49.5"/>
<text text-anchor="start" x="208.5" y="-67.5" font-family="Helvetica,sans-Serif" font-size="10.00" fill="#000000">ChimeraTK::Device::</text>
<text text-anchor="middle" x="258.5" y="-56.5" font-family="Helvetica,sans-Serif" font-size="10.00" fill="#000000">getBackend</text>
</a>
</g>
</g>
<!-- Node161&#45;&gt;Node162 -->
<g id="edge1" class="edge">
<title>Node161&#45;&gt;Node162</title>
<path fill="none" stroke="#191970" d="M170.2946,-52.1463C180.4902,-53.5743 190.6676,-54.9997 200.2946,-56.348"/>
<polygon fill="#191970" stroke="#191970" points="170.5015,-48.6412 160.1126,-50.7203 169.5305,-55.5735 170.5015,-48.6412"/>
</g>
<!-- Node167 -->
<g id="node7" class="node">
<title>Node167</title>
<g id="a_node7"><a xlink:href="class_buffering_register_test.html#a94bc0b9142925df2b36a5456d50cbac0" target="_top" xlink:title="test the register accessor ">
<polygon fill="#ffffff" stroke="#000000" points="196,-.5 196,-30.5 321,-30.5 321,-.5 196,-.5"/>
<text text-anchor="start" x="204" y="-18.5" font-family="Helvetica,sans-Serif" font-size="10.00" fill="#000000">BufferingRegisterTest</text>
<text text-anchor="middle" x="258.5" y="-7.5" font-family="Helvetica,sans-Serif" font-size="10.00" fill="#000000">::testRegisterAccessor</text>
</a>
</g>
</g>
<!-- Node161&#45;&gt;Node167 -->
<g id="edge7" class="edge">
<title>Node161&#45;&gt;Node167</title>
<path fill="none" stroke="#191970" d="M170.2335,-27.3678C178.8667,-26.207 187.4875,-25.0479 195.773,-23.9339"/>
<polygon fill="#191970" stroke="#191970" points="169.557,-23.9271 160.1126,-28.7286 170.4899,-30.8647 169.557,-23.9271"/>
</g>
<!-- Node163 -->
<g id="node3" class="node">
<title>Node163</title>
<g id="a_node3"><a xlink:href="class_chimera_t_k_1_1_unified_backend_test.html#a7e03656318dfd1a1d9c1ae598728fe7e" target="_top" xlink:title="Test interrupt() ">
<polygon fill="#ffffff" stroke="#000000" points="357,-98.5 357,-128.5 510,-128.5 510,-98.5 357,-98.5"/>
<text text-anchor="start" x="365" y="-116.5" font-family="Helvetica,sans-Serif" font-size="10.00" fill="#000000">ChimeraTK::UnifiedBackend</text>
<text text-anchor="middle" x="433.5" y="-105.5" font-family="Helvetica,sans-Serif" font-size="10.00" fill="#000000">Test::test_B_8_6_6</text>
</a>
</g>
</g>
<!-- Node162&#45;&gt;Node163 -->
<g id="edge2" class="edge">
<title>Node162&#45;&gt;Node163</title>
<path fill="none" stroke="#191970" d="M322.1473,-82.3212C341.042,-87.6118 361.5434,-93.3522 379.7444,-98.4484"/>
<polygon fill="#191970" stroke="#191970" points="323.0071,-78.9274 312.4337,-79.6014 321.1196,-85.6682 323.0071,-78.9274"/>
</g>
<!-- Node166 -->
<g id="node6" class="node">
<title>Node166</title>
<g id="a_node6"><a xlink:href="class_chimera_t_k_1_1_unified_backend_test.html#aaa6938910923e45270349c3cedb73685" target="_top" xlink:title="Test reporting exceptions to exception backend. ">
<polygon fill="#ffffff" stroke="#000000" points="357,-49.5 357,-79.5 510,-79.5 510,-49.5 357,-49.5"/>
<text text-anchor="start" x="365" y="-67.5" font-family="Helvetica,sans-Serif" font-size="10.00" fill="#000000">ChimeraTK::UnifiedBackend</text>
<text text-anchor="middle" x="433.5" y="-56.5" font-family="Helvetica,sans-Serif" font-size="10.00" fill="#000000">Test::test_B_9_1</text>
</a>
</g>
</g>
<!-- Node162&#45;&gt;Node166 -->
<g id="edge5" class="edge">
<title>Node162&#45;&gt;Node166</title>
<path fill="none" stroke="#191970" d="M326.8595,-64.5C336.6776,-64.5 346.8338,-64.5 356.8001,-64.5"/>
<polygon fill="#191970" stroke="#191970" points="326.7725,-61.0001 316.7725,-64.5 326.7724,-68.0001 326.7725,-61.0001"/>
</g>
<!-- Node164 -->
<g id="node4" class="node">
<title>Node164</title>
<g id="a_node4"><a xlink:href="class_chimera_t_k_1_1_unified_backend_test.html#a7434d5256809a1b2cf634d39f32a83df" target="_top" xlink:title="Execute all tests. ">
<polygon fill="#ffffff" stroke="#000000" points="546,-73.5 546,-103.5 699,-103.5 699,-73.5 546,-73.5"/>
<text text-anchor="start" x="554" y="-91.5" font-family="Helvetica,sans-Serif" font-size="10.00" fill="#000000">ChimeraTK::UnifiedBackend</text>
<text text-anchor="middle" x="622.5" y="-80.5" font-family="Helvetica,sans-Serif" font-size="10.00" fill="#000000">Test::runTests</text>
</a>
</g>
</g>
<!-- Node163&#45;&gt;Node164 -->
<g id="edge3" class="edge">
<title>Node163&#45;&gt;Node164</title>
<path fill="none" stroke="#191970" d="M520.1039,-102.0445C528.6735,-100.9109 537.3304,-99.7658 545.7899,-98.6468"/>
<polygon fill="#191970" stroke="#191970" points="519.5557,-98.5864 510.1011,-103.3676 520.4737,-105.5259 519.5557,-98.5864"/>
</g>
<!-- Node165 -->
<g id="node5" class="node">
<title>Node165</title>
<g id="a_node5"><a xlink:href="test_numeric_addressed_backend_unified_8cpp.html#a9f5533e72ee880d6d818844f51879211" target="_top" xlink:title="BOOST_AUTO_TEST_CASE">
<polygon fill="#ffffff" stroke="#000000" points="735,-79 735,-98 878,-98 878,-79 735,-79"/>
<text text-anchor="middle" x="806.5" y="-86" font-family="Helvetica,sans-Serif" font-size="10.00" fill="#000000">BOOST_AUTO_TEST_CASE</text>
</a>
</g>
</g>
<!-- Node164&#45;&gt;Node165 -->
<g id="edge4" class="edge">
<title>Node164&#45;&gt;Node165</title>
<path fill="none" stroke="#191970" d="M709.2487,-88.5C717.8479,-88.5 726.5085,-88.5 734.9286,-88.5"/>
<polygon fill="#191970" stroke="#191970" points="709.2002,-85.0001 699.2002,-88.5 709.2002,-92.0001 709.2002,-85.0001"/>
</g>
<!-- Node166&#45;&gt;Node164 -->
<g id="edge6" class="edge">
<title>Node166&#45;&gt;Node164</title>
<path fill="none" stroke="#191970" d="M520.1039,-75.4973C528.6735,-76.5855 537.3304,-77.6848 545.7899,-78.759"/>
<polygon fill="#191970" stroke="#191970" points="520.4623,-72.0148 510.1011,-74.2271 519.5805,-78.9591 520.4623,-72.0148"/>
</g>
<!-- Node168 -->
<g id="node8" class="node">
<title>Node168</title>
<g id="a_node8"><a xlink:href="class_buffering_register_test_suite.html#a511f0d278a3adbbbe1b2678d2e016cde" target="_top" xlink:title="BufferingRegisterTestSuite\l::BufferingRegisterTestSuite">
<polygon fill="#ffffff" stroke="#000000" points="358,-.5 358,-30.5 509,-30.5 509,-.5 358,-.5"/>
<text text-anchor="start" x="366" y="-18.5" font-family="Helvetica,sans-Serif" font-size="10.00" fill="#000000">BufferingRegisterTestSuite</text>
<text text-anchor="middle" x="433.5" y="-7.5" font-family="Helvetica,sans-Serif" font-size="10.00" fill="#000000">::BufferingRegisterTestSuite</text>
</a>
</g>
</g>
<!-- Node167&#45;&gt;Node168 -->
<g id="edge8" class="edge">
<title>Node167&#45;&gt;Node168</title>
<path fill="none" stroke="#191970" d="M331.3334,-15.5C340.0757,-15.5 349.0191,-15.5 357.801,-15.5"/>
<polygon fill="#191970" stroke="#191970" points="331.1848,-12.0001 321.1847,-15.5 331.1847,-19.0001 331.1848,-12.0001"/>
</g>
</g>
</svg>
