<?xml version="1.0" encoding="UTF-8" standalone="no"?>
<!DOCTYPE svg PUBLIC "-//W3C//DTD SVG 1.1//EN"
 "http://www.w3.org/Graphics/SVG/1.1/DTD/svg11.dtd">
<!-- Generated by graphviz version 2.43.0 (0)
 -->
<!-- Title: ChimeraTK::TransferElement::makeUniqueId Pages: 1 -->
<svg width="376pt" height="39pt"
 viewBox="0.00 0.00 376.00 39.00" xmlns="http://www.w3.org/2000/svg" xmlns:xlink="http://www.w3.org/1999/xlink">
<g id="graph0" class="graph" transform="scale(1 1) rotate(0) translate(4 35)">
<title>ChimeraTK::TransferElement::makeUniqueId</title>
<polygon fill="white" stroke="transparent" points="-4,4 -4,-35 372,-35 372,4 -4,4"/>
<!-- Node1 -->
<g id="node1" class="node">
<title>Node1</title>
<g id="a_node1"><a xlink:title="Allow generating a unique ID from derived classes.">
<polygon fill="#bfbfbf" stroke="black" points="212,-0.5 212,-30.5 368,-30.5 368,-0.5 212,-0.5"/>
<text text-anchor="start" x="220" y="-18.5" font-family="Helvetica,sans-Serif" font-size="10.00">ChimeraTK::TransferElement</text>
<text text-anchor="middle" x="290" y="-7.5" font-family="Helvetica,sans-Serif" font-size="10.00">::makeUniqueId</text>
</a>
</g>
</g>
<!-- Node2 -->
<g id="node2" class="node">
<title>Node2</title>
<g id="a_node2"><a xlink:href="class_chimera_t_k_1_1_n_d_register_accessor.html#a26aa0043b2e832914f208dbe14b9df78" target="_top" xlink:title="Creates an NDRegisterAccessor with the specified name (passed on to the transfer element).">
<polygon fill="white" stroke="black" points="0,-0.5 0,-30.5 176,-30.5 176,-0.5 0,-0.5"/>
<text text-anchor="start" x="8" y="-18.5" font-family="Helvetica,sans-Serif" font-size="10.00">ChimeraTK::NDRegisterAccessor</text>
<text text-anchor="middle" x="88" y="-7.5" font-family="Helvetica,sans-Serif" font-size="10.00">::NDRegisterAccessor</text>
</a>
</g>
</g>
<!-- Node1&#45;&gt;Node2 -->
<g id="edge1" class="edge">
<title>Node1&#45;&gt;Node2</title>
<path fill="none" stroke="midnightblue" d="M201.75,-15.5C193.32,-15.5 184.76,-15.5 176.33,-15.5"/>
<polygon fill="midnightblue" stroke="midnightblue" points="201.96,-19 211.96,-15.5 201.96,-12 201.96,-19"/>
</g>
</g>
</svg>
