<?xml version="1.0" encoding="UTF-8" standalone="no"?>
<!DOCTYPE svg PUBLIC "-//W3C//DTD SVG 1.1//EN"
 "http://www.w3.org/Graphics/SVG/1.1/DTD/svg11.dtd">
<!-- Generated by graphviz version 2.40.1 (20161225.0304)
 -->
<!-- Title: ChimeraTK::TransferElementAbstractor::isReadOnly Pages: 1 -->
<svg width="548pt" height="205pt"
 viewBox="0.00 0.00 548.00 204.50" xmlns="http://www.w3.org/2000/svg" xmlns:xlink="http://www.w3.org/1999/xlink">
<g id="graph0" class="graph" transform="scale(1 1) rotate(0) translate(4 200.5)">
<title>ChimeraTK::TransferElementAbstractor::isReadOnly</title>
<polygon fill="#ffffff" stroke="transparent" points="-4,4 -4,-200.5 544,-200.5 544,4 -4,4"/>
<!-- Node87 -->
<g id="node1" class="node">
<title>Node87</title>
<polygon fill="#bfbfbf" stroke="#000000" points="0,-39 0,-69 156,-69 156,-39 0,-39"/>
<text text-anchor="start" x="8" y="-57" font-family="Helvetica,sans-Serif" font-size="10.00" fill="#000000">ChimeraTK::TransferElement</text>
<text text-anchor="middle" x="78" y="-46" font-family="Helvetica,sans-Serif" font-size="10.00" fill="#000000">Abstractor::isReadOnly</text>
</g>
<!-- Node88 -->
<g id="node2" class="node">
<title>Node88</title>
<g id="a_node2"><a xlink:href="class_chimera_t_k_1_1_transfer_group.html#a105197b54833784c119bc3f445ae8a91" target="_top" xlink:title="Add a register accessor to the group. ">
<polygon fill="#ffffff" stroke="#000000" points="203,-107 203,-137 348,-137 348,-107 203,-107"/>
<text text-anchor="start" x="211" y="-125" font-family="Helvetica,sans-Serif" font-size="10.00" fill="#000000">ChimeraTK::TransferGroup</text>
<text text-anchor="middle" x="275.5" y="-114" font-family="Helvetica,sans-Serif" font-size="10.00" fill="#000000">::addAccessor</text>
</a>
</g>
</g>
<!-- Node87&#45;&gt;Node88 -->
<g id="edge1" class="edge">
<title>Node87&#45;&gt;Node88</title>
<path fill="none" stroke="#191970" d="M131.3284,-72.3612C162.8063,-83.1991 202.1568,-96.7477 231.7909,-106.9508"/>
<polygon fill="#191970" stroke="#191970" points="132.4264,-69.0376 121.8317,-69.0914 130.1475,-75.6563 132.4264,-69.0376"/>
</g>
<!-- Node92 -->
<g id="node6" class="node">
<title>Node92</title>
<g id="a_node6"><a xlink:href="class_one_d_register_test.html#af13b3a937d0bc3c9a32c8435f3cf488d" target="_top" xlink:title="test the register accessor ">
<polygon fill="#ffffff" stroke="#000000" points="192,-39 192,-69 359,-69 359,-39 192,-39"/>
<text text-anchor="start" x="200" y="-57" font-family="Helvetica,sans-Serif" font-size="10.00" fill="#000000">OneDRegisterTest::testRegister</text>
<text text-anchor="middle" x="275.5" y="-46" font-family="Helvetica,sans-Serif" font-size="10.00" fill="#000000">Accessor</text>
</a>
</g>
</g>
<!-- Node87&#45;&gt;Node92 -->
<g id="edge5" class="edge">
<title>Node87&#45;&gt;Node92</title>
<path fill="none" stroke="#191970" d="M166.3344,-54C174.8161,-54 183.4013,-54 191.8362,-54"/>
<polygon fill="#191970" stroke="#191970" points="166.0573,-50.5001 156.0572,-54 166.0572,-57.5001 166.0573,-50.5001"/>
</g>
<!-- Node94 -->
<g id="node8" class="node">
<title>Node94</title>
<g id="a_node8"><a xlink:href="test_scalar_register_accessor_8cpp.html#af6690df3622b4b8fc105f750a010295b" target="_top" xlink:title="BOOST_AUTO_TEST_CASE">
<polygon fill="#ffffff" stroke="#000000" points="204,-.5 204,-19.5 347,-19.5 347,-.5 204,-.5"/>
<text text-anchor="middle" x="275.5" y="-7.5" font-family="Helvetica,sans-Serif" font-size="10.00" fill="#000000">BOOST_AUTO_TEST_CASE</text>
</a>
</g>
</g>
<!-- Node87&#45;&gt;Node94 -->
<g id="edge7" class="edge">
<title>Node87&#45;&gt;Node94</title>
<path fill="none" stroke="#191970" d="M155.3894,-36.7588C181.7275,-30.8911 210.1949,-24.549 232.8022,-19.5124"/>
<polygon fill="#191970" stroke="#191970" points="154.4155,-33.3899 145.4159,-38.9808 155.9377,-40.2224 154.4155,-33.3899"/>
</g>
<!-- Node89 -->
<g id="node3" class="node">
<title>Node89</title>
<g id="a_node3"><a xlink:href="class_chimera_t_k_1_1_transfer_group.html#aea5883f974de2d9b2cd5f45a162840a8" target="_top" xlink:title="ChimeraTK::TransferGroup\l::~TransferGroup">
<polygon fill="#ffffff" stroke="#000000" points="395,-166 395,-196 540,-196 540,-166 395,-166"/>
<text text-anchor="start" x="403" y="-184" font-family="Helvetica,sans-Serif" font-size="10.00" fill="#000000">ChimeraTK::TransferGroup</text>
<text text-anchor="middle" x="467.5" y="-173" font-family="Helvetica,sans-Serif" font-size="10.00" fill="#000000">::~TransferGroup</text>
</a>
</g>
</g>
<!-- Node88&#45;&gt;Node89 -->
<g id="edge2" class="edge">
<title>Node88&#45;&gt;Node89</title>
<path fill="none" stroke="#191970" d="M334.1762,-140.0307C361.2137,-148.3391 392.9295,-158.0851 418.6429,-165.9866"/>
<polygon fill="#191970" stroke="#191970" points="335.0335,-136.6327 324.4465,-137.0408 332.9773,-143.3239 335.0335,-136.6327"/>
</g>
<!-- Node90 -->
<g id="node4" class="node">
<title>Node90</title>
<g id="a_node4"><a xlink:href="class_chimera_t_k_1_1_transfer_group.html#a13f0ae7ce386f0f34b9ea9db867efbf4" target="_top" xlink:title="ChimeraTK::TransferGroup\l::addAccessor">
<polygon fill="#ffffff" stroke="#000000" points="395,-117 395,-147 540,-147 540,-117 395,-117"/>
<text text-anchor="start" x="403" y="-135" font-family="Helvetica,sans-Serif" font-size="10.00" fill="#000000">ChimeraTK::TransferGroup</text>
<text text-anchor="middle" x="467.5" y="-124" font-family="Helvetica,sans-Serif" font-size="10.00" fill="#000000">::addAccessor</text>
</a>
</g>
</g>
<!-- Node88&#45;&gt;Node90 -->
<g id="edge3" class="edge">
<title>Node88&#45;&gt;Node90</title>
<path fill="none" stroke="#191970" d="M358.2258,-126.3086C370.3981,-126.9426 382.8607,-127.5917 394.8104,-128.2141"/>
<polygon fill="#191970" stroke="#191970" points="358.2555,-122.8055 348.087,-125.7806 357.8914,-129.7961 358.2555,-122.8055"/>
</g>
<!-- Node91 -->
<g id="node5" class="node">
<title>Node91</title>
<g id="a_node5"><a xlink:href="test_l_map_backend_8cpp.html#ab148c830fb30f16b374203012e700fd8" target="_top" xlink:title="BOOST_AUTO_TEST_CASE">
<polygon fill="#ffffff" stroke="#000000" points="396,-78.5 396,-97.5 539,-97.5 539,-78.5 396,-78.5"/>
<text text-anchor="middle" x="467.5" y="-85.5" font-family="Helvetica,sans-Serif" font-size="10.00" fill="#000000">BOOST_AUTO_TEST_CASE</text>
</a>
</g>
</g>
<!-- Node88&#45;&gt;Node91 -->
<g id="edge4" class="edge">
<title>Node88&#45;&gt;Node91</title>
<path fill="none" stroke="#191970" d="M358.1383,-107.3661C376.9377,-104.0371 396.4343,-100.5846 413.6682,-97.5327"/>
<polygon fill="#191970" stroke="#191970" points="357.3234,-103.9559 348.087,-109.1461 358.5441,-110.8487 357.3234,-103.9559"/>
</g>
<!-- Node93 -->
<g id="node7" class="node">
<title>Node93</title>
<g id="a_node7"><a xlink:href="class_one_d_register_test_suite.html#a4d88d897e9a37a3871d48bd60b5e8985" target="_top" xlink:title="OneDRegisterTestSuite\l::OneDRegisterTestSuite">
<polygon fill="#ffffff" stroke="#000000" points="400.5,-29 400.5,-59 534.5,-59 534.5,-29 400.5,-29"/>
<text text-anchor="start" x="408.5" y="-47" font-family="Helvetica,sans-Serif" font-size="10.00" fill="#000000">OneDRegisterTestSuite</text>
<text text-anchor="middle" x="467.5" y="-36" font-family="Helvetica,sans-Serif" font-size="10.00" fill="#000000">::OneDRegisterTestSuite</text>
</a>
</g>
</g>
<!-- Node92&#45;&gt;Node93 -->
<g id="edge6" class="edge">
<title>Node92&#45;&gt;Node93</title>
<path fill="none" stroke="#191970" d="M369.185,-49.1206C379.6747,-48.5742 390.2013,-48.026 400.2634,-47.5019"/>
<polygon fill="#191970" stroke="#191970" points="368.9599,-45.6275 359.1555,-49.6429 369.324,-52.618 368.9599,-45.6275"/>
</g>
</g>
</svg>
