<?xml version="1.0" encoding="UTF-8" standalone="no"?>
<!DOCTYPE svg PUBLIC "-//W3C//DTD SVG 1.1//EN"
 "http://www.w3.org/Graphics/SVG/1.1/DTD/svg11.dtd">
<!-- Generated by graphviz version 2.40.1 (20161225.0304)
 -->
<!-- Title: ChimeraTK::LNMBackend::MathPlugin::openHook Pages: 1 -->
<!--zoomable 176 -->
<svg id="main" version="1.1" xmlns="http://www.w3.org/2000/svg" xmlns:xlink="http://www.w3.org/1999/xlink" xml:space="preserve" onload="init(evt)">
<style type="text/css"><![CDATA[
.edge:hover path { stroke: red; }
.edge:hover polygon { stroke: red; fill: red; }
]]></style>
<script type="text/javascript"><![CDATA[
var edges = document.getElementsByTagName('g');
if (edges && edges.length) {
  for (var i=0;i<edges.length;i++) {
    if (edges[i].id.substr(0,4)=='edge') {
      edges[i].setAttribute('class','edge');
    }
  }
}
]]></script>
        <defs>
                <circle id="rim" cx="0" cy="0" r="7"/>
                <circle id="rim2" cx="0" cy="0" r="3.5"/>
                <g id="zoomPlus">
                        <use xlink:href="#rim" fill="#404040">
                                <set attributeName="fill" to="#808080" begin="zoomplus.mouseover" end="zoomplus.mouseout"/>
                        </use>
                        <path d="M-4,0h8M0,-4v8" fill="none" stroke="white" stroke-width="1.5" pointer-events="none"/>
                </g>
                <g id="zoomMin">
                        <use xlink:href="#rim" fill="#404040">
                                <set attributeName="fill" to="#808080" begin="zoomminus.mouseover" end="zoomminus.mouseout"/>
                        </use>
                        <path d="M-4,0h8" fill="none" stroke="white" stroke-width="1.5" pointer-events="none"/>
                </g>
                <g id="dirArrow">
                        <path fill="none" stroke="white" stroke-width="1.5" d="M0,-3.0v7 M-2.5,-0.5L0,-3.0L2.5,-0.5"/>
                </g>
               <g id="resetDef">
                       <use xlink:href="#rim2" fill="#404040">
                               <set attributeName="fill" to="#808080" begin="reset.mouseover" end="reset.mouseout"/>
                       </use>
               </g>
        </defs>

<script type="text/javascript">
var viewWidth = 580;
var viewHeight = 176;
var sectionId = 'dynsection-5';
</script>
<script xlink:href="svgpan.js"/>
<svg id="graph" class="graph">
<g id="viewport">
<title>ChimeraTK::LNMBackend::MathPlugin::openHook</title>
<polygon fill="#ffffff" stroke="transparent" points="-4,4 -4,-171.5 576,-171.5 576,4 -4,4"/>
<!-- Node14 -->
<g id="node1" class="node">
<title>Node14</title>
<polygon fill="#bfbfbf" stroke="#000000" points="0,-63 0,-93 140,-93 140,-63 0,-63"/>
<text text-anchor="start" x="8" y="-81" font-family="Helvetica,sans-Serif" font-size="10.00" fill="#000000">ChimeraTK::LNMBackend</text>
<text text-anchor="middle" x="70" y="-70" font-family="Helvetica,sans-Serif" font-size="10.00" fill="#000000">::MathPlugin::openHook</text>
</g>
<!-- Node15 -->
<g id="node2" class="node">
<title>Node15</title>
<g id="a_node2"><a xlink:href="class_chimera_t_k_1_1_l_n_m_backend_1_1_math_plugin.html#a1ba88e8bb8d8e779c1ca925caa26183b" target="_top" xlink:title="Update the register info if needed. ">
<polygon fill="#ffffff" stroke="#000000" points="176,-107 176,-137 351,-137 351,-107 176,-107"/>
<text text-anchor="start" x="184" y="-125" font-family="Helvetica,sans-Serif" font-size="10.00" fill="#000000">ChimeraTK::LNMBackend</text>
<text text-anchor="middle" x="263.5" y="-114" font-family="Helvetica,sans-Serif" font-size="10.00" fill="#000000">::MathPlugin::updateRegisterInfo</text>
</a>
</g>
</g>
<!-- Node14&#45;&gt;Node15 -->
<g id="edge1" class="edge">
<title>Node14&#45;&gt;Node15</title>
<path fill="none" stroke="#191970" d="M136.0505,-93.0192C152.6159,-96.786 170.5207,-100.8574 187.5267,-104.7244"/>
<polygon fill="#191970" stroke="#191970" points="186.8917,-108.1693 197.4188,-106.9738 188.4438,-101.3435 186.8917,-108.1693"/>
</g>
<!-- Node16 -->
<g id="node3" class="node">
<title>Node16</title>
<g id="a_node3"><a xlink:href="class_chimera_t_k_1_1_read_any_group.html#a662fa4a8da3311e9fe1c1e1e86a4eb16" target="_top" xlink:title="Add register to group. ">
<polygon fill="#ffffff" stroke="#000000" points="177,-68.5 177,-87.5 350,-87.5 350,-68.5 177,-68.5"/>
<text text-anchor="middle" x="263.5" y="-75.5" font-family="Helvetica,sans-Serif" font-size="10.00" fill="#000000">ChimeraTK::ReadAnyGroup::add</text>
</a>
</g>
</g>
<!-- Node14&#45;&gt;Node16 -->
<g id="edge2" class="edge">
<title>Node14&#45;&gt;Node16</title>
<path fill="none" stroke="#191970" d="M140.1315,-78C148.7756,-78 157.7271,-78 166.6795,-78"/>
<polygon fill="#191970" stroke="#191970" points="166.7709,-81.5001 176.7709,-78 166.7709,-74.5001 166.7709,-81.5001"/>
</g>
<!-- Node21 -->
<g id="node8" class="node">
<title>Node21</title>
<g id="a_node8"><a xlink:href="class_chimera_t_k_1_1_read_any_group.html#af53a97adcbde58b2ee8249536b30e36a" target="_top" xlink:title="Finalise the group. ">
<polygon fill="#ffffff" stroke="#000000" points="189,-19 189,-49 338,-49 338,-19 189,-19"/>
<text text-anchor="start" x="197" y="-37" font-family="Helvetica,sans-Serif" font-size="10.00" fill="#000000">ChimeraTK::ReadAnyGroup</text>
<text text-anchor="middle" x="263.5" y="-26" font-family="Helvetica,sans-Serif" font-size="10.00" fill="#000000">::finalise</text>
</a>
</g>
</g>
<!-- Node14&#45;&gt;Node21 -->
<g id="edge7" class="edge">
<title>Node14&#45;&gt;Node21</title>
<path fill="none" stroke="#191970" d="M136.0505,-62.9808C152.6159,-59.214 170.5207,-55.1426 187.5267,-51.2756"/>
<polygon fill="#191970" stroke="#191970" points="188.4438,-54.6565 197.4188,-49.0262 186.8917,-47.8307 188.4438,-54.6565"/>
</g>
<!-- Node17 -->
<g id="node4" class="node">
<title>Node17</title>
<g id="a_node4"><a xlink:href="class_chimera_t_k_1_1_transfer_element_abstractor.html#a4b6532a803d31c0bcd2f3c63b7610ab8" target="_top" xlink:title="Check if transfer element is readable. ">
<polygon fill="#ffffff" stroke="#000000" points="401.5,-137 401.5,-167 557.5,-167 557.5,-137 401.5,-137"/>
<text text-anchor="start" x="409.5" y="-155" font-family="Helvetica,sans-Serif" font-size="10.00" fill="#000000">ChimeraTK::TransferElement</text>
<text text-anchor="middle" x="479.5" y="-144" font-family="Helvetica,sans-Serif" font-size="10.00" fill="#000000">Abstractor::isReadable</text>
</a>
</g>
</g>
<!-- Node16&#45;&gt;Node17 -->
<g id="edge3" class="edge">
<title>Node16&#45;&gt;Node17</title>
<path fill="none" stroke="#191970" d="M322.7092,-87.5351C332.4353,-90.2209 342.2021,-93.6441 351,-98 369.6649,-107.2411 368.4717,-118.4878 387,-128 390.736,-129.918 394.6375,-131.6913 398.6352,-133.3299"/>
<polygon fill="#191970" stroke="#191970" points="397.514,-136.6478 408.1055,-136.9132 399.9913,-130.1007 397.514,-136.6478"/>
</g>
<!-- Node18 -->
<g id="node5" class="node">
<title>Node18</title>
<g id="a_node5"><a xlink:href="class_chimera_t_k_1_1_transfer_element_abstractor.html#aa2ce6abbffcd87c4168594749068dd9d" target="_top" xlink:title="Returns the name that identifies the process variable. ">
<polygon fill="#ffffff" stroke="#000000" points="401.5,-88 401.5,-118 557.5,-118 557.5,-88 401.5,-88"/>
<text text-anchor="start" x="409.5" y="-106" font-family="Helvetica,sans-Serif" font-size="10.00" fill="#000000">ChimeraTK::TransferElement</text>
<text text-anchor="middle" x="479.5" y="-95" font-family="Helvetica,sans-Serif" font-size="10.00" fill="#000000">Abstractor::getName</text>
</a>
</g>
</g>
<!-- Node16&#45;&gt;Node18 -->
<g id="edge4" class="edge">
<title>Node16&#45;&gt;Node18</title>
<path fill="none" stroke="#191970" d="M345.7765,-87.5227C360.5973,-89.2381 376.1042,-91.0329 391.0905,-92.7674"/>
<polygon fill="#191970" stroke="#191970" points="391.0314,-96.2839 401.3676,-93.9569 391.8363,-89.3303 391.0314,-96.2839"/>
</g>
<!-- Node19 -->
<g id="node6" class="node">
<title>Node19</title>
<g id="a_node6"><a xlink:href="class_chimera_t_k_1_1_transfer_element_abstractor.html#acc639d986bbab7f30b86c6f8f8596e57" target="_top" xlink:title="Return the AccessModeFlags for this TransferElement. ">
<polygon fill="#ffffff" stroke="#000000" points="392.5,-39 392.5,-69 566.5,-69 566.5,-39 392.5,-39"/>
<text text-anchor="start" x="400.5" y="-57" font-family="Helvetica,sans-Serif" font-size="10.00" fill="#000000">ChimeraTK::TransferElement</text>
<text text-anchor="middle" x="479.5" y="-46" font-family="Helvetica,sans-Serif" font-size="10.00" fill="#000000">Abstractor::getAccessModeFlags</text>
</a>
</g>
</g>
<!-- Node16&#45;&gt;Node19 -->
<g id="edge5" class="edge">
<title>Node16&#45;&gt;Node19</title>
<path fill="none" stroke="#191970" d="M349.1792,-68.4801C360.0006,-67.2777 371.1348,-66.0406 382.1209,-64.8199"/>
<polygon fill="#191970" stroke="#191970" points="382.603,-68.288 392.1553,-63.705 381.8299,-61.3308 382.603,-68.288"/>
</g>
<!-- Node20 -->
<g id="node7" class="node">
<title>Node20</title>
<g id="a_node7"><a xlink:href="class_chimera_t_k_1_1_access_mode_flags.html#a3a8fdd12b01e34b7e605a858338efeab" target="_top" xlink:title="Check if a certain flag is in the set. ">
<polygon fill="#ffffff" stroke="#000000" points="387,-.5 387,-19.5 572,-19.5 572,-.5 387,-.5"/>
<text text-anchor="middle" x="479.5" y="-7.5" font-family="Helvetica,sans-Serif" font-size="10.00" fill="#000000">ChimeraTK::AccessModeFlags::has</text>
</a>
</g>
</g>
<!-- Node16&#45;&gt;Node20 -->
<g id="edge6" class="edge">
<title>Node16&#45;&gt;Node20</title>
<path fill="none" stroke="#191970" d="M324.9631,-68.4631C333.9259,-65.991 342.8658,-62.889 351,-59 369.5361,-50.138 368.46,-38.8538 387,-30 393.0764,-27.0982 399.5781,-24.6129 406.2131,-22.4851"/>
<polygon fill="#191970" stroke="#191970" points="407.3843,-25.7891 415.9954,-19.6167 405.4146,-19.0719 407.3843,-25.7891"/>
</g>
</g>
</svg>
        <g id="navigator" transform="translate(0 0)" fill="#404254">
                <rect fill="#f2f5e9" fill-opacity="0.5" stroke="#606060" stroke-width=".5" x="0" y="0" width="60" height="60"/>
                <use id="zoomplus" xlink:href="#zoomPlus" x="17" y="9" onmousedown="handleZoom(evt,'in')"/>
                <use id="zoomminus" xlink:href="#zoomMin" x="42" y="9" onmousedown="handleZoom(evt,'out')"/>
                <use id="reset" xlink:href="#resetDef" x="30" y="36" onmousedown="handleReset()"/>
                <g id="arrowUp" xlink:href="#dirArrow" transform="translate(30 24)" onmousedown="handlePan(0,-1)">
                  <use xlink:href="#rim" fill="#404040">
                        <set attributeName="fill" to="#808080" begin="arrowUp.mouseover" end="arrowUp.mouseout"/>
                  </use>
                  <path fill="none" stroke="white" stroke-width="1.5" d="M0,-3.0v7 M-2.5,-0.5L0,-3.0L2.5,-0.5"/>
                </g>
                <g id="arrowRight" xlink:href="#dirArrow" transform="rotate(90) translate(36 -43)" onmousedown="handlePan(1,0)">
                  <use xlink:href="#rim" fill="#404040">
                        <set attributeName="fill" to="#808080" begin="arrowRight.mouseover" end="arrowRight.mouseout"/>
                  </use>
                  <path fill="none" stroke="white" stroke-width="1.5" d="M0,-3.0v7 M-2.5,-0.5L0,-3.0L2.5,-0.5"/>
                </g>
                <g id="arrowDown" xlink:href="#dirArrow" transform="rotate(180) translate(-30 -48)" onmousedown="handlePan(0,1)">
                  <use xlink:href="#rim" fill="#404040">
                        <set attributeName="fill" to="#808080" begin="arrowDown.mouseover" end="arrowDown.mouseout"/>
                  </use>
                  <path fill="none" stroke="white" stroke-width="1.5" d="M0,-3.0v7 M-2.5,-0.5L0,-3.0L2.5,-0.5"/>
                </g>
                <g id="arrowLeft" xlink:href="#dirArrow" transform="rotate(270) translate(-36 17)" onmousedown="handlePan(-1,0)">
                  <use xlink:href="#rim" fill="#404040">
                        <set attributeName="fill" to="#808080" begin="arrowLeft.mouseover" end="arrowLeft.mouseout"/>
                  </use>
                  <path fill="none" stroke="white" stroke-width="1.5" d="M0,-3.0v7 M-2.5,-0.5L0,-3.0L2.5,-0.5"/>
                </g>
        </g>
        <svg viewBox="0 0 15 15" width="100%" height="30px" preserveAspectRatio="xMaxYMin meet">
         <g id="arrow_out" transform="scale(0.3 0.3)">
          <a xlink:href="class_chimera_t_k_1_1_l_n_m_backend_1_1_math_plugin_a0a99fa66c9020f37c2daefe4cb8ce47a_cgraph_org.svg" target="_base">
           <rect id="button" ry="5" rx="5" y="6" x="6" height="38" width="38"
                fill="#f2f5e9" fill-opacity="0.5" stroke="#606060" stroke-width="1.0"/>
           <path id="arrow"
             d="M 11.500037,31.436501 C 11.940474,20.09759 22.043105,11.32322 32.158766,21.979434 L 37.068811,17.246167 C 37.068811,17.246167 37.088388,32 37.088388,32 L 22.160133,31.978069 C 22.160133,31.978069 26.997745,27.140456 26.997745,27.140456 C 18.528582,18.264221 13.291696,25.230495 11.500037,31.436501 z"
             style="fill:#404040;"/>
          </a>
         </g>
        </svg>
</svg>
