<?xml version="1.0" encoding="UTF-8" standalone="no"?>
<!DOCTYPE svg PUBLIC "-//W3C//DTD SVG 1.1//EN"
 "http://www.w3.org/Graphics/SVG/1.1/DTD/svg11.dtd">
<!-- Generated by graphviz version 2.40.1 (20161225.0304)
 -->
<!-- Title: ChimeraTK::DummyBackendRegisterCatalogue::getBackendRegister Pages: 1 -->
<svg width="891pt" height="132pt"
 viewBox="0.00 0.00 891.00 132.00" xmlns="http://www.w3.org/2000/svg" xmlns:xlink="http://www.w3.org/1999/xlink">
<g id="graph0" class="graph" transform="scale(1 1) rotate(0) translate(4 128)">
<title>ChimeraTK::DummyBackendRegisterCatalogue::getBackendRegister</title>
<polygon fill="#ffffff" stroke="transparent" points="-4,4 -4,-128 887,-128 887,4 -4,4"/>
<!-- Node0 -->
<g id="node1" class="node">
<title>Node0</title>
<polygon fill="#bfbfbf" stroke="#000000" points="0,-90.5 0,-120.5 197,-120.5 197,-90.5 0,-90.5"/>
<text text-anchor="start" x="8" y="-108.5" font-family="Helvetica,sans-Serif" font-size="10.00" fill="#000000">ChimeraTK::DummyBackendRegister</text>
<text text-anchor="middle" x="98.5" y="-97.5" font-family="Helvetica,sans-Serif" font-size="10.00" fill="#000000">Catalogue::getBackendRegister</text>
</g>
<!-- Node1 -->
<g id="node2" class="node">
<title>Node1</title>
<g id="a_node2"><a xlink:href="class_chimera_t_k_1_1_register_path.html#a84c47bf04a7a173d99da19f79f087570" target="_top" xlink:title="set alternative separator. ">
<polygon fill="#ffffff" stroke="#000000" points="746,-93.5 746,-123.5 883,-123.5 883,-93.5 746,-93.5"/>
<text text-anchor="start" x="754" y="-111.5" font-family="Helvetica,sans-Serif" font-size="10.00" fill="#000000">ChimeraTK::RegisterPath</text>
<text text-anchor="middle" x="814.5" y="-100.5" font-family="Helvetica,sans-Serif" font-size="10.00" fill="#000000">::setAltSeparator</text>
</a>
</g>
</g>
<!-- Node0&#45;&gt;Node1 -->
<g id="edge1" class="edge">
<title>Node0&#45;&gt;Node1</title>
<path fill="none" stroke="#191970" d="M197.2932,-107.8631C209.3216,-108.1037 221.4399,-108.3239 233,-108.5 444.9773,-111.7291 498.0078,-112.5284 710,-110.5 718.3466,-110.4201 727.0677,-110.3044 735.7593,-110.1683"/>
<polygon fill="#191970" stroke="#191970" points="735.9839,-113.6651 745.9246,-110 735.868,-106.6661 735.9839,-113.6651"/>
</g>
<!-- Node2 -->
<g id="node3" class="node">
<title>Node2</title>
<g id="a_node3"><a xlink:href="class_chimera_t_k_1_1_numeric_addressed_register_catalogue.html#a33ee63fb41be9df3080c8ebe527c4b75" target="_top" xlink:title="Note: Override this function if backend has &quot;hidden&quot; registers which are not added to the map and hen...">
<polygon fill="#ffffff" stroke="#000000" points="233,-68.5 233,-98.5 442,-98.5 442,-68.5 233,-68.5"/>
<text text-anchor="start" x="241" y="-86.5" font-family="Helvetica,sans-Serif" font-size="10.00" fill="#000000">ChimeraTK::NumericAddressed</text>
<text text-anchor="middle" x="337.5" y="-75.5" font-family="Helvetica,sans-Serif" font-size="10.00" fill="#000000">RegisterCatalogue::getBackendRegister</text>
</a>
</g>
</g>
<!-- Node0&#45;&gt;Node2 -->
<g id="edge2" class="edge">
<title>Node0&#45;&gt;Node2</title>
<path fill="none" stroke="#191970" d="M197.0903,-96.4247C205.5929,-95.6421 214.2414,-94.846 222.8561,-94.053"/>
<polygon fill="#191970" stroke="#191970" points="223.3057,-97.5265 232.9428,-93.1245 222.664,-90.556 223.3057,-97.5265"/>
</g>
<!-- Node2&#45;&gt;Node1 -->
<g id="edge3" class="edge">
<title>Node2&#45;&gt;Node1</title>
<path fill="none" stroke="#191970" d="M442.1797,-88.9864C530.6776,-93.6246 655.521,-100.1678 735.74,-104.3721"/>
<polygon fill="#191970" stroke="#191970" points="735.6121,-107.8701 745.7816,-104.8984 735.9786,-100.8797 735.6121,-107.8701"/>
</g>
<!-- Node3 -->
<g id="node4" class="node">
<title>Node3</title>
<g id="a_node4"><a xlink:href="class_chimera_t_k_1_1_numeric_addressed_register_info.html#a5ef157d98d5fae487a1cd08f720778b7" target="_top" xlink:title="Constructor to set all data members for scalar/1D registers. ">
<polygon fill="#ffffff" stroke="#000000" points="478,-49.5 478,-79.5 710,-79.5 710,-49.5 478,-49.5"/>
<text text-anchor="start" x="486" y="-67.5" font-family="Helvetica,sans-Serif" font-size="10.00" fill="#000000">ChimeraTK::NumericAddressed</text>
<text text-anchor="middle" x="594" y="-56.5" font-family="Helvetica,sans-Serif" font-size="10.00" fill="#000000">RegisterInfo::NumericAddressedRegisterInfo</text>
</a>
</g>
</g>
<!-- Node2&#45;&gt;Node3 -->
<g id="edge4" class="edge">
<title>Node2&#45;&gt;Node3</title>
<path fill="none" stroke="#191970" d="M442.1983,-75.7446C450.6614,-75.1177 459.2661,-74.4803 467.8582,-73.8438"/>
<polygon fill="#191970" stroke="#191970" points="468.2155,-77.3271 477.9296,-73.0978 467.6983,-70.3462 468.2155,-77.3271"/>
</g>
<!-- Node4 -->
<g id="node5" class="node">
<title>Node4</title>
<g id="a_node5"><a xlink:href="class_chimera_t_k_1_1_backend_register_catalogue.html#a7cb1215cc24a3ced17d075eec33974e9" target="_top" xlink:title="Note: Override this function if backend has &quot;hidden&quot; registers which are not added to the map and hen...">
<polygon fill="#ffffff" stroke="#000000" points="509,-.5 509,-30.5 679,-30.5 679,-.5 509,-.5"/>
<text text-anchor="start" x="517" y="-18.5" font-family="Helvetica,sans-Serif" font-size="10.00" fill="#000000">ChimeraTK::BackendRegister</text>
<text text-anchor="middle" x="594" y="-7.5" font-family="Helvetica,sans-Serif" font-size="10.00" fill="#000000">Catalogue::getBackendRegister</text>
</a>
</g>
</g>
<!-- Node2&#45;&gt;Node4 -->
<g id="edge6" class="edge">
<title>Node2&#45;&gt;Node4</title>
<path fill="none" stroke="#191970" d="M383.097,-68.4733C410.4524,-59.727 446.0308,-48.8211 478,-40.5 488.3034,-37.8182 499.1741,-35.2003 509.9633,-32.7299"/>
<polygon fill="#191970" stroke="#191970" points="510.8451,-36.119 519.8302,-30.505 509.3052,-29.2905 510.8451,-36.119"/>
</g>
<!-- Node3&#45;&gt;Node1 -->
<g id="edge5" class="edge">
<title>Node3&#45;&gt;Node1</title>
<path fill="none" stroke="#191970" d="M669.2669,-79.5192C690.7968,-83.8155 714.3123,-88.5079 736.0291,-92.8414"/>
<polygon fill="#191970" stroke="#191970" points="735.3753,-96.2799 745.8669,-94.8045 736.7452,-89.4152 735.3753,-96.2799"/>
</g>
</g>
</svg>
