<?xml version="1.0" encoding="UTF-8" standalone="no"?>
<!DOCTYPE svg PUBLIC "-//W3C//DTD SVG 1.1//EN"
 "http://www.w3.org/Graphics/SVG/1.1/DTD/svg11.dtd">
<!-- Generated by graphviz version 2.43.0 (0)
 -->
<!-- Title: ChimeraTK::AsyncAccessorManager::subscribe Pages: 1 -->
<svg width="390pt" height="88pt"
 viewBox="0.00 0.00 390.00 88.00" xmlns="http://www.w3.org/2000/svg" xmlns:xlink="http://www.w3.org/1999/xlink">
<g id="graph0" class="graph" transform="scale(1 1) rotate(0) translate(4 84)">
<title>ChimeraTK::AsyncAccessorManager::subscribe</title>
<polygon fill="white" stroke="transparent" points="-4,4 -4,-84 386,-84 386,4 -4,4"/>
<!-- Node1 -->
<g id="node1" class="node">
<title>Node1</title>
<g id="a_node1"><a xlink:title="Request a new subscription.">
<polygon fill="#bfbfbf" stroke="black" points="0,-24.5 0,-54.5 149,-54.5 149,-24.5 0,-24.5"/>
<text text-anchor="start" x="8" y="-42.5" font-family="Helvetica,sans-Serif" font-size="10.00">ChimeraTK::AsyncAccessor</text>
<text text-anchor="middle" x="74.5" y="-31.5" font-family="Helvetica,sans-Serif" font-size="10.00">Manager::subscribe</text>
</a>
</g>
</g>
<!-- Node2 -->
<g id="node2" class="node">
<title>Node2</title>
<g id="a_node2"><a xlink:href="class_chimera_t_k_1_1_async_accessor_manager.html#afd989f47c1bfc3df60fd4326822047c8" target="_top" xlink:title="this virtual function lets derived classes react on subscribe / unsubscribe">
<polygon fill="white" stroke="black" points="185,-49.5 185,-79.5 382,-79.5 382,-49.5 185,-49.5"/>
<text text-anchor="start" x="193" y="-67.5" font-family="Helvetica,sans-Serif" font-size="10.00">ChimeraTK::AsyncAccessor</text>
<text text-anchor="middle" x="283.5" y="-56.5" font-family="Helvetica,sans-Serif" font-size="10.00">Manager::asyncVariableMapChanged</text>
</a>
</g>
</g>
<!-- Node1&#45;&gt;Node2 -->
<g id="edge1" class="edge">
<title>Node1&#45;&gt;Node2</title>
<path fill="none" stroke="midnightblue" d="M149.06,-48.38C157.42,-49.39 166.05,-50.44 174.73,-51.48"/>
<polygon fill="midnightblue" stroke="midnightblue" points="174.57,-54.99 184.92,-52.71 175.41,-48.04 174.57,-54.99"/>
</g>
<!-- Node3 -->
<g id="node3" class="node">
<title>Node3</title>
<g id="a_node3"><a xlink:href="struct_chimera_t_k_1_1_async_variable.html#af82be53a998e59c763f462831fa370d5" target="_top" xlink:title="Fill the send buffer with data and version number.">
<polygon fill="white" stroke="black" points="210.5,-0.5 210.5,-30.5 356.5,-30.5 356.5,-0.5 210.5,-0.5"/>
<text text-anchor="start" x="218.5" y="-18.5" font-family="Helvetica,sans-Serif" font-size="10.00">ChimeraTK::AsyncVariable</text>
<text text-anchor="middle" x="283.5" y="-7.5" font-family="Helvetica,sans-Serif" font-size="10.00">::fillSendBuffer</text>
</a>
</g>
</g>
<!-- Node1&#45;&gt;Node3 -->
<g id="edge2" class="edge">
<title>Node1&#45;&gt;Node3</title>
<path fill="none" stroke="midnightblue" d="M149.06,-30.97C165.52,-29.06 183.08,-27.03 199.88,-25.08"/>
<polygon fill="midnightblue" stroke="midnightblue" points="200.69,-28.51 210.22,-23.88 199.88,-21.56 200.69,-28.51"/>
</g>
</g>
</svg>
