<?xml version="1.0" encoding="UTF-8" standalone="no"?>
<!DOCTYPE svg PUBLIC "-//W3C//DTD SVG 1.1//EN"
 "http://www.w3.org/Graphics/SVG/1.1/DTD/svg11.dtd">
<!-- Generated by graphviz version 2.40.1 (20161225.0304)
 -->
<!-- Title: ChimeraTK::BackendFactory::registerBackendType Pages: 1 -->
<svg width="589pt" height="674pt"
 viewBox="0.00 0.00 589.00 673.50" xmlns="http://www.w3.org/2000/svg" xmlns:xlink="http://www.w3.org/1999/xlink">
<g id="graph0" class="graph" transform="scale(1 1) rotate(0) translate(4 669.5)">
<title>ChimeraTK::BackendFactory::registerBackendType</title>
<polygon fill="#ffffff" stroke="transparent" points="-4,4 -4,-669.5 585,-669.5 585,4 -4,4"/>
<!-- Node165 -->
<g id="node1" class="node">
<title>Node165</title>
<polygon fill="#bfbfbf" stroke="#000000" points="0,-329 0,-359 154,-359 154,-329 0,-329"/>
<text text-anchor="start" x="8" y="-347" font-family="Helvetica,sans-Serif" font-size="10.00" fill="#000000">ChimeraTK::BackendFactory</text>
<text text-anchor="middle" x="77" y="-336" font-family="Helvetica,sans-Serif" font-size="10.00" fill="#000000">::registerBackendType</text>
</g>
<!-- Node166 -->
<g id="node2" class="node">
<title>Node166</title>
<g id="a_node2"><a xlink:href="class_chimera_t_k_1_1_exception_dummy_1_1_backend_registerer.html#a976225cf2e58e87d10b277e52fd32a03" target="_top" xlink:title="ChimeraTK::ExceptionDummy\l::BackendRegisterer::BackendRegisterer">
<polygon fill="#ffffff" stroke="#000000" points="190,-635 190,-665 402,-665 402,-635 190,-635"/>
<text text-anchor="start" x="198" y="-653" font-family="Helvetica,sans-Serif" font-size="10.00" fill="#000000">ChimeraTK::ExceptionDummy</text>
<text text-anchor="middle" x="296" y="-642" font-family="Helvetica,sans-Serif" font-size="10.00" fill="#000000">::BackendRegisterer::BackendRegisterer</text>
</a>
</g>
</g>
<!-- Node165&#45;&gt;Node166 -->
<g id="edge1" class="edge">
<title>Node165&#45;&gt;Node166</title>
<path fill="none" stroke="#191970" d="M79.4873,-369.262C86.3291,-424.5376 110.5622,-556.7163 190,-625 194.5166,-628.8824 199.5266,-632.1879 204.8402,-634.9997"/>
<polygon fill="#191970" stroke="#191970" points="82.9584,-368.809 78.3396,-359.2739 76.0041,-369.6081 82.9584,-368.809"/>
</g>
<!-- Node167 -->
<g id="node3" class="node">
<title>Node167</title>
<g id="a_node3"><a xlink:href="class_chimera_t_k_1_1_backend_factory.html#ad822950d59282d538922d5ac05edd94f" target="_top" xlink:title="Returns the _DMapFilePath. ">
<polygon fill="#ffffff" stroke="#000000" points="219,-586 219,-616 373,-616 373,-586 219,-586"/>
<text text-anchor="start" x="227" y="-604" font-family="Helvetica,sans-Serif" font-size="10.00" fill="#000000">ChimeraTK::BackendFactory</text>
<text text-anchor="middle" x="296" y="-593" font-family="Helvetica,sans-Serif" font-size="10.00" fill="#000000">::getDMapFilePath</text>
</a>
</g>
</g>
<!-- Node165&#45;&gt;Node167 -->
<g id="edge2" class="edge">
<title>Node165&#45;&gt;Node167</title>
<path fill="none" stroke="#191970" d="M81.8316,-369.144C92.4211,-417.1507 122.341,-521.8905 190,-576 198.4906,-582.7903 208.5147,-587.7915 218.9551,-591.4647"/>
<polygon fill="#191970" stroke="#191970" points="85.2382,-368.3358 79.7526,-359.2717 78.3885,-369.7783 85.2382,-368.3358"/>
</g>
<!-- Node170 -->
<g id="node6" class="node">
<title>Node170</title>
<g id="a_node6"><a xlink:href="struct_custom_backend_1_1_backend_registerer.html#a31bb7bc390448fa5fdfc3e589c078b22" target="_top" xlink:title="CustomBackend::BackendRegisterer\l::BackendRegisterer">
<polygon fill="#ffffff" stroke="#000000" points="199,-537 199,-567 393,-567 393,-537 199,-537"/>
<text text-anchor="start" x="207" y="-555" font-family="Helvetica,sans-Serif" font-size="10.00" fill="#000000">CustomBackend::BackendRegisterer</text>
<text text-anchor="middle" x="296" y="-544" font-family="Helvetica,sans-Serif" font-size="10.00" fill="#000000">::BackendRegisterer</text>
</a>
</g>
</g>
<!-- Node165&#45;&gt;Node170 -->
<g id="edge5" class="edge">
<title>Node165&#45;&gt;Node170</title>
<path fill="none" stroke="#191970" d="M85.13,-368.5678C99.6025,-408.3323 133.7148,-486.4238 190,-527 195.3682,-530.8699 201.2499,-534.149 207.4043,-536.9264"/>
<polygon fill="#191970" stroke="#191970" points="88.42,-367.373 81.7954,-359.1047 81.8179,-369.6995 88.42,-367.373"/>
</g>
<!-- Node171 -->
<g id="node7" class="node">
<title>Node171</title>
<g id="a_node7"><a xlink:href="class_example_backend_1_1_backend_registerer.html#a5ac41c606b7f546cf96089536636a047" target="_top" xlink:title="ExampleBackend::BackendRegisterer\l::BackendRegisterer">
<polygon fill="#ffffff" stroke="#000000" points="196.5,-488 196.5,-518 395.5,-518 395.5,-488 196.5,-488"/>
<text text-anchor="start" x="204.5" y="-506" font-family="Helvetica,sans-Serif" font-size="10.00" fill="#000000">ExampleBackend::BackendRegisterer</text>
<text text-anchor="middle" x="296" y="-495" font-family="Helvetica,sans-Serif" font-size="10.00" fill="#000000">::BackendRegisterer</text>
</a>
</g>
</g>
<!-- Node165&#45;&gt;Node171 -->
<g id="edge6" class="edge">
<title>Node165&#45;&gt;Node171</title>
<path fill="none" stroke="#191970" d="M90.4673,-367.906C108.894,-398.3385 144.8835,-450.282 190,-478 196.3635,-481.9095 203.2869,-485.2078 210.4459,-487.9903"/>
<polygon fill="#191970" stroke="#191970" points="93.4239,-366.0296 85.3218,-359.2027 87.3982,-369.5921 93.4239,-366.0296"/>
</g>
<!-- Node172 -->
<g id="node8" class="node">
<title>Node172</title>
<g id="a_node8"><a xlink:href="struct_another_working_backend_1_1_backend_registerer.html#aa6a1734aecd0581fc3c8fc2676a9551b" target="_top" xlink:title="AnotherWorkingBackend\l::BackendRegisterer::\lBackendRegisterer">
<polygon fill="#ffffff" stroke="#000000" points="227.5,-427.5 227.5,-468.5 364.5,-468.5 364.5,-427.5 227.5,-427.5"/>
<text text-anchor="start" x="235.5" y="-456.5" font-family="Helvetica,sans-Serif" font-size="10.00" fill="#000000">AnotherWorkingBackend</text>
<text text-anchor="start" x="235.5" y="-445.5" font-family="Helvetica,sans-Serif" font-size="10.00" fill="#000000">::BackendRegisterer::</text>
<text text-anchor="middle" x="296" y="-434.5" font-family="Helvetica,sans-Serif" font-size="10.00" fill="#000000">BackendRegisterer</text>
</a>
</g>
</g>
<!-- Node165&#45;&gt;Node172 -->
<g id="edge7" class="edge">
<title>Node165&#45;&gt;Node172</title>
<path fill="none" stroke="#191970" d="M104.6379,-365.1054C126.747,-381.1658 159.0627,-402.8473 190,-417 201.7692,-422.384 214.7013,-427.084 227.365,-431.0863"/>
<polygon fill="#191970" stroke="#191970" points="106.5273,-362.1501 96.4,-359.0375 102.3759,-367.7862 106.5273,-362.1501"/>
</g>
<!-- Node173 -->
<g id="node9" class="node">
<title>Node173</title>
<g id="a_node9"><a xlink:href="struct_dummy_for_area_handshake_backend_1_1_backend_registerer.html#a6bd63332fea85a457e1d5b21dd5473d6" target="_top" xlink:title="DummyForAreaHandshakeBackend\l::BackendRegisterer::BackendRegisterer">
<polygon fill="#ffffff" stroke="#000000" points="190,-378 190,-408 402,-408 402,-378 190,-378"/>
<text text-anchor="start" x="198" y="-396" font-family="Helvetica,sans-Serif" font-size="10.00" fill="#000000">DummyForAreaHandshakeBackend</text>
<text text-anchor="middle" x="296" y="-385" font-family="Helvetica,sans-Serif" font-size="10.00" fill="#000000">::BackendRegisterer::BackendRegisterer</text>
</a>
</g>
</g>
<!-- Node165&#45;&gt;Node173 -->
<g id="edge8" class="edge">
<title>Node165&#45;&gt;Node173</title>
<path fill="none" stroke="#191970" d="M154.1332,-361.2581C178.5354,-366.718 205.2938,-372.705 228.9315,-377.9938"/>
<polygon fill="#191970" stroke="#191970" points="154.7185,-357.8026 144.1955,-359.0346 153.19,-364.6337 154.7185,-357.8026"/>
</g>
<!-- Node174 -->
<g id="node10" class="node">
<title>Node174</title>
<g id="a_node10"><a xlink:href="struct_working_backend_1_1_backend_registerer.html#ae177e6eb4297f167e35303b9af09de99" target="_top" xlink:title="WorkingBackend::BackendRegisterer\l::BackendRegisterer">
<polygon fill="#ffffff" stroke="#000000" points="198,-329 198,-359 394,-359 394,-329 198,-329"/>
<text text-anchor="start" x="206" y="-347" font-family="Helvetica,sans-Serif" font-size="10.00" fill="#000000">WorkingBackend::BackendRegisterer</text>
<text text-anchor="middle" x="296" y="-336" font-family="Helvetica,sans-Serif" font-size="10.00" fill="#000000">::BackendRegisterer</text>
</a>
</g>
</g>
<!-- Node165&#45;&gt;Node174 -->
<g id="edge9" class="edge">
<title>Node165&#45;&gt;Node174</title>
<path fill="none" stroke="#191970" d="M164.5333,-344C175.4112,-344 186.5907,-344 197.6182,-344"/>
<polygon fill="#191970" stroke="#191970" points="164.2112,-340.5001 154.2112,-344 164.2112,-347.5001 164.2112,-340.5001"/>
</g>
<!-- Node175 -->
<g id="node11" class="node">
<title>Node175</title>
<g id="a_node11"><a xlink:href="struct_wrong_version_backend_1_1_backend_registerer.html#a3c84ed81db1aa1eb689c9b0cd275ec0e" target="_top" xlink:title="WrongVersionBackend\l::BackendRegisterer\l::BackendRegisterer">
<polygon fill="#ffffff" stroke="#000000" points="233.5,-268.5 233.5,-309.5 358.5,-309.5 358.5,-268.5 233.5,-268.5"/>
<text text-anchor="start" x="241.5" y="-297.5" font-family="Helvetica,sans-Serif" font-size="10.00" fill="#000000">WrongVersionBackend</text>
<text text-anchor="start" x="241.5" y="-286.5" font-family="Helvetica,sans-Serif" font-size="10.00" fill="#000000">::BackendRegisterer</text>
<text text-anchor="middle" x="296" y="-275.5" font-family="Helvetica,sans-Serif" font-size="10.00" fill="#000000">::BackendRegisterer</text>
</a>
</g>
</g>
<!-- Node165&#45;&gt;Node175 -->
<g id="edge10" class="edge">
<title>Node165&#45;&gt;Node175</title>
<path fill="none" stroke="#191970" d="M146.8586,-326.4556C174.5685,-319.4965 206.1937,-311.5541 233.1701,-304.7792"/>
<polygon fill="#191970" stroke="#191970" points="145.689,-323.1406 136.8427,-328.971 147.3941,-329.9297 145.689,-323.1406"/>
</g>
<!-- Node176 -->
<g id="node12" class="node">
<title>Node176</title>
<g id="a_node12"><a xlink:href="test_device_8cpp.html#a935ebdda3c7b54344e338ec47b060bfd" target="_top" xlink:title="BOOST_AUTO_TEST_CASE">
<polygon fill="#ffffff" stroke="#000000" points="224.5,-230.5 224.5,-249.5 367.5,-249.5 367.5,-230.5 224.5,-230.5"/>
<text text-anchor="middle" x="296" y="-237.5" font-family="Helvetica,sans-Serif" font-size="10.00" fill="#000000">BOOST_AUTO_TEST_CASE</text>
</a>
</g>
</g>
<!-- Node165&#45;&gt;Node176 -->
<g id="edge11" class="edge">
<title>Node165&#45;&gt;Node176</title>
<path fill="none" stroke="#191970" d="M99.6137,-321.837C121.0667,-302.1483 155.1275,-274.2039 190,-259 200.7113,-254.33 212.5105,-250.8078 224.2281,-248.1513"/>
<polygon fill="#191970" stroke="#191970" points="97.2128,-319.2902 92.3022,-328.6783 101.9955,-324.4016 97.2128,-319.2902"/>
</g>
<!-- Node177 -->
<g id="node13" class="node">
<title>Node177</title>
<g id="a_node13"><a xlink:href="struct_dummy_for_double_buffering_1_1_backend_registerer.html#a648ec017b32cae2993df0da5a7e8a5b5" target="_top" xlink:title="DummyForDoubleBuffering\l::BackendRegisterer::Backend\lRegisterer">
<polygon fill="#ffffff" stroke="#000000" points="215,-170.5 215,-211.5 377,-211.5 377,-170.5 215,-170.5"/>
<text text-anchor="start" x="223" y="-199.5" font-family="Helvetica,sans-Serif" font-size="10.00" fill="#000000">DummyForDoubleBuffering</text>
<text text-anchor="start" x="223" y="-188.5" font-family="Helvetica,sans-Serif" font-size="10.00" fill="#000000">::BackendRegisterer::Backend</text>
<text text-anchor="middle" x="296" y="-177.5" font-family="Helvetica,sans-Serif" font-size="10.00" fill="#000000">Registerer</text>
</a>
</g>
</g>
<!-- Node165&#45;&gt;Node177 -->
<g id="edge12" class="edge">
<title>Node165&#45;&gt;Node177</title>
<path fill="none" stroke="#191970" d="M92.6003,-320.2553C112.1163,-292.409 148.1084,-246.7864 190,-221 197.7365,-216.2378 206.2513,-212.21 214.9893,-208.808"/>
<polygon fill="#191970" stroke="#191970" points="89.6296,-318.3985 86.8563,-328.624 95.4009,-322.3598 89.6296,-318.3985"/>
</g>
<!-- Node178 -->
<g id="node14" class="node">
<title>Node178</title>
<g id="a_node14"><a xlink:href="class_testable_dummy_backend_1_1_backend_registerer.html#ae9f09c49a5a061b967552bb6b540fdb4" target="_top" xlink:title="TestableDummyBackend\l::BackendRegisterer::\lBackendRegisterer">
<polygon fill="#ffffff" stroke="#000000" points="227,-110.5 227,-151.5 365,-151.5 365,-110.5 227,-110.5"/>
<text text-anchor="start" x="235" y="-139.5" font-family="Helvetica,sans-Serif" font-size="10.00" fill="#000000">TestableDummyBackend</text>
<text text-anchor="start" x="235" y="-128.5" font-family="Helvetica,sans-Serif" font-size="10.00" fill="#000000">::BackendRegisterer::</text>
<text text-anchor="middle" x="296" y="-117.5" font-family="Helvetica,sans-Serif" font-size="10.00" fill="#000000">BackendRegisterer</text>
</a>
</g>
</g>
<!-- Node165&#45;&gt;Node178 -->
<g id="edge13" class="edge">
<title>Node165&#45;&gt;Node178</title>
<path fill="none" stroke="#191970" d="M85.4452,-319.4173C100.2726,-279.9604 134.7621,-202.7063 190,-161 200.8371,-152.8176 213.8165,-146.8664 226.9163,-142.538"/>
<polygon fill="#191970" stroke="#191970" points="82.1565,-318.2198 82.0194,-328.8137 88.733,-320.6176 82.1565,-318.2198"/>
</g>
<!-- Node179 -->
<g id="node15" class="node">
<title>Node179</title>
<g id="a_node15"><a xlink:href="class_test_dummy_1_1_backend_registerer.html#a3ddcdbcee40de9541c2311c1edb59499" target="_top" xlink:title="TestDummy::BackendRegisterer\l::BackendRegisterer">
<polygon fill="#ffffff" stroke="#000000" points="210,-61 210,-91 382,-91 382,-61 210,-61"/>
<text text-anchor="start" x="218" y="-79" font-family="Helvetica,sans-Serif" font-size="10.00" fill="#000000">TestDummy::BackendRegisterer</text>
<text text-anchor="middle" x="296" y="-68" font-family="Helvetica,sans-Serif" font-size="10.00" fill="#000000">::BackendRegisterer</text>
</a>
</g>
</g>
<!-- Node165&#45;&gt;Node179 -->
<g id="edge14" class="edge">
<title>Node165&#45;&gt;Node179</title>
<path fill="none" stroke="#191970" d="M81.182,-319.0803C90.8609,-269.5024 119.594,-158.3514 190,-101 195.9371,-96.1637 202.6487,-92.232 209.7411,-89.0396"/>
<polygon fill="#191970" stroke="#191970" points="77.7332,-318.4829 79.3502,-328.9536 84.6157,-319.7599 77.7332,-318.4829"/>
</g>
<!-- Node180 -->
<g id="node16" class="node">
<title>Node180</title>
<g id="a_node16"><a xlink:href="struct_write_counting_backend_1_1_backend_registerer.html#ac9b2a38453841e4993d53772ef024824" target="_top" xlink:title="WriteCountingBackend\l::BackendRegisterer::\lBackendRegisterer">
<polygon fill="#ffffff" stroke="#000000" points="232,-.5 232,-41.5 360,-41.5 360,-.5 232,-.5"/>
<text text-anchor="start" x="240" y="-29.5" font-family="Helvetica,sans-Serif" font-size="10.00" fill="#000000">WriteCountingBackend</text>
<text text-anchor="start" x="240" y="-18.5" font-family="Helvetica,sans-Serif" font-size="10.00" fill="#000000">::BackendRegisterer::</text>
<text text-anchor="middle" x="296" y="-7.5" font-family="Helvetica,sans-Serif" font-size="10.00" fill="#000000">BackendRegisterer</text>
</a>
</g>
</g>
<!-- Node165&#45;&gt;Node180 -->
<g id="edge15" class="edge">
<title>Node165&#45;&gt;Node180</title>
<path fill="none" stroke="#191970" d="M79.2736,-318.7512C85.7408,-262.1886 109.3599,-124.5219 190,-51 201.6599,-40.3693 216.8133,-33.4748 231.9976,-29.0124"/>
<polygon fill="#191970" stroke="#191970" points="75.7673,-318.6269 78.197,-328.9393 82.7286,-319.3625 75.7673,-318.6269"/>
</g>
<!-- Node168 -->
<g id="node4" class="node">
<title>Node168</title>
<g id="a_node4"><a xlink:href="test_device_8cpp.html#ab83892089340958763d777921ead7687" target="_top" xlink:title="BOOST_AUTO_TEST_CASE">
<polygon fill="#ffffff" stroke="#000000" points="438,-613.5 438,-632.5 581,-632.5 581,-613.5 438,-613.5"/>
<text text-anchor="middle" x="509.5" y="-620.5" font-family="Helvetica,sans-Serif" font-size="10.00" fill="#000000">BOOST_AUTO_TEST_CASE</text>
</a>
</g>
</g>
<!-- Node167&#45;&gt;Node168 -->
<g id="edge3" class="edge">
<title>Node167&#45;&gt;Node168</title>
<path fill="none" stroke="#191970" d="M383.0978,-609.975C401.3044,-611.851 420.301,-613.8085 437.8694,-615.6189"/>
<polygon fill="#191970" stroke="#191970" points="383.3845,-606.486 373.0784,-608.9425 382.6669,-613.4492 383.3845,-606.486"/>
</g>
<!-- Node169 -->
<g id="node5" class="node">
<title>Node169</title>
<g id="a_node5"><a xlink:href="class_rebot_test_class.html#ac58d489c5a55ea8f6521c505c9aee6fc" target="_top" xlink:title="RebotTestClass::RebotTest\lClass">
<polygon fill="#ffffff" stroke="#000000" points="438,-564 438,-594 581,-594 581,-564 438,-564"/>
<text text-anchor="start" x="446" y="-582" font-family="Helvetica,sans-Serif" font-size="10.00" fill="#000000">RebotTestClass::RebotTest</text>
<text text-anchor="middle" x="509.5" y="-571" font-family="Helvetica,sans-Serif" font-size="10.00" fill="#000000">Class</text>
</a>
</g>
</g>
<!-- Node167&#45;&gt;Node169 -->
<g id="edge4" class="edge">
<title>Node167&#45;&gt;Node169</title>
<path fill="none" stroke="#191970" d="M383.0978,-592.025C401.3044,-590.149 420.301,-588.1915 437.8694,-586.3811"/>
<polygon fill="#191970" stroke="#191970" points="382.6669,-588.5508 373.0784,-593.0575 383.3845,-595.514 382.6669,-588.5508"/>
</g>
</g>
</svg>
