<?xml version="1.0" encoding="UTF-8" standalone="no"?>
<!DOCTYPE svg PUBLIC "-//W3C//DTD SVG 1.1//EN"
 "http://www.w3.org/Graphics/SVG/1.1/DTD/svg11.dtd">
<!-- Generated by graphviz version 2.43.0 (0)
 -->
<!-- Title: ChimeraTK::ReadAnyGroup::interrupt Pages: 1 -->
<svg width="526pt" height="88pt"
 viewBox="0.00 0.00 526.00 88.00" xmlns="http://www.w3.org/2000/svg" xmlns:xlink="http://www.w3.org/1999/xlink">
<g id="graph0" class="graph" transform="scale(1 1) rotate(0) translate(4 84)">
<title>ChimeraTK::ReadAnyGroup::interrupt</title>
<polygon fill="white" stroke="transparent" points="-4,4 -4,-84 522,-84 522,4 -4,4"/>
<!-- Node1 -->
<g id="node1" class="node">
<title>Node1</title>
<g id="a_node1"><a xlink:title="Convenience function to interrupt any running readAny/waitAny by calling interrupt on one of the push...">
<polygon fill="#bfbfbf" stroke="black" points="369,-24.5 369,-54.5 518,-54.5 518,-24.5 369,-24.5"/>
<text text-anchor="start" x="377" y="-42.5" font-family="Helvetica,sans-Serif" font-size="10.00">ChimeraTK::ReadAnyGroup</text>
<text text-anchor="middle" x="443.5" y="-31.5" font-family="Helvetica,sans-Serif" font-size="10.00">::interrupt</text>
</a>
</g>
</g>
<!-- Node2 -->
<g id="node2" class="node">
<title>Node2</title>
<g id="a_node2"><a xlink:href="class_chimera_t_k_1_1_l_n_m_backend_1_1_math_plugin.html#ab707ce88179ed5aff7b474f5708ff569" target="_top" xlink:title="Hook called when the backend is closed, at the beginning of the close() function when the device is s...">
<polygon fill="white" stroke="black" points="193,-49.5 193,-79.5 333,-79.5 333,-49.5 193,-49.5"/>
<text text-anchor="start" x="201" y="-67.5" font-family="Helvetica,sans-Serif" font-size="10.00">ChimeraTK::LNMBackend</text>
<text text-anchor="middle" x="263" y="-56.5" font-family="Helvetica,sans-Serif" font-size="10.00">::MathPlugin::closeHook</text>
</a>
</g>
</g>
<!-- Node1&#45;&gt;Node2 -->
<g id="edge1" class="edge">
<title>Node1&#45;&gt;Node2</title>
<path fill="none" stroke="midnightblue" d="M358.83,-51.22C350.24,-52.42 341.57,-53.64 333.16,-54.81"/>
<polygon fill="midnightblue" stroke="midnightblue" points="359.45,-54.67 368.87,-49.81 358.48,-47.73 359.45,-54.67"/>
</g>
<!-- Node4 -->
<g id="node4" class="node">
<title>Node4</title>
<g id="a_node4"><a xlink:href="class_chimera_t_k_1_1_l_n_m_backend_1_1_math_plugin.html#a0a99fa66c9020f37c2daefe4cb8ce47a" target="_top" xlink:title="Hook called when the backend is opened, at the end of the open() function after all backend work has ...">
<polygon fill="white" stroke="black" points="193,-0.5 193,-30.5 333,-30.5 333,-0.5 193,-0.5"/>
<text text-anchor="start" x="201" y="-18.5" font-family="Helvetica,sans-Serif" font-size="10.00">ChimeraTK::LNMBackend</text>
<text text-anchor="middle" x="263" y="-7.5" font-family="Helvetica,sans-Serif" font-size="10.00">::MathPlugin::openHook</text>
</a>
</g>
</g>
<!-- Node1&#45;&gt;Node4 -->
<g id="edge3" class="edge">
<title>Node1&#45;&gt;Node4</title>
<path fill="none" stroke="midnightblue" d="M358.83,-28.25C350.24,-27.09 341.57,-25.93 333.16,-24.8"/>
<polygon fill="midnightblue" stroke="midnightblue" points="358.49,-31.74 368.87,-29.6 359.42,-24.8 358.49,-31.74"/>
</g>
<!-- Node3 -->
<g id="node3" class="node">
<title>Node3</title>
<g id="a_node3"><a xlink:href="class_chimera_t_k_1_1_l_n_m_backend_1_1_math_plugin.html#a262a1cfcaeb8694bab48f2781a276219" target="_top" xlink:title="Hook called when an exception is reported to the the backend via setException(), after the backend ha...">
<polygon fill="white" stroke="black" points="0,-49.5 0,-79.5 157,-79.5 157,-49.5 0,-49.5"/>
<text text-anchor="start" x="8" y="-67.5" font-family="Helvetica,sans-Serif" font-size="10.00">ChimeraTK::LNMBackend</text>
<text text-anchor="middle" x="78.5" y="-56.5" font-family="Helvetica,sans-Serif" font-size="10.00">::MathPlugin::exceptionHook</text>
</a>
</g>
</g>
<!-- Node2&#45;&gt;Node3 -->
<g id="edge2" class="edge">
<title>Node2&#45;&gt;Node3</title>
<path fill="none" stroke="midnightblue" d="M182.58,-64.5C174.18,-64.5 165.64,-64.5 157.26,-64.5"/>
<polygon fill="midnightblue" stroke="midnightblue" points="182.74,-68 192.74,-64.5 182.74,-61 182.74,-68"/>
</g>
</g>
</svg>
