<?xml version="1.0" encoding="UTF-8" standalone="no"?>
<!DOCTYPE svg PUBLIC "-//W3C//DTD SVG 1.1//EN"
 "http://www.w3.org/Graphics/SVG/1.1/DTD/svg11.dtd">
<!-- Generated by graphviz version 2.40.1 (20161225.0304)
 -->
<!-- Title: ChimeraTK::SharedDummyBackend::createInstance Pages: 1 -->
<svg width="426pt" height="88pt"
 viewBox="0.00 0.00 426.00 88.00" xmlns="http://www.w3.org/2000/svg" xmlns:xlink="http://www.w3.org/1999/xlink">
<g id="graph0" class="graph" transform="scale(1 1) rotate(0) translate(4 84)">
<title>ChimeraTK::SharedDummyBackend::createInstance</title>
<polygon fill="#ffffff" stroke="transparent" points="-4,4 -4,-84 422,-84 422,4 -4,4"/>
<!-- Node13 -->
<g id="node1" class="node">
<title>Node13</title>
<polygon fill="#bfbfbf" stroke="#000000" points="0,-24.5 0,-54.5 191,-54.5 191,-24.5 0,-24.5"/>
<text text-anchor="start" x="8" y="-42.5" font-family="Helvetica,sans-Serif" font-size="10.00" fill="#000000">ChimeraTK::SharedDummyBackend</text>
<text text-anchor="middle" x="95.5" y="-31.5" font-family="Helvetica,sans-Serif" font-size="10.00" fill="#000000">::createInstance</text>
</g>
<!-- Node14 -->
<g id="node2" class="node">
<title>Node14</title>
<g id="a_node2"><a xlink:href="class_chimera_t_k_1_1_shared_dummy_backend.html#a1a02803a1200e812e775e6e9bfe930f8" target="_top" xlink:title="Return wether a device is working as intended, usually this means it is opened and does not have any ...">
<polygon fill="#ffffff" stroke="#000000" points="227,-49.5 227,-79.5 418,-79.5 418,-49.5 227,-49.5"/>
<text text-anchor="start" x="235" y="-67.5" font-family="Helvetica,sans-Serif" font-size="10.00" fill="#000000">ChimeraTK::SharedDummyBackend</text>
<text text-anchor="middle" x="322.5" y="-56.5" font-family="Helvetica,sans-Serif" font-size="10.00" fill="#000000">::isFunctional</text>
</a>
</g>
</g>
<!-- Node13&#45;&gt;Node14 -->
<g id="edge1" class="edge">
<title>Node13&#45;&gt;Node14</title>
<path fill="none" stroke="#191970" d="M201.1812,-51.1389C209.7936,-52.0874 218.4664,-53.0426 226.9999,-53.9824"/>
<polygon fill="#191970" stroke="#191970" points="201.4336,-47.6456 191.1105,-50.0298 200.6672,-54.6035 201.4336,-47.6456"/>
</g>
<!-- Node15 -->
<g id="node3" class="node">
<title>Node15</title>
<g id="a_node3"><a xlink:href="class_chimera_t_k_1_1_backend_factory.html#ad822950d59282d538922d5ac05edd94f" target="_top" xlink:title="Returns the _DMapFilePath. ">
<polygon fill="#ffffff" stroke="#000000" points="245.5,-.5 245.5,-30.5 399.5,-30.5 399.5,-.5 245.5,-.5"/>
<text text-anchor="start" x="253.5" y="-18.5" font-family="Helvetica,sans-Serif" font-size="10.00" fill="#000000">ChimeraTK::BackendFactory</text>
<text text-anchor="middle" x="322.5" y="-7.5" font-family="Helvetica,sans-Serif" font-size="10.00" fill="#000000">::getDMapFilePath</text>
</a>
</g>
</g>
<!-- Node13&#45;&gt;Node15 -->
<g id="edge2" class="edge">
<title>Node13&#45;&gt;Node15</title>
<path fill="none" stroke="#191970" d="M201.3187,-28.3121C216.1223,-26.747 231.1009,-25.1633 245.241,-23.6683"/>
<polygon fill="#191970" stroke="#191970" points="200.6871,-24.8593 191.1105,-29.3914 201.4231,-31.8205 200.6871,-24.8593"/>
</g>
</g>
</svg>
