<?xml version="1.0" encoding="UTF-8" standalone="no"?>
<!DOCTYPE svg PUBLIC "-//W3C//DTD SVG 1.1//EN"
 "http://www.w3.org/Graphics/SVG/1.1/DTD/svg11.dtd">
<!-- Generated by graphviz version 2.40.1 (20161225.0304)
 -->
<!-- Title: ChimeraTK::proxies::DummyRegisterElement&lt; T &gt; Pages: 1 -->
<svg width="638pt" height="100pt"
 viewBox="0.00 0.00 638.00 99.50" xmlns="http://www.w3.org/2000/svg" xmlns:xlink="http://www.w3.org/1999/xlink">
<g id="graph0" class="graph" transform="scale(1 1) rotate(0) translate(4 95.5)">
<title>ChimeraTK::proxies::DummyRegisterElement&lt; T &gt;</title>
<polygon fill="#ffffff" stroke="transparent" points="-4,4 -4,-95.5 634,-95.5 634,4 -4,4"/>
<!-- Node0 -->
<g id="node1" class="node">
<title>Node0</title>
<polygon fill="#bfbfbf" stroke="#000000" points="0,-33 0,-63 170,-63 170,-33 0,-33"/>
<text text-anchor="start" x="8" y="-51" font-family="Helvetica,sans-Serif" font-size="10.00" fill="#000000">ChimeraTK::proxies</text>
<text text-anchor="middle" x="85" y="-40" font-family="Helvetica,sans-Serif" font-size="10.00" fill="#000000">::DummyRegisterElement&lt; T &gt;</text>
</g>
<!-- Node1 -->
<g id="node2" class="node">
<title>Node1</title>
<g id="a_node2"><a xlink:href="class_chimera_t_k_1_1_dummy_register_accessor.html" target="_top" xlink:title="Register accessor for accessing single word or 1D array registers internally of a DummyBackend implem...">
<polygon fill="#ffffff" stroke="#000000" points="245,-61 245,-91 400,-91 400,-61 245,-61"/>
<text text-anchor="start" x="253" y="-79" font-family="Helvetica,sans-Serif" font-size="10.00" fill="#000000">ChimeraTK::DummyRegister</text>
<text text-anchor="middle" x="322.5" y="-68" font-family="Helvetica,sans-Serif" font-size="10.00" fill="#000000">Accessor&lt; T &gt;</text>
</a>
</g>
</g>
<!-- Node0&#45;&gt;Node1 -->
<g id="edge1" class="edge">
<title>Node0&#45;&gt;Node1</title>
<path fill="none" stroke="#191970" d="M180.1664,-59.2196C201.6064,-61.7473 224.115,-64.4009 244.7426,-66.8328"/>
<polygon fill="#191970" stroke="#191970" points="180.4132,-55.7246 170.0721,-58.0296 179.5935,-62.6764 180.4132,-55.7246"/>
</g>
<!-- Node3 -->
<g id="node4" class="node">
<title>Node3</title>
<g id="a_node4"><a xlink:href="class_chimera_t_k_1_1proxies_1_1_dummy_register_element.html" target="_top" xlink:title="ChimeraTK::proxies\l::DummyRegisterElement\l\&lt; int \&gt;">
<polygon fill="#ffffff" stroke="#000000" points="251.5,-.5 251.5,-41.5 393.5,-41.5 393.5,-.5 251.5,-.5"/>
<text text-anchor="start" x="259.5" y="-29.5" font-family="Helvetica,sans-Serif" font-size="10.00" fill="#000000">ChimeraTK::proxies</text>
<text text-anchor="start" x="259.5" y="-18.5" font-family="Helvetica,sans-Serif" font-size="10.00" fill="#000000">::DummyRegisterElement</text>
<text text-anchor="middle" x="322.5" y="-7.5" font-family="Helvetica,sans-Serif" font-size="10.00" fill="#000000">&lt; int &gt;</text>
</a>
</g>
</g>
<!-- Node0&#45;&gt;Node3 -->
<g id="edge3" class="edge">
<title>Node0&#45;&gt;Node3</title>
<path fill="none" stroke="#ffa500" stroke-dasharray="5,2" d="M180.1584,-37.182C203.9079,-34.4821 228.9691,-31.633 251.3327,-29.0906"/>
<polygon fill="#ffa500" stroke="#ffa500" points="179.6127,-33.7214 170.0721,-38.3286 180.4035,-40.6766 179.6127,-33.7214"/>
<text text-anchor="middle" x="207.5" y="-40" font-family="Helvetica,sans-Serif" font-size="10.00" fill="#000000"> &lt; int &gt;</text>
</g>
<!-- Node2 -->
<g id="node3" class="node">
<title>Node2</title>
<g id="a_node3"><a xlink:href="class_chimera_t_k_1_1_dummy_register_accessor.html" target="_top" xlink:title="ChimeraTK::DummyRegister\lAccessor\&lt; int \&gt;">
<polygon fill="#ffffff" stroke="#000000" points="475,-33 475,-63 630,-63 630,-33 475,-33"/>
<text text-anchor="start" x="483" y="-51" font-family="Helvetica,sans-Serif" font-size="10.00" fill="#000000">ChimeraTK::DummyRegister</text>
<text text-anchor="middle" x="552.5" y="-40" font-family="Helvetica,sans-Serif" font-size="10.00" fill="#000000">Accessor&lt; int &gt;</text>
</a>
</g>
</g>
<!-- Node1&#45;&gt;Node2 -->
<g id="edge2" class="edge">
<title>Node1&#45;&gt;Node2</title>
<path fill="none" stroke="#ffa500" stroke-dasharray="5,2" d="M410.0683,-65.3395C431.3993,-62.7427 454.0676,-59.9831 474.8987,-57.4471"/>
<polygon fill="#ffa500" stroke="#ffa500" points="409.5506,-61.8766 400.0469,-66.5595 410.3966,-68.8253 409.5506,-61.8766"/>
<text text-anchor="middle" x="437.5" y="-66" font-family="Helvetica,sans-Serif" font-size="10.00" fill="#000000"> &lt; int &gt;</text>
</g>
<!-- Node3&#45;&gt;Node2 -->
<g id="edge4" class="edge">
<title>Node3&#45;&gt;Node2</title>
<path fill="none" stroke="#191970" d="M403.8051,-30.5445C426.8955,-33.2551 451.9739,-36.1991 474.8423,-38.8837"/>
<polygon fill="#191970" stroke="#191970" points="404.0382,-27.0479 393.6983,-29.3581 403.222,-34.0002 404.0382,-27.0479"/>
</g>
</g>
</svg>
