<?xml version="1.0" encoding="UTF-8" standalone="no"?>
<!DOCTYPE svg PUBLIC "-//W3C//DTD SVG 1.1//EN"
 "http://www.w3.org/Graphics/SVG/1.1/DTD/svg11.dtd">
<!-- Generated by graphviz version 2.40.1 (20161225.0304)
 -->
<!-- Title: ChimeraTK::NumericAddressedBackend::checkRegister Pages: 1 -->
<!--zoomable 366 -->
<svg id="main" version="1.1" xmlns="http://www.w3.org/2000/svg" xmlns:xlink="http://www.w3.org/1999/xlink" xml:space="preserve" onload="init(evt)">
<style type="text/css"><![CDATA[
.edge:hover path { stroke: red; }
.edge:hover polygon { stroke: red; fill: red; }
]]></style>
<script type="text/javascript"><![CDATA[
var edges = document.getElementsByTagName('g');
if (edges && edges.length) {
  for (var i=0;i<edges.length;i++) {
    if (edges[i].id.substr(0,4)=='edge') {
      edges[i].setAttribute('class','edge');
    }
  }
}
]]></script>
        <defs>
                <circle id="rim" cx="0" cy="0" r="7"/>
                <circle id="rim2" cx="0" cy="0" r="3.5"/>
                <g id="zoomPlus">
                        <use xlink:href="#rim" fill="#404040">
                                <set attributeName="fill" to="#808080" begin="zoomplus.mouseover" end="zoomplus.mouseout"/>
                        </use>
                        <path d="M-4,0h8M0,-4v8" fill="none" stroke="white" stroke-width="1.5" pointer-events="none"/>
                </g>
                <g id="zoomMin">
                        <use xlink:href="#rim" fill="#404040">
                                <set attributeName="fill" to="#808080" begin="zoomminus.mouseover" end="zoomminus.mouseout"/>
                        </use>
                        <path d="M-4,0h8" fill="none" stroke="white" stroke-width="1.5" pointer-events="none"/>
                </g>
                <g id="dirArrow">
                        <path fill="none" stroke="white" stroke-width="1.5" d="M0,-3.0v7 M-2.5,-0.5L0,-3.0L2.5,-0.5"/>
                </g>
               <g id="resetDef">
                       <use xlink:href="#rim2" fill="#404040">
                               <set attributeName="fill" to="#808080" begin="reset.mouseover" end="reset.mouseout"/>
                       </use>
               </g>
        </defs>

<script type="text/javascript">
var viewWidth = 988;
var viewHeight = 366;
var sectionId = 'dynsection-6';
</script>
<script xlink:href="svgpan.js"/>
<svg id="graph" class="graph">
<g id="viewport">
<title>ChimeraTK::NumericAddressedBackend::checkRegister</title>
<polygon fill="#ffffff" stroke="transparent" points="-4,4 -4,-362 984,-362 984,4 -4,4"/>
<!-- Node40 -->
<g id="node1" class="node">
<title>Node40</title>
<polygon fill="#bfbfbf" stroke="#000000" points="0,-155.5 0,-185.5 169,-185.5 169,-155.5 0,-155.5"/>
<text text-anchor="start" x="8" y="-173.5" font-family="Helvetica,sans-Serif" font-size="10.00" fill="#000000">ChimeraTK::NumericAddressed</text>
<text text-anchor="middle" x="84.5" y="-162.5" font-family="Helvetica,sans-Serif" font-size="10.00" fill="#000000">Backend::checkRegister</text>
</g>
<!-- Node41 -->
<g id="node2" class="node">
<title>Node41</title>
<g id="a_node2"><a xlink:href="class_chimera_t_k_1_1_numeric_addressed_backend.html#acaf782d146c52f7e8a7de1193412ef98" target="_top" xlink:title="All backends derrived from NumericAddressedBackend must implement closeImpl() instead of close...">
<polygon fill="#ffffff" stroke="#000000" points="205,-155.5 205,-185.5 374,-185.5 374,-155.5 205,-155.5"/>
<text text-anchor="start" x="213" y="-173.5" font-family="Helvetica,sans-Serif" font-size="10.00" fill="#000000">ChimeraTK::NumericAddressed</text>
<text text-anchor="middle" x="289.5" y="-162.5" font-family="Helvetica,sans-Serif" font-size="10.00" fill="#000000">Backend::closeImpl</text>
</a>
</g>
</g>
<!-- Node40&#45;&gt;Node41 -->
<g id="edge1" class="edge">
<title>Node40&#45;&gt;Node41</title>
<path fill="none" stroke="#191970" d="M179.0854,-170.5C187.6628,-170.5 196.3146,-170.5 204.7986,-170.5"/>
<polygon fill="#191970" stroke="#191970" points="179.0649,-167.0001 169.0649,-170.5 179.0649,-174.0001 179.0649,-167.0001"/>
</g>
<!-- Node42 -->
<g id="node3" class="node">
<title>Node42</title>
<g id="a_node3"><a xlink:href="class_chimera_t_k_1_1_numeric_addressed_backend.html#a96b922f10797d9186f0ce6918bd2da52" target="_top" xlink:title="Deactivates all asynchronous accessors and calls closeImpl(). ">
<polygon fill="#ffffff" stroke="#000000" points="410,-155.5 410,-185.5 579,-185.5 579,-155.5 410,-155.5"/>
<text text-anchor="start" x="418" y="-173.5" font-family="Helvetica,sans-Serif" font-size="10.00" fill="#000000">ChimeraTK::NumericAddressed</text>
<text text-anchor="middle" x="494.5" y="-162.5" font-family="Helvetica,sans-Serif" font-size="10.00" fill="#000000">Backend::close</text>
</a>
</g>
</g>
<!-- Node41&#45;&gt;Node42 -->
<g id="edge2" class="edge">
<title>Node41&#45;&gt;Node42</title>
<path fill="none" stroke="#191970" d="M384.0854,-170.5C392.6628,-170.5 401.3146,-170.5 409.7986,-170.5"/>
<polygon fill="#191970" stroke="#191970" points="384.0649,-167.0001 374.0649,-170.5 384.0649,-174.0001 384.0649,-167.0001"/>
</g>
<!-- Node43 -->
<g id="node4" class="node">
<title>Node43</title>
<g id="a_node4"><a xlink:href="class_chimera_t_k_1_1_numeric_addressed_backend.html#addca12b3b7c60694f6e27b69f44e8afa" target="_top" xlink:title="Determines the supported minimum alignment for any read/write requests. ">
<polygon fill="#ffffff" stroke="#000000" points="615,-327.5 615,-357.5 816,-357.5 816,-327.5 615,-327.5"/>
<text text-anchor="start" x="623" y="-345.5" font-family="Helvetica,sans-Serif" font-size="10.00" fill="#000000">ChimeraTK::NumericAddressed</text>
<text text-anchor="middle" x="715.5" y="-334.5" font-family="Helvetica,sans-Serif" font-size="10.00" fill="#000000">Backend::minimumTransferAlignment</text>
</a>
</g>
</g>
<!-- Node42&#45;&gt;Node43 -->
<g id="edge3" class="edge">
<title>Node42&#45;&gt;Node43</title>
<path fill="none" stroke="#191970" d="M507.501,-194.8994C526.5371,-228.1745 565.2055,-287.2161 615,-318.5 620.4682,-321.9355 626.386,-324.8793 632.5186,-327.4019"/>
<polygon fill="#191970" stroke="#191970" points="510.3783,-192.8733 502.4458,-185.8501 504.2672,-196.2872 510.3783,-192.8733"/>
</g>
<!-- Node44 -->
<g id="node5" class="node">
<title>Node44</title>
<g id="a_node5"><a xlink:href="class_chimera_t_k_1_1_pcie_backend.html#acfe449ed96301bf49f88d3fc63870881" target="_top" xlink:title="ChimeraTK::PcieBackend\l::~PcieBackend">
<polygon fill="#ffffff" stroke="#000000" points="646,-278.5 646,-308.5 785,-308.5 785,-278.5 646,-278.5"/>
<text text-anchor="start" x="654" y="-296.5" font-family="Helvetica,sans-Serif" font-size="10.00" fill="#000000">ChimeraTK::PcieBackend</text>
<text text-anchor="middle" x="715.5" y="-285.5" font-family="Helvetica,sans-Serif" font-size="10.00" fill="#000000">::~PcieBackend</text>
</a>
</g>
</g>
<!-- Node42&#45;&gt;Node44 -->
<g id="edge4" class="edge">
<title>Node42&#45;&gt;Node44</title>
<path fill="none" stroke="#191970" d="M515.5375,-192.966C538.0298,-215.6435 575.787,-250.0188 615,-269.5 624.6391,-274.2888 635.2805,-278.1511 645.9249,-281.2583"/>
<polygon fill="#191970" stroke="#191970" points="518.0015,-190.4795 508.5148,-185.7622 512.9891,-195.3659 518.0015,-190.4795"/>
</g>
<!-- Node45 -->
<g id="node6" class="node">
<title>Node45</title>
<g id="a_node6"><a xlink:href="class_chimera_t_k_1_1_pcie_backend.html#a6c3004620460dd3657f3f583886af017" target="_top" xlink:title="Open the device. ">
<polygon fill="#ffffff" stroke="#000000" points="646,-229.5 646,-259.5 785,-259.5 785,-229.5 646,-229.5"/>
<text text-anchor="start" x="654" y="-247.5" font-family="Helvetica,sans-Serif" font-size="10.00" fill="#000000">ChimeraTK::PcieBackend</text>
<text text-anchor="middle" x="715.5" y="-236.5" font-family="Helvetica,sans-Serif" font-size="10.00" fill="#000000">::open</text>
</a>
</g>
</g>
<!-- Node42&#45;&gt;Node45 -->
<g id="edge5" class="edge">
<title>Node42&#45;&gt;Node45</title>
<path fill="none" stroke="#191970" d="M536.1279,-189.6945C559.0628,-199.7786 588.2327,-211.8114 615,-220.5 624.9814,-223.7399 635.649,-226.7524 646.168,-229.4721"/>
<polygon fill="#191970" stroke="#191970" points="537.2653,-186.3699 526.7057,-185.5075 534.4227,-192.7668 537.2653,-186.3699"/>
</g>
<!-- Node46 -->
<g id="node7" class="node">
<title>Node46</title>
<g id="a_node7"><a xlink:href="class_chimera_t_k_1_1_pcie_backend.html#ac13d557ec3c3a7859117d4454d6d6a22" target="_top" xlink:title="All backends derrived from NumericAddressedBackend must implement closeImpl() instead of close...">
<polygon fill="#ffffff" stroke="#000000" points="646,-180.5 646,-210.5 785,-210.5 785,-180.5 646,-180.5"/>
<text text-anchor="start" x="654" y="-198.5" font-family="Helvetica,sans-Serif" font-size="10.00" fill="#000000">ChimeraTK::PcieBackend</text>
<text text-anchor="middle" x="715.5" y="-187.5" font-family="Helvetica,sans-Serif" font-size="10.00" fill="#000000">::closeImpl</text>
</a>
</g>
</g>
<!-- Node42&#45;&gt;Node46 -->
<g id="edge6" class="edge">
<title>Node42&#45;&gt;Node46</title>
<path fill="none" stroke="#191970" d="M589.4688,-181.2431C608.4429,-183.3895 628.0402,-185.6064 645.9628,-187.6338"/>
<polygon fill="#191970" stroke="#191970" points="589.6424,-177.7405 579.3123,-180.0942 588.8555,-184.6961 589.6424,-177.7405"/>
</g>
<!-- Node47 -->
<g id="node8" class="node">
<title>Node47</title>
<g id="a_node8"><a xlink:href="class_chimera_t_k_1_1_rebot_backend.html#a9196198b1d46c54118e197714b396e62" target="_top" xlink:title="ChimeraTK::RebotBackend\l::heartbeatLoop">
<polygon fill="#ffffff" stroke="#000000" points="642.5,-131.5 642.5,-161.5 788.5,-161.5 788.5,-131.5 642.5,-131.5"/>
<text text-anchor="start" x="650.5" y="-149.5" font-family="Helvetica,sans-Serif" font-size="10.00" fill="#000000">ChimeraTK::RebotBackend</text>
<text text-anchor="middle" x="715.5" y="-138.5" font-family="Helvetica,sans-Serif" font-size="10.00" fill="#000000">::heartbeatLoop</text>
</a>
</g>
</g>
<!-- Node42&#45;&gt;Node47 -->
<g id="edge7" class="edge">
<title>Node42&#45;&gt;Node47</title>
<path fill="none" stroke="#191970" d="M589.6471,-160.1673C607.3286,-158.2471 625.545,-156.2689 642.4376,-154.4344"/>
<polygon fill="#191970" stroke="#191970" points="588.876,-156.7304 579.3123,-161.2896 589.6318,-163.6894 588.876,-156.7304"/>
</g>
<!-- Node48 -->
<g id="node9" class="node">
<title>Node48</title>
<g id="a_node9"><a xlink:href="class_chimera_t_k_1_1_xdma_backend.html#a7e52f16c9e5f6a12aa67fe9575bef7c0" target="_top" xlink:title="Open the device. ">
<polygon fill="#ffffff" stroke="#000000" points="642,-82.5 642,-112.5 789,-112.5 789,-82.5 642,-82.5"/>
<text text-anchor="start" x="650" y="-100.5" font-family="Helvetica,sans-Serif" font-size="10.00" fill="#000000">ChimeraTK::XdmaBackend</text>
<text text-anchor="middle" x="715.5" y="-89.5" font-family="Helvetica,sans-Serif" font-size="10.00" fill="#000000">::open</text>
</a>
</g>
</g>
<!-- Node42&#45;&gt;Node48 -->
<g id="edge8" class="edge">
<title>Node42&#45;&gt;Node48</title>
<path fill="none" stroke="#191970" d="M537.9436,-151.543C560.6366,-142.0642 589.0229,-130.8625 615,-122.5 626.1246,-118.9188 638.079,-115.5445 649.7247,-112.5029"/>
<polygon fill="#191970" stroke="#191970" points="536.4449,-148.3765 528.5901,-155.4866 539.1644,-154.8266 536.4449,-148.3765"/>
</g>
<!-- Node49 -->
<g id="node10" class="node">
<title>Node49</title>
<g id="a_node10"><a xlink:href="test_dummy_backend_8cpp.html#a5b19947a4be08aadf22aa6e883ee7e18" target="_top" xlink:title="BOOST_AUTO_TEST_CASE">
<polygon fill="#ffffff" stroke="#000000" points="644,-44 644,-63 787,-63 787,-44 644,-44"/>
<text text-anchor="middle" x="715.5" y="-51" font-family="Helvetica,sans-Serif" font-size="10.00" fill="#000000">BOOST_AUTO_TEST_CASE</text>
</a>
</g>
</g>
<!-- Node42&#45;&gt;Node49 -->
<g id="edge9" class="edge">
<title>Node42&#45;&gt;Node49</title>
<path fill="none" stroke="#191970" d="M515.4826,-148.2021C537.9304,-125.7511 575.6521,-91.8852 615,-73.5 624.3481,-69.1321 634.6191,-65.7168 644.9149,-63.0467"/>
<polygon fill="#191970" stroke="#191970" points="512.9835,-145.7517 508.4751,-155.3394 517.9785,-150.6558 512.9835,-145.7517"/>
</g>
<!-- Node50 -->
<g id="node11" class="node">
<title>Node50</title>
<g id="a_node11"><a xlink:href="class_rebot_test_class.html#a2f42eddf689508e44589824cc751b09c" target="_top" xlink:title="RebotTestClass::testConnection">
<polygon fill="#ffffff" stroke="#000000" points="630.5,-6 630.5,-25 800.5,-25 800.5,-6 630.5,-6"/>
<text text-anchor="middle" x="715.5" y="-13" font-family="Helvetica,sans-Serif" font-size="10.00" fill="#000000">RebotTestClass::testConnection</text>
</a>
</g>
</g>
<!-- Node42&#45;&gt;Node50 -->
<g id="edge10" class="edge">
<title>Node42&#45;&gt;Node50</title>
<path fill="none" stroke="#191970" d="M508.6694,-146.4049C528.3509,-115.2415 567.0165,-61.7384 615,-34.5 621.7946,-30.6429 629.2225,-27.5505 636.8652,-25.0737"/>
<polygon fill="#191970" stroke="#191970" points="505.4508,-144.9563 503.1816,-155.3053 511.4092,-148.6303 505.4508,-144.9563"/>
</g>
<!-- Node51 -->
<g id="node12" class="node">
<title>Node51</title>
<g id="a_node12"><a xlink:href="class_rebot_device_test_suite.html#a10294b56c7dad4881d25d961e73c7d5a" target="_top" xlink:title="RebotDeviceTestSuite\l::RebotDeviceTestSuite">
<polygon fill="#ffffff" stroke="#000000" points="852,-.5 852,-30.5 980,-30.5 980,-.5 852,-.5"/>
<text text-anchor="start" x="860" y="-18.5" font-family="Helvetica,sans-Serif" font-size="10.00" fill="#000000">RebotDeviceTestSuite</text>
<text text-anchor="middle" x="916" y="-7.5" font-family="Helvetica,sans-Serif" font-size="10.00" fill="#000000">::RebotDeviceTestSuite</text>
</a>
</g>
</g>
<!-- Node50&#45;&gt;Node51 -->
<g id="edge11" class="edge">
<title>Node50&#45;&gt;Node51</title>
<path fill="none" stroke="#191970" d="M810.653,-15.5C824.6086,-15.5 838.6962,-15.5 851.8303,-15.5"/>
<polygon fill="#191970" stroke="#191970" points="810.5301,-12.0001 800.5301,-15.5 810.53,-19.0001 810.5301,-12.0001"/>
</g>
</g>
</svg>
        <g id="navigator" transform="translate(0 0)" fill="#404254">
                <rect fill="#f2f5e9" fill-opacity="0.5" stroke="#606060" stroke-width=".5" x="0" y="0" width="60" height="60"/>
                <use id="zoomplus" xlink:href="#zoomPlus" x="17" y="9" onmousedown="handleZoom(evt,'in')"/>
                <use id="zoomminus" xlink:href="#zoomMin" x="42" y="9" onmousedown="handleZoom(evt,'out')"/>
                <use id="reset" xlink:href="#resetDef" x="30" y="36" onmousedown="handleReset()"/>
                <g id="arrowUp" xlink:href="#dirArrow" transform="translate(30 24)" onmousedown="handlePan(0,-1)">
                  <use xlink:href="#rim" fill="#404040">
                        <set attributeName="fill" to="#808080" begin="arrowUp.mouseover" end="arrowUp.mouseout"/>
                  </use>
                  <path fill="none" stroke="white" stroke-width="1.5" d="M0,-3.0v7 M-2.5,-0.5L0,-3.0L2.5,-0.5"/>
                </g>
                <g id="arrowRight" xlink:href="#dirArrow" transform="rotate(90) translate(36 -43)" onmousedown="handlePan(1,0)">
                  <use xlink:href="#rim" fill="#404040">
                        <set attributeName="fill" to="#808080" begin="arrowRight.mouseover" end="arrowRight.mouseout"/>
                  </use>
                  <path fill="none" stroke="white" stroke-width="1.5" d="M0,-3.0v7 M-2.5,-0.5L0,-3.0L2.5,-0.5"/>
                </g>
                <g id="arrowDown" xlink:href="#dirArrow" transform="rotate(180) translate(-30 -48)" onmousedown="handlePan(0,1)">
                  <use xlink:href="#rim" fill="#404040">
                        <set attributeName="fill" to="#808080" begin="arrowDown.mouseover" end="arrowDown.mouseout"/>
                  </use>
                  <path fill="none" stroke="white" stroke-width="1.5" d="M0,-3.0v7 M-2.5,-0.5L0,-3.0L2.5,-0.5"/>
                </g>
                <g id="arrowLeft" xlink:href="#dirArrow" transform="rotate(270) translate(-36 17)" onmousedown="handlePan(-1,0)">
                  <use xlink:href="#rim" fill="#404040">
                        <set attributeName="fill" to="#808080" begin="arrowLeft.mouseover" end="arrowLeft.mouseout"/>
                  </use>
                  <path fill="none" stroke="white" stroke-width="1.5" d="M0,-3.0v7 M-2.5,-0.5L0,-3.0L2.5,-0.5"/>
                </g>
        </g>
        <svg viewBox="0 0 15 15" width="100%" height="30px" preserveAspectRatio="xMaxYMin meet">
         <g id="arrow_out" transform="scale(0.3 0.3)">
          <a xlink:href="class_chimera_t_k_1_1_numeric_addressed_backend_ad3d2a68b3f4421dfd456bdbd57f31f9b_icgraph_org.svg" target="_base">
           <rect id="button" ry="5" rx="5" y="6" x="6" height="38" width="38"
                fill="#f2f5e9" fill-opacity="0.5" stroke="#606060" stroke-width="1.0"/>
           <path id="arrow"
             d="M 11.500037,31.436501 C 11.940474,20.09759 22.043105,11.32322 32.158766,21.979434 L 37.068811,17.246167 C 37.068811,17.246167 37.088388,32 37.088388,32 L 22.160133,31.978069 C 22.160133,31.978069 26.997745,27.140456 26.997745,27.140456 C 18.528582,18.264221 13.291696,25.230495 11.500037,31.436501 z"
             style="fill:#404040;"/>
          </a>
         </g>
        </svg>
</svg>
