<?xml version="1.0" encoding="UTF-8" standalone="no"?>
<!DOCTYPE svg PUBLIC "-//W3C//DTD SVG 1.1//EN"
 "http://www.w3.org/Graphics/SVG/1.1/DTD/svg11.dtd">
<!-- Generated by graphviz version 2.40.1 (20161225.0304)
 -->
<!-- Title: ChimeraTK::ScalarRegisterAccessor&lt; UserType, TAG &gt; Pages: 1 -->
<!--zoomable 100 -->
<svg id="main" version="1.1" xmlns="http://www.w3.org/2000/svg" xmlns:xlink="http://www.w3.org/1999/xlink" xml:space="preserve" onload="init(evt)">
<style type="text/css"><![CDATA[
.edge:hover path { stroke: red; }
.edge:hover polygon { stroke: red; fill: red; }
]]></style>
<script type="text/javascript"><![CDATA[
var edges = document.getElementsByTagName('g');
if (edges && edges.length) {
  for (var i=0;i<edges.length;i++) {
    if (edges[i].id.substr(0,4)=='edge') {
      edges[i].setAttribute('class','edge');
    }
  }
}
]]></script>
        <defs>
                <circle id="rim" cx="0" cy="0" r="7"/>
                <circle id="rim2" cx="0" cy="0" r="3.5"/>
                <g id="zoomPlus">
                        <use xlink:href="#rim" fill="#404040">
                                <set attributeName="fill" to="#808080" begin="zoomplus.mouseover" end="zoomplus.mouseout"/>
                        </use>
                        <path d="M-4,0h8M0,-4v8" fill="none" stroke="white" stroke-width="1.5" pointer-events="none"/>
                </g>
                <g id="zoomMin">
                        <use xlink:href="#rim" fill="#404040">
                                <set attributeName="fill" to="#808080" begin="zoomminus.mouseover" end="zoomminus.mouseout"/>
                        </use>
                        <path d="M-4,0h8" fill="none" stroke="white" stroke-width="1.5" pointer-events="none"/>
                </g>
                <g id="dirArrow">
                        <path fill="none" stroke="white" stroke-width="1.5" d="M0,-3.0v7 M-2.5,-0.5L0,-3.0L2.5,-0.5"/>
                </g>
               <g id="resetDef">
                       <use xlink:href="#rim2" fill="#404040">
                               <set attributeName="fill" to="#808080" begin="reset.mouseover" end="reset.mouseout"/>
                       </use>
               </g>
        </defs>

<script type="text/javascript">
var viewWidth = 1105;
var viewHeight = 100;
var sectionId = 'dynsection-0';
</script>
<script xlink:href="svgpan.js"/>
<svg id="graph" class="graph">
<g id="viewport">
<title>ChimeraTK::ScalarRegisterAccessor&lt; UserType, TAG &gt;</title>
<polygon fill="#ffffff" stroke="transparent" points="-4,4 -4,-95.5 1101,-95.5 1101,4 -4,4"/>
<!-- Node0 -->
<g id="node1" class="node">
<title>Node0</title>
<polygon fill="#bfbfbf" stroke="#000000" points="405,-33 405,-63 558,-63 558,-33 405,-33"/>
<text text-anchor="start" x="413" y="-51" font-family="Helvetica,sans-Serif" font-size="10.00" fill="#000000">ChimeraTK::ScalarRegister</text>
<text text-anchor="middle" x="481.5" y="-40" font-family="Helvetica,sans-Serif" font-size="10.00" fill="#000000">Accessor&lt; UserType, TAG &gt;</text>
</g>
<!-- Node3 -->
<g id="node4" class="node">
<title>Node3</title>
<g id="a_node4"><a xlink:href="class_chimera_t_k_1_1_scalar_register_accessor.html" target="_top" xlink:title="ChimeraTK::ScalarRegister\lAccessor\&lt; uint32_t \&gt;">
<polygon fill="#ffffff" stroke="#000000" points="726,-61 726,-91 872,-91 872,-61 726,-61"/>
<text text-anchor="start" x="734" y="-79" font-family="Helvetica,sans-Serif" font-size="10.00" fill="#000000">ChimeraTK::ScalarRegister</text>
<text text-anchor="middle" x="799" y="-68" font-family="Helvetica,sans-Serif" font-size="10.00" fill="#000000">Accessor&lt; uint32_t &gt;</text>
</a>
</g>
</g>
<!-- Node0&#45;&gt;Node3 -->
<g id="edge3" class="edge">
<title>Node0&#45;&gt;Node3</title>
<path fill="none" stroke="#ffa500" stroke-dasharray="5,2" d="M568.3898,-55.6627C617.7797,-60.0184 678.9314,-65.4113 725.8508,-69.549"/>
<polygon fill="#ffa500" stroke="#ffa500" points="568.6267,-52.1701 558.3579,-54.778 568.0117,-59.1431 568.6267,-52.1701"/>
<text text-anchor="middle" x="635" y="-70" font-family="Helvetica,sans-Serif" font-size="10.00" fill="#000000"> &lt; uint32_t &gt;</text>
</g>
<!-- Node4 -->
<g id="node5" class="node">
<title>Node4</title>
<g id="a_node5"><a xlink:href="class_chimera_t_k_1_1_scalar_register_accessor.html" target="_top" xlink:title="ChimeraTK::ScalarRegister\lAccessor\&lt; ChimeraTK::Boolean,\l void \&gt;">
<polygon fill="#ffffff" stroke="#000000" points="712,-.5 712,-41.5 886,-41.5 886,-.5 712,-.5"/>
<text text-anchor="start" x="720" y="-29.5" font-family="Helvetica,sans-Serif" font-size="10.00" fill="#000000">ChimeraTK::ScalarRegister</text>
<text text-anchor="start" x="720" y="-18.5" font-family="Helvetica,sans-Serif" font-size="10.00" fill="#000000">Accessor&lt; ChimeraTK::Boolean,</text>
<text text-anchor="middle" x="799" y="-7.5" font-family="Helvetica,sans-Serif" font-size="10.00" fill="#000000"> void &gt;</text>
</a>
</g>
</g>
<!-- Node0&#45;&gt;Node4 -->
<g id="edge4" class="edge">
<title>Node0&#45;&gt;Node4</title>
<path fill="none" stroke="#ffa500" stroke-dasharray="5,2" d="M568.3091,-32.8966C570.899,-32.5761 573.467,-32.2759 576,-32 620.6999,-27.1307 670.6774,-24.4157 711.9717,-22.9024"/>
<polygon fill="#ffa500" stroke="#ffa500" points="567.6956,-29.4471 558.2395,-34.2255 568.6115,-36.3869 567.6956,-29.4471"/>
<text text-anchor="start" x="576" y="-46" font-family="Helvetica,sans-Serif" font-size="10.00" fill="#000000"> &lt; ChimeraTK::Boolean,</text>
<text text-anchor="middle" x="635" y="-35" font-family="Helvetica,sans-Serif" font-size="10.00" fill="#000000"> void &gt;</text>
</g>
<!-- Node1 -->
<g id="node2" class="node">
<title>Node1</title>
<g id="a_node2"><a xlink:href="class_chimera_t_k_1_1_n_d_register_accessor_abstractor.html" target="_top" xlink:title="Base class for the register accessor abstractors (ScalarRegisterAccessor, OneDRegisterAccessor and Tw...">
<polygon fill="#ffffff" stroke="#000000" points="193,-33 193,-63 368,-63 368,-33 193,-33"/>
<text text-anchor="start" x="201" y="-51" font-family="Helvetica,sans-Serif" font-size="10.00" fill="#000000">ChimeraTK::NDRegisterAccessor</text>
<text text-anchor="middle" x="280.5" y="-40" font-family="Helvetica,sans-Serif" font-size="10.00" fill="#000000">Abstractor&lt; UserType &gt;</text>
</a>
</g>
</g>
<!-- Node1&#45;&gt;Node0 -->
<g id="edge1" class="edge">
<title>Node1&#45;&gt;Node0</title>
<path fill="none" stroke="#191970" d="M378.1869,-48C387.1664,-48 396.1758,-48 404.9282,-48"/>
<polygon fill="#191970" stroke="#191970" points="378.0768,-44.5001 368.0768,-48 378.0768,-51.5001 378.0768,-44.5001"/>
</g>
<!-- Node2 -->
<g id="node3" class="node">
<title>Node2</title>
<g id="a_node3"><a xlink:href="class_chimera_t_k_1_1_transfer_element_abstractor.html" target="_top" xlink:title="Base class for register accessors abstractors independent of the UserType. ">
<polygon fill="#ffffff" stroke="#000000" points="0,-33 0,-63 156,-63 156,-33 0,-33"/>
<text text-anchor="start" x="8" y="-51" font-family="Helvetica,sans-Serif" font-size="10.00" fill="#000000">ChimeraTK::TransferElement</text>
<text text-anchor="middle" x="78" y="-40" font-family="Helvetica,sans-Serif" font-size="10.00" fill="#000000">Abstractor</text>
</a>
</g>
</g>
<!-- Node2&#45;&gt;Node1 -->
<g id="edge2" class="edge">
<title>Node2&#45;&gt;Node1</title>
<path fill="none" stroke="#191970" d="M166.2486,-48C175.0429,-48 183.9703,-48 192.7595,-48"/>
<polygon fill="#191970" stroke="#191970" points="166.0022,-44.5001 156.0021,-48 166.0021,-51.5001 166.0022,-44.5001"/>
</g>
<!-- Node5 -->
<g id="node6" class="node">
<title>Node5</title>
<g id="a_node6"><a xlink:href="class_chimera_t_k_1_1_scalar_register_accessor_3_01_chimera_t_k_1_1_boolean_00_01std_1_1nullptr__t_01_4.html" target="_top" xlink:title="Template specialisation for ChimeraTK::Boolean. ">
<polygon fill="#ffffff" stroke="#000000" points="923,-.5 923,-41.5 1097,-41.5 1097,-.5 923,-.5"/>
<text text-anchor="start" x="931" y="-29.5" font-family="Helvetica,sans-Serif" font-size="10.00" fill="#000000">ChimeraTK::ScalarRegister</text>
<text text-anchor="start" x="931" y="-18.5" font-family="Helvetica,sans-Serif" font-size="10.00" fill="#000000">Accessor&lt; ChimeraTK::Boolean,</text>
<text text-anchor="middle" x="1010" y="-7.5" font-family="Helvetica,sans-Serif" font-size="10.00" fill="#000000"> std::nullptr_t &gt;</text>
</a>
</g>
</g>
<!-- Node4&#45;&gt;Node5 -->
<g id="edge5" class="edge">
<title>Node4&#45;&gt;Node5</title>
<path fill="none" stroke="#191970" d="M896.0659,-21C904.9886,-21 913.9923,-21 922.8195,-21"/>
<polygon fill="#191970" stroke="#191970" points="896.04,-17.5001 886.04,-21 896.0399,-24.5001 896.04,-17.5001"/>
</g>
</g>
</svg>
        <g id="navigator" transform="translate(0 0)" fill="#404254">
                <rect fill="#f2f5e9" fill-opacity="0.5" stroke="#606060" stroke-width=".5" x="0" y="0" width="60" height="60"/>
                <use id="zoomplus" xlink:href="#zoomPlus" x="17" y="9" onmousedown="handleZoom(evt,'in')"/>
                <use id="zoomminus" xlink:href="#zoomMin" x="42" y="9" onmousedown="handleZoom(evt,'out')"/>
                <use id="reset" xlink:href="#resetDef" x="30" y="36" onmousedown="handleReset()"/>
                <g id="arrowUp" xlink:href="#dirArrow" transform="translate(30 24)" onmousedown="handlePan(0,-1)">
                  <use xlink:href="#rim" fill="#404040">
                        <set attributeName="fill" to="#808080" begin="arrowUp.mouseover" end="arrowUp.mouseout"/>
                  </use>
                  <path fill="none" stroke="white" stroke-width="1.5" d="M0,-3.0v7 M-2.5,-0.5L0,-3.0L2.5,-0.5"/>
                </g>
                <g id="arrowRight" xlink:href="#dirArrow" transform="rotate(90) translate(36 -43)" onmousedown="handlePan(1,0)">
                  <use xlink:href="#rim" fill="#404040">
                        <set attributeName="fill" to="#808080" begin="arrowRight.mouseover" end="arrowRight.mouseout"/>
                  </use>
                  <path fill="none" stroke="white" stroke-width="1.5" d="M0,-3.0v7 M-2.5,-0.5L0,-3.0L2.5,-0.5"/>
                </g>
                <g id="arrowDown" xlink:href="#dirArrow" transform="rotate(180) translate(-30 -48)" onmousedown="handlePan(0,1)">
                  <use xlink:href="#rim" fill="#404040">
                        <set attributeName="fill" to="#808080" begin="arrowDown.mouseover" end="arrowDown.mouseout"/>
                  </use>
                  <path fill="none" stroke="white" stroke-width="1.5" d="M0,-3.0v7 M-2.5,-0.5L0,-3.0L2.5,-0.5"/>
                </g>
                <g id="arrowLeft" xlink:href="#dirArrow" transform="rotate(270) translate(-36 17)" onmousedown="handlePan(-1,0)">
                  <use xlink:href="#rim" fill="#404040">
                        <set attributeName="fill" to="#808080" begin="arrowLeft.mouseover" end="arrowLeft.mouseout"/>
                  </use>
                  <path fill="none" stroke="white" stroke-width="1.5" d="M0,-3.0v7 M-2.5,-0.5L0,-3.0L2.5,-0.5"/>
                </g>
        </g>
        <svg viewBox="0 0 15 15" width="100%" height="30px" preserveAspectRatio="xMaxYMin meet">
         <g id="arrow_out" transform="scale(0.3 0.3)">
          <a xlink:href="class_chimera_t_k_1_1_scalar_register_accessor__inherit__graph_org.svg" target="_base">
           <rect id="button" ry="5" rx="5" y="6" x="6" height="38" width="38"
                fill="#f2f5e9" fill-opacity="0.5" stroke="#606060" stroke-width="1.0"/>
           <path id="arrow"
             d="M 11.500037,31.436501 C 11.940474,20.09759 22.043105,11.32322 32.158766,21.979434 L 37.068811,17.246167 C 37.068811,17.246167 37.088388,32 37.088388,32 L 22.160133,31.978069 C 22.160133,31.978069 26.997745,27.140456 26.997745,27.140456 C 18.528582,18.264221 13.291696,25.230495 11.500037,31.436501 z"
             style="fill:#404040;"/>
          </a>
         </g>
        </svg>
</svg>
