<?xml version="1.0" encoding="UTF-8" standalone="no"?>
<!DOCTYPE svg PUBLIC "-//W3C//DTD SVG 1.1//EN"
 "http://www.w3.org/Graphics/SVG/1.1/DTD/svg11.dtd">
<!-- Generated by graphviz version 2.40.1 (20161225.0304)
 -->
<!-- Title: ChimeraTK::RebotDummySession::doWrite Pages: 1 -->
<svg width="840pt" height="61pt"
 viewBox="0.00 0.00 840.00 61.00" xmlns="http://www.w3.org/2000/svg" xmlns:xlink="http://www.w3.org/1999/xlink">
<g id="graph0" class="graph" transform="scale(1 1) rotate(0) translate(4 57)">
<title>ChimeraTK::RebotDummySession::doWrite</title>
<polygon fill="#ffffff" stroke="transparent" points="-4,4 -4,-57 836,-57 836,4 -4,4"/>
<!-- Node18 -->
<g id="node1" class="node">
<title>Node18</title>
<polygon fill="#bfbfbf" stroke="#000000" points="0,-.5 0,-30.5 181,-30.5 181,-.5 0,-.5"/>
<text text-anchor="start" x="8" y="-18.5" font-family="Helvetica,sans-Serif" font-size="10.00" fill="#000000">ChimeraTK::RebotDummySession</text>
<text text-anchor="middle" x="90.5" y="-7.5" font-family="Helvetica,sans-Serif" font-size="10.00" fill="#000000">::doWrite</text>
</g>
<!-- Node19 -->
<g id="node2" class="node">
<title>Node19</title>
<g id="a_node2"><a xlink:href="class_chimera_t_k_1_1_rebot_dummy_session.html#a6f553d463448be33ed648aa4d1958fa1" target="_top" xlink:title="ChimeraTK::RebotDummySession\l::processReceivedPackage">
<polygon fill="#ffffff" stroke="#000000" points="217,-22.5 217,-52.5 398,-52.5 398,-22.5 217,-22.5"/>
<text text-anchor="start" x="225" y="-40.5" font-family="Helvetica,sans-Serif" font-size="10.00" fill="#000000">ChimeraTK::RebotDummySession</text>
<text text-anchor="middle" x="307.5" y="-29.5" font-family="Helvetica,sans-Serif" font-size="10.00" fill="#000000">::processReceivedPackage</text>
</a>
</g>
</g>
<!-- Node18&#45;&gt;Node19 -->
<g id="edge1" class="edge">
<title>Node18&#45;&gt;Node19</title>
<path fill="none" stroke="#191970" d="M191.2223,-25.7115C199.7359,-26.5746 208.3137,-27.4442 216.7445,-28.299"/>
<polygon fill="#191970" stroke="#191970" points="191.5723,-22.2291 181.2702,-24.7025 190.8661,-29.1934 191.5723,-22.2291"/>
</g>
<!-- Node20 -->
<g id="node3" class="node">
<title>Node20</title>
<g id="a_node3"><a xlink:href="class_chimera_t_k_1_1_rebot_dummy_session.html#a9f5986355e0b28da3e72243f836c8a68" target="_top" xlink:title="ChimeraTK::RebotDummySession\l::doRead">
<polygon fill="#ffffff" stroke="#000000" points="434,-22.5 434,-52.5 615,-52.5 615,-22.5 434,-22.5"/>
<text text-anchor="start" x="442" y="-40.5" font-family="Helvetica,sans-Serif" font-size="10.00" fill="#000000">ChimeraTK::RebotDummySession</text>
<text text-anchor="middle" x="524.5" y="-29.5" font-family="Helvetica,sans-Serif" font-size="10.00" fill="#000000">::doRead</text>
</a>
</g>
</g>
<!-- Node19&#45;&gt;Node20 -->
<g id="edge2" class="edge">
<title>Node19&#45;&gt;Node20</title>
<path fill="none" stroke="#191970" d="M408.4999,-30.7644C416.9223,-30.7321 425.4053,-30.7542 433.7445,-30.8309"/>
<polygon fill="#191970" stroke="#191970" points="408.2472,-27.2658 398.2702,-30.8307 408.2927,-34.2657 408.2472,-27.2658"/>
</g>
<!-- Node20&#45;&gt;Node18 -->
<g id="edge4" class="edge">
<title>Node20&#45;&gt;Node18</title>
<path fill="none" stroke="#191970" d="M447.814,-20.5682C431.4544,-17.6265 414.2186,-15.0249 398,-13.5 325.3145,-6.6659 242.5387,-7.7038 181.1934,-10.1536"/>
<polygon fill="#191970" stroke="#191970" points="447.3988,-24.0509 457.87,-22.4372 448.678,-17.1688 447.3988,-24.0509"/>
</g>
<!-- Node20&#45;&gt;Node19 -->
<g id="edge5" class="edge">
<title>Node20&#45;&gt;Node19</title>
<path fill="none" stroke="#191970" d="M423.5149,-44.2356C415.0926,-44.2679 406.6096,-44.2458 398.2702,-44.1693"/>
<polygon fill="#191970" stroke="#191970" points="423.7675,-47.7341 433.7445,-44.1691 423.722,-40.7343 423.7675,-47.7341"/>
</g>
<!-- Node21 -->
<g id="node4" class="node">
<title>Node21</title>
<g id="a_node4"><a xlink:href="class_chimera_t_k_1_1_rebot_dummy_session.html#a15c3f858311a2f03fec87fe42f06af5b" target="_top" xlink:title="ChimeraTK::RebotDummySession\l::start">
<polygon fill="#ffffff" stroke="#000000" points="651,-22.5 651,-52.5 832,-52.5 832,-22.5 651,-22.5"/>
<text text-anchor="start" x="659" y="-40.5" font-family="Helvetica,sans-Serif" font-size="10.00" fill="#000000">ChimeraTK::RebotDummySession</text>
<text text-anchor="middle" x="741.5" y="-29.5" font-family="Helvetica,sans-Serif" font-size="10.00" fill="#000000">::start</text>
</a>
</g>
</g>
<!-- Node20&#45;&gt;Node21 -->
<g id="edge3" class="edge">
<title>Node20&#45;&gt;Node21</title>
<path fill="none" stroke="#191970" d="M625.4999,-37.5C633.9223,-37.5 642.4053,-37.5 650.7445,-37.5"/>
<polygon fill="#191970" stroke="#191970" points="625.2702,-34.0001 615.2702,-37.5 625.2702,-41.0001 625.2702,-34.0001"/>
</g>
</g>
</svg>
