<?xml version="1.0" encoding="UTF-8" standalone="no"?>
<!DOCTYPE svg PUBLIC "-//W3C//DTD SVG 1.1//EN"
 "http://www.w3.org/Graphics/SVG/1.1/DTD/svg11.dtd">
<!-- Generated by graphviz version 2.40.1 (20161225.0304)
 -->
<!-- Title: ChimeraTK::Boolean::Boolean Pages: 1 -->
<!--zoomable 215 -->
<svg id="main" version="1.1" xmlns="http://www.w3.org/2000/svg" xmlns:xlink="http://www.w3.org/1999/xlink" xml:space="preserve" onload="init(evt)">
<style type="text/css"><![CDATA[
.edge:hover path { stroke: red; }
.edge:hover polygon { stroke: red; fill: red; }
]]></style>
<script type="text/javascript"><![CDATA[
var edges = document.getElementsByTagName('g');
if (edges && edges.length) {
  for (var i=0;i<edges.length;i++) {
    if (edges[i].id.substr(0,4)=='edge') {
      edges[i].setAttribute('class','edge');
    }
  }
}
]]></script>
        <defs>
                <circle id="rim" cx="0" cy="0" r="7"/>
                <circle id="rim2" cx="0" cy="0" r="3.5"/>
                <g id="zoomPlus">
                        <use xlink:href="#rim" fill="#404040">
                                <set attributeName="fill" to="#808080" begin="zoomplus.mouseover" end="zoomplus.mouseout"/>
                        </use>
                        <path d="M-4,0h8M0,-4v8" fill="none" stroke="white" stroke-width="1.5" pointer-events="none"/>
                </g>
                <g id="zoomMin">
                        <use xlink:href="#rim" fill="#404040">
                                <set attributeName="fill" to="#808080" begin="zoomminus.mouseover" end="zoomminus.mouseout"/>
                        </use>
                        <path d="M-4,0h8" fill="none" stroke="white" stroke-width="1.5" pointer-events="none"/>
                </g>
                <g id="dirArrow">
                        <path fill="none" stroke="white" stroke-width="1.5" d="M0,-3.0v7 M-2.5,-0.5L0,-3.0L2.5,-0.5"/>
                </g>
               <g id="resetDef">
                       <use xlink:href="#rim2" fill="#404040">
                               <set attributeName="fill" to="#808080" begin="reset.mouseover" end="reset.mouseout"/>
                       </use>
               </g>
        </defs>

<script type="text/javascript">
var viewWidth = 524;
var viewHeight = 215;
var sectionId = 'dynsection-0';
</script>
<script xlink:href="svgpan.js"/>
<svg id="graph" class="graph">
<g id="viewport">
<title>ChimeraTK::Boolean::Boolean</title>
<polygon fill="#ffffff" stroke="transparent" points="-4,4 -4,-210.5 520,-210.5 520,4 -4,4"/>
<!-- Node1 -->
<g id="node1" class="node">
<title>Node1</title>
<polygon fill="#bfbfbf" stroke="#000000" points="0,-63 0,-93 116,-93 116,-63 0,-63"/>
<text text-anchor="start" x="8" y="-81" font-family="Helvetica,sans-Serif" font-size="10.00" fill="#000000">ChimeraTK::Boolean</text>
<text text-anchor="middle" x="58" y="-70" font-family="Helvetica,sans-Serif" font-size="10.00" fill="#000000">::Boolean</text>
</g>
<!-- Node2 -->
<g id="node2" class="node">
<title>Node2</title>
<g id="a_node2"><a xlink:href="class_chimera_t_k_1_1_data_type.html#ae258a960f986b3c11232c4b726fbe10e" target="_top" xlink:title="Return whether the raw data type is an integer. ">
<polygon fill="#ffffff" stroke="#000000" points="156.5,-137 156.5,-167 278.5,-167 278.5,-137 156.5,-137"/>
<text text-anchor="start" x="164.5" y="-155" font-family="Helvetica,sans-Serif" font-size="10.00" fill="#000000">ChimeraTK::DataType</text>
<text text-anchor="middle" x="217.5" y="-144" font-family="Helvetica,sans-Serif" font-size="10.00" fill="#000000">::isIntegral</text>
</a>
</g>
</g>
<!-- Node1&#45;&gt;Node2 -->
<g id="edge1" class="edge">
<title>Node1&#45;&gt;Node2</title>
<path fill="none" stroke="#191970" d="M94.3026,-98.1777C111.552,-107.4396 132.5978,-118.2757 152,-127 159.6597,-130.4442 167.9487,-133.848 175.9714,-136.9829"/>
<polygon fill="#191970" stroke="#191970" points="95.6048,-94.9026 85.1448,-93.2175 92.2709,-101.0577 95.6048,-94.9026"/>
</g>
<!-- Node5 -->
<g id="node5" class="node">
<title>Node5</title>
<g id="a_node5"><a xlink:href="class_chimera_t_k_1_1_data_type.html#a40b59072a3ac3f6b49a88d1b63d4983a" target="_top" xlink:title="Construct DataType from std::type_info. ">
<polygon fill="#ffffff" stroke="#000000" points="156.5,-88 156.5,-118 278.5,-118 278.5,-88 156.5,-88"/>
<text text-anchor="start" x="164.5" y="-106" font-family="Helvetica,sans-Serif" font-size="10.00" fill="#000000">ChimeraTK::DataType</text>
<text text-anchor="middle" x="217.5" y="-95" font-family="Helvetica,sans-Serif" font-size="10.00" fill="#000000">::DataType</text>
</a>
</g>
</g>
<!-- Node1&#45;&gt;Node5 -->
<g id="edge4" class="edge">
<title>Node1&#45;&gt;Node5</title>
<path fill="none" stroke="#191970" d="M125.9886,-88.6565C136.0525,-90.2339 146.3719,-91.8514 156.2866,-93.4054"/>
<polygon fill="#191970" stroke="#191970" points="126.4557,-85.1871 116.0344,-87.0963 125.3717,-92.1027 126.4557,-85.1871"/>
</g>
<!-- Node6 -->
<g id="node6" class="node">
<title>Node6</title>
<g id="a_node6"><a xlink:href="class_chimera_t_k_1_1_data_type.html#aeb9ee0f4841febd1266f773e7ffa01dd" target="_top" xlink:title="Return string representation of the data type. ">
<polygon fill="#ffffff" stroke="#000000" points="156.5,-39 156.5,-69 278.5,-69 278.5,-39 156.5,-39"/>
<text text-anchor="start" x="164.5" y="-57" font-family="Helvetica,sans-Serif" font-size="10.00" fill="#000000">ChimeraTK::DataType</text>
<text text-anchor="middle" x="217.5" y="-46" font-family="Helvetica,sans-Serif" font-size="10.00" fill="#000000">::getAsString</text>
</a>
</g>
</g>
<!-- Node1&#45;&gt;Node6 -->
<g id="edge5" class="edge">
<title>Node1&#45;&gt;Node6</title>
<path fill="none" stroke="#191970" d="M125.9886,-67.7697C136.0525,-66.2554 146.3719,-64.7027 156.2866,-63.2108"/>
<polygon fill="#191970" stroke="#191970" points="125.4022,-64.3185 116.0344,-69.2676 126.4439,-71.2406 125.4022,-64.3185"/>
</g>
<!-- Node8 -->
<g id="node8" class="node">
<title>Node8</title>
<g id="a_node8"><a xlink:href="namespace_chimera_t_k.html#a1d994c91e77f9c70310556ae90e136b9" target="_top" xlink:title="Alternate form of callForType() which takes a DataType as a runtime type description. ">
<polygon fill="#ffffff" stroke="#000000" points="152,-.5 152,-19.5 283,-19.5 283,-.5 152,-.5"/>
<text text-anchor="middle" x="217.5" y="-7.5" font-family="Helvetica,sans-Serif" font-size="10.00" fill="#000000">ChimeraTK::callForType</text>
</a>
</g>
</g>
<!-- Node1&#45;&gt;Node8 -->
<g id="edge7" class="edge">
<title>Node1&#45;&gt;Node8</title>
<path fill="none" stroke="#191970" d="M92.8705,-57.7122C110.2525,-48.1494 131.823,-37.0923 152,-29 160.7915,-25.474 170.4848,-22.2963 179.6577,-19.5935"/>
<polygon fill="#191970" stroke="#191970" points="90.7055,-54.9123 83.6801,-62.8429 94.1177,-61.0244 90.7055,-54.9123"/>
</g>
<!-- Node3 -->
<g id="node3" class="node">
<title>Node3</title>
<g id="a_node3"><a xlink:href="class_chimera_t_k_1_1_data_descriptor.html#a2fd9392090a25ba08f3167b290aa56f3" target="_top" xlink:title="Construct from DataType object &#45; the DataDescriptor will then describe the passed DataType (with no r...">
<polygon fill="#ffffff" stroke="#000000" points="342.5,-176 342.5,-206 492.5,-206 492.5,-176 342.5,-176"/>
<text text-anchor="start" x="350.5" y="-194" font-family="Helvetica,sans-Serif" font-size="10.00" fill="#000000">ChimeraTK::DataDescriptor</text>
<text text-anchor="middle" x="417.5" y="-183" font-family="Helvetica,sans-Serif" font-size="10.00" fill="#000000">::DataDescriptor</text>
</a>
</g>
</g>
<!-- Node2&#45;&gt;Node3 -->
<g id="edge2" class="edge">
<title>Node2&#45;&gt;Node3</title>
<path fill="none" stroke="#191970" d="M288.6707,-165.8783C306.0664,-169.2704 324.7348,-172.9108 342.3115,-176.3382"/>
<polygon fill="#191970" stroke="#191970" points="289.0784,-162.3919 278.5933,-163.9132 287.7386,-169.2625 289.0784,-162.3919"/>
</g>
<!-- Node4 -->
<g id="node4" class="node">
<title>Node4</title>
<g id="a_node4"><a xlink:href="class_chimera_t_k_1_1_l_n_m_backend_1_1_type_hint_modifier_plugin.html#a9e620625aae1659cd5b3069722860593" target="_top" xlink:title="Update the register info inside the catalogue if needed. ">
<polygon fill="#ffffff" stroke="#000000" points="347.5,-115.5 347.5,-156.5 487.5,-156.5 487.5,-115.5 347.5,-115.5"/>
<text text-anchor="start" x="355.5" y="-144.5" font-family="Helvetica,sans-Serif" font-size="10.00" fill="#000000">ChimeraTK::LNMBackend</text>
<text text-anchor="start" x="355.5" y="-133.5" font-family="Helvetica,sans-Serif" font-size="10.00" fill="#000000">::TypeHintModifierPlugin</text>
<text text-anchor="middle" x="417.5" y="-122.5" font-family="Helvetica,sans-Serif" font-size="10.00" fill="#000000">::updateRegisterInfo</text>
</a>
</g>
</g>
<!-- Node2&#45;&gt;Node4 -->
<g id="edge3" class="edge">
<title>Node2&#45;&gt;Node4</title>
<path fill="none" stroke="#191970" d="M288.7,-146.304C307.7523,-144.7798 328.3293,-143.1337 347.3258,-141.6139"/>
<polygon fill="#191970" stroke="#191970" points="288.2823,-142.8261 278.5933,-147.1125 288.8406,-149.8038 288.2823,-142.8261"/>
</g>
<!-- Node7 -->
<g id="node7" class="node">
<title>Node7</title>
<g id="a_node7"><a xlink:href="class_chimera_t_k_1_1_numeric_addressed_backend_register_accessor.html#a1b8adbec76eb57a790ef011ebadb86a7" target="_top" xlink:title="ChimeraTK::NumericAddressed\lBackendRegisterAccessor\l::NumericAddressedBackendRegister\lAccessor">
<polygon fill="#ffffff" stroke="#000000" points="319,-28 319,-80 516,-80 516,-28 319,-28"/>
<text text-anchor="start" x="327" y="-68" font-family="Helvetica,sans-Serif" font-size="10.00" fill="#000000">ChimeraTK::NumericAddressed</text>
<text text-anchor="start" x="327" y="-57" font-family="Helvetica,sans-Serif" font-size="10.00" fill="#000000">BackendRegisterAccessor</text>
<text text-anchor="start" x="327" y="-46" font-family="Helvetica,sans-Serif" font-size="10.00" fill="#000000">::NumericAddressedBackendRegister</text>
<text text-anchor="middle" x="417.5" y="-35" font-family="Helvetica,sans-Serif" font-size="10.00" fill="#000000">Accessor</text>
</a>
</g>
</g>
<!-- Node6&#45;&gt;Node7 -->
<g id="edge6" class="edge">
<title>Node6&#45;&gt;Node7</title>
<path fill="none" stroke="#191970" d="M288.6373,-54C298.4327,-54 308.6323,-54 318.8137,-54"/>
<polygon fill="#191970" stroke="#191970" points="288.5934,-50.5001 278.5933,-54 288.5933,-57.5001 288.5934,-50.5001"/>
</g>
</g>
</svg>
        <g id="navigator" transform="translate(0 0)" fill="#404254">
                <rect fill="#f2f5e9" fill-opacity="0.5" stroke="#606060" stroke-width=".5" x="0" y="0" width="60" height="60"/>
                <use id="zoomplus" xlink:href="#zoomPlus" x="17" y="9" onmousedown="handleZoom(evt,'in')"/>
                <use id="zoomminus" xlink:href="#zoomMin" x="42" y="9" onmousedown="handleZoom(evt,'out')"/>
                <use id="reset" xlink:href="#resetDef" x="30" y="36" onmousedown="handleReset()"/>
                <g id="arrowUp" xlink:href="#dirArrow" transform="translate(30 24)" onmousedown="handlePan(0,-1)">
                  <use xlink:href="#rim" fill="#404040">
                        <set attributeName="fill" to="#808080" begin="arrowUp.mouseover" end="arrowUp.mouseout"/>
                  </use>
                  <path fill="none" stroke="white" stroke-width="1.5" d="M0,-3.0v7 M-2.5,-0.5L0,-3.0L2.5,-0.5"/>
                </g>
                <g id="arrowRight" xlink:href="#dirArrow" transform="rotate(90) translate(36 -43)" onmousedown="handlePan(1,0)">
                  <use xlink:href="#rim" fill="#404040">
                        <set attributeName="fill" to="#808080" begin="arrowRight.mouseover" end="arrowRight.mouseout"/>
                  </use>
                  <path fill="none" stroke="white" stroke-width="1.5" d="M0,-3.0v7 M-2.5,-0.5L0,-3.0L2.5,-0.5"/>
                </g>
                <g id="arrowDown" xlink:href="#dirArrow" transform="rotate(180) translate(-30 -48)" onmousedown="handlePan(0,1)">
                  <use xlink:href="#rim" fill="#404040">
                        <set attributeName="fill" to="#808080" begin="arrowDown.mouseover" end="arrowDown.mouseout"/>
                  </use>
                  <path fill="none" stroke="white" stroke-width="1.5" d="M0,-3.0v7 M-2.5,-0.5L0,-3.0L2.5,-0.5"/>
                </g>
                <g id="arrowLeft" xlink:href="#dirArrow" transform="rotate(270) translate(-36 17)" onmousedown="handlePan(-1,0)">
                  <use xlink:href="#rim" fill="#404040">
                        <set attributeName="fill" to="#808080" begin="arrowLeft.mouseover" end="arrowLeft.mouseout"/>
                  </use>
                  <path fill="none" stroke="white" stroke-width="1.5" d="M0,-3.0v7 M-2.5,-0.5L0,-3.0L2.5,-0.5"/>
                </g>
        </g>
        <svg viewBox="0 0 15 15" width="100%" height="30px" preserveAspectRatio="xMaxYMin meet">
         <g id="arrow_out" transform="scale(0.3 0.3)">
          <a xlink:href="class_chimera_t_k_1_1_boolean_ab0de702d219122542e1a6f7b34f38835_icgraph_org.svg" target="_base">
           <rect id="button" ry="5" rx="5" y="6" x="6" height="38" width="38"
                fill="#f2f5e9" fill-opacity="0.5" stroke="#606060" stroke-width="1.0"/>
           <path id="arrow"
             d="M 11.500037,31.436501 C 11.940474,20.09759 22.043105,11.32322 32.158766,21.979434 L 37.068811,17.246167 C 37.068811,17.246167 37.088388,32 37.088388,32 L 22.160133,31.978069 C 22.160133,31.978069 26.997745,27.140456 26.997745,27.140456 C 18.528582,18.264221 13.291696,25.230495 11.500037,31.436501 z"
             style="fill:#404040;"/>
          </a>
         </g>
        </svg>
</svg>
