<?xml version="1.0" encoding="UTF-8" standalone="no"?>
<!DOCTYPE svg PUBLIC "-//W3C//DTD SVG 1.1//EN"
 "http://www.w3.org/Graphics/SVG/1.1/DTD/svg11.dtd">
<!-- Generated by graphviz version 2.40.1 (20161225.0304)
 -->
<!-- Title: ChimeraTK::Device::getScalarRegisterAccessor Pages: 1 -->
<!--zoomable 203 -->
<svg id="main" version="1.1" xmlns="http://www.w3.org/2000/svg" xmlns:xlink="http://www.w3.org/1999/xlink" xml:space="preserve" onload="init(evt)">
<style type="text/css"><![CDATA[
.edge:hover path { stroke: red; }
.edge:hover polygon { stroke: red; fill: red; }
]]></style>
<script type="text/javascript"><![CDATA[
var edges = document.getElementsByTagName('g');
if (edges && edges.length) {
  for (var i=0;i<edges.length;i++) {
    if (edges[i].id.substr(0,4)=='edge') {
      edges[i].setAttribute('class','edge');
    }
  }
}
]]></script>
        <defs>
                <circle id="rim" cx="0" cy="0" r="7"/>
                <circle id="rim2" cx="0" cy="0" r="3.5"/>
                <g id="zoomPlus">
                        <use xlink:href="#rim" fill="#404040">
                                <set attributeName="fill" to="#808080" begin="zoomplus.mouseover" end="zoomplus.mouseout"/>
                        </use>
                        <path d="M-4,0h8M0,-4v8" fill="none" stroke="white" stroke-width="1.5" pointer-events="none"/>
                </g>
                <g id="zoomMin">
                        <use xlink:href="#rim" fill="#404040">
                                <set attributeName="fill" to="#808080" begin="zoomminus.mouseover" end="zoomminus.mouseout"/>
                        </use>
                        <path d="M-4,0h8" fill="none" stroke="white" stroke-width="1.5" pointer-events="none"/>
                </g>
                <g id="dirArrow">
                        <path fill="none" stroke="white" stroke-width="1.5" d="M0,-3.0v7 M-2.5,-0.5L0,-3.0L2.5,-0.5"/>
                </g>
               <g id="resetDef">
                       <use xlink:href="#rim2" fill="#404040">
                               <set attributeName="fill" to="#808080" begin="reset.mouseover" end="reset.mouseout"/>
                       </use>
               </g>
        </defs>

<script type="text/javascript">
var viewWidth = 537;
var viewHeight = 203;
var sectionId = 'dynsection-19';
</script>
<script xlink:href="svgpan.js"/>
<svg id="graph" class="graph">
<g id="viewport">
<title>ChimeraTK::Device::getScalarRegisterAccessor</title>
<polygon fill="#ffffff" stroke="transparent" points="-4,4 -4,-198.5 533,-198.5 533,4 -4,4"/>
<!-- Node208 -->
<g id="node1" class="node">
<title>Node208</title>
<polygon fill="#bfbfbf" stroke="#000000" points="0,-52 0,-82 146,-82 146,-52 0,-52"/>
<text text-anchor="start" x="8" y="-70" font-family="Helvetica,sans-Serif" font-size="10.00" fill="#000000">ChimeraTK::Device::</text>
<text text-anchor="middle" x="73" y="-59" font-family="Helvetica,sans-Serif" font-size="10.00" fill="#000000">getScalarRegisterAccessor</text>
</g>
<!-- Node209 -->
<g id="node2" class="node">
<title>Node209</title>
<g id="a_node2"><a xlink:href="class_chimera_t_k_1_1_device.html#a488fb42cc1f9f41e08467685310c6785" target="_top" xlink:title="Obtain the backend. ">
<polygon fill="#ffffff" stroke="#000000" points="203,-115 203,-145 319,-145 319,-115 203,-115"/>
<text text-anchor="start" x="211" y="-133" font-family="Helvetica,sans-Serif" font-size="10.00" fill="#000000">ChimeraTK::Device::</text>
<text text-anchor="middle" x="261" y="-122" font-family="Helvetica,sans-Serif" font-size="10.00" fill="#000000">getBackend</text>
</a>
</g>
</g>
<!-- Node208&#45;&gt;Node209 -->
<g id="edge1" class="edge">
<title>Node208&#45;&gt;Node209</title>
<path fill="none" stroke="#191970" d="M127.6938,-85.3283C155.7446,-94.7282 189.4909,-106.0369 216.0113,-114.924"/>
<polygon fill="#191970" stroke="#191970" points="128.6246,-81.9489 118.0307,-82.0901 126.4004,-88.5862 128.6246,-81.9489"/>
</g>
<!-- Node212 -->
<g id="node5" class="node">
<title>Node212</title>
<g id="a_node5"><a xlink:href="test_async_n_d_register_accessor_8cpp.html#af2a71f92d486ca097c6aa61c3fe48f8d" target="_top" xlink:title="BOOST_AUTO_TEST_CASE">
<polygon fill="#ffffff" stroke="#000000" points="381,-76.5 381,-95.5 524,-95.5 524,-76.5 381,-76.5"/>
<text text-anchor="middle" x="452.5" y="-83.5" font-family="Helvetica,sans-Serif" font-size="10.00" fill="#000000">BOOST_AUTO_TEST_CASE</text>
</a>
</g>
</g>
<!-- Node208&#45;&gt;Node212 -->
<g id="edge6" class="edge">
<title>Node208&#45;&gt;Node212</title>
<path fill="none" stroke="#191970" d="M156.3016,-71.1706C223.48,-74.5339 316.9733,-79.2147 380.8402,-82.4123"/>
<polygon fill="#191970" stroke="#191970" points="156.334,-67.6679 146.1714,-70.6634 155.9839,-74.6591 156.334,-67.6679"/>
</g>
<!-- Node213 -->
<g id="node6" class="node">
<title>Node213</title>
<g id="a_node6"><a xlink:href="basic_8cpp.html#ae66f6b31b5ad750f1fe042a706a4e3d4" target="_top" xlink:title="main">
<polygon fill="#ffffff" stroke="#000000" points="240.5,-38.5 240.5,-57.5 281.5,-57.5 281.5,-38.5 240.5,-38.5"/>
<text text-anchor="middle" x="261" y="-45.5" font-family="Helvetica,sans-Serif" font-size="10.00" fill="#000000">main</text>
</a>
</g>
</g>
<!-- Node208&#45;&gt;Node213 -->
<g id="edge5" class="edge">
<title>Node208&#45;&gt;Node213</title>
<path fill="none" stroke="#191970" d="M156.2219,-58.5893C187.2408,-55.4544 219.8462,-52.1592 240.2866,-50.0934"/>
<polygon fill="#191970" stroke="#191970" points="155.8214,-55.1118 146.224,-59.5997 156.5253,-62.0764 155.8214,-55.1118"/>
</g>
<!-- Node214 -->
<g id="node7" class="node">
<title>Node214</title>
<g id="a_node7"><a xlink:href="test_rebot_backend_creation_8cpp.html#a72b0eb8769d21dde9e43a961bff9be2e" target="_top" xlink:title="checkWriteReadFromRegister">
<polygon fill="#ffffff" stroke="#000000" points="182,-.5 182,-19.5 340,-19.5 340,-.5 182,-.5"/>
<text text-anchor="middle" x="261" y="-7.5" font-family="Helvetica,sans-Serif" font-size="10.00" fill="#000000">checkWriteReadFromRegister</text>
</a>
</g>
</g>
<!-- Node208&#45;&gt;Node214 -->
<g id="edge7" class="edge">
<title>Node208&#45;&gt;Node214</title>
<path fill="none" stroke="#191970" d="M122.4829,-48.5819C141.0213,-41.9911 162.3513,-34.7723 182,-29 193.5043,-25.6203 206.0783,-22.3903 217.7434,-19.5832"/>
<polygon fill="#191970" stroke="#191970" points="121.2973,-45.2888 113.0667,-51.9603 123.6612,-51.8776 121.2973,-45.2888"/>
</g>
<!-- Node210 -->
<g id="node3" class="node">
<title>Node210</title>
<g id="a_node3"><a xlink:href="class_chimera_t_k_1_1_unified_backend_test.html#a7e03656318dfd1a1d9c1ae598728fe7e" target="_top" xlink:title="Test interrupt() ">
<polygon fill="#ffffff" stroke="#000000" points="376,-164 376,-194 529,-194 529,-164 376,-164"/>
<text text-anchor="start" x="384" y="-182" font-family="Helvetica,sans-Serif" font-size="10.00" fill="#000000">ChimeraTK::UnifiedBackend</text>
<text text-anchor="middle" x="452.5" y="-171" font-family="Helvetica,sans-Serif" font-size="10.00" fill="#000000">Test::test_B_8_6_6</text>
</a>
</g>
</g>
<!-- Node209&#45;&gt;Node210 -->
<g id="edge2" class="edge">
<title>Node209&#45;&gt;Node210</title>
<path fill="none" stroke="#191970" d="M329.0783,-147.4195C350.1412,-152.809 373.1585,-158.6985 393.5495,-163.9161"/>
<polygon fill="#191970" stroke="#191970" points="329.7918,-143.9894 319.2363,-144.9012 328.0565,-150.7709 329.7918,-143.9894"/>
</g>
<!-- Node211 -->
<g id="node4" class="node">
<title>Node211</title>
<g id="a_node4"><a xlink:href="class_chimera_t_k_1_1_unified_backend_test.html#aaa6938910923e45270349c3cedb73685" target="_top" xlink:title="Test reporting exceptions to exception backend. ">
<polygon fill="#ffffff" stroke="#000000" points="376,-115 376,-145 529,-145 529,-115 376,-115"/>
<text text-anchor="start" x="384" y="-133" font-family="Helvetica,sans-Serif" font-size="10.00" fill="#000000">ChimeraTK::UnifiedBackend</text>
<text text-anchor="middle" x="452.5" y="-122" font-family="Helvetica,sans-Serif" font-size="10.00" fill="#000000">Test::test_B_9_1</text>
</a>
</g>
</g>
<!-- Node209&#45;&gt;Node211 -->
<g id="edge3" class="edge">
<title>Node209&#45;&gt;Node211</title>
<path fill="none" stroke="#191970" d="M329.4606,-130C344.4842,-130 360.4859,-130 375.8088,-130"/>
<polygon fill="#191970" stroke="#191970" points="329.2363,-126.5001 319.2363,-130 329.2363,-133.5001 329.2363,-126.5001"/>
</g>
<!-- Node209&#45;&gt;Node212 -->
<g id="edge4" class="edge">
<title>Node209&#45;&gt;Node212</title>
<path fill="none" stroke="#191970" d="M329.1344,-114.3451C356.4538,-108.0681 387.0531,-101.0374 410.9423,-95.5485"/>
<polygon fill="#191970" stroke="#191970" points="328.1986,-110.9688 319.2363,-116.6193 329.7661,-117.7911 328.1986,-110.9688"/>
</g>
<!-- Node215 -->
<g id="node8" class="node">
<title>Node215</title>
<g id="a_node8"><a xlink:href="test_rebot_backend_creation_8cpp.html#af5e0065971f86f4039f7a9ed991e3add" target="_top" xlink:title="BOOST_AUTO_TEST_CASE">
<polygon fill="#ffffff" stroke="#000000" points="381,-.5 381,-19.5 524,-19.5 524,-.5 381,-.5"/>
<text text-anchor="middle" x="452.5" y="-7.5" font-family="Helvetica,sans-Serif" font-size="10.00" fill="#000000">BOOST_AUTO_TEST_CASE</text>
</a>
</g>
</g>
<!-- Node214&#45;&gt;Node215 -->
<g id="edge8" class="edge">
<title>Node214&#45;&gt;Node215</title>
<path fill="none" stroke="#191970" d="M350.4491,-10C360.675,-10 370.9971,-10 380.9462,-10"/>
<polygon fill="#191970" stroke="#191970" points="350.2728,-6.5001 340.2727,-10 350.2727,-13.5001 350.2728,-6.5001"/>
</g>
</g>
</svg>
        <g id="navigator" transform="translate(0 0)" fill="#404254">
                <rect fill="#f2f5e9" fill-opacity="0.5" stroke="#606060" stroke-width=".5" x="0" y="0" width="60" height="60"/>
                <use id="zoomplus" xlink:href="#zoomPlus" x="17" y="9" onmousedown="handleZoom(evt,'in')"/>
                <use id="zoomminus" xlink:href="#zoomMin" x="42" y="9" onmousedown="handleZoom(evt,'out')"/>
                <use id="reset" xlink:href="#resetDef" x="30" y="36" onmousedown="handleReset()"/>
                <g id="arrowUp" xlink:href="#dirArrow" transform="translate(30 24)" onmousedown="handlePan(0,-1)">
                  <use xlink:href="#rim" fill="#404040">
                        <set attributeName="fill" to="#808080" begin="arrowUp.mouseover" end="arrowUp.mouseout"/>
                  </use>
                  <path fill="none" stroke="white" stroke-width="1.5" d="M0,-3.0v7 M-2.5,-0.5L0,-3.0L2.5,-0.5"/>
                </g>
                <g id="arrowRight" xlink:href="#dirArrow" transform="rotate(90) translate(36 -43)" onmousedown="handlePan(1,0)">
                  <use xlink:href="#rim" fill="#404040">
                        <set attributeName="fill" to="#808080" begin="arrowRight.mouseover" end="arrowRight.mouseout"/>
                  </use>
                  <path fill="none" stroke="white" stroke-width="1.5" d="M0,-3.0v7 M-2.5,-0.5L0,-3.0L2.5,-0.5"/>
                </g>
                <g id="arrowDown" xlink:href="#dirArrow" transform="rotate(180) translate(-30 -48)" onmousedown="handlePan(0,1)">
                  <use xlink:href="#rim" fill="#404040">
                        <set attributeName="fill" to="#808080" begin="arrowDown.mouseover" end="arrowDown.mouseout"/>
                  </use>
                  <path fill="none" stroke="white" stroke-width="1.5" d="M0,-3.0v7 M-2.5,-0.5L0,-3.0L2.5,-0.5"/>
                </g>
                <g id="arrowLeft" xlink:href="#dirArrow" transform="rotate(270) translate(-36 17)" onmousedown="handlePan(-1,0)">
                  <use xlink:href="#rim" fill="#404040">
                        <set attributeName="fill" to="#808080" begin="arrowLeft.mouseover" end="arrowLeft.mouseout"/>
                  </use>
                  <path fill="none" stroke="white" stroke-width="1.5" d="M0,-3.0v7 M-2.5,-0.5L0,-3.0L2.5,-0.5"/>
                </g>
        </g>
        <svg viewBox="0 0 15 15" width="100%" height="30px" preserveAspectRatio="xMaxYMin meet">
         <g id="arrow_out" transform="scale(0.3 0.3)">
          <a xlink:href="class_chimera_t_k_1_1_device_a953db6616908b17380fb1ace248c5a77_icgraph_org.svg" target="_base">
           <rect id="button" ry="5" rx="5" y="6" x="6" height="38" width="38"
                fill="#f2f5e9" fill-opacity="0.5" stroke="#606060" stroke-width="1.0"/>
           <path id="arrow"
             d="M 11.500037,31.436501 C 11.940474,20.09759 22.043105,11.32322 32.158766,21.979434 L 37.068811,17.246167 C 37.068811,17.246167 37.088388,32 37.088388,32 L 22.160133,31.978069 C 22.160133,31.978069 26.997745,27.140456 26.997745,27.140456 C 18.528582,18.264221 13.291696,25.230495 11.500037,31.436501 z"
             style="fill:#404040;"/>
          </a>
         </g>
        </svg>
</svg>
