<?xml version="1.0" encoding="UTF-8" standalone="no"?>
<!DOCTYPE svg PUBLIC "-//W3C//DTD SVG 1.1//EN"
 "http://www.w3.org/Graphics/SVG/1.1/DTD/svg11.dtd">
<!-- Generated by graphviz version 2.40.1 (20161225.0304)
 -->
<!-- Title: ChimeraTK::DummyRegisterAddressChecker Pages: 1 -->
<svg width="742pt" height="365pt"
 viewBox="0.00 0.00 742.00 365.46" xmlns="http://www.w3.org/2000/svg" xmlns:xlink="http://www.w3.org/1999/xlink">
<g id="graph0" class="graph" transform="scale(1 1) rotate(0) translate(4 361.4621)">
<title>ChimeraTK::DummyRegisterAddressChecker</title>
<polygon fill="#ffffff" stroke="transparent" points="-4,4 -4,-361.4621 738,-361.4621 738,4 -4,4"/>
<!-- Node0 -->
<g id="node1" class="node">
<title>Node0</title>
<polygon fill="#bfbfbf" stroke="#000000" points="0,-179.5 0,-209.5 155,-209.5 155,-179.5 0,-179.5"/>
<text text-anchor="start" x="8" y="-197.5" font-family="Helvetica,sans-Serif" font-size="10.00" fill="#000000">ChimeraTK::DummyRegister</text>
<text text-anchor="middle" x="77.5" y="-186.5" font-family="Helvetica,sans-Serif" font-size="10.00" fill="#000000">AddressChecker</text>
</g>
<!-- Node1 -->
<g id="node2" class="node">
<title>Node1</title>
<g id="a_node2"><a xlink:href="class_chimera_t_k_1_1_dummy_multiplexed_register_accessor.html" target="_top" xlink:title="Register accessor for accessing multiplexed 2D array registers internally of a DummyBackend implement...">
<polygon fill="#ffffff" stroke="#000000" points="192,-277.5 192,-307.5 365,-307.5 365,-277.5 192,-277.5"/>
<text text-anchor="start" x="200" y="-295.5" font-family="Helvetica,sans-Serif" font-size="10.00" fill="#000000">ChimeraTK::DummyMultiplexed</text>
<text text-anchor="middle" x="278.5" y="-284.5" font-family="Helvetica,sans-Serif" font-size="10.00" fill="#000000">RegisterAccessor&lt; T &gt;</text>
</a>
</g>
</g>
<!-- Node0&#45;&gt;Node1 -->
<g id="edge1" class="edge">
<title>Node0&#45;&gt;Node1</title>
<path fill="none" stroke="#191970" d="M102.8857,-216.2533C121.3055,-231.0844 147.3862,-250.1933 173,-262.5 185.3579,-268.4376 199.1097,-273.4084 212.4938,-277.4865"/>
<polygon fill="#191970" stroke="#191970" points="104.9429,-213.414 94.9908,-209.7799 100.5045,-218.827 104.9429,-213.414"/>
</g>
<!-- Node2 -->
<g id="node3" class="node">
<title>Node2</title>
<g id="a_node3"><a xlink:href="class_chimera_t_k_1_1_dummy_multiplexed_register_accessor.html" target="_top" xlink:title="ChimeraTK::DummyMultiplexed\lRegisterAccessor\&lt; int \&gt;">
<polygon fill="#ffffff" stroke="#000000" points="540,-313.5 540,-343.5 713,-343.5 713,-313.5 540,-313.5"/>
<text text-anchor="start" x="548" y="-331.5" font-family="Helvetica,sans-Serif" font-size="10.00" fill="#000000">ChimeraTK::DummyMultiplexed</text>
<text text-anchor="middle" x="626.5" y="-320.5" font-family="Helvetica,sans-Serif" font-size="10.00" fill="#000000">RegisterAccessor&lt; int &gt;</text>
</a>
</g>
</g>
<!-- Node0&#45;&gt;Node2 -->
<g id="edge9" class="edge">
<title>Node0&#45;&gt;Node2</title>
<path fill="none" stroke="#191970" d="M91.5929,-218.5044C110.3274,-247.8514 146.438,-296.2315 192,-317.5 309.4346,-372.319 464.8663,-358.5332 554.4529,-343.522"/>
<polygon fill="#191970" stroke="#191970" points="94.3779,-216.3545 86.1308,-209.7035 88.4302,-220.0458 94.3779,-216.3545"/>
</g>
<!-- Node3 -->
<g id="node4" class="node">
<title>Node3</title>
<g id="a_node4"><a xlink:href="class_chimera_t_k_1_1_dummy_multiplexed_register_accessor.html" target="_top" xlink:title="ChimeraTK::DummyMultiplexed\lRegisterAccessor\&lt; minimumUserType \&gt;">
<polygon fill="#ffffff" stroke="#000000" points="519,-248.5 519,-278.5 734,-278.5 734,-248.5 519,-248.5"/>
<text text-anchor="start" x="527" y="-266.5" font-family="Helvetica,sans-Serif" font-size="10.00" fill="#000000">ChimeraTK::DummyMultiplexed</text>
<text text-anchor="middle" x="626.5" y="-255.5" font-family="Helvetica,sans-Serif" font-size="10.00" fill="#000000">RegisterAccessor&lt; minimumUserType &gt;</text>
</a>
</g>
</g>
<!-- Node0&#45;&gt;Node3 -->
<g id="edge10" class="edge">
<title>Node0&#45;&gt;Node3</title>
<path fill="none" stroke="#191970" d="M165.2574,-209.3746C167.8661,-209.7617 170.4514,-210.1378 173,-210.5 290.9161,-227.2576 426.6353,-242.6015 518.6414,-252.4186"/>
<polygon fill="#191970" stroke="#191970" points="165.521,-205.8746 155.1089,-207.8337 164.4701,-212.7953 165.521,-205.8746"/>
</g>
<!-- Node4 -->
<g id="node5" class="node">
<title>Node4</title>
<g id="a_node5"><a xlink:href="class_chimera_t_k_1_1_dummy_register_accessor.html" target="_top" xlink:title="Register accessor for accessing single word or 1D array registers internally of a DummyBackend implem...">
<polygon fill="#ffffff" stroke="#000000" points="201,-143.5 201,-173.5 356,-173.5 356,-143.5 201,-143.5"/>
<text text-anchor="start" x="209" y="-161.5" font-family="Helvetica,sans-Serif" font-size="10.00" fill="#000000">ChimeraTK::DummyRegister</text>
<text text-anchor="middle" x="278.5" y="-150.5" font-family="Helvetica,sans-Serif" font-size="10.00" fill="#000000">Accessor&lt; T &gt;</text>
</a>
</g>
</g>
<!-- Node0&#45;&gt;Node4 -->
<g id="edge4" class="edge">
<title>Node0&#45;&gt;Node4</title>
<path fill="none" stroke="#191970" d="M165.1593,-178.7998C177.0882,-176.6633 189.2624,-174.4829 200.9948,-172.3815"/>
<polygon fill="#191970" stroke="#191970" points="164.4381,-175.3732 155.2118,-180.5815 165.6723,-182.2636 164.4381,-175.3732"/>
</g>
<!-- Node5 -->
<g id="node6" class="node">
<title>Node5</title>
<g id="a_node6"><a xlink:href="class_chimera_t_k_1_1_dummy_register_accessor.html" target="_top" xlink:title="ChimeraTK::DummyRegister\lAccessor\&lt; int \&gt;">
<polygon fill="#ffffff" stroke="#000000" points="549,-187.5 549,-217.5 704,-217.5 704,-187.5 549,-187.5"/>
<text text-anchor="start" x="557" y="-205.5" font-family="Helvetica,sans-Serif" font-size="10.00" fill="#000000">ChimeraTK::DummyRegister</text>
<text text-anchor="middle" x="626.5" y="-194.5" font-family="Helvetica,sans-Serif" font-size="10.00" fill="#000000">Accessor&lt; int &gt;</text>
</a>
</g>
</g>
<!-- Node0&#45;&gt;Node5 -->
<g id="edge11" class="edge">
<title>Node0&#45;&gt;Node5</title>
<path fill="none" stroke="#191970" d="M165.3953,-196.4922C226.4409,-197.8106 309.6666,-199.4787 383,-200.5 438.4815,-201.2727 501.0784,-201.7787 548.9109,-202.0885"/>
<polygon fill="#191970" stroke="#191970" points="165.1031,-192.9851 155.0295,-196.2671 164.9511,-199.9835 165.1031,-192.9851"/>
</g>
<!-- Node6 -->
<g id="node7" class="node">
<title>Node6</title>
<g id="a_node7"><a xlink:href="class_chimera_t_k_1_1_dummy_register_accessor.html" target="_top" xlink:title="ChimeraTK::DummyRegister\lAccessor\&lt; minimumUserType \&gt;">
<polygon fill="#ffffff" stroke="#000000" points="539,-68.5 539,-98.5 714,-98.5 714,-68.5 539,-68.5"/>
<text text-anchor="start" x="547" y="-86.5" font-family="Helvetica,sans-Serif" font-size="10.00" fill="#000000">ChimeraTK::DummyRegister</text>
<text text-anchor="middle" x="626.5" y="-75.5" font-family="Helvetica,sans-Serif" font-size="10.00" fill="#000000">Accessor&lt; minimumUserType &gt;</text>
</a>
</g>
</g>
<!-- Node0&#45;&gt;Node6 -->
<g id="edge13" class="edge">
<title>Node0&#45;&gt;Node6</title>
<path fill="none" stroke="#191970" d="M94.5585,-171.1533C114.6192,-145.8591 150.4955,-106.921 192,-90.5 308.6289,-44.3566 457.0223,-55.1934 546.7367,-68.4633"/>
<polygon fill="#191970" stroke="#191970" points="91.72,-169.1026 88.3764,-179.156 97.2596,-173.382 91.72,-169.1026"/>
</g>
<!-- Node7 -->
<g id="node8" class="node">
<title>Node7</title>
<g id="a_node8"><a xlink:href="class_chimera_t_k_1_1_dummy_register_accessor.html" target="_top" xlink:title="ChimeraTK::DummyRegister\lAccessor\&lt; int32_t \&gt;">
<polygon fill="#ffffff" stroke="#000000" points="549,-131.5 549,-161.5 704,-161.5 704,-131.5 549,-131.5"/>
<text text-anchor="start" x="557" y="-149.5" font-family="Helvetica,sans-Serif" font-size="10.00" fill="#000000">ChimeraTK::DummyRegister</text>
<text text-anchor="middle" x="626.5" y="-138.5" font-family="Helvetica,sans-Serif" font-size="10.00" fill="#000000">Accessor&lt; int32_t &gt;</text>
</a>
</g>
</g>
<!-- Node0&#45;&gt;Node7 -->
<g id="edge12" class="edge">
<title>Node0&#45;&gt;Node7</title>
<path fill="none" stroke="#191970" d="M109.286,-174.1044C131.579,-160.7541 162.5474,-144.0684 192,-134.5 323.1486,-91.8932 364.7417,-85.3107 501,-106.5 531.6183,-111.2614 564.9837,-122.1886 589.6103,-131.4206"/>
<polygon fill="#191970" stroke="#191970" points="107.3082,-171.2109 100.5922,-179.4052 110.9524,-177.1876 107.3082,-171.2109"/>
</g>
<!-- Node8 -->
<g id="node9" class="node">
<title>Node8</title>
<g id="a_node9"><a xlink:href="class_chimera_t_k_1_1_dummy_register_raw_accessor.html" target="_top" xlink:title="Accessor for raw 32 bit integer access to the underlying memory space. ">
<polygon fill="#ffffff" stroke="#000000" points="201,-.5 201,-30.5 356,-30.5 356,-.5 201,-.5"/>
<text text-anchor="start" x="209" y="-18.5" font-family="Helvetica,sans-Serif" font-size="10.00" fill="#000000">ChimeraTK::DummyRegister</text>
<text text-anchor="middle" x="278.5" y="-7.5" font-family="Helvetica,sans-Serif" font-size="10.00" fill="#000000">RawAccessor</text>
</a>
</g>
</g>
<!-- Node0&#45;&gt;Node8 -->
<g id="edge8" class="edge">
<title>Node0&#45;&gt;Node8</title>
<path fill="none" stroke="#191970" d="M86.7638,-169.7964C100.4952,-136.5576 129.4136,-77.8797 173,-45.5 181.3307,-39.3112 190.8959,-34.3979 200.7923,-30.4973"/>
<polygon fill="#191970" stroke="#191970" points="83.4517,-168.653 82.9906,-179.2378 89.9518,-171.2509 83.4517,-168.653"/>
</g>
<!-- Node1&#45;&gt;Node2 -->
<g id="edge2" class="edge">
<title>Node1&#45;&gt;Node2</title>
<path fill="none" stroke="#ffa500" stroke-dasharray="5,2" d="M375.5662,-302.5413C427.0974,-307.8721 489.9009,-314.3691 539.7865,-319.5296"/>
<polygon fill="#ffa500" stroke="#ffa500" points="375.7245,-299.0391 365.4174,-301.4915 375.0041,-306.002 375.7245,-299.0391"/>
<text text-anchor="middle" x="442" y="-317.5" font-family="Helvetica,sans-Serif" font-size="10.00" fill="#000000"> &lt; int &gt;</text>
</g>
<!-- Node1&#45;&gt;Node3 -->
<g id="edge3" class="edge">
<title>Node1&#45;&gt;Node3</title>
<path fill="none" stroke="#ffa500" stroke-dasharray="5,2" d="M375.282,-283.1783C377.8816,-282.9473 380.458,-282.7208 383,-282.5 427.4616,-278.6383 476.5228,-274.7404 518.8861,-271.4888"/>
<polygon fill="#ffa500" stroke="#ffa500" points="374.8105,-279.7065 365.1645,-284.0888 375.4379,-286.6784 374.8105,-279.7065"/>
<text text-anchor="middle" x="442" y="-285.5" font-family="Helvetica,sans-Serif" font-size="10.00" fill="#000000"> &lt; minimumUserType &gt;</text>
</g>
<!-- Node4&#45;&gt;Node5 -->
<g id="edge5" class="edge">
<title>Node4&#45;&gt;Node5</title>
<path fill="none" stroke="#ffa500" stroke-dasharray="5,2" d="M366.106,-169.5766C422.3052,-176.6823 494.6173,-185.8252 548.7722,-192.6723"/>
<polygon fill="#ffa500" stroke="#ffa500" points="366.5249,-166.1018 356.1648,-168.3197 365.6468,-173.0465 366.5249,-166.1018"/>
<text text-anchor="middle" x="442" y="-188.5" font-family="Helvetica,sans-Serif" font-size="10.00" fill="#000000"> &lt; int &gt;</text>
</g>
<!-- Node4&#45;&gt;Node6 -->
<g id="edge6" class="edge">
<title>Node4&#45;&gt;Node6</title>
<path fill="none" stroke="#ffa500" stroke-dasharray="5,2" d="M356.5362,-141.2686C365.4593,-139.3149 374.4261,-137.359 383,-135.5 441.0881,-122.9052 507.0233,-108.8387 555.6185,-98.5148"/>
<polygon fill="#ffa500" stroke="#ffa500" points="355.5221,-137.9077 346.5037,-143.4682 357.0212,-144.7453 355.5221,-137.9077"/>
<text text-anchor="middle" x="442" y="-138.5" font-family="Helvetica,sans-Serif" font-size="10.00" fill="#000000"> &lt; minimumUserType &gt;</text>
</g>
<!-- Node4&#45;&gt;Node7 -->
<g id="edge7" class="edge">
<title>Node4&#45;&gt;Node7</title>
<path fill="none" stroke="#ffa500" stroke-dasharray="5,2" d="M366.4553,-155.4671C422.6046,-153.5309 494.7294,-151.0438 548.7722,-149.1803"/>
<polygon fill="#ffa500" stroke="#ffa500" points="366.0383,-151.9793 356.1648,-155.8219 366.2796,-158.9751 366.0383,-151.9793"/>
<text text-anchor="middle" x="442" y="-157.5" font-family="Helvetica,sans-Serif" font-size="10.00" fill="#000000"> &lt; int32_t &gt;</text>
</g>
</g>
</svg>
