<?xml version="1.0" encoding="UTF-8" standalone="no"?>
<!DOCTYPE svg PUBLIC "-//W3C//DTD SVG 1.1//EN"
 "http://www.w3.org/Graphics/SVG/1.1/DTD/svg11.dtd">
<!-- Generated by graphviz version 2.40.1 (20161225.0304)
 -->
<!-- Title: ChimeraTK::RegisterCatalogue::getMetadata Pages: 1 -->
<svg width="751pt" height="66pt"
 viewBox="0.00 0.00 751.00 66.00" xmlns="http://www.w3.org/2000/svg" xmlns:xlink="http://www.w3.org/1999/xlink">
<g id="graph0" class="graph" transform="scale(1 1) rotate(0) translate(4 62)">
<title>ChimeraTK::RegisterCatalogue::getMetadata</title>
<polygon fill="#ffffff" stroke="transparent" points="-4,4 -4,-62 747,-62 747,4 -4,4"/>
<!-- Node46 -->
<g id="node1" class="node">
<title>Node46</title>
<polygon fill="#bfbfbf" stroke="#000000" points="0,-14 0,-44 166,-44 166,-14 0,-14"/>
<text text-anchor="start" x="8" y="-32" font-family="Helvetica,sans-Serif" font-size="10.00" fill="#000000">ChimeraTK::RegisterCatalogue</text>
<text text-anchor="middle" x="83" y="-21" font-family="Helvetica,sans-Serif" font-size="10.00" fill="#000000">::getMetadata</text>
</g>
<!-- Node47 -->
<g id="node2" class="node">
<title>Node47</title>
<g id="a_node2"><a xlink:href="class_chimera_t_k_1_1_register_info_map.html#a74bd971e761068faf55a036d2150b0a2" target="_top" xlink:title="Returns value of specified metadata. ">
<polygon fill="#ffffff" stroke="#000000" points="202,-14 202,-44 357,-44 357,-14 202,-14"/>
<text text-anchor="start" x="210" y="-32" font-family="Helvetica,sans-Serif" font-size="10.00" fill="#000000">ChimeraTK::RegisterInfoMap</text>
<text text-anchor="middle" x="279.5" y="-21" font-family="Helvetica,sans-Serif" font-size="10.00" fill="#000000">::getMetaData</text>
</a>
</g>
</g>
<!-- Node46&#45;&gt;Node47 -->
<g id="edge1" class="edge">
<title>Node46&#45;&gt;Node47</title>
<path fill="none" stroke="#191970" d="M176.0914,-29C184.6803,-29 193.3218,-29 201.7526,-29"/>
<polygon fill="#191970" stroke="#191970" points="176.0489,-25.5001 166.0489,-29 176.0488,-32.5001 176.0489,-25.5001"/>
</g>
<!-- Node48 -->
<g id="node3" class="node">
<title>Node48</title>
<g id="a_node3"><a xlink:href="class_map_file_test.html#acb42e146867f135e403935ed2eaeba6b" target="_top" xlink:title="MapFileTest::testInsertMetadata">
<polygon fill="#ffffff" stroke="#000000" points="393,-38.5 393,-57.5 564,-57.5 564,-38.5 393,-38.5"/>
<text text-anchor="middle" x="478.5" y="-45.5" font-family="Helvetica,sans-Serif" font-size="10.00" fill="#000000">MapFileTest::testInsertMetadata</text>
</a>
</g>
</g>
<!-- Node47&#45;&gt;Node48 -->
<g id="edge2" class="edge">
<title>Node47&#45;&gt;Node48</title>
<path fill="none" stroke="#191970" d="M367.0402,-37.3581C375.6466,-38.1798 384.3742,-39.0131 392.9602,-39.8329"/>
<polygon fill="#191970" stroke="#191970" points="367.2958,-33.8667 357.0084,-36.4003 366.6305,-40.835 367.2958,-33.8667"/>
</g>
<!-- Node50 -->
<g id="node5" class="node">
<title>Node50</title>
<g id="a_node5"><a xlink:href="class_map_file_test.html#ac76d05f3349b216cc879ce7325b8074a" target="_top" xlink:title="MapFileTest::testGetMetaData">
<polygon fill="#ffffff" stroke="#000000" points="397.5,-.5 397.5,-19.5 559.5,-19.5 559.5,-.5 397.5,-.5"/>
<text text-anchor="middle" x="478.5" y="-7.5" font-family="Helvetica,sans-Serif" font-size="10.00" fill="#000000">MapFileTest::testGetMetaData</text>
</a>
</g>
</g>
<!-- Node47&#45;&gt;Node50 -->
<g id="edge4" class="edge">
<title>Node47&#45;&gt;Node50</title>
<path fill="none" stroke="#191970" d="M366.9987,-20.6459C377.0598,-19.6852 387.2871,-18.7088 397.2608,-17.7565"/>
<polygon fill="#191970" stroke="#191970" points="366.6305,-17.165 357.0084,-21.5997 367.2958,-24.1333 366.6305,-17.165"/>
</g>
<!-- Node49 -->
<g id="node4" class="node">
<title>Node49</title>
<g id="a_node4"><a xlink:href="classmap_file_test_suite.html#a5905399415b88a36aa55bcd73f45ad59" target="_top" xlink:title="mapFileTestSuite::mapFile\lTestSuite">
<polygon fill="#ffffff" stroke="#000000" points="600,-14 600,-44 743,-44 743,-14 600,-14"/>
<text text-anchor="start" x="608" y="-32" font-family="Helvetica,sans-Serif" font-size="10.00" fill="#000000">mapFileTestSuite::mapFile</text>
<text text-anchor="middle" x="671.5" y="-21" font-family="Helvetica,sans-Serif" font-size="10.00" fill="#000000">TestSuite</text>
</a>
</g>
</g>
<!-- Node48&#45;&gt;Node49 -->
<g id="edge3" class="edge">
<title>Node48&#45;&gt;Node49</title>
<path fill="none" stroke="#191970" d="M574.3358,-38.5654C582.9214,-37.7202 591.514,-36.8743 599.8418,-36.0544"/>
<polygon fill="#191970" stroke="#191970" points="573.8855,-35.0927 564.2766,-39.5557 574.5714,-42.059 573.8855,-35.0927"/>
</g>
<!-- Node50&#45;&gt;Node49 -->
<g id="edge5" class="edge">
<title>Node50&#45;&gt;Node49</title>
<path fill="none" stroke="#191970" d="M569.6284,-18.9712C579.7896,-19.9715 590.0305,-20.9797 599.8986,-21.9512"/>
<polygon fill="#191970" stroke="#191970" points="569.8053,-15.4718 559.5105,-17.9751 569.1195,-22.4381 569.8053,-15.4718"/>
</g>
</g>
</svg>
