<?xml version="1.0" encoding="UTF-8" standalone="no"?>
<!DOCTYPE svg PUBLIC "-//W3C//DTD SVG 1.1//EN"
 "http://www.w3.org/Graphics/SVG/1.1/DTD/svg11.dtd">
<!-- Generated by graphviz version 2.43.0 (0)
 -->
<!-- Title: ChimeraTK::RegisterPath::startsWith Pages: 1 -->
<svg width="829pt" height="276pt"
 viewBox="0.00 0.00 829.00 275.93" xmlns="http://www.w3.org/2000/svg" xmlns:xlink="http://www.w3.org/1999/xlink">
<g id="graph0" class="graph" transform="scale(1 1) rotate(0) translate(4 271.93)">
<title>ChimeraTK::RegisterPath::startsWith</title>
<polygon fill="white" stroke="transparent" points="-4,4 -4,-271.93 825,-271.93 825,4 -4,4"/>
<!-- Node1 -->
<g id="node1" class="node">
<title>Node1</title>
<g id="a_node1"><a xlink:title="check if the register path starts with the given path">
<polygon fill="#bfbfbf" stroke="black" points="683,-146.5 683,-176.5 821,-176.5 821,-146.5 683,-146.5"/>
<text text-anchor="start" x="691" y="-164.5" font-family="Helvetica,sans-Serif" font-size="10.00">ChimeraTK::RegisterPath</text>
<text text-anchor="middle" x="752" y="-153.5" font-family="Helvetica,sans-Serif" font-size="10.00">::startsWith</text>
</a>
</g>
</g>
<!-- Node2 -->
<g id="node2" class="node">
<title>Node2</title>
<g id="a_node2"><a xlink:href="class_chimera_t_k_1_1_dummy_backend_register_catalogue.html#a68ac3973fa455d92cc618a08e5bebda4" target="_top" xlink:title="Note: Override this function if backend has &quot;hidden&quot; registers which are not added to the map and hen...">
<polygon fill="white" stroke="black" points="0,-120.5 0,-150.5 197,-150.5 197,-120.5 0,-120.5"/>
<text text-anchor="start" x="8" y="-138.5" font-family="Helvetica,sans-Serif" font-size="10.00">ChimeraTK::DummyBackendRegister</text>
<text text-anchor="middle" x="98.5" y="-127.5" font-family="Helvetica,sans-Serif" font-size="10.00">Catalogue::getBackendRegister</text>
</a>
</g>
</g>
<!-- Node1&#45;&gt;Node2 -->
<g id="edge1" class="edge">
<title>Node1&#45;&gt;Node2</title>
<path fill="none" stroke="midnightblue" d="M716.96,-181.43C697.19,-192.09 671.42,-204.44 647,-211.5 469.92,-262.69 407.75,-295.16 233,-236.5 182.03,-219.39 135.01,-174.26 112.85,-150.55"/>
<polygon fill="midnightblue" stroke="midnightblue" points="718.81,-184.42 725.88,-176.53 715.43,-178.28 718.81,-184.42"/>
</g>
<!-- Node3 -->
<g id="node3" class="node">
<title>Node3</title>
<g id="a_node3"><a xlink:href="class_chimera_t_k_1_1_dummy_backend_base.html#a9dffeed356cf306fa049532715135709" target="_top" xlink:title="Specific override which allows to create &quot;DUMMY_INTEERRUPT_X&quot; accessors.">
<polygon fill="white" stroke="black" points="466,-171.5 466,-201.5 647,-201.5 647,-171.5 466,-171.5"/>
<text text-anchor="start" x="474" y="-189.5" font-family="Helvetica,sans-Serif" font-size="10.00">ChimeraTK::DummyBackendBase</text>
<text text-anchor="middle" x="556.5" y="-178.5" font-family="Helvetica,sans-Serif" font-size="10.00">::getRegisterAccessor_impl</text>
</a>
</g>
</g>
<!-- Node1&#45;&gt;Node3 -->
<g id="edge2" class="edge">
<title>Node1&#45;&gt;Node3</title>
<path fill="none" stroke="midnightblue" d="M672.65,-171.62C664.25,-172.71 655.65,-173.82 647.14,-174.92"/>
<polygon fill="midnightblue" stroke="midnightblue" points="673.31,-175.07 682.78,-170.31 672.41,-168.12 673.31,-175.07"/>
</g>
<!-- Node4 -->
<g id="node4" class="node">
<title>Node4</title>
<g id="a_node4"><a xlink:href="class_chimera_t_k_1_1_numeric_addressed_backend.html#a7600cc77c2eab2b3e8d82d4bf6a31e20" target="_top" xlink:title="getRegisterInfo returns a NumericAddressedRegisterInfo object for the given register.">
<polygon fill="white" stroke="black" points="472,-122.5 472,-152.5 641,-152.5 641,-122.5 472,-122.5"/>
<text text-anchor="start" x="480" y="-140.5" font-family="Helvetica,sans-Serif" font-size="10.00">ChimeraTK::NumericAddressed</text>
<text text-anchor="middle" x="556.5" y="-129.5" font-family="Helvetica,sans-Serif" font-size="10.00">Backend::getRegisterInfo</text>
</a>
</g>
</g>
<!-- Node1&#45;&gt;Node4 -->
<g id="edge3" class="edge">
<title>Node1&#45;&gt;Node4</title>
<path fill="none" stroke="midnightblue" d="M672.85,-151.81C662.38,-150.51 651.61,-149.17 641.05,-147.86"/>
<polygon fill="midnightblue" stroke="midnightblue" points="672.42,-155.28 682.78,-153.04 673.29,-148.33 672.42,-155.28"/>
</g>
<!-- Node9 -->
<g id="node9" class="node">
<title>Node9</title>
<g id="a_node9"><a xlink:href="class_chimera_t_k_1_1_numeric_addressed_register_catalogue.html#a239c769476321072af9e353e5365cc61" target="_top" xlink:title="Check if register with the given path name exists.">
<polygon fill="white" stroke="black" points="471.5,-49.5 471.5,-79.5 641.5,-79.5 641.5,-49.5 471.5,-49.5"/>
<text text-anchor="start" x="479.5" y="-67.5" font-family="Helvetica,sans-Serif" font-size="10.00">ChimeraTK::NumericAddressed</text>
<text text-anchor="middle" x="556.5" y="-56.5" font-family="Helvetica,sans-Serif" font-size="10.00">RegisterCatalogue::hasRegister</text>
</a>
</g>
</g>
<!-- Node1&#45;&gt;Node9 -->
<g id="edge8" class="edge">
<title>Node1&#45;&gt;Node9</title>
<path fill="none" stroke="midnightblue" d="M711.82,-141.86C675.09,-123.45 620.95,-96.31 587.52,-79.55"/>
<polygon fill="midnightblue" stroke="midnightblue" points="710.26,-144.99 720.77,-146.34 713.39,-138.73 710.26,-144.99"/>
</g>
<!-- Node5 -->
<g id="node5" class="node">
<title>Node5</title>
<g id="a_node5"><a xlink:href="class_chimera_t_k_1_1_exception_dummy.html#a3b9d8307fb2ba845e1ac817952ad70a0" target="_top" xlink:title="Specific override which allows to create push&#45;type accessors.">
<polygon fill="white" stroke="black" points="249.5,-196.5 249.5,-226.5 413.5,-226.5 413.5,-196.5 249.5,-196.5"/>
<text text-anchor="start" x="257.5" y="-214.5" font-family="Helvetica,sans-Serif" font-size="10.00">ChimeraTK::ExceptionDummy</text>
<text text-anchor="middle" x="331.5" y="-203.5" font-family="Helvetica,sans-Serif" font-size="10.00">::getRegisterAccessor_impl</text>
</a>
</g>
</g>
<!-- Node4&#45;&gt;Node5 -->
<g id="edge4" class="edge">
<title>Node4&#45;&gt;Node5</title>
<path fill="none" stroke="midnightblue" d="M481.69,-155.96C476.3,-157.96 471.02,-160.14 466,-162.5 448.37,-170.79 447.75,-179.48 430,-187.5 422.45,-190.91 414.35,-193.88 406.16,-196.45"/>
<polygon fill="midnightblue" stroke="midnightblue" points="483.18,-159.15 491.47,-152.55 480.87,-152.54 483.18,-159.15"/>
</g>
<!-- Node6 -->
<g id="node6" class="node">
<title>Node6</title>
<g id="a_node6"><a xlink:href="class_chimera_t_k_1_1_numeric_addressed_backend.html#a50051306c894331b0f0c7ec3fe6d3c0f" target="_top" xlink:title=" ">
<polygon fill="white" stroke="black" points="238,-147.5 238,-177.5 425,-177.5 425,-147.5 238,-147.5"/>
<text text-anchor="start" x="246" y="-165.5" font-family="Helvetica,sans-Serif" font-size="10.00">ChimeraTK::NumericAddressed</text>
<text text-anchor="middle" x="331.5" y="-154.5" font-family="Helvetica,sans-Serif" font-size="10.00">Backend::getSyncRegisterAccessor</text>
</a>
</g>
</g>
<!-- Node4&#45;&gt;Node6 -->
<g id="edge5" class="edge">
<title>Node4&#45;&gt;Node6</title>
<path fill="none" stroke="midnightblue" d="M461.76,-148.01C449.68,-149.36 437.31,-150.75 425.24,-152.1"/>
<polygon fill="midnightblue" stroke="midnightblue" points="462.28,-151.47 471.83,-146.88 461.5,-144.52 462.28,-151.47"/>
</g>
<!-- Node7 -->
<g id="node7" class="node">
<title>Node7</title>
<g id="a_node7"><a xlink:href="class_chimera_t_k_1_1_exception_dummy.html#ac86bf7b958e3125e344876afd28e9861" target="_top" xlink:title="Function to obtain the number of writes of a register since the creation of the backend.">
<polygon fill="white" stroke="black" points="249.5,-98.5 249.5,-128.5 413.5,-128.5 413.5,-98.5 249.5,-98.5"/>
<text text-anchor="start" x="257.5" y="-116.5" font-family="Helvetica,sans-Serif" font-size="10.00">ChimeraTK::ExceptionDummy</text>
<text text-anchor="middle" x="331.5" y="-105.5" font-family="Helvetica,sans-Serif" font-size="10.00">::getWriteCount</text>
</a>
</g>
</g>
<!-- Node4&#45;&gt;Node7 -->
<g id="edge6" class="edge">
<title>Node4&#45;&gt;Node7</title>
<path fill="none" stroke="midnightblue" d="M461.47,-127.38C445.58,-125.67 429.21,-123.91 413.68,-122.24"/>
<polygon fill="midnightblue" stroke="midnightblue" points="461.51,-130.9 471.83,-128.5 462.26,-123.94 461.51,-130.9"/>
</g>
<!-- Node8 -->
<g id="node8" class="node">
<title>Node8</title>
<g id="a_node8"><a xlink:href="class_chimera_t_k_1_1_exception_dummy.html#a9e9dbeb58711d364acdd49d327bee099" target="_top" xlink:title="Function to obtain the write order number of a register.">
<polygon fill="white" stroke="black" points="249.5,-49.5 249.5,-79.5 413.5,-79.5 413.5,-49.5 249.5,-49.5"/>
<text text-anchor="start" x="257.5" y="-67.5" font-family="Helvetica,sans-Serif" font-size="10.00">ChimeraTK::ExceptionDummy</text>
<text text-anchor="middle" x="331.5" y="-56.5" font-family="Helvetica,sans-Serif" font-size="10.00">::getWriteOrder</text>
</a>
</g>
</g>
<!-- Node4&#45;&gt;Node8 -->
<g id="edge7" class="edge">
<title>Node4&#45;&gt;Node8</title>
<path fill="none" stroke="midnightblue" d="M509.96,-118.64C486.33,-109.22 456.86,-98.05 430,-89.5 418.93,-85.98 407.03,-82.6 395.48,-79.52"/>
<polygon fill="midnightblue" stroke="midnightblue" points="508.79,-121.94 519.37,-122.42 511.39,-115.45 508.79,-121.94"/>
</g>
<!-- Node10 -->
<g id="node10" class="node">
<title>Node10</title>
<g id="a_node10"><a xlink:href="class_chimera_t_k_1_1_dummy_backend_register_catalogue.html#a56d4a7e00d5218a5ff9ad4deeb8f0adb" target="_top" xlink:title="Check if register with the given path name exists.">
<polygon fill="white" stroke="black" points="233,-0.5 233,-30.5 430,-30.5 430,-0.5 233,-0.5"/>
<text text-anchor="start" x="241" y="-18.5" font-family="Helvetica,sans-Serif" font-size="10.00">ChimeraTK::DummyBackendRegister</text>
<text text-anchor="middle" x="331.5" y="-7.5" font-family="Helvetica,sans-Serif" font-size="10.00">Catalogue::hasRegister</text>
</a>
</g>
</g>
<!-- Node9&#45;&gt;Node10 -->
<g id="edge9" class="edge">
<title>Node9&#45;&gt;Node10</title>
<path fill="none" stroke="midnightblue" d="M477.29,-47.31C452.35,-41.84 424.97,-35.82 400.79,-30.51"/>
<polygon fill="midnightblue" stroke="midnightblue" points="476.56,-50.74 487.08,-49.47 478.06,-43.9 476.56,-50.74"/>
</g>
<!-- Node10&#45;&gt;Node2 -->
<g id="edge10" class="edge">
<title>Node10&#45;&gt;Node2</title>
<path fill="none" stroke="midnightblue" d="M246.74,-33.85C242.03,-35.58 237.42,-37.46 233,-39.5 186.6,-60.91 139.82,-99.32 115.88,-120.48"/>
<polygon fill="midnightblue" stroke="midnightblue" points="248.2,-37.05 256.53,-30.51 245.93,-30.43 248.2,-37.05"/>
</g>
</g>
</svg>
