<?xml version="1.0" encoding="UTF-8" standalone="no"?>
<!DOCTYPE svg PUBLIC "-//W3C//DTD SVG 1.1//EN"
 "http://www.w3.org/Graphics/SVG/1.1/DTD/svg11.dtd">
<!-- Generated by graphviz version 2.40.1 (20161225.0304)
 -->
<!-- Title: ExceptionDummy::ExceptionDummy Pages: 1 -->
<svg width="618pt" height="39pt"
 viewBox="0.00 0.00 618.00 39.00" xmlns="http://www.w3.org/2000/svg" xmlns:xlink="http://www.w3.org/1999/xlink">
<g id="graph0" class="graph" transform="scale(1 1) rotate(0) translate(4 35)">
<title>ExceptionDummy::ExceptionDummy</title>
<polygon fill="#ffffff" stroke="transparent" points="-4,4 -4,-35 614,-35 614,4 -4,4"/>
<!-- Node1 -->
<g id="node1" class="node">
<title>Node1</title>
<polygon fill="#bfbfbf" stroke="#000000" points="0,-.5 0,-30.5 157,-30.5 157,-.5 0,-.5"/>
<text text-anchor="start" x="8" y="-18.5" font-family="Helvetica,sans-Serif" font-size="10.00" fill="#000000">ExceptionDummy::Exception</text>
<text text-anchor="middle" x="78.5" y="-7.5" font-family="Helvetica,sans-Serif" font-size="10.00" fill="#000000">Dummy</text>
</g>
<!-- Node2 -->
<g id="node2" class="node">
<title>Node2</title>
<g id="a_node2"><a xlink:href="class_exception_dummy.html#a98695df6d0034f13417b877f82f049a9" target="_top" xlink:title="ExceptionDummy::createInstance">
<polygon fill="#ffffff" stroke="#000000" points="193,-6 193,-25 374,-25 374,-6 193,-6"/>
<text text-anchor="middle" x="283.5" y="-13" font-family="Helvetica,sans-Serif" font-size="10.00" fill="#000000">ExceptionDummy::createInstance</text>
</a>
</g>
</g>
<!-- Node1&#45;&gt;Node2 -->
<g id="edge1" class="edge">
<title>Node1&#45;&gt;Node2</title>
<path fill="none" stroke="#191970" d="M167.3505,-15.5C175.7584,-15.5 184.2911,-15.5 192.7168,-15.5"/>
<polygon fill="#191970" stroke="#191970" points="167.1721,-12.0001 157.1721,-15.5 167.172,-19.0001 167.1721,-12.0001"/>
</g>
<!-- Node3 -->
<g id="node3" class="node">
<title>Node3</title>
<g id="a_node3"><a xlink:href="class_exception_dummy_1_1_backend_registerer.html#aab2e417bbd2c1413fc3e257ccf5e5c32" target="_top" xlink:title="ExceptionDummy::BackendRegisterer\l::BackendRegisterer">
<polygon fill="#ffffff" stroke="#000000" points="410,-.5 410,-30.5 610,-30.5 610,-.5 410,-.5"/>
<text text-anchor="start" x="418" y="-18.5" font-family="Helvetica,sans-Serif" font-size="10.00" fill="#000000">ExceptionDummy::BackendRegisterer</text>
<text text-anchor="middle" x="510" y="-7.5" font-family="Helvetica,sans-Serif" font-size="10.00" fill="#000000">::BackendRegisterer</text>
</a>
</g>
</g>
<!-- Node2&#45;&gt;Node3 -->
<g id="edge2" class="edge">
<title>Node2&#45;&gt;Node3</title>
<path fill="none" stroke="#191970" d="M384.5309,-15.5C392.9486,-15.5 401.4573,-15.5 409.8682,-15.5"/>
<polygon fill="#191970" stroke="#191970" points="384.3212,-12.0001 374.3211,-15.5 384.3211,-19.0001 384.3212,-12.0001"/>
</g>
</g>
</svg>
