<?xml version="1.0" encoding="UTF-8" standalone="no"?>
<!DOCTYPE svg PUBLIC "-//W3C//DTD SVG 1.1//EN"
 "http://www.w3.org/Graphics/SVG/1.1/DTD/svg11.dtd">
<!-- Generated by graphviz version 2.40.1 (20161225.0304)
 -->
<!-- Title: ChimeraTK::LogicalNameMappingBackend::parse Pages: 1 -->
<!--zoomable 272 -->
<svg id="main" version="1.1" xmlns="http://www.w3.org/2000/svg" xmlns:xlink="http://www.w3.org/1999/xlink" xml:space="preserve" onload="init(evt)">
<style type="text/css"><![CDATA[
.edge:hover path { stroke: red; }
.edge:hover polygon { stroke: red; fill: red; }
]]></style>
<script type="text/javascript"><![CDATA[
var edges = document.getElementsByTagName('g');
if (edges && edges.length) {
  for (var i=0;i<edges.length;i++) {
    if (edges[i].id.substr(0,4)=='edge') {
      edges[i].setAttribute('class','edge');
    }
  }
}
]]></script>
        <defs>
                <circle id="rim" cx="0" cy="0" r="7"/>
                <circle id="rim2" cx="0" cy="0" r="3.5"/>
                <g id="zoomPlus">
                        <use xlink:href="#rim" fill="#404040">
                                <set attributeName="fill" to="#808080" begin="zoomplus.mouseover" end="zoomplus.mouseout"/>
                        </use>
                        <path d="M-4,0h8M0,-4v8" fill="none" stroke="white" stroke-width="1.5" pointer-events="none"/>
                </g>
                <g id="zoomMin">
                        <use xlink:href="#rim" fill="#404040">
                                <set attributeName="fill" to="#808080" begin="zoomminus.mouseover" end="zoomminus.mouseout"/>
                        </use>
                        <path d="M-4,0h8" fill="none" stroke="white" stroke-width="1.5" pointer-events="none"/>
                </g>
                <g id="dirArrow">
                        <path fill="none" stroke="white" stroke-width="1.5" d="M0,-3.0v7 M-2.5,-0.5L0,-3.0L2.5,-0.5"/>
                </g>
               <g id="resetDef">
                       <use xlink:href="#rim2" fill="#404040">
                               <set attributeName="fill" to="#808080" begin="reset.mouseover" end="reset.mouseout"/>
                       </use>
               </g>
        </defs>

<script type="text/javascript">
var viewWidth = 1551;
var viewHeight = 272;
var sectionId = 'dynsection-17';
</script>
<script xlink:href="svgpan.js"/>
<svg id="graph" class="graph">
<g id="viewport">
<title>ChimeraTK::LogicalNameMappingBackend::parse</title>
<polygon fill="#ffffff" stroke="transparent" points="-4,4 -4,-268 1547,-268 1547,4 -4,4"/>
<!-- Node146 -->
<g id="node1" class="node">
<title>Node146</title>
<polygon fill="#bfbfbf" stroke="#000000" points="0,-159.5 0,-189.5 182,-189.5 182,-159.5 0,-159.5"/>
<text text-anchor="start" x="8" y="-177.5" font-family="Helvetica,sans-Serif" font-size="10.00" fill="#000000">ChimeraTK::LogicalNameMapping</text>
<text text-anchor="middle" x="91" y="-166.5" font-family="Helvetica,sans-Serif" font-size="10.00" fill="#000000">Backend::parse</text>
</g>
<!-- Node147 -->
<g id="node2" class="node">
<title>Node147</title>
<g id="a_node2"><a xlink:href="class_chimera_t_k_1_1_logical_name_map_parser.html#a522b79ccb322bbf25ccfdead57545c26" target="_top" xlink:title="Obtain the parsed register catalogue. ">
<polygon fill="#ffffff" stroke="#000000" points="218,-233.5 218,-263.5 379,-263.5 379,-233.5 218,-233.5"/>
<text text-anchor="start" x="226" y="-251.5" font-family="Helvetica,sans-Serif" font-size="10.00" fill="#000000">ChimeraTK::LogicalNameMap</text>
<text text-anchor="middle" x="298.5" y="-240.5" font-family="Helvetica,sans-Serif" font-size="10.00" fill="#000000">Parser::getCatalogue</text>
</a>
</g>
</g>
<!-- Node146&#45;&gt;Node147 -->
<g id="edge1" class="edge">
<title>Node146&#45;&gt;Node147</title>
<path fill="none" stroke="#191970" d="M126.8249,-189.5502C152.0998,-199.9349 186.8657,-213.752 218,-224.5 223.652,-226.4511 229.5584,-228.3929 235.4927,-230.2783"/>
<polygon fill="#191970" stroke="#191970" points="234.8776,-233.7527 245.4662,-233.3896 236.9623,-227.0703 234.8776,-233.7527"/>
</g>
<!-- Node148 -->
<g id="node3" class="node">
<title>Node148</title>
<g id="a_node3"><a xlink:href="class_chimera_t_k_1_1_logical_name_map_parser.html#a6562185173cf14efa5e8abb2f8e66610" target="_top" xlink:title="Obtain list of all target devices referenced in the map. ">
<polygon fill="#ffffff" stroke="#000000" points="218,-184.5 218,-214.5 379,-214.5 379,-184.5 218,-184.5"/>
<text text-anchor="start" x="226" y="-202.5" font-family="Helvetica,sans-Serif" font-size="10.00" fill="#000000">ChimeraTK::LogicalNameMap</text>
<text text-anchor="middle" x="298.5" y="-191.5" font-family="Helvetica,sans-Serif" font-size="10.00" fill="#000000">Parser::getTargetDevices</text>
</a>
</g>
</g>
<!-- Node146&#45;&gt;Node148 -->
<g id="edge2" class="edge">
<title>Node146&#45;&gt;Node148</title>
<path fill="none" stroke="#191970" d="M182.0125,-185.4654C190.6218,-186.5026 199.3499,-187.5542 207.9547,-188.5909"/>
<polygon fill="#191970" stroke="#191970" points="207.6382,-192.078 217.9851,-189.7994 208.4755,-185.1283 207.6382,-192.078"/>
</g>
<!-- Node151 -->
<g id="node6" class="node">
<title>Node151</title>
<g id="a_node6"><a xlink:href="class_chimera_t_k_1_1_backend_factory.html#a1176b9ab5e2ef7a1b8aa4a4aaaeb924e" target="_top" xlink:title="Static function to get an instance of factory. ">
<polygon fill="#ffffff" stroke="#000000" points="221.5,-135.5 221.5,-165.5 375.5,-165.5 375.5,-135.5 221.5,-135.5"/>
<text text-anchor="start" x="229.5" y="-153.5" font-family="Helvetica,sans-Serif" font-size="10.00" fill="#000000">ChimeraTK::BackendFactory</text>
<text text-anchor="middle" x="298.5" y="-142.5" font-family="Helvetica,sans-Serif" font-size="10.00" fill="#000000">::getInstance</text>
</a>
</g>
</g>
<!-- Node146&#45;&gt;Node151 -->
<g id="edge5" class="edge">
<title>Node146&#45;&gt;Node151</title>
<path fill="none" stroke="#191970" d="M182.0125,-163.9733C191.7107,-162.8515 201.5596,-161.7124 211.2134,-160.5958"/>
<polygon fill="#191970" stroke="#191970" points="211.657,-164.0679 221.1886,-159.442 210.8526,-157.1143 211.657,-164.0679"/>
</g>
<!-- Node152 -->
<g id="node7" class="node">
<title>Node152</title>
<g id="a_node7"><a xlink:href="class_chimera_t_k_1_1_backend_factory.html#a240088c806406533d0aa975b7bf61b05" target="_top" xlink:title="Create a new backend and return the instance as a shared pointer. ">
<polygon fill="#ffffff" stroke="#000000" points="221.5,-86.5 221.5,-116.5 375.5,-116.5 375.5,-86.5 221.5,-86.5"/>
<text text-anchor="start" x="229.5" y="-104.5" font-family="Helvetica,sans-Serif" font-size="10.00" fill="#000000">ChimeraTK::BackendFactory</text>
<text text-anchor="middle" x="298.5" y="-93.5" font-family="Helvetica,sans-Serif" font-size="10.00" fill="#000000">::createBackend</text>
</a>
</g>
</g>
<!-- Node146&#45;&gt;Node152 -->
<g id="edge6" class="edge">
<title>Node146&#45;&gt;Node152</title>
<path fill="none" stroke="#191970" d="M129.1289,-159.4025C154.2371,-149.6309 187.9091,-136.8485 218,-126.5 224.755,-124.1769 231.8607,-121.8308 238.9377,-119.5549"/>
<polygon fill="#191970" stroke="#191970" points="240.0654,-122.8691 248.5349,-116.5038 237.9445,-116.1982 240.0654,-122.8691"/>
</g>
<!-- Node149 -->
<g id="node4" class="node">
<title>Node149</title>
<g id="a_node4"><a xlink:href="class_chimera_t_k_1_1_register_catalogue.html#a7468054b21767fb5403135c2fc37048e" target="_top" xlink:title="Return iterators for iterating through the registers in the catalogue. ">
<polygon fill="#ffffff" stroke="#000000" points="427,-227.5 427,-257.5 593,-257.5 593,-227.5 427,-227.5"/>
<text text-anchor="start" x="435" y="-245.5" font-family="Helvetica,sans-Serif" font-size="10.00" fill="#000000">ChimeraTK::RegisterCatalogue</text>
<text text-anchor="middle" x="510" y="-234.5" font-family="Helvetica,sans-Serif" font-size="10.00" fill="#000000">::begin</text>
</a>
</g>
</g>
<!-- Node148&#45;&gt;Node149 -->
<g id="edge3" class="edge">
<title>Node148&#45;&gt;Node149</title>
<path fill="none" stroke="#191970" d="M372.4724,-214.5393C389.6995,-218.0417 408.1669,-221.7964 425.7996,-225.3812"/>
<polygon fill="#191970" stroke="#191970" points="425.5725,-228.9066 436.0693,-227.4692 426.9672,-222.0469 425.5725,-228.9066"/>
</g>
<!-- Node150 -->
<g id="node5" class="node">
<title>Node150</title>
<g id="a_node5"><a xlink:href="class_chimera_t_k_1_1_register_catalogue.html#a708cdd491140065e80bcfe27f71aabc6" target="_top" xlink:title="ChimeraTK::RegisterCatalogue::end">
<polygon fill="#ffffff" stroke="#000000" points="415,-189 415,-208 605,-208 605,-189 415,-189"/>
<text text-anchor="middle" x="510" y="-196" font-family="Helvetica,sans-Serif" font-size="10.00" fill="#000000">ChimeraTK::RegisterCatalogue::end</text>
</a>
</g>
</g>
<!-- Node148&#45;&gt;Node150 -->
<g id="edge4" class="edge">
<title>Node148&#45;&gt;Node150</title>
<path fill="none" stroke="#191970" d="M379.0624,-199.1191C387.453,-199.0794 396.0681,-199.0387 404.6795,-198.998"/>
<polygon fill="#191970" stroke="#191970" points="404.7897,-202.4976 414.773,-198.9502 404.7566,-195.4977 404.7897,-202.4976"/>
</g>
<!-- Node153 -->
<g id="node8" class="node">
<title>Node153</title>
<g id="a_node8"><a xlink:href="class_chimera_t_k_1_1_utilities.html#ac9962632f9db42e2b2e7be4b3875a7bc" target="_top" xlink:title="Check whether the given string seems to be a CDD. ">
<polygon fill="#ffffff" stroke="#000000" points="659,-20.5 659,-50.5 774,-50.5 774,-20.5 659,-20.5"/>
<text text-anchor="start" x="667" y="-38.5" font-family="Helvetica,sans-Serif" font-size="10.00" fill="#000000">ChimeraTK::Utilities</text>
<text text-anchor="middle" x="716.5" y="-27.5" font-family="Helvetica,sans-Serif" font-size="10.00" fill="#000000">::isDeviceDescriptor</text>
</a>
</g>
</g>
<!-- Node152&#45;&gt;Node153 -->
<g id="edge7" class="edge">
<title>Node152&#45;&gt;Node153</title>
<path fill="none" stroke="#191970" d="M375.4983,-86.4901C388.6602,-84.0589 402.2104,-81.6399 415,-79.5 495.1867,-66.0836 587.7632,-52.9174 648.9502,-44.5367"/>
<polygon fill="#191970" stroke="#191970" points="649.4351,-48.0031 658.8697,-43.1823 648.4881,-41.0674 649.4351,-48.0031"/>
</g>
<!-- Node154 -->
<g id="node9" class="node">
<title>Node154</title>
<g id="a_node9"><a xlink:href="class_chimera_t_k_1_1_utilities.html#a83888fde6b9a0555101d7cbc6d66a1c9" target="_top" xlink:title="Check wehter the given string seems to be an SDM. ">
<polygon fill="#ffffff" stroke="#000000" points="452.5,-137.5 452.5,-167.5 567.5,-167.5 567.5,-137.5 452.5,-137.5"/>
<text text-anchor="start" x="460.5" y="-155.5" font-family="Helvetica,sans-Serif" font-size="10.00" fill="#000000">ChimeraTK::Utilities</text>
<text text-anchor="middle" x="510" y="-144.5" font-family="Helvetica,sans-Serif" font-size="10.00" fill="#000000">::isSdm</text>
</a>
</g>
</g>
<!-- Node152&#45;&gt;Node154 -->
<g id="edge8" class="edge">
<title>Node152&#45;&gt;Node154</title>
<path fill="none" stroke="#191970" d="M360.813,-116.5258C386.5282,-122.7267 416.3909,-129.9276 442.6132,-136.2507"/>
<polygon fill="#191970" stroke="#191970" points="441.9268,-139.6854 452.4686,-138.6272 443.5677,-132.8805 441.9268,-139.6854"/>
</g>
<!-- Node155 -->
<g id="node10" class="node">
<title>Node155</title>
<g id="a_node10"><a xlink:href="class_chimera_t_k_1_1_backend_factory.html#a517b7eba664608f0cff9bf3b4dca8141" target="_top" xlink:title="Internal function to return a DeviceBackend. ">
<polygon fill="#ffffff" stroke="#000000" points="433,-.5 433,-30.5 587,-30.5 587,-.5 433,-.5"/>
<text text-anchor="start" x="441" y="-18.5" font-family="Helvetica,sans-Serif" font-size="10.00" fill="#000000">ChimeraTK::BackendFactory</text>
<text text-anchor="middle" x="510" y="-7.5" font-family="Helvetica,sans-Serif" font-size="10.00" fill="#000000">::createBackendInternal</text>
</a>
</g>
</g>
<!-- Node152&#45;&gt;Node155 -->
<g id="edge9" class="edge">
<title>Node152&#45;&gt;Node155</title>
<path fill="none" stroke="#191970" d="M327.194,-86.293C350.4677,-74.3056 384.3281,-57.6434 415,-45.5 425.5723,-41.3143 436.9796,-37.3 448.096,-33.645"/>
<polygon fill="#191970" stroke="#191970" points="449.3172,-36.9288 457.7617,-30.5303 447.1702,-30.2662 449.3172,-36.9288"/>
</g>
<!-- Node156 -->
<g id="node11" class="node">
<title>Node156</title>
<g id="a_node11"><a xlink:href="class_chimera_t_k_1_1_utilities.html#a0124cd7dc8ef468a7c292788414848ed" target="_top" xlink:title="Search for an alias in a given DMap file and return the DeviceInfo entry. ">
<polygon fill="#ffffff" stroke="#000000" points="452.5,-88.5 452.5,-118.5 567.5,-118.5 567.5,-88.5 452.5,-88.5"/>
<text text-anchor="start" x="460.5" y="-106.5" font-family="Helvetica,sans-Serif" font-size="10.00" fill="#000000">ChimeraTK::Utilities</text>
<text text-anchor="middle" x="510" y="-95.5" font-family="Helvetica,sans-Serif" font-size="10.00" fill="#000000">::aliasLookUp</text>
</a>
</g>
</g>
<!-- Node152&#45;&gt;Node156 -->
<g id="edge11" class="edge">
<title>Node152&#45;&gt;Node156</title>
<path fill="none" stroke="#191970" d="M375.7541,-102.2305C397.4557,-102.4358 420.8875,-102.6573 442.0066,-102.857"/>
<polygon fill="#191970" stroke="#191970" points="442.138,-106.3583 452.1707,-102.9532 442.2042,-99.3587 442.138,-106.3583"/>
</g>
<!-- Node155&#45;&gt;Node153 -->
<g id="edge10" class="edge">
<title>Node155&#45;&gt;Node153</title>
<path fill="none" stroke="#191970" d="M587.1866,-22.9757C607.38,-24.9315 628.9966,-27.0251 648.6629,-28.9298"/>
<polygon fill="#191970" stroke="#191970" points="648.4605,-32.4265 658.7514,-29.9069 649.1354,-25.4591 648.4605,-32.4265"/>
</g>
<!-- Node157 -->
<g id="node12" class="node">
<title>Node157</title>
<g id="a_node12"><a xlink:href="class_chimera_t_k_1_1_d_map_file_parser.html#af5bc5f64b8e53e070862ac5e9992a412" target="_top" xlink:title="Performs parsing of specified DMAP file. ">
<polygon fill="#ffffff" stroke="#000000" points="641,-88.5 641,-118.5 792,-118.5 792,-88.5 641,-88.5"/>
<text text-anchor="start" x="649" y="-106.5" font-family="Helvetica,sans-Serif" font-size="10.00" fill="#000000">ChimeraTK::DMapFileParser</text>
<text text-anchor="middle" x="716.5" y="-95.5" font-family="Helvetica,sans-Serif" font-size="10.00" fill="#000000">::parse</text>
</a>
</g>
</g>
<!-- Node156&#45;&gt;Node157 -->
<g id="edge12" class="edge">
<title>Node156&#45;&gt;Node157</title>
<path fill="none" stroke="#191970" d="M567.5218,-103.5C587.0962,-103.5 609.4185,-103.5 630.7192,-103.5"/>
<polygon fill="#191970" stroke="#191970" points="630.7476,-107.0001 640.7476,-103.5 630.7475,-100.0001 630.7476,-107.0001"/>
</g>
<!-- Node158 -->
<g id="node13" class="node">
<title>Node158</title>
<g id="a_node13"><a xlink:href="namespace_chimera_t_k_1_1parser_utilities.html#ae2b9a4195d7e35aeb3bf43b51d160fe6" target="_top" xlink:title="Converts a relative path to its absolute path. ">
<polygon fill="#ffffff" stroke="#000000" points="1202,-113.5 1202,-143.5 1348,-143.5 1348,-113.5 1202,-113.5"/>
<text text-anchor="start" x="1210" y="-131.5" font-family="Helvetica,sans-Serif" font-size="10.00" fill="#000000">ChimeraTK::parserUtilities</text>
<text text-anchor="middle" x="1275" y="-120.5" font-family="Helvetica,sans-Serif" font-size="10.00" fill="#000000">::convertToAbsolutePath</text>
</a>
</g>
</g>
<!-- Node157&#45;&gt;Node158 -->
<g id="edge13" class="edge">
<title>Node157&#45;&gt;Node158</title>
<path fill="none" stroke="#191970" d="M772.5359,-118.5357C790.1524,-122.594 809.7666,-126.4316 828,-128.5 954.2218,-142.8186 1101.7855,-138.826 1191.7915,-134.0851"/>
<polygon fill="#191970" stroke="#191970" points="1192.1412,-137.5713 1201.9369,-133.5346 1191.7619,-130.5816 1192.1412,-137.5713"/>
</g>
<!-- Node161 -->
<g id="node16" class="node">
<title>Node161</title>
<g id="a_node16"><a xlink:href="class_chimera_t_k_1_1_d_map_file_parser.html#ac4e96383171637a155abc9a61dd453e2" target="_top" xlink:title="ChimeraTK::DMapFileParser\l::parseForLoadLib">
<polygon fill="#ffffff" stroke="#000000" points="828,-39.5 828,-69.5 979,-69.5 979,-39.5 828,-39.5"/>
<text text-anchor="start" x="836" y="-57.5" font-family="Helvetica,sans-Serif" font-size="10.00" fill="#000000">ChimeraTK::DMapFileParser</text>
<text text-anchor="middle" x="903.5" y="-46.5" font-family="Helvetica,sans-Serif" font-size="10.00" fill="#000000">::parseForLoadLib</text>
</a>
</g>
</g>
<!-- Node157&#45;&gt;Node161 -->
<g id="edge16" class="edge">
<title>Node157&#45;&gt;Node161</title>
<path fill="none" stroke="#191970" d="M773.877,-88.4654C793.6216,-83.2917 815.9058,-77.4525 836.3578,-72.0934"/>
<polygon fill="#191970" stroke="#191970" points="837.4453,-75.4267 846.2315,-69.5062 835.6709,-68.6553 837.4453,-75.4267"/>
</g>
<!-- Node165 -->
<g id="node20" class="node">
<title>Node165</title>
<g id="a_node20"><a xlink:href="class_chimera_t_k_1_1_d_map_file_parser.html#a6a14373d71237411082ba2d86894e646" target="_top" xlink:title="ChimeraTK::DMapFileParser\l::parseRegularLine">
<polygon fill="#ffffff" stroke="#000000" points="828,-88.5 828,-118.5 979,-118.5 979,-88.5 828,-88.5"/>
<text text-anchor="start" x="836" y="-106.5" font-family="Helvetica,sans-Serif" font-size="10.00" fill="#000000">ChimeraTK::DMapFileParser</text>
<text text-anchor="middle" x="903.5" y="-95.5" font-family="Helvetica,sans-Serif" font-size="10.00" fill="#000000">::parseRegularLine</text>
</a>
</g>
</g>
<!-- Node157&#45;&gt;Node165 -->
<g id="edge22" class="edge">
<title>Node157&#45;&gt;Node165</title>
<path fill="none" stroke="#191970" d="M792.021,-103.5C800.4724,-103.5 809.1275,-103.5 817.6957,-103.5"/>
<polygon fill="#191970" stroke="#191970" points="817.6969,-107.0001 827.6969,-103.5 817.6969,-100.0001 817.6969,-107.0001"/>
</g>
<!-- Node159 -->
<g id="node14" class="node">
<title>Node159</title>
<g id="a_node14"><a xlink:href="namespace_chimera_t_k_1_1parser_utilities.html#aa12c9ae1b43184cbb38d56f9aec8f630" target="_top" xlink:title="Concatenates two given paths using custom rules. ">
<polygon fill="#ffffff" stroke="#000000" points="1390.5,-64.5 1390.5,-94.5 1536.5,-94.5 1536.5,-64.5 1390.5,-64.5"/>
<text text-anchor="start" x="1398.5" y="-82.5" font-family="Helvetica,sans-Serif" font-size="10.00" fill="#000000">ChimeraTK::parserUtilities</text>
<text text-anchor="middle" x="1463.5" y="-71.5" font-family="Helvetica,sans-Serif" font-size="10.00" fill="#000000">::concatenatePaths</text>
</a>
</g>
</g>
<!-- Node158&#45;&gt;Node159 -->
<g id="edge14" class="edge">
<title>Node158&#45;&gt;Node159</title>
<path fill="none" stroke="#191970" d="M1332.8372,-113.4654C1352.7402,-108.2917 1375.2032,-102.4525 1395.8192,-97.0934"/>
<polygon fill="#191970" stroke="#191970" points="1396.9743,-100.4095 1405.7721,-94.5062 1395.2132,-93.6347 1396.9743,-100.4095"/>
</g>
<!-- Node160 -->
<g id="node15" class="node">
<title>Node160</title>
<g id="a_node15"><a xlink:href="namespace_chimera_t_k_1_1parser_utilities.html#a529f65d15e870ea369edaa98ad14ec84" target="_top" xlink:title="Returns absolute path to current working directory. The returned path ends with a forward slash...">
<polygon fill="#ffffff" stroke="#000000" points="1384,-113.5 1384,-143.5 1543,-143.5 1543,-113.5 1384,-113.5"/>
<text text-anchor="start" x="1392" y="-131.5" font-family="Helvetica,sans-Serif" font-size="10.00" fill="#000000">ChimeraTK::parserUtilities</text>
<text text-anchor="middle" x="1463.5" y="-120.5" font-family="Helvetica,sans-Serif" font-size="10.00" fill="#000000">::getCurrentWorkingDirectory</text>
</a>
</g>
</g>
<!-- Node158&#45;&gt;Node160 -->
<g id="edge15" class="edge">
<title>Node158&#45;&gt;Node160</title>
<path fill="none" stroke="#191970" d="M1348.1488,-128.5C1356.554,-128.5 1365.1952,-128.5 1373.7861,-128.5"/>
<polygon fill="#191970" stroke="#191970" points="1373.8307,-132.0001 1383.8306,-128.5 1373.8306,-125.0001 1373.8307,-132.0001"/>
</g>
<!-- Node162 -->
<g id="node17" class="node">
<title>Node162</title>
<g id="a_node17"><a xlink:href="class_chimera_t_k_1_1_d_map_file_parser.html#acf85a1a19c1c9e4a3d06c17256e6e31c" target="_top" xlink:title="ChimeraTK::DMapFileParser\l::absPathOfDMapContent">
<polygon fill="#ffffff" stroke="#000000" points="1015,-20.5 1015,-50.5 1166,-50.5 1166,-20.5 1015,-20.5"/>
<text text-anchor="start" x="1023" y="-38.5" font-family="Helvetica,sans-Serif" font-size="10.00" fill="#000000">ChimeraTK::DMapFileParser</text>
<text text-anchor="middle" x="1090.5" y="-27.5" font-family="Helvetica,sans-Serif" font-size="10.00" fill="#000000">::absPathOfDMapContent</text>
</a>
</g>
</g>
<!-- Node161&#45;&gt;Node162 -->
<g id="edge17" class="edge">
<title>Node161&#45;&gt;Node162</title>
<path fill="none" stroke="#191970" d="M979.021,-46.8267C987.4724,-45.968 996.1275,-45.0887 1004.6957,-44.2181"/>
<polygon fill="#191970" stroke="#191970" points="1005.1019,-47.6949 1014.6969,-43.2019 1004.3943,-40.7308 1005.1019,-47.6949"/>
</g>
<!-- Node164 -->
<g id="node19" class="node">
<title>Node164</title>
<g id="a_node19"><a xlink:href="class_chimera_t_k_1_1_d_map_file_parser.html#aa26fc8c7291f2aa8cb393b25f61f6074" target="_top" xlink:title="ChimeraTK::DMapFileParser\l::raiseException">
<polygon fill="#ffffff" stroke="#000000" points="1015,-69.5 1015,-99.5 1166,-99.5 1166,-69.5 1015,-69.5"/>
<text text-anchor="start" x="1023" y="-87.5" font-family="Helvetica,sans-Serif" font-size="10.00" fill="#000000">ChimeraTK::DMapFileParser</text>
<text text-anchor="middle" x="1090.5" y="-76.5" font-family="Helvetica,sans-Serif" font-size="10.00" fill="#000000">::raiseException</text>
</a>
</g>
</g>
<!-- Node161&#45;&gt;Node164 -->
<g id="edge21" class="edge">
<title>Node161&#45;&gt;Node164</title>
<path fill="none" stroke="#191970" d="M979.021,-66.6157C987.4724,-67.9715 996.1275,-69.36 1004.6957,-70.7346"/>
<polygon fill="#191970" stroke="#191970" points="1004.2687,-74.2108 1014.6969,-72.3391 1005.3776,-67.2992 1004.2687,-74.2108"/>
</g>
<!-- Node162&#45;&gt;Node158 -->
<g id="edge18" class="edge">
<title>Node162&#45;&gt;Node158</title>
<path fill="none" stroke="#191970" d="M1147.7667,-50.6494C1154.102,-53.2115 1160.3115,-56.1494 1166,-59.5 1184.9628,-70.6695 1183.8605,-81.038 1202,-93.5 1210.254,-99.1706 1219.5682,-104.3959 1228.7131,-108.9845"/>
<polygon fill="#191970" stroke="#191970" points="1227.2293,-112.1546 1237.7561,-113.3537 1230.2747,-105.8518 1227.2293,-112.1546"/>
</g>
<!-- Node162&#45;&gt;Node159 -->
<g id="edge20" class="edge">
<title>Node162&#45;&gt;Node159</title>
<path fill="none" stroke="#191970" d="M1153.0318,-50.5195C1168.9271,-53.9067 1186.0296,-57.1814 1202,-59.5 1261.2462,-68.1014 1328.6161,-73.1431 1380.1359,-76.0128"/>
<polygon fill="#191970" stroke="#191970" points="1380.047,-79.513 1390.2215,-76.5582 1380.4251,-72.5232 1380.047,-79.513"/>
</g>
<!-- Node163 -->
<g id="node18" class="node">
<title>Node163</title>
<g id="a_node18"><a xlink:href="namespace_chimera_t_k_1_1parser_utilities.html#a91ebf0d4263ce92117ee4f260cdd5edf" target="_top" xlink:title="Returns the path to the directory containing the file provided as the input parameter. ">
<polygon fill="#ffffff" stroke="#000000" points="1202,-20.5 1202,-50.5 1348,-50.5 1348,-20.5 1202,-20.5"/>
<text text-anchor="start" x="1210" y="-38.5" font-family="Helvetica,sans-Serif" font-size="10.00" fill="#000000">ChimeraTK::parserUtilities</text>
<text text-anchor="middle" x="1275" y="-27.5" font-family="Helvetica,sans-Serif" font-size="10.00" fill="#000000">::extractDirectory</text>
</a>
</g>
</g>
<!-- Node162&#45;&gt;Node163 -->
<g id="edge19" class="edge">
<title>Node162&#45;&gt;Node163</title>
<path fill="none" stroke="#191970" d="M1166.0756,-35.5C1174.5873,-35.5 1183.2949,-35.5 1191.8955,-35.5"/>
<polygon fill="#191970" stroke="#191970" points="1191.9245,-39.0001 1201.9244,-35.5 1191.9244,-32.0001 1191.9245,-39.0001"/>
</g>
<!-- Node165&#45;&gt;Node158 -->
<g id="edge23" class="edge">
<title>Node165&#45;&gt;Node158</title>
<path fill="none" stroke="#191970" d="M979.1264,-108.5893C1040.8485,-112.7428 1127.9599,-118.605 1191.6771,-122.8928"/>
<polygon fill="#191970" stroke="#191970" points="1191.4825,-126.3875 1201.695,-123.567 1191.9526,-119.4033 1191.4825,-126.3875"/>
</g>
<!-- Node165&#45;&gt;Node162 -->
<g id="edge24" class="edge">
<title>Node165&#45;&gt;Node162</title>
<path fill="none" stroke="#191970" d="M953.0807,-88.3904C961.8117,-85.3601 970.743,-82.0172 979,-78.5 995.6445,-71.4099 998.3133,-66.4902 1015,-59.5 1019.6383,-57.557 1024.4917,-55.6794 1029.4042,-53.8883"/>
<polygon fill="#191970" stroke="#191970" points="1030.61,-57.1744 1038.8831,-50.5557 1028.2883,-50.5706 1030.61,-57.1744"/>
</g>
<!-- Node165&#45;&gt;Node164 -->
<g id="edge25" class="edge">
<title>Node165&#45;&gt;Node164</title>
<path fill="none" stroke="#191970" d="M979.021,-95.8267C987.4724,-94.968 996.1275,-94.0887 1004.6957,-93.2181"/>
<polygon fill="#191970" stroke="#191970" points="1005.1019,-96.6949 1014.6969,-92.2019 1004.3943,-89.7308 1005.1019,-96.6949"/>
</g>
</g>
</svg>
        <g id="navigator" transform="translate(0 0)" fill="#404254">
                <rect fill="#f2f5e9" fill-opacity="0.5" stroke="#606060" stroke-width=".5" x="0" y="0" width="60" height="60"/>
                <use id="zoomplus" xlink:href="#zoomPlus" x="17" y="9" onmousedown="handleZoom(evt,'in')"/>
                <use id="zoomminus" xlink:href="#zoomMin" x="42" y="9" onmousedown="handleZoom(evt,'out')"/>
                <use id="reset" xlink:href="#resetDef" x="30" y="36" onmousedown="handleReset()"/>
                <g id="arrowUp" xlink:href="#dirArrow" transform="translate(30 24)" onmousedown="handlePan(0,-1)">
                  <use xlink:href="#rim" fill="#404040">
                        <set attributeName="fill" to="#808080" begin="arrowUp.mouseover" end="arrowUp.mouseout"/>
                  </use>
                  <path fill="none" stroke="white" stroke-width="1.5" d="M0,-3.0v7 M-2.5,-0.5L0,-3.0L2.5,-0.5"/>
                </g>
                <g id="arrowRight" xlink:href="#dirArrow" transform="rotate(90) translate(36 -43)" onmousedown="handlePan(1,0)">
                  <use xlink:href="#rim" fill="#404040">
                        <set attributeName="fill" to="#808080" begin="arrowRight.mouseover" end="arrowRight.mouseout"/>
                  </use>
                  <path fill="none" stroke="white" stroke-width="1.5" d="M0,-3.0v7 M-2.5,-0.5L0,-3.0L2.5,-0.5"/>
                </g>
                <g id="arrowDown" xlink:href="#dirArrow" transform="rotate(180) translate(-30 -48)" onmousedown="handlePan(0,1)">
                  <use xlink:href="#rim" fill="#404040">
                        <set attributeName="fill" to="#808080" begin="arrowDown.mouseover" end="arrowDown.mouseout"/>
                  </use>
                  <path fill="none" stroke="white" stroke-width="1.5" d="M0,-3.0v7 M-2.5,-0.5L0,-3.0L2.5,-0.5"/>
                </g>
                <g id="arrowLeft" xlink:href="#dirArrow" transform="rotate(270) translate(-36 17)" onmousedown="handlePan(-1,0)">
                  <use xlink:href="#rim" fill="#404040">
                        <set attributeName="fill" to="#808080" begin="arrowLeft.mouseover" end="arrowLeft.mouseout"/>
                  </use>
                  <path fill="none" stroke="white" stroke-width="1.5" d="M0,-3.0v7 M-2.5,-0.5L0,-3.0L2.5,-0.5"/>
                </g>
        </g>
        <svg viewBox="0 0 15 15" width="100%" height="30px" preserveAspectRatio="xMaxYMin meet">
         <g id="arrow_out" transform="scale(0.3 0.3)">
          <a xlink:href="class_chimera_t_k_1_1_logical_name_mapping_backend_a6b020ac5ae848f98a0220c858d7808e7_cgraph_org.svg" target="_base">
           <rect id="button" ry="5" rx="5" y="6" x="6" height="38" width="38"
                fill="#f2f5e9" fill-opacity="0.5" stroke="#606060" stroke-width="1.0"/>
           <path id="arrow"
             d="M 11.500037,31.436501 C 11.940474,20.09759 22.043105,11.32322 32.158766,21.979434 L 37.068811,17.246167 C 37.068811,17.246167 37.088388,32 37.088388,32 L 22.160133,31.978069 C 22.160133,31.978069 26.997745,27.140456 26.997745,27.140456 C 18.528582,18.264221 13.291696,25.230495 11.500037,31.436501 z"
             style="fill:#404040;"/>
          </a>
         </g>
        </svg>
</svg>
