<?xml version="1.0" encoding="UTF-8" standalone="no"?>
<!DOCTYPE svg PUBLIC "-//W3C//DTD SVG 1.1//EN"
 "http://www.w3.org/Graphics/SVG/1.1/DTD/svg11.dtd">
<!-- Generated by graphviz version 2.43.0 (0)
 -->
<!-- Title: ChimeraTK::NumericAddressedBackendRegisterAccessor::setAsCooked_impl Pages: 1 -->
<svg width="410pt" height="61pt"
 viewBox="0.00 0.00 410.00 61.00" xmlns="http://www.w3.org/2000/svg" xmlns:xlink="http://www.w3.org/1999/xlink">
<g id="graph0" class="graph" transform="scale(1 1) rotate(0) translate(4 57)">
<title>ChimeraTK::NumericAddressedBackendRegisterAccessor::setAsCooked_impl</title>
<polygon fill="white" stroke="transparent" points="-4,4 -4,-57 406,-57 406,4 -4,4"/>
<!-- Node1 -->
<g id="node1" class="node">
<title>Node1</title>
<g id="a_node1"><a xlink:title=" ">
<polygon fill="#bfbfbf" stroke="black" points="233,-6 233,-47 402,-47 402,-6 233,-6"/>
<text text-anchor="start" x="241" y="-35" font-family="Helvetica,sans-Serif" font-size="10.00">ChimeraTK::NumericAddressed</text>
<text text-anchor="start" x="241" y="-24" font-family="Helvetica,sans-Serif" font-size="10.00">BackendRegisterAccessor</text>
<text text-anchor="middle" x="317.5" y="-13" font-family="Helvetica,sans-Serif" font-size="10.00">::setAsCooked_impl</text>
</a>
</g>
</g>
<!-- Node2 -->
<g id="node2" class="node">
<title>Node2</title>
<g id="a_node2"><a xlink:href="class_chimera_t_k_1_1_numeric_addressed_backend_register_accessor.html#a1b8adbec76eb57a790ef011ebadb86a7" target="_top" xlink:title=" ">
<polygon fill="white" stroke="black" points="0,-0.5 0,-52.5 197,-52.5 197,-0.5 0,-0.5"/>
<text text-anchor="start" x="8" y="-40.5" font-family="Helvetica,sans-Serif" font-size="10.00">ChimeraTK::NumericAddressed</text>
<text text-anchor="start" x="8" y="-29.5" font-family="Helvetica,sans-Serif" font-size="10.00">BackendRegisterAccessor</text>
<text text-anchor="start" x="8" y="-18.5" font-family="Helvetica,sans-Serif" font-size="10.00">::NumericAddressedBackendRegister</text>
<text text-anchor="middle" x="98.5" y="-7.5" font-family="Helvetica,sans-Serif" font-size="10.00">Accessor</text>
</a>
</g>
</g>
<!-- Node1&#45;&gt;Node2 -->
<g id="edge1" class="edge">
<title>Node1&#45;&gt;Node2</title>
<path fill="none" stroke="midnightblue" d="M222.68,-26.5C214.23,-26.5 205.65,-26.5 197.17,-26.5"/>
<polygon fill="midnightblue" stroke="midnightblue" points="222.91,-30 232.91,-26.5 222.91,-23 222.91,-30"/>
</g>
</g>
</svg>
