<?xml version="1.0" encoding="UTF-8" standalone="no"?>
<!DOCTYPE svg PUBLIC "-//W3C//DTD SVG 1.1//EN"
 "http://www.w3.org/Graphics/SVG/1.1/DTD/svg11.dtd">
<!-- Generated by graphviz version 2.40.1 (20161225.0304)
 -->
<!-- Title: ChimeraTK::LNMBackendBitAccessor::~LNMBackendBitAccessor Pages: 1 -->
<svg width="393pt" height="39pt"
 viewBox="0.00 0.00 393.00 39.00" xmlns="http://www.w3.org/2000/svg" xmlns:xlink="http://www.w3.org/1999/xlink">
<g id="graph0" class="graph" transform="scale(1 1) rotate(0) translate(4 35)">
<title>ChimeraTK::LNMBackendBitAccessor::~LNMBackendBitAccessor</title>
<polygon fill="#ffffff" stroke="transparent" points="-4,4 -4,-35 389,-35 389,4 -4,4"/>
<!-- Node6 -->
<g id="node1" class="node">
<title>Node6</title>
<polygon fill="#bfbfbf" stroke="#000000" points="0,-.5 0,-30.5 194,-30.5 194,-.5 0,-.5"/>
<text text-anchor="start" x="8" y="-18.5" font-family="Helvetica,sans-Serif" font-size="10.00" fill="#000000">ChimeraTK::LNMBackendBit</text>
<text text-anchor="middle" x="97" y="-7.5" font-family="Helvetica,sans-Serif" font-size="10.00" fill="#000000">Accessor::~LNMBackendBitAccessor</text>
</g>
<!-- Node7 -->
<g id="node2" class="node">
<title>Node7</title>
<g id="a_node2"><a xlink:href="class_chimera_t_k_1_1_sync_n_d_register_accessor.html#a4fe7dcd426667f3f5283fabad34f6576" target="_top" xlink:title="All implementations must call this function in their destructor. ">
<polygon fill="#ffffff" stroke="#000000" points="230,-.5 230,-30.5 385,-30.5 385,-.5 230,-.5"/>
<text text-anchor="start" x="238" y="-18.5" font-family="Helvetica,sans-Serif" font-size="10.00" fill="#000000">ChimeraTK::SyncNDRegister</text>
<text text-anchor="middle" x="307.5" y="-7.5" font-family="Helvetica,sans-Serif" font-size="10.00" fill="#000000">Accessor::shutdown</text>
</a>
</g>
</g>
<!-- Node6&#45;&gt;Node7 -->
<g id="edge1" class="edge">
<title>Node6&#45;&gt;Node7</title>
<path fill="none" stroke="#191970" d="M194.2398,-15.5C202.7408,-15.5 211.3118,-15.5 219.7294,-15.5"/>
<polygon fill="#191970" stroke="#191970" points="219.9059,-19.0001 229.9059,-15.5 219.9058,-12.0001 219.9059,-19.0001"/>
</g>
</g>
</svg>
