<?xml version="1.0" encoding="UTF-8" standalone="no"?>
<!DOCTYPE svg PUBLIC "-//W3C//DTD SVG 1.1//EN"
 "http://www.w3.org/Graphics/SVG/1.1/DTD/svg11.dtd">
<!-- Generated by graphviz version 2.43.0 (0)
 -->
<!-- Title: ChimeraTK::NumericAddressedRegisterInfo::NumericAddressedRegisterInfo Pages: 1 -->
<!--zoomable 320 -->
<svg id="main" version="1.1" xmlns="http://www.w3.org/2000/svg" xmlns:xlink="http://www.w3.org/1999/xlink" xml:space="preserve" onload="init(evt)">
<style type="text/css"><![CDATA[
.edge:hover path { stroke: red; }
.edge:hover polygon { stroke: red; fill: red; }
]]></style>
<script type="text/javascript"><![CDATA[
var edges = document.getElementsByTagName('g');
if (edges && edges.length) {
  for (var i=0;i<edges.length;i++) {
    if (edges[i].id.substr(0,4)=='edge') {
      edges[i].setAttribute('class','edge');
    }
  }
}
]]></script>
        <defs>
                <circle id="rim" cx="0" cy="0" r="7"/>
                <circle id="rim2" cx="0" cy="0" r="3.5"/>
                <g id="zoomPlus">
                        <use xlink:href="#rim" fill="#404040">
                                <set attributeName="fill" to="#808080" begin="zoomplus.mouseover" end="zoomplus.mouseout"/>
                        </use>
                        <path d="M-4,0h8M0,-4v8" fill="none" stroke="white" stroke-width="1.5" pointer-events="none"/>
                </g>
                <g id="zoomMin">
                        <use xlink:href="#rim" fill="#404040">
                                <set attributeName="fill" to="#808080" begin="zoomminus.mouseover" end="zoomminus.mouseout"/>
                        </use>
                        <path d="M-4,0h8" fill="none" stroke="white" stroke-width="1.5" pointer-events="none"/>
                </g>
                <g id="dirArrow">
                        <path fill="none" stroke="white" stroke-width="1.5" d="M0,-3.0v7 M-2.5,-0.5L0,-3.0L2.5,-0.5"/>
                </g>
               <g id="resetDef">
                       <use xlink:href="#rim2" fill="#404040">
                               <set attributeName="fill" to="#808080" begin="reset.mouseover" end="reset.mouseout"/>
                       </use>
               </g>
        </defs>

<script type="text/javascript">
var viewWidth = 949;
var viewHeight = 320;
var sectionId = 'dynsection-2';
</script>
<script xlink:href="svgpan.js"/>
<svg id="graph" class="graph">
<g id="viewport">
<title>ChimeraTK::NumericAddressedRegisterInfo::NumericAddressedRegisterInfo</title>
<polygon fill="white" stroke="transparent" points="-4,4 -4,-315.5 945,-315.5 945,4 -4,4"/>
<!-- Node1 -->
<g id="node1" class="node">
<title>Node1</title>
<g id="a_node1"><a xlink:title="Constructor to set all data members for scalar/1D registers.">
<polygon fill="#bfbfbf" stroke="black" points="708,-195.5 708,-225.5 941,-225.5 941,-195.5 708,-195.5"/>
<text text-anchor="start" x="716" y="-213.5" font-family="Helvetica,sans-Serif" font-size="10.00">ChimeraTK::NumericAddressed</text>
<text text-anchor="middle" x="824.5" y="-202.5" font-family="Helvetica,sans-Serif" font-size="10.00">RegisterInfo::NumericAddressedRegisterInfo</text>
</a>
</g>
</g>
<!-- Node2 -->
<g id="node2" class="node">
<title>Node2</title>
<g id="a_node2"><a xlink:href="class_chimera_t_k_1_1_numeric_addressed_register_info.html#ab219e756460272c9aaf2c77624d9975e" target="_top" xlink:title="Create copy of the object.">
<polygon fill="white" stroke="black" points="482.5,-220.5 482.5,-250.5 651.5,-250.5 651.5,-220.5 482.5,-220.5"/>
<text text-anchor="start" x="490.5" y="-238.5" font-family="Helvetica,sans-Serif" font-size="10.00">ChimeraTK::NumericAddressed</text>
<text text-anchor="middle" x="567" y="-227.5" font-family="Helvetica,sans-Serif" font-size="10.00">RegisterInfo::clone</text>
</a>
</g>
</g>
<!-- Node1&#45;&gt;Node2 -->
<g id="edge1" class="edge">
<title>Node1&#45;&gt;Node2</title>
<path fill="none" stroke="midnightblue" d="M697.51,-222.83C681.96,-224.35 666.38,-225.87 651.68,-227.31"/>
<polygon fill="midnightblue" stroke="midnightblue" points="698.1,-226.29 707.71,-221.83 697.42,-219.32 698.1,-226.29"/>
</g>
<!-- Node3 -->
<g id="node3" class="node">
<title>Node3</title>
<g id="a_node3"><a xlink:href="class_chimera_t_k_1_1_numeric_addressed_register_catalogue.html#a33ee63fb41be9df3080c8ebe527c4b75" target="_top" xlink:title="Note: Override this function if backend has &quot;hidden&quot; registers which are not added to the map and hen...">
<polygon fill="white" stroke="black" points="462,-171.5 462,-201.5 672,-201.5 672,-171.5 462,-171.5"/>
<text text-anchor="start" x="470" y="-189.5" font-family="Helvetica,sans-Serif" font-size="10.00">ChimeraTK::NumericAddressed</text>
<text text-anchor="middle" x="567" y="-178.5" font-family="Helvetica,sans-Serif" font-size="10.00">RegisterCatalogue::getBackendRegister</text>
</a>
</g>
</g>
<!-- Node1&#45;&gt;Node3 -->
<g id="edge2" class="edge">
<title>Node1&#45;&gt;Node3</title>
<path fill="none" stroke="midnightblue" d="M697.66,-198.68C689.09,-197.87 680.5,-197.07 672.06,-196.27"/>
<polygon fill="midnightblue" stroke="midnightblue" points="697.43,-202.17 707.71,-199.62 698.08,-195.2 697.43,-202.17"/>
</g>
<!-- Node4 -->
<g id="node4" class="node">
<title>Node4</title>
<g id="a_node4"><a xlink:href="class_chimera_t_k_1_1_dummy_multiplexed_register_accessor.html#abe08a02f0388872ac524c6c4ce6d7c32" target="_top" xlink:title="Constructor should normally be called in the constructor of the DummyBackend implementation.">
<polygon fill="white" stroke="black" points="223,-270 223,-311 426,-311 426,-270 223,-270"/>
<text text-anchor="start" x="231" y="-299" font-family="Helvetica,sans-Serif" font-size="10.00">ChimeraTK::DummyMultiplexed</text>
<text text-anchor="start" x="231" y="-288" font-family="Helvetica,sans-Serif" font-size="10.00">RegisterAccessor::DummyMultiplexed</text>
<text text-anchor="middle" x="324.5" y="-277" font-family="Helvetica,sans-Serif" font-size="10.00">RegisterAccessor</text>
</a>
</g>
</g>
<!-- Node3&#45;&gt;Node4 -->
<g id="edge3" class="edge">
<title>Node3&#45;&gt;Node4</title>
<path fill="none" stroke="midnightblue" d="M471.79,-205.78C468.4,-207.52 465.12,-209.43 462,-211.5 439.49,-226.46 448.09,-244.94 426,-260.5 420.94,-264.06 415.45,-267.21 409.73,-269.99"/>
<polygon fill="midnightblue" stroke="midnightblue" points="473.38,-208.9 480.98,-201.51 470.44,-202.54 473.38,-208.9"/>
</g>
<!-- Node5 -->
<g id="node5" class="node">
<title>Node5</title>
<g id="a_node5"><a xlink:href="class_chimera_t_k_1_1_dummy_register_accessor.html#aa306e8d93a3bb20f2680c601c54ebca0" target="_top" xlink:title="Constructor should normally be called in the constructor of the DummyBackend implementation.">
<polygon fill="white" stroke="black" points="230,-220.5 230,-250.5 419,-250.5 419,-220.5 230,-220.5"/>
<text text-anchor="start" x="238" y="-238.5" font-family="Helvetica,sans-Serif" font-size="10.00">ChimeraTK::DummyRegister</text>
<text text-anchor="middle" x="324.5" y="-227.5" font-family="Helvetica,sans-Serif" font-size="10.00">Accessor::DummyRegisterAccessor</text>
</a>
</g>
</g>
<!-- Node3&#45;&gt;Node5 -->
<g id="edge4" class="edge">
<title>Node3&#45;&gt;Node5</title>
<path fill="none" stroke="midnightblue" d="M482.36,-203.54C455.28,-209.06 425.46,-215.13 399.15,-220.49"/>
<polygon fill="midnightblue" stroke="midnightblue" points="483.11,-206.96 492.21,-201.53 481.71,-200.1 483.11,-206.96"/>
</g>
<!-- Node6 -->
<g id="node6" class="node">
<title>Node6</title>
<g id="a_node6"><a xlink:href="class_chimera_t_k_1_1_dummy_backend_register_catalogue.html#a68ac3973fa455d92cc618a08e5bebda4" target="_top" xlink:title="Note: Override this function if backend has &quot;hidden&quot; registers which are not added to the map and hen...">
<polygon fill="white" stroke="black" points="226,-171.5 226,-201.5 423,-201.5 423,-171.5 226,-171.5"/>
<text text-anchor="start" x="234" y="-189.5" font-family="Helvetica,sans-Serif" font-size="10.00">ChimeraTK::DummyBackendRegister</text>
<text text-anchor="middle" x="324.5" y="-178.5" font-family="Helvetica,sans-Serif" font-size="10.00">Catalogue::getBackendRegister</text>
</a>
</g>
</g>
<!-- Node3&#45;&gt;Node6 -->
<g id="edge5" class="edge">
<title>Node3&#45;&gt;Node6</title>
<path fill="none" stroke="midnightblue" d="M451.65,-186.5C442.17,-186.5 432.64,-186.5 423.29,-186.5"/>
<polygon fill="midnightblue" stroke="midnightblue" points="451.91,-190 461.91,-186.5 451.91,-183 451.91,-190"/>
</g>
<!-- Node7 -->
<g id="node7" class="node">
<title>Node7</title>
<g id="a_node7"><a xlink:href="class_chimera_t_k_1_1_numeric_addressed_backend.html#a5395e67e4d9c77c09826a0adb572ec01" target="_top" xlink:title=" ">
<polygon fill="white" stroke="black" points="229,-122.5 229,-152.5 420,-152.5 420,-122.5 229,-122.5"/>
<text text-anchor="start" x="237" y="-140.5" font-family="Helvetica,sans-Serif" font-size="10.00">ChimeraTK::NumericAddressed</text>
<text text-anchor="middle" x="324.5" y="-129.5" font-family="Helvetica,sans-Serif" font-size="10.00">Backend::getRegisterAccessor_impl</text>
</a>
</g>
</g>
<!-- Node3&#45;&gt;Node7 -->
<g id="edge6" class="edge">
<title>Node3&#45;&gt;Node7</title>
<path fill="none" stroke="midnightblue" d="M482.36,-169.46C455.28,-163.94 425.46,-157.87 399.15,-152.51"/>
<polygon fill="midnightblue" stroke="midnightblue" points="481.71,-172.9 492.21,-171.47 483.11,-166.04 481.71,-172.9"/>
</g>
<!-- Node8 -->
<g id="node8" class="node">
<title>Node8</title>
<g id="a_node8"><a xlink:href="class_chimera_t_k_1_1_numeric_addressed_backend.html#a7600cc77c2eab2b3e8d82d4bf6a31e20" target="_top" xlink:title="getRegisterInfo returns a NumericAddressedRegisterInfo object for the given register.">
<polygon fill="white" stroke="black" points="240,-73.5 240,-103.5 409,-103.5 409,-73.5 240,-73.5"/>
<text text-anchor="start" x="248" y="-91.5" font-family="Helvetica,sans-Serif" font-size="10.00">ChimeraTK::NumericAddressed</text>
<text text-anchor="middle" x="324.5" y="-80.5" font-family="Helvetica,sans-Serif" font-size="10.00">Backend::getRegisterInfo</text>
</a>
</g>
</g>
<!-- Node3&#45;&gt;Node8 -->
<g id="edge7" class="edge">
<title>Node3&#45;&gt;Node8</title>
<path fill="none" stroke="midnightblue" d="M532.66,-166.24C504.93,-150.1 464,-127.9 426,-113.5 416.16,-109.77 405.58,-106.44 395.09,-103.53"/>
<polygon fill="midnightblue" stroke="midnightblue" points="531.14,-169.41 541.54,-171.46 534.69,-163.37 531.14,-169.41"/>
</g>
<!-- Node9 -->
<g id="node9" class="node">
<title>Node9</title>
<g id="a_node9"><a xlink:href="class_chimera_t_k_1_1_exception_dummy.html#a3b9d8307fb2ba845e1ac817952ad70a0" target="_top" xlink:title="Specific override which allows to create push&#45;type accessors.">
<polygon fill="white" stroke="black" points="11.5,-147.5 11.5,-177.5 175.5,-177.5 175.5,-147.5 11.5,-147.5"/>
<text text-anchor="start" x="19.5" y="-165.5" font-family="Helvetica,sans-Serif" font-size="10.00">ChimeraTK::ExceptionDummy</text>
<text text-anchor="middle" x="93.5" y="-154.5" font-family="Helvetica,sans-Serif" font-size="10.00">::getRegisterAccessor_impl</text>
</a>
</g>
</g>
<!-- Node8&#45;&gt;Node9 -->
<g id="edge8" class="edge">
<title>Node8&#45;&gt;Node9</title>
<path fill="none" stroke="midnightblue" d="M239.88,-106.79C234.08,-108.82 228.4,-111.05 223,-113.5 205.26,-121.54 204.7,-130.37 187,-138.5 179.61,-141.89 171.66,-144.86 163.64,-147.45"/>
<polygon fill="midnightblue" stroke="midnightblue" points="241.3,-110 249.71,-103.56 239.12,-103.35 241.3,-110"/>
</g>
<!-- Node10 -->
<g id="node10" class="node">
<title>Node10</title>
<g id="a_node10"><a xlink:href="class_chimera_t_k_1_1_numeric_addressed_backend.html#a50051306c894331b0f0c7ec3fe6d3c0f" target="_top" xlink:title=" ">
<polygon fill="white" stroke="black" points="0,-98.5 0,-128.5 187,-128.5 187,-98.5 0,-98.5"/>
<text text-anchor="start" x="8" y="-116.5" font-family="Helvetica,sans-Serif" font-size="10.00">ChimeraTK::NumericAddressed</text>
<text text-anchor="middle" x="93.5" y="-105.5" font-family="Helvetica,sans-Serif" font-size="10.00">Backend::getSyncRegisterAccessor</text>
</a>
</g>
</g>
<!-- Node8&#45;&gt;Node10 -->
<g id="edge9" class="edge">
<title>Node8&#45;&gt;Node10</title>
<path fill="none" stroke="midnightblue" d="M229.72,-98.74C215.68,-100.27 201.22,-101.85 187.2,-103.38"/>
<polygon fill="midnightblue" stroke="midnightblue" points="230.29,-102.2 239.85,-97.63 229.53,-95.24 230.29,-102.2"/>
</g>
<!-- Node11 -->
<g id="node11" class="node">
<title>Node11</title>
<g id="a_node11"><a xlink:href="class_chimera_t_k_1_1_exception_dummy.html#ac86bf7b958e3125e344876afd28e9861" target="_top" xlink:title="Function to obtain the number of writes of a register since the creation of the backend.">
<polygon fill="white" stroke="black" points="11.5,-49.5 11.5,-79.5 175.5,-79.5 175.5,-49.5 11.5,-49.5"/>
<text text-anchor="start" x="19.5" y="-67.5" font-family="Helvetica,sans-Serif" font-size="10.00">ChimeraTK::ExceptionDummy</text>
<text text-anchor="middle" x="93.5" y="-56.5" font-family="Helvetica,sans-Serif" font-size="10.00">::getWriteCount</text>
</a>
</g>
</g>
<!-- Node8&#45;&gt;Node11 -->
<g id="edge10" class="edge">
<title>Node8&#45;&gt;Node11</title>
<path fill="none" stroke="midnightblue" d="M229.68,-78.67C211.75,-76.79 193.12,-74.84 175.63,-73"/>
<polygon fill="midnightblue" stroke="midnightblue" points="229.54,-82.17 239.85,-79.73 230.27,-75.21 229.54,-82.17"/>
</g>
<!-- Node12 -->
<g id="node12" class="node">
<title>Node12</title>
<g id="a_node12"><a xlink:href="class_chimera_t_k_1_1_exception_dummy.html#a9e9dbeb58711d364acdd49d327bee099" target="_top" xlink:title="Function to obtain the write order number of a register.">
<polygon fill="white" stroke="black" points="11.5,-0.5 11.5,-30.5 175.5,-30.5 175.5,-0.5 11.5,-0.5"/>
<text text-anchor="start" x="19.5" y="-18.5" font-family="Helvetica,sans-Serif" font-size="10.00">ChimeraTK::ExceptionDummy</text>
<text text-anchor="middle" x="93.5" y="-7.5" font-family="Helvetica,sans-Serif" font-size="10.00">::getWriteOrder</text>
</a>
</g>
</g>
<!-- Node8&#45;&gt;Node12 -->
<g id="edge11" class="edge">
<title>Node8&#45;&gt;Node12</title>
<path fill="none" stroke="midnightblue" d="M273.62,-69.96C247.9,-60.65 215.93,-49.48 187,-40.5 176.04,-37.1 164.27,-33.71 152.92,-30.58"/>
<polygon fill="midnightblue" stroke="midnightblue" points="272.55,-73.3 283.15,-73.42 274.95,-66.72 272.55,-73.3"/>
</g>
</g>
</svg>
        <g id="navigator" transform="translate(0 0)" fill="#404254">
                <rect fill="#f2f5e9" fill-opacity="0.5" stroke="#606060" stroke-width=".5" x="0" y="0" width="60" height="60"/>
                <use id="zoomplus" xlink:href="#zoomPlus" x="17" y="9" onmousedown="handleZoom(evt,'in')"/>
                <use id="zoomminus" xlink:href="#zoomMin" x="42" y="9" onmousedown="handleZoom(evt,'out')"/>
                <use id="reset" xlink:href="#resetDef" x="30" y="36" onmousedown="handleReset()"/>
                <g id="arrowUp" xlink:href="#dirArrow" transform="translate(30 24)" onmousedown="handlePan(0,-1)">
                  <use xlink:href="#rim" fill="#404040">
                        <set attributeName="fill" to="#808080" begin="arrowUp.mouseover" end="arrowUp.mouseout"/>
                  </use>
                  <path fill="none" stroke="white" stroke-width="1.5" d="M0,-3.0v7 M-2.5,-0.5L0,-3.0L2.5,-0.5"/>
                </g>
                <g id="arrowRight" xlink:href="#dirArrow" transform="rotate(90) translate(36 -43)" onmousedown="handlePan(1,0)">
                  <use xlink:href="#rim" fill="#404040">
                        <set attributeName="fill" to="#808080" begin="arrowRight.mouseover" end="arrowRight.mouseout"/>
                  </use>
                  <path fill="none" stroke="white" stroke-width="1.5" d="M0,-3.0v7 M-2.5,-0.5L0,-3.0L2.5,-0.5"/>
                </g>
                <g id="arrowDown" xlink:href="#dirArrow" transform="rotate(180) translate(-30 -48)" onmousedown="handlePan(0,1)">
                  <use xlink:href="#rim" fill="#404040">
                        <set attributeName="fill" to="#808080" begin="arrowDown.mouseover" end="arrowDown.mouseout"/>
                  </use>
                  <path fill="none" stroke="white" stroke-width="1.5" d="M0,-3.0v7 M-2.5,-0.5L0,-3.0L2.5,-0.5"/>
                </g>
                <g id="arrowLeft" xlink:href="#dirArrow" transform="rotate(270) translate(-36 17)" onmousedown="handlePan(-1,0)">
                  <use xlink:href="#rim" fill="#404040">
                        <set attributeName="fill" to="#808080" begin="arrowLeft.mouseover" end="arrowLeft.mouseout"/>
                  </use>
                  <path fill="none" stroke="white" stroke-width="1.5" d="M0,-3.0v7 M-2.5,-0.5L0,-3.0L2.5,-0.5"/>
                </g>
        </g>
        <svg viewBox="0 0 15 15" width="100%" height="30px" preserveAspectRatio="xMaxYMin meet">
         <g id="arrow_out" transform="scale(0.3 0.3)">
          <a xlink:href="class_chimera_t_k_1_1_numeric_addressed_register_info_a5ef157d98d5fae487a1cd08f720778b7_icgraph_org.svg" target="_base">
           <rect id="button" ry="5" rx="5" y="6" x="6" height="38" width="38"
                fill="#f2f5e9" fill-opacity="0.5" stroke="#606060" stroke-width="1.0"/>
           <path id="arrow"
             d="M 11.500037,31.436501 C 11.940474,20.09759 22.043105,11.32322 32.158766,21.979434 L 37.068811,17.246167 C 37.068811,17.246167 37.088388,32 37.088388,32 L 22.160133,31.978069 C 22.160133,31.978069 26.997745,27.140456 26.997745,27.140456 C 18.528582,18.264221 13.291696,25.230495 11.500037,31.436501 z"
             style="fill:#404040;"/>
          </a>
         </g>
        </svg>
</svg>
