<?xml version="1.0" encoding="UTF-8" standalone="no"?>
<!DOCTYPE svg PUBLIC "-//W3C//DTD SVG 1.1//EN"
 "http://www.w3.org/Graphics/SVG/1.1/DTD/svg11.dtd">
<!-- Generated by graphviz version 2.40.1 (20161225.0304)
 -->
<!-- Title: device_backends/include/TransferElement.h Pages: 1 -->
<!--zoomable 474 -->
<svg id="main" version="1.1" xmlns="http://www.w3.org/2000/svg" xmlns:xlink="http://www.w3.org/1999/xlink" xml:space="preserve" onload="init(evt)">
<style type="text/css"><![CDATA[
.edge:hover path { stroke: red; }
.edge:hover polygon { stroke: red; fill: red; }
]]></style>
<script type="text/javascript"><![CDATA[
var edges = document.getElementsByTagName('g');
if (edges && edges.length) {
  for (var i=0;i<edges.length;i++) {
    if (edges[i].id.substr(0,4)=='edge') {
      edges[i].setAttribute('class','edge');
    }
  }
}
]]></script>
        <defs>
                <circle id="rim" cx="0" cy="0" r="7"/>
                <circle id="rim2" cx="0" cy="0" r="3.5"/>
                <g id="zoomPlus">
                        <use xlink:href="#rim" fill="#404040">
                                <set attributeName="fill" to="#808080" begin="zoomplus.mouseover" end="zoomplus.mouseout"/>
                        </use>
                        <path d="M-4,0h8M0,-4v8" fill="none" stroke="white" stroke-width="1.5" pointer-events="none"/>
                </g>
                <g id="zoomMin">
                        <use xlink:href="#rim" fill="#404040">
                                <set attributeName="fill" to="#808080" begin="zoomminus.mouseover" end="zoomminus.mouseout"/>
                        </use>
                        <path d="M-4,0h8" fill="none" stroke="white" stroke-width="1.5" pointer-events="none"/>
                </g>
                <g id="dirArrow">
                        <path fill="none" stroke="white" stroke-width="1.5" d="M0,-3.0v7 M-2.5,-0.5L0,-3.0L2.5,-0.5"/>
                </g>
               <g id="resetDef">
                       <use xlink:href="#rim2" fill="#404040">
                               <set attributeName="fill" to="#808080" begin="reset.mouseover" end="reset.mouseout"/>
                       </use>
               </g>
        </defs>

<script type="text/javascript">
var viewWidth = 1300;
var viewHeight = 474;
var sectionId = 'dynsection-1';
</script>
<script xlink:href="svgpan.js"/>
<svg id="graph" class="graph">
<g id="viewport">
<title>device_backends/include/TransferElement.h</title>
<polygon fill="#ffffff" stroke="transparent" points="-4,4 -4,-470 1295.5,-470 1295.5,4 -4,4"/>
<!-- Node26 -->
<g id="node1" class="node">
<title>Node26</title>
<polygon fill="#bfbfbf" stroke="#000000" points="255.5,-435.5 255.5,-465.5 394.5,-465.5 394.5,-435.5 255.5,-435.5"/>
<text text-anchor="start" x="263.5" y="-453.5" font-family="Helvetica,sans-Serif" font-size="10.00" fill="#000000">device_backends/include</text>
<text text-anchor="middle" x="325" y="-442.5" font-family="Helvetica,sans-Serif" font-size="10.00" fill="#000000">/TransferElement.h</text>
</g>
<!-- Node27 -->
<g id="node2" class="node">
<title>Node27</title>
<g id="a_node2"><a xlink:href="device__backends_2include_2_n_d_register_accessor_8h.html" target="_top" xlink:title="device_backends/include\l/NDRegisterAccessor.h">
<polygon fill="#ffffff" stroke="#000000" points="255.5,-363 255.5,-393 394.5,-393 394.5,-363 255.5,-363"/>
<text text-anchor="start" x="263.5" y="-381" font-family="Helvetica,sans-Serif" font-size="10.00" fill="#000000">device_backends/include</text>
<text text-anchor="middle" x="325" y="-370" font-family="Helvetica,sans-Serif" font-size="10.00" fill="#000000">/NDRegisterAccessor.h</text>
</a>
</g>
</g>
<!-- Node26&#45;&gt;Node27 -->
<g id="edge1" class="edge">
<title>Node26&#45;&gt;Node27</title>
<path fill="none" stroke="#191970" d="M325,-425.3409C325,-414.5601 325,-402.3309 325,-393.0028"/>
<polygon fill="#191970" stroke="#191970" points="321.5001,-425.4779 325,-435.478 328.5001,-425.478 321.5001,-425.4779"/>
</g>
<!-- Node29 -->
<g id="node4" class="node">
<title>Node29</title>
<g id="a_node4"><a xlink:href="device__backends_2include_2_copy_register_decorator_8h.html" target="_top" xlink:title="device_backends/include\l/CopyRegisterDecorator.h">
<polygon fill="#ffffff" stroke="#000000" points="0,-212.5 0,-242.5 140,-242.5 140,-212.5 0,-212.5"/>
<text text-anchor="start" x="8" y="-230.5" font-family="Helvetica,sans-Serif" font-size="10.00" fill="#000000">device_backends/include</text>
<text text-anchor="middle" x="70" y="-219.5" font-family="Helvetica,sans-Serif" font-size="10.00" fill="#000000">/CopyRegisterDecorator.h</text>
</a>
</g>
</g>
<!-- Node26&#45;&gt;Node29 -->
<g id="edge21" class="edge">
<title>Node26&#45;&gt;Node29</title>
<path fill="none" stroke="#191970" d="M245.3947,-439.6483C175.5954,-425.461 78.1194,-393.2429 31,-321 14.3773,-295.5143 38.0318,-261.7745 55.1175,-242.5754"/>
<polygon fill="#191970" stroke="#191970" points="244.9981,-443.1368 255.4828,-441.6133 246.3365,-436.2659 244.9981,-443.1368"/>
</g>
<!-- Node45 -->
<g id="node20" class="node">
<title>Node45</title>
<g id="a_node20"><a xlink:href="device__backends_2include_2_numeric_addressed_low_level_transfer_element_8h.html" target="_top" xlink:title="device_backends/include\l/NumericAddressedLowLevelTransfer\lElement.h">
<polygon fill="#ffffff" stroke="#000000" points="423.5,-357.5 423.5,-398.5 620.5,-398.5 620.5,-357.5 423.5,-357.5"/>
<text text-anchor="start" x="431.5" y="-386.5" font-family="Helvetica,sans-Serif" font-size="10.00" fill="#000000">device_backends/include</text>
<text text-anchor="start" x="431.5" y="-375.5" font-family="Helvetica,sans-Serif" font-size="10.00" fill="#000000">/NumericAddressedLowLevelTransfer</text>
<text text-anchor="middle" x="522" y="-364.5" font-family="Helvetica,sans-Serif" font-size="10.00" fill="#000000">Element.h</text>
</a>
</g>
</g>
<!-- Node26&#45;&gt;Node45 -->
<g id="edge22" class="edge">
<title>Node26&#45;&gt;Node45</title>
<path fill="none" stroke="#191970" d="M375.3432,-431.9727C403.1296,-421.7467 437.6973,-409.0251 466.2925,-398.5015"/>
<polygon fill="#191970" stroke="#191970" points="373.9944,-428.7395 365.8185,-435.478 376.412,-435.3088 373.9944,-428.7395"/>
</g>
<!-- Node28 -->
<g id="node3" class="node">
<title>Node28</title>
<g id="a_node3"><a xlink:href="device__backends_2include_2_n_d_register_accessor_decorator_8h.html" target="_top" xlink:title="device_backends/include\l/NDRegisterAccessorDecorator.h">
<polygon fill="#ffffff" stroke="#000000" points="40,-285 40,-315 214,-315 214,-285 40,-285"/>
<text text-anchor="start" x="48" y="-303" font-family="Helvetica,sans-Serif" font-size="10.00" fill="#000000">device_backends/include</text>
<text text-anchor="middle" x="127" y="-292" font-family="Helvetica,sans-Serif" font-size="10.00" fill="#000000">/NDRegisterAccessorDecorator.h</text>
</a>
</g>
</g>
<!-- Node27&#45;&gt;Node28 -->
<g id="edge2" class="edge">
<title>Node27&#45;&gt;Node28</title>
<path fill="none" stroke="#191970" d="M277.4684,-359.2754C243.1514,-345.7566 197.4051,-327.7354 165.3965,-315.1259"/>
<polygon fill="#191970" stroke="#191970" points="276.2367,-362.5519 286.8236,-362.9608 278.8024,-356.0391 276.2367,-362.5519"/>
</g>
<!-- Node30 -->
<g id="node5" class="node">
<title>Node30</title>
<g id="a_node5"><a xlink:href="device__backends_2include_2_numeric_addressed_backend_register_accessor_8h.html" target="_top" xlink:title="device_backends/include\l/NumericAddressedBackendRegister\lAccessor.h">
<polygon fill="#ffffff" stroke="#000000" points="436,-279.5 436,-320.5 630,-320.5 630,-279.5 436,-279.5"/>
<text text-anchor="start" x="444" y="-308.5" font-family="Helvetica,sans-Serif" font-size="10.00" fill="#000000">device_backends/include</text>
<text text-anchor="start" x="444" y="-297.5" font-family="Helvetica,sans-Serif" font-size="10.00" fill="#000000">/NumericAddressedBackendRegister</text>
<text text-anchor="middle" x="533" y="-286.5" font-family="Helvetica,sans-Serif" font-size="10.00" fill="#000000">Accessor.h</text>
</a>
</g>
</g>
<!-- Node27&#45;&gt;Node30 -->
<g id="edge4" class="edge">
<title>Node27&#45;&gt;Node30</title>
<path fill="none" stroke="#191970" d="M374.8697,-359.2988C405.983,-347.6314 446.0577,-332.6034 478.0784,-320.5956"/>
<polygon fill="#191970" stroke="#191970" points="373.2388,-356.1724 365.1045,-362.9608 375.6967,-362.7267 373.2388,-356.1724"/>
</g>
<!-- Node44 -->
<g id="node19" class="node">
<title>Node44</title>
<g id="a_node19"><a xlink:href="device__backends_2include_2_numeric_addressed_backend_muxed_register_accessor_8h.html" target="_top" xlink:title="device_backends/include\l/NumericAddressedBackendMuxed\lRegisterAccessor.h">
<polygon fill="#ffffff" stroke="#000000" points="232,-279.5 232,-320.5 418,-320.5 418,-279.5 232,-279.5"/>
<text text-anchor="start" x="240" y="-308.5" font-family="Helvetica,sans-Serif" font-size="10.00" fill="#000000">device_backends/include</text>
<text text-anchor="start" x="240" y="-297.5" font-family="Helvetica,sans-Serif" font-size="10.00" fill="#000000">/NumericAddressedBackendMuxed</text>
<text text-anchor="middle" x="325" y="-286.5" font-family="Helvetica,sans-Serif" font-size="10.00" fill="#000000">RegisterAccessor.h</text>
</a>
</g>
</g>
<!-- Node27&#45;&gt;Node44 -->
<g id="edge18" class="edge">
<title>Node27&#45;&gt;Node44</title>
<path fill="none" stroke="#191970" d="M325,-352.8044C325,-342.3919 325,-330.4721 325,-320.5956"/>
<polygon fill="#191970" stroke="#191970" points="321.5001,-352.9608 325,-362.9608 328.5001,-352.9608 321.5001,-352.9608"/>
</g>
<!-- Node28&#45;&gt;Node29 -->
<g id="edge3" class="edge">
<title>Node28&#45;&gt;Node29</title>
<path fill="none" stroke="#191970" d="M108.7948,-276.8443C99.9545,-265.6 89.5875,-252.4139 81.7953,-242.5028"/>
<polygon fill="#191970" stroke="#191970" points="106.2575,-279.2799 115.1896,-284.978 111.7604,-274.9534 106.2575,-279.2799"/>
</g>
<!-- Node31 -->
<g id="node6" class="node">
<title>Node31</title>
<g id="a_node6"><a xlink:href="_dummy_backend_base_8h.html" target="_top" xlink:title="Common definitions and base class for DummyBackends. ">
<polygon fill="#ffffff" stroke="#000000" points="445.5,-212.5 445.5,-242.5 584.5,-242.5 584.5,-212.5 445.5,-212.5"/>
<text text-anchor="start" x="453.5" y="-230.5" font-family="Helvetica,sans-Serif" font-size="10.00" fill="#000000">device_backends/include</text>
<text text-anchor="middle" x="515" y="-219.5" font-family="Helvetica,sans-Serif" font-size="10.00" fill="#000000">/DummyBackendBase.h</text>
</a>
</g>
</g>
<!-- Node30&#45;&gt;Node31 -->
<g id="edge5" class="edge">
<title>Node30&#45;&gt;Node31</title>
<path fill="none" stroke="#191970" d="M525.4588,-269.6258C523.1426,-260.2967 520.694,-250.4342 518.7487,-242.5991"/>
<polygon fill="#191970" stroke="#191970" points="522.0835,-270.5564 527.8901,-279.4183 528.8773,-268.8696 522.0835,-270.5564"/>
</g>
<!-- Node32 -->
<g id="node7" class="node">
<title>Node32</title>
<g id="a_node7"><a xlink:href="device__backends_2include_2_dummy_backend_8h.html" target="_top" xlink:title="device_backends/include\l/DummyBackend.h">
<polygon fill="#ffffff" stroke="#000000" points="427.5,-145.5 427.5,-175.5 566.5,-175.5 566.5,-145.5 427.5,-145.5"/>
<text text-anchor="start" x="435.5" y="-163.5" font-family="Helvetica,sans-Serif" font-size="10.00" fill="#000000">device_backends/include</text>
<text text-anchor="middle" x="497" y="-152.5" font-family="Helvetica,sans-Serif" font-size="10.00" fill="#000000">/DummyBackend.h</text>
</a>
</g>
</g>
<!-- Node31&#45;&gt;Node32 -->
<g id="edge6" class="edge">
<title>Node31&#45;&gt;Node32</title>
<path fill="none" stroke="#191970" d="M508.3132,-202.6103C505.8805,-193.5553 503.2059,-183.5998 501.0683,-175.6432"/>
<polygon fill="#191970" stroke="#191970" points="504.9407,-203.5472 510.9155,-212.2967 511.701,-201.731 504.9407,-203.5472"/>
</g>
<!-- Node39 -->
<g id="node14" class="node">
<title>Node39</title>
<g id="a_node14"><a xlink:href="_shared_dummy_backend_8h.html" target="_top" xlink:title="device_backends/SharedDummy\l/include/SharedDummyBackend.h">
<polygon fill="#ffffff" stroke="#000000" points="785,-145.5 785,-175.5 967,-175.5 967,-145.5 785,-145.5"/>
<text text-anchor="start" x="793" y="-163.5" font-family="Helvetica,sans-Serif" font-size="10.00" fill="#000000">device_backends/SharedDummy</text>
<text text-anchor="middle" x="876" y="-152.5" font-family="Helvetica,sans-Serif" font-size="10.00" fill="#000000">/include/SharedDummyBackend.h</text>
</a>
</g>
</g>
<!-- Node31&#45;&gt;Node39 -->
<g id="edge13" class="edge">
<title>Node31&#45;&gt;Node39</title>
<path fill="none" stroke="#191970" d="M594.7025,-212.7076C654.1778,-201.6692 735.1441,-186.6422 794.9424,-175.5439"/>
<polygon fill="#191970" stroke="#191970" points="593.7978,-209.3156 584.6044,-214.5817 595.0752,-216.1981 593.7978,-209.3156"/>
</g>
<!-- Node33 -->
<g id="node8" class="node">
<title>Node33</title>
<g id="a_node8"><a xlink:href="device__backends_2include_2_dummy_register_accessor_8h.html" target="_top" xlink:title="device_backends/include\l/DummyRegisterAccessor.h">
<polygon fill="#ffffff" stroke="#000000" points="250,-78.5 250,-108.5 400,-108.5 400,-78.5 250,-78.5"/>
<text text-anchor="start" x="258" y="-96.5" font-family="Helvetica,sans-Serif" font-size="10.00" fill="#000000">device_backends/include</text>
<text text-anchor="middle" x="325" y="-85.5" font-family="Helvetica,sans-Serif" font-size="10.00" fill="#000000">/DummyRegisterAccessor.h</text>
</a>
</g>
</g>
<!-- Node32&#45;&gt;Node33 -->
<g id="edge7" class="edge">
<title>Node32&#45;&gt;Node33</title>
<path fill="none" stroke="#191970" d="M448.8078,-141.7275C421.9477,-131.2645 388.9441,-118.4084 363.7685,-108.6017"/>
<polygon fill="#191970" stroke="#191970" points="447.8114,-145.0954 458.3998,-145.4639 450.3522,-138.5728 447.8114,-145.0954"/>
</g>
<!-- Node34 -->
<g id="node9" class="node">
<title>Node34</title>
<g id="a_node9"><a xlink:href="_exception_dummy_backend_8h.html" target="_top" xlink:title="device_backends/include\l/ExceptionDummyBackend.h">
<polygon fill="#ffffff" stroke="#000000" points="418,-78.5 418,-108.5 576,-108.5 576,-78.5 418,-78.5"/>
<text text-anchor="start" x="426" y="-96.5" font-family="Helvetica,sans-Serif" font-size="10.00" fill="#000000">device_backends/include</text>
<text text-anchor="middle" x="497" y="-85.5" font-family="Helvetica,sans-Serif" font-size="10.00" fill="#000000">/ExceptionDummyBackend.h</text>
</a>
</g>
</g>
<!-- Node32&#45;&gt;Node34 -->
<g id="edge8" class="edge">
<title>Node32&#45;&gt;Node34</title>
<path fill="none" stroke="#191970" d="M497,-135.0249C497,-126.128 497,-116.4287 497,-108.6432"/>
<polygon fill="#191970" stroke="#191970" points="493.5001,-135.2966 497,-145.2967 500.5001,-135.2967 493.5001,-135.2966"/>
</g>
<!-- Node35 -->
<g id="node10" class="node">
<title>Node35</title>
<g id="a_node10"><a xlink:href="test_exception_dummy_device_8cc.html" target="_top" xlink:title="tests/executables_src\l/testExceptionDummyDevice.cc">
<polygon fill="#ffffff" stroke="#000000" points="158.5,-6 158.5,-36 331.5,-36 331.5,-6 158.5,-6"/>
<text text-anchor="start" x="166.5" y="-24" font-family="Helvetica,sans-Serif" font-size="10.00" fill="#000000">tests/executables_src</text>
<text text-anchor="middle" x="245" y="-13" font-family="Helvetica,sans-Serif" font-size="10.00" fill="#000000">/testExceptionDummyDevice.cc</text>
</a>
</g>
</g>
<!-- Node34&#45;&gt;Node35 -->
<g id="edge9" class="edge">
<title>Node34&#45;&gt;Node35</title>
<path fill="none" stroke="#191970" d="M435.1421,-75.7036C392.7905,-63.5191 337.2545,-47.5415 297.1477,-36.0028"/>
<polygon fill="#191970" stroke="#191970" points="434.2075,-79.0766 444.7854,-78.478 436.143,-72.3495 434.2075,-79.0766"/>
</g>
<!-- Node36 -->
<g id="node11" class="node">
<title>Node36</title>
<g id="a_node11"><a xlink:href="test_l_map_backend_8cpp.html" target="_top" xlink:title="tests/executables_src\l/testLMapBackend.cpp">
<polygon fill="#ffffff" stroke="#000000" points="350,-6 350,-36 476,-36 476,-6 350,-6"/>
<text text-anchor="start" x="358" y="-24" font-family="Helvetica,sans-Serif" font-size="10.00" fill="#000000">tests/executables_src</text>
<text text-anchor="middle" x="413" y="-13" font-family="Helvetica,sans-Serif" font-size="10.00" fill="#000000">/testLMapBackend.cpp</text>
</a>
</g>
</g>
<!-- Node34&#45;&gt;Node36 -->
<g id="edge10" class="edge">
<title>Node34&#45;&gt;Node36</title>
<path fill="none" stroke="#191970" d="M471.6933,-71.6579C458.3476,-60.1393 442.3161,-46.3026 430.3826,-36.0028"/>
<polygon fill="#191970" stroke="#191970" points="469.738,-74.5937 479.5951,-78.478 474.3117,-69.2945 469.738,-74.5937"/>
</g>
<!-- Node37 -->
<g id="node12" class="node">
<title>Node37</title>
<g id="a_node12"><a xlink:href="test_numeric_addressed_backend_register_accessor_8cpp.html" target="_top" xlink:title="tests/executables_src\l/testNumericAddressedBackend\lRegisterAccessor.cpp">
<polygon fill="#ffffff" stroke="#000000" points="494.5,-.5 494.5,-41.5 667.5,-41.5 667.5,-.5 494.5,-.5"/>
<text text-anchor="start" x="502.5" y="-29.5" font-family="Helvetica,sans-Serif" font-size="10.00" fill="#000000">tests/executables_src</text>
<text text-anchor="start" x="502.5" y="-18.5" font-family="Helvetica,sans-Serif" font-size="10.00" fill="#000000">/testNumericAddressedBackend</text>
<text text-anchor="middle" x="581" y="-7.5" font-family="Helvetica,sans-Serif" font-size="10.00" fill="#000000">RegisterAccessor.cpp</text>
</a>
</g>
</g>
<!-- Node34&#45;&gt;Node37 -->
<g id="edge11" class="edge">
<title>Node34&#45;&gt;Node37</title>
<path fill="none" stroke="#191970" d="M522.118,-71.8207C533.2492,-62.2135 546.2783,-50.9681 557.2465,-41.5015"/>
<polygon fill="#191970" stroke="#191970" points="519.6883,-69.2945 514.4049,-78.478 524.262,-74.5937 519.6883,-69.2945"/>
</g>
<!-- Node38 -->
<g id="node13" class="node">
<title>Node38</title>
<g id="a_node13"><a xlink:href="test_transfer_group_8cpp.html" target="_top" xlink:title="tests/executables_src\l/testTransferGroup.cpp">
<polygon fill="#ffffff" stroke="#000000" points="685.5,-6 685.5,-36 812.5,-36 812.5,-6 685.5,-6"/>
<text text-anchor="start" x="693.5" y="-24" font-family="Helvetica,sans-Serif" font-size="10.00" fill="#000000">tests/executables_src</text>
<text text-anchor="middle" x="749" y="-13" font-family="Helvetica,sans-Serif" font-size="10.00" fill="#000000">/testTransferGroup.cpp</text>
</a>
</g>
</g>
<!-- Node34&#45;&gt;Node38 -->
<g id="edge12" class="edge">
<title>Node34&#45;&gt;Node38</title>
<path fill="none" stroke="#191970" d="M559.7565,-75.63C594.3525,-65.7573 638.0626,-53.2485 677,-42 683.6299,-40.0847 690.6007,-38.0624 697.4871,-36.0594"/>
<polygon fill="#191970" stroke="#191970" points="558.4473,-72.3637 549.7912,-78.4728 560.3677,-79.0952 558.4473,-72.3637"/>
</g>
<!-- Node40 -->
<g id="node15" class="node">
<title>Node40</title>
<g id="a_node15"><a xlink:href="_shared_dummy_backend_8cc.html" target="_top" xlink:title="device_backends/SharedDummy\l/src/SharedDummyBackend.cc">
<polygon fill="#ffffff" stroke="#000000" points="594,-78.5 594,-108.5 770,-108.5 770,-78.5 594,-78.5"/>
<text text-anchor="start" x="602" y="-96.5" font-family="Helvetica,sans-Serif" font-size="10.00" fill="#000000">device_backends/SharedDummy</text>
<text text-anchor="middle" x="682" y="-85.5" font-family="Helvetica,sans-Serif" font-size="10.00" fill="#000000">/src/SharedDummyBackend.cc</text>
</a>
</g>
</g>
<!-- Node39&#45;&gt;Node40 -->
<g id="edge14" class="edge">
<title>Node39&#45;&gt;Node40</title>
<path fill="none" stroke="#191970" d="M822.836,-142.1392C792.3291,-131.6033 754.4966,-118.5375 725.7273,-108.6017"/>
<polygon fill="#191970" stroke="#191970" points="821.8679,-145.5077 832.4626,-145.4639 824.153,-138.8912 821.8679,-145.5077"/>
</g>
<!-- Node41 -->
<g id="node16" class="node">
<title>Node41</title>
<g id="a_node16"><a xlink:href="_shared_memory_manager_8cc.html" target="_top" xlink:title="device_backends/SharedDummy\l/src/SharedMemoryManager.cc">
<polygon fill="#ffffff" stroke="#000000" points="788,-78.5 788,-108.5 964,-108.5 964,-78.5 788,-78.5"/>
<text text-anchor="start" x="796" y="-96.5" font-family="Helvetica,sans-Serif" font-size="10.00" fill="#000000">device_backends/SharedDummy</text>
<text text-anchor="middle" x="876" y="-85.5" font-family="Helvetica,sans-Serif" font-size="10.00" fill="#000000">/src/SharedMemoryManager.cc</text>
</a>
</g>
</g>
<!-- Node39&#45;&gt;Node41 -->
<g id="edge15" class="edge">
<title>Node39&#45;&gt;Node41</title>
<path fill="none" stroke="#191970" d="M876,-135.0249C876,-126.128 876,-116.4287 876,-108.6432"/>
<polygon fill="#191970" stroke="#191970" points="872.5001,-135.2966 876,-145.2967 879.5001,-135.2967 872.5001,-135.2966"/>
</g>
<!-- Node42 -->
<g id="node17" class="node">
<title>Node42</title>
<g id="a_node17"><a xlink:href="_backend_factory_8cc.html" target="_top" xlink:title="device_backends/src\l/BackendFactory.cc">
<polygon fill="#ffffff" stroke="#000000" points="982,-78.5 982,-108.5 1100,-108.5 1100,-78.5 982,-78.5"/>
<text text-anchor="start" x="990" y="-96.5" font-family="Helvetica,sans-Serif" font-size="10.00" fill="#000000">device_backends/src</text>
<text text-anchor="middle" x="1041" y="-85.5" font-family="Helvetica,sans-Serif" font-size="10.00" fill="#000000">/BackendFactory.cc</text>
</a>
</g>
</g>
<!-- Node39&#45;&gt;Node42 -->
<g id="edge16" class="edge">
<title>Node39&#45;&gt;Node42</title>
<path fill="none" stroke="#191970" d="M922.5702,-141.5897C948.2755,-131.1518 979.7642,-118.3654 1003.8093,-108.6017"/>
<polygon fill="#191970" stroke="#191970" points="920.9777,-138.4587 913.0292,-145.4639 923.6113,-144.9444 920.9777,-138.4587"/>
</g>
<!-- Node43 -->
<g id="node18" class="node">
<title>Node43</title>
<g id="a_node18"><a xlink:href="test_shared_dummy_backend_8cpp.html" target="_top" xlink:title="tests/executables_src\l/testSharedDummyBackend.cpp">
<polygon fill="#ffffff" stroke="#000000" points="1118.5,-78.5 1118.5,-108.5 1291.5,-108.5 1291.5,-78.5 1118.5,-78.5"/>
<text text-anchor="start" x="1126.5" y="-96.5" font-family="Helvetica,sans-Serif" font-size="10.00" fill="#000000">tests/executables_src</text>
<text text-anchor="middle" x="1205" y="-85.5" font-family="Helvetica,sans-Serif" font-size="10.00" fill="#000000">/testSharedDummyBackend.cpp</text>
</a>
</g>
</g>
<!-- Node39&#45;&gt;Node43 -->
<g id="edge17" class="edge">
<title>Node39&#45;&gt;Node43</title>
<path fill="none" stroke="#191970" d="M959.8595,-143.4222C1012.7062,-132.6601 1080.306,-118.8936 1131.1284,-108.5438"/>
<polygon fill="#191970" stroke="#191970" points="958.9344,-140.0387 949.834,-145.4639 960.3314,-146.8979 958.9344,-140.0387"/>
</g>
<!-- Node44&#45;&gt;Node31 -->
<g id="edge19" class="edge">
<title>Node44&#45;&gt;Node31</title>
<path fill="none" stroke="#191970" d="M388.4997,-275.7699C417.2364,-264.8045 450.3095,-252.1845 475.4299,-242.5991"/>
<polygon fill="#191970" stroke="#191970" points="387.0333,-272.5832 378.9382,-279.4183 389.5289,-279.1232 387.0333,-272.5832"/>
</g>
<!-- Node44&#45;&gt;Node33 -->
<g id="edge20" class="edge">
<title>Node44&#45;&gt;Node33</title>
<path fill="none" stroke="#191970" d="M325,-269.3937C325,-224.4308 325,-142.2148 325,-108.5147"/>
<polygon fill="#191970" stroke="#191970" points="321.5001,-269.445 325,-279.445 328.5001,-269.4451 321.5001,-269.445"/>
</g>
<!-- Node45&#45;&gt;Node30 -->
<g id="edge23" class="edge">
<title>Node45&#45;&gt;Node30</title>
<path fill="none" stroke="#191970" d="M526.3607,-347.0789C527.6103,-338.2178 528.942,-328.7747 530.0822,-320.6898"/>
<polygon fill="#191970" stroke="#191970" points="522.8786,-346.7066 524.9478,-357.0974 529.81,-347.6842 522.8786,-346.7066"/>
</g>
</g>
</svg>
        <g id="navigator" transform="translate(0 0)" fill="#404254">
                <rect fill="#f2f5e9" fill-opacity="0.5" stroke="#606060" stroke-width=".5" x="0" y="0" width="60" height="60"/>
                <use id="zoomplus" xlink:href="#zoomPlus" x="17" y="9" onmousedown="handleZoom(evt,'in')"/>
                <use id="zoomminus" xlink:href="#zoomMin" x="42" y="9" onmousedown="handleZoom(evt,'out')"/>
                <use id="reset" xlink:href="#resetDef" x="30" y="36" onmousedown="handleReset()"/>
                <g id="arrowUp" xlink:href="#dirArrow" transform="translate(30 24)" onmousedown="handlePan(0,-1)">
                  <use xlink:href="#rim" fill="#404040">
                        <set attributeName="fill" to="#808080" begin="arrowUp.mouseover" end="arrowUp.mouseout"/>
                  </use>
                  <path fill="none" stroke="white" stroke-width="1.5" d="M0,-3.0v7 M-2.5,-0.5L0,-3.0L2.5,-0.5"/>
                </g>
                <g id="arrowRight" xlink:href="#dirArrow" transform="rotate(90) translate(36 -43)" onmousedown="handlePan(1,0)">
                  <use xlink:href="#rim" fill="#404040">
                        <set attributeName="fill" to="#808080" begin="arrowRight.mouseover" end="arrowRight.mouseout"/>
                  </use>
                  <path fill="none" stroke="white" stroke-width="1.5" d="M0,-3.0v7 M-2.5,-0.5L0,-3.0L2.5,-0.5"/>
                </g>
                <g id="arrowDown" xlink:href="#dirArrow" transform="rotate(180) translate(-30 -48)" onmousedown="handlePan(0,1)">
                  <use xlink:href="#rim" fill="#404040">
                        <set attributeName="fill" to="#808080" begin="arrowDown.mouseover" end="arrowDown.mouseout"/>
                  </use>
                  <path fill="none" stroke="white" stroke-width="1.5" d="M0,-3.0v7 M-2.5,-0.5L0,-3.0L2.5,-0.5"/>
                </g>
                <g id="arrowLeft" xlink:href="#dirArrow" transform="rotate(270) translate(-36 17)" onmousedown="handlePan(-1,0)">
                  <use xlink:href="#rim" fill="#404040">
                        <set attributeName="fill" to="#808080" begin="arrowLeft.mouseover" end="arrowLeft.mouseout"/>
                  </use>
                  <path fill="none" stroke="white" stroke-width="1.5" d="M0,-3.0v7 M-2.5,-0.5L0,-3.0L2.5,-0.5"/>
                </g>
        </g>
        <svg viewBox="0 0 15 15" width="100%" height="30px" preserveAspectRatio="xMaxYMin meet">
         <g id="arrow_out" transform="scale(0.3 0.3)">
          <a xlink:href="device__backends_2include_2_transfer_element_8h__dep__incl_org.svg" target="_base">
           <rect id="button" ry="5" rx="5" y="6" x="6" height="38" width="38"
                fill="#f2f5e9" fill-opacity="0.5" stroke="#606060" stroke-width="1.0"/>
           <path id="arrow"
             d="M 11.500037,31.436501 C 11.940474,20.09759 22.043105,11.32322 32.158766,21.979434 L 37.068811,17.246167 C 37.068811,17.246167 37.088388,32 37.088388,32 L 22.160133,31.978069 C 22.160133,31.978069 26.997745,27.140456 26.997745,27.140456 C 18.528582,18.264221 13.291696,25.230495 11.500037,31.436501 z"
             style="fill:#404040;"/>
          </a>
         </g>
        </svg>
</svg>
