<?xml version="1.0" encoding="UTF-8" standalone="no"?>
<!DOCTYPE svg PUBLIC "-//W3C//DTD SVG 1.1//EN"
 "http://www.w3.org/Graphics/SVG/1.1/DTD/svg11.dtd">
<!-- Generated by graphviz version 2.40.1 (20161225.0304)
 -->
<!-- Title: device_backends/LogicalNameMapping/include/LogicalNameMapParser.h Pages: 1 -->
<!--zoomable 263 -->
<svg id="main" version="1.1" xmlns="http://www.w3.org/2000/svg" xmlns:xlink="http://www.w3.org/1999/xlink" xml:space="preserve" onload="init(evt)">
<style type="text/css"><![CDATA[
.edge:hover path { stroke: red; }
.edge:hover polygon { stroke: red; fill: red; }
]]></style>
<script type="text/javascript"><![CDATA[
var edges = document.getElementsByTagName('g');
if (edges && edges.length) {
  for (var i=0;i<edges.length;i++) {
    if (edges[i].id.substr(0,4)=='edge') {
      edges[i].setAttribute('class','edge');
    }
  }
}
]]></script>
        <defs>
                <circle id="rim" cx="0" cy="0" r="7"/>
                <circle id="rim2" cx="0" cy="0" r="3.5"/>
                <g id="zoomPlus">
                        <use xlink:href="#rim" fill="#404040">
                                <set attributeName="fill" to="#808080" begin="zoomplus.mouseover" end="zoomplus.mouseout"/>
                        </use>
                        <path d="M-4,0h8M0,-4v8" fill="none" stroke="white" stroke-width="1.5" pointer-events="none"/>
                </g>
                <g id="zoomMin">
                        <use xlink:href="#rim" fill="#404040">
                                <set attributeName="fill" to="#808080" begin="zoomminus.mouseover" end="zoomminus.mouseout"/>
                        </use>
                        <path d="M-4,0h8" fill="none" stroke="white" stroke-width="1.5" pointer-events="none"/>
                </g>
                <g id="dirArrow">
                        <path fill="none" stroke="white" stroke-width="1.5" d="M0,-3.0v7 M-2.5,-0.5L0,-3.0L2.5,-0.5"/>
                </g>
               <g id="resetDef">
                       <use xlink:href="#rim2" fill="#404040">
                               <set attributeName="fill" to="#808080" begin="reset.mouseover" end="reset.mouseout"/>
                       </use>
               </g>
        </defs>

<script type="text/javascript">
var viewWidth = 590;
var viewHeight = 263;
var sectionId = 'dynsection-0';
</script>
<script xlink:href="svgpan.js"/>
<svg id="graph" class="graph">
<g id="viewport">
<title>device_backends/LogicalNameMapping/include/LogicalNameMapParser.h</title>
<polygon fill="#ffffff" stroke="transparent" points="-4,4 -4,-259 585.7276,-259 585.7276,4 -4,4"/>
<!-- Node0 -->
<g id="node1" class="node">
<title>Node0</title>
<polygon fill="#bfbfbf" stroke="#000000" points="68.2276,-224.5 68.2276,-254.5 289.2276,-254.5 289.2276,-224.5 68.2276,-224.5"/>
<text text-anchor="start" x="76.2276" y="-242.5" font-family="Helvetica,sans-Serif" font-size="10.00" fill="#000000">device_backends/LogicalName</text>
<text text-anchor="middle" x="178.7276" y="-231.5" font-family="Helvetica,sans-Serif" font-size="10.00" fill="#000000">Mapping/include/LogicalNameMapParser.h</text>
</g>
<!-- Node1 -->
<g id="node2" class="node">
<title>Node1</title>
<polygon fill="#ffffff" stroke="#bfbfbf" points="75.2276,-.5 75.2276,-19.5 194.2276,-19.5 194.2276,-.5 75.2276,-.5"/>
<text text-anchor="middle" x="134.7276" y="-7.5" font-family="Helvetica,sans-Serif" font-size="10.00" fill="#000000">boost/shared_ptr.hpp</text>
</g>
<!-- Node0&#45;&gt;Node1 -->
<g id="edge1" class="edge">
<title>Node0&#45;&gt;Node1</title>
<path fill="none" stroke="#191970" d="M99.31,-224.3985C61.7932,-215.4881 22.8084,-203.0129 11.7276,-188 -31.966,-128.8016 63.213,-55.9851 110.3305,-25.0471"/>
<polygon fill="#191970" stroke="#191970" points="112.2765,-27.9569 118.7916,-19.602 108.4883,-22.0705 112.2765,-27.9569"/>
</g>
<!-- Node2 -->
<g id="node3" class="node">
<title>Node2</title>
<polygon fill="#ffffff" stroke="#bfbfbf" points="20.7276,-168.5 20.7276,-187.5 58.7276,-187.5 58.7276,-168.5 20.7276,-168.5"/>
<text text-anchor="middle" x="39.7276" y="-175.5" font-family="Helvetica,sans-Serif" font-size="10.00" fill="#000000">map</text>
</g>
<!-- Node0&#45;&gt;Node2 -->
<g id="edge2" class="edge">
<title>Node0&#45;&gt;Node2</title>
<path fill="none" stroke="#191970" d="M144.7243,-224.4554C121.2003,-214.0473 90.2597,-200.3577 68.0693,-190.5397"/>
<polygon fill="#191970" stroke="#191970" points="69.4063,-187.304 58.8453,-186.4586 66.574,-193.7054 69.4063,-187.304"/>
</g>
<!-- Node3 -->
<g id="node4" class="node">
<title>Node3</title>
<polygon fill="#ffffff" stroke="#bfbfbf" points="76.7276,-168.5 76.7276,-187.5 162.7276,-187.5 162.7276,-168.5 76.7276,-168.5"/>
<text text-anchor="middle" x="119.7276" y="-175.5" font-family="Helvetica,sans-Serif" font-size="10.00" fill="#000000">unordered_set</text>
</g>
<!-- Node0&#45;&gt;Node3 -->
<g id="edge3" class="edge">
<title>Node0&#45;&gt;Node3</title>
<path fill="none" stroke="#191970" d="M164.1433,-224.2977C155.6976,-215.4941 145.0383,-204.3833 136.2792,-195.2529"/>
<polygon fill="#191970" stroke="#191970" points="138.6228,-192.6402 129.1742,-187.8469 133.5714,-197.4862 138.6228,-192.6402"/>
</g>
<!-- Node4 -->
<g id="node5" class="node">
<title>Node4</title>
<polygon fill="#ffffff" stroke="#bfbfbf" points="181.2276,-168.5 181.2276,-187.5 296.2276,-187.5 296.2276,-168.5 181.2276,-168.5"/>
<text text-anchor="middle" x="238.7276" y="-175.5" font-family="Helvetica,sans-Serif" font-size="10.00" fill="#000000">RegisterCatalogue.h</text>
</g>
<!-- Node0&#45;&gt;Node4 -->
<g id="edge4" class="edge">
<title>Node0&#45;&gt;Node4</title>
<path fill="none" stroke="#191970" d="M193.559,-224.2977C202.1479,-215.4941 212.9878,-204.3833 221.8954,-195.2529"/>
<polygon fill="#191970" stroke="#191970" points="224.6428,-197.4489 229.1208,-187.8469 219.6323,-192.5606 224.6428,-197.4489"/>
</g>
<!-- Node5 -->
<g id="node6" class="node">
<title>Node5</title>
<polygon fill="#ffffff" stroke="#bfbfbf" points="314.7276,-168.5 314.7276,-187.5 400.7276,-187.5 400.7276,-168.5 314.7276,-168.5"/>
<text text-anchor="middle" x="357.7276" y="-175.5" font-family="Helvetica,sans-Serif" font-size="10.00" fill="#000000">RegisterPath.h</text>
</g>
<!-- Node0&#45;&gt;Node5 -->
<g id="edge5" class="edge">
<title>Node0&#45;&gt;Node5</title>
<path fill="none" stroke="#191970" d="M222.5159,-224.4554C252.5135,-214.149 291.8763,-200.6249 320.3892,-190.8286"/>
<polygon fill="#191970" stroke="#191970" points="321.6688,-194.0898 329.9889,-187.5303 319.3943,-187.4696 321.6688,-194.0898"/>
</g>
<!-- Node6 -->
<g id="node7" class="node">
<title>Node6</title>
<g id="a_node7"><a xlink:href="_l_n_m_accessor_plugin_8h.html" target="_top" xlink:title="LNMAccessorPlugin.h">
<polygon fill="#ffffff" stroke="#000000" points="418.7276,-168.5 418.7276,-187.5 538.7276,-187.5 538.7276,-168.5 418.7276,-168.5"/>
<text text-anchor="middle" x="478.7276" y="-175.5" font-family="Helvetica,sans-Serif" font-size="10.00" fill="#000000">LNMAccessorPlugin.h</text>
</a>
</g>
</g>
<!-- Node0&#45;&gt;Node6 -->
<g id="edge6" class="edge">
<title>Node0&#45;&gt;Node6</title>
<path fill="none" stroke="#191970" d="M252.1158,-224.4554C304.5866,-213.6989 374.1538,-199.4376 422.3027,-189.5671"/>
<polygon fill="#191970" stroke="#191970" points="423.1448,-192.9673 432.2382,-187.5303 421.739,-186.1099 423.1448,-192.9673"/>
</g>
<!-- Node7 -->
<g id="node8" class="node">
<title>Node7</title>
<polygon fill="#ffffff" stroke="#bfbfbf" points="231.2276,-112.5 231.2276,-131.5 374.2276,-131.5 374.2276,-112.5 231.2276,-112.5"/>
<text text-anchor="middle" x="302.7276" y="-119.5" font-family="Helvetica,sans-Serif" font-size="10.00" fill="#000000">VirtualFunctionTemplate.h</text>
</g>
<!-- Node6&#45;&gt;Node7 -->
<g id="edge7" class="edge">
<title>Node6&#45;&gt;Node7</title>
<path fill="none" stroke="#191970" d="M448.4721,-168.3733C419.0793,-159.021 374.2984,-144.7725 342.1342,-134.5385"/>
<polygon fill="#191970" stroke="#191970" points="343.1787,-131.198 332.5882,-131.5011 341.0563,-137.8685 343.1787,-131.198"/>
</g>
<!-- Node8 -->
<g id="node9" class="node">
<title>Node8</title>
<g id="a_node9"><a xlink:href="device__backends_2_logical_name_mapping_2include_2_logical_name_mapping_backend_8h.html" target="_top" xlink:title="LogicalNameMappingBackend.h">
<polygon fill="#ffffff" stroke="#000000" points="392.2276,-112.5 392.2276,-131.5 565.2276,-131.5 565.2276,-112.5 392.2276,-112.5"/>
<text text-anchor="middle" x="478.7276" y="-119.5" font-family="Helvetica,sans-Serif" font-size="10.00" fill="#000000">LogicalNameMappingBackend.h</text>
</a>
</g>
</g>
<!-- Node6&#45;&gt;Node8 -->
<g id="edge8" class="edge">
<title>Node6&#45;&gt;Node8</title>
<path fill="none" stroke="#191970" d="M478.7276,-168.2455C478.7276,-160.9382 478.7276,-150.6944 478.7276,-141.7046"/>
<polygon fill="#191970" stroke="#191970" points="482.2277,-141.6426 478.7276,-131.6427 475.2277,-141.6427 482.2277,-141.6426"/>
</g>
<!-- Node9 -->
<g id="node10" class="node">
<title>Node9</title>
<polygon fill="#ffffff" stroke="#bfbfbf" points="264.2276,-56.5 264.2276,-75.5 387.2276,-75.5 387.2276,-56.5 264.2276,-56.5"/>
<text text-anchor="middle" x="325.7276" y="-63.5" font-family="Helvetica,sans-Serif" font-size="10.00" fill="#000000">DeviceBackendImpl.h</text>
</g>
<!-- Node8&#45;&gt;Node9 -->
<g id="edge9" class="edge">
<title>Node8&#45;&gt;Node9</title>
<path fill="none" stroke="#191970" d="M452.4259,-112.3733C427.3148,-103.1822 389.2838,-89.2624 361.4404,-79.0713"/>
<polygon fill="#191970" stroke="#191970" points="362.2798,-75.6516 351.686,-75.5011 359.8737,-82.2251 362.2798,-75.6516"/>
</g>
<!-- Node10 -->
<g id="node11" class="node">
<title>Node10</title>
<g id="a_node11"><a xlink:href="device__backends_2_logical_name_mapping_2include_2_l_n_m_backend_register_info_8h.html" target="_top" xlink:title="LNMBackendRegisterInfo.h">
<polygon fill="#ffffff" stroke="#000000" points="405.2276,-56.5 405.2276,-75.5 552.2276,-75.5 552.2276,-56.5 405.2276,-56.5"/>
<text text-anchor="middle" x="478.7276" y="-63.5" font-family="Helvetica,sans-Serif" font-size="10.00" fill="#000000">LNMBackendRegisterInfo.h</text>
</a>
</g>
</g>
<!-- Node8&#45;&gt;Node10 -->
<g id="edge10" class="edge">
<title>Node8&#45;&gt;Node10</title>
<path fill="none" stroke="#191970" d="M478.7276,-112.2455C478.7276,-104.9382 478.7276,-94.6944 478.7276,-85.7046"/>
<polygon fill="#191970" stroke="#191970" points="482.2277,-85.6426 478.7276,-75.6427 475.2277,-85.6427 482.2277,-85.6426"/>
</g>
<!-- Node10&#45;&gt;Node1 -->
<g id="edge11" class="edge">
<title>Node10&#45;&gt;Node1</title>
<path fill="none" stroke="#191970" d="M419.9827,-56.4369C359.873,-46.6516 266.5425,-31.4582 203.1393,-21.1368"/>
<polygon fill="#191970" stroke="#191970" points="203.6626,-17.676 193.2301,-19.5237 202.5378,-24.585 203.6626,-17.676"/>
</g>
<!-- Node11 -->
<g id="node12" class="node">
<title>Node11</title>
<polygon fill="#ffffff" stroke="#bfbfbf" points="353.7276,-.5 353.7276,-19.5 479.7276,-19.5 479.7276,-.5 353.7276,-.5"/>
<text text-anchor="middle" x="416.7276" y="-7.5" font-family="Helvetica,sans-Serif" font-size="10.00" fill="#000000">ForwardDeclarations.h</text>
</g>
<!-- Node10&#45;&gt;Node11 -->
<g id="edge12" class="edge">
<title>Node10&#45;&gt;Node11</title>
<path fill="none" stroke="#191970" d="M467.928,-56.2455C458.8598,-48.0549 445.7069,-36.1749 435.0031,-26.5069"/>
<polygon fill="#191970" stroke="#191970" points="437.1704,-23.7482 427.4034,-19.6427 432.4784,-28.9429 437.1704,-23.7482"/>
</g>
<!-- Node12 -->
<g id="node13" class="node">
<title>Node12</title>
<polygon fill="#ffffff" stroke="#bfbfbf" points="497.7276,-.5 497.7276,-19.5 581.7276,-19.5 581.7276,-.5 497.7276,-.5"/>
<text text-anchor="middle" x="539.7276" y="-7.5" font-family="Helvetica,sans-Serif" font-size="10.00" fill="#000000">RegisterInfo.h</text>
</g>
<!-- Node10&#45;&gt;Node12 -->
<g id="edge13" class="edge">
<title>Node10&#45;&gt;Node12</title>
<path fill="none" stroke="#191970" d="M489.353,-56.2455C498.2749,-48.0549 511.2156,-36.1749 521.7468,-26.5069"/>
<polygon fill="#191970" stroke="#191970" points="524.2243,-28.9837 529.2239,-19.6427 519.4904,-23.8271 524.2243,-28.9837"/>
</g>
</g>
</svg>
        <g id="navigator" transform="translate(0 0)" fill="#404254">
                <rect fill="#f2f5e9" fill-opacity="0.5" stroke="#606060" stroke-width=".5" x="0" y="0" width="60" height="60"/>
                <use id="zoomplus" xlink:href="#zoomPlus" x="17" y="9" onmousedown="handleZoom(evt,'in')"/>
                <use id="zoomminus" xlink:href="#zoomMin" x="42" y="9" onmousedown="handleZoom(evt,'out')"/>
                <use id="reset" xlink:href="#resetDef" x="30" y="36" onmousedown="handleReset()"/>
                <g id="arrowUp" xlink:href="#dirArrow" transform="translate(30 24)" onmousedown="handlePan(0,-1)">
                  <use xlink:href="#rim" fill="#404040">
                        <set attributeName="fill" to="#808080" begin="arrowUp.mouseover" end="arrowUp.mouseout"/>
                  </use>
                  <path fill="none" stroke="white" stroke-width="1.5" d="M0,-3.0v7 M-2.5,-0.5L0,-3.0L2.5,-0.5"/>
                </g>
                <g id="arrowRight" xlink:href="#dirArrow" transform="rotate(90) translate(36 -43)" onmousedown="handlePan(1,0)">
                  <use xlink:href="#rim" fill="#404040">
                        <set attributeName="fill" to="#808080" begin="arrowRight.mouseover" end="arrowRight.mouseout"/>
                  </use>
                  <path fill="none" stroke="white" stroke-width="1.5" d="M0,-3.0v7 M-2.5,-0.5L0,-3.0L2.5,-0.5"/>
                </g>
                <g id="arrowDown" xlink:href="#dirArrow" transform="rotate(180) translate(-30 -48)" onmousedown="handlePan(0,1)">
                  <use xlink:href="#rim" fill="#404040">
                        <set attributeName="fill" to="#808080" begin="arrowDown.mouseover" end="arrowDown.mouseout"/>
                  </use>
                  <path fill="none" stroke="white" stroke-width="1.5" d="M0,-3.0v7 M-2.5,-0.5L0,-3.0L2.5,-0.5"/>
                </g>
                <g id="arrowLeft" xlink:href="#dirArrow" transform="rotate(270) translate(-36 17)" onmousedown="handlePan(-1,0)">
                  <use xlink:href="#rim" fill="#404040">
                        <set attributeName="fill" to="#808080" begin="arrowLeft.mouseover" end="arrowLeft.mouseout"/>
                  </use>
                  <path fill="none" stroke="white" stroke-width="1.5" d="M0,-3.0v7 M-2.5,-0.5L0,-3.0L2.5,-0.5"/>
                </g>
        </g>
        <svg viewBox="0 0 15 15" width="100%" height="30px" preserveAspectRatio="xMaxYMin meet">
         <g id="arrow_out" transform="scale(0.3 0.3)">
          <a xlink:href="device__backends_2_logical_name_mapping_2include_2_logical_name_map_parser_8h__incl_org.svg" target="_base">
           <rect id="button" ry="5" rx="5" y="6" x="6" height="38" width="38"
                fill="#f2f5e9" fill-opacity="0.5" stroke="#606060" stroke-width="1.0"/>
           <path id="arrow"
             d="M 11.500037,31.436501 C 11.940474,20.09759 22.043105,11.32322 32.158766,21.979434 L 37.068811,17.246167 C 37.068811,17.246167 37.088388,32 37.088388,32 L 22.160133,31.978069 C 22.160133,31.978069 26.997745,27.140456 26.997745,27.140456 C 18.528582,18.264221 13.291696,25.230495 11.500037,31.436501 z"
             style="fill:#404040;"/>
          </a>
         </g>
        </svg>
</svg>
