<?xml version="1.0" encoding="UTF-8" standalone="no"?>
<!DOCTYPE svg PUBLIC "-//W3C//DTD SVG 1.1//EN"
 "http://www.w3.org/Graphics/SVG/1.1/DTD/svg11.dtd">
<!-- Generated by graphviz version 2.43.0 (0)
 -->
<!-- Title: util/src Pages: 1 -->
<svg width="196pt" height="167pt"
 viewBox="0.00 0.00 196.00 167.00" xmlns="http://www.w3.org/2000/svg" xmlns:xlink="http://www.w3.org/1999/xlink">
<g id="graph0" class="graph" transform="scale(1 1) rotate(0) translate(4 163)">
<title>util/src</title>
<polygon fill="white" stroke="transparent" points="-4,4 -4,-163 192,-163 192,4 -4,4"/>
<g id="clust1" class="cluster">
<title>clusterdir_23ec12649285f9fabf3a6b7380226c28</title>
<g id="a_clust1"><a xlink:href="dir_23ec12649285f9fabf3a6b7380226c28.html" target="_top" xlink:title="util">
<polygon fill="#ddddee" stroke="black" points="8,-8 8,-151 78,-151 78,-8 8,-8"/>
<text text-anchor="middle" x="43" y="-139" font-family="Helvetica,sans-Serif" font-size="10.00">util</text>
</a>
</g>
</g>
<!-- dir_03a6cfce30b88f6a84e388fa6a89390f -->
<g id="node1" class="node">
<title>dir_03a6cfce30b88f6a84e388fa6a89390f</title>
<g id="a_node1"><a xlink:href="dir_03a6cfce30b88f6a84e388fa6a89390f.html" target="_top" xlink:title="include">
<polygon fill="none" stroke="black" points="70,-52 16,-52 16,-16 70,-16 70,-52"/>
<text text-anchor="middle" x="43" y="-31.5" font-family="Helvetica,sans-Serif" font-size="10.00">include</text>
</a>
</g>
</g>
<!-- dir_dea78313235eb47f342de8e8297f8ee6 -->
<g id="node4" class="node">
<title>dir_dea78313235eb47f342de8e8297f8ee6</title>
<g id="a_node4"><a xlink:href="dir_dea78313235eb47f342de8e8297f8ee6.html" target="_top" xlink:title="fileparsers">
<polygon fill="white" stroke="red" points="164,-124 96,-124 96,-88 164,-88 164,-124"/>
<text text-anchor="middle" x="130" y="-103.5" font-family="Helvetica,sans-Serif" font-size="10.00">fileparsers</text>
</a>
</g>
</g>
<!-- dir_03a6cfce30b88f6a84e388fa6a89390f&#45;&gt;dir_dea78313235eb47f342de8e8297f8ee6 -->
<g id="edge1" class="edge">
<title>dir_03a6cfce30b88f6a84e388fa6a89390f&#45;&gt;dir_dea78313235eb47f342de8e8297f8ee6</title>
<path fill="none" stroke="black" d="M58.36,-52.1C68.46,-60.97 81.92,-71.94 94.49,-81.59"/>
<polygon fill="black" stroke="black" points="92.49,-84.46 102.58,-87.7 96.71,-78.88 92.49,-84.46"/>
<g id="a_edge1&#45;headlabel"><a xlink:href="dir_000056_000040.html" target="_top" xlink:title="1">
<text text-anchor="middle" x="87.91" y="-82.06" font-family="Helvetica,sans-Serif" font-size="10.00">1</text>
</a>
</g>
</g>
<!-- dir_787b54c01fb56e35ed62199e3ddd64c0 -->
<g id="node2" class="node">
<title>dir_787b54c01fb56e35ed62199e3ddd64c0</title>
<g id="a_node2"><a xlink:href="dir_787b54c01fb56e35ed62199e3ddd64c0.html" target="_top" xlink:title="src">
<polygon fill="#eeeeff" stroke="black" points="70,-124 16,-124 16,-88 70,-88 70,-124"/>
<text text-anchor="middle" x="43" y="-103.5" font-family="Helvetica,sans-Serif" font-size="10.00">src</text>
</a>
</g>
</g>
<!-- dir_787b54c01fb56e35ed62199e3ddd64c0&#45;&gt;dir_03a6cfce30b88f6a84e388fa6a89390f -->
<g id="edge2" class="edge">
<title>dir_787b54c01fb56e35ed62199e3ddd64c0&#45;&gt;dir_03a6cfce30b88f6a84e388fa6a89390f</title>
<path fill="none" stroke="black" d="M43,-87.7C43,-79.98 43,-70.71 43,-62.11"/>
<polygon fill="black" stroke="black" points="46.5,-62.1 43,-52.1 39.5,-62.1 46.5,-62.1"/>
<g id="a_edge2&#45;headlabel"><a xlink:href="dir_000057_000056.html" target="_top" xlink:title="2">
<text text-anchor="middle" x="49.34" y="-63.2" font-family="Helvetica,sans-Serif" font-size="10.00">2</text>
</a>
</g>
</g>
<!-- dir_a6e0c1fcdf1d5a4727261697f51b55f1 -->
<g id="node3" class="node">
<title>dir_a6e0c1fcdf1d5a4727261697f51b55f1</title>
<g id="a_node3"><a xlink:href="dir_a6e0c1fcdf1d5a4727261697f51b55f1.html" target="_top" xlink:title="device_backends">
<polygon fill="white" stroke="red" points="188,-52 88,-52 88,-16 188,-16 188,-52"/>
<text text-anchor="middle" x="138" y="-31.5" font-family="Helvetica,sans-Serif" font-size="10.00">device_backends</text>
</a>
</g>
</g>
<!-- dir_787b54c01fb56e35ed62199e3ddd64c0&#45;&gt;dir_a6e0c1fcdf1d5a4727261697f51b55f1 -->
<g id="edge3" class="edge">
<title>dir_787b54c01fb56e35ed62199e3ddd64c0&#45;&gt;dir_a6e0c1fcdf1d5a4727261697f51b55f1</title>
<path fill="none" stroke="black" d="M66.48,-87.7C78.56,-78.8 93.45,-67.82 106.52,-58.2"/>
<polygon fill="black" stroke="black" points="108.81,-60.85 114.79,-52.1 104.66,-55.22 108.81,-60.85"/>
<g id="a_edge3&#45;headlabel"><a xlink:href="dir_000057_000003.html" target="_top" xlink:title="1">
<text text-anchor="middle" x="107.6" y="-62.77" font-family="Helvetica,sans-Serif" font-size="10.00">1</text>
</a>
</g>
</g>
<!-- dir_787b54c01fb56e35ed62199e3ddd64c0&#45;&gt;dir_dea78313235eb47f342de8e8297f8ee6 -->
<g id="edge4" class="edge">
<title>dir_787b54c01fb56e35ed62199e3ddd64c0&#45;&gt;dir_dea78313235eb47f342de8e8297f8ee6</title>
<path fill="none" stroke="black" d="M70.19,-106C75.41,-106 80.63,-106 85.85,-106"/>
<polygon fill="black" stroke="black" points="85.89,-109.5 95.89,-106 85.89,-102.5 85.89,-109.5"/>
<g id="a_edge4&#45;headlabel"><a xlink:href="dir_000057_000040.html" target="_top" xlink:title="1">
<text text-anchor="middle" x="82.29" y="-109.84" font-family="Helvetica,sans-Serif" font-size="10.00">1</text>
</a>
</g>
</g>
<!-- dir_a6e0c1fcdf1d5a4727261697f51b55f1&#45;&gt;dir_03a6cfce30b88f6a84e388fa6a89390f -->
<g id="edge7" class="edge">
<title>dir_a6e0c1fcdf1d5a4727261697f51b55f1&#45;&gt;dir_03a6cfce30b88f6a84e388fa6a89390f</title>
<path fill="none" stroke="black" d="M87.86,-34C85.36,-34 82.86,-34 80.37,-34"/>
<polygon fill="black" stroke="black" points="80.09,-30.5 70.09,-34 80.09,-37.5 80.09,-30.5"/>
<g id="a_edge7&#45;headlabel"><a xlink:href="dir_000003_000056.html" target="_top" xlink:title="8">
<text text-anchor="middle" x="83.68" y="-25.16" font-family="Helvetica,sans-Serif" font-size="10.00">8</text>
</a>
</g>
</g>
<!-- dir_a6e0c1fcdf1d5a4727261697f51b55f1&#45;&gt;dir_dea78313235eb47f342de8e8297f8ee6 -->
<g id="edge8" class="edge">
<title>dir_a6e0c1fcdf1d5a4727261697f51b55f1&#45;&gt;dir_dea78313235eb47f342de8e8297f8ee6</title>
<path fill="none" stroke="black" d="M141.94,-52.1C141.87,-59.79 141.05,-69.05 139.73,-77.67"/>
<polygon fill="black" stroke="black" points="136.25,-77.23 137.89,-87.7 143.14,-78.49 136.25,-77.23"/>
<g id="a_edge8&#45;headlabel"><a xlink:href="dir_000003_000040.html" target="_top" xlink:title="8">
<text text-anchor="middle" x="134.1" y="-70.68" font-family="Helvetica,sans-Serif" font-size="10.00">8</text>
</a>
</g>
</g>
<!-- dir_dea78313235eb47f342de8e8297f8ee6&#45;&gt;dir_03a6cfce30b88f6a84e388fa6a89390f -->
<g id="edge6" class="edge">
<title>dir_dea78313235eb47f342de8e8297f8ee6&#45;&gt;dir_03a6cfce30b88f6a84e388fa6a89390f</title>
<path fill="none" stroke="black" d="M114.41,-87.7C104.27,-78.8 90.79,-67.82 78.23,-58.2"/>
<polygon fill="black" stroke="black" points="80.24,-55.33 70.15,-52.1 76.03,-60.92 80.24,-55.33"/>
<g id="a_edge6&#45;headlabel"><a xlink:href="dir_000040_000056.html" target="_top" xlink:title="1">
<text text-anchor="middle" x="84.82" y="-52.73" font-family="Helvetica,sans-Serif" font-size="10.00">1</text>
</a>
</g>
</g>
<!-- dir_dea78313235eb47f342de8e8297f8ee6&#45;&gt;dir_a6e0c1fcdf1d5a4727261697f51b55f1 -->
<g id="edge5" class="edge">
<title>dir_dea78313235eb47f342de8e8297f8ee6&#45;&gt;dir_a6e0c1fcdf1d5a4727261697f51b55f1</title>
<path fill="none" stroke="black" d="M126.06,-87.7C126.15,-79.98 126.98,-70.71 128.31,-62.11"/>
<polygon fill="black" stroke="black" points="131.78,-62.57 130.15,-52.1 124.9,-61.3 131.78,-62.57"/>
<g id="a_edge5&#45;headlabel"><a xlink:href="dir_000040_000003.html" target="_top" xlink:title="1">
<text text-anchor="middle" x="133.92" y="-64.12" font-family="Helvetica,sans-Serif" font-size="10.00">1</text>
</a>
</g>
</g>
</g>
</svg>
