<?xml version="1.0" encoding="UTF-8" standalone="no"?>
<!DOCTYPE svg PUBLIC "-//W3C//DTD SVG 1.1//EN"
 "http://www.w3.org/Graphics/SVG/1.1/DTD/svg11.dtd">
<!-- Generated by graphviz version 2.43.0 (0)
 -->
<!-- Title: backends Pages: 1 -->
<!--zoomable 204 -->
<svg id="main" version="1.1" xmlns="http://www.w3.org/2000/svg" xmlns:xlink="http://www.w3.org/1999/xlink" xml:space="preserve" onload="init(evt)">
<style type="text/css"><![CDATA[
.edge:hover path { stroke: red; }
.edge:hover polygon { stroke: red; fill: red; }
]]></style>
<script type="text/javascript"><![CDATA[
var edges = document.getElementsByTagName('g');
if (edges && edges.length) {
  for (var i=0;i<edges.length;i++) {
    if (edges[i].id.substr(0,4)=='edge') {
      edges[i].setAttribute('class','edge');
    }
  }
}
]]></script>
        <defs>
                <circle id="rim" cx="0" cy="0" r="7"/>
                <circle id="rim2" cx="0" cy="0" r="3.5"/>
                <g id="zoomPlus">
                        <use xlink:href="#rim" fill="#404040">
                                <set attributeName="fill" to="#808080" begin="zoomplus.mouseover" end="zoomplus.mouseout"/>
                        </use>
                        <path d="M-4,0h8M0,-4v8" fill="none" stroke="white" stroke-width="1.5" pointer-events="none"/>
                </g>
                <g id="zoomMin">
                        <use xlink:href="#rim" fill="#404040">
                                <set attributeName="fill" to="#808080" begin="zoomminus.mouseover" end="zoomminus.mouseout"/>
                        </use>
                        <path d="M-4,0h8" fill="none" stroke="white" stroke-width="1.5" pointer-events="none"/>
                </g>
                <g id="dirArrow">
                        <path fill="none" stroke="white" stroke-width="1.5" d="M0,-3.0v7 M-2.5,-0.5L0,-3.0L2.5,-0.5"/>
                </g>
               <g id="resetDef">
                       <use xlink:href="#rim2" fill="#404040">
                               <set attributeName="fill" to="#808080" begin="reset.mouseover" end="reset.mouseout"/>
                       </use>
               </g>
        </defs>

<script type="text/javascript">
var viewWidth = 723;
var viewHeight = 204;
var sectionId = 'dynsection-0';
</script>
<script xlink:href="svgpan.js"/>
<svg id="graph" class="graph">
<g id="viewport">
<title>backends</title>
<polygon fill="white" stroke="transparent" points="-4,4 -4,-200 719,-200 719,4 -4,4"/>
<g id="clust1" class="cluster">
<title>clusterdir_dec21994cd756836ecefab773235960a</title>
<g id="a_clust1"><a xlink:href="dir_dec21994cd756836ecefab773235960a.html" target="_top">
<polygon fill="#eeeeff" stroke="black" points="8,-64 8,-188 707,-188 707,-64 8,-64"/>
</a>
</g>
</g>
<!-- dir_dec21994cd756836ecefab773235960a -->
<g id="node1" class="node">
<title>dir_dec21994cd756836ecefab773235960a</title>
<text text-anchor="middle" x="668" y="-159.5" font-family="Helvetica,sans-Serif" font-size="10.00">backends</text>
</g>
<!-- dir_2c988c79311e7e98958fcd33ceaedc3d -->
<g id="node2" class="node">
<title>dir_2c988c79311e7e98958fcd33ceaedc3d</title>
<g id="a_node2"><a xlink:href="dir_2c988c79311e7e98958fcd33ceaedc3d.html" target="_top" xlink:title="DummyBackend">
<polygon fill="white" stroke="red" points="148.5,-108 51.5,-108 51.5,-72 148.5,-72 148.5,-108"/>
<text text-anchor="middle" x="100" y="-87.5" font-family="Helvetica,sans-Serif" font-size="10.00">DummyBackend</text>
</a>
</g>
</g>
<!-- dir_d44c64559bbebec7f509842c48db8b23 -->
<g id="node10" class="node">
<title>dir_d44c64559bbebec7f509842c48db8b23</title>
<g id="a_node10"><a xlink:href="dir_d44c64559bbebec7f509842c48db8b23.html" target="_top" xlink:title="include">
<polygon fill="white" stroke="red" points="352,-36 298,-36 298,0 352,0 352,-36"/>
<text text-anchor="middle" x="325" y="-15.5" font-family="Helvetica,sans-Serif" font-size="10.00">include</text>
</a>
</g>
</g>
<!-- dir_2c988c79311e7e98958fcd33ceaedc3d&#45;&gt;dir_d44c64559bbebec7f509842c48db8b23 -->
<g id="edge3" class="edge">
<title>dir_2c988c79311e7e98958fcd33ceaedc3d&#45;&gt;dir_d44c64559bbebec7f509842c48db8b23</title>
<path fill="none" stroke="black" d="M142.8,-71.89C150.16,-69.13 157.77,-66.4 165,-64 206.64,-50.17 255.25,-36.9 287.87,-28.39"/>
<polygon fill="black" stroke="black" points="289.07,-31.7 297.87,-25.81 287.32,-24.92 289.07,-31.7"/>
<g id="a_edge3&#45;headlabel"><a xlink:href="dir_000001_000031.html" target="_top" xlink:title="12">
<text text-anchor="middle" x="286.3" y="-32.85" font-family="Helvetica,sans-Serif" font-size="10.00">12</text>
</a>
</g>
</g>
<!-- dir_0d7cd5ee1b5d41097c4e7a5343d9e52f -->
<g id="node3" class="node">
<title>dir_0d7cd5ee1b5d41097c4e7a5343d9e52f</title>
<g id="a_node3"><a xlink:href="dir_0d7cd5ee1b5d41097c4e7a5343d9e52f.html" target="_top" xlink:title="LogicalNameMapping">
<polygon fill="white" stroke="red" points="245,-180 123,-180 123,-144 245,-144 245,-180"/>
<text text-anchor="middle" x="184" y="-159.5" font-family="Helvetica,sans-Serif" font-size="10.00">LogicalNameMapping</text>
</a>
</g>
</g>
<!-- dir_0d7cd5ee1b5d41097c4e7a5343d9e52f&#45;&gt;dir_d44c64559bbebec7f509842c48db8b23 -->
<g id="edge8" class="edge">
<title>dir_0d7cd5ee1b5d41097c4e7a5343d9e52f&#45;&gt;dir_d44c64559bbebec7f509842c48db8b23</title>
<path fill="none" stroke="black" d="M201.01,-143.87C225.89,-118.82 272.32,-72.05 300.77,-43.41"/>
<polygon fill="black" stroke="black" points="303.37,-45.75 307.93,-36.19 298.4,-40.82 303.37,-45.75"/>
<g id="a_edge8&#45;headlabel"><a xlink:href="dir_000004_000031.html" target="_top" xlink:title="41">
<text text-anchor="middle" x="302.85" y="-47.8" font-family="Helvetica,sans-Serif" font-size="10.00">41</text>
</a>
</g>
</g>
<!-- dir_ba1f5472f1b0c6a7889215161015b97a -->
<g id="node4" class="node">
<title>dir_ba1f5472f1b0c6a7889215161015b97a</title>
<g id="a_node4"><a xlink:href="dir_ba1f5472f1b0c6a7889215161015b97a.html" target="_top" xlink:title="pcie">
<polygon fill="white" stroke="red" points="317,-180 263,-180 263,-144 317,-144 317,-180"/>
<text text-anchor="middle" x="290" y="-159.5" font-family="Helvetica,sans-Serif" font-size="10.00">pcie</text>
</a>
</g>
</g>
<!-- dir_ba1f5472f1b0c6a7889215161015b97a&#45;&gt;dir_d44c64559bbebec7f509842c48db8b23 -->
<g id="edge4" class="edge">
<title>dir_ba1f5472f1b0c6a7889215161015b97a&#45;&gt;dir_d44c64559bbebec7f509842c48db8b23</title>
<path fill="none" stroke="black" d="M294.22,-143.87C300.21,-119.56 311.24,-74.82 318.34,-46.01"/>
<polygon fill="black" stroke="black" points="321.77,-46.74 320.76,-36.19 314.97,-45.06 321.77,-46.74"/>
<g id="a_edge4&#45;headlabel"><a xlink:href="dir_000008_000031.html" target="_top" xlink:title="1">
<text text-anchor="middle" x="323.66" y="-48.41" font-family="Helvetica,sans-Serif" font-size="10.00">1</text>
</a>
</g>
</g>
<!-- dir_6ef9080b70891889a24229911d1e8ddd -->
<g id="node5" class="node">
<title>dir_6ef9080b70891889a24229911d1e8ddd</title>
<g id="a_node5"><a xlink:href="dir_6ef9080b70891889a24229911d1e8ddd.html" target="_top" xlink:title="Rebot">
<polygon fill="white" stroke="red" points="389,-180 335,-180 335,-144 389,-144 389,-180"/>
<text text-anchor="middle" x="362" y="-159.5" font-family="Helvetica,sans-Serif" font-size="10.00">Rebot</text>
</a>
</g>
</g>
<!-- dir_6ef9080b70891889a24229911d1e8ddd&#45;&gt;dir_d44c64559bbebec7f509842c48db8b23 -->
<g id="edge9" class="edge">
<title>dir_6ef9080b70891889a24229911d1e8ddd&#45;&gt;dir_d44c64559bbebec7f509842c48db8b23</title>
<path fill="none" stroke="black" d="M357.54,-143.87C351.2,-119.56 339.54,-74.82 332.04,-46.01"/>
<polygon fill="black" stroke="black" points="335.39,-44.98 329.48,-36.19 328.61,-46.75 335.39,-44.98"/>
<g id="a_edge9&#45;headlabel"><a xlink:href="dir_000011_000031.html" target="_top" xlink:title="3">
<text text-anchor="middle" x="339.04" y="-45.25" font-family="Helvetica,sans-Serif" font-size="10.00">3</text>
</a>
</g>
</g>
<!-- dir_3d9251ce23a7b3eb30bf15d56d746237 -->
<g id="node6" class="node">
<title>dir_3d9251ce23a7b3eb30bf15d56d746237</title>
<g id="a_node6"><a xlink:href="dir_3d9251ce23a7b3eb30bf15d56d746237.html" target="_top" xlink:title="SharedDummy">
<polygon fill="white" stroke="red" points="104.5,-180 15.5,-180 15.5,-144 104.5,-144 104.5,-180"/>
<text text-anchor="middle" x="60" y="-159.5" font-family="Helvetica,sans-Serif" font-size="10.00">SharedDummy</text>
</a>
</g>
</g>
<!-- dir_3d9251ce23a7b3eb30bf15d56d746237&#45;&gt;dir_2c988c79311e7e98958fcd33ceaedc3d -->
<g id="edge1" class="edge">
<title>dir_3d9251ce23a7b3eb30bf15d56d746237&#45;&gt;dir_2c988c79311e7e98958fcd33ceaedc3d</title>
<path fill="none" stroke="black" d="M69.89,-143.7C74.49,-135.64 80.06,-125.89 85.15,-116.98"/>
<polygon fill="black" stroke="black" points="88.3,-118.52 90.23,-108.1 82.23,-115.05 88.3,-118.52"/>
<g id="a_edge1&#45;headlabel"><a xlink:href="dir_000014_000001.html" target="_top" xlink:title="1">
<text text-anchor="middle" x="88.99" y="-120.55" font-family="Helvetica,sans-Serif" font-size="10.00">1</text>
</a>
</g>
</g>
<!-- dir_3d9251ce23a7b3eb30bf15d56d746237&#45;&gt;dir_d44c64559bbebec7f509842c48db8b23 -->
<g id="edge2" class="edge">
<title>dir_3d9251ce23a7b3eb30bf15d56d746237&#45;&gt;dir_d44c64559bbebec7f509842c48db8b23</title>
<path fill="none" stroke="black" d="M92.38,-143.85C111.55,-133.61 136.26,-120.25 158,-108 191.67,-89.03 198.95,-82.28 233,-64 251.11,-54.28 271.62,-44.16 288.67,-35.99"/>
<polygon fill="black" stroke="black" points="290.23,-39.12 297.76,-31.66 287.22,-32.8 290.23,-39.12"/>
<g id="a_edge2&#45;headlabel"><a xlink:href="dir_000014_000031.html" target="_top" xlink:title="7">
<text text-anchor="middle" x="288.21" y="-40.73" font-family="Helvetica,sans-Serif" font-size="10.00">7</text>
</a>
</g>
</g>
<!-- dir_2f2a94ce81dd32d0db32de09c34bc480 -->
<g id="node7" class="node">
<title>dir_2f2a94ce81dd32d0db32de09c34bc480</title>
<g id="a_node7"><a xlink:href="dir_2f2a94ce81dd32d0db32de09c34bc480.html" target="_top" xlink:title="Subdevice">
<polygon fill="white" stroke="red" points="474.5,-180 407.5,-180 407.5,-144 474.5,-144 474.5,-180"/>
<text text-anchor="middle" x="441" y="-159.5" font-family="Helvetica,sans-Serif" font-size="10.00">Subdevice</text>
</a>
</g>
</g>
<!-- dir_2f2a94ce81dd32d0db32de09c34bc480&#45;&gt;dir_d44c64559bbebec7f509842c48db8b23 -->
<g id="edge5" class="edge">
<title>dir_2f2a94ce81dd32d0db32de09c34bc480&#45;&gt;dir_d44c64559bbebec7f509842c48db8b23</title>
<path fill="none" stroke="black" d="M427.01,-143.87C406.72,-119.03 368.99,-72.85 345.54,-44.14"/>
<polygon fill="black" stroke="black" points="348.08,-41.72 339.04,-36.19 342.66,-46.15 348.08,-41.72"/>
<g id="a_edge5&#45;headlabel"><a xlink:href="dir_000017_000031.html" target="_top" xlink:title="9">
<text text-anchor="middle" x="352.55" y="-40.21" font-family="Helvetica,sans-Serif" font-size="10.00">9</text>
</a>
</g>
</g>
<!-- dir_c728813a041a9309488ce692d4b180d2 -->
<g id="node8" class="node">
<title>dir_c728813a041a9309488ce692d4b180d2</title>
<g id="a_node8"><a xlink:href="dir_c728813a041a9309488ce692d4b180d2.html" target="_top" xlink:title="uio">
<polygon fill="white" stroke="red" points="547,-180 493,-180 493,-144 547,-144 547,-180"/>
<text text-anchor="middle" x="520" y="-159.5" font-family="Helvetica,sans-Serif" font-size="10.00">uio</text>
</a>
</g>
</g>
<!-- dir_c728813a041a9309488ce692d4b180d2&#45;&gt;dir_d44c64559bbebec7f509842c48db8b23 -->
<g id="edge6" class="edge">
<title>dir_c728813a041a9309488ce692d4b180d2&#45;&gt;dir_d44c64559bbebec7f509842c48db8b23</title>
<path fill="none" stroke="black" d="M498.31,-143.72C473.29,-123.96 430.75,-90.86 393,-64 382.55,-56.56 370.97,-48.75 360.38,-41.76"/>
<polygon fill="black" stroke="black" points="362.04,-38.67 351.76,-36.11 358.21,-44.52 362.04,-38.67"/>
<g id="a_edge6&#45;headlabel"><a xlink:href="dir_000020_000031.html" target="_top" xlink:title="2">
<text text-anchor="middle" x="366.61" y="-35.76" font-family="Helvetica,sans-Serif" font-size="10.00">2</text>
</a>
</g>
</g>
<!-- dir_4255389abb0fa6dfaf9ae7c45b4787f2 -->
<g id="node9" class="node">
<title>dir_4255389abb0fa6dfaf9ae7c45b4787f2</title>
<g id="a_node9"><a xlink:href="dir_4255389abb0fa6dfaf9ae7c45b4787f2.html" target="_top" xlink:title="xdma">
<polygon fill="white" stroke="red" points="619,-180 565,-180 565,-144 619,-144 619,-180"/>
<text text-anchor="middle" x="592" y="-159.5" font-family="Helvetica,sans-Serif" font-size="10.00">xdma</text>
</a>
</g>
</g>
<!-- dir_4255389abb0fa6dfaf9ae7c45b4787f2&#45;&gt;dir_d44c64559bbebec7f509842c48db8b23 -->
<g id="edge7" class="edge">
<title>dir_4255389abb0fa6dfaf9ae7c45b4787f2&#45;&gt;dir_d44c64559bbebec7f509842c48db8b23</title>
<path fill="none" stroke="black" d="M567.18,-143.88C536.85,-123.38 483.54,-88.71 435,-64 411.24,-51.9 383.44,-40.56 361.74,-32.28"/>
<polygon fill="black" stroke="black" points="362.82,-28.95 352.23,-28.7 360.35,-35.5 362.82,-28.95"/>
<g id="a_edge7&#45;headlabel"><a xlink:href="dir_000023_000031.html" target="_top" xlink:title="6">
<text text-anchor="middle" x="367.18" y="-25.06" font-family="Helvetica,sans-Serif" font-size="10.00">6</text>
</a>
</g>
</g>
</g>
</svg>
        <g id="navigator" transform="translate(0 0)" fill="#404254">
                <rect fill="#f2f5e9" fill-opacity="0.5" stroke="#606060" stroke-width=".5" x="0" y="0" width="60" height="60"/>
                <use id="zoomplus" xlink:href="#zoomPlus" x="17" y="9" onmousedown="handleZoom(evt,'in')"/>
                <use id="zoomminus" xlink:href="#zoomMin" x="42" y="9" onmousedown="handleZoom(evt,'out')"/>
                <use id="reset" xlink:href="#resetDef" x="30" y="36" onmousedown="handleReset()"/>
                <g id="arrowUp" xlink:href="#dirArrow" transform="translate(30 24)" onmousedown="handlePan(0,-1)">
                  <use xlink:href="#rim" fill="#404040">
                        <set attributeName="fill" to="#808080" begin="arrowUp.mouseover" end="arrowUp.mouseout"/>
                  </use>
                  <path fill="none" stroke="white" stroke-width="1.5" d="M0,-3.0v7 M-2.5,-0.5L0,-3.0L2.5,-0.5"/>
                </g>
                <g id="arrowRight" xlink:href="#dirArrow" transform="rotate(90) translate(36 -43)" onmousedown="handlePan(1,0)">
                  <use xlink:href="#rim" fill="#404040">
                        <set attributeName="fill" to="#808080" begin="arrowRight.mouseover" end="arrowRight.mouseout"/>
                  </use>
                  <path fill="none" stroke="white" stroke-width="1.5" d="M0,-3.0v7 M-2.5,-0.5L0,-3.0L2.5,-0.5"/>
                </g>
                <g id="arrowDown" xlink:href="#dirArrow" transform="rotate(180) translate(-30 -48)" onmousedown="handlePan(0,1)">
                  <use xlink:href="#rim" fill="#404040">
                        <set attributeName="fill" to="#808080" begin="arrowDown.mouseover" end="arrowDown.mouseout"/>
                  </use>
                  <path fill="none" stroke="white" stroke-width="1.5" d="M0,-3.0v7 M-2.5,-0.5L0,-3.0L2.5,-0.5"/>
                </g>
                <g id="arrowLeft" xlink:href="#dirArrow" transform="rotate(270) translate(-36 17)" onmousedown="handlePan(-1,0)">
                  <use xlink:href="#rim" fill="#404040">
                        <set attributeName="fill" to="#808080" begin="arrowLeft.mouseover" end="arrowLeft.mouseout"/>
                  </use>
                  <path fill="none" stroke="white" stroke-width="1.5" d="M0,-3.0v7 M-2.5,-0.5L0,-3.0L2.5,-0.5"/>
                </g>
        </g>
        <svg viewBox="0 0 15 15" width="100%" height="30px" preserveAspectRatio="xMaxYMin meet">
         <g id="arrow_out" transform="scale(0.3 0.3)">
          <a xlink:href="dir_dec21994cd756836ecefab773235960a_dep_org.svg" target="_base">
           <rect id="button" ry="5" rx="5" y="6" x="6" height="38" width="38"
                fill="#f2f5e9" fill-opacity="0.5" stroke="#606060" stroke-width="1.0"/>
           <path id="arrow"
             d="M 11.500037,31.436501 C 11.940474,20.09759 22.043105,11.32322 32.158766,21.979434 L 37.068811,17.246167 C 37.068811,17.246167 37.088388,32 37.088388,32 L 22.160133,31.978069 C 22.160133,31.978069 26.997745,27.140456 26.997745,27.140456 C 18.528582,18.264221 13.291696,25.230495 11.500037,31.436501 z"
             style="fill:#404040;"/>
          </a>
         </g>
        </svg>
</svg>
