<?xml version="1.0" encoding="UTF-8" standalone="no"?>
<!DOCTYPE svg PUBLIC "-//W3C//DTD SVG 1.1//EN"
 "http://www.w3.org/Graphics/SVG/1.1/DTD/svg11.dtd">
<!-- Generated by graphviz version 2.43.0 (0)
 -->
<!-- Title: tests/RebotDummyServer/src Pages: 1 -->
<svg width="140pt" height="167pt"
 viewBox="0.00 0.00 140.00 167.00" xmlns="http://www.w3.org/2000/svg" xmlns:xlink="http://www.w3.org/1999/xlink">
<g id="graph0" class="graph" transform="scale(1 1) rotate(0) translate(4 163)">
<title>tests/RebotDummyServer/src</title>
<polygon fill="white" stroke="transparent" points="-4,4 -4,-163 136,-163 136,4 -4,4"/>
<g id="clust1" class="cluster">
<title>clusterdir_d2ba885aae2b39f0597762f59ad5e30e</title>
<g id="a_clust1"><a xlink:href="dir_d2ba885aae2b39f0597762f59ad5e30e.html" target="_top" xlink:title="RebotDummyServer">
<polygon fill="#ddddee" stroke="black" points="8,-8 8,-151 124,-151 124,-8 8,-8"/>
<text text-anchor="middle" x="66" y="-139" font-family="Helvetica,sans-Serif" font-size="10.00">RebotDummyServer</text>
</a>
</g>
</g>
<!-- dir_2b7966624a0c1d9148c493691a877a2b -->
<g id="node1" class="node">
<title>dir_2b7966624a0c1d9148c493691a877a2b</title>
<g id="a_node1"><a xlink:href="dir_2b7966624a0c1d9148c493691a877a2b.html" target="_top" xlink:title="include">
<polygon fill="none" stroke="black" points="93,-52 39,-52 39,-16 93,-16 93,-52"/>
<text text-anchor="middle" x="66" y="-31.5" font-family="Helvetica,sans-Serif" font-size="10.00">include</text>
</a>
</g>
</g>
<!-- dir_cee5143bca733594ae5b10122ea47e6c -->
<g id="node2" class="node">
<title>dir_cee5143bca733594ae5b10122ea47e6c</title>
<g id="a_node2"><a xlink:href="dir_cee5143bca733594ae5b10122ea47e6c.html" target="_top" xlink:title="src">
<polygon fill="#eeeeff" stroke="black" points="93,-124 39,-124 39,-88 93,-88 93,-124"/>
<text text-anchor="middle" x="66" y="-103.5" font-family="Helvetica,sans-Serif" font-size="10.00">src</text>
</a>
</g>
</g>
<!-- dir_cee5143bca733594ae5b10122ea47e6c&#45;&gt;dir_2b7966624a0c1d9148c493691a877a2b -->
<g id="edge1" class="edge">
<title>dir_cee5143bca733594ae5b10122ea47e6c&#45;&gt;dir_2b7966624a0c1d9148c493691a877a2b</title>
<path fill="none" stroke="black" d="M66,-87.7C66,-79.98 66,-70.71 66,-62.11"/>
<polygon fill="black" stroke="black" points="69.5,-62.1 66,-52.1 62.5,-62.1 69.5,-62.1"/>
<g id="a_edge1&#45;headlabel"><a xlink:href="dir_000054_000053.html" target="_top" xlink:title="7">
<text text-anchor="middle" x="72.34" y="-63.2" font-family="Helvetica,sans-Serif" font-size="10.00">7</text>
</a>
</g>
</g>
</g>
</svg>
