<?xml version="1.0" encoding="UTF-8" standalone="no"?>
<!DOCTYPE svg PUBLIC "-//W3C//DTD SVG 1.1//EN"
 "http://www.w3.org/Graphics/SVG/1.1/DTD/svg11.dtd">
<!-- Generated by graphviz version 2.40.1 (20161225.0304)
 -->
<!-- Title: Graphical Class Hierarchy Pages: 1 -->
<svg width="907pt" height="50pt"
 viewBox="0.00 0.00 907.00 50.00" xmlns="http://www.w3.org/2000/svg" xmlns:xlink="http://www.w3.org/1999/xlink">
<g id="graph0" class="graph" transform="scale(1 1) rotate(0) translate(4 46)">
<title>Graphical Class Hierarchy</title>
<polygon fill="#ffffff" stroke="transparent" points="-4,4 -4,-46 903,-46 903,4 -4,4"/>
<!-- Node0 -->
<g id="node1" class="node">
<title>Node0</title>
<g id="a_node1"><a xlink:href="struct_register_descriptor_base.html" target="_top" xlink:title="RegisterDescriptorBase\l\&lt; RegWordFirmwareForcedReadOnly \&gt;">
<polygon fill="#ffffff" stroke="#000000" points="0,-6 0,-36 206,-36 206,-6 0,-6"/>
<text text-anchor="start" x="8" y="-24" font-family="Helvetica,sans-Serif" font-size="10.00" fill="#000000">RegisterDescriptorBase</text>
<text text-anchor="middle" x="103" y="-13" font-family="Helvetica,sans-Serif" font-size="10.00" fill="#000000">&lt; RegWordFirmwareForcedReadOnly &gt;</text>
</a>
</g>
</g>
<!-- Node1 -->
<g id="node2" class="node">
<title>Node1</title>
<g id="a_node2"><a xlink:href="struct_one_d_register_descriptor_base.html" target="_top" xlink:title="OneDRegisterDescriptorBase\l\&lt; RegWordFirmwareForcedReadOnly \&gt;">
<polygon fill="#ffffff" stroke="#000000" points="242,-6 242,-36 448,-36 448,-6 242,-6"/>
<text text-anchor="start" x="250" y="-24" font-family="Helvetica,sans-Serif" font-size="10.00" fill="#000000">OneDRegisterDescriptorBase</text>
<text text-anchor="middle" x="345" y="-13" font-family="Helvetica,sans-Serif" font-size="10.00" fill="#000000">&lt; RegWordFirmwareForcedReadOnly &gt;</text>
</a>
</g>
</g>
<!-- Node0&#45;&gt;Node1 -->
<g id="edge1" class="edge">
<title>Node0&#45;&gt;Node1</title>
<path fill="none" stroke="#191970" d="M216.5151,-21C224.892,-21 233.3169,-21 241.6285,-21"/>
<polygon fill="#191970" stroke="#191970" points="216.3318,-17.5001 206.3317,-21 216.3317,-24.5001 216.3318,-17.5001"/>
</g>
<!-- Node2 -->
<g id="node3" class="node">
<title>Node2</title>
<g id="a_node3"><a xlink:href="struct_scalar_register_descriptor_base.html" target="_top" xlink:title="ScalarRegisterDescriptor\lBase\&lt; RegWordFirmwareForcedRead\lOnly \&gt;">
<polygon fill="#ffffff" stroke="#000000" points="484,-.5 484,-41.5 680,-41.5 680,-.5 484,-.5"/>
<text text-anchor="start" x="492" y="-29.5" font-family="Helvetica,sans-Serif" font-size="10.00" fill="#000000">ScalarRegisterDescriptor</text>
<text text-anchor="start" x="492" y="-18.5" font-family="Helvetica,sans-Serif" font-size="10.00" fill="#000000">Base&lt; RegWordFirmwareForcedRead</text>
<text text-anchor="middle" x="582" y="-7.5" font-family="Helvetica,sans-Serif" font-size="10.00" fill="#000000">Only &gt;</text>
</a>
</g>
</g>
<!-- Node1&#45;&gt;Node2 -->
<g id="edge2" class="edge">
<title>Node1&#45;&gt;Node2</title>
<path fill="none" stroke="#191970" d="M458.2991,-21C466.8725,-21 475.4823,-21 483.9484,-21"/>
<polygon fill="#191970" stroke="#191970" points="458.2622,-17.5001 448.2622,-21 458.2622,-24.5001 458.2622,-17.5001"/>
</g>
<!-- Node3 -->
<g id="node4" class="node">
<title>Node3</title>
<g id="a_node4"><a xlink:href="struct_reg_word_firmware_forced_read_only.html" target="_top" xlink:title="Test force readonly plugin. ">
<polygon fill="#ffffff" stroke="#000000" points="716,-11.5 716,-30.5 899,-30.5 899,-11.5 716,-11.5"/>
<text text-anchor="middle" x="807.5" y="-18.5" font-family="Helvetica,sans-Serif" font-size="10.00" fill="#000000">RegWordFirmwareForcedReadOnly</text>
</a>
</g>
</g>
<!-- Node2&#45;&gt;Node3 -->
<g id="edge3" class="edge">
<title>Node2&#45;&gt;Node3</title>
<path fill="none" stroke="#191970" d="M690.3055,-21C698.8937,-21 707.5163,-21 715.9736,-21"/>
<polygon fill="#191970" stroke="#191970" points="690.2516,-17.5001 680.2516,-21 690.2516,-24.5001 690.2516,-17.5001"/>
</g>
</g>
</svg>
