<?xml version="1.0" encoding="UTF-8" standalone="no"?>
<!DOCTYPE svg PUBLIC "-//W3C//DTD SVG 1.1//EN"
 "http://www.w3.org/Graphics/SVG/1.1/DTD/svg11.dtd">
<!-- Generated by graphviz version 2.40.1 (20161225.0304)
 -->
<!-- Title: mtca4u_compatibility_headers/LNMBackendRegisterInfo.h Pages: 1 -->
<svg width="809pt" height="117pt"
 viewBox="0.00 0.00 808.50 117.00" xmlns="http://www.w3.org/2000/svg" xmlns:xlink="http://www.w3.org/1999/xlink">
<g id="graph0" class="graph" transform="scale(1 1) rotate(0) translate(4 113)">
<title>mtca4u_compatibility_headers/LNMBackendRegisterInfo.h</title>
<polygon fill="#ffffff" stroke="transparent" points="-4,4 -4,-113 804.5,-113 804.5,4 -4,4"/>
<!-- Node2 -->
<g id="node1" class="node">
<title>Node2</title>
<polygon fill="#bfbfbf" stroke="#000000" points="301.5,-67.5 301.5,-108.5 468.5,-108.5 468.5,-67.5 301.5,-67.5"/>
<text text-anchor="start" x="309.5" y="-96.5" font-family="Helvetica,sans-Serif" font-size="10.00" fill="#000000">mtca4u_compatibility</text>
<text text-anchor="start" x="309.5" y="-85.5" font-family="Helvetica,sans-Serif" font-size="10.00" fill="#000000">_headers/LNMBackendRegister</text>
<text text-anchor="middle" x="385" y="-74.5" font-family="Helvetica,sans-Serif" font-size="10.00" fill="#000000">Info.h</text>
</g>
<!-- Node3 -->
<g id="node2" class="node">
<title>Node3</title>
<g id="a_node2"><a xlink:href="_l_n_m_accessor_plugin_8cc.html" target="_top" xlink:title="device_backends/LogicalName\lMapping/src/LNMAccessorPlugin.cc">
<polygon fill="#ffffff" stroke="#000000" points="0,-.5 0,-30.5 186,-30.5 186,-.5 0,-.5"/>
<text text-anchor="start" x="8" y="-18.5" font-family="Helvetica,sans-Serif" font-size="10.00" fill="#000000">device_backends/LogicalName</text>
<text text-anchor="middle" x="93" y="-7.5" font-family="Helvetica,sans-Serif" font-size="10.00" fill="#000000">Mapping/src/LNMAccessorPlugin.cc</text>
</a>
</g>
</g>
<!-- Node2&#45;&gt;Node3 -->
<g id="edge1" class="edge">
<title>Node2&#45;&gt;Node3</title>
<path fill="none" stroke="#191970" d="M292.2792,-64.9786C247.0208,-53.7415 193.8459,-40.5388 153.813,-30.5991"/>
<polygon fill="#191970" stroke="#191970" points="291.5568,-68.4054 302.1056,-67.4183 293.2437,-61.6117 291.5568,-68.4054"/>
</g>
<!-- Node4 -->
<g id="node3" class="node">
<title>Node4</title>
<g id="a_node3"><a xlink:href="_l_n_m_math_plugin_8cc.html" target="_top" xlink:title="device_backends/LogicalName\lMapping/src/LNMMathPlugin.cc">
<polygon fill="#ffffff" stroke="#000000" points="203.5,-.5 203.5,-30.5 370.5,-30.5 370.5,-.5 203.5,-.5"/>
<text text-anchor="start" x="211.5" y="-18.5" font-family="Helvetica,sans-Serif" font-size="10.00" fill="#000000">device_backends/LogicalName</text>
<text text-anchor="middle" x="287" y="-7.5" font-family="Helvetica,sans-Serif" font-size="10.00" fill="#000000">Mapping/src/LNMMathPlugin.cc</text>
</a>
</g>
</g>
<!-- Node2&#45;&gt;Node4 -->
<g id="edge2" class="edge">
<title>Node2&#45;&gt;Node4</title>
<path fill="none" stroke="#191970" d="M349.1239,-61.459C335.0719,-51.0634 319.4653,-39.5177 307.4098,-30.5991"/>
<polygon fill="#191970" stroke="#191970" points="347.0585,-64.2847 357.1793,-67.4183 351.2216,-58.6572 347.0585,-64.2847"/>
</g>
<!-- Node5 -->
<g id="node4" class="node">
<title>Node5</title>
<g id="a_node4"><a xlink:href="_l_n_m_multiplier_plugin_8cc.html" target="_top" xlink:title="device_backends/LogicalName\lMapping/src/LNMMultiplierPlugin.cc">
<polygon fill="#ffffff" stroke="#000000" points="389,-.5 389,-30.5 577,-30.5 577,-.5 389,-.5"/>
<text text-anchor="start" x="397" y="-18.5" font-family="Helvetica,sans-Serif" font-size="10.00" fill="#000000">device_backends/LogicalName</text>
<text text-anchor="middle" x="483" y="-7.5" font-family="Helvetica,sans-Serif" font-size="10.00" fill="#000000">Mapping/src/LNMMultiplierPlugin.cc</text>
</a>
</g>
</g>
<!-- Node2&#45;&gt;Node5 -->
<g id="edge3" class="edge">
<title>Node2&#45;&gt;Node5</title>
<path fill="none" stroke="#191970" d="M420.8761,-61.459C434.9281,-51.0634 450.5347,-39.5177 462.5902,-30.5991"/>
<polygon fill="#191970" stroke="#191970" points="418.7784,-58.6572 412.8207,-67.4183 422.9415,-64.2847 418.7784,-58.6572"/>
</g>
<!-- Node6 -->
<g id="node5" class="node">
<title>Node6</title>
<g id="a_node5"><a xlink:href="_logical_name_map_parser_8cc.html" target="_top" xlink:title="device_backends/LogicalName\lMapping/src/LogicalNameMapParser.cc">
<polygon fill="#ffffff" stroke="#000000" points="595.5,-.5 595.5,-30.5 800.5,-30.5 800.5,-.5 595.5,-.5"/>
<text text-anchor="start" x="603.5" y="-18.5" font-family="Helvetica,sans-Serif" font-size="10.00" fill="#000000">device_backends/LogicalName</text>
<text text-anchor="middle" x="698" y="-7.5" font-family="Helvetica,sans-Serif" font-size="10.00" fill="#000000">Mapping/src/LogicalNameMapParser.cc</text>
</a>
</g>
</g>
<!-- Node2&#45;&gt;Node6 -->
<g id="edge4" class="edge">
<title>Node2&#45;&gt;Node6</title>
<path fill="none" stroke="#191970" d="M478.6884,-66.299C528.4544,-54.7717 588.3801,-40.8912 633.0052,-30.5547"/>
<polygon fill="#191970" stroke="#191970" points="477.8305,-62.905 468.8783,-68.5713 479.4102,-69.7244 477.8305,-62.905"/>
</g>
</g>
</svg>
