<?xml version="1.0" encoding="UTF-8" standalone="no"?>
<!DOCTYPE svg PUBLIC "-//W3C//DTD SVG 1.1//EN"
 "http://www.w3.org/Graphics/SVG/1.1/DTD/svg11.dtd">
<!-- Generated by graphviz version 2.40.1 (20161225.0304)
 -->
<!-- Title: ChimeraTK::INSTANTIATE_MULTI_TEMPLATE_FOR_CHIMERATK_USER_TYPES Pages: 1 -->
<svg width="404pt" height="50pt"
 viewBox="0.00 0.00 404.00 50.00" xmlns="http://www.w3.org/2000/svg" xmlns:xlink="http://www.w3.org/1999/xlink">
<g id="graph0" class="graph" transform="scale(1 1) rotate(0) translate(4 46)">
<title>ChimeraTK::INSTANTIATE_MULTI_TEMPLATE_FOR_CHIMERATK_USER_TYPES</title>
<polygon fill="#ffffff" stroke="transparent" points="-4,4 -4,-46 400,-46 400,4 -4,4"/>
<!-- Node119 -->
<g id="node1" class="node">
<title>Node119</title>
<polygon fill="#bfbfbf" stroke="#000000" points="0,-.5 0,-41.5 191,-41.5 191,-.5 0,-.5"/>
<text text-anchor="start" x="8" y="-29.5" font-family="Helvetica,sans-Serif" font-size="10.00" fill="#000000">ChimeraTK::INSTANTIATE</text>
<text text-anchor="start" x="8" y="-18.5" font-family="Helvetica,sans-Serif" font-size="10.00" fill="#000000">_MULTI_TEMPLATE_FOR_CHIMERATK</text>
<text text-anchor="middle" x="95.5" y="-7.5" font-family="Helvetica,sans-Serif" font-size="10.00" fill="#000000">_USER_TYPES</text>
</g>
<!-- Node120 -->
<g id="node2" class="node">
<title>Node120</title>
<g id="a_node2"><a xlink:href="class_chimera_t_k_1_1_numeric_addressed_interrupt_dispatcher.html#a8ac541c941037ffade933f46044ffb66" target="_top" xlink:title="Deactivate all subscribers without throwing an exception. ">
<polygon fill="#ffffff" stroke="#000000" points="227,-6 227,-36 396,-36 396,-6 227,-6"/>
<text text-anchor="start" x="235" y="-24" font-family="Helvetica,sans-Serif" font-size="10.00" fill="#000000">ChimeraTK::NumericAddressed</text>
<text text-anchor="middle" x="311.5" y="-13" font-family="Helvetica,sans-Serif" font-size="10.00" fill="#000000">InterruptDispatcher::deactivate</text>
</a>
</g>
</g>
<!-- Node119&#45;&gt;Node120 -->
<g id="edge1" class="edge">
<title>Node119&#45;&gt;Node120</title>
<path fill="none" stroke="#191970" d="M201.2159,-21C209.7801,-21 218.3635,-21 226.7504,-21"/>
<polygon fill="#191970" stroke="#191970" points="201.1841,-17.5001 191.184,-21 201.184,-24.5001 201.1841,-17.5001"/>
</g>
</g>
</svg>
