<?xml version="1.0" encoding="UTF-8" standalone="no"?>
<!DOCTYPE svg PUBLIC "-//W3C//DTD SVG 1.1//EN"
 "http://www.w3.org/Graphics/SVG/1.1/DTD/svg11.dtd">
<!-- Generated by graphviz version 2.43.0 (0)
 -->
<!-- Title: ChimeraTK::getPollDistributorRecursive Pages: 1 -->
<svg width="619pt" height="50pt"
 viewBox="0.00 0.00 619.00 50.00" xmlns="http://www.w3.org/2000/svg" xmlns:xlink="http://www.w3.org/1999/xlink">
<g id="graph0" class="graph" transform="scale(1 1) rotate(0) translate(4 46)">
<title>ChimeraTK::getPollDistributorRecursive</title>
<polygon fill="white" stroke="transparent" points="-4,4 -4,-46 615,-46 615,4 -4,4"/>
<!-- Node1 -->
<g id="node1" class="node">
<title>Node1</title>
<g id="a_node1"><a xlink:title=" ">
<polygon fill="#bfbfbf" stroke="black" points="0,-6 0,-36 162,-36 162,-6 0,-6"/>
<text text-anchor="start" x="8" y="-24" font-family="Helvetica,sans-Serif" font-size="10.00">ChimeraTK::getPollDistributor</text>
<text text-anchor="middle" x="81" y="-13" font-family="Helvetica,sans-Serif" font-size="10.00">Recursive</text>
</a>
</g>
</g>
<!-- Node2 -->
<g id="node2" class="node">
<title>Node2</title>
<g id="a_node2"><a xlink:href="class_chimera_t_k_1_1_trigger_distributor.html#a7e2f9cbabaf92b17df509c1399e778ef" target="_top" xlink:title="Common implementation for getting a TriggeredPollDistributor or a VariableDistributor&lt;nullptr_t&gt; to a...">
<polygon fill="white" stroke="black" points="198,-6 198,-36 359,-36 359,-6 198,-6"/>
<text text-anchor="start" x="206" y="-24" font-family="Helvetica,sans-Serif" font-size="10.00">ChimeraTK::TriggerDistributor</text>
<text text-anchor="middle" x="278.5" y="-13" font-family="Helvetica,sans-Serif" font-size="10.00">::getDistributorRecursive</text>
</a>
</g>
</g>
<!-- Node1&#45;&gt;Node2 -->
<g id="edge1" class="edge">
<title>Node1&#45;&gt;Node2</title>
<path fill="none" stroke="midnightblue" d="M162.08,-21C170.57,-21 179.24,-21 187.83,-21"/>
<polygon fill="midnightblue" stroke="midnightblue" points="187.86,-24.5 197.86,-21 187.86,-17.5 187.86,-24.5"/>
</g>
<!-- Node3 -->
<g id="node3" class="node">
<title>Node3</title>
<g id="a_node3"><a xlink:href="class_chimera_t_k_1_1_interrupt_controller_handler_factory.html#a95b372bbfb577531c01aa6252ef169b6" target="_top" xlink:title=" ">
<polygon fill="white" stroke="black" points="395,-0.5 395,-41.5 611,-41.5 611,-0.5 395,-0.5"/>
<text text-anchor="start" x="403" y="-29.5" font-family="Helvetica,sans-Serif" font-size="10.00">ChimeraTK::InterruptController</text>
<text text-anchor="start" x="403" y="-18.5" font-family="Helvetica,sans-Serif" font-size="10.00">HandlerFactory::createInterruptController</text>
<text text-anchor="middle" x="503" y="-7.5" font-family="Helvetica,sans-Serif" font-size="10.00">Handler</text>
</a>
</g>
</g>
<!-- Node2&#45;&gt;Node3 -->
<g id="edge2" class="edge">
<title>Node2&#45;&gt;Node3</title>
<path fill="none" stroke="midnightblue" d="M359.2,-21C367.53,-21 376.13,-21 384.77,-21"/>
<polygon fill="midnightblue" stroke="midnightblue" points="384.92,-24.5 394.92,-21 384.92,-17.5 384.92,-24.5"/>
</g>
</g>
</svg>
