<?xml version="1.0" encoding="UTF-8" standalone="no"?>
<!DOCTYPE svg PUBLIC "-//W3C//DTD SVG 1.1//EN"
 "http://www.w3.org/Graphics/SVG/1.1/DTD/svg11.dtd">
<!-- Generated by graphviz version 2.40.1 (20161225.0304)
 -->
<!-- Title: RegSingleWordScaled_R Pages: 1 -->
<svg width="1343pt" height="98pt"
 viewBox="0.00 0.00 1343.00 98.00" xmlns="http://www.w3.org/2000/svg" xmlns:xlink="http://www.w3.org/1999/xlink">
<g id="graph0" class="graph" transform="scale(1 1) rotate(0) translate(4 94)">
<title>RegSingleWordScaled_R</title>
<polygon fill="#ffffff" stroke="transparent" points="-4,4 -4,-94 1339,-94 1339,4 -4,4"/>
<!-- Node0 -->
<g id="node1" class="node">
<title>Node0</title>
<polygon fill="#bfbfbf" stroke="#000000" points="1201,-33 1201,-52 1335,-52 1335,-33 1201,-33"/>
<text text-anchor="middle" x="1268" y="-40" font-family="Helvetica,sans-Serif" font-size="10.00" fill="#000000">RegSingleWordScaled_R</text>
</g>
<!-- Node1 -->
<g id="node2" class="node">
<title>Node1</title>
<g id="a_node2"><a xlink:href="struct_scalar_register_descriptor_base.html" target="_top" xlink:title="ScalarRegisterDescriptor\lBase\&lt; RegSingleWordScaled_R \&gt;">
<polygon fill="#ffffff" stroke="#000000" points="984,-27.5 984,-57.5 1164,-57.5 1164,-27.5 984,-27.5"/>
<text text-anchor="start" x="992" y="-45.5" font-family="Helvetica,sans-Serif" font-size="10.00" fill="#000000">ScalarRegisterDescriptor</text>
<text text-anchor="middle" x="1074" y="-34.5" font-family="Helvetica,sans-Serif" font-size="10.00" fill="#000000">Base&lt; RegSingleWordScaled_R &gt;</text>
</a>
</g>
</g>
<!-- Node1&#45;&gt;Node0 -->
<g id="edge1" class="edge">
<title>Node1&#45;&gt;Node0</title>
<path fill="none" stroke="#191970" d="M1174.3476,-42.5C1183.3492,-42.5 1192.3123,-42.5 1200.9263,-42.5"/>
<polygon fill="#191970" stroke="#191970" points="1174.1847,-39.0001 1164.1847,-42.5 1174.1846,-46.0001 1174.1847,-39.0001"/>
</g>
<!-- Node2 -->
<g id="node3" class="node">
<title>Node2</title>
<g id="a_node3"><a xlink:href="struct_one_d_register_descriptor_base.html" target="_top" xlink:title="OneDRegisterDescriptorBase\l\&lt; RegSingleWordScaled_R \&gt;">
<polygon fill="#ffffff" stroke="#000000" points="647,-49.5 647,-79.5 805,-79.5 805,-49.5 647,-49.5"/>
<text text-anchor="start" x="655" y="-67.5" font-family="Helvetica,sans-Serif" font-size="10.00" fill="#000000">OneDRegisterDescriptorBase</text>
<text text-anchor="middle" x="726" y="-56.5" font-family="Helvetica,sans-Serif" font-size="10.00" fill="#000000">&lt; RegSingleWordScaled_R &gt;</text>
</a>
</g>
</g>
<!-- Node2&#45;&gt;Node1 -->
<g id="edge2" class="edge">
<title>Node2&#45;&gt;Node1</title>
<path fill="none" stroke="#191970" d="M815.5601,-58.8382C867.2645,-55.5695 932.0999,-51.4707 983.8961,-48.1962"/>
<polygon fill="#191970" stroke="#191970" points="815.1613,-55.3563 805.402,-59.4803 815.603,-62.3423 815.1613,-55.3563"/>
</g>
<!-- Node3 -->
<g id="node4" class="node">
<title>Node3</title>
<g id="a_node4"><a xlink:href="struct_register_descriptor_base.html" target="_top" xlink:title="RegisterDescriptorBase\l\&lt; RegSingleWordScaled_R \&gt;">
<polygon fill="#ffffff" stroke="#000000" points="311,-59.5 311,-89.5 467,-89.5 467,-59.5 311,-59.5"/>
<text text-anchor="start" x="319" y="-77.5" font-family="Helvetica,sans-Serif" font-size="10.00" fill="#000000">RegisterDescriptorBase</text>
<text text-anchor="middle" x="389" y="-66.5" font-family="Helvetica,sans-Serif" font-size="10.00" fill="#000000">&lt; RegSingleWordScaled_R &gt;</text>
</a>
</g>
</g>
<!-- Node3&#45;&gt;Node2 -->
<g id="edge3" class="edge">
<title>Node3&#45;&gt;Node2</title>
<path fill="none" stroke="#191970" d="M477.4757,-71.8746C529.989,-70.3164 596.0086,-68.3573 646.8022,-66.8501"/>
<polygon fill="#191970" stroke="#191970" points="477.0534,-68.3855 467.1616,-72.1807 477.2611,-75.3824 477.0534,-68.3855"/>
</g>
<!-- Node4 -->
<g id="node5" class="node">
<title>Node4</title>
<g id="a_node5"><a xlink:href="struct_register_descriptor_base.html" target="_top" xlink:title="RegisterDescriptorBase\l\&lt; Derived \&gt;">
<polygon fill="#ffffff" stroke="#000000" points="0,-34.5 0,-64.5 131,-64.5 131,-34.5 0,-34.5"/>
<text text-anchor="start" x="8" y="-52.5" font-family="Helvetica,sans-Serif" font-size="10.00" fill="#000000">RegisterDescriptorBase</text>
<text text-anchor="middle" x="65.5" y="-41.5" font-family="Helvetica,sans-Serif" font-size="10.00" fill="#000000">&lt; Derived &gt;</text>
</a>
</g>
</g>
<!-- Node4&#45;&gt;Node3 -->
<g id="edge4" class="edge">
<title>Node4&#45;&gt;Node3</title>
<path fill="none" stroke="#ffa500" stroke-dasharray="5,2" d="M141.3389,-55.3608C192.3775,-59.3051 259.4938,-64.4918 310.9817,-68.4708"/>
<polygon fill="#ffa500" stroke="#ffa500" points="141.595,-51.8703 131.355,-54.5893 141.0555,-58.8494 141.595,-51.8703"/>
<text text-anchor="middle" x="220.5" y="-68.5" font-family="Helvetica,sans-Serif" font-size="10.00" fill="#000000"> &lt; RegSingleWordScaled_R &gt;</text>
</g>
<!-- Node5 -->
<g id="node6" class="node">
<title>Node5</title>
<g id="a_node6"><a xlink:href="struct_one_d_register_descriptor_base.html" target="_top" xlink:title="OneDRegisterDescriptorBase\l\&lt; Derived \&gt;">
<polygon fill="#ffffff" stroke="#000000" points="310,-10.5 310,-40.5 468,-40.5 468,-10.5 310,-10.5"/>
<text text-anchor="start" x="318" y="-28.5" font-family="Helvetica,sans-Serif" font-size="10.00" fill="#000000">OneDRegisterDescriptorBase</text>
<text text-anchor="middle" x="389" y="-17.5" font-family="Helvetica,sans-Serif" font-size="10.00" fill="#000000">&lt; Derived &gt;</text>
</a>
</g>
</g>
<!-- Node4&#45;&gt;Node5 -->
<g id="edge6" class="edge">
<title>Node4&#45;&gt;Node5</title>
<path fill="none" stroke="#191970" d="M141.5832,-43.8555C192.2043,-40.1 258.56,-35.1772 309.8084,-31.3751"/>
<polygon fill="#191970" stroke="#191970" points="141.0686,-40.384 131.355,-44.6143 141.5866,-47.3648 141.0686,-40.384"/>
</g>
<!-- Node5&#45;&gt;Node2 -->
<g id="edge5" class="edge">
<title>Node5&#45;&gt;Node2</title>
<path fill="none" stroke="#ffa500" stroke-dasharray="5,2" d="M478.3055,-34.6316C523.4995,-39.3907 579.1985,-45.4662 629,-51.5 634.8193,-52.205 640.8318,-52.9562 646.8797,-53.7281"/>
<polygon fill="#ffa500" stroke="#ffa500" points="478.5495,-31.1381 468.2388,-33.575 477.8188,-38.0998 478.5495,-31.1381"/>
<text text-anchor="middle" x="557.5" y="-54.5" font-family="Helvetica,sans-Serif" font-size="10.00" fill="#000000"> &lt; RegSingleWordScaled_R &gt;</text>
</g>
<!-- Node6 -->
<g id="node7" class="node">
<title>Node6</title>
<g id="a_node7"><a xlink:href="struct_scalar_register_descriptor_base.html" target="_top" xlink:title="ScalarRegisterDescriptor\lBase\&lt; Derived \&gt;">
<polygon fill="#ffffff" stroke="#000000" points="657.5,-.5 657.5,-30.5 794.5,-30.5 794.5,-.5 657.5,-.5"/>
<text text-anchor="start" x="665.5" y="-18.5" font-family="Helvetica,sans-Serif" font-size="10.00" fill="#000000">ScalarRegisterDescriptor</text>
<text text-anchor="middle" x="726" y="-7.5" font-family="Helvetica,sans-Serif" font-size="10.00" fill="#000000">Base&lt; Derived &gt;</text>
</a>
</g>
</g>
<!-- Node5&#45;&gt;Node6 -->
<g id="edge8" class="edge">
<title>Node5&#45;&gt;Node6</title>
<path fill="none" stroke="#191970" d="M478.3101,-22.8498C534.4546,-21.1838 605.7819,-19.0673 657.4611,-17.5338"/>
<polygon fill="#191970" stroke="#191970" points="477.9033,-19.3603 468.0115,-23.1554 478.111,-26.3572 477.9033,-19.3603"/>
</g>
<!-- Node6&#45;&gt;Node1 -->
<g id="edge7" class="edge">
<title>Node6&#45;&gt;Node1</title>
<path fill="none" stroke="#ffa500" stroke-dasharray="5,2" d="M804.8252,-21.6158C858.0674,-25.7466 928.482,-31.2098 983.9376,-35.5124"/>
<polygon fill="#ffa500" stroke="#ffa500" points="804.9944,-18.1184 794.7536,-20.8343 804.4529,-25.0975 804.9944,-18.1184"/>
<text text-anchor="middle" x="894.5" y="-36.5" font-family="Helvetica,sans-Serif" font-size="10.00" fill="#000000"> &lt; RegSingleWordScaled_R &gt;</text>
</g>
</g>
</svg>
