<?xml version="1.0" encoding="UTF-8" standalone="no"?>
<!DOCTYPE svg PUBLIC "-//W3C//DTD SVG 1.1//EN"
 "http://www.w3.org/Graphics/SVG/1.1/DTD/svg11.dtd">
<!-- Generated by graphviz version 2.40.1 (20161225.0304)
 -->
<!-- Title: ChimeraTK::LogicalNameMappingBackend::SharedAccessor::operationInProgressInSameThread Pages: 1 -->
<svg width="407pt" height="247pt"
 viewBox="0.00 0.00 407.00 246.50" xmlns="http://www.w3.org/2000/svg" xmlns:xlink="http://www.w3.org/1999/xlink">
<g id="graph0" class="graph" transform="scale(1 1) rotate(0) translate(4 242.5)">
<title>ChimeraTK::LogicalNameMappingBackend::SharedAccessor::operationInProgressInSameThread</title>
<polygon fill="#ffffff" stroke="transparent" points="-4,4 -4,-242.5 403,-242.5 403,4 -4,4"/>
<!-- Node1 -->
<g id="node1" class="node">
<title>Node1</title>
<polygon fill="#bfbfbf" stroke="#000000" points="0,-104.5 0,-145.5 185,-145.5 185,-104.5 0,-104.5"/>
<text text-anchor="start" x="8" y="-133.5" font-family="Helvetica,sans-Serif" font-size="10.00" fill="#000000">ChimeraTK::LogicalNameMapping</text>
<text text-anchor="start" x="8" y="-122.5" font-family="Helvetica,sans-Serif" font-size="10.00" fill="#000000">Backend::SharedAccessor::</text>
<text text-anchor="middle" x="92.5" y="-111.5" font-family="Helvetica,sans-Serif" font-size="10.00" fill="#000000">operationInProgressInSameThread</text>
</g>
<!-- Node2 -->
<g id="node2" class="node">
<title>Node2</title>
<g id="a_node2"><a xlink:href="class_chimera_t_k_1_1_l_n_m_backend_bit_accessor.html#aee31ad502ab26ca8e6d13af6ece3cd16" target="_top" xlink:title="Backend specific implementation of preRead(). ">
<polygon fill="#ffffff" stroke="#000000" points="233.5,-208 233.5,-238 386.5,-238 386.5,-208 233.5,-208"/>
<text text-anchor="start" x="241.5" y="-226" font-family="Helvetica,sans-Serif" font-size="10.00" fill="#000000">ChimeraTK::LNMBackendBit</text>
<text text-anchor="middle" x="310" y="-215" font-family="Helvetica,sans-Serif" font-size="10.00" fill="#000000">Accessor::doPreRead</text>
</a>
</g>
</g>
<!-- Node1&#45;&gt;Node2 -->
<g id="edge1" class="edge">
<title>Node1&#45;&gt;Node2</title>
<path fill="none" stroke="#191970" d="M131.7495,-151.1742C156.5192,-166.775 189.6527,-186.0065 221,-199 228.9832,-202.309 237.5585,-205.2899 246.1209,-207.9339"/>
<polygon fill="#191970" stroke="#191970" points="133.3346,-148.034 123.021,-145.609 129.5713,-153.9363 133.3346,-148.034"/>
</g>
<!-- Node3 -->
<g id="node3" class="node">
<title>Node3</title>
<g id="a_node3"><a xlink:href="class_chimera_t_k_1_1_l_n_m_backend_bit_accessor.html#a1a2e912ef220ceb5908297eeecfaaaa2" target="_top" xlink:title="Backend specific implementation of postRead(). ">
<polygon fill="#ffffff" stroke="#000000" points="233.5,-159 233.5,-189 386.5,-189 386.5,-159 233.5,-159"/>
<text text-anchor="start" x="241.5" y="-177" font-family="Helvetica,sans-Serif" font-size="10.00" fill="#000000">ChimeraTK::LNMBackendBit</text>
<text text-anchor="middle" x="310" y="-166" font-family="Helvetica,sans-Serif" font-size="10.00" fill="#000000">Accessor::doPostRead</text>
</a>
</g>
</g>
<!-- Node1&#45;&gt;Node3 -->
<g id="edge2" class="edge">
<title>Node1&#45;&gt;Node3</title>
<path fill="none" stroke="#191970" d="M193.6886,-147.7965C210.5623,-151.5979 227.6799,-155.4543 243.406,-158.9972"/>
<polygon fill="#191970" stroke="#191970" points="194.319,-144.3509 183.7942,-145.5674 192.7805,-151.1797 194.319,-144.3509"/>
</g>
<!-- Node4 -->
<g id="node4" class="node">
<title>Node4</title>
<g id="a_node4"><a xlink:href="class_chimera_t_k_1_1_l_n_m_backend_bit_accessor.html#a26a82ed5ae6b1aab4bdf50b574a6e4ee" target="_top" xlink:title="Backend specific implementation of preWrite(). ">
<polygon fill="#ffffff" stroke="#000000" points="233.5,-110 233.5,-140 386.5,-140 386.5,-110 233.5,-110"/>
<text text-anchor="start" x="241.5" y="-128" font-family="Helvetica,sans-Serif" font-size="10.00" fill="#000000">ChimeraTK::LNMBackendBit</text>
<text text-anchor="middle" x="310" y="-117" font-family="Helvetica,sans-Serif" font-size="10.00" fill="#000000">Accessor::doPreWrite</text>
</a>
</g>
</g>
<!-- Node1&#45;&gt;Node4 -->
<g id="edge3" class="edge">
<title>Node1&#45;&gt;Node4</title>
<path fill="none" stroke="#191970" d="M195.276,-125C208.0671,-125 220.9689,-125 233.2704,-125"/>
<polygon fill="#191970" stroke="#191970" points="195.055,-121.5001 185.055,-125 195.0549,-128.5001 195.055,-121.5001"/>
</g>
<!-- Node5 -->
<g id="node5" class="node">
<title>Node5</title>
<g id="a_node5"><a xlink:href="class_chimera_t_k_1_1_l_n_m_backend_bit_accessor.html#a7b5c401950c35e3ff9ef0a29dd406bf8" target="_top" xlink:title="Backend specific implementation of postWrite(). ">
<polygon fill="#ffffff" stroke="#000000" points="233.5,-61 233.5,-91 386.5,-91 386.5,-61 233.5,-61"/>
<text text-anchor="start" x="241.5" y="-79" font-family="Helvetica,sans-Serif" font-size="10.00" fill="#000000">ChimeraTK::LNMBackendBit</text>
<text text-anchor="middle" x="310" y="-68" font-family="Helvetica,sans-Serif" font-size="10.00" fill="#000000">Accessor::doPostWrite</text>
</a>
</g>
</g>
<!-- Node1&#45;&gt;Node5 -->
<g id="edge4" class="edge">
<title>Node1&#45;&gt;Node5</title>
<path fill="none" stroke="#191970" d="M193.6886,-102.2035C210.5623,-98.4021 227.6799,-94.5457 243.406,-91.0028"/>
<polygon fill="#191970" stroke="#191970" points="192.7805,-98.8203 183.7942,-104.4326 194.319,-105.6491 192.7805,-98.8203"/>
</g>
<!-- Node6 -->
<g id="node6" class="node">
<title>Node6</title>
<g id="a_node6"><a xlink:href="class_chimera_t_k_1_1_l_n_m_backend_bit_accessor.html#a8ea4fd3e3302e7a8384419d4d3c00ee2" target="_top" xlink:title="Obtain the underlying TransferElements with actual hardware access. ">
<polygon fill="#ffffff" stroke="#000000" points="221,-.5 221,-41.5 399,-41.5 399,-.5 221,-.5"/>
<text text-anchor="start" x="229" y="-29.5" font-family="Helvetica,sans-Serif" font-size="10.00" fill="#000000">ChimeraTK::LNMBackendBit</text>
<text text-anchor="start" x="229" y="-18.5" font-family="Helvetica,sans-Serif" font-size="10.00" fill="#000000">Accessor::getHardwareAccessing</text>
<text text-anchor="middle" x="310" y="-7.5" font-family="Helvetica,sans-Serif" font-size="10.00" fill="#000000">Elements</text>
</a>
</g>
</g>
<!-- Node1&#45;&gt;Node6 -->
<g id="edge5" class="edge">
<title>Node1&#45;&gt;Node6</title>
<path fill="none" stroke="#191970" d="M133.6619,-99.0726C158.3944,-84.1439 190.8256,-65.6892 221,-52 229.0461,-48.3497 237.6578,-44.8601 246.2384,-41.6257"/>
<polygon fill="#191970" stroke="#191970" points="131.6376,-96.2074 124.9168,-104.3977 135.2782,-102.1862 131.6376,-96.2074"/>
</g>
</g>
</svg>
