<?xml version="1.0" encoding="UTF-8" standalone="no"?>
<!DOCTYPE svg PUBLIC "-//W3C//DTD SVG 1.1//EN"
 "http://www.w3.org/Graphics/SVG/1.1/DTD/svg11.dtd">
<!-- Generated by graphviz version 2.43.0 (0)
 -->
<!-- Title: DeviceFixture2D_DAQ2 Pages: 1 -->
<svg width="328pt" height="311pt"
 viewBox="0.00 0.00 328.00 311.00" xmlns="http://www.w3.org/2000/svg" xmlns:xlink="http://www.w3.org/1999/xlink">
<g id="graph0" class="graph" transform="scale(1 1) rotate(0) translate(4 307)">
<title>DeviceFixture2D_DAQ2</title>
<polygon fill="white" stroke="transparent" points="-4,4 -4,-307 324,-307 324,4 -4,4"/>
<!-- Node1 -->
<g id="node1" class="node">
<title>Node1</title>
<g id="a_node1"><a xlink:title=" ">
<polygon fill="#bfbfbf" stroke="black" points="25.5,-0.5 25.5,-19.5 156.5,-19.5 156.5,-0.5 25.5,-0.5"/>
<text text-anchor="middle" x="91" y="-7.5" font-family="Helvetica,sans-Serif" font-size="10.00">DeviceFixture2D_DAQ2</text>
</a>
</g>
</g>
<!-- Node2 -->
<g id="node2" class="node">
<title>Node2</title>
<g id="a_node2"><a xlink:href="struct_device_fixture2_d.html" target="_top" xlink:title=" ">
<polygon fill="white" stroke="black" points="0,-57.5 0,-87.5 182,-87.5 182,-57.5 0,-57.5"/>
<text text-anchor="start" x="8" y="-75.5" font-family="Helvetica,sans-Serif" font-size="10.00">DeviceFixture2D&lt; DeviceFixture2</text>
<text text-anchor="middle" x="91" y="-64.5" font-family="Helvetica,sans-Serif" font-size="10.00">D_DAQ2 &gt;</text>
</a>
</g>
</g>
<!-- Node2&#45;&gt;Node1 -->
<g id="edge1" class="edge">
<title>Node2&#45;&gt;Node1</title>
<path fill="none" stroke="midnightblue" d="M91,-47.35C91,-37.51 91,-26.78 91,-19.54"/>
<polygon fill="midnightblue" stroke="midnightblue" points="87.5,-47.47 91,-57.47 94.5,-47.47 87.5,-47.47"/>
</g>
<!-- Node3 -->
<g id="node3" class="node">
<title>Node3</title>
<g id="a_node3"><a xlink:href="class_chimera_t_k_1_1_device.html" target="_top" xlink:title="Class allows to read/write registers from device.">
<polygon fill="white" stroke="black" points="20,-215.5 20,-234.5 130,-234.5 130,-215.5 20,-215.5"/>
<text text-anchor="middle" x="75" y="-222.5" font-family="Helvetica,sans-Serif" font-size="10.00">ChimeraTK::Device</text>
</a>
</g>
</g>
<!-- Node3&#45;&gt;Node2 -->
<g id="edge2" class="edge">
<title>Node3&#45;&gt;Node2</title>
<path fill="none" stroke="#9a32cd" stroke-dasharray="5,2" d="M58.41,-207.64C42.63,-189.99 22.7,-160.93 33,-135 40.69,-115.63 57.7,-98.83 71.32,-87.7"/>
<polygon fill="#9a32cd" stroke="#9a32cd" points="56.26,-210.46 65.68,-215.32 61.35,-205.65 56.26,-210.46"/>
<text text-anchor="middle" x="38" y="-143.5" font-family="Helvetica,sans-Serif" font-size="10.00"> d</text>
</g>
<!-- Node6 -->
<g id="node6" class="node">
<title>Node6</title>
<g id="a_node6"><a xlink:href="struct_device_fixture2_d.html" target="_top" xlink:title="DeviceFixture used for the 2D access tests here no overwriting of ExceptionBackend.">
<polygon fill="white" stroke="black" points="52,-136.5 52,-155.5 210,-155.5 210,-136.5 52,-136.5"/>
<text text-anchor="middle" x="131" y="-143.5" font-family="Helvetica,sans-Serif" font-size="10.00">DeviceFixture2D&lt; Derived &gt;</text>
</a>
</g>
</g>
<!-- Node3&#45;&gt;Node6 -->
<g id="edge6" class="edge">
<title>Node3&#45;&gt;Node6</title>
<path fill="none" stroke="#9a32cd" stroke-dasharray="5,2" d="M87.28,-207.12C98.78,-191.3 115.53,-168.27 124.59,-155.81"/>
<polygon fill="#9a32cd" stroke="#9a32cd" points="84.26,-205.32 81.21,-215.47 89.92,-209.44 84.26,-205.32"/>
<text text-anchor="middle" x="114" y="-183.5" font-family="Helvetica,sans-Serif" font-size="10.00"> d</text>
</g>
<!-- Node4 -->
<g id="node4" class="node">
<title>Node4</title>
<g id="a_node4"><a xlink:title=" ">
<polygon fill="white" stroke="#bfbfbf" points="148.5,-215.5 148.5,-234.5 213.5,-234.5 213.5,-215.5 148.5,-215.5"/>
<text text-anchor="middle" x="181" y="-222.5" font-family="Helvetica,sans-Serif" font-size="10.00">std::string</text>
</a>
</g>
</g>
<!-- Node4&#45;&gt;Node2 -->
<g id="edge3" class="edge">
<title>Node4&#45;&gt;Node2</title>
<path fill="none" stroke="#9a32cd" stroke-dasharray="5,2" d="M218.37,-210.54C223.8,-206.97 228.68,-202.52 232,-197 252.86,-162.35 257.18,-137.65 232,-106 224.88,-97.06 205.01,-90.36 182.35,-85.45"/>
<polygon fill="#9a32cd" stroke="#9a32cd" points="216.56,-207.54 209.51,-215.45 219.96,-213.66 216.56,-207.54"/>
<text text-anchor="middle" x="284.5" y="-149" font-family="Helvetica,sans-Serif" font-size="10.00"> lmap</text>
<text text-anchor="middle" x="284.5" y="-138" font-family="Helvetica,sans-Serif" font-size="10.00">rawDeviceCdd</text>
</g>
<!-- Node4&#45;&gt;Node6 -->
<g id="edge7" class="edge">
<title>Node4&#45;&gt;Node6</title>
<path fill="none" stroke="#9a32cd" stroke-dasharray="5,2" d="M168.05,-207.04C165.65,-203.75 163.2,-200.3 161,-197 151.55,-182.86 141.58,-165.74 135.85,-155.65"/>
<polygon fill="#9a32cd" stroke="#9a32cd" points="165.32,-209.24 174.11,-215.16 170.93,-205.05 165.32,-209.24"/>
<text text-anchor="middle" x="196.5" y="-189" font-family="Helvetica,sans-Serif" font-size="10.00"> lmap</text>
<text text-anchor="middle" x="196.5" y="-178" font-family="Helvetica,sans-Serif" font-size="10.00">rawDeviceCdd</text>
</g>
<!-- Node5 -->
<g id="node5" class="node">
<title>Node5</title>
<g id="a_node5"><a xlink:title=" ">
<polygon fill="white" stroke="#bfbfbf" points="129,-272.5 129,-302.5 233,-302.5 233,-272.5 129,-272.5"/>
<text text-anchor="start" x="137" y="-290.5" font-family="Helvetica,sans-Serif" font-size="10.00">std::basic_string&lt;</text>
<text text-anchor="middle" x="181" y="-279.5" font-family="Helvetica,sans-Serif" font-size="10.00"> Char &gt;</text>
</a>
</g>
</g>
<!-- Node5&#45;&gt;Node4 -->
<g id="edge4" class="edge">
<title>Node5&#45;&gt;Node4</title>
<path fill="none" stroke="midnightblue" d="M181,-262.35C181,-252.51 181,-241.78 181,-234.54"/>
<polygon fill="midnightblue" stroke="midnightblue" points="177.5,-262.47 181,-272.47 184.5,-262.47 177.5,-262.47"/>
</g>
<!-- Node6&#45;&gt;Node2 -->
<g id="edge5" class="edge">
<title>Node6&#45;&gt;Node2</title>
<path fill="none" stroke="orange" stroke-dasharray="5,2" d="M104.06,-130.79C99.23,-126.97 94.84,-122.38 92,-117 87.28,-108.05 87.22,-96.55 88.25,-87.62"/>
<polygon fill="orange" stroke="orange" points="102.17,-133.73 112.41,-136.47 106.11,-127.95 102.17,-133.73"/>
<text text-anchor="middle" x="162" y="-109" font-family="Helvetica,sans-Serif" font-size="10.00"> &lt; DeviceFixture2D_DAQ2 &gt;</text>
</g>
</g>
</svg>
