<?xml version="1.0" encoding="UTF-8" standalone="no"?>
<!DOCTYPE svg PUBLIC "-//W3C//DTD SVG 1.1//EN"
 "http://www.w3.org/Graphics/SVG/1.1/DTD/svg11.dtd">
<!-- Generated by graphviz version 2.40.1 (20161225.0304)
 -->
<!-- Title: ChannelRegisterDescriptorBase&lt; Derived &gt; Pages: 1 -->
<svg width="740pt" height="137pt"
 viewBox="0.00 0.00 740.00 137.00" xmlns="http://www.w3.org/2000/svg" xmlns:xlink="http://www.w3.org/1999/xlink">
<g id="graph0" class="graph" transform="scale(1 1) rotate(0) translate(4 133)">
<title>ChannelRegisterDescriptorBase&lt; Derived &gt;</title>
<polygon fill="#ffffff" stroke="transparent" points="-4,4 -4,-133 736,-133 736,4 -4,4"/>
<!-- Node0 -->
<g id="node1" class="node">
<title>Node0</title>
<polygon fill="#bfbfbf" stroke="#000000" points="168,-49.5 168,-79.5 314,-79.5 314,-49.5 168,-49.5"/>
<text text-anchor="start" x="176" y="-67.5" font-family="Helvetica,sans-Serif" font-size="10.00" fill="#000000">ChannelRegisterDescriptor</text>
<text text-anchor="middle" x="241" y="-56.5" font-family="Helvetica,sans-Serif" font-size="10.00" fill="#000000">Base&lt; Derived &gt;</text>
</g>
<!-- Node2 -->
<g id="node3" class="node">
<title>Node2</title>
<g id="a_node3"><a xlink:href="struct_channel_register_descriptor_base.html" target="_top" xlink:title="ChannelRegisterDescriptor\lBase\&lt; RegChannelLast \&gt;">
<polygon fill="#ffffff" stroke="#000000" points="454,-98.5 454,-128.5 600,-128.5 600,-98.5 454,-98.5"/>
<text text-anchor="start" x="462" y="-116.5" font-family="Helvetica,sans-Serif" font-size="10.00" fill="#000000">ChannelRegisterDescriptor</text>
<text text-anchor="middle" x="527" y="-105.5" font-family="Helvetica,sans-Serif" font-size="10.00" fill="#000000">Base&lt; RegChannelLast &gt;</text>
</a>
</g>
</g>
<!-- Node0&#45;&gt;Node2 -->
<g id="edge2" class="edge">
<title>Node0&#45;&gt;Node2</title>
<path fill="none" stroke="#ffa500" stroke-dasharray="5,2" d="M324.2589,-78.7646C365.2978,-85.7958 414.3399,-94.1981 453.9098,-100.9776"/>
<polygon fill="#ffa500" stroke="#ffa500" points="324.7282,-75.2941 314.2807,-77.0551 323.546,-82.1936 324.7282,-75.2941"/>
<text text-anchor="middle" x="384" y="-100.5" font-family="Helvetica,sans-Serif" font-size="10.00" fill="#000000"> &lt; RegChannelLast &gt;</text>
</g>
<!-- Node4 -->
<g id="node5" class="node">
<title>Node4</title>
<g id="a_node5"><a xlink:href="struct_channel_register_descriptor_base.html" target="_top" xlink:title="ChannelRegisterDescriptor\lBase\&lt; RegChannel3 \&gt;">
<polygon fill="#ffffff" stroke="#000000" points="454,-49.5 454,-79.5 600,-79.5 600,-49.5 454,-49.5"/>
<text text-anchor="start" x="462" y="-67.5" font-family="Helvetica,sans-Serif" font-size="10.00" fill="#000000">ChannelRegisterDescriptor</text>
<text text-anchor="middle" x="527" y="-56.5" font-family="Helvetica,sans-Serif" font-size="10.00" fill="#000000">Base&lt; RegChannel3 &gt;</text>
</a>
</g>
</g>
<!-- Node0&#45;&gt;Node4 -->
<g id="edge4" class="edge">
<title>Node0&#45;&gt;Node4</title>
<path fill="none" stroke="#ffa500" stroke-dasharray="5,2" d="M324.5193,-64.5C365.5051,-64.5 414.4236,-64.5 453.9098,-64.5"/>
<polygon fill="#ffa500" stroke="#ffa500" points="324.2808,-61.0001 314.2807,-64.5 324.2807,-68.0001 324.2808,-61.0001"/>
<text text-anchor="middle" x="384" y="-67.5" font-family="Helvetica,sans-Serif" font-size="10.00" fill="#000000"> &lt; RegChannel3 &gt;</text>
</g>
<!-- Node6 -->
<g id="node7" class="node">
<title>Node6</title>
<g id="a_node7"><a xlink:href="struct_channel_register_descriptor_base.html" target="_top" xlink:title="ChannelRegisterDescriptor\lBase\&lt; RegChannel4 \&gt;">
<polygon fill="#ffffff" stroke="#000000" points="454,-.5 454,-30.5 600,-30.5 600,-.5 454,-.5"/>
<text text-anchor="start" x="462" y="-18.5" font-family="Helvetica,sans-Serif" font-size="10.00" fill="#000000">ChannelRegisterDescriptor</text>
<text text-anchor="middle" x="527" y="-7.5" font-family="Helvetica,sans-Serif" font-size="10.00" fill="#000000">Base&lt; RegChannel4 &gt;</text>
</a>
</g>
</g>
<!-- Node0&#45;&gt;Node6 -->
<g id="edge6" class="edge">
<title>Node0&#45;&gt;Node6</title>
<path fill="none" stroke="#ffa500" stroke-dasharray="5,2" d="M324.2589,-50.2354C365.2978,-43.2042 414.3399,-34.8019 453.9098,-28.0224"/>
<polygon fill="#ffa500" stroke="#ffa500" points="323.546,-46.8064 314.2807,-51.9449 324.7282,-53.7059 323.546,-46.8064"/>
<text text-anchor="middle" x="384" y="-52.5" font-family="Helvetica,sans-Serif" font-size="10.00" fill="#000000"> &lt; RegChannel4 &gt;</text>
</g>
<!-- Node1 -->
<g id="node2" class="node">
<title>Node1</title>
<g id="a_node2"><a xlink:href="struct_register_descriptor_base.html" target="_top" xlink:title="Base descriptor with defaults, used for all registers. ">
<polygon fill="#ffffff" stroke="#000000" points="0,-49.5 0,-79.5 131,-79.5 131,-49.5 0,-49.5"/>
<text text-anchor="start" x="8" y="-67.5" font-family="Helvetica,sans-Serif" font-size="10.00" fill="#000000">RegisterDescriptorBase</text>
<text text-anchor="middle" x="65.5" y="-56.5" font-family="Helvetica,sans-Serif" font-size="10.00" fill="#000000">&lt; Derived &gt;</text>
</a>
</g>
</g>
<!-- Node1&#45;&gt;Node0 -->
<g id="edge1" class="edge">
<title>Node1&#45;&gt;Node0</title>
<path fill="none" stroke="#191970" d="M141.4755,-64.5C150.1813,-64.5 159.0445,-64.5 167.7141,-64.5"/>
<polygon fill="#191970" stroke="#191970" points="141.3491,-61.0001 131.349,-64.5 141.349,-68.0001 141.3491,-61.0001"/>
</g>
<!-- Node3 -->
<g id="node4" class="node">
<title>Node3</title>
<g id="a_node4"><a xlink:href="struct_reg_channel_last.html" target="_top" xlink:title="Test channel accessors. ">
<polygon fill="#ffffff" stroke="#000000" points="637,-104 637,-123 732,-123 732,-104 637,-104"/>
<text text-anchor="middle" x="684.5" y="-111" font-family="Helvetica,sans-Serif" font-size="10.00" fill="#000000">RegChannelLast</text>
</a>
</g>
</g>
<!-- Node2&#45;&gt;Node3 -->
<g id="edge3" class="edge">
<title>Node2&#45;&gt;Node3</title>
<path fill="none" stroke="#191970" d="M610.3811,-113.5C619.3755,-113.5 628.289,-113.5 636.6502,-113.5"/>
<polygon fill="#191970" stroke="#191970" points="610.217,-110.0001 600.2169,-113.5 610.2169,-117.0001 610.217,-110.0001"/>
</g>
<!-- Node5 -->
<g id="node6" class="node">
<title>Node5</title>
<g id="a_node6"><a xlink:href="struct_reg_channel3.html" target="_top" xlink:title="Test channel accessor. ">
<polygon fill="#ffffff" stroke="#000000" points="644.5,-55 644.5,-74 724.5,-74 724.5,-55 644.5,-55"/>
<text text-anchor="middle" x="684.5" y="-62" font-family="Helvetica,sans-Serif" font-size="10.00" fill="#000000">RegChannel3</text>
</a>
</g>
</g>
<!-- Node4&#45;&gt;Node5 -->
<g id="edge5" class="edge">
<title>Node4&#45;&gt;Node5</title>
<path fill="none" stroke="#191970" d="M610.4979,-64.5C622.1855,-64.5 633.7331,-64.5 644.106,-64.5"/>
<polygon fill="#191970" stroke="#191970" points="610.217,-61.0001 600.2169,-64.5 610.2169,-68.0001 610.217,-61.0001"/>
</g>
<!-- Node7 -->
<g id="node8" class="node">
<title>Node7</title>
<g id="a_node8"><a xlink:href="struct_reg_channel4.html" target="_top" xlink:title="Test channel accessors. ">
<polygon fill="#ffffff" stroke="#000000" points="644.5,-6 644.5,-25 724.5,-25 724.5,-6 644.5,-6"/>
<text text-anchor="middle" x="684.5" y="-13" font-family="Helvetica,sans-Serif" font-size="10.00" fill="#000000">RegChannel4</text>
</a>
</g>
</g>
<!-- Node6&#45;&gt;Node7 -->
<g id="edge7" class="edge">
<title>Node6&#45;&gt;Node7</title>
<path fill="none" stroke="#191970" d="M610.4979,-15.5C622.1855,-15.5 633.7331,-15.5 644.106,-15.5"/>
<polygon fill="#191970" stroke="#191970" points="610.217,-12.0001 600.2169,-15.5 610.2169,-19.0001 610.217,-12.0001"/>
</g>
</g>
</svg>
