<?xml version="1.0" encoding="UTF-8" standalone="no"?>
<!DOCTYPE svg PUBLIC "-//W3C//DTD SVG 1.1//EN"
 "http://www.w3.org/Graphics/SVG/1.1/DTD/svg11.dtd">
<!-- Generated by graphviz version 2.43.0 (0)
 -->
<!-- Title: ProcessArrayFactoryBackend::getRegisterAccessor_impl Pages: 1 -->
<svg width="805pt" height="38pt"
 viewBox="0.00 0.00 805.00 38.00" xmlns="http://www.w3.org/2000/svg" xmlns:xlink="http://www.w3.org/1999/xlink">
<g id="graph0" class="graph" transform="scale(1 1) rotate(0) translate(4 34)">
<title>ProcessArrayFactoryBackend::getRegisterAccessor_impl</title>
<!-- Node1 -->
<g id="Node000001" class="node">
<title>Node1</title>
<g id="a_Node000001"><a xlink:title=" ">
<polygon fill="#999999" stroke="#666666" points="797,-30 640,-30 640,0 797,0 797,-30"/>
<text text-anchor="start" x="648" y="-18" font-family="Helvetica,sans-Serif" font-size="10.00">ProcessArrayFactoryBackend</text>
<text text-anchor="middle" x="718.5" y="-7" font-family="Helvetica,sans-Serif" font-size="10.00">::getRegisterAccessor_impl</text>
</a>
</g>
</g>
<!-- Node2 -->
<g id="Node000002" class="node">
<title>Node2</title>
<g id="a_Node000002"><a xlink:href="struct_process_array_factory_backend.html#a2abef35a33451e6af8beef28b83af325" target="_top" xlink:title=" ">
<polygon fill="white" stroke="#666666" points="604,-30 441,-30 441,0 604,0 604,-30"/>
<text text-anchor="start" x="449" y="-18" font-family="Helvetica,sans-Serif" font-size="10.00">ProcessArrayFactoryBackend</text>
<text text-anchor="middle" x="522.5" y="-7" font-family="Helvetica,sans-Serif" font-size="10.00">::ProcessArrayFactoryBackend</text>
</a>
</g>
</g>
<!-- Node1&#45;&gt;Node2 -->
<g id="edge1_Node000001_Node000002" class="edge">
<title>Node1&#45;&gt;Node2</title>
<g id="a_edge1_Node000001_Node000002"><a xlink:title=" ">
<path fill="none" stroke="#63b8ff" d="M629.94,-15C621.32,-15 612.6,-15 604.06,-15"/>
<polygon fill="#63b8ff" stroke="#63b8ff" points="629.99,-18.5 639.99,-15 629.99,-11.5 629.99,-18.5"/>
</a>
</g>
</g>
<!-- Node3 -->
<g id="Node000003" class="node">
<title>Node3</title>
<g id="a_Node000003"><a xlink:href="struct_process_array_factory_backend.html#a3ecf4a8a44f29033d1aeb515718d2d1b" target="_top" xlink:title=" ">
<polygon fill="white" stroke="#666666" points="405,-30 248,-30 248,0 405,0 405,-30"/>
<text text-anchor="start" x="256" y="-18" font-family="Helvetica,sans-Serif" font-size="10.00">ProcessArrayFactoryBackend</text>
<text text-anchor="middle" x="326.5" y="-7" font-family="Helvetica,sans-Serif" font-size="10.00">::createInstance</text>
</a>
</g>
</g>
<!-- Node2&#45;&gt;Node3 -->
<g id="edge2_Node000002_Node000003" class="edge">
<title>Node2&#45;&gt;Node3</title>
<g id="a_edge2_Node000002_Node000003"><a xlink:title=" ">
<path fill="none" stroke="#63b8ff" d="M430.83,-15C422.21,-15 413.52,-15 405.03,-15"/>
<polygon fill="#63b8ff" stroke="#63b8ff" points="430.91,-18.5 440.91,-15 430.91,-11.5 430.91,-18.5"/>
</a>
</g>
</g>
<!-- Node4 -->
<g id="Node000004" class="node">
<title>Node4</title>
<g id="a_Node000004"><a xlink:href="class_process_array_factory_backend_1_1_backend_registerer.html#a5cb29fba01983d70459714e9d03b4234" target="_top" xlink:title=" ">
<polygon fill="white" stroke="#666666" points="212,-30 0,-30 0,0 212,0 212,-30"/>
<text text-anchor="start" x="8" y="-18" font-family="Helvetica,sans-Serif" font-size="10.00">ProcessArrayFactoryBackend</text>
<text text-anchor="middle" x="106" y="-7" font-family="Helvetica,sans-Serif" font-size="10.00">::BackendRegisterer::BackendRegisterer</text>
</a>
</g>
</g>
<!-- Node3&#45;&gt;Node4 -->
<g id="edge3_Node000003_Node000004" class="edge">
<title>Node3&#45;&gt;Node4</title>
<g id="a_edge3_Node000003_Node000004"><a xlink:title=" ">
<path fill="none" stroke="#63b8ff" d="M237.74,-15C229.36,-15 220.81,-15 212.29,-15"/>
<polygon fill="#63b8ff" stroke="#63b8ff" points="237.85,-18.5 247.85,-15 237.85,-11.5 237.85,-18.5"/>
</a>
</g>
</g>
</g>
</svg>
