<?xml version="1.0" encoding="UTF-8" standalone="no"?>
<!DOCTYPE svg PUBLIC "-//W3C//DTD SVG 1.1//EN"
 "http://www.w3.org/Graphics/SVG/1.1/DTD/svg11.dtd">
<!-- Generated by graphviz version 2.43.0 (0)
 -->
<!-- Title: TypedPVHolder&lt; DataType &gt; Pages: 1 -->
<!--zoomable 162 -->

<svg id="main" version="1.1" xmlns="http://www.w3.org/2000/svg" xmlns:xlink="http://www.w3.org/1999/xlink" xml:space="preserve" onload="init(evt)">
<style type="text/css"><![CDATA[
.node, .edge {opacity: 0.7;}
.node.selected, .edge.selected {opacity: 1;}
.edge:hover path { stroke: red; }
.edge:hover polygon { stroke: red; fill: red; }
]]></style>

<defs>
  <circle id="rim" cx="0" cy="0" r="7"/>
  <circle id="rim2" cx="0" cy="0" r="3.5"/>
  <g id="zoomPlus">
    <use xlink:href="#rim" fill="#404040"><set attributeName="fill" to="#808080" begin="zoomplus.mouseover" end="zoomplus.mouseout"/></use>
    <path d="M-4,0h8M0,-4v8" fill="none" stroke="white" stroke-width="1.5" pointer-events="none"/>
  </g>
  <g id="zoomMin">
    <use xlink:href="#rim" fill="#404040"><set attributeName="fill" to="#808080" begin="zoomminus.mouseover" end="zoomminus.mouseout"/></use>
    <path d="M-4,0h8" fill="none" stroke="white" stroke-width="1.5" pointer-events="none"/>
  </g>
  <g id="arrowUp" transform="translate(30 24)">
    <use xlink:href="#rim"/>
    <path pointer-events="none" fill="none" stroke="white" stroke-width="1.5" d="M0,-3.0v7 M-2.5,-0.5L0,-3.0L2.5,-0.5"/>
  </g>
  <g id="arrowRight" transform="rotate(90) translate(36 -43)">
    <use xlink:href="#rim"/>
    <path pointer-events="none" fill="none" stroke="white" stroke-width="1.5" d="M0,-3.0v7 M-2.5,-0.5L0,-3.0L2.5,-0.5"/>
  </g>
  <g id="arrowDown" transform="rotate(180) translate(-30 -48)">
    <use xlink:href="#rim"/>
    <path pointer-events="none" fill="none" stroke="white" stroke-width="1.5" d="M0,-3.0v7 M-2.5,-0.5L0,-3.0L2.5,-0.5"/>
  </g>
  <g id="arrowLeft" transform="rotate(270) translate(-36 17)">
    <use xlink:href="#rim"/>
    <path pointer-events="none" fill="none" stroke="white" stroke-width="1.5" d="M0,-3.0v7 M-2.5,-0.5L0,-3.0L2.5,-0.5"/>
  </g>
  <g id="resetDef">
    <use xlink:href="#rim2" fill="#404040"><set attributeName="fill" to="#808080" begin="reset.mouseover" end="reset.mouseout"/></use>
  </g>
</defs>
<script type="application/ecmascript">
var viewWidth = 1006;
var viewHeight = 162;
var sectionId = 'dynsection-0';
</script>
<script type="application/ecmascript" xlink:href="svg.min.js"/>
<svg id="graph" class="graph">
<g id="viewport">
<title>TypedPVHolder&lt; DataType &gt;</title>
<!-- Node1 -->
<g id="Node000001" class="node">
<title>Node1</title>
<g id="a_Node000001"><a xlink:title=" ">
<polygon fill="#999999" stroke="#666666" points="998,-83 840,-83 840,-64 998,-64 998,-83"/>
<text text-anchor="middle" x="919" y="-71" font-family="Helvetica,sans-Serif" font-size="10.00">TypedPVHolder&lt; DataType &gt;</text>
</a>
</g>
</g>
<!-- Node2 -->
<g id="Node000002" class="node">
<title>Node2</title>
<g id="a_Node000002"><a xlink:href="class_chimera_t_k_1_1_process_array.html" target="_top" xlink:title=" ">
<polygon fill="white" stroke="#666666" points="716,-110.5 576,-110.5 576,-80.5 716,-80.5 716,-110.5"/>
<text text-anchor="start" x="584" y="-98.5" font-family="Helvetica,sans-Serif" font-size="10.00">ChimeraTK::ProcessArray</text>
<text text-anchor="middle" x="646" y="-87.5" font-family="Helvetica,sans-Serif" font-size="10.00">&lt; DataType &gt;</text>
</a>
</g>
</g>
<!-- Node2&#45;&gt;Node1 -->
<g id="edge1_Node000001_Node000002" class="edge">
<title>Node2&#45;&gt;Node1</title>
<g id="a_edge1_Node000001_Node000002"><a xlink:title=" ">
<path fill="none" stroke="#9a32cd" stroke-dasharray="5,2" d="M726.48,-89.05C762.25,-86.14 804.34,-82.73 839.94,-79.84"/>
<polygon fill="#9a32cd" stroke="#9a32cd" points="725.77,-85.59 716.09,-89.89 726.34,-92.57 725.77,-85.59"/>
</a>
</g>
<text text-anchor="middle" x="778" y="-145.5" font-family="Helvetica,sans-Serif" font-size="10.00" fill="grey"> constantArray</text>
<text text-anchor="middle" x="778" y="-134.5" font-family="Helvetica,sans-Serif" font-size="10.00" fill="grey">dataTypeConstant</text>
<text text-anchor="middle" x="778" y="-123.5" font-family="Helvetica,sans-Serif" font-size="10.00" fill="grey">fromDeviceArray</text>
<text text-anchor="middle" x="778" y="-112.5" font-family="Helvetica,sans-Serif" font-size="10.00" fill="grey">fromDeviceScalar</text>
<text text-anchor="middle" x="778" y="-101.5" font-family="Helvetica,sans-Serif" font-size="10.00" fill="grey">toDeviceArray</text>
<text text-anchor="middle" x="778" y="-90.5" font-family="Helvetica,sans-Serif" font-size="10.00" fill="grey">toDeviceScalar</text>
</g>
<!-- Node3 -->
<g id="Node000003" class="node">
<title>Node3</title>
<g id="a_Node000003"><a xlink:title=" ">
<polygon fill="white" stroke="#666666" points="465,-153.5 289,-153.5 289,-123.5 465,-123.5 465,-153.5"/>
<text text-anchor="start" x="297" y="-141.5" font-family="Helvetica,sans-Serif" font-size="10.00">ChimeraTK::NDRegisterAccessor</text>
<text text-anchor="middle" x="377" y="-130.5" font-family="Helvetica,sans-Serif" font-size="10.00">&lt; DataType &#160;&gt;</text>
</a>
</g>
</g>
<!-- Node3&#45;&gt;Node2 -->
<g id="edge2_Node000002_Node000003" class="edge">
<title>Node3&#45;&gt;Node2</title>
<g id="a_edge2_Node000002_Node000003"><a xlink:title=" ">
<path fill="none" stroke="#63b8ff" d="M475.19,-123.68C502.03,-119.51 531.16,-114.9 558,-110.5 563.75,-109.56 569.71,-108.56 575.69,-107.56"/>
<polygon fill="#63b8ff" stroke="#63b8ff" points="474.37,-120.27 465.02,-125.26 475.44,-127.18 474.37,-120.27"/>
</a>
</g>
</g>
<!-- Node4 -->
<g id="Node000004" class="node">
<title>Node4</title>
<g id="a_Node000004"><a xlink:href="class_chimera_t_k_1_1_process_array.html" target="_top" xlink:title="Array version of the ProcessVariable.">
<polygon fill="white" stroke="#666666" points="461.5,-105 292.5,-105 292.5,-86 461.5,-86 461.5,-105"/>
<text text-anchor="middle" x="377" y="-93" font-family="Helvetica,sans-Serif" font-size="10.00">ChimeraTK::ProcessArray&lt; T &gt;</text>
</a>
</g>
</g>
<!-- Node4&#45;&gt;Node2 -->
<g id="edge3_Node000002_Node000004" class="edge">
<title>Node4&#45;&gt;Node2</title>
<g id="a_edge3_Node000002_Node000004"><a xlink:title=" ">
<path fill="none" stroke="orange" stroke-dasharray="5,2" d="M471.77,-95.5C506.04,-95.5 544.14,-95.5 575.87,-95.5"/>
<polygon fill="orange" stroke="orange" points="471.75,-92 461.75,-95.5 471.75,-99 471.75,-92"/>
</a>
</g>
<text text-anchor="middle" x="520.5" y="-98.5" font-family="Helvetica,sans-Serif" font-size="10.00" fill="grey"> &lt; DataType &gt;</text>
</g>
<!-- Node5 -->
<g id="Node000005" class="node">
<title>Node5</title>
<g id="a_Node000005"><a xlink:title=" ">
<polygon fill="white" stroke="#666666" points="204,-105 0,-105 0,-86 204,-86 204,-105"/>
<text text-anchor="middle" x="102" y="-93" font-family="Helvetica,sans-Serif" font-size="10.00">ChimeraTK::NDRegisterAccessor&lt; T &gt;</text>
</a>
</g>
</g>
<!-- Node5&#45;&gt;Node4 -->
<g id="edge4_Node000004_Node000005" class="edge">
<title>Node5&#45;&gt;Node4</title>
<g id="a_edge4_Node000004_Node000005"><a xlink:title=" ">
<path fill="none" stroke="#63b8ff" d="M214.54,-95.5C240.53,-95.5 267.77,-95.5 292.31,-95.5"/>
<polygon fill="#63b8ff" stroke="#63b8ff" points="214.27,-92 204.27,-95.5 214.27,-99 214.27,-92"/>
</a>
</g>
</g>
<!-- Node6 -->
<g id="Node000006" class="node">
<title>Node6</title>
<g id="a_Node000006"><a xlink:title=" ">
<polygon fill="white" stroke="#666666" points="716,-62 576,-62 576,-43 716,-43 716,-62"/>
<text text-anchor="middle" x="646" y="-50" font-family="Helvetica,sans-Serif" font-size="10.00">std::vector&lt; std::string &gt;</text>
</a>
</g>
</g>
<!-- Node6&#45;&gt;Node1 -->
<g id="edge5_Node000001_Node000006" class="edge">
<title>Node6&#45;&gt;Node1</title>
<g id="a_edge5_Node000001_Node000006"><a xlink:title=" ">
<path fill="none" stroke="#9a32cd" stroke-dasharray="5,2" d="M726.11,-53.91C756.18,-54.9 790.72,-56.6 822,-59.5 834.16,-60.63 847.13,-62.24 859.48,-63.97"/>
<polygon fill="#9a32cd" stroke="#9a32cd" points="726.2,-50.41 716.1,-53.6 725.98,-57.4 726.2,-50.41"/>
</a>
</g>
<text text-anchor="middle" x="778" y="-62.5" font-family="Helvetica,sans-Serif" font-size="10.00" fill="grey"> failedTransfers</text>
</g>
<!-- Node7 -->
<g id="Node000007" class="node">
<title>Node7</title>
<g id="a_Node000007"><a xlink:title=" ">
<polygon fill="white" stroke="#666666" points="409.5,-62 344.5,-62 344.5,-43 409.5,-43 409.5,-62"/>
<text text-anchor="middle" x="377" y="-50" font-family="Helvetica,sans-Serif" font-size="10.00">std::string</text>
</a>
</g>
</g>
<!-- Node7&#45;&gt;Node6 -->
<g id="edge6_Node000006_Node000007" class="edge">
<title>Node7&#45;&gt;Node6</title>
<g id="a_edge6_Node000006_Node000007"><a xlink:title=" ">
<path fill="none" stroke="#9a32cd" stroke-dasharray="5,2" d="M419.77,-52.5C461.55,-52.5 526.53,-52.5 575.98,-52.5"/>
<polygon fill="#9a32cd" stroke="#9a32cd" points="419.68,-49 409.68,-52.5 419.68,-56 419.68,-49"/>
</a>
</g>
<text text-anchor="middle" x="520.5" y="-55.5" font-family="Helvetica,sans-Serif" font-size="10.00" fill="grey"> elements</text>
</g>
<!-- Node8 -->
<g id="Node000008" class="node">
<title>Node8</title>
<g id="a_Node000008"><a xlink:title=" ">
<polygon fill="white" stroke="#666666" points="154,-67.5 50,-67.5 50,-37.5 154,-37.5 154,-67.5"/>
<text text-anchor="start" x="58" y="-55.5" font-family="Helvetica,sans-Serif" font-size="10.00">std::basic_string&lt;</text>
<text text-anchor="middle" x="102" y="-44.5" font-family="Helvetica,sans-Serif" font-size="10.00"> Char &gt;</text>
</a>
</g>
</g>
<!-- Node8&#45;&gt;Node7 -->
<g id="edge7_Node000007_Node000008" class="edge">
<title>Node8&#45;&gt;Node7</title>
<g id="a_edge7_Node000007_Node000008"><a xlink:title=" ">
<path fill="none" stroke="#63b8ff" d="M164.16,-52.5C220.05,-52.5 300.46,-52.5 344.39,-52.5"/>
<polygon fill="#63b8ff" stroke="#63b8ff" points="164.03,-49 154.03,-52.5 164.03,-56 164.03,-49"/>
</a>
</g>
</g>
<!-- Node9 -->
<g id="Node000009" class="node">
<title>Node9</title>
<g id="a_Node000009"><a xlink:title=" ">
<polygon fill="white" stroke="#666666" points="425.5,-22 328.5,-22 328.5,-3 425.5,-3 425.5,-22"/>
<text text-anchor="middle" x="377" y="-10" font-family="Helvetica,sans-Serif" font-size="10.00">std::vector&lt; T &gt;</text>
</a>
</g>
</g>
<!-- Node9&#45;&gt;Node6 -->
<g id="edge8_Node000006_Node000009" class="edge">
<title>Node9&#45;&gt;Node6</title>
<g id="a_edge8_Node000006_Node000009"><a xlink:title=" ">
<path fill="none" stroke="orange" stroke-dasharray="5,2" d="M435.94,-20.06C471.26,-24.79 517.28,-31.16 558,-37.5 568.75,-39.17 580.23,-41.07 591.21,-42.94"/>
<polygon fill="orange" stroke="orange" points="436.19,-16.56 425.81,-18.71 435.26,-23.5 436.19,-16.56"/>
</a>
</g>
<text text-anchor="middle" x="520.5" y="-40.5" font-family="Helvetica,sans-Serif" font-size="10.00" fill="grey"> &lt; std::string &gt;</text>
</g>
<!-- Node10 -->
<g id="Node000010" class="node">
<title>Node10</title>
<g id="a_Node000010"><a xlink:title=" ">
<polygon fill="white" stroke="#666666" points="116.5,-19 87.5,-19 87.5,0 116.5,0 116.5,-19"/>
<text text-anchor="middle" x="102" y="-7" font-family="Helvetica,sans-Serif" font-size="10.00">T</text>
</a>
</g>
</g>
<!-- Node10&#45;&gt;Node9 -->
<g id="edge9_Node000009_Node000010" class="edge">
<title>Node10&#45;&gt;Node9</title>
<g id="a_edge9_Node000009_Node000010"><a xlink:title=" ">
<path fill="none" stroke="#9a32cd" stroke-dasharray="5,2" d="M126.73,-9.76C171.54,-10.25 269.38,-11.33 328.28,-11.98"/>
<polygon fill="#9a32cd" stroke="#9a32cd" points="126.58,-6.26 116.54,-9.65 126.5,-13.26 126.58,-6.26"/>
</a>
</g>
<text text-anchor="middle" x="246.5" y="-14.5" font-family="Helvetica,sans-Serif" font-size="10.00" fill="grey"> elements</text>
</g>
</g>
</svg>

<g id="navigator" transform="translate(0 0)" fill="#404254">
  <rect fill="#f2f5e9" fill-opacity="0.5" stroke="#606060" stroke-width=".5" x="0" y="0" width="60" height="60"/>
  <use id="zoomplus" xlink:href="#zoomPlus" x="17" y="9" onmousedown="handleZoom(evt,'in')"/>
  <use id="zoomminus" xlink:href="#zoomMin" x="42" y="9" onmousedown="handleZoom(evt,'out')"/>
  <use id="reset" xlink:href="#resetDef" x="30" y="36" onmousedown="handleReset()"/>
   <use id="arrowup" xlink:href="#arrowUp" x="0" y="0" onmousedown="handlePan(0,-1)"/>
  <use id="arrowright" xlink:href="#arrowRight" x="0" y="0" onmousedown="handlePan(1,0)"/>
  <use id="arrowdown" xlink:href="#arrowDown" x="0" y="0" onmousedown="handlePan(0,1)"/>
  <use id="arrowleft" xlink:href="#arrowLeft" x="0" y="0" onmousedown="handlePan(-1,0)"/>
</g>
<svg viewBox="0 0 15 15" width="100%" height="30px" preserveAspectRatio="xMaxYMin meet">
 <g id="arrow_out" transform="scale(0.3 0.3)">
  <a xlink:href="struct_typed_p_v_holder__coll__graph_org.svg" target="_base">
   <rect id="button" ry="5" rx="5" y="6" x="6" height="38" width="38"
        fill="#f2f5e9" fill-opacity="0.5" stroke="#606060" stroke-width="1.0"/>
   <path id="arrow"
     d="M 11.500037,31.436501 C 11.940474,20.09759 22.043105,11.32322 32.158766,21.979434 L 37.068811,17.246167 C 37.068811,17.246167 37.088388,32 37.088388,32 L 22.160133,31.978069 C 22.160133,31.978069 26.997745,27.140456 26.997745,27.140456 C 18.528582,18.264221 13.291696,25.230495 11.500037,31.436501 z"
     style="fill:#404040;"/>
  </a>
 </g>
</svg>

<style type='text/css'>
<![CDATA[
[data-mouse-over-selected='false'] { opacity: 0.7; }
[data-mouse-over-selected='true']  { opacity: 1.0; }
]]>
</style>
<script type="application/ecmascript"><![CDATA[
document.addEventListener('DOMContentLoaded', (event) => {
  highlightEdges();
  highlightAdjacentNodes();
});
]]></script>
</svg>
