<?xml version="1.0" encoding="UTF-8" standalone="no"?>
<!DOCTYPE svg PUBLIC "-//W3C//DTD SVG 1.1//EN"
 "http://www.w3.org/Graphics/SVG/1.1/DTD/svg11.dtd">
<!-- Generated by graphviz version 2.40.1 (20161225.0304)
 -->
<!-- Title: include/ZMQSubscriptionManager.h Pages: 1 -->
<svg width="464pt" height="84pt"
 viewBox="0.00 0.00 463.50 84.00" xmlns="http://www.w3.org/2000/svg" xmlns:xlink="http://www.w3.org/1999/xlink">
<g id="graph0" class="graph" transform="scale(1 1) rotate(0) translate(4 80)">
<title>include/ZMQSubscriptionManager.h</title>
<polygon fill="#ffffff" stroke="transparent" points="-4,4 -4,-80 459.5,-80 459.5,4 -4,4"/>
<!-- Node0 -->
<g id="node1" class="node">
<title>Node0</title>
<polygon fill="#bfbfbf" stroke="#000000" points="83,-56.5 83,-75.5 271,-75.5 271,-56.5 83,-56.5"/>
<text text-anchor="middle" x="177" y="-63.5" font-family="Helvetica,sans-Serif" font-size="10.00" fill="#000000">include/ZMQSubscriptionManager.h</text>
</g>
<!-- Node1 -->
<g id="node2" class="node">
<title>Node1</title>
<polygon fill="#ffffff" stroke="#bfbfbf" points="0,-.5 0,-19.5 44,-19.5 44,-.5 0,-.5"/>
<text text-anchor="middle" x="22" y="-7.5" font-family="Helvetica,sans-Serif" font-size="10.00" fill="#000000">string</text>
</g>
<!-- Node0&#45;&gt;Node1 -->
<g id="edge1" class="edge">
<title>Node0&#45;&gt;Node1</title>
<path fill="none" stroke="#191970" d="M150.3546,-56.3733C123.5647,-46.6944 82.2597,-31.7712 53.7783,-21.4812"/>
<polygon fill="#191970" stroke="#191970" points="54.8781,-18.1572 44.2838,-18.0509 52.4995,-24.7407 54.8781,-18.1572"/>
</g>
<!-- Node2 -->
<g id="node3" class="node">
<title>Node2</title>
<polygon fill="#ffffff" stroke="#bfbfbf" points="62,-.5 62,-19.5 110,-19.5 110,-.5 62,-.5"/>
<text text-anchor="middle" x="86" y="-7.5" font-family="Helvetica,sans-Serif" font-size="10.00" fill="#000000">mutex</text>
</g>
<!-- Node0&#45;&gt;Node2 -->
<g id="edge2" class="edge">
<title>Node0&#45;&gt;Node2</title>
<path fill="none" stroke="#191970" d="M161.149,-56.2455C147.1868,-47.6534 126.6272,-35.0014 110.5404,-25.1018"/>
<polygon fill="#191970" stroke="#191970" points="112.0203,-21.9029 101.6693,-19.6427 108.3516,-27.8645 112.0203,-21.9029"/>
</g>
<!-- Node3 -->
<g id="node4" class="node">
<title>Node3</title>
<polygon fill="#ffffff" stroke="#bfbfbf" points="128,-.5 128,-19.5 166,-19.5 166,-.5 128,-.5"/>
<text text-anchor="middle" x="147" y="-7.5" font-family="Helvetica,sans-Serif" font-size="10.00" fill="#000000">map</text>
</g>
<!-- Node0&#45;&gt;Node3 -->
<g id="edge3" class="edge">
<title>Node0&#45;&gt;Node3</title>
<path fill="none" stroke="#191970" d="M171.7744,-56.2455C167.6877,-48.617 161.8865,-37.7881 156.925,-28.5267"/>
<polygon fill="#191970" stroke="#191970" points="159.9732,-26.8047 152.1657,-19.6427 153.8028,-30.1103 159.9732,-26.8047"/>
</g>
<!-- Node4 -->
<g id="node5" class="node">
<title>Node4</title>
<polygon fill="#ffffff" stroke="#bfbfbf" points="184.5,-.5 184.5,-19.5 231.5,-19.5 231.5,-.5 184.5,-.5"/>
<text text-anchor="middle" x="208" y="-7.5" font-family="Helvetica,sans-Serif" font-size="10.00" fill="#000000">vector</text>
</g>
<!-- Node0&#45;&gt;Node4 -->
<g id="edge4" class="edge">
<title>Node0&#45;&gt;Node4</title>
<path fill="none" stroke="#191970" d="M182.3998,-56.2455C186.6227,-48.617 192.6173,-37.7881 197.7441,-28.5267"/>
<polygon fill="#191970" stroke="#191970" points="200.881,-30.0867 202.6621,-19.6427 194.7568,-26.6965 200.881,-30.0867"/>
</g>
<!-- Node5 -->
<g id="node6" class="node">
<title>Node5</title>
<polygon fill="#ffffff" stroke="#bfbfbf" points="250,-.5 250,-19.5 306,-19.5 306,-.5 250,-.5"/>
<text text-anchor="middle" x="278" y="-7.5" font-family="Helvetica,sans-Serif" font-size="10.00" fill="#000000">eq_fct.h</text>
</g>
<!-- Node0&#45;&gt;Node5 -->
<g id="edge5" class="edge">
<title>Node0&#45;&gt;Node5</title>
<path fill="none" stroke="#191970" d="M194.5929,-56.2455C210.379,-47.4928 233.7639,-34.527 251.7587,-24.5496"/>
<polygon fill="#191970" stroke="#191970" points="253.5603,-27.5528 260.6087,-19.6427 250.1659,-21.4308 253.5603,-27.5528"/>
</g>
<!-- Node6 -->
<g id="node7" class="node">
<title>Node6</title>
<polygon fill="#ffffff" stroke="#bfbfbf" points="324.5,-.5 324.5,-19.5 455.5,-19.5 455.5,-.5 324.5,-.5"/>
<text text-anchor="middle" x="390" y="-7.5" font-family="Helvetica,sans-Serif" font-size="10.00" fill="#000000">ChimeraTK/Exception.h</text>
</g>
<!-- Node0&#45;&gt;Node6 -->
<g id="edge6" class="edge">
<title>Node0&#45;&gt;Node6</title>
<path fill="none" stroke="#191970" d="M213.616,-56.3733C249.648,-46.9001 304.7878,-32.4032 343.8114,-22.1435"/>
<polygon fill="#191970" stroke="#191970" points="345.0804,-25.4289 353.8618,-19.5011 343.3005,-18.6589 345.0804,-25.4289"/>
</g>
</g>
</svg>
