<?xml version="1.0" encoding="UTF-8" standalone="no"?>
<!DOCTYPE svg PUBLIC "-//W3C//DTD SVG 1.1//EN"
 "http://www.w3.org/Graphics/SVG/1.1/DTD/svg11.dtd">
<!-- Generated by graphviz version 2.43.0 (0)
 -->
<!-- Title: ChimeraTK::DoocsBackendRegisterAccessorBase Pages: 1 -->
<svg width="984pt" height="382pt"
 viewBox="0.00 0.00 984.00 382.00" xmlns="http://www.w3.org/2000/svg" xmlns:xlink="http://www.w3.org/1999/xlink">
<g id="graph0" class="graph" transform="scale(1 1) rotate(0) translate(4 378)">
<title>ChimeraTK::DoocsBackendRegisterAccessorBase</title>
<polygon fill="white" stroke="transparent" points="-4,4 -4,-378 980,-378 980,4 -4,4"/>
<!-- Node1 -->
<g id="node1" class="node">
<title>Node1</title>
<g id="a_node1"><a xlink:title="This is the untemplated base class which unifies all data members not depending on the UserType.">
<polygon fill="#bfbfbf" stroke="black" points="0,-269.5 0,-299.5 188,-299.5 188,-269.5 0,-269.5"/>
<text text-anchor="start" x="8" y="-287.5" font-family="Helvetica,sans-Serif" font-size="10.00">ChimeraTK::DoocsBackendRegister</text>
<text text-anchor="middle" x="94" y="-276.5" font-family="Helvetica,sans-Serif" font-size="10.00">AccessorBase</text>
</a>
</g>
</g>
<!-- Node2 -->
<g id="node2" class="node">
<title>Node2</title>
<g id="a_node2"><a xlink:href="class_chimera_t_k_1_1_doocs_backend_register_accessor.html" target="_top" xlink:title=" ">
<polygon fill="white" stroke="black" points="540.5,-343.5 540.5,-373.5 728.5,-373.5 728.5,-343.5 540.5,-343.5"/>
<text text-anchor="start" x="548.5" y="-361.5" font-family="Helvetica,sans-Serif" font-size="10.00">ChimeraTK::DoocsBackendRegister</text>
<text text-anchor="middle" x="634.5" y="-350.5" font-family="Helvetica,sans-Serif" font-size="10.00">Accessor&lt; std::uint8_t &gt;</text>
</a>
</g>
</g>
<!-- Node1&#45;&gt;Node2 -->
<g id="edge1" class="edge">
<title>Node1&#45;&gt;Node2</title>
<path fill="none" stroke="midnightblue" d="M182.65,-301.45C250.27,-314.02 346.27,-330.78 431,-341.5 466.61,-346.01 505.91,-349.62 540.33,-352.33"/>
<polygon fill="midnightblue" stroke="midnightblue" points="182.94,-297.95 172.46,-299.55 181.65,-304.83 182.94,-297.95"/>
</g>
<!-- Node4 -->
<g id="node4" class="node">
<title>Node4</title>
<g id="a_node4"><a xlink:href="class_chimera_t_k_1_1_doocs_backend_register_accessor.html" target="_top" xlink:title=" ">
<polygon fill="white" stroke="black" points="225,-196.5 225,-226.5 413,-226.5 413,-196.5 225,-196.5"/>
<text text-anchor="start" x="233" y="-214.5" font-family="Helvetica,sans-Serif" font-size="10.00">ChimeraTK::DoocsBackendRegister</text>
<text text-anchor="middle" x="319" y="-203.5" font-family="Helvetica,sans-Serif" font-size="10.00">Accessor&lt; UserType &gt;</text>
</a>
</g>
</g>
<!-- Node1&#45;&gt;Node4 -->
<g id="edge3" class="edge">
<title>Node1&#45;&gt;Node4</title>
<path fill="none" stroke="midnightblue" d="M150.69,-266.27C188.14,-254.01 236.91,-238.05 272.12,-226.52"/>
<polygon fill="midnightblue" stroke="midnightblue" points="149.35,-263.03 140.94,-269.46 151.53,-269.68 149.35,-263.03"/>
</g>
<!-- Node3 -->
<g id="node3" class="node">
<title>Node3</title>
<g id="a_node3"><a xlink:href="class_chimera_t_k_1_1_doocs_backend_image_register_accessor.html" target="_top" xlink:title=" ">
<polygon fill="white" stroke="black" points="786.5,-343.5 786.5,-373.5 965.5,-373.5 965.5,-343.5 786.5,-343.5"/>
<text text-anchor="start" x="794.5" y="-361.5" font-family="Helvetica,sans-Serif" font-size="10.00">ChimeraTK::DoocsBackendImage</text>
<text text-anchor="middle" x="876" y="-350.5" font-family="Helvetica,sans-Serif" font-size="10.00">RegisterAccessor</text>
</a>
</g>
</g>
<!-- Node2&#45;&gt;Node3 -->
<g id="edge2" class="edge">
<title>Node2&#45;&gt;Node3</title>
<path fill="none" stroke="midnightblue" d="M739.06,-358.5C754.79,-358.5 770.91,-358.5 786.29,-358.5"/>
<polygon fill="midnightblue" stroke="midnightblue" points="738.78,-355 728.78,-358.5 738.78,-362 738.78,-355"/>
</g>
<!-- Node4&#45;&gt;Node2 -->
<g id="edge12" class="edge">
<title>Node4&#45;&gt;Node2</title>
<path fill="none" stroke="orange" stroke-dasharray="5,2" d="M348.88,-232.55C388,-260.08 460.9,-307.9 530,-334.5 538.78,-337.88 548.17,-340.87 557.58,-343.48"/>
<polygon fill="orange" stroke="orange" points="350.78,-229.61 340.6,-226.68 346.73,-235.32 350.78,-229.61"/>
<text text-anchor="middle" x="471.5" y="-329.5" font-family="Helvetica,sans-Serif" font-size="10.00"> &lt; std::uint8_t &gt;</text>
</g>
<!-- Node5 -->
<g id="node5" class="node">
<title>Node5</title>
<g id="a_node5"><a xlink:href="class_chimera_t_k_1_1_doocs_backend_event_id_register_accessor.html" target="_top" xlink:title=" ">
<polygon fill="white" stroke="black" points="546,-294.5 546,-324.5 723,-324.5 723,-294.5 546,-294.5"/>
<text text-anchor="start" x="554" y="-312.5" font-family="Helvetica,sans-Serif" font-size="10.00">ChimeraTK::DoocsBackendEvent</text>
<text text-anchor="middle" x="634.5" y="-301.5" font-family="Helvetica,sans-Serif" font-size="10.00">IdRegisterAccessor&lt; UserType &gt;</text>
</a>
</g>
</g>
<!-- Node4&#45;&gt;Node5 -->
<g id="edge4" class="edge">
<title>Node4&#45;&gt;Node5</title>
<path fill="none" stroke="midnightblue" d="M368.99,-230.05C411.27,-245.7 474.17,-268.1 530,-284.5 541.88,-287.99 554.64,-291.37 566.99,-294.45"/>
<polygon fill="midnightblue" stroke="midnightblue" points="370.09,-226.73 359.49,-226.52 367.65,-233.29 370.09,-226.73"/>
</g>
<!-- Node6 -->
<g id="node6" class="node">
<title>Node6</title>
<g id="a_node6"><a xlink:href="class_chimera_t_k_1_1_doocs_backend_float_register_accessor.html" target="_top" xlink:title=" ">
<polygon fill="white" stroke="black" points="548,-245.5 548,-275.5 721,-275.5 721,-245.5 548,-245.5"/>
<text text-anchor="start" x="556" y="-263.5" font-family="Helvetica,sans-Serif" font-size="10.00">ChimeraTK::DoocsBackendFloat</text>
<text text-anchor="middle" x="634.5" y="-252.5" font-family="Helvetica,sans-Serif" font-size="10.00">RegisterAccessor&lt; UserType &gt;</text>
</a>
</g>
</g>
<!-- Node4&#45;&gt;Node6 -->
<g id="edge5" class="edge">
<title>Node4&#45;&gt;Node6</title>
<path fill="none" stroke="midnightblue" d="M423.35,-227.65C463.7,-233.96 509.41,-241.1 547.87,-247.12"/>
<polygon fill="midnightblue" stroke="midnightblue" points="423.63,-224.16 413.21,-226.07 422.55,-231.07 423.63,-224.16"/>
</g>
<!-- Node7 -->
<g id="node7" class="node">
<title>Node7</title>
<g id="a_node7"><a xlink:href="class_chimera_t_k_1_1_doocs_backend_i_f_f_f_register_accessor.html" target="_top" xlink:title=" ">
<polygon fill="white" stroke="black" points="530,-196.5 530,-226.5 739,-226.5 739,-196.5 530,-196.5"/>
<text text-anchor="start" x="538" y="-214.5" font-family="Helvetica,sans-Serif" font-size="10.00">ChimeraTK::DoocsBackendIFFFRegister</text>
<text text-anchor="middle" x="634.5" y="-203.5" font-family="Helvetica,sans-Serif" font-size="10.00">Accessor&lt; UserType &gt;</text>
</a>
</g>
</g>
<!-- Node4&#45;&gt;Node7 -->
<g id="edge6" class="edge">
<title>Node4&#45;&gt;Node7</title>
<path fill="none" stroke="midnightblue" d="M423.24,-211.5C457.51,-211.5 495.66,-211.5 529.95,-211.5"/>
<polygon fill="midnightblue" stroke="midnightblue" points="423.21,-208 413.21,-211.5 423.21,-215 423.21,-208"/>
</g>
<!-- Node8 -->
<g id="node8" class="node">
<title>Node8</title>
<g id="a_node8"><a xlink:href="class_chimera_t_k_1_1_doocs_backend_int_register_accessor.html" target="_top" xlink:title=" ">
<polygon fill="white" stroke="black" points="550.5,-147.5 550.5,-177.5 718.5,-177.5 718.5,-147.5 550.5,-147.5"/>
<text text-anchor="start" x="558.5" y="-165.5" font-family="Helvetica,sans-Serif" font-size="10.00">ChimeraTK::DoocsBackendInt</text>
<text text-anchor="middle" x="634.5" y="-154.5" font-family="Helvetica,sans-Serif" font-size="10.00">RegisterAccessor&lt; UserType &gt;</text>
</a>
</g>
</g>
<!-- Node4&#45;&gt;Node8 -->
<g id="edge7" class="edge">
<title>Node4&#45;&gt;Node8</title>
<path fill="none" stroke="midnightblue" d="M423.28,-195.36C464.48,-188.92 511.28,-181.6 550.24,-175.51"/>
<polygon fill="midnightblue" stroke="midnightblue" points="422.55,-191.93 413.21,-196.93 423.63,-198.84 422.55,-191.93"/>
</g>
<!-- Node10 -->
<g id="node10" class="node">
<title>Node10</title>
<g id="a_node10"><a xlink:href="class_chimera_t_k_1_1_doocs_backend_long_register_accessor.html" target="_top" xlink:title=" ">
<polygon fill="white" stroke="black" points="549,-98.5 549,-128.5 720,-128.5 720,-98.5 549,-98.5"/>
<text text-anchor="start" x="557" y="-116.5" font-family="Helvetica,sans-Serif" font-size="10.00">ChimeraTK::DoocsBackendLong</text>
<text text-anchor="middle" x="634.5" y="-105.5" font-family="Helvetica,sans-Serif" font-size="10.00">RegisterAccessor&lt; UserType &gt;</text>
</a>
</g>
</g>
<!-- Node4&#45;&gt;Node10 -->
<g id="edge9" class="edge">
<title>Node4&#45;&gt;Node10</title>
<path fill="none" stroke="midnightblue" d="M368.15,-192.82C410.39,-176.84 473.7,-153.89 530,-137.5 540.89,-134.33 552.52,-131.3 563.91,-128.52"/>
<polygon fill="midnightblue" stroke="midnightblue" points="366.78,-189.59 358.67,-196.42 369.26,-196.14 366.78,-189.59"/>
</g>
<!-- Node11 -->
<g id="node11" class="node">
<title>Node11</title>
<g id="a_node11"><a xlink:href="class_chimera_t_k_1_1_doocs_backend_string_register_accessor.html" target="_top" xlink:title=" ">
<polygon fill="white" stroke="black" points="546.5,-49.5 546.5,-79.5 722.5,-79.5 722.5,-49.5 546.5,-49.5"/>
<text text-anchor="start" x="554.5" y="-67.5" font-family="Helvetica,sans-Serif" font-size="10.00">ChimeraTK::DoocsBackendString</text>
<text text-anchor="middle" x="634.5" y="-56.5" font-family="Helvetica,sans-Serif" font-size="10.00">RegisterAccessor&lt; UserType &gt;</text>
</a>
</g>
</g>
<!-- Node4&#45;&gt;Node11 -->
<g id="edge10" class="edge">
<title>Node4&#45;&gt;Node11</title>
<path fill="none" stroke="midnightblue" d="M348.48,-190.42C387.42,-162.67 460.41,-114.36 530,-88.5 538.99,-85.16 548.6,-82.19 558.2,-79.57"/>
<polygon fill="midnightblue" stroke="midnightblue" points="346.31,-187.67 340.24,-196.35 350.4,-193.35 346.31,-187.67"/>
</g>
<!-- Node12 -->
<g id="node12" class="node">
<title>Node12</title>
<g id="a_node12"><a xlink:href="class_chimera_t_k_1_1_doocs_backend_time_stamp_register_accessor.html" target="_top" xlink:title=" ">
<polygon fill="white" stroke="black" points="534.5,-0.5 534.5,-30.5 734.5,-30.5 734.5,-0.5 534.5,-0.5"/>
<text text-anchor="start" x="542.5" y="-18.5" font-family="Helvetica,sans-Serif" font-size="10.00">ChimeraTK::DoocsBackendTime</text>
<text text-anchor="middle" x="634.5" y="-7.5" font-family="Helvetica,sans-Serif" font-size="10.00">StampRegisterAccessor&lt; UserType &gt;</text>
</a>
</g>
</g>
<!-- Node4&#45;&gt;Node12 -->
<g id="edge11" class="edge">
<title>Node4&#45;&gt;Node12</title>
<path fill="none" stroke="midnightblue" d="M337.65,-188.42C358.1,-162.75 393.78,-121.14 431,-92.5 470.55,-62.06 483.29,-57.07 530,-39.5 538.89,-36.16 548.39,-33.19 557.9,-30.58"/>
<polygon fill="midnightblue" stroke="midnightblue" points="334.75,-186.45 331.32,-196.47 340.25,-190.78 334.75,-186.45"/>
</g>
<!-- Node9 -->
<g id="node9" class="node">
<title>Node9</title>
<g id="a_node9"><a xlink:href="class_chimera_t_k_1_1_doocs_backend_i_i_i_i_register_accessor.html" target="_top" xlink:title=" ">
<polygon fill="white" stroke="black" points="776,-147.5 776,-177.5 976,-177.5 976,-147.5 776,-147.5"/>
<text text-anchor="start" x="784" y="-165.5" font-family="Helvetica,sans-Serif" font-size="10.00">ChimeraTK::DoocsBackendIIIIRegister</text>
<text text-anchor="middle" x="876" y="-154.5" font-family="Helvetica,sans-Serif" font-size="10.00">Accessor&lt; UserType &gt;</text>
</a>
</g>
</g>
<!-- Node8&#45;&gt;Node9 -->
<g id="edge8" class="edge">
<title>Node8&#45;&gt;Node9</title>
<path fill="none" stroke="midnightblue" d="M728.68,-162.5C744.2,-162.5 760.33,-162.5 775.98,-162.5"/>
<polygon fill="midnightblue" stroke="midnightblue" points="728.59,-159 718.59,-162.5 728.59,-166 728.59,-159"/>
</g>
</g>
</svg>
