<?xml version="1.0" encoding="UTF-8" standalone="no"?>
<!DOCTYPE svg PUBLIC "-//W3C//DTD SVG 1.1//EN"
 "http://www.w3.org/Graphics/SVG/1.1/DTD/svg11.dtd">
<!-- Generated by graphviz version 2.40.1 (20161225.0304)
 -->
<!-- Title: ChimeraTK::DoocsBackendRegisterAccessor::shutdown Pages: 1 -->
<svg width="696pt" height="186pt"
 viewBox="0.00 0.00 696.00 186.00" xmlns="http://www.w3.org/2000/svg" xmlns:xlink="http://www.w3.org/1999/xlink">
<g id="graph0" class="graph" transform="scale(1 1) rotate(0) translate(4 182)">
<title>ChimeraTK::DoocsBackendRegisterAccessor::shutdown</title>
<polygon fill="#ffffff" stroke="transparent" points="-4,4 -4,-182 692,-182 692,4 -4,4"/>
<!-- Node70 -->
<g id="node1" class="node">
<title>Node70</title>
<polygon fill="#bfbfbf" stroke="#000000" points="0,-120.5 0,-150.5 188,-150.5 188,-120.5 0,-120.5"/>
<text text-anchor="start" x="8" y="-138.5" font-family="Helvetica,sans-Serif" font-size="10.00" fill="#000000">ChimeraTK::DoocsBackendRegister</text>
<text text-anchor="middle" x="94" y="-127.5" font-family="Helvetica,sans-Serif" font-size="10.00" fill="#000000">Accessor::shutdown</text>
</g>
<!-- Node71 -->
<g id="node2" class="node">
<title>Node71</title>
<g id="a_node2"><a xlink:href="class_chimera_t_k_1_1_doocs_backend_namespace_1_1_z_m_q_subscription_manager.html#ae8d8452b5bf527ab0a52a51f10ddc1b6" target="_top" xlink:title="ChimeraTK::DoocsBackendNamespace\l::ZMQSubscriptionManager::getInstance">
<polygon fill="#ffffff" stroke="#000000" points="224,-98.5 224,-128.5 434,-128.5 434,-98.5 224,-98.5"/>
<text text-anchor="start" x="232" y="-116.5" font-family="Helvetica,sans-Serif" font-size="10.00" fill="#000000">ChimeraTK::DoocsBackendNamespace</text>
<text text-anchor="middle" x="329" y="-105.5" font-family="Helvetica,sans-Serif" font-size="10.00" fill="#000000">::ZMQSubscriptionManager::getInstance</text>
</a>
</g>
</g>
<!-- Node70&#45;&gt;Node71 -->
<g id="edge1" class="edge">
<title>Node70&#45;&gt;Node71</title>
<path fill="none" stroke="#191970" d="M188.2294,-126.6785C196.6731,-125.888 205.2838,-125.0819 213.8776,-124.2774"/>
<polygon fill="#191970" stroke="#191970" points="214.3169,-127.7517 223.9471,-123.3347 213.6644,-120.7822 214.3169,-127.7517"/>
</g>
<!-- Node73 -->
<g id="node4" class="node">
<title>Node73</title>
<g id="a_node4"><a xlink:href="class_chimera_t_k_1_1_doocs_backend_namespace_1_1_z_m_q_subscription_manager.html#a1b05e96e439a7650f00c057ce739502c" target="_top" xlink:title="ChimeraTK::DoocsBackendNamespace\l::ZMQSubscriptionManager::unsubscribe">
<polygon fill="#ffffff" stroke="#000000" points="473,-147.5 473,-177.5 685,-177.5 685,-147.5 473,-147.5"/>
<text text-anchor="start" x="481" y="-165.5" font-family="Helvetica,sans-Serif" font-size="10.00" fill="#000000">ChimeraTK::DoocsBackendNamespace</text>
<text text-anchor="middle" x="579" y="-154.5" font-family="Helvetica,sans-Serif" font-size="10.00" fill="#000000">::ZMQSubscriptionManager::unsubscribe</text>
</a>
</g>
</g>
<!-- Node70&#45;&gt;Node73 -->
<g id="edge6" class="edge">
<title>Node70&#45;&gt;Node73</title>
<path fill="none" stroke="#191970" d="M188.0879,-140.7379C266.5743,-145.1072 378.7623,-151.3527 462.8385,-156.0333"/>
<polygon fill="#191970" stroke="#191970" points="462.7691,-159.5347 472.9482,-156.5961 463.1582,-152.5456 462.7691,-159.5347"/>
</g>
<!-- Node72 -->
<g id="node3" class="node">
<title>Node72</title>
<g id="a_node3"><a xlink:href="class_chimera_t_k_1_1_doocs_backend_namespace_1_1_z_m_q_subscription_manager.html#afccea9af8b0253c7b05590bee7157828" target="_top" xlink:title="ChimeraTK::DoocsBackendNamespace\l::ZMQSubscriptionManager::subscribe">
<polygon fill="#ffffff" stroke="#000000" points="476,-98.5 476,-128.5 682,-128.5 682,-98.5 476,-98.5"/>
<text text-anchor="start" x="484" y="-116.5" font-family="Helvetica,sans-Serif" font-size="10.00" fill="#000000">ChimeraTK::DoocsBackendNamespace</text>
<text text-anchor="middle" x="579" y="-105.5" font-family="Helvetica,sans-Serif" font-size="10.00" fill="#000000">::ZMQSubscriptionManager::subscribe</text>
</a>
</g>
</g>
<!-- Node71&#45;&gt;Node72 -->
<g id="edge2" class="edge">
<title>Node71&#45;&gt;Node72</title>
<path fill="none" stroke="#191970" d="M434.2979,-113.5C444.7139,-113.5 455.317,-113.5 465.8082,-113.5"/>
<polygon fill="#191970" stroke="#191970" points="465.8227,-117.0001 475.8227,-113.5 465.8227,-110.0001 465.8227,-117.0001"/>
</g>
<!-- Node71&#45;&gt;Node73 -->
<g id="edge3" class="edge">
<title>Node71&#45;&gt;Node73</title>
<path fill="none" stroke="#191970" d="M405.7072,-128.5346C433.1836,-133.92 464.3386,-140.0264 492.5806,-145.5618"/>
<polygon fill="#191970" stroke="#191970" points="491.9513,-149.005 502.4378,-147.4938 493.2978,-142.1357 491.9513,-149.005"/>
</g>
<!-- Node74 -->
<g id="node5" class="node">
<title>Node74</title>
<g id="a_node5"><a xlink:href="class_chimera_t_k_1_1_doocs_backend_namespace_1_1_z_m_q_subscription_manager.html#aa9f36203f91c7908af2d7d4364e673de" target="_top" xlink:title="Activate all subscriptions. Should be called from DoocsBackend::activateAsyncRead(). ">
<polygon fill="#ffffff" stroke="#000000" points="476,-49.5 476,-79.5 682,-79.5 682,-49.5 476,-49.5"/>
<text text-anchor="start" x="484" y="-67.5" font-family="Helvetica,sans-Serif" font-size="10.00" fill="#000000">ChimeraTK::DoocsBackendNamespace</text>
<text text-anchor="middle" x="579" y="-56.5" font-family="Helvetica,sans-Serif" font-size="10.00" fill="#000000">::ZMQSubscriptionManager::activateAll</text>
</a>
</g>
</g>
<!-- Node71&#45;&gt;Node74 -->
<g id="edge4" class="edge">
<title>Node71&#45;&gt;Node74</title>
<path fill="none" stroke="#191970" d="M405.7072,-98.4654C433.1836,-93.08 464.3386,-86.9736 492.5806,-81.4382"/>
<polygon fill="#191970" stroke="#191970" points="493.2978,-84.8643 502.4378,-79.5062 491.9513,-77.995 493.2978,-84.8643"/>
</g>
<!-- Node75 -->
<g id="node6" class="node">
<title>Node75</title>
<g id="a_node6"><a xlink:href="class_chimera_t_k_1_1_doocs_backend_namespace_1_1_z_m_q_subscription_manager.html#aef097089957f50d9cab8e4b91606034e" target="_top" xlink:title="Deactivate all subscriptions. Should be called from DoocsBackend::informRuntimeError(). ">
<polygon fill="#ffffff" stroke="#000000" points="470,-.5 470,-30.5 688,-30.5 688,-.5 470,-.5"/>
<text text-anchor="start" x="478" y="-18.5" font-family="Helvetica,sans-Serif" font-size="10.00" fill="#000000">ChimeraTK::DoocsBackendNamespace</text>
<text text-anchor="middle" x="579" y="-7.5" font-family="Helvetica,sans-Serif" font-size="10.00" fill="#000000">::ZMQSubscriptionManager::deactivateAll</text>
</a>
</g>
</g>
<!-- Node71&#45;&gt;Node75 -->
<g id="edge5" class="edge">
<title>Node71&#45;&gt;Node75</title>
<path fill="none" stroke="#191970" d="M353.0434,-98.3276C380.4024,-81.6799 426.8908,-55.2369 470,-39.5 476.237,-37.2232 482.7572,-35.1259 489.3731,-33.2009"/>
<polygon fill="#191970" stroke="#191970" points="490.4099,-36.5455 499.1126,-30.5029 488.5411,-29.7996 490.4099,-36.5455"/>
</g>
</g>
</svg>
