<?xml version="1.0" encoding="UTF-8" standalone="no"?>
<!DOCTYPE svg PUBLIC "-//W3C//DTD SVG 1.1//EN"
 "http://www.w3.org/Graphics/SVG/1.1/DTD/svg11.dtd">
<!-- Generated by graphviz version 2.40.1 (20161225.0304)
 -->
<!-- Title: ChimeraTK::DoocsBackendLongRegisterAccessor::doPreWrite Pages: 1 -->
<svg width="428pt" height="88pt"
 viewBox="0.00 0.00 428.00 88.00" xmlns="http://www.w3.org/2000/svg" xmlns:xlink="http://www.w3.org/1999/xlink">
<g id="graph0" class="graph" transform="scale(1 1) rotate(0) translate(4 84)">
<title>ChimeraTK::DoocsBackendLongRegisterAccessor::doPreWrite</title>
<polygon fill="#ffffff" stroke="transparent" points="-4,4 -4,-84 424,-84 424,4 -4,4"/>
<!-- Node24 -->
<g id="node1" class="node">
<title>Node24</title>
<polygon fill="#bfbfbf" stroke="#000000" points="0,-24.5 0,-54.5 172,-54.5 172,-24.5 0,-24.5"/>
<text text-anchor="start" x="8" y="-42.5" font-family="Helvetica,sans-Serif" font-size="10.00" fill="#000000">ChimeraTK::DoocsBackendLong</text>
<text text-anchor="middle" x="86" y="-31.5" font-family="Helvetica,sans-Serif" font-size="10.00" fill="#000000">RegisterAccessor::doPreWrite</text>
</g>
<!-- Node25 -->
<g id="node2" class="node">
<title>Node25</title>
<g id="a_node2"><a xlink:href="class_chimera_t_k_1_1_doocs_backend_register_accessor.html#a558fa5bfd76a4c4f89ea2b0638095aec" target="_top" xlink:title="ChimeraTK::DoocsBackendRegister\lAccessor::doPreWrite">
<polygon fill="#ffffff" stroke="#000000" points="220,-49.5 220,-79.5 408,-79.5 408,-49.5 220,-49.5"/>
<text text-anchor="start" x="228" y="-67.5" font-family="Helvetica,sans-Serif" font-size="10.00" fill="#000000">ChimeraTK::DoocsBackendRegister</text>
<text text-anchor="middle" x="314" y="-56.5" font-family="Helvetica,sans-Serif" font-size="10.00" fill="#000000">Accessor::doPreWrite</text>
</a>
</g>
</g>
<!-- Node24&#45;&gt;Node25 -->
<g id="edge1" class="edge">
<title>Node24&#45;&gt;Node25</title>
<path fill="none" stroke="#191970" d="M172.197,-48.9514C184.4361,-50.2934 197.1305,-51.6854 209.6678,-53.0601"/>
<polygon fill="#191970" stroke="#191970" points="209.3551,-56.5467 219.6771,-54.1576 210.1182,-49.5884 209.3551,-56.5467"/>
</g>
<!-- Node26 -->
<g id="node3" class="node">
<title>Node26</title>
<g id="a_node3"><a xlink:href="class_chimera_t_k_1_1_doocs_backend_register_accessor.html#ad6b128ad60fa4be75c79ad6d9dcbff36" target="_top" xlink:title="ChimeraTK::DoocsBackendRegister\lAccessor::doReadTransferSynchronously">
<polygon fill="#ffffff" stroke="#000000" points="208,-.5 208,-30.5 420,-30.5 420,-.5 208,-.5"/>
<text text-anchor="start" x="216" y="-18.5" font-family="Helvetica,sans-Serif" font-size="10.00" fill="#000000">ChimeraTK::DoocsBackendRegister</text>
<text text-anchor="middle" x="314" y="-7.5" font-family="Helvetica,sans-Serif" font-size="10.00" fill="#000000">Accessor::doReadTransferSynchronously</text>
</a>
</g>
</g>
<!-- Node24&#45;&gt;Node26 -->
<g id="edge2" class="edge">
<title>Node24&#45;&gt;Node26</title>
<path fill="none" stroke="#191970" d="M172.197,-30.4266C180.5357,-29.5489 189.0857,-28.6489 197.6535,-27.747"/>
<polygon fill="#191970" stroke="#191970" points="198.1291,-31.2164 207.7077,-26.6887 197.3962,-24.2548 198.1291,-31.2164"/>
</g>
</g>
</svg>
