<?xml version="1.0" encoding="UTF-8" standalone="no"?>
<!DOCTYPE svg PUBLIC "-//W3C//DTD SVG 1.1//EN"
 "http://www.w3.org/Graphics/SVG/1.1/DTD/svg11.dtd">
<!-- Generated by graphviz version 2.40.1 (20161225.0304)
 -->
<!-- Title: ChimeraTK::DoocsBackendIFFFRegisterAccessor::doPreWrite Pages: 1 -->
<!--zoomable 88 -->
<svg id="main" version="1.1" xmlns="http://www.w3.org/2000/svg" xmlns:xlink="http://www.w3.org/1999/xlink" xml:space="preserve" onload="init(evt)">
<style type="text/css"><![CDATA[
.edge:hover path { stroke: red; }
.edge:hover polygon { stroke: red; fill: red; }
]]></style>
<script type="text/javascript"><![CDATA[
var edges = document.getElementsByTagName('g');
if (edges && edges.length) {
  for (var i=0;i<edges.length;i++) {
    if (edges[i].id.substr(0,4)=='edge') {
      edges[i].setAttribute('class','edge');
    }
  }
}
]]></script>
        <defs>
                <circle id="rim" cx="0" cy="0" r="7"/>
                <circle id="rim2" cx="0" cy="0" r="3.5"/>
                <g id="zoomPlus">
                        <use xlink:href="#rim" fill="#404040">
                                <set attributeName="fill" to="#808080" begin="zoomplus.mouseover" end="zoomplus.mouseout"/>
                        </use>
                        <path d="M-4,0h8M0,-4v8" fill="none" stroke="white" stroke-width="1.5" pointer-events="none"/>
                </g>
                <g id="zoomMin">
                        <use xlink:href="#rim" fill="#404040">
                                <set attributeName="fill" to="#808080" begin="zoomminus.mouseover" end="zoomminus.mouseout"/>
                        </use>
                        <path d="M-4,0h8" fill="none" stroke="white" stroke-width="1.5" pointer-events="none"/>
                </g>
                <g id="dirArrow">
                        <path fill="none" stroke="white" stroke-width="1.5" d="M0,-3.0v7 M-2.5,-0.5L0,-3.0L2.5,-0.5"/>
                </g>
               <g id="resetDef">
                       <use xlink:href="#rim2" fill="#404040">
                               <set attributeName="fill" to="#808080" begin="reset.mouseover" end="reset.mouseout"/>
                       </use>
               </g>
        </defs>

<script type="text/javascript">
var viewWidth = 1157;
var viewHeight = 88;
var sectionId = 'dynsection-5';
</script>
<script xlink:href="svgpan.js"/>
<svg id="graph" class="graph">
<g id="viewport">
<title>ChimeraTK::DoocsBackendIFFFRegisterAccessor::doPreWrite</title>
<polygon fill="#ffffff" stroke="transparent" points="-4,4 -4,-84 1153,-84 1153,4 -4,4"/>
<!-- Node18 -->
<g id="node1" class="node">
<title>Node18</title>
<polygon fill="#bfbfbf" stroke="#000000" points="0,-27.5 0,-57.5 207,-57.5 207,-27.5 0,-27.5"/>
<text text-anchor="start" x="8" y="-45.5" font-family="Helvetica,sans-Serif" font-size="10.00" fill="#000000">ChimeraTK::DoocsBackendIFFFRegister</text>
<text text-anchor="middle" x="103.5" y="-34.5" font-family="Helvetica,sans-Serif" font-size="10.00" fill="#000000">Accessor::doPreWrite</text>
</g>
<!-- Node19 -->
<g id="node2" class="node">
<title>Node19</title>
<g id="a_node2"><a xlink:href="class_chimera_t_k_1_1_doocs_backend_register_accessor.html#a15c9a6f709065cac28d2b01ad546036b" target="_top" xlink:title="ChimeraTK::DoocsBackendRegister\lAccessor::doReadTransfer">
<polygon fill="#ffffff" stroke="#000000" points="243,-27.5 243,-57.5 431,-57.5 431,-27.5 243,-27.5"/>
<text text-anchor="start" x="251" y="-45.5" font-family="Helvetica,sans-Serif" font-size="10.00" fill="#000000">ChimeraTK::DoocsBackendRegister</text>
<text text-anchor="middle" x="337" y="-34.5" font-family="Helvetica,sans-Serif" font-size="10.00" fill="#000000">Accessor::doReadTransfer</text>
</a>
</g>
</g>
<!-- Node18&#45;&gt;Node19 -->
<g id="edge1" class="edge">
<title>Node18&#45;&gt;Node19</title>
<path fill="none" stroke="#191970" d="M207.2763,-42.5C215.6758,-42.5 224.166,-42.5 232.5701,-42.5"/>
<polygon fill="#191970" stroke="#191970" points="232.7667,-46.0001 242.7667,-42.5 232.7666,-39.0001 232.7667,-46.0001"/>
</g>
<!-- Node20 -->
<g id="node3" class="node">
<title>Node20</title>
<g id="a_node3"><a xlink:href="class_chimera_t_k_1_1_doocs_backend_register_accessor.html#a1eb2bd214a2a08a31e732cbd0de34a6c" target="_top" xlink:title="Perform initialisation (i.e. ">
<polygon fill="#ffffff" stroke="#000000" points="467,-27.5 467,-57.5 655,-57.5 655,-27.5 467,-27.5"/>
<text text-anchor="start" x="475" y="-45.5" font-family="Helvetica,sans-Serif" font-size="10.00" fill="#000000">ChimeraTK::DoocsBackendRegister</text>
<text text-anchor="middle" x="561" y="-34.5" font-family="Helvetica,sans-Serif" font-size="10.00" fill="#000000">Accessor::initialise</text>
</a>
</g>
</g>
<!-- Node19&#45;&gt;Node20 -->
<g id="edge2" class="edge">
<title>Node19&#45;&gt;Node20</title>
<path fill="none" stroke="#191970" d="M431.0225,-42.5C439.5418,-42.5 448.2036,-42.5 456.8037,-42.5"/>
<polygon fill="#191970" stroke="#191970" points="456.859,-46.0001 466.859,-42.5 456.859,-39.0001 456.859,-46.0001"/>
</g>
<!-- Node21 -->
<g id="node4" class="node">
<title>Node21</title>
<g id="a_node4"><a xlink:href="class_chimera_t_k_1_1_doocs_backend_namespace_1_1_z_m_q_subscription_manager.html#ae8d8452b5bf527ab0a52a51f10ddc1b6" target="_top" xlink:title="ChimeraTK::DoocsBackendNamespace\l::ZMQSubscriptionManager::getInstance">
<polygon fill="#ffffff" stroke="#000000" points="691,-5.5 691,-35.5 901,-35.5 901,-5.5 691,-5.5"/>
<text text-anchor="start" x="699" y="-23.5" font-family="Helvetica,sans-Serif" font-size="10.00" fill="#000000">ChimeraTK::DoocsBackendNamespace</text>
<text text-anchor="middle" x="796" y="-12.5" font-family="Helvetica,sans-Serif" font-size="10.00" fill="#000000">::ZMQSubscriptionManager::getInstance</text>
</a>
</g>
</g>
<!-- Node20&#45;&gt;Node21 -->
<g id="edge3" class="edge">
<title>Node20&#45;&gt;Node21</title>
<path fill="none" stroke="#191970" d="M655.2294,-33.6785C663.6731,-32.888 672.2838,-32.0819 680.8776,-31.2774"/>
<polygon fill="#191970" stroke="#191970" points="681.3169,-34.7517 690.9471,-30.3347 680.6644,-27.7822 681.3169,-34.7517"/>
</g>
<!-- Node22 -->
<g id="node5" class="node">
<title>Node22</title>
<g id="a_node5"><a xlink:href="class_chimera_t_k_1_1_doocs_backend_namespace_1_1_z_m_q_subscription_manager.html#afccea9af8b0253c7b05590bee7157828" target="_top" xlink:title="ChimeraTK::DoocsBackendNamespace\l::ZMQSubscriptionManager::subscribe">
<polygon fill="#ffffff" stroke="#000000" points="940,-49.5 940,-79.5 1146,-79.5 1146,-49.5 940,-49.5"/>
<text text-anchor="start" x="948" y="-67.5" font-family="Helvetica,sans-Serif" font-size="10.00" fill="#000000">ChimeraTK::DoocsBackendNamespace</text>
<text text-anchor="middle" x="1043" y="-56.5" font-family="Helvetica,sans-Serif" font-size="10.00" fill="#000000">::ZMQSubscriptionManager::subscribe</text>
</a>
</g>
</g>
<!-- Node20&#45;&gt;Node22 -->
<g id="edge6" class="edge">
<title>Node20&#45;&gt;Node22</title>
<path fill="none" stroke="#191970" d="M655.0787,-46.794C733.7948,-50.3869 846.3263,-55.5232 929.9319,-59.3392"/>
<polygon fill="#191970" stroke="#191970" points="929.8309,-62.8382 939.9801,-59.7978 930.1501,-55.8454 929.8309,-62.8382"/>
</g>
<!-- Node21&#45;&gt;Node22 -->
<g id="edge4" class="edge">
<title>Node21&#45;&gt;Node22</title>
<path fill="none" stroke="#191970" d="M880.3126,-35.5192C902.3473,-39.4445 926.2387,-43.7004 948.7538,-47.7112"/>
<polygon fill="#191970" stroke="#191970" points="948.1895,-51.1657 958.6483,-49.4738 949.4172,-44.2742 948.1895,-51.1657"/>
</g>
<!-- Node23 -->
<g id="node6" class="node">
<title>Node23</title>
<g id="a_node6"><a xlink:href="class_chimera_t_k_1_1_doocs_backend_namespace_1_1_z_m_q_subscription_manager.html#a1b05e96e439a7650f00c057ce739502c" target="_top" xlink:title="ChimeraTK::DoocsBackendNamespace\l::ZMQSubscriptionManager::unsubscribe">
<polygon fill="#ffffff" stroke="#000000" points="937,-.5 937,-30.5 1149,-30.5 1149,-.5 937,-.5"/>
<text text-anchor="start" x="945" y="-18.5" font-family="Helvetica,sans-Serif" font-size="10.00" fill="#000000">ChimeraTK::DoocsBackendNamespace</text>
<text text-anchor="middle" x="1043" y="-7.5" font-family="Helvetica,sans-Serif" font-size="10.00" fill="#000000">::ZMQSubscriptionManager::unsubscribe</text>
</a>
</g>
</g>
<!-- Node21&#45;&gt;Node23 -->
<g id="edge5" class="edge">
<title>Node21&#45;&gt;Node23</title>
<path fill="none" stroke="#191970" d="M901.1084,-18.3723C909.6021,-18.2004 918.2144,-18.026 926.78,-17.8526"/>
<polygon fill="#191970" stroke="#191970" points="926.8766,-21.3515 936.8037,-17.6497 926.7349,-14.3529 926.8766,-21.3515"/>
</g>
</g>
</svg>
        <g id="navigator" transform="translate(0 0)" fill="#404254">
                <rect fill="#f2f5e9" fill-opacity="0.5" stroke="#606060" stroke-width=".5" x="0" y="0" width="60" height="60"/>
                <use id="zoomplus" xlink:href="#zoomPlus" x="17" y="9" onmousedown="handleZoom(evt,'in')"/>
                <use id="zoomminus" xlink:href="#zoomMin" x="42" y="9" onmousedown="handleZoom(evt,'out')"/>
                <use id="reset" xlink:href="#resetDef" x="30" y="36" onmousedown="handleReset()"/>
                <g id="arrowUp" xlink:href="#dirArrow" transform="translate(30 24)" onmousedown="handlePan(0,-1)">
                  <use xlink:href="#rim" fill="#404040">
                        <set attributeName="fill" to="#808080" begin="arrowUp.mouseover" end="arrowUp.mouseout"/>
                  </use>
                  <path fill="none" stroke="white" stroke-width="1.5" d="M0,-3.0v7 M-2.5,-0.5L0,-3.0L2.5,-0.5"/>
                </g>
                <g id="arrowRight" xlink:href="#dirArrow" transform="rotate(90) translate(36 -43)" onmousedown="handlePan(1,0)">
                  <use xlink:href="#rim" fill="#404040">
                        <set attributeName="fill" to="#808080" begin="arrowRight.mouseover" end="arrowRight.mouseout"/>
                  </use>
                  <path fill="none" stroke="white" stroke-width="1.5" d="M0,-3.0v7 M-2.5,-0.5L0,-3.0L2.5,-0.5"/>
                </g>
                <g id="arrowDown" xlink:href="#dirArrow" transform="rotate(180) translate(-30 -48)" onmousedown="handlePan(0,1)">
                  <use xlink:href="#rim" fill="#404040">
                        <set attributeName="fill" to="#808080" begin="arrowDown.mouseover" end="arrowDown.mouseout"/>
                  </use>
                  <path fill="none" stroke="white" stroke-width="1.5" d="M0,-3.0v7 M-2.5,-0.5L0,-3.0L2.5,-0.5"/>
                </g>
                <g id="arrowLeft" xlink:href="#dirArrow" transform="rotate(270) translate(-36 17)" onmousedown="handlePan(-1,0)">
                  <use xlink:href="#rim" fill="#404040">
                        <set attributeName="fill" to="#808080" begin="arrowLeft.mouseover" end="arrowLeft.mouseout"/>
                  </use>
                  <path fill="none" stroke="white" stroke-width="1.5" d="M0,-3.0v7 M-2.5,-0.5L0,-3.0L2.5,-0.5"/>
                </g>
        </g>
        <svg viewBox="0 0 15 15" width="100%" height="30px" preserveAspectRatio="xMaxYMin meet">
         <g id="arrow_out" transform="scale(0.3 0.3)">
          <a xlink:href="class_chimera_t_k_1_1_doocs_backend_i_f_f_f_register_accessor_a7c3ab24046d6145533ff8b7cb496b834_cgraph_org.svg" target="_base">
           <rect id="button" ry="5" rx="5" y="6" x="6" height="38" width="38"
                fill="#f2f5e9" fill-opacity="0.5" stroke="#606060" stroke-width="1.0"/>
           <path id="arrow"
             d="M 11.500037,31.436501 C 11.940474,20.09759 22.043105,11.32322 32.158766,21.979434 L 37.068811,17.246167 C 37.068811,17.246167 37.088388,32 37.088388,32 L 22.160133,31.978069 C 22.160133,31.978069 26.997745,27.140456 26.997745,27.140456 C 18.528582,18.264221 13.291696,25.230495 11.500037,31.436501 z"
             style="fill:#404040;"/>
          </a>
         </g>
        </svg>
</svg>
