<?xml version="1.0" encoding="UTF-8" standalone="no"?>
<!DOCTYPE svg PUBLIC "-//W3C//DTD SVG 1.1//EN"
 "http://www.w3.org/Graphics/SVG/1.1/DTD/svg11.dtd">
<!-- Generated by graphviz version 2.43.0 (0)
 -->
<!-- Title: EventIdMapper::getVersionForEventId Pages: 1 -->
<!--zoomable 284 -->
<svg id="main" version="1.1" xmlns="http://www.w3.org/2000/svg" xmlns:xlink="http://www.w3.org/1999/xlink" xml:space="preserve" onload="init(evt)">
<style type="text/css"><![CDATA[
.edge:hover path { stroke: red; }
.edge:hover polygon { stroke: red; fill: red; }
]]></style>
<script type="text/javascript"><![CDATA[
var edges = document.getElementsByTagName('g');
if (edges && edges.length) {
  for (var i=0;i<edges.length;i++) {
    if (edges[i].id.substr(0,4)=='edge') {
      edges[i].setAttribute('class','edge');
    }
  }
}
]]></script>
        <defs>
                <circle id="rim" cx="0" cy="0" r="7"/>
                <circle id="rim2" cx="0" cy="0" r="3.5"/>
                <g id="zoomPlus">
                        <use xlink:href="#rim" fill="#404040">
                                <set attributeName="fill" to="#808080" begin="zoomplus.mouseover" end="zoomplus.mouseout"/>
                        </use>
                        <path d="M-4,0h8M0,-4v8" fill="none" stroke="white" stroke-width="1.5" pointer-events="none"/>
                </g>
                <g id="zoomMin">
                        <use xlink:href="#rim" fill="#404040">
                                <set attributeName="fill" to="#808080" begin="zoomminus.mouseover" end="zoomminus.mouseout"/>
                        </use>
                        <path d="M-4,0h8" fill="none" stroke="white" stroke-width="1.5" pointer-events="none"/>
                </g>
                <g id="dirArrow">
                        <path fill="none" stroke="white" stroke-width="1.5" d="M0,-3.0v7 M-2.5,-0.5L0,-3.0L2.5,-0.5"/>
                </g>
               <g id="resetDef">
                       <use xlink:href="#rim2" fill="#404040">
                               <set attributeName="fill" to="#808080" begin="reset.mouseover" end="reset.mouseout"/>
                       </use>
               </g>
        </defs>

<script type="text/javascript">
var viewWidth = 625;
var viewHeight = 284;
var sectionId = 'dynsection-1';
</script>
<script xlink:href="svgpan.js"/>
<svg id="graph" class="graph">
<g id="viewport">
<title>EventIdMapper::getVersionForEventId</title>
<polygon fill="white" stroke="transparent" points="-4,4 -4,-280 621,-280 621,4 -4,4"/>
<!-- Node1 -->
<g id="node1" class="node">
<title>Node1</title>
<g id="a_node1"><a xlink:title=" ">
<polygon fill="#bfbfbf" stroke="black" points="469,-122.5 469,-152.5 617,-152.5 617,-122.5 469,-122.5"/>
<text text-anchor="start" x="477" y="-140.5" font-family="Helvetica,sans-Serif" font-size="10.00">EventIdMapper::getVersion</text>
<text text-anchor="middle" x="543" y="-129.5" font-family="Helvetica,sans-Serif" font-size="10.00">ForEventId</text>
</a>
</g>
</g>
<!-- Node2 -->
<g id="node2" class="node">
<title>Node2</title>
<g id="a_node2"><a xlink:href="class_chimera_t_k_1_1_doocs_backend_register_accessor.html#a402dec3f82a78a7a082157667a7b0580" target="_top" xlink:title=" ">
<polygon fill="white" stroke="black" points="245,-122.5 245,-152.5 433,-152.5 433,-122.5 245,-122.5"/>
<text text-anchor="start" x="253" y="-140.5" font-family="Helvetica,sans-Serif" font-size="10.00">ChimeraTK::DoocsBackendRegister</text>
<text text-anchor="middle" x="339" y="-129.5" font-family="Helvetica,sans-Serif" font-size="10.00">Accessor::doPostRead</text>
</a>
</g>
</g>
<!-- Node1&#45;&gt;Node2 -->
<g id="edge1" class="edge">
<title>Node1&#45;&gt;Node2</title>
<path fill="none" stroke="midnightblue" d="M458.69,-137.5C450.32,-137.5 441.79,-137.5 433.34,-137.5"/>
<polygon fill="midnightblue" stroke="midnightblue" points="458.79,-141 468.79,-137.5 458.79,-134 458.79,-141"/>
</g>
<!-- Node3 -->
<g id="node3" class="node">
<title>Node3</title>
<g id="a_node3"><a xlink:href="class_chimera_t_k_1_1_doocs_backend_numeric_register_accessor.html#a749fae6f56d71e1ab7c649c22e983cd1" target="_top" xlink:title=" ">
<polygon fill="white" stroke="black" points="10,-245.5 10,-275.5 199,-275.5 199,-245.5 10,-245.5"/>
<text text-anchor="start" x="18" y="-263.5" font-family="Helvetica,sans-Serif" font-size="10.00">ChimeraTK::DoocsBackendNumeric</text>
<text text-anchor="middle" x="104.5" y="-252.5" font-family="Helvetica,sans-Serif" font-size="10.00">RegisterAccessor::doPostRead</text>
</a>
</g>
</g>
<!-- Node2&#45;&gt;Node3 -->
<g id="edge2" class="edge">
<title>Node2&#45;&gt;Node3</title>
<path fill="none" stroke="midnightblue" d="M315.51,-159.66C291.24,-182.33 250.46,-216.92 209,-236.5 201.74,-239.93 193.97,-242.88 186.05,-245.43"/>
<polygon fill="midnightblue" stroke="midnightblue" points="317.95,-162.18 322.79,-152.76 313.13,-157.1 317.95,-162.18"/>
</g>
<!-- Node4 -->
<g id="node4" class="node">
<title>Node4</title>
<g id="a_node4"><a xlink:href="class_chimera_t_k_1_1_doocs_backend_string_register_accessor.html#a5b200534786a5887e63ec879e15ade0b" target="_top" xlink:title=" ">
<polygon fill="white" stroke="black" points="16.5,-196.5 16.5,-226.5 192.5,-226.5 192.5,-196.5 16.5,-196.5"/>
<text text-anchor="start" x="24.5" y="-214.5" font-family="Helvetica,sans-Serif" font-size="10.00">ChimeraTK::DoocsBackendString</text>
<text text-anchor="middle" x="104.5" y="-203.5" font-family="Helvetica,sans-Serif" font-size="10.00">RegisterAccessor::doPostRead</text>
</a>
</g>
</g>
<!-- Node2&#45;&gt;Node4 -->
<g id="edge3" class="edge">
<title>Node2&#45;&gt;Node4</title>
<path fill="none" stroke="midnightblue" d="M293.73,-156.46C269.08,-166.55 237.67,-178.67 209,-187.5 198.51,-190.73 187.31,-193.76 176.29,-196.5"/>
<polygon fill="midnightblue" stroke="midnightblue" points="295.26,-159.61 303.16,-152.55 292.58,-153.14 295.26,-159.61"/>
</g>
<!-- Node5 -->
<g id="node5" class="node">
<title>Node5</title>
<g id="a_node5"><a xlink:href="class_chimera_t_k_1_1_doocs_backend_event_id_register_accessor.html#aad3d07e4f308a7c4089afc8031bac001" target="_top" xlink:title=" ">
<polygon fill="white" stroke="black" points="16.5,-147.5 16.5,-177.5 192.5,-177.5 192.5,-147.5 16.5,-147.5"/>
<text text-anchor="start" x="24.5" y="-165.5" font-family="Helvetica,sans-Serif" font-size="10.00">ChimeraTK::DoocsBackendEvent</text>
<text text-anchor="middle" x="104.5" y="-154.5" font-family="Helvetica,sans-Serif" font-size="10.00">IdRegisterAccessor::doPostRead</text>
</a>
</g>
</g>
<!-- Node2&#45;&gt;Node5 -->
<g id="edge4" class="edge">
<title>Node2&#45;&gt;Node5</title>
<path fill="none" stroke="midnightblue" d="M234.64,-148.61C220.64,-150.12 206.39,-151.65 192.72,-153.12"/>
<polygon fill="midnightblue" stroke="midnightblue" points="235.2,-152.07 244.77,-147.52 234.46,-145.11 235.2,-152.07"/>
</g>
<!-- Node6 -->
<g id="node6" class="node">
<title>Node6</title>
<g id="a_node6"><a xlink:href="class_chimera_t_k_1_1_doocs_backend_i_f_f_f_register_accessor.html#a6c63f2b896ce96f485558f9da677ba1c" target="_top" xlink:title=" ">
<polygon fill="white" stroke="black" points="0,-98.5 0,-128.5 209,-128.5 209,-98.5 0,-98.5"/>
<text text-anchor="start" x="8" y="-116.5" font-family="Helvetica,sans-Serif" font-size="10.00">ChimeraTK::DoocsBackendIFFFRegister</text>
<text text-anchor="middle" x="104.5" y="-105.5" font-family="Helvetica,sans-Serif" font-size="10.00">Accessor::doPostRead</text>
</a>
</g>
</g>
<!-- Node2&#45;&gt;Node6 -->
<g id="edge5" class="edge">
<title>Node2&#45;&gt;Node6</title>
<path fill="none" stroke="midnightblue" d="M234.79,-126.85C226.25,-125.96 217.6,-125.07 209.05,-124.19"/>
<polygon fill="midnightblue" stroke="midnightblue" points="234.47,-130.33 244.77,-127.88 235.19,-123.37 234.47,-130.33"/>
</g>
<!-- Node7 -->
<g id="node7" class="node">
<title>Node7</title>
<g id="a_node7"><a xlink:href="class_chimera_t_k_1_1_doocs_backend_image_register_accessor.html#a253fc266af19fb41bc8f7b8e92f77f61" target="_top" xlink:title=" ">
<polygon fill="white" stroke="black" points="15,-49.5 15,-79.5 194,-79.5 194,-49.5 15,-49.5"/>
<text text-anchor="start" x="23" y="-67.5" font-family="Helvetica,sans-Serif" font-size="10.00">ChimeraTK::DoocsBackendImage</text>
<text text-anchor="middle" x="104.5" y="-56.5" font-family="Helvetica,sans-Serif" font-size="10.00">RegisterAccessor::doPostRead</text>
</a>
</g>
</g>
<!-- Node2&#45;&gt;Node7 -->
<g id="edge6" class="edge">
<title>Node2&#45;&gt;Node7</title>
<path fill="none" stroke="midnightblue" d="M291.78,-118.78C267.4,-109.29 236.84,-98.01 209,-89.5 197.42,-85.96 184.99,-82.6 172.9,-79.55"/>
<polygon fill="midnightblue" stroke="midnightblue" points="290.56,-122.06 301.14,-122.45 293.11,-115.54 290.56,-122.06"/>
</g>
<!-- Node8 -->
<g id="node8" class="node">
<title>Node8</title>
<g id="a_node8"><a xlink:href="class_chimera_t_k_1_1_doocs_backend_time_stamp_register_accessor.html#a9371c1d97881049a557de1293f51bb8f" target="_top" xlink:title=" ">
<polygon fill="white" stroke="black" points="6.5,-0.5 6.5,-30.5 202.5,-30.5 202.5,-0.5 6.5,-0.5"/>
<text text-anchor="start" x="14.5" y="-18.5" font-family="Helvetica,sans-Serif" font-size="10.00">ChimeraTK::DoocsBackendTime</text>
<text text-anchor="middle" x="104.5" y="-7.5" font-family="Helvetica,sans-Serif" font-size="10.00">StampRegisterAccessor::doPostRead</text>
</a>
</g>
</g>
<!-- Node2&#45;&gt;Node8 -->
<g id="edge7" class="edge">
<title>Node2&#45;&gt;Node8</title>
<path fill="none" stroke="midnightblue" d="M314.66,-115.22C290.21,-93.08 249.75,-59.73 209,-40.5 200.81,-36.63 191.96,-33.33 183.01,-30.52"/>
<polygon fill="midnightblue" stroke="midnightblue" points="312.59,-118.07 322.32,-122.26 317.33,-112.92 312.59,-118.07"/>
</g>
</g>
</svg>
        <g id="navigator" transform="translate(0 0)" fill="#404254">
                <rect fill="#f2f5e9" fill-opacity="0.5" stroke="#606060" stroke-width=".5" x="0" y="0" width="60" height="60"/>
                <use id="zoomplus" xlink:href="#zoomPlus" x="17" y="9" onmousedown="handleZoom(evt,'in')"/>
                <use id="zoomminus" xlink:href="#zoomMin" x="42" y="9" onmousedown="handleZoom(evt,'out')"/>
                <use id="reset" xlink:href="#resetDef" x="30" y="36" onmousedown="handleReset()"/>
                <g id="arrowUp" xlink:href="#dirArrow" transform="translate(30 24)" onmousedown="handlePan(0,-1)">
                  <use xlink:href="#rim" fill="#404040">
                        <set attributeName="fill" to="#808080" begin="arrowUp.mouseover" end="arrowUp.mouseout"/>
                  </use>
                  <path fill="none" stroke="white" stroke-width="1.5" d="M0,-3.0v7 M-2.5,-0.5L0,-3.0L2.5,-0.5"/>
                </g>
                <g id="arrowRight" xlink:href="#dirArrow" transform="rotate(90) translate(36 -43)" onmousedown="handlePan(1,0)">
                  <use xlink:href="#rim" fill="#404040">
                        <set attributeName="fill" to="#808080" begin="arrowRight.mouseover" end="arrowRight.mouseout"/>
                  </use>
                  <path fill="none" stroke="white" stroke-width="1.5" d="M0,-3.0v7 M-2.5,-0.5L0,-3.0L2.5,-0.5"/>
                </g>
                <g id="arrowDown" xlink:href="#dirArrow" transform="rotate(180) translate(-30 -48)" onmousedown="handlePan(0,1)">
                  <use xlink:href="#rim" fill="#404040">
                        <set attributeName="fill" to="#808080" begin="arrowDown.mouseover" end="arrowDown.mouseout"/>
                  </use>
                  <path fill="none" stroke="white" stroke-width="1.5" d="M0,-3.0v7 M-2.5,-0.5L0,-3.0L2.5,-0.5"/>
                </g>
                <g id="arrowLeft" xlink:href="#dirArrow" transform="rotate(270) translate(-36 17)" onmousedown="handlePan(-1,0)">
                  <use xlink:href="#rim" fill="#404040">
                        <set attributeName="fill" to="#808080" begin="arrowLeft.mouseover" end="arrowLeft.mouseout"/>
                  </use>
                  <path fill="none" stroke="white" stroke-width="1.5" d="M0,-3.0v7 M-2.5,-0.5L0,-3.0L2.5,-0.5"/>
                </g>
        </g>
        <svg viewBox="0 0 15 15" width="100%" height="30px" preserveAspectRatio="xMaxYMin meet">
         <g id="arrow_out" transform="scale(0.3 0.3)">
          <a xlink:href="class_event_id_mapper_adfda73773e7e4e169664a6f288c72c5b_icgraph_org.svg" target="_base">
           <rect id="button" ry="5" rx="5" y="6" x="6" height="38" width="38"
                fill="#f2f5e9" fill-opacity="0.5" stroke="#606060" stroke-width="1.0"/>
           <path id="arrow"
             d="M 11.500037,31.436501 C 11.940474,20.09759 22.043105,11.32322 32.158766,21.979434 L 37.068811,17.246167 C 37.068811,17.246167 37.088388,32 37.088388,32 L 22.160133,31.978069 C 22.160133,31.978069 26.997745,27.140456 26.997745,27.140456 C 18.528582,18.264221 13.291696,25.230495 11.500037,31.436501 z"
             style="fill:#404040;"/>
          </a>
         </g>
        </svg>
</svg>
