<?xml version="1.0" encoding="UTF-8" standalone="no"?>
<!DOCTYPE svg PUBLIC "-//W3C//DTD SVG 1.1//EN"
 "http://www.w3.org/Graphics/SVG/1.1/DTD/svg11.dtd">
<!-- Generated by graphviz version 2.40.1 (20161225.0304)
 -->
<!-- Title: ChimeraTK::DoocsBackendRegisterAccessor&lt; UserType &gt; Pages: 1 -->
<svg width="330pt" height="242pt"
 viewBox="0.00 0.00 329.50 242.00" xmlns="http://www.w3.org/2000/svg" xmlns:xlink="http://www.w3.org/1999/xlink">
<g id="graph0" class="graph" transform="scale(1 1) rotate(0) translate(4 238)">
<title>ChimeraTK::DoocsBackendRegisterAccessor&lt; UserType &gt;</title>
<polygon fill="#ffffff" stroke="transparent" points="-4,4 -4,-238 325.5,-238 325.5,4 -4,4"/>
<!-- Node9 -->
<g id="node1" class="node">
<title>Node9</title>
<polygon fill="#bfbfbf" stroke="#000000" points="85,-.5 85,-30.5 273,-30.5 273,-.5 85,-.5"/>
<text text-anchor="start" x="93" y="-18.5" font-family="Helvetica,sans-Serif" font-size="10.00" fill="#000000">ChimeraTK::DoocsBackendRegister</text>
<text text-anchor="middle" x="179" y="-7.5" font-family="Helvetica,sans-Serif" font-size="10.00" fill="#000000">Accessor&lt; UserType &gt;</text>
</g>
<!-- Node10 -->
<g id="node2" class="node">
<title>Node10</title>
<g id="a_node2"><a xlink:href="class_chimera_t_k_1_1_doocs_backend_register_accessor_base.html" target="_top" xlink:title="This is the untemplated base class which unifies all data members not depending on the UserType...">
<polygon fill="#ffffff" stroke="#000000" points="0,-68.5 0,-98.5 188,-98.5 188,-68.5 0,-68.5"/>
<text text-anchor="start" x="8" y="-86.5" font-family="Helvetica,sans-Serif" font-size="10.00" fill="#000000">ChimeraTK::DoocsBackendRegister</text>
<text text-anchor="middle" x="94" y="-75.5" font-family="Helvetica,sans-Serif" font-size="10.00" fill="#000000">AccessorBase</text>
</a>
</g>
</g>
<!-- Node10&#45;&gt;Node9 -->
<g id="edge1" class="edge">
<title>Node10&#45;&gt;Node9</title>
<path fill="none" stroke="#191970" d="M120.8904,-61.9877C133.6732,-51.7614 148.644,-39.7848 160.1885,-30.5492"/>
<polygon fill="#191970" stroke="#191970" points="118.4865,-59.4286 112.8643,-68.4086 122.8594,-64.8947 118.4865,-59.4286"/>
</g>
<!-- Node11 -->
<g id="node3" class="node">
<title>Node11</title>
<g id="a_node3"><a xlink:title="STL class. ">
<polygon fill="#ffffff" stroke="#bfbfbf" points="61.5,-146.5 61.5,-165.5 126.5,-165.5 126.5,-146.5 61.5,-146.5"/>
<text text-anchor="middle" x="94" y="-153.5" font-family="Helvetica,sans-Serif" font-size="10.00" fill="#000000">std::string</text>
</a>
</g>
</g>
<!-- Node11&#45;&gt;Node10 -->
<g id="edge2" class="edge">
<title>Node11&#45;&gt;Node10</title>
<path fill="none" stroke="#9a32cd" stroke-dasharray="5,2" d="M94,-136.0177C94,-124.2164 94,-109.513 94,-98.668"/>
<polygon fill="#9a32cd" stroke="#9a32cd" points="90.5001,-136.2223 94,-146.2223 97.5001,-136.2224 90.5001,-136.2223"/>
<text text-anchor="middle" x="109.5" y="-120" font-family="Helvetica,sans-Serif" font-size="10.00" fill="#000000"> _path</text>
</g>
<!-- Node12 -->
<g id="node4" class="node">
<title>Node12</title>
<g id="a_node4"><a xlink:title="STL class. ">
<polygon fill="#ffffff" stroke="#bfbfbf" points="42,-203.5 42,-233.5 146,-233.5 146,-203.5 42,-203.5"/>
<text text-anchor="start" x="50" y="-221.5" font-family="Helvetica,sans-Serif" font-size="10.00" fill="#000000">std::basic_string&lt;</text>
<text text-anchor="middle" x="94" y="-210.5" font-family="Helvetica,sans-Serif" font-size="10.00" fill="#000000"> char &gt;</text>
</a>
</g>
</g>
<!-- Node12&#45;&gt;Node11 -->
<g id="edge3" class="edge">
<title>Node12&#45;&gt;Node11</title>
<path fill="none" stroke="#191970" d="M94,-193.3498C94,-183.6481 94,-173.1303 94,-165.7356"/>
<polygon fill="#191970" stroke="#191970" points="90.5001,-193.3705 94,-203.3705 97.5001,-193.3705 90.5001,-193.3705"/>
</g>
<!-- Node13 -->
<g id="node5" class="node">
<title>Node13</title>
<polygon fill="#ffffff" stroke="#bfbfbf" points="206.5,-68.5 206.5,-98.5 321.5,-98.5 321.5,-68.5 206.5,-68.5"/>
<text text-anchor="start" x="214.5" y="-86.5" font-family="Helvetica,sans-Serif" font-size="10.00" fill="#000000">NDRegisterAccessor</text>
<text text-anchor="middle" x="264" y="-75.5" font-family="Helvetica,sans-Serif" font-size="10.00" fill="#000000">&lt; UserType &gt;</text>
</g>
<!-- Node13&#45;&gt;Node9 -->
<g id="edge4" class="edge">
<title>Node13&#45;&gt;Node9</title>
<path fill="none" stroke="#191970" d="M237.1096,-61.9877C224.3268,-51.7614 209.356,-39.7848 197.8115,-30.5492"/>
<polygon fill="#191970" stroke="#191970" points="235.1406,-64.8947 245.1357,-68.4086 239.5135,-59.4286 235.1406,-64.8947"/>
</g>
</g>
</svg>
