<?xml version="1.0" encoding="UTF-8" standalone="no"?>
<!DOCTYPE svg PUBLIC "-//W3C//DTD SVG 1.1//EN"
 "http://www.w3.org/Graphics/SVG/1.1/DTD/svg11.dtd">
<!-- Generated by graphviz version 2.40.1 (20161225.0304)
 -->
<!-- Title: ChimeraTK::DoocsBackendRegisterAccessor::zmq_callback Pages: 1 -->
<svg width="677pt" height="39pt"
 viewBox="0.00 0.00 677.00 39.00" xmlns="http://www.w3.org/2000/svg" xmlns:xlink="http://www.w3.org/1999/xlink">
<g id="graph0" class="graph" transform="scale(1 1) rotate(0) translate(4 35)">
<title>ChimeraTK::DoocsBackendRegisterAccessor::zmq_callback</title>
<polygon fill="#ffffff" stroke="transparent" points="-4,4 -4,-35 673,-35 673,4 -4,4"/>
<!-- Node119 -->
<g id="node1" class="node">
<title>Node119</title>
<polygon fill="#bfbfbf" stroke="#000000" points="0,-.5 0,-30.5 188,-30.5 188,-.5 0,-.5"/>
<text text-anchor="start" x="8" y="-18.5" font-family="Helvetica,sans-Serif" font-size="10.00" fill="#000000">ChimeraTK::DoocsBackendRegister</text>
<text text-anchor="middle" x="94" y="-7.5" font-family="Helvetica,sans-Serif" font-size="10.00" fill="#000000">Accessor::zmq_callback</text>
</g>
<!-- Node120 -->
<g id="node2" class="node">
<title>Node120</title>
<g id="a_node2"><a xlink:href="class_chimera_t_k_1_1_doocs_backend_register_accessor.html#afbf800d7330b4a2b45977674f57070bf" target="_top" xlink:title="ChimeraTK::DoocsBackendRegister\lAccessor::DoocsBackendRegisterAccessor">
<polygon fill="#ffffff" stroke="#000000" points="224,-.5 224,-30.5 445,-30.5 445,-.5 224,-.5"/>
<text text-anchor="start" x="232" y="-18.5" font-family="Helvetica,sans-Serif" font-size="10.00" fill="#000000">ChimeraTK::DoocsBackendRegister</text>
<text text-anchor="middle" x="334.5" y="-7.5" font-family="Helvetica,sans-Serif" font-size="10.00" fill="#000000">Accessor::DoocsBackendRegisterAccessor</text>
</a>
</g>
</g>
<!-- Node119&#45;&gt;Node120 -->
<g id="edge1" class="edge">
<title>Node119&#45;&gt;Node120</title>
<path fill="none" stroke="#191970" d="M198.2611,-15.5C206.7125,-15.5 215.2712,-15.5 223.7662,-15.5"/>
<polygon fill="#191970" stroke="#191970" points="198.0169,-12.0001 188.0169,-15.5 198.0168,-19.0001 198.0169,-12.0001"/>
</g>
<!-- Node121 -->
<g id="node3" class="node">
<title>Node121</title>
<g id="a_node3"><a xlink:href="class_chimera_t_k_1_1_doocs_backend_register_accessor.html#a2a0c1e9b73ab0e1d9df9bc0cf64edff2" target="_top" xlink:title="ChimeraTK::DoocsBackendRegister\lAccessor::getVersionNumber">
<polygon fill="#ffffff" stroke="#000000" points="481,-.5 481,-30.5 669,-30.5 669,-.5 481,-.5"/>
<text text-anchor="start" x="489" y="-18.5" font-family="Helvetica,sans-Serif" font-size="10.00" fill="#000000">ChimeraTK::DoocsBackendRegister</text>
<text text-anchor="middle" x="575" y="-7.5" font-family="Helvetica,sans-Serif" font-size="10.00" fill="#000000">Accessor::getVersionNumber</text>
</a>
</g>
</g>
<!-- Node120&#45;&gt;Node121 -->
<g id="edge2" class="edge">
<title>Node120&#45;&gt;Node121</title>
<path fill="none" stroke="#191970" d="M455.2516,-15.5C463.7816,-15.5 472.3083,-15.5 480.6599,-15.5"/>
<polygon fill="#191970" stroke="#191970" points="455.2469,-12.0001 445.2469,-15.5 455.2468,-19.0001 455.2469,-12.0001"/>
</g>
</g>
</svg>
