<?xml version="1.0" encoding="UTF-8" standalone="no"?>
<!DOCTYPE svg PUBLIC "-//W3C//DTD SVG 1.1//EN"
 "http://www.w3.org/Graphics/SVG/1.1/DTD/svg11.dtd">
<!-- Generated by graphviz version 2.40.1 (20161225.0304)
 -->
<!-- Title: ChimeraTK::DoocsBackendEventIdRegisterAccessor::~DoocsBackendEventIdRegisterAccessor Pages: 1 -->
<svg width="921pt" height="88pt"
 viewBox="0.00 0.00 921.00 88.00" xmlns="http://www.w3.org/2000/svg" xmlns:xlink="http://www.w3.org/1999/xlink">
<g id="graph0" class="graph" transform="scale(1 1) rotate(0) translate(4 84)">
<title>ChimeraTK::DoocsBackendEventIdRegisterAccessor::~DoocsBackendEventIdRegisterAccessor</title>
<polygon fill="#ffffff" stroke="transparent" points="-4,4 -4,-84 917,-84 917,4 -4,4"/>
<!-- Node0 -->
<g id="node1" class="node">
<title>Node0</title>
<polygon fill="#bfbfbf" stroke="#000000" points="0,-17 0,-58 195,-58 195,-17 0,-17"/>
<text text-anchor="start" x="8" y="-46" font-family="Helvetica,sans-Serif" font-size="10.00" fill="#000000">ChimeraTK::DoocsBackendEvent</text>
<text text-anchor="start" x="8" y="-35" font-family="Helvetica,sans-Serif" font-size="10.00" fill="#000000">IdRegisterAccessor::~DoocsBackend</text>
<text text-anchor="middle" x="97.5" y="-24" font-family="Helvetica,sans-Serif" font-size="10.00" fill="#000000">EventIdRegisterAccessor</text>
</g>
<!-- Node1 -->
<g id="node2" class="node">
<title>Node1</title>
<g id="a_node2"><a xlink:href="class_chimera_t_k_1_1_doocs_backend_register_accessor.html#a14e6481ebb423ffab7c49078e87fe6cf" target="_top" xlink:title="All implementations must call this function in their destructor. ">
<polygon fill="#ffffff" stroke="#000000" points="231,-22.5 231,-52.5 419,-52.5 419,-22.5 231,-22.5"/>
<text text-anchor="start" x="239" y="-40.5" font-family="Helvetica,sans-Serif" font-size="10.00" fill="#000000">ChimeraTK::DoocsBackendRegister</text>
<text text-anchor="middle" x="325" y="-29.5" font-family="Helvetica,sans-Serif" font-size="10.00" fill="#000000">Accessor::shutdown</text>
</a>
</g>
</g>
<!-- Node0&#45;&gt;Node1 -->
<g id="edge1" class="edge">
<title>Node0&#45;&gt;Node1</title>
<path fill="none" stroke="#191970" d="M195.3008,-37.5C203.6914,-37.5 212.2001,-37.5 220.6394,-37.5"/>
<polygon fill="#191970" stroke="#191970" points="220.8865,-41.0001 230.8865,-37.5 220.8865,-34.0001 220.8865,-41.0001"/>
</g>
<!-- Node2 -->
<g id="node3" class="node">
<title>Node2</title>
<g id="a_node3"><a xlink:href="class_chimera_t_k_1_1_doocs_backend_namespace_1_1_z_m_q_subscription_manager.html#ae8d8452b5bf527ab0a52a51f10ddc1b6" target="_top" xlink:title="ChimeraTK::DoocsBackendNamespace\l::ZMQSubscriptionManager::getInstance">
<polygon fill="#ffffff" stroke="#000000" points="455,-44.5 455,-74.5 665,-74.5 665,-44.5 455,-44.5"/>
<text text-anchor="start" x="463" y="-62.5" font-family="Helvetica,sans-Serif" font-size="10.00" fill="#000000">ChimeraTK::DoocsBackendNamespace</text>
<text text-anchor="middle" x="560" y="-51.5" font-family="Helvetica,sans-Serif" font-size="10.00" fill="#000000">::ZMQSubscriptionManager::getInstance</text>
</a>
</g>
</g>
<!-- Node1&#45;&gt;Node2 -->
<g id="edge2" class="edge">
<title>Node1&#45;&gt;Node2</title>
<path fill="none" stroke="#191970" d="M419.2294,-46.3215C427.6731,-47.112 436.2838,-47.9181 444.8776,-48.7226"/>
<polygon fill="#191970" stroke="#191970" points="444.6644,-52.2178 454.9471,-49.6653 445.3169,-45.2483 444.6644,-52.2178"/>
</g>
<!-- Node4 -->
<g id="node5" class="node">
<title>Node4</title>
<g id="a_node5"><a xlink:href="class_chimera_t_k_1_1_doocs_backend_namespace_1_1_z_m_q_subscription_manager.html#a1b05e96e439a7650f00c057ce739502c" target="_top" xlink:title="ChimeraTK::DoocsBackendNamespace\l::ZMQSubscriptionManager::unsubscribe">
<polygon fill="#ffffff" stroke="#000000" points="701,-.5 701,-30.5 913,-30.5 913,-.5 701,-.5"/>
<text text-anchor="start" x="709" y="-18.5" font-family="Helvetica,sans-Serif" font-size="10.00" fill="#000000">ChimeraTK::DoocsBackendNamespace</text>
<text text-anchor="middle" x="807" y="-7.5" font-family="Helvetica,sans-Serif" font-size="10.00" fill="#000000">::ZMQSubscriptionManager::unsubscribe</text>
</a>
</g>
</g>
<!-- Node1&#45;&gt;Node4 -->
<g id="edge5" class="edge">
<title>Node1&#45;&gt;Node4</title>
<path fill="none" stroke="#191970" d="M419.0787,-33.206C496.7417,-29.6612 607.3215,-24.614 690.5611,-20.8146"/>
<polygon fill="#191970" stroke="#191970" points="690.7427,-24.3101 700.5727,-20.3577 690.4235,-17.3174 690.7427,-24.3101"/>
</g>
<!-- Node3 -->
<g id="node4" class="node">
<title>Node3</title>
<g id="a_node4"><a xlink:href="class_chimera_t_k_1_1_doocs_backend_namespace_1_1_z_m_q_subscription_manager.html#afccea9af8b0253c7b05590bee7157828" target="_top" xlink:title="ChimeraTK::DoocsBackendNamespace\l::ZMQSubscriptionManager::subscribe">
<polygon fill="#ffffff" stroke="#000000" points="704,-49.5 704,-79.5 910,-79.5 910,-49.5 704,-49.5"/>
<text text-anchor="start" x="712" y="-67.5" font-family="Helvetica,sans-Serif" font-size="10.00" fill="#000000">ChimeraTK::DoocsBackendNamespace</text>
<text text-anchor="middle" x="807" y="-56.5" font-family="Helvetica,sans-Serif" font-size="10.00" fill="#000000">::ZMQSubscriptionManager::subscribe</text>
</a>
</g>
</g>
<!-- Node2&#45;&gt;Node3 -->
<g id="edge3" class="edge">
<title>Node2&#45;&gt;Node3</title>
<path fill="none" stroke="#191970" d="M665.1084,-61.6277C674.5581,-61.819 684.1548,-62.0133 693.6704,-62.2059"/>
<polygon fill="#191970" stroke="#191970" points="693.8844,-65.7108 703.9532,-62.414 694.0261,-58.7123 693.8844,-65.7108"/>
</g>
<!-- Node2&#45;&gt;Node4 -->
<g id="edge4" class="edge">
<title>Node2&#45;&gt;Node4</title>
<path fill="none" stroke="#191970" d="M644.3126,-44.4808C666.3473,-40.5555 690.2387,-36.2996 712.7538,-32.2888"/>
<polygon fill="#191970" stroke="#191970" points="713.4172,-35.7258 722.6483,-30.5262 712.1895,-28.8343 713.4172,-35.7258"/>
</g>
</g>
</svg>
