<?xml version="1.0" encoding="UTF-8" standalone="no"?>
<!DOCTYPE svg PUBLIC "-//W3C//DTD SVG 1.1//EN"
 "http://www.w3.org/Graphics/SVG/1.1/DTD/svg11.dtd">
<!-- Generated by graphviz version 2.43.0 (0)
 -->
<!-- Title: include/VirtualTime.h Pages: 1 -->
<!--zoomable 274 -->
<svg id="main" version="1.1" xmlns="http://www.w3.org/2000/svg" xmlns:xlink="http://www.w3.org/1999/xlink" xml:space="preserve" onload="init(evt)">
<style type="text/css"><![CDATA[
.edge:hover path { stroke: red; }
.edge:hover polygon { stroke: red; fill: red; }
]]></style>
<script type="text/javascript"><![CDATA[
var edges = document.getElementsByTagName('g');
if (edges && edges.length) {
  for (var i=0;i<edges.length;i++) {
    if (edges[i].id.substr(0,4)=='edge') {
      edges[i].setAttribute('class','edge');
    }
  }
}
]]></script>
        <defs>
                <circle id="rim" cx="0" cy="0" r="7"/>
                <circle id="rim2" cx="0" cy="0" r="3.5"/>
                <g id="zoomPlus">
                        <use xlink:href="#rim" fill="#404040">
                                <set attributeName="fill" to="#808080" begin="zoomplus.mouseover" end="zoomplus.mouseout"/>
                        </use>
                        <path d="M-4,0h8M0,-4v8" fill="none" stroke="white" stroke-width="1.5" pointer-events="none"/>
                </g>
                <g id="zoomMin">
                        <use xlink:href="#rim" fill="#404040">
                                <set attributeName="fill" to="#808080" begin="zoomminus.mouseover" end="zoomminus.mouseout"/>
                        </use>
                        <path d="M-4,0h8" fill="none" stroke="white" stroke-width="1.5" pointer-events="none"/>
                </g>
                <g id="dirArrow">
                        <path fill="none" stroke="white" stroke-width="1.5" d="M0,-3.0v7 M-2.5,-0.5L0,-3.0L2.5,-0.5"/>
                </g>
               <g id="resetDef">
                       <use xlink:href="#rim2" fill="#404040">
                               <set attributeName="fill" to="#808080" begin="reset.mouseover" end="reset.mouseout"/>
                       </use>
               </g>
        </defs>

<script type="text/javascript">
var viewWidth = 526;
var viewHeight = 274;
var sectionId = 'dynsection-0';
</script>
<script xlink:href="svgpan.js"/>
<svg id="graph" class="graph">
<g id="viewport">
<title>include/VirtualTime.h</title>
<polygon fill="white" stroke="transparent" points="-4,4 -4,-270 522,-270 522,4 -4,4"/>
<!-- Node1 -->
<g id="node1" class="node">
<title>Node1</title>
<g id="a_node1"><a xlink:title=" ">
<polygon fill="#bfbfbf" stroke="black" points="218,-246.5 218,-265.5 339,-265.5 339,-246.5 218,-246.5"/>
<text text-anchor="middle" x="278.5" y="-253.5" font-family="Helvetica,sans-Serif" font-size="10.00">include/VirtualTime.h</text>
</a>
</g>
</g>
<!-- Node2 -->
<g id="node2" class="node">
<title>Node2</title>
<g id="a_node2"><a xlink:href="_signal_source_8h.html" target="_top" xlink:title=" ">
<polygon fill="white" stroke="black" points="118,-134.5 118,-153.5 245,-153.5 245,-134.5 118,-134.5"/>
<text text-anchor="middle" x="181.5" y="-141.5" font-family="Helvetica,sans-Serif" font-size="10.00">include/SignalSource.h</text>
</a>
</g>
</g>
<!-- Node1&#45;&gt;Node2 -->
<g id="edge1" class="edge">
<title>Node1&#45;&gt;Node2</title>
<path fill="none" stroke="midnightblue" d="M240.88,-242.35C224.99,-235.2 207.62,-224.69 196.5,-210 183.64,-193.01 181.52,-166.86 181.34,-153.5"/>
<polygon fill="midnightblue" stroke="midnightblue" points="239.94,-245.75 250.52,-246.37 242.64,-239.29 239.94,-245.75"/>
</g>
<!-- Node7 -->
<g id="node7" class="node">
<title>Node7</title>
<g id="a_node7"><a xlink:href="_state_variable_set_8h.html" target="_top" xlink:title=" ">
<polygon fill="white" stroke="black" points="206,-190.5 206,-209.5 351,-209.5 351,-190.5 206,-190.5"/>
<text text-anchor="middle" x="278.5" y="-197.5" font-family="Helvetica,sans-Serif" font-size="10.00">include/StateVariableSet.h</text>
</a>
</g>
</g>
<!-- Node1&#45;&gt;Node7 -->
<g id="edge6" class="edge">
<title>Node1&#45;&gt;Node7</title>
<path fill="none" stroke="midnightblue" d="M278.5,-235.8C278.5,-226.91 278.5,-216.78 278.5,-209.75"/>
<polygon fill="midnightblue" stroke="midnightblue" points="275,-236.08 278.5,-246.08 282,-236.08 275,-236.08"/>
</g>
<!-- Node8 -->
<g id="node8" class="node">
<title>Node8</title>
<g id="a_node8"><a xlink:href="_timer_group_8h.html" target="_top" xlink:title=" ">
<polygon fill="white" stroke="black" points="369.5,-190.5 369.5,-209.5 491.5,-209.5 491.5,-190.5 369.5,-190.5"/>
<text text-anchor="middle" x="430.5" y="-197.5" font-family="Helvetica,sans-Serif" font-size="10.00">include/TimerGroup.h</text>
</a>
</g>
</g>
<!-- Node1&#45;&gt;Node8 -->
<g id="edge9" class="edge">
<title>Node1&#45;&gt;Node8</title>
<path fill="none" stroke="midnightblue" d="M312.17,-243.04C340.77,-232.88 381.11,-218.55 406.53,-209.52"/>
<polygon fill="midnightblue" stroke="midnightblue" points="310.84,-239.8 302.58,-246.44 313.18,-246.39 310.84,-239.8"/>
</g>
<!-- Node3 -->
<g id="node3" class="node">
<title>Node3</title>
<g id="a_node3"><a xlink:href="_signal_sink_8h.html" target="_top" xlink:title=" ">
<polygon fill="white" stroke="black" points="0,-73 0,-92 115,-92 115,-73 0,-73"/>
<text text-anchor="middle" x="57.5" y="-80" font-family="Helvetica,sans-Serif" font-size="10.00">include/SignalSink.h</text>
</a>
</g>
</g>
<!-- Node2&#45;&gt;Node3 -->
<g id="edge2" class="edge">
<title>Node2&#45;&gt;Node3</title>
<path fill="none" stroke="midnightblue" d="M154.45,-130.02C130.4,-118.48 95.94,-101.94 75.23,-92.01"/>
<polygon fill="midnightblue" stroke="midnightblue" points="153.2,-133.3 163.73,-134.48 156.23,-126.99 153.2,-133.3"/>
</g>
<!-- Node6 -->
<g id="node6" class="node">
<title>Node6</title>
<g id="a_node6"><a xlink:href="_signal_source_8cpp.html" target="_top" xlink:title=" ">
<polygon fill="white" stroke="black" points="133,-73 133,-92 250,-92 250,-73 133,-73"/>
<text text-anchor="middle" x="191.5" y="-80" font-family="Helvetica,sans-Serif" font-size="10.00">src/SignalSource.cpp</text>
</a>
</g>
</g>
<!-- Node2&#45;&gt;Node6 -->
<g id="edge5" class="edge">
<title>Node2&#45;&gt;Node6</title>
<path fill="none" stroke="midnightblue" d="M184.64,-124.32C186.46,-113.5 188.66,-100.4 190.07,-92.01"/>
<polygon fill="midnightblue" stroke="midnightblue" points="181.14,-124.03 182.93,-134.48 188.04,-125.19 181.14,-124.03"/>
</g>
<!-- Node4 -->
<g id="node4" class="node">
<title>Node4</title>
<g id="a_node4"><a xlink:href="_signal_sink_8cpp.html" target="_top" xlink:title=" ">
<polygon fill="white" stroke="black" points="5,-6 5,-25 110,-25 110,-6 5,-6"/>
<text text-anchor="middle" x="57.5" y="-13" font-family="Helvetica,sans-Serif" font-size="10.00">src/SignalSink.cpp</text>
</a>
</g>
</g>
<!-- Node3&#45;&gt;Node4 -->
<g id="edge3" class="edge">
<title>Node3&#45;&gt;Node4</title>
<path fill="none" stroke="midnightblue" d="M57.5,-62.54C57.5,-50.17 57.5,-34.62 57.5,-25.13"/>
<polygon fill="midnightblue" stroke="midnightblue" points="54,-62.73 57.5,-72.73 61,-62.73 54,-62.73"/>
</g>
<!-- Node5 -->
<g id="node5" class="node">
<title>Node5</title>
<g id="a_node5"><a xlink:href="test_virtual_lab_8cpp.html" target="_top" xlink:title=" ">
<polygon fill="white" stroke="black" points="217.5,-0.5 217.5,-30.5 339.5,-30.5 339.5,-0.5 217.5,-0.5"/>
<text text-anchor="start" x="225.5" y="-18.5" font-family="Helvetica,sans-Serif" font-size="10.00">tests/executables_src</text>
<text text-anchor="middle" x="278.5" y="-7.5" font-family="Helvetica,sans-Serif" font-size="10.00">/testVirtualLab.cpp</text>
</a>
</g>
</g>
<!-- Node3&#45;&gt;Node5 -->
<g id="edge4" class="edge">
<title>Node3&#45;&gt;Node5</title>
<path fill="none" stroke="midnightblue" d="M96.88,-69.92C134.36,-58.9 190.8,-42.29 230.8,-30.53"/>
<polygon fill="midnightblue" stroke="midnightblue" points="95.45,-66.69 86.85,-72.87 97.43,-73.4 95.45,-66.69"/>
</g>
<!-- Node7&#45;&gt;Node2 -->
<g id="edge7" class="edge">
<title>Node7&#45;&gt;Node2</title>
<path fill="none" stroke="midnightblue" d="M254.16,-185.45C236.26,-175.48 212.45,-162.23 197.05,-153.65"/>
<polygon fill="midnightblue" stroke="midnightblue" points="252.48,-188.52 262.92,-190.32 255.88,-182.4 252.48,-188.52"/>
</g>
<!-- Node7&#45;&gt;Node5 -->
<g id="edge8" class="edge">
<title>Node7&#45;&gt;Node5</title>
<path fill="none" stroke="midnightblue" d="M278.5,-179.88C278.5,-143.09 278.5,-63.21 278.5,-30.69"/>
<polygon fill="midnightblue" stroke="midnightblue" points="275,-180.2 278.5,-190.2 282,-180.2 275,-180.2"/>
</g>
<!-- Node9 -->
<g id="node9" class="node">
<title>Node9</title>
<g id="a_node9"><a xlink:href="_virtual_lab_backend_8h.html" target="_top" xlink:title=" ">
<polygon fill="white" stroke="black" points="353,-134.5 353,-153.5 508,-153.5 508,-134.5 353,-134.5"/>
<text text-anchor="middle" x="430.5" y="-141.5" font-family="Helvetica,sans-Serif" font-size="10.00">include/VirtualLabBackend.h</text>
</a>
</g>
</g>
<!-- Node8&#45;&gt;Node9 -->
<g id="edge10" class="edge">
<title>Node8&#45;&gt;Node9</title>
<path fill="none" stroke="midnightblue" d="M430.5,-179.8C430.5,-170.91 430.5,-160.78 430.5,-153.75"/>
<polygon fill="midnightblue" stroke="midnightblue" points="427,-180.08 430.5,-190.08 434,-180.08 427,-180.08"/>
</g>
<!-- Node9&#45;&gt;Node5 -->
<g id="edge12" class="edge">
<title>Node9&#45;&gt;Node5</title>
<path fill="none" stroke="midnightblue" d="M393.93,-130.84C375.11,-123.37 352.6,-112.44 335.5,-98 312.68,-78.72 294.67,-48.28 285.39,-30.57"/>
<polygon fill="midnightblue" stroke="midnightblue" points="392.8,-134.16 403.39,-134.43 395.28,-127.61 392.8,-134.16"/>
</g>
<!-- Node10 -->
<g id="node10" class="node">
<title>Node10</title>
<g id="a_node10"><a xlink:href="performance__test_8cpp.html" target="_top" xlink:title=" ">
<polygon fill="white" stroke="black" points="345,-67.5 345,-97.5 518,-97.5 518,-67.5 345,-67.5"/>
<text text-anchor="start" x="353" y="-85.5" font-family="Helvetica,sans-Serif" font-size="10.00">performance_tests/performance</text>
<text text-anchor="middle" x="431.5" y="-74.5" font-family="Helvetica,sans-Serif" font-size="10.00">_test.cpp</text>
</a>
</g>
</g>
<!-- Node9&#45;&gt;Node10 -->
<g id="edge11" class="edge">
<title>Node9&#45;&gt;Node10</title>
<path fill="none" stroke="midnightblue" d="M430.82,-124.23C430.96,-115.59 431.13,-105.5 431.26,-97.52"/>
<polygon fill="midnightblue" stroke="midnightblue" points="427.31,-124.42 430.64,-134.48 434.31,-124.54 427.31,-124.42"/>
</g>
</g>
</svg>
        <g id="navigator" transform="translate(0 0)" fill="#404254">
                <rect fill="#f2f5e9" fill-opacity="0.5" stroke="#606060" stroke-width=".5" x="0" y="0" width="60" height="60"/>
                <use id="zoomplus" xlink:href="#zoomPlus" x="17" y="9" onmousedown="handleZoom(evt,'in')"/>
                <use id="zoomminus" xlink:href="#zoomMin" x="42" y="9" onmousedown="handleZoom(evt,'out')"/>
                <use id="reset" xlink:href="#resetDef" x="30" y="36" onmousedown="handleReset()"/>
                <g id="arrowUp" xlink:href="#dirArrow" transform="translate(30 24)" onmousedown="handlePan(0,-1)">
                  <use xlink:href="#rim" fill="#404040">
                        <set attributeName="fill" to="#808080" begin="arrowUp.mouseover" end="arrowUp.mouseout"/>
                  </use>
                  <path fill="none" stroke="white" stroke-width="1.5" d="M0,-3.0v7 M-2.5,-0.5L0,-3.0L2.5,-0.5"/>
                </g>
                <g id="arrowRight" xlink:href="#dirArrow" transform="rotate(90) translate(36 -43)" onmousedown="handlePan(1,0)">
                  <use xlink:href="#rim" fill="#404040">
                        <set attributeName="fill" to="#808080" begin="arrowRight.mouseover" end="arrowRight.mouseout"/>
                  </use>
                  <path fill="none" stroke="white" stroke-width="1.5" d="M0,-3.0v7 M-2.5,-0.5L0,-3.0L2.5,-0.5"/>
                </g>
                <g id="arrowDown" xlink:href="#dirArrow" transform="rotate(180) translate(-30 -48)" onmousedown="handlePan(0,1)">
                  <use xlink:href="#rim" fill="#404040">
                        <set attributeName="fill" to="#808080" begin="arrowDown.mouseover" end="arrowDown.mouseout"/>
                  </use>
                  <path fill="none" stroke="white" stroke-width="1.5" d="M0,-3.0v7 M-2.5,-0.5L0,-3.0L2.5,-0.5"/>
                </g>
                <g id="arrowLeft" xlink:href="#dirArrow" transform="rotate(270) translate(-36 17)" onmousedown="handlePan(-1,0)">
                  <use xlink:href="#rim" fill="#404040">
                        <set attributeName="fill" to="#808080" begin="arrowLeft.mouseover" end="arrowLeft.mouseout"/>
                  </use>
                  <path fill="none" stroke="white" stroke-width="1.5" d="M0,-3.0v7 M-2.5,-0.5L0,-3.0L2.5,-0.5"/>
                </g>
        </g>
        <svg viewBox="0 0 15 15" width="100%" height="30px" preserveAspectRatio="xMaxYMin meet">
         <g id="arrow_out" transform="scale(0.3 0.3)">
          <a xlink:href="_virtual_time_8h__dep__incl_org.svg" target="_base">
           <rect id="button" ry="5" rx="5" y="6" x="6" height="38" width="38"
                fill="#f2f5e9" fill-opacity="0.5" stroke="#606060" stroke-width="1.0"/>
           <path id="arrow"
             d="M 11.500037,31.436501 C 11.940474,20.09759 22.043105,11.32322 32.158766,21.979434 L 37.068811,17.246167 C 37.068811,17.246167 37.088388,32 37.088388,32 L 22.160133,31.978069 C 22.160133,31.978069 26.997745,27.140456 26.997745,27.140456 C 18.528582,18.264221 13.291696,25.230495 11.500037,31.436501 z"
             style="fill:#404040;"/>
          </a>
         </g>
        </svg>
</svg>
