<?xml version="1.0" encoding="UTF-8" standalone="no"?>
<!DOCTYPE svg PUBLIC "-//W3C//DTD SVG 1.1//EN"
 "http://www.w3.org/Graphics/SVG/1.1/DTD/svg11.dtd">
<!-- Generated by graphviz version 2.43.0 (0)
 -->
<!-- Title: ChimeraTK::DummyBackendRegisterCatalogue::clone Pages: 1 -->
<svg width="451pt" height="50pt"
 viewBox="0.00 0.00 451.00 50.00" xmlns="http://www.w3.org/2000/svg" xmlns:xlink="http://www.w3.org/1999/xlink">
<g id="graph0" class="graph" transform="scale(1 1) rotate(0) translate(4 46)">
<title>ChimeraTK::DummyBackendRegisterCatalogue::clone</title>
<polygon fill="white" stroke="transparent" points="-4,4 -4,-46 447,-46 447,4 -4,4"/>
<!-- Node1 -->
<g id="node1" class="node">
<title>Node1</title>
<g id="a_node1"><a xlink:title="Create deep copy of the catalogue.">
<polygon fill="#bfbfbf" stroke="black" points="0,-6 0,-36 197,-36 197,-6 0,-6"/>
<text text-anchor="start" x="8" y="-24" font-family="Helvetica,sans-Serif" font-size="10.00">ChimeraTK::DummyBackendRegister</text>
<text text-anchor="middle" x="98.5" y="-13" font-family="Helvetica,sans-Serif" font-size="10.00">Catalogue::clone</text>
</a>
</g>
</g>
<!-- Node2 -->
<g id="node2" class="node">
<title>Node2</title>
<g id="a_node2"><a xlink:href="class_chimera_t_k_1_1_backend_register_catalogue.html#a30509122064e5bb25acf3b34625fb719" target="_top" xlink:title="Helper function for clone functions.">
<polygon fill="white" stroke="black" points="233,-0.5 233,-41.5 443,-41.5 443,-0.5 233,-0.5"/>
<text text-anchor="start" x="241" y="-29.5" font-family="Helvetica,sans-Serif" font-size="10.00">ChimeraTK::BackendRegister</text>
<text text-anchor="start" x="241" y="-18.5" font-family="Helvetica,sans-Serif" font-size="10.00">Catalogue&lt; NumericAddressedRegister</text>
<text text-anchor="middle" x="338" y="-7.5" font-family="Helvetica,sans-Serif" font-size="10.00">Info &gt;::fillFromThis</text>
</a>
</g>
</g>
<!-- Node1&#45;&gt;Node2 -->
<g id="edge1" class="edge">
<title>Node1&#45;&gt;Node2</title>
<path fill="none" stroke="midnightblue" d="M197.13,-21C205.59,-21 214.2,-21 222.77,-21"/>
<polygon fill="midnightblue" stroke="midnightblue" points="222.82,-24.5 232.82,-21 222.82,-17.5 222.82,-24.5"/>
</g>
</g>
</svg>
