<?xml version="1.0" encoding="UTF-8" standalone="no"?>
<!DOCTYPE svg PUBLIC "-//W3C//DTD SVG 1.1//EN"
 "http://www.w3.org/Graphics/SVG/1.1/DTD/svg11.dtd">
<!-- Generated by graphviz version 2.43.0 (0)
 -->
<!-- Title: ChimeraTK::async::AsyncVariableImpl&lt; UserType &gt; Pages: 1 -->
<svg width="1119pt" height="125pt"
 viewBox="0.00 0.00 1119.00 124.50" xmlns="http://www.w3.org/2000/svg" xmlns:xlink="http://www.w3.org/1999/xlink">
<g id="graph0" class="graph" transform="scale(1 1) rotate(0) translate(4 120.5)">
<title>ChimeraTK::async::AsyncVariableImpl&lt; UserType &gt;</title>
<polygon fill="white" stroke="transparent" points="-4,4 -4,-120.5 1115,-120.5 1115,4 -4,4"/>
<!-- Node1 -->
<g id="node1" class="node">
<title>Node1</title>
<g id="a_node1"><a xlink:title="AsyncVariableImpl contains a weak pointer to an AsyncNDRegisterAccessor&lt;UserType&gt; and a send buffer N...">
<polygon fill="#bfbfbf" stroke="black" points="217,-55.5 217,-85.5 397,-85.5 397,-55.5 217,-55.5"/>
<text text-anchor="start" x="225" y="-73.5" font-family="Helvetica,sans-Serif" font-size="10.00">ChimeraTK::async::AsyncVariable</text>
<text text-anchor="middle" x="307" y="-62.5" font-family="Helvetica,sans-Serif" font-size="10.00">Impl&lt; UserType &gt;</text>
</a>
</g>
</g>
<!-- Node3 -->
<g id="node3" class="node">
<title>Node3</title>
<g id="a_node3"><a xlink:href="class_chimera_t_k_1_1async_1_1_generic_async_variable.html" target="_top" xlink:title=" ">
<polygon fill="white" stroke="black" points="764,-75 764,-116 913,-116 913,-75 764,-75"/>
<text text-anchor="start" x="772" y="-104" font-family="Helvetica,sans-Serif" font-size="10.00">ChimeraTK::async::Generic</text>
<text text-anchor="start" x="772" y="-93" font-family="Helvetica,sans-Serif" font-size="10.00">AsyncVariable&lt; std::nullptr</text>
<text text-anchor="middle" x="838.5" y="-82" font-family="Helvetica,sans-Serif" font-size="10.00">_t, UserType &gt;</text>
</a>
</g>
</g>
<!-- Node1&#45;&gt;Node3 -->
<g id="edge2" class="edge">
<title>Node1&#45;&gt;Node3</title>
<path fill="none" stroke="midnightblue" d="M369.7,-88C390.01,-93.01 412.81,-97.83 434,-100.5 548.51,-114.95 682.75,-108.73 763.9,-102.46"/>
<polygon fill="midnightblue" stroke="midnightblue" points="370.5,-84.6 359.95,-85.54 368.79,-91.38 370.5,-84.6"/>
</g>
<!-- Node5 -->
<g id="node5" class="node">
<title>Node5</title>
<g id="a_node5"><a xlink:href="class_chimera_t_k_1_1async_1_1_generic_async_variable.html" target="_top" xlink:title=" ">
<polygon fill="white" stroke="black" points="434,-50 434,-91 589,-91 589,-50 434,-50"/>
<text text-anchor="start" x="442" y="-79" font-family="Helvetica,sans-Serif" font-size="10.00">ChimeraTK::async::Generic</text>
<text text-anchor="start" x="442" y="-68" font-family="Helvetica,sans-Serif" font-size="10.00">AsyncVariable&lt; SourceType,</text>
<text text-anchor="middle" x="511.5" y="-57" font-family="Helvetica,sans-Serif" font-size="10.00"> UserType &gt;</text>
</a>
</g>
</g>
<!-- Node1&#45;&gt;Node5 -->
<g id="edge4" class="edge">
<title>Node1&#45;&gt;Node5</title>
<path fill="none" stroke="midnightblue" d="M407.16,-70.5C416.08,-70.5 425.03,-70.5 433.72,-70.5"/>
<polygon fill="midnightblue" stroke="midnightblue" points="407.11,-67 397.11,-70.5 407.11,-74 407.11,-67"/>
</g>
<!-- Node6 -->
<g id="node6" class="node">
<title>Node6</title>
<g id="a_node6"><a xlink:href="struct_chimera_t_k_1_1async_1_1_polled_async_variable.html" target="_top" xlink:title="Implementation of the PolledAsyncVariable for the concrete UserType.">
<polygon fill="white" stroke="black" points="435,-0.5 435,-30.5 588,-30.5 588,-0.5 435,-0.5"/>
<text text-anchor="start" x="443" y="-18.5" font-family="Helvetica,sans-Serif" font-size="10.00">ChimeraTK::async::Polled</text>
<text text-anchor="middle" x="511.5" y="-7.5" font-family="Helvetica,sans-Serif" font-size="10.00">AsyncVariable&lt; UserType &gt;</text>
</a>
</g>
</g>
<!-- Node1&#45;&gt;Node6 -->
<g id="edge6" class="edge">
<title>Node1&#45;&gt;Node6</title>
<path fill="none" stroke="midnightblue" d="M373.26,-52.77C399.7,-45.59 429.91,-37.39 455.23,-30.51"/>
<polygon fill="midnightblue" stroke="midnightblue" points="372.07,-49.47 363.33,-55.47 373.9,-56.23 372.07,-49.47"/>
</g>
<!-- Node2 -->
<g id="node2" class="node">
<title>Node2</title>
<g id="a_node2"><a xlink:href="struct_chimera_t_k_1_1async_1_1_async_variable.html" target="_top" xlink:title="Typeless base class.">
<polygon fill="white" stroke="black" points="0,-61 0,-80 180,-80 180,-61 0,-61"/>
<text text-anchor="middle" x="90" y="-68" font-family="Helvetica,sans-Serif" font-size="10.00">ChimeraTK::async::AsyncVariable</text>
</a>
</g>
</g>
<!-- Node2&#45;&gt;Node1 -->
<g id="edge1" class="edge">
<title>Node2&#45;&gt;Node1</title>
<path fill="none" stroke="midnightblue" d="M190.01,-70.5C198.92,-70.5 207.9,-70.5 216.72,-70.5"/>
<polygon fill="midnightblue" stroke="midnightblue" points="190,-67 180,-70.5 190,-74 190,-67"/>
</g>
<!-- Node4 -->
<g id="node4" class="node">
<title>Node4</title>
<g id="a_node4"><a xlink:href="class_chimera_t_k_1_1async_1_1_void_async_variable.html" target="_top" xlink:title=" ">
<polygon fill="white" stroke="black" points="950,-80.5 950,-110.5 1111,-110.5 1111,-80.5 950,-80.5"/>
<text text-anchor="start" x="958" y="-98.5" font-family="Helvetica,sans-Serif" font-size="10.00">ChimeraTK::async::VoidAsync</text>
<text text-anchor="middle" x="1030.5" y="-87.5" font-family="Helvetica,sans-Serif" font-size="10.00">Variable&lt; UserType &gt;</text>
</a>
</g>
</g>
<!-- Node3&#45;&gt;Node4 -->
<g id="edge3" class="edge">
<title>Node3&#45;&gt;Node4</title>
<path fill="none" stroke="midnightblue" d="M923.45,-95.5C932.22,-95.5 941.11,-95.5 949.83,-95.5"/>
<polygon fill="midnightblue" stroke="midnightblue" points="923.23,-92 913.23,-95.5 923.23,-99 923.23,-92"/>
</g>
<!-- Node5&#45;&gt;Node3 -->
<g id="edge5" class="edge">
<title>Node5&#45;&gt;Node3</title>
<path fill="none" stroke="orange" stroke-dasharray="5,2" d="M599.2,-77.17C650.6,-81.12 715.02,-86.08 763.92,-89.84"/>
<polygon fill="orange" stroke="orange" points="599.35,-73.67 589.11,-76.39 598.81,-80.65 599.35,-73.67"/>
<text text-anchor="middle" x="676.5" y="-91.5" font-family="Helvetica,sans-Serif" font-size="10.00"> &lt; std::nullptr_t, UserType &gt;</text>
</g>
</g>
</svg>
