<?xml version="1.0" encoding="UTF-8" standalone="no"?>
<!DOCTYPE svg PUBLIC "-//W3C//DTD SVG 1.1//EN"
 "http://www.w3.org/Graphics/SVG/1.1/DTD/svg11.dtd">
<!-- Generated by graphviz version 2.40.1 (20161225.0304)
 -->
<!-- Title: tests/include/ChimeraTK/ControlSystemAdapter/Testing/CountingProcessVariableListener.h Pages: 1 -->
<svg width="910pt" height="128pt"
 viewBox="0.00 0.00 909.50 128.00" xmlns="http://www.w3.org/2000/svg" xmlns:xlink="http://www.w3.org/1999/xlink">
<g id="graph0" class="graph" transform="scale(1 1) rotate(0) translate(4 124)">
<title>tests/include/ChimeraTK/ControlSystemAdapter/Testing/CountingProcessVariableListener.h</title>
<polygon fill="#ffffff" stroke="transparent" points="-4,4 -4,-124 905.5,-124 905.5,4 -4,4"/>
<!-- Node5 -->
<g id="node1" class="node">
<title>Node5</title>
<polygon fill="#bfbfbf" stroke="#000000" points="336.5,-67.5 336.5,-119.5 514.5,-119.5 514.5,-67.5 336.5,-67.5"/>
<text text-anchor="start" x="344.5" y="-107.5" font-family="Helvetica,sans-Serif" font-size="10.00" fill="#000000">tests/include/ChimeraTK</text>
<text text-anchor="start" x="344.5" y="-96.5" font-family="Helvetica,sans-Serif" font-size="10.00" fill="#000000">/ControlSystemAdapter</text>
<text text-anchor="start" x="344.5" y="-85.5" font-family="Helvetica,sans-Serif" font-size="10.00" fill="#000000">/Testing/CountingProcessVariable</text>
<text text-anchor="middle" x="425.5" y="-74.5" font-family="Helvetica,sans-Serif" font-size="10.00" fill="#000000">Listener.h</text>
</g>
<!-- Node6 -->
<g id="node2" class="node">
<title>Node6</title>
<g id="a_node2"><a xlink:href="test_bidirectional_process_array_8cpp.html" target="_top" xlink:title="tests/src/testBidirectional\lProcessArray.cpp">
<polygon fill="#ffffff" stroke="#000000" points="0,-.5 0,-30.5 141,-30.5 141,-.5 0,-.5"/>
<text text-anchor="start" x="8" y="-18.5" font-family="Helvetica,sans-Serif" font-size="10.00" fill="#000000">tests/src/testBidirectional</text>
<text text-anchor="middle" x="70.5" y="-7.5" font-family="Helvetica,sans-Serif" font-size="10.00" fill="#000000">ProcessArray.cpp</text>
</a>
</g>
</g>
<!-- Node5&#45;&gt;Node6 -->
<g id="edge1" class="edge">
<title>Node5&#45;&gt;Node6</title>
<path fill="none" stroke="#191970" d="M326.5431,-71.7574C266.7975,-58.6301 192.1806,-42.2355 138.9394,-30.5374"/>
<polygon fill="#191970" stroke="#191970" points="325.8586,-75.1904 336.3767,-73.918 327.3608,-68.3535 325.8586,-75.1904"/>
</g>
<!-- Node7 -->
<g id="node3" class="node">
<title>Node7</title>
<g id="a_node3"><a xlink:href="test_control_system_synchronization_utility_8cpp.html" target="_top" xlink:title="tests/src/testControlSystem\lSynchronizationUtility.cpp">
<polygon fill="#ffffff" stroke="#000000" points="159.5,-.5 159.5,-30.5 311.5,-30.5 311.5,-.5 159.5,-.5"/>
<text text-anchor="start" x="167.5" y="-18.5" font-family="Helvetica,sans-Serif" font-size="10.00" fill="#000000">tests/src/testControlSystem</text>
<text text-anchor="middle" x="235.5" y="-7.5" font-family="Helvetica,sans-Serif" font-size="10.00" fill="#000000">SynchronizationUtility.cpp</text>
</a>
</g>
</g>
<!-- Node5&#45;&gt;Node7 -->
<g id="edge2" class="edge">
<title>Node5&#45;&gt;Node7</title>
<path fill="none" stroke="#191970" d="M352.3735,-63.4796C324.8963,-52.1995 294.8376,-39.8596 272.0851,-30.5192"/>
<polygon fill="#191970" stroke="#191970" points="351.3886,-66.8587 361.9686,-67.4187 354.047,-60.3831 351.3886,-66.8587"/>
</g>
<!-- Node8 -->
<g id="node4" class="node">
<title>Node8</title>
<g id="a_node4"><a xlink:href="test_device_synchronization_utility_8cpp.html" target="_top" xlink:title="tests/src/testDeviceSynchronization\lUtility.cpp">
<polygon fill="#ffffff" stroke="#000000" points="330,-.5 330,-30.5 521,-30.5 521,-.5 330,-.5"/>
<text text-anchor="start" x="338" y="-18.5" font-family="Helvetica,sans-Serif" font-size="10.00" fill="#000000">tests/src/testDeviceSynchronization</text>
<text text-anchor="middle" x="425.5" y="-7.5" font-family="Helvetica,sans-Serif" font-size="10.00" fill="#000000">Utility.cpp</text>
</a>
</g>
</g>
<!-- Node5&#45;&gt;Node8 -->
<g id="edge3" class="edge">
<title>Node5&#45;&gt;Node8</title>
<path fill="none" stroke="#191970" d="M425.5,-57.0863C425.5,-47.6965 425.5,-38.1059 425.5,-30.5046"/>
<polygon fill="#191970" stroke="#191970" points="422.0001,-57.0927 425.5,-67.0928 429.0001,-57.0928 422.0001,-57.0927"/>
</g>
<!-- Node9 -->
<g id="node5" class="node">
<title>Node9</title>
<g id="a_node5"><a xlink:href="test_unidirectional_process_array_8cpp.html" target="_top" xlink:title="tests/src/testUnidirectional\lProcessArray.cpp">
<polygon fill="#ffffff" stroke="#000000" points="539.5,-.5 539.5,-30.5 687.5,-30.5 687.5,-.5 539.5,-.5"/>
<text text-anchor="start" x="547.5" y="-18.5" font-family="Helvetica,sans-Serif" font-size="10.00" fill="#000000">tests/src/testUnidirectional</text>
<text text-anchor="middle" x="613.5" y="-7.5" font-family="Helvetica,sans-Serif" font-size="10.00" fill="#000000">ProcessArray.cpp</text>
</a>
</g>
</g>
<!-- Node5&#45;&gt;Node9 -->
<g id="edge4" class="edge">
<title>Node5&#45;&gt;Node9</title>
<path fill="none" stroke="#191970" d="M497.8568,-63.4796C525.0447,-52.1995 554.787,-39.8596 577.3,-30.5192"/>
<polygon fill="#191970" stroke="#191970" points="496.2579,-60.3536 488.3627,-67.4187 498.9405,-66.8192 496.2579,-60.3536"/>
</g>
<!-- Node10 -->
<g id="node6" class="node">
<title>Node10</title>
<g id="a_node6"><a xlink:href="test_unidirectional_process_array_no_wait_for_new_data_8cpp.html" target="_top" xlink:title="tests/src/testUnidirectional\lProcessArrayNoWaitForNewData.cpp">
<polygon fill="#ffffff" stroke="#000000" points="705.5,-.5 705.5,-30.5 901.5,-30.5 901.5,-.5 705.5,-.5"/>
<text text-anchor="start" x="713.5" y="-18.5" font-family="Helvetica,sans-Serif" font-size="10.00" fill="#000000">tests/src/testUnidirectional</text>
<text text-anchor="middle" x="803.5" y="-7.5" font-family="Helvetica,sans-Serif" font-size="10.00" fill="#000000">ProcessArrayNoWaitForNewData.cpp</text>
</a>
</g>
</g>
<!-- Node5&#45;&gt;Node10 -->
<g id="edge5" class="edge">
<title>Node5&#45;&gt;Node10</title>
<path fill="none" stroke="#191970" d="M524.3983,-73.0924C588.9869,-59.7646 671.9026,-42.655 730.5264,-30.558"/>
<polygon fill="#191970" stroke="#191970" points="523.6884,-69.6651 514.6021,-75.1139 525.1031,-76.5206 523.6884,-69.6651"/>
</g>
</g>
</svg>
