<?xml version="1.0" encoding="UTF-8" standalone="no"?>
<!DOCTYPE svg PUBLIC "-//W3C//DTD SVG 1.1//EN"
 "http://www.w3.org/Graphics/SVG/1.1/DTD/svg11.dtd">
<!-- Generated by graphviz version 2.43.0 (0)
 -->
<!-- Title: ChimeraTK::csa_helpers::T_ToString Pages: 1 -->
<svg width="376pt" height="110pt"
 viewBox="0.00 0.00 376.00 110.00" xmlns="http://www.w3.org/2000/svg" xmlns:xlink="http://www.w3.org/1999/xlink">
<g id="graph0" class="graph" transform="scale(1 1) rotate(0) translate(4 106)">
<title>ChimeraTK::csa_helpers::T_ToString</title>
<polygon fill="white" stroke="transparent" points="-4,4 -4,-106 372,-106 372,4 -4,4"/>
<!-- Node1 -->
<g id="node1" class="node">
<title>Node1</title>
<g id="a_node1"><a xlink:title=" ">
<polygon fill="#bfbfbf" stroke="black" points="234,-36 234,-66 368,-66 368,-36 234,-36"/>
<text text-anchor="start" x="242" y="-54" font-family="Helvetica,sans-Serif" font-size="10.00">ChimeraTK::csa_helpers</text>
<text text-anchor="middle" x="301" y="-43" font-family="Helvetica,sans-Serif" font-size="10.00">::T_ToString</text>
</a>
</g>
</g>
<!-- Node2 -->
<g id="node2" class="node">
<title>Node2</title>
<g id="a_node2"><a xlink:href="class_chimera_t_k_1_1_type_changing_string_impl_decorator_3_01std_1_1string_00_01_i_m_p_l___t_01_4.html#a5bfc9d3536857e3a920d68520b14a601" target="_top" xlink:title=" ">
<polygon fill="white" stroke="black" points="0,-60.5 0,-101.5 198,-101.5 198,-60.5 0,-60.5"/>
<text text-anchor="start" x="8" y="-89.5" font-family="Helvetica,sans-Serif" font-size="10.00">ChimeraTK::TypeChangingString</text>
<text text-anchor="start" x="8" y="-78.5" font-family="Helvetica,sans-Serif" font-size="10.00">ImplDecorator&lt; std::string,</text>
<text text-anchor="middle" x="99" y="-67.5" font-family="Helvetica,sans-Serif" font-size="10.00"> IMPL_T &gt;::convertAndCopyFromImpl</text>
</a>
</g>
</g>
<!-- Node1&#45;&gt;Node2 -->
<g id="edge1" class="edge">
<title>Node1&#45;&gt;Node2</title>
<path fill="none" stroke="midnightblue" d="M223.84,-62.42C215.43,-63.69 206.79,-64.98 198.16,-66.28"/>
<polygon fill="midnightblue" stroke="midnightblue" points="224.59,-65.85 233.96,-60.91 223.55,-58.93 224.59,-65.85"/>
</g>
<!-- Node3 -->
<g id="node3" class="node">
<title>Node3</title>
<g id="a_node3"><a xlink:href="class_chimera_t_k_1_1_type_changing_string_impl_decorator_3_01_t_00_01std_1_1string_01_4.html#a6d74e7f1b709cd2c7ce45e6052b2cea9" target="_top" xlink:title=" ">
<polygon fill="white" stroke="black" points="12.5,-0.5 12.5,-41.5 185.5,-41.5 185.5,-0.5 12.5,-0.5"/>
<text text-anchor="start" x="20.5" y="-29.5" font-family="Helvetica,sans-Serif" font-size="10.00">ChimeraTK::TypeChangingString</text>
<text text-anchor="start" x="20.5" y="-18.5" font-family="Helvetica,sans-Serif" font-size="10.00">ImplDecorator&lt; T, std::string</text>
<text text-anchor="middle" x="99" y="-7.5" font-family="Helvetica,sans-Serif" font-size="10.00"> &gt;::convertAndCopyToImpl</text>
</a>
</g>
</g>
<!-- Node1&#45;&gt;Node3 -->
<g id="edge2" class="edge">
<title>Node1&#45;&gt;Node3</title>
<path fill="none" stroke="midnightblue" d="M224.02,-39.6C211.46,-37.72 198.36,-35.75 185.59,-33.84"/>
<polygon fill="midnightblue" stroke="midnightblue" points="223.55,-43.07 233.96,-41.09 224.59,-36.15 223.55,-43.07"/>
</g>
</g>
</svg>
