<?xml version="1.0" encoding="UTF-8" standalone="no"?>
<!DOCTYPE svg PUBLIC "-//W3C//DTD SVG 1.1//EN"
 "http://www.w3.org/Graphics/SVG/1.1/DTD/svg11.dtd">
<!-- Generated by graphviz version 2.43.0 (0)
 -->
<!-- Title: mtca4u::MotorControlerImpl::isMotorMoving Pages: 1 -->
<svg width="376pt" height="333pt"
 viewBox="0.00 0.00 376.00 333.00" xmlns="http://www.w3.org/2000/svg" xmlns:xlink="http://www.w3.org/1999/xlink">
<g id="graph0" class="graph" transform="scale(1 1) rotate(0) translate(4 329)">
<title>mtca4u::MotorControlerImpl::isMotorMoving</title>
<polygon fill="white" stroke="transparent" points="-4,4 -4,-329 372,-329 372,4 -4,4"/>
<!-- Node1 -->
<g id="node1" class="node">
<title>Node1</title>
<g id="a_node1"><a xlink:title="Returns True if the motor is in motion or False if at standstill.">
<polygon fill="#bfbfbf" stroke="black" points="0,-147.5 0,-177.5 155,-177.5 155,-147.5 0,-147.5"/>
<text text-anchor="start" x="8" y="-165.5" font-family="Helvetica,sans-Serif" font-size="10.00">mtca4u::MotorControlerImpl</text>
<text text-anchor="middle" x="77.5" y="-154.5" font-family="Helvetica,sans-Serif" font-size="10.00">::isMotorMoving</text>
</a>
</g>
</g>
<!-- Node2 -->
<g id="node2" class="node">
<title>Node2</title>
<g id="a_node2"><a xlink:href="classmtca4u_1_1_interrupt_data.html#a395c991a8eb2aba107495946867d2823" target="_top" xlink:title=" ">
<polygon fill="white" stroke="black" points="217,-294.5 217,-324.5 342,-324.5 342,-294.5 217,-294.5"/>
<text text-anchor="start" x="225" y="-312.5" font-family="Helvetica,sans-Serif" font-size="10.00">mtca4u::InterruptData</text>
<text text-anchor="middle" x="279.5" y="-301.5" font-family="Helvetica,sans-Serif" font-size="10.00">::getINT_POS_END</text>
</a>
</g>
</g>
<!-- Node1&#45;&gt;Node2 -->
<g id="edge1" class="edge">
<title>Node1&#45;&gt;Node2</title>
<path fill="none" stroke="midnightblue" d="M88,-177.5C105.26,-203.52 144.34,-256.97 191,-285.5 196.08,-288.61 201.57,-291.32 207.23,-293.68"/>
<polygon fill="midnightblue" stroke="midnightblue" points="206.3,-297.07 216.89,-297.35 208.78,-290.53 206.3,-297.07"/>
</g>
<!-- Node3 -->
<g id="node3" class="node">
<title>Node3</title>
<g id="a_node3"><a xlink:href="classmtca4u_1_1_interrupt_data.html#aaab4032ed7f01685a5502500b4d2bd48" target="_top" xlink:title=" ">
<polygon fill="white" stroke="black" points="217,-245.5 217,-275.5 342,-275.5 342,-245.5 217,-245.5"/>
<text text-anchor="start" x="225" y="-263.5" font-family="Helvetica,sans-Serif" font-size="10.00">mtca4u::InterruptData</text>
<text text-anchor="middle" x="279.5" y="-252.5" font-family="Helvetica,sans-Serif" font-size="10.00">::getINT_STOP</text>
</a>
</g>
</g>
<!-- Node1&#45;&gt;Node3 -->
<g id="edge2" class="edge">
<title>Node1&#45;&gt;Node3</title>
<path fill="none" stroke="midnightblue" d="M97.33,-177.58C118.84,-194.14 155.64,-220.51 191,-236.5 196.24,-238.87 201.77,-241.05 207.39,-243.05"/>
<polygon fill="midnightblue" stroke="midnightblue" points="206.32,-246.38 216.91,-246.25 208.54,-239.75 206.32,-246.38"/>
</g>
<!-- Node4 -->
<g id="node4" class="node">
<title>Node4</title>
<g id="a_node4"><a xlink:href="classmtca4u_1_1_motor_reference_switch_data.html#a2955a2d96552215b150e2c9450f36489" target="_top" xlink:title="The switch which is reached when moving in negative direction.">
<polygon fill="white" stroke="black" points="194.5,-196.5 194.5,-226.5 364.5,-226.5 364.5,-196.5 194.5,-196.5"/>
<text text-anchor="start" x="202.5" y="-214.5" font-family="Helvetica,sans-Serif" font-size="10.00">mtca4u::MotorReferenceSwitch</text>
<text text-anchor="middle" x="279.5" y="-203.5" font-family="Helvetica,sans-Serif" font-size="10.00">Data::getNegativeSwitchActive</text>
</a>
</g>
</g>
<!-- Node1&#45;&gt;Node4 -->
<g id="edge3" class="edge">
<title>Node1&#45;&gt;Node4</title>
<path fill="none" stroke="midnightblue" d="M139.87,-177.53C161.17,-182.76 185.25,-188.65 207.29,-194.05"/>
<polygon fill="midnightblue" stroke="midnightblue" points="206.7,-197.51 217.25,-196.49 208.37,-190.71 206.7,-197.51"/>
</g>
<!-- Node5 -->
<g id="node5" class="node">
<title>Node5</title>
<g id="a_node5"><a xlink:href="classmtca4u_1_1_motor_reference_switch_data.html#aa34b44713bb3a4cfd770bbdbde5a561b" target="_top" xlink:title="The switch which is reached when moving in negative direction.">
<polygon fill="white" stroke="black" points="191,-147.5 191,-177.5 368,-177.5 368,-147.5 191,-147.5"/>
<text text-anchor="start" x="199" y="-165.5" font-family="Helvetica,sans-Serif" font-size="10.00">mtca4u::MotorReferenceSwitch</text>
<text text-anchor="middle" x="279.5" y="-154.5" font-family="Helvetica,sans-Serif" font-size="10.00">Data::getNegativeSwitchEnabled</text>
</a>
</g>
</g>
<!-- Node1&#45;&gt;Node5 -->
<g id="edge4" class="edge">
<title>Node1&#45;&gt;Node5</title>
<path fill="none" stroke="midnightblue" d="M155.25,-162.5C163.65,-162.5 172.27,-162.5 180.87,-162.5"/>
<polygon fill="midnightblue" stroke="midnightblue" points="180.94,-166 190.94,-162.5 180.94,-159 180.94,-166"/>
</g>
<!-- Node6 -->
<g id="node6" class="node">
<title>Node6</title>
<g id="a_node6"><a xlink:href="classmtca4u_1_1_motor_reference_switch_data.html#a821eb099022740effa5764ec30c1bdb8" target="_top" xlink:title="The switch which is reached when moving in positive direction.">
<polygon fill="white" stroke="black" points="194.5,-98.5 194.5,-128.5 364.5,-128.5 364.5,-98.5 194.5,-98.5"/>
<text text-anchor="start" x="202.5" y="-116.5" font-family="Helvetica,sans-Serif" font-size="10.00">mtca4u::MotorReferenceSwitch</text>
<text text-anchor="middle" x="279.5" y="-105.5" font-family="Helvetica,sans-Serif" font-size="10.00">Data::getPositiveSwitchActive</text>
</a>
</g>
</g>
<!-- Node1&#45;&gt;Node6 -->
<g id="edge5" class="edge">
<title>Node1&#45;&gt;Node6</title>
<path fill="none" stroke="midnightblue" d="M139.87,-147.47C161.17,-142.24 185.25,-136.35 207.29,-130.95"/>
<polygon fill="midnightblue" stroke="midnightblue" points="208.37,-134.29 217.25,-128.51 206.7,-127.49 208.37,-134.29"/>
</g>
<!-- Node7 -->
<g id="node7" class="node">
<title>Node7</title>
<g id="a_node7"><a xlink:href="classmtca4u_1_1_motor_reference_switch_data.html#afd6ea94316068bce017283d5483dcdf2" target="_top" xlink:title="The switch which is reached when moving in positive direction.">
<polygon fill="white" stroke="black" points="193.5,-49.5 193.5,-79.5 365.5,-79.5 365.5,-49.5 193.5,-49.5"/>
<text text-anchor="start" x="201.5" y="-67.5" font-family="Helvetica,sans-Serif" font-size="10.00">mtca4u::MotorReferenceSwitch</text>
<text text-anchor="middle" x="279.5" y="-56.5" font-family="Helvetica,sans-Serif" font-size="10.00">Data::getPositiveSwitchEnabled</text>
</a>
</g>
</g>
<!-- Node1&#45;&gt;Node7 -->
<g id="edge6" class="edge">
<title>Node1&#45;&gt;Node7</title>
<path fill="none" stroke="midnightblue" d="M97.78,-147.42C119.41,-131.14 156.03,-105.41 191,-89.5 196.25,-87.11 201.78,-84.9 207.41,-82.85"/>
<polygon fill="midnightblue" stroke="midnightblue" points="208.62,-86.14 216.94,-79.57 206.35,-79.52 208.62,-86.14"/>
</g>
<!-- Node8 -->
<g id="node8" class="node">
<title>Node8</title>
<g id="a_node8"><a xlink:href="classmtca4u_1_1_driver_status_data.html#a3e9540d196b2691101c52e957a3745d5" target="_top" xlink:title=" ">
<polygon fill="white" stroke="black" points="208,-0.5 208,-30.5 351,-30.5 351,-0.5 208,-0.5"/>
<text text-anchor="start" x="216" y="-18.5" font-family="Helvetica,sans-Serif" font-size="10.00">mtca4u::DriverStatusData</text>
<text text-anchor="middle" x="279.5" y="-7.5" font-family="Helvetica,sans-Serif" font-size="10.00">::getStandstillIndicator</text>
</a>
</g>
</g>
<!-- Node1&#45;&gt;Node8 -->
<g id="edge7" class="edge">
<title>Node1&#45;&gt;Node8</title>
<path fill="none" stroke="midnightblue" d="M88.33,-147.26C105.83,-121.39 144.88,-68.91 191,-40.5 194.38,-38.42 197.95,-36.5 201.62,-34.74"/>
<polygon fill="midnightblue" stroke="midnightblue" points="203.18,-37.88 210.95,-30.67 200.39,-31.46 203.18,-37.88"/>
</g>
</g>
</svg>
