<?xml version="1.0" encoding="UTF-8" standalone="no"?>
<!DOCTYPE svg PUBLIC "-//W3C//DTD SVG 1.1//EN"
 "http://www.w3.org/Graphics/SVG/1.1/DTD/svg11.dtd">
<!-- Generated by graphviz version 2.40.1 (20161225.0304)
 -->
<!-- Title: ChimeraTK::BackendFactory::loadPluginLibrary Pages: 1 -->
<svg width="920pt" height="123pt"
 viewBox="0.00 0.00 920.00 123.00" xmlns="http://www.w3.org/2000/svg" xmlns:xlink="http://www.w3.org/1999/xlink">
<g id="graph0" class="graph" transform="scale(1 1) rotate(0) translate(4 119)">
<title>ChimeraTK::BackendFactory::loadPluginLibrary</title>
<polygon fill="#ffffff" stroke="transparent" points="-4,4 -4,-119 916,-119 916,4 -4,4"/>
<!-- Node137 -->
<g id="node1" class="node">
<title>Node137</title>
<polygon fill="#bfbfbf" stroke="#000000" points="0,-52 0,-82 154,-82 154,-52 0,-52"/>
<text text-anchor="start" x="8" y="-70" font-family="Helvetica,sans-Serif" font-size="10.00" fill="#000000">ChimeraTK::BackendFactory</text>
<text text-anchor="middle" x="77" y="-59" font-family="Helvetica,sans-Serif" font-size="10.00" fill="#000000">::loadPluginLibrary</text>
</g>
<!-- Node138 -->
<g id="node2" class="node">
<title>Node138</title>
<g id="a_node2"><a xlink:href="class_chimera_t_k_1_1_backend_factory.html#afb11ba2d5dbe02a49f8e99ff9e84ae54" target="_top" xlink:title="Load all shared libraries specified in the dmap file. ">
<polygon fill="#ffffff" stroke="#000000" points="190,-52 190,-82 350,-82 350,-52 190,-52"/>
<text text-anchor="start" x="198" y="-70" font-family="Helvetica,sans-Serif" font-size="10.00" fill="#000000">ChimeraTK::BackendFactory</text>
<text text-anchor="middle" x="270" y="-59" font-family="Helvetica,sans-Serif" font-size="10.00" fill="#000000">::loadAllPluginsFromDMapFile</text>
</a>
</g>
</g>
<!-- Node137&#45;&gt;Node138 -->
<g id="edge1" class="edge">
<title>Node137&#45;&gt;Node138</title>
<path fill="none" stroke="#191970" d="M164.1116,-67C172.6838,-67 181.3558,-67 189.8535,-67"/>
<polygon fill="#191970" stroke="#191970" points="164.1108,-63.5001 154.1108,-67 164.1107,-70.5001 164.1108,-63.5001"/>
</g>
<!-- Node139 -->
<g id="node3" class="node">
<title>Node139</title>
<g id="a_node3"><a xlink:href="class_chimera_t_k_1_1_backend_factory.html#a7348fb0d34d8737df3fa4f396fc5163d" target="_top" xlink:title="This function sets the _DMapFilePath. ">
<polygon fill="#ffffff" stroke="#000000" points="386,-52 386,-82 540,-82 540,-52 386,-52"/>
<text text-anchor="start" x="394" y="-70" font-family="Helvetica,sans-Serif" font-size="10.00" fill="#000000">ChimeraTK::BackendFactory</text>
<text text-anchor="middle" x="463" y="-59" font-family="Helvetica,sans-Serif" font-size="10.00" fill="#000000">::setDMapFilePath</text>
</a>
</g>
</g>
<!-- Node138&#45;&gt;Node139 -->
<g id="edge2" class="edge">
<title>Node138&#45;&gt;Node139</title>
<path fill="none" stroke="#191970" d="M360.1979,-67C368.778,-67 377.4247,-67 385.8654,-67"/>
<polygon fill="#191970" stroke="#191970" points="360.1727,-63.5001 350.1727,-67 360.1726,-70.5001 360.1727,-63.5001"/>
</g>
<!-- Node140 -->
<g id="node4" class="node">
<title>Node140</title>
<g id="a_node4"><a xlink:href="test_device_8cpp.html#ab83892089340958763d777921ead7687" target="_top" xlink:title="BOOST_AUTO_TEST_CASE">
<polygon fill="#ffffff" stroke="#000000" points="583,-95.5 583,-114.5 726,-114.5 726,-95.5 583,-95.5"/>
<text text-anchor="middle" x="654.5" y="-102.5" font-family="Helvetica,sans-Serif" font-size="10.00" fill="#000000">BOOST_AUTO_TEST_CASE</text>
</a>
</g>
</g>
<!-- Node139&#45;&gt;Node140 -->
<g id="edge3" class="edge">
<title>Node139&#45;&gt;Node140</title>
<path fill="none" stroke="#191970" d="M548.6969,-84.0051C568.5803,-87.9507 589.0483,-92.0122 606.6203,-95.4991"/>
<polygon fill="#191970" stroke="#191970" points="549.1759,-80.532 538.6859,-82.0186 547.8134,-87.3981 549.1759,-80.532"/>
</g>
<!-- Node141 -->
<g id="node5" class="node">
<title>Node141</title>
<g id="a_node5"><a xlink:href="test_rebot_backend_8cpp.html#a19823c5af9fff4070c144dacf022bf94" target="_top" xlink:title="init_unit_test">
<polygon fill="#ffffff" stroke="#000000" points="614.5,-57.5 614.5,-76.5 694.5,-76.5 694.5,-57.5 614.5,-57.5"/>
<text text-anchor="middle" x="654.5" y="-64.5" font-family="Helvetica,sans-Serif" font-size="10.00" fill="#000000">init_unit_test</text>
</a>
</g>
</g>
<!-- Node139&#45;&gt;Node141 -->
<g id="edge4" class="edge">
<title>Node139&#45;&gt;Node141</title>
<path fill="none" stroke="#191970" d="M550.2874,-67C572.6752,-67 595.685,-67 614.3695,-67"/>
<polygon fill="#191970" stroke="#191970" points="550.0626,-63.5001 540.0626,-67 550.0626,-70.5001 550.0626,-63.5001"/>
</g>
<!-- Node142 -->
<g id="node6" class="node">
<title>Node142</title>
<g id="a_node6"><a xlink:href="namespace_chimera_t_k.html#ac081e51ebc9ef4fe64b469290d39b7a2" target="_top" xlink:title="Set the location of the dmap file. ">
<polygon fill="#ffffff" stroke="#000000" points="576,-19.5 576,-38.5 733,-38.5 733,-19.5 576,-19.5"/>
<text text-anchor="middle" x="654.5" y="-26.5" font-family="Helvetica,sans-Serif" font-size="10.00" fill="#000000">ChimeraTK::setDMapFilePath</text>
</a>
</g>
</g>
<!-- Node139&#45;&gt;Node142 -->
<g id="edge5" class="edge">
<title>Node139&#45;&gt;Node142</title>
<path fill="none" stroke="#191970" d="M548.6969,-49.9949C568.5803,-46.0493 589.0483,-41.9878 606.6203,-38.5009"/>
<polygon fill="#191970" stroke="#191970" points="547.8134,-46.6019 538.6859,-51.9814 549.1759,-53.468 547.8134,-46.6019"/>
</g>
<!-- Node143 -->
<g id="node7" class="node">
<title>Node143</title>
<g id="a_node7"><a xlink:href="accessor1_d_8cpp.html#ae66f6b31b5ad750f1fe042a706a4e3d4" target="_top" xlink:title="main">
<polygon fill="#ffffff" stroke="#000000" points="820,-38.5 820,-57.5 861,-57.5 861,-38.5 820,-38.5"/>
<text text-anchor="middle" x="840.5" y="-45.5" font-family="Helvetica,sans-Serif" font-size="10.00" fill="#000000">main</text>
</a>
</g>
</g>
<!-- Node142&#45;&gt;Node143 -->
<g id="edge6" class="edge">
<title>Node142&#45;&gt;Node143</title>
<path fill="none" stroke="#191970" d="M743.2084,-38.0616C771.8696,-40.9894 801.0756,-43.9728 819.9064,-45.8964"/>
<polygon fill="#191970" stroke="#191970" points="743.4151,-34.5646 733.1111,-37.0302 742.7037,-41.5284 743.4151,-34.5646"/>
</g>
<!-- Node144 -->
<g id="node8" class="node">
<title>Node144</title>
<g id="a_node8"><a xlink:href="test_backend_factory_8cpp.html#a9f15aa63cc160538eda9419543a94d60" target="_top" xlink:title="BOOST_AUTO_TEST_CASE">
<polygon fill="#ffffff" stroke="#000000" points="769,-.5 769,-19.5 912,-19.5 912,-.5 769,-.5"/>
<text text-anchor="middle" x="840.5" y="-7.5" font-family="Helvetica,sans-Serif" font-size="10.00" fill="#000000">BOOST_AUTO_TEST_CASE</text>
</a>
</g>
</g>
<!-- Node142&#45;&gt;Node144 -->
<g id="edge7" class="edge">
<title>Node142&#45;&gt;Node144</title>
<path fill="none" stroke="#191970" d="M743.2084,-19.9384C751.8443,-19.0562 760.5297,-18.169 768.9658,-17.3073"/>
<polygon fill="#191970" stroke="#191970" points="742.7037,-16.4716 733.1111,-20.9698 743.4151,-23.4354 742.7037,-16.4716"/>
</g>
</g>
</svg>
