<?xml version="1.0" encoding="UTF-8" standalone="no"?>
<!DOCTYPE svg PUBLIC "-//W3C//DTD SVG 1.1//EN"
 "http://www.w3.org/Graphics/SVG/1.1/DTD/svg11.dtd">
<!-- Generated by graphviz version 2.40.1 (20161225.0304)
 -->
<!-- Title: ChimeraTK::parserUtilities::convertToAbsolutePath Pages: 1 -->
<svg width="1905pt" height="435pt"
 viewBox="0.00 0.00 1905.00 434.50" xmlns="http://www.w3.org/2000/svg" xmlns:xlink="http://www.w3.org/1999/xlink">
<g id="graph0" class="graph" transform="scale(1 1) rotate(0) translate(4 430.5)">
<title>ChimeraTK::parserUtilities::convertToAbsolutePath</title>
<polygon fill="#ffffff" stroke="transparent" points="-4,4 -4,-430.5 1901,-430.5 1901,4 -4,4"/>
<!-- Node49 -->
<g id="node1" class="node">
<title>Node49</title>
<polygon fill="#bfbfbf" stroke="#000000" points="0,-149.5 0,-179.5 146,-179.5 146,-149.5 0,-149.5"/>
<text text-anchor="start" x="8" y="-167.5" font-family="Helvetica,sans-Serif" font-size="10.00" fill="#000000">ChimeraTK::parserUtilities</text>
<text text-anchor="middle" x="73" y="-156.5" font-family="Helvetica,sans-Serif" font-size="10.00" fill="#000000">::convertToAbsolutePath</text>
</g>
<!-- Node50 -->
<g id="node2" class="node">
<title>Node50</title>
<g id="a_node2"><a xlink:href="class_chimera_t_k_1_1_dummy_backend.html#a5938b5d8210d8f57fc09913f0db7b98a" target="_top" xlink:title="ChimeraTK::DummyBackend\l::convertPathRelativeToDmapToAbs">
<polygon fill="#ffffff" stroke="#000000" points="182,-319.5 182,-349.5 370,-349.5 370,-319.5 182,-319.5"/>
<text text-anchor="start" x="190" y="-337.5" font-family="Helvetica,sans-Serif" font-size="10.00" fill="#000000">ChimeraTK::DummyBackend</text>
<text text-anchor="middle" x="276" y="-326.5" font-family="Helvetica,sans-Serif" font-size="10.00" fill="#000000">::convertPathRelativeToDmapToAbs</text>
</a>
</g>
</g>
<!-- Node49&#45;&gt;Node50 -->
<g id="edge1" class="edge">
<title>Node49&#45;&gt;Node50</title>
<path fill="none" stroke="#191970" d="M98.816,-186.1193C140.5865,-221.0996 221.9442,-289.2316 258.0255,-319.4474"/>
<polygon fill="#191970" stroke="#191970" points="100.9288,-183.3234 91.0149,-179.5864 96.4345,-188.6902 100.9288,-183.3234"/>
</g>
<!-- Node58 -->
<g id="node10" class="node">
<title>Node58</title>
<g id="a_node10"><a xlink:href="class_chimera_t_k_1_1_d_map_file_parser.html#af5bc5f64b8e53e070862ac5e9992a412" target="_top" xlink:title="Performs parsing of specified DMAP file. ">
<polygon fill="#ffffff" stroke="#000000" points="637.5,-171.5 637.5,-201.5 788.5,-201.5 788.5,-171.5 637.5,-171.5"/>
<text text-anchor="start" x="645.5" y="-189.5" font-family="Helvetica,sans-Serif" font-size="10.00" fill="#000000">ChimeraTK::DMapFileParser</text>
<text text-anchor="middle" x="713" y="-178.5" font-family="Helvetica,sans-Serif" font-size="10.00" fill="#000000">::parse</text>
</a>
</g>
</g>
<!-- Node49&#45;&gt;Node58 -->
<g id="edge9" class="edge">
<title>Node49&#45;&gt;Node58</title>
<path fill="none" stroke="#191970" d="M156.3463,-158.9802C256.9914,-153.4737 431.294,-147.6452 580,-161.5 601.7558,-163.527 625.2571,-167.3806 646.3645,-171.4661"/>
<polygon fill="#191970" stroke="#191970" points="156.0303,-155.4923 146.2415,-159.5456 156.4214,-162.4814 156.0303,-155.4923"/>
</g>
<!-- Node69 -->
<g id="node21" class="node">
<title>Node69</title>
<g id="a_node21"><a xlink:href="class_d_map_file_parser_test.html#ad2445cc1b8244fc71c7b78511e213d70" target="_top" xlink:title="DMapFileParserTest\l::testParseFile">
<polygon fill="#ffffff" stroke="#000000" points="871,-.5 871,-30.5 981,-30.5 981,-.5 871,-.5"/>
<text text-anchor="start" x="879" y="-18.5" font-family="Helvetica,sans-Serif" font-size="10.00" fill="#000000">DMapFileParserTest</text>
<text text-anchor="middle" x="926" y="-7.5" font-family="Helvetica,sans-Serif" font-size="10.00" fill="#000000">::testParseFile</text>
</a>
</g>
</g>
<!-- Node49&#45;&gt;Node69 -->
<g id="edge52" class="edge">
<title>Node49&#45;&gt;Node69</title>
<path fill="none" stroke="#191970" d="M156.3,-152.4091C256.8998,-137.5643 431.1582,-111.0729 580,-84.5 683.111,-66.0914 802.8512,-41.489 870.9987,-27.1809"/>
<polygon fill="#191970" stroke="#191970" points="155.583,-148.9769 146.1998,-153.8969 156.6032,-155.9022 155.583,-148.9769"/>
</g>
<!-- Node87 -->
<g id="node39" class="node">
<title>Node87</title>
<g id="a_node39"><a xlink:href="class_chimera_t_k_1_1_d_map_file_parser.html#a6a14373d71237411082ba2d86894e646" target="_top" xlink:title="ChimeraTK::DMapFileParser\l::parseRegularLine">
<polygon fill="#ffffff" stroke="#000000" points="417.5,-220.5 417.5,-250.5 568.5,-250.5 568.5,-220.5 417.5,-220.5"/>
<text text-anchor="start" x="425.5" y="-238.5" font-family="Helvetica,sans-Serif" font-size="10.00" fill="#000000">ChimeraTK::DMapFileParser</text>
<text text-anchor="middle" x="493" y="-227.5" font-family="Helvetica,sans-Serif" font-size="10.00" fill="#000000">::parseRegularLine</text>
</a>
</g>
</g>
<!-- Node49&#45;&gt;Node87 -->
<g id="edge46" class="edge">
<title>Node49&#45;&gt;Node87</title>
<path fill="none" stroke="#191970" d="M111.0273,-184.0862C131.5134,-193.7197 157.5415,-204.5204 182,-210.5 260.7948,-229.7638 353.8236,-235.045 417.4718,-236.1104"/>
<polygon fill="#191970" stroke="#191970" points="112.2684,-180.7995 101.7393,-179.6209 109.2353,-187.1083 112.2684,-180.7995"/>
</g>
<!-- Node88 -->
<g id="node40" class="node">
<title>Node88</title>
<g id="a_node40"><a xlink:href="class_chimera_t_k_1_1_d_map_file_parser.html#acf85a1a19c1c9e4a3d06c17256e6e31c" target="_top" xlink:title="ChimeraTK::DMapFileParser\l::absPathOfDMapContent">
<polygon fill="#ffffff" stroke="#000000" points="200.5,-171.5 200.5,-201.5 351.5,-201.5 351.5,-171.5 200.5,-171.5"/>
<text text-anchor="start" x="208.5" y="-189.5" font-family="Helvetica,sans-Serif" font-size="10.00" fill="#000000">ChimeraTK::DMapFileParser</text>
<text text-anchor="middle" x="276" y="-178.5" font-family="Helvetica,sans-Serif" font-size="10.00" fill="#000000">::absPathOfDMapContent</text>
</a>
</g>
</g>
<!-- Node49&#45;&gt;Node88 -->
<g id="edge48" class="edge">
<title>Node49&#45;&gt;Node88</title>
<path fill="none" stroke="#191970" d="M156.0272,-173.498C170.6544,-175.0832 185.8114,-176.7259 200.2271,-178.2882"/>
<polygon fill="#191970" stroke="#191970" points="156.3198,-170.0093 146.0009,-172.4114 155.5655,-176.9686 156.3198,-170.0093"/>
</g>
<!-- Node90 -->
<g id="node42" class="node">
<title>Node90</title>
<g id="a_node42"><a xlink:href="class_parser_utils_test_class.html#a08cdbf940d51d5ec337d6e58bedce814" target="_top" xlink:title="ParserUtilsTestClass\l::testConvertToAbsPath">
<polygon fill="#ffffff" stroke="#000000" points="211.5,-45.5 211.5,-75.5 340.5,-75.5 340.5,-45.5 211.5,-45.5"/>
<text text-anchor="start" x="219.5" y="-63.5" font-family="Helvetica,sans-Serif" font-size="10.00" fill="#000000">ParserUtilsTestClass</text>
<text text-anchor="middle" x="276" y="-52.5" font-family="Helvetica,sans-Serif" font-size="10.00" fill="#000000">::testConvertToAbsPath</text>
</a>
</g>
</g>
<!-- Node49&#45;&gt;Node90 -->
<g id="edge53" class="edge">
<title>Node49&#45;&gt;Node90</title>
<path fill="none" stroke="#191970" d="M99.5931,-143.2312C120.8833,-127.0194 152.0386,-105.0721 182,-90.5 193.8619,-84.7308 207.0922,-79.7181 219.7946,-75.5287"/>
<polygon fill="#191970" stroke="#191970" points="97.4394,-140.4722 91.6621,-149.3533 101.7167,-146.0134 97.4394,-140.4722"/>
</g>
<!-- Node51 -->
<g id="node3" class="node">
<title>Node51</title>
<g id="a_node3"><a xlink:href="class_chimera_t_k_1_1_dummy_backend.html#a7918c2e8804a139c1e25b0ccaf2dec12" target="_top" xlink:title="ChimeraTK::DummyBackend\l::createInstance">
<polygon fill="#ffffff" stroke="#000000" points="414,-319.5 414,-349.5 572,-349.5 572,-319.5 414,-319.5"/>
<text text-anchor="start" x="422" y="-337.5" font-family="Helvetica,sans-Serif" font-size="10.00" fill="#000000">ChimeraTK::DummyBackend</text>
<text text-anchor="middle" x="493" y="-326.5" font-family="Helvetica,sans-Serif" font-size="10.00" fill="#000000">::createInstance</text>
</a>
</g>
</g>
<!-- Node50&#45;&gt;Node51 -->
<g id="edge2" class="edge">
<title>Node50&#45;&gt;Node51</title>
<path fill="none" stroke="#191970" d="M380.4898,-334.5C391.6912,-334.5 402.9496,-334.5 413.7867,-334.5"/>
<polygon fill="#191970" stroke="#191970" points="380.2327,-331.0001 370.2326,-334.5 380.2326,-338.0001 380.2327,-331.0001"/>
</g>
<!-- Node56 -->
<g id="node8" class="node">
<title>Node56</title>
<g id="a_node8"><a xlink:href="class_custom_backend.html#ad91973dd7ec0803f9bc7ed0b552631db" target="_top" xlink:title="CustomBackend::createInstance">
<polygon fill="#ffffff" stroke="#000000" points="406,-384 406,-403 580,-403 580,-384 406,-384"/>
<text text-anchor="middle" x="493" y="-391" font-family="Helvetica,sans-Serif" font-size="10.00" fill="#000000">CustomBackend::createInstance</text>
</a>
</g>
</g>
<!-- Node50&#45;&gt;Node56 -->
<g id="edge7" class="edge">
<title>Node50&#45;&gt;Node56</title>
<path fill="none" stroke="#191970" d="M341.3547,-352.2692C379.6144,-362.6717 426.4245,-375.3988 457.8289,-383.9374"/>
<polygon fill="#191970" stroke="#191970" points="341.8877,-348.7872 331.3197,-349.5408 340.0511,-355.542 341.8877,-348.7872"/>
</g>
<!-- Node52 -->
<g id="node4" class="node">
<title>Node52</title>
<g id="a_node4"><a xlink:href="class_chimera_t_k_1_1_dummy_backend.html#adb9edefcb11c683496afd130f6fa796a" target="_top" xlink:title="Return wether a device is working as intended, usually this means it is opened and does not have any ...">
<polygon fill="#ffffff" stroke="#000000" points="634,-294.5 634,-324.5 792,-324.5 792,-294.5 634,-294.5"/>
<text text-anchor="start" x="642" y="-312.5" font-family="Helvetica,sans-Serif" font-size="10.00" fill="#000000">ChimeraTK::DummyBackend</text>
<text text-anchor="middle" x="713" y="-301.5" font-family="Helvetica,sans-Serif" font-size="10.00" fill="#000000">::isFunctional</text>
</a>
</g>
</g>
<!-- Node51&#45;&gt;Node52 -->
<g id="edge3" class="edge">
<title>Node51&#45;&gt;Node52</title>
<path fill="none" stroke="#191970" d="M582.1046,-324.3745C599.2324,-322.4281 617.062,-320.402 633.8488,-318.4945"/>
<polygon fill="#191970" stroke="#191970" points="581.6551,-320.9029 572.1142,-325.5097 582.4455,-327.8582 581.6551,-320.9029"/>
</g>
<!-- Node53 -->
<g id="node5" class="node">
<title>Node53</title>
<g id="a_node5"><a xlink:href="class_chimera_t_k_1_1_backend_factory.html#ad822950d59282d538922d5ac05edd94f" target="_top" xlink:title="Returns the _DMapFilePath. ">
<polygon fill="#ffffff" stroke="#000000" points="636,-343.5 636,-373.5 790,-373.5 790,-343.5 636,-343.5"/>
<text text-anchor="start" x="644" y="-361.5" font-family="Helvetica,sans-Serif" font-size="10.00" fill="#000000">ChimeraTK::BackendFactory</text>
<text text-anchor="middle" x="713" y="-350.5" font-family="Helvetica,sans-Serif" font-size="10.00" fill="#000000">::getDMapFilePath</text>
</a>
</g>
</g>
<!-- Node51&#45;&gt;Node53 -->
<g id="edge4" class="edge">
<title>Node51&#45;&gt;Node53</title>
<path fill="none" stroke="#191970" d="M582.414,-344.2543C600.0759,-346.181 618.472,-348.1879 635.6924,-350.0664"/>
<polygon fill="#191970" stroke="#191970" points="582.4349,-340.7358 572.1142,-343.1306 581.6757,-347.6946 582.4349,-340.7358"/>
</g>
<!-- Node54 -->
<g id="node6" class="node">
<title>Node54</title>
<g id="a_node6"><a xlink:href="test_device_8cpp.html#ab83892089340958763d777921ead7687" target="_top" xlink:title="BOOST_AUTO_TEST_CASE">
<polygon fill="#ffffff" stroke="#000000" points="1474,-407 1474,-426 1617,-426 1617,-407 1474,-407"/>
<text text-anchor="middle" x="1545.5" y="-414" font-family="Helvetica,sans-Serif" font-size="10.00" fill="#000000">BOOST_AUTO_TEST_CASE</text>
</a>
</g>
</g>
<!-- Node53&#45;&gt;Node54 -->
<g id="edge5" class="edge">
<title>Node53&#45;&gt;Node54</title>
<path fill="none" stroke="#191970" d="M793.211,-375.4334C810.5511,-378.5731 828.8338,-381.4915 846,-383.5 1074.3729,-410.2199 1347.0893,-415.4709 1473.9885,-416.3909"/>
<polygon fill="#191970" stroke="#191970" points="793.5962,-371.9453 783.1258,-373.5644 792.3206,-378.8281 793.5962,-371.9453"/>
</g>
<!-- Node55 -->
<g id="node7" class="node">
<title>Node55</title>
<g id="a_node7"><a xlink:href="class_rebot_test_class.html#ac58d489c5a55ea8f6521c505c9aee6fc" target="_top" xlink:title="RebotTestClass::RebotTest\lClass">
<polygon fill="#ffffff" stroke="#000000" points="854.5,-343.5 854.5,-373.5 997.5,-373.5 997.5,-343.5 854.5,-343.5"/>
<text text-anchor="start" x="862.5" y="-361.5" font-family="Helvetica,sans-Serif" font-size="10.00" fill="#000000">RebotTestClass::RebotTest</text>
<text text-anchor="middle" x="926" y="-350.5" font-family="Helvetica,sans-Serif" font-size="10.00" fill="#000000">Class</text>
</a>
</g>
</g>
<!-- Node53&#45;&gt;Node55 -->
<g id="edge6" class="edge">
<title>Node53&#45;&gt;Node55</title>
<path fill="none" stroke="#191970" d="M800.3782,-358.5C818.3401,-358.5 837.0522,-358.5 854.3796,-358.5"/>
<polygon fill="#191970" stroke="#191970" points="800.1991,-355.0001 790.199,-358.5 800.199,-362.0001 800.1991,-355.0001"/>
</g>
<!-- Node57 -->
<g id="node9" class="node">
<title>Node57</title>
<g id="a_node9"><a xlink:href="struct_custom_backend_1_1_backend_registerer.html#a31bb7bc390448fa5fdfc3e589c078b22" target="_top" xlink:title="CustomBackend::BackendRegisterer\l::BackendRegisterer">
<polygon fill="#ffffff" stroke="#000000" points="616,-392.5 616,-422.5 810,-422.5 810,-392.5 616,-392.5"/>
<text text-anchor="start" x="624" y="-410.5" font-family="Helvetica,sans-Serif" font-size="10.00" fill="#000000">CustomBackend::BackendRegisterer</text>
<text text-anchor="middle" x="713" y="-399.5" font-family="Helvetica,sans-Serif" font-size="10.00" fill="#000000">::BackendRegisterer</text>
</a>
</g>
</g>
<!-- Node56&#45;&gt;Node57 -->
<g id="edge8" class="edge">
<title>Node56&#45;&gt;Node57</title>
<path fill="none" stroke="#191970" d="M590.4327,-399.7003C598.8187,-400.2339 607.3035,-400.7739 615.6886,-401.3075"/>
<polygon fill="#191970" stroke="#191970" points="590.4679,-396.1955 580.2658,-399.0533 590.0233,-403.1814 590.4679,-396.1955"/>
</g>
<!-- Node58&#45;&gt;Node55 -->
<g id="edge25" class="edge">
<title>Node58&#45;&gt;Node55</title>
<path fill="none" stroke="#191970" d="M736.4407,-208.5855C756.7045,-228.0993 786.3723,-257.6982 810,-285.5 827.5001,-306.0917 823.9171,-318.9238 846,-334.5 850.8582,-337.9268 856.2123,-340.8715 861.7788,-343.4007"/>
<polygon fill="#191970" stroke="#191970" points="738.8119,-206.0102 729.1671,-201.6253 733.9723,-211.0678 738.8119,-206.0102"/>
</g>
<!-- Node59 -->
<g id="node11" class="node">
<title>Node59</title>
<g id="a_node11"><a xlink:href="class_chimera_t_k_1_1_backend_factory.html#afb11ba2d5dbe02a49f8e99ff9e84ae54" target="_top" xlink:title="Load all shared libraries specified in the dmap file. ">
<polygon fill="#ffffff" stroke="#000000" points="846,-196.5 846,-226.5 1006,-226.5 1006,-196.5 846,-196.5"/>
<text text-anchor="start" x="854" y="-214.5" font-family="Helvetica,sans-Serif" font-size="10.00" fill="#000000">ChimeraTK::BackendFactory</text>
<text text-anchor="middle" x="926" y="-203.5" font-family="Helvetica,sans-Serif" font-size="10.00" fill="#000000">::loadAllPluginsFromDMapFile</text>
</a>
</g>
</g>
<!-- Node58&#45;&gt;Node59 -->
<g id="edge10" class="edge">
<title>Node58&#45;&gt;Node59</title>
<path fill="none" stroke="#191970" d="M798.8039,-196.5709C814.3423,-198.3946 830.492,-200.2901 845.8603,-202.0939"/>
<polygon fill="#191970" stroke="#191970" points="799.0354,-193.0741 788.6956,-195.3845 798.2194,-200.0264 799.0354,-193.0741"/>
</g>
<!-- Node65 -->
<g id="node17" class="node">
<title>Node65</title>
<g id="a_node17"><a xlink:href="class_d_map_file_parser_test.html#ad2e10d86a9e4d09b943897c0e921b844" target="_top" xlink:title="DMapFileParserTest\l::testFileNotFound">
<polygon fill="#ffffff" stroke="#000000" points="871,-98.5 871,-128.5 981,-128.5 981,-98.5 871,-98.5"/>
<text text-anchor="start" x="879" y="-116.5" font-family="Helvetica,sans-Serif" font-size="10.00" fill="#000000">DMapFileParserTest</text>
<text text-anchor="middle" x="926" y="-105.5" font-family="Helvetica,sans-Serif" font-size="10.00" fill="#000000">::testFileNotFound</text>
</a>
</g>
</g>
<!-- Node58&#45;&gt;Node65 -->
<g id="edge17" class="edge">
<title>Node58&#45;&gt;Node65</title>
<path fill="none" stroke="#191970" d="M761.6967,-167.7421C786.7564,-158.2976 817.8731,-146.8904 846,-137.5 855.0777,-134.4693 864.7921,-131.4061 874.2116,-128.5286"/>
<polygon fill="#191970" stroke="#191970" points="760.172,-164.5768 752.0586,-171.3902 762.65,-171.1236 760.172,-164.5768"/>
</g>
<!-- Node67 -->
<g id="node19" class="node">
<title>Node67</title>
<g id="a_node19"><a xlink:href="class_d_map_file_parser_test.html#a598675f30fb39d7980ee2a039392a4f7" target="_top" xlink:title="DMapFileParserTest\l::testErrorInDmapFile">
<polygon fill="#ffffff" stroke="#000000" points="866.5,-49.5 866.5,-79.5 985.5,-79.5 985.5,-49.5 866.5,-49.5"/>
<text text-anchor="start" x="874.5" y="-67.5" font-family="Helvetica,sans-Serif" font-size="10.00" fill="#000000">DMapFileParserTest</text>
<text text-anchor="middle" x="926" y="-56.5" font-family="Helvetica,sans-Serif" font-size="10.00" fill="#000000">::testErrorInDmapFile</text>
</a>
</g>
</g>
<!-- Node58&#45;&gt;Node67 -->
<g id="edge19" class="edge">
<title>Node58&#45;&gt;Node67</title>
<path fill="none" stroke="#191970" d="M744.1337,-165.6478C763.395,-152.5093 788.4698,-134.9722 810,-118.5 826.5414,-105.8446 827.6538,-98.3588 846,-88.5 852.3865,-85.0681 859.33,-82.0612 866.3694,-79.4443"/>
<polygon fill="#191970" stroke="#191970" points="742.0343,-162.8426 735.7266,-171.3552 745.9661,-168.6341 742.0343,-162.8426"/>
</g>
<!-- Node68 -->
<g id="node20" class="node">
<title>Node68</title>
<g id="a_node20"><a xlink:href="class_d_map_file_parser_test.html#ae5c141f7c22c33d33cdaa6ccef4467c0" target="_top" xlink:title="DMapFileParserTest\l::testNoDataInDmapFile">
<polygon fill="#ffffff" stroke="#000000" points="859.5,-147.5 859.5,-177.5 992.5,-177.5 992.5,-147.5 859.5,-147.5"/>
<text text-anchor="start" x="867.5" y="-165.5" font-family="Helvetica,sans-Serif" font-size="10.00" fill="#000000">DMapFileParserTest</text>
<text text-anchor="middle" x="926" y="-154.5" font-family="Helvetica,sans-Serif" font-size="10.00" fill="#000000">::testNoDataInDmapFile</text>
</a>
</g>
</g>
<!-- Node58&#45;&gt;Node68 -->
<g id="edge21" class="edge">
<title>Node58&#45;&gt;Node68</title>
<path fill="none" stroke="#191970" d="M798.8196,-176.8302C818.9972,-174.5567 840.2048,-172.1671 859.3928,-170.005"/>
<polygon fill="#191970" stroke="#191970" points="798.2408,-173.3732 788.6956,-177.9709 799.0246,-180.3292 798.2408,-173.3732"/>
</g>
<!-- Node58&#45;&gt;Node69 -->
<g id="edge23" class="edge">
<title>Node58&#45;&gt;Node69</title>
<path fill="none" stroke="#191970" d="M751.1799,-166.3017C770.7534,-154.4489 793.8117,-137.9758 810,-118.5 834.6641,-88.8272 816.924,-64.8649 846,-39.5 853.1025,-33.304 861.7557,-28.7072 870.7143,-25.2969"/>
<polygon fill="#191970" stroke="#191970" points="749.3201,-163.335 742.4691,-171.4167 752.8647,-169.3712 749.3201,-163.335"/>
</g>
<!-- Node70 -->
<g id="node22" class="node">
<title>Node70</title>
<g id="a_node22"><a xlink:href="namespace_chimera_t_k_1_1_utilities.html#a0124cd7dc8ef468a7c292788414848ed" target="_top" xlink:title="Search for an alias in a given DMap file and return the DeviceInfo entry. ">
<polygon fill="#ffffff" stroke="#000000" points="868.5,-245.5 868.5,-275.5 983.5,-275.5 983.5,-245.5 868.5,-245.5"/>
<text text-anchor="start" x="876.5" y="-263.5" font-family="Helvetica,sans-Serif" font-size="10.00" fill="#000000">ChimeraTK::Utilities</text>
<text text-anchor="middle" x="926" y="-252.5" font-family="Helvetica,sans-Serif" font-size="10.00" fill="#000000">::aliasLookUp</text>
</a>
</g>
</g>
<!-- Node58&#45;&gt;Node70 -->
<g id="edge26" class="edge">
<title>Node58&#45;&gt;Node70</title>
<path fill="none" stroke="#191970" d="M762.0179,-205.2264C787.0415,-214.6161 818.0301,-225.984 846,-235.5 855.7808,-238.8277 866.2899,-242.2325 876.371,-245.4157"/>
<polygon fill="#191970" stroke="#191970" points="762.981,-201.8492 752.3891,-201.6007 760.5142,-208.4002 762.981,-201.8492"/>
</g>
<!-- Node85 -->
<g id="node37" class="node">
<title>Node85</title>
<g id="a_node37"><a xlink:href="namespace_chimera_t_k_1_1_utilities.html#a25a0748d411f914029fd961f040bd2ee" target="_top" xlink:title="Returns the list of device aliases from the DMap file set using BackendFactory::setDMapFilePath. ">
<polygon fill="#ffffff" stroke="#000000" points="868.5,-294.5 868.5,-324.5 983.5,-324.5 983.5,-294.5 868.5,-294.5"/>
<text text-anchor="start" x="876.5" y="-312.5" font-family="Helvetica,sans-Serif" font-size="10.00" fill="#000000">ChimeraTK::Utilities</text>
<text text-anchor="middle" x="926" y="-301.5" font-family="Helvetica,sans-Serif" font-size="10.00" fill="#000000">::getAliasList</text>
</a>
</g>
</g>
<!-- Node58&#45;&gt;Node85 -->
<g id="edge44" class="edge">
<title>Node58&#45;&gt;Node85</title>
<path fill="none" stroke="#191970" d="M737.5173,-208.5049C763.0228,-230.4079 804.9059,-263.6795 846,-284.5 853.3988,-288.2486 861.4689,-291.5673 869.5445,-294.4617"/>
<polygon fill="#191970" stroke="#191970" points="739.6762,-205.744 729.8335,-201.8233 735.0829,-211.0263 739.6762,-205.744"/>
</g>
<!-- Node60 -->
<g id="node12" class="node">
<title>Node60</title>
<g id="a_node12"><a xlink:href="class_chimera_t_k_1_1_backend_factory.html#a7348fb0d34d8737df3fa4f396fc5163d" target="_top" xlink:title="This function sets the _DMapFilePath. ">
<polygon fill="#ffffff" stroke="#000000" points="1042,-150.5 1042,-180.5 1196,-180.5 1196,-150.5 1042,-150.5"/>
<text text-anchor="start" x="1050" y="-168.5" font-family="Helvetica,sans-Serif" font-size="10.00" fill="#000000">ChimeraTK::BackendFactory</text>
<text text-anchor="middle" x="1119" y="-157.5" font-family="Helvetica,sans-Serif" font-size="10.00" fill="#000000">::setDMapFilePath</text>
</a>
</g>
</g>
<!-- Node59&#45;&gt;Node60 -->
<g id="edge11" class="edge">
<title>Node59&#45;&gt;Node60</title>
<path fill="none" stroke="#191970" d="M999.1493,-194.0655C1017.8677,-189.6041 1037.8332,-184.8454 1055.9924,-180.5174"/>
<polygon fill="#191970" stroke="#191970" points="998.1114,-190.7147 989.1954,-196.4379 999.7344,-197.524 998.1114,-190.7147"/>
</g>
<!-- Node60&#45;&gt;Node54 -->
<g id="edge12" class="edge">
<title>Node60&#45;&gt;Node54</title>
<path fill="none" stroke="#191970" d="M1177.2183,-185.4312C1184.1803,-189.6051 1190.6889,-194.5841 1196,-200.5 1230.0826,-238.4636 1194.839,-274.544 1232,-309.5 1292.933,-366.8175 1342.5916,-313.9229 1414,-357.5 1434.4162,-369.959 1429.2105,-385.6743 1450,-397.5 1457.347,-401.6792 1465.467,-404.9506 1473.778,-407.5096"/>
<polygon fill="#191970" stroke="#191970" points="1178.6748,-182.24 1168.2132,-180.565 1175.3469,-188.3984 1178.6748,-182.24"/>
</g>
<!-- Node61 -->
<g id="node13" class="node">
<title>Node61</title>
<g id="a_node13"><a xlink:href="test_rebot_backend_8cpp.html#a19823c5af9fff4070c144dacf022bf94" target="_top" xlink:title="init_unit_test">
<polygon fill="#ffffff" stroke="#000000" points="1283,-144 1283,-163 1363,-163 1363,-144 1283,-144"/>
<text text-anchor="middle" x="1323" y="-151" font-family="Helvetica,sans-Serif" font-size="10.00" fill="#000000">init_unit_test</text>
</a>
</g>
</g>
<!-- Node60&#45;&gt;Node61 -->
<g id="edge13" class="edge">
<title>Node60&#45;&gt;Node61</title>
<path fill="none" stroke="#191970" d="M1206.2686,-160.3666C1232.9552,-158.7968 1261.0161,-157.1461 1282.9358,-155.8567"/>
<polygon fill="#191970" stroke="#191970" points="1205.9008,-156.882 1196.1237,-160.9633 1206.312,-163.87 1205.9008,-156.882"/>
</g>
<!-- Node62 -->
<g id="node14" class="node">
<title>Node62</title>
<g id="a_node14"><a xlink:href="namespace_chimera_t_k.html#ac081e51ebc9ef4fe64b469290d39b7a2" target="_top" xlink:title="Set the location of the dmap file. ">
<polygon fill="#ffffff" stroke="#000000" points="1244.5,-94 1244.5,-113 1401.5,-113 1401.5,-94 1244.5,-94"/>
<text text-anchor="middle" x="1323" y="-101" font-family="Helvetica,sans-Serif" font-size="10.00" fill="#000000">ChimeraTK::setDMapFilePath</text>
</a>
</g>
</g>
<!-- Node60&#45;&gt;Node62 -->
<g id="edge14" class="edge">
<title>Node60&#45;&gt;Node62</title>
<path fill="none" stroke="#191970" d="M1178.0713,-147.547C1215.104,-136.2919 1261.3712,-122.2303 1291.5268,-113.0654"/>
<polygon fill="#191970" stroke="#191970" points="1176.9328,-144.2348 1168.3827,-150.4915 1178.9684,-150.9323 1176.9328,-144.2348"/>
</g>
<!-- Node63 -->
<g id="node15" class="node">
<title>Node63</title>
<g id="a_node15"><a xlink:href="accessor1_d_8cpp.html#ae66f6b31b5ad750f1fe042a706a4e3d4" target="_top" xlink:title="main">
<polygon fill="#ffffff" stroke="#000000" points="1525,-56 1525,-75 1566,-75 1566,-56 1525,-56"/>
<text text-anchor="middle" x="1545.5" y="-63" font-family="Helvetica,sans-Serif" font-size="10.00" fill="#000000">main</text>
</a>
</g>
</g>
<!-- Node62&#45;&gt;Node63 -->
<g id="edge15" class="edge">
<title>Node62&#45;&gt;Node63</title>
<path fill="none" stroke="#191970" d="M1388.8377,-92.2558C1435.1742,-84.3422 1494.1993,-74.2615 1524.88,-69.0216"/>
<polygon fill="#191970" stroke="#191970" points="1388.127,-88.8264 1378.8589,-93.96 1389.3055,-95.7265 1388.127,-88.8264"/>
</g>
<!-- Node64 -->
<g id="node16" class="node">
<title>Node64</title>
<g id="a_node16"><a xlink:href="test_backend_factory_8cpp.html#a9f15aa63cc160538eda9419543a94d60" target="_top" xlink:title="BOOST_AUTO_TEST_CASE">
<polygon fill="#ffffff" stroke="#000000" points="1474,-94 1474,-113 1617,-113 1617,-94 1474,-94"/>
<text text-anchor="middle" x="1545.5" y="-101" font-family="Helvetica,sans-Serif" font-size="10.00" fill="#000000">BOOST_AUTO_TEST_CASE</text>
</a>
</g>
</g>
<!-- Node62&#45;&gt;Node64 -->
<g id="edge16" class="edge">
<title>Node62&#45;&gt;Node64</title>
<path fill="none" stroke="#191970" d="M1411.786,-103.5C1432.4156,-103.5 1454.1205,-103.5 1473.9012,-103.5"/>
<polygon fill="#191970" stroke="#191970" points="1411.7583,-100.0001 1401.7583,-103.5 1411.7583,-107.0001 1411.7583,-100.0001"/>
</g>
<!-- Node66 -->
<g id="node18" class="node">
<title>Node66</title>
<g id="a_node18"><a xlink:href="class_d_map_file_parser_test_suite.html#a0e28986d4837eca18c86797318d14d41" target="_top" xlink:title="DMapFileParserTestSuite\l::DMapFileParserTestSuite">
<polygon fill="#ffffff" stroke="#000000" points="1048.5,-83.5 1048.5,-113.5 1189.5,-113.5 1189.5,-83.5 1048.5,-83.5"/>
<text text-anchor="start" x="1056.5" y="-101.5" font-family="Helvetica,sans-Serif" font-size="10.00" fill="#000000">DMapFileParserTestSuite</text>
<text text-anchor="middle" x="1119" y="-90.5" font-family="Helvetica,sans-Serif" font-size="10.00" fill="#000000">::DMapFileParserTestSuite</text>
</a>
</g>
</g>
<!-- Node65&#45;&gt;Node66 -->
<g id="edge18" class="edge">
<title>Node65&#45;&gt;Node66</title>
<path fill="none" stroke="#191970" d="M991.0822,-108.4418C1009.4972,-107.0106 1029.6255,-105.4462 1048.3516,-103.9908"/>
<polygon fill="#191970" stroke="#191970" points="990.7465,-104.9572 981.0478,-109.2217 991.2889,-111.9362 990.7465,-104.9572"/>
</g>
<!-- Node67&#45;&gt;Node66 -->
<g id="edge20" class="edge">
<title>Node67&#45;&gt;Node66</title>
<path fill="none" stroke="#191970" d="M995.6763,-76.7746C1012.8158,-79.794 1031.1817,-83.0294 1048.3661,-86.0567"/>
<polygon fill="#191970" stroke="#191970" points="996.2003,-73.3131 985.7447,-75.025 994.9858,-80.2069 996.2003,-73.3131"/>
</g>
<!-- Node68&#45;&gt;Node66 -->
<g id="edge22" class="edge">
<title>Node68&#45;&gt;Node66</title>
<path fill="none" stroke="#191970" d="M984.8268,-144.3335C991.9699,-142.0637 999.1574,-139.7494 1006,-137.5 1029.363,-129.8197 1055.3092,-120.8932 1076.4412,-113.5199"/>
<polygon fill="#191970" stroke="#191970" points="983.6309,-141.0407 975.1501,-147.391 985.74,-147.7155 983.6309,-141.0407"/>
</g>
<!-- Node69&#45;&gt;Node66 -->
<g id="edge24" class="edge">
<title>Node69&#45;&gt;Node66</title>
<path fill="none" stroke="#191970" d="M990.612,-33.7213C995.8611,-35.5531 1001.047,-37.4853 1006,-39.5 1037.1602,-52.1748 1071.1545,-70.5981 1093.6323,-83.4752"/>
<polygon fill="#191970" stroke="#191970" points="991.7263,-30.4035 981.1323,-30.5366 989.497,-37.039 991.7263,-30.4035"/>
</g>
<!-- Node71 -->
<g id="node23" class="node">
<title>Node71</title>
<g id="a_node23"><a xlink:href="class_chimera_t_k_1_1_backend_factory.html#a240088c806406533d0aa975b7bf61b05" target="_top" xlink:title="Create a new backend and return the instance as a shared pointer. ">
<polygon fill="#ffffff" stroke="#000000" points="1042,-248.5 1042,-278.5 1196,-278.5 1196,-248.5 1042,-248.5"/>
<text text-anchor="start" x="1050" y="-266.5" font-family="Helvetica,sans-Serif" font-size="10.00" fill="#000000">ChimeraTK::BackendFactory</text>
<text text-anchor="middle" x="1119" y="-255.5" font-family="Helvetica,sans-Serif" font-size="10.00" fill="#000000">::createBackend</text>
</a>
</g>
</g>
<!-- Node70&#45;&gt;Node71 -->
<g id="edge27" class="edge">
<title>Node70&#45;&gt;Node71</title>
<path fill="none" stroke="#191970" d="M993.6604,-261.5517C1009.1701,-261.7928 1025.7743,-262.0509 1041.6571,-262.2978"/>
<polygon fill="#191970" stroke="#191970" points="993.6982,-258.052 983.6449,-261.396 993.5893,-265.0511 993.6982,-258.052"/>
</g>
<!-- Node84 -->
<g id="node36" class="node">
<title>Node84</title>
<g id="a_node36"><a xlink:href="test_utilities_8cpp.html#a7b167ccc126dfcc16cdb7ea11839354e" target="_top" xlink:title="BOOST_AUTO_TEST_CASE">
<polygon fill="#ffffff" stroke="#000000" points="1047.5,-210 1047.5,-229 1190.5,-229 1190.5,-210 1047.5,-210"/>
<text text-anchor="middle" x="1119" y="-217" font-family="Helvetica,sans-Serif" font-size="10.00" fill="#000000">BOOST_AUTO_TEST_CASE</text>
</a>
</g>
</g>
<!-- Node70&#45;&gt;Node84 -->
<g id="edge43" class="edge">
<title>Node70&#45;&gt;Node84</title>
<path fill="none" stroke="#191970" d="M993.6942,-246.1194C1020.3782,-240.4507 1050.2974,-234.0949 1074.2069,-229.0156"/>
<polygon fill="#191970" stroke="#191970" points="992.6993,-242.7525 983.6449,-248.2542 994.154,-249.5997 992.6993,-242.7525"/>
</g>
<!-- Node72 -->
<g id="node24" class="node">
<title>Node72</title>
<g id="a_node24"><a xlink:href="class_chimera_t_k_1_1_logical_name_mapping_backend.html#a6b020ac5ae848f98a0220c858d7808e7" target="_top" xlink:title="parse the logical map file, if not yet done ">
<polygon fill="#ffffff" stroke="#000000" points="1232,-270.5 1232,-300.5 1414,-300.5 1414,-270.5 1232,-270.5"/>
<text text-anchor="start" x="1240" y="-288.5" font-family="Helvetica,sans-Serif" font-size="10.00" fill="#000000">ChimeraTK::LogicalNameMapping</text>
<text text-anchor="middle" x="1323" y="-277.5" font-family="Helvetica,sans-Serif" font-size="10.00" fill="#000000">Backend::parse</text>
</a>
</g>
</g>
<!-- Node71&#45;&gt;Node72 -->
<g id="edge28" class="edge">
<title>Node71&#45;&gt;Node72</title>
<path fill="none" stroke="#191970" d="M1206.3009,-272.9148C1214.7128,-273.822 1223.2609,-274.7438 1231.7099,-275.655"/>
<polygon fill="#191970" stroke="#191970" points="1206.4413,-269.4097 1196.1237,-271.8173 1205.6907,-276.3694 1206.4413,-269.4097"/>
</g>
<!-- Node79 -->
<g id="node31" class="node">
<title>Node79</title>
<g id="a_node31"><a xlink:href="test_device_8cpp.html#a3bc6cd2a07480ed43ccf87c31f6c9120" target="_top" xlink:title="BOOST_AUTO_TEST_CASE">
<polygon fill="#ffffff" stroke="#000000" points="1251.5,-367 1251.5,-386 1394.5,-386 1394.5,-367 1251.5,-367"/>
<text text-anchor="middle" x="1323" y="-374" font-family="Helvetica,sans-Serif" font-size="10.00" fill="#000000">BOOST_AUTO_TEST_CASE</text>
</a>
</g>
</g>
<!-- Node71&#45;&gt;Node79 -->
<g id="edge37" class="edge">
<title>Node71&#45;&gt;Node79</title>
<path fill="none" stroke="#191970" d="M1185.4203,-283.2669C1189.1532,-285.4407 1192.7164,-287.8441 1196,-290.5 1219.8838,-309.8176 1207.6518,-330.7712 1232,-349.5 1242.1884,-357.337 1254.6162,-362.9049 1266.9729,-366.8588"/>
<polygon fill="#191970" stroke="#191970" points="1186.9399,-280.1121 1176.4534,-278.6007 1183.7085,-286.3217 1186.9399,-280.1121"/>
</g>
<!-- Node80 -->
<g id="node32" class="node">
<title>Node80</title>
<g id="a_node32"><a xlink:href="class_fixture__t.html#a8bdf52a6391665667fed0c8675788f53" target="_top" xlink:title="Fixture_t::getBackendInstance">
<polygon fill="#ffffff" stroke="#000000" points="1241,-232 1241,-251 1405,-251 1405,-232 1241,-232"/>
<text text-anchor="middle" x="1323" y="-239" font-family="Helvetica,sans-Serif" font-size="10.00" fill="#000000">Fixture_t::getBackendInstance</text>
</a>
</g>
</g>
<!-- Node71&#45;&gt;Node80 -->
<g id="edge39" class="edge">
<title>Node71&#45;&gt;Node80</title>
<path fill="none" stroke="#191970" d="M1206.1125,-254.1055C1217.5711,-252.8698 1229.2859,-251.6064 1240.6616,-250.3796"/>
<polygon fill="#191970" stroke="#191970" points="1205.6907,-250.6306 1196.1237,-255.1827 1206.4413,-257.5903 1205.6907,-250.6306"/>
</g>
<!-- Node82 -->
<g id="node34" class="node">
<title>Node82</title>
<g id="a_node34"><a xlink:href="class_pcie_backend_test.html#aff8b1840dd414e6ad2687c1f6e02aba7" target="_top" xlink:title="PcieBackendTest::testCreate\lBackend">
<polygon fill="#ffffff" stroke="#000000" points="1245.5,-182.5 1245.5,-212.5 1400.5,-212.5 1400.5,-182.5 1245.5,-182.5"/>
<text text-anchor="start" x="1253.5" y="-200.5" font-family="Helvetica,sans-Serif" font-size="10.00" fill="#000000">PcieBackendTest::testCreate</text>
<text text-anchor="middle" x="1323" y="-189.5" font-family="Helvetica,sans-Serif" font-size="10.00" fill="#000000">Backend</text>
</a>
</g>
</g>
<!-- Node71&#45;&gt;Node82 -->
<g id="edge41" class="edge">
<title>Node71&#45;&gt;Node82</title>
<path fill="none" stroke="#191970" d="M1177.8186,-245.106C1183.9891,-242.9672 1190.1436,-240.7451 1196,-238.5 1212.3489,-232.2325 1215.5118,-228.3913 1232,-222.5 1241.8743,-218.9718 1252.499,-215.6453 1262.8817,-212.64"/>
<polygon fill="#191970" stroke="#191970" points="1176.4925,-241.86 1168.1491,-248.3898 1178.7435,-248.4882 1176.4925,-241.86"/>
</g>
<!-- Node73 -->
<g id="node25" class="node">
<title>Node73</title>
<g id="a_node25"><a xlink:href="class_chimera_t_k_1_1_logical_name_mapping_backend.html#a8a63092ddf7030074e927eeaf67c5b13" target="_top" xlink:title="Return a device information string containing hardware details like the firmware version number or th...">
<polygon fill="#ffffff" stroke="#000000" points="1696,-269.5 1696,-299.5 1878,-299.5 1878,-269.5 1696,-269.5"/>
<text text-anchor="start" x="1704" y="-287.5" font-family="Helvetica,sans-Serif" font-size="10.00" fill="#000000">ChimeraTK::LogicalNameMapping</text>
<text text-anchor="middle" x="1787" y="-276.5" font-family="Helvetica,sans-Serif" font-size="10.00" fill="#000000">Backend::readDeviceInfo</text>
</a>
</g>
</g>
<!-- Node72&#45;&gt;Node73 -->
<g id="edge29" class="edge">
<title>Node72&#45;&gt;Node73</title>
<path fill="none" stroke="#191970" d="M1403.2665,-302.2785C1418.7091,-304.8694 1434.805,-307.1352 1450,-308.5 1534.5485,-316.0942 1556.3926,-315.4077 1641,-308.5 1663.658,-306.6501 1688.0986,-303.211 1710.3815,-299.5025"/>
<polygon fill="#191970" stroke="#191970" points="1403.6803,-298.798 1393.2288,-300.5351 1402.4824,-305.6948 1403.6803,-298.798"/>
</g>
<!-- Node74 -->
<g id="node26" class="node">
<title>Node74</title>
<g id="a_node26"><a xlink:href="class_chimera_t_k_1_1_logical_name_mapping_backend.html#aa62cb97e2a5de85ae6151410b78f0ec6" target="_top" xlink:title="Open the device. ">
<polygon fill="#ffffff" stroke="#000000" points="1454.5,-357.5 1454.5,-387.5 1636.5,-387.5 1636.5,-357.5 1454.5,-357.5"/>
<text text-anchor="start" x="1462.5" y="-375.5" font-family="Helvetica,sans-Serif" font-size="10.00" fill="#000000">ChimeraTK::LogicalNameMapping</text>
<text text-anchor="middle" x="1545.5" y="-364.5" font-family="Helvetica,sans-Serif" font-size="10.00" fill="#000000">Backend::open</text>
</a>
</g>
</g>
<!-- Node72&#45;&gt;Node74 -->
<g id="edge30" class="edge">
<title>Node72&#45;&gt;Node74</title>
<path fill="none" stroke="#191970" d="M1374.185,-304.1782C1387.3319,-309.4014 1401.3348,-315.3446 1414,-321.5 1430.6599,-329.5969 1433.0582,-335.0109 1450,-342.5 1462.7159,-348.1211 1476.8106,-353.1587 1490.1805,-357.4286"/>
<polygon fill="#191970" stroke="#191970" points="1375.3828,-300.8886 1364.7947,-300.5094 1372.8354,-307.4086 1375.3828,-300.8886"/>
</g>
<!-- Node76 -->
<g id="node28" class="node">
<title>Node76</title>
<g id="a_node28"><a xlink:href="class_chimera_t_k_1_1_logical_name_mapping_backend.html#a98f6b271e1d6f1ec80f325e7b59af804" target="_top" xlink:title="ChimeraTK::LogicalNameMapping\lBackend::getRegisterAccessor_impl">
<polygon fill="#ffffff" stroke="#000000" points="1450,-220.5 1450,-250.5 1641,-250.5 1641,-220.5 1450,-220.5"/>
<text text-anchor="start" x="1458" y="-238.5" font-family="Helvetica,sans-Serif" font-size="10.00" fill="#000000">ChimeraTK::LogicalNameMapping</text>
<text text-anchor="middle" x="1545.5" y="-227.5" font-family="Helvetica,sans-Serif" font-size="10.00" fill="#000000">Backend::getRegisterAccessor_impl</text>
</a>
</g>
</g>
<!-- Node72&#45;&gt;Node76 -->
<g id="edge32" class="edge">
<title>Node72&#45;&gt;Node76</title>
<path fill="none" stroke="#191970" d="M1399.7842,-268.2451C1425.357,-262.4984 1453.6257,-256.1459 1478.4055,-250.5774"/>
<polygon fill="#191970" stroke="#191970" points="1398.7466,-264.8909 1389.7573,-270.4984 1400.2814,-271.7206 1398.7466,-264.8909"/>
</g>
<!-- Node78 -->
<g id="node30" class="node">
<title>Node78</title>
<g id="a_node30"><a xlink:href="class_chimera_t_k_1_1_logical_name_mapping_backend.html#a72f1bf37a09e7c088658d00ed8b83ac8" target="_top" xlink:title="Return the register catalogue with detailed information on all registers. ">
<polygon fill="#ffffff" stroke="#000000" points="1454.5,-269.5 1454.5,-299.5 1636.5,-299.5 1636.5,-269.5 1454.5,-269.5"/>
<text text-anchor="start" x="1462.5" y="-287.5" font-family="Helvetica,sans-Serif" font-size="10.00" fill="#000000">ChimeraTK::LogicalNameMapping</text>
<text text-anchor="middle" x="1545.5" y="-276.5" font-family="Helvetica,sans-Serif" font-size="10.00" fill="#000000">Backend::getRegisterCatalogue</text>
</a>
</g>
</g>
<!-- Node72&#45;&gt;Node78 -->
<g id="edge35" class="edge">
<title>Node72&#45;&gt;Node78</title>
<path fill="none" stroke="#191970" d="M1424.4163,-285.0442C1434.3254,-284.9997 1444.3394,-284.9547 1454.1404,-284.9106"/>
<polygon fill="#191970" stroke="#191970" points="1424.1254,-281.5454 1414.1413,-285.0904 1424.1569,-288.5453 1424.1254,-281.5454"/>
</g>
<!-- Node75 -->
<g id="node27" class="node">
<title>Node75</title>
<g id="a_node27"><a xlink:href="class_chimera_t_k_1_1_logical_name_mapping_backend.html#aca8a90331ac46ea8e8afdfcd467fca01" target="_top" xlink:title="ChimeraTK::LogicalNameMapping\lBackend::~LogicalNameMappingBackend">
<polygon fill="#ffffff" stroke="#000000" points="1677,-357.5 1677,-387.5 1897,-387.5 1897,-357.5 1677,-357.5"/>
<text text-anchor="start" x="1685" y="-375.5" font-family="Helvetica,sans-Serif" font-size="10.00" fill="#000000">ChimeraTK::LogicalNameMapping</text>
<text text-anchor="middle" x="1787" y="-364.5" font-family="Helvetica,sans-Serif" font-size="10.00" fill="#000000">Backend::~LogicalNameMappingBackend</text>
</a>
</g>
</g>
<!-- Node74&#45;&gt;Node75 -->
<g id="edge31" class="edge">
<title>Node74&#45;&gt;Node75</title>
<path fill="none" stroke="#191970" d="M1647.0117,-372.5C1656.8822,-372.5 1666.9287,-372.5 1676.8782,-372.5"/>
<polygon fill="#191970" stroke="#191970" points="1646.8008,-369.0001 1636.8008,-372.5 1646.8008,-376.0001 1646.8008,-369.0001"/>
</g>
<!-- Node76&#45;&gt;Node73 -->
<g id="edge33" class="edge">
<title>Node76&#45;&gt;Node73</title>
<path fill="none" stroke="#191970" d="M1629.4829,-252.54C1656.6796,-258.0582 1686.6271,-264.1345 1713.0409,-269.4938"/>
<polygon fill="#191970" stroke="#191970" points="1630.0955,-249.0931 1619.5992,-250.5346 1628.7035,-255.9533 1630.0955,-249.0931"/>
</g>
<!-- Node77 -->
<g id="node29" class="node">
<title>Node77</title>
<g id="a_node29"><a xlink:href="class_chimera_t_k_1_1_logical_name_mapping_backend.html#a7d3c15281246ec70a9977004d4fb02c3" target="_top" xlink:title="ChimeraTK::LogicalNameMapping\lBackend::LogicalNameMappingBackend">
<polygon fill="#ffffff" stroke="#000000" points="1681,-220.5 1681,-250.5 1893,-250.5 1893,-220.5 1681,-220.5"/>
<text text-anchor="start" x="1689" y="-238.5" font-family="Helvetica,sans-Serif" font-size="10.00" fill="#000000">ChimeraTK::LogicalNameMapping</text>
<text text-anchor="middle" x="1787" y="-227.5" font-family="Helvetica,sans-Serif" font-size="10.00" fill="#000000">Backend::LogicalNameMappingBackend</text>
</a>
</g>
</g>
<!-- Node76&#45;&gt;Node77 -->
<g id="edge34" class="edge">
<title>Node76&#45;&gt;Node77</title>
<path fill="none" stroke="#191970" d="M1651.4475,-235.5C1661.2472,-235.5 1671.1789,-235.5 1680.9792,-235.5"/>
<polygon fill="#191970" stroke="#191970" points="1651.2941,-232.0001 1641.2941,-235.5 1651.294,-239.0001 1651.2941,-232.0001"/>
</g>
<!-- Node78&#45;&gt;Node73 -->
<g id="edge36" class="edge">
<title>Node78&#45;&gt;Node73</title>
<path fill="none" stroke="#191970" d="M1646.8718,-284.5C1663.1643,-284.5 1679.9401,-284.5 1695.9708,-284.5"/>
<polygon fill="#191970" stroke="#191970" points="1646.8008,-281.0001 1636.8008,-284.5 1646.8008,-288.0001 1646.8008,-281.0001"/>
</g>
<!-- Node79&#45;&gt;Node54 -->
<g id="edge38" class="edge">
<title>Node79&#45;&gt;Node54</title>
<path fill="none" stroke="#191970" d="M1386.1851,-387.8591C1419.7723,-393.8973 1460.5959,-401.2363 1492.5094,-406.9736"/>
<polygon fill="#191970" stroke="#191970" points="1386.4731,-384.3549 1376.0116,-386.0302 1385.2345,-391.2444 1386.4731,-384.3549"/>
</g>
<!-- Node81 -->
<g id="node33" class="node">
<title>Node81</title>
<g id="a_node33"><a xlink:href="test_dummy_backend_8cpp.html#a4fe660407b9da474afad32e82fe3fcce" target="_top" xlink:title="BOOST_AUTO_TEST_CASE">
<polygon fill="#ffffff" stroke="#000000" points="1474,-182 1474,-201 1617,-201 1617,-182 1474,-182"/>
<text text-anchor="middle" x="1545.5" y="-189" font-family="Helvetica,sans-Serif" font-size="10.00" fill="#000000">BOOST_AUTO_TEST_CASE</text>
</a>
</g>
</g>
<!-- Node80&#45;&gt;Node81 -->
<g id="edge40" class="edge">
<title>Node80&#45;&gt;Node81</title>
<path fill="none" stroke="#191970" d="M1379.778,-229.7584C1391.1518,-227.1993 1402.9874,-224.3877 1414,-221.5 1430.1831,-217.2565 1433.7753,-214.5818 1450,-210.5 1463.7709,-207.0355 1478.7868,-203.7989 1492.7479,-201.0137"/>
<polygon fill="#191970" stroke="#191970" points="1378.9411,-226.3588 1369.9341,-231.9378 1380.4543,-233.1933 1378.9411,-226.3588"/>
</g>
<!-- Node83 -->
<g id="node35" class="node">
<title>Node83</title>
<g id="a_node35"><a xlink:href="class_pcie_backend_test_suite.html#a862bf4f6e3375cd86ac41cc0c8e0b955" target="_top" xlink:title="PcieBackendTestSuite\l::PcieBackendTestSuite">
<polygon fill="#ffffff" stroke="#000000" points="1481,-132.5 1481,-162.5 1610,-162.5 1610,-132.5 1481,-132.5"/>
<text text-anchor="start" x="1489" y="-150.5" font-family="Helvetica,sans-Serif" font-size="10.00" fill="#000000">PcieBackendTestSuite</text>
<text text-anchor="middle" x="1545.5" y="-139.5" font-family="Helvetica,sans-Serif" font-size="10.00" fill="#000000">::PcieBackendTestSuite</text>
</a>
</g>
</g>
<!-- Node82&#45;&gt;Node83 -->
<g id="edge42" class="edge">
<title>Node82&#45;&gt;Node83</title>
<path fill="none" stroke="#191970" d="M1399.7145,-180.2608C1426.099,-174.3317 1455.3606,-167.7561 1480.7023,-162.0613"/>
<polygon fill="#191970" stroke="#191970" points="1398.7466,-176.8909 1389.7573,-182.4984 1400.2814,-183.7206 1398.7466,-176.8909"/>
</g>
<!-- Node86 -->
<g id="node38" class="node">
<title>Node86</title>
<g id="a_node38"><a xlink:href="test_utilities_8cpp.html#a0b5be493b7aedc390f30eec5f5e687c7" target="_top" xlink:title="BOOST_AUTO_TEST_CASE">
<polygon fill="#ffffff" stroke="#000000" points="1047.5,-300 1047.5,-319 1190.5,-319 1190.5,-300 1047.5,-300"/>
<text text-anchor="middle" x="1119" y="-307" font-family="Helvetica,sans-Serif" font-size="10.00" fill="#000000">BOOST_AUTO_TEST_CASE</text>
</a>
</g>
</g>
<!-- Node85&#45;&gt;Node86 -->
<g id="edge45" class="edge">
<title>Node85&#45;&gt;Node86</title>
<path fill="none" stroke="#191970" d="M993.682,-309.5C1011.0303,-309.5 1029.7466,-309.5 1047.2904,-309.5"/>
<polygon fill="#191970" stroke="#191970" points="993.645,-306.0001 983.6449,-309.5 993.6449,-313.0001 993.645,-306.0001"/>
</g>
<!-- Node87&#45;&gt;Node58 -->
<g id="edge47" class="edge">
<title>Node87&#45;&gt;Node58</title>
<path fill="none" stroke="#191970" d="M570.4854,-218.2419C594.999,-212.782 621.8796,-206.795 645.6253,-201.5062"/>
<polygon fill="#191970" stroke="#191970" points="569.5023,-214.875 560.5024,-220.4654 571.0241,-221.7076 569.5023,-214.875"/>
</g>
<!-- Node88&#45;&gt;Node87 -->
<g id="edge51" class="edge">
<title>Node88&#45;&gt;Node87</title>
<path fill="none" stroke="#191970" d="M352.4288,-203.7581C376.6081,-209.218 403.1222,-215.205 426.544,-220.4938"/>
<polygon fill="#191970" stroke="#191970" points="353.1072,-200.3233 342.5819,-201.5346 351.5653,-207.1513 353.1072,-200.3233"/>
</g>
<!-- Node89 -->
<g id="node41" class="node">
<title>Node89</title>
<g id="a_node41"><a xlink:href="class_chimera_t_k_1_1_d_map_file_parser.html#ac4e96383171637a155abc9a61dd453e2" target="_top" xlink:title="ChimeraTK::DMapFileParser\l::parseForLoadLib">
<polygon fill="#ffffff" stroke="#000000" points="417.5,-171.5 417.5,-201.5 568.5,-201.5 568.5,-171.5 417.5,-171.5"/>
<text text-anchor="start" x="425.5" y="-189.5" font-family="Helvetica,sans-Serif" font-size="10.00" fill="#000000">ChimeraTK::DMapFileParser</text>
<text text-anchor="middle" x="493" y="-178.5" font-family="Helvetica,sans-Serif" font-size="10.00" fill="#000000">::parseForLoadLib</text>
</a>
</g>
</g>
<!-- Node88&#45;&gt;Node89 -->
<g id="edge49" class="edge">
<title>Node88&#45;&gt;Node89</title>
<path fill="none" stroke="#191970" d="M361.6903,-186.5C380.0631,-186.5 399.3499,-186.5 417.3122,-186.5"/>
<polygon fill="#191970" stroke="#191970" points="361.5915,-183.0001 351.5914,-186.5 361.5914,-190.0001 361.5915,-183.0001"/>
</g>
<!-- Node89&#45;&gt;Node58 -->
<g id="edge50" class="edge">
<title>Node89&#45;&gt;Node58</title>
<path fill="none" stroke="#191970" d="M578.9516,-186.5C598.1557,-186.5 618.3879,-186.5 637.1489,-186.5"/>
<polygon fill="#191970" stroke="#191970" points="578.7116,-183.0001 568.7115,-186.5 578.7115,-190.0001 578.7116,-183.0001"/>
</g>
<!-- Node91 -->
<g id="node43" class="node">
<title>Node91</title>
<g id="a_node43"><a xlink:href="class_parser_utilities_test_suite.html#a7eef37d508c02351985915f4316d4d4f" target="_top" xlink:title="ParserUtilitiesTestSuite\l::ParserUtilitiesTestSuite">
<polygon fill="#ffffff" stroke="#000000" points="425.5,-45.5 425.5,-75.5 560.5,-75.5 560.5,-45.5 425.5,-45.5"/>
<text text-anchor="start" x="433.5" y="-63.5" font-family="Helvetica,sans-Serif" font-size="10.00" fill="#000000">ParserUtilitiesTestSuite</text>
<text text-anchor="middle" x="493" y="-52.5" font-family="Helvetica,sans-Serif" font-size="10.00" fill="#000000">::ParserUtilitiesTestSuite</text>
</a>
</g>
</g>
<!-- Node90&#45;&gt;Node91 -->
<g id="edge54" class="edge">
<title>Node90&#45;&gt;Node91</title>
<path fill="none" stroke="#191970" d="M350.7304,-60.5C374.9494,-60.5 401.6618,-60.5 425.3369,-60.5"/>
<polygon fill="#191970" stroke="#191970" points="350.5197,-57.0001 340.5196,-60.5 350.5196,-64.0001 350.5197,-57.0001"/>
</g>
</g>
</svg>
