<?xml version="1.0" encoding="UTF-8" standalone="no"?>
<!DOCTYPE svg PUBLIC "-//W3C//DTD SVG 1.1//EN"
 "http://www.w3.org/Graphics/SVG/1.1/DTD/svg11.dtd">
<!-- Generated by graphviz version 2.40.1 (20161225.0304)
 -->
<!-- Title: xml_parser::analyseNode Pages: 1 -->
<svg width="518pt" height="66pt"
 viewBox="0.00 0.00 518.00 66.00" xmlns="http://www.w3.org/2000/svg" xmlns:xlink="http://www.w3.org/1999/xlink">
<g id="graph0" class="graph" transform="scale(1 1) rotate(0) translate(4 62)">
<title>xml_parser::analyseNode</title>
<polygon fill="#ffffff" stroke="transparent" points="-4,4 -4,-62 514,-62 514,4 -4,4"/>
<!-- Node7 -->
<g id="node1" class="node">
<title>Node7</title>
<polygon fill="#bfbfbf" stroke="#000000" points="0,-19.5 0,-38.5 141,-38.5 141,-19.5 0,-19.5"/>
<text text-anchor="middle" x="70.5" y="-26.5" font-family="Helvetica,sans-Serif" font-size="10.00" fill="#000000">xml_parser::analyseNode</text>
</g>
<!-- Node8 -->
<g id="node2" class="node">
<title>Node8</title>
<g id="a_node2"><a xlink:href="namespacexml__parser.html#aa08f028a54b7fb0049d8e3a61d2c9258" target="_top" xlink:title="Create a ChimeraTK Accessor and put it in the according list. ">
<polygon fill="#ffffff" stroke="#000000" points="177,-19.5 177,-38.5 313,-38.5 313,-19.5 177,-19.5"/>
<text text-anchor="middle" x="245" y="-26.5" font-family="Helvetica,sans-Serif" font-size="10.00" fill="#000000">xml_parser::addElement</text>
</a>
</g>
</g>
<!-- Node7&#45;&gt;Node8 -->
<g id="edge1" class="edge">
<title>Node7&#45;&gt;Node8</title>
<path fill="none" stroke="#191970" d="M151.4652,-29C159.9106,-29 168.435,-29 176.7195,-29"/>
<polygon fill="#191970" stroke="#191970" points="151.2243,-25.5001 141.2243,-29 151.2242,-32.5001 151.2243,-25.5001"/>
</g>
<!-- Node9 -->
<g id="node3" class="node">
<title>Node9</title>
<g id="a_node3"><a xlink:href="struct_template_group.html#a43be3e6a64004d83d4fee0925934d7fb" target="_top" xlink:title="TemplateGroup::addElement">
<polygon fill="#ffffff" stroke="#000000" points="352,-38.5 352,-57.5 507,-57.5 507,-38.5 352,-38.5"/>
<text text-anchor="middle" x="429.5" y="-45.5" font-family="Helvetica,sans-Serif" font-size="10.00" fill="#000000">TemplateGroup::addElement</text>
</a>
</g>
</g>
<!-- Node8&#45;&gt;Node9 -->
<g id="edge2" class="edge">
<title>Node8&#45;&gt;Node9</title>
<path fill="none" stroke="#191970" d="M323.3556,-37.0691C332.8264,-38.0445 342.4971,-39.0404 351.9561,-40.0144"/>
<polygon fill="#191970" stroke="#191970" points="323.4828,-33.5638 313.1768,-36.0209 322.7656,-40.527 323.4828,-33.5638"/>
</g>
<!-- Node10 -->
<g id="node4" class="node">
<title>Node10</title>
<g id="a_node4"><a xlink:href="struct_template_module.html#a5880cd11cdab611ada07b3101d47f984" target="_top" xlink:title="TemplateModule::addElement">
<polygon fill="#ffffff" stroke="#000000" points="349,-.5 349,-19.5 510,-19.5 510,-.5 349,-.5"/>
<text text-anchor="middle" x="429.5" y="-7.5" font-family="Helvetica,sans-Serif" font-size="10.00" fill="#000000">TemplateModule::addElement</text>
</a>
</g>
</g>
<!-- Node8&#45;&gt;Node10 -->
<g id="edge3" class="edge">
<title>Node8&#45;&gt;Node10</title>
<path fill="none" stroke="#191970" d="M323.3532,-20.9311C331.7762,-20.0637 340.3575,-19.18 348.8073,-18.3098"/>
<polygon fill="#191970" stroke="#191970" points="322.7656,-17.473 313.1768,-21.9791 323.4828,-24.4362 322.7656,-17.473"/>
</g>
</g>
</svg>
