<?xml version="1.0" encoding="UTF-8" standalone="no"?>
<!DOCTYPE svg PUBLIC "-//W3C//DTD SVG 1.1//EN"
 "http://www.w3.org/Graphics/SVG/1.1/DTD/svg11.dtd">
<!-- Generated by graphviz version 2.40.1 (20161225.0304)
 -->
<!-- Title: src/DoocsSpectrum.cc Pages: 1 -->
<svg width="1042pt" height="207pt"
 viewBox="0.00 0.00 1041.50 207.00" xmlns="http://www.w3.org/2000/svg" xmlns:xlink="http://www.w3.org/1999/xlink">
<g id="graph0" class="graph" transform="scale(1 1) rotate(0) translate(4 203)">
<title>src/DoocsSpectrum.cc</title>
<polygon fill="#ffffff" stroke="transparent" points="-4,4 -4,-203 1037.5,-203 1037.5,4 -4,4"/>
<!-- Node0 -->
<g id="node1" class="node">
<title>Node0</title>
<polygon fill="#bfbfbf" stroke="#000000" points="652,-179.5 652,-198.5 776,-198.5 776,-179.5 652,-179.5"/>
<text text-anchor="middle" x="714" y="-186.5" font-family="Helvetica,sans-Serif" font-size="10.00" fill="#000000">src/DoocsSpectrum.cc</text>
</g>
<!-- Node1 -->
<g id="node2" class="node">
<title>Node1</title>
<g id="a_node2"><a xlink:href="_doocs_spectrum_8h.html" target="_top" xlink:title="DoocsSpectrum.h">
<polygon fill="#ffffff" stroke="#000000" points="244,-118 244,-137 346,-137 346,-118 244,-118"/>
<text text-anchor="middle" x="295" y="-125" font-family="Helvetica,sans-Serif" font-size="10.00" fill="#000000">DoocsSpectrum.h</text>
</a>
</g>
</g>
<!-- Node0&#45;&gt;Node1 -->
<g id="edge1" class="edge">
<title>Node0&#45;&gt;Node1</title>
<path fill="none" stroke="#191970" d="M651.7239,-179.8592C572.1995,-168.1868 435.4468,-148.1145 356.3632,-136.5068"/>
<polygon fill="#191970" stroke="#191970" points="356.4726,-132.9854 346.0703,-134.996 355.456,-139.9112 356.4726,-132.9854"/>
</g>
<!-- Node6 -->
<g id="node7" class="node">
<title>Node6</title>
<polygon fill="#ffffff" stroke="#bfbfbf" points="560,-.5 560,-19.5 616,-19.5 616,-.5 560,-.5"/>
<text text-anchor="middle" x="588" y="-7.5" font-family="Helvetica,sans-Serif" font-size="10.00" fill="#000000">eq_fct.h</text>
</g>
<!-- Node0&#45;&gt;Node6 -->
<g id="edge12" class="edge">
<title>Node0&#45;&gt;Node6</title>
<path fill="none" stroke="#191970" d="M702.9968,-179.2667C693.5779,-170.4969 680.1307,-156.8832 671,-143 647.8147,-107.7468 656.584,-90.9877 633,-56 625.733,-45.2192 615.7737,-34.734 607.0716,-26.5037"/>
<polygon fill="#191970" stroke="#191970" points="609.2921,-23.7917 599.5466,-19.6353 604.573,-28.9619 609.2921,-23.7917"/>
</g>
<!-- Node11 -->
<g id="node12" class="node">
<title>Node11</title>
<polygon fill="#ffffff" stroke="#bfbfbf" points="680,-118 680,-137 872,-137 872,-118 680,-118"/>
<text text-anchor="middle" x="776" y="-125" font-family="Helvetica,sans-Serif" font-size="10.00" fill="#000000">ChimeraTK/OneDRegisterAccessor.h</text>
</g>
<!-- Node0&#45;&gt;Node11 -->
<g id="edge13" class="edge">
<title>Node0&#45;&gt;Node11</title>
<path fill="none" stroke="#191970" d="M723.6875,-179.3906C733.0959,-170.0581 747.5807,-155.6902 758.9249,-144.4374"/>
<polygon fill="#191970" stroke="#191970" points="761.5411,-146.7722 766.1759,-137.2449 756.6114,-141.8024 761.5411,-146.7722"/>
</g>
<!-- Node12 -->
<g id="node13" class="node">
<title>Node12</title>
<polygon fill="#ffffff" stroke="#bfbfbf" points="890.5,-112.5 890.5,-142.5 1033.5,-142.5 1033.5,-112.5 890.5,-112.5"/>
<text text-anchor="start" x="898.5" y="-130.5" font-family="Helvetica,sans-Serif" font-size="10.00" fill="#000000">ChimeraTK/ScalarRegister</text>
<text text-anchor="middle" x="962" y="-119.5" font-family="Helvetica,sans-Serif" font-size="10.00" fill="#000000">Accessor.h</text>
</g>
<!-- Node0&#45;&gt;Node12 -->
<g id="edge14" class="edge">
<title>Node0&#45;&gt;Node12</title>
<path fill="none" stroke="#191970" d="M752.4779,-179.4581C789.4893,-170.2799 846.3202,-156.1867 891.4606,-144.9926"/>
<polygon fill="#191970" stroke="#191970" points="892.3324,-148.3825 901.196,-142.5784 890.6475,-141.5883 892.3324,-148.3825"/>
</g>
<!-- Node2 -->
<g id="node3" class="node">
<title>Node2</title>
<polygon fill="#ffffff" stroke="#bfbfbf" points="42,-56.5 42,-75.5 126,-75.5 126,-56.5 42,-56.5"/>
<text text-anchor="middle" x="84" y="-63.5" font-family="Helvetica,sans-Serif" font-size="10.00" fill="#000000">D_spectrum.h</text>
</g>
<!-- Node1&#45;&gt;Node2 -->
<g id="edge2" class="edge">
<title>Node1&#45;&gt;Node2</title>
<path fill="none" stroke="#191970" d="M262.0313,-117.8906C225.4883,-107.2395 166.4429,-90.0296 126.465,-78.3772"/>
<polygon fill="#191970" stroke="#191970" points="127.3172,-74.98 116.7372,-75.5419 125.3583,-81.7004 127.3172,-74.98"/>
</g>
<!-- Node3 -->
<g id="node4" class="node">
<title>Node3</title>
<polygon fill="#ffffff" stroke="#bfbfbf" points="0,-.5 0,-19.5 130,-19.5 130,-.5 0,-.5"/>
<text text-anchor="middle" x="65" y="-7.5" font-family="Helvetica,sans-Serif" font-size="10.00" fill="#000000">boost/noncopyable.hpp</text>
</g>
<!-- Node1&#45;&gt;Node3 -->
<g id="edge3" class="edge">
<title>Node1&#45;&gt;Node3</title>
<path fill="none" stroke="#191970" d="M269.2617,-117.9262C244.2173,-108.3116 205.3201,-92.5802 173,-76 142.5487,-60.3785 109.1744,-39.3354 87.7053,-25.2499"/>
<polygon fill="#191970" stroke="#191970" points="89.548,-22.2724 79.2764,-19.6754 85.6865,-28.111 89.548,-22.2724"/>
</g>
<!-- Node4 -->
<g id="node5" class="node">
<title>Node4</title>
<g id="a_node5"><a xlink:href="_doocs_updater_8h.html" target="_top" xlink:title="DoocsUpdater.h">
<polygon fill="#ffffff" stroke="#000000" points="182,-56.5 182,-75.5 276,-75.5 276,-56.5 182,-56.5"/>
<text text-anchor="middle" x="229" y="-63.5" font-family="Helvetica,sans-Serif" font-size="10.00" fill="#000000">DoocsUpdater.h</text>
</a>
</g>
</g>
<!-- Node1&#45;&gt;Node4 -->
<g id="edge4" class="edge">
<title>Node1&#45;&gt;Node4</title>
<path fill="none" stroke="#191970" d="M284.6875,-117.8906C274.5758,-108.4683 258.9558,-93.9134 246.8293,-82.6137"/>
<polygon fill="#191970" stroke="#191970" points="249.1601,-80.0015 239.4579,-75.7449 244.388,-85.1228 249.1601,-80.0015"/>
</g>
<!-- Node9 -->
<g id="node10" class="node">
<title>Node9</title>
<g id="a_node10"><a xlink:href="split_string_at_first_slash_8h.html" target="_top" xlink:title="splitStringAtFirstSlash.h">
<polygon fill="#ffffff" stroke="#000000" points="294,-56.5 294,-75.5 426,-75.5 426,-56.5 294,-56.5"/>
<text text-anchor="middle" x="360" y="-63.5" font-family="Helvetica,sans-Serif" font-size="10.00" fill="#000000">splitStringAtFirstSlash.h</text>
</a>
</g>
</g>
<!-- Node1&#45;&gt;Node9 -->
<g id="edge10" class="edge">
<title>Node1&#45;&gt;Node9</title>
<path fill="none" stroke="#191970" d="M305.1563,-117.8906C315.0199,-108.5581 330.2055,-94.1902 342.0987,-82.9374"/>
<polygon fill="#191970" stroke="#191970" points="344.8421,-85.1601 349.7006,-75.7449 340.0311,-80.0753 344.8421,-85.1601"/>
</g>
<!-- Node10 -->
<g id="node11" class="node">
<title>Node10</title>
<polygon fill="#ffffff" stroke="#bfbfbf" points="444,-56.5 444,-75.5 624,-75.5 624,-56.5 444,-56.5"/>
<text text-anchor="middle" x="534" y="-63.5" font-family="Helvetica,sans-Serif" font-size="10.00" fill="#000000">ChimeraTK/NDRegisterAccessor.h</text>
</g>
<!-- Node1&#45;&gt;Node10 -->
<g id="edge11" class="edge">
<title>Node1&#45;&gt;Node10</title>
<path fill="none" stroke="#191970" d="M332.0815,-117.9581C373.7698,-107.2308 441.5497,-89.7895 486.9384,-78.11"/>
<polygon fill="#191970" stroke="#191970" points="488.0192,-81.446 496.8315,-75.5643 486.2747,-74.6668 488.0192,-81.446"/>
</g>
<!-- Node4&#45;&gt;Node3 -->
<g id="edge6" class="edge">
<title>Node4&#45;&gt;Node3</title>
<path fill="none" stroke="#191970" d="M200.8074,-56.3733C173.6547,-47.1016 132.4093,-33.0178 102.4975,-22.804"/>
<polygon fill="#191970" stroke="#191970" points="103.4192,-19.4204 92.8247,-19.5011 101.1572,-26.0449 103.4192,-19.4204"/>
</g>
<!-- Node5 -->
<g id="node6" class="node">
<title>Node5</title>
<polygon fill="#ffffff" stroke="#bfbfbf" points="148,-.5 148,-19.5 310,-19.5 310,-.5 148,-.5"/>
<text text-anchor="middle" x="229" y="-7.5" font-family="Helvetica,sans-Serif" font-size="10.00" fill="#000000">ChimeraTK/TransferElement.h</text>
</g>
<!-- Node4&#45;&gt;Node5 -->
<g id="edge5" class="edge">
<title>Node4&#45;&gt;Node5</title>
<path fill="none" stroke="#191970" d="M229,-56.2455C229,-48.9382 229,-38.6944 229,-29.7046"/>
<polygon fill="#191970" stroke="#191970" points="232.5001,-29.6426 229,-19.6427 225.5001,-29.6427 232.5001,-29.6426"/>
</g>
<!-- Node4&#45;&gt;Node6 -->
<g id="edge7" class="edge">
<title>Node4&#45;&gt;Node6</title>
<path fill="none" stroke="#191970" d="M276.0385,-57.5086C279.0697,-56.9898 282.0768,-56.4828 285,-56 380.1331,-40.2874 492.4153,-23.7693 549.8946,-15.4599"/>
<polygon fill="#191970" stroke="#191970" points="550.5753,-18.898 559.9731,-14.0059 549.5757,-11.9697 550.5753,-18.898"/>
</g>
<!-- Node7 -->
<g id="node8" class="node">
<title>Node7</title>
<polygon fill="#ffffff" stroke="#bfbfbf" points="328,-.5 328,-19.5 366,-19.5 366,-.5 328,-.5"/>
<text text-anchor="middle" x="347" y="-7.5" font-family="Helvetica,sans-Serif" font-size="10.00" fill="#000000">map</text>
</g>
<!-- Node4&#45;&gt;Node7 -->
<g id="edge8" class="edge">
<title>Node4&#45;&gt;Node7</title>
<path fill="none" stroke="#191970" d="M249.2849,-56.3733C268.3706,-47.3156 297.1335,-33.6655 318.5169,-23.5174"/>
<polygon fill="#191970" stroke="#191970" points="320.2275,-26.5798 327.7612,-19.1303 317.2263,-20.2558 320.2275,-26.5798"/>
</g>
<!-- Node8 -->
<g id="node9" class="node">
<title>Node8</title>
<polygon fill="#ffffff" stroke="#bfbfbf" points="384.5,-.5 384.5,-19.5 477.5,-19.5 477.5,-.5 384.5,-.5"/>
<text text-anchor="middle" x="431" y="-7.5" font-family="Helvetica,sans-Serif" font-size="10.00" fill="#000000">unordered_map</text>
</g>
<!-- Node4&#45;&gt;Node8 -->
<g id="edge9" class="edge">
<title>Node4&#45;&gt;Node8</title>
<path fill="none" stroke="#191970" d="M263.725,-56.3733C297.7508,-46.9404 349.7437,-32.5265 386.7234,-22.2747"/>
<polygon fill="#191970" stroke="#191970" points="388.0266,-25.5455 396.7281,-19.5011 386.1565,-18.7999 388.0266,-25.5455"/>
</g>
</g>
</svg>
