<?xml version="1.0" encoding="UTF-8" standalone="no"?>
<!DOCTYPE svg PUBLIC "-//W3C//DTD SVG 1.1//EN"
 "http://www.w3.org/Graphics/SVG/1.1/DTD/svg11.dtd">
<!-- Generated by graphviz version 2.40.1 (20161225.0304)
 -->
<!-- Title: src/Application.cc Pages: 1 -->
<svg width="2796pt" height="643pt"
 viewBox="0.00 0.00 2795.50 643.00" xmlns="http://www.w3.org/2000/svg" xmlns:xlink="http://www.w3.org/1999/xlink">
<g id="graph0" class="graph" transform="scale(1 1) rotate(0) translate(4 639)">
<title>src/Application.cc</title>
<polygon fill="#ffffff" stroke="transparent" points="-4,4 -4,-639 2791.5,-639 2791.5,4 -4,4"/>
<!-- Node0 -->
<g id="node1" class="node">
<title>Node0</title>
<polygon fill="#bfbfbf" stroke="#000000" points="1731.5,-615.5 1731.5,-634.5 1833.5,-634.5 1833.5,-615.5 1731.5,-615.5"/>
<text text-anchor="middle" x="1782.5" y="-622.5" font-family="Helvetica,sans-Serif" font-size="10.00" fill="#000000">src/Application.cc</text>
</g>
<!-- Node1 -->
<g id="node2" class="node">
<title>Node1</title>
<polygon fill="#ffffff" stroke="#bfbfbf" points="0,-554 0,-573 65,-573 65,-554 0,-554"/>
<text text-anchor="middle" x="32.5" y="-561" font-family="Helvetica,sans-Serif" font-size="10.00" fill="#000000">exception</text>
</g>
<!-- Node0&#45;&gt;Node1 -->
<g id="edge1" class="edge">
<title>Node0&#45;&gt;Node1</title>
<path fill="none" stroke="#191970" d="M1731.1574,-624.6378C1464.0698,-622.6168 239.4106,-611.6268 73.5,-579 70.2146,-578.3539 66.8474,-577.4721 63.5236,-576.4545"/>
<polygon fill="#191970" stroke="#191970" points="64.402,-573.055 53.8073,-573.0951 62.1146,-579.6707 64.402,-573.055"/>
</g>
<!-- Node2 -->
<g id="node3" class="node">
<title>Node2</title>
<polygon fill="#ffffff" stroke="#bfbfbf" points="83,-554 83,-573 138,-573 138,-554 83,-554"/>
<text text-anchor="middle" x="110.5" y="-561" font-family="Helvetica,sans-Serif" font-size="10.00" fill="#000000">fstream</text>
</g>
<!-- Node0&#45;&gt;Node2 -->
<g id="edge2" class="edge">
<title>Node0&#45;&gt;Node2</title>
<path fill="none" stroke="#191970" d="M1731.4182,-624.5444C1472.4139,-622.1018 310.4144,-609.5138 152.5,-579 149.0373,-578.3309 145.4827,-577.4121 141.9774,-576.353"/>
<polygon fill="#191970" stroke="#191970" points="142.9413,-572.9842 132.347,-573.088 140.6937,-579.6135 142.9413,-572.9842"/>
</g>
<!-- Node3 -->
<g id="node4" class="node">
<title>Node3</title>
<polygon fill="#ffffff" stroke="#bfbfbf" points="848.5,-123.5 848.5,-142.5 892.5,-142.5 892.5,-123.5 848.5,-123.5"/>
<text text-anchor="middle" x="870.5" y="-130.5" font-family="Helvetica,sans-Serif" font-size="10.00" fill="#000000">string</text>
</g>
<!-- Node0&#45;&gt;Node3 -->
<g id="edge3" class="edge">
<title>Node0&#45;&gt;Node3</title>
<path fill="none" stroke="#191970" d="M1731.285,-623.7099C1543.7405,-618.8513 894.6749,-600.8174 688.5,-579 471.4979,-556.0369 204.5,-714.7137 204.5,-496.5 204.5,-496.5 204.5,-496.5 204.5,-250.5 204.5,-212.7137 218.0242,-198.3164 250.5,-179 301.2645,-148.8056 718.508,-136.6155 838.3978,-133.716"/>
<polygon fill="#191970" stroke="#191970" points="838.5079,-137.2145 848.4222,-133.4787 838.3422,-130.2165 838.5079,-137.2145"/>
</g>
<!-- Node4 -->
<g id="node5" class="node">
<title>Node4</title>
<polygon fill="#ffffff" stroke="#bfbfbf" points="1545.5,-179.5 1545.5,-198.5 1593.5,-198.5 1593.5,-179.5 1545.5,-179.5"/>
<text text-anchor="middle" x="1569.5" y="-186.5" font-family="Helvetica,sans-Serif" font-size="10.00" fill="#000000">thread</text>
</g>
<!-- Node0&#45;&gt;Node4 -->
<g id="edge4" class="edge">
<title>Node0&#45;&gt;Node4</title>
<path fill="none" stroke="#191970" d="M1833.656,-623.189C1952.1306,-618.5738 2237.8979,-604.8677 2272.5,-579 2304.1298,-555.3544 2305.5,-535.9912 2305.5,-496.5 2305.5,-496.5 2305.5,-496.5 2305.5,-435 2305.5,-313.6121 2229.0353,-287.3166 2119.5,-235 2018.3182,-186.6733 1731.4416,-218.0719 1603.8651,-198.7332"/>
<polygon fill="#191970" stroke="#191970" points="1604.3,-195.2572 1593.8576,-197.0478 1603.1375,-202.16 1604.3,-195.2572"/>
</g>
<!-- Node5 -->
<g id="node6" class="node">
<title>Node5</title>
<polygon fill="#ffffff" stroke="#bfbfbf" points="2486,-548.5 2486,-578.5 2611,-578.5 2611,-548.5 2486,-548.5"/>
<text text-anchor="start" x="2494" y="-566.5" font-family="Helvetica,sans-Serif" font-size="10.00" fill="#000000">boost/fusion/container</text>
<text text-anchor="middle" x="2548.5" y="-555.5" font-family="Helvetica,sans-Serif" font-size="10.00" fill="#000000">/map.hpp</text>
</g>
<!-- Node0&#45;&gt;Node5 -->
<g id="edge5" class="edge">
<title>Node0&#45;&gt;Node5</title>
<path fill="none" stroke="#191970" d="M1833.7266,-623.8897C1948.4245,-620.8993 2234.432,-610.6339 2471.5,-579 2472.7925,-578.8275 2474.0959,-578.6463 2475.4075,-578.4573"/>
<polygon fill="#191970" stroke="#191970" points="2476.2412,-581.8696 2485.5817,-576.8689 2475.1615,-574.9534 2476.2412,-581.8696"/>
</g>
<!-- Node6 -->
<g id="node7" class="node">
<title>Node6</title>
<polygon fill="#ffffff" stroke="#bfbfbf" points="2629.5,-554 2629.5,-573 2787.5,-573 2787.5,-554 2629.5,-554"/>
<text text-anchor="middle" x="2708.5" y="-561" font-family="Helvetica,sans-Serif" font-size="10.00" fill="#000000">ChimeraTK/BackendFactory.h</text>
</g>
<!-- Node0&#45;&gt;Node6 -->
<g id="edge6" class="edge">
<title>Node0&#45;&gt;Node6</title>
<path fill="none" stroke="#191970" d="M1833.6937,-624.3169C1964.901,-622.1056 2323.7635,-613.1535 2620.5,-579 2630.1079,-577.8942 2640.2552,-576.4077 2650.1094,-574.7915"/>
<polygon fill="#191970" stroke="#191970" points="2650.9649,-578.1964 2660.2374,-573.0709 2649.7924,-571.2953 2650.9649,-578.1964"/>
</g>
<!-- Node7 -->
<g id="node8" class="node">
<title>Node7</title>
<g id="a_node8"><a xlink:href="_application_8h.html" target="_top" xlink:title="Application.h">
<polygon fill="#ffffff" stroke="#000000" points="1735.5,-302.5 1735.5,-321.5 1815.5,-321.5 1815.5,-302.5 1735.5,-302.5"/>
<text text-anchor="middle" x="1775.5" y="-309.5" font-family="Helvetica,sans-Serif" font-size="10.00" fill="#000000">Application.h</text>
</a>
</g>
</g>
<!-- Node0&#45;&gt;Node7 -->
<g id="edge7" class="edge">
<title>Node0&#45;&gt;Node7</title>
<path fill="none" stroke="#191970" d="M1833.5387,-623.2786C1948.0446,-618.9507 2217.826,-605.9802 2248.5,-579 2276.7526,-554.1496 2267.5,-534.1265 2267.5,-496.5 2267.5,-496.5 2267.5,-496.5 2267.5,-435 2267.5,-344.6519 1951.2949,-320.1133 1825.8763,-313.9338"/>
<polygon fill="#191970" stroke="#191970" points="1825.9167,-310.4319 1815.7624,-313.4552 1825.5857,-317.4241 1825.9167,-310.4319"/>
</g>
<!-- Node14 -->
<g id="node15" class="node">
<title>Node14</title>
<g id="a_node15"><a xlink:href="_variable_network_node_8h.html" target="_top" xlink:title="VariableNetworkNode.h">
<polygon fill="#ffffff" stroke="#ff0000" points="1451.5,-123.5 1451.5,-142.5 1583.5,-142.5 1583.5,-123.5 1451.5,-123.5"/>
<text text-anchor="middle" x="1517.5" y="-130.5" font-family="Helvetica,sans-Serif" font-size="10.00" fill="#000000">VariableNetworkNode.h</text>
</a>
</g>
</g>
<!-- Node0&#45;&gt;Node14 -->
<g id="edge111" class="edge">
<title>Node0&#45;&gt;Node14</title>
<path fill="none" stroke="#191970" d="M1833.5362,-623.2001C1956.3809,-618.482 2261.2268,-604.3382 2299.5,-579 2334.1502,-556.0603 2343.5,-538.0556 2343.5,-496.5 2343.5,-496.5 2343.5,-496.5 2343.5,-435 2343.5,-332.4642 2309.4024,-297.9951 2228.5,-235 2130.8386,-158.9553 1757.0957,-139.5134 1594.1753,-134.6164"/>
<polygon fill="#191970" stroke="#191970" points="1593.8513,-131.1057 1583.7541,-134.3145 1593.6485,-138.1027 1593.8513,-131.1057"/>
</g>
<!-- Node21 -->
<g id="node16" class="node">
<title>Node21</title>
<g id="a_node16"><a xlink:href="_constant_accessor_8h.html" target="_top" xlink:title="ConstantAccessor.h">
<polygon fill="#ffffff" stroke="#000000" points="786.5,-67.5 786.5,-86.5 898.5,-86.5 898.5,-67.5 786.5,-67.5"/>
<text text-anchor="middle" x="842.5" y="-74.5" font-family="Helvetica,sans-Serif" font-size="10.00" fill="#000000">ConstantAccessor.h</text>
</a>
</g>
</g>
<!-- Node0&#45;&gt;Node21 -->
<g id="edge60" class="edge">
<title>Node0&#45;&gt;Node21</title>
<path fill="none" stroke="#191970" d="M1731.3114,-624.2175C1464.2165,-620.0473 241.4116,-599.8436 208.5,-579 173.7399,-556.9858 166.5,-537.6447 166.5,-496.5 166.5,-496.5 166.5,-496.5 166.5,-189 166.5,-127.6136 605.9621,-92.4065 776.2249,-81.0697"/>
<polygon fill="#191970" stroke="#191970" points="776.5682,-84.5547 786.3165,-80.4047 776.108,-77.5699 776.5682,-84.5547"/>
</g>
<!-- Node26 -->
<g id="node19" class="node">
<title>Node26</title>
<g id="a_node19"><a xlink:href="_visitor_8h.html" target="_top" xlink:title="Visitor.h">
<polygon fill="#ffffff" stroke="#000000" points="2353.5,-67.5 2353.5,-86.5 2409.5,-86.5 2409.5,-67.5 2353.5,-67.5"/>
<text text-anchor="middle" x="2381.5" y="-74.5" font-family="Helvetica,sans-Serif" font-size="10.00" fill="#000000">Visitor.h</text>
</a>
</g>
</g>
<!-- Node0&#45;&gt;Node26 -->
<g id="edge112" class="edge">
<title>Node0&#45;&gt;Node26</title>
<path fill="none" stroke="#191970" d="M1833.5758,-624.0109C1970.2549,-620.9569 2337.0343,-609.9392 2381.5,-579 2414.6371,-555.9433 2419.5,-536.8693 2419.5,-496.5 2419.5,-496.5 2419.5,-496.5 2419.5,-435 2419.5,-320.2231 2488.2219,-288.3989 2453.5,-179 2442.7133,-145.0142 2416.0599,-112.589 2398.3849,-93.7517"/>
<polygon fill="#191970" stroke="#191970" points="2400.8943,-91.3118 2391.4321,-86.5456 2395.8568,-96.1722 2400.8943,-91.3118"/>
</g>
<!-- Node35 -->
<g id="node23" class="node">
<title>Node35</title>
<g id="a_node23"><a xlink:href="_application_module_8h.html" target="_top" xlink:title="ApplicationModule.h">
<polygon fill="#ffffff" stroke="#000000" points="643.5,-425.5 643.5,-444.5 759.5,-444.5 759.5,-425.5 643.5,-425.5"/>
<text text-anchor="middle" x="701.5" y="-432.5" font-family="Helvetica,sans-Serif" font-size="10.00" fill="#000000">ApplicationModule.h</text>
</a>
</g>
</g>
<!-- Node0&#45;&gt;Node35 -->
<g id="edge36" class="edge">
<title>Node0&#45;&gt;Node35</title>
<path fill="none" stroke="#191970" d="M1731.3324,-624.0986C1531.6722,-620.3977 813.9786,-605.3098 773.5,-579 729.6856,-550.522 711.4662,-486.8381 704.8256,-454.5586"/>
<polygon fill="#191970" stroke="#191970" points="708.2322,-453.7363 702.9366,-444.5598 701.3539,-455.0358 708.2322,-453.7363"/>
</g>
<!-- Node43 -->
<g id="node29" class="node">
<title>Node43</title>
<g id="a_node29"><a xlink:href="_array_accessor_8h.html" target="_top" xlink:title="ArrayAccessor.h">
<polygon fill="#ffffff" stroke="#000000" points="612,-364 612,-383 707,-383 707,-364 612,-364"/>
<text text-anchor="middle" x="659.5" y="-371" font-family="Helvetica,sans-Serif" font-size="10.00" fill="#000000">ArrayAccessor.h</text>
</a>
</g>
</g>
<!-- Node0&#45;&gt;Node43 -->
<g id="edge48" class="edge">
<title>Node0&#45;&gt;Node43</title>
<path fill="none" stroke="#191970" d="M1731.4956,-623.9325C1528.1328,-619.5247 784,-601.8914 739.5,-579 672.2187,-544.3897 659.1839,-516.5217 634.5,-445 628.2358,-426.8494 637.2506,-406.1432 646.1528,-391.7016"/>
<polygon fill="#191970" stroke="#191970" points="649.1832,-393.4661 651.8249,-383.2059 643.3614,-389.5792 649.1832,-393.4661"/>
</g>
<!-- Node47 -->
<g id="node33" class="node">
<title>Node47</title>
<g id="a_node33"><a xlink:href="_consuming_fan_out_8h.html" target="_top" xlink:title="ConsumingFanOut.h">
<polygon fill="#ffffff" stroke="#000000" points="2125.5,-554 2125.5,-573 2239.5,-573 2239.5,-554 2125.5,-554"/>
<text text-anchor="middle" x="2182.5" y="-561" font-family="Helvetica,sans-Serif" font-size="10.00" fill="#000000">ConsumingFanOut.h</text>
</a>
</g>
</g>
<!-- Node0&#45;&gt;Node47 -->
<g id="edge61" class="edge">
<title>Node0&#45;&gt;Node47</title>
<path fill="none" stroke="#191970" d="M1833.697,-619.0657C1898.5671,-611.2659 2013.708,-596.4849 2111.5,-579 2117.8574,-577.8633 2124.511,-576.5615 2131.0883,-575.206"/>
<polygon fill="#191970" stroke="#191970" points="2132.2466,-578.5387 2141.3076,-573.0479 2130.8002,-571.6898 2132.2466,-578.5387"/>
</g>
<!-- Node50 -->
<g id="node36" class="node">
<title>Node50</title>
<g id="a_node36"><a xlink:href="_debug_print_accessor_decorator_8h.html" target="_top" xlink:title="DebugPrintAccessorDecorator.h">
<polygon fill="#ffffff" stroke="#000000" points="1697.5,-554 1697.5,-573 1867.5,-573 1867.5,-554 1697.5,-554"/>
<text text-anchor="middle" x="1782.5" y="-561" font-family="Helvetica,sans-Serif" font-size="10.00" fill="#000000">DebugPrintAccessorDecorator.h</text>
</a>
</g>
</g>
<!-- Node0&#45;&gt;Node50 -->
<g id="edge65" class="edge">
<title>Node0&#45;&gt;Node50</title>
<path fill="none" stroke="#191970" d="M1782.5,-615.3906C1782.5,-606.8657 1782.5,-594.1392 1782.5,-583.4235"/>
<polygon fill="#191970" stroke="#191970" points="1786.0001,-583.2448 1782.5,-573.2449 1779.0001,-583.2449 1786.0001,-583.2448"/>
</g>
<!-- Node51 -->
<g id="node37" class="node">
<title>Node51</title>
<g id="a_node37"><a xlink:href="_device_module_8h.html" target="_top" xlink:title="DeviceModule.h">
<polygon fill="#ffffff" stroke="#000000" points="1227,-487 1227,-506 1322,-506 1322,-487 1227,-487"/>
<text text-anchor="middle" x="1274.5" y="-494" font-family="Helvetica,sans-Serif" font-size="10.00" fill="#000000">DeviceModule.h</text>
</a>
</g>
</g>
<!-- Node0&#45;&gt;Node51 -->
<g id="edge68" class="edge">
<title>Node0&#45;&gt;Node51</title>
<path fill="none" stroke="#191970" d="M1731.3596,-623.6211C1633.4366,-620.3048 1423.4125,-609.7365 1358.5,-579 1327.7404,-564.4351 1301.4596,-533.9178 1286.8433,-514.3597"/>
<polygon fill="#191970" stroke="#191970" points="1289.6694,-512.295 1280.9743,-506.2415 1283.9966,-516.3961 1289.6694,-512.295"/>
</g>
<!-- Node53 -->
<g id="node39" class="node">
<title>Node53</title>
<g id="a_node39"><a xlink:href="_scalar_accessor_8h.html" target="_top" xlink:title="ScalarAccessor.h">
<polygon fill="#ffffff" stroke="#ff0000" points="808.5,-364 808.5,-383 906.5,-383 906.5,-364 808.5,-364"/>
<text text-anchor="middle" x="857.5" y="-371" font-family="Helvetica,sans-Serif" font-size="10.00" fill="#000000">ScalarAccessor.h</text>
</a>
</g>
</g>
<!-- Node0&#45;&gt;Node53 -->
<g id="edge94" class="edge">
<title>Node0&#45;&gt;Node53</title>
<path fill="none" stroke="#191970" d="M1731.425,-622.9185C1644.8124,-618.7375 1463.8745,-607.1834 1313.5,-579 1096.2209,-538.2772 968.1096,-621.1165 834.5,-445 822.5096,-429.195 832.8944,-406.9226 843.2941,-391.4521"/>
<polygon fill="#191970" stroke="#191970" points="846.2183,-393.3815 849.2501,-383.2297 840.5493,-389.2751 846.2183,-393.3815"/>
</g>
<!-- Node59 -->
<g id="node44" class="node">
<title>Node59</title>
<g id="a_node44"><a xlink:href="_feeding_fan_out_8h.html" target="_top" xlink:title="FeedingFanOut.h">
<polygon fill="#ffffff" stroke="#ff0000" points="2104,-487 2104,-506 2201,-506 2201,-487 2104,-487"/>
<text text-anchor="middle" x="2152.5" y="-494" font-family="Helvetica,sans-Serif" font-size="10.00" fill="#000000">FeedingFanOut.h</text>
</a>
</g>
</g>
<!-- Node0&#45;&gt;Node59 -->
<g id="edge92" class="edge">
<title>Node0&#45;&gt;Node59</title>
<path fill="none" stroke="#191970" d="M1833.5934,-621.1429C1906.5488,-614.9475 2036.3089,-601.1741 2077.5,-579 2105.6228,-563.8608 2128.6501,-533.9648 2141.4675,-514.6236"/>
<polygon fill="#191970" stroke="#191970" points="2144.486,-516.3997 2146.9171,-506.0875 2138.5859,-512.6329 2144.486,-516.3997"/>
</g>
<!-- Node60 -->
<g id="node45" class="node">
<title>Node60</title>
<g id="a_node45"><a xlink:href="_testable_mode_accessor_decorator_8h.html" target="_top" xlink:title="TestableModeAccessorDecorator.h">
<polygon fill="#ffffff" stroke="#000000" points="1886,-554 1886,-573 2069,-573 2069,-554 1886,-554"/>
<text text-anchor="middle" x="1977.5" y="-561" font-family="Helvetica,sans-Serif" font-size="10.00" fill="#000000">TestableModeAccessorDecorator.h</text>
</a>
</g>
</g>
<!-- Node0&#45;&gt;Node60 -->
<g id="edge95" class="edge">
<title>Node0&#45;&gt;Node60</title>
<path fill="none" stroke="#191970" d="M1812.9688,-615.3906C1846.4544,-604.8298 1900.3853,-587.8208 1937.312,-576.1747"/>
<polygon fill="#191970" stroke="#191970" points="1938.761,-579.3877 1947.2452,-573.0419 1936.6555,-572.7118 1938.761,-579.3877"/>
</g>
<!-- Node61 -->
<g id="node46" class="node">
<title>Node61</title>
<g id="a_node46"><a xlink:href="_threaded_fan_out_8h.html" target="_top" xlink:title="ThreadedFanOut.h">
<polygon fill="#ffffff" stroke="#ff0000" points="1676,-487 1676,-506 1781,-506 1781,-487 1676,-487"/>
<text text-anchor="middle" x="1728.5" y="-494" font-family="Helvetica,sans-Serif" font-size="10.00" fill="#000000">ThreadedFanOut.h</text>
</a>
</g>
</g>
<!-- Node0&#45;&gt;Node61 -->
<g id="edge99" class="edge">
<title>Node0&#45;&gt;Node61</title>
<path fill="none" stroke="#191970" d="M1731.4756,-620.0485C1655.7291,-612.1772 1520.8652,-595.9576 1506.5,-579 1497.5944,-568.4873 1497.9288,-558.7871 1506.5,-548 1516.5257,-535.3823 1603.7134,-517.9649 1665.7834,-506.9682"/>
<polygon fill="#191970" stroke="#191970" points="1666.654,-510.369 1675.8986,-505.1933 1665.4441,-503.4743 1666.654,-510.369"/>
</g>
<!-- Node62 -->
<g id="node47" class="node">
<title>Node62</title>
<g id="a_node47"><a xlink:href="_trigger_fan_out_8h.html" target="_top" xlink:title="TriggerFanOut.h">
<polygon fill="#ffffff" stroke="#ff0000" points="1367.5,-554 1367.5,-573 1459.5,-573 1459.5,-554 1367.5,-554"/>
<text text-anchor="middle" x="1413.5" y="-561" font-family="Helvetica,sans-Serif" font-size="10.00" fill="#000000">TriggerFanOut.h</text>
</a>
</g>
</g>
<!-- Node0&#45;&gt;Node62 -->
<g id="edge103" class="edge">
<title>Node0&#45;&gt;Node62</title>
<path fill="none" stroke="#191970" d="M1731.363,-619.0583C1669.8459,-611.5263 1563.5938,-597.2905 1473.5,-579 1468.4243,-577.9695 1463.1358,-576.7785 1457.894,-575.5238"/>
<polygon fill="#191970" stroke="#191970" points="1458.4879,-572.0651 1447.9396,-573.0577 1456.8045,-578.8598 1458.4879,-572.0651"/>
</g>
<!-- Node65 -->
<g id="node48" class="node">
<title>Node65</title>
<g id="a_node48"><a xlink:href="_variable_network_graph_dumping_visitor_8h.html" target="_top" xlink:title="VariableNetworkGraphDumping\lVisitor.h">
<polygon fill="#ffffff" stroke="#ff0000" points="2448,-358.5 2448,-388.5 2619,-388.5 2619,-358.5 2448,-358.5"/>
<text text-anchor="start" x="2456" y="-376.5" font-family="Helvetica,sans-Serif" font-size="10.00" fill="#000000">VariableNetworkGraphDumping</text>
<text text-anchor="middle" x="2533.5" y="-365.5" font-family="Helvetica,sans-Serif" font-size="10.00" fill="#000000">Visitor.h</text>
</a>
</g>
</g>
<!-- Node0&#45;&gt;Node65 -->
<g id="edge109" class="edge">
<title>Node0&#45;&gt;Node65</title>
<path fill="none" stroke="#191970" d="M1833.7469,-624.2954C1978.6886,-621.8994 2384.2714,-612.2635 2433.5,-579 2496.0651,-536.725 2520.8726,-443.7378 2529.4844,-398.7991"/>
<polygon fill="#191970" stroke="#191970" points="2532.972,-399.18 2531.2964,-388.7185 2526.0824,-397.9416 2532.972,-399.18"/>
</g>
<!-- Node70 -->
<g id="node49" class="node">
<title>Node70</title>
<g id="a_node49"><a xlink:href="_x_m_l_generator_visitor_8h.html" target="_top" xlink:title="XMLGeneratorVisitor.h">
<polygon fill="#ffffff" stroke="#ff0000" points="2319,-179.5 2319,-198.5 2444,-198.5 2444,-179.5 2319,-179.5"/>
<text text-anchor="middle" x="2381.5" y="-186.5" font-family="Helvetica,sans-Serif" font-size="10.00" fill="#000000">XMLGeneratorVisitor.h</text>
</a>
</g>
</g>
<!-- Node0&#45;&gt;Node70 -->
<g id="edge113" class="edge">
<title>Node0&#45;&gt;Node70</title>
<path fill="none" stroke="#191970" d="M1833.7005,-624.1782C1967.0196,-621.5849 2317.3736,-611.6993 2357.5,-579 2387.1023,-554.8769 2381.5,-534.6867 2381.5,-496.5 2381.5,-496.5 2381.5,-496.5 2381.5,-312 2381.5,-275.4994 2381.5,-232.906 2381.5,-208.6285"/>
<polygon fill="#191970" stroke="#191970" points="2385.0001,-208.5691 2381.5,-198.5691 2378.0001,-208.5692 2385.0001,-208.5691"/>
</g>
<!-- Node72 -->
<g id="node50" class="node">
<title>Node72</title>
<g id="a_node50"><a xlink:href="_exception_handling_decorator_8h.html" target="_top" xlink:title="ExceptionHandlingDecorator.h">
<polygon fill="#ffffff" stroke="#000000" points="1515.5,-554 1515.5,-573 1679.5,-573 1679.5,-554 1515.5,-554"/>
<text text-anchor="middle" x="1597.5" y="-561" font-family="Helvetica,sans-Serif" font-size="10.00" fill="#000000">ExceptionHandlingDecorator.h</text>
</a>
</g>
</g>
<!-- Node0&#45;&gt;Node72 -->
<g id="edge116" class="edge">
<title>Node0&#45;&gt;Node72</title>
<path fill="none" stroke="#191970" d="M1753.5938,-615.3906C1721.961,-604.8749 1671.097,-587.966 1636.0771,-576.3243"/>
<polygon fill="#191970" stroke="#191970" points="1636.7968,-572.8753 1626.2033,-573.0419 1634.5885,-579.5178 1636.7968,-572.8753"/>
</g>
<!-- Node8 -->
<g id="node9" class="node">
<title>Node8</title>
<polygon fill="#ffffff" stroke="#bfbfbf" points="1439.5,-179.5 1439.5,-198.5 1489.5,-198.5 1489.5,-179.5 1439.5,-179.5"/>
<text text-anchor="middle" x="1464.5" y="-186.5" font-family="Helvetica,sans-Serif" font-size="10.00" fill="#000000">atomic</text>
</g>
<!-- Node7&#45;&gt;Node8 -->
<g id="edge8" class="edge">
<title>Node7&#45;&gt;Node8</title>
<path fill="none" stroke="#191970" d="M1768.9173,-302.3919C1756.974,-285.7676 1730.0308,-251.8081 1698.5,-235 1681.1449,-225.7485 1560.6446,-204.8894 1499.6723,-194.75"/>
<polygon fill="#191970" stroke="#191970" points="1500.1569,-191.2827 1489.7195,-193.1022 1499.0135,-198.1887 1500.1569,-191.2827"/>
</g>
<!-- Node9 -->
<g id="node10" class="node">
<title>Node9</title>
<polygon fill="#ffffff" stroke="#bfbfbf" points="1373.5,-179.5 1373.5,-198.5 1421.5,-198.5 1421.5,-179.5 1373.5,-179.5"/>
<text text-anchor="middle" x="1397.5" y="-186.5" font-family="Helvetica,sans-Serif" font-size="10.00" fill="#000000">mutex</text>
</g>
<!-- Node7&#45;&gt;Node9 -->
<g id="edge9" class="edge">
<title>Node7&#45;&gt;Node9</title>
<path fill="none" stroke="#191970" d="M1757.9211,-302.4672C1742.0124,-293.6156 1718.1364,-279.7653 1698.5,-266 1680.6525,-253.4888 1680.4036,-243.8831 1660.5,-235 1568.8766,-194.1079 1533.5175,-220.3545 1431.3177,-198.8645"/>
<polygon fill="#191970" stroke="#191970" points="1432.0661,-195.4455 1421.5469,-196.7088 1430.558,-202.2811 1432.0661,-195.4455"/>
</g>
<!-- Node10 -->
<g id="node11" class="node">
<title>Node10</title>
<polygon fill="#ffffff" stroke="#bfbfbf" points="1926.5,-235.5 1926.5,-265.5 2110.5,-265.5 2110.5,-235.5 1926.5,-235.5"/>
<text text-anchor="start" x="1934.5" y="-253.5" font-family="Helvetica,sans-Serif" font-size="10.00" fill="#000000">ChimeraTK/ControlSystemAdapter</text>
<text text-anchor="middle" x="2018.5" y="-242.5" font-family="Helvetica,sans-Serif" font-size="10.00" fill="#000000">/ApplicationBase.h</text>
</g>
<!-- Node7&#45;&gt;Node10 -->
<g id="edge10" class="edge">
<title>Node7&#45;&gt;Node10</title>
<path fill="none" stroke="#191970" d="M1813.2021,-302.4581C1849.3913,-293.2991 1904.919,-279.2458 1949.1045,-268.0631"/>
<polygon fill="#191970" stroke="#191970" points="1950.0862,-271.425 1958.9218,-265.5784 1948.3687,-264.639 1950.0862,-271.425"/>
</g>
<!-- Node11 -->
<g id="node12" class="node">
<title>Node11</title>
<polygon fill="#ffffff" stroke="#bfbfbf" points="1750.5,-241 1750.5,-260 1908.5,-260 1908.5,-241 1750.5,-241"/>
<text text-anchor="middle" x="1829.5" y="-248" font-family="Helvetica,sans-Serif" font-size="10.00" fill="#000000">ChimeraTK/DeviceBackend.h</text>
</g>
<!-- Node7&#45;&gt;Node11 -->
<g id="edge11" class="edge">
<title>Node7&#45;&gt;Node11</title>
<path fill="none" stroke="#191970" d="M1783.9375,-302.3906C1792.0531,-293.1478 1804.5055,-278.966 1814.3424,-267.7628"/>
<polygon fill="#191970" stroke="#191970" points="1816.9755,-270.0686 1820.9435,-260.2449 1811.7154,-265.45 1816.9755,-270.0686"/>
</g>
<!-- Node12 -->
<g id="node13" class="node">
<title>Node12</title>
<g id="a_node13"><a xlink:href="_entity_owner_8h.html" target="_top" xlink:title="EntityOwner.h">
<polygon fill="#ffffff" stroke="#000000" points="1194,-179.5 1194,-198.5 1279,-198.5 1279,-179.5 1194,-179.5"/>
<text text-anchor="middle" x="1236.5" y="-186.5" font-family="Helvetica,sans-Serif" font-size="10.00" fill="#000000">EntityOwner.h</text>
</a>
</g>
</g>
<!-- Node7&#45;&gt;Node12 -->
<g id="edge12" class="edge">
<title>Node7&#45;&gt;Node12</title>
<path fill="none" stroke="#191970" d="M1742.4627,-302.4381C1718.5882,-294.6802 1686.1603,-282.3511 1660.5,-266 1643.5295,-255.1862 1645.7436,-243.4916 1627.5,-235 1597.501,-221.0367 1389.1596,-201.8772 1289.4493,-193.3724"/>
<polygon fill="#191970" stroke="#191970" points="1289.5442,-189.8679 1279.2841,-192.5101 1288.9525,-196.8429 1289.5442,-189.8679"/>
</g>
<!-- Node23 -->
<g id="node18" class="node">
<title>Node23</title>
<g id="a_node18"><a xlink:href="_flags_8h.html" target="_top" xlink:title="Flags.h">
<polygon fill="#ffffff" stroke="#000000" points="1589,-67.5 1589,-86.5 1640,-86.5 1640,-67.5 1589,-67.5"/>
<text text-anchor="middle" x="1614.5" y="-74.5" font-family="Helvetica,sans-Serif" font-size="10.00" fill="#000000">Flags.h</text>
</a>
</g>
</g>
<!-- Node7&#45;&gt;Node23 -->
<g id="edge21" class="edge">
<title>Node7&#45;&gt;Node23</title>
<path fill="none" stroke="#191970" d="M1815.5337,-309.8503C1905.2954,-304.6217 2116.4561,-289.8872 2137.5,-266 2146.6076,-255.6618 2145.7137,-246.0617 2137.5,-235 2077.5771,-154.2994 1758.4008,-98.9268 1650.315,-82.2577"/>
<polygon fill="#191970" stroke="#191970" points="1650.6502,-78.7684 1640.237,-80.7217 1649.5954,-85.6885 1650.6502,-78.7684"/>
</g>
<!-- Node27 -->
<g id="node20" class="node">
<title>Node27</title>
<g id="a_node20"><a xlink:href="_internal_module_8h.html" target="_top" xlink:title="InternalModule.h">
<polygon fill="#ffffff" stroke="#ff0000" points="1520.5,-241 1520.5,-260 1618.5,-260 1618.5,-241 1520.5,-241"/>
<text text-anchor="middle" x="1569.5" y="-248" font-family="Helvetica,sans-Serif" font-size="10.00" fill="#000000">InternalModule.h</text>
</a>
</g>
</g>
<!-- Node7&#45;&gt;Node27 -->
<g id="edge22" class="edge">
<title>Node7&#45;&gt;Node27</title>
<path fill="none" stroke="#191970" d="M1743.3125,-302.3906C1707.7867,-291.7846 1650.4774,-274.6753 1611.4559,-263.0257"/>
<polygon fill="#191970" stroke="#191970" points="1612.0448,-259.5489 1601.4615,-260.0419 1610.0423,-266.2564 1612.0448,-259.5489"/>
</g>
<!-- Node29 -->
<g id="node21" class="node">
<title>Node29</title>
<g id="a_node21"><a xlink:href="_profiler_8h.html" target="_top" xlink:title="Profiler.h">
<polygon fill="#ffffff" stroke="#ff0000" points="1385,-241 1385,-260 1444,-260 1444,-241 1385,-241"/>
<text text-anchor="middle" x="1414.5" y="-248" font-family="Helvetica,sans-Serif" font-size="10.00" fill="#000000">Profiler.h</text>
</a>
</g>
</g>
<!-- Node7&#45;&gt;Node29 -->
<g id="edge25" class="edge">
<title>Node7&#45;&gt;Node29</title>
<path fill="none" stroke="#191970" d="M1735.4874,-305.1834C1665.9918,-293.3442 1523.7827,-269.1174 1454.3798,-257.2939"/>
<polygon fill="#191970" stroke="#191970" points="1454.7326,-253.8037 1444.2868,-255.5745 1453.5569,-260.7043 1454.7326,-253.8037"/>
</g>
<!-- Node31 -->
<g id="node22" class="node">
<title>Node31</title>
<g id="a_node22"><a xlink:href="_variable_network_8h.html" target="_top" xlink:title="VariableNetwork.h">
<polygon fill="#ffffff" stroke="#ff0000" points="1612,-179.5 1612,-198.5 1719,-198.5 1719,-179.5 1612,-179.5"/>
<text text-anchor="middle" x="1665.5" y="-186.5" font-family="Helvetica,sans-Serif" font-size="10.00" fill="#000000">VariableNetwork.h</text>
</a>
</g>
</g>
<!-- Node7&#45;&gt;Node31 -->
<g id="edge30" class="edge">
<title>Node7&#45;&gt;Node31</title>
<path fill="none" stroke="#191970" d="M1815.8054,-309.5504C1902.3471,-303.8796 2099.7334,-288.5858 2119.5,-266 2128.5738,-255.6321 2128.7383,-245.2216 2119.5,-235 2093.8209,-206.5876 1847.9171,-194.8526 1729.1234,-190.8111"/>
<polygon fill="#191970" stroke="#191970" points="1729.1796,-187.3111 1719.0689,-190.4771 1728.9472,-194.3072 1729.1796,-187.3111"/>
</g>
<!-- Node12&#45;&gt;Node3 -->
<g id="edge14" class="edge">
<title>Node12&#45;&gt;Node3</title>
<path fill="none" stroke="#191970" d="M1193.7988,-182.4665C1119.8485,-171.1517 969.5089,-148.1489 903.1866,-138.0012"/>
<polygon fill="#191970" stroke="#191970" points="903.3333,-134.483 892.919,-136.4302 902.2745,-141.4025 903.3333,-134.483"/>
</g>
<!-- Node13 -->
<g id="node14" class="node">
<title>Node13</title>
<polygon fill="#ffffff" stroke="#bfbfbf" points="1035.5,-123.5 1035.5,-142.5 1067.5,-142.5 1067.5,-123.5 1035.5,-123.5"/>
<text text-anchor="middle" x="1051.5" y="-130.5" font-family="Helvetica,sans-Serif" font-size="10.00" fill="#000000">list</text>
</g>
<!-- Node12&#45;&gt;Node13 -->
<g id="edge13" class="edge">
<title>Node12&#45;&gt;Node13</title>
<path fill="none" stroke="#191970" d="M1204.6974,-179.3733C1168.7143,-168.4811 1110.7912,-150.9476 1077.4313,-140.8495"/>
<polygon fill="#191970" stroke="#191970" points="1078.1074,-137.3973 1067.5222,-137.85 1076.0793,-144.0971 1078.1074,-137.3973"/>
</g>
<!-- Node12&#45;&gt;Node14 -->
<g id="edge15" class="edge">
<title>Node12&#45;&gt;Node14</title>
<path fill="none" stroke="#191970" d="M1279.1779,-180.4948C1327.353,-170.8941 1405.9894,-155.2227 1459.6573,-144.5274"/>
<polygon fill="#191970" stroke="#191970" points="1460.5848,-147.9114 1469.7078,-142.5244 1459.2166,-141.0464 1460.5848,-147.9114"/>
</g>
<!-- Node12&#45;&gt;Node23 -->
<g id="edge20" class="edge">
<title>Node12&#45;&gt;Node23</title>
<path fill="none" stroke="#191970" d="M1264.6889,-179.4876C1304.2421,-166.2504 1378.5424,-141.786 1442.5,-123 1489.468,-109.2043 1544.1484,-94.8734 1579.0247,-85.9489"/>
<polygon fill="#191970" stroke="#191970" points="1579.9223,-89.3321 1588.7474,-83.4698 1578.1927,-82.5491 1579.9223,-89.3321"/>
</g>
<!-- Node14&#45;&gt;Node21 -->
<g id="edge16" class="edge">
<title>Node14&#45;&gt;Node21</title>
<path fill="none" stroke="#191970" d="M1451.2404,-127.5029C1322.038,-116.7839 1037.8149,-93.2039 908.6779,-82.4903"/>
<polygon fill="#191970" stroke="#191970" points="908.7889,-78.9876 898.5337,-81.6487 908.2101,-85.9636 908.7889,-78.9876"/>
</g>
<!-- Node14&#45;&gt;Node23 -->
<g id="edge18" class="edge">
<title>Node14&#45;&gt;Node23</title>
<path fill="none" stroke="#191970" d="M1534.3961,-123.2455C1549.418,-114.5731 1571.6043,-101.7645 1588.821,-91.825"/>
<polygon fill="#191970" stroke="#191970" points="1590.8871,-94.6737 1597.7975,-86.6427 1587.3872,-88.6114 1590.8871,-94.6737"/>
</g>
<!-- Node14&#45;&gt;Node26 -->
<g id="edge19" class="edge">
<title>Node14&#45;&gt;Node26</title>
<path fill="none" stroke="#191970" d="M1583.5054,-128.7219C1754.4192,-117.6441 2207.5101,-88.2771 2342.8176,-79.5072"/>
<polygon fill="#191970" stroke="#191970" points="2343.3468,-82.9803 2353.0994,-78.8408 2342.894,-75.995 2343.3468,-82.9803"/>
</g>
<!-- Node22 -->
<g id="node17" class="node">
<title>Node22</title>
<polygon fill="#ffffff" stroke="#bfbfbf" points="766.5,-.5 766.5,-30.5 918.5,-30.5 918.5,-.5 766.5,-.5"/>
<text text-anchor="start" x="774.5" y="-18.5" font-family="Helvetica,sans-Serif" font-size="10.00" fill="#000000">ChimeraTK/SyncNDRegister</text>
<text text-anchor="middle" x="842.5" y="-7.5" font-family="Helvetica,sans-Serif" font-size="10.00" fill="#000000">Accessor.h</text>
</g>
<!-- Node21&#45;&gt;Node22 -->
<g id="edge17" class="edge">
<title>Node21&#45;&gt;Node22</title>
<path fill="none" stroke="#191970" d="M842.5,-67.3906C842.5,-60.2234 842.5,-50.0862 842.5,-40.671"/>
<polygon fill="#191970" stroke="#191970" points="846.0001,-40.5446 842.5,-30.5446 839.0001,-40.5446 846.0001,-40.5446"/>
</g>
<!-- Node27&#45;&gt;Node4 -->
<g id="edge23" class="edge">
<title>Node27&#45;&gt;Node4</title>
<path fill="none" stroke="#191970" d="M1569.5,-240.8906C1569.5,-232.3657 1569.5,-219.6392 1569.5,-208.9235"/>
<polygon fill="#191970" stroke="#191970" points="1573.0001,-208.7448 1569.5,-198.7449 1566.0001,-208.7449 1573.0001,-208.7448"/>
</g>
<!-- Node27&#45;&gt;Node12 -->
<g id="edge24" class="edge">
<title>Node27&#45;&gt;Node12</title>
<path fill="none" stroke="#191970" d="M1520.3647,-241.4255C1458.5835,-230.0154 1352.9375,-210.5042 1289.4232,-198.7741"/>
<polygon fill="#191970" stroke="#191970" points="1289.6916,-195.2646 1279.2222,-196.8901 1288.4202,-202.1481 1289.6916,-195.2646"/>
</g>
<!-- Node29&#45;&gt;Node3 -->
<g id="edge29" class="edge">
<title>Node29&#45;&gt;Node3</title>
<path fill="none" stroke="#191970" d="M1384.9071,-245.4419C1334.6931,-236.742 1229.6614,-218.0374 1141.5,-199 1054.4857,-180.2103 952.6943,-154.372 902.2199,-141.2978"/>
<polygon fill="#191970" stroke="#191970" points="903.0989,-137.91 892.5401,-138.7838 901.3392,-144.6852 903.0989,-137.91"/>
</g>
<!-- Node29&#45;&gt;Node8 -->
<g id="edge26" class="edge">
<title>Node29&#45;&gt;Node8</title>
<path fill="none" stroke="#191970" d="M1422.3125,-240.8906C1429.754,-231.7376 1441.1334,-217.7409 1450.1992,-206.59"/>
<polygon fill="#191970" stroke="#191970" points="1452.9847,-208.712 1456.5774,-198.7449 1447.5533,-204.2962 1452.9847,-208.712"/>
</g>
<!-- Node29&#45;&gt;Node9 -->
<g id="edge28" class="edge">
<title>Node29&#45;&gt;Node9</title>
<path fill="none" stroke="#191970" d="M1411.8438,-240.8906C1409.4625,-232.276 1405.8952,-219.3708 1402.914,-208.5858"/>
<polygon fill="#191970" stroke="#191970" points="1406.2316,-207.4509 1400.1937,-198.7449 1399.4846,-209.3159 1406.2316,-207.4509"/>
</g>
<!-- Node29&#45;&gt;Node13 -->
<g id="edge27" class="edge">
<title>Node29&#45;&gt;Node13</title>
<path fill="none" stroke="#191970" d="M1384.8201,-246.1973C1340.3814,-239.2355 1254.3128,-223.7313 1184.5,-199 1173.5619,-195.1251 1112.2069,-164.0465 1076.7734,-145.9516"/>
<polygon fill="#191970" stroke="#191970" points="1078.0272,-142.6617 1067.5301,-141.2256 1074.8405,-148.8943 1078.0272,-142.6617"/>
</g>
<!-- Node31&#45;&gt;Node3 -->
<g id="edge32" class="edge">
<title>Node31&#45;&gt;Node3</title>
<path fill="none" stroke="#191970" d="M1611.9305,-180.1422C1608.7437,-179.7255 1605.5821,-179.3402 1602.5,-179 1347.5484,-150.8629 1282.4871,-159.2043 1026.5,-143 983.8585,-140.3007 934.664,-137.1394 903.1041,-135.1052"/>
<polygon fill="#191970" stroke="#191970" points="902.9206,-131.5862 892.7161,-134.4353 902.4701,-138.5717 902.9206,-131.5862"/>
</g>
<!-- Node31&#45;&gt;Node13 -->
<g id="edge31" class="edge">
<title>Node31&#45;&gt;Node13</title>
<path fill="none" stroke="#191970" d="M1611.9216,-180.2187C1608.7371,-179.7828 1605.5784,-179.3723 1602.5,-179 1401.3521,-154.6734 1157.3266,-139.1905 1077.8695,-134.5053"/>
<polygon fill="#191970" stroke="#191970" points="1077.9585,-131.0047 1067.7716,-133.9161 1077.5507,-137.9928 1077.9585,-131.0047"/>
</g>
<!-- Node31&#45;&gt;Node14 -->
<g id="edge34" class="edge">
<title>Node31&#45;&gt;Node14</title>
<path fill="none" stroke="#191970" d="M1640.0579,-179.3733C1615.7674,-170.1822 1578.9792,-156.2624 1552.0457,-146.0713"/>
<polygon fill="#191970" stroke="#191970" points="1553.2016,-142.7666 1542.6101,-142.5011 1550.7243,-149.3136 1553.2016,-142.7666"/>
</g>
<!-- Node31&#45;&gt;Node23 -->
<g id="edge33" class="edge">
<title>Node31&#45;&gt;Node23</title>
<path fill="none" stroke="#191970" d="M1661.1518,-179.4509C1652.7209,-160.936 1634.0162,-119.8591 1623.0237,-95.7187"/>
<polygon fill="#191970" stroke="#191970" points="1626.1667,-94.1753 1618.8372,-86.5249 1619.7961,-97.0762 1626.1667,-94.1753"/>
</g>
<!-- Node31&#45;&gt;Node26 -->
<g id="edge35" class="edge">
<title>Node31&#45;&gt;Node26</title>
<path fill="none" stroke="#191970" d="M1719.0236,-180.6276C1857.2153,-159.011 2223.5049,-101.7143 2343.121,-83.0034"/>
<polygon fill="#191970" stroke="#191970" points="2343.9253,-86.4202 2353.2643,-81.4168 2342.8435,-79.5043 2343.9253,-86.4202"/>
</g>
<!-- Node35&#45;&gt;Node13 -->
<g id="edge37" class="edge">
<title>Node35&#45;&gt;Node13</title>
<path fill="none" stroke="#191970" d="M643.4038,-430.2373C527.9124,-419.1626 280.5,-386.7181 280.5,-312 280.5,-312 280.5,-312 280.5,-250.5 280.5,-211.9785 889.9315,-149.0765 1025.1417,-135.5949"/>
<polygon fill="#191970" stroke="#191970" points="1025.7913,-139.0477 1035.3966,-134.5767 1025.0997,-132.0819 1025.7913,-139.0477"/>
</g>
<!-- Node36 -->
<g id="node24" class="node">
<title>Node36</title>
<polygon fill="#ffffff" stroke="#bfbfbf" points="847,-241 847,-260 946,-260 946,-241 847,-241"/>
<text text-anchor="middle" x="896.5" y="-248" font-family="Helvetica,sans-Serif" font-size="10.00" fill="#000000">boost/thread.hpp</text>
</g>
<!-- Node35&#45;&gt;Node36 -->
<g id="edge38" class="edge">
<title>Node35&#45;&gt;Node36</title>
<path fill="none" stroke="#191970" d="M713.3837,-425.4641C736.7537,-406.5412 790.024,-362.5627 831.5,-322 849.5468,-304.3506 868.8345,-282.7475 881.6699,-267.9358"/>
<polygon fill="#191970" stroke="#191970" points="884.5578,-269.9454 888.4233,-260.0809 879.2499,-265.3818 884.5578,-269.9454"/>
</g>
<!-- Node37 -->
<g id="node25" class="node">
<title>Node37</title>
<g id="a_node25"><a xlink:href="_module_impl_8h.html" target="_top" xlink:title="ModuleImpl.h">
<polygon fill="#ffffff" stroke="#000000" points="1001,-364 1001,-383 1084,-383 1084,-364 1001,-364"/>
<text text-anchor="middle" x="1042.5" y="-371" font-family="Helvetica,sans-Serif" font-size="10.00" fill="#000000">ModuleImpl.h</text>
</a>
</g>
</g>
<!-- Node35&#45;&gt;Node37 -->
<g id="edge39" class="edge">
<title>Node35&#45;&gt;Node37</title>
<path fill="none" stroke="#191970" d="M754.4071,-425.4581C818.8656,-413.8329 927.0438,-394.3228 990.903,-382.8056"/>
<polygon fill="#191970" stroke="#191970" points="991.5381,-386.2476 1000.758,-381.0282 990.2956,-379.3588 991.5381,-386.2476"/>
</g>
<!-- Node38 -->
<g id="node26" class="node">
<title>Node38</title>
<g id="a_node26"><a xlink:href="_module_8h.html" target="_top" xlink:title="Module.h">
<polygon fill="#ffffff" stroke="#ff0000" points="1042,-241 1042,-260 1103,-260 1103,-241 1042,-241"/>
<text text-anchor="middle" x="1072.5" y="-248" font-family="Helvetica,sans-Serif" font-size="10.00" fill="#000000">Module.h</text>
</a>
</g>
</g>
<!-- Node37&#45;&gt;Node38 -->
<g id="edge40" class="edge">
<title>Node37&#45;&gt;Node38</title>
<path fill="none" stroke="#191970" d="M1060.4195,-363.9469C1074.7805,-355.1758 1093.9021,-340.7105 1102.5,-322 1110.7854,-303.9693 1099.5827,-282.997 1088.5875,-268.4488"/>
<polygon fill="#191970" stroke="#191970" points="1090.9773,-265.8412 1081.9444,-260.3043 1085.5529,-270.2657 1090.9773,-265.8412"/>
</g>
<!-- Node41 -->
<g id="node27" class="node">
<title>Node41</title>
<g id="a_node27"><a xlink:href="_virtual_module_8h.html" target="_top" xlink:title="VirtualModule.h">
<polygon fill="#ffffff" stroke="#000000" points="1001,-302.5 1001,-321.5 1094,-321.5 1094,-302.5 1001,-302.5"/>
<text text-anchor="middle" x="1047.5" y="-309.5" font-family="Helvetica,sans-Serif" font-size="10.00" fill="#000000">VirtualModule.h</text>
</a>
</g>
</g>
<!-- Node37&#45;&gt;Node41 -->
<g id="edge43" class="edge">
<title>Node37&#45;&gt;Node41</title>
<path fill="none" stroke="#191970" d="M1043.2813,-363.8906C1043.9743,-355.3657 1045.009,-342.6392 1045.8802,-331.9235"/>
<polygon fill="#191970" stroke="#191970" points="1049.3858,-331.9956 1046.7077,-321.7449 1042.4088,-331.4283 1049.3858,-331.9956"/>
</g>
<!-- Node38&#45;&gt;Node12 -->
<g id="edge41" class="edge">
<title>Node38&#45;&gt;Node12</title>
<path fill="none" stroke="#191970" d="M1096.3872,-240.8941C1101.3721,-238.921 1106.6005,-236.8748 1111.5,-235 1141.2432,-223.6189 1175.1605,-211.1704 1200.1531,-202.0967"/>
<polygon fill="#191970" stroke="#191970" points="1201.3942,-205.3697 1209.6034,-198.6721 1199.0092,-198.7885 1201.3942,-205.3697"/>
</g>
<!-- Node38&#45;&gt;Node14 -->
<g id="edge42" class="edge">
<title>Node38&#45;&gt;Node14</title>
<path fill="none" stroke="#191970" d="M1094.5347,-240.9586C1100.0115,-238.8057 1105.9146,-236.6669 1111.5,-235 1188.0073,-212.1669 1211.5668,-223.6752 1287.5,-199 1307.9294,-192.3613 1311.2099,-186.0529 1331.5,-179 1373.1443,-164.5243 1421.524,-152.7076 1458.5022,-144.6767"/>
<polygon fill="#191970" stroke="#191970" points="1459.5682,-148.0279 1468.6145,-142.5129 1458.1035,-141.1828 1459.5682,-148.0279"/>
</g>
<!-- Node41&#45;&gt;Node13 -->
<g id="edge44" class="edge">
<title>Node41&#45;&gt;Node13</title>
<path fill="none" stroke="#191970" d="M1043.3632,-302.3507C1039.6769,-293.1921 1034.5567,-278.9416 1032.5,-266 1026.421,-227.7496 1030.1,-217.017 1037.5,-179 1039.23,-170.1121 1042.0074,-160.4976 1044.634,-152.368"/>
<polygon fill="#191970" stroke="#191970" points="1048.008,-153.3164 1047.8992,-142.7221 1041.3776,-151.0718 1048.008,-153.3164"/>
</g>
<!-- Node41&#45;&gt;Node36 -->
<g id="edge45" class="edge">
<title>Node41&#45;&gt;Node36</title>
<path fill="none" stroke="#191970" d="M1023.9063,-302.3906C998.5304,-292.0554 957.9919,-275.5447 929.4707,-263.9284"/>
<polygon fill="#191970" stroke="#191970" points="930.5096,-260.5725 919.9281,-260.0419 927.8692,-267.0554 930.5096,-260.5725"/>
</g>
<!-- Node41&#45;&gt;Node38 -->
<g id="edge46" class="edge">
<title>Node41&#45;&gt;Node38</title>
<path fill="none" stroke="#191970" d="M1051.4063,-302.3906C1054.9446,-293.6862 1060.2636,-280.6015 1064.675,-269.7494"/>
<polygon fill="#191970" stroke="#191970" points="1068.0152,-270.8268 1068.5387,-260.2449 1061.5305,-268.1907 1068.0152,-270.8268"/>
</g>
<!-- Node42 -->
<g id="node28" class="node">
<title>Node42</title>
<polygon fill="#ffffff" stroke="#bfbfbf" points="1121,-241 1121,-260 1264,-260 1264,-241 1121,-241"/>
<text text-anchor="middle" x="1192.5" y="-248" font-family="Helvetica,sans-Serif" font-size="10.00" fill="#000000">ChimeraTK/RegisterPath.h</text>
</g>
<!-- Node41&#45;&gt;Node42 -->
<g id="edge47" class="edge">
<title>Node41&#45;&gt;Node42</title>
<path fill="none" stroke="#191970" d="M1070.1563,-302.3906C1094.4174,-292.1005 1133.1118,-275.6888 1160.48,-264.0809"/>
<polygon fill="#191970" stroke="#191970" points="1162.1633,-267.1688 1170.0028,-260.0419 1159.43,-260.7245 1162.1633,-267.1688"/>
</g>
<!-- Node43&#45;&gt;Node3 -->
<g id="edge49" class="edge">
<title>Node43&#45;&gt;Node3</title>
<path fill="none" stroke="#191970" d="M611.9918,-371.5519C530.858,-367.3617 370.0292,-355.0339 325.5,-322 270.2827,-281.0371 219.7669,-229.4275 266.5,-179 286.1025,-157.8479 715.6626,-139.1677 838.1595,-134.2561"/>
<polygon fill="#191970" stroke="#191970" points="838.539,-137.7439 848.392,-133.8493 838.2608,-130.7494 838.539,-137.7439"/>
</g>
<!-- Node43&#45;&gt;Node7 -->
<g id="edge53" class="edge">
<title>Node43&#45;&gt;Node7</title>
<path fill="none" stroke="#191970" d="M707.0561,-367.4803C734.1154,-364.2446 768.6613,-360.4314 799.5,-358 1153.3802,-330.0988 1580.8749,-317.0753 1725.1716,-313.2499"/>
<polygon fill="#191970" stroke="#191970" points="1725.5623,-316.741 1735.4671,-312.9799 1725.3787,-309.7434 1725.5623,-316.741"/>
</g>
<!-- Node43&#45;&gt;Node29 -->
<g id="edge59" class="edge">
<title>Node43&#45;&gt;Node29</title>
<path fill="none" stroke="#191970" d="M707.0719,-367.6707C734.1362,-364.4955 768.6819,-360.6794 799.5,-358 862.6106,-352.513 1313.8791,-354.0874 1368.5,-322 1388.2085,-310.4221 1400.9056,-286.6878 1407.862,-269.741"/>
<polygon fill="#191970" stroke="#191970" points="1411.1932,-270.8272 1411.4629,-260.2358 1404.6472,-268.3473 1411.1932,-270.8272"/>
</g>
<!-- Node43&#45;&gt;Node36 -->
<g id="edge51" class="edge">
<title>Node43&#45;&gt;Node36</title>
<path fill="none" stroke="#191970" d="M694.5868,-363.9619C724.1071,-355.1999 766.9146,-340.7396 801.5,-322 830.3023,-306.3939 859.9019,-282.6603 878.2422,-266.8729"/>
<polygon fill="#191970" stroke="#191970" points="880.6085,-269.4531 885.8332,-260.2361 876.0011,-264.1832 880.6085,-269.4531"/>
</g>
<!-- Node44 -->
<g id="node30" class="node">
<title>Node44</title>
<polygon fill="#ffffff" stroke="#bfbfbf" points="446.5,-235.5 446.5,-265.5 576.5,-265.5 576.5,-235.5 446.5,-235.5"/>
<text text-anchor="start" x="454.5" y="-253.5" font-family="Helvetica,sans-Serif" font-size="10.00" fill="#000000">boost/smart_ptr/shared</text>
<text text-anchor="middle" x="511.5" y="-242.5" font-family="Helvetica,sans-Serif" font-size="10.00" fill="#000000">_ptr.hpp</text>
</g>
<!-- Node43&#45;&gt;Node44 -->
<g id="edge50" class="edge">
<title>Node43&#45;&gt;Node44</title>
<path fill="none" stroke="#191970" d="M611.8274,-369.2672C526.5449,-361.2102 355.0868,-342.6231 337.5,-322 304.6285,-283.4534 375.4734,-265.3687 436.4159,-257.1013"/>
<polygon fill="#191970" stroke="#191970" points="437.0089,-260.554 446.4822,-255.81 436.1181,-253.6109 437.0089,-260.554"/>
</g>
<!-- Node45 -->
<g id="node31" class="node">
<title>Node45</title>
<polygon fill="#ffffff" stroke="#bfbfbf" points="346.5,-302.5 346.5,-321.5 538.5,-321.5 538.5,-302.5 346.5,-302.5"/>
<text text-anchor="middle" x="442.5" y="-309.5" font-family="Helvetica,sans-Serif" font-size="10.00" fill="#000000">ChimeraTK/OneDRegisterAccessor.h</text>
</g>
<!-- Node43&#45;&gt;Node45 -->
<g id="edge52" class="edge">
<title>Node43&#45;&gt;Node45</title>
<path fill="none" stroke="#191970" d="M625.5938,-363.8906C587.9321,-353.2169 527.0298,-335.9566 485.9115,-324.3033"/>
<polygon fill="#191970" stroke="#191970" points="486.7436,-320.9013 476.1682,-321.5419 484.8349,-327.6361 486.7436,-320.9013"/>
</g>
<!-- Node46 -->
<g id="node32" class="node">
<title>Node46</title>
<g id="a_node32"><a xlink:href="_inversion_of_control_accessor_8h.html" target="_top" xlink:title="InversionOfControlAccessor.h">
<polygon fill="#ffffff" stroke="#000000" points="632.5,-302.5 632.5,-321.5 792.5,-321.5 792.5,-302.5 632.5,-302.5"/>
<text text-anchor="middle" x="712.5" y="-309.5" font-family="Helvetica,sans-Serif" font-size="10.00" fill="#000000">InversionOfControlAccessor.h</text>
</a>
</g>
</g>
<!-- Node43&#45;&gt;Node46 -->
<g id="edge54" class="edge">
<title>Node43&#45;&gt;Node46</title>
<path fill="none" stroke="#191970" d="M667.7813,-363.8906C675.6693,-354.7376 687.7314,-340.7409 697.3412,-329.59"/>
<polygon fill="#191970" stroke="#191970" points="700.2251,-331.6049 704.102,-321.7449 694.9225,-327.0352 700.2251,-331.6049"/>
</g>
<!-- Node46&#45;&gt;Node3 -->
<g id="edge55" class="edge">
<title>Node46&#45;&gt;Node3</title>
<path fill="none" stroke="#191970" d="M720.9948,-302.3762C746.4998,-273.4812 822.6598,-187.1987 855.3362,-150.1793"/>
<polygon fill="#191970" stroke="#191970" points="857.9696,-152.4848 861.9632,-142.6714 852.7216,-147.8524 857.9696,-152.4848"/>
</g>
<!-- Node46&#45;&gt;Node14 -->
<g id="edge58" class="edge">
<title>Node46&#45;&gt;Node14</title>
<path fill="none" stroke="#191970" d="M726.442,-302.4433C753.8728,-283.8048 814.2075,-243.6625 837.5,-235 947.1493,-194.2211 1287.4907,-156.0954 1441.0109,-140.4632"/>
<polygon fill="#191970" stroke="#191970" points="1441.696,-143.9118 1451.2922,-139.4215 1440.9903,-136.9475 1441.696,-143.9118"/>
</g>
<!-- Node46&#45;&gt;Node38 -->
<g id="edge57" class="edge">
<title>Node46&#45;&gt;Node38</title>
<path fill="none" stroke="#191970" d="M768.355,-302.4581C841.1291,-290.0259 966.6895,-268.576 1031.361,-257.5279"/>
<polygon fill="#191970" stroke="#191970" points="1032.3083,-260.9169 1041.5761,-255.7828 1031.1295,-254.0168 1032.3083,-260.9169"/>
</g>
<!-- Node46&#45;&gt;Node44 -->
<g id="edge56" class="edge">
<title>Node46&#45;&gt;Node44</title>
<path fill="none" stroke="#191970" d="M681.0938,-302.3906C651.6239,-293.3737 606.7915,-279.6563 570.6221,-268.5896"/>
<polygon fill="#191970" stroke="#191970" points="571.2566,-265.1236 560.6701,-265.5446 569.2085,-271.8173 571.2566,-265.1236"/>
</g>
<!-- Node25 -->
<g id="node34" class="node">
<title>Node25</title>
<polygon fill="#ffffff" stroke="#bfbfbf" points="1875.5,-481.5 1875.5,-511.5 2047.5,-511.5 2047.5,-481.5 1875.5,-481.5"/>
<text text-anchor="start" x="1883.5" y="-499.5" font-family="Helvetica,sans-Serif" font-size="10.00" fill="#000000">ChimeraTK/NDRegisterAccessor</text>
<text text-anchor="middle" x="1961.5" y="-488.5" font-family="Helvetica,sans-Serif" font-size="10.00" fill="#000000">Decorator.h</text>
</g>
<!-- Node47&#45;&gt;Node25 -->
<g id="edge62" class="edge">
<title>Node47&#45;&gt;Node25</title>
<path fill="none" stroke="#191970" d="M2150.8361,-553.9005C2117.0248,-543.6501 2062.6657,-527.1702 2020.848,-514.4924"/>
<polygon fill="#191970" stroke="#191970" points="2021.6348,-511.0736 2011.0494,-511.5218 2019.6038,-517.7726 2021.6348,-511.0736"/>
</g>
<!-- Node48 -->
<g id="node35" class="node">
<title>Node48</title>
<g id="a_node35"><a xlink:href="_fan_out_8h.html" target="_top" xlink:title="FanOut.h">
<polygon fill="#ffffff" stroke="#ff0000" points="2152,-425.5 2152,-444.5 2211,-444.5 2211,-425.5 2152,-425.5"/>
<text text-anchor="middle" x="2181.5" y="-432.5" font-family="Helvetica,sans-Serif" font-size="10.00" fill="#000000">FanOut.h</text>
</a>
</g>
</g>
<!-- Node47&#45;&gt;Node48 -->
<g id="edge63" class="edge">
<title>Node47&#45;&gt;Node48</title>
<path fill="none" stroke="#191970" d="M2189.4137,-553.8217C2196.0566,-543.8801 2205.638,-527.6839 2209.5,-512 2212.7943,-498.6218 2213.22,-494.2661 2209.5,-481 2206.7122,-471.0584 2201.1188,-461.1336 2195.6593,-453.0613"/>
<polygon fill="#191970" stroke="#191970" points="2198.4048,-450.8849 2189.7089,-444.8323 2192.7324,-454.9866 2198.4048,-450.8849"/>
</g>
<!-- Node48&#45;&gt;Node14 -->
<g id="edge64" class="edge">
<title>Node48&#45;&gt;Node14</title>
<path fill="none" stroke="#191970" d="M2185.9505,-425.3521C2194.9581,-404.9143 2214.5,-355.5554 2214.5,-312 2214.5,-312 2214.5,-312 2214.5,-250.5 2214.5,-188.1294 1774.916,-150.7176 1593.9425,-137.9582"/>
<polygon fill="#191970" stroke="#191970" points="1593.92,-134.4482 1583.7004,-137.243 1593.4323,-141.4312 1593.92,-134.4482"/>
</g>
<!-- Node50&#45;&gt;Node7 -->
<g id="edge67" class="edge">
<title>Node50&#45;&gt;Node7</title>
<path fill="none" stroke="#191970" d="M1793.46,-553.685C1803.2904,-544.1297 1817.1196,-528.6474 1823.5,-512 1848.0034,-448.0673 1855.6228,-420.4252 1827.5,-358 1821.9303,-345.6369 1811.2137,-335.2563 1800.9494,-327.5033"/>
<polygon fill="#191970" stroke="#191970" points="1802.7549,-324.4948 1792.5567,-321.623 1798.7382,-330.2277 1802.7549,-324.4948"/>
</g>
<!-- Node50&#45;&gt;Node25 -->
<g id="edge66" class="edge">
<title>Node50&#45;&gt;Node25</title>
<path fill="none" stroke="#191970" d="M1808.1463,-553.9005C1835.0697,-543.8231 1878.0789,-527.7247 1911.7073,-515.1375"/>
<polygon fill="#191970" stroke="#191970" points="1913.2287,-518.3052 1921.3672,-511.5218 1910.7748,-511.7494 1913.2287,-518.3052"/>
</g>
<!-- Node51&#45;&gt;Node14 -->
<g id="edge86" class="edge">
<title>Node51&#45;&gt;Node14</title>
<path fill="none" stroke="#191970" d="M1322.1575,-487.804C1366.9322,-478.6812 1429.5223,-463.1582 1446.5,-445 1486.9491,-401.7384 1509.2733,-214.0902 1515.6038,-152.5948"/>
<polygon fill="#191970" stroke="#191970" points="1519.0864,-152.9427 1516.6005,-142.6436 1512.1213,-152.245 1519.0864,-152.9427"/>
</g>
<!-- Node51&#45;&gt;Node38 -->
<g id="edge74" class="edge">
<title>Node51&#45;&gt;Node38</title>
<path fill="none" stroke="#191970" d="M1270.1684,-486.7927C1263.6271,-472.6006 1250.3987,-445.6351 1235.5,-425 1189.8329,-361.7495 1123.2261,-297.196 1091.1415,-267.4332"/>
<polygon fill="#191970" stroke="#191970" points="1093.1347,-264.5108 1083.4067,-260.3135 1088.3939,-269.6611 1093.1347,-264.5108"/>
</g>
<!-- Node51&#45;&gt;Node41 -->
<g id="edge87" class="edge">
<title>Node51&#45;&gt;Node41</title>
<path fill="none" stroke="#191970" d="M1226.8567,-494.581C1156.3712,-490.6291 1029.5886,-478.8828 1001.5,-445 995.827,-438.1568 996.5027,-432.3511 1001.5,-425 1025.9524,-389.0301 1068.0476,-424.9699 1092.5,-389 1106.2387,-368.7902 1085.933,-344.2327 1068.3388,-328.3699"/>
<polygon fill="#191970" stroke="#191970" points="1070.4546,-325.5741 1060.5778,-321.7402 1065.908,-330.8966 1070.4546,-325.5741"/>
</g>
<!-- Node51&#45;&gt;Node42 -->
<g id="edge90" class="edge">
<title>Node51&#45;&gt;Node42</title>
<path fill="none" stroke="#191970" d="M1226.8129,-493.1939C1163.8613,-487.7229 1058.206,-474.3326 1034.5,-445 999.6699,-401.903 1072.6332,-422.6096 1109.5,-389 1147.3225,-354.5191 1173.4131,-298.7737 1185.2678,-269.6339"/>
<polygon fill="#191970" stroke="#191970" points="1188.5789,-270.7777 1188.9865,-260.1907 1182.0657,-268.2127 1188.5789,-270.7777"/>
</g>
<!-- Node52 -->
<g id="node38" class="node">
<title>Node52</title>
<g id="a_node38"><a xlink:href="_control_system_module_8h.html" target="_top" xlink:title="ControlSystemModule.h">
<polygon fill="#ffffff" stroke="#000000" points="1227,-302.5 1227,-321.5 1360,-321.5 1360,-302.5 1227,-302.5"/>
<text text-anchor="middle" x="1293.5" y="-309.5" font-family="Helvetica,sans-Serif" font-size="10.00" fill="#000000">ControlSystemModule.h</text>
</a>
</g>
</g>
<!-- Node51&#45;&gt;Node52 -->
<g id="edge69" class="edge">
<title>Node51&#45;&gt;Node52</title>
<path fill="none" stroke="#191970" d="M1275.4948,-486.8402C1278.4831,-457.8223 1287.4232,-371.0088 1291.4701,-331.7113"/>
<polygon fill="#191970" stroke="#191970" points="1294.9722,-331.8701 1292.5151,-321.5641 1288.009,-331.153 1294.9722,-331.8701"/>
</g>
<!-- Node51&#45;&gt;Node53 -->
<g id="edge75" class="edge">
<title>Node51&#45;&gt;Node53</title>
<path fill="none" stroke="#191970" d="M1226.9572,-494.3032C1120.3573,-488.8908 869.5766,-473.2591 844.5,-445 831.7399,-430.6205 838.7755,-408.0277 846.562,-392.0934"/>
<polygon fill="#191970" stroke="#191970" points="849.7071,-393.6341 851.337,-383.1654 843.5344,-390.3327 849.7071,-393.6341"/>
</g>
<!-- Node55 -->
<g id="node40" class="node">
<title>Node55</title>
<g id="a_node40"><a xlink:href="_variable_group_8h.html" target="_top" xlink:title="VariableGroup.h">
<polygon fill="#ffffff" stroke="#000000" points="854,-425.5 854,-444.5 949,-444.5 949,-425.5 854,-425.5"/>
<text text-anchor="middle" x="901.5" y="-432.5" font-family="Helvetica,sans-Serif" font-size="10.00" fill="#000000">VariableGroup.h</text>
</a>
</g>
</g>
<!-- Node51&#45;&gt;Node55 -->
<g id="edge82" class="edge">
<title>Node51&#45;&gt;Node55</title>
<path fill="none" stroke="#191970" d="M1226.8804,-488.6485C1158.5089,-477.3755 1032.6871,-456.63 959.1485,-444.5051"/>
<polygon fill="#191970" stroke="#191970" points="959.5665,-441.0268 949.1303,-442.8533 958.4277,-447.9335 959.5665,-441.0268"/>
</g>
<!-- Node56 -->
<g id="node41" class="node">
<title>Node56</title>
<g id="a_node41"><a xlink:href="_recovery_helper_8h.html" target="_top" xlink:title="RecoveryHelper.h">
<polygon fill="#ffffff" stroke="#ff0000" points="1569.5,-425.5 1569.5,-444.5 1671.5,-444.5 1671.5,-425.5 1569.5,-425.5"/>
<text text-anchor="middle" x="1620.5" y="-432.5" font-family="Helvetica,sans-Serif" font-size="10.00" fill="#000000">RecoveryHelper.h</text>
</a>
</g>
</g>
<!-- Node51&#45;&gt;Node56 -->
<g id="edge88" class="edge">
<title>Node51&#45;&gt;Node56</title>
<path fill="none" stroke="#191970" d="M1322.2466,-488.0133C1383.9629,-477.0434 1491.517,-457.9262 1559.2076,-445.8945"/>
<polygon fill="#191970" stroke="#191970" points="1560.0723,-449.2957 1569.3055,-444.0996 1558.8472,-442.4037 1560.0723,-449.2957"/>
</g>
<!-- Node57 -->
<g id="node42" class="node">
<title>Node57</title>
<polygon fill="#ffffff" stroke="#bfbfbf" points="1044,-425.5 1044,-444.5 1227,-444.5 1227,-425.5 1044,-425.5"/>
<text text-anchor="middle" x="1135.5" y="-432.5" font-family="Helvetica,sans-Serif" font-size="10.00" fill="#000000">ChimeraTK/ForwardDeclarations.h</text>
</g>
<!-- Node51&#45;&gt;Node57 -->
<g id="edge89" class="edge">
<title>Node51&#45;&gt;Node57</title>
<path fill="none" stroke="#191970" d="M1252.7813,-486.8906C1229.626,-476.6457 1192.7559,-460.3326 1166.5409,-448.7339"/>
<polygon fill="#191970" stroke="#191970" points="1167.6273,-445.3874 1157.0662,-444.5419 1164.795,-451.7888 1167.6273,-445.3874"/>
</g>
<!-- Node58 -->
<g id="node43" class="node">
<title>Node58</title>
<polygon fill="#ffffff" stroke="#bfbfbf" points="1321.5,-425.5 1321.5,-444.5 1437.5,-444.5 1437.5,-425.5 1321.5,-425.5"/>
<text text-anchor="middle" x="1379.5" y="-432.5" font-family="Helvetica,sans-Serif" font-size="10.00" fill="#000000">ChimeraTK/Device.h</text>
</g>
<!-- Node51&#45;&gt;Node58 -->
<g id="edge91" class="edge">
<title>Node51&#45;&gt;Node58</title>
<path fill="none" stroke="#191970" d="M1290.9063,-486.8906C1307.9353,-476.9165 1334.7841,-461.1908 1354.4651,-449.6633"/>
<polygon fill="#191970" stroke="#191970" points="1356.349,-452.6161 1363.209,-444.5419 1352.8112,-446.5759 1356.349,-452.6161"/>
</g>
<!-- Node52&#45;&gt;Node13 -->
<g id="edge70" class="edge">
<title>Node52&#45;&gt;Node13</title>
<path fill="none" stroke="#191970" d="M1293.7373,-302.4904C1293.6016,-286.3217 1290.9022,-253.4378 1272.5,-235 1229.8458,-192.2631 1195.8573,-225.289 1141.5,-199 1114.2177,-185.8054 1086.6776,-164.0975 1069.3785,-149.2041"/>
<polygon fill="#191970" stroke="#191970" points="1071.5778,-146.4774 1061.7549,-142.5073 1066.9581,-151.7365 1071.5778,-146.4774"/>
</g>
<!-- Node52&#45;&gt;Node14 -->
<g id="edge73" class="edge">
<title>Node52&#45;&gt;Node14</title>
<path fill="none" stroke="#191970" d="M1295.8884,-302.3158C1302.4317,-277.8331 1322.9891,-212.9997 1364.5,-179 1386.2863,-161.1558 1414.8572,-150.2303 1441.4044,-143.5422"/>
<polygon fill="#191970" stroke="#191970" points="1442.5263,-146.874 1451.4614,-141.1808 1440.9261,-140.0594 1442.5263,-146.874"/>
</g>
<!-- Node52&#45;&gt;Node38 -->
<g id="edge72" class="edge">
<title>Node52&#45;&gt;Node38</title>
<path fill="none" stroke="#191970" d="M1248.9078,-302.4441C1211.7764,-294.0795 1157.7021,-280.9491 1111.5,-266 1109.2189,-265.2619 1106.8798,-264.4575 1104.5354,-263.616"/>
<polygon fill="#191970" stroke="#191970" points="1105.5942,-260.2747 1095.0023,-260.0226 1103.1251,-266.8248 1105.5942,-260.2747"/>
</g>
<!-- Node52&#45;&gt;Node42 -->
<g id="edge71" class="edge">
<title>Node52&#45;&gt;Node42</title>
<path fill="none" stroke="#191970" d="M1277.7188,-302.3906C1261.4125,-292.4616 1235.746,-276.833 1216.8386,-265.3201"/>
<polygon fill="#191970" stroke="#191970" points="1218.5319,-262.2533 1208.1704,-260.0419 1214.8913,-268.2322 1218.5319,-262.2533"/>
</g>
<!-- Node53&#45;&gt;Node3 -->
<g id="edge76" class="edge">
<title>Node53&#45;&gt;Node3</title>
<path fill="none" stroke="#191970" d="M808.3651,-369.7655C746.7025,-363.9398 646.2387,-350.2874 623.5,-322 553.5878,-235.028 757.5178,-165.3073 838.7216,-141.6634"/>
<polygon fill="#191970" stroke="#191970" points="839.7843,-144.9998 848.4362,-138.8847 837.8593,-138.2697 839.7843,-144.9998"/>
</g>
<!-- Node53&#45;&gt;Node7 -->
<g id="edge79" class="edge">
<title>Node53&#45;&gt;Node7</title>
<path fill="none" stroke="#191970" d="M906.7535,-367.1277C932.05,-364.0264 963.3865,-360.4487 991.5,-358 1268.0068,-333.9156 1600.5024,-319.0477 1725.1044,-313.9676"/>
<polygon fill="#191970" stroke="#191970" points="1725.6127,-317.45 1735.4629,-313.5484 1725.3295,-310.4557 1725.6127,-317.45"/>
</g>
<!-- Node53&#45;&gt;Node29 -->
<g id="edge81" class="edge">
<title>Node53&#45;&gt;Node29</title>
<path fill="none" stroke="#191970" d="M906.7856,-367.4673C932.0904,-364.4541 963.4247,-360.8528 991.5,-358 1037.1067,-353.3658 1368.8317,-353.111 1402.5,-322 1416.4706,-309.0906 1418.1285,-286.5057 1417.1422,-270.1676"/>
<polygon fill="#191970" stroke="#191970" points="1420.6098,-269.6635 1416.1558,-260.0503 1413.6428,-270.3428 1420.6098,-269.6635"/>
</g>
<!-- Node53&#45;&gt;Node36 -->
<g id="edge78" class="edge">
<title>Node53&#45;&gt;Node36</title>
<path fill="none" stroke="#191970" d="M860.5603,-363.8484C866.9679,-343.6397 881.9011,-296.5427 890.3638,-269.8528"/>
<polygon fill="#191970" stroke="#191970" points="893.7678,-270.697 893.454,-260.1068 887.0951,-268.5812 893.7678,-270.697"/>
</g>
<!-- Node53&#45;&gt;Node44 -->
<g id="edge77" class="edge">
<title>Node53&#45;&gt;Node44</title>
<path fill="none" stroke="#191970" d="M808.4339,-367.2597C742.1693,-358.2858 628.0379,-340.7421 590.5,-322 567.1045,-310.319 545.4586,-289.7372 530.7635,-273.646"/>
<polygon fill="#191970" stroke="#191970" points="532.989,-270.8796 523.74,-265.7116 527.7475,-275.5193 532.989,-270.8796"/>
</g>
<!-- Node53&#45;&gt;Node46 -->
<g id="edge80" class="edge">
<title>Node53&#45;&gt;Node46</title>
<path fill="none" stroke="#191970" d="M834.8438,-363.8906C810.5826,-353.6005 771.8882,-337.1888 744.52,-325.5809"/>
<polygon fill="#191970" stroke="#191970" points="745.57,-322.2245 734.9972,-321.5419 742.8367,-328.6688 745.57,-322.2245"/>
</g>
<!-- Node55&#45;&gt;Node13 -->
<g id="edge83" class="edge">
<title>Node55&#45;&gt;Node13</title>
<path fill="none" stroke="#191970" d="M908.074,-425.3364C914.1947,-416.1677 923.4132,-401.9103 930.5,-389 942.9725,-366.2782 1017.0214,-207.2381 1042.7209,-151.9153"/>
<polygon fill="#191970" stroke="#191970" points="1046.0206,-153.1194 1047.0579,-142.5755 1039.6717,-150.1713 1046.0206,-153.1194"/>
</g>
<!-- Node55&#45;&gt;Node36 -->
<g id="edge84" class="edge">
<title>Node55&#45;&gt;Node36</title>
<path fill="none" stroke="#191970" d="M905.3624,-425.3228C908.8038,-416.1446 913.5833,-401.8807 915.5,-389 921.8107,-346.5909 910.3636,-296.7582 902.6622,-269.9431"/>
<polygon fill="#191970" stroke="#191970" points="905.9791,-268.8191 899.7484,-260.25 899.2754,-270.8343 905.9791,-268.8191"/>
</g>
<!-- Node55&#45;&gt;Node37 -->
<g id="edge85" class="edge">
<title>Node55&#45;&gt;Node37</title>
<path fill="none" stroke="#191970" d="M923.5313,-425.3906C947.1231,-415.1005 984.7501,-398.6888 1011.3633,-387.0809"/>
<polygon fill="#191970" stroke="#191970" points="1012.8567,-390.248 1020.6235,-383.0419 1010.0581,-383.8318 1012.8567,-390.248"/>
</g>
<!-- Node59&#45;&gt;Node48 -->
<g id="edge93" class="edge">
<title>Node59&#45;&gt;Node48</title>
<path fill="none" stroke="#191970" d="M2157.0313,-486.8906C2161.1781,-478.0965 2167.4332,-464.8312 2172.581,-453.9145"/>
<polygon fill="#191970" stroke="#191970" points="2175.8055,-455.2825 2176.9049,-444.7449 2169.4741,-452.2969 2175.8055,-455.2825"/>
</g>
<!-- Node60&#45;&gt;Node7 -->
<g id="edge97" class="edge">
<title>Node60&#45;&gt;Node7</title>
<path fill="none" stroke="#191970" d="M2004.3454,-553.947C2022.6541,-545.8586 2045.5026,-532.297 2056.5,-512 2063.0636,-499.8861 2063.282,-492.993 2056.5,-481 2006.2569,-392.1527 1888.5544,-344.8595 1822.5316,-324.4954"/>
<polygon fill="#191970" stroke="#191970" points="1823.3727,-321.0936 1812.7885,-321.5701 1821.3597,-327.7979 1823.3727,-321.0936"/>
</g>
<!-- Node60&#45;&gt;Node25 -->
<g id="edge96" class="edge">
<title>Node60&#45;&gt;Node25</title>
<path fill="none" stroke="#191970" d="M1975.2076,-553.9005C1973.1832,-545.4234 1970.1413,-532.6856 1967.4371,-521.3614"/>
<polygon fill="#191970" stroke="#191970" points="1970.8144,-520.4353 1965.0873,-511.5218 1964.0058,-522.0613 1970.8144,-520.4353"/>
</g>
<!-- Node60&#45;&gt;Node59 -->
<g id="edge98" class="edge">
<title>Node60&#45;&gt;Node59</title>
<path fill="none" stroke="#191970" d="M2002.5732,-553.9005C2032.8518,-542.3082 2083.9403,-522.7486 2117.9405,-509.7313"/>
<polygon fill="#191970" stroke="#191970" points="2119.3858,-512.9258 2127.4733,-506.0817 2116.8829,-506.3886 2119.3858,-512.9258"/>
</g>
<!-- Node61&#45;&gt;Node7 -->
<g id="edge100" class="edge">
<title>Node61&#45;&gt;Node7</title>
<path fill="none" stroke="#191970" d="M1733.634,-486.8996C1738.855,-476.755 1746.8231,-460.1581 1751.5,-445 1763.6121,-405.7444 1770.3829,-357.9713 1773.4529,-331.6947"/>
<polygon fill="#191970" stroke="#191970" points="1776.9556,-331.8635 1774.578,-321.5389 1769.9981,-331.0926 1776.9556,-331.8635"/>
</g>
<!-- Node61&#45;&gt;Node27 -->
<g id="edge102" class="edge">
<title>Node61&#45;&gt;Node27</title>
<path fill="none" stroke="#191970" d="M1722.267,-486.8565C1698.4216,-449.9636 1612.7439,-317.4057 1581.235,-268.6561"/>
<polygon fill="#191970" stroke="#191970" points="1584.0577,-266.5754 1575.6899,-260.0768 1578.1787,-270.3752 1584.0577,-266.5754"/>
</g>
<!-- Node61&#45;&gt;Node48 -->
<g id="edge101" class="edge">
<title>Node61&#45;&gt;Node48</title>
<path fill="none" stroke="#191970" d="M1781.3514,-489.3248C1873.0419,-476.8768 2059.6145,-451.5474 2141.478,-440.4334"/>
<polygon fill="#191970" stroke="#191970" points="2142.415,-443.8384 2151.8532,-439.0249 2141.4733,-436.9021 2142.415,-443.8384"/>
</g>
<!-- Node62&#45;&gt;Node7 -->
<g id="edge104" class="edge">
<title>Node62&#45;&gt;Node7</title>
<path fill="none" stroke="#191970" d="M1453.4035,-553.9305C1509.5301,-538.8064 1612.5196,-504.7786 1680.5,-445 1719.2156,-410.9554 1750.8283,-358.243 1765.9192,-330.5087"/>
<polygon fill="#191970" stroke="#191970" points="1769.1044,-331.9737 1770.714,-321.5018 1762.9254,-328.6842 1769.1044,-331.9737"/>
</g>
<!-- Node62&#45;&gt;Node27 -->
<g id="edge106" class="edge">
<title>Node62&#45;&gt;Node27</title>
<path fill="none" stroke="#191970" d="M1435.2135,-553.9311C1471.7324,-536.1915 1541.5,-494.5131 1541.5,-435 1541.5,-435 1541.5,-435 1541.5,-373.5 1541.5,-336.0861 1553.9691,-293.8317 1562.2654,-269.8586"/>
<polygon fill="#191970" stroke="#191970" points="1565.6432,-270.808 1565.7238,-260.2134 1559.0539,-268.4453 1565.6432,-270.808"/>
</g>
<!-- Node62&#45;&gt;Node29 -->
<g id="edge107" class="edge">
<title>Node62&#45;&gt;Node29</title>
<path fill="none" stroke="#191970" d="M1417.1547,-553.8574C1424.4997,-533.9025 1440.8332,-486.4719 1446.5,-445 1455.2791,-380.7503 1433.5287,-305.0495 1421.6348,-270.0524"/>
<polygon fill="#191970" stroke="#191970" points="1424.7859,-268.4619 1418.1707,-260.186 1418.1812,-270.7809 1424.7859,-268.4619"/>
</g>
<!-- Node62&#45;&gt;Node51 -->
<g id="edge108" class="edge">
<title>Node62&#45;&gt;Node51</title>
<path fill="none" stroke="#191970" d="M1393.5847,-553.9005C1370.0509,-542.5569 1330.6899,-523.5844 1303.7071,-510.5783"/>
<polygon fill="#191970" stroke="#191970" points="1304.9063,-507.2709 1294.3784,-506.0817 1301.8668,-513.5766 1304.9063,-507.2709"/>
</g>
<!-- Node62&#45;&gt;Node59 -->
<g id="edge105" class="edge">
<title>Node62&#45;&gt;Node59</title>
<path fill="none" stroke="#191970" d="M1459.7297,-554.8605C1474.6169,-552.3293 1491.2156,-549.7694 1506.5,-548 1749.8423,-519.8287 1813.0871,-539.5541 2056.5,-512 2068.5573,-510.6351 2081.4115,-508.8148 2093.6648,-506.9025"/>
<polygon fill="#191970" stroke="#191970" points="2094.4644,-510.3191 2103.7855,-505.2824 2093.3579,-503.4071 2094.4644,-510.3191"/>
</g>
<!-- Node65&#45;&gt;Node26 -->
<g id="edge110" class="edge">
<title>Node65&#45;&gt;Node26</title>
<path fill="none" stroke="#191970" d="M2531.0716,-358.3976C2527.5652,-335.2434 2521.5,-289.5491 2521.5,-250.5 2521.5,-250.5 2521.5,-250.5 2521.5,-189 2521.5,-155.7973 2510.838,-145.585 2486.5,-123 2467.6504,-105.5081 2441.0797,-93.955 2419.384,-86.8017"/>
<polygon fill="#191970" stroke="#191970" points="2420.3924,-83.4501 2409.804,-83.8192 2418.3116,-90.1336 2420.3924,-83.4501"/>
</g>
<!-- Node70&#45;&gt;Node3 -->
<g id="edge115" class="edge">
<title>Node70&#45;&gt;Node3</title>
<path fill="none" stroke="#191970" d="M2318.6636,-187.5391C2125.6532,-182.9072 1524.3165,-167.4001 1026.5,-143 983.8244,-140.9083 934.6377,-137.6072 903.0889,-135.3754"/>
<polygon fill="#191970" stroke="#191970" points="902.9287,-131.8551 892.7049,-134.6343 902.4304,-138.8374 902.9287,-131.8551"/>
</g>
<!-- Node70&#45;&gt;Node26 -->
<g id="edge114" class="edge">
<title>Node70&#45;&gt;Node26</title>
<path fill="none" stroke="#191970" d="M2381.5,-179.4509C2381.5,-161.184 2381.5,-120.9553 2381.5,-96.6976"/>
<polygon fill="#191970" stroke="#191970" points="2385.0001,-96.5249 2381.5,-86.5249 2378.0001,-96.5249 2385.0001,-96.5249"/>
</g>
<!-- Node72&#45;&gt;Node7 -->
<g id="edge119" class="edge">
<title>Node72&#45;&gt;Node7</title>
<path fill="none" stroke="#191970" d="M1644.9232,-553.909C1698.8339,-542.5295 1780.5725,-523.6376 1789.5,-512 1830.9412,-457.9782 1800.8781,-369.7429 1784.3882,-331.1196"/>
<polygon fill="#191970" stroke="#191970" points="1787.4238,-329.3314 1780.1678,-321.6112 1781.0257,-332.1712 1787.4238,-329.3314"/>
</g>
<!-- Node72&#45;&gt;Node25 -->
<g id="edge117" class="edge">
<title>Node72&#45;&gt;Node25</title>
<path fill="none" stroke="#191970" d="M1649.2658,-553.9717C1706.5112,-543.4347 1799.8552,-526.2533 1869.5956,-513.4165"/>
<polygon fill="#191970" stroke="#191970" points="1870.5056,-516.8079 1879.7068,-511.5553 1869.2384,-509.9235 1870.5056,-516.8079"/>
</g>
<!-- Node72&#45;&gt;Node56 -->
<g id="edge118" class="edge">
<title>Node72&#45;&gt;Node56</title>
<path fill="none" stroke="#191970" d="M1599.2287,-553.8416C1602.975,-532.9114 1611.9079,-483.004 1616.9245,-454.9762"/>
<polygon fill="#191970" stroke="#191970" points="1620.4345,-455.2307 1618.7512,-444.7705 1613.544,-453.9973 1620.4345,-455.2307"/>
</g>
</g>
</svg>
