<?xml version="1.0" encoding="UTF-8" standalone="no"?>
<!DOCTYPE svg PUBLIC "-//W3C//DTD SVG 1.1//EN"
 "http://www.w3.org/Graphics/SVG/1.1/DTD/svg11.dtd">
<!-- Generated by graphviz version 2.40.1 (20161225.0304)
 -->
<!-- Title: src/MetaDataPropagatingRegisterDecorator.cc Pages: 1 -->
<!--zoomable 285 -->
<svg id="main" version="1.1" xmlns="http://www.w3.org/2000/svg" xmlns:xlink="http://www.w3.org/1999/xlink" xml:space="preserve" onload="init(evt)">
<style type="text/css"><![CDATA[
.edge:hover path { stroke: red; }
.edge:hover polygon { stroke: red; fill: red; }
]]></style>
<script type="text/javascript"><![CDATA[
var edges = document.getElementsByTagName('g');
if (edges && edges.length) {
  for (var i=0;i<edges.length;i++) {
    if (edges[i].id.substr(0,4)=='edge') {
      edges[i].setAttribute('class','edge');
    }
  }
}
]]></script>
        <defs>
                <circle id="rim" cx="0" cy="0" r="7"/>
                <circle id="rim2" cx="0" cy="0" r="3.5"/>
                <g id="zoomPlus">
                        <use xlink:href="#rim" fill="#404040">
                                <set attributeName="fill" to="#808080" begin="zoomplus.mouseover" end="zoomplus.mouseout"/>
                        </use>
                        <path d="M-4,0h8M0,-4v8" fill="none" stroke="white" stroke-width="1.5" pointer-events="none"/>
                </g>
                <g id="zoomMin">
                        <use xlink:href="#rim" fill="#404040">
                                <set attributeName="fill" to="#808080" begin="zoomminus.mouseover" end="zoomminus.mouseout"/>
                        </use>
                        <path d="M-4,0h8" fill="none" stroke="white" stroke-width="1.5" pointer-events="none"/>
                </g>
                <g id="dirArrow">
                        <path fill="none" stroke="white" stroke-width="1.5" d="M0,-3.0v7 M-2.5,-0.5L0,-3.0L2.5,-0.5"/>
                </g>
               <g id="resetDef">
                       <use xlink:href="#rim2" fill="#404040">
                               <set attributeName="fill" to="#808080" begin="reset.mouseover" end="reset.mouseout"/>
                       </use>
               </g>
        </defs>

<script type="text/javascript">
var viewWidth = 1145;
var viewHeight = 285;
var sectionId = 'dynsection-0';
</script>
<script xlink:href="svgpan.js"/>
<svg id="graph" class="graph">
<g id="viewport">
<title>src/MetaDataPropagatingRegisterDecorator.cc</title>
<polygon fill="#ffffff" stroke="transparent" points="-4,4 -4,-281 1140.5,-281 1140.5,4 -4,4"/>
<!-- Node0 -->
<g id="node1" class="node">
<title>Node0</title>
<polygon fill="#bfbfbf" stroke="#000000" points="207.5,-246.5 207.5,-276.5 386.5,-276.5 386.5,-246.5 207.5,-246.5"/>
<text text-anchor="start" x="215.5" y="-264.5" font-family="Helvetica,sans-Serif" font-size="10.00" fill="#000000">src/MetaDataPropagatingRegister</text>
<text text-anchor="middle" x="297" y="-253.5" font-family="Helvetica,sans-Serif" font-size="10.00" fill="#000000">Decorator.cc</text>
</g>
<!-- Node1 -->
<g id="node2" class="node">
<title>Node1</title>
<g id="a_node2"><a xlink:href="_meta_data_propagating_register_decorator_8h.html" target="_top" xlink:title="MetaDataPropagatingRegister\lDecorator.h">
<polygon fill="#ffffff" stroke="#000000" points="5,-67.5 5,-97.5 167,-97.5 167,-67.5 5,-67.5"/>
<text text-anchor="start" x="13" y="-85.5" font-family="Helvetica,sans-Serif" font-size="10.00" fill="#000000">MetaDataPropagatingRegister</text>
<text text-anchor="middle" x="86" y="-74.5" font-family="Helvetica,sans-Serif" font-size="10.00" fill="#000000">Decorator.h</text>
</a>
</g>
</g>
<!-- Node0&#45;&gt;Node1 -->
<g id="edge1" class="edge">
<title>Node0&#45;&gt;Node1</title>
<path fill="none" stroke="#191970" d="M279.0103,-246.2386C241.5601,-214.468 155.1122,-141.1307 111.7638,-104.3565"/>
<polygon fill="#191970" stroke="#191970" points="113.8341,-101.523 103.9442,-97.7228 109.3057,-106.861 113.8341,-101.523"/>
</g>
<!-- Node3 -->
<g id="node4" class="node">
<title>Node3</title>
<g id="a_node4"><a xlink:href="_entity_owner_8h.html" target="_top" xlink:title="EntityOwner.h">
<polygon fill="#ffffff" stroke="#000000" points="411.5,-190.5 411.5,-209.5 496.5,-209.5 496.5,-190.5 411.5,-190.5"/>
<text text-anchor="middle" x="454" y="-197.5" font-family="Helvetica,sans-Serif" font-size="10.00" fill="#000000">EntityOwner.h</text>
</a>
</g>
</g>
<!-- Node0&#45;&gt;Node3 -->
<g id="edge3" class="edge">
<title>Node0&#45;&gt;Node3</title>
<path fill="none" stroke="#191970" d="M335.4065,-246.4554C361.3726,-236.284 395.339,-222.9787 420.263,-213.2155"/>
<polygon fill="#191970" stroke="#191970" points="421.636,-216.4366 429.6706,-209.5303 419.0829,-209.9188 421.636,-216.4366"/>
</g>
<!-- Node2 -->
<g id="node3" class="node">
<title>Node2</title>
<polygon fill="#ffffff" stroke="#bfbfbf" points="0,-.5 0,-30.5 172,-30.5 172,-.5 0,-.5"/>
<text text-anchor="start" x="8" y="-18.5" font-family="Helvetica,sans-Serif" font-size="10.00" fill="#000000">ChimeraTK/NDRegisterAccessor</text>
<text text-anchor="middle" x="86" y="-7.5" font-family="Helvetica,sans-Serif" font-size="10.00" fill="#000000">Decorator.h</text>
</g>
<!-- Node1&#45;&gt;Node2 -->
<g id="edge2" class="edge">
<title>Node1&#45;&gt;Node2</title>
<path fill="none" stroke="#191970" d="M86,-67.2967C86,-59.5013 86,-49.7991 86,-40.9064"/>
<polygon fill="#191970" stroke="#191970" points="89.5001,-40.6431 86,-30.6432 82.5001,-40.6432 89.5001,-40.6431"/>
</g>
<!-- Node4 -->
<g id="node5" class="node">
<title>Node4</title>
<polygon fill="#ffffff" stroke="#bfbfbf" points="382,-134.5 382,-153.5 414,-153.5 414,-134.5 382,-134.5"/>
<text text-anchor="middle" x="398" y="-141.5" font-family="Helvetica,sans-Serif" font-size="10.00" fill="#000000">list</text>
</g>
<!-- Node3&#45;&gt;Node4 -->
<g id="edge4" class="edge">
<title>Node3&#45;&gt;Node4</title>
<path fill="none" stroke="#191970" d="M444.2455,-190.2455C436.1352,-182.1352 424.4075,-170.4075 414.7919,-160.7919"/>
<polygon fill="#191970" stroke="#191970" points="417.1887,-158.2389 407.6427,-153.6427 412.2389,-163.1887 417.1887,-158.2389"/>
</g>
<!-- Node5 -->
<g id="node6" class="node">
<title>Node5</title>
<polygon fill="#ffffff" stroke="#bfbfbf" points="432,-134.5 432,-153.5 476,-153.5 476,-134.5 432,-134.5"/>
<text text-anchor="middle" x="454" y="-141.5" font-family="Helvetica,sans-Serif" font-size="10.00" fill="#000000">string</text>
</g>
<!-- Node3&#45;&gt;Node5 -->
<g id="edge5" class="edge">
<title>Node3&#45;&gt;Node5</title>
<path fill="none" stroke="#191970" d="M454,-190.2455C454,-182.9382 454,-172.6944 454,-163.7046"/>
<polygon fill="#191970" stroke="#191970" points="457.5001,-163.6426 454,-153.6427 450.5001,-163.6427 457.5001,-163.6426"/>
</g>
<!-- Node6 -->
<g id="node7" class="node">
<title>Node6</title>
<g id="a_node7"><a xlink:href="_variable_network_node_8h.html" target="_top" xlink:title="VariableNetworkNode.h">
<polygon fill="#ffffff" stroke="#000000" points="494,-134.5 494,-153.5 626,-153.5 626,-134.5 494,-134.5"/>
<text text-anchor="middle" x="560" y="-141.5" font-family="Helvetica,sans-Serif" font-size="10.00" fill="#000000">VariableNetworkNode.h</text>
</a>
</g>
</g>
<!-- Node3&#45;&gt;Node6 -->
<g id="edge6" class="edge">
<title>Node3&#45;&gt;Node6</title>
<path fill="none" stroke="#191970" d="M472.4638,-190.2455C489.1074,-181.4527 513.7993,-168.4079 532.7192,-158.4125"/>
<polygon fill="#191970" stroke="#191970" points="534.5408,-161.4086 541.7478,-153.6427 531.2709,-155.2193 534.5408,-161.4086"/>
</g>
<!-- Node15 -->
<g id="node16" class="node">
<title>Node15</title>
<g id="a_node16"><a xlink:href="_flags_8h.html" target="_top" xlink:title="Flags.h">
<polygon fill="#ffffff" stroke="#000000" points="1085.5,-73 1085.5,-92 1136.5,-92 1136.5,-73 1085.5,-73"/>
<text text-anchor="middle" x="1111" y="-80" font-family="Helvetica,sans-Serif" font-size="10.00" fill="#000000">Flags.h</text>
</a>
</g>
</g>
<!-- Node3&#45;&gt;Node15 -->
<g id="edge18" class="edge">
<title>Node3&#45;&gt;Node15</title>
<path fill="none" stroke="#191970" d="M496.696,-196.7604C598.7079,-188.2149 863.9046,-161.2271 1076,-98 1078.1215,-97.3676 1080.2836,-96.6372 1082.4397,-95.8452"/>
<polygon fill="#191970" stroke="#191970" points="1083.7556,-99.0885 1091.7102,-92.0903 1081.1277,-92.6005 1083.7556,-99.0885"/>
</g>
<!-- Node6&#45;&gt;Node1 -->
<g id="edge16" class="edge">
<title>Node6&#45;&gt;Node1</title>
<path fill="none" stroke="#191970" d="M493.7543,-135.1067C490.7963,-134.7287 487.8676,-134.3582 485,-134 351.0195,-117.2644 314.5406,-117.7093 177.4506,-98.1665"/>
<polygon fill="#191970" stroke="#191970" points="177.7994,-94.6807 167.4035,-96.7243 176.8047,-101.6097 177.7994,-94.6807"/>
</g>
<!-- Node7 -->
<g id="node8" class="node">
<title>Node7</title>
<polygon fill="#ffffff" stroke="#bfbfbf" points="185,-73 185,-92 245,-92 245,-73 185,-73"/>
<text text-anchor="middle" x="215" y="-80" font-family="Helvetica,sans-Serif" font-size="10.00" fill="#000000">iostream</text>
</g>
<!-- Node6&#45;&gt;Node7 -->
<g id="edge7" class="edge">
<title>Node6&#45;&gt;Node7</title>
<path fill="none" stroke="#191970" d="M493.9413,-134.8893C410.9683,-123.3184 276.6581,-104.1187 254,-98 251.3864,-97.2942 248.7099,-96.4668 246.0439,-95.5679"/>
<polygon fill="#191970" stroke="#191970" points="247.1589,-92.2489 236.5653,-92.0892 244.7471,-98.8203 247.1589,-92.2489"/>
</g>
<!-- Node8 -->
<g id="node9" class="node">
<title>Node8</title>
<polygon fill="#ffffff" stroke="#bfbfbf" points="263.5,-73 263.5,-92 356.5,-92 356.5,-73 263.5,-73"/>
<text text-anchor="middle" x="310" y="-80" font-family="Helvetica,sans-Serif" font-size="10.00" fill="#000000">unordered_map</text>
</g>
<!-- Node6&#45;&gt;Node8 -->
<g id="edge8" class="edge">
<title>Node6&#45;&gt;Node8</title>
<path fill="none" stroke="#191970" d="M517.8827,-134.4893C478.5112,-125.486 418.1332,-111.3906 366,-98 361.933,-96.9554 357.708,-95.8407 353.484,-94.7063"/>
<polygon fill="#191970" stroke="#191970" points="354.2724,-91.2936 343.7044,-92.0474 352.4358,-98.0484 354.2724,-91.2936"/>
</g>
<!-- Node9 -->
<g id="node10" class="node">
<title>Node9</title>
<polygon fill="#ffffff" stroke="#bfbfbf" points="375,-73 375,-92 461,-92 461,-73 375,-73"/>
<text text-anchor="middle" x="418" y="-80" font-family="Helvetica,sans-Serif" font-size="10.00" fill="#000000">unordered_set</text>
</g>
<!-- Node6&#45;&gt;Node9 -->
<g id="edge9" class="edge">
<title>Node6&#45;&gt;Node9</title>
<path fill="none" stroke="#191970" d="M537.8125,-134.3906C514.0533,-124.1005 476.1595,-107.6888 449.3575,-96.0809"/>
<polygon fill="#191970" stroke="#191970" points="450.5991,-92.8045 440.0317,-92.0419 447.817,-99.2279 450.5991,-92.8045"/>
</g>
<!-- Node10 -->
<g id="node11" class="node">
<title>Node10</title>
<polygon fill="#ffffff" stroke="#bfbfbf" points="479,-73 479,-92 535,-92 535,-73 479,-73"/>
<text text-anchor="middle" x="507" y="-80" font-family="Helvetica,sans-Serif" font-size="10.00" fill="#000000">assert.h</text>
</g>
<!-- Node6&#45;&gt;Node10 -->
<g id="edge10" class="edge">
<title>Node6&#45;&gt;Node10</title>
<path fill="none" stroke="#191970" d="M551.7188,-134.3906C543.8307,-125.2376 531.7686,-111.2409 522.1588,-100.09"/>
<polygon fill="#191970" stroke="#191970" points="524.5775,-97.5352 515.398,-92.2449 519.2749,-102.1049 524.5775,-97.5352"/>
</g>
<!-- Node11 -->
<g id="node12" class="node">
<title>Node11</title>
<polygon fill="#ffffff" stroke="#bfbfbf" points="553.5,-73 553.5,-92 672.5,-92 672.5,-73 553.5,-73"/>
<text text-anchor="middle" x="613" y="-80" font-family="Helvetica,sans-Serif" font-size="10.00" fill="#000000">boost/shared_ptr.hpp</text>
</g>
<!-- Node6&#45;&gt;Node11 -->
<g id="edge11" class="edge">
<title>Node6&#45;&gt;Node11</title>
<path fill="none" stroke="#191970" d="M568.2813,-134.3906C576.1693,-125.2376 588.2314,-111.2409 597.8412,-100.09"/>
<polygon fill="#191970" stroke="#191970" points="600.7251,-102.1049 604.602,-92.2449 595.4225,-97.5352 600.7251,-102.1049"/>
</g>
<!-- Node12 -->
<g id="node13" class="node">
<title>Node12</title>
<polygon fill="#ffffff" stroke="#bfbfbf" points="691,-67.5 691,-97.5 863,-97.5 863,-67.5 691,-67.5"/>
<text text-anchor="start" x="699" y="-85.5" font-family="Helvetica,sans-Serif" font-size="10.00" fill="#000000">ChimeraTK/NDRegisterAccessor</text>
<text text-anchor="middle" x="777" y="-74.5" font-family="Helvetica,sans-Serif" font-size="10.00" fill="#000000">Abstractor.h</text>
</g>
<!-- Node6&#45;&gt;Node12 -->
<g id="edge12" class="edge">
<title>Node6&#45;&gt;Node12</title>
<path fill="none" stroke="#191970" d="M593.9063,-134.3906C625.9938,-125.2967 674.9517,-111.4215 714.1709,-100.3064"/>
<polygon fill="#191970" stroke="#191970" points="715.2491,-103.6388 723.9158,-97.5446 713.3404,-96.904 715.2491,-103.6388"/>
</g>
<!-- Node13 -->
<g id="node14" class="node">
<title>Node13</title>
<g id="a_node14"><a xlink:href="_constant_accessor_8h.html" target="_top" xlink:title="ConstantAccessor.h">
<polygon fill="#ffffff" stroke="#000000" points="881,-73 881,-92 993,-92 993,-73 881,-73"/>
<text text-anchor="middle" x="937" y="-80" font-family="Helvetica,sans-Serif" font-size="10.00" fill="#000000">ConstantAccessor.h</text>
</a>
</g>
</g>
<!-- Node6&#45;&gt;Node13 -->
<g id="edge13" class="edge">
<title>Node6&#45;&gt;Node13</title>
<path fill="none" stroke="#191970" d="M626.0205,-135.9753C689.3664,-127.873 787.5898,-114.2544 872,-98 877.6924,-96.9039 883.639,-95.6451 889.5237,-94.3289"/>
<polygon fill="#191970" stroke="#191970" points="890.3516,-97.73 899.3131,-92.0784 888.7832,-90.908 890.3516,-97.73"/>
</g>
<!-- Node6&#45;&gt;Node15 -->
<g id="edge15" class="edge">
<title>Node6&#45;&gt;Node15</title>
<path fill="none" stroke="#191970" d="M626.3515,-140.7904C745.8913,-134.5592 992.732,-119.5197 1076,-98 1078.3344,-97.3967 1080.7101,-96.6531 1083.0686,-95.821"/>
<polygon fill="#191970" stroke="#191970" points="1084.5353,-99.0039 1092.5162,-92.0357 1081.9318,-92.5061 1084.5353,-99.0039"/>
</g>
<!-- Node16 -->
<g id="node17" class="node">
<title>Node16</title>
<g id="a_node17"><a xlink:href="_visitor_8h.html" target="_top" xlink:title="Visitor.h">
<polygon fill="#ffffff" stroke="#000000" points="1011,-73 1011,-92 1067,-92 1067,-73 1011,-73"/>
<text text-anchor="middle" x="1039" y="-80" font-family="Helvetica,sans-Serif" font-size="10.00" fill="#000000">Visitor.h</text>
</a>
</g>
</g>
<!-- Node6&#45;&gt;Node16 -->
<g id="edge17" class="edge">
<title>Node6&#45;&gt;Node16</title>
<path fill="none" stroke="#191970" d="M626.3272,-139.4867C731.7389,-131.9113 932.671,-115.7177 1002,-98 1004.4798,-97.3663 1007.01,-96.5951 1009.5253,-95.7389"/>
<polygon fill="#191970" stroke="#191970" points="1010.9122,-98.956 1019.0126,-92.1271 1008.4216,-92.4141 1010.9122,-98.956"/>
</g>
<!-- Node14 -->
<g id="node15" class="node">
<title>Node14</title>
<polygon fill="#ffffff" stroke="#bfbfbf" points="847,-6 847,-25 1027,-25 1027,-6 847,-6"/>
<text text-anchor="middle" x="937" y="-13" font-family="Helvetica,sans-Serif" font-size="10.00" fill="#000000">ChimeraTK/NDRegisterAccessor.h</text>
</g>
<!-- Node13&#45;&gt;Node14 -->
<g id="edge14" class="edge">
<title>Node13&#45;&gt;Node14</title>
<path fill="none" stroke="#191970" d="M937,-72.9005C937,-63.149 937,-47.7597 937,-35.3695"/>
<polygon fill="#191970" stroke="#191970" points="940.5001,-35.0816 937,-25.0817 933.5001,-35.0817 940.5001,-35.0816"/>
</g>
</g>
</svg>
        <g id="navigator" transform="translate(0 0)" fill="#404254">
                <rect fill="#f2f5e9" fill-opacity="0.5" stroke="#606060" stroke-width=".5" x="0" y="0" width="60" height="60"/>
                <use id="zoomplus" xlink:href="#zoomPlus" x="17" y="9" onmousedown="handleZoom(evt,'in')"/>
                <use id="zoomminus" xlink:href="#zoomMin" x="42" y="9" onmousedown="handleZoom(evt,'out')"/>
                <use id="reset" xlink:href="#resetDef" x="30" y="36" onmousedown="handleReset()"/>
                <g id="arrowUp" xlink:href="#dirArrow" transform="translate(30 24)" onmousedown="handlePan(0,-1)">
                  <use xlink:href="#rim" fill="#404040">
                        <set attributeName="fill" to="#808080" begin="arrowUp.mouseover" end="arrowUp.mouseout"/>
                  </use>
                  <path fill="none" stroke="white" stroke-width="1.5" d="M0,-3.0v7 M-2.5,-0.5L0,-3.0L2.5,-0.5"/>
                </g>
                <g id="arrowRight" xlink:href="#dirArrow" transform="rotate(90) translate(36 -43)" onmousedown="handlePan(1,0)">
                  <use xlink:href="#rim" fill="#404040">
                        <set attributeName="fill" to="#808080" begin="arrowRight.mouseover" end="arrowRight.mouseout"/>
                  </use>
                  <path fill="none" stroke="white" stroke-width="1.5" d="M0,-3.0v7 M-2.5,-0.5L0,-3.0L2.5,-0.5"/>
                </g>
                <g id="arrowDown" xlink:href="#dirArrow" transform="rotate(180) translate(-30 -48)" onmousedown="handlePan(0,1)">
                  <use xlink:href="#rim" fill="#404040">
                        <set attributeName="fill" to="#808080" begin="arrowDown.mouseover" end="arrowDown.mouseout"/>
                  </use>
                  <path fill="none" stroke="white" stroke-width="1.5" d="M0,-3.0v7 M-2.5,-0.5L0,-3.0L2.5,-0.5"/>
                </g>
                <g id="arrowLeft" xlink:href="#dirArrow" transform="rotate(270) translate(-36 17)" onmousedown="handlePan(-1,0)">
                  <use xlink:href="#rim" fill="#404040">
                        <set attributeName="fill" to="#808080" begin="arrowLeft.mouseover" end="arrowLeft.mouseout"/>
                  </use>
                  <path fill="none" stroke="white" stroke-width="1.5" d="M0,-3.0v7 M-2.5,-0.5L0,-3.0L2.5,-0.5"/>
                </g>
        </g>
        <svg viewBox="0 0 15 15" width="100%" height="30px" preserveAspectRatio="xMaxYMin meet">
         <g id="arrow_out" transform="scale(0.3 0.3)">
          <a xlink:href="_meta_data_propagating_register_decorator_8cc__incl_org.svg" target="_base">
           <rect id="button" ry="5" rx="5" y="6" x="6" height="38" width="38"
                fill="#f2f5e9" fill-opacity="0.5" stroke="#606060" stroke-width="1.0"/>
           <path id="arrow"
             d="M 11.500037,31.436501 C 11.940474,20.09759 22.043105,11.32322 32.158766,21.979434 L 37.068811,17.246167 C 37.068811,17.246167 37.088388,32 37.088388,32 L 22.160133,31.978069 C 22.160133,31.978069 26.997745,27.140456 26.997745,27.140456 C 18.528582,18.264221 13.291696,25.230495 11.500037,31.436501 z"
             style="fill:#404040;"/>
          </a>
         </g>
        </svg>
</svg>
