<?xml version="1.0" encoding="UTF-8" standalone="no"?>
<!DOCTYPE svg PUBLIC "-//W3C//DTD SVG 1.1//EN"
 "http://www.w3.org/Graphics/SVG/1.1/DTD/svg11.dtd">
<!-- Generated by graphviz version 2.40.1 (20161225.0304)
 -->
<!-- Title: include/TestableModeAccessorDecorator.h Pages: 1 -->
<svg width="1751pt" height="430pt"
 viewBox="0.00 0.00 1751.00 430.00" xmlns="http://www.w3.org/2000/svg" xmlns:xlink="http://www.w3.org/1999/xlink">
<g id="graph0" class="graph" transform="scale(1 1) rotate(0) translate(4 426)">
<title>include/TestableModeAccessorDecorator.h</title>
<polygon fill="#ffffff" stroke="transparent" points="-4,4 -4,-426 1747,-426 1747,4 -4,4"/>
<!-- Node0 -->
<g id="node1" class="node">
<title>Node0</title>
<polygon fill="#bfbfbf" stroke="#000000" points="419.5,-391.5 419.5,-421.5 584.5,-421.5 584.5,-391.5 419.5,-391.5"/>
<text text-anchor="start" x="427.5" y="-409.5" font-family="Helvetica,sans-Serif" font-size="10.00" fill="#000000">include/TestableModeAccessor</text>
<text text-anchor="middle" x="502" y="-398.5" font-family="Helvetica,sans-Serif" font-size="10.00" fill="#000000">Decorator.h</text>
</g>
<!-- Node1 -->
<g id="node2" class="node">
<title>Node1</title>
<polygon fill="#ffffff" stroke="#bfbfbf" points="246,-.5 246,-30.5 418,-30.5 418,-.5 246,-.5"/>
<text text-anchor="start" x="254" y="-18.5" font-family="Helvetica,sans-Serif" font-size="10.00" fill="#000000">ChimeraTK/NDRegisterAccessor</text>
<text text-anchor="middle" x="332" y="-7.5" font-family="Helvetica,sans-Serif" font-size="10.00" fill="#000000">Decorator.h</text>
</g>
<!-- Node0&#45;&gt;Node1 -->
<g id="edge1" class="edge">
<title>Node0&#45;&gt;Node1</title>
<path fill="none" stroke="#191970" d="M419.3861,-403.2026C276.8868,-395.2424 0,-368.8003 0,-283.5 0,-283.5 0,-283.5 0,-149.5 0,-96.6183 146.6743,-54.8348 245.042,-32.7588"/>
<polygon fill="#191970" stroke="#191970" points="245.9912,-36.1335 254.998,-30.5543 244.4779,-29.299 245.9912,-36.1335"/>
</g>
<!-- Node2 -->
<g id="node3" class="node">
<title>Node2</title>
<g id="a_node3"><a xlink:href="_application_8h.html" target="_top" xlink:title="Application.h">
<polygon fill="#ffffff" stroke="#000000" points="462,-335.5 462,-354.5 542,-354.5 542,-335.5 462,-335.5"/>
<text text-anchor="middle" x="502" y="-342.5" font-family="Helvetica,sans-Serif" font-size="10.00" fill="#000000">Application.h</text>
</a>
</g>
</g>
<!-- Node0&#45;&gt;Node2 -->
<g id="edge2" class="edge">
<title>Node0&#45;&gt;Node2</title>
<path fill="none" stroke="#191970" d="M502,-391.2977C502,-383.3834 502,-373.6043 502,-365.0759"/>
<polygon fill="#191970" stroke="#191970" points="505.5001,-364.8469 502,-354.8469 498.5001,-364.847 505.5001,-364.8469"/>
</g>
<!-- Node31 -->
<g id="node32" class="node">
<title>Node31</title>
<g id="a_node32"><a xlink:href="_feeding_fan_out_8h.html" target="_top" xlink:title="FeedingFanOut.h">
<polygon fill="#ffffff" stroke="#000000" points="1526.5,-274 1526.5,-293 1623.5,-293 1623.5,-274 1526.5,-274"/>
<text text-anchor="middle" x="1575" y="-281" font-family="Helvetica,sans-Serif" font-size="10.00" fill="#000000">FeedingFanOut.h</text>
</a>
</g>
</g>
<!-- Node0&#45;&gt;Node31 -->
<g id="edge46" class="edge">
<title>Node0&#45;&gt;Node31</title>
<path fill="none" stroke="#191970" d="M584.8587,-397.0017C793.5331,-373.081 1336.8373,-310.801 1516.4242,-290.2147"/>
<polygon fill="#191970" stroke="#191970" points="1516.9304,-293.6796 1526.4667,-289.0635 1516.1331,-286.7252 1516.9304,-293.6796"/>
</g>
<!-- Node3 -->
<g id="node4" class="node">
<title>Node3</title>
<polygon fill="#ffffff" stroke="#bfbfbf" points="438,-207 438,-226 488,-226 488,-207 438,-207"/>
<text text-anchor="middle" x="463" y="-214" font-family="Helvetica,sans-Serif" font-size="10.00" fill="#000000">atomic</text>
</g>
<!-- Node2&#45;&gt;Node3 -->
<g id="edge3" class="edge">
<title>Node2&#45;&gt;Node3</title>
<path fill="none" stroke="#191970" d="M461.7649,-337.6293C439.7917,-331.3304 414.3964,-319.8217 401,-299 393.5452,-287.4132 395.1462,-280.4724 401,-268 408.1975,-252.6648 422.4529,-240.3165 435.4813,-231.5595"/>
<polygon fill="#191970" stroke="#191970" points="437.5987,-234.3627 444.2031,-226.0782 433.8739,-228.4359 437.5987,-234.3627"/>
</g>
<!-- Node4 -->
<g id="node5" class="node">
<title>Node4</title>
<polygon fill="#ffffff" stroke="#bfbfbf" points="800,-207 800,-226 848,-226 848,-207 800,-207"/>
<text text-anchor="middle" x="824" y="-214" font-family="Helvetica,sans-Serif" font-size="10.00" fill="#000000">mutex</text>
</g>
<!-- Node2&#45;&gt;Node4 -->
<g id="edge4" class="edge">
<title>Node2&#45;&gt;Node4</title>
<path fill="none" stroke="#191970" d="M542.1401,-342.7219C630.4765,-337.2988 835.5234,-322.3096 856,-299 872.4679,-280.2537 855.1581,-252.0854 840.3028,-233.997"/>
<polygon fill="#191970" stroke="#191970" points="842.5666,-231.2661 833.3661,-226.0125 837.2823,-235.857 842.5666,-231.2661"/>
</g>
<!-- Node5 -->
<g id="node6" class="node">
<title>Node5</title>
<polygon fill="#ffffff" stroke="#bfbfbf" points="410,-268.5 410,-298.5 594,-298.5 594,-268.5 410,-268.5"/>
<text text-anchor="start" x="418" y="-286.5" font-family="Helvetica,sans-Serif" font-size="10.00" fill="#000000">ChimeraTK/ControlSystemAdapter</text>
<text text-anchor="middle" x="502" y="-275.5" font-family="Helvetica,sans-Serif" font-size="10.00" fill="#000000">/ApplicationBase.h</text>
</g>
<!-- Node2&#45;&gt;Node5 -->
<g id="edge5" class="edge">
<title>Node2&#45;&gt;Node5</title>
<path fill="none" stroke="#191970" d="M502,-335.3906C502,-328.2234 502,-318.0862 502,-308.671"/>
<polygon fill="#191970" stroke="#191970" points="505.5001,-308.5446 502,-298.5446 498.5001,-308.5446 505.5001,-308.5446"/>
</g>
<!-- Node6 -->
<g id="node7" class="node">
<title>Node6</title>
<polygon fill="#ffffff" stroke="#bfbfbf" points="612,-274 612,-293 770,-293 770,-274 612,-274"/>
<text text-anchor="middle" x="691" y="-281" font-family="Helvetica,sans-Serif" font-size="10.00" fill="#000000">ChimeraTK/DeviceBackend.h</text>
</g>
<!-- Node2&#45;&gt;Node6 -->
<g id="edge6" class="edge">
<title>Node2&#45;&gt;Node6</title>
<path fill="none" stroke="#191970" d="M531.5313,-335.3906C563.9866,-324.8298 616.2581,-307.8208 652.0486,-296.1747"/>
<polygon fill="#191970" stroke="#191970" points="653.2499,-299.4645 661.6761,-293.0419 651.0839,-292.808 653.2499,-299.4645"/>
</g>
<!-- Node7 -->
<g id="node8" class="node">
<title>Node7</title>
<g id="a_node8"><a xlink:href="_entity_owner_8h.html" target="_top" xlink:title="EntityOwner.h">
<polygon fill="#ffffff" stroke="#000000" points="334.5,-207 334.5,-226 419.5,-226 419.5,-207 334.5,-207"/>
<text text-anchor="middle" x="377" y="-214" font-family="Helvetica,sans-Serif" font-size="10.00" fill="#000000">EntityOwner.h</text>
</a>
</g>
</g>
<!-- Node2&#45;&gt;Node7 -->
<g id="edge7" class="edge">
<title>Node2&#45;&gt;Node7</title>
<path fill="none" stroke="#191970" d="M461.8998,-338.1352C438.0514,-331.9448 409.1881,-320.3734 392,-299 377.721,-281.2441 375.2951,-254.3615 375.566,-236.1492"/>
<polygon fill="#191970" stroke="#191970" points="379.0657,-236.2311 376.0014,-226.0891 372.0722,-235.9284 379.0657,-236.2311"/>
</g>
<!-- Node19 -->
<g id="node20" class="node">
<title>Node19</title>
<g id="a_node20"><a xlink:href="_flags_8h.html" target="_top" xlink:title="Flags.h">
<polygon fill="#ffffff" stroke="#000000" points="345.5,-73 345.5,-92 396.5,-92 396.5,-73 345.5,-73"/>
<text text-anchor="middle" x="371" y="-80" font-family="Helvetica,sans-Serif" font-size="10.00" fill="#000000">Flags.h</text>
</a>
</g>
</g>
<!-- Node2&#45;&gt;Node19 -->
<g id="edge24" class="edge">
<title>Node2&#45;&gt;Node19</title>
<path fill="none" stroke="#191970" d="M461.9081,-336.8355C435.3539,-329.9775 400.7958,-318.1499 375,-299 345.1665,-276.8526 336.7075,-267.263 325,-232 309.3943,-184.9955 339.3724,-129.0858 357.9044,-100.8172"/>
<polygon fill="#191970" stroke="#191970" points="360.9382,-102.5801 363.6679,-92.343 355.15,-98.6434 360.9382,-102.5801"/>
</g>
<!-- Node22 -->
<g id="node23" class="node">
<title>Node22</title>
<g id="a_node23"><a xlink:href="_internal_module_8h.html" target="_top" xlink:title="InternalModule.h">
<polygon fill="#ffffff" stroke="#000000" points="180,-274 180,-293 278,-293 278,-274 180,-274"/>
<text text-anchor="middle" x="229" y="-281" font-family="Helvetica,sans-Serif" font-size="10.00" fill="#000000">InternalModule.h</text>
</a>
</g>
</g>
<!-- Node2&#45;&gt;Node22 -->
<g id="edge25" class="edge">
<title>Node2&#45;&gt;Node22</title>
<path fill="none" stroke="#191970" d="M461.6727,-336.4868C419.3437,-327.4761 350.8921,-312.6924 292,-299 287.0527,-297.8498 281.8936,-296.6238 276.7508,-295.3845"/>
<polygon fill="#191970" stroke="#191970" points="277.4845,-291.961 266.9408,-293.0012 275.8319,-298.7632 277.4845,-291.961"/>
</g>
<!-- Node25 -->
<g id="node26" class="node">
<title>Node25</title>
<g id="a_node26"><a xlink:href="_profiler_8h.html" target="_top" xlink:title="Profiler.h">
<polygon fill="#ffffff" stroke="#000000" points="787.5,-274 787.5,-293 846.5,-293 846.5,-274 787.5,-274"/>
<text text-anchor="middle" x="817" y="-281" font-family="Helvetica,sans-Serif" font-size="10.00" fill="#000000">Profiler.h</text>
</a>
</g>
</g>
<!-- Node2&#45;&gt;Node25 -->
<g id="edge29" class="edge">
<title>Node2&#45;&gt;Node25</title>
<path fill="none" stroke="#191970" d="M542.0603,-341.1792C596.4789,-335.3515 696.4475,-322.3748 779,-299 781.4594,-298.3036 783.9757,-297.498 786.4847,-296.6275"/>
<polygon fill="#191970" stroke="#191970" points="787.8686,-299.8463 795.9896,-293.0419 785.3979,-293.2968 787.8686,-299.8463"/>
</g>
<!-- Node27 -->
<g id="node28" class="node">
<title>Node27</title>
<g id="a_node28"><a xlink:href="_variable_network_8h.html" target="_top" xlink:title="VariableNetwork.h">
<polygon fill="#ffffff" stroke="#000000" points="871.5,-207 871.5,-226 978.5,-226 978.5,-207 871.5,-207"/>
<text text-anchor="middle" x="925" y="-214" font-family="Helvetica,sans-Serif" font-size="10.00" fill="#000000">VariableNetwork.h</text>
</a>
</g>
</g>
<!-- Node2&#45;&gt;Node27 -->
<g id="edge36" class="edge">
<title>Node2&#45;&gt;Node27</title>
<path fill="none" stroke="#191970" d="M542.1496,-344.2913C626.4892,-342.1277 818.7621,-333.4501 873,-299 896.1522,-284.2945 910.8259,-255.1634 918.4803,-235.7529"/>
<polygon fill="#191970" stroke="#191970" points="921.8551,-236.7163 922.0199,-226.1227 915.2849,-234.3013 921.8551,-236.7163"/>
</g>
<!-- Node8 -->
<g id="node9" class="node">
<title>Node8</title>
<polygon fill="#ffffff" stroke="#bfbfbf" points="628,-140 628,-159 660,-159 660,-140 628,-140"/>
<text text-anchor="middle" x="644" y="-147" font-family="Helvetica,sans-Serif" font-size="10.00" fill="#000000">list</text>
</g>
<!-- Node7&#45;&gt;Node8 -->
<g id="edge8" class="edge">
<title>Node7&#45;&gt;Node8</title>
<path fill="none" stroke="#191970" d="M407.9892,-206.947C414.8848,-204.9096 422.1743,-202.824 429,-201 496.071,-183.0769 513.5145,-181.2932 581,-165 593.239,-162.0451 606.8013,-158.7155 618.1979,-155.9017"/>
<polygon fill="#191970" stroke="#191970" points="619.0881,-159.2871 627.9551,-153.4883 617.4072,-152.4919 619.0881,-159.2871"/>
</g>
<!-- Node9 -->
<g id="node10" class="node">
<title>Node9</title>
<polygon fill="#ffffff" stroke="#bfbfbf" points="528,-140 528,-159 572,-159 572,-140 528,-140"/>
<text text-anchor="middle" x="550" y="-147" font-family="Helvetica,sans-Serif" font-size="10.00" fill="#000000">string</text>
</g>
<!-- Node7&#45;&gt;Node9 -->
<g id="edge9" class="edge">
<title>Node7&#45;&gt;Node9</title>
<path fill="none" stroke="#191970" d="M401.7867,-206.9005C432.5696,-194.9788 485.11,-174.6308 518.6584,-161.6381"/>
<polygon fill="#191970" stroke="#191970" points="519.9378,-164.896 527.9989,-158.0207 517.4098,-158.3684 519.9378,-164.896"/>
</g>
<!-- Node10 -->
<g id="node11" class="node">
<title>Node10</title>
<g id="a_node11"><a xlink:href="_variable_network_node_8h.html" target="_top" xlink:title="VariableNetworkNode.h">
<polygon fill="#ffffff" stroke="#000000" points="956,-140 956,-159 1088,-159 1088,-140 956,-140"/>
<text text-anchor="middle" x="1022" y="-147" font-family="Helvetica,sans-Serif" font-size="10.00" fill="#000000">VariableNetworkNode.h</text>
</a>
</g>
</g>
<!-- Node7&#45;&gt;Node10 -->
<g id="edge10" class="edge">
<title>Node7&#45;&gt;Node10</title>
<path fill="none" stroke="#191970" d="M405.0682,-206.9345C412.7473,-204.6479 421.1254,-202.4515 429,-201 639.3884,-162.2209 696.259,-187.5469 909,-165 921.4302,-163.6826 934.601,-162.0725 947.3914,-160.394"/>
<polygon fill="#191970" stroke="#191970" points="948.0975,-163.8309 957.546,-159.0376 947.1706,-156.8925 948.0975,-163.8309"/>
</g>
<!-- Node7&#45;&gt;Node19 -->
<g id="edge23" class="edge">
<title>Node7&#45;&gt;Node19</title>
<path fill="none" stroke="#191970" d="M376.5685,-206.8631C375.5912,-185.0364 373.1923,-131.4605 371.8847,-102.2589"/>
<polygon fill="#191970" stroke="#191970" points="375.3715,-101.883 371.4276,-92.0496 368.3785,-102.1962 375.3715,-101.883"/>
</g>
<!-- Node11 -->
<g id="node12" class="node">
<title>Node11</title>
<polygon fill="#ffffff" stroke="#bfbfbf" points="489,-73 489,-92 549,-92 549,-73 489,-73"/>
<text text-anchor="middle" x="519" y="-80" font-family="Helvetica,sans-Serif" font-size="10.00" fill="#000000">iostream</text>
</g>
<!-- Node10&#45;&gt;Node11 -->
<g id="edge11" class="edge">
<title>Node10&#45;&gt;Node11</title>
<path fill="none" stroke="#191970" d="M976.8609,-139.9536C965.5173,-137.7756 953.3432,-135.6266 942,-134 772.3207,-109.6682 724.6682,-138.0604 558,-98 555.2106,-97.3295 552.3566,-96.4986 549.524,-95.5725"/>
<polygon fill="#191970" stroke="#191970" points="550.694,-92.2738 540.0999,-92.1517 548.3055,-98.8538 550.694,-92.2738"/>
</g>
<!-- Node12 -->
<g id="node13" class="node">
<title>Node12</title>
<polygon fill="#ffffff" stroke="#bfbfbf" points="747.5,-73 747.5,-92 840.5,-92 840.5,-73 747.5,-73"/>
<text text-anchor="middle" x="794" y="-80" font-family="Helvetica,sans-Serif" font-size="10.00" fill="#000000">unordered_map</text>
</g>
<!-- Node10&#45;&gt;Node12 -->
<g id="edge12" class="edge">
<title>Node10&#45;&gt;Node12</title>
<path fill="none" stroke="#191970" d="M989.3332,-139.9005C949.0379,-128.0594 880.4543,-107.9054 836.2055,-94.9025"/>
<polygon fill="#191970" stroke="#191970" points="837.1874,-91.5431 826.6062,-92.0817 835.2138,-98.2591 837.1874,-91.5431"/>
</g>
<!-- Node13 -->
<g id="node14" class="node">
<title>Node13</title>
<polygon fill="#ffffff" stroke="#bfbfbf" points="859,-73 859,-92 945,-92 945,-73 859,-73"/>
<text text-anchor="middle" x="902" y="-80" font-family="Helvetica,sans-Serif" font-size="10.00" fill="#000000">unordered_set</text>
</g>
<!-- Node10&#45;&gt;Node13 -->
<g id="edge13" class="edge">
<title>Node10&#45;&gt;Node13</title>
<path fill="none" stroke="#191970" d="M1004.8069,-139.9005C984.7573,-128.7062 951.4012,-110.0823 928.1398,-97.0947"/>
<polygon fill="#191970" stroke="#191970" points="929.5987,-93.9007 919.1612,-92.0817 926.1862,-100.0126 929.5987,-93.9007"/>
</g>
<!-- Node14 -->
<g id="node15" class="node">
<title>Node14</title>
<polygon fill="#ffffff" stroke="#bfbfbf" points="415,-73 415,-92 471,-92 471,-73 415,-73"/>
<text text-anchor="middle" x="443" y="-80" font-family="Helvetica,sans-Serif" font-size="10.00" fill="#000000">assert.h</text>
</g>
<!-- Node10&#45;&gt;Node14 -->
<g id="edge14" class="edge">
<title>Node10&#45;&gt;Node14</title>
<path fill="none" stroke="#191970" d="M956.9404,-139.9804C941.2621,-137.8512 924.5488,-135.7176 909,-134 718.82,-112.9918 665.843,-143.5211 480,-98 477.364,-97.3543 474.6731,-96.546 472.0052,-95.6397"/>
<polygon fill="#191970" stroke="#191970" points="473.1732,-92.3392 462.5825,-92.0424 470.6766,-98.8789 473.1732,-92.3392"/>
</g>
<!-- Node15 -->
<g id="node16" class="node">
<title>Node15</title>
<polygon fill="#ffffff" stroke="#bfbfbf" points="963.5,-73 963.5,-92 1082.5,-92 1082.5,-73 963.5,-73"/>
<text text-anchor="middle" x="1023" y="-80" font-family="Helvetica,sans-Serif" font-size="10.00" fill="#000000">boost/shared_ptr.hpp</text>
</g>
<!-- Node10&#45;&gt;Node15 -->
<g id="edge15" class="edge">
<title>Node10&#45;&gt;Node15</title>
<path fill="none" stroke="#191970" d="M1022.1433,-139.9005C1022.2888,-130.149 1022.5185,-114.7597 1022.7034,-102.3695"/>
<polygon fill="#191970" stroke="#191970" points="1026.2073,-102.1328 1022.857,-92.0817 1019.208,-102.0283 1026.2073,-102.1328"/>
</g>
<!-- Node16 -->
<g id="node17" class="node">
<title>Node16</title>
<polygon fill="#ffffff" stroke="#bfbfbf" points="1101,-67.5 1101,-97.5 1273,-97.5 1273,-67.5 1101,-67.5"/>
<text text-anchor="start" x="1109" y="-85.5" font-family="Helvetica,sans-Serif" font-size="10.00" fill="#000000">ChimeraTK/NDRegisterAccessor</text>
<text text-anchor="middle" x="1187" y="-74.5" font-family="Helvetica,sans-Serif" font-size="10.00" fill="#000000">Abstractor.h</text>
</g>
<!-- Node10&#45;&gt;Node16 -->
<g id="edge16" class="edge">
<title>Node10&#45;&gt;Node16</title>
<path fill="none" stroke="#191970" d="M1045.6405,-139.9005C1070.3516,-129.8663 1109.7634,-113.8627 1140.7021,-101.2997"/>
<polygon fill="#191970" stroke="#191970" points="1142.0576,-104.5269 1150.0061,-97.5218 1139.424,-98.0412 1142.0576,-104.5269"/>
</g>
<!-- Node17 -->
<g id="node18" class="node">
<title>Node17</title>
<g id="a_node18"><a xlink:href="_constant_accessor_8h.html" target="_top" xlink:title="ConstantAccessor.h">
<polygon fill="#ffffff" stroke="#000000" points="1291,-73 1291,-92 1403,-92 1403,-73 1291,-73"/>
<text text-anchor="middle" x="1347" y="-80" font-family="Helvetica,sans-Serif" font-size="10.00" fill="#000000">ConstantAccessor.h</text>
</a>
</g>
</g>
<!-- Node10&#45;&gt;Node17 -->
<g id="edge17" class="edge">
<title>Node10&#45;&gt;Node17</title>
<path fill="none" stroke="#191970" d="M1068.6114,-139.9326C1078.321,-137.9567 1088.4923,-135.8996 1098,-134 1179.7133,-117.674 1200.5663,-115.668 1282,-98 1287.3144,-96.847 1292.8619,-95.5965 1298.3789,-94.323"/>
<polygon fill="#191970" stroke="#191970" points="1299.2795,-97.7069 1308.2199,-92.0217 1297.6856,-90.8908 1299.2795,-97.7069"/>
</g>
<!-- Node10&#45;&gt;Node19 -->
<g id="edge19" class="edge">
<title>Node10&#45;&gt;Node19</title>
<path fill="none" stroke="#191970" d="M957.8471,-139.9646C941.9115,-137.799 924.8545,-135.653 909,-134 686.0809,-110.7588 623.4792,-152.1838 406,-98 403.6604,-97.4171 401.281,-96.6881 398.92,-95.8661"/>
<polygon fill="#191970" stroke="#191970" points="400.0528,-92.5499 389.4676,-92.0997 397.4617,-99.0527 400.0528,-92.5499"/>
</g>
<!-- Node20 -->
<g id="node21" class="node">
<title>Node20</title>
<g id="a_node21"><a xlink:href="_meta_data_propagating_register_decorator_8h.html" target="_top" xlink:title="MetaDataPropagatingRegister\lDecorator.h">
<polygon fill="#ffffff" stroke="#000000" points="567,-67.5 567,-97.5 729,-97.5 729,-67.5 567,-67.5"/>
<text text-anchor="start" x="575" y="-85.5" font-family="Helvetica,sans-Serif" font-size="10.00" fill="#000000">MetaDataPropagatingRegister</text>
<text text-anchor="middle" x="648" y="-74.5" font-family="Helvetica,sans-Serif" font-size="10.00" fill="#000000">Decorator.h</text>
</a>
</g>
</g>
<!-- Node10&#45;&gt;Node20 -->
<g id="edge20" class="edge">
<title>Node10&#45;&gt;Node20</title>
<path fill="none" stroke="#191970" d="M973.3748,-139.934C963.0252,-137.9385 952.1561,-135.8732 942,-134 874.0769,-121.4719 797.1838,-108.0286 739.0746,-98.0193"/>
<polygon fill="#191970" stroke="#191970" points="739.6322,-94.5639 729.1835,-96.3175 738.4451,-101.4625 739.6322,-94.5639"/>
</g>
<!-- Node21 -->
<g id="node22" class="node">
<title>Node21</title>
<g id="a_node22"><a xlink:href="_visitor_8h.html" target="_top" xlink:title="Visitor.h">
<polygon fill="#ffffff" stroke="#000000" points="1421,-73 1421,-92 1477,-92 1477,-73 1421,-73"/>
<text text-anchor="middle" x="1449" y="-80" font-family="Helvetica,sans-Serif" font-size="10.00" fill="#000000">Visitor.h</text>
</a>
</g>
</g>
<!-- Node10&#45;&gt;Node21 -->
<g id="edge22" class="edge">
<title>Node10&#45;&gt;Node21</title>
<path fill="none" stroke="#191970" d="M1065.287,-139.9935C1075.9492,-137.8395 1087.3608,-135.6915 1098,-134 1236.7274,-111.9438 1276.0878,-133.4913 1412,-98 1414.4764,-97.3533 1417.0043,-96.5729 1419.5179,-95.7104"/>
<polygon fill="#191970" stroke="#191970" points="1420.9099,-98.9254 1429.0022,-92.087 1418.4116,-92.3864 1420.9099,-98.9254"/>
</g>
<!-- Node18 -->
<g id="node19" class="node">
<title>Node18</title>
<polygon fill="#ffffff" stroke="#bfbfbf" points="1415,-6 1415,-25 1595,-25 1595,-6 1415,-6"/>
<text text-anchor="middle" x="1505" y="-13" font-family="Helvetica,sans-Serif" font-size="10.00" fill="#000000">ChimeraTK/NDRegisterAccessor.h</text>
</g>
<!-- Node17&#45;&gt;Node18 -->
<g id="edge18" class="edge">
<title>Node17&#45;&gt;Node18</title>
<path fill="none" stroke="#191970" d="M1369.6375,-72.9005C1396.7401,-61.4077 1442.3099,-42.0838 1473.0039,-29.068"/>
<polygon fill="#191970" stroke="#191970" points="1474.5644,-32.208 1482.4044,-25.0817 1471.8316,-25.7635 1474.5644,-32.208"/>
</g>
<!-- Node20&#45;&gt;Node1 -->
<g id="edge21" class="edge">
<title>Node20&#45;&gt;Node1</title>
<path fill="none" stroke="#191970" d="M577.0834,-67.4639C528.3787,-57.1373 463.6189,-43.4065 412.9003,-32.6529"/>
<polygon fill="#191970" stroke="#191970" points="413.4612,-29.1941 402.9527,-30.5438 412.0093,-36.0419 413.4612,-29.1941"/>
</g>
<!-- Node22&#45;&gt;Node7 -->
<g id="edge28" class="edge">
<title>Node22&#45;&gt;Node7</title>
<path fill="none" stroke="#191970" d="M250.2048,-273.9005C275.4821,-262.4574 317.9084,-243.2509 346.6548,-230.2374"/>
<polygon fill="#191970" stroke="#191970" points="348.168,-233.3943 355.8345,-226.0817 345.2811,-227.0173 348.168,-233.3943"/>
</g>
<!-- Node23 -->
<g id="node24" class="node">
<title>Node23</title>
<polygon fill="#ffffff" stroke="#bfbfbf" points="230,-207 230,-226 278,-226 278,-207 230,-207"/>
<text text-anchor="middle" x="254" y="-214" font-family="Helvetica,sans-Serif" font-size="10.00" fill="#000000">thread</text>
</g>
<!-- Node22&#45;&gt;Node23 -->
<g id="edge26" class="edge">
<title>Node22&#45;&gt;Node23</title>
<path fill="none" stroke="#191970" d="M232.5819,-273.9005C236.2948,-263.95 242.198,-248.1292 246.8676,-235.6147"/>
<polygon fill="#191970" stroke="#191970" points="250.2079,-236.6743 250.4248,-226.0817 243.6496,-234.2271 250.2079,-236.6743"/>
</g>
<!-- Node24 -->
<g id="node25" class="node">
<title>Node24</title>
<polygon fill="#ffffff" stroke="#bfbfbf" points="28,-201.5 28,-231.5 212,-231.5 212,-201.5 28,-201.5"/>
<text text-anchor="start" x="36" y="-219.5" font-family="Helvetica,sans-Serif" font-size="10.00" fill="#000000">ChimeraTK/ControlSystemAdapter</text>
<text text-anchor="middle" x="120" y="-208.5" font-family="Helvetica,sans-Serif" font-size="10.00" fill="#000000">/ProcessArray.h</text>
</g>
<!-- Node22&#45;&gt;Node24 -->
<g id="edge27" class="edge">
<title>Node22&#45;&gt;Node24</title>
<path fill="none" stroke="#191970" d="M213.383,-273.9005C197.6919,-264.2556 173.0284,-249.0954 152.9876,-236.7768"/>
<polygon fill="#191970" stroke="#191970" points="154.7905,-233.7767 144.4384,-231.5218 151.1248,-239.7402 154.7905,-233.7767"/>
</g>
<!-- Node25&#45;&gt;Node3 -->
<g id="edge31" class="edge">
<title>Node25&#45;&gt;Node3</title>
<path fill="none" stroke="#191970" d="M796.4276,-273.9725C790.8692,-271.714 784.7882,-269.522 779,-268 656.8035,-235.8679 618.5218,-266.5962 497,-232 495.0346,-231.4405 493.0381,-230.784 491.0479,-230.0628"/>
<polygon fill="#191970" stroke="#191970" points="491.9026,-226.6302 481.3227,-226.0681 489.2429,-233.1052 491.9026,-226.6302"/>
</g>
<!-- Node25&#45;&gt;Node4 -->
<g id="edge34" class="edge">
<title>Node25&#45;&gt;Node4</title>
<path fill="none" stroke="#191970" d="M818.0029,-273.9005C819.0217,-264.149 820.6296,-248.7597 821.9241,-236.3695"/>
<polygon fill="#191970" stroke="#191970" points="825.4408,-236.3912 822.9989,-226.0817 818.4787,-235.6638 825.4408,-236.3912"/>
</g>
<!-- Node25&#45;&gt;Node8 -->
<g id="edge33" class="edge">
<title>Node25&#45;&gt;Node8</title>
<path fill="none" stroke="#191970" d="M804.5583,-273.8631C775.0075,-250.974 700.3799,-193.17 664.2366,-165.1746"/>
<polygon fill="#191970" stroke="#191970" points="666.3781,-162.4062 656.329,-159.0496 662.0916,-167.9403 666.3781,-162.4062"/>
</g>
<!-- Node25&#45;&gt;Node9 -->
<g id="edge35" class="edge">
<title>Node25&#45;&gt;Node9</title>
<path fill="none" stroke="#191970" d="M795.541,-273.9633C790.2043,-271.8103 784.4497,-269.6703 779,-268 704.7433,-245.2415 672.8466,-274.7425 608,-232 584.3325,-216.4 567.4029,-187.5344 558.155,-168.4219"/>
<polygon fill="#191970" stroke="#191970" points="561.2722,-166.823 553.9186,-159.1957 554.9107,-169.744 561.2722,-166.823"/>
</g>
<!-- Node25&#45;&gt;Node14 -->
<g id="edge30" class="edge">
<title>Node25&#45;&gt;Node14</title>
<path fill="none" stroke="#191970" d="M794.4751,-273.9542C772.595,-264.3603 738.7125,-248.6438 711,-232 667.6369,-205.9566 659.0569,-195.8879 619,-165 601.7396,-151.6905 599.9866,-144.7039 581,-134 539.4873,-110.5968 524.4379,-115.213 480,-98 478.1978,-97.3019 476.3516,-96.5731 474.4921,-95.8283"/>
<polygon fill="#191970" stroke="#191970" points="475.8064,-92.5845 465.2255,-92.0407 473.1579,-99.0641 475.8064,-92.5845"/>
</g>
<!-- Node26 -->
<g id="node27" class="node">
<title>Node26</title>
<polygon fill="#ffffff" stroke="#bfbfbf" points="506,-207 506,-226 556,-226 556,-207 506,-207"/>
<text text-anchor="middle" x="531" y="-214" font-family="Helvetica,sans-Serif" font-size="10.00" fill="#000000">chrono</text>
</g>
<!-- Node25&#45;&gt;Node26 -->
<g id="edge32" class="edge">
<title>Node25&#45;&gt;Node26</title>
<path fill="none" stroke="#191970" d="M795.983,-273.9815C790.5339,-271.777 784.6166,-269.6086 779,-268 688.3863,-242.0482 660.7296,-257.5438 570,-232 567.3941,-231.2663 564.7231,-230.4191 562.0607,-229.5068"/>
<polygon fill="#191970" stroke="#191970" points="563.182,-226.1898 552.5888,-226.0039 560.754,-232.7553 563.182,-226.1898"/>
</g>
<!-- Node27&#45;&gt;Node8 -->
<g id="edge39" class="edge">
<title>Node27&#45;&gt;Node8</title>
<path fill="none" stroke="#191970" d="M884.051,-206.9579C875.1444,-204.9407 865.7649,-202.8606 857,-201 775.9147,-183.7871 752.2688,-192.2967 674,-165 672.5469,-164.4932 671.0765,-163.9274 669.6074,-163.32"/>
<polygon fill="#191970" stroke="#191970" points="670.6742,-159.9553 660.1328,-158.8926 667.7107,-166.2971 670.6742,-159.9553"/>
</g>
<!-- Node27&#45;&gt;Node9 -->
<g id="edge40" class="edge">
<title>Node27&#45;&gt;Node9</title>
<path fill="none" stroke="#191970" d="M885.5504,-206.9882C876.2173,-204.8822 866.2797,-202.7569 857,-201 751.8864,-181.0986 724.1448,-184.7362 619,-165 606.9896,-162.7456 593.8883,-159.9012 582.3598,-157.2663"/>
<polygon fill="#191970" stroke="#191970" points="582.8235,-153.781 572.291,-154.9284 581.2402,-160.5996 582.8235,-153.781"/>
</g>
<!-- Node27&#45;&gt;Node10 -->
<g id="edge44" class="edge">
<title>Node27&#45;&gt;Node10</title>
<path fill="none" stroke="#191970" d="M938.8977,-206.9005C954.8164,-195.9052 981.1121,-177.7422 999.8599,-164.7927"/>
<polygon fill="#191970" stroke="#191970" points="1001.8892,-167.6448 1008.128,-159.0817 997.9108,-161.8852 1001.8892,-167.6448"/>
</g>
<!-- Node27&#45;&gt;Node11 -->
<g id="edge38" class="edge">
<title>Node27&#45;&gt;Node11</title>
<path fill="none" stroke="#191970" d="M926.4067,-206.8819C928.3496,-189.4735 929.565,-152.8049 909,-134 851.1354,-81.0879 634.1571,-116.6571 558,-98 555.2135,-97.3174 552.3616,-96.478 549.5303,-95.5464"/>
<polygon fill="#191970" stroke="#191970" points="550.7024,-92.2484 540.1084,-92.1165 548.3079,-98.8261 550.7024,-92.2484"/>
</g>
<!-- Node27&#45;&gt;Node19 -->
<g id="edge43" class="edge">
<title>Node27&#45;&gt;Node19</title>
<path fill="none" stroke="#191970" d="M883.6661,-206.9812C821.5743,-192.6477 711.0056,-166.9753 707,-165 687.4518,-155.3601 688.988,-142.6914 669,-134 560.8069,-86.9546 519.4987,-130.2034 406,-98 403.8183,-97.381 401.5963,-96.6516 399.3836,-95.8522"/>
<polygon fill="#191970" stroke="#191970" points="400.4786,-92.5199 389.8953,-92.0252 397.8601,-99.0118 400.4786,-92.5199"/>
</g>
<!-- Node27&#45;&gt;Node21 -->
<g id="edge45" class="edge">
<title>Node27&#45;&gt;Node21</title>
<path fill="none" stroke="#191970" d="M978.5688,-212.5125C1071.8611,-205.0782 1260.1164,-187.7683 1322,-165 1364.1946,-149.4757 1406.685,-117.8808 1430.2496,-98.6114"/>
<polygon fill="#191970" stroke="#191970" points="1432.5961,-101.212 1438.0393,-92.1223 1428.1158,-95.8336 1432.5961,-101.212"/>
</g>
<!-- Node28 -->
<g id="node29" class="node">
<title>Node28</title>
<polygon fill="#ffffff" stroke="#bfbfbf" points="1106.5,-140 1106.5,-159 1237.5,-159 1237.5,-140 1106.5,-140"/>
<text text-anchor="middle" x="1172" y="-147" font-family="Helvetica,sans-Serif" font-size="10.00" fill="#000000">boost/mpl/for_each.hpp</text>
</g>
<!-- Node27&#45;&gt;Node28 -->
<g id="edge37" class="edge">
<title>Node27&#45;&gt;Node28</title>
<path fill="none" stroke="#191970" d="M960.1268,-206.9717C1003.8957,-195.0991 1078.7634,-174.7909 1126.7773,-161.7669"/>
<polygon fill="#191970" stroke="#191970" points="1127.8596,-165.0999 1136.5945,-159.1039 1126.027,-158.344 1127.8596,-165.0999"/>
</g>
<!-- Node29 -->
<g id="node30" class="node">
<title>Node29</title>
<polygon fill="#ffffff" stroke="#bfbfbf" points="1255.5,-140 1255.5,-159 1312.5,-159 1312.5,-140 1255.5,-140"/>
<text text-anchor="middle" x="1284" y="-147" font-family="Helvetica,sans-Serif" font-size="10.00" fill="#000000">typeinfo</text>
</g>
<!-- Node27&#45;&gt;Node29 -->
<g id="edge41" class="edge">
<title>Node27&#45;&gt;Node29</title>
<path fill="none" stroke="#191970" d="M978.5506,-211.8716C1043.1465,-205.393 1154.5795,-191.3411 1247,-165 1249.317,-164.3396 1251.6835,-163.5747 1254.0437,-162.7455"/>
<polygon fill="#191970" stroke="#191970" points="1255.4937,-165.9377 1263.5684,-159.0784 1252.9786,-159.4052 1255.4937,-165.9377"/>
</g>
<!-- Node30 -->
<g id="node31" class="node">
<title>Node30</title>
<polygon fill="#ffffff" stroke="#bfbfbf" points="716,-134.5 716,-164.5 900,-164.5 900,-134.5 716,-134.5"/>
<text text-anchor="start" x="724" y="-152.5" font-family="Helvetica,sans-Serif" font-size="10.00" fill="#000000">ChimeraTK/ControlSystemAdapter</text>
<text text-anchor="middle" x="808" y="-141.5" font-family="Helvetica,sans-Serif" font-size="10.00" fill="#000000">/ProcessVariable.h</text>
</g>
<!-- Node27&#45;&gt;Node30 -->
<g id="edge42" class="edge">
<title>Node27&#45;&gt;Node30</title>
<path fill="none" stroke="#191970" d="M908.2368,-206.9005C891.3185,-197.2123 864.6827,-181.9593 843.1197,-169.6113"/>
<polygon fill="#191970" stroke="#191970" points="844.6492,-166.4539 834.232,-164.5218 841.1706,-172.5284 844.6492,-166.4539"/>
</g>
<!-- Node31&#45;&gt;Node18 -->
<g id="edge47" class="edge">
<title>Node31&#45;&gt;Node18</title>
<path fill="none" stroke="#191970" d="M1574.706,-273.8744C1573.7738,-249.8521 1570.052,-185.4908 1556,-134 1545.9837,-97.2973 1526.8059,-57.1292 1515.0342,-34.2535"/>
<polygon fill="#191970" stroke="#191970" points="1518.0868,-32.538 1510.3485,-25.3013 1511.8849,-35.7842 1518.0868,-32.538"/>
</g>
<!-- Node32 -->
<g id="node33" class="node">
<title>Node32</title>
<g id="a_node33"><a xlink:href="_fan_out_8h.html" target="_top" xlink:title="FanOut.h">
<polygon fill="#ffffff" stroke="#000000" points="1443.5,-207 1443.5,-226 1502.5,-226 1502.5,-207 1443.5,-207"/>
<text text-anchor="middle" x="1473" y="-214" font-family="Helvetica,sans-Serif" font-size="10.00" fill="#000000">FanOut.h</text>
</a>
</g>
</g>
<!-- Node31&#45;&gt;Node32 -->
<g id="edge48" class="edge">
<title>Node31&#45;&gt;Node32</title>
<path fill="none" stroke="#191970" d="M1560.3859,-273.9005C1543.571,-262.8554 1515.7451,-244.5776 1496.0142,-231.6172"/>
<polygon fill="#191970" stroke="#191970" points="1497.8667,-228.6465 1487.587,-226.0817 1494.0236,-234.4972 1497.8667,-228.6465"/>
</g>
<!-- Node34 -->
<g id="node35" class="node">
<title>Node34</title>
<polygon fill="#ffffff" stroke="#bfbfbf" points="1603.5,-207 1603.5,-226 1668.5,-226 1668.5,-207 1603.5,-207"/>
<text text-anchor="middle" x="1636" y="-214" font-family="Helvetica,sans-Serif" font-size="10.00" fill="#000000">functional</text>
</g>
<!-- Node31&#45;&gt;Node34 -->
<g id="edge53" class="edge">
<title>Node31&#45;&gt;Node34</title>
<path fill="none" stroke="#191970" d="M1583.7398,-273.9005C1593.2522,-263.4525 1608.657,-246.5325 1620.2825,-233.7635"/>
<polygon fill="#191970" stroke="#191970" points="1623.1322,-235.8324 1627.2764,-226.0817 1617.9561,-231.1198 1623.1322,-235.8324"/>
</g>
<!-- Node35 -->
<g id="node36" class="node">
<title>Node35</title>
<polygon fill="#ffffff" stroke="#bfbfbf" points="1687,-207 1687,-226 1743,-226 1743,-207 1687,-207"/>
<text text-anchor="middle" x="1715" y="-214" font-family="Helvetica,sans-Serif" font-size="10.00" fill="#000000">sstream</text>
</g>
<!-- Node31&#45;&gt;Node35 -->
<g id="edge54" class="edge">
<title>Node31&#45;&gt;Node35</title>
<path fill="none" stroke="#191970" d="M1595.0586,-273.9005C1618.8656,-262.5072 1658.7539,-243.4178 1685.9396,-230.4075"/>
<polygon fill="#191970" stroke="#191970" points="1687.4693,-233.5556 1694.9786,-226.0817 1684.4474,-227.2415 1687.4693,-233.5556"/>
</g>
<!-- Node32&#45;&gt;Node8 -->
<g id="edge51" class="edge">
<title>Node32&#45;&gt;Node8</title>
<path fill="none" stroke="#191970" d="M1443.3772,-215.1999C1320.8201,-209.7144 853.0281,-187.6956 707,-165 694.6439,-163.0796 681.1568,-159.9099 669.8433,-156.9356"/>
<polygon fill="#191970" stroke="#191970" points="670.7273,-153.549 660.1592,-154.3005 668.8893,-160.3034 670.7273,-153.549"/>
</g>
<!-- Node32&#45;&gt;Node10 -->
<g id="edge49" class="edge">
<title>Node32&#45;&gt;Node10</title>
<path fill="none" stroke="#191970" d="M1443.2461,-213.0777C1379.6691,-205.6194 1225.9422,-186.8086 1098,-165 1090.8815,-163.7866 1083.4105,-162.4014 1076.047,-160.9697"/>
<polygon fill="#191970" stroke="#191970" points="1076.6055,-157.5124 1066.1157,-159.0002 1075.2438,-164.3787 1076.6055,-157.5124"/>
</g>
<!-- Node32&#45;&gt;Node18 -->
<g id="edge50" class="edge">
<title>Node32&#45;&gt;Node18</title>
<path fill="none" stroke="#191970" d="M1474.5434,-206.8054C1479.5067,-175.6298 1495.1246,-77.5298 1501.8589,-35.2302"/>
<polygon fill="#191970" stroke="#191970" points="1505.3562,-35.5233 1503.4721,-25.0974 1498.4433,-34.4227 1505.3562,-35.5233"/>
</g>
<!-- Node33 -->
<g id="node34" class="node">
<title>Node33</title>
<polygon fill="#ffffff" stroke="#bfbfbf" points="1501.5,-140 1501.5,-159 1546.5,-159 1546.5,-140 1501.5,-140"/>
<text text-anchor="middle" x="1524" y="-147" font-family="Helvetica,sans-Serif" font-size="10.00" fill="#000000">utility</text>
</g>
<!-- Node32&#45;&gt;Node33 -->
<g id="edge52" class="edge">
<title>Node32&#45;&gt;Node33</title>
<path fill="none" stroke="#191970" d="M1480.3071,-206.9005C1488.1843,-196.552 1500.8946,-179.8542 1510.5806,-167.1295"/>
<polygon fill="#191970" stroke="#191970" points="1513.4346,-169.1586 1516.7065,-159.0817 1507.8646,-164.9188 1513.4346,-169.1586"/>
</g>
</g>
</svg>
