<?xml version="1.0" encoding="UTF-8" standalone="no"?>
<!DOCTYPE svg PUBLIC "-//W3C//DTD SVG 1.1//EN"
 "http://www.w3.org/Graphics/SVG/1.1/DTD/svg11.dtd">
<!-- Generated by graphviz version 2.40.1 (20161225.0304)
 -->
<!-- Title: include/Visitor.h Pages: 1 -->
<svg width="2526pt" height="598pt"
 viewBox="0.00 0.00 2526.27 598.00" xmlns="http://www.w3.org/2000/svg" xmlns:xlink="http://www.w3.org/1999/xlink">
<g id="graph0" class="graph" transform="scale(1 1) rotate(0) translate(4 594)">
<title>include/Visitor.h</title>
<polygon fill="#ffffff" stroke="transparent" points="-4,4 -4,-594 2522.2734,-594 2522.2734,4 -4,4"/>
<!-- Node1 -->
<g id="node1" class="node">
<title>Node1</title>
<polygon fill="#bfbfbf" stroke="#000000" points="1970.7734,-570.5 1970.7734,-589.5 2065.7734,-589.5 2065.7734,-570.5 1970.7734,-570.5"/>
<text text-anchor="middle" x="2018.2734" y="-577.5" font-family="Helvetica,sans-Serif" font-size="10.00" fill="#000000">include/Visitor.h</text>
</g>
<!-- Node2 -->
<g id="node2" class="node">
<title>Node2</title>
<g id="a_node2"><a xlink:href="_variable_network_node_8h.html" target="_top" xlink:title="include/VariableNetworkNode.h">
<polygon fill="#ffffff" stroke="#000000" points="999.2734,-514.5 999.2734,-533.5 1169.2734,-533.5 1169.2734,-514.5 999.2734,-514.5"/>
<text text-anchor="middle" x="1084.2734" y="-521.5" font-family="Helvetica,sans-Serif" font-size="10.00" fill="#000000">include/VariableNetworkNode.h</text>
</a>
</g>
</g>
<!-- Node1&#45;&gt;Node2 -->
<g id="edge1" class="edge">
<title>Node1&#45;&gt;Node2</title>
<path fill="none" stroke="#191970" d="M1960.6274,-576.5437C1801.766,-567.0188 1357.0494,-540.3549 1169.4574,-529.1074"/>
<polygon fill="#191970" stroke="#191970" points="1960.4806,-580.0411 1970.6722,-577.146 1960.8996,-573.0536 1960.4806,-580.0411"/>
</g>
<!-- Node27 -->
<g id="node9" class="node">
<title>Node27</title>
<g id="a_node9"><a xlink:href="_application_8cc.html" target="_top" xlink:title="src/Application.cc">
<polygon fill="#ffffff" stroke="#000000" points="1283.2734,-.5 1283.2734,-19.5 1385.2734,-19.5 1385.2734,-.5 1283.2734,-.5"/>
<text text-anchor="middle" x="1334.2734" y="-7.5" font-family="Helvetica,sans-Serif" font-size="10.00" fill="#000000">src/Application.cc</text>
</a>
</g>
</g>
<!-- Node1&#45;&gt;Node27 -->
<g id="edge125" class="edge">
<title>Node1&#45;&gt;Node27</title>
<path fill="none" stroke="#191970" d="M2076.5259,-578.5096C2208.3737,-573.5567 2518.2734,-552.3578 2518.2734,-462.5 2518.2734,-462.5 2518.2734,-462.5 2518.2734,-138.5 2518.2734,-72.3057 2457.2062,-76.5219 2394.2734,-56 2297.9547,-24.5911 1584.3469,-13.1941 1385.5494,-10.6098"/>
<polygon fill="#191970" stroke="#191970" points="2076.0844,-575.023 2066.2156,-578.8772 2076.334,-582.0185 2076.0844,-575.023"/>
</g>
<!-- Node43 -->
<g id="node25" class="node">
<title>Node43</title>
<g id="a_node25"><a xlink:href="_variable_network_node_8cc.html" target="_top" xlink:title="src/VariableNetworkNode.cc">
<polygon fill="#ffffff" stroke="#000000" points="1805.2734,-252 1805.2734,-271 1959.2734,-271 1959.2734,-252 1805.2734,-252"/>
<text text-anchor="middle" x="1882.2734" y="-259" font-family="Helvetica,sans-Serif" font-size="10.00" fill="#000000">src/VariableNetworkNode.cc</text>
</a>
</g>
</g>
<!-- Node1&#45;&gt;Node43 -->
<g id="edge126" class="edge">
<title>Node1&#45;&gt;Node43</title>
<path fill="none" stroke="#191970" d="M2039.4651,-563.9989C2061.4748,-545.9159 2094.5721,-514.237 2108.2734,-478 2114.3872,-461.8305 2113.884,-395.831 2105.2734,-380 2102.2093,-374.3664 2016.9028,-316.072 2011.2734,-313 1978.6749,-295.2108 1938.6143,-280.1875 1911.8661,-271.04"/>
<polygon fill="#191970" stroke="#191970" points="2037.2705,-561.2724 2031.6361,-570.2448 2041.636,-566.7444 2037.2705,-561.2724"/>
</g>
<!-- Node57 -->
<g id="node39" class="node">
<title>Node57</title>
<g id="a_node39"><a xlink:href="_variable_network_8h.html" target="_top" xlink:title="include/VariableNetwork.h">
<polygon fill="#ffffff" stroke="#000000" points="1533.7734,-386 1533.7734,-405 1678.7734,-405 1678.7734,-386 1533.7734,-386"/>
<text text-anchor="middle" x="1606.2734" y="-393" font-family="Helvetica,sans-Serif" font-size="10.00" fill="#000000">include/VariableNetwork.h</text>
</a>
</g>
</g>
<!-- Node1&#45;&gt;Node57 -->
<g id="edge107" class="edge">
<title>Node1&#45;&gt;Node57</title>
<path fill="none" stroke="#191970" d="M1987.5031,-566.2206C1907.7427,-530.5026 1695.7941,-435.5887 1627.6767,-405.0847"/>
<polygon fill="#191970" stroke="#191970" points="1986.4329,-569.5762 1996.9901,-570.469 1989.2939,-563.1875 1986.4329,-569.5762"/>
</g>
<!-- Node64 -->
<g id="node46" class="node">
<title>Node64</title>
<g id="a_node46"><a xlink:href="_module_graph_visitor_8h.html" target="_top" xlink:title="include/ModuleGraphVisitor.h">
<polygon fill="#ffffff" stroke="#000000" points="88.7734,-386 88.7734,-405 247.7734,-405 247.7734,-386 88.7734,-386"/>
<text text-anchor="middle" x="168.2734" y="-393" font-family="Helvetica,sans-Serif" font-size="10.00" fill="#000000">include/ModuleGraphVisitor.h</text>
</a>
</g>
</g>
<!-- Node1&#45;&gt;Node64 -->
<g id="edge108" class="edge">
<title>Node1&#45;&gt;Node64</title>
<path fill="none" stroke="#191970" d="M1960.1939,-578.9826C1803.4507,-575.8949 1358.7786,-564.875 990.2734,-534 787.2368,-516.9887 736.0224,-512.8301 535.2734,-478 413.3415,-456.8447 270.8295,-421.8036 205.0178,-405.0261"/>
<polygon fill="#191970" stroke="#191970" points="1960.4719,-582.4885 1970.5379,-579.183 1960.6076,-575.4899 1960.4719,-582.4885"/>
</g>
<!-- Node65 -->
<g id="node47" class="node">
<title>Node65</title>
<g id="a_node47"><a xlink:href="_variable_network_node_dumping_visitor_8h.html" target="_top" xlink:title="include/VariableNetworkNode\lDumpingVisitor.h">
<polygon fill="#ffffff" stroke="#000000" points="1937.7734,-447.5 1937.7734,-477.5 2098.7734,-477.5 2098.7734,-447.5 1937.7734,-447.5"/>
<text text-anchor="start" x="1945.7734" y="-465.5" font-family="Helvetica,sans-Serif" font-size="10.00" fill="#000000">include/VariableNetworkNode</text>
<text text-anchor="middle" x="2018.2734" y="-454.5" font-family="Helvetica,sans-Serif" font-size="10.00" fill="#000000">DumpingVisitor.h</text>
</a>
</g>
</g>
<!-- Node1&#45;&gt;Node65 -->
<g id="edge111" class="edge">
<title>Node1&#45;&gt;Node65</title>
<path fill="none" stroke="#191970" d="M2018.2734,-560.3022C2018.2734,-537.0339 2018.2734,-498.8278 2018.2734,-477.7143"/>
<polygon fill="#191970" stroke="#191970" points="2014.7735,-560.3844 2018.2734,-570.3845 2021.7735,-560.3845 2014.7735,-560.3844"/>
</g>
<!-- Node66 -->
<g id="node48" class="node">
<title>Node66</title>
<g id="a_node48"><a xlink:href="_variable_network_dumping_visitor_8h.html" target="_top" xlink:title="include/VariableNetworkDumping\lVisitor.h">
<polygon fill="#ffffff" stroke="#000000" points="1900.2734,-380.5 1900.2734,-410.5 2080.2734,-410.5 2080.2734,-380.5 1900.2734,-380.5"/>
<text text-anchor="start" x="1908.2734" y="-398.5" font-family="Helvetica,sans-Serif" font-size="10.00" fill="#000000">include/VariableNetworkDumping</text>
<text text-anchor="middle" x="1990.2734" y="-387.5" font-family="Helvetica,sans-Serif" font-size="10.00" fill="#000000">Visitor.h</text>
</a>
</g>
</g>
<!-- Node1&#45;&gt;Node66 -->
<g id="edge120" class="edge">
<title>Node1&#45;&gt;Node66</title>
<path fill="none" stroke="#191970" d="M1997.3755,-563.9985C1975.6059,-545.8787 1942.8217,-514.1341 1929.2734,-478 1924.4364,-465.0992 1923.4696,-459.4957 1929.2734,-447 1936.338,-431.7902 1950.3519,-419.4531 1963.1677,-410.671"/>
<polygon fill="#191970" stroke="#191970" points="1995.413,-566.9125 2005.3918,-570.4726 1999.8111,-561.4666 1995.413,-566.9125"/>
</g>
<!-- Node67 -->
<g id="node49" class="node">
<title>Node67</title>
<g id="a_node49"><a xlink:href="_variable_network_graph_dumping_visitor_8h.html" target="_top" xlink:title="include/VariableNetworkGraph\lDumpingVisitor.h">
<polygon fill="#ffffff" stroke="#000000" points="2066.7734,-313.5 2066.7734,-343.5 2231.7734,-343.5 2231.7734,-313.5 2066.7734,-313.5"/>
<text text-anchor="start" x="2074.7734" y="-331.5" font-family="Helvetica,sans-Serif" font-size="10.00" fill="#000000">include/VariableNetworkGraph</text>
<text text-anchor="middle" x="2149.2734" y="-320.5" font-family="Helvetica,sans-Serif" font-size="10.00" fill="#000000">DumpingVisitor.h</text>
</a>
</g>
</g>
<!-- Node1&#45;&gt;Node67 -->
<g id="edge121" class="edge">
<title>Node1&#45;&gt;Node67</title>
<path fill="none" stroke="#191970" d="M2076.0292,-570.9778C2116.9058,-563.2759 2166.6186,-550.7769 2179.2734,-534 2223.3494,-475.5671 2178.6597,-380.5869 2158.2661,-343.7636"/>
<polygon fill="#191970" stroke="#191970" points="2075.3335,-567.5469 2066.124,-572.7848 2076.5898,-574.4333 2075.3335,-567.5469"/>
</g>
<!-- Node68 -->
<g id="node50" class="node">
<title>Node68</title>
<g id="a_node50"><a xlink:href="_x_m_l_generator_visitor_8h.html" target="_top" xlink:title="include/XMLGeneratorVisitor.h">
<polygon fill="#ffffff" stroke="#000000" points="2326.2734,-319 2326.2734,-338 2490.2734,-338 2490.2734,-319 2326.2734,-319"/>
<text text-anchor="middle" x="2408.2734" y="-326" font-family="Helvetica,sans-Serif" font-size="10.00" fill="#000000">include/XMLGeneratorVisitor.h</text>
</a>
</g>
</g>
<!-- Node1&#45;&gt;Node68 -->
<g id="edge122" class="edge">
<title>Node1&#45;&gt;Node68</title>
<path fill="none" stroke="#191970" d="M2075.9563,-573.3298C2140.5607,-563.1088 2245.0084,-537.9894 2312.2734,-478 2359.9256,-435.5021 2393.2824,-363.9846 2404.306,-338.1638"/>
<polygon fill="#191970" stroke="#191970" points="2075.3053,-569.8884 2065.9416,-574.8454 2076.3527,-576.8096 2075.3053,-569.8884"/>
</g>
<!-- Node3 -->
<g id="node3" class="node">
<title>Node3</title>
<g id="a_node3"><a xlink:href="_entity_owner_8h.html" target="_top" xlink:title="include/EntityOwner.h">
<polygon fill="#ffffff" stroke="#000000" points="1069.7734,-453 1069.7734,-472 1192.7734,-472 1192.7734,-453 1069.7734,-453"/>
<text text-anchor="middle" x="1131.2734" y="-460" font-family="Helvetica,sans-Serif" font-size="10.00" fill="#000000">include/EntityOwner.h</text>
</a>
</g>
</g>
<!-- Node2&#45;&gt;Node3 -->
<g id="edge2" class="edge">
<title>Node2&#45;&gt;Node3</title>
<path fill="none" stroke="#191970" d="M1097.8412,-506.2465C1106.3004,-495.1775 1116.8638,-481.3552 1123.8262,-472.2449"/>
<polygon fill="#191970" stroke="#191970" points="1094.9084,-504.3199 1091.6172,-514.3906 1100.4702,-508.5704 1094.9084,-504.3199"/>
</g>
<!-- Node2&#45;&gt;Node27 -->
<g id="edge101" class="edge">
<title>Node2&#45;&gt;Node27</title>
<path fill="none" stroke="#191970" d="M1179.6716,-523.5037C1424.4352,-521.7194 2061.7097,-513.6649 2150.2734,-478 2262.6178,-432.7585 2280.4903,-385.5146 2334.2734,-277 2349.9266,-245.4176 2353.2734,-235.2487 2353.2734,-200 2353.2734,-200 2353.2734,-200 2353.2734,-138.5 2353.2734,-39.8718 1592.14,-15.742 1385.5042,-11.0084"/>
<polygon fill="#191970" stroke="#191970" points="1179.3452,-520.0059 1169.3703,-523.5768 1179.3949,-527.0057 1179.3452,-520.0059"/>
</g>
<!-- Node29 -->
<g id="node11" class="node">
<title>Node29</title>
<g id="a_node11"><a xlink:href="_device_module_8h.html" target="_top" xlink:title="include/DeviceModule.h">
<polygon fill="#ffffff" stroke="#000000" points="737.7734,-129 737.7734,-148 870.7734,-148 870.7734,-129 737.7734,-129"/>
<text text-anchor="middle" x="804.2734" y="-136" font-family="Helvetica,sans-Serif" font-size="10.00" fill="#000000">include/DeviceModule.h</text>
</a>
</g>
</g>
<!-- Node2&#45;&gt;Node29 -->
<g id="edge92" class="edge">
<title>Node2&#45;&gt;Node29</title>
<path fill="none" stroke="#191970" d="M1068.7329,-506.5406C1061.8797,-498.2739 1054.0818,-488.0305 1048.2734,-478 1008.6112,-409.5062 1039.6267,-366.4733 981.2734,-313 941.1621,-276.243 904.8065,-313.2915 864.2734,-277 843.6771,-258.5589 816.2723,-176.4287 807.2743,-148.1246"/>
<polygon fill="#191970" stroke="#191970" points="1066.2503,-509.0227 1075.4096,-514.348 1071.5703,-504.4732 1066.2503,-509.0227"/>
</g>
<!-- Node2&#45;&gt;Node43 -->
<g id="edge103" class="edge">
<title>Node2&#45;&gt;Node43</title>
<path fill="none" stroke="#191970" d="M1141.9608,-512.306C1219.5684,-495.4584 1360.9398,-460.8109 1474.2734,-411 1498.5571,-400.3272 1501.9303,-392.5977 1525.2734,-380 1586.3312,-347.0488 1600.8363,-336.061 1666.2734,-313 1720.2671,-293.9718 1784.3017,-279.69 1828.5597,-271.0509"/>
<polygon fill="#191970" stroke="#191970" points="1140.943,-508.9448 1131.9014,-514.4674 1142.4136,-515.7886 1140.943,-508.9448"/>
</g>
<!-- Node45 -->
<g id="node27" class="node">
<title>Node45</title>
<g id="a_node27"><a xlink:href="_x_m_l_generator_visitor_8cc.html" target="_top" xlink:title="src/XMLGeneratorVisitor.cc">
<polygon fill="#ffffff" stroke="#000000" points="2177.7734,-252 2177.7734,-271 2324.7734,-271 2324.7734,-252 2177.7734,-252"/>
<text text-anchor="middle" x="2251.2734" y="-259" font-family="Helvetica,sans-Serif" font-size="10.00" fill="#000000">src/XMLGeneratorVisitor.cc</text>
</a>
</g>
</g>
<!-- Node2&#45;&gt;Node45 -->
<g id="edge106" class="edge">
<title>Node2&#45;&gt;Node45</title>
<path fill="none" stroke="#191970" d="M1179.5681,-521.5936C1425.6694,-515.1281 2066.2723,-496.6065 2108.2734,-478 2184.993,-444.0132 2204.6893,-419.5155 2241.2734,-344 2252.9735,-319.8492 2252.9509,-287.2414 2252.0637,-271.2147"/>
<polygon fill="#191970" stroke="#191970" points="1179.4692,-518.0949 1169.5642,-521.8555 1179.6524,-525.0925 1179.4692,-518.0949"/>
</g>
<!-- Node47 -->
<g id="node29" class="node">
<title>Node47</title>
<g id="a_node29"><a xlink:href="_module_8h.html" target="_top" xlink:title="include/Module.h">
<polygon fill="#ffffff" stroke="#000000" points="608.7734,-386 608.7734,-405 707.7734,-405 707.7734,-386 608.7734,-386"/>
<text text-anchor="middle" x="658.2734" y="-393" font-family="Helvetica,sans-Serif" font-size="10.00" fill="#000000">include/Module.h</text>
</a>
</g>
</g>
<!-- Node2&#45;&gt;Node47 -->
<g id="edge89" class="edge">
<title>Node2&#45;&gt;Node47</title>
<path fill="none" stroke="#191970" d="M1036.5088,-511.6477C1009.7681,-503.8066 976.2758,-492.4148 948.2734,-478 927.3262,-467.2169 926.8324,-456.5011 905.2734,-447 870.5004,-431.6754 769.4081,-413.4676 707.8624,-403.3237"/>
<polygon fill="#191970" stroke="#191970" points="1035.8244,-515.0922 1046.4014,-514.4779 1037.7499,-508.3622 1035.8244,-515.0922"/>
</g>
<!-- Node53 -->
<g id="node35" class="node">
<title>Node53</title>
<g id="a_node35"><a xlink:href="_inversion_of_control_accessor_8h.html" target="_top" xlink:title="include/InversionOfControl\lAccessor.h">
<polygon fill="#ffffff" stroke="#000000" points="296.2734,-313.5 296.2734,-343.5 442.2734,-343.5 442.2734,-313.5 296.2734,-313.5"/>
<text text-anchor="start" x="304.2734" y="-331.5" font-family="Helvetica,sans-Serif" font-size="10.00" fill="#000000">include/InversionOfControl</text>
<text text-anchor="middle" x="369.2734" y="-320.5" font-family="Helvetica,sans-Serif" font-size="10.00" fill="#000000">Accessor.h</text>
</a>
</g>
</g>
<!-- Node2&#45;&gt;Node53 -->
<g id="edge90" class="edge">
<title>Node2&#45;&gt;Node53</title>
<path fill="none" stroke="#191970" d="M988.9612,-514.7565C927.8404,-507.5965 847.1424,-495.839 777.2734,-478 634.5574,-441.5617 472.2038,-373.7413 403.1861,-343.605"/>
<polygon fill="#191970" stroke="#191970" points="988.6471,-518.2434 998.9817,-515.9098 989.4475,-511.2893 988.6471,-518.2434"/>
</g>
<!-- Node54 -->
<g id="node36" class="node">
<title>Node54</title>
<g id="a_node36"><a xlink:href="_control_system_module_8h.html" target="_top" xlink:title="include/ControlSystemModule.h">
<polygon fill="#ffffff" stroke="#000000" points="800.7734,-319 800.7734,-338 971.7734,-338 971.7734,-319 800.7734,-319"/>
<text text-anchor="middle" x="886.2734" y="-326" font-family="Helvetica,sans-Serif" font-size="10.00" fill="#000000">include/ControlSystemModule.h</text>
</a>
</g>
</g>
<!-- Node2&#45;&gt;Node54 -->
<g id="edge91" class="edge">
<title>Node2&#45;&gt;Node54</title>
<path fill="none" stroke="#191970" d="M1043.9706,-510.8204C1025.0453,-503.2706 1003.0226,-492.398 986.2734,-478 937.2569,-435.8642 902.1269,-364.1232 890.4745,-338.2036"/>
<polygon fill="#191970" stroke="#191970" points="1042.9497,-514.1768 1053.5406,-514.4666 1045.4421,-507.6355 1042.9497,-514.1768"/>
</g>
<!-- Node55 -->
<g id="node37" class="node">
<title>Node55</title>
<g id="a_node37"><a xlink:href="_module_graph_visitor_8cc.html" target="_top" xlink:title="src/ModuleGraphVisitor.cc">
<polygon fill="#ffffff" stroke="#000000" points="96.7734,-319 96.7734,-338 239.7734,-338 239.7734,-319 96.7734,-319"/>
<text text-anchor="middle" x="168.2734" y="-326" font-family="Helvetica,sans-Serif" font-size="10.00" fill="#000000">src/ModuleGraphVisitor.cc</text>
</a>
</g>
</g>
<!-- Node2&#45;&gt;Node55 -->
<g id="edge102" class="edge">
<title>Node2&#45;&gt;Node55</title>
<path fill="none" stroke="#191970" d="M988.9554,-517.1365C905.7015,-510.2255 781.841,-497.7267 675.2734,-478 558.7824,-456.4363 530.8975,-444.5372 417.2734,-411 335.8152,-386.9568 240.8912,-354.1597 195.3541,-338.1239"/>
<polygon fill="#191970" stroke="#191970" points="988.9042,-520.6439 999.1566,-517.9722 989.4758,-513.6673 988.9042,-520.6439"/>
</g>
<!-- Node2&#45;&gt;Node57 -->
<g id="edge83" class="edge">
<title>Node2&#45;&gt;Node57</title>
<path fill="none" stroke="#191970" d="M1179.7634,-521.0221C1289.1598,-516.375 1460.8422,-504.9468 1519.2734,-478 1555.5657,-461.263 1586.3571,-423.2253 1599.4845,-405.2524"/>
<polygon fill="#191970" stroke="#191970" points="1179.5521,-517.5277 1169.7052,-521.4377 1179.8413,-524.5217 1179.5521,-517.5277"/>
</g>
<!-- Node59 -->
<g id="node41" class="node">
<title>Node59</title>
<g id="a_node41"><a xlink:href="_fan_out_8h.html" target="_top" xlink:title="include/FanOut.h">
<polygon fill="#ffffff" stroke="#000000" points="1198.2734,-252 1198.2734,-271 1296.2734,-271 1296.2734,-252 1198.2734,-252"/>
<text text-anchor="middle" x="1247.2734" y="-259" font-family="Helvetica,sans-Serif" font-size="10.00" fill="#000000">include/FanOut.h</text>
</a>
</g>
</g>
<!-- Node2&#45;&gt;Node59 -->
<g id="edge93" class="edge">
<title>Node2&#45;&gt;Node59</title>
<path fill="none" stroke="#191970" d="M1073.5198,-505.2301C1058.594,-476.4673 1035.8291,-420.5633 1058.2734,-380 1091.5552,-319.8505 1169.5457,-286.1429 1214.2464,-271.1264"/>
<polygon fill="#191970" stroke="#191970" points="1070.5415,-507.0802 1078.3853,-514.2024 1076.6949,-503.7432 1070.5415,-507.0802"/>
</g>
<!-- Node62 -->
<g id="node44" class="node">
<title>Node62</title>
<g id="a_node44"><a xlink:href="_variable_network_node_dumping_visitor_8cc.html" target="_top" xlink:title="src/VariableNetworkNodeDumping\lVisitor.cc">
<polygon fill="#ffffff" stroke="#000000" points="1696.7734,-380.5 1696.7734,-410.5 1881.7734,-410.5 1881.7734,-380.5 1696.7734,-380.5"/>
<text text-anchor="start" x="1704.7734" y="-398.5" font-family="Helvetica,sans-Serif" font-size="10.00" fill="#000000">src/VariableNetworkNodeDumping</text>
<text text-anchor="middle" x="1789.2734" y="-387.5" font-family="Helvetica,sans-Serif" font-size="10.00" fill="#000000">Visitor.cc</text>
</a>
</g>
</g>
<!-- Node2&#45;&gt;Node62 -->
<g id="edge104" class="edge">
<title>Node2&#45;&gt;Node62</title>
<path fill="none" stroke="#191970" d="M1179.5198,-521.3673C1275.2182,-517.1645 1426.4421,-506.2625 1554.2734,-478 1627.5254,-461.8046 1709.4277,-429.6673 1754.6087,-410.6358"/>
<polygon fill="#191970" stroke="#191970" points="1179.1268,-517.8807 1169.2838,-521.8005 1179.4229,-524.8744 1179.1268,-517.8807"/>
</g>
<!-- Node63 -->
<g id="node45" class="node">
<title>Node63</title>
<g id="a_node45"><a xlink:href="_visitor_helper_8cc.html" target="_top" xlink:title="src/VisitorHelper.cc">
<polygon fill="#ffffff" stroke="#000000" points="786.2734,-453 786.2734,-472 896.2734,-472 896.2734,-453 786.2734,-453"/>
<text text-anchor="middle" x="841.2734" y="-460" font-family="Helvetica,sans-Serif" font-size="10.00" fill="#000000">src/VisitorHelper.cc</text>
</a>
</g>
</g>
<!-- Node2&#45;&gt;Node63 -->
<g id="edge105" class="edge">
<title>Node2&#45;&gt;Node63</title>
<path fill="none" stroke="#191970" d="M1036.8108,-511.9878C990.6934,-500.3162 921.576,-482.8235 879.064,-472.0643"/>
<polygon fill="#191970" stroke="#191970" points="1036.0182,-515.3975 1046.5713,-514.4581 1037.7357,-508.6115 1036.0182,-515.3975"/>
</g>
<!-- Node4 -->
<g id="node4" class="node">
<title>Node4</title>
<g id="a_node4"><a xlink:href="_application_8h.html" target="_top" xlink:title="include/Application.h">
<polygon fill="#ffffff" stroke="#000000" points="1380.7734,-319 1380.7734,-338 1499.7734,-338 1499.7734,-319 1380.7734,-319"/>
<text text-anchor="middle" x="1440.2734" y="-326" font-family="Helvetica,sans-Serif" font-size="10.00" fill="#000000">include/Application.h</text>
</a>
</g>
</g>
<!-- Node3&#45;&gt;Node4 -->
<g id="edge3" class="edge">
<title>Node3&#45;&gt;Node4</title>
<path fill="none" stroke="#191970" d="M1203.1869,-457.284C1275.2249,-450.6762 1379.6768,-436.8907 1410.2734,-411 1432.4947,-392.1965 1438.2574,-355.5273 1439.7511,-338.1184"/>
<polygon fill="#191970" stroke="#191970" points="1202.4567,-453.8351 1192.8061,-458.2075 1203.077,-460.8076 1202.4567,-453.8351"/>
</g>
<!-- Node39 -->
<g id="node21" class="node">
<title>Node39</title>
<g id="a_node21"><a xlink:href="_entity_owner_8cc.html" target="_top" xlink:title="src/EntityOwner.cc">
<polygon fill="#ffffff" stroke="#000000" points="360.7734,-252 360.7734,-271 467.7734,-271 467.7734,-252 360.7734,-252"/>
<text text-anchor="middle" x="414.2734" y="-259" font-family="Helvetica,sans-Serif" font-size="10.00" fill="#000000">src/EntityOwner.cc</text>
</a>
</g>
</g>
<!-- Node3&#45;&gt;Node39 -->
<g id="edge79" class="edge">
<title>Node3&#45;&gt;Node39</title>
<path fill="none" stroke="#191970" d="M1091.7645,-449.8768C1007.3185,-423.0858 802.7983,-359.2112 629.2734,-313 561.7692,-295.023 544.1607,-293.4718 476.2734,-277 468.4024,-275.0902 459.9788,-273.0092 451.9578,-271.01"/>
<polygon fill="#191970" stroke="#191970" points="1090.867,-453.264 1101.4574,-452.9565 1092.9867,-446.5926 1090.867,-453.264"/>
</g>
<!-- Node3&#45;&gt;Node43 -->
<g id="edge82" class="edge">
<title>Node3&#45;&gt;Node43</title>
<path fill="none" stroke="#191970" d="M1203.1375,-458.1155C1265.6551,-452.4746 1357.8099,-439.7037 1433.2734,-411 1510.1555,-381.7568 1513.4515,-342.401 1590.2734,-313 1677.0766,-279.779 1704.7607,-293.2429 1796.2734,-277 1807.0286,-275.091 1818.5366,-273.0298 1829.5234,-271.0529"/>
<polygon fill="#191970" stroke="#191970" points="1202.6416,-454.6452 1192.9799,-458.9928 1203.244,-461.6192 1202.6416,-454.6452"/>
</g>
<!-- Node46 -->
<g id="node28" class="node">
<title>Node46</title>
<g id="a_node28"><a xlink:href="_internal_module_8h.html" target="_top" xlink:title="include/InternalModule.h">
<polygon fill="#ffffff" stroke="#000000" points="1066.7734,-386 1066.7734,-405 1203.7734,-405 1203.7734,-386 1066.7734,-386"/>
<text text-anchor="middle" x="1135.2734" y="-393" font-family="Helvetica,sans-Serif" font-size="10.00" fill="#000000">include/InternalModule.h</text>
</a>
</g>
</g>
<!-- Node3&#45;&gt;Node46 -->
<g id="edge45" class="edge">
<title>Node3&#45;&gt;Node46</title>
<path fill="none" stroke="#191970" d="M1132.461,-442.6079C1133.201,-430.214 1134.1196,-414.8263 1134.7014,-405.0817"/>
<polygon fill="#191970" stroke="#191970" points="1128.9488,-442.7097 1131.8466,-452.9005 1135.9364,-443.1269 1128.9488,-442.7097"/>
</g>
<!-- Node3&#45;&gt;Node47 -->
<g id="edge49" class="edge">
<title>Node3&#45;&gt;Node47</title>
<path fill="none" stroke="#191970" d="M1059.2251,-452.9125C984.062,-442.8262 862.8277,-426.3198 758.2734,-411 741.8467,-408.5931 723.921,-405.851 707.8414,-403.3493"/>
<polygon fill="#191970" stroke="#191970" points="1059.1422,-456.4327 1069.5186,-454.2924 1060.0723,-449.4947 1059.1422,-456.4327"/>
</g>
<!-- Node3&#45;&gt;Node55 -->
<g id="edge81" class="edge">
<title>Node3&#45;&gt;Node55</title>
<path fill="none" stroke="#191970" d="M1059.392,-457.6058C956.9315,-450.1613 763.1371,-434.3462 599.2734,-411 440.3155,-388.3527 401.8289,-374.9327 244.2734,-344 234.6274,-342.1062 224.3027,-340.0321 214.4708,-338.0345"/>
<polygon fill="#191970" stroke="#191970" points="1059.3947,-461.115 1069.6205,-458.3431 1059.8981,-454.1331 1059.3947,-461.115"/>
</g>
<!-- Node56 -->
<g id="node38" class="node">
<title>Node56</title>
<g id="a_node38"><a xlink:href="_meta_data_propagating_register_decorator_8cc.html" target="_top" xlink:title="src/MetaDataPropagatingRegister\lDecorator.cc">
<polygon fill="#ffffff" stroke="#000000" points="1221.7734,-380.5 1221.7734,-410.5 1400.7734,-410.5 1400.7734,-380.5 1221.7734,-380.5"/>
<text text-anchor="start" x="1229.7734" y="-398.5" font-family="Helvetica,sans-Serif" font-size="10.00" fill="#000000">src/MetaDataPropagatingRegister</text>
<text text-anchor="middle" x="1311.2734" y="-387.5" font-family="Helvetica,sans-Serif" font-size="10.00" fill="#000000">Decorator.cc</text>
</a>
</g>
</g>
<!-- Node3&#45;&gt;Node56 -->
<g id="edge80" class="edge">
<title>Node3&#45;&gt;Node56</title>
<path fill="none" stroke="#191970" d="M1166.6951,-449.3153C1196.669,-438.1583 1239.6202,-422.1709 1270.9165,-410.5218"/>
<polygon fill="#191970" stroke="#191970" points="1165.2139,-446.1319 1157.0631,-452.9005 1167.6559,-452.6922 1165.2139,-446.1319"/>
</g>
<!-- Node5 -->
<g id="node5" class="node">
<title>Node5</title>
<g id="a_node5"><a xlink:href="_application_core_8h.html" target="_top" xlink:title="include/ApplicationCore.h">
<polygon fill="#ffffff" stroke="#ff0000" points="352.7734,-62 352.7734,-81 493.7734,-81 493.7734,-62 352.7734,-62"/>
<text text-anchor="middle" x="423.2734" y="-69" font-family="Helvetica,sans-Serif" font-size="10.00" fill="#000000">include/ApplicationCore.h</text>
</a>
</g>
</g>
<!-- Node4&#45;&gt;Node5 -->
<g id="edge4" class="edge">
<title>Node4&#45;&gt;Node5</title>
<path fill="none" stroke="#191970" d="M1370.6018,-320.4217C1296.6765,-311.1245 1185.2628,-294.8272 1146.2734,-277 1126.4513,-267.9367 1127.412,-256.4296 1108.2734,-246 1062.7334,-221.183 1043.3592,-233.7883 997.2734,-210 939.6914,-180.2776 940.5518,-146.783 880.2734,-123 811.666,-95.9307 604.0683,-81.1098 493.8255,-74.9568"/>
<polygon fill="#191970" stroke="#191970" points="1370.4172,-323.9257 1380.7727,-321.6866 1371.2811,-316.9792 1370.4172,-323.9257"/>
</g>
<!-- Node24 -->
<g id="node7" class="node">
<title>Node24</title>
<g id="a_node7"><a xlink:href="_array_accessor_8h.html" target="_top" xlink:title="include/ArrayAccessor.h">
<polygon fill="#ffffff" stroke="#000000" points="223.7734,-190.5 223.7734,-209.5 356.7734,-209.5 356.7734,-190.5 223.7734,-190.5"/>
<text text-anchor="middle" x="290.2734" y="-197.5" font-family="Helvetica,sans-Serif" font-size="10.00" fill="#000000">include/ArrayAccessor.h</text>
</a>
</g>
</g>
<!-- Node4&#45;&gt;Node24 -->
<g id="edge6" class="edge">
<title>Node4&#45;&gt;Node24</title>
<path fill="none" stroke="#191970" d="M1370.5269,-323.8465C1278.4466,-316.8438 1121.9416,-301.7187 1070.2734,-277 1052.1208,-268.3155 1055.7778,-253.9074 1037.2734,-246 899.7557,-187.2351 514.1742,-223.8932 365.2734,-210 362.5268,-209.7437 359.7261,-209.4622 356.8987,-209.1613"/>
<polygon fill="#191970" stroke="#191970" points="1370.3688,-327.3444 1380.6019,-324.5999 1370.8908,-320.3639 1370.3688,-327.3444"/>
</g>
<!-- Node4&#45;&gt;Node27 -->
<g id="edge35" class="edge">
<title>Node4&#45;&gt;Node27</title>
<path fill="none" stroke="#191970" d="M1462.0143,-312.8195C1473.5612,-303.5294 1487.2013,-290.8786 1496.2734,-277 1550.0708,-194.7005 1572.814,-128.3859 1506.2734,-56 1490.009,-38.3068 1430.0419,-25.1358 1385.4651,-17.5214"/>
<polygon fill="#191970" stroke="#191970" points="1459.8426,-310.0744 1454.0716,-318.9596 1464.1239,-315.6125 1459.8426,-310.0744"/>
</g>
<!-- Node28 -->
<g id="node10" class="node">
<title>Node28</title>
<g id="a_node10"><a xlink:href="_scalar_accessor_8h.html" target="_top" xlink:title="include/ScalarAccessor.h">
<polygon fill="#ffffff" stroke="#000000" points="564.7734,-190.5 564.7734,-209.5 701.7734,-209.5 701.7734,-190.5 564.7734,-190.5"/>
<text text-anchor="middle" x="633.2734" y="-197.5" font-family="Helvetica,sans-Serif" font-size="10.00" fill="#000000">include/ScalarAccessor.h</text>
</a>
</g>
</g>
<!-- Node4&#45;&gt;Node28 -->
<g id="edge11" class="edge">
<title>Node4&#45;&gt;Node28</title>
<path fill="none" stroke="#191970" d="M1370.5156,-320.7562C1290.0698,-311.2297 1163.1385,-294.1963 1118.2734,-277 1094.56,-267.9109 1094.2224,-254.449 1070.2734,-246 1004.0873,-222.6501 807.2888,-209.102 701.8252,-203.3282"/>
<polygon fill="#191970" stroke="#191970" points="1370.2325,-324.2469 1380.5724,-321.9368 1371.0487,-317.2947 1370.2325,-324.2469"/>
</g>
<!-- Node30 -->
<g id="node12" class="node">
<title>Node30</title>
<g id="a_node12"><a xlink:href="_test_facility_8h.html" target="_top" xlink:title="include/TestFacility.h">
<polygon fill="#ffffff" stroke="#000000" points="1381.2734,-62 1381.2734,-81 1497.2734,-81 1497.2734,-62 1381.2734,-62"/>
<text text-anchor="middle" x="1439.2734" y="-69" font-family="Helvetica,sans-Serif" font-size="10.00" fill="#000000">include/TestFacility.h</text>
</a>
</g>
</g>
<!-- Node4&#45;&gt;Node30 -->
<g id="edge31" class="edge">
<title>Node4&#45;&gt;Node30</title>
<path fill="none" stroke="#191970" d="M1453.8961,-310.4993C1479.7816,-273.9399 1530.8719,-188.8783 1500.2734,-123 1491.5742,-104.2705 1472.337,-89.8972 1457.7757,-81.1539"/>
<polygon fill="#191970" stroke="#191970" points="1450.9768,-308.5626 1447.9231,-318.7079 1456.6369,-312.6813 1450.9768,-308.5626"/>
</g>
<!-- Node31 -->
<g id="node13" class="node">
<title>Node31</title>
<g id="a_node13"><a xlink:href="_trigger_fan_out_8h.html" target="_top" xlink:title="include/TriggerFanOut.h">
<polygon fill="#ffffff" stroke="#000000" points="1155.7734,-62 1155.7734,-81 1286.7734,-81 1286.7734,-62 1155.7734,-62"/>
<text text-anchor="middle" x="1221.2734" y="-69" font-family="Helvetica,sans-Serif" font-size="10.00" fill="#000000">include/TriggerFanOut.h</text>
</a>
</g>
</g>
<!-- Node4&#45;&gt;Node31 -->
<g id="edge34" class="edge">
<title>Node4&#45;&gt;Node31</title>
<path fill="none" stroke="#191970" d="M1443.147,-308.5259C1446.2091,-279.097 1447.3233,-223.9174 1419.2734,-190 1388.6358,-152.9535 1358.8826,-178.0788 1317.2734,-154 1281.325,-133.197 1246.131,-98.1436 1230.1715,-81.2202"/>
<polygon fill="#191970" stroke="#191970" points="1439.6335,-308.422 1441.8882,-318.7741 1446.5813,-309.2754 1439.6335,-308.422"/>
</g>
<!-- Node32 -->
<g id="node14" class="node">
<title>Node32</title>
<g id="a_node14"><a xlink:href="_device_module_8cc.html" target="_top" xlink:title="src/DeviceModule.cc">
<polygon fill="#ffffff" stroke="#000000" points="867.2734,-62 867.2734,-81 983.2734,-81 983.2734,-62 867.2734,-62"/>
<text text-anchor="middle" x="925.2734" y="-69" font-family="Helvetica,sans-Serif" font-size="10.00" fill="#000000">src/DeviceModule.cc</text>
</a>
</g>
</g>
<!-- Node4&#45;&gt;Node32 -->
<g id="edge37" class="edge">
<title>Node4&#45;&gt;Node32</title>
<path fill="none" stroke="#191970" d="M1370.4932,-322.1597C1318.7514,-315.5861 1247.4163,-302.5132 1189.2734,-277 1167.6993,-267.5332 1167.0794,-257.0533 1146.2734,-246 1105.2958,-224.2303 1090.0672,-230.1586 1048.2734,-210 1005.1586,-189.2042 986.8068,-190.8656 956.2734,-154 937.9251,-131.8464 929.8074,-97.7381 926.7894,-81.1812"/>
<polygon fill="#191970" stroke="#191970" points="1370.2202,-325.6523 1380.5705,-323.3895 1371.0682,-318.7038 1370.2202,-325.6523"/>
</g>
<!-- Node34 -->
<g id="node16" class="node">
<title>Node34</title>
<g id="a_node16"><a xlink:href="_debug_print_accessor_decorator_8h.html" target="_top" xlink:title="include/DebugPrintAccessor\lDecorator.h">
<polygon fill="#ffffff" stroke="#000000" points="1795.2734,-56.5 1795.2734,-86.5 1947.2734,-86.5 1947.2734,-56.5 1795.2734,-56.5"/>
<text text-anchor="start" x="1803.2734" y="-74.5" font-family="Helvetica,sans-Serif" font-size="10.00" fill="#000000">include/DebugPrintAccessor</text>
<text text-anchor="middle" x="1871.2734" y="-63.5" font-family="Helvetica,sans-Serif" font-size="10.00" fill="#000000">Decorator.h</text>
</a>
</g>
</g>
<!-- Node4&#45;&gt;Node34 -->
<g id="edge23" class="edge">
<title>Node4&#45;&gt;Node34</title>
<path fill="none" stroke="#191970" d="M1491.3192,-316.3073C1522.8799,-307.6774 1563.6419,-294.5189 1597.2734,-277 1652.5143,-248.2246 1800.8425,-128.9206 1852.9048,-86.5291"/>
<polygon fill="#191970" stroke="#191970" points="1490.1758,-312.9899 1481.4163,-318.9499 1491.9806,-319.7532 1490.1758,-312.9899"/>
</g>
<!-- Node35 -->
<g id="node17" class="node">
<title>Node35</title>
<g id="a_node17"><a xlink:href="_exception_handling_decorator_8h.html" target="_top" xlink:title="include/ExceptionHandling\lDecorator.h">
<polygon fill="#ffffff" stroke="#000000" points="1585.2734,-123.5 1585.2734,-153.5 1731.2734,-153.5 1731.2734,-123.5 1585.2734,-123.5"/>
<text text-anchor="start" x="1593.2734" y="-141.5" font-family="Helvetica,sans-Serif" font-size="10.00" fill="#000000">include/ExceptionHandling</text>
<text text-anchor="middle" x="1658.2734" y="-130.5" font-family="Helvetica,sans-Serif" font-size="10.00" fill="#000000">Decorator.h</text>
</a>
</g>
</g>
<!-- Node4&#45;&gt;Node35 -->
<g id="edge25" class="edge">
<title>Node4&#45;&gt;Node35</title>
<path fill="none" stroke="#191970" d="M1491.8727,-315.9424C1517.1798,-307.8938 1546.9391,-295.4236 1569.2734,-277 1611.6061,-242.0798 1640.5023,-181.6337 1652.3046,-153.5931"/>
<polygon fill="#191970" stroke="#191970" points="1490.6125,-312.6671 1482.0578,-318.9175 1492.6431,-319.3661 1490.6125,-312.6671"/>
</g>
<!-- Node36 -->
<g id="node18" class="node">
<title>Node36</title>
<g id="a_node18"><a xlink:href="_testable_mode_accessor_decorator_8h.html" target="_top" xlink:title="include/TestableModeAccessor\lDecorator.h">
<polygon fill="#ffffff" stroke="#000000" points="1325.7734,-123.5 1325.7734,-153.5 1490.7734,-153.5 1490.7734,-123.5 1325.7734,-123.5"/>
<text text-anchor="start" x="1333.7734" y="-141.5" font-family="Helvetica,sans-Serif" font-size="10.00" fill="#000000">include/TestableModeAccessor</text>
<text text-anchor="middle" x="1408.2734" y="-130.5" font-family="Helvetica,sans-Serif" font-size="10.00" fill="#000000">Decorator.h</text>
</a>
</g>
</g>
<!-- Node4&#45;&gt;Node36 -->
<g id="edge28" class="edge">
<title>Node4&#45;&gt;Node36</title>
<path fill="none" stroke="#191970" d="M1447.032,-309.1389C1455.4921,-281.7083 1467.1737,-230.3784 1452.2734,-190 1447.0623,-175.8782 1436.0623,-163.0032 1426.3651,-153.6587"/>
<polygon fill="#191970" stroke="#191970" points="1443.6812,-308.1251 1443.903,-318.7176 1450.3352,-310.2988 1443.6812,-308.1251"/>
</g>
<!-- Node37 -->
<g id="node19" class="node">
<title>Node37</title>
<g id="a_node19"><a xlink:href="_threaded_fan_out_8h.html" target="_top" xlink:title="include/ThreadedFanOut.h">
<polygon fill="#ffffff" stroke="#000000" points="1266.7734,-190.5 1266.7734,-209.5 1409.7734,-209.5 1409.7734,-190.5 1266.7734,-190.5"/>
<text text-anchor="middle" x="1338.2734" y="-197.5" font-family="Helvetica,sans-Serif" font-size="10.00" fill="#000000">include/ThreadedFanOut.h</text>
</a>
</g>
</g>
<!-- Node4&#45;&gt;Node37 -->
<g id="edge32" class="edge">
<title>Node4&#45;&gt;Node37</title>
<path fill="none" stroke="#191970" d="M1426.5106,-310.4317C1413.6555,-293.6337 1393.8623,-267.9693 1376.2734,-246 1366.174,-233.3853 1354.2724,-219.0633 1346.5154,-209.799"/>
<polygon fill="#191970" stroke="#191970" points="1424.0292,-312.9492 1432.8805,-318.772 1429.5923,-308.7003 1424.0292,-312.9492"/>
</g>
<!-- Node38 -->
<g id="node20" class="node">
<title>Node38</title>
<g id="a_node20"><a xlink:href="_control_system_module_8cc.html" target="_top" xlink:title="src/ControlSystemModule.cc">
<polygon fill="#ffffff" stroke="#000000" points="872.7734,-252 872.7734,-271 1027.7734,-271 1027.7734,-252 872.7734,-252"/>
<text text-anchor="middle" x="950.2734" y="-259" font-family="Helvetica,sans-Serif" font-size="10.00" fill="#000000">src/ControlSystemModule.cc</text>
</a>
</g>
</g>
<!-- Node4&#45;&gt;Node38 -->
<g id="edge36" class="edge">
<title>Node4&#45;&gt;Node38</title>
<path fill="none" stroke="#191970" d="M1370.1128,-320.2441C1290.513,-310.6865 1156.866,-294.0608 1042.2734,-277 1030.0977,-275.1872 1017.0429,-273.0847 1004.7041,-271.0243"/>
<polygon fill="#191970" stroke="#191970" points="1370.1557,-323.7742 1380.501,-321.4881 1370.9881,-316.8238 1370.1557,-323.7742"/>
</g>
<!-- Node4&#45;&gt;Node39 -->
<g id="edge38" class="edge">
<title>Node4&#45;&gt;Node39</title>
<path fill="none" stroke="#191970" d="M1370.2992,-326.5038C1178.7904,-320.7627 648.8839,-302.942 476.2734,-277 466.8376,-275.5819 456.7445,-273.3673 447.5006,-271.0515"/>
<polygon fill="#191970" stroke="#191970" points="1370.422,-330.0089 1380.5218,-326.8084 1370.6306,-323.012 1370.422,-330.0089"/>
</g>
<!-- Node40 -->
<g id="node22" class="node">
<title>Node40</title>
<g id="a_node22"><a xlink:href="_module_8cc.html" target="_top" xlink:title="src/Module.cc">
<polygon fill="#ffffff" stroke="#000000" points="485.7734,-252 485.7734,-271 568.7734,-271 568.7734,-252 485.7734,-252"/>
<text text-anchor="middle" x="527.2734" y="-259" font-family="Helvetica,sans-Serif" font-size="10.00" fill="#000000">src/Module.cc</text>
</a>
</g>
</g>
<!-- Node4&#45;&gt;Node40 -->
<g id="edge39" class="edge">
<title>Node4&#45;&gt;Node40</title>
<path fill="none" stroke="#191970" d="M1370.3401,-326.4439C1193.1381,-320.8934 729.8316,-304.1662 578.2734,-277 570.4398,-275.5959 562.1138,-273.3859 554.5104,-271.07"/>
<polygon fill="#191970" stroke="#191970" points="1370.4807,-329.9498 1380.5846,-326.7623 1370.6982,-322.9532 1370.4807,-329.9498"/>
</g>
<!-- Node41 -->
<g id="node23" class="node">
<title>Node41</title>
<g id="a_node23"><a xlink:href="_variable_network_8cc.html" target="_top" xlink:title="src/VariableNetwork.cc">
<polygon fill="#ffffff" stroke="#000000" points="1659.2734,-252 1659.2734,-271 1787.2734,-271 1787.2734,-252 1659.2734,-252"/>
<text text-anchor="middle" x="1723.2734" y="-259" font-family="Helvetica,sans-Serif" font-size="10.00" fill="#000000">src/VariableNetwork.cc</text>
</a>
</g>
</g>
<!-- Node4&#45;&gt;Node41 -->
<g id="edge40" class="edge">
<title>Node4&#45;&gt;Node41</title>
<path fill="none" stroke="#191970" d="M1490.3667,-316.6405C1545.1808,-303.6633 1631.9878,-283.1118 1682.7076,-271.1039"/>
<polygon fill="#191970" stroke="#191970" points="1489.4446,-313.262 1480.5199,-318.9717 1491.0573,-320.0737 1489.4446,-313.262"/>
</g>
<!-- Node42 -->
<g id="node24" class="node">
<title>Node42</title>
<g id="a_node24"><a xlink:href="_variable_network_graph_dumping_visitor_8cc.html" target="_top" xlink:title="src/VariableNetworkGraph\lDumpingVisitor.cc">
<polygon fill="#ffffff" stroke="#000000" points="1977.2734,-246.5 1977.2734,-276.5 2121.2734,-276.5 2121.2734,-246.5 1977.2734,-246.5"/>
<text text-anchor="start" x="1985.2734" y="-264.5" font-family="Helvetica,sans-Serif" font-size="10.00" fill="#000000">src/VariableNetworkGraph</text>
<text text-anchor="middle" x="2049.2734" y="-253.5" font-family="Helvetica,sans-Serif" font-size="10.00" fill="#000000">DumpingVisitor.cc</text>
</a>
</g>
</g>
<!-- Node4&#45;&gt;Node42 -->
<g id="edge41" class="edge">
<title>Node4&#45;&gt;Node42</title>
<path fill="none" stroke="#191970" d="M1509.9761,-323.7508C1611.2347,-316.3874 1804.7871,-300.5645 1968.2734,-277 1971.1077,-276.5915 1973.9935,-276.1522 1976.9054,-275.6894"/>
<polygon fill="#191970" stroke="#191970" points="1509.5971,-320.2689 1499.8749,-324.4795 1510.1009,-327.2508 1509.5971,-320.2689"/>
</g>
<!-- Node4&#45;&gt;Node43 -->
<g id="edge42" class="edge">
<title>Node4&#45;&gt;Node43</title>
<path fill="none" stroke="#191970" d="M1493.0987,-316.902C1500.2004,-315.4993 1507.403,-314.1562 1514.2734,-313 1638.8719,-292.0318 1671.3921,-296.212 1796.2734,-277 1807.8194,-275.2237 1820.2001,-273.1137 1831.8688,-271.0315"/>
<polygon fill="#191970" stroke="#191970" points="1491.9225,-313.5691 1482.8166,-318.9851 1493.3125,-320.4298 1491.9225,-313.5691"/>
</g>
<!-- Node44 -->
<g id="node26" class="node">
<title>Node44</title>
<g id="a_node26"><a xlink:href="_virtual_module_8cc.html" target="_top" xlink:title="src/VirtualModule.cc">
<polygon fill="#ffffff" stroke="#000000" points="586.7734,-252 586.7734,-271 701.7734,-271 701.7734,-252 586.7734,-252"/>
<text text-anchor="middle" x="644.2734" y="-259" font-family="Helvetica,sans-Serif" font-size="10.00" fill="#000000">src/VirtualModule.cc</text>
</a>
</g>
</g>
<!-- Node4&#45;&gt;Node44 -->
<g id="edge43" class="edge">
<title>Node4&#45;&gt;Node44</title>
<path fill="none" stroke="#191970" d="M1370.4279,-322.621C1215.3692,-309.5696 844.8418,-278.382 701.8947,-266.35"/>
<polygon fill="#191970" stroke="#191970" points="1370.5113,-326.1403 1380.7696,-323.4915 1371.0984,-319.165 1370.5113,-326.1403"/>
</g>
<!-- Node4&#45;&gt;Node45 -->
<g id="edge44" class="edge">
<title>Node4&#45;&gt;Node45</title>
<path fill="none" stroke="#191970" d="M1510.0654,-324.5154C1634.7415,-317.1244 1903.8857,-299.9324 2130.2734,-277 2147.0247,-275.3032 2165.041,-273.1654 2181.9212,-271.0242"/>
<polygon fill="#191970" stroke="#191970" points="1509.6737,-321.0323 1499.8973,-325.1154 1510.0861,-328.0202 1509.6737,-321.0323"/>
</g>
<!-- Node6 -->
<g id="node6" class="node">
<title>Node6</title>
<g id="a_node6"><a xlink:href="_bit_mask_8h.html" target="_top" xlink:title="Modules/include/BitMask.h">
<polygon fill="#ffffff" stroke="#000000" points="350.2734,-.5 350.2734,-19.5 496.2734,-19.5 496.2734,-.5 350.2734,-.5"/>
<text text-anchor="middle" x="423.2734" y="-7.5" font-family="Helvetica,sans-Serif" font-size="10.00" fill="#000000">Modules/include/BitMask.h</text>
</a>
</g>
</g>
<!-- Node5&#45;&gt;Node6 -->
<g id="edge5" class="edge">
<title>Node5&#45;&gt;Node6</title>
<path fill="none" stroke="#191970" d="M423.2734,-51.7462C423.2734,-41.0519 423.2734,-28.314 423.2734,-19.7449"/>
<polygon fill="#191970" stroke="#191970" points="419.7735,-51.8906 423.2734,-61.8906 426.7735,-51.8907 419.7735,-51.8906"/>
</g>
<!-- Node24&#45;&gt;Node5 -->
<g id="edge7" class="edge">
<title>Node24&#45;&gt;Node5</title>
<path fill="none" stroke="#191970" d="M331.9704,-186.6687C349.8277,-179.3022 369.8465,-168.6232 384.2734,-154 405.3026,-132.6848 416.5382,-97.8755 420.9789,-81.1149"/>
<polygon fill="#191970" stroke="#191970" points="330.3707,-183.5354 322.3213,-190.4243 332.9098,-190.0587 330.3707,-183.5354"/>
</g>
<!-- Node25 -->
<g id="node8" class="node">
<title>Node25</title>
<g id="a_node8"><a xlink:href="_config_reader_8h.html" target="_top" xlink:title="Modules/include/ConfigReader.h">
<polygon fill="#ffffff" stroke="#ff0000" points="204.7734,-129 204.7734,-148 375.7734,-148 375.7734,-129 204.7734,-129"/>
<text text-anchor="middle" x="290.2734" y="-136" font-family="Helvetica,sans-Serif" font-size="10.00" fill="#000000">Modules/include/ConfigReader.h</text>
</a>
</g>
</g>
<!-- Node24&#45;&gt;Node25 -->
<g id="edge8" class="edge">
<title>Node24&#45;&gt;Node25</title>
<path fill="none" stroke="#191970" d="M290.2734,-180.2462C290.2734,-169.5519 290.2734,-156.814 290.2734,-148.2449"/>
<polygon fill="#191970" stroke="#191970" points="286.7735,-180.3906 290.2734,-190.3906 293.7735,-180.3907 286.7735,-180.3906"/>
</g>
<!-- Node24&#45;&gt;Node27 -->
<g id="edge10" class="edge">
<title>Node24&#45;&gt;Node27</title>
<path fill="none" stroke="#191970" d="M325.1227,-186.7723C403.3995,-157.6802 599.6755,-88.1762 770.2734,-56 867.8992,-37.587 1163.2959,-19.5565 1283.0357,-12.7969"/>
<polygon fill="#191970" stroke="#191970" points="323.4488,-183.6613 315.3059,-190.4394 325.8984,-190.2187 323.4488,-183.6613"/>
</g>
<!-- Node25&#45;&gt;Node5 -->
<g id="edge9" class="edge">
<title>Node25&#45;&gt;Node5</title>
<path fill="none" stroke="#191970" d="M318.2604,-124.4013C344.0909,-111.389 381.7511,-92.4173 404.2531,-81.0817"/>
<polygon fill="#191970" stroke="#191970" points="316.6853,-121.2757 309.3291,-128.9005 319.8346,-127.5273 316.6853,-121.2757"/>
</g>
<!-- Node28&#45;&gt;Node5 -->
<g id="edge20" class="edge">
<title>Node28&#45;&gt;Node5</title>
<path fill="none" stroke="#191970" d="M618.1604,-182.7082C602.5461,-165.6879 576.7824,-139.8638 550.2734,-123 520.4626,-104.0356 482.5026,-89.7436 455.8789,-81.0846"/>
<polygon fill="#191970" stroke="#191970" points="615.6796,-185.1839 624.969,-190.2786 620.8842,-180.5029 615.6796,-185.1839"/>
</g>
<!-- Node28&#45;&gt;Node25 -->
<g id="edge21" class="edge">
<title>Node28&#45;&gt;Node25</title>
<path fill="none" stroke="#191970" d="M569.9131,-188.6395C504.7621,-176.9579 404.4413,-158.9703 343.3335,-148.0137"/>
<polygon fill="#191970" stroke="#191970" points="569.5953,-192.1382 580.056,-190.4581 570.8307,-185.2481 569.5953,-192.1382"/>
</g>
<!-- Node28&#45;&gt;Node27 -->
<g id="edge22" class="edge">
<title>Node28&#45;&gt;Node27</title>
<path fill="none" stroke="#191970" d="M651.7823,-183.8064C691.724,-149.2448 785.5163,-70.2398 824.2734,-56 907.5119,-25.4173 1170.7402,-14.5646 1282.8764,-11.2639"/>
<polygon fill="#191970" stroke="#191970" points="649.3689,-181.2667 644.1157,-190.4676 653.96,-186.5508 649.3689,-181.2667"/>
</g>
<!-- Node28&#45;&gt;Node29 -->
<g id="edge12" class="edge">
<title>Node28&#45;&gt;Node29</title>
<path fill="none" stroke="#191970" d="M669.5578,-186.9504C701.9749,-175.2916 748.7049,-158.4852 777.7423,-148.0419"/>
<polygon fill="#191970" stroke="#191970" points="668.2176,-183.7128 659.9922,-190.3906 670.5866,-190.2998 668.2176,-183.7128"/>
</g>
<!-- Node29&#45;&gt;Node5 -->
<g id="edge13" class="edge">
<title>Node29&#45;&gt;Node5</title>
<path fill="none" stroke="#191970" d="M740.0063,-127.1984C666.3171,-114.24 546.8026,-93.223 477.578,-81.0496"/>
<polygon fill="#191970" stroke="#191970" points="739.635,-130.6868 750.0901,-128.9717 740.8474,-123.7925 739.635,-130.6868"/>
</g>
<!-- Node29&#45;&gt;Node27 -->
<g id="edge17" class="edge">
<title>Node29&#45;&gt;Node27</title>
<path fill="none" stroke="#191970" d="M811.0584,-119.373C819.0795,-99.8449 834.432,-70.4142 858.2734,-56 894.0196,-34.3883 1167.7336,-18.3277 1283.1755,-12.4466"/>
<polygon fill="#191970" stroke="#191970" points="807.7567,-118.2077 807.4373,-128.7978 814.291,-120.7183 807.7567,-118.2077"/>
</g>
<!-- Node29&#45;&gt;Node30 -->
<g id="edge14" class="edge">
<title>Node29&#45;&gt;Node30</title>
<path fill="none" stroke="#191970" d="M881.1231,-130.5441C977.949,-120.4997 1149.457,-102.6408 1296.2734,-87 1324.2087,-84.024 1355.2075,-80.6703 1381.1824,-77.8455"/>
<polygon fill="#191970" stroke="#191970" points="880.7139,-127.0676 871.1283,-131.5806 881.436,-134.0303 880.7139,-127.0676"/>
</g>
<!-- Node29&#45;&gt;Node31 -->
<g id="edge15" class="edge">
<title>Node29&#45;&gt;Node31</title>
<path fill="none" stroke="#191970" d="M873.626,-127.357C954.1941,-114.412 1085.7624,-93.2728 1161.8377,-81.0496"/>
<polygon fill="#191970" stroke="#191970" points="872.8946,-123.9296 863.5765,-128.9717 874.0052,-130.8409 872.8946,-123.9296"/>
</g>
<!-- Node29&#45;&gt;Node32 -->
<g id="edge18" class="edge">
<title>Node29&#45;&gt;Node32</title>
<path fill="none" stroke="#191970" d="M830.6684,-123.8846C854.1344,-110.891 887.7668,-92.2681 907.9693,-81.0817"/>
<polygon fill="#191970" stroke="#191970" points="828.6627,-120.9944 821.6098,-128.9005 832.0537,-127.1183 828.6627,-120.9944"/>
</g>
<!-- Node33 -->
<g id="node15" class="node">
<title>Node33</title>
<g id="a_node15"><a xlink:href="_exception_handling_decorator_8cc.html" target="_top" xlink:title="src/ExceptionHandlingDecorator.cc">
<polygon fill="#ffffff" stroke="#000000" points="1553.2734,-62 1553.2734,-81 1739.2734,-81 1739.2734,-62 1553.2734,-62"/>
<text text-anchor="middle" x="1646.2734" y="-69" font-family="Helvetica,sans-Serif" font-size="10.00" fill="#000000">src/ExceptionHandlingDecorator.cc</text>
</a>
</g>
</g>
<!-- Node29&#45;&gt;Node33 -->
<g id="edge19" class="edge">
<title>Node29&#45;&gt;Node33</title>
<path fill="none" stroke="#191970" d="M880.9645,-130.1326C905.0526,-127.6514 931.7565,-125.0517 956.2734,-123 1200.3876,-102.571 1262.2498,-108.4838 1506.2734,-87 1525.6395,-85.295 1546.479,-83.1542 1566.009,-81.0126"/>
<polygon fill="#191970" stroke="#191970" points="880.4001,-126.6723 870.8152,-131.1867 881.1233,-133.6348 880.4001,-126.6723"/>
</g>
<!-- Node31&#45;&gt;Node27 -->
<g id="edge16" class="edge">
<title>Node31&#45;&gt;Node27</title>
<path fill="none" stroke="#191970" d="M1247.7853,-57.071C1269.0509,-45.4972 1298.2971,-29.5801 1316.7412,-19.5419"/>
<polygon fill="#191970" stroke="#191970" points="1246.04,-54.036 1238.9297,-61.8906 1249.3863,-60.1844 1246.04,-54.036"/>
</g>
<!-- Node34&#45;&gt;Node27 -->
<g id="edge24" class="edge">
<title>Node34&#45;&gt;Node27</title>
<path fill="none" stroke="#191970" d="M1785.1441,-56.5412C1783.8454,-56.3566 1782.5546,-56.176 1781.2734,-56 1638.291,-36.3537 1468.5251,-21.0798 1385.3563,-14.1187"/>
<polygon fill="#191970" stroke="#191970" points="1784.8176,-60.0308 1795.2214,-58.028 1785.8394,-53.1058 1784.8176,-60.0308"/>
</g>
<!-- Node35&#45;&gt;Node27 -->
<g id="edge26" class="edge">
<title>Node35&#45;&gt;Node27</title>
<path fill="none" stroke="#191970" d="M1704.9297,-118.842C1736.5005,-102.8232 1768.9881,-79.1438 1748.2734,-56 1724.4599,-29.394 1490.982,-16.4616 1385.5189,-11.9404"/>
<polygon fill="#191970" stroke="#191970" points="1703.1192,-115.8306 1695.6593,-123.354 1706.1826,-122.1247 1703.1192,-115.8306"/>
</g>
<!-- Node35&#45;&gt;Node33 -->
<g id="edge27" class="edge">
<title>Node35&#45;&gt;Node33</title>
<path fill="none" stroke="#191970" d="M1653.7278,-113.1199C1651.7195,-101.9072 1649.48,-89.4031 1647.9848,-81.055"/>
<polygon fill="#191970" stroke="#191970" points="1650.3422,-114.0704 1655.5505,-123.2967 1657.2326,-112.8362 1650.3422,-114.0704"/>
</g>
<!-- Node36&#45;&gt;Node27 -->
<g id="edge30" class="edge">
<title>Node36&#45;&gt;Node27</title>
<path fill="none" stroke="#191970" d="M1390.7412,-115.0235C1384.6037,-106.3999 1377.856,-96.4356 1372.2734,-87 1358.4581,-63.6495 1345.0801,-34.5822 1338.5002,-19.7288"/>
<polygon fill="#191970" stroke="#191970" points="1387.9109,-117.0826 1396.6096,-123.131 1393.5814,-112.9781 1387.9109,-117.0826"/>
</g>
<!-- Node36&#45;&gt;Node30 -->
<g id="edge29" class="edge">
<title>Node36&#45;&gt;Node30</title>
<path fill="none" stroke="#191970" d="M1419.5369,-114.1564C1424.8447,-102.6846 1430.8705,-89.6613 1434.8525,-81.055"/>
<polygon fill="#191970" stroke="#191970" points="1416.3306,-112.7513 1415.3078,-123.2967 1422.6835,-115.6908 1416.3306,-112.7513"/>
</g>
<!-- Node37&#45;&gt;Node27 -->
<g id="edge33" class="edge">
<title>Node37&#45;&gt;Node27</title>
<path fill="none" stroke="#191970" d="M1327.5181,-181.2736C1323.4523,-173.1643 1319.3159,-163.3921 1317.2734,-154 1306.4142,-104.0647 1323.4666,-42.7765 1330.9929,-19.5397"/>
<polygon fill="#191970" stroke="#191970" points="1324.4925,-183.0378 1332.2969,-190.2032 1330.6643,-179.7349 1324.4925,-183.0378"/>
</g>
<!-- Node46&#45;&gt;Node4 -->
<g id="edge46" class="edge">
<title>Node46&#45;&gt;Node4</title>
<path fill="none" stroke="#191970" d="M1188.5273,-383.8016C1247.5591,-370.834 1341.6645,-350.1616 1396.5541,-338.1039"/>
<polygon fill="#191970" stroke="#191970" points="1187.6647,-380.4076 1178.6486,-385.9717 1189.1667,-387.2445 1187.6647,-380.4076"/>
</g>
<!-- Node46&#45;&gt;Node31 -->
<g id="edge48" class="edge">
<title>Node46&#45;&gt;Node31</title>
<path fill="none" stroke="#191970" d="M1171.7918,-382.1228C1212.8121,-364.8832 1277.3035,-330.5913 1305.2734,-277 1311.6482,-264.7857 1311.3725,-258.3543 1305.2734,-246 1293.6256,-222.4061 1272.8931,-231.8772 1258.2734,-210 1230.0634,-167.786 1223.3178,-104.9017 1221.7413,-81.0967"/>
<polygon fill="#191970" stroke="#191970" points="1170.3525,-378.9297 1162.4097,-385.9413 1172.9913,-385.4133 1170.3525,-378.9297"/>
</g>
<!-- Node46&#45;&gt;Node37 -->
<g id="edge47" class="edge">
<title>Node46&#45;&gt;Node37</title>
<path fill="none" stroke="#191970" d="M1191.3241,-383.8133C1244.9291,-372.1211 1318.9677,-354.4174 1328.2734,-344 1362.8321,-305.3131 1348.0412,-235.0395 1341.1129,-209.5553"/>
<polygon fill="#191970" stroke="#191970" points="1190.271,-380.4601 1181.2372,-385.9955 1191.7512,-387.3019 1190.271,-380.4601"/>
</g>
<!-- Node47&#45;&gt;Node29 -->
<g id="edge74" class="edge">
<title>Node47&#45;&gt;Node29</title>
<path fill="none" stroke="#191970" d="M668.8906,-376.811C697.7694,-325.9762 777.0317,-186.4529 798.7228,-148.2706"/>
<polygon fill="#191970" stroke="#191970" points="665.7149,-375.3154 663.8185,-385.7391 671.8013,-378.7731 665.7149,-375.3154"/>
</g>
<!-- Node47&#45;&gt;Node39 -->
<g id="edge75" class="edge">
<title>Node47&#45;&gt;Node39</title>
<path fill="none" stroke="#191970" d="M649.9158,-376.8753C640.503,-358.0046 623.441,-329.3333 600.2734,-313 594.0776,-308.6319 503.6629,-284.696 451.2174,-271.0461"/>
<polygon fill="#191970" stroke="#191970" points="646.7858,-378.4434 654.2408,-385.9716 653.1077,-375.4375 646.7858,-378.4434"/>
</g>
<!-- Node47&#45;&gt;Node40 -->
<g id="edge76" class="edge">
<title>Node47&#45;&gt;Node40</title>
<path fill="none" stroke="#191970" d="M657.0527,-375.8783C654.9712,-357.6858 649.3613,-330.8167 634.2734,-313 623.1487,-299.8632 581.0042,-281.9498 553.0451,-271.0823"/>
<polygon fill="#191970" stroke="#191970" points="653.5741,-376.2753 657.9461,-385.926 660.5466,-375.6553 653.5741,-376.2753"/>
</g>
<!-- Node47&#45;&gt;Node44 -->
<g id="edge78" class="edge">
<title>Node47&#45;&gt;Node44</title>
<path fill="none" stroke="#191970" d="M666.1424,-375.9573C671.8419,-359.1225 677.677,-334.2515 672.2734,-313 668.2608,-297.219 658.3265,-281.047 651.44,-271.1373"/>
<polygon fill="#191970" stroke="#191970" points="662.7107,-375.1475 662.536,-385.7409 669.2787,-377.5686 662.7107,-375.1475"/>
</g>
<!-- Node48 -->
<g id="node30" class="node">
<title>Node48</title>
<g id="a_node30"><a xlink:href="_module_impl_8h.html" target="_top" xlink:title="include/ModuleImpl.h">
<polygon fill="#ffffff" stroke="#000000" points="106.7734,-252 106.7734,-271 227.7734,-271 227.7734,-252 106.7734,-252"/>
<text text-anchor="middle" x="167.2734" y="-259" font-family="Helvetica,sans-Serif" font-size="10.00" fill="#000000">include/ModuleImpl.h</text>
</a>
</g>
</g>
<!-- Node47&#45;&gt;Node48 -->
<g id="edge50" class="edge">
<title>Node47&#45;&gt;Node48</title>
<path fill="none" stroke="#191970" d="M598.5983,-391.0641C508.3915,-383.7136 342.0222,-367.4558 287.2734,-344 266.9206,-335.2803 266.3077,-325.8467 248.2734,-313 226.4216,-297.4338 200.0179,-281.0775 183.4306,-271.0817"/>
<polygon fill="#191970" stroke="#191970" points="598.4295,-394.5617 608.6778,-391.8742 598.9903,-387.5842 598.4295,-394.5617"/>
</g>
<!-- Node52 -->
<g id="node34" class="node">
<title>Node52</title>
<g id="a_node34"><a xlink:href="_virtual_module_8h.html" target="_top" xlink:title="include/VirtualModule.h">
<polygon fill="#ffffff" stroke="#000000" points="460.7734,-319 460.7734,-338 591.7734,-338 591.7734,-319 460.7734,-319"/>
<text text-anchor="middle" x="526.2734" y="-326" font-family="Helvetica,sans-Serif" font-size="10.00" fill="#000000">include/VirtualModule.h</text>
</a>
</g>
</g>
<!-- Node47&#45;&gt;Node52 -->
<g id="edge60" class="edge">
<title>Node47&#45;&gt;Node52</title>
<path fill="none" stroke="#191970" d="M630.1589,-381.2298C604.5331,-368.2227 567.3857,-349.3676 545.1507,-338.0817"/>
<polygon fill="#191970" stroke="#191970" points="628.8598,-384.4954 639.3611,-385.9005 632.0281,-378.2534 628.8598,-384.4954"/>
</g>
<!-- Node47&#45;&gt;Node53 -->
<g id="edge67" class="edge">
<title>Node47&#45;&gt;Node53</title>
<path fill="none" stroke="#191970" d="M607.2725,-383.6762C559.067,-372.5006 486.532,-355.6845 434.2137,-343.5553"/>
<polygon fill="#191970" stroke="#191970" points="606.6416,-387.1227 617.1737,-385.9717 608.2226,-380.3036 606.6416,-387.1227"/>
</g>
<!-- Node47&#45;&gt;Node54 -->
<g id="edge70" class="edge">
<title>Node47&#45;&gt;Node54</title>
<path fill="none" stroke="#191970" d="M700.5456,-383.0779C744.8187,-370.0678 813.4004,-349.9145 853.6672,-338.0817"/>
<polygon fill="#191970" stroke="#191970" points="699.5478,-379.7231 690.9403,-385.9005 701.5214,-386.4391 699.5478,-379.7231"/>
</g>
<!-- Node47&#45;&gt;Node55 -->
<g id="edge77" class="edge">
<title>Node47&#45;&gt;Node55</title>
<path fill="none" stroke="#191970" d="M598.4752,-388.8529C519.5001,-379.851 376.1666,-362.741 254.2734,-344 242.7274,-342.2248 230.3466,-340.1152 218.6778,-338.033"/>
<polygon fill="#191970" stroke="#191970" points="598.3846,-392.365 608.7156,-390.0158 599.1744,-385.4097 598.3846,-392.365"/>
</g>
<!-- Node49 -->
<g id="node31" class="node">
<title>Node49</title>
<g id="a_node31"><a xlink:href="_application_module_8h.html" target="_top" xlink:title="include/ApplicationModule.h">
<polygon fill="#ffffff" stroke="#000000" points="51.2734,-190.5 51.2734,-209.5 205.2734,-209.5 205.2734,-190.5 51.2734,-190.5"/>
<text text-anchor="middle" x="128.2734" y="-197.5" font-family="Helvetica,sans-Serif" font-size="10.00" fill="#000000">include/ApplicationModule.h</text>
</a>
</g>
</g>
<!-- Node48&#45;&gt;Node49 -->
<g id="edge51" class="edge">
<title>Node48&#45;&gt;Node49</title>
<path fill="none" stroke="#191970" d="M155.8061,-243.4169C148.8225,-232.4043 140.1732,-218.765 134.4531,-209.7449"/>
<polygon fill="#191970" stroke="#191970" points="152.8684,-245.3199 161.1797,-251.8906 158.78,-241.5711 152.8684,-245.3199"/>
</g>
<!-- Node50 -->
<g id="node32" class="node">
<title>Node50</title>
<g id="a_node32"><a xlink:href="_variable_group_8h.html" target="_top" xlink:title="include/VariableGroup.h">
<polygon fill="#ffffff" stroke="#ff0000" points="374.7734,-190.5 374.7734,-209.5 507.7734,-209.5 507.7734,-190.5 374.7734,-190.5"/>
<text text-anchor="middle" x="441.2734" y="-197.5" font-family="Helvetica,sans-Serif" font-size="10.00" fill="#000000">include/VariableGroup.h</text>
</a>
</g>
</g>
<!-- Node48&#45;&gt;Node50 -->
<g id="edge55" class="edge">
<title>Node48&#45;&gt;Node50</title>
<path fill="none" stroke="#191970" d="M219.813,-249.7074C271.8102,-238.0365 350.425,-220.3912 398.6618,-209.5643"/>
<polygon fill="#191970" stroke="#191970" points="218.776,-246.353 209.7853,-251.9581 220.3091,-253.183 218.776,-246.353"/>
</g>
<!-- Node51 -->
<g id="node33" class="node">
<title>Node51</title>
<g id="a_node33"><a xlink:href="_module_group_8h.html" target="_top" xlink:title="include/ModuleGroup.h">
<polygon fill="#ffffff" stroke="#000000" points="15.2734,-129 15.2734,-148 143.2734,-148 143.2734,-129 15.2734,-129"/>
<text text-anchor="middle" x="79.2734" y="-136" font-family="Helvetica,sans-Serif" font-size="10.00" fill="#000000">include/ModuleGroup.h</text>
</a>
</g>
</g>
<!-- Node48&#45;&gt;Node51 -->
<g id="edge58" class="edge">
<title>Node48&#45;&gt;Node51</title>
<path fill="none" stroke="#191970" d="M98.3976,-248.9049C76.7668,-241.3526 55.1841,-229.2826 42.2734,-210 28.2765,-189.095 52.255,-162.2391 67.7259,-148.1359"/>
<polygon fill="#191970" stroke="#191970" points="97.3847,-252.2556 107.9757,-251.9697 99.5181,-245.5886 97.3847,-252.2556"/>
</g>
<!-- Node49&#45;&gt;Node5 -->
<g id="edge52" class="edge">
<title>Node49&#45;&gt;Node5</title>
<path fill="none" stroke="#191970" d="M139.3201,-181.5929C150.9794,-163.8069 171.0135,-137.4908 195.2734,-123 222.8832,-106.5084 303.7047,-90.6963 361.2631,-81.0441"/>
<polygon fill="#191970" stroke="#191970" points="136.0987,-180.1403 133.7307,-190.4671 142.0217,-183.871 136.0987,-180.1403"/>
</g>
<!-- Node49&#45;&gt;Node25 -->
<g id="edge53" class="edge">
<title>Node49&#45;&gt;Node25</title>
<path fill="none" stroke="#191970" d="M163.0459,-186.7993C193.7404,-175.1468 237.7481,-158.4402 265.1387,-148.0419"/>
<polygon fill="#191970" stroke="#191970" points="161.6927,-183.5693 153.5859,-190.3906 164.1772,-190.1136 161.6927,-183.5693"/>
</g>
<!-- Node49&#45;&gt;Node27 -->
<g id="edge54" class="edge">
<title>Node49&#45;&gt;Node27</title>
<path fill="none" stroke="#191970" d="M79.422,-187.6907C49.4195,-179.032 15.0947,-166.7536 6.2734,-154 -1.5641,-142.6687 -2.4676,-133.6499 6.2734,-123 103.1568,-4.9588 191.6867,-74.4811 343.2734,-56 528.0257,-33.4754 1107.1517,-16.1971 1283.0807,-11.361"/>
<polygon fill="#191970" stroke="#191970" points="78.8144,-191.1552 89.3879,-190.4838 80.7035,-184.4149 78.8144,-191.1552"/>
</g>
<!-- Node50&#45;&gt;Node5 -->
<g id="edge57" class="edge">
<title>Node50&#45;&gt;Node5</title>
<path fill="none" stroke="#191970" d="M438.4962,-180.1733C434.581,-152.2236 427.5884,-102.3037 424.6421,-81.2705"/>
<polygon fill="#191970" stroke="#191970" points="435.067,-180.9239 439.9205,-190.3416 441.9994,-179.9527 435.067,-180.9239"/>
</g>
<!-- Node50&#45;&gt;Node29 -->
<g id="edge56" class="edge">
<title>Node50&#45;&gt;Node29</title>
<path fill="none" stroke="#191970" d="M507.479,-188.7834C576.4036,-177.1061 683.1825,-159.0154 748.1195,-148.0137"/>
<polygon fill="#191970" stroke="#191970" points="506.8687,-185.3368 497.5939,-190.4581 508.0381,-192.2384 506.8687,-185.3368"/>
</g>
<!-- Node51&#45;&gt;Node5 -->
<g id="edge59" class="edge">
<title>Node51&#45;&gt;Node5</title>
<path fill="none" stroke="#191970" d="M138.1178,-127.039C204.7144,-114.0682 311.9962,-93.1732 374.2425,-81.0496"/>
<polygon fill="#191970" stroke="#191970" points="137.3414,-123.6244 128.1949,-128.9717 138.6796,-130.4953 137.3414,-123.6244"/>
</g>
<!-- Node52&#45;&gt;Node5 -->
<g id="edge63" class="edge">
<title>Node52&#45;&gt;Node5</title>
<path fill="none" stroke="#191970" d="M474.0753,-316.9978C466.4496,-315.5256 458.6748,-314.1381 451.2734,-313 373.1196,-300.9825 168.1702,-312.0156 97.2734,-277 36.303,-246.8869 21.897,-220.1823 6.2734,-154 3.108,-140.5908 -2.8523,-133.3222 6.2734,-123 28.8008,-97.5193 239.8216,-81.8319 352.739,-75.1922"/>
<polygon fill="#191970" stroke="#191970" points="473.4792,-320.4477 483.9701,-318.9679 474.8461,-313.5825 473.4792,-320.4477"/>
</g>
<!-- Node52&#45;&gt;Node29 -->
<g id="edge62" class="edge">
<title>Node52&#45;&gt;Node29</title>
<path fill="none" stroke="#191970" d="M474.5116,-316.5827C425.6955,-304.823 358.8832,-287.1719 351.2734,-277 343.0201,-265.9678 342.0285,-256.2156 351.2734,-246 405.2216,-186.388 636.537,-239.6388 711.2734,-210 746.6756,-195.9603 779.9808,-164.2804 795.3625,-148.2229"/>
<polygon fill="#191970" stroke="#191970" points="473.7799,-320.0063 484.3194,-318.9249 475.4059,-313.1978 473.7799,-320.0063"/>
</g>
<!-- Node52&#45;&gt;Node39 -->
<g id="edge64" class="edge">
<title>Node52&#45;&gt;Node39</title>
<path fill="none" stroke="#191970" d="M501.5516,-313.711C479.8447,-300.7256 448.9072,-282.2184 430.2906,-271.0817"/>
<polygon fill="#191970" stroke="#191970" points="499.8481,-316.7704 510.2266,-318.9005 503.4417,-310.7632 499.8481,-316.7704"/>
</g>
<!-- Node52&#45;&gt;Node40 -->
<g id="edge65" class="edge">
<title>Node52&#45;&gt;Node40</title>
<path fill="none" stroke="#191970" d="M526.5703,-308.6079C526.7553,-296.214 526.985,-280.8263 527.1304,-271.0817"/>
<polygon fill="#191970" stroke="#191970" points="523.0664,-308.8494 526.4167,-318.9005 530.0657,-308.9539 523.0664,-308.8494"/>
</g>
<!-- Node52&#45;&gt;Node44 -->
<g id="edge66" class="edge">
<title>Node52&#45;&gt;Node44</title>
<path fill="none" stroke="#191970" d="M552.014,-313.8846C574.8982,-300.891 607.6967,-282.2681 627.3983,-271.0817"/>
<polygon fill="#191970" stroke="#191970" points="550.1478,-310.9193 543.18,-318.9005 553.6042,-317.0065 550.1478,-310.9193"/>
</g>
<!-- Node52&#45;&gt;Node48 -->
<g id="edge61" class="edge">
<title>Node52&#45;&gt;Node48</title>
<path fill="none" stroke="#191970" d="M470.832,-316.8836C464.2449,-315.5504 457.6122,-314.2295 451.2734,-313 371.7041,-297.5658 279.3068,-281.0757 222.0572,-271.0256"/>
<polygon fill="#191970" stroke="#191970" points="470.5989,-320.4081 481.0967,-318.9776 471.9981,-313.5493 470.5989,-320.4081"/>
</g>
<!-- Node53&#45;&gt;Node24 -->
<g id="edge68" class="edge">
<title>Node53&#45;&gt;Node24</title>
<path fill="none" stroke="#191970" d="M314.6275,-308.5954C301.024,-300.8936 288.1014,-290.5737 280.2734,-277 267.882,-255.5132 278.4693,-225.1354 285.4048,-209.7475"/>
<polygon fill="#191970" stroke="#191970" points="313.1337,-311.7637 323.6185,-313.2863 316.3716,-305.5576 313.1337,-311.7637"/>
</g>
<!-- Node53&#45;&gt;Node28 -->
<g id="edge69" class="edge">
<title>Node53&#45;&gt;Node28</title>
<path fill="none" stroke="#191970" d="M340.774,-306.7034C321.4162,-289.2907 302.0371,-264.7796 318.2734,-246 326.2821,-236.7368 474.2098,-218.2489 564.4621,-207.751"/>
<polygon fill="#191970" stroke="#191970" points="338.5262,-309.3865 348.3984,-313.2324 343.0793,-304.0696 338.5262,-309.3865"/>
</g>
<!-- Node54&#45;&gt;Node5 -->
<g id="edge71" class="edge">
<title>Node54&#45;&gt;Node5</title>
<path fill="none" stroke="#191970" d="M859.7564,-313.7994C826.1073,-295.6657 765.8662,-264.9232 711.2734,-246 644.0422,-222.696 617.0903,-245.2391 555.2734,-210 495.5392,-175.9481 446.1017,-106.4099 429.3648,-81.0374"/>
<polygon fill="#191970" stroke="#191970" points="858.4554,-317.0759 868.9127,-318.7774 861.7989,-310.926 858.4554,-317.0759"/>
</g>
<!-- Node54&#45;&gt;Node29 -->
<g id="edge72" class="edge">
<title>Node54&#45;&gt;Node29</title>
<path fill="none" stroke="#191970" d="M863.2755,-312.9502C851.5876,-303.8376 838.2125,-291.3139 830.2734,-277 806.1847,-233.5688 803.9504,-171.928 804.0578,-148.2665"/>
<polygon fill="#191970" stroke="#191970" points="861.2676,-315.8185 871.3861,-318.9595 865.4349,-310.194 861.2676,-315.8185"/>
</g>
<!-- Node54&#45;&gt;Node38 -->
<g id="edge73" class="edge">
<title>Node54&#45;&gt;Node38</title>
<path fill="none" stroke="#191970" d="M902.4372,-311.5785C914.6781,-298.7639 931.0526,-281.6218 941.1208,-271.0817"/>
<polygon fill="#191970" stroke="#191970" points="899.8195,-309.2518 895.4431,-318.9005 904.8813,-314.087 899.8195,-309.2518"/>
</g>
<!-- Node57&#45;&gt;Node4 -->
<g id="edge84" class="edge">
<title>Node57&#45;&gt;Node4</title>
<path fill="none" stroke="#191970" d="M1573.0254,-382.0806C1540.7579,-369.057 1492.5911,-349.6162 1464.0131,-338.0817"/>
<polygon fill="#191970" stroke="#191970" points="1571.9065,-385.4033 1582.4897,-385.9005 1574.5265,-378.9121 1571.9065,-385.4033"/>
</g>
<!-- Node57&#45;&gt;Node41 -->
<g id="edge85" class="edge">
<title>Node57&#45;&gt;Node41</title>
<path fill="none" stroke="#191970" d="M1617.061,-377.1208C1627.7035,-359.7182 1644.9919,-333.3036 1663.2734,-313 1677.7867,-296.8815 1697.2404,-281.0419 1710.0078,-271.2767"/>
<polygon fill="#191970" stroke="#191970" points="1614.0171,-375.3912 1611.8681,-385.7658 1620.0177,-378.9957 1614.0171,-375.3912"/>
</g>
<!-- Node57&#45;&gt;Node42 -->
<g id="edge87" class="edge">
<title>Node57&#45;&gt;Node42</title>
<path fill="none" stroke="#191970" d="M1636.1149,-381.4661C1656.6882,-371.5412 1684.5016,-357.6267 1708.2734,-344 1730.3059,-331.3704 1732.604,-322.203 1756.2734,-313 1845.3485,-278.3667 1874.2233,-293.9821 1968.2734,-277 1971.0914,-276.4912 1973.9635,-275.9673 1976.8639,-275.4337"/>
<polygon fill="#191970" stroke="#191970" points="1634.4375,-378.3886 1626.9299,-385.8643 1637.4608,-384.7021 1634.4375,-378.3886"/>
</g>
<!-- Node57&#45;&gt;Node43 -->
<g id="edge88" class="edge">
<title>Node57&#45;&gt;Node43</title>
<path fill="none" stroke="#191970" d="M1624.6826,-379.1097C1646.0838,-360.7873 1683.1089,-331.2945 1719.2734,-313 1757.937,-293.4414 1805.5167,-279.4411 1839.2671,-271.0207"/>
<polygon fill="#191970" stroke="#191970" points="1622.2777,-376.5626 1617.0244,-385.7634 1626.8688,-381.8467 1622.2777,-376.5626"/>
</g>
<!-- Node58 -->
<g id="node40" class="node">
<title>Node58</title>
<g id="a_node40"><a xlink:href="_variable_network_dumping_visitor_8cc.html" target="_top" xlink:title="src/VariableNetworkDumping\lVisitor.cc">
<polygon fill="#ffffff" stroke="#000000" points="1764.7734,-313.5 1764.7734,-343.5 1923.7734,-343.5 1923.7734,-313.5 1764.7734,-313.5"/>
<text text-anchor="start" x="1772.7734" y="-331.5" font-family="Helvetica,sans-Serif" font-size="10.00" fill="#000000">src/VariableNetworkDumping</text>
<text text-anchor="middle" x="1844.2734" y="-320.5" font-family="Helvetica,sans-Serif" font-size="10.00" fill="#000000">Visitor.cc</text>
</a>
</g>
</g>
<!-- Node57&#45;&gt;Node58 -->
<g id="edge86" class="edge">
<title>Node57&#45;&gt;Node58</title>
<path fill="none" stroke="#191970" d="M1649.7786,-383.2528C1689.4699,-372.0792 1748.2484,-355.5323 1790.7933,-343.5553"/>
<polygon fill="#191970" stroke="#191970" points="1648.7977,-379.8928 1640.1203,-385.9717 1650.6946,-386.6309 1648.7977,-379.8928"/>
</g>
<!-- Node59&#45;&gt;Node37 -->
<g id="edge100" class="edge">
<title>Node59&#45;&gt;Node37</title>
<path fill="none" stroke="#191970" d="M1269.7852,-246.286C1286.8009,-234.7864 1309.6344,-219.355 1324.1545,-209.5419"/>
<polygon fill="#191970" stroke="#191970" points="1267.8177,-243.3913 1261.4922,-251.8906 1271.7373,-249.191 1267.8177,-243.3913"/>
</g>
<!-- Node60 -->
<g id="node42" class="node">
<title>Node60</title>
<g id="a_node42"><a xlink:href="_consuming_fan_out_8h.html" target="_top" xlink:title="include/ConsumingFanOut.h">
<polygon fill="#ffffff" stroke="#000000" points="965.2734,-129 965.2734,-148 1117.2734,-148 1117.2734,-129 965.2734,-129"/>
<text text-anchor="middle" x="1041.2734" y="-136" font-family="Helvetica,sans-Serif" font-size="10.00" fill="#000000">include/ConsumingFanOut.h</text>
</a>
</g>
</g>
<!-- Node59&#45;&gt;Node60 -->
<g id="edge94" class="edge">
<title>Node59&#45;&gt;Node60</title>
<path fill="none" stroke="#191970" d="M1200.6026,-249.3638C1148.661,-235.6867 1071.2989,-214.7366 1066.2734,-210 1048.6656,-193.4042 1043.454,-163.7278 1041.9153,-148.3477"/>
<polygon fill="#191970" stroke="#191970" points="1199.7413,-252.7562 1210.3024,-251.9113 1201.5195,-245.9858 1199.7413,-252.7562"/>
</g>
<!-- Node61 -->
<g id="node43" class="node">
<title>Node61</title>
<g id="a_node43"><a xlink:href="_feeding_fan_out_8h.html" target="_top" xlink:title="include/FeedingFanOut.h">
<polygon fill="#ffffff" stroke="#000000" points="1074.7734,-190.5 1074.7734,-209.5 1209.7734,-209.5 1209.7734,-190.5 1074.7734,-190.5"/>
<text text-anchor="middle" x="1142.2734" y="-197.5" font-family="Helvetica,sans-Serif" font-size="10.00" fill="#000000">include/FeedingFanOut.h</text>
</a>
</g>
</g>
<!-- Node59&#45;&gt;Node61 -->
<g id="edge96" class="edge">
<title>Node59&#45;&gt;Node61</title>
<path fill="none" stroke="#191970" d="M1222.1051,-246.7585C1202.3918,-235.2122 1175.5491,-219.49 1158.5645,-209.5419"/>
<polygon fill="#191970" stroke="#191970" points="1220.4694,-249.8566 1230.8672,-251.8906 1224.0073,-243.8164 1220.4694,-249.8566"/>
</g>
<!-- Node60&#45;&gt;Node27 -->
<g id="edge95" class="edge">
<title>Node60&#45;&gt;Node27</title>
<path fill="none" stroke="#191970" d="M1052.1962,-120.08C1064.5441,-100.9544 1086.4609,-71.6824 1113.2734,-56 1141.5629,-39.4538 1227.217,-24.8935 1283.2062,-16.7866"/>
<polygon fill="#191970" stroke="#191970" points="1049.0882,-118.4501 1046.7797,-128.7904 1055.0327,-122.1467 1049.0882,-118.4501"/>
</g>
<!-- Node61&#45;&gt;Node27 -->
<g id="edge99" class="edge">
<title>Node61&#45;&gt;Node27</title>
<path fill="none" stroke="#191970" d="M1136.282,-180.4511C1128.3093,-150.1482 1118.3384,-91.6244 1147.2734,-56 1164.2416,-35.1092 1233.8298,-22.301 1283.1406,-15.6719"/>
<polygon fill="#191970" stroke="#191970" points="1132.9624,-181.5747 1139.0531,-190.2438 1139.6979,-179.6686 1132.9624,-181.5747"/>
</g>
<!-- Node61&#45;&gt;Node31 -->
<g id="edge98" class="edge">
<title>Node61&#45;&gt;Node31</title>
<path fill="none" stroke="#191970" d="M1153.5592,-181.6428C1170.5489,-154.0077 1202.1059,-102.6776 1215.2667,-81.2705"/>
<polygon fill="#191970" stroke="#191970" points="1150.467,-179.9897 1148.2113,-190.3416 1156.4302,-183.6558 1150.467,-179.9897"/>
</g>
<!-- Node61&#45;&gt;Node36 -->
<g id="edge97" class="edge">
<title>Node61&#45;&gt;Node36</title>
<path fill="none" stroke="#191970" d="M1193.4368,-188.1709C1236.1154,-178.3035 1297.185,-164.184 1343.3119,-153.5193"/>
<polygon fill="#191970" stroke="#191970" points="1192.4986,-184.7954 1183.5441,-190.4581 1194.0755,-191.6155 1192.4986,-184.7954"/>
</g>
<!-- Node64&#45;&gt;Node39 -->
<g id="edge109" class="edge">
<title>Node64&#45;&gt;Node39</title>
<path fill="none" stroke="#191970" d="M136.9076,-381.2942C105.8121,-365.2978 65.7022,-338.2344 87.2734,-313 104.8014,-292.4955 272.504,-274.3665 360.6777,-266.1574"/>
<polygon fill="#191970" stroke="#191970" points="135.6754,-384.5896 146.1903,-385.8891 138.7808,-378.3161 135.6754,-384.5896"/>
</g>
<!-- Node64&#45;&gt;Node55 -->
<g id="edge110" class="edge">
<title>Node64&#45;&gt;Node55</title>
<path fill="none" stroke="#191970" d="M168.2734,-375.6079C168.2734,-363.214 168.2734,-347.8263 168.2734,-338.0817"/>
<polygon fill="#191970" stroke="#191970" points="164.7735,-375.9005 168.2734,-385.9005 171.7735,-375.9006 164.7735,-375.9005"/>
</g>
<!-- Node65&#45;&gt;Node43 -->
<g id="edge118" class="edge">
<title>Node65&#45;&gt;Node43</title>
<path fill="none" stroke="#191970" d="M2059.717,-442.0881C2071.4342,-434.1146 2082.7598,-423.7714 2089.2734,-411 2095.5332,-398.7263 2096.2683,-391.8701 2089.2734,-380 2072.5076,-351.5487 2052.9966,-360.2957 2024.2734,-344 1978.3962,-317.9722 1924.669,-286.4785 1898.396,-271.0115"/>
<polygon fill="#191970" stroke="#191970" points="2057.768,-439.1794 2051.1791,-447.4761 2061.5039,-445.0991 2057.768,-439.1794"/>
</g>
<!-- Node65&#45;&gt;Node62 -->
<g id="edge119" class="edge">
<title>Node65&#45;&gt;Node62</title>
<path fill="none" stroke="#191970" d="M1956.9166,-444.5484C1920.669,-433.9432 1875.2903,-420.6665 1840.8897,-410.6017"/>
<polygon fill="#191970" stroke="#191970" points="1956.3009,-448.015 1966.8814,-447.4639 1958.2666,-441.2966 1956.3009,-448.015"/>
</g>
<!-- Node65&#45;&gt;Node66 -->
<g id="edge112" class="edge">
<title>Node65&#45;&gt;Node66</title>
<path fill="none" stroke="#191970" d="M2007.9937,-437.9021C2004.1772,-428.7696 1999.9629,-418.6854 1996.6019,-410.6432"/>
<polygon fill="#191970" stroke="#191970" points="2004.8345,-439.4196 2011.9198,-447.2967 2011.2932,-436.7204 2004.8345,-439.4196"/>
</g>
<!-- Node65&#45;&gt;Node67 -->
<g id="edge115" class="edge">
<title>Node65&#45;&gt;Node67</title>
<path fill="none" stroke="#191970" d="M2076.7104,-443.418C2093.307,-435.5982 2110.1439,-425.0083 2122.2734,-411 2139.044,-391.6319 2145.4476,-361.6063 2147.8574,-343.6186"/>
<polygon fill="#191970" stroke="#191970" points="2075.2692,-440.2284 2067.5463,-447.4815 2078.1067,-446.6275 2075.2692,-440.2284"/>
</g>
<!-- Node66&#45;&gt;Node41 -->
<g id="edge113" class="edge">
<title>Node66&#45;&gt;Node41</title>
<path fill="none" stroke="#191970" d="M1979.5956,-371.3865C1970.081,-352.6768 1954.3923,-327.5521 1933.2734,-313 1926.2992,-308.1943 1824.7613,-284.5629 1765.4765,-271.0421"/>
<polygon fill="#191970" stroke="#191970" points="1976.4974,-373.0193 1984.0044,-380.4957 1982.7983,-369.9697 1976.4974,-373.0193"/>
</g>
<!-- Node66&#45;&gt;Node58 -->
<g id="edge114" class="edge">
<title>Node66&#45;&gt;Node58</title>
<path fill="none" stroke="#191970" d="M1948.1614,-376.1746C1925.5853,-365.8143 1898.1766,-353.2364 1877.1816,-343.6017"/>
<polygon fill="#191970" stroke="#191970" points="1946.9597,-379.474 1957.5082,-380.4639 1949.8793,-373.112 1946.9597,-379.474"/>
</g>
<!-- Node67&#45;&gt;Node27 -->
<g id="edge116" class="edge">
<title>Node67&#45;&gt;Node27</title>
<path fill="none" stroke="#191970" d="M2149.2734,-303.3849C2149.2734,-277.4823 2149.2734,-235.9175 2149.2734,-200 2149.2734,-200 2149.2734,-200 2149.2734,-138.5 2149.2734,-45.214 2046.9103,-78.0735 1956.2734,-56 1848.4373,-29.7379 1514.4496,-16.0386 1385.6562,-11.6227"/>
<polygon fill="#191970" stroke="#191970" points="2145.7735,-303.4649 2149.2734,-313.4649 2152.7735,-303.465 2145.7735,-303.4649"/>
</g>
<!-- Node67&#45;&gt;Node42 -->
<g id="edge117" class="edge">
<title>Node67&#45;&gt;Node42</title>
<path fill="none" stroke="#191970" d="M2118.1221,-307.6286C2103.1509,-297.5979 2085.5386,-285.7976 2071.8752,-276.6432"/>
<polygon fill="#191970" stroke="#191970" points="2116.326,-310.6382 2126.5819,-313.2967 2120.2224,-304.8228 2116.326,-310.6382"/>
</g>
<!-- Node68&#45;&gt;Node27 -->
<g id="edge123" class="edge">
<title>Node68&#45;&gt;Node27</title>
<path fill="none" stroke="#191970" d="M2406.2782,-308.7425C2403.9088,-283.5341 2400.2734,-238.5733 2400.2734,-200 2400.2734,-200 2400.2734,-200 2400.2734,-138.5 2400.2734,-99.0088 2399.4741,-78.862 2367.2734,-56 2326.8825,-27.3231 1588.043,-13.8985 1385.3393,-10.7452"/>
<polygon fill="#191970" stroke="#191970" points="2402.8087,-309.2267 2407.2602,-318.8409 2409.7759,-308.5491 2402.8087,-309.2267"/>
</g>
<!-- Node68&#45;&gt;Node45 -->
<g id="edge124" class="edge">
<title>Node68&#45;&gt;Node45</title>
<path fill="none" stroke="#191970" d="M2376.4325,-314.9118C2345.9176,-301.8895 2300.6381,-282.5664 2273.726,-271.0817"/>
<polygon fill="#191970" stroke="#191970" points="2375.2079,-318.1946 2385.7792,-318.9005 2377.9555,-311.7563 2375.2079,-318.1946"/>
</g>
</g>
</svg>
