<?xml version="1.0" encoding="UTF-8" standalone="no"?>
<!DOCTYPE svg PUBLIC "-//W3C//DTD SVG 1.1//EN"
 "http://www.w3.org/Graphics/SVG/1.1/DTD/svg11.dtd">
<!-- Generated by graphviz version 2.40.1 (20161225.0304)
 -->
<!-- Title: ChimeraTK::VariableNetworkNode::getOwner Pages: 1 -->
<svg width="1015pt" height="472pt"
 viewBox="0.00 0.00 1015.00 471.50" xmlns="http://www.w3.org/2000/svg" xmlns:xlink="http://www.w3.org/1999/xlink">
<g id="graph0" class="graph" transform="scale(1 1) rotate(0) translate(4 467.5)">
<title>ChimeraTK::VariableNetworkNode::getOwner</title>
<polygon fill="#ffffff" stroke="transparent" points="-4,4 -4,-467.5 1011,-467.5 1011,4 -4,4"/>
<!-- Node348 -->
<g id="node1" class="node">
<title>Node348</title>
<polygon fill="#bfbfbf" stroke="#000000" points="0,-219 0,-249 158,-249 158,-219 0,-219"/>
<text text-anchor="start" x="8" y="-237" font-family="Helvetica,sans-Serif" font-size="10.00" fill="#000000">ChimeraTK::VariableNetwork</text>
<text text-anchor="middle" x="79" y="-226" font-family="Helvetica,sans-Serif" font-size="10.00" fill="#000000">Node::getOwner</text>
</g>
<!-- Node349 -->
<g id="node2" class="node">
<title>Node349</title>
<g id="a_node2"><a xlink:href="class_chimera_t_k_1_1_application.html#a17b9eed2f522249889c7138cffbba8c3" target="_top" xlink:title="Register a connection between two VariableNetworkNode. ">
<polygon fill="#ffffff" stroke="#000000" points="220,-433 220,-463 351,-463 351,-433 220,-433"/>
<text text-anchor="start" x="228" y="-451" font-family="Helvetica,sans-Serif" font-size="10.00" fill="#000000">ChimeraTK::Application</text>
<text text-anchor="middle" x="285.5" y="-440" font-family="Helvetica,sans-Serif" font-size="10.00" fill="#000000">::connect</text>
</a>
</g>
</g>
<!-- Node348&#45;&gt;Node349 -->
<g id="edge1" class="edge">
<title>Node348&#45;&gt;Node349</title>
<path fill="none" stroke="#191970" d="M87.8793,-258.4597C103.3721,-297.7678 139.0305,-374.9392 194,-418 201.7646,-424.0824 210.8103,-428.9547 220.1341,-432.8516"/>
<polygon fill="#191970" stroke="#191970" points="91.14,-257.1873 84.2924,-249.1027 84.6038,-259.693 91.14,-257.1873"/>
</g>
<!-- Node350 -->
<g id="node3" class="node">
<title>Node350</title>
<g id="a_node3"><a xlink:href="class_chimera_t_k_1_1_variable_network_node.html#affc1e48e5ee2e533b94201e89a8cc912" target="_top" xlink:title="Connect two nodes. ">
<polygon fill="#ffffff" stroke="#000000" points="417.5,-411 417.5,-441 575.5,-441 575.5,-411 417.5,-411"/>
<text text-anchor="start" x="425.5" y="-429" font-family="Helvetica,sans-Serif" font-size="10.00" fill="#000000">ChimeraTK::VariableNetwork</text>
<text text-anchor="middle" x="496.5" y="-418" font-family="Helvetica,sans-Serif" font-size="10.00" fill="#000000">Node::operator&gt;&gt;</text>
</a>
</g>
</g>
<!-- Node348&#45;&gt;Node350 -->
<g id="edge19" class="edge">
<title>Node348&#45;&gt;Node350</title>
<path fill="none" stroke="#191970" d="M90.0335,-258.5346C106.9921,-293.111 142.9422,-355.2681 194,-385 230.8104,-406.4354 340.6666,-417.1171 417.3191,-422.0983"/>
<polygon fill="#191970" stroke="#191970" points="93.0289,-256.6838 85.5704,-249.1591 86.7085,-259.6927 93.0289,-256.6838"/>
</g>
<!-- Node351 -->
<g id="node4" class="node">
<title>Node351</title>
<g id="a_node4"><a xlink:href="class_chimera_t_k_1_1_application.html#a7ffa5299dd6e3692f34eb88d16fb4b15" target="_top" xlink:title="Create a process variable with the PVManager, which is exported to the control system adapter...">
<polygon fill="#ffffff" stroke="#000000" points="220,-345 220,-375 351,-375 351,-345 220,-345"/>
<text text-anchor="start" x="228" y="-363" font-family="Helvetica,sans-Serif" font-size="10.00" fill="#000000">ChimeraTK::Application</text>
<text text-anchor="middle" x="285.5" y="-352" font-family="Helvetica,sans-Serif" font-size="10.00" fill="#000000">::createProcessVariable</text>
</a>
</g>
</g>
<!-- Node348&#45;&gt;Node351 -->
<g id="edge3" class="edge">
<title>Node348&#45;&gt;Node351</title>
<path fill="none" stroke="#191970" d="M98.7433,-256.9505C119.9901,-280.2221 155.8964,-315.6251 194,-336 201.9653,-340.2592 210.7314,-343.7961 219.5866,-346.7244"/>
<polygon fill="#191970" stroke="#191970" points="101.1403,-254.3808 91.8599,-249.2695 95.9273,-259.0525 101.1403,-254.3808"/>
</g>
<!-- Node352 -->
<g id="node5" class="node">
<title>Node352</title>
<g id="a_node5"><a xlink:href="class_chimera_t_k_1_1_application.html#a227fa9544c0cb66261256a08e475a99a" target="_top" xlink:title="Find PVs which should be constant. ">
<polygon fill="#ffffff" stroke="#000000" points="220,-247 220,-277 351,-277 351,-247 220,-247"/>
<text text-anchor="start" x="228" y="-265" font-family="Helvetica,sans-Serif" font-size="10.00" fill="#000000">ChimeraTK::Application</text>
<text text-anchor="middle" x="285.5" y="-254" font-family="Helvetica,sans-Serif" font-size="10.00" fill="#000000">::findConstantNodes</text>
</a>
</g>
</g>
<!-- Node348&#45;&gt;Node352 -->
<g id="edge4" class="edge">
<title>Node348&#45;&gt;Node352</title>
<path fill="none" stroke="#191970" d="M168.3596,-246.1166C185.6635,-248.4628 203.4974,-250.881 219.8695,-253.1009"/>
<polygon fill="#191970" stroke="#191970" points="168.6273,-242.6209 158.2477,-244.7455 167.6867,-249.5574 168.6273,-242.6209"/>
</g>
<!-- Node359 -->
<g id="node12" class="node">
<title>Node359</title>
<g id="a_node12"><a xlink:href="class_chimera_t_k_1_1_application.html#a9b3bd0b5ad6a7cef5bbd015e654bc584" target="_top" xlink:title="Make the connections for a single network. ">
<polygon fill="#ffffff" stroke="#000000" points="202,-296 202,-326 369,-326 369,-296 202,-296"/>
<text text-anchor="start" x="210" y="-314" font-family="Helvetica,sans-Serif" font-size="10.00" fill="#000000">ChimeraTK::Application</text>
<text text-anchor="middle" x="285.5" y="-303" font-family="Helvetica,sans-Serif" font-size="10.00" fill="#000000">::makeConnectionsForNetwork</text>
</a>
</g>
</g>
<!-- Node348&#45;&gt;Node359 -->
<g id="edge11" class="edge">
<title>Node348&#45;&gt;Node359</title>
<path fill="none" stroke="#191970" d="M117.2185,-253.6661C139.2666,-264.4877 167.7442,-277.5885 194,-287 202.9666,-290.2141 212.5669,-293.2037 222.0536,-295.9057"/>
<polygon fill="#191970" stroke="#191970" points="118.7018,-250.495 108.1882,-249.1852 115.5903,-256.7654 118.7018,-250.495"/>
</g>
<!-- Node361 -->
<g id="node14" class="node">
<title>Node361</title>
<g id="a_node14"><a xlink:href="struct_chimera_t_k_1_1_application_1_1_circular_dependency_detector.html#a6ba63aa3d36361aad82113e8f31ecb8d" target="_top" xlink:title="Call before an ApplicationModule waits for an initial value on the given node. ">
<polygon fill="#ffffff" stroke="#000000" points="204,-186.5 204,-227.5 367,-227.5 367,-186.5 204,-186.5"/>
<text text-anchor="start" x="212" y="-215.5" font-family="Helvetica,sans-Serif" font-size="10.00" fill="#000000">ChimeraTK::Application</text>
<text text-anchor="start" x="212" y="-204.5" font-family="Helvetica,sans-Serif" font-size="10.00" fill="#000000">::CircularDependencyDetector</text>
<text text-anchor="middle" x="285.5" y="-193.5" font-family="Helvetica,sans-Serif" font-size="10.00" fill="#000000">::registerDependencyWait</text>
</a>
</g>
</g>
<!-- Node348&#45;&gt;Node361 -->
<g id="edge14" class="edge">
<title>Node348&#45;&gt;Node361</title>
<path fill="none" stroke="#191970" d="M168.4681,-222.302C180.1864,-220.7698 192.1459,-219.2061 203.7282,-217.6917"/>
<polygon fill="#191970" stroke="#191970" points="167.7095,-218.8713 158.2477,-223.6383 168.6171,-225.8122 167.7095,-218.8713"/>
</g>
<!-- Node366 -->
<g id="node19" class="node">
<title>Node366</title>
<g id="a_node19"><a xlink:href="class_chimera_t_k_1_1_variable_network_node.html#affaee6f8c527589de0ccbe7d94922cc8" target="_top" xlink:title="Add a trigger. ">
<polygon fill="#ffffff" stroke="#000000" points="206.5,-137 206.5,-167 364.5,-167 364.5,-137 206.5,-137"/>
<text text-anchor="start" x="214.5" y="-155" font-family="Helvetica,sans-Serif" font-size="10.00" fill="#000000">ChimeraTK::VariableNetwork</text>
<text text-anchor="middle" x="285.5" y="-144" font-family="Helvetica,sans-Serif" font-size="10.00" fill="#000000">Node::operator[]</text>
</a>
</g>
</g>
<!-- Node348&#45;&gt;Node366 -->
<g id="edge20" class="edge">
<title>Node348&#45;&gt;Node366</title>
<path fill="none" stroke="#191970" d="M114.8362,-213.992C137.1293,-202.1157 166.6637,-187.3969 194,-177 203.543,-173.3705 213.8306,-170.0326 223.9423,-167.058"/>
<polygon fill="#191970" stroke="#191970" points="112.8957,-211.0618 105.7529,-218.8868 116.2165,-217.224 112.8957,-211.0618"/>
</g>
<!-- Node367 -->
<g id="node20" class="node">
<title>Node367</title>
<g id="a_node20"><a xlink:href="class_chimera_t_k_1_1_variable_network_node.html#adaeba799b14973c1d4a00b27c7e50613" target="_top" xlink:title="Scan the networks and set the isCircularInput() flags if circular depencencies are detected...">
<polygon fill="#ffffff" stroke="#000000" points="194,-88 194,-118 377,-118 377,-88 194,-88"/>
<text text-anchor="start" x="202" y="-106" font-family="Helvetica,sans-Serif" font-size="10.00" fill="#000000">ChimeraTK::VariableNetwork</text>
<text text-anchor="middle" x="285.5" y="-95" font-family="Helvetica,sans-Serif" font-size="10.00" fill="#000000">Node::scanForCircularDepencency</text>
</a>
</g>
</g>
<!-- Node348&#45;&gt;Node367 -->
<g id="edge21" class="edge">
<title>Node348&#45;&gt;Node367</title>
<path fill="none" stroke="#191970" d="M97.629,-211.3103C118.6208,-187.1962 154.9448,-149.6262 194,-128 200.9151,-124.1709 208.4538,-120.8988 216.1392,-118.1094"/>
<polygon fill="#191970" stroke="#191970" points="94.9532,-209.0541 91.1161,-218.9297 100.2742,-213.6024 94.9532,-209.0541"/>
</g>
<!-- Node368 -->
<g id="node21" class="node">
<title>Node368</title>
<g id="a_node21"><a xlink:href="class_chimera_t_k_1_1_x_m_l_generator_visitor.html#a5fa92328f832990bc251ea958ed80ced" target="_top" xlink:title="ChimeraTK::XMLGeneratorVisitor\l::dispatch">
<polygon fill="#ffffff" stroke="#000000" points="197,-39 197,-69 374,-69 374,-39 197,-39"/>
<text text-anchor="start" x="205" y="-57" font-family="Helvetica,sans-Serif" font-size="10.00" fill="#000000">ChimeraTK::XMLGeneratorVisitor</text>
<text text-anchor="middle" x="285.5" y="-46" font-family="Helvetica,sans-Serif" font-size="10.00" fill="#000000">::dispatch</text>
</a>
</g>
</g>
<!-- Node348&#45;&gt;Node368 -->
<g id="edge22" class="edge">
<title>Node348&#45;&gt;Node368</title>
<path fill="none" stroke="#191970" d="M90.6934,-209.201C108.2375,-174.7174 144.6527,-112.731 194,-79 199.71,-75.097 206.0092,-71.8018 212.5507,-69.0199"/>
<polygon fill="#191970" stroke="#191970" points="87.3618,-208.0413 86.0553,-218.5553 93.6333,-211.1509 87.3618,-208.0413"/>
</g>
<!-- Node369 -->
<g id="node22" class="node">
<title>Node369</title>
<g id="a_node22"><a xlink:href="test_virtual_hierarchy_8cc.html#a79e22e84ac52a2ea8b59653432ed5ced" target="_top" xlink:title="testNetworkNode">
<polygon fill="#ffffff" stroke="#000000" points="234.5,-.5 234.5,-19.5 336.5,-19.5 336.5,-.5 234.5,-.5"/>
<text text-anchor="middle" x="285.5" y="-7.5" font-family="Helvetica,sans-Serif" font-size="10.00" fill="#000000">testNetworkNode</text>
</a>
</g>
</g>
<!-- Node348&#45;&gt;Node369 -->
<g id="edge23" class="edge">
<title>Node348&#45;&gt;Node369</title>
<path fill="none" stroke="#191970" d="M85.7285,-209.0437C98.8338,-165.458 132.0727,-75.7558 194,-30 205.6394,-21.4001 220.2449,-16.3625 234.3473,-13.4498"/>
<polygon fill="#191970" stroke="#191970" points="82.3131,-208.2549 82.8926,-218.8338 89.0367,-210.2025 82.3131,-208.2549"/>
</g>
<!-- Node349&#45;&gt;Node350 -->
<g id="edge2" class="edge">
<title>Node349&#45;&gt;Node350</title>
<path fill="none" stroke="#191970" d="M361.0799,-440.1196C379.3029,-438.2196 398.8242,-436.1842 417.2114,-434.2671"/>
<polygon fill="#191970" stroke="#191970" points="360.6882,-436.6414 351.1051,-441.1597 361.4142,-443.6037 360.6882,-436.6414"/>
</g>
<!-- Node353 -->
<g id="node6" class="node">
<title>Node353</title>
<g id="a_node6"><a xlink:href="class_chimera_t_k_1_1_application.html#a697d4a47ece6750203eecbff97039773" target="_top" xlink:title="ChimeraTK::Application\l::initialise">
<polygon fill="#ffffff" stroke="#000000" points="644.5,-290 644.5,-320 775.5,-320 775.5,-290 644.5,-290"/>
<text text-anchor="start" x="652.5" y="-308" font-family="Helvetica,sans-Serif" font-size="10.00" fill="#000000">ChimeraTK::Application</text>
<text text-anchor="middle" x="710" y="-297" font-family="Helvetica,sans-Serif" font-size="10.00" fill="#000000">::initialise</text>
</a>
</g>
</g>
<!-- Node352&#45;&gt;Node353 -->
<g id="edge5" class="edge">
<title>Node352&#45;&gt;Node353</title>
<path fill="none" stroke="#191970" d="M361.4407,-269.6925C441.987,-277.8514 567.9268,-290.6086 644.3324,-298.3482"/>
<polygon fill="#191970" stroke="#191970" points="361.6642,-266.1973 351.3624,-268.6716 360.9587,-273.1616 361.6642,-266.1973"/>
</g>
<!-- Node357 -->
<g id="node10" class="node">
<title>Node357</title>
<g id="a_node10"><a xlink:href="class_chimera_t_k_1_1_application.html#a1c9c06d9a92bfb9f42875faf48771e2d" target="_top" xlink:title="Instead of running the application, just initialise it and output the published variables to an XML f...">
<polygon fill="#ffffff" stroke="#000000" points="431,-224 431,-254 562,-254 562,-224 431,-224"/>
<text text-anchor="start" x="439" y="-242" font-family="Helvetica,sans-Serif" font-size="10.00" fill="#000000">ChimeraTK::Application</text>
<text text-anchor="middle" x="496.5" y="-231" font-family="Helvetica,sans-Serif" font-size="10.00" fill="#000000">::generateXML</text>
</a>
</g>
</g>
<!-- Node352&#45;&gt;Node357 -->
<g id="edge9" class="edge">
<title>Node352&#45;&gt;Node357</title>
<path fill="none" stroke="#191970" d="M361.0946,-253.7598C383.9326,-251.2704 408.8088,-248.5588 430.9355,-246.1468"/>
<polygon fill="#191970" stroke="#191970" points="360.6669,-250.2856 351.1051,-254.8487 361.4255,-257.2444 360.6669,-250.2856"/>
</g>
<!-- Node354 -->
<g id="node7" class="node">
<title>Node354</title>
<g id="a_node7"><a xlink:href="class_chimera_t_k_1_1_test_facility.html#afc1238aaadcddda96d35a6c64b88326a" target="_top" xlink:title="The constructor will internally obtain the instance of the application, so the instance of the TestFa...">
<polygon fill="#ffffff" stroke="#000000" points="858,-290 858,-320 989,-320 989,-290 858,-290"/>
<text text-anchor="start" x="866" y="-308" font-family="Helvetica,sans-Serif" font-size="10.00" fill="#000000">ChimeraTK::TestFacility</text>
<text text-anchor="middle" x="923.5" y="-297" font-family="Helvetica,sans-Serif" font-size="10.00" fill="#000000">::TestFacility</text>
</a>
</g>
</g>
<!-- Node353&#45;&gt;Node354 -->
<g id="edge6" class="edge">
<title>Node353&#45;&gt;Node354</title>
<path fill="none" stroke="#191970" d="M785.782,-305C809.2865,-305 834.9838,-305 857.7481,-305"/>
<polygon fill="#191970" stroke="#191970" points="785.508,-301.5001 775.508,-305 785.5079,-308.5001 785.508,-301.5001"/>
</g>
<!-- Node355 -->
<g id="node8" class="node">
<title>Node355</title>
<g id="a_node8"><a xlink:href="test_app_module_connections_8cc.html#a5ce7368e009c920d69740c3053f16a88" target="_top" xlink:title="BOOST_AUTO_TEST_CASE\l_TEMPLATE">
<polygon fill="#ffffff" stroke="#000000" points="852,-241 852,-271 995,-271 995,-241 852,-241"/>
<text text-anchor="start" x="860" y="-259" font-family="Helvetica,sans-Serif" font-size="10.00" fill="#000000">BOOST_AUTO_TEST_CASE</text>
<text text-anchor="middle" x="923.5" y="-248" font-family="Helvetica,sans-Serif" font-size="10.00" fill="#000000">_TEMPLATE</text>
</a>
</g>
</g>
<!-- Node353&#45;&gt;Node355 -->
<g id="edge7" class="edge">
<title>Node353&#45;&gt;Node355</title>
<path fill="none" stroke="#191970" d="M785.5134,-287.6691C809.2172,-282.2288 835.1742,-276.2715 858.1159,-271.0062"/>
<polygon fill="#191970" stroke="#191970" points="784.4716,-284.3171 775.508,-289.9654 786.0375,-291.1397 784.4716,-284.3171"/>
</g>
<!-- Node356 -->
<g id="node9" class="node">
<title>Node356</title>
<g id="a_node9"><a xlink:href="test_config_reader_8cc.html#a1ccf0660b8a3b63bada3a4be8e40f839" target="_top" xlink:title="BOOST_AUTO_TEST_CASE">
<polygon fill="#ffffff" stroke="#000000" points="852,-339.5 852,-358.5 995,-358.5 995,-339.5 852,-339.5"/>
<text text-anchor="middle" x="923.5" y="-346.5" font-family="Helvetica,sans-Serif" font-size="10.00" fill="#000000">BOOST_AUTO_TEST_CASE</text>
</a>
</g>
</g>
<!-- Node353&#45;&gt;Node356 -->
<g id="edge8" class="edge">
<title>Node353&#45;&gt;Node356</title>
<path fill="none" stroke="#191970" d="M785.6915,-320.5992C816.1862,-326.8838 850.3848,-333.9318 877.0853,-339.4344"/>
<polygon fill="#191970" stroke="#191970" points="786.0086,-317.0911 775.508,-318.5005 784.5957,-323.947 786.0086,-317.0911"/>
</g>
<!-- Node358 -->
<g id="node11" class="node">
<title>Node358</title>
<g id="a_node11"><a xlink:href="test_application_8cc.html#aad34393c6eebcac19bba852aaeb4e934" target="_top" xlink:title="BOOST_AUTO_TEST_CASE">
<polygon fill="#ffffff" stroke="#000000" points="638.5,-229.5 638.5,-248.5 781.5,-248.5 781.5,-229.5 638.5,-229.5"/>
<text text-anchor="middle" x="710" y="-236.5" font-family="Helvetica,sans-Serif" font-size="10.00" fill="#000000">BOOST_AUTO_TEST_CASE</text>
</a>
</g>
</g>
<!-- Node357&#45;&gt;Node358 -->
<g id="edge10" class="edge">
<title>Node357&#45;&gt;Node358</title>
<path fill="none" stroke="#191970" d="M572.0832,-239C593.6157,-239 617.0027,-239 638.2968,-239"/>
<polygon fill="#191970" stroke="#191970" points="572.008,-235.5001 562.008,-239 572.0079,-242.5001 572.008,-235.5001"/>
</g>
<!-- Node360 -->
<g id="node13" class="node">
<title>Node360</title>
<g id="a_node13"><a xlink:href="class_chimera_t_k_1_1_application.html#acbbcd560d74531326d4ce56c601132ca" target="_top" xlink:title="Make the connections between accessors as requested in the initialise() function. ...">
<polygon fill="#ffffff" stroke="#000000" points="431,-312 431,-342 562,-342 562,-312 431,-312"/>
<text text-anchor="start" x="439" y="-330" font-family="Helvetica,sans-Serif" font-size="10.00" fill="#000000">ChimeraTK::Application</text>
<text text-anchor="middle" x="496.5" y="-319" font-family="Helvetica,sans-Serif" font-size="10.00" fill="#000000">::makeConnections</text>
</a>
</g>
</g>
<!-- Node359&#45;&gt;Node360 -->
<g id="edge12" class="edge">
<title>Node359&#45;&gt;Node360</title>
<path fill="none" stroke="#191970" d="M379.3541,-318.1169C396.7153,-319.4334 414.5023,-320.7822 430.8036,-322.0183"/>
<polygon fill="#191970" stroke="#191970" points="379.4319,-314.6128 369.1958,-317.3466 378.9025,-321.5928 379.4319,-314.6128"/>
</g>
<!-- Node360&#45;&gt;Node353 -->
<g id="edge13" class="edge">
<title>Node360&#45;&gt;Node353</title>
<path fill="none" stroke="#191970" d="M571.966,-319.2236C595.556,-316.7928 621.3817,-314.1316 644.2481,-311.7754"/>
<polygon fill="#191970" stroke="#191970" points="571.5965,-315.7431 562.008,-320.2498 572.3141,-322.7062 571.5965,-315.7431"/>
</g>
<!-- Node362 -->
<g id="node15" class="node">
<title>Node362</title>
<g id="a_node15"><a xlink:href="class_chimera_t_k_1_1_application_module.html#a1307f3a48b1ab8a14f8efcece2b0c047" target="_top" xlink:title="Wrapper around mainLoop(), to execute additional tasks in the thread before entering the main loop...">
<polygon fill="#ffffff" stroke="#000000" points="413,-175 413,-205 580,-205 580,-175 413,-175"/>
<text text-anchor="start" x="421" y="-193" font-family="Helvetica,sans-Serif" font-size="10.00" fill="#000000">ChimeraTK::ApplicationModule</text>
<text text-anchor="middle" x="496.5" y="-182" font-family="Helvetica,sans-Serif" font-size="10.00" fill="#000000">::mainLoopWrapper</text>
</a>
</g>
</g>
<!-- Node361&#45;&gt;Node362 -->
<g id="edge15" class="edge">
<title>Node361&#45;&gt;Node362</title>
<path fill="none" stroke="#191970" d="M377.3354,-199.6009C389.092,-198.6537 401.0789,-197.688 412.6988,-196.7518"/>
<polygon fill="#191970" stroke="#191970" points="376.7647,-196.1355 367.0781,-200.4274 377.3269,-203.1129 376.7647,-196.1355"/>
</g>
<!-- Node363 -->
<g id="node16" class="node">
<title>Node363</title>
<g id="a_node16"><a xlink:href="class_chimera_t_k_1_1_application_module.html#acf7f5e081d8dedd9ee61e6f3bc13aa37" target="_top" xlink:title="Return the current version number which has been received with the last push&#45;type read operation...">
<polygon fill="#ffffff" stroke="#000000" points="626.5,-178 626.5,-208 793.5,-208 793.5,-178 626.5,-178"/>
<text text-anchor="start" x="634.5" y="-196" font-family="Helvetica,sans-Serif" font-size="10.00" fill="#000000">ChimeraTK::ApplicationModule</text>
<text text-anchor="middle" x="710" y="-185" font-family="Helvetica,sans-Serif" font-size="10.00" fill="#000000">::getCurrentVersionNumber</text>
</a>
</g>
</g>
<!-- Node362&#45;&gt;Node363 -->
<g id="edge16" class="edge">
<title>Node362&#45;&gt;Node363</title>
<path fill="none" stroke="#191970" d="M590.3143,-191.3182C602.3528,-191.4874 614.6141,-191.6597 626.4735,-191.8263"/>
<polygon fill="#191970" stroke="#191970" points="590.3163,-187.818 580.2681,-191.1771 590.2179,-194.8173 590.3163,-187.818"/>
</g>
<!-- Node364 -->
<g id="node17" class="node">
<title>Node364</title>
<g id="a_node17"><a xlink:href="class_chimera_t_k_1_1_application_module.html#a56b3336359e095088a189258c8e07039" target="_top" xlink:title="Execute the module. ">
<polygon fill="#ffffff" stroke="#000000" points="616,-139.5 616,-158.5 804,-158.5 804,-139.5 616,-139.5"/>
<text text-anchor="middle" x="710" y="-146.5" font-family="Helvetica,sans-Serif" font-size="10.00" fill="#000000">ChimeraTK::ApplicationModule::run</text>
</a>
</g>
</g>
<!-- Node362&#45;&gt;Node364 -->
<g id="edge17" class="edge">
<title>Node362&#45;&gt;Node364</title>
<path fill="none" stroke="#191970" d="M584.9349,-173.0172C610.6474,-168.0794 637.8213,-162.861 660.2468,-158.5545"/>
<polygon fill="#191970" stroke="#191970" points="583.9477,-169.6427 574.7872,-174.9659 585.2679,-176.5171 583.9477,-169.6427"/>
</g>
<!-- Node365 -->
<g id="node18" class="node">
<title>Node365</title>
<g id="a_node18"><a xlink:href="class_chimera_t_k_1_1_application_module.html#aa5d5e870c6960faa2215d762f1385397" target="_top" xlink:title="Move operation with the move constructor. ">
<polygon fill="#ffffff" stroke="#000000" points="840,-134 840,-164 1007,-164 1007,-134 840,-134"/>
<text text-anchor="start" x="848" y="-152" font-family="Helvetica,sans-Serif" font-size="10.00" fill="#000000">ChimeraTK::ApplicationModule</text>
<text text-anchor="middle" x="923.5" y="-141" font-family="Helvetica,sans-Serif" font-size="10.00" fill="#000000">::ApplicationModule</text>
</a>
</g>
</g>
<!-- Node364&#45;&gt;Node365 -->
<g id="edge18" class="edge">
<title>Node364&#45;&gt;Node365</title>
<path fill="none" stroke="#191970" d="M814.2925,-149C822.8534,-149 831.4354,-149 839.818,-149"/>
<polygon fill="#191970" stroke="#191970" points="814.2657,-145.5001 804.2657,-149 814.2657,-152.5001 814.2657,-145.5001"/>
</g>
<!-- Node370 -->
<g id="node23" class="node">
<title>Node370</title>
<g id="a_node23"><a xlink:href="test_virtual_hierarchy_8cc.html#ae2fcfb2d4102deaf222d36885b53b941" target="_top" xlink:title="BOOST_AUTO_TEST_CASE">
<polygon fill="#ffffff" stroke="#000000" points="425,-.5 425,-19.5 568,-19.5 568,-.5 425,-.5"/>
<text text-anchor="middle" x="496.5" y="-7.5" font-family="Helvetica,sans-Serif" font-size="10.00" fill="#000000">BOOST_AUTO_TEST_CASE</text>
</a>
</g>
</g>
<!-- Node369&#45;&gt;Node370 -->
<g id="edge24" class="edge">
<title>Node369&#45;&gt;Node370</title>
<path fill="none" stroke="#191970" d="M346.7774,-10C371.174,-10 399.423,-10 424.766,-10"/>
<polygon fill="#191970" stroke="#191970" points="346.5772,-6.5001 336.5772,-10 346.5772,-13.5001 346.5772,-6.5001"/>
</g>
</g>
</svg>
