<?xml version="1.0" encoding="UTF-8" standalone="no"?>
<!DOCTYPE svg PUBLIC "-//W3C//DTD SVG 1.1//EN"
 "http://www.w3.org/Graphics/SVG/1.1/DTD/svg11.dtd">
<!-- Generated by graphviz version 2.40.1 (20161225.0304)
 -->
<!-- Title: ChimeraTK::VariableNetworkNode::scanForCircularDepencency Pages: 1 -->
<!--zoomable 284 -->
<svg id="main" version="1.1" xmlns="http://www.w3.org/2000/svg" xmlns:xlink="http://www.w3.org/1999/xlink" xml:space="preserve" onload="init(evt)">
<style type="text/css"><![CDATA[
.edge:hover path { stroke: red; }
.edge:hover polygon { stroke: red; fill: red; }
]]></style>
<script type="text/javascript"><![CDATA[
var edges = document.getElementsByTagName('g');
if (edges && edges.length) {
  for (var i=0;i<edges.length;i++) {
    if (edges[i].id.substr(0,4)=='edge') {
      edges[i].setAttribute('class','edge');
    }
  }
}
]]></script>
        <defs>
                <circle id="rim" cx="0" cy="0" r="7"/>
                <circle id="rim2" cx="0" cy="0" r="3.5"/>
                <g id="zoomPlus">
                        <use xlink:href="#rim" fill="#404040">
                                <set attributeName="fill" to="#808080" begin="zoomplus.mouseover" end="zoomplus.mouseout"/>
                        </use>
                        <path d="M-4,0h8M0,-4v8" fill="none" stroke="white" stroke-width="1.5" pointer-events="none"/>
                </g>
                <g id="zoomMin">
                        <use xlink:href="#rim" fill="#404040">
                                <set attributeName="fill" to="#808080" begin="zoomminus.mouseover" end="zoomminus.mouseout"/>
                        </use>
                        <path d="M-4,0h8" fill="none" stroke="white" stroke-width="1.5" pointer-events="none"/>
                </g>
                <g id="dirArrow">
                        <path fill="none" stroke="white" stroke-width="1.5" d="M0,-3.0v7 M-2.5,-0.5L0,-3.0L2.5,-0.5"/>
                </g>
               <g id="resetDef">
                       <use xlink:href="#rim2" fill="#404040">
                               <set attributeName="fill" to="#808080" begin="reset.mouseover" end="reset.mouseout"/>
                       </use>
               </g>
        </defs>

<script type="text/javascript">
var viewWidth = 775;
var viewHeight = 284;
var sectionId = 'dynsection-33';
</script>
<script xlink:href="svgpan.js"/>
<svg id="graph" class="graph">
<g id="viewport">
<title>ChimeraTK::VariableNetworkNode::scanForCircularDepencency</title>
<polygon fill="#ffffff" stroke="transparent" points="-4,4 -4,-280 771,-280 771,4 -4,4"/>
<!-- Node574 -->
<g id="node1" class="node">
<title>Node574</title>
<polygon fill="#bfbfbf" stroke="#000000" points="0,-122.5 0,-152.5 183,-152.5 183,-122.5 0,-122.5"/>
<text text-anchor="start" x="8" y="-140.5" font-family="Helvetica,sans-Serif" font-size="10.00" fill="#000000">ChimeraTK::VariableNetwork</text>
<text text-anchor="middle" x="91.5" y="-129.5" font-family="Helvetica,sans-Serif" font-size="10.00" fill="#000000">Node::scanForCircularDepencency</text>
</g>
<!-- Node575 -->
<g id="node2" class="node">
<title>Node575</title>
<g id="a_node2"><a xlink:href="class_chimera_t_k_1_1_variable_network_node.html#a4445cd91467119430db5a61f8e996362" target="_top" xlink:title="ChimeraTK::VariableNetwork\lNode::getOwner">
<polygon fill="#ffffff" stroke="#000000" points="220,-245.5 220,-275.5 378,-275.5 378,-245.5 220,-245.5"/>
<text text-anchor="start" x="228" y="-263.5" font-family="Helvetica,sans-Serif" font-size="10.00" fill="#000000">ChimeraTK::VariableNetwork</text>
<text text-anchor="middle" x="299" y="-252.5" font-family="Helvetica,sans-Serif" font-size="10.00" fill="#000000">Node::getOwner</text>
</a>
</g>
</g>
<!-- Node574&#45;&gt;Node575 -->
<g id="edge1" class="edge">
<title>Node574&#45;&gt;Node575</title>
<path fill="none" stroke="#191970" d="M107.0631,-152.7447C129.8399,-174.2745 174.4086,-213.5204 219,-236.5 222.6977,-238.4056 226.5712,-240.1854 230.5348,-241.8438"/>
<polygon fill="#191970" stroke="#191970" points="229.3178,-245.1259 239.9062,-245.495 231.859,-238.6034 229.3178,-245.1259"/>
</g>
<!-- Node576 -->
<g id="node3" class="node">
<title>Node576</title>
<g id="a_node3"><a xlink:href="class_chimera_t_k_1_1_variable_network.html#a77be09c550820ad29b71a4d9bd5e61dd" target="_top" xlink:title="Return the feeding node. ">
<polygon fill="#ffffff" stroke="#000000" points="220,-196.5 220,-226.5 378,-226.5 378,-196.5 220,-196.5"/>
<text text-anchor="start" x="228" y="-214.5" font-family="Helvetica,sans-Serif" font-size="10.00" fill="#000000">ChimeraTK::VariableNetwork</text>
<text text-anchor="middle" x="299" y="-203.5" font-family="Helvetica,sans-Serif" font-size="10.00" fill="#000000">::getFeedingNode</text>
</a>
</g>
</g>
<!-- Node574&#45;&gt;Node576 -->
<g id="edge2" class="edge">
<title>Node574&#45;&gt;Node576</title>
<path fill="none" stroke="#191970" d="M127.4775,-152.5236C152.8572,-162.8961 187.7616,-176.7095 219,-187.5 224.8464,-189.5195 230.9656,-191.5323 237.1044,-193.4846"/>
<polygon fill="#191970" stroke="#191970" points="236.1419,-196.8507 246.7307,-196.495 238.2312,-190.1698 236.1419,-196.8507"/>
</g>
<!-- Node579 -->
<g id="node6" class="node">
<title>Node579</title>
<g id="a_node6"><a xlink:href="class_chimera_t_k_1_1_variable_network_node.html#aecf2d39df34f2a86c8e29c6b7c852520" target="_top" xlink:title="ChimeraTK::VariableNetwork\lNode::getOwningModule">
<polygon fill="#ffffff" stroke="#000000" points="220,-147.5 220,-177.5 378,-177.5 378,-147.5 220,-147.5"/>
<text text-anchor="start" x="228" y="-165.5" font-family="Helvetica,sans-Serif" font-size="10.00" fill="#000000">ChimeraTK::VariableNetwork</text>
<text text-anchor="middle" x="299" y="-154.5" font-family="Helvetica,sans-Serif" font-size="10.00" fill="#000000">Node::getOwningModule</text>
</a>
</g>
</g>
<!-- Node574&#45;&gt;Node579 -->
<g id="edge5" class="edge">
<title>Node574&#45;&gt;Node579</title>
<path fill="none" stroke="#191970" d="M183.1165,-148.5381C192.0301,-149.6121 201.0647,-150.7006 209.9525,-151.7714"/>
<polygon fill="#191970" stroke="#191970" points="209.5634,-155.2497 219.9103,-152.9711 210.4008,-148.3 209.5634,-155.2497"/>
</g>
<!-- Node580 -->
<g id="node7" class="node">
<title>Node580</title>
<g id="a_node7"><a xlink:href="class_chimera_t_k_1_1_variable_network_node.html#aa2d046f0e4309259e37ea6fe31fe4793" target="_top" xlink:title="ChimeraTK::VariableNetwork\lNode::getDirection">
<polygon fill="#ffffff" stroke="#000000" points="220,-98.5 220,-128.5 378,-128.5 378,-98.5 220,-98.5"/>
<text text-anchor="start" x="228" y="-116.5" font-family="Helvetica,sans-Serif" font-size="10.00" fill="#000000">ChimeraTK::VariableNetwork</text>
<text text-anchor="middle" x="299" y="-105.5" font-family="Helvetica,sans-Serif" font-size="10.00" fill="#000000">Node::getDirection</text>
</a>
</g>
</g>
<!-- Node574&#45;&gt;Node580 -->
<g id="edge6" class="edge">
<title>Node574&#45;&gt;Node580</title>
<path fill="none" stroke="#191970" d="M183.1165,-126.9034C192.0301,-125.8724 201.0647,-124.8275 209.9525,-123.7995"/>
<polygon fill="#191970" stroke="#191970" points="210.3787,-127.2736 219.9103,-122.6477 209.5744,-120.32 210.3787,-127.2736"/>
</g>
<!-- Node581 -->
<g id="node8" class="node">
<title>Node581</title>
<g id="a_node8"><a xlink:href="class_chimera_t_k_1_1_module.html#acf4cf5c7d86e570d7d92d257666e2fad" target="_top" xlink:title="ChimeraTK::Module::\lgetOwner">
<polygon fill="#ffffff" stroke="#000000" points="240,-49.5 240,-79.5 358,-79.5 358,-49.5 240,-49.5"/>
<text text-anchor="start" x="248" y="-67.5" font-family="Helvetica,sans-Serif" font-size="10.00" fill="#000000">ChimeraTK::Module::</text>
<text text-anchor="middle" x="299" y="-56.5" font-family="Helvetica,sans-Serif" font-size="10.00" fill="#000000">getOwner</text>
</a>
</g>
</g>
<!-- Node574&#45;&gt;Node581 -->
<g id="edge7" class="edge">
<title>Node574&#45;&gt;Node581</title>
<path fill="none" stroke="#191970" d="M129.7906,-122.4311C155.0023,-112.6714 188.8078,-99.8913 219,-89.5 225.7162,-87.1885 232.7797,-84.8496 239.8139,-82.5777"/>
<polygon fill="#191970" stroke="#191970" points="240.892,-85.9076 249.3524,-79.5301 238.7616,-79.2397 240.892,-85.9076"/>
</g>
<!-- Node582 -->
<g id="node9" class="node">
<title>Node582</title>
<g id="a_node9"><a xlink:href="class_chimera_t_k_1_1_entity_owner.html#a59407f4f875b5114378b54029c27b378" target="_top" xlink:title="Use pointer to the module as unique identifier. ">
<polygon fill="#ffffff" stroke="#000000" points="219,-.5 219,-30.5 379,-30.5 379,-.5 219,-.5"/>
<text text-anchor="start" x="227" y="-18.5" font-family="Helvetica,sans-Serif" font-size="10.00" fill="#000000">ChimeraTK::EntityOwner</text>
<text text-anchor="middle" x="299" y="-7.5" font-family="Helvetica,sans-Serif" font-size="10.00" fill="#000000">::getInputModulesRecursively</text>
</a>
</g>
</g>
<!-- Node574&#45;&gt;Node582 -->
<g id="edge8" class="edge">
<title>Node574&#45;&gt;Node582</title>
<path fill="none" stroke="#191970" d="M107.5451,-122.2983C130.5527,-101.2364 175.0103,-63.2132 219,-40.5 223.2991,-38.2803 227.8309,-36.2154 232.4626,-34.3026"/>
<polygon fill="#191970" stroke="#191970" points="234.0024,-37.4599 242.0674,-30.5891 231.478,-30.9309 234.0024,-37.4599"/>
</g>
<!-- Node577 -->
<g id="node4" class="node">
<title>Node577</title>
<g id="a_node4"><a xlink:href="class_chimera_t_k_1_1_variable_network.html#ab93d12c35802aeef45b6280edb2b8798" target="_top" xlink:title="Dump the network structure to std::cout. ">
<polygon fill="#ffffff" stroke="#000000" points="415,-196.5 415,-226.5 573,-226.5 573,-196.5 415,-196.5"/>
<text text-anchor="start" x="423" y="-214.5" font-family="Helvetica,sans-Serif" font-size="10.00" fill="#000000">ChimeraTK::VariableNetwork</text>
<text text-anchor="middle" x="494" y="-203.5" font-family="Helvetica,sans-Serif" font-size="10.00" fill="#000000">::dump</text>
</a>
</g>
</g>
<!-- Node576&#45;&gt;Node577 -->
<g id="edge3" class="edge">
<title>Node576&#45;&gt;Node577</title>
<path fill="none" stroke="#191970" d="M378.0329,-211.5C386.854,-211.5 395.8845,-211.5 404.821,-211.5"/>
<polygon fill="#191970" stroke="#191970" points="404.8546,-215.0001 414.8546,-211.5 404.8546,-208.0001 404.8546,-215.0001"/>
</g>
<!-- Node578 -->
<g id="node5" class="node">
<title>Node578</title>
<g id="a_node5"><a xlink:href="class_chimera_t_k_1_1_variable_network.html#a96b645ce9551f4610647ea183f461246" target="_top" xlink:title="ChimeraTK::VariableNetwork\l::accept">
<polygon fill="#ffffff" stroke="#000000" points="609,-196.5 609,-226.5 767,-226.5 767,-196.5 609,-196.5"/>
<text text-anchor="start" x="617" y="-214.5" font-family="Helvetica,sans-Serif" font-size="10.00" fill="#000000">ChimeraTK::VariableNetwork</text>
<text text-anchor="middle" x="688" y="-203.5" font-family="Helvetica,sans-Serif" font-size="10.00" fill="#000000">::accept</text>
</a>
</g>
</g>
<!-- Node577&#45;&gt;Node578 -->
<g id="edge4" class="edge">
<title>Node577&#45;&gt;Node578</title>
<path fill="none" stroke="#191970" d="M573.187,-211.5C581.5295,-211.5 590.054,-211.5 598.5021,-211.5"/>
<polygon fill="#191970" stroke="#191970" points="598.7518,-215.0001 608.7517,-211.5 598.7517,-208.0001 598.7518,-215.0001"/>
</g>
</g>
</svg>
        <g id="navigator" transform="translate(0 0)" fill="#404254">
                <rect fill="#f2f5e9" fill-opacity="0.5" stroke="#606060" stroke-width=".5" x="0" y="0" width="60" height="60"/>
                <use id="zoomplus" xlink:href="#zoomPlus" x="17" y="9" onmousedown="handleZoom(evt,'in')"/>
                <use id="zoomminus" xlink:href="#zoomMin" x="42" y="9" onmousedown="handleZoom(evt,'out')"/>
                <use id="reset" xlink:href="#resetDef" x="30" y="36" onmousedown="handleReset()"/>
                <g id="arrowUp" xlink:href="#dirArrow" transform="translate(30 24)" onmousedown="handlePan(0,-1)">
                  <use xlink:href="#rim" fill="#404040">
                        <set attributeName="fill" to="#808080" begin="arrowUp.mouseover" end="arrowUp.mouseout"/>
                  </use>
                  <path fill="none" stroke="white" stroke-width="1.5" d="M0,-3.0v7 M-2.5,-0.5L0,-3.0L2.5,-0.5"/>
                </g>
                <g id="arrowRight" xlink:href="#dirArrow" transform="rotate(90) translate(36 -43)" onmousedown="handlePan(1,0)">
                  <use xlink:href="#rim" fill="#404040">
                        <set attributeName="fill" to="#808080" begin="arrowRight.mouseover" end="arrowRight.mouseout"/>
                  </use>
                  <path fill="none" stroke="white" stroke-width="1.5" d="M0,-3.0v7 M-2.5,-0.5L0,-3.0L2.5,-0.5"/>
                </g>
                <g id="arrowDown" xlink:href="#dirArrow" transform="rotate(180) translate(-30 -48)" onmousedown="handlePan(0,1)">
                  <use xlink:href="#rim" fill="#404040">
                        <set attributeName="fill" to="#808080" begin="arrowDown.mouseover" end="arrowDown.mouseout"/>
                  </use>
                  <path fill="none" stroke="white" stroke-width="1.5" d="M0,-3.0v7 M-2.5,-0.5L0,-3.0L2.5,-0.5"/>
                </g>
                <g id="arrowLeft" xlink:href="#dirArrow" transform="rotate(270) translate(-36 17)" onmousedown="handlePan(-1,0)">
                  <use xlink:href="#rim" fill="#404040">
                        <set attributeName="fill" to="#808080" begin="arrowLeft.mouseover" end="arrowLeft.mouseout"/>
                  </use>
                  <path fill="none" stroke="white" stroke-width="1.5" d="M0,-3.0v7 M-2.5,-0.5L0,-3.0L2.5,-0.5"/>
                </g>
        </g>
        <svg viewBox="0 0 15 15" width="100%" height="30px" preserveAspectRatio="xMaxYMin meet">
         <g id="arrow_out" transform="scale(0.3 0.3)">
          <a xlink:href="class_chimera_t_k_1_1_variable_network_node_adaeba799b14973c1d4a00b27c7e50613_cgraph_org.svg" target="_base">
           <rect id="button" ry="5" rx="5" y="6" x="6" height="38" width="38"
                fill="#f2f5e9" fill-opacity="0.5" stroke="#606060" stroke-width="1.0"/>
           <path id="arrow"
             d="M 11.500037,31.436501 C 11.940474,20.09759 22.043105,11.32322 32.158766,21.979434 L 37.068811,17.246167 C 37.068811,17.246167 37.088388,32 37.088388,32 L 22.160133,31.978069 C 22.160133,31.978069 26.997745,27.140456 26.997745,27.140456 C 18.528582,18.264221 13.291696,25.230495 11.500037,31.436501 z"
             style="fill:#404040;"/>
          </a>
         </g>
        </svg>
</svg>
