<?xml version="1.0" encoding="UTF-8" standalone="no"?>
<!DOCTYPE svg PUBLIC "-//W3C//DTD SVG 1.1//EN"
 "http://www.w3.org/Graphics/SVG/1.1/DTD/svg11.dtd">
<!-- Generated by graphviz version 2.40.1 (20161225.0304)
 -->
<!-- Title: ChimeraTK::XMLGenerator::run Pages: 1 -->
<svg width="567pt" height="210pt"
 viewBox="0.00 0.00 567.00 210.00" xmlns="http://www.w3.org/2000/svg" xmlns:xlink="http://www.w3.org/1999/xlink">
<g id="graph0" class="graph" transform="scale(1 1) rotate(0) translate(4 206)">
<title>ChimeraTK::XMLGenerator::run</title>
<polygon fill="#ffffff" stroke="transparent" points="-4,4 -4,-206 563,-206 563,4 -4,4"/>
<!-- Node4 -->
<g id="node1" class="node">
<title>Node4</title>
<polygon fill="#bfbfbf" stroke="#000000" points="0,-103 0,-122 167,-122 167,-103 0,-103"/>
<text text-anchor="middle" x="83.5" y="-110" font-family="Helvetica,sans-Serif" font-size="10.00" fill="#000000">ChimeraTK::XMLGenerator::run</text>
</g>
<!-- Node5 -->
<g id="node2" class="node">
<title>Node5</title>
<g id="a_node2"><a xlink:href="class_chimera_t_k_1_1_network_visitor.html#a29b4d5a101f1d9631033bfa1198e620e" target="_top" xlink:title="ChimeraTK::NetworkVisitor\l::setDebugConnections">
<polygon fill="#ffffff" stroke="#000000" points="203,-171.5 203,-201.5 352,-201.5 352,-171.5 203,-171.5"/>
<text text-anchor="start" x="211" y="-189.5" font-family="Helvetica,sans-Serif" font-size="10.00" fill="#000000">ChimeraTK::NetworkVisitor</text>
<text text-anchor="middle" x="277.5" y="-178.5" font-family="Helvetica,sans-Serif" font-size="10.00" fill="#000000">::setDebugConnections</text>
</a>
</g>
</g>
<!-- Node4&#45;&gt;Node5 -->
<g id="edge1" class="edge">
<title>Node4&#45;&gt;Node5</title>
<path fill="none" stroke="#191970" d="M104.8699,-122.0864C128.6116,-132.5848 168.193,-149.6379 203,-162.5 208.1781,-164.4135 213.589,-166.324 219.0282,-168.1844"/>
<polygon fill="#191970" stroke="#191970" points="218.2114,-171.6022 228.8054,-171.4687 220.4405,-164.9665 218.2114,-171.6022"/>
</g>
<!-- Node6 -->
<g id="node3" class="node">
<title>Node6</title>
<g id="a_node3"><a xlink:href="class_chimera_t_k_1_1_entity_owner.html#a9ac0f0454393196b8abb3b2393ca69c5" target="_top" xlink:title="Get the name of the module instance. ">
<polygon fill="#ffffff" stroke="#000000" points="209,-122.5 209,-152.5 346,-152.5 346,-122.5 209,-122.5"/>
<text text-anchor="start" x="217" y="-140.5" font-family="Helvetica,sans-Serif" font-size="10.00" fill="#000000">ChimeraTK::EntityOwner</text>
<text text-anchor="middle" x="277.5" y="-129.5" font-family="Helvetica,sans-Serif" font-size="10.00" fill="#000000">::getName</text>
</a>
</g>
</g>
<!-- Node4&#45;&gt;Node6 -->
<g id="edge2" class="edge">
<title>Node4&#45;&gt;Node6</title>
<path fill="none" stroke="#191970" d="M157.3965,-122.0227C170.8784,-123.7601 184.9925,-125.5789 198.6126,-127.3341"/>
<polygon fill="#191970" stroke="#191970" points="198.5477,-130.8546 208.9131,-128.6615 199.4424,-123.912 198.5477,-130.8546"/>
</g>
<!-- Node8 -->
<g id="node5" class="node">
<title>Node8</title>
<g id="a_node5"><a xlink:href="class_chimera_t_k_1_1_application.html#a1d65a31621533cfc70a467e28f36fe62" target="_top" xlink:title="Return the root of the application model. ">
<polygon fill="#ffffff" stroke="#000000" points="212,-73.5 212,-103.5 343,-103.5 343,-73.5 212,-73.5"/>
<text text-anchor="start" x="220" y="-91.5" font-family="Helvetica,sans-Serif" font-size="10.00" fill="#000000">ChimeraTK::Application</text>
<text text-anchor="middle" x="277.5" y="-80.5" font-family="Helvetica,sans-Serif" font-size="10.00" fill="#000000">::getModel</text>
</a>
</g>
</g>
<!-- Node4&#45;&gt;Node8 -->
<g id="edge4" class="edge">
<title>Node4&#45;&gt;Node8</title>
<path fill="none" stroke="#191970" d="M160.4526,-102.9801C174.0249,-101.301 188.1447,-99.5543 201.6855,-97.8791"/>
<polygon fill="#191970" stroke="#191970" points="202.4141,-101.3157 211.9087,-96.6144 201.5546,-94.3687 202.4141,-101.3157"/>
</g>
<!-- Node9 -->
<g id="node6" class="node">
<title>Node9</title>
<g id="a_node6"><a xlink:href="class_chimera_t_k_1_1_model_1_1_proxy.html#a855db53096ed1b927644f8603faa23ed" target="_top" xlink:title="Traverse the model using the specified filter and call the visitor functor for each ModuleGroup...">
<polygon fill="#ffffff" stroke="#000000" points="207.5,-24.5 207.5,-54.5 347.5,-54.5 347.5,-24.5 207.5,-24.5"/>
<text text-anchor="start" x="215.5" y="-42.5" font-family="Helvetica,sans-Serif" font-size="10.00" fill="#000000">ChimeraTK::Model::Proxy</text>
<text text-anchor="middle" x="277.5" y="-31.5" font-family="Helvetica,sans-Serif" font-size="10.00" fill="#000000">::visit</text>
</a>
</g>
</g>
<!-- Node4&#45;&gt;Node9 -->
<g id="edge5" class="edge">
<title>Node4&#45;&gt;Node9</title>
<path fill="none" stroke="#191970" d="M106.2559,-102.9003C130.1862,-92.9136 169.0121,-77.0166 203,-64.5 208.9651,-62.3033 215.2267,-60.078 221.4793,-57.9074"/>
<polygon fill="#191970" stroke="#191970" points="222.931,-61.1096 231.2536,-54.5533 220.6589,-54.4886 222.931,-61.1096"/>
</g>
<!-- Node7 -->
<g id="node4" class="node">
<title>Node7</title>
<g id="a_node4"><a xlink:href="class_chimera_t_k_1_1_entity_owner.html#aa3fc963233d251705cd197ced1aa0876" target="_top" xlink:title="Get the fully qualified name of the module instance, i.e. ">
<polygon fill="#ffffff" stroke="#000000" points="405,-122.5 405,-152.5 542,-152.5 542,-122.5 405,-122.5"/>
<text text-anchor="start" x="413" y="-140.5" font-family="Helvetica,sans-Serif" font-size="10.00" fill="#000000">ChimeraTK::EntityOwner</text>
<text text-anchor="middle" x="473.5" y="-129.5" font-family="Helvetica,sans-Serif" font-size="10.00" fill="#000000">::getQualifiedName</text>
</a>
</g>
</g>
<!-- Node6&#45;&gt;Node7 -->
<g id="edge3" class="edge">
<title>Node6&#45;&gt;Node7</title>
<path fill="none" stroke="#191970" d="M346.0513,-137.5C361.7175,-137.5 378.4905,-137.5 394.5533,-137.5"/>
<polygon fill="#191970" stroke="#191970" points="394.9875,-141.0001 404.9874,-137.5 394.9874,-134.0001 394.9875,-141.0001"/>
</g>
<!-- Node10 -->
<g id="node7" class="node">
<title>Node10</title>
<g id="a_node7"><a xlink:href="namespace_chimera_t_k_1_1_model.html#a33fe56aeba75ad0b454d6eaf13d4aeb9" target="_top" xlink:title="ChimeraTK::Model::checkConfig\lValidity">
<polygon fill="#ffffff" stroke="#000000" points="388,-49.5 388,-79.5 559,-79.5 559,-49.5 388,-49.5"/>
<text text-anchor="start" x="396" y="-67.5" font-family="Helvetica,sans-Serif" font-size="10.00" fill="#000000">ChimeraTK::Model::checkConfig</text>
<text text-anchor="middle" x="473.5" y="-56.5" font-family="Helvetica,sans-Serif" font-size="10.00" fill="#000000">Validity</text>
</a>
</g>
</g>
<!-- Node9&#45;&gt;Node10 -->
<g id="edge6" class="edge">
<title>Node9&#45;&gt;Node10</title>
<path fill="none" stroke="#191970" d="M347.7069,-48.455C357.4281,-49.6949 367.547,-50.9856 377.6358,-52.2724"/>
<polygon fill="#191970" stroke="#191970" points="377.3361,-55.7625 387.6986,-53.5559 378.2219,-48.8187 377.3361,-55.7625"/>
</g>
<!-- Node11 -->
<g id="node8" class="node">
<title>Node11</title>
<g id="a_node8"><a xlink:href="namespace_chimera_t_k_1_1_model.html#ad2a9f17a3c4dece6e07ed9356770dfb8" target="_top" xlink:title="ChimeraTK::Model::getEdge\lFilter">
<polygon fill="#ffffff" stroke="#000000" points="397.5,-.5 397.5,-30.5 549.5,-30.5 549.5,-.5 397.5,-.5"/>
<text text-anchor="start" x="405.5" y="-18.5" font-family="Helvetica,sans-Serif" font-size="10.00" fill="#000000">ChimeraTK::Model::getEdge</text>
<text text-anchor="middle" x="473.5" y="-7.5" font-family="Helvetica,sans-Serif" font-size="10.00" fill="#000000">Filter</text>
</a>
</g>
</g>
<!-- Node9&#45;&gt;Node11 -->
<g id="edge7" class="edge">
<title>Node9&#45;&gt;Node11</title>
<path fill="none" stroke="#191970" d="M347.7069,-30.9032C360.5741,-29.3277 374.1381,-27.6668 387.4067,-26.042"/>
<polygon fill="#191970" stroke="#191970" points="387.9787,-29.4982 397.4791,-24.8087 387.1278,-22.5501 387.9787,-29.4982"/>
</g>
</g>
</svg>
