<?xml version="1.0" encoding="UTF-8" standalone="no"?>
<!DOCTYPE svg PUBLIC "-//W3C//DTD SVG 1.1//EN"
 "http://www.w3.org/Graphics/SVG/1.1/DTD/svg11.dtd">
<!-- Generated by graphviz version 2.40.1 (20161225.0304)
 -->
<!-- Title: ChimeraTK::EntityOwner::operator= Pages: 1 -->
<!--zoomable 355 -->
<svg id="main" version="1.1" xmlns="http://www.w3.org/2000/svg" xmlns:xlink="http://www.w3.org/1999/xlink" xml:space="preserve" onload="init(evt)">
<style type="text/css"><![CDATA[
.edge:hover path { stroke: red; }
.edge:hover polygon { stroke: red; fill: red; }
]]></style>
<script type="text/javascript"><![CDATA[
var edges = document.getElementsByTagName('g');
if (edges && edges.length) {
  for (var i=0;i<edges.length;i++) {
    if (edges[i].id.substr(0,4)=='edge') {
      edges[i].setAttribute('class','edge');
    }
  }
}
]]></script>
        <defs>
                <circle id="rim" cx="0" cy="0" r="7"/>
                <circle id="rim2" cx="0" cy="0" r="3.5"/>
                <g id="zoomPlus">
                        <use xlink:href="#rim" fill="#404040">
                                <set attributeName="fill" to="#808080" begin="zoomplus.mouseover" end="zoomplus.mouseout"/>
                        </use>
                        <path d="M-4,0h8M0,-4v8" fill="none" stroke="white" stroke-width="1.5" pointer-events="none"/>
                </g>
                <g id="zoomMin">
                        <use xlink:href="#rim" fill="#404040">
                                <set attributeName="fill" to="#808080" begin="zoomminus.mouseover" end="zoomminus.mouseout"/>
                        </use>
                        <path d="M-4,0h8" fill="none" stroke="white" stroke-width="1.5" pointer-events="none"/>
                </g>
                <g id="dirArrow">
                        <path fill="none" stroke="white" stroke-width="1.5" d="M0,-3.0v7 M-2.5,-0.5L0,-3.0L2.5,-0.5"/>
                </g>
               <g id="resetDef">
                       <use xlink:href="#rim2" fill="#404040">
                               <set attributeName="fill" to="#808080" begin="reset.mouseover" end="reset.mouseout"/>
                       </use>
               </g>
        </defs>

<script type="text/javascript">
var viewWidth = 1680;
var viewHeight = 355;
var sectionId = 'dynsection-50';
</script>
<script xlink:href="svgpan.js"/>
<svg id="graph" class="graph">
<g id="viewport">
<title>ChimeraTK::EntityOwner::operator=</title>
<polygon fill="#ffffff" stroke="transparent" points="-4,4 -4,-351 1676,-351 1676,4 -4,4"/>
<!-- Node1799 -->
<g id="node1" class="node">
<title>Node1799</title>
<polygon fill="#bfbfbf" stroke="#000000" points="0,-242.5 0,-272.5 137,-272.5 137,-242.5 0,-242.5"/>
<text text-anchor="start" x="8" y="-260.5" font-family="Helvetica,sans-Serif" font-size="10.00" fill="#000000">ChimeraTK::EntityOwner</text>
<text text-anchor="middle" x="68.5" y="-249.5" font-family="Helvetica,sans-Serif" font-size="10.00" fill="#000000">::operator=</text>
</g>
<!-- Node1800 -->
<g id="node2" class="node">
<title>Node1800</title>
<g id="a_node2"><a xlink:href="class_chimera_t_k_1_1_entity_owner.html#ad24ced0e968033d3a5f9ab70617ffe55" target="_top" xlink:title="Move constructor. ">
<polygon fill="#ffffff" stroke="#000000" points="173,-267.5 173,-297.5 310,-297.5 310,-267.5 173,-267.5"/>
<text text-anchor="start" x="181" y="-285.5" font-family="Helvetica,sans-Serif" font-size="10.00" fill="#000000">ChimeraTK::EntityOwner</text>
<text text-anchor="middle" x="241.5" y="-274.5" font-family="Helvetica,sans-Serif" font-size="10.00" fill="#000000">::EntityOwner</text>
</a>
</g>
</g>
<!-- Node1799&#45;&gt;Node1800 -->
<g id="edge1" class="edge">
<title>Node1799&#45;&gt;Node1800</title>
<path fill="none" stroke="#191970" d="M147.316,-268.8896C155.8439,-270.1219 164.4721,-271.3688 172.8657,-272.5817"/>
<polygon fill="#191970" stroke="#191970" points="147.7691,-265.4188 137.3713,-267.4525 146.7679,-272.3468 147.7691,-265.4188"/>
</g>
<!-- Node1801 -->
<g id="node3" class="node">
<title>Node1801</title>
<g id="a_node3"><a xlink:href="class_chimera_t_k_1_1_module.html#ab54889cfa1d50a40c5fd841e602c8cf9" target="_top" xlink:title="Move assignment operator. ">
<polygon fill="#ffffff" stroke="#000000" points="182.5,-218.5 182.5,-248.5 300.5,-248.5 300.5,-218.5 182.5,-218.5"/>
<text text-anchor="start" x="190.5" y="-236.5" font-family="Helvetica,sans-Serif" font-size="10.00" fill="#000000">ChimeraTK::Module::</text>
<text text-anchor="middle" x="241.5" y="-225.5" font-family="Helvetica,sans-Serif" font-size="10.00" fill="#000000">operator=</text>
</a>
</g>
</g>
<!-- Node1799&#45;&gt;Node1801 -->
<g id="edge2" class="edge">
<title>Node1799&#45;&gt;Node1801</title>
<path fill="none" stroke="#191970" d="M147.5807,-246.5293C159.2764,-244.9067 171.1543,-243.2589 182.3508,-241.7057"/>
<polygon fill="#191970" stroke="#191970" points="146.7954,-243.1046 137.3713,-247.9456 147.7574,-250.0382 146.7954,-243.1046"/>
</g>
<!-- Node1802 -->
<g id="node4" class="node">
<title>Node1802</title>
<g id="a_node4"><a xlink:href="class_chimera_t_k_1_1_control_system_module.html#aa32ce09ceede6cb5358e38b3ab24a567" target="_top" xlink:title="Move assignment. ">
<polygon fill="#ffffff" stroke="#000000" points="346,-316.5 346,-346.5 495,-346.5 495,-316.5 346,-316.5"/>
<text text-anchor="start" x="354" y="-334.5" font-family="Helvetica,sans-Serif" font-size="10.00" fill="#000000">ChimeraTK::ControlSystem</text>
<text text-anchor="middle" x="420.5" y="-323.5" font-family="Helvetica,sans-Serif" font-size="10.00" fill="#000000">Module::operator=</text>
</a>
</g>
</g>
<!-- Node1801&#45;&gt;Node1802 -->
<g id="edge3" class="edge">
<title>Node1801&#45;&gt;Node1802</title>
<path fill="none" stroke="#191970" d="M302.245,-253.3468C304.9456,-254.9449 307.5473,-256.6603 310,-258.5 331.618,-274.7152 324.0755,-291.7016 346,-307.5 350.7406,-310.916 355.9905,-313.8615 361.4449,-316.3983"/>
<polygon fill="#191970" stroke="#191970" points="303.8203,-250.2206 293.345,-248.6333 300.5442,-256.4066 303.8203,-250.2206"/>
</g>
<!-- Node1804 -->
<g id="node6" class="node">
<title>Node1804</title>
<g id="a_node6"><a xlink:href="class_chimera_t_k_1_1_device_module.html#a55c147ea372edb617417d8910eee7c0d" target="_top" xlink:title="Move assignment. ">
<polygon fill="#ffffff" stroke="#000000" points="347.5,-267.5 347.5,-297.5 493.5,-297.5 493.5,-267.5 347.5,-267.5"/>
<text text-anchor="start" x="355.5" y="-285.5" font-family="Helvetica,sans-Serif" font-size="10.00" fill="#000000">ChimeraTK::DeviceModule</text>
<text text-anchor="middle" x="420.5" y="-274.5" font-family="Helvetica,sans-Serif" font-size="10.00" fill="#000000">::operator=</text>
</a>
</g>
</g>
<!-- Node1801&#45;&gt;Node1804 -->
<g id="edge5" class="edge">
<title>Node1801&#45;&gt;Node1804</title>
<path fill="none" stroke="#191970" d="M306.3362,-251.2485C325.7363,-256.5591 346.8133,-262.3288 365.5157,-267.4484"/>
<polygon fill="#191970" stroke="#191970" points="307.2358,-247.866 296.6665,-248.6014 305.3875,-254.6176 307.2358,-247.866"/>
</g>
<!-- Node1805 -->
<g id="node7" class="node">
<title>Node1805</title>
<g id="a_node7"><a xlink:href="class_chimera_t_k_1_1_module.html#a1dc6d433b049aff1eb6e5dec06f0e5ca" target="_top" xlink:title="Move constructor. ">
<polygon fill="#ffffff" stroke="#000000" points="361.5,-218.5 361.5,-248.5 479.5,-248.5 479.5,-218.5 361.5,-218.5"/>
<text text-anchor="start" x="369.5" y="-236.5" font-family="Helvetica,sans-Serif" font-size="10.00" fill="#000000">ChimeraTK::Module::</text>
<text text-anchor="middle" x="420.5" y="-225.5" font-family="Helvetica,sans-Serif" font-size="10.00" fill="#000000">Module</text>
</a>
</g>
</g>
<!-- Node1801&#45;&gt;Node1805 -->
<g id="edge6" class="edge">
<title>Node1801&#45;&gt;Node1805</title>
<path fill="none" stroke="#191970" d="M310.8612,-233.5C327.5702,-233.5 345.267,-233.5 361.4547,-233.5"/>
<polygon fill="#191970" stroke="#191970" points="310.6074,-230.0001 300.6074,-233.5 310.6073,-237.0001 310.6074,-230.0001"/>
</g>
<!-- Node1806 -->
<g id="node8" class="node">
<title>Node1806</title>
<g id="a_node8"><a xlink:href="class_chimera_t_k_1_1_module_impl.html#a98b3d23e309e9cf1586414f344ae1f0c" target="_top" xlink:title="Move assignment operator. ">
<polygon fill="#ffffff" stroke="#000000" points="353.5,-169.5 353.5,-199.5 487.5,-199.5 487.5,-169.5 353.5,-169.5"/>
<text text-anchor="start" x="361.5" y="-187.5" font-family="Helvetica,sans-Serif" font-size="10.00" fill="#000000">ChimeraTK::ModuleImpl</text>
<text text-anchor="middle" x="420.5" y="-176.5" font-family="Helvetica,sans-Serif" font-size="10.00" fill="#000000">::operator=</text>
</a>
</g>
</g>
<!-- Node1801&#45;&gt;Node1806 -->
<g id="edge7" class="edge">
<title>Node1801&#45;&gt;Node1806</title>
<path fill="none" stroke="#191970" d="M306.3362,-215.7515C325.7363,-210.4409 346.8133,-204.6712 365.5157,-199.5516"/>
<polygon fill="#191970" stroke="#191970" points="305.3875,-212.3824 296.6665,-218.3986 307.2358,-219.134 305.3875,-212.3824"/>
</g>
<!-- Node1814 -->
<g id="node16" class="node">
<title>Node1814</title>
<g id="a_node16"><a xlink:href="class_chimera_t_k_1_1_virtual_module.html#a4a157143167e2c27e32401e4fe197991" target="_top" xlink:title="Assignment operator. ">
<polygon fill="#ffffff" stroke="#000000" points="348.5,-71.5 348.5,-101.5 492.5,-101.5 492.5,-71.5 348.5,-71.5"/>
<text text-anchor="start" x="356.5" y="-89.5" font-family="Helvetica,sans-Serif" font-size="10.00" fill="#000000">ChimeraTK::VirtualModule</text>
<text text-anchor="middle" x="420.5" y="-78.5" font-family="Helvetica,sans-Serif" font-size="10.00" fill="#000000">::operator=</text>
</a>
</g>
</g>
<!-- Node1801&#45;&gt;Node1814 -->
<g id="edge15" class="edge">
<title>Node1801&#45;&gt;Node1814</title>
<path fill="none" stroke="#191970" d="M267.788,-211.9115C304.505,-181.7584 370.2176,-127.7934 402.1186,-101.5953"/>
<polygon fill="#191970" stroke="#191970" points="265.4887,-209.2708 259.9819,-218.3221 269.9313,-214.6804 265.4887,-209.2708"/>
</g>
<!-- Node1803 -->
<g id="node5" class="node">
<title>Node1803</title>
<g id="a_node5"><a xlink:href="class_chimera_t_k_1_1_control_system_module.html#a40fe0e15a957bd05d88ab4a29380b897" target="_top" xlink:title="Move operation with the move constructor. ">
<polygon fill="#ffffff" stroke="#000000" points="532,-316.5 532,-346.5 697,-346.5 697,-316.5 532,-316.5"/>
<text text-anchor="start" x="540" y="-334.5" font-family="Helvetica,sans-Serif" font-size="10.00" fill="#000000">ChimeraTK::ControlSystem</text>
<text text-anchor="middle" x="614.5" y="-323.5" font-family="Helvetica,sans-Serif" font-size="10.00" fill="#000000">Module::ControlSystemModule</text>
</a>
</g>
</g>
<!-- Node1802&#45;&gt;Node1803 -->
<g id="edge4" class="edge">
<title>Node1802&#45;&gt;Node1803</title>
<path fill="none" stroke="#191970" d="M505.4107,-331.5C514.1517,-331.5 523.0258,-331.5 531.743,-331.5"/>
<polygon fill="#191970" stroke="#191970" points="505.228,-328.0001 495.228,-331.5 505.2279,-335.0001 505.228,-328.0001"/>
</g>
<!-- Node1807 -->
<g id="node9" class="node">
<title>Node1807</title>
<g id="a_node9"><a xlink:href="class_chimera_t_k_1_1_application_module.html#a89e4a79b16f64de9d986a9a7ce6ff706" target="_top" xlink:title="Move assignment. ">
<polygon fill="#ffffff" stroke="#000000" points="531,-267.5 531,-297.5 698,-297.5 698,-267.5 531,-267.5"/>
<text text-anchor="start" x="539" y="-285.5" font-family="Helvetica,sans-Serif" font-size="10.00" fill="#000000">ChimeraTK::ApplicationModule</text>
<text text-anchor="middle" x="614.5" y="-274.5" font-family="Helvetica,sans-Serif" font-size="10.00" fill="#000000">::operator=</text>
</a>
</g>
</g>
<!-- Node1806&#45;&gt;Node1807 -->
<g id="edge8" class="edge">
<title>Node1806&#45;&gt;Node1807</title>
<path fill="none" stroke="#191970" d="M486.6419,-204.1261C489.5515,-205.7817 492.3552,-207.5697 495,-209.5 516.8284,-225.4309 508.8274,-243.0518 531,-258.5 535.9504,-261.949 541.3923,-264.9061 547.0513,-267.4409"/>
<polygon fill="#191970" stroke="#191970" points="488.1483,-200.9656 477.6488,-199.5473 484.9722,-207.2036 488.1483,-200.9656"/>
</g>
<!-- Node1809 -->
<g id="node11" class="node">
<title>Node1809</title>
<g id="a_node11"><a xlink:href="class_chimera_t_k_1_1_module_group.html#a32ebf0a95f5750a6608da22ca7788076" target="_top" xlink:title="Move assignment. ">
<polygon fill="#ffffff" stroke="#000000" points="544,-218.5 544,-248.5 685,-248.5 685,-218.5 544,-218.5"/>
<text text-anchor="start" x="552" y="-236.5" font-family="Helvetica,sans-Serif" font-size="10.00" fill="#000000">ChimeraTK::ModuleGroup</text>
<text text-anchor="middle" x="614.5" y="-225.5" font-family="Helvetica,sans-Serif" font-size="10.00" fill="#000000">::operator=</text>
</a>
</g>
</g>
<!-- Node1806&#45;&gt;Node1809 -->
<g id="edge10" class="edge">
<title>Node1806&#45;&gt;Node1809</title>
<path fill="none" stroke="#191970" d="M489.9829,-202.0498C511.2865,-207.4306 534.5207,-213.299 555.0878,-218.4938"/>
<polygon fill="#191970" stroke="#191970" points="490.5775,-198.5901 480.0248,-199.5346 488.8632,-205.377 490.5775,-198.5901"/>
</g>
<!-- Node1811 -->
<g id="node13" class="node">
<title>Node1811</title>
<g id="a_node13"><a xlink:href="class_chimera_t_k_1_1_module_impl.html#a6261404cd0905f82b8b5d0696dc642c2" target="_top" xlink:title="Move constructor. ">
<polygon fill="#ffffff" stroke="#000000" points="547.5,-169.5 547.5,-199.5 681.5,-199.5 681.5,-169.5 547.5,-169.5"/>
<text text-anchor="start" x="555.5" y="-187.5" font-family="Helvetica,sans-Serif" font-size="10.00" fill="#000000">ChimeraTK::ModuleImpl</text>
<text text-anchor="middle" x="614.5" y="-176.5" font-family="Helvetica,sans-Serif" font-size="10.00" fill="#000000">::ModuleImpl</text>
</a>
</g>
</g>
<!-- Node1806&#45;&gt;Node1811 -->
<g id="edge12" class="edge">
<title>Node1806&#45;&gt;Node1811</title>
<path fill="none" stroke="#191970" d="M497.6699,-184.5C514.1407,-184.5 531.4084,-184.5 547.4619,-184.5"/>
<polygon fill="#191970" stroke="#191970" points="497.5355,-181.0001 487.5354,-184.5 497.5354,-188.0001 497.5355,-181.0001"/>
</g>
<!-- Node1812 -->
<g id="node14" class="node">
<title>Node1812</title>
<g id="a_node14"><a xlink:href="class_chimera_t_k_1_1_variable_group.html#a7c20c8063f265659b745783e8a818d0c" target="_top" xlink:title="Move assignment. ">
<polygon fill="#ffffff" stroke="#000000" points="541.5,-120.5 541.5,-150.5 687.5,-150.5 687.5,-120.5 541.5,-120.5"/>
<text text-anchor="start" x="549.5" y="-138.5" font-family="Helvetica,sans-Serif" font-size="10.00" fill="#000000">ChimeraTK::VariableGroup</text>
<text text-anchor="middle" x="614.5" y="-127.5" font-family="Helvetica,sans-Serif" font-size="10.00" fill="#000000">::operator=</text>
</a>
</g>
</g>
<!-- Node1806&#45;&gt;Node1812 -->
<g id="edge13" class="edge">
<title>Node1806&#45;&gt;Node1812</title>
<path fill="none" stroke="#191970" d="M489.9829,-166.9502C511.2865,-161.5694 534.5207,-155.701 555.0878,-150.5062"/>
<polygon fill="#191970" stroke="#191970" points="488.8632,-163.623 480.0248,-169.4654 490.5775,-170.4099 488.8632,-163.623"/>
</g>
<!-- Node1808 -->
<g id="node10" class="node">
<title>Node1808</title>
<g id="a_node10"><a xlink:href="class_chimera_t_k_1_1_application_module.html#aa5d5e870c6960faa2215d762f1385397" target="_top" xlink:title="Move operation with the move constructor. ">
<polygon fill="#ffffff" stroke="#000000" points="734,-267.5 734,-297.5 901,-297.5 901,-267.5 734,-267.5"/>
<text text-anchor="start" x="742" y="-285.5" font-family="Helvetica,sans-Serif" font-size="10.00" fill="#000000">ChimeraTK::ApplicationModule</text>
<text text-anchor="middle" x="817.5" y="-274.5" font-family="Helvetica,sans-Serif" font-size="10.00" fill="#000000">::ApplicationModule</text>
</a>
</g>
</g>
<!-- Node1807&#45;&gt;Node1808 -->
<g id="edge9" class="edge">
<title>Node1807&#45;&gt;Node1808</title>
<path fill="none" stroke="#191970" d="M708.2558,-282.5C716.8295,-282.5 725.4773,-282.5 733.9526,-282.5"/>
<polygon fill="#191970" stroke="#191970" points="708.2399,-279.0001 698.2399,-282.5 708.2398,-286.0001 708.2399,-279.0001"/>
</g>
<!-- Node1810 -->
<g id="node12" class="node">
<title>Node1810</title>
<g id="a_node12"><a xlink:href="class_chimera_t_k_1_1_module_group.html#abb7a64f322c83669229b8cf17416e871" target="_top" xlink:title="Move constructor. ">
<polygon fill="#ffffff" stroke="#000000" points="747,-218.5 747,-248.5 888,-248.5 888,-218.5 747,-218.5"/>
<text text-anchor="start" x="755" y="-236.5" font-family="Helvetica,sans-Serif" font-size="10.00" fill="#000000">ChimeraTK::ModuleGroup</text>
<text text-anchor="middle" x="817.5" y="-225.5" font-family="Helvetica,sans-Serif" font-size="10.00" fill="#000000">::ModuleGroup</text>
</a>
</g>
</g>
<!-- Node1809&#45;&gt;Node1810 -->
<g id="edge11" class="edge">
<title>Node1809&#45;&gt;Node1810</title>
<path fill="none" stroke="#191970" d="M695.6176,-233.5C712.5172,-233.5 730.203,-233.5 746.6953,-233.5"/>
<polygon fill="#191970" stroke="#191970" points="695.2146,-230.0001 685.2146,-233.5 695.2145,-237.0001 695.2146,-230.0001"/>
</g>
<!-- Node1813 -->
<g id="node15" class="node">
<title>Node1813</title>
<g id="a_node15"><a xlink:href="class_chimera_t_k_1_1_variable_group.html#a84e9cbfc08fb6bdd8407324840a38928" target="_top" xlink:title="Move constructor. ">
<polygon fill="#ffffff" stroke="#000000" points="744.5,-120.5 744.5,-150.5 890.5,-150.5 890.5,-120.5 744.5,-120.5"/>
<text text-anchor="start" x="752.5" y="-138.5" font-family="Helvetica,sans-Serif" font-size="10.00" fill="#000000">ChimeraTK::VariableGroup</text>
<text text-anchor="middle" x="817.5" y="-127.5" font-family="Helvetica,sans-Serif" font-size="10.00" fill="#000000">::VariableGroup</text>
</a>
</g>
</g>
<!-- Node1812&#45;&gt;Node1813 -->
<g id="edge14" class="edge">
<title>Node1812&#45;&gt;Node1813</title>
<path fill="none" stroke="#191970" d="M697.6061,-135.5C713.1382,-135.5 729.2649,-135.5 744.465,-135.5"/>
<polygon fill="#191970" stroke="#191970" points="697.5009,-132.0001 687.5009,-135.5 697.5008,-139.0001 697.5009,-132.0001"/>
</g>
<!-- Node1815 -->
<g id="node17" class="node">
<title>Node1815</title>
<g id="a_node17"><a xlink:href="class_chimera_t_k_1_1_virtual_module.html#a2d37b8fe9e613c2574af9078a73fd53d" target="_top" xlink:title="Constructor. ">
<polygon fill="#ffffff" stroke="#000000" points="542.5,-71.5 542.5,-101.5 686.5,-101.5 686.5,-71.5 542.5,-71.5"/>
<text text-anchor="start" x="550.5" y="-89.5" font-family="Helvetica,sans-Serif" font-size="10.00" fill="#000000">ChimeraTK::VirtualModule</text>
<text text-anchor="middle" x="614.5" y="-78.5" font-family="Helvetica,sans-Serif" font-size="10.00" fill="#000000">::VirtualModule</text>
</a>
</g>
</g>
<!-- Node1814&#45;&gt;Node1815 -->
<g id="edge16" class="edge">
<title>Node1814&#45;&gt;Node1815</title>
<path fill="none" stroke="#191970" d="M503.077,-79.8168C516.0858,-79.6955 529.4486,-79.7394 542.2012,-79.9484"/>
<polygon fill="#191970" stroke="#191970" points="502.6927,-76.3213 492.7384,-79.9494 502.7825,-83.3207 502.6927,-76.3213"/>
</g>
<!-- Node1815&#45;&gt;Node1814 -->
<g id="edge17" class="edge">
<title>Node1815&#45;&gt;Node1814</title>
<path fill="none" stroke="#191970" d="M531.8615,-93.1838C518.8515,-93.3045 505.4891,-93.2601 492.7384,-93.0506"/>
<polygon fill="#191970" stroke="#191970" points="532.2468,-96.6793 542.2012,-93.0516 532.1573,-89.6798 532.2468,-96.6793"/>
</g>
<!-- Node1816 -->
<g id="node18" class="node">
<title>Node1816</title>
<g id="a_node18"><a xlink:href="class_chimera_t_k_1_1_virtual_module.html#a00cabd2cb202e7dc2a2daba1a5db58bd" target="_top" xlink:title="Return the submodule with the given name. ">
<polygon fill="#ffffff" stroke="#000000" points="745.5,-71.5 745.5,-101.5 889.5,-101.5 889.5,-71.5 745.5,-71.5"/>
<text text-anchor="start" x="753.5" y="-89.5" font-family="Helvetica,sans-Serif" font-size="10.00" fill="#000000">ChimeraTK::VirtualModule</text>
<text text-anchor="middle" x="817.5" y="-78.5" font-family="Helvetica,sans-Serif" font-size="10.00" fill="#000000">::createAndGetSubmodule</text>
</a>
</g>
</g>
<!-- Node1815&#45;&gt;Node1816 -->
<g id="edge18" class="edge">
<title>Node1815&#45;&gt;Node1816</title>
<path fill="none" stroke="#191970" d="M697.0294,-79.8559C713.0057,-79.6756 729.6322,-79.7255 745.2487,-80.0055"/>
<polygon fill="#191970" stroke="#191970" points="696.5896,-76.3619 686.6418,-80.0075 696.6918,-83.3611 696.5896,-76.3619"/>
</g>
<!-- Node1816&#45;&gt;Node1815 -->
<g id="edge19" class="edge">
<title>Node1816&#45;&gt;Node1815</title>
<path fill="none" stroke="#191970" d="M734.8585,-93.1454C718.8792,-93.3246 702.2536,-93.2736 686.6418,-92.9925"/>
<polygon fill="#191970" stroke="#191970" points="735.3006,-96.6394 745.2487,-92.9945 735.1989,-89.6401 735.3006,-96.6394"/>
</g>
<!-- Node1817 -->
<g id="node19" class="node">
<title>Node1817</title>
<g id="a_node19"><a xlink:href="class_chimera_t_k_1_1_virtual_module.html#a28338588d4dd3ad1deac932ae7b70a72" target="_top" xlink:title="Like createAndGetSubmodule(), but recursively create a hierarchy of submodules separated by &quot;/&quot; in th...">
<polygon fill="#ffffff" stroke="#000000" points="937,-49.5 937,-79.5 1128,-79.5 1128,-49.5 937,-49.5"/>
<text text-anchor="start" x="945" y="-67.5" font-family="Helvetica,sans-Serif" font-size="10.00" fill="#000000">ChimeraTK::VirtualModule</text>
<text text-anchor="middle" x="1032.5" y="-56.5" font-family="Helvetica,sans-Serif" font-size="10.00" fill="#000000">::createAndGetSubmoduleRecursive</text>
</a>
</g>
</g>
<!-- Node1816&#45;&gt;Node1817 -->
<g id="edge20" class="edge">
<title>Node1816&#45;&gt;Node1817</title>
<path fill="none" stroke="#191970" d="M899.7531,-78.0834C911.8775,-76.8428 924.4561,-75.5557 936.8234,-74.2902"/>
<polygon fill="#191970" stroke="#191970" points="899.2817,-74.6133 889.69,-79.1131 899.9944,-81.5769 899.2817,-74.6133"/>
</g>
<!-- Node1817&#45;&gt;Node1815 -->
<g id="edge21" class="edge">
<title>Node1817&#45;&gt;Node1815</title>
<path fill="none" stroke="#191970" d="M926.6586,-57.6307C869.4659,-55.379 797.7058,-54.9076 734,-61.5 714.3927,-63.529 693.2606,-67.3831 674.2991,-71.4686"/>
<polygon fill="#191970" stroke="#191970" points="926.6605,-61.1337 936.7979,-58.0543 926.9528,-54.1398 926.6605,-61.1337"/>
</g>
<!-- Node1817&#45;&gt;Node1817 -->
<g id="edge27" class="edge">
<title>Node1817&#45;&gt;Node1817</title>
<path fill="none" stroke="#191970" d="M996.2517,-89.9579C1000.7506,-94.679 1012.8334,-98 1032.5,-98 1064.7734,-98 1076.6238,-89.0566 1068.0512,-79.659"/>
<polygon fill="#191970" stroke="#191970" points="999.7654,-89.8726 996.9488,-79.659 992.7813,-89.3998 999.7654,-89.8726"/>
</g>
<!-- Node1818 -->
<g id="node20" class="node">
<title>Node1818</title>
<g id="a_node20"><a xlink:href="class_chimera_t_k_1_1_device_module.html#a984e0e97ec34d3f8f05f1eebb28e3acc" target="_top" xlink:title="ChimeraTK::DeviceModule\l::virtualiseFromCatalog">
<polygon fill="#ffffff" stroke="#000000" points="1164,-49.5 1164,-79.5 1310,-79.5 1310,-49.5 1164,-49.5"/>
<text text-anchor="start" x="1172" y="-67.5" font-family="Helvetica,sans-Serif" font-size="10.00" fill="#000000">ChimeraTK::DeviceModule</text>
<text text-anchor="middle" x="1237" y="-56.5" font-family="Helvetica,sans-Serif" font-size="10.00" fill="#000000">::virtualiseFromCatalog</text>
</a>
</g>
</g>
<!-- Node1817&#45;&gt;Node1818 -->
<g id="edge22" class="edge">
<title>Node1817&#45;&gt;Node1818</title>
<path fill="none" stroke="#191970" d="M1138.2643,-64.5C1146.8679,-64.5 1155.4383,-64.5 1163.7315,-64.5"/>
<polygon fill="#191970" stroke="#191970" points="1138.1638,-61.0001 1128.1637,-64.5 1138.1637,-68.0001 1138.1638,-61.0001"/>
</g>
<!-- Node1819 -->
<g id="node21" class="node">
<title>Node1819</title>
<g id="a_node21"><a xlink:href="class_chimera_t_k_1_1_micro_d_a_q.html#a1aecb7863d8b114c12fd1b1f5bfebc89" target="_top" xlink:title="Overload that calls virtualiseFromCatalog. ">
<polygon fill="#ffffff" stroke="#000000" points="1356.5,-98.5 1356.5,-128.5 1481.5,-128.5 1481.5,-98.5 1356.5,-98.5"/>
<text text-anchor="start" x="1364.5" y="-116.5" font-family="Helvetica,sans-Serif" font-size="10.00" fill="#000000">ChimeraTK::MicroDAQ</text>
<text text-anchor="middle" x="1419" y="-105.5" font-family="Helvetica,sans-Serif" font-size="10.00" fill="#000000">::addSource</text>
</a>
</g>
</g>
<!-- Node1818&#45;&gt;Node1819 -->
<g id="edge23" class="edge">
<title>Node1818&#45;&gt;Node1819</title>
<path fill="none" stroke="#191970" d="M1302.9229,-82.2485C1322.6481,-87.5591 1344.0783,-93.3288 1363.0941,-98.4484"/>
<polygon fill="#191970" stroke="#191970" points="1303.6572,-78.8216 1293.0911,-79.6014 1301.8373,-85.5809 1303.6572,-78.8216"/>
</g>
<!-- Node1820 -->
<g id="node22" class="node">
<title>Node1820</title>
<g id="a_node22"><a xlink:href="struct_chimera_t_k_1_1history_1_1_server_history.html#aaafb16ad53c653e3b502680e964dc517" target="_top" xlink:title="Overload that calls virtualiseFromCatalog. ">
<polygon fill="#ffffff" stroke="#000000" points="1346,-49.5 1346,-79.5 1492,-79.5 1492,-49.5 1346,-49.5"/>
<text text-anchor="start" x="1354" y="-67.5" font-family="Helvetica,sans-Serif" font-size="10.00" fill="#000000">ChimeraTK::history</text>
<text text-anchor="middle" x="1419" y="-56.5" font-family="Helvetica,sans-Serif" font-size="10.00" fill="#000000">::ServerHistory::addSource</text>
</a>
</g>
</g>
<!-- Node1818&#45;&gt;Node1820 -->
<g id="edge24" class="edge">
<title>Node1818&#45;&gt;Node1820</title>
<path fill="none" stroke="#191970" d="M1320.516,-64.5C1328.9925,-64.5 1337.5562,-64.5 1345.9103,-64.5"/>
<polygon fill="#191970" stroke="#191970" points="1320.2397,-61.0001 1310.2397,-64.5 1320.2396,-68.0001 1320.2397,-61.0001"/>
</g>
<!-- Node1821 -->
<g id="node23" class="node">
<title>Node1821</title>
<g id="a_node23"><a xlink:href="class_chimera_t_k_1_1_device_module.html#a9f8221a93d4b964e0daf9b00e81b450b" target="_top" xlink:title="Connect the entire module into another module. ">
<polygon fill="#ffffff" stroke="#000000" points="1346,-.5 1346,-30.5 1492,-30.5 1492,-.5 1346,-.5"/>
<text text-anchor="start" x="1354" y="-18.5" font-family="Helvetica,sans-Serif" font-size="10.00" fill="#000000">ChimeraTK::DeviceModule</text>
<text text-anchor="middle" x="1419" y="-7.5" font-family="Helvetica,sans-Serif" font-size="10.00" fill="#000000">::connectTo</text>
</a>
</g>
</g>
<!-- Node1818&#45;&gt;Node1821 -->
<g id="edge25" class="edge">
<title>Node1818&#45;&gt;Node1821</title>
<path fill="none" stroke="#191970" d="M1302.9229,-46.7515C1322.6481,-41.4409 1344.0783,-35.6712 1363.0941,-30.5516"/>
<polygon fill="#191970" stroke="#191970" points="1301.8373,-43.4191 1293.0911,-49.3986 1303.6572,-50.1784 1301.8373,-43.4191"/>
</g>
<!-- Node1822 -->
<g id="node24" class="node">
<title>Node1822</title>
<g id="a_node24"><a xlink:href="struct_server.html#ad44a7669c1ed714994987d5fe366f247" target="_top" xlink:title="Define the connections between process variables. ">
<polygon fill="#ffffff" stroke="#000000" points="1528,-6 1528,-25 1672,-25 1672,-6 1528,-6"/>
<text text-anchor="middle" x="1600" y="-13" font-family="Helvetica,sans-Serif" font-size="10.00" fill="#000000">Server::defineConnections</text>
</a>
</g>
</g>
<!-- Node1821&#45;&gt;Node1822 -->
<g id="edge26" class="edge">
<title>Node1821&#45;&gt;Node1822</title>
<path fill="none" stroke="#191970" d="M1502.1102,-15.5C1510.6899,-15.5 1519.3588,-15.5 1527.8057,-15.5"/>
<polygon fill="#191970" stroke="#191970" points="1502.0979,-12.0001 1492.0979,-15.5 1502.0979,-19.0001 1502.0979,-12.0001"/>
</g>
</g>
</svg>
        <g id="navigator" transform="translate(0 0)" fill="#404254">
                <rect fill="#f2f5e9" fill-opacity="0.5" stroke="#606060" stroke-width=".5" x="0" y="0" width="60" height="60"/>
                <use id="zoomplus" xlink:href="#zoomPlus" x="17" y="9" onmousedown="handleZoom(evt,'in')"/>
                <use id="zoomminus" xlink:href="#zoomMin" x="42" y="9" onmousedown="handleZoom(evt,'out')"/>
                <use id="reset" xlink:href="#resetDef" x="30" y="36" onmousedown="handleReset()"/>
                <g id="arrowUp" xlink:href="#dirArrow" transform="translate(30 24)" onmousedown="handlePan(0,-1)">
                  <use xlink:href="#rim" fill="#404040">
                        <set attributeName="fill" to="#808080" begin="arrowUp.mouseover" end="arrowUp.mouseout"/>
                  </use>
                  <path fill="none" stroke="white" stroke-width="1.5" d="M0,-3.0v7 M-2.5,-0.5L0,-3.0L2.5,-0.5"/>
                </g>
                <g id="arrowRight" xlink:href="#dirArrow" transform="rotate(90) translate(36 -43)" onmousedown="handlePan(1,0)">
                  <use xlink:href="#rim" fill="#404040">
                        <set attributeName="fill" to="#808080" begin="arrowRight.mouseover" end="arrowRight.mouseout"/>
                  </use>
                  <path fill="none" stroke="white" stroke-width="1.5" d="M0,-3.0v7 M-2.5,-0.5L0,-3.0L2.5,-0.5"/>
                </g>
                <g id="arrowDown" xlink:href="#dirArrow" transform="rotate(180) translate(-30 -48)" onmousedown="handlePan(0,1)">
                  <use xlink:href="#rim" fill="#404040">
                        <set attributeName="fill" to="#808080" begin="arrowDown.mouseover" end="arrowDown.mouseout"/>
                  </use>
                  <path fill="none" stroke="white" stroke-width="1.5" d="M0,-3.0v7 M-2.5,-0.5L0,-3.0L2.5,-0.5"/>
                </g>
                <g id="arrowLeft" xlink:href="#dirArrow" transform="rotate(270) translate(-36 17)" onmousedown="handlePan(-1,0)">
                  <use xlink:href="#rim" fill="#404040">
                        <set attributeName="fill" to="#808080" begin="arrowLeft.mouseover" end="arrowLeft.mouseout"/>
                  </use>
                  <path fill="none" stroke="white" stroke-width="1.5" d="M0,-3.0v7 M-2.5,-0.5L0,-3.0L2.5,-0.5"/>
                </g>
        </g>
        <svg viewBox="0 0 15 15" width="100%" height="30px" preserveAspectRatio="xMaxYMin meet">
         <g id="arrow_out" transform="scale(0.3 0.3)">
          <a xlink:href="class_chimera_t_k_1_1_entity_owner_a13f14868e28539a79bdaa6949fe190f8_icgraph_org.svg" target="_base">
           <rect id="button" ry="5" rx="5" y="6" x="6" height="38" width="38"
                fill="#f2f5e9" fill-opacity="0.5" stroke="#606060" stroke-width="1.0"/>
           <path id="arrow"
             d="M 11.500037,31.436501 C 11.940474,20.09759 22.043105,11.32322 32.158766,21.979434 L 37.068811,17.246167 C 37.068811,17.246167 37.088388,32 37.088388,32 L 22.160133,31.978069 C 22.160133,31.978069 26.997745,27.140456 26.997745,27.140456 C 18.528582,18.264221 13.291696,25.230495 11.500037,31.436501 z"
             style="fill:#404040;"/>
          </a>
         </g>
        </svg>
</svg>
