<?xml version="1.0" encoding="UTF-8" standalone="no"?>
<!DOCTYPE svg PUBLIC "-//W3C//DTD SVG 1.1//EN"
 "http://www.w3.org/Graphics/SVG/1.1/DTD/svg11.dtd">
<!-- Generated by graphviz version 2.40.1 (20161225.0304)
 -->
<!-- Title: ChimeraTK::Module::writeAll Pages: 1 -->
<svg width="735pt" height="616pt"
 viewBox="0.00 0.00 735.00 616.00" xmlns="http://www.w3.org/2000/svg" xmlns:xlink="http://www.w3.org/1999/xlink">
<g id="graph0" class="graph" transform="scale(1 1) rotate(0) translate(4 612)">
<title>ChimeraTK::Module::writeAll</title>
<polygon fill="#ffffff" stroke="transparent" points="-4,4 -4,-612 731,-612 731,4 -4,4"/>
<!-- Node1251 -->
<g id="node1" class="node">
<title>Node1251</title>
<polygon fill="#bfbfbf" stroke="#000000" points="0,-261 0,-291 118,-291 118,-261 0,-261"/>
<text text-anchor="start" x="8" y="-279" font-family="Helvetica,sans-Serif" font-size="10.00" fill="#000000">ChimeraTK::Module::</text>
<text text-anchor="middle" x="59" y="-268" font-family="Helvetica,sans-Serif" font-size="10.00" fill="#000000">writeAll</text>
</g>
<!-- Node1252 -->
<g id="node2" class="node">
<title>Node1252</title>
<g id="a_node2"><a xlink:href="struct_controller.html#ab39304e11bf3c606f96d08287af4bdc7" target="_top" xlink:title="To be implemented by the user: function called in a separate thread executing the main loop of the mo...">
<polygon fill="#ffffff" stroke="#000000" points="181,-588.5 181,-607.5 300,-607.5 300,-588.5 181,-588.5"/>
<text text-anchor="middle" x="240.5" y="-595.5" font-family="Helvetica,sans-Serif" font-size="10.00" fill="#000000">Controller::mainLoop</text>
</a>
</g>
</g>
<!-- Node1251&#45;&gt;Node1252 -->
<g id="edge1" class="edge">
<title>Node1251&#45;&gt;Node1252</title>
<path fill="none" stroke="#191970" d="M63.5734,-301.2884C75.9534,-366.9721 112.0263,-540.5512 154,-579 161.4829,-585.8545 170.8568,-590.4375 180.6493,-593.4646"/>
<polygon fill="#191970" stroke="#191970" points="66.9973,-300.5559 61.7292,-291.3636 60.1151,-301.8348 66.9973,-300.5559"/>
</g>
<!-- Node1253 -->
<g id="node3" class="node">
<title>Node1253</title>
<g id="a_node3"><a xlink:href="struct_automation.html#a98e7f8e8132e573677b8862924bb403a" target="_top" xlink:title="To be implemented by the user: function called in a separate thread executing the main loop of the mo...">
<polygon fill="#ffffff" stroke="#000000" points="176.5,-550.5 176.5,-569.5 304.5,-569.5 304.5,-550.5 176.5,-550.5"/>
<text text-anchor="middle" x="240.5" y="-557.5" font-family="Helvetica,sans-Serif" font-size="10.00" fill="#000000">Automation::mainLoop</text>
</a>
</g>
</g>
<!-- Node1251&#45;&gt;Node1253 -->
<g id="edge2" class="edge">
<title>Node1251&#45;&gt;Node1253</title>
<path fill="none" stroke="#191970" d="M60.2635,-301.2393C64.3395,-354.1958 81.5368,-477.2653 154,-541 160.4653,-546.6865 168.2411,-550.7943 176.4448,-553.742"/>
<polygon fill="#191970" stroke="#191970" points="63.7414,-300.7921 59.5777,-291.0497 56.7572,-301.2622 63.7414,-300.7921"/>
</g>
<!-- Node1254 -->
<g id="node4" class="node">
<title>Node1254</title>
<g id="a_node4"><a xlink:href="class_chimera_t_k_1_1_module.html#ae3497a487a36f2e1a51bc01592aabf5b" target="_top" xlink:title="Terminate the module. ">
<polygon fill="#ffffff" stroke="#000000" points="181.5,-501 181.5,-531 299.5,-531 299.5,-501 181.5,-501"/>
<text text-anchor="start" x="189.5" y="-519" font-family="Helvetica,sans-Serif" font-size="10.00" fill="#000000">ChimeraTK::Module::</text>
<text text-anchor="middle" x="240.5" y="-508" font-family="Helvetica,sans-Serif" font-size="10.00" fill="#000000">terminate</text>
</a>
</g>
</g>
<!-- Node1251&#45;&gt;Node1254 -->
<g id="edge3" class="edge">
<title>Node1251&#45;&gt;Node1254</title>
<path fill="none" stroke="#191970" d="M62.9122,-301.2893C71.2491,-346.4428 95.0563,-440.9716 154,-492 161.7766,-498.7323 171.2928,-503.5885 181.1348,-507.0884"/>
<polygon fill="#191970" stroke="#191970" points="66.3158,-300.432 61.1545,-291.1794 59.4192,-301.6311 66.3158,-300.432"/>
</g>
<!-- Node1257 -->
<g id="node7" class="node">
<title>Node1257</title>
<g id="a_node7"><a xlink:href="struct_chimera_t_k_1_1_data_loss_counter.html#a42b52a6a2b9349604cf5be6ce65824da" target="_top" xlink:title="To be implemented by the user: function called in a separate thread executing the main loop of the mo...">
<polygon fill="#ffffff" stroke="#000000" points="160.5,-452 160.5,-482 320.5,-482 320.5,-452 160.5,-452"/>
<text text-anchor="start" x="168.5" y="-470" font-family="Helvetica,sans-Serif" font-size="10.00" fill="#000000">ChimeraTK::DataLossCounter</text>
<text text-anchor="middle" x="240.5" y="-459" font-family="Helvetica,sans-Serif" font-size="10.00" fill="#000000">::mainLoop</text>
</a>
</g>
</g>
<!-- Node1251&#45;&gt;Node1257 -->
<g id="edge6" class="edge">
<title>Node1251&#45;&gt;Node1257</title>
<path fill="none" stroke="#191970" d="M66.3987,-300.9714C78.5726,-337.6782 106.3515,-405.8578 154,-443 158.4249,-446.4493 163.3159,-449.403 168.4544,-451.9324"/>
<polygon fill="#191970" stroke="#191970" points="69.6178,-299.5457 63.2456,-291.0813 62.9485,-301.672 69.6178,-299.5457"/>
</g>
<!-- Node1258 -->
<g id="node8" class="node">
<title>Node1258</title>
<g id="a_node8"><a xlink:href="struct_chimera_t_k_1_1_read_split_array_module.html#a28f56d69ba05e66e0461396d3c5d74a9" target="_top" xlink:title="To be implemented by the user: function called in a separate thread executing the main loop of the mo...">
<polygon fill="#ffffff" stroke="#000000" points="166,-403 166,-433 315,-433 315,-403 166,-403"/>
<text text-anchor="start" x="174" y="-421" font-family="Helvetica,sans-Serif" font-size="10.00" fill="#000000">ChimeraTK::ReadSplitArray</text>
<text text-anchor="middle" x="240.5" y="-410" font-family="Helvetica,sans-Serif" font-size="10.00" fill="#000000">Module::mainLoop</text>
</a>
</g>
</g>
<!-- Node1251&#45;&gt;Node1258 -->
<g id="edge7" class="edge">
<title>Node1251&#45;&gt;Node1258</title>
<path fill="none" stroke="#191970" d="M72.0783,-299.9841C87.9609,-326.8602 117.244,-369.8237 154,-394 159.2082,-397.4257 164.9007,-400.3668 170.7989,-402.8912"/>
<polygon fill="#191970" stroke="#191970" points="75.0489,-298.129 67.029,-291.2058 68.9811,-301.6192 75.0489,-298.129"/>
</g>
<!-- Node1259 -->
<g id="node9" class="node">
<title>Node1259</title>
<g id="a_node9"><a xlink:href="struct_chimera_t_k_1_1_status_with_message.html#ac2fc29383de2ccd91d29d10c8dc15825" target="_top" xlink:title="to be use only for status != OK ">
<polygon fill="#ffffff" stroke="#000000" points="154,-305 154,-335 327,-335 327,-305 154,-305"/>
<text text-anchor="start" x="162" y="-323" font-family="Helvetica,sans-Serif" font-size="10.00" fill="#000000">ChimeraTK::StatusWithMessage</text>
<text text-anchor="middle" x="240.5" y="-312" font-family="Helvetica,sans-Serif" font-size="10.00" fill="#000000">::write</text>
</a>
</g>
</g>
<!-- Node1251&#45;&gt;Node1259 -->
<g id="edge8" class="edge">
<title>Node1251&#45;&gt;Node1259</title>
<path fill="none" stroke="#191970" d="M128.3259,-292.8063C144.866,-296.816 162.4131,-301.0698 178.5947,-304.9926"/>
<polygon fill="#191970" stroke="#191970" points="128.7219,-289.301 118.1787,-290.3464 127.0726,-296.1039 128.7219,-289.301"/>
</g>
<!-- Node1264 -->
<g id="node14" class="node">
<title>Node1264</title>
<g id="a_node14"><a xlink:href="struct_chimera_t_k_1_1_status_with_message.html#a130a76dc4b5917131d460e05063555cb" target="_top" xlink:title="ChimeraTK::StatusWithMessage\l::writeOk">
<polygon fill="#ffffff" stroke="#000000" points="154,-354 154,-384 327,-384 327,-354 154,-354"/>
<text text-anchor="start" x="162" y="-372" font-family="Helvetica,sans-Serif" font-size="10.00" fill="#000000">ChimeraTK::StatusWithMessage</text>
<text text-anchor="middle" x="240.5" y="-361" font-family="Helvetica,sans-Serif" font-size="10.00" fill="#000000">::writeOk</text>
</a>
</g>
</g>
<!-- Node1251&#45;&gt;Node1264 -->
<g id="edge13" class="edge">
<title>Node1251&#45;&gt;Node1264</title>
<path fill="none" stroke="#191970" d="M83.8173,-297.8694C102.1136,-312.9936 128.2067,-332.5592 154,-345 161.0186,-348.3853 168.5953,-351.3637 176.2443,-353.965"/>
<polygon fill="#191970" stroke="#191970" points="85.8916,-295.0404 75.9886,-291.2745 81.3817,-300.394 85.8916,-295.0404"/>
</g>
<!-- Node1265 -->
<g id="node15" class="node">
<title>Node1265</title>
<g id="a_node15"><a xlink:href="struct_test_module_base.html#ac48ef2191b5ceb3e495db3f5378155ad" target="_top" xlink:title="To be implemented by the user: function called in a separate thread executing the main loop of the mo...">
<polygon fill="#ffffff" stroke="#000000" points="166,-266.5 166,-285.5 315,-285.5 315,-266.5 166,-266.5"/>
<text text-anchor="middle" x="240.5" y="-273.5" font-family="Helvetica,sans-Serif" font-size="10.00" fill="#000000">TestModuleBase::mainLoop</text>
</a>
</g>
</g>
<!-- Node1251&#45;&gt;Node1265 -->
<g id="edge16" class="edge">
<title>Node1251&#45;&gt;Node1265</title>
<path fill="none" stroke="#191970" d="M128.3309,-276C140.5972,-276 153.4172,-276 165.8232,-276"/>
<polygon fill="#191970" stroke="#191970" points="128.1788,-272.5001 118.1787,-276 128.1787,-279.5001 128.1788,-272.5001"/>
</g>
<!-- Node1266 -->
<g id="node16" class="node">
<title>Node1266</title>
<g id="a_node16"><a xlink:href="struct_module_a.html#a0c93491a7b687d3d9d03fcdf55ecbd46" target="_top" xlink:title="Prepare the execution of the module. ">
<polygon fill="#ffffff" stroke="#000000" points="189.5,-228.5 189.5,-247.5 291.5,-247.5 291.5,-228.5 189.5,-228.5"/>
<text text-anchor="middle" x="240.5" y="-235.5" font-family="Helvetica,sans-Serif" font-size="10.00" fill="#000000">ModuleA::prepare</text>
</a>
</g>
</g>
<!-- Node1251&#45;&gt;Node1266 -->
<g id="edge17" class="edge">
<title>Node1251&#45;&gt;Node1266</title>
<path fill="none" stroke="#191970" d="M127.9819,-261.5575C150.3852,-256.867 174.6694,-251.7827 194.9236,-247.5422"/>
<polygon fill="#191970" stroke="#191970" points="127.2493,-258.1349 118.1787,-263.61 128.6838,-264.9864 127.2493,-258.1349"/>
</g>
<!-- Node1267 -->
<g id="node17" class="node">
<title>Node1267</title>
<g id="a_node17"><a xlink:href="struct_module_c.html#a5004f74ebcf867a484712ec01e2b620f" target="_top" xlink:title="To be implemented by the user: function called in a separate thread executing the main loop of the mo...">
<polygon fill="#ffffff" stroke="#000000" points="184,-190.5 184,-209.5 297,-209.5 297,-190.5 184,-190.5"/>
<text text-anchor="middle" x="240.5" y="-197.5" font-family="Helvetica,sans-Serif" font-size="10.00" fill="#000000">ModuleC::mainLoop</text>
</a>
</g>
</g>
<!-- Node1251&#45;&gt;Node1267 -->
<g id="edge18" class="edge">
<title>Node1251&#45;&gt;Node1267</title>
<path fill="none" stroke="#191970" d="M88.239,-255.054C106.3969,-242.9301 130.6522,-228.28 154,-219 163.573,-215.195 174.0602,-212.0803 184.3272,-209.5551"/>
<polygon fill="#191970" stroke="#191970" points="86.1422,-252.2474 79.8456,-260.7682 90.0815,-258.0337 86.1422,-252.2474"/>
</g>
<!-- Node1268 -->
<g id="node18" class="node">
<title>Node1268</title>
<g id="a_node18"><a xlink:href="struct_test_module_base2.html#a442bdcf34ffbbf129a0fd7fd040613f7" target="_top" xlink:title="To be implemented by the user: function called in a separate thread executing the main loop of the mo...">
<polygon fill="#ffffff" stroke="#000000" points="163,-152.5 163,-171.5 318,-171.5 318,-152.5 163,-152.5"/>
<text text-anchor="middle" x="240.5" y="-159.5" font-family="Helvetica,sans-Serif" font-size="10.00" fill="#000000">TestModuleBase2::mainLoop</text>
</a>
</g>
</g>
<!-- Node1251&#45;&gt;Node1268 -->
<g id="edge19" class="edge">
<title>Node1251&#45;&gt;Node1268</title>
<path fill="none" stroke="#191970" d="M75.8867,-252.6823C93.0535,-230.7442 121.6679,-198.6971 154,-181 161.1482,-177.0874 169.0442,-173.9805 177.0719,-171.5134"/>
<polygon fill="#191970" stroke="#191970" points="72.9559,-250.7535 69.6736,-260.8271 78.5215,-254.9991 72.9559,-250.7535"/>
</g>
<!-- Node1269 -->
<g id="node19" class="node">
<title>Node1269</title>
<g id="a_node19"><a xlink:href="struct_a_a.html#a2e5a355fb824c815af695f301ccd24a7" target="_top" xlink:title="Prepare the execution of the module. ">
<polygon fill="#ffffff" stroke="#000000" points="203.5,-114.5 203.5,-133.5 277.5,-133.5 277.5,-114.5 203.5,-114.5"/>
<text text-anchor="middle" x="240.5" y="-121.5" font-family="Helvetica,sans-Serif" font-size="10.00" fill="#000000">AA::prepare</text>
</a>
</g>
</g>
<!-- Node1251&#45;&gt;Node1269 -->
<g id="edge20" class="edge">
<title>Node1251&#45;&gt;Node1269</title>
<path fill="none" stroke="#191970" d="M69.6889,-251.3872C84.216,-220.9771 113.1477,-169.9631 154,-143 168.5005,-133.4294 187.0534,-128.6059 203.2559,-126.2034"/>
<polygon fill="#191970" stroke="#191970" points="66.3357,-250.3 65.3181,-260.8458 72.6901,-253.2364 66.3357,-250.3"/>
</g>
<!-- Node1270 -->
<g id="node20" class="node">
<title>Node1270</title>
<g id="a_node20"><a xlink:href="struct_g_g.html#a7b50d7ce12f36d93e0865cc17c3072b3" target="_top" xlink:title="Prepare the execution of the module. ">
<polygon fill="#ffffff" stroke="#000000" points="203,-76.5 203,-95.5 278,-95.5 278,-76.5 203,-76.5"/>
<text text-anchor="middle" x="240.5" y="-83.5" font-family="Helvetica,sans-Serif" font-size="10.00" fill="#000000">GG::prepare</text>
</a>
</g>
</g>
<!-- Node1251&#45;&gt;Node1270 -->
<g id="edge21" class="edge">
<title>Node1251&#45;&gt;Node1270</title>
<path fill="none" stroke="#191970" d="M65.6433,-251.1533C77.0798,-213.401 104.2,-142.0751 154,-105 167.9362,-94.6248 186.4229,-89.707 202.7276,-87.4503"/>
<polygon fill="#191970" stroke="#191970" points="62.2537,-250.2755 62.8277,-260.8547 68.9763,-252.2266 62.2537,-250.2755"/>
</g>
<!-- Node1271 -->
<g id="node21" class="node">
<title>Node1271</title>
<g id="a_node21"><a xlink:href="test_connect_to_8cc.html#a08399741d25e3a09169c4d2aa997dc57" target="_top" xlink:title="BOOST_AUTO_TEST_CASE">
<polygon fill="#ffffff" stroke="#000000" points="169,-38.5 169,-57.5 312,-57.5 312,-38.5 169,-38.5"/>
<text text-anchor="middle" x="240.5" y="-45.5" font-family="Helvetica,sans-Serif" font-size="10.00" fill="#000000">BOOST_AUTO_TEST_CASE</text>
</a>
</g>
</g>
<!-- Node1251&#45;&gt;Node1271 -->
<g id="edge22" class="edge">
<title>Node1251&#45;&gt;Node1271</title>
<path fill="none" stroke="#191970" d="M62.9677,-250.8779C71.3508,-206.5363 95.1721,-114.5907 154,-67 158.6619,-63.2286 163.9109,-60.1653 169.46,-57.682"/>
<polygon fill="#191970" stroke="#191970" points="59.5041,-250.3652 61.198,-260.8237 66.3958,-251.5915 59.5041,-250.3652"/>
</g>
<!-- Node1272 -->
<g id="node22" class="node">
<title>Node1272</title>
<g id="a_node22"><a xlink:href="struct_test_module1.html#a3b83a953299e9702871d8e091451d988" target="_top" xlink:title="To be implemented by the user: function called in a separate thread executing the main loop of the mo...">
<polygon fill="#ffffff" stroke="#000000" points="175,-.5 175,-19.5 306,-19.5 306,-.5 175,-.5"/>
<text text-anchor="middle" x="240.5" y="-7.5" font-family="Helvetica,sans-Serif" font-size="10.00" fill="#000000">TestModule1::mainLoop</text>
</a>
</g>
</g>
<!-- Node1251&#45;&gt;Node1272 -->
<g id="edge23" class="edge">
<title>Node1251&#45;&gt;Node1272</title>
<path fill="none" stroke="#191970" d="M61.0225,-250.6957C66.4626,-200.348 85.9904,-87.4469 154,-29 160.0637,-23.7889 167.2329,-19.9109 174.8085,-17.0395"/>
<polygon fill="#191970" stroke="#191970" points="57.532,-250.428 60.0389,-260.722 64.4986,-251.1115 57.532,-250.428"/>
</g>
<!-- Node1255 -->
<g id="node5" class="node">
<title>Node1255</title>
<g id="a_node5"><a xlink:href="classlogging_1_1_logging_module.html#ae7bc13f9895059d84f4432f6f7b9c925" target="_top" xlink:title="logging::LoggingModule\l::getNumberOfModules">
<polygon fill="#ffffff" stroke="#000000" points="377.5,-501 377.5,-531 509.5,-531 509.5,-501 377.5,-501"/>
<text text-anchor="start" x="385.5" y="-519" font-family="Helvetica,sans-Serif" font-size="10.00" fill="#000000">logging::LoggingModule</text>
<text text-anchor="middle" x="443.5" y="-508" font-family="Helvetica,sans-Serif" font-size="10.00" fill="#000000">::getNumberOfModules</text>
</a>
</g>
</g>
<!-- Node1254&#45;&gt;Node1255 -->
<g id="edge4" class="edge">
<title>Node1254&#45;&gt;Node1255</title>
<path fill="none" stroke="#191970" d="M309.9484,-516C331.7768,-516 355.8092,-516 377.3988,-516"/>
<polygon fill="#191970" stroke="#191970" points="309.7617,-512.5001 299.7617,-516 309.7617,-519.5001 309.7617,-512.5001"/>
</g>
<!-- Node1256 -->
<g id="node6" class="node">
<title>Node1256</title>
<g id="a_node6"><a xlink:href="test_logging_8cc.html#adffa4bad642a20e9a865372d80a36173" target="_top" xlink:title="BOOST_AUTO_TEST_CASE">
<polygon fill="#ffffff" stroke="#000000" points="572,-506.5 572,-525.5 715,-525.5 715,-506.5 572,-506.5"/>
<text text-anchor="middle" x="643.5" y="-513.5" font-family="Helvetica,sans-Serif" font-size="10.00" fill="#000000">BOOST_AUTO_TEST_CASE</text>
</a>
</g>
</g>
<!-- Node1255&#45;&gt;Node1256 -->
<g id="edge5" class="edge">
<title>Node1255&#45;&gt;Node1256</title>
<path fill="none" stroke="#191970" d="M519.9704,-516C536.9489,-516 554.8868,-516 571.6717,-516"/>
<polygon fill="#191970" stroke="#191970" points="519.5418,-512.5001 509.5418,-516 519.5417,-519.5001 519.5418,-512.5001"/>
</g>
<!-- Node1260 -->
<g id="node10" class="node">
<title>Node1260</title>
<g id="a_node10"><a xlink:href="struct_chimera_t_k_1_1_status_aggregator.html#a49a9371926f9b187b0652438d43f0ef7" target="_top" xlink:title="To be implemented by the user: function called in a separate thread executing the main loop of the mo...">
<polygon fill="#ffffff" stroke="#000000" points="363,-354 363,-384 524,-384 524,-354 363,-354"/>
<text text-anchor="start" x="371" y="-372" font-family="Helvetica,sans-Serif" font-size="10.00" fill="#000000">ChimeraTK::StatusAggregator</text>
<text text-anchor="middle" x="443.5" y="-361" font-family="Helvetica,sans-Serif" font-size="10.00" fill="#000000">::mainLoop</text>
</a>
</g>
</g>
<!-- Node1259&#45;&gt;Node1260 -->
<g id="edge9" class="edge">
<title>Node1259&#45;&gt;Node1260</title>
<path fill="none" stroke="#191970" d="M312.6016,-337.4038C335.058,-342.8243 359.6155,-348.752 381.3315,-353.9938"/>
<polygon fill="#191970" stroke="#191970" points="313.3284,-333.9788 302.7863,-335.0346 311.6858,-340.7834 313.3284,-333.9788"/>
</g>
<!-- Node1261 -->
<g id="node11" class="node">
<title>Node1261</title>
<g id="a_node11"><a xlink:href="class_chimera_t_k_1_1_device_module.html#ab388c8a6e152379643f96c8fb945d3a3" target="_top" xlink:title="This functions tries to open the device and set the deviceError. ">
<polygon fill="#ffffff" stroke="#000000" points="370.5,-305 370.5,-335 516.5,-335 516.5,-305 370.5,-305"/>
<text text-anchor="start" x="378.5" y="-323" font-family="Helvetica,sans-Serif" font-size="10.00" fill="#000000">ChimeraTK::DeviceModule</text>
<text text-anchor="middle" x="443.5" y="-312" font-family="Helvetica,sans-Serif" font-size="10.00" fill="#000000">::handleException</text>
</a>
</g>
</g>
<!-- Node1259&#45;&gt;Node1261 -->
<g id="edge10" class="edge">
<title>Node1259&#45;&gt;Node1261</title>
<path fill="none" stroke="#191970" d="M337.3079,-320C348.3764,-320 359.5194,-320 370.209,-320"/>
<polygon fill="#191970" stroke="#191970" points="337.1791,-316.5001 327.1791,-320 337.1791,-323.5001 337.1791,-316.5001"/>
</g>
<!-- Node1263 -->
<g id="node13" class="node">
<title>Node1263</title>
<g id="a_node13"><a xlink:href="class_chimera_t_k_1_1_device_module.html#a2d094fb10f12c3d89b2088023c169b7e" target="_top" xlink:title="Prepare the execution of the module. ">
<polygon fill="#ffffff" stroke="#000000" points="370.5,-256 370.5,-286 516.5,-286 516.5,-256 370.5,-256"/>
<text text-anchor="start" x="378.5" y="-274" font-family="Helvetica,sans-Serif" font-size="10.00" fill="#000000">ChimeraTK::DeviceModule</text>
<text text-anchor="middle" x="443.5" y="-263" font-family="Helvetica,sans-Serif" font-size="10.00" fill="#000000">::prepare</text>
</a>
</g>
</g>
<!-- Node1259&#45;&gt;Node1263 -->
<g id="edge12" class="edge">
<title>Node1259&#45;&gt;Node1263</title>
<path fill="none" stroke="#191970" d="M312.6016,-302.5962C335.058,-297.1757 359.6155,-291.248 381.3315,-286.0062"/>
<polygon fill="#191970" stroke="#191970" points="311.6858,-299.2166 302.7863,-304.9654 313.3284,-306.0212 311.6858,-299.2166"/>
</g>
<!-- Node1262 -->
<g id="node12" class="node">
<title>Node1262</title>
<g id="a_node12"><a xlink:href="class_chimera_t_k_1_1_device_module.html#a71dea3b0240cf2eccbae77ab7f2c4a73" target="_top" xlink:title="Execute the module. ">
<polygon fill="#ffffff" stroke="#000000" points="560,-310.5 560,-329.5 727,-329.5 727,-310.5 560,-310.5"/>
<text text-anchor="middle" x="643.5" y="-317.5" font-family="Helvetica,sans-Serif" font-size="10.00" fill="#000000">ChimeraTK::DeviceModule::run</text>
</a>
</g>
</g>
<!-- Node1261&#45;&gt;Node1262 -->
<g id="edge11" class="edge">
<title>Node1261&#45;&gt;Node1262</title>
<path fill="none" stroke="#191970" d="M526.8867,-320C537.7688,-320 548.9209,-320 559.808,-320"/>
<polygon fill="#191970" stroke="#191970" points="526.5536,-316.5001 516.5536,-320 526.5535,-323.5001 526.5536,-316.5001"/>
</g>
<!-- Node1264&#45;&gt;Node1260 -->
<g id="edge14" class="edge">
<title>Node1264&#45;&gt;Node1260</title>
<path fill="none" stroke="#191970" d="M337.2315,-369C345.8251,-369 354.4644,-369 362.9023,-369"/>
<polygon fill="#191970" stroke="#191970" points="337.1791,-365.5001 327.1791,-369 337.1791,-372.5001 337.1791,-365.5001"/>
</g>
<!-- Node1264&#45;&gt;Node1261 -->
<g id="edge15" class="edge">
<title>Node1264&#45;&gt;Node1261</title>
<path fill="none" stroke="#191970" d="M312.6016,-351.5962C335.058,-346.1757 359.6155,-340.248 381.3315,-335.0062"/>
<polygon fill="#191970" stroke="#191970" points="311.6858,-348.2166 302.7863,-353.9654 313.3284,-355.0212 311.6858,-348.2166"/>
</g>
</g>
</svg>
