<?xml version="1.0" encoding="UTF-8" standalone="no"?>
<!DOCTYPE svg PUBLIC "-//W3C//DTD SVG 1.1//EN"
 "http://www.w3.org/Graphics/SVG/1.1/DTD/svg11.dtd">
<!-- Generated by graphviz version 2.40.1 (20161225.0304)
 -->
<!-- Title: ChimeraTK::EntityOwner::flatten Pages: 1 -->
<!--zoomable 265 -->
<svg id="main" version="1.1" xmlns="http://www.w3.org/2000/svg" xmlns:xlink="http://www.w3.org/1999/xlink" xml:space="preserve" onload="init(evt)">
<style type="text/css"><![CDATA[
.edge:hover path { stroke: red; }
.edge:hover polygon { stroke: red; fill: red; }
]]></style>
<script type="text/javascript"><![CDATA[
var edges = document.getElementsByTagName('g');
if (edges && edges.length) {
  for (var i=0;i<edges.length;i++) {
    if (edges[i].id.substr(0,4)=='edge') {
      edges[i].setAttribute('class','edge');
    }
  }
}
]]></script>
        <defs>
                <circle id="rim" cx="0" cy="0" r="7"/>
                <circle id="rim2" cx="0" cy="0" r="3.5"/>
                <g id="zoomPlus">
                        <use xlink:href="#rim" fill="#404040">
                                <set attributeName="fill" to="#808080" begin="zoomplus.mouseover" end="zoomplus.mouseout"/>
                        </use>
                        <path d="M-4,0h8M0,-4v8" fill="none" stroke="white" stroke-width="1.5" pointer-events="none"/>
                </g>
                <g id="zoomMin">
                        <use xlink:href="#rim" fill="#404040">
                                <set attributeName="fill" to="#808080" begin="zoomminus.mouseover" end="zoomminus.mouseout"/>
                        </use>
                        <path d="M-4,0h8" fill="none" stroke="white" stroke-width="1.5" pointer-events="none"/>
                </g>
                <g id="dirArrow">
                        <path fill="none" stroke="white" stroke-width="1.5" d="M0,-3.0v7 M-2.5,-0.5L0,-3.0L2.5,-0.5"/>
                </g>
               <g id="resetDef">
                       <use xlink:href="#rim2" fill="#404040">
                               <set attributeName="fill" to="#808080" begin="reset.mouseover" end="reset.mouseout"/>
                       </use>
               </g>
        </defs>

<script type="text/javascript">
var viewWidth = 932;
var viewHeight = 265;
var sectionId = 'dynsection-24';
</script>
<script xlink:href="svgpan.js"/>
<svg id="graph" class="graph">
<g id="viewport">
<title>ChimeraTK::EntityOwner::flatten</title>
<polygon fill="#ffffff" stroke="transparent" points="-4,4 -4,-260.5 928,-260.5 928,4 -4,4"/>
<!-- Node902 -->
<g id="node1" class="node">
<title>Node902</title>
<polygon fill="#bfbfbf" stroke="#000000" points="0,-44.5 0,-74.5 137,-74.5 137,-44.5 0,-44.5"/>
<text text-anchor="start" x="8" y="-62.5" font-family="Helvetica,sans-Serif" font-size="10.00" fill="#000000">ChimeraTK::EntityOwner</text>
<text text-anchor="middle" x="68.5" y="-51.5" font-family="Helvetica,sans-Serif" font-size="10.00" fill="#000000">::flatten</text>
</g>
<!-- Node903 -->
<g id="node2" class="node">
<title>Node903</title>
<g id="a_node2"><a xlink:href="class_chimera_t_k_1_1_entity_owner.html#a864d33dc0620ce84905a0e0415b20856" target="_top" xlink:title="Returns the hierarchy modifier of this entity. ">
<polygon fill="#ffffff" stroke="#000000" points="177.5,-88.5 177.5,-118.5 314.5,-118.5 314.5,-88.5 177.5,-88.5"/>
<text text-anchor="start" x="185.5" y="-106.5" font-family="Helvetica,sans-Serif" font-size="10.00" fill="#000000">ChimeraTK::EntityOwner</text>
<text text-anchor="middle" x="246" y="-95.5" font-family="Helvetica,sans-Serif" font-size="10.00" fill="#000000">::getHierarchyModifier</text>
</a>
</g>
</g>
<!-- Node902&#45;&gt;Node903 -->
<g id="edge1" class="edge">
<title>Node902&#45;&gt;Node903</title>
<path fill="none" stroke="#191970" d="M139.0379,-76.9855C154.3748,-80.7873 170.4699,-84.777 185.3829,-88.4738"/>
<polygon fill="#191970" stroke="#191970" points="139.6374,-73.5282 129.089,-74.5192 137.9531,-80.3225 139.6374,-73.5282"/>
</g>
<!-- Node912 -->
<g id="node11" class="node">
<title>Node912</title>
<g id="a_node11"><a xlink:href="test_modules_8cc.html#a48ec797b160ba091bb194a0882fa1623" target="_top" xlink:title="BOOST_AUTO_TEST_CASE">
<polygon fill="#ffffff" stroke="#000000" points="174.5,-50 174.5,-69 317.5,-69 317.5,-50 174.5,-50"/>
<text text-anchor="middle" x="246" y="-57" font-family="Helvetica,sans-Serif" font-size="10.00" fill="#000000">BOOST_AUTO_TEST_CASE</text>
</a>
</g>
</g>
<!-- Node902&#45;&gt;Node912 -->
<g id="edge10" class="edge">
<title>Node902&#45;&gt;Node912</title>
<path fill="none" stroke="#191970" d="M147.2292,-59.5C156.2482,-59.5 165.407,-59.5 174.3266,-59.5"/>
<polygon fill="#191970" stroke="#191970" points="147.1262,-56.0001 137.1261,-59.5 147.1261,-63.0001 147.1262,-56.0001"/>
</g>
<!-- Node913 -->
<g id="node12" class="node">
<title>Node913</title>
<g id="a_node12"><a xlink:href="struct_dummy_application.html#ad0420e423c4b93768823b4eeaa692e15" target="_top" xlink:title="Define the connections between process variables. ">
<polygon fill="#ffffff" stroke="#000000" points="173,-.5 173,-30.5 319,-30.5 319,-.5 173,-.5"/>
<text text-anchor="start" x="181" y="-18.5" font-family="Helvetica,sans-Serif" font-size="10.00" fill="#000000">DummyApplication::define</text>
<text text-anchor="middle" x="246" y="-7.5" font-family="Helvetica,sans-Serif" font-size="10.00" fill="#000000">Connections</text>
</a>
</g>
</g>
<!-- Node902&#45;&gt;Node913 -->
<g id="edge11" class="edge">
<title>Node902&#45;&gt;Node913</title>
<path fill="none" stroke="#191970" d="M139.0379,-42.0145C154.3748,-38.2127 170.4699,-34.223 185.3829,-30.5262"/>
<polygon fill="#191970" stroke="#191970" points="137.9531,-38.6775 129.089,-44.4808 139.6374,-45.4718 137.9531,-38.6775"/>
</g>
<!-- Node904 -->
<g id="node3" class="node">
<title>Node904</title>
<g id="a_node3"><a xlink:href="class_chimera_t_k_1_1_module.html#a210eb585677baa3fc7865c52ac7abb51" target="_top" xlink:title="ChimeraTK::Module::\lgetVirtualQualifiedName">
<polygon fill="#ffffff" stroke="#000000" points="355,-88.5 355,-118.5 492,-118.5 492,-88.5 355,-88.5"/>
<text text-anchor="start" x="363" y="-106.5" font-family="Helvetica,sans-Serif" font-size="10.00" fill="#000000">ChimeraTK::Module::</text>
<text text-anchor="middle" x="423.5" y="-95.5" font-family="Helvetica,sans-Serif" font-size="10.00" fill="#000000">getVirtualQualifiedName</text>
</a>
</g>
</g>
<!-- Node903&#45;&gt;Node904 -->
<g id="edge2" class="edge">
<title>Node903&#45;&gt;Node904</title>
<path fill="none" stroke="#191970" d="M324.9154,-103.5C334.8675,-103.5 344.9865,-103.5 354.7637,-103.5"/>
<polygon fill="#191970" stroke="#191970" points="324.6262,-100.0001 314.6261,-103.5 324.6261,-107.0001 324.6262,-100.0001"/>
</g>
<!-- Node905 -->
<g id="node4" class="node">
<title>Node905</title>
<g id="a_node4"><a xlink:href="class_chimera_t_k_1_1_module.html#a09462e535a0c30344012fc821d148f8e" target="_top" xlink:title="Get the fully qualified name of the module instance, i.e. ">
<polygon fill="#ffffff" stroke="#000000" points="540.5,-110.5 540.5,-140.5 658.5,-140.5 658.5,-110.5 540.5,-110.5"/>
<text text-anchor="start" x="548.5" y="-128.5" font-family="Helvetica,sans-Serif" font-size="10.00" fill="#000000">ChimeraTK::Module::</text>
<text text-anchor="middle" x="599.5" y="-117.5" font-family="Helvetica,sans-Serif" font-size="10.00" fill="#000000">getQualifiedName</text>
</a>
</g>
</g>
<!-- Node904&#45;&gt;Node905 -->
<g id="edge3" class="edge">
<title>Node904&#45;&gt;Node905</title>
<path fill="none" stroke="#191970" d="M502.2266,-113.3408C515.0125,-114.9391 528.0624,-116.5703 540.2805,-118.0976"/>
<polygon fill="#191970" stroke="#191970" points="502.4071,-109.8362 492.0502,-112.0688 501.5388,-116.7822 502.4071,-109.8362"/>
</g>
<!-- Node911 -->
<g id="node10" class="node">
<title>Node911</title>
<g id="a_node10"><a xlink:href="test_virtual_hierarchy_8cc.html#a434b3eb5f39ada96ff93893567a94b4e" target="_top" xlink:title="BOOST_AUTO_TEST_CASE">
<polygon fill="#ffffff" stroke="#000000" points="528,-72 528,-91 671,-91 671,-72 528,-72"/>
<text text-anchor="middle" x="599.5" y="-79" font-family="Helvetica,sans-Serif" font-size="10.00" fill="#000000">BOOST_AUTO_TEST_CASE</text>
</a>
</g>
</g>
<!-- Node904&#45;&gt;Node911 -->
<g id="edge9" class="edge">
<title>Node904&#45;&gt;Node911</title>
<path fill="none" stroke="#191970" d="M502.0816,-93.6773C510.6916,-92.601 519.4233,-91.5096 527.9418,-90.4448"/>
<polygon fill="#191970" stroke="#191970" points="501.5388,-90.2178 492.0502,-94.9312 502.4071,-97.1638 501.5388,-90.2178"/>
</g>
<!-- Node906 -->
<g id="node5" class="node">
<title>Node906</title>
<g id="a_node5"><a xlink:href="class_chimera_t_k_1_1_inversion_of_control_accessor.html#aedaf4ad5d8378ab6c5619eb31b611a98" target="_top" xlink:title="ChimeraTK::InversionOfControl\lAccessor\&lt; ArrayAccessor\&lt;\l int32_t \&gt; \&gt;::InversionOfControlAccessor">
<polygon fill="#ffffff" stroke="#000000" points="707,-215 707,-256 924,-256 924,-215 707,-215"/>
<text text-anchor="start" x="715" y="-244" font-family="Helvetica,sans-Serif" font-size="10.00" fill="#000000">ChimeraTK::InversionOfControl</text>
<text text-anchor="start" x="715" y="-233" font-family="Helvetica,sans-Serif" font-size="10.00" fill="#000000">Accessor&lt; ArrayAccessor&lt;</text>
<text text-anchor="middle" x="815.5" y="-222" font-family="Helvetica,sans-Serif" font-size="10.00" fill="#000000"> int32_t &gt; &gt;::InversionOfControlAccessor</text>
</a>
</g>
</g>
<!-- Node905&#45;&gt;Node906 -->
<g id="edge4" class="edge">
<title>Node905&#45;&gt;Node906</title>
<path fill="none" stroke="#191970" d="M623.3723,-147.3771C644.0987,-165.3147 675.6343,-190.1639 707,-205.5 714.1107,-208.9767 721.6871,-212.1043 729.4039,-214.906"/>
<polygon fill="#191970" stroke="#191970" points="625.5344,-144.6175 615.7155,-140.6376 620.9094,-149.872 625.5344,-144.6175"/>
</g>
<!-- Node907 -->
<g id="node6" class="node">
<title>Node907</title>
<g id="a_node6"><a xlink:href="struct_chimera_t_k_1_1_status_aggregator.html#a49a9371926f9b187b0652438d43f0ef7" target="_top" xlink:title="To be implemented by the user: function called in a separate thread executing the main loop of the mo...">
<polygon fill="#ffffff" stroke="#000000" points="735,-165.5 735,-195.5 896,-195.5 896,-165.5 735,-165.5"/>
<text text-anchor="start" x="743" y="-183.5" font-family="Helvetica,sans-Serif" font-size="10.00" fill="#000000">ChimeraTK::StatusAggregator</text>
<text text-anchor="middle" x="815.5" y="-172.5" font-family="Helvetica,sans-Serif" font-size="10.00" fill="#000000">::mainLoop</text>
</a>
</g>
</g>
<!-- Node905&#45;&gt;Node907 -->
<g id="edge5" class="edge">
<title>Node905&#45;&gt;Node907</title>
<path fill="none" stroke="#191970" d="M661.2419,-143.251C676.1855,-147.4031 692.1359,-151.7156 707,-155.5 720.2066,-158.8624 734.3679,-162.2689 747.9565,-165.4401"/>
<polygon fill="#191970" stroke="#191970" points="662.1619,-139.874 651.5888,-140.5528 660.2774,-146.6156 662.1619,-139.874"/>
</g>
<!-- Node908 -->
<g id="node7" class="node">
<title>Node908</title>
<g id="a_node7"><a xlink:href="struct_chimera_t_k_1_1_application_1_1_circular_dependency_detector.html#a2d14ce71ee85b9dc94c514ca26467bd9" target="_top" xlink:title="Function executed in thread. ">
<polygon fill="#ffffff" stroke="#000000" points="734,-105 734,-146 897,-146 897,-105 734,-105"/>
<text text-anchor="start" x="742" y="-134" font-family="Helvetica,sans-Serif" font-size="10.00" fill="#000000">ChimeraTK::Application</text>
<text text-anchor="start" x="742" y="-123" font-family="Helvetica,sans-Serif" font-size="10.00" fill="#000000">::CircularDependencyDetector</text>
<text text-anchor="middle" x="815.5" y="-112" font-family="Helvetica,sans-Serif" font-size="10.00" fill="#000000">::detectBlockedModules</text>
</a>
</g>
</g>
<!-- Node905&#45;&gt;Node908 -->
<g id="edge6" class="edge">
<title>Node905&#45;&gt;Node908</title>
<path fill="none" stroke="#191970" d="M668.5358,-125.5C689.3295,-125.5 712.3487,-125.5 733.8781,-125.5"/>
<polygon fill="#191970" stroke="#191970" points="668.523,-122.0001 658.5229,-125.5 668.5229,-129.0001 668.523,-122.0001"/>
</g>
<!-- Node909 -->
<g id="node8" class="node">
<title>Node909</title>
<g id="a_node8"><a xlink:href="class_chimera_t_k_1_1_variable_network_module_graph_dumping_visitor.html#a25a0ff148ca05e583ed4515fb757c1fd" target="_top" xlink:title="ChimeraTK::VariableNetwork\lModuleGraphDumpingVisitor\l::dispatch">
<polygon fill="#ffffff" stroke="#000000" points="736.5,-45 736.5,-86 894.5,-86 894.5,-45 736.5,-45"/>
<text text-anchor="start" x="744.5" y="-74" font-family="Helvetica,sans-Serif" font-size="10.00" fill="#000000">ChimeraTK::VariableNetwork</text>
<text text-anchor="start" x="744.5" y="-63" font-family="Helvetica,sans-Serif" font-size="10.00" fill="#000000">ModuleGraphDumpingVisitor</text>
<text text-anchor="middle" x="815.5" y="-52" font-family="Helvetica,sans-Serif" font-size="10.00" fill="#000000">::dispatch</text>
</a>
</g>
</g>
<!-- Node905&#45;&gt;Node909 -->
<g id="edge7" class="edge">
<title>Node905&#45;&gt;Node909</title>
<path fill="none" stroke="#191970" d="M663.1757,-107.703C677.5851,-103.6831 692.8171,-99.4398 707,-95.5 718.0159,-92.44 729.663,-89.2119 741.0775,-86.0524"/>
<polygon fill="#191970" stroke="#191970" points="662.0455,-104.3845 653.3544,-110.4437 663.9271,-111.1269 662.0455,-104.3845"/>
</g>
<!-- Node910 -->
<g id="node9" class="node">
<title>Node910</title>
<g id="a_node9"><a xlink:href="test_modules_8cc.html#a0280ba7565cb73cb576a3c7591086a95" target="_top" xlink:title="BOOST_AUTO_TEST_CASE">
<polygon fill="#ffffff" stroke="#000000" points="744,-7 744,-26 887,-26 887,-7 744,-7"/>
<text text-anchor="middle" x="815.5" y="-14" font-family="Helvetica,sans-Serif" font-size="10.00" fill="#000000">BOOST_AUTO_TEST_CASE</text>
</a>
</g>
</g>
<!-- Node905&#45;&gt;Node910 -->
<g id="edge8" class="edge">
<title>Node905&#45;&gt;Node910</title>
<path fill="none" stroke="#191970" d="M664.7375,-105.1878C666.9236,-103.7295 669.021,-102.1692 671,-100.5 696.2434,-79.2082 680.107,-54.6659 707,-35.5 717.8234,-27.7864 730.7669,-22.8607 743.8816,-19.7777"/>
<polygon fill="#191970" stroke="#191970" points="662.8071,-102.2618 655.9302,-110.3214 666.3322,-108.3094 662.8071,-102.2618"/>
</g>
</g>
</svg>
        <g id="navigator" transform="translate(0 0)" fill="#404254">
                <rect fill="#f2f5e9" fill-opacity="0.5" stroke="#606060" stroke-width=".5" x="0" y="0" width="60" height="60"/>
                <use id="zoomplus" xlink:href="#zoomPlus" x="17" y="9" onmousedown="handleZoom(evt,'in')"/>
                <use id="zoomminus" xlink:href="#zoomMin" x="42" y="9" onmousedown="handleZoom(evt,'out')"/>
                <use id="reset" xlink:href="#resetDef" x="30" y="36" onmousedown="handleReset()"/>
                <g id="arrowUp" xlink:href="#dirArrow" transform="translate(30 24)" onmousedown="handlePan(0,-1)">
                  <use xlink:href="#rim" fill="#404040">
                        <set attributeName="fill" to="#808080" begin="arrowUp.mouseover" end="arrowUp.mouseout"/>
                  </use>
                  <path fill="none" stroke="white" stroke-width="1.5" d="M0,-3.0v7 M-2.5,-0.5L0,-3.0L2.5,-0.5"/>
                </g>
                <g id="arrowRight" xlink:href="#dirArrow" transform="rotate(90) translate(36 -43)" onmousedown="handlePan(1,0)">
                  <use xlink:href="#rim" fill="#404040">
                        <set attributeName="fill" to="#808080" begin="arrowRight.mouseover" end="arrowRight.mouseout"/>
                  </use>
                  <path fill="none" stroke="white" stroke-width="1.5" d="M0,-3.0v7 M-2.5,-0.5L0,-3.0L2.5,-0.5"/>
                </g>
                <g id="arrowDown" xlink:href="#dirArrow" transform="rotate(180) translate(-30 -48)" onmousedown="handlePan(0,1)">
                  <use xlink:href="#rim" fill="#404040">
                        <set attributeName="fill" to="#808080" begin="arrowDown.mouseover" end="arrowDown.mouseout"/>
                  </use>
                  <path fill="none" stroke="white" stroke-width="1.5" d="M0,-3.0v7 M-2.5,-0.5L0,-3.0L2.5,-0.5"/>
                </g>
                <g id="arrowLeft" xlink:href="#dirArrow" transform="rotate(270) translate(-36 17)" onmousedown="handlePan(-1,0)">
                  <use xlink:href="#rim" fill="#404040">
                        <set attributeName="fill" to="#808080" begin="arrowLeft.mouseover" end="arrowLeft.mouseout"/>
                  </use>
                  <path fill="none" stroke="white" stroke-width="1.5" d="M0,-3.0v7 M-2.5,-0.5L0,-3.0L2.5,-0.5"/>
                </g>
        </g>
        <svg viewBox="0 0 15 15" width="100%" height="30px" preserveAspectRatio="xMaxYMin meet">
         <g id="arrow_out" transform="scale(0.3 0.3)">
          <a xlink:href="class_chimera_t_k_1_1_entity_owner_a952d3abbffa16054f744f3da7fc46c3f_icgraph_org.svg" target="_base">
           <rect id="button" ry="5" rx="5" y="6" x="6" height="38" width="38"
                fill="#f2f5e9" fill-opacity="0.5" stroke="#606060" stroke-width="1.0"/>
           <path id="arrow"
             d="M 11.500037,31.436501 C 11.940474,20.09759 22.043105,11.32322 32.158766,21.979434 L 37.068811,17.246167 C 37.068811,17.246167 37.088388,32 37.088388,32 L 22.160133,31.978069 C 22.160133,31.978069 26.997745,27.140456 26.997745,27.140456 C 18.528582,18.264221 13.291696,25.230495 11.500037,31.436501 z"
             style="fill:#404040;"/>
          </a>
         </g>
        </svg>
</svg>
