<?xml version="1.0" encoding="UTF-8" standalone="no"?>
<!DOCTYPE svg PUBLIC "-//W3C//DTD SVG 1.1//EN"
 "http://www.w3.org/Graphics/SVG/1.1/DTD/svg11.dtd">
<!-- Generated by graphviz version 2.40.1 (20161225.0304)
 -->
<!-- Title: ChimeraTK::Application::stepApplication Pages: 1 -->
<svg width="956pt" height="362pt"
 viewBox="0.00 0.00 956.00 362.00" xmlns="http://www.w3.org/2000/svg" xmlns:xlink="http://www.w3.org/1999/xlink">
<g id="graph0" class="graph" transform="scale(1 1) rotate(0) translate(4 358)">
<title>ChimeraTK::Application::stepApplication</title>
<polygon fill="#ffffff" stroke="transparent" points="-4,4 -4,-358 952,-358 952,4 -4,4"/>
<!-- Node737 -->
<g id="node1" class="node">
<title>Node737</title>
<polygon fill="#bfbfbf" stroke="#000000" points="0,-186.5 0,-216.5 131,-216.5 131,-186.5 0,-186.5"/>
<text text-anchor="start" x="8" y="-204.5" font-family="Helvetica,sans-Serif" font-size="10.00" fill="#000000">ChimeraTK::Application</text>
<text text-anchor="middle" x="65.5" y="-193.5" font-family="Helvetica,sans-Serif" font-size="10.00" fill="#000000">::stepApplication</text>
</g>
<!-- Node738 -->
<g id="node2" class="node">
<title>Node738</title>
<g id="a_node2"><a xlink:href="class_chimera_t_k_1_1_application.html#a881553efec1eb3bab305b775eae5d3ea" target="_top" xlink:title="Returns true if application is in testable mode else returns false. ">
<polygon fill="#ffffff" stroke="#000000" points="167,-235.5 167,-265.5 304,-265.5 304,-235.5 167,-235.5"/>
<text text-anchor="start" x="175" y="-253.5" font-family="Helvetica,sans-Serif" font-size="10.00" fill="#000000">ChimeraTK::Application</text>
<text text-anchor="middle" x="235.5" y="-242.5" font-family="Helvetica,sans-Serif" font-size="10.00" fill="#000000">::isTestableModeEnabled</text>
</a>
</g>
</g>
<!-- Node737&#45;&gt;Node738 -->
<g id="edge1" class="edge">
<title>Node737&#45;&gt;Node738</title>
<path fill="none" stroke="#191970" d="M127.5815,-219.3941C145.8664,-224.6644 165.6804,-230.3755 183.2802,-235.4484"/>
<polygon fill="#191970" stroke="#191970" points="128.471,-216.008 117.8928,-216.6014 126.5322,-222.7342 128.471,-216.008"/>
</g>
<!-- Node752 -->
<g id="node16" class="node">
<title>Node752</title>
<g id="a_node16"><a xlink:href="class_chimera_t_k_1_1_test_facility.html#a8e4b9b277fb176ceaf6bd8dd3465a780" target="_top" xlink:title="Perform a &quot;step&quot; of the application. ">
<polygon fill="#ffffff" stroke="#000000" points="170,-162.5 170,-192.5 301,-192.5 301,-162.5 170,-162.5"/>
<text text-anchor="start" x="178" y="-180.5" font-family="Helvetica,sans-Serif" font-size="10.00" fill="#000000">ChimeraTK::TestFacility</text>
<text text-anchor="middle" x="235.5" y="-169.5" font-family="Helvetica,sans-Serif" font-size="10.00" fill="#000000">::stepApplication</text>
</a>
</g>
</g>
<!-- Node737&#45;&gt;Node752 -->
<g id="edge16" class="edge">
<title>Node737&#45;&gt;Node752</title>
<path fill="none" stroke="#191970" d="M141.1546,-190.8194C150.7575,-189.4636 160.5216,-188.0852 169.9484,-186.7543"/>
<polygon fill="#191970" stroke="#191970" points="140.639,-187.3574 131.2264,-192.221 141.6175,-194.2886 140.639,-187.3574"/>
</g>
<!-- Node739 -->
<g id="node3" class="node">
<title>Node739</title>
<g id="a_node3"><a xlink:href="class_chimera_t_k_1_1_threaded_fan_out.html#a256e80f1a94f3fe0706d6a8dcbe47e29" target="_top" xlink:title="Activate synchronisation thread if needed. ">
<polygon fill="#ffffff" stroke="#000000" points="340,-323.5 340,-353.5 496,-353.5 496,-323.5 340,-323.5"/>
<text text-anchor="start" x="348" y="-341.5" font-family="Helvetica,sans-Serif" font-size="10.00" fill="#000000">ChimeraTK::ThreadedFanOut</text>
<text text-anchor="middle" x="418" y="-330.5" font-family="Helvetica,sans-Serif" font-size="10.00" fill="#000000">::activate</text>
</a>
</g>
</g>
<!-- Node738&#45;&gt;Node739 -->
<g id="edge2" class="edge">
<title>Node738&#45;&gt;Node739</title>
<path fill="none" stroke="#191970" d="M269.1328,-270.7398C289.3164,-282.4865 315.7082,-297.1548 340,-308.5 351.3053,-313.78 363.8175,-318.8981 375.4498,-323.3673"/>
<polygon fill="#191970" stroke="#191970" points="270.7219,-267.6142 260.326,-265.5707 267.1785,-273.6512 270.7219,-267.6142"/>
</g>
<!-- Node740 -->
<g id="node4" class="node">
<title>Node740</title>
<g id="a_node4"><a xlink:href="class_chimera_t_k_1_1_trigger_fan_out.html#a1e62fe742bdca6b91751bb21047f9a6f" target="_top" xlink:title="Activate synchronisation thread if needed. ">
<polygon fill="#ffffff" stroke="#000000" points="770.5,-294.5 770.5,-324.5 913.5,-324.5 913.5,-294.5 770.5,-294.5"/>
<text text-anchor="start" x="778.5" y="-312.5" font-family="Helvetica,sans-Serif" font-size="10.00" fill="#000000">ChimeraTK::TriggerFanOut</text>
<text text-anchor="middle" x="842" y="-301.5" font-family="Helvetica,sans-Serif" font-size="10.00" fill="#000000">::activate</text>
</a>
</g>
</g>
<!-- Node738&#45;&gt;Node740 -->
<g id="edge3" class="edge">
<title>Node738&#45;&gt;Node740</title>
<path fill="none" stroke="#191970" d="M300.5422,-267.8341C313.5351,-270.7938 327.1414,-273.5405 340,-275.5 491.9857,-298.6606 672.2645,-306.0457 770.0964,-308.3996"/>
<polygon fill="#191970" stroke="#191970" points="301.2835,-264.4131 290.7486,-265.5388 299.6861,-271.2284 301.2835,-264.4131"/>
</g>
<!-- Node741 -->
<g id="node5" class="node">
<title>Node741</title>
<g id="a_node5"><a xlink:href="class_chimera_t_k_1_1_device_module.html#a866cf974d4a178d389753536be5a88db" target="_top" xlink:title="Use this function to report an exception. ">
<polygon fill="#ffffff" stroke="#000000" points="345,-235.5 345,-265.5 491,-265.5 491,-235.5 345,-235.5"/>
<text text-anchor="start" x="353" y="-253.5" font-family="Helvetica,sans-Serif" font-size="10.00" fill="#000000">ChimeraTK::DeviceModule</text>
<text text-anchor="middle" x="418" y="-242.5" font-family="Helvetica,sans-Serif" font-size="10.00" fill="#000000">::reportException</text>
</a>
</g>
</g>
<!-- Node738&#45;&gt;Node741 -->
<g id="edge4" class="edge">
<title>Node738&#45;&gt;Node741</title>
<path fill="none" stroke="#191970" d="M314.2702,-250.5C324.3935,-250.5 334.7257,-250.5 344.7557,-250.5"/>
<polygon fill="#191970" stroke="#191970" points="314.2354,-247.0001 304.2354,-250.5 314.2353,-254.0001 314.2354,-247.0001"/>
</g>
<!-- Node750 -->
<g id="node14" class="node">
<title>Node750</title>
<g id="a_node14"><a xlink:href="class_chimera_t_k_1_1_device_module.html#ab388c8a6e152379643f96c8fb945d3a3" target="_top" xlink:title="This functions tries to open the device and set the deviceError. ">
<polygon fill="#ffffff" stroke="#000000" points="345,-186.5 345,-216.5 491,-216.5 491,-186.5 345,-186.5"/>
<text text-anchor="start" x="353" y="-204.5" font-family="Helvetica,sans-Serif" font-size="10.00" fill="#000000">ChimeraTK::DeviceModule</text>
<text text-anchor="middle" x="418" y="-193.5" font-family="Helvetica,sans-Serif" font-size="10.00" fill="#000000">::handleException</text>
</a>
</g>
</g>
<!-- Node738&#45;&gt;Node750 -->
<g id="edge14" class="edge">
<title>Node738&#45;&gt;Node750</title>
<path fill="none" stroke="#191970" d="M301.604,-232.7515C321.3834,-227.4409 342.8725,-221.6712 361.9406,-216.5516"/>
<polygon fill="#191970" stroke="#191970" points="300.4955,-229.4251 291.7452,-235.3986 302.3107,-236.1857 300.4955,-229.4251"/>
</g>
<!-- Node742 -->
<g id="node6" class="node">
<title>Node742</title>
<g id="a_node6"><a xlink:href="class_chimera_t_k_1_1_trigger_fan_out.html#ac46817d485e17425b7200cfe5c3c7bff" target="_top" xlink:title="Synchronise feeder and the consumers. ">
<polygon fill="#ffffff" stroke="#000000" points="533.5,-244 533.5,-263 698.5,-263 698.5,-244 533.5,-244"/>
<text text-anchor="middle" x="616" y="-251" font-family="Helvetica,sans-Serif" font-size="10.00" fill="#000000">ChimeraTK::TriggerFanOut::run</text>
</a>
</g>
</g>
<!-- Node741&#45;&gt;Node742 -->
<g id="edge5" class="edge">
<title>Node741&#45;&gt;Node742</title>
<path fill="none" stroke="#191970" d="M501.2798,-251.7618C511.9262,-251.9231 522.8215,-252.0882 533.4561,-252.2493"/>
<polygon fill="#191970" stroke="#191970" points="501.2173,-248.2606 491.1653,-251.6086 501.1111,-255.2598 501.2173,-248.2606"/>
</g>
<!-- Node743 -->
<g id="node7" class="node">
<title>Node743</title>
<g id="a_node7"><a xlink:href="class_chimera_t_k_1_1_exception_handling_decorator.html#aa70a58a3119983a5912b54c7bff03767" target="_top" xlink:title="ChimeraTK::ExceptionHandling\lDecorator::genericTransfer">
<polygon fill="#ffffff" stroke="#000000" points="532,-162.5 532,-192.5 700,-192.5 700,-162.5 532,-162.5"/>
<text text-anchor="start" x="540" y="-180.5" font-family="Helvetica,sans-Serif" font-size="10.00" fill="#000000">ChimeraTK::ExceptionHandling</text>
<text text-anchor="middle" x="616" y="-169.5" font-family="Helvetica,sans-Serif" font-size="10.00" fill="#000000">Decorator::genericTransfer</text>
</a>
</g>
</g>
<!-- Node741&#45;&gt;Node743 -->
<g id="edge7" class="edge">
<title>Node741&#45;&gt;Node743</title>
<path fill="none" stroke="#191970" d="M479.0633,-232.2845C484.8107,-230.3979 490.5296,-228.4541 496,-226.5 525.1387,-216.0913 557.5944,-202.728 581.3979,-192.5867"/>
<polygon fill="#191970" stroke="#191970" points="477.8472,-228.999 469.4026,-235.3974 479.9941,-235.6617 477.8472,-228.999"/>
</g>
<!-- Node742&#45;&gt;Node740 -->
<g id="edge6" class="edge">
<title>Node742&#45;&gt;Node740</title>
<path fill="none" stroke="#191970" d="M659.9827,-265.657C682.6396,-271.8106 710.7427,-279.2754 736,-285.5 748.1831,-288.5025 761.1894,-291.5646 773.7691,-294.4527"/>
<polygon fill="#191970" stroke="#191970" points="660.8775,-262.2733 650.3089,-263.0196 659.0361,-269.0268 660.8775,-262.2733"/>
</g>
<!-- Node744 -->
<g id="node8" class="node">
<title>Node744</title>
<g id="a_node8"><a xlink:href="class_chimera_t_k_1_1_exception_handling_decorator.html#a666085917708684718539d6e0d693565" target="_top" xlink:title="ChimeraTK::ExceptionHandling\lDecorator::doWriteTransfer">
<polygon fill="#ffffff" stroke="#000000" points="758,-245.5 758,-275.5 926,-275.5 926,-245.5 758,-245.5"/>
<text text-anchor="start" x="766" y="-263.5" font-family="Helvetica,sans-Serif" font-size="10.00" fill="#000000">ChimeraTK::ExceptionHandling</text>
<text text-anchor="middle" x="842" y="-252.5" font-family="Helvetica,sans-Serif" font-size="10.00" fill="#000000">Decorator::doWriteTransfer</text>
</a>
</g>
</g>
<!-- Node743&#45;&gt;Node744 -->
<g id="edge8" class="edge">
<title>Node743&#45;&gt;Node744</title>
<path fill="none" stroke="#191970" d="M651.2427,-197.5617C674.6634,-210.2013 706.4361,-226.0485 736,-236.5 745.4285,-239.8332 755.4964,-242.8149 765.5348,-245.4479"/>
<polygon fill="#191970" stroke="#191970" points="652.8355,-194.4436 642.3821,-192.7179 649.4777,-200.5857 652.8355,-194.4436"/>
</g>
<!-- Node745 -->
<g id="node9" class="node">
<title>Node745</title>
<g id="a_node9"><a xlink:href="class_chimera_t_k_1_1_exception_handling_decorator.html#aa4580d9d3037766e4c56c69bdef1c830" target="_top" xlink:title="ChimeraTK::ExceptionHandling\lDecorator::doWriteTransferDestructively">
<polygon fill="#ffffff" stroke="#000000" points="736,-196.5 736,-226.5 948,-226.5 948,-196.5 736,-196.5"/>
<text text-anchor="start" x="744" y="-214.5" font-family="Helvetica,sans-Serif" font-size="10.00" fill="#000000">ChimeraTK::ExceptionHandling</text>
<text text-anchor="middle" x="842" y="-203.5" font-family="Helvetica,sans-Serif" font-size="10.00" fill="#000000">Decorator::doWriteTransferDestructively</text>
</a>
</g>
</g>
<!-- Node743&#45;&gt;Node745 -->
<g id="edge9" class="edge">
<title>Node743&#45;&gt;Node745</title>
<path fill="none" stroke="#191970" d="M710.1868,-191.6697C720.736,-193.2567 731.5103,-194.8777 742.1278,-196.475"/>
<polygon fill="#191970" stroke="#191970" points="710.5635,-188.1871 700.1541,-190.1603 709.5221,-195.1092 710.5635,-188.1871"/>
</g>
<!-- Node746 -->
<g id="node10" class="node">
<title>Node746</title>
<g id="a_node10"><a xlink:href="class_chimera_t_k_1_1_exception_handling_decorator.html#a8a76ef246f4ff5eba0ba9aa3ddbe6c8f" target="_top" xlink:title="ChimeraTK::ExceptionHandling\lDecorator::doReadTransfer">
<polygon fill="#ffffff" stroke="#000000" points="758,-147.5 758,-177.5 926,-177.5 926,-147.5 758,-147.5"/>
<text text-anchor="start" x="766" y="-165.5" font-family="Helvetica,sans-Serif" font-size="10.00" fill="#000000">ChimeraTK::ExceptionHandling</text>
<text text-anchor="middle" x="842" y="-154.5" font-family="Helvetica,sans-Serif" font-size="10.00" fill="#000000">Decorator::doReadTransfer</text>
</a>
</g>
</g>
<!-- Node743&#45;&gt;Node746 -->
<g id="edge10" class="edge">
<title>Node743&#45;&gt;Node746</title>
<path fill="none" stroke="#191970" d="M710.3994,-171.2346C726.1184,-170.1913 742.3312,-169.1152 757.7757,-168.0901"/>
<polygon fill="#191970" stroke="#191970" points="709.9003,-167.7599 700.1541,-171.9146 710.3639,-174.7445 709.9003,-167.7599"/>
</g>
<!-- Node747 -->
<g id="node11" class="node">
<title>Node747</title>
<g id="a_node11"><a xlink:href="class_chimera_t_k_1_1_exception_handling_decorator.html#a868656cf5b69644e6fb618d124b3460a" target="_top" xlink:title="ChimeraTK::ExceptionHandling\lDecorator::doReadTransferNonBlocking">
<polygon fill="#ffffff" stroke="#000000" points="738.5,-98.5 738.5,-128.5 945.5,-128.5 945.5,-98.5 738.5,-98.5"/>
<text text-anchor="start" x="746.5" y="-116.5" font-family="Helvetica,sans-Serif" font-size="10.00" fill="#000000">ChimeraTK::ExceptionHandling</text>
<text text-anchor="middle" x="842" y="-105.5" font-family="Helvetica,sans-Serif" font-size="10.00" fill="#000000">Decorator::doReadTransferNonBlocking</text>
</a>
</g>
</g>
<!-- Node743&#45;&gt;Node747 -->
<g id="edge11" class="edge">
<title>Node743&#45;&gt;Node747</title>
<path fill="none" stroke="#191970" d="M679.1876,-159.4786C686.2438,-157.2339 693.2988,-154.8858 700,-152.5 716.3293,-146.6864 719.4862,-142.7666 736,-137.5 746.2466,-134.2321 757.1853,-131.2296 767.9999,-128.5364"/>
<polygon fill="#191970" stroke="#191970" points="678.1026,-156.1507 669.5981,-162.4692 680.1867,-162.8333 678.1026,-156.1507"/>
</g>
<!-- Node748 -->
<g id="node12" class="node">
<title>Node748</title>
<g id="a_node12"><a xlink:href="class_chimera_t_k_1_1_exception_handling_decorator.html#afd84fdd105e01e4333213916f51c5e72" target="_top" xlink:title="ChimeraTK::ExceptionHandling\lDecorator::doReadTransferLatest">
<polygon fill="#ffffff" stroke="#000000" points="754,-49.5 754,-79.5 930,-79.5 930,-49.5 754,-49.5"/>
<text text-anchor="start" x="762" y="-67.5" font-family="Helvetica,sans-Serif" font-size="10.00" fill="#000000">ChimeraTK::ExceptionHandling</text>
<text text-anchor="middle" x="842" y="-56.5" font-family="Helvetica,sans-Serif" font-size="10.00" fill="#000000">Decorator::doReadTransferLatest</text>
</a>
</g>
</g>
<!-- Node743&#45;&gt;Node748 -->
<g id="edge12" class="edge">
<title>Node743&#45;&gt;Node748</title>
<path fill="none" stroke="#191970" d="M692.7862,-157.5846C695.2995,-156.0163 697.7149,-154.3247 700,-152.5 725.5025,-132.1357 709.8335,-108.0038 736,-88.5 741.4462,-84.4405 747.4569,-81.0482 753.7655,-78.2156"/>
<polygon fill="#191970" stroke="#191970" points="690.9937,-154.5758 683.9111,-162.4553 694.3616,-160.7124 690.9937,-154.5758"/>
</g>
<!-- Node749 -->
<g id="node13" class="node">
<title>Node749</title>
<g id="a_node13"><a xlink:href="class_chimera_t_k_1_1_exception_handling_decorator.html#a85862e6c515291dc28d9d85a4666a9ea" target="_top" xlink:title="ChimeraTK::ExceptionHandling\lDecorator::doReadTransferAsync">
<polygon fill="#ffffff" stroke="#000000" points="754.5,-.5 754.5,-30.5 929.5,-30.5 929.5,-.5 754.5,-.5"/>
<text text-anchor="start" x="762.5" y="-18.5" font-family="Helvetica,sans-Serif" font-size="10.00" fill="#000000">ChimeraTK::ExceptionHandling</text>
<text text-anchor="middle" x="842" y="-7.5" font-family="Helvetica,sans-Serif" font-size="10.00" fill="#000000">Decorator::doReadTransferAsync</text>
</a>
</g>
</g>
<!-- Node743&#45;&gt;Node749 -->
<g id="edge13" class="edge">
<title>Node743&#45;&gt;Node749</title>
<path fill="none" stroke="#191970" d="M695.3767,-156.5736C696.9884,-155.2948 698.5337,-153.9385 700,-152.5 737.6262,-115.5874 697.1655,-75.1392 736,-39.5 741.4217,-34.5244 747.6516,-30.5078 754.3176,-27.2735"/>
<polygon fill="#191970" stroke="#191970" points="693.1549,-153.8503 686.8206,-162.343 697.0685,-159.6541 693.1549,-153.8503"/>
</g>
<!-- Node751 -->
<g id="node15" class="node">
<title>Node751</title>
<g id="a_node15"><a xlink:href="class_chimera_t_k_1_1_device_module.html#a71dea3b0240cf2eccbae77ab7f2c4a73" target="_top" xlink:title="Execute the module. ">
<polygon fill="#ffffff" stroke="#000000" points="532.5,-124 532.5,-143 699.5,-143 699.5,-124 532.5,-124"/>
<text text-anchor="middle" x="616" y="-131" font-family="Helvetica,sans-Serif" font-size="10.00" fill="#000000">ChimeraTK::DeviceModule::run</text>
</a>
</g>
</g>
<!-- Node750&#45;&gt;Node751 -->
<g id="edge15" class="edge">
<title>Node750&#45;&gt;Node751</title>
<path fill="none" stroke="#191970" d="M481.3571,-182.8597C486.3794,-180.8796 491.3163,-178.7572 496,-176.5 513.3229,-168.1516 514.3277,-160.0808 532,-152.5 540.9316,-148.6687 550.7429,-145.558 560.4115,-143.0491"/>
<polygon fill="#191970" stroke="#191970" points="479.7811,-179.7121 471.638,-186.4901 482.2306,-186.2696 479.7811,-179.7121"/>
</g>
<!-- Node753 -->
<g id="node17" class="node">
<title>Node753</title>
<g id="a_node17"><a xlink:href="class_chimera_t_k_1_1_test_facility.html#aa89dcd98d96bef731b8dbd75964bb18c" target="_top" xlink:title="Start the application in testable mode. ">
<polygon fill="#ffffff" stroke="#000000" points="352.5,-137.5 352.5,-167.5 483.5,-167.5 483.5,-137.5 352.5,-137.5"/>
<text text-anchor="start" x="360.5" y="-155.5" font-family="Helvetica,sans-Serif" font-size="10.00" fill="#000000">ChimeraTK::TestFacility</text>
<text text-anchor="middle" x="418" y="-144.5" font-family="Helvetica,sans-Serif" font-size="10.00" fill="#000000">::runApplication</text>
</a>
</g>
</g>
<!-- Node752&#45;&gt;Node753 -->
<g id="edge17" class="edge">
<title>Node752&#45;&gt;Node753</title>
<path fill="none" stroke="#191970" d="M311.4118,-167.1011C325.005,-165.239 339.0658,-163.3129 352.3404,-161.4945"/>
<polygon fill="#191970" stroke="#191970" points="310.5613,-163.6849 301.1289,-168.5097 311.5114,-170.6201 310.5613,-163.6849"/>
</g>
</g>
</svg>
