<?xml version="1.0" encoding="UTF-8" standalone="no"?>
<!DOCTYPE svg PUBLIC "-//W3C//DTD SVG 1.1//EN"
 "http://www.w3.org/Graphics/SVG/1.1/DTD/svg11.dtd">
<!-- Generated by graphviz version 2.40.1 (20161225.0304)
 -->
<!-- Title: ChimeraTK::Application::testableModeLock Pages: 1 -->
<svg width="505pt" height="171pt"
 viewBox="0.00 0.00 505.00 170.92" xmlns="http://www.w3.org/2000/svg" xmlns:xlink="http://www.w3.org/1999/xlink">
<g id="graph0" class="graph" transform="scale(1 1) rotate(0) translate(4 166.9248)">
<title>ChimeraTK::Application::testableModeLock</title>
<polygon fill="#ffffff" stroke="transparent" points="-4,4 -4,-166.9248 501,-166.9248 501,4 -4,4"/>
<!-- Node832 -->
<g id="node1" class="node">
<title>Node832</title>
<polygon fill="#bfbfbf" stroke="#000000" points="0,-85 0,-115 131,-115 131,-85 0,-85"/>
<text text-anchor="start" x="8" y="-103" font-family="Helvetica,sans-Serif" font-size="10.00" fill="#000000">ChimeraTK::Application</text>
<text text-anchor="middle" x="65.5" y="-92" font-family="Helvetica,sans-Serif" font-size="10.00" fill="#000000">::testableModeLock</text>
</g>
<!-- Node833 -->
<g id="node2" class="node">
<title>Node833</title>
<g id="a_node2"><a xlink:href="class_chimera_t_k_1_1_application.html#aa3c1c63e078d14fb104431a15951a070" target="_top" xlink:title="Obtain instance of the application. ">
<polygon fill="#ffffff" stroke="#000000" points="366,-80 366,-110 497,-110 497,-80 366,-80"/>
<text text-anchor="start" x="374" y="-98" font-family="Helvetica,sans-Serif" font-size="10.00" fill="#000000">ChimeraTK::Application</text>
<text text-anchor="middle" x="431.5" y="-87" font-family="Helvetica,sans-Serif" font-size="10.00" fill="#000000">::getInstance</text>
</a>
</g>
</g>
<!-- Node832&#45;&gt;Node833 -->
<g id="edge1" class="edge">
<title>Node832&#45;&gt;Node833</title>
<path fill="none" stroke="#191970" d="M88.5347,-115.1799C108.388,-127.2981 138.3029,-143.3153 167,-150 237.5555,-166.4352 259.7771,-167.803 330,-150 356.282,-143.3369 383.131,-128.3571 402.6084,-115.7111"/>
<polygon fill="#191970" stroke="#191970" points="404.6358,-118.566 411.0103,-110.1032 400.7497,-112.7437 404.6358,-118.566"/>
</g>
<!-- Node834 -->
<g id="node3" class="node">
<title>Node834</title>
<g id="a_node3"><a xlink:href="class_chimera_t_k_1_1_application.html#aa11ef4e6eb1a40a4cdd1c5941bc90639" target="_top" xlink:title="Get string holding the name of the current thread. ">
<polygon fill="#ffffff" stroke="#000000" points="183,-110 183,-140 314,-140 314,-110 183,-110"/>
<text text-anchor="start" x="191" y="-128" font-family="Helvetica,sans-Serif" font-size="10.00" fill="#000000">ChimeraTK::Application</text>
<text text-anchor="middle" x="248.5" y="-117" font-family="Helvetica,sans-Serif" font-size="10.00" fill="#000000">::threadName</text>
</a>
</g>
</g>
<!-- Node832&#45;&gt;Node834 -->
<g id="edge2" class="edge">
<title>Node832&#45;&gt;Node834</title>
<path fill="none" stroke="#191970" d="M131.0503,-108.955C144.5848,-110.8039 158.9451,-112.7657 172.8063,-114.6593"/>
<polygon fill="#191970" stroke="#191970" points="172.4105,-118.1377 182.7923,-116.0235 173.3581,-111.2021 172.4105,-118.1377"/>
</g>
<!-- Node835 -->
<g id="node4" class="node">
<title>Node835</title>
<g id="a_node4"><a xlink:href="class_chimera_t_k_1_1_application.html#aca0e46e006bc223748a3c4056bddc176" target="_top" xlink:title="Obtain the lock object for the testable mode lock for the current thread. ">
<polygon fill="#ffffff" stroke="#000000" points="169,-61 169,-91 328,-91 328,-61 169,-61"/>
<text text-anchor="start" x="177" y="-79" font-family="Helvetica,sans-Serif" font-size="10.00" fill="#000000">ChimeraTK::Application</text>
<text text-anchor="middle" x="248.5" y="-68" font-family="Helvetica,sans-Serif" font-size="10.00" fill="#000000">::getTestableModeLockObject</text>
</a>
</g>
</g>
<!-- Node832&#45;&gt;Node835 -->
<g id="edge3" class="edge">
<title>Node832&#45;&gt;Node835</title>
<path fill="none" stroke="#191970" d="M131.0503,-91.4032C140.013,-90.2278 149.3377,-89.0049 158.6399,-87.7849"/>
<polygon fill="#191970" stroke="#191970" points="159.2467,-91.2354 168.7066,-86.4647 158.3364,-84.2948 159.2467,-91.2354"/>
</g>
<!-- Node836 -->
<g id="node5" class="node">
<title>Node836</title>
<g id="a_node5"><a xlink:href="struct_chimera_t_k_1_1_application_1_1_circular_dependency_detector.html#aec37b44e22b4df08160f0e621d268e58" target="_top" xlink:title="ChimeraTK::Application\l::CircularDependencyDetector\l::printWaiters">
<polygon fill="#ffffff" stroke="#000000" points="167,-.5 167,-41.5 330,-41.5 330,-.5 167,-.5"/>
<text text-anchor="start" x="175" y="-29.5" font-family="Helvetica,sans-Serif" font-size="10.00" fill="#000000">ChimeraTK::Application</text>
<text text-anchor="start" x="175" y="-18.5" font-family="Helvetica,sans-Serif" font-size="10.00" fill="#000000">::CircularDependencyDetector</text>
<text text-anchor="middle" x="248.5" y="-7.5" font-family="Helvetica,sans-Serif" font-size="10.00" fill="#000000">::printWaiters</text>
</a>
</g>
</g>
<!-- Node832&#45;&gt;Node836 -->
<g id="edge4" class="edge">
<title>Node832&#45;&gt;Node836</title>
<path fill="none" stroke="#191970" d="M95.8646,-84.8771C115.8868,-75.0952 142.789,-62.3106 167,-52 172.2643,-49.7581 177.7507,-47.5025 183.2789,-45.286"/>
<polygon fill="#191970" stroke="#191970" points="184.579,-48.5357 192.5901,-41.6022 182.0037,-42.0266 184.579,-48.5357"/>
</g>
<!-- Node836&#45;&gt;Node833 -->
<g id="edge5" class="edge">
<title>Node836&#45;&gt;Node833</title>
<path fill="none" stroke="#191970" d="M303.4084,-41.5651C312.3191,-44.9944 321.4316,-48.5568 330,-52 348.8785,-59.5862 369.5818,-68.2874 387.3386,-75.8691"/>
<polygon fill="#191970" stroke="#191970" points="386.2997,-79.2316 396.87,-79.9518 389.0559,-72.7971 386.2997,-79.2316"/>
</g>
</g>
</svg>
