<?xml version="1.0" encoding="UTF-8" standalone="no"?>
<!DOCTYPE svg PUBLIC "-//W3C//DTD SVG 1.1//EN"
 "http://www.w3.org/Graphics/SVG/1.1/DTD/svg11.dtd">
<!-- Generated by graphviz version 2.40.1 (20161225.0304)
 -->
<!-- Title: ChimeraTK::EntityOwner::getDataValidity Pages: 1 -->
<svg width="299pt" height="39pt"
 viewBox="0.00 0.00 299.00 39.00" xmlns="http://www.w3.org/2000/svg" xmlns:xlink="http://www.w3.org/1999/xlink">
<g id="graph0" class="graph" transform="scale(1 1) rotate(0) translate(4 35)">
<title>ChimeraTK::EntityOwner::getDataValidity</title>
<polygon fill="#ffffff" stroke="transparent" points="-4,4 -4,-35 295,-35 295,4 -4,4"/>
<!-- Node1153 -->
<g id="node1" class="node">
<title>Node1153</title>
<polygon fill="#bfbfbf" stroke="#000000" points="0,-.5 0,-30.5 137,-30.5 137,-.5 0,-.5"/>
<text text-anchor="start" x="8" y="-18.5" font-family="Helvetica,sans-Serif" font-size="10.00" fill="#000000">ChimeraTK::EntityOwner</text>
<text text-anchor="middle" x="68.5" y="-7.5" font-family="Helvetica,sans-Serif" font-size="10.00" fill="#000000">::getDataValidity</text>
</g>
<!-- Node1154 -->
<g id="node2" class="node">
<title>Node1154</title>
<g id="a_node2"><a xlink:href="class_chimera_t_k_1_1_module.html#a5a5f8bbd296d64d5fb804c2c6a9de643" target="_top" xlink:title="Return the data validity flag. ">
<polygon fill="#ffffff" stroke="#000000" points="173,-.5 173,-30.5 291,-30.5 291,-.5 173,-.5"/>
<text text-anchor="start" x="181" y="-18.5" font-family="Helvetica,sans-Serif" font-size="10.00" fill="#000000">ChimeraTK::Module::</text>
<text text-anchor="middle" x="232" y="-7.5" font-family="Helvetica,sans-Serif" font-size="10.00" fill="#000000">getDataValidity</text>
</a>
</g>
</g>
<!-- Node1153&#45;&gt;Node1154 -->
<g id="edge1" class="edge">
<title>Node1153&#45;&gt;Node1154</title>
<path fill="none" stroke="#191970" d="M147.3701,-15.5C155.9288,-15.5 164.5296,-15.5 172.7967,-15.5"/>
<polygon fill="#191970" stroke="#191970" points="147.3649,-12.0001 137.3648,-15.5 147.3648,-19.0001 147.3649,-12.0001"/>
</g>
</g>
</svg>
