<?xml version="1.0" encoding="UTF-8" standalone="no"?>
<!DOCTYPE svg PUBLIC "-//W3C//DTD SVG 1.1//EN"
 "http://www.w3.org/Graphics/SVG/1.1/DTD/svg11.dtd">
<!-- Generated by graphviz version 2.43.0 (0)
 -->
<!-- Title: ChimeraTK::Model::Proxy::getFullyQualifiedPath Pages: 1 -->
<!--zoomable 433 -->
<svg id="main" version="1.1" xmlns="http://www.w3.org/2000/svg" xmlns:xlink="http://www.w3.org/1999/xlink" xml:space="preserve" onload="init(evt)">
<style type="text/css"><![CDATA[
.edge:hover path { stroke: red; }
.edge:hover polygon { stroke: red; fill: red; }
]]></style>
<script type="text/javascript"><![CDATA[
var edges = document.getElementsByTagName('g');
if (edges && edges.length) {
  for (var i=0;i<edges.length;i++) {
    if (edges[i].id.substr(0,4)=='edge') {
      edges[i].setAttribute('class','edge');
    }
  }
}
]]></script>
        <defs>
                <circle id="rim" cx="0" cy="0" r="7"/>
                <circle id="rim2" cx="0" cy="0" r="3.5"/>
                <g id="zoomPlus">
                        <use xlink:href="#rim" fill="#404040">
                                <set attributeName="fill" to="#808080" begin="zoomplus.mouseover" end="zoomplus.mouseout"/>
                        </use>
                        <path d="M-4,0h8M0,-4v8" fill="none" stroke="white" stroke-width="1.5" pointer-events="none"/>
                </g>
                <g id="zoomMin">
                        <use xlink:href="#rim" fill="#404040">
                                <set attributeName="fill" to="#808080" begin="zoomminus.mouseover" end="zoomminus.mouseout"/>
                        </use>
                        <path d="M-4,0h8" fill="none" stroke="white" stroke-width="1.5" pointer-events="none"/>
                </g>
                <g id="dirArrow">
                        <path fill="none" stroke="white" stroke-width="1.5" d="M0,-3.0v7 M-2.5,-0.5L0,-3.0L2.5,-0.5"/>
                </g>
               <g id="resetDef">
                       <use xlink:href="#rim2" fill="#404040">
                               <set attributeName="fill" to="#808080" begin="reset.mouseover" end="reset.mouseout"/>
                       </use>
               </g>
        </defs>

<script type="text/javascript">
var viewWidth = 721;
var viewHeight = 433;
var sectionId = 'dynsection-2';
</script>
<script xlink:href="svgpan.js"/>
<svg id="graph" class="graph">
<g id="viewport">
<title>ChimeraTK::Model::Proxy::getFullyQualifiedPath</title>
<polygon fill="white" stroke="transparent" points="-4,4 -4,-428.5 717,-428.5 717,4 -4,4"/>
<!-- Node1 -->
<g id="node1" class="node">
<title>Node1</title>
<g id="a_node1"><a xlink:title="Return the fully qualified path.">
<polygon fill="#bfbfbf" stroke="black" points="573,-208.5 573,-238.5 713,-238.5 713,-208.5 573,-208.5"/>
<text text-anchor="start" x="581" y="-226.5" font-family="Helvetica,sans-Serif" font-size="10.00">ChimeraTK::Model::Proxy</text>
<text text-anchor="middle" x="643" y="-215.5" font-family="Helvetica,sans-Serif" font-size="10.00">::getFullyQualifiedPath</text>
</a>
</g>
</g>
<!-- Node2 -->
<g id="node2" class="node">
<title>Node2</title>
<g id="a_node2"><a xlink:href="test_model_8cc.html#a63f2b9b5f6c7e56b9211598086352b15" target="_top" xlink:title=" ">
<polygon fill="white" stroke="black" points="385,-405 385,-424 528,-424 528,-405 385,-405"/>
<text text-anchor="middle" x="456.5" y="-412" font-family="Helvetica,sans-Serif" font-size="10.00">BOOST_AUTO_TEST_CASE</text>
</a>
</g>
</g>
<!-- Node1&#45;&gt;Node2 -->
<g id="edge1" class="edge">
<title>Node1&#45;&gt;Node2</title>
<path fill="none" stroke="midnightblue" d="M633.85,-248.41C620.12,-286.28 588.73,-357.89 537,-395.5 531.72,-399.34 525.77,-402.41 519.56,-404.87"/>
<polygon fill="midnightblue" stroke="midnightblue" points="637.25,-249.28 637.25,-238.68 630.64,-246.97 637.25,-249.28"/>
</g>
<!-- Node3 -->
<g id="node3" class="node">
<title>Node3</title>
<g id="a_node3"><a xlink:href="class_chimera_t_k_1_1_network_visitor.html#ab7a03e7bbb2e6e9c06a670159e9c5ed4" target="_top" xlink:title=" ">
<polygon fill="white" stroke="black" points="382,-355.5 382,-385.5 531,-385.5 531,-355.5 382,-355.5"/>
<text text-anchor="start" x="390" y="-373.5" font-family="Helvetica,sans-Serif" font-size="10.00">ChimeraTK::NetworkVisitor</text>
<text text-anchor="middle" x="456.5" y="-362.5" font-family="Helvetica,sans-Serif" font-size="10.00">::checkNetwork</text>
</a>
</g>
</g>
<!-- Node1&#45;&gt;Node3 -->
<g id="edge2" class="edge">
<title>Node1&#45;&gt;Node3</title>
<path fill="none" stroke="midnightblue" d="M627.6,-247.52C609.72,-275.31 576.7,-320.56 537,-346.5 531.81,-349.89 526.12,-352.82 520.25,-355.35"/>
<polygon fill="midnightblue" stroke="midnightblue" points="630.71,-249.14 633.06,-238.81 624.78,-245.42 630.71,-249.14"/>
</g>
<!-- Node5 -->
<g id="node5" class="node">
<title>Node5</title>
<g id="a_node5"><a xlink:href="class_chimera_t_k_1_1_connection_maker.html#a9c5b6189dbb283f3f3170b7bdcf4f8a0" target="_top" xlink:title="Realise connections.">
<polygon fill="white" stroke="black" points="376,-257.5 376,-287.5 537,-287.5 537,-257.5 376,-257.5"/>
<text text-anchor="start" x="384" y="-275.5" font-family="Helvetica,sans-Serif" font-size="10.00">ChimeraTK::ConnectionMaker</text>
<text text-anchor="middle" x="456.5" y="-264.5" font-family="Helvetica,sans-Serif" font-size="10.00">::connect</text>
</a>
</g>
</g>
<!-- Node1&#45;&gt;Node5 -->
<g id="edge4" class="edge">
<title>Node1&#45;&gt;Node5</title>
<path fill="none" stroke="midnightblue" d="M575.64,-241.12C555.46,-246.48 533.47,-252.32 514,-257.49"/>
<polygon fill="midnightblue" stroke="midnightblue" points="576.62,-244.48 585.39,-238.53 574.83,-237.72 576.62,-244.48"/>
</g>
<!-- Node9 -->
<g id="node9" class="node">
<title>Node9</title>
<g id="a_node9"><a xlink:href="class_chimera_t_k_1_1_network_visitor.html#a97efd4025a01e37a867a5a88c7ea4d57" target="_top" xlink:title=" ">
<polygon fill="white" stroke="black" points="382,-306.5 382,-336.5 531,-336.5 531,-306.5 382,-306.5"/>
<text text-anchor="start" x="390" y="-324.5" font-family="Helvetica,sans-Serif" font-size="10.00">ChimeraTK::NetworkVisitor</text>
<text text-anchor="middle" x="456.5" y="-313.5" font-family="Helvetica,sans-Serif" font-size="10.00">::finaliseNetwork</text>
</a>
</g>
</g>
<!-- Node1&#45;&gt;Node9 -->
<g id="edge8" class="edge">
<title>Node1&#45;&gt;Node9</title>
<path fill="none" stroke="midnightblue" d="M616.3,-245.17C595.9,-261.47 566.07,-283.33 537,-297.5 530.13,-300.85 522.7,-303.84 515.23,-306.48"/>
<polygon fill="midnightblue" stroke="midnightblue" points="618.61,-247.81 624.17,-238.79 614.2,-242.37 618.61,-247.81"/>
</g>
<!-- Node10 -->
<g id="node10" class="node">
<title>Node10</title>
<g id="a_node10"><a xlink:href="class_chimera_t_k_1_1_module_group.html#ae72321f545483349ab658a02a91c94c8" target="_top" xlink:title=" ">
<polygon fill="white" stroke="black" points="385,-208.5 385,-238.5 528,-238.5 528,-208.5 385,-208.5"/>
<text text-anchor="start" x="393" y="-226.5" font-family="Helvetica,sans-Serif" font-size="10.00">ChimeraTK::ModuleGroup</text>
<text text-anchor="middle" x="456.5" y="-215.5" font-family="Helvetica,sans-Serif" font-size="10.00">::getVirtualQualifiedName</text>
</a>
</g>
</g>
<!-- Node1&#45;&gt;Node10 -->
<g id="edge10" class="edge">
<title>Node1&#45;&gt;Node10</title>
<path fill="none" stroke="midnightblue" d="M562.73,-223.5C551.19,-223.5 539.38,-223.5 528.04,-223.5"/>
<polygon fill="midnightblue" stroke="midnightblue" points="562.77,-227 572.77,-223.5 562.77,-220 562.77,-227"/>
</g>
<!-- Node11 -->
<g id="node11" class="node">
<title>Node11</title>
<g id="a_node11"><a xlink:href="class_chimera_t_k_1_1_variable_group.html#a381ee71e977e8e3e70956afa2c6606fc" target="_top" xlink:title=" ">
<polygon fill="white" stroke="black" points="383.5,-159.5 383.5,-189.5 529.5,-189.5 529.5,-159.5 383.5,-159.5"/>
<text text-anchor="start" x="391.5" y="-177.5" font-family="Helvetica,sans-Serif" font-size="10.00">ChimeraTK::VariableGroup</text>
<text text-anchor="middle" x="456.5" y="-166.5" font-family="Helvetica,sans-Serif" font-size="10.00">::getVirtualQualifiedName</text>
</a>
</g>
</g>
<!-- Node1&#45;&gt;Node11 -->
<g id="edge11" class="edge">
<title>Node1&#45;&gt;Node11</title>
<path fill="none" stroke="midnightblue" d="M575.64,-205.88C555.46,-200.52 533.47,-194.68 514,-189.51"/>
<polygon fill="midnightblue" stroke="midnightblue" points="574.83,-209.28 585.39,-208.47 576.62,-202.52 574.83,-209.28"/>
</g>
<!-- Node12 -->
<g id="node12" class="node">
<title>Node12</title>
<g id="a_node12"><a xlink:href="struct_chimera_t_k_1_1_status_aggregator.html#a49a9371926f9b187b0652438d43f0ef7" target="_top" xlink:title="To be implemented by the user: function called in a separate thread executing the main loop of the mo...">
<polygon fill="white" stroke="black" points="376,-110.5 376,-140.5 537,-140.5 537,-110.5 376,-110.5"/>
<text text-anchor="start" x="384" y="-128.5" font-family="Helvetica,sans-Serif" font-size="10.00">ChimeraTK::StatusAggregator</text>
<text text-anchor="middle" x="456.5" y="-117.5" font-family="Helvetica,sans-Serif" font-size="10.00">::mainLoop</text>
</a>
</g>
</g>
<!-- Node1&#45;&gt;Node12 -->
<g id="edge12" class="edge">
<title>Node1&#45;&gt;Node12</title>
<path fill="none" stroke="midnightblue" d="M615.83,-201.94C595.4,-185.96 565.73,-164.6 537,-150.5 529.47,-146.8 521.27,-143.5 513.09,-140.6"/>
<polygon fill="midnightblue" stroke="midnightblue" points="613.72,-204.73 623.73,-208.21 618.07,-199.25 613.72,-204.73"/>
</g>
<!-- Node13 -->
<g id="node13" class="node">
<title>Node13</title>
<g id="a_node13"><a xlink:href="struct_chimera_t_k_1_1_network_visitor_1_1_process_variable_comperator.html#a18e3a3cd37117f2b42899ab18b7a488a" target="_top" xlink:title=" ">
<polygon fill="white" stroke="black" points="377.5,-50 377.5,-91 535.5,-91 535.5,-50 377.5,-50"/>
<text text-anchor="start" x="385.5" y="-79" font-family="Helvetica,sans-Serif" font-size="10.00">ChimeraTK::NetworkVisitor</text>
<text text-anchor="start" x="385.5" y="-68" font-family="Helvetica,sans-Serif" font-size="10.00">::ProcessVariableComperator</text>
<text text-anchor="middle" x="456.5" y="-57" font-family="Helvetica,sans-Serif" font-size="10.00">::operator()</text>
</a>
</g>
</g>
<!-- Node1&#45;&gt;Node13 -->
<g id="edge13" class="edge">
<title>Node1&#45;&gt;Node13</title>
<path fill="none" stroke="midnightblue" d="M626.89,-199.78C608.57,-172.69 575.32,-128.63 537,-101.5 531.56,-97.65 525.57,-94.19 519.4,-91.11"/>
<polygon fill="midnightblue" stroke="midnightblue" points="624.08,-201.87 632.52,-208.27 629.91,-198 624.08,-201.87"/>
</g>
<!-- Node14 -->
<g id="node14" class="node">
<title>Node14</title>
<g id="a_node14"><a xlink:href="struct_chimera_t_k_1_1_status_aggregator.html#a5b0c0c8f5b240092b5178c48a2ca7910" target="_top" xlink:title="Recursivly search for StatusMonitors and other StatusAggregators.">
<polygon fill="white" stroke="black" points="376,-0.5 376,-30.5 537,-30.5 537,-0.5 376,-0.5"/>
<text text-anchor="start" x="384" y="-18.5" font-family="Helvetica,sans-Serif" font-size="10.00">ChimeraTK::StatusAggregator</text>
<text text-anchor="middle" x="456.5" y="-7.5" font-family="Helvetica,sans-Serif" font-size="10.00">::populateStatusInput</text>
</a>
</g>
</g>
<!-- Node1&#45;&gt;Node14 -->
<g id="edge14" class="edge">
<title>Node1&#45;&gt;Node14</title>
<path fill="none" stroke="midnightblue" d="M634.43,-198.86C621.12,-159.6 589.8,-82.96 537,-40.5 532.15,-36.6 526.69,-33.31 520.96,-30.52"/>
<polygon fill="midnightblue" stroke="midnightblue" points="631.13,-200.03 637.57,-208.44 637.78,-197.85 631.13,-200.03"/>
</g>
<!-- Node4 -->
<g id="node4" class="node">
<title>Node4</title>
<g id="a_node4"><a xlink:href="class_chimera_t_k_1_1_network_visitor.html#a6699f418b06c5a1fdf94020484bab2a6" target="_top" xlink:title=" ">
<polygon fill="white" stroke="black" points="185,-330.5 185,-360.5 334,-360.5 334,-330.5 185,-330.5"/>
<text text-anchor="start" x="193" y="-348.5" font-family="Helvetica,sans-Serif" font-size="10.00">ChimeraTK::NetworkVisitor</text>
<text text-anchor="middle" x="259.5" y="-337.5" font-family="Helvetica,sans-Serif" font-size="10.00">::checkAndFinaliseNetwork</text>
</a>
</g>
</g>
<!-- Node3&#45;&gt;Node4 -->
<g id="edge3" class="edge">
<title>Node3&#45;&gt;Node4</title>
<path fill="none" stroke="midnightblue" d="M371.78,-359.77C359.22,-358.16 346.34,-356.5 334,-354.92"/>
<polygon fill="midnightblue" stroke="midnightblue" points="371.41,-363.25 381.78,-361.05 372.31,-356.31 371.41,-363.25"/>
</g>
<!-- Node6 -->
<g id="node6" class="node">
<title>Node6</title>
<g id="a_node6"><a xlink:href="class_chimera_t_k_1_1_application.html#a6815195c956c091a6558a316f8fd9976" target="_top" xlink:title="Execute the module.">
<polygon fill="white" stroke="black" points="183,-263 183,-282 336,-282 336,-263 183,-263"/>
<text text-anchor="middle" x="259.5" y="-270" font-family="Helvetica,sans-Serif" font-size="10.00">ChimeraTK::Application::run</text>
</a>
</g>
</g>
<!-- Node5&#45;&gt;Node6 -->
<g id="edge5" class="edge">
<title>Node5&#45;&gt;Node6</title>
<path fill="none" stroke="midnightblue" d="M365.65,-272.5C355.76,-272.5 345.76,-272.5 336.06,-272.5"/>
<polygon fill="midnightblue" stroke="midnightblue" points="365.9,-276 375.9,-272.5 365.9,-269 365.9,-276"/>
</g>
<!-- Node7 -->
<g id="node7" class="node">
<title>Node7</title>
<g id="a_node7"><a xlink:href="test_illegal_networks_8cc.html#a658dd88d29e08cbbaf1f8855879e75dd" target="_top" xlink:title=" ">
<polygon fill="white" stroke="black" points="0,-285 0,-304 143,-304 143,-285 0,-285"/>
<text text-anchor="middle" x="71.5" y="-292" font-family="Helvetica,sans-Serif" font-size="10.00">BOOST_AUTO_TEST_CASE</text>
</a>
</g>
</g>
<!-- Node6&#45;&gt;Node7 -->
<g id="edge6" class="edge">
<title>Node6&#45;&gt;Node7</title>
<path fill="none" stroke="midnightblue" d="M172.66,-282.65C162.83,-283.82 152.89,-284.99 143.28,-286.13"/>
<polygon fill="midnightblue" stroke="midnightblue" points="173.33,-286.1 182.85,-281.45 172.5,-279.15 173.33,-286.1"/>
</g>
<!-- Node8 -->
<g id="node8" class="node">
<title>Node8</title>
<g id="a_node8"><a xlink:href="test_control_system_accessors_8cc.html#a497768cd7df6fb647f3363ce52b90095" target="_top" xlink:title=" ">
<polygon fill="white" stroke="black" points="0,-235.5 0,-265.5 143,-265.5 143,-235.5 0,-235.5"/>
<text text-anchor="start" x="8" y="-253.5" font-family="Helvetica,sans-Serif" font-size="10.00">BOOST_AUTO_TEST_CASE</text>
<text text-anchor="middle" x="71.5" y="-242.5" font-family="Helvetica,sans-Serif" font-size="10.00">_TEMPLATE</text>
</a>
</g>
</g>
<!-- Node6&#45;&gt;Node8 -->
<g id="edge7" class="edge">
<title>Node6&#45;&gt;Node8</title>
<path fill="none" stroke="midnightblue" d="M172.66,-262.35C162.83,-261.18 152.89,-260.01 143.28,-258.87"/>
<polygon fill="midnightblue" stroke="midnightblue" points="172.5,-265.85 182.85,-263.55 173.33,-258.9 172.5,-265.85"/>
</g>
<!-- Node9&#45;&gt;Node4 -->
<g id="edge9" class="edge">
<title>Node9&#45;&gt;Node4</title>
<path fill="none" stroke="midnightblue" d="M371.78,-331.8C359.22,-333.35 346.34,-334.94 334,-336.45"/>
<polygon fill="midnightblue" stroke="midnightblue" points="372.28,-335.27 381.78,-330.57 371.43,-328.32 372.28,-335.27"/>
</g>
<!-- Node15 -->
<g id="node15" class="node">
<title>Node15</title>
<g id="a_node15"><a xlink:href="struct_chimera_t_k_1_1_status_aggregator.html#a09dc00d3a4f0ace9aa3d5e39e3612518" target="_top" xlink:title="Construct StatusAggregator object.">
<polygon fill="white" stroke="black" points="179,-0.5 179,-30.5 340,-30.5 340,-0.5 179,-0.5"/>
<text text-anchor="start" x="187" y="-18.5" font-family="Helvetica,sans-Serif" font-size="10.00">ChimeraTK::StatusAggregator</text>
<text text-anchor="middle" x="259.5" y="-7.5" font-family="Helvetica,sans-Serif" font-size="10.00">::StatusAggregator</text>
</a>
</g>
</g>
<!-- Node14&#45;&gt;Node15 -->
<g id="edge15" class="edge">
<title>Node14&#45;&gt;Node15</title>
<path fill="none" stroke="midnightblue" d="M365.88,-15.5C357.3,-15.5 348.64,-15.5 340.16,-15.5"/>
<polygon fill="midnightblue" stroke="midnightblue" points="365.9,-19 375.9,-15.5 365.9,-12 365.9,-19"/>
</g>
</g>
</svg>
        <g id="navigator" transform="translate(0 0)" fill="#404254">
                <rect fill="#f2f5e9" fill-opacity="0.5" stroke="#606060" stroke-width=".5" x="0" y="0" width="60" height="60"/>
                <use id="zoomplus" xlink:href="#zoomPlus" x="17" y="9" onmousedown="handleZoom(evt,'in')"/>
                <use id="zoomminus" xlink:href="#zoomMin" x="42" y="9" onmousedown="handleZoom(evt,'out')"/>
                <use id="reset" xlink:href="#resetDef" x="30" y="36" onmousedown="handleReset()"/>
                <g id="arrowUp" xlink:href="#dirArrow" transform="translate(30 24)" onmousedown="handlePan(0,-1)">
                  <use xlink:href="#rim" fill="#404040">
                        <set attributeName="fill" to="#808080" begin="arrowUp.mouseover" end="arrowUp.mouseout"/>
                  </use>
                  <path fill="none" stroke="white" stroke-width="1.5" d="M0,-3.0v7 M-2.5,-0.5L0,-3.0L2.5,-0.5"/>
                </g>
                <g id="arrowRight" xlink:href="#dirArrow" transform="rotate(90) translate(36 -43)" onmousedown="handlePan(1,0)">
                  <use xlink:href="#rim" fill="#404040">
                        <set attributeName="fill" to="#808080" begin="arrowRight.mouseover" end="arrowRight.mouseout"/>
                  </use>
                  <path fill="none" stroke="white" stroke-width="1.5" d="M0,-3.0v7 M-2.5,-0.5L0,-3.0L2.5,-0.5"/>
                </g>
                <g id="arrowDown" xlink:href="#dirArrow" transform="rotate(180) translate(-30 -48)" onmousedown="handlePan(0,1)">
                  <use xlink:href="#rim" fill="#404040">
                        <set attributeName="fill" to="#808080" begin="arrowDown.mouseover" end="arrowDown.mouseout"/>
                  </use>
                  <path fill="none" stroke="white" stroke-width="1.5" d="M0,-3.0v7 M-2.5,-0.5L0,-3.0L2.5,-0.5"/>
                </g>
                <g id="arrowLeft" xlink:href="#dirArrow" transform="rotate(270) translate(-36 17)" onmousedown="handlePan(-1,0)">
                  <use xlink:href="#rim" fill="#404040">
                        <set attributeName="fill" to="#808080" begin="arrowLeft.mouseover" end="arrowLeft.mouseout"/>
                  </use>
                  <path fill="none" stroke="white" stroke-width="1.5" d="M0,-3.0v7 M-2.5,-0.5L0,-3.0L2.5,-0.5"/>
                </g>
        </g>
        <svg viewBox="0 0 15 15" width="100%" height="30px" preserveAspectRatio="xMaxYMin meet">
         <g id="arrow_out" transform="scale(0.3 0.3)">
          <a xlink:href="class_chimera_t_k_1_1_model_1_1_proxy_aecc196169581c54fa88c651e2653f99c_icgraph_org.svg" target="_base">
           <rect id="button" ry="5" rx="5" y="6" x="6" height="38" width="38"
                fill="#f2f5e9" fill-opacity="0.5" stroke="#606060" stroke-width="1.0"/>
           <path id="arrow"
             d="M 11.500037,31.436501 C 11.940474,20.09759 22.043105,11.32322 32.158766,21.979434 L 37.068811,17.246167 C 37.068811,17.246167 37.088388,32 37.088388,32 L 22.160133,31.978069 C 22.160133,31.978069 26.997745,27.140456 26.997745,27.140456 C 18.528582,18.264221 13.291696,25.230495 11.500037,31.436501 z"
             style="fill:#404040;"/>
          </a>
         </g>
        </svg>
</svg>
