<?xml version="1.0" encoding="UTF-8" standalone="no"?>
<!DOCTYPE svg PUBLIC "-//W3C//DTD SVG 1.1//EN"
 "http://www.w3.org/Graphics/SVG/1.1/DTD/svg11.dtd">
<!-- Generated by graphviz version 2.40.1 (20161225.0304)
 -->
<!-- Title: ChimeraTK::DeviceModule::run Pages: 1 -->
<!--zoomable 741 -->
<svg id="main" version="1.1" xmlns="http://www.w3.org/2000/svg" xmlns:xlink="http://www.w3.org/1999/xlink" xml:space="preserve" onload="init(evt)">
<style type="text/css"><![CDATA[
.edge:hover path { stroke: red; }
.edge:hover polygon { stroke: red; fill: red; }
]]></style>
<script type="text/javascript"><![CDATA[
var edges = document.getElementsByTagName('g');
if (edges && edges.length) {
  for (var i=0;i<edges.length;i++) {
    if (edges[i].id.substr(0,4)=='edge') {
      edges[i].setAttribute('class','edge');
    }
  }
}
]]></script>
        <defs>
                <circle id="rim" cx="0" cy="0" r="7"/>
                <circle id="rim2" cx="0" cy="0" r="3.5"/>
                <g id="zoomPlus">
                        <use xlink:href="#rim" fill="#404040">
                                <set attributeName="fill" to="#808080" begin="zoomplus.mouseover" end="zoomplus.mouseout"/>
                        </use>
                        <path d="M-4,0h8M0,-4v8" fill="none" stroke="white" stroke-width="1.5" pointer-events="none"/>
                </g>
                <g id="zoomMin">
                        <use xlink:href="#rim" fill="#404040">
                                <set attributeName="fill" to="#808080" begin="zoomminus.mouseover" end="zoomminus.mouseout"/>
                        </use>
                        <path d="M-4,0h8" fill="none" stroke="white" stroke-width="1.5" pointer-events="none"/>
                </g>
                <g id="dirArrow">
                        <path fill="none" stroke="white" stroke-width="1.5" d="M0,-3.0v7 M-2.5,-0.5L0,-3.0L2.5,-0.5"/>
                </g>
               <g id="resetDef">
                       <use xlink:href="#rim2" fill="#404040">
                               <set attributeName="fill" to="#808080" begin="reset.mouseover" end="reset.mouseout"/>
                       </use>
               </g>
        </defs>

<script type="text/javascript">
var viewWidth = 2014;
var viewHeight = 741;
var sectionId = 'dynsection-19';
</script>
<script xlink:href="svgpan.js"/>
<svg id="graph" class="graph">
<g id="viewport">
<title>ChimeraTK::DeviceModule::run</title>
<polygon fill="#ffffff" stroke="transparent" points="-4,4 -4,-736.8127 2010,-736.8127 2010,4 -4,4"/>
<!-- Node260 -->
<g id="node1" class="node">
<title>Node260</title>
<polygon fill="#bfbfbf" stroke="#000000" points="0,-584.8127 0,-603.8127 167,-603.8127 167,-584.8127 0,-584.8127"/>
<text text-anchor="middle" x="83.5" y="-591.8127" font-family="Helvetica,sans-Serif" font-size="10.00" fill="#000000">ChimeraTK::DeviceModule::run</text>
</g>
<!-- Node261 -->
<g id="node2" class="node">
<title>Node261</title>
<g id="a_node2"><a xlink:href="class_chimera_t_k_1_1_device_module.html#ab388c8a6e152379643f96c8fb945d3a3" target="_top" xlink:title="This functions tries to open the device and set the deviceError. ">
<polygon fill="#ffffff" stroke="#000000" points="203,-579.3127 203,-609.3127 349,-609.3127 349,-579.3127 203,-579.3127"/>
<text text-anchor="start" x="211" y="-597.3127" font-family="Helvetica,sans-Serif" font-size="10.00" fill="#000000">ChimeraTK::DeviceModule</text>
<text text-anchor="middle" x="276" y="-586.3127" font-family="Helvetica,sans-Serif" font-size="10.00" fill="#000000">::handleException</text>
</a>
</g>
</g>
<!-- Node260&#45;&gt;Node261 -->
<g id="edge1" class="edge">
<title>Node260&#45;&gt;Node261</title>
<path fill="none" stroke="#191970" d="M167.0935,-594.3127C175.5333,-594.3127 184.1053,-594.3127 192.5437,-594.3127"/>
<polygon fill="#191970" stroke="#191970" points="192.7527,-597.8128 202.7527,-594.3127 192.7526,-590.8128 192.7527,-597.8128"/>
</g>
<!-- Node262 -->
<g id="node3" class="node">
<title>Node262</title>
<g id="a_node3"><a xlink:href="class_chimera_t_k_1_1_application.html#abf343e8bf9893031d1785aa0aa1a1066" target="_top" xlink:title="Register the thread in the application system and give it a name. ">
<polygon fill="#ffffff" stroke="#000000" points="391,-653.3127 391,-683.3127 522,-683.3127 522,-653.3127 391,-653.3127"/>
<text text-anchor="start" x="399" y="-671.3127" font-family="Helvetica,sans-Serif" font-size="10.00" fill="#000000">ChimeraTK::Application</text>
<text text-anchor="middle" x="456.5" y="-660.3127" font-family="Helvetica,sans-Serif" font-size="10.00" fill="#000000">::registerThread</text>
</a>
</g>
</g>
<!-- Node261&#45;&gt;Node262 -->
<g id="edge2" class="edge">
<title>Node261&#45;&gt;Node262</title>
<path fill="none" stroke="#191970" d="M307.646,-609.4084C329.2368,-619.4919 358.5971,-632.7848 385,-643.3127 390.4776,-645.4968 396.2302,-647.6829 401.9932,-649.8032"/>
<polygon fill="#191970" stroke="#191970" points="401.061,-653.1879 411.6553,-653.2974 403.4417,-646.6051 401.061,-653.1879"/>
</g>
<!-- Node266 -->
<g id="node7" class="node">
<title>Node266</title>
<g id="a_node7"><a xlink:href="class_chimera_t_k_1_1_entity_owner.html#a9ac0f0454393196b8abb3b2393ca69c5" target="_top" xlink:title="Get the name of the module instance. ">
<polygon fill="#ffffff" stroke="#000000" points="1512.5,-429.3127 1512.5,-459.3127 1649.5,-459.3127 1649.5,-429.3127 1512.5,-429.3127"/>
<text text-anchor="start" x="1520.5" y="-447.3127" font-family="Helvetica,sans-Serif" font-size="10.00" fill="#000000">ChimeraTK::EntityOwner</text>
<text text-anchor="middle" x="1581" y="-436.3127" font-family="Helvetica,sans-Serif" font-size="10.00" fill="#000000">::getName</text>
</a>
</g>
</g>
<!-- Node261&#45;&gt;Node266 -->
<g id="edge6" class="edge">
<title>Node261&#45;&gt;Node266</title>
<path fill="none" stroke="#191970" d="M302.3769,-579.3097C323.8864,-567.8607 355.4387,-552.8182 385,-545.3127 494.5082,-517.5091 525.5173,-526.3127 638.5,-526.3127 638.5,-526.3127 638.5,-526.3127 1207,-526.3127 1325.0854,-526.3127 1459.3786,-486.8272 1530.524,-462.6561"/>
<polygon fill="#191970" stroke="#191970" points="1531.816,-465.913 1540.1355,-459.3528 1529.5408,-459.2931 1531.816,-465.913"/>
</g>
<!-- Node268 -->
<g id="node9" class="node">
<title>Node268</title>
<g id="a_node9"><a xlink:href="class_chimera_t_k_1_1_module.html#a19a036a23479885e7dbd39e395c544c4" target="_top" xlink:title="Set the current version number. ">
<polygon fill="#ffffff" stroke="#000000" points="385,-604.3127 385,-634.3127 528,-634.3127 528,-604.3127 385,-604.3127"/>
<text text-anchor="start" x="393" y="-622.3127" font-family="Helvetica,sans-Serif" font-size="10.00" fill="#000000">ChimeraTK::Module::</text>
<text text-anchor="middle" x="456.5" y="-611.3127" font-family="Helvetica,sans-Serif" font-size="10.00" fill="#000000">setCurrentVersionNumber</text>
</a>
</g>
</g>
<!-- Node261&#45;&gt;Node268 -->
<g id="edge8" class="edge">
<title>Node261&#45;&gt;Node268</title>
<path fill="none" stroke="#191970" d="M349.1561,-604.4451C357.6549,-605.6222 366.3637,-606.8284 374.9658,-608.0199"/>
<polygon fill="#191970" stroke="#191970" points="374.6104,-611.504 384.9961,-609.4091 375.5708,-604.5702 374.6104,-611.504"/>
</g>
<!-- Node270 -->
<g id="node11" class="node">
<title>Node270</title>
<g id="a_node11"><a xlink:href="class_chimera_t_k_1_1_module.html#a7cabaa7c9d97adc5c3ed37430b27ee3e" target="_top" xlink:title="Just call write() on all writable variables in the group. ">
<polygon fill="#ffffff" stroke="#000000" points="397.5,-555.3127 397.5,-585.3127 515.5,-585.3127 515.5,-555.3127 397.5,-555.3127"/>
<text text-anchor="start" x="405.5" y="-573.3127" font-family="Helvetica,sans-Serif" font-size="10.00" fill="#000000">ChimeraTK::Module::</text>
<text text-anchor="middle" x="456.5" y="-562.3127" font-family="Helvetica,sans-Serif" font-size="10.00" fill="#000000">writeAll</text>
</a>
</g>
</g>
<!-- Node261&#45;&gt;Node270 -->
<g id="edge10" class="edge">
<title>Node261&#45;&gt;Node270</title>
<path fill="none" stroke="#191970" d="M349.1561,-584.5856C361.6768,-582.9208 374.6532,-581.1954 387.0731,-579.544"/>
<polygon fill="#191970" stroke="#191970" points="387.9012,-582.9648 397.3526,-578.1772 386.9785,-576.0258 387.9012,-582.9648"/>
</g>
<!-- Node263 -->
<g id="node4" class="node">
<title>Node263</title>
<g id="a_node4"><a xlink:href="class_chimera_t_k_1_1_application.html#aa11ef4e6eb1a40a4cdd1c5941bc90639" target="_top" xlink:title="Get string holding the name of the current thread. ">
<polygon fill="#ffffff" stroke="#000000" points="573,-702.3127 573,-732.3127 704,-732.3127 704,-702.3127 573,-702.3127"/>
<text text-anchor="start" x="581" y="-720.3127" font-family="Helvetica,sans-Serif" font-size="10.00" fill="#000000">ChimeraTK::Application</text>
<text text-anchor="middle" x="638.5" y="-709.3127" font-family="Helvetica,sans-Serif" font-size="10.00" fill="#000000">::threadName</text>
</a>
</g>
</g>
<!-- Node262&#45;&gt;Node263 -->
<g id="edge3" class="edge">
<title>Node262&#45;&gt;Node263</title>
<path fill="none" stroke="#191970" d="M512.5911,-683.4141C531.6225,-688.538 553.055,-694.3083 572.7691,-699.6159"/>
<polygon fill="#191970" stroke="#191970" points="572.0281,-703.041 582.5941,-702.2611 573.8479,-696.2817 572.0281,-703.041"/>
</g>
<!-- Node264 -->
<g id="node5" class="node">
<title>Node264</title>
<g id="a_node5"><a xlink:href="class_chimera_t_k_1_1_profiler.html#a3c025d8af36c5c6415190b3843f5bb16" target="_top" xlink:title="Register a thread in the profiler. ">
<polygon fill="#ffffff" stroke="#000000" points="583,-653.3127 583,-683.3127 694,-683.3127 694,-653.3127 583,-653.3127"/>
<text text-anchor="start" x="591" y="-671.3127" font-family="Helvetica,sans-Serif" font-size="10.00" fill="#000000">ChimeraTK::Profiler</text>
<text text-anchor="middle" x="638.5" y="-660.3127" font-family="Helvetica,sans-Serif" font-size="10.00" fill="#000000">::registerThread</text>
</a>
</g>
</g>
<!-- Node262&#45;&gt;Node264 -->
<g id="edge4" class="edge">
<title>Node262&#45;&gt;Node264</title>
<path fill="none" stroke="#191970" d="M522.2062,-668.3127C538.6485,-668.3127 556.2875,-668.3127 572.7328,-668.3127"/>
<polygon fill="#191970" stroke="#191970" points="572.7967,-671.8128 582.7966,-668.3127 572.7966,-664.8128 572.7967,-671.8128"/>
</g>
<!-- Node265 -->
<g id="node6" class="node">
<title>Node265</title>
<g id="a_node6"><a xlink:href="class_chimera_t_k_1_1_profiler.html#a554c05bc62a8da847726645b94a62e5c" target="_top" xlink:title="Start the time measurement for the current thread. ">
<polygon fill="#ffffff" stroke="#000000" points="767.5,-653.3127 767.5,-683.3127 879.5,-683.3127 879.5,-653.3127 767.5,-653.3127"/>
<text text-anchor="start" x="775.5" y="-671.3127" font-family="Helvetica,sans-Serif" font-size="10.00" fill="#000000">ChimeraTK::Profiler</text>
<text text-anchor="middle" x="823.5" y="-660.3127" font-family="Helvetica,sans-Serif" font-size="10.00" fill="#000000">::startMeasurement</text>
</a>
</g>
</g>
<!-- Node264&#45;&gt;Node265 -->
<g id="edge5" class="edge">
<title>Node264&#45;&gt;Node265</title>
<path fill="none" stroke="#191970" d="M694.0061,-668.3127C713.9454,-668.3127 736.6304,-668.3127 757.3822,-668.3127"/>
<polygon fill="#191970" stroke="#191970" points="757.3937,-671.8128 767.3937,-668.3127 757.3936,-664.8128 757.3937,-671.8128"/>
</g>
<!-- Node267 -->
<g id="node8" class="node">
<title>Node267</title>
<g id="a_node8"><a xlink:href="class_chimera_t_k_1_1_entity_owner.html#aa3fc963233d251705cd197ced1aa0876" target="_top" xlink:title="Get the fully qualified name of the module instance, i.e. ">
<polygon fill="#ffffff" stroke="#000000" points="1696,-429.3127 1696,-459.3127 1833,-459.3127 1833,-429.3127 1696,-429.3127"/>
<text text-anchor="start" x="1704" y="-447.3127" font-family="Helvetica,sans-Serif" font-size="10.00" fill="#000000">ChimeraTK::EntityOwner</text>
<text text-anchor="middle" x="1764.5" y="-436.3127" font-family="Helvetica,sans-Serif" font-size="10.00" fill="#000000">::getQualifiedName</text>
</a>
</g>
</g>
<!-- Node266&#45;&gt;Node267 -->
<g id="edge7" class="edge">
<title>Node266&#45;&gt;Node267</title>
<path fill="none" stroke="#191970" d="M1649.5896,-444.3127C1661.4395,-444.3127 1673.8409,-444.3127 1685.9305,-444.3127"/>
<polygon fill="#191970" stroke="#191970" points="1685.9936,-447.8128 1695.9935,-444.3127 1685.9935,-440.8128 1685.9936,-447.8128"/>
</g>
<!-- Node269 -->
<g id="node10" class="node">
<title>Node269</title>
<g id="a_node10"><a xlink:href="class_chimera_t_k_1_1_entity_owner.html#a5e2a53bcd523efe6546098aec632a60b" target="_top" xlink:title="Set the current version number. ">
<polygon fill="#ffffff" stroke="#000000" points="564,-604.3127 564,-634.3127 713,-634.3127 713,-604.3127 564,-604.3127"/>
<text text-anchor="start" x="572" y="-622.3127" font-family="Helvetica,sans-Serif" font-size="10.00" fill="#000000">ChimeraTK::EntityOwner</text>
<text text-anchor="middle" x="638.5" y="-611.3127" font-family="Helvetica,sans-Serif" font-size="10.00" fill="#000000">::setCurrentVersionNumber</text>
</a>
</g>
</g>
<!-- Node268&#45;&gt;Node269 -->
<g id="edge9" class="edge">
<title>Node268&#45;&gt;Node269</title>
<path fill="none" stroke="#191970" d="M528.17,-619.3127C536.6066,-619.3127 545.2756,-619.3127 553.8685,-619.3127"/>
<polygon fill="#191970" stroke="#191970" points="553.9024,-622.8128 563.9023,-619.3127 553.9023,-615.8128 553.9024,-622.8128"/>
</g>
<!-- Node271 -->
<g id="node12" class="node">
<title>Node271</title>
<g id="a_node12"><a xlink:href="class_chimera_t_k_1_1_module.html#a18f537b069bebcf366f78b989f244994" target="_top" xlink:title="Return the current version number which has been received with the last pusy&#45;type read operation...">
<polygon fill="#ffffff" stroke="#000000" points="567,-555.3127 567,-585.3127 710,-585.3127 710,-555.3127 567,-555.3127"/>
<text text-anchor="start" x="575" y="-573.3127" font-family="Helvetica,sans-Serif" font-size="10.00" fill="#000000">ChimeraTK::Module::</text>
<text text-anchor="middle" x="638.5" y="-562.3127" font-family="Helvetica,sans-Serif" font-size="10.00" fill="#000000">getCurrentVersionNumber</text>
</a>
</g>
</g>
<!-- Node270&#45;&gt;Node271 -->
<g id="edge11" class="edge">
<title>Node270&#45;&gt;Node271</title>
<path fill="none" stroke="#191970" d="M515.5902,-570.3127C528.7867,-570.3127 543.0083,-570.3127 556.9322,-570.3127"/>
<polygon fill="#191970" stroke="#191970" points="556.9994,-573.8128 566.9994,-570.3127 556.9993,-566.8128 556.9994,-573.8128"/>
</g>
<!-- Node273 -->
<g id="node14" class="node">
<title>Node273</title>
<g id="a_node14"><a xlink:href="class_chimera_t_k_1_1_entity_owner.html#a40de1606ef235a05c84b8e24ef06527d" target="_top" xlink:title="Obtain the list of accessors/variables associated with this instance and any submodules. ">
<polygon fill="#ffffff" stroke="#000000" points="565.5,-228.3127 565.5,-258.3127 711.5,-258.3127 711.5,-228.3127 565.5,-228.3127"/>
<text text-anchor="start" x="573.5" y="-246.3127" font-family="Helvetica,sans-Serif" font-size="10.00" fill="#000000">ChimeraTK::EntityOwner</text>
<text text-anchor="middle" x="638.5" y="-235.3127" font-family="Helvetica,sans-Serif" font-size="10.00" fill="#000000">::getAccessorListRecursive</text>
</a>
</g>
</g>
<!-- Node270&#45;&gt;Node273 -->
<g id="edge13" class="edge">
<title>Node270&#45;&gt;Node273</title>
<path fill="none" stroke="#191970" d="M465.0341,-554.9794C494.1121,-502.7349 589.4774,-331.3918 625.0033,-267.5622"/>
<polygon fill="#191970" stroke="#191970" points="628.1793,-269.0528 629.9843,-258.6128 622.0628,-265.6485 628.1793,-269.0528"/>
</g>
<!-- Node272 -->
<g id="node13" class="node">
<title>Node272</title>
<g id="a_node13"><a xlink:href="class_chimera_t_k_1_1_entity_owner.html#a83a34142cea47d7396de8a3657004ef7" target="_top" xlink:title="Return the current version number which has been received with the last pusy&#45;type read operation...">
<polygon fill="#ffffff" stroke="#000000" points="749,-555.3127 749,-585.3127 898,-585.3127 898,-555.3127 749,-555.3127"/>
<text text-anchor="start" x="757" y="-573.3127" font-family="Helvetica,sans-Serif" font-size="10.00" fill="#000000">ChimeraTK::EntityOwner</text>
<text text-anchor="middle" x="823.5" y="-562.3127" font-family="Helvetica,sans-Serif" font-size="10.00" fill="#000000">::getCurrentVersionNumber</text>
</a>
</g>
</g>
<!-- Node271&#45;&gt;Node272 -->
<g id="edge12" class="edge">
<title>Node271&#45;&gt;Node272</title>
<path fill="none" stroke="#191970" d="M710.0258,-570.3127C719.3595,-570.3127 728.994,-570.3127 738.5213,-570.3127"/>
<polygon fill="#191970" stroke="#191970" points="738.7982,-573.8128 748.7981,-570.3127 738.7981,-566.8128 738.7982,-573.8128"/>
</g>
<!-- Node274 -->
<g id="node15" class="node">
<title>Node274</title>
<g id="a_node15"><a xlink:href="class_chimera_t_k_1_1_entity_owner.html#ad46327064e76c3cca1cfd32bd6f99412" target="_top" xlink:title="Obtain the list of accessors/variables directly associated with this instance. ">
<polygon fill="#ffffff" stroke="#000000" points="1869,-360.3127 1869,-390.3127 2006,-390.3127 2006,-360.3127 1869,-360.3127"/>
<text text-anchor="start" x="1877" y="-378.3127" font-family="Helvetica,sans-Serif" font-size="10.00" fill="#000000">ChimeraTK::EntityOwner</text>
<text text-anchor="middle" x="1937.5" y="-367.3127" font-family="Helvetica,sans-Serif" font-size="10.00" fill="#000000">::getAccessorList</text>
</a>
</g>
</g>
<!-- Node273&#45;&gt;Node274 -->
<g id="edge14" class="edge">
<title>Node273&#45;&gt;Node274</title>
<path fill="none" stroke="#191970" d="M650.1879,-258.6385C692.5443,-312.275 844.4026,-488.3127 1013,-488.3127 1013,-488.3127 1013,-488.3127 1581,-488.3127 1693.3522,-488.3127 1729.6581,-512.3974 1833,-468.3127 1868.6548,-453.1027 1900.4711,-420.7078 1919.3757,-398.4691"/>
<polygon fill="#191970" stroke="#191970" points="1922.2911,-400.4359 1925.9699,-390.5002 1916.8981,-395.9732 1922.2911,-400.4359"/>
</g>
<!-- Node275 -->
<g id="node16" class="node">
<title>Node275</title>
<g id="a_node16"><a xlink:href="class_chimera_t_k_1_1_entity_owner.html#ad0a0084d1642fdf174613b127f0c54ed" target="_top" xlink:title="Obtain the list of submodules associated with this instance. ">
<polygon fill="#ffffff" stroke="#000000" points="755,-228.3127 755,-258.3127 892,-258.3127 892,-228.3127 755,-228.3127"/>
<text text-anchor="start" x="763" y="-246.3127" font-family="Helvetica,sans-Serif" font-size="10.00" fill="#000000">ChimeraTK::EntityOwner</text>
<text text-anchor="middle" x="823.5" y="-235.3127" font-family="Helvetica,sans-Serif" font-size="10.00" fill="#000000">::getSubmoduleList</text>
</a>
</g>
</g>
<!-- Node273&#45;&gt;Node275 -->
<g id="edge15" class="edge">
<title>Node273&#45;&gt;Node275</title>
<path fill="none" stroke="#191970" d="M711.6169,-236.6962C722.5199,-236.544 733.799,-236.5219 744.8111,-236.63"/>
<polygon fill="#191970" stroke="#191970" points="744.784,-240.1299 754.8306,-236.7659 744.879,-233.1305 744.784,-240.1299"/>
</g>
<!-- Node275&#45;&gt;Node273 -->
<g id="edge16" class="edge">
<title>Node275&#45;&gt;Node273</title>
<path fill="none" stroke="#191970" d="M754.8306,-249.8595C744.0424,-250.0473 732.7902,-250.1049 721.7171,-250.0324"/>
<polygon fill="#191970" stroke="#191970" points="721.6522,-246.5316 711.6169,-249.9292 721.5806,-253.5313 721.6522,-246.5316"/>
</g>
<!-- Node276 -->
<g id="node17" class="node">
<title>Node276</title>
<g id="a_node17"><a xlink:href="class_chimera_t_k_1_1_entity_owner.html#a3f8825f36ec3d9db2a32f8707afe735c" target="_top" xlink:title="Obtain the list of submodules associated with this instance and any submodules. ">
<polygon fill="#ffffff" stroke="#000000" points="934,-228.3127 934,-258.3127 1092,-258.3127 1092,-228.3127 934,-228.3127"/>
<text text-anchor="start" x="942" y="-246.3127" font-family="Helvetica,sans-Serif" font-size="10.00" fill="#000000">ChimeraTK::EntityOwner</text>
<text text-anchor="middle" x="1013" y="-235.3127" font-family="Helvetica,sans-Serif" font-size="10.00" fill="#000000">::getSubmoduleListRecursive</text>
</a>
</g>
</g>
<!-- Node275&#45;&gt;Node276 -->
<g id="edge17" class="edge">
<title>Node275&#45;&gt;Node276</title>
<path fill="none" stroke="#191970" d="M892.1818,-236.7951C902.4561,-236.6075 913.1739,-236.5335 923.7984,-236.573"/>
<polygon fill="#191970" stroke="#191970" points="923.9138,-240.0738 933.9386,-236.6456 923.964,-233.074 923.9138,-240.0738"/>
</g>
<!-- Node277 -->
<g id="node18" class="node">
<title>Node277</title>
<g id="a_node18"><a xlink:href="class_chimera_t_k_1_1_entity_owner.html#a0bcb02caefb83338f3ad8def4c5f0af7" target="_top" xlink:title="Check whether a submodule exists by the given name (not taking into account eliminated hierarchies et...">
<polygon fill="#ffffff" stroke="#000000" points="1325.5,-39.3127 1325.5,-69.3127 1462.5,-69.3127 1462.5,-39.3127 1325.5,-39.3127"/>
<text text-anchor="start" x="1333.5" y="-57.3127" font-family="Helvetica,sans-Serif" font-size="10.00" fill="#000000">ChimeraTK::EntityOwner</text>
<text text-anchor="middle" x="1394" y="-46.3127" font-family="Helvetica,sans-Serif" font-size="10.00" fill="#000000">::hasSubmodule</text>
</a>
</g>
</g>
<!-- Node275&#45;&gt;Node277 -->
<g id="edge19" class="edge">
<title>Node275&#45;&gt;Node277</title>
<path fill="none" stroke="#191970" d="M829.6122,-227.9325C844.1666,-199.1048 883.4668,-139.1614 934,-111.3127 1054.6702,-44.8116 1219.0522,-37.6648 1315.125,-42.9481"/>
<polygon fill="#191970" stroke="#191970" points="1315.1545,-46.4563 1325.3493,-43.5728 1315.5815,-39.4694 1315.1545,-46.4563"/>
</g>
<!-- Node278 -->
<g id="node19" class="node">
<title>Node278</title>
<g id="a_node19"><a xlink:href="class_chimera_t_k_1_1_entity_owner.html#a2906bfcc6c188b9515b67efaad030d7e" target="_top" xlink:title="Get a submodule by the given name (not taking into account eliminated hierarchies etc...">
<polygon fill="#ffffff" stroke="#000000" points="1325.5,-429.3127 1325.5,-459.3127 1462.5,-459.3127 1462.5,-429.3127 1325.5,-429.3127"/>
<text text-anchor="start" x="1333.5" y="-447.3127" font-family="Helvetica,sans-Serif" font-size="10.00" fill="#000000">ChimeraTK::EntityOwner</text>
<text text-anchor="middle" x="1394" y="-436.3127" font-family="Helvetica,sans-Serif" font-size="10.00" fill="#000000">::getSubmodule</text>
</a>
</g>
</g>
<!-- Node275&#45;&gt;Node278 -->
<g id="edge21" class="edge">
<title>Node275&#45;&gt;Node278</title>
<path fill="none" stroke="#191970" d="M830.3669,-258.3847C843.8035,-290.972 877.3133,-366.1447 934,-399.3127 1052.5283,-468.665 1218.594,-461.2763 1315.3758,-451.5295"/>
<polygon fill="#191970" stroke="#191970" points="1315.8008,-455.0043 1325.3854,-450.4892 1315.0771,-448.0418 1315.8008,-455.0043"/>
</g>
<!-- Node279 -->
<g id="node20" class="node">
<title>Node279</title>
<g id="a_node20"><a xlink:href="class_chimera_t_k_1_1_entity_owner.html#a10abe5f666483380a4dee7fb8caacd86" target="_top" xlink:title="Return a VirtualModule containing the part of the tree structure matching the given tag...">
<polygon fill="#ffffff" stroke="#000000" points="944.5,-179.3127 944.5,-209.3127 1081.5,-209.3127 1081.5,-179.3127 944.5,-179.3127"/>
<text text-anchor="start" x="952.5" y="-197.3127" font-family="Helvetica,sans-Serif" font-size="10.00" fill="#000000">ChimeraTK::EntityOwner</text>
<text text-anchor="middle" x="1013" y="-186.3127" font-family="Helvetica,sans-Serif" font-size="10.00" fill="#000000">::findTag</text>
</a>
</g>
</g>
<!-- Node275&#45;&gt;Node279 -->
<g id="edge24" class="edge">
<title>Node275&#45;&gt;Node279</title>
<path fill="none" stroke="#191970" d="M881.6441,-228.2781C901.7436,-223.0808 924.4401,-217.2121 945.2427,-211.8331"/>
<polygon fill="#191970" stroke="#191970" points="946.1605,-215.2109 954.9659,-209.3189 944.4081,-208.4338 946.1605,-215.2109"/>
</g>
<!-- Node290 -->
<g id="node31" class="node">
<title>Node290</title>
<g id="a_node31"><a xlink:href="class_chimera_t_k_1_1_entity_owner.html#af3793d15629cb8b73413a1444008d709" target="_top" xlink:title="Return a VirtualModule containing the part of the tree structure not matching the given tag...">
<polygon fill="#ffffff" stroke="#000000" points="944.5,-130.3127 944.5,-160.3127 1081.5,-160.3127 1081.5,-130.3127 944.5,-130.3127"/>
<text text-anchor="start" x="952.5" y="-148.3127" font-family="Helvetica,sans-Serif" font-size="10.00" fill="#000000">ChimeraTK::EntityOwner</text>
<text text-anchor="middle" x="1013" y="-137.3127" font-family="Helvetica,sans-Serif" font-size="10.00" fill="#000000">::excludeTag</text>
</a>
</g>
</g>
<!-- Node275&#45;&gt;Node290 -->
<g id="edge44" class="edge">
<title>Node275&#45;&gt;Node290</title>
<path fill="none" stroke="#191970" d="M842.411,-228.0927C863.6209,-211.6514 899.5735,-185.6258 934,-169.3127 938.0439,-167.3965 942.2764,-165.5907 946.5913,-163.8969"/>
<polygon fill="#191970" stroke="#191970" points="947.9637,-167.1211 956.1278,-160.3685 945.5346,-160.556 947.9637,-167.1211"/>
</g>
<!-- Node276&#45;&gt;Node275 -->
<g id="edge18" class="edge">
<title>Node276&#45;&gt;Node275</title>
<path fill="none" stroke="#191970" d="M933.9386,-249.9798C923.537,-250.0906 912.8759,-250.0903 902.4757,-249.9789"/>
<polygon fill="#191970" stroke="#191970" points="902.2313,-246.4751 892.1818,-249.8303 902.1302,-253.4743 902.2313,-246.4751"/>
</g>
<!-- Node277&#45;&gt;Node275 -->
<g id="edge20" class="edge">
<title>Node277&#45;&gt;Node275</title>
<path fill="none" stroke="#191970" d="M1325.3493,-55.6235C1231.0895,-55.2227 1059.0671,-60.3885 934,-129.3127 894.246,-151.221 861.4438,-192.9922 842.1726,-219.6092"/>
<polygon fill="#191970" stroke="#191970" points="839.1383,-217.8351 836.1654,-228.0043 844.831,-221.9086 839.1383,-217.8351"/>
</g>
<!-- Node278&#45;&gt;Node266 -->
<g id="edge23" class="edge">
<title>Node278&#45;&gt;Node266</title>
<path fill="none" stroke="#191970" d="M1462.5701,-444.3127C1475.5281,-444.3127 1489.1753,-444.3127 1502.4132,-444.3127"/>
<polygon fill="#191970" stroke="#191970" points="1502.4383,-447.8128 1512.4382,-444.3127 1502.4382,-440.8128 1502.4383,-447.8128"/>
</g>
<!-- Node278&#45;&gt;Node275 -->
<g id="edge22" class="edge">
<title>Node278&#45;&gt;Node275</title>
<path fill="none" stroke="#191970" d="M1342.4631,-459.3657C1252.6285,-477.0006 1064.5012,-493.6704 934,-417.3127 876.91,-383.9087 843.3278,-307.9001 830.0831,-268.1189"/>
<polygon fill="#191970" stroke="#191970" points="833.3581,-266.8662 827.0173,-258.3783 826.6811,-268.9678 833.3581,-266.8662"/>
</g>
<!-- Node280 -->
<g id="node21" class="node">
<title>Node280</title>
<g id="a_node21"><a xlink:href="class_chimera_t_k_1_1_entity_owner.html#a44d138bbe63552b5b8dd9a128c76fcbe" target="_top" xlink:title="Return the module type of this module, or in case of a VirtualModule the module type this VirtualModu...">
<polygon fill="#ffffff" stroke="#000000" points="1696,-150.3127 1696,-180.3127 1833,-180.3127 1833,-150.3127 1696,-150.3127"/>
<text text-anchor="start" x="1704" y="-168.3127" font-family="Helvetica,sans-Serif" font-size="10.00" fill="#000000">ChimeraTK::EntityOwner</text>
<text text-anchor="middle" x="1764.5" y="-157.3127" font-family="Helvetica,sans-Serif" font-size="10.00" fill="#000000">::getModuleType</text>
</a>
</g>
</g>
<!-- Node279&#45;&gt;Node280 -->
<g id="edge25" class="edge">
<title>Node279&#45;&gt;Node280</title>
<path fill="none" stroke="#191970" d="M1081.6828,-191.6623C1221.363,-186.2721 1537.7928,-174.0612 1685.6292,-168.3563"/>
<polygon fill="#191970" stroke="#191970" points="1686.1197,-171.84 1695.9773,-167.957 1685.8497,-164.8453 1686.1197,-171.84"/>
</g>
<!-- Node281 -->
<g id="node22" class="node">
<title>Node281</title>
<g id="a_node22"><a xlink:href="class_chimera_t_k_1_1_application.html#aa3c1c63e078d14fb104431a15951a070" target="_top" xlink:title="Obtain instance of the application. ">
<polygon fill="#ffffff" stroke="#000000" points="1141.5,-130.3127 1141.5,-160.3127 1272.5,-160.3127 1272.5,-130.3127 1141.5,-130.3127"/>
<text text-anchor="start" x="1149.5" y="-148.3127" font-family="Helvetica,sans-Serif" font-size="10.00" fill="#000000">ChimeraTK::Application</text>
<text text-anchor="middle" x="1207" y="-137.3127" font-family="Helvetica,sans-Serif" font-size="10.00" fill="#000000">::getInstance</text>
</a>
</g>
</g>
<!-- Node279&#45;&gt;Node281 -->
<g id="edge26" class="edge">
<title>Node279&#45;&gt;Node281</title>
<path fill="none" stroke="#191970" d="M1072.5248,-179.2781C1093.1016,-174.0808 1116.3371,-168.2121 1137.6336,-162.8331"/>
<polygon fill="#191970" stroke="#191970" points="1138.7494,-166.1613 1147.5878,-160.3189 1137.0351,-159.3744 1138.7494,-166.1613"/>
</g>
<!-- Node282 -->
<g id="node23" class="node">
<title>Node282</title>
<g id="a_node23"><a xlink:href="class_chimera_t_k_1_1_entity_owner.html#af0583ea0d31901957f26d01af550eda2" target="_top" xlink:title="Add the part of the tree structure matching the given tag to a VirtualModule. ">
<polygon fill="#ffffff" stroke="#000000" points="1128,-233.3127 1128,-263.3127 1286,-263.3127 1286,-233.3127 1128,-233.3127"/>
<text text-anchor="start" x="1136" y="-251.3127" font-family="Helvetica,sans-Serif" font-size="10.00" fill="#000000">ChimeraTK::EntityOwner</text>
<text text-anchor="middle" x="1207" y="-240.3127" font-family="Helvetica,sans-Serif" font-size="10.00" fill="#000000">::findTagAndAppendToModule</text>
</a>
</g>
</g>
<!-- Node279&#45;&gt;Node282 -->
<g id="edge27" class="edge">
<title>Node279&#45;&gt;Node282</title>
<path fill="none" stroke="#191970" d="M1067.0398,-209.3547C1090.5906,-215.9101 1118.3754,-223.644 1142.9559,-230.486"/>
<polygon fill="#191970" stroke="#191970" points="1142.3415,-233.948 1152.9139,-233.2578 1144.2187,-227.2043 1142.3415,-233.948"/>
</g>
<!-- Node282&#45;&gt;Node274 -->
<g id="edge33" class="edge">
<title>Node282&#45;&gt;Node274</title>
<path fill="none" stroke="#191970" d="M1286.0532,-251.8777C1396.3606,-257.2588 1590.7124,-268.3292 1660,-282.3127 1744.3387,-299.3338 1838.5179,-334.5273 1892.6191,-356.4055"/>
<polygon fill="#191970" stroke="#191970" points="1891.3383,-359.663 1901.9198,-360.1955 1893.9799,-353.1805 1891.3383,-359.663"/>
</g>
<!-- Node282&#45;&gt;Node275 -->
<g id="edge36" class="edge">
<title>Node282&#45;&gt;Node275</title>
<path fill="none" stroke="#191970" d="M1127.7157,-263.1514C1115.7856,-264.8785 1103.5967,-266.3612 1092,-267.3127 1022.013,-273.0553 1003.8211,-274.8077 934,-267.3127 920.178,-265.829 905.5479,-263.3297 891.6142,-260.4903"/>
<polygon fill="#191970" stroke="#191970" points="892.1212,-257.0201 881.613,-258.3723 890.6709,-263.8683 892.1212,-257.0201"/>
</g>
<!-- Node282&#45;&gt;Node277 -->
<g id="edge37" class="edge">
<title>Node282&#45;&gt;Node277</title>
<path fill="none" stroke="#191970" d="M1223.8734,-233.041C1240.4686,-217.6622 1266.1315,-192.8999 1286,-169.3127 1303.8744,-148.0928 1303.51,-138.9984 1322,-118.3127 1335.6029,-103.0944 1352.6002,-87.8403 1366.6636,-76.0434"/>
<polygon fill="#191970" stroke="#191970" points="1369.076,-78.5904 1374.557,-69.5235 1364.6181,-73.1934 1369.076,-78.5904"/>
</g>
<!-- Node282&#45;&gt;Node278 -->
<g id="edge38" class="edge">
<title>Node282&#45;&gt;Node278</title>
<path fill="none" stroke="#191970" d="M1219.1711,-263.5125C1239.5404,-288.6611 1282.225,-340.1395 1322,-380.3127 1336.5579,-395.0163 1353.8608,-410.4557 1367.8555,-422.4856"/>
<polygon fill="#191970" stroke="#191970" points="1365.7861,-425.3206 1375.6673,-429.1433 1370.3267,-419.9929 1365.7861,-425.3206"/>
</g>
<!-- Node282&#45;&gt;Node280 -->
<g id="edge28" class="edge">
<title>Node282&#45;&gt;Node280</title>
<path fill="none" stroke="#191970" d="M1286.0274,-245.5755C1377.1182,-241.166 1530.8765,-229.8584 1660,-201.3127 1679.2867,-197.0489 1699.9591,-190.3934 1717.7844,-183.959"/>
<polygon fill="#191970" stroke="#191970" points="1719.197,-187.1686 1727.3675,-180.4237 1716.7742,-180.6012 1719.197,-187.1686"/>
</g>
<!-- Node283 -->
<g id="node24" class="node">
<title>Node283</title>
<g id="a_node24"><a xlink:href="class_chimera_t_k_1_1_entity_owner.html#a86a370822f4d962d9a4a4634ddd29d27" target="_top" xlink:title="Note: this function is deprectated. ">
<polygon fill="#ffffff" stroke="#000000" points="1325.5,-128.3127 1325.5,-158.3127 1462.5,-158.3127 1462.5,-128.3127 1325.5,-128.3127"/>
<text text-anchor="start" x="1333.5" y="-146.3127" font-family="Helvetica,sans-Serif" font-size="10.00" fill="#000000">ChimeraTK::EntityOwner</text>
<text text-anchor="middle" x="1394" y="-135.3127" font-family="Helvetica,sans-Serif" font-size="10.00" fill="#000000">::getEliminateHierarchy</text>
</a>
</g>
</g>
<!-- Node282&#45;&gt;Node283 -->
<g id="edge29" class="edge">
<title>Node282&#45;&gt;Node283</title>
<path fill="none" stroke="#191970" d="M1233.7925,-233.2688C1266.564,-214.8677 1322.1486,-183.6571 1358.4649,-163.2655"/>
<polygon fill="#191970" stroke="#191970" points="1360.2513,-166.2766 1367.2572,-158.3287 1356.8241,-160.1729 1360.2513,-166.2766"/>
</g>
<!-- Node285 -->
<g id="node26" class="node">
<title>Node285</title>
<g id="a_node26"><a xlink:href="class_chimera_t_k_1_1_entity_owner.html#a260d2a06bf851b4b685ae498cf5a2237" target="_top" xlink:title="Called inside the constructor of Accessor: adds the accessor to the list. ">
<polygon fill="#ffffff" stroke="#000000" points="1325.5,-292.3127 1325.5,-322.3127 1462.5,-322.3127 1462.5,-292.3127 1325.5,-292.3127"/>
<text text-anchor="start" x="1333.5" y="-310.3127" font-family="Helvetica,sans-Serif" font-size="10.00" fill="#000000">ChimeraTK::EntityOwner</text>
<text text-anchor="middle" x="1394" y="-299.3127" font-family="Helvetica,sans-Serif" font-size="10.00" fill="#000000">::registerAccessor</text>
</a>
</g>
</g>
<!-- Node282&#45;&gt;Node285 -->
<g id="edge34" class="edge">
<title>Node282&#45;&gt;Node285</title>
<path fill="none" stroke="#191970" d="M1254.6718,-263.3535C1279.6193,-271.2247 1310.3496,-280.9203 1336.5967,-289.2015"/>
<polygon fill="#191970" stroke="#191970" points="1335.8255,-292.6282 1346.4152,-292.2993 1337.9317,-285.9526 1335.8255,-292.6282"/>
</g>
<!-- Node287 -->
<g id="node28" class="node">
<title>Node287</title>
<g id="a_node28"><a xlink:href="class_chimera_t_k_1_1_virtual_module.html#a050961da9eb30eac1111fd75587f768e" target="_top" xlink:title="Add a virtual sub&#45;module. ">
<polygon fill="#ffffff" stroke="#000000" points="1322,-341.3127 1322,-371.3127 1466,-371.3127 1466,-341.3127 1322,-341.3127"/>
<text text-anchor="start" x="1330" y="-359.3127" font-family="Helvetica,sans-Serif" font-size="10.00" fill="#000000">ChimeraTK::VirtualModule</text>
<text text-anchor="middle" x="1394" y="-348.3127" font-family="Helvetica,sans-Serif" font-size="10.00" fill="#000000">::addSubModule</text>
</a>
</g>
</g>
<!-- Node282&#45;&gt;Node287 -->
<g id="edge39" class="edge">
<title>Node282&#45;&gt;Node287</title>
<path fill="none" stroke="#191970" d="M1224.6428,-263.5799C1246.3382,-281.7327 1284.8663,-311.9954 1322,-331.3127 1326.1819,-333.4882 1330.5942,-335.5423 1335.0919,-337.4667"/>
<polygon fill="#191970" stroke="#191970" points="1333.8144,-340.7254 1344.3971,-341.2321 1336.4402,-334.2365 1333.8144,-340.7254"/>
</g>
<!-- Node284 -->
<g id="node25" class="node">
<title>Node284</title>
<g id="a_node25"><a xlink:href="class_chimera_t_k_1_1_entity_owner.html#a952d3abbffa16054f744f3da7fc46c3f" target="_top" xlink:title="Create a VirtualModule which contains all variables of this EntityOwner in a flat hierarchy...">
<polygon fill="#ffffff" stroke="#000000" points="1512.5,-128.3127 1512.5,-158.3127 1649.5,-158.3127 1649.5,-128.3127 1512.5,-128.3127"/>
<text text-anchor="start" x="1520.5" y="-146.3127" font-family="Helvetica,sans-Serif" font-size="10.00" fill="#000000">ChimeraTK::EntityOwner</text>
<text text-anchor="middle" x="1581" y="-135.3127" font-family="Helvetica,sans-Serif" font-size="10.00" fill="#000000">::flatten</text>
</a>
</g>
</g>
<!-- Node283&#45;&gt;Node284 -->
<g id="edge30" class="edge">
<title>Node283&#45;&gt;Node284</title>
<path fill="none" stroke="#191970" d="M1462.5701,-143.3127C1475.5281,-143.3127 1489.1753,-143.3127 1502.4132,-143.3127"/>
<polygon fill="#191970" stroke="#191970" points="1502.4383,-146.8128 1512.4382,-143.3127 1502.4382,-139.8128 1502.4383,-146.8128"/>
</g>
<!-- Node284&#45;&gt;Node273 -->
<g id="edge32" class="edge">
<title>Node284&#45;&gt;Node273</title>
<path fill="none" stroke="#191970" d="M1571.1238,-128.1483C1553.5079,-102.5719 1513.9767,-51.4836 1466,-29.3127 1361.1305,19.1493 1322.5256,-7.3127 1207,-7.3127 1013,-7.3127 1013,-7.3127 1013,-7.3127 854.0931,-7.3127 707.5648,-161.279 657.0891,-220.4906"/>
<polygon fill="#191970" stroke="#191970" points="654.3709,-218.2848 650.613,-228.1908 659.7282,-222.7904 654.3709,-218.2848"/>
</g>
<!-- Node284&#45;&gt;Node280 -->
<g id="edge31" class="edge">
<title>Node284&#45;&gt;Node280</title>
<path fill="none" stroke="#191970" d="M1649.5896,-151.536C1661.4395,-152.9567 1673.8409,-154.4435 1685.9305,-155.8929"/>
<polygon fill="#191970" stroke="#191970" points="1685.648,-159.384 1695.9935,-157.0994 1686.4813,-152.4338 1685.648,-159.384"/>
</g>
<!-- Node286 -->
<g id="node27" class="node">
<title>Node286</title>
<g id="a_node27"><a xlink:href="class_chimera_t_k_1_1_variable_network_node.html#a4899ab9738a12b99bb1c61d0cf98d265" target="_top" xlink:title="Add a tag. ">
<polygon fill="#ffffff" stroke="#000000" points="1502,-292.3127 1502,-322.3127 1660,-322.3127 1660,-292.3127 1502,-292.3127"/>
<text text-anchor="start" x="1510" y="-310.3127" font-family="Helvetica,sans-Serif" font-size="10.00" fill="#000000">ChimeraTK::VariableNetwork</text>
<text text-anchor="middle" x="1581" y="-299.3127" font-family="Helvetica,sans-Serif" font-size="10.00" fill="#000000">Node::addTag</text>
</a>
</g>
</g>
<!-- Node285&#45;&gt;Node286 -->
<g id="edge35" class="edge">
<title>Node285&#45;&gt;Node286</title>
<path fill="none" stroke="#191970" d="M1462.5701,-307.3127C1472.0858,-307.3127 1481.9732,-307.3127 1491.7973,-307.3127"/>
<polygon fill="#191970" stroke="#191970" points="1491.9938,-310.8128 1501.9937,-307.3127 1491.9937,-303.8128 1491.9938,-310.8128"/>
</g>
<!-- Node288 -->
<g id="node29" class="node">
<title>Node288</title>
<g id="a_node29"><a xlink:href="class_chimera_t_k_1_1_entity_owner.html#a9690d4ae29d8a9e05d34feed82533e94" target="_top" xlink:title="Register another module as a sub&#45;mdoule. ">
<polygon fill="#ffffff" stroke="#000000" points="1512.5,-341.3127 1512.5,-371.3127 1649.5,-371.3127 1649.5,-341.3127 1512.5,-341.3127"/>
<text text-anchor="start" x="1520.5" y="-359.3127" font-family="Helvetica,sans-Serif" font-size="10.00" fill="#000000">ChimeraTK::EntityOwner</text>
<text text-anchor="middle" x="1581" y="-348.3127" font-family="Helvetica,sans-Serif" font-size="10.00" fill="#000000">::registerModule</text>
</a>
</g>
</g>
<!-- Node287&#45;&gt;Node288 -->
<g id="edge40" class="edge">
<title>Node287&#45;&gt;Node288</title>
<path fill="none" stroke="#191970" d="M1466.0316,-356.3127C1477.928,-356.3127 1490.3146,-356.3127 1502.3632,-356.3127"/>
<polygon fill="#191970" stroke="#191970" points="1502.3865,-359.8128 1512.3865,-356.3127 1502.3864,-352.8128 1502.3865,-359.8128"/>
</g>
<!-- Node289 -->
<g id="node30" class="node">
<title>Node289</title>
<g id="a_node30"><a xlink:href="class_chimera_t_k_1_1_entity_owner.html#aba60e1945471166d25fec22172788b08" target="_top" xlink:title="Add a tag to all Application&#45;type nodes inside this group. ">
<polygon fill="#ffffff" stroke="#000000" points="1696,-360.3127 1696,-390.3127 1833,-390.3127 1833,-360.3127 1696,-360.3127"/>
<text text-anchor="start" x="1704" y="-378.3127" font-family="Helvetica,sans-Serif" font-size="10.00" fill="#000000">ChimeraTK::EntityOwner</text>
<text text-anchor="middle" x="1764.5" y="-367.3127" font-family="Helvetica,sans-Serif" font-size="10.00" fill="#000000">::addTag</text>
</a>
</g>
</g>
<!-- Node288&#45;&gt;Node289 -->
<g id="edge41" class="edge">
<title>Node288&#45;&gt;Node289</title>
<path fill="none" stroke="#191970" d="M1649.5896,-363.4146C1661.4395,-364.6416 1673.8409,-365.9256 1685.9305,-367.1774"/>
<polygon fill="#191970" stroke="#191970" points="1685.6862,-370.6708 1695.9935,-368.2194 1686.4072,-363.708 1685.6862,-370.6708"/>
</g>
<!-- Node289&#45;&gt;Node274 -->
<g id="edge42" class="edge">
<title>Node289&#45;&gt;Node274</title>
<path fill="none" stroke="#191970" d="M1833.3713,-375.3127C1841.678,-375.3127 1850.2111,-375.3127 1858.6466,-375.3127"/>
<polygon fill="#191970" stroke="#191970" points="1858.8657,-378.8128 1868.8657,-375.3127 1858.8657,-371.8128 1858.8657,-378.8128"/>
</g>
<!-- Node289&#45;&gt;Node275 -->
<g id="edge43" class="edge">
<title>Node289&#45;&gt;Node275</title>
<path fill="none" stroke="#191970" d="M1695.9387,-379.0626C1683.9629,-379.5834 1671.6211,-380.0348 1660,-380.3127 1509.8207,-383.9034 1471.1189,-398.4864 1322,-380.3127 1145.6604,-358.8215 1103.7666,-336.6274 934,-284.3127 912.8386,-277.7917 889.8224,-269.4574 870.3008,-262.0081"/>
<polygon fill="#191970" stroke="#191970" points="871.3211,-258.6504 860.7314,-258.3212 868.8044,-265.1824 871.3211,-258.6504"/>
</g>
<!-- Node290&#45;&gt;Node280 -->
<g id="edge45" class="edge">
<title>Node290&#45;&gt;Node280</title>
<path fill="none" stroke="#191970" d="M1071.1207,-130.2692C1089.2153,-126.2376 1109.3211,-122.417 1128,-120.3127 1206.9146,-111.4223 1622.0343,-110.1679 1660,-118.3127 1684.515,-123.5719 1710.2212,-135.0452 1730.0033,-145.3389"/>
<polygon fill="#191970" stroke="#191970" points="1728.4592,-148.4822 1738.928,-150.1114 1731.7602,-142.3093 1728.4592,-148.4822"/>
</g>
<!-- Node290&#45;&gt;Node281 -->
<g id="edge46" class="edge">
<title>Node290&#45;&gt;Node281</title>
<path fill="none" stroke="#191970" d="M1081.6702,-145.3127C1097.7374,-145.3127 1114.9413,-145.3127 1131.2957,-145.3127"/>
<polygon fill="#191970" stroke="#191970" points="1131.3511,-148.8128 1141.3511,-145.3127 1131.3511,-141.8128 1131.3511,-148.8128"/>
</g>
<!-- Node290&#45;&gt;Node282 -->
<g id="edge47" class="edge">
<title>Node290&#45;&gt;Node282</title>
<path fill="none" stroke="#191970" d="M1070.3295,-160.4393C1077.7566,-163.0604 1085.154,-166.019 1092,-169.3127 1124.7096,-185.0499 1158.5307,-209.4331 1180.9536,-226.9475"/>
<polygon fill="#191970" stroke="#191970" points="1178.9511,-229.8262 1188.9633,-233.2914 1183.2973,-224.3389 1178.9511,-229.8262"/>
</g>
</g>
</svg>
        <g id="navigator" transform="translate(0 0)" fill="#404254">
                <rect fill="#f2f5e9" fill-opacity="0.5" stroke="#606060" stroke-width=".5" x="0" y="0" width="60" height="60"/>
                <use id="zoomplus" xlink:href="#zoomPlus" x="17" y="9" onmousedown="handleZoom(evt,'in')"/>
                <use id="zoomminus" xlink:href="#zoomMin" x="42" y="9" onmousedown="handleZoom(evt,'out')"/>
                <use id="reset" xlink:href="#resetDef" x="30" y="36" onmousedown="handleReset()"/>
                <g id="arrowUp" xlink:href="#dirArrow" transform="translate(30 24)" onmousedown="handlePan(0,-1)">
                  <use xlink:href="#rim" fill="#404040">
                        <set attributeName="fill" to="#808080" begin="arrowUp.mouseover" end="arrowUp.mouseout"/>
                  </use>
                  <path fill="none" stroke="white" stroke-width="1.5" d="M0,-3.0v7 M-2.5,-0.5L0,-3.0L2.5,-0.5"/>
                </g>
                <g id="arrowRight" xlink:href="#dirArrow" transform="rotate(90) translate(36 -43)" onmousedown="handlePan(1,0)">
                  <use xlink:href="#rim" fill="#404040">
                        <set attributeName="fill" to="#808080" begin="arrowRight.mouseover" end="arrowRight.mouseout"/>
                  </use>
                  <path fill="none" stroke="white" stroke-width="1.5" d="M0,-3.0v7 M-2.5,-0.5L0,-3.0L2.5,-0.5"/>
                </g>
                <g id="arrowDown" xlink:href="#dirArrow" transform="rotate(180) translate(-30 -48)" onmousedown="handlePan(0,1)">
                  <use xlink:href="#rim" fill="#404040">
                        <set attributeName="fill" to="#808080" begin="arrowDown.mouseover" end="arrowDown.mouseout"/>
                  </use>
                  <path fill="none" stroke="white" stroke-width="1.5" d="M0,-3.0v7 M-2.5,-0.5L0,-3.0L2.5,-0.5"/>
                </g>
                <g id="arrowLeft" xlink:href="#dirArrow" transform="rotate(270) translate(-36 17)" onmousedown="handlePan(-1,0)">
                  <use xlink:href="#rim" fill="#404040">
                        <set attributeName="fill" to="#808080" begin="arrowLeft.mouseover" end="arrowLeft.mouseout"/>
                  </use>
                  <path fill="none" stroke="white" stroke-width="1.5" d="M0,-3.0v7 M-2.5,-0.5L0,-3.0L2.5,-0.5"/>
                </g>
        </g>
        <svg viewBox="0 0 15 15" width="100%" height="30px" preserveAspectRatio="xMaxYMin meet">
         <g id="arrow_out" transform="scale(0.3 0.3)">
          <a xlink:href="class_chimera_t_k_1_1_device_module_a71dea3b0240cf2eccbae77ab7f2c4a73_cgraph_org.svg" target="_base">
           <rect id="button" ry="5" rx="5" y="6" x="6" height="38" width="38"
                fill="#f2f5e9" fill-opacity="0.5" stroke="#606060" stroke-width="1.0"/>
           <path id="arrow"
             d="M 11.500037,31.436501 C 11.940474,20.09759 22.043105,11.32322 32.158766,21.979434 L 37.068811,17.246167 C 37.068811,17.246167 37.088388,32 37.088388,32 L 22.160133,31.978069 C 22.160133,31.978069 26.997745,27.140456 26.997745,27.140456 C 18.528582,18.264221 13.291696,25.230495 11.500037,31.436501 z"
             style="fill:#404040;"/>
          </a>
         </g>
        </svg>
</svg>
