<?xml version="1.0" encoding="UTF-8" standalone="no"?>
<!DOCTYPE svg PUBLIC "-//W3C//DTD SVG 1.1//EN"
 "http://www.w3.org/Graphics/SVG/1.1/DTD/svg11.dtd">
<!-- Generated by graphviz version 2.43.0 (0)
 -->
<!-- Title: ChimeraTK::VariableNetworkNode::getPublicName Pages: 1 -->
<svg width="561pt" height="88pt"
 viewBox="0.00 0.00 561.00 88.00" xmlns="http://www.w3.org/2000/svg" xmlns:xlink="http://www.w3.org/1999/xlink">
<g id="graph0" class="graph" transform="scale(1 1) rotate(0) translate(4 84)">
<title>ChimeraTK::VariableNetworkNode::getPublicName</title>
<polygon fill="white" stroke="transparent" points="-4,4 -4,-84 557,-84 557,4 -4,4"/>
<!-- Node1 -->
<g id="node1" class="node">
<title>Node1</title>
<g id="a_node1"><a xlink:title=" ">
<polygon fill="#bfbfbf" stroke="black" points="395,-24.5 395,-54.5 553,-54.5 553,-24.5 395,-24.5"/>
<text text-anchor="start" x="403" y="-42.5" font-family="Helvetica,sans-Serif" font-size="10.00">ChimeraTK::VariableNetwork</text>
<text text-anchor="middle" x="474" y="-31.5" font-family="Helvetica,sans-Serif" font-size="10.00">Node::getPublicName</text>
</a>
</g>
</g>
<!-- Node2 -->
<g id="node2" class="node">
<title>Node2</title>
<g id="a_node2"><a xlink:href="class_chimera_t_k_1_1_network_visitor.html#a7054315a2807b6aeb15c97f71d5882eb" target="_top" xlink:title=" ">
<polygon fill="white" stroke="black" points="202,-49.5 202,-79.5 351,-79.5 351,-49.5 202,-49.5"/>
<text text-anchor="start" x="210" y="-67.5" font-family="Helvetica,sans-Serif" font-size="10.00">ChimeraTK::NetworkVisitor</text>
<text text-anchor="middle" x="276.5" y="-56.5" font-family="Helvetica,sans-Serif" font-size="10.00">::createProcessVariable</text>
</a>
</g>
</g>
<!-- Node1&#45;&gt;Node2 -->
<g id="edge1" class="edge">
<title>Node1&#45;&gt;Node2</title>
<path fill="none" stroke="midnightblue" d="M384.64,-50.8C373.41,-52.24 362.01,-53.69 351.04,-55.1"/>
<polygon fill="midnightblue" stroke="midnightblue" points="385.42,-54.23 394.89,-49.49 384.53,-47.29 385.42,-54.23"/>
</g>
<!-- Node3 -->
<g id="node3" class="node">
<title>Node3</title>
<g id="a_node3"><a xlink:href="class_chimera_t_k_1_1_variable_network_node_dumping_visitor.html#a188ebe426fc4322ac85da9ccc45c1b50" target="_top" xlink:title="dispatch">
<polygon fill="white" stroke="black" points="194,-0.5 194,-30.5 359,-30.5 359,-0.5 194,-0.5"/>
<text text-anchor="start" x="202" y="-18.5" font-family="Helvetica,sans-Serif" font-size="10.00">ChimeraTK::VariableNetwork</text>
<text text-anchor="middle" x="276.5" y="-7.5" font-family="Helvetica,sans-Serif" font-size="10.00">NodeDumpingVisitor::dispatch</text>
</a>
</g>
</g>
<!-- Node1&#45;&gt;Node3 -->
<g id="edge2" class="edge">
<title>Node1&#45;&gt;Node3</title>
<path fill="none" stroke="midnightblue" d="M384.85,-28.68C376.25,-27.62 367.54,-26.55 359.01,-25.51"/>
<polygon fill="midnightblue" stroke="midnightblue" points="384.54,-32.17 394.89,-29.91 385.39,-25.22 384.54,-32.17"/>
</g>
<!-- Node4 -->
<g id="node4" class="node">
<title>Node4</title>
<g id="a_node4"><a xlink:href="class_chimera_t_k_1_1_variable_network_node.html#a024d12d24ea13597b677318b8dde680f" target="_top" xlink:title="Print node information to std::cout.">
<polygon fill="white" stroke="black" points="0,-0.5 0,-30.5 158,-30.5 158,-0.5 0,-0.5"/>
<text text-anchor="start" x="8" y="-18.5" font-family="Helvetica,sans-Serif" font-size="10.00">ChimeraTK::VariableNetwork</text>
<text text-anchor="middle" x="79" y="-7.5" font-family="Helvetica,sans-Serif" font-size="10.00">Node::dump</text>
</a>
</g>
</g>
<!-- Node3&#45;&gt;Node4 -->
<g id="edge3" class="edge">
<title>Node3&#45;&gt;Node4</title>
<path fill="none" stroke="midnightblue" d="M183.69,-15.5C175.1,-15.5 166.45,-15.5 158.01,-15.5"/>
<polygon fill="midnightblue" stroke="midnightblue" points="183.72,-19 193.72,-15.5 183.72,-12 183.72,-19"/>
</g>
</g>
</svg>
