<?xml version="1.0" encoding="UTF-8" standalone="no"?>
<!DOCTYPE svg PUBLIC "-//W3C//DTD SVG 1.1//EN"
 "http://www.w3.org/Graphics/SVG/1.1/DTD/svg11.dtd">
<!-- Generated by graphviz version 2.40.1 (20161225.0304)
 -->
<!-- Title: ChimeraTK::Application::getTestableModeLockObject Pages: 1 -->
<svg width="1491pt" height="1026pt"
 viewBox="0.00 0.00 1491.00 1026.47" xmlns="http://www.w3.org/2000/svg" xmlns:xlink="http://www.w3.org/1999/xlink">
<g id="graph0" class="graph" transform="scale(1 1) rotate(0) translate(4 1022.4713)">
<title>ChimeraTK::Application::getTestableModeLockObject</title>
<polygon fill="#ffffff" stroke="transparent" points="-4,4 -4,-1022.4713 1487,-1022.4713 1487,4 -4,4"/>
<!-- Node386 -->
<g id="node1" class="node">
<title>Node386</title>
<polygon fill="#bfbfbf" stroke="#000000" points="0,-418.9713 0,-448.9713 159,-448.9713 159,-418.9713 0,-418.9713"/>
<text text-anchor="start" x="8" y="-436.9713" font-family="Helvetica,sans-Serif" font-size="10.00" fill="#000000">ChimeraTK::Application</text>
<text text-anchor="middle" x="79.5" y="-425.9713" font-family="Helvetica,sans-Serif" font-size="10.00" fill="#000000">::getTestableModeLockObject</text>
</g>
<!-- Node387 -->
<g id="node2" class="node">
<title>Node387</title>
<g id="a_node2"><a xlink:href="class_chimera_t_k_1_1_application.html#af00af3a7322d478663f8a8aa8286ef83" target="_top" xlink:title="Test if the testable mode mutex is locked by the current thread. ">
<polygon fill="#ffffff" stroke="#000000" points="195,-776.9713 195,-806.9713 326,-806.9713 326,-776.9713 195,-776.9713"/>
<text text-anchor="start" x="203" y="-794.9713" font-family="Helvetica,sans-Serif" font-size="10.00" fill="#000000">ChimeraTK::Application</text>
<text text-anchor="middle" x="260.5" y="-783.9713" font-family="Helvetica,sans-Serif" font-size="10.00" fill="#000000">::testableModeTestLock</text>
</a>
</g>
</g>
<!-- Node386&#45;&gt;Node387 -->
<g id="edge1" class="edge">
<title>Node386&#45;&gt;Node387</title>
<path fill="none" stroke="#191970" d="M91.9425,-458.5814C126.7625,-527.4518 224.4865,-720.7401 252.7516,-776.6458"/>
<polygon fill="#191970" stroke="#191970" points="94.9129,-456.6991 87.2773,-449.3541 88.6659,-459.8575 94.9129,-456.6991"/>
</g>
<!-- Node405 -->
<g id="node20" class="node">
<title>Node405</title>
<g id="a_node20"><a xlink:href="class_chimera_t_k_1_1_application.html#a518f2c85c4d1ec189a5aa3a2d89860bd" target="_top" xlink:title="Lock the testable mode mutex for the current thread. ">
<polygon fill="#ffffff" stroke="#000000" points="195,-418.9713 195,-448.9713 326,-448.9713 326,-418.9713 195,-418.9713"/>
<text text-anchor="start" x="203" y="-436.9713" font-family="Helvetica,sans-Serif" font-size="10.00" fill="#000000">ChimeraTK::Application</text>
<text text-anchor="middle" x="260.5" y="-425.9713" font-family="Helvetica,sans-Serif" font-size="10.00" fill="#000000">::testableModeLock</text>
</a>
</g>
</g>
<!-- Node386&#45;&gt;Node405 -->
<g id="edge20" class="edge">
<title>Node386&#45;&gt;Node405</title>
<path fill="none" stroke="#191970" d="M169.2776,-433.9713C177.9221,-433.9713 186.5754,-433.9713 194.9219,-433.9713"/>
<polygon fill="#191970" stroke="#191970" points="169.1527,-430.4714 159.1526,-433.9713 169.1526,-437.4714 169.1527,-430.4714"/>
</g>
<!-- Node424 -->
<g id="node39" class="node">
<title>Node424</title>
<g id="a_node39"><a xlink:href="class_chimera_t_k_1_1_application.html#a8975837b63d1a93cd91b4a87465995cd" target="_top" xlink:title="Unlock the testable mode mutex for the current thread. ">
<polygon fill="#ffffff" stroke="#000000" points="195,-241.9713 195,-271.9713 326,-271.9713 326,-241.9713 195,-241.9713"/>
<text text-anchor="start" x="203" y="-259.9713" font-family="Helvetica,sans-Serif" font-size="10.00" fill="#000000">ChimeraTK::Application</text>
<text text-anchor="middle" x="260.5" y="-248.9713" font-family="Helvetica,sans-Serif" font-size="10.00" fill="#000000">::testableModeUnlock</text>
</a>
</g>
</g>
<!-- Node386&#45;&gt;Node424 -->
<g id="edge46" class="edge">
<title>Node386&#45;&gt;Node424</title>
<path fill="none" stroke="#191970" d="M102.3466,-411.6296C139.7844,-375.0191 213.2158,-303.2105 245.1071,-272.024"/>
<polygon fill="#191970" stroke="#191970" points="99.6345,-409.3863 94.932,-418.8803 104.5287,-414.3911 99.6345,-409.3863"/>
</g>
<!-- Node388 -->
<g id="node3" class="node">
<title>Node388</title>
<g id="a_node3"><a xlink:href="class_chimera_t_k_1_1_testable_mode_accessor_decorator.html#a358fff2c7ae82359be2b84ba8a6e064f" target="_top" xlink:title="ChimeraTK::TestableModeAccessor\lDecorator::doWriteTransfer">
<polygon fill="#ffffff" stroke="#000000" points="386,-850.9713 386,-880.9713 573,-880.9713 573,-850.9713 386,-850.9713"/>
<text text-anchor="start" x="394" y="-868.9713" font-family="Helvetica,sans-Serif" font-size="10.00" fill="#000000">ChimeraTK::TestableModeAccessor</text>
<text text-anchor="middle" x="479.5" y="-857.9713" font-family="Helvetica,sans-Serif" font-size="10.00" fill="#000000">Decorator::doWriteTransfer</text>
</a>
</g>
</g>
<!-- Node387&#45;&gt;Node388 -->
<g id="edge2" class="edge">
<title>Node387&#45;&gt;Node388</title>
<path fill="none" stroke="#191970" d="M295.3618,-811.9166C314.518,-822.1584 338.9996,-834.1033 362,-841.9713 371.8499,-845.3407 382.3344,-848.3095 392.83,-850.9056"/>
<polygon fill="#191970" stroke="#191970" points="296.8725,-808.7541 286.4155,-807.0509 293.528,-814.9035 296.8725,-808.7541"/>
</g>
<!-- Node389 -->
<g id="node4" class="node">
<title>Node389</title>
<g id="a_node4"><a xlink:href="class_chimera_t_k_1_1_testable_mode_accessor_decorator.html#ac6f45f3b0ba8a1b951c7f97fb2fb4f5c" target="_top" xlink:title="ChimeraTK::TestableModeAccessor\lDecorator::doWriteTransferDestructively">
<polygon fill="#ffffff" stroke="#000000" points="373.5,-752.9713 373.5,-782.9713 585.5,-782.9713 585.5,-752.9713 373.5,-752.9713"/>
<text text-anchor="start" x="381.5" y="-770.9713" font-family="Helvetica,sans-Serif" font-size="10.00" fill="#000000">ChimeraTK::TestableModeAccessor</text>
<text text-anchor="middle" x="479.5" y="-759.9713" font-family="Helvetica,sans-Serif" font-size="10.00" fill="#000000">Decorator::doWriteTransferDestructively</text>
</a>
</g>
</g>
<!-- Node387&#45;&gt;Node389 -->
<g id="edge3" class="edge">
<title>Node387&#45;&gt;Node389</title>
<path fill="none" stroke="#191970" d="M336.4946,-783.6431C348.3903,-782.3394 360.8698,-780.9718 373.2928,-779.6104"/>
<polygon fill="#191970" stroke="#191970" points="335.7664,-780.2018 326.2072,-784.7705 336.529,-787.1602 335.7664,-780.2018"/>
</g>
<!-- Node390 -->
<g id="node5" class="node">
<title>Node390</title>
<g id="a_node5"><a xlink:href="class_chimera_t_k_1_1_testable_mode_accessor_decorator.html#a61884bb031aa5f516aded1645c2355da" target="_top" xlink:title="Release the testableModeLock. ">
<polygon fill="#ffffff" stroke="#000000" points="386,-664.9713 386,-694.9713 573,-694.9713 573,-664.9713 386,-664.9713"/>
<text text-anchor="start" x="394" y="-682.9713" font-family="Helvetica,sans-Serif" font-size="10.00" fill="#000000">ChimeraTK::TestableModeAccessor</text>
<text text-anchor="middle" x="479.5" y="-671.9713" font-family="Helvetica,sans-Serif" font-size="10.00" fill="#000000">Decorator::releaseLock</text>
</a>
</g>
</g>
<!-- Node387&#45;&gt;Node390 -->
<g id="edge4" class="edge">
<title>Node387&#45;&gt;Node390</title>
<path fill="none" stroke="#191970" d="M280.5586,-769.2783C299.5442,-749.2577 329.8574,-720.8616 362,-704.9713 369.8523,-701.0893 378.2908,-697.8082 386.9117,-695.0353"/>
<polygon fill="#191970" stroke="#191970" points="277.8537,-767.0477 273.6189,-776.7595 282.9857,-771.8083 277.8537,-767.0477"/>
</g>
<!-- Node395 -->
<g id="node10" class="node">
<title>Node395</title>
<g id="a_node10"><a xlink:href="class_chimera_t_k_1_1_testable_mode_accessor_decorator.html#aa14b3f18cce92194f860242d6b5e6d88" target="_top" xlink:title="Obtain the testableModeLock if not owned yet, and decrement the counter. ">
<polygon fill="#ffffff" stroke="#000000" points="362,-801.9713 362,-831.9713 597,-831.9713 597,-801.9713 362,-801.9713"/>
<text text-anchor="start" x="370" y="-819.9713" font-family="Helvetica,sans-Serif" font-size="10.00" fill="#000000">ChimeraTK::TestableModeAccessor</text>
<text text-anchor="middle" x="479.5" y="-808.9713" font-family="Helvetica,sans-Serif" font-size="10.00" fill="#000000">Decorator::obtainLockAndDecrementCounter</text>
</a>
</g>
</g>
<!-- Node387&#45;&gt;Node395 -->
<g id="edge9" class="edge">
<title>Node387&#45;&gt;Node395</title>
<path fill="none" stroke="#191970" d="M336.2137,-800.6144C344.547,-801.5657 353.1698,-802.55 361.8613,-803.5422"/>
<polygon fill="#191970" stroke="#191970" points="336.5397,-797.1289 326.2072,-799.4721 335.7457,-804.0838 336.5397,-797.1289"/>
</g>
<!-- Node397 -->
<g id="node12" class="node">
<title>Node397</title>
<g id="a_node12"><a xlink:href="class_chimera_t_k_1_1_testable_mode_accessor_decorator.html#ac2676ff72476e1673b3fbeb7fb26bd5d" target="_top" xlink:title="ChimeraTK::TestableModeAccessor\lDecorator::doReadTransferLatest">
<polygon fill="#ffffff" stroke="#000000" points="386,-987.9713 386,-1017.9713 573,-1017.9713 573,-987.9713 386,-987.9713"/>
<text text-anchor="start" x="394" y="-1005.9713" font-family="Helvetica,sans-Serif" font-size="10.00" fill="#000000">ChimeraTK::TestableModeAccessor</text>
<text text-anchor="middle" x="479.5" y="-994.9713" font-family="Helvetica,sans-Serif" font-size="10.00" fill="#000000">Decorator::doReadTransferLatest</text>
</a>
</g>
</g>
<!-- Node387&#45;&gt;Node397 -->
<g id="edge12" class="edge">
<title>Node387&#45;&gt;Node397</title>
<path fill="none" stroke="#191970" d="M267.3986,-816.6675C279.6803,-855.9552 309.1453,-932.385 362,-972.9713 370.0153,-979.1261 379.1557,-984.0275 388.7175,-987.9292"/>
<polygon fill="#191970" stroke="#191970" points="270.7459,-815.6446 264.5133,-807.077 264.0427,-817.6613 270.7459,-815.6446"/>
</g>
<!-- Node398 -->
<g id="node13" class="node">
<title>Node398</title>
<g id="a_node13"><a xlink:href="class_chimera_t_k_1_1_application.html#acd050c59340807685052276fb053787a" target="_top" xlink:title="This will remove the global pointer to the instance and allows creating another instance afterwards...">
<polygon fill="#ffffff" stroke="#000000" points="414,-615.9713 414,-645.9713 545,-645.9713 545,-615.9713 414,-615.9713"/>
<text text-anchor="start" x="422" y="-633.9713" font-family="Helvetica,sans-Serif" font-size="10.00" fill="#000000">ChimeraTK::Application</text>
<text text-anchor="middle" x="479.5" y="-622.9713" font-family="Helvetica,sans-Serif" font-size="10.00" fill="#000000">::shutdown</text>
</a>
</g>
</g>
<!-- Node387&#45;&gt;Node398 -->
<g id="edge13" class="edge">
<title>Node387&#45;&gt;Node398</title>
<path fill="none" stroke="#191970" d="M271.7418,-767.6411C287.3996,-736.6047 318.7935,-683.6437 362,-655.9713 377.3673,-646.129 395.9565,-640.0942 413.77,-636.414"/>
<polygon fill="#191970" stroke="#191970" points="268.4687,-766.3671 267.2161,-776.8876 274.756,-769.4445 268.4687,-766.3671"/>
</g>
<!-- Node402 -->
<g id="node17" class="node">
<title>Node402</title>
<g id="a_node17"><a xlink:href="class_chimera_t_k_1_1_device_module.html#a866cf974d4a178d389753536be5a88db" target="_top" xlink:title="Use this function to report an exception. ">
<polygon fill="#ffffff" stroke="#000000" points="913.5,-396.9713 913.5,-426.9713 1059.5,-426.9713 1059.5,-396.9713 913.5,-396.9713"/>
<text text-anchor="start" x="921.5" y="-414.9713" font-family="Helvetica,sans-Serif" font-size="10.00" fill="#000000">ChimeraTK::DeviceModule</text>
<text text-anchor="middle" x="986.5" y="-403.9713" font-family="Helvetica,sans-Serif" font-size="10.00" fill="#000000">::reportException</text>
</a>
</g>
</g>
<!-- Node387&#45;&gt;Node402 -->
<g id="edge17" class="edge">
<title>Node387&#45;&gt;Node402</title>
<path fill="none" stroke="#191970" d="M277.4365,-815.1644C295.6308,-838.2518 326.7283,-872.7916 362,-890.9713 456.1275,-939.4861 757.6872,-1011.2508 836,-939.9713 899.0565,-882.5779 840.4121,-637.1693 872,-557.9713 893.9579,-502.9179 943.5022,-451.5799 969.634,-427.0571"/>
<polygon fill="#191970" stroke="#191970" points="280.2039,-813.0215 271.3333,-807.2281 274.655,-817.2888 280.2039,-813.0215"/>
</g>
<!-- Node391 -->
<g id="node6" class="node">
<title>Node391</title>
<g id="a_node6"><a xlink:href="class_chimera_t_k_1_1_testable_mode_accessor_decorator.html#aea165a35770c18052b8fb8d07521c435" target="_top" xlink:title="ChimeraTK::TestableModeAccessor\lDecorator::doReadTransfer">
<polygon fill="#ffffff" stroke="#000000" points="641,-703.9713 641,-733.9713 828,-733.9713 828,-703.9713 641,-703.9713"/>
<text text-anchor="start" x="649" y="-721.9713" font-family="Helvetica,sans-Serif" font-size="10.00" fill="#000000">ChimeraTK::TestableModeAccessor</text>
<text text-anchor="middle" x="734.5" y="-710.9713" font-family="Helvetica,sans-Serif" font-size="10.00" fill="#000000">Decorator::doReadTransfer</text>
</a>
</g>
</g>
<!-- Node390&#45;&gt;Node391 -->
<g id="edge5" class="edge">
<title>Node390&#45;&gt;Node391</title>
<path fill="none" stroke="#191970" d="M582.9029,-695.7858C601.9794,-698.7034 621.8029,-701.7352 640.5801,-704.607"/>
<polygon fill="#191970" stroke="#191970" points="583.4189,-692.3241 573.0046,-694.272 582.3605,-699.2437 583.4189,-692.3241"/>
</g>
<!-- Node392 -->
<g id="node7" class="node">
<title>Node392</title>
<g id="a_node7"><a xlink:href="class_chimera_t_k_1_1_testable_mode_accessor_decorator.html#adbf22acfdff094a4dc193b2cc5ae897e" target="_top" xlink:title="Implement callback called by TransferFuture before it blocks in wait() ">
<polygon fill="#ffffff" stroke="#000000" points="633,-752.9713 633,-782.9713 836,-782.9713 836,-752.9713 633,-752.9713"/>
<text text-anchor="start" x="641" y="-770.9713" font-family="Helvetica,sans-Serif" font-size="10.00" fill="#000000">ChimeraTK::TestableModeAccessor</text>
<text text-anchor="middle" x="734.5" y="-759.9713" font-family="Helvetica,sans-Serif" font-size="10.00" fill="#000000">Decorator::transferFutureWaitCallback</text>
</a>
</g>
</g>
<!-- Node390&#45;&gt;Node392 -->
<g id="edge6" class="edge">
<title>Node390&#45;&gt;Node392</title>
<path fill="none" stroke="#191970" d="M582.798,-698.0057C587.7079,-700.0807 592.4716,-702.3934 597,-704.9713 617.5002,-716.6412 612.6327,-732.071 633,-743.9713 638.9411,-747.4425 645.3548,-750.4121 651.9699,-752.9523"/>
<polygon fill="#191970" stroke="#191970" points="583.7887,-694.6365 573.1992,-694.3016 581.2686,-701.1671 583.7887,-694.6365"/>
</g>
<!-- Node393 -->
<g id="node8" class="node">
<title>Node393</title>
<g id="a_node8"><a xlink:href="class_chimera_t_k_1_1_testable_mode_accessor_decorator.html#a1253e11765c46d5e332550e39896ec4c" target="_top" xlink:title="Obtain the testableModeLock if not owned yet, decrement the counter, and release the lock again...">
<polygon fill="#ffffff" stroke="#000000" points="641,-801.9713 641,-831.9713 828,-831.9713 828,-801.9713 641,-801.9713"/>
<text text-anchor="start" x="649" y="-819.9713" font-family="Helvetica,sans-Serif" font-size="10.00" fill="#000000">ChimeraTK::TestableModeAccessor</text>
<text text-anchor="middle" x="734.5" y="-808.9713" font-family="Helvetica,sans-Serif" font-size="10.00" fill="#000000">Decorator::decrementCounter</text>
</a>
</g>
</g>
<!-- Node390&#45;&gt;Node393 -->
<g id="edge7" class="edge">
<title>Node390&#45;&gt;Node393</title>
<path fill="none" stroke="#191970" d="M582.7044,-695.3782C587.7873,-698.1178 592.5988,-701.2937 597,-704.9713 629.4272,-732.0666 600.8803,-765.5121 633,-792.9713 636.9914,-796.3835 641.381,-799.3307 646.0274,-801.8743"/>
<polygon fill="#191970" stroke="#191970" points="583.8263,-692.0362 573.2922,-690.9039 580.821,-698.3583 583.8263,-692.0362"/>
</g>
<!-- Node394 -->
<g id="node9" class="node">
<title>Node394</title>
<g id="a_node9"><a xlink:href="class_chimera_t_k_1_1_testable_mode_accessor_decorator.html#a7c2206ff8ecc1a106e247ad89457b383" target="_top" xlink:title="ChimeraTK::TestableModeAccessor\lDecorator::TestableModeAccessorDecorator">
<polygon fill="#ffffff" stroke="#000000" points="872,-801.9713 872,-831.9713 1101,-831.9713 1101,-801.9713 872,-801.9713"/>
<text text-anchor="start" x="880" y="-819.9713" font-family="Helvetica,sans-Serif" font-size="10.00" fill="#000000">ChimeraTK::TestableModeAccessor</text>
<text text-anchor="middle" x="986.5" y="-808.9713" font-family="Helvetica,sans-Serif" font-size="10.00" fill="#000000">Decorator::TestableModeAccessorDecorator</text>
</a>
</g>
</g>
<!-- Node393&#45;&gt;Node394 -->
<g id="edge8" class="edge">
<title>Node393&#45;&gt;Node394</title>
<path fill="none" stroke="#191970" d="M838.3585,-816.9713C849.3544,-816.9713 860.5826,-816.9713 871.6937,-816.9713"/>
<polygon fill="#191970" stroke="#191970" points="838.3355,-813.4714 828.3355,-816.9713 838.3355,-820.4714 838.3355,-813.4714"/>
</g>
<!-- Node395&#45;&gt;Node393 -->
<g id="edge10" class="edge">
<title>Node395&#45;&gt;Node393</title>
<path fill="none" stroke="#191970" d="M607.5913,-816.9713C618.8103,-816.9713 630.0231,-816.9713 640.8824,-816.9713"/>
<polygon fill="#191970" stroke="#191970" points="607.2965,-813.4714 597.2964,-816.9713 607.2964,-820.4714 607.2965,-813.4714"/>
</g>
<!-- Node396 -->
<g id="node11" class="node">
<title>Node396</title>
<g id="a_node11"><a xlink:href="class_chimera_t_k_1_1_testable_mode_accessor_decorator.html#aebc0ea6d8f512c6c9ac359db8af62870" target="_top" xlink:title="ChimeraTK::TestableModeAccessor\lDecorator::doPostRead">
<polygon fill="#ffffff" stroke="#000000" points="641,-899.9713 641,-929.9713 828,-929.9713 828,-899.9713 641,-899.9713"/>
<text text-anchor="start" x="649" y="-917.9713" font-family="Helvetica,sans-Serif" font-size="10.00" fill="#000000">ChimeraTK::TestableModeAccessor</text>
<text text-anchor="middle" x="734.5" y="-906.9713" font-family="Helvetica,sans-Serif" font-size="10.00" fill="#000000">Decorator::doPostRead</text>
</a>
</g>
</g>
<!-- Node395&#45;&gt;Node396 -->
<g id="edge11" class="edge">
<title>Node395&#45;&gt;Node396</title>
<path fill="none" stroke="#191970" d="M587.1264,-836.3192C590.5324,-838.0479 593.8354,-839.9276 597,-841.9713 619.7014,-856.6313 610.4653,-876.0562 633,-890.9713 638.2094,-894.4192 643.8581,-897.3737 649.7331,-899.9051"/>
<polygon fill="#191970" stroke="#191970" points="588.4427,-833.0724 577.8938,-832.0869 585.5256,-839.4357 588.4427,-833.0724"/>
</g>
<!-- Node399 -->
<g id="node14" class="node">
<title>Node399</title>
<g id="a_node14"><a xlink:href="struct_example_app.html#aecb5f2041899e8eea99688077e998a2b" target="_top" xlink:title="ExampleApp::~ExampleApp">
<polygon fill="#ffffff" stroke="#000000" points="657.5,-665.4713 657.5,-684.4713 811.5,-684.4713 811.5,-665.4713 657.5,-665.4713"/>
<text text-anchor="middle" x="734.5" y="-672.4713" font-family="Helvetica,sans-Serif" font-size="10.00" fill="#000000">ExampleApp::~ExampleApp</text>
</a>
</g>
</g>
<!-- Node398&#45;&gt;Node399 -->
<g id="edge14" class="edge">
<title>Node398&#45;&gt;Node399</title>
<path fill="none" stroke="#191970" d="M555.1223,-644.0198C595.0126,-650.9029 643.0707,-659.1952 679.3994,-665.4637"/>
<polygon fill="#191970" stroke="#191970" points="555.6184,-640.5538 545.1688,-642.3024 554.4281,-647.4518 555.6184,-640.5538"/>
</g>
<!-- Node400 -->
<g id="node15" class="node">
<title>Node400</title>
<g id="a_node15"><a xlink:href="class_chimera_t_k_1_1_application.html#abf4df7485b5fb61cb1f22710c1b2f0f7" target="_top" xlink:title="ChimeraTK::Application\l::~Application">
<polygon fill="#ffffff" stroke="#000000" points="669,-615.9713 669,-645.9713 800,-645.9713 800,-615.9713 669,-615.9713"/>
<text text-anchor="start" x="677" y="-633.9713" font-family="Helvetica,sans-Serif" font-size="10.00" fill="#000000">ChimeraTK::Application</text>
<text text-anchor="middle" x="734.5" y="-622.9713" font-family="Helvetica,sans-Serif" font-size="10.00" fill="#000000">::~Application</text>
</a>
</g>
</g>
<!-- Node398&#45;&gt;Node400 -->
<g id="edge15" class="edge">
<title>Node398&#45;&gt;Node400</title>
<path fill="none" stroke="#191970" d="M555.61,-630.9713C591.5614,-630.9713 634.0596,-630.9713 668.611,-630.9713"/>
<polygon fill="#191970" stroke="#191970" points="555.1689,-627.4714 545.1688,-630.9713 555.1688,-634.4714 555.1689,-627.4714"/>
</g>
<!-- Node401 -->
<g id="node16" class="node">
<title>Node401</title>
<g id="a_node16"><a xlink:href="class_chimera_t_k_1_1_application.html#a65ea3c005eec5249f9f8b0d2ce340d52" target="_top" xlink:title="The constructor takes the application name as an argument. ">
<polygon fill="#ffffff" stroke="#000000" points="669,-566.9713 669,-596.9713 800,-596.9713 800,-566.9713 669,-566.9713"/>
<text text-anchor="start" x="677" y="-584.9713" font-family="Helvetica,sans-Serif" font-size="10.00" fill="#000000">ChimeraTK::Application</text>
<text text-anchor="middle" x="734.5" y="-573.9713" font-family="Helvetica,sans-Serif" font-size="10.00" fill="#000000">::Application</text>
</a>
</g>
</g>
<!-- Node398&#45;&gt;Node401 -->
<g id="edge16" class="edge">
<title>Node398&#45;&gt;Node401</title>
<path fill="none" stroke="#191970" d="M555.1475,-616.4351C591.1964,-609.508 633.9113,-601.3001 668.611,-594.6323"/>
<polygon fill="#191970" stroke="#191970" points="554.3287,-613.0283 545.1688,-618.3525 555.6497,-619.9025 554.3287,-613.0283"/>
</g>
<!-- Node403 -->
<g id="node18" class="node">
<title>Node403</title>
<g id="a_node18"><a xlink:href="class_chimera_t_k_1_1_trigger_fan_out.html#ac46817d485e17425b7200cfe5c3c7bff" target="_top" xlink:title="Synchronise feeder and the consumers. ">
<polygon fill="#ffffff" stroke="#000000" points="1138,-465.4713 1138,-484.4713 1303,-484.4713 1303,-465.4713 1138,-465.4713"/>
<text text-anchor="middle" x="1220.5" y="-472.4713" font-family="Helvetica,sans-Serif" font-size="10.00" fill="#000000">ChimeraTK::TriggerFanOut::run</text>
</a>
</g>
</g>
<!-- Node402&#45;&gt;Node403 -->
<g id="edge18" class="edge">
<title>Node402&#45;&gt;Node403</title>
<path fill="none" stroke="#191970" d="M1052.1054,-429.6343C1095.2422,-441.248 1150.0117,-455.9936 1185.1629,-465.4574"/>
<polygon fill="#191970" stroke="#191970" points="1052.8176,-426.2014 1042.2515,-426.9813 1050.9978,-432.9608 1052.8176,-426.2014"/>
</g>
<!-- Node404 -->
<g id="node19" class="node">
<title>Node404</title>
<g id="a_node19"><a xlink:href="class_chimera_t_k_1_1_trigger_fan_out.html#a1e62fe742bdca6b91751bb21047f9a6f" target="_top" xlink:title="Activate synchronisation thread if needed. ">
<polygon fill="#ffffff" stroke="#000000" points="1340,-459.9713 1340,-489.9713 1483,-489.9713 1483,-459.9713 1340,-459.9713"/>
<text text-anchor="start" x="1348" y="-477.9713" font-family="Helvetica,sans-Serif" font-size="10.00" fill="#000000">ChimeraTK::TriggerFanOut</text>
<text text-anchor="middle" x="1411.5" y="-466.9713" font-family="Helvetica,sans-Serif" font-size="10.00" fill="#000000">::activate</text>
</a>
</g>
</g>
<!-- Node403&#45;&gt;Node404 -->
<g id="edge19" class="edge">
<title>Node403&#45;&gt;Node404</title>
<path fill="none" stroke="#191970" d="M1313.2189,-474.9713C1322.1511,-474.9713 1331.1159,-474.9713 1339.8002,-474.9713"/>
<polygon fill="#191970" stroke="#191970" points="1313.1645,-471.4714 1303.1645,-474.9713 1313.1645,-478.4714 1313.1645,-471.4714"/>
</g>
<!-- Node405&#45;&gt;Node388 -->
<g id="edge24" class="edge">
<title>Node405&#45;&gt;Node388</title>
<path fill="none" stroke="#191970" d="M265.1743,-459.2705C281.0671,-544.1135 333.6041,-814.7529 362,-841.9713 368.9141,-848.5986 377.1372,-853.6192 385.9758,-857.3964"/>
<polygon fill="#191970" stroke="#191970" points="268.5742,-458.41 263.3007,-449.2208 261.6928,-459.6929 268.5742,-458.41"/>
</g>
<!-- Node405&#45;&gt;Node389 -->
<g id="edge25" class="edge">
<title>Node405&#45;&gt;Node389</title>
<path fill="none" stroke="#191970" d="M265.4567,-459.3304C278.997,-526.0333 318.5148,-703.9356 362,-742.9713 366.268,-746.8026 370.9749,-750.0992 375.9772,-752.9319"/>
<polygon fill="#191970" stroke="#191970" points="268.8369,-458.3849 263.4407,-449.2673 261.9733,-459.76 268.8369,-458.3849"/>
</g>
<!-- Node405&#45;&gt;Node395 -->
<g id="edge26" class="edge">
<title>Node405&#45;&gt;Node395</title>
<path fill="none" stroke="#191970" d="M264.2153,-459.3712C275.5525,-533.3818 312.0014,-746.5446 362,-792.9713 365.6617,-796.3714 369.6696,-799.3449 373.9265,-801.942"/>
<polygon fill="#191970" stroke="#191970" points="267.6208,-458.4813 262.6694,-449.1147 260.6989,-459.5247 267.6208,-458.4813"/>
</g>
<!-- Node405&#45;&gt;Node402 -->
<g id="edge43" class="edge">
<title>Node405&#45;&gt;Node402</title>
<path fill="none" stroke="#191970" d="M336.4469,-431.6698C476.8481,-427.4153 775.2551,-418.3726 913.4502,-414.1849"/>
<polygon fill="#191970" stroke="#191970" points="336.0975,-428.1787 326.2081,-431.9801 336.3096,-435.1755 336.0975,-428.1787"/>
</g>
<!-- Node405&#45;&gt;Node403 -->
<g id="edge31" class="edge">
<title>Node405&#45;&gt;Node403</title>
<path fill="none" stroke="#191970" d="M276.7074,-457.3783C294.5081,-480.8175 325.4713,-515.4329 362,-529.9713 509.0901,-588.5127 1001.3138,-512.3764 1166.1705,-484.4751"/>
<polygon fill="#191970" stroke="#191970" points="279.5089,-455.2802 270.7588,-449.3064 273.8738,-459.433 279.5089,-455.2802"/>
</g>
<!-- Node406 -->
<g id="node21" class="node">
<title>Node406</title>
<g id="a_node21"><a xlink:href="class_chimera_t_k_1_1_application.html#aab5d12e4073ae6bb0dd7fde8b435aa38" target="_top" xlink:title="Enable the testable mode. ">
<polygon fill="#ffffff" stroke="#000000" points="414,-440.9713 414,-470.9713 545,-470.9713 545,-440.9713 414,-440.9713"/>
<text text-anchor="start" x="422" y="-458.9713" font-family="Helvetica,sans-Serif" font-size="10.00" fill="#000000">ChimeraTK::Application</text>
<text text-anchor="middle" x="479.5" y="-447.9713" font-family="Helvetica,sans-Serif" font-size="10.00" fill="#000000">::enableTestableMode</text>
</a>
</g>
</g>
<!-- Node405&#45;&gt;Node406 -->
<g id="edge21" class="edge">
<title>Node405&#45;&gt;Node406</title>
<path fill="none" stroke="#191970" d="M336.458,-441.6017C361.6582,-444.1333 389.4818,-446.9283 413.8392,-449.3752"/>
<polygon fill="#191970" stroke="#191970" points="336.507,-438.0891 326.2072,-440.572 335.8073,-445.0541 336.507,-438.0891"/>
</g>
<!-- Node408 -->
<g id="node23" class="node">
<title>Node408</title>
<g id="a_node23"><a xlink:href="class_chimera_t_k_1_1_application.html#abb8b6abdb4e460d15a7291b5e8568f0c" target="_top" xlink:title="Enable some additional (potentially noisy) debug output for the testable mode. ">
<polygon fill="#ffffff" stroke="#000000" points="414,-118.9713 414,-148.9713 545,-148.9713 545,-118.9713 414,-118.9713"/>
<text text-anchor="start" x="422" y="-136.9713" font-family="Helvetica,sans-Serif" font-size="10.00" fill="#000000">ChimeraTK::Application</text>
<text text-anchor="middle" x="479.5" y="-125.9713" font-family="Helvetica,sans-Serif" font-size="10.00" fill="#000000">::debugTestableMode</text>
</a>
</g>
</g>
<!-- Node405&#45;&gt;Node408 -->
<g id="edge23" class="edge">
<title>Node405&#45;&gt;Node408</title>
<path fill="none" stroke="#191970" d="M272.139,-409.3216C286.0203,-379.3832 309.4246,-327.1504 326,-280.9713 345.243,-227.3601 320.0821,-196.5372 362,-157.9713 376.0964,-145.0021 395.2362,-138.2549 413.9739,-134.9326"/>
<polygon fill="#191970" stroke="#191970" points="268.8762,-408.0369 267.8201,-418.579 275.2198,-410.9964 268.8762,-408.0369"/>
</g>
<!-- Node409 -->
<g id="node24" class="node">
<title>Node409</title>
<g id="a_node24"><a xlink:href="class_chimera_t_k_1_1_test_facility.html#aa89dcd98d96bef731b8dbd75964bb18c" target="_top" xlink:title="Start the application. ">
<polygon fill="#ffffff" stroke="#000000" points="414,-216.9713 414,-246.9713 545,-246.9713 545,-216.9713 414,-216.9713"/>
<text text-anchor="start" x="422" y="-234.9713" font-family="Helvetica,sans-Serif" font-size="10.00" fill="#000000">ChimeraTK::TestFacility</text>
<text text-anchor="middle" x="479.5" y="-223.9713" font-family="Helvetica,sans-Serif" font-size="10.00" fill="#000000">::runApplication</text>
</a>
</g>
</g>
<!-- Node405&#45;&gt;Node409 -->
<g id="edge27" class="edge">
<title>Node405&#45;&gt;Node409</title>
<path fill="none" stroke="#191970" d="M267.3771,-409.133C279.5665,-370.0011 308.8289,-294.497 362,-255.9713 377.0054,-245.0989 395.779,-238.8855 413.887,-235.4057"/>
<polygon fill="#191970" stroke="#191970" points="263.9614,-408.339 264.4496,-418.9225 270.668,-410.3445 263.9614,-408.339"/>
</g>
<!-- Node410 -->
<g id="node25" class="node">
<title>Node410</title>
<g id="a_node25"><a xlink:href="class_chimera_t_k_1_1_threaded_fan_out.html#aec8d6bcf52e7887791968acf8ac2a3e1" target="_top" xlink:title="Synchronise feeder and the consumers. ">
<polygon fill="#ffffff" stroke="#000000" points="390.5,-714.4713 390.5,-733.4713 568.5,-733.4713 568.5,-714.4713 390.5,-714.4713"/>
<text text-anchor="middle" x="479.5" y="-721.4713" font-family="Helvetica,sans-Serif" font-size="10.00" fill="#000000">ChimeraTK::ThreadedFanOut::run</text>
</a>
</g>
</g>
<!-- Node405&#45;&gt;Node410 -->
<g id="edge28" class="edge">
<title>Node405&#45;&gt;Node410</title>
<path fill="none" stroke="#191970" d="M261.897,-459.4147C266.3513,-513.8587 284.9199,-641.823 362,-704.9713 370.3121,-711.781 380.0955,-716.6082 390.4094,-719.9774"/>
<polygon fill="#191970" stroke="#191970" points="265.3745,-458.976 261.1628,-449.2542 258.3927,-459.4805 265.3745,-458.976"/>
</g>
<!-- Node412 -->
<g id="node27" class="node">
<title>Node412</title>
<g id="a_node27"><a xlink:href="class_chimera_t_k_1_1_threaded_fan_out_with_return.html#ab52d9c326faab0071553435bc9ae3496" target="_top" xlink:title="Synchronise feeder and the consumers. ">
<polygon fill="#ffffff" stroke="#000000" points="401.5,-489.9713 401.5,-519.9713 557.5,-519.9713 557.5,-489.9713 401.5,-489.9713"/>
<text text-anchor="start" x="409.5" y="-507.9713" font-family="Helvetica,sans-Serif" font-size="10.00" fill="#000000">ChimeraTK::ThreadedFanOut</text>
<text text-anchor="middle" x="479.5" y="-496.9713" font-family="Helvetica,sans-Serif" font-size="10.00" fill="#000000">WithReturn::run</text>
</a>
</g>
</g>
<!-- Node405&#45;&gt;Node412 -->
<g id="edge30" class="edge">
<title>Node405&#45;&gt;Node412</title>
<path fill="none" stroke="#191970" d="M297.7748,-453.7671C316.6066,-463.1084 340.0634,-473.7608 362,-480.9713 374.5599,-485.0996 388.1184,-488.6566 401.4073,-491.6716"/>
<polygon fill="#191970" stroke="#191970" points="299.1603,-450.546 288.6555,-449.1678 296.008,-456.7961 299.1603,-450.546"/>
</g>
<!-- Node413 -->
<g id="node28" class="node">
<title>Node413</title>
<g id="a_node28"><a xlink:href="class_chimera_t_k_1_1_application.html#abb8be141c45a20ad4e836ecf82ff9573" target="_top" xlink:title="Resume the application until all application threads are stuck in a blocking read operation...">
<polygon fill="#ffffff" stroke="#000000" points="414,-265.9713 414,-295.9713 545,-295.9713 545,-265.9713 414,-265.9713"/>
<text text-anchor="start" x="422" y="-283.9713" font-family="Helvetica,sans-Serif" font-size="10.00" fill="#000000">ChimeraTK::Application</text>
<text text-anchor="middle" x="479.5" y="-272.9713" font-family="Helvetica,sans-Serif" font-size="10.00" fill="#000000">::stepApplication</text>
</a>
</g>
</g>
<!-- Node405&#45;&gt;Node413 -->
<g id="edge32" class="edge">
<title>Node405&#45;&gt;Node413</title>
<path fill="none" stroke="#191970" d="M272.5412,-409.9116C288.679,-380.2936 320.2012,-330.7604 362,-304.9713 377.5044,-295.4053 396.137,-289.5748 413.9481,-286.0437"/>
<polygon fill="#191970" stroke="#191970" points="269.4356,-408.2974 267.8487,-418.7727 275.6218,-411.5734 269.4356,-408.2974"/>
</g>
<!-- Node415 -->
<g id="node30" class="node">
<title>Node415</title>
<g id="a_node30"><a xlink:href="class_chimera_t_k_1_1_device_module.html#ab388c8a6e152379643f96c8fb945d3a3" target="_top" xlink:title="This functions tries to open the device and set the deviceError. ">
<polygon fill="#ffffff" stroke="#000000" points="913.5,-265.9713 913.5,-295.9713 1059.5,-295.9713 1059.5,-265.9713 913.5,-265.9713"/>
<text text-anchor="start" x="921.5" y="-283.9713" font-family="Helvetica,sans-Serif" font-size="10.00" fill="#000000">ChimeraTK::DeviceModule</text>
<text text-anchor="middle" x="986.5" y="-272.9713" font-family="Helvetica,sans-Serif" font-size="10.00" fill="#000000">::handleException</text>
</a>
</g>
</g>
<!-- Node405&#45;&gt;Node415 -->
<g id="edge44" class="edge">
<title>Node405&#45;&gt;Node415</title>
<path fill="none" stroke="#191970" d="M336.077,-423.5418C491.5548,-402.0762 833.019,-354.8767 836,-353.9713 882.5425,-339.8352 932.6095,-312.9459 961.6638,-296.0438"/>
<polygon fill="#191970" stroke="#191970" points="335.5379,-420.083 326.1105,-424.9178 336.4952,-427.0172 335.5379,-420.083"/>
</g>
<!-- Node418 -->
<g id="node33" class="node">
<title>Node418</title>
<g id="a_node33"><a xlink:href="class_chimera_t_k_1_1_application_module.html#ac2c8911aaa22fca678cfd5f79c0a1f0f" target="_top" xlink:title="Wrapper around mainLoop(), to execute additional tasks in the thread before entering the main loop...">
<polygon fill="#ffffff" stroke="#000000" points="396,-314.9713 396,-344.9713 563,-344.9713 563,-314.9713 396,-314.9713"/>
<text text-anchor="start" x="404" y="-332.9713" font-family="Helvetica,sans-Serif" font-size="10.00" fill="#000000">ChimeraTK::ApplicationModule</text>
<text text-anchor="middle" x="479.5" y="-321.9713" font-family="Helvetica,sans-Serif" font-size="10.00" fill="#000000">::mainLoopWrapper</text>
</a>
</g>
</g>
<!-- Node405&#45;&gt;Node418 -->
<g id="edge38" class="edge">
<title>Node405&#45;&gt;Node418</title>
<path fill="none" stroke="#191970" d="M284.9619,-411.9803C304.5282,-395.4665 333.3412,-373.4623 362,-359.9713 374.7626,-353.9633 388.8931,-349.0453 402.8013,-345.0581"/>
<polygon fill="#191970" stroke="#191970" points="282.4702,-409.5069 277.1699,-418.6807 287.0342,-414.8145 282.4702,-409.5069"/>
</g>
<!-- Node423 -->
<g id="node38" class="node">
<title>Node423</title>
<g id="a_node38"><a xlink:href="class_chimera_t_k_1_1_exception_handling_decorator.html#aad89b520697c4f14d5e58d7361315692" target="_top" xlink:title="ChimeraTK::ExceptionHandling\lDecorator::genericTransfer">
<polygon fill="#ffffff" stroke="#000000" points="395.5,-167.9713 395.5,-197.9713 563.5,-197.9713 563.5,-167.9713 395.5,-167.9713"/>
<text text-anchor="start" x="403.5" y="-185.9713" font-family="Helvetica,sans-Serif" font-size="10.00" fill="#000000">ChimeraTK::ExceptionHandling</text>
<text text-anchor="middle" x="479.5" y="-174.9713" font-family="Helvetica,sans-Serif" font-size="10.00" fill="#000000">Decorator::genericTransfer</text>
</a>
</g>
</g>
<!-- Node405&#45;&gt;Node423 -->
<g id="edge45" class="edge">
<title>Node405&#45;&gt;Node423</title>
<path fill="none" stroke="#191970" d="M271.1106,-409.4593C296.2612,-351.4635 357.7219,-210.4019 362,-206.9713 371.7458,-199.156 383.3776,-193.6858 395.4762,-189.8907"/>
<polygon fill="#191970" stroke="#191970" points="267.8935,-408.0807 267.1283,-418.6479 274.3163,-410.8644 267.8935,-408.0807"/>
</g>
<!-- Node407 -->
<g id="node22" class="node">
<title>Node407</title>
<g id="a_node22"><a xlink:href="class_chimera_t_k_1_1_test_facility.html#afc1238aaadcddda96d35a6c64b88326a" target="_top" xlink:title="The constructor will internally obtain the instance of the application, so the instance of the TestFa...">
<polygon fill="#ffffff" stroke="#000000" points="669,-478.9713 669,-508.9713 800,-508.9713 800,-478.9713 669,-478.9713"/>
<text text-anchor="start" x="677" y="-496.9713" font-family="Helvetica,sans-Serif" font-size="10.00" fill="#000000">ChimeraTK::TestFacility</text>
<text text-anchor="middle" x="734.5" y="-485.9713" font-family="Helvetica,sans-Serif" font-size="10.00" fill="#000000">::TestFacility</text>
</a>
</g>
</g>
<!-- Node406&#45;&gt;Node407 -->
<g id="edge22" class="edge">
<title>Node406&#45;&gt;Node407</title>
<path fill="none" stroke="#191970" d="M555.1475,-467.2442C591.1964,-472.6162 633.9113,-478.9816 668.611,-484.1525"/>
<polygon fill="#191970" stroke="#191970" points="555.5755,-463.7694 545.1688,-465.7572 554.5437,-470.693 555.5755,-463.7694"/>
</g>
<!-- Node411 -->
<g id="node26" class="node">
<title>Node411</title>
<g id="a_node26"><a xlink:href="class_chimera_t_k_1_1_threaded_fan_out.html#a256e80f1a94f3fe0706d6a8dcbe47e29" target="_top" xlink:title="Activate synchronisation thread if needed. ">
<polygon fill="#ffffff" stroke="#000000" points="656.5,-850.9713 656.5,-880.9713 812.5,-880.9713 812.5,-850.9713 656.5,-850.9713"/>
<text text-anchor="start" x="664.5" y="-868.9713" font-family="Helvetica,sans-Serif" font-size="10.00" fill="#000000">ChimeraTK::ThreadedFanOut</text>
<text text-anchor="middle" x="734.5" y="-857.9713" font-family="Helvetica,sans-Serif" font-size="10.00" fill="#000000">::activate</text>
</a>
</g>
</g>
<!-- Node410&#45;&gt;Node411 -->
<g id="edge29" class="edge">
<title>Node410&#45;&gt;Node411</title>
<path fill="none" stroke="#191970" d="M578.1347,-732.407C584.9211,-735.4426 591.3119,-739.2415 597,-743.9713 632.6781,-773.6388 598.2831,-811.1845 633,-841.9713 639.7739,-847.9783 647.7736,-852.5544 656.262,-856.0293"/>
<polygon fill="#191970" stroke="#191970" points="579.2528,-729.0866 568.6641,-728.7248 576.7161,-735.6108 579.2528,-729.0866"/>
</g>
<!-- Node414 -->
<g id="node29" class="node">
<title>Node414</title>
<g id="a_node29"><a xlink:href="class_chimera_t_k_1_1_application.html#a881553efec1eb3bab305b775eae5d3ea" target="_top" xlink:title="Returns true if application is in testable mode else returns false. ">
<polygon fill="#ffffff" stroke="#000000" points="666,-265.9713 666,-295.9713 803,-295.9713 803,-265.9713 666,-265.9713"/>
<text text-anchor="start" x="674" y="-283.9713" font-family="Helvetica,sans-Serif" font-size="10.00" fill="#000000">ChimeraTK::Application</text>
<text text-anchor="middle" x="734.5" y="-272.9713" font-family="Helvetica,sans-Serif" font-size="10.00" fill="#000000">::isTestableModeEnabled</text>
</a>
</g>
</g>
<!-- Node413&#45;&gt;Node414 -->
<g id="edge33" class="edge">
<title>Node413&#45;&gt;Node414</title>
<path fill="none" stroke="#191970" d="M555.3616,-280.9713C590.4441,-280.9713 631.8031,-280.9713 665.9367,-280.9713"/>
<polygon fill="#191970" stroke="#191970" points="555.1689,-277.4714 545.1688,-280.9713 555.1688,-284.4714 555.1689,-277.4714"/>
</g>
<!-- Node417 -->
<g id="node32" class="node">
<title>Node417</title>
<g id="a_node32"><a xlink:href="class_chimera_t_k_1_1_test_facility.html#afb42f847c5014f174aa43ba422f561f3" target="_top" xlink:title="Perform a &quot;step&quot; of the application. ">
<polygon fill="#ffffff" stroke="#000000" points="669,-216.9713 669,-246.9713 800,-246.9713 800,-216.9713 669,-216.9713"/>
<text text-anchor="start" x="677" y="-234.9713" font-family="Helvetica,sans-Serif" font-size="10.00" fill="#000000">ChimeraTK::TestFacility</text>
<text text-anchor="middle" x="734.5" y="-223.9713" font-family="Helvetica,sans-Serif" font-size="10.00" fill="#000000">::stepApplication</text>
</a>
</g>
</g>
<!-- Node413&#45;&gt;Node417 -->
<g id="edge37" class="edge">
<title>Node413&#45;&gt;Node417</title>
<path fill="none" stroke="#191970" d="M555.1475,-266.4351C591.1964,-259.508 633.9113,-251.3001 668.611,-244.6323"/>
<polygon fill="#191970" stroke="#191970" points="554.3287,-263.0283 545.1688,-268.3525 555.6497,-269.9025 554.3287,-263.0283"/>
</g>
<!-- Node414&#45;&gt;Node402 -->
<g id="edge34" class="edge">
<title>Node414&#45;&gt;Node402</title>
<path fill="none" stroke="#191970" d="M812.8699,-296.2541C820.8273,-298.7635 828.6704,-301.653 836,-304.9713 889.4459,-329.1676 943.3866,-373.4479 969.8038,-396.734"/>
<polygon fill="#191970" stroke="#191970" points="813.7156,-292.8544 803.1337,-293.3783 811.7326,-299.5677 813.7156,-292.8544"/>
</g>
<!-- Node414&#45;&gt;Node415 -->
<g id="edge35" class="edge">
<title>Node414&#45;&gt;Node415</title>
<path fill="none" stroke="#191970" d="M813.2107,-280.9713C845.1273,-280.9713 881.7792,-280.9713 913.131,-280.9713"/>
<polygon fill="#191970" stroke="#191970" points="813.0273,-277.4714 803.0272,-280.9713 813.0272,-284.4714 813.0273,-277.4714"/>
</g>
<!-- Node416 -->
<g id="node31" class="node">
<title>Node416</title>
<g id="a_node31"><a xlink:href="class_chimera_t_k_1_1_device_module.html#a71dea3b0240cf2eccbae77ab7f2c4a73" target="_top" xlink:title="Execute the module. ">
<polygon fill="#ffffff" stroke="#000000" points="1137,-271.4713 1137,-290.4713 1304,-290.4713 1304,-271.4713 1137,-271.4713"/>
<text text-anchor="middle" x="1220.5" y="-278.4713" font-family="Helvetica,sans-Serif" font-size="10.00" fill="#000000">ChimeraTK::DeviceModule::run</text>
</a>
</g>
</g>
<!-- Node415&#45;&gt;Node416 -->
<g id="edge36" class="edge">
<title>Node415&#45;&gt;Node416</title>
<path fill="none" stroke="#191970" d="M1069.7973,-280.9713C1091.6088,-280.9713 1115.1286,-280.9713 1136.953,-280.9713"/>
<polygon fill="#191970" stroke="#191970" points="1069.5766,-277.4714 1059.5765,-280.9713 1069.5765,-284.4714 1069.5766,-277.4714"/>
</g>
<!-- Node419 -->
<g id="node34" class="node">
<title>Node419</title>
<g id="a_node34"><a xlink:href="class_chimera_t_k_1_1_application_module.html#a91ee550d32401fa635fbad8a8b301d1d" target="_top" xlink:title="Decrement the fault counter and set the data validity flag to ok if the counter has reached 0...">
<polygon fill="#ffffff" stroke="#000000" points="651,-314.9713 651,-344.9713 818,-344.9713 818,-314.9713 651,-314.9713"/>
<text text-anchor="start" x="659" y="-332.9713" font-family="Helvetica,sans-Serif" font-size="10.00" fill="#000000">ChimeraTK::ApplicationModule</text>
<text text-anchor="middle" x="734.5" y="-321.9713" font-family="Helvetica,sans-Serif" font-size="10.00" fill="#000000">::decrementDataFaultCounter</text>
</a>
</g>
</g>
<!-- Node418&#45;&gt;Node419 -->
<g id="edge39" class="edge">
<title>Node418&#45;&gt;Node419</title>
<path fill="none" stroke="#191970" d="M573.6568,-329.9713C598.8787,-329.9713 625.9729,-329.9713 650.5999,-329.9713"/>
<polygon fill="#191970" stroke="#191970" points="573.3498,-326.4714 563.3497,-329.9713 573.3497,-333.4714 573.3498,-326.4714"/>
</g>
<!-- Node420 -->
<g id="node35" class="node">
<title>Node420</title>
<g id="a_node35"><a xlink:href="class_chimera_t_k_1_1_application_module.html#a4657828fa7b0ad3a50e10a8745c063e1" target="_top" xlink:title="Execute the module. ">
<polygon fill="#ffffff" stroke="#000000" points="640.5,-440.4713 640.5,-459.4713 828.5,-459.4713 828.5,-440.4713 640.5,-440.4713"/>
<text text-anchor="middle" x="734.5" y="-447.4713" font-family="Helvetica,sans-Serif" font-size="10.00" fill="#000000">ChimeraTK::ApplicationModule::run</text>
</a>
</g>
</g>
<!-- Node418&#45;&gt;Node420 -->
<g id="edge40" class="edge">
<title>Node418&#45;&gt;Node420</title>
<path fill="none" stroke="#191970" d="M520.7199,-349.3689C576.0998,-375.43 672.391,-420.7435 714.1797,-440.4088"/>
<polygon fill="#191970" stroke="#191970" points="522.0762,-346.139 511.5377,-345.0478 519.0956,-352.4727 522.0762,-346.139"/>
</g>
<!-- Node421 -->
<g id="node36" class="node">
<title>Node421</title>
<g id="a_node36"><a xlink:href="class_chimera_t_k_1_1_application_module.html#a89e4a79b16f64de9d986a9a7ce6ff706" target="_top" xlink:title="Move assignment. ">
<polygon fill="#ffffff" stroke="#000000" points="903,-566.9713 903,-596.9713 1070,-596.9713 1070,-566.9713 903,-566.9713"/>
<text text-anchor="start" x="911" y="-584.9713" font-family="Helvetica,sans-Serif" font-size="10.00" fill="#000000">ChimeraTK::ApplicationModule</text>
<text text-anchor="middle" x="986.5" y="-573.9713" font-family="Helvetica,sans-Serif" font-size="10.00" fill="#000000">::operator=</text>
</a>
</g>
</g>
<!-- Node420&#45;&gt;Node421 -->
<g id="edge41" class="edge">
<title>Node420&#45;&gt;Node421</title>
<path fill="none" stroke="#191970" d="M814.3934,-462.1699C821.8366,-464.3579 829.1497,-466.9354 836,-469.9713 891.3845,-494.5161 945.7363,-542.5182 971.3189,-566.9342"/>
<polygon fill="#191970" stroke="#191970" points="815.1284,-458.7431 804.5615,-459.5123 813.3017,-465.5005 815.1284,-458.7431"/>
</g>
<!-- Node422 -->
<g id="node37" class="node">
<title>Node422</title>
<g id="a_node37"><a xlink:href="class_chimera_t_k_1_1_application_module.html#aa5d5e870c6960faa2215d762f1385397" target="_top" xlink:title="Move operation with the move constructor. ">
<polygon fill="#ffffff" stroke="#000000" points="1137,-566.9713 1137,-596.9713 1304,-596.9713 1304,-566.9713 1137,-566.9713"/>
<text text-anchor="start" x="1145" y="-584.9713" font-family="Helvetica,sans-Serif" font-size="10.00" fill="#000000">ChimeraTK::ApplicationModule</text>
<text text-anchor="middle" x="1220.5" y="-573.9713" font-family="Helvetica,sans-Serif" font-size="10.00" fill="#000000">::ApplicationModule</text>
</a>
</g>
</g>
<!-- Node421&#45;&gt;Node422 -->
<g id="edge42" class="edge">
<title>Node421&#45;&gt;Node422</title>
<path fill="none" stroke="#191970" d="M1080.5696,-581.9713C1099.1938,-581.9713 1118.6248,-581.9713 1136.8737,-581.9713"/>
<polygon fill="#191970" stroke="#191970" points="1080.3185,-578.4714 1070.3184,-581.9713 1080.3184,-585.4714 1080.3185,-578.4714"/>
</g>
<!-- Node424&#45;&gt;Node390 -->
<g id="edge48" class="edge">
<title>Node424&#45;&gt;Node390</title>
<path fill="none" stroke="#191970" d="M273.2573,-281.0954C288.2346,-310.481 312.7127,-362.0224 326,-408.9713 341.1052,-462.3438 323.9063,-615.6518 362,-655.9713 368.7204,-663.0843 376.9336,-668.3945 385.8651,-672.324"/>
<polygon fill="#191970" stroke="#191970" points="276.2688,-279.2988 268.5721,-272.0179 270.0484,-282.5094 276.2688,-279.2988"/>
</g>
<!-- Node424&#45;&gt;Node398 -->
<g id="edge50" class="edge">
<title>Node424&#45;&gt;Node398</title>
<path fill="none" stroke="#191970" d="M272.1168,-281.4631C285.9764,-311.2091 309.3594,-363.1036 326,-408.9713 345.1352,-461.7149 331.488,-482.8855 362,-529.9713 386.137,-567.2191 427.9718,-598.4096 454.6638,-615.8776"/>
<polygon fill="#191970" stroke="#191970" points="275.2187,-279.8342 267.8052,-272.2652 268.8805,-282.8053 275.2187,-279.8342"/>
</g>
<!-- Node424&#45;&gt;Node402 -->
<g id="edge53" class="edge">
<title>Node424&#45;&gt;Node402</title>
<path fill="none" stroke="#191970" d="M269.0637,-232.0878C282.5925,-197.1737 312.5743,-135.0069 362,-108.9713 454.4077,-60.2942 494.5263,-88.7778 597,-108.9713 709.6391,-131.1679 756.3397,-124.3003 836,-206.9713 868.1967,-240.3848 846.3523,-266.3024 872,-304.9713 897.5654,-343.5159 939.6688,-378.0532 965.0719,-396.908"/>
<polygon fill="#191970" stroke="#191970" points="265.7428,-230.9768 265.5354,-241.5696 272.3033,-233.4181 265.7428,-230.9768"/>
</g>
<!-- Node424&#45;&gt;Node408 -->
<g id="edge47" class="edge">
<title>Node424&#45;&gt;Node408</title>
<path fill="none" stroke="#191970" d="M277.763,-233.639C296.058,-210.6834 327.0898,-176.4669 362,-157.9713 377.8222,-149.5886 396.2742,-144.1295 413.8035,-140.5758"/>
<polygon fill="#191970" stroke="#191970" points="274.7696,-231.7868 271.3934,-241.8293 280.2953,-236.0841 274.7696,-231.7868"/>
</g>
<!-- Node424&#45;&gt;Node409 -->
<g id="edge49" class="edge">
<title>Node424&#45;&gt;Node409</title>
<path fill="none" stroke="#191970" d="M336.458,-248.3003C361.6582,-245.4235 389.4818,-242.2473 413.8392,-239.4668"/>
<polygon fill="#191970" stroke="#191970" points="335.7457,-244.8588 326.2072,-249.4704 336.5397,-251.8136 335.7457,-244.8588"/>
</g>
<!-- Node424&#45;&gt;Node413 -->
<g id="edge51" class="edge">
<title>Node424&#45;&gt;Node413</title>
<path fill="none" stroke="#191970" d="M336.458,-265.2954C361.6582,-268.0571 389.4818,-271.1063 413.8392,-273.7756"/>
<polygon fill="#191970" stroke="#191970" points="336.529,-261.7823 326.2072,-264.1721 335.7664,-268.7407 336.529,-261.7823"/>
</g>
<!-- Node424&#45;&gt;Node415 -->
<g id="edge54" class="edge">
<title>Node424&#45;&gt;Node415</title>
<path fill="none" stroke="#191970" d="M265.9422,-232.1675C276.4442,-191.0818 303.8037,-110.0585 362,-75.9713 543.7796,30.5023 648.0581,19.2037 836,-75.9713 917.5351,-117.2612 965.6132,-225.8114 981.0309,-265.8531"/>
<polygon fill="#191970" stroke="#191970" points="262.5297,-231.3885 263.5736,-241.9317 269.3325,-233.0387 262.5297,-231.3885"/>
</g>
<!-- Node424&#45;&gt;Node418 -->
<g id="edge52" class="edge">
<title>Node424&#45;&gt;Node418</title>
<path fill="none" stroke="#191970" d="M296.6852,-276.601C315.6884,-286.2569 339.6221,-297.4139 362,-304.9713 373.1641,-308.7416 385.1238,-312.0654 396.9839,-314.9561"/>
<polygon fill="#191970" stroke="#191970" points="298.2722,-273.4814 287.7809,-272.0037 295.0608,-279.7013 298.2722,-273.4814"/>
</g>
<!-- Node424&#45;&gt;Node423 -->
<g id="edge55" class="edge">
<title>Node424&#45;&gt;Node423</title>
<path fill="none" stroke="#191970" d="M295.3618,-237.026C314.518,-226.7842 338.9996,-214.8392 362,-206.9713 372.6379,-203.3323 384.016,-200.1606 395.3488,-197.421"/>
<polygon fill="#191970" stroke="#191970" points="293.528,-234.0391 286.4155,-241.8916 296.8725,-240.1884 293.528,-234.0391"/>
</g>
</g>
</svg>
