<?xml version="1.0" encoding="UTF-8" standalone="no"?>
<!DOCTYPE svg PUBLIC "-//W3C//DTD SVG 1.1//EN"
 "http://www.w3.org/Graphics/SVG/1.1/DTD/svg11.dtd">
<!-- Generated by graphviz version 2.40.1 (20161225.0304)
 -->
<!-- Title: ChimeraTK::Application::stepApplication Pages: 1 -->
<!--zoomable 466 -->
<svg id="main" version="1.1" xmlns="http://www.w3.org/2000/svg" xmlns:xlink="http://www.w3.org/1999/xlink" xml:space="preserve" onload="init(evt)">
<style type="text/css"><![CDATA[
.edge:hover path { stroke: red; }
.edge:hover polygon { stroke: red; fill: red; }
]]></style>
<script type="text/javascript"><![CDATA[
var edges = document.getElementsByTagName('g');
if (edges && edges.length) {
  for (var i=0;i<edges.length;i++) {
    if (edges[i].id.substr(0,4)=='edge') {
      edges[i].setAttribute('class','edge');
    }
  }
}
]]></script>
        <defs>
                <circle id="rim" cx="0" cy="0" r="7"/>
                <circle id="rim2" cx="0" cy="0" r="3.5"/>
                <g id="zoomPlus">
                        <use xlink:href="#rim" fill="#404040">
                                <set attributeName="fill" to="#808080" begin="zoomplus.mouseover" end="zoomplus.mouseout"/>
                        </use>
                        <path d="M-4,0h8M0,-4v8" fill="none" stroke="white" stroke-width="1.5" pointer-events="none"/>
                </g>
                <g id="zoomMin">
                        <use xlink:href="#rim" fill="#404040">
                                <set attributeName="fill" to="#808080" begin="zoomminus.mouseover" end="zoomminus.mouseout"/>
                        </use>
                        <path d="M-4,0h8" fill="none" stroke="white" stroke-width="1.5" pointer-events="none"/>
                </g>
                <g id="dirArrow">
                        <path fill="none" stroke="white" stroke-width="1.5" d="M0,-3.0v7 M-2.5,-0.5L0,-3.0L2.5,-0.5"/>
                </g>
               <g id="resetDef">
                       <use xlink:href="#rim2" fill="#404040">
                               <set attributeName="fill" to="#808080" begin="reset.mouseover" end="reset.mouseout"/>
                       </use>
               </g>
        </defs>

<script type="text/javascript">
var viewWidth = 887;
var viewHeight = 466;
var sectionId = 'dynsection-53';
</script>
<script xlink:href="svgpan.js"/>
<svg id="graph" class="graph">
<g id="viewport">
<title>ChimeraTK::Application::stepApplication</title>
<polygon fill="#ffffff" stroke="transparent" points="-4,4 -4,-462 883,-462 883,4 -4,4"/>
<!-- Node786 -->
<g id="node1" class="node">
<title>Node786</title>
<polygon fill="#bfbfbf" stroke="#000000" points="0,-191.5 0,-221.5 131,-221.5 131,-191.5 0,-191.5"/>
<text text-anchor="start" x="8" y="-209.5" font-family="Helvetica,sans-Serif" font-size="10.00" fill="#000000">ChimeraTK::Application</text>
<text text-anchor="middle" x="65.5" y="-198.5" font-family="Helvetica,sans-Serif" font-size="10.00" fill="#000000">::stepApplication</text>
</g>
<!-- Node787 -->
<g id="node2" class="node">
<title>Node787</title>
<g id="a_node2"><a xlink:href="class_chimera_t_k_1_1_application.html#a881553efec1eb3bab305b775eae5d3ea" target="_top" xlink:title="Returns true if application is in testable mode else returns false. ">
<polygon fill="#ffffff" stroke="#000000" points="167,-301.5 167,-331.5 304,-331.5 304,-301.5 167,-301.5"/>
<text text-anchor="start" x="175" y="-319.5" font-family="Helvetica,sans-Serif" font-size="10.00" fill="#000000">ChimeraTK::Application</text>
<text text-anchor="middle" x="235.5" y="-308.5" font-family="Helvetica,sans-Serif" font-size="10.00" fill="#000000">::isTestableModeEnabled</text>
</a>
</g>
</g>
<!-- Node786&#45;&gt;Node787 -->
<g id="edge1" class="edge">
<title>Node786&#45;&gt;Node787</title>
<path fill="none" stroke="#191970" d="M97.2678,-227.0556C130.6713,-248.6696 182.4314,-282.1615 212.2277,-301.4415"/>
<polygon fill="#191970" stroke="#191970" points="99.0784,-224.0584 88.7813,-221.5644 95.2756,-229.9354 99.0784,-224.0584"/>
</g>
<!-- Node796 -->
<g id="node11" class="node">
<title>Node796</title>
<g id="a_node11"><a xlink:href="class_chimera_t_k_1_1_test_facility.html#a8e4b9b277fb176ceaf6bd8dd3465a780" target="_top" xlink:title="Perform a &quot;step&quot; of the application. ">
<polygon fill="#ffffff" stroke="#000000" points="170,-82.5 170,-112.5 301,-112.5 301,-82.5 170,-82.5"/>
<text text-anchor="start" x="178" y="-100.5" font-family="Helvetica,sans-Serif" font-size="10.00" fill="#000000">ChimeraTK::TestFacility</text>
<text text-anchor="middle" x="235.5" y="-89.5" font-family="Helvetica,sans-Serif" font-size="10.00" fill="#000000">::stepApplication</text>
</a>
</g>
</g>
<!-- Node786&#45;&gt;Node796 -->
<g id="edge11" class="edge">
<title>Node786&#45;&gt;Node796</title>
<path fill="none" stroke="#191970" d="M97.619,-185.906C130.9714,-164.5213 182.3455,-131.5814 212.063,-112.5273"/>
<polygon fill="#191970" stroke="#191970" points="95.6668,-183 89.1378,-191.344 99.4452,-188.8928 95.6668,-183"/>
</g>
<!-- Node788 -->
<g id="node3" class="node">
<title>Node788</title>
<g id="a_node3"><a xlink:href="class_chimera_t_k_1_1_threaded_fan_out.html#a256e80f1a94f3fe0706d6a8dcbe47e29" target="_top" xlink:title="Activate synchronisation thread if needed. ">
<polygon fill="#ffffff" stroke="#000000" points="340,-427.5 340,-457.5 496,-457.5 496,-427.5 340,-427.5"/>
<text text-anchor="start" x="348" y="-445.5" font-family="Helvetica,sans-Serif" font-size="10.00" fill="#000000">ChimeraTK::ThreadedFanOut</text>
<text text-anchor="middle" x="418" y="-434.5" font-family="Helvetica,sans-Serif" font-size="10.00" fill="#000000">::activate</text>
</a>
</g>
</g>
<!-- Node787&#45;&gt;Node788 -->
<g id="edge2" class="edge">
<title>Node787&#45;&gt;Node788</title>
<path fill="none" stroke="#191970" d="M255.5686,-339.3417C275.2934,-360.6472 307.1401,-392.122 340,-412.5 349.371,-418.3114 360.0524,-423.3163 370.4404,-427.4814"/>
<polygon fill="#191970" stroke="#191970" points="257.9468,-336.7549 248.6256,-331.7183 252.7715,-341.4683 257.9468,-336.7549"/>
</g>
<!-- Node789 -->
<g id="node4" class="node">
<title>Node789</title>
<g id="a_node4"><a xlink:href="class_chimera_t_k_1_1_trigger_fan_out.html#a1e62fe742bdca6b91751bb21047f9a6f" target="_top" xlink:title="Activate synchronisation thread if needed. ">
<polygon fill="#ffffff" stroke="#000000" points="736,-364.5 736,-394.5 879,-394.5 879,-364.5 736,-364.5"/>
<text text-anchor="start" x="744" y="-382.5" font-family="Helvetica,sans-Serif" font-size="10.00" fill="#000000">ChimeraTK::TriggerFanOut</text>
<text text-anchor="middle" x="807.5" y="-371.5" font-family="Helvetica,sans-Serif" font-size="10.00" fill="#000000">::activate</text>
</a>
</g>
</g>
<!-- Node787&#45;&gt;Node789 -->
<g id="edge3" class="edge">
<title>Node787&#45;&gt;Node789</title>
<path fill="none" stroke="#191970" d="M306.2737,-333.8303C317.5385,-336.4736 329.076,-339.1133 340,-341.5 424.9838,-360.0678 445.4262,-371.0151 532,-379.5 601.0226,-386.2648 680.2403,-385.3663 735.9605,-383.3154"/>
<polygon fill="#191970" stroke="#191970" points="307.0037,-330.4065 296.4668,-331.5128 305.3938,-337.2189 307.0037,-330.4065"/>
</g>
<!-- Node790 -->
<g id="node5" class="node">
<title>Node790</title>
<g id="a_node5"><a xlink:href="class_chimera_t_k_1_1_device_module.html#a866cf974d4a178d389753536be5a88db" target="_top" xlink:title="Use this function to report an exception. ">
<polygon fill="#ffffff" stroke="#000000" points="345,-301.5 345,-331.5 491,-331.5 491,-301.5 345,-301.5"/>
<text text-anchor="start" x="353" y="-319.5" font-family="Helvetica,sans-Serif" font-size="10.00" fill="#000000">ChimeraTK::DeviceModule</text>
<text text-anchor="middle" x="418" y="-308.5" font-family="Helvetica,sans-Serif" font-size="10.00" fill="#000000">::reportException</text>
</a>
</g>
</g>
<!-- Node787&#45;&gt;Node790 -->
<g id="edge4" class="edge">
<title>Node787&#45;&gt;Node790</title>
<path fill="none" stroke="#191970" d="M314.2702,-316.5C324.3935,-316.5 334.7257,-316.5 344.7557,-316.5"/>
<polygon fill="#191970" stroke="#191970" points="314.2354,-313.0001 304.2354,-316.5 314.2353,-320.0001 314.2354,-313.0001"/>
</g>
<!-- Node794 -->
<g id="node9" class="node">
<title>Node794</title>
<g id="a_node9"><a xlink:href="class_chimera_t_k_1_1_device_module.html#ab388c8a6e152379643f96c8fb945d3a3" target="_top" xlink:title="This functions tries to open the device and set the deviceError. ">
<polygon fill="#ffffff" stroke="#000000" points="345,-230.5 345,-260.5 491,-260.5 491,-230.5 345,-230.5"/>
<text text-anchor="start" x="353" y="-248.5" font-family="Helvetica,sans-Serif" font-size="10.00" fill="#000000">ChimeraTK::DeviceModule</text>
<text text-anchor="middle" x="418" y="-237.5" font-family="Helvetica,sans-Serif" font-size="10.00" fill="#000000">::handleException</text>
</a>
</g>
</g>
<!-- Node787&#45;&gt;Node794 -->
<g id="edge9" class="edge">
<title>Node787&#45;&gt;Node794</title>
<path fill="none" stroke="#191970" d="M283.6047,-297.7853C313.4992,-286.1551 351.4192,-271.4027 379.3522,-260.5356"/>
<polygon fill="#191970" stroke="#191970" points="282.2541,-294.5551 274.2036,-301.4427 284.7921,-301.0788 282.2541,-294.5551"/>
</g>
<!-- Node791 -->
<g id="node6" class="node">
<title>Node791</title>
<g id="a_node6"><a xlink:href="class_chimera_t_k_1_1_trigger_fan_out.html#ac46817d485e17425b7200cfe5c3c7bff" target="_top" xlink:title="Synchronise feeder and the consumers. ">
<polygon fill="#ffffff" stroke="#000000" points="533.5,-351 533.5,-370 698.5,-370 698.5,-351 533.5,-351"/>
<text text-anchor="middle" x="616" y="-358" font-family="Helvetica,sans-Serif" font-size="10.00" fill="#000000">ChimeraTK::TriggerFanOut::run</text>
</a>
</g>
</g>
<!-- Node790&#45;&gt;Node791 -->
<g id="edge5" class="edge">
<title>Node790&#45;&gt;Node791</title>
<path fill="none" stroke="#191970" d="M495.5853,-333.7412C521.9901,-339.6089 550.5296,-345.951 573.1941,-350.9876"/>
<polygon fill="#191970" stroke="#191970" points="496.1077,-330.272 485.5866,-331.5192 494.5892,-337.1053 496.1077,-330.272"/>
</g>
<!-- Node792 -->
<g id="node7" class="node">
<title>Node792</title>
<g id="a_node7"><a xlink:href="class_chimera_t_k_1_1_exception_handling_decorator.html#a69b3d5a25b51a08d9ecb23682caadafe" target="_top" xlink:title="ChimeraTK::ExceptionHandling\lDecorator::doPostWrite">
<polygon fill="#ffffff" stroke="#000000" points="532,-301.5 532,-331.5 700,-331.5 700,-301.5 532,-301.5"/>
<text text-anchor="start" x="540" y="-319.5" font-family="Helvetica,sans-Serif" font-size="10.00" fill="#000000">ChimeraTK::ExceptionHandling</text>
<text text-anchor="middle" x="616" y="-308.5" font-family="Helvetica,sans-Serif" font-size="10.00" fill="#000000">Decorator::doPostWrite</text>
</a>
</g>
</g>
<!-- Node790&#45;&gt;Node792 -->
<g id="edge7" class="edge">
<title>Node790&#45;&gt;Node792</title>
<path fill="none" stroke="#191970" d="M501.1876,-316.5C511.3014,-316.5 521.6412,-316.5 531.77,-316.5"/>
<polygon fill="#191970" stroke="#191970" points="501.1654,-313.0001 491.1653,-316.5 501.1653,-320.0001 501.1654,-313.0001"/>
</g>
<!-- Node793 -->
<g id="node8" class="node">
<title>Node793</title>
<g id="a_node8"><a xlink:href="class_chimera_t_k_1_1_exception_handling_decorator.html#a2d9fb80a1cc4eeb5b7aa751e55d0b9c6" target="_top" xlink:title="ChimeraTK::ExceptionHandling\lDecorator::doPostRead">
<polygon fill="#ffffff" stroke="#000000" points="532,-252.5 532,-282.5 700,-282.5 700,-252.5 532,-252.5"/>
<text text-anchor="start" x="540" y="-270.5" font-family="Helvetica,sans-Serif" font-size="10.00" fill="#000000">ChimeraTK::ExceptionHandling</text>
<text text-anchor="middle" x="616" y="-259.5" font-family="Helvetica,sans-Serif" font-size="10.00" fill="#000000">Decorator::doPostRead</text>
</a>
</g>
</g>
<!-- Node790&#45;&gt;Node793 -->
<g id="edge8" class="edge">
<title>Node790&#45;&gt;Node793</title>
<path fill="none" stroke="#191970" d="M488.6205,-299.0232C510.4437,-293.6225 534.2766,-287.7245 555.3628,-282.5062"/>
<polygon fill="#191970" stroke="#191970" points="487.6185,-295.6655 478.7521,-301.4654 489.3001,-302.4605 487.6185,-295.6655"/>
</g>
<!-- Node791&#45;&gt;Node789 -->
<g id="edge6" class="edge">
<title>Node791&#45;&gt;Node789</title>
<path fill="none" stroke="#191970" d="M708.5725,-369.6847C717.7896,-370.5992 727.0459,-371.5176 735.9994,-372.4059"/>
<polygon fill="#191970" stroke="#191970" points="708.8994,-366.2001 698.6027,-368.6956 708.2083,-373.1659 708.8994,-366.2001"/>
</g>
<!-- Node795 -->
<g id="node10" class="node">
<title>Node795</title>
<g id="a_node10"><a xlink:href="class_chimera_t_k_1_1_device_module.html#a71dea3b0240cf2eccbae77ab7f2c4a73" target="_top" xlink:title="Execute the module. ">
<polygon fill="#ffffff" stroke="#000000" points="532.5,-214 532.5,-233 699.5,-233 699.5,-214 532.5,-214"/>
<text text-anchor="middle" x="616" y="-221" font-family="Helvetica,sans-Serif" font-size="10.00" fill="#000000">ChimeraTK::DeviceModule::run</text>
</a>
</g>
</g>
<!-- Node794&#45;&gt;Node795 -->
<g id="edge10" class="edge">
<title>Node794&#45;&gt;Node795</title>
<path fill="none" stroke="#191970" d="M501.3562,-236.2382C511.6411,-235.0954 522.1571,-233.927 532.4449,-232.7839"/>
<polygon fill="#191970" stroke="#191970" points="500.7176,-232.7875 491.1653,-237.3705 501.4907,-239.7447 500.7176,-232.7875"/>
</g>
<!-- Node797 -->
<g id="node12" class="node">
<title>Node797</title>
<g id="a_node12"><a xlink:href="class_chimera_t_k_1_1_test_facility.html#aa89dcd98d96bef731b8dbd75964bb18c" target="_top" xlink:title="Start the application in testable mode. ">
<polygon fill="#ffffff" stroke="#000000" points="352.5,-126.5 352.5,-156.5 483.5,-156.5 483.5,-126.5 352.5,-126.5"/>
<text text-anchor="start" x="360.5" y="-144.5" font-family="Helvetica,sans-Serif" font-size="10.00" fill="#000000">ChimeraTK::TestFacility</text>
<text text-anchor="middle" x="418" y="-133.5" font-family="Helvetica,sans-Serif" font-size="10.00" fill="#000000">::runApplication</text>
</a>
</g>
</g>
<!-- Node796&#45;&gt;Node797 -->
<g id="edge12" class="edge">
<title>Node796&#45;&gt;Node797</title>
<path fill="none" stroke="#191970" d="M307.5746,-114.8769C323.4785,-118.7112 340.1962,-122.7418 355.6754,-126.4738"/>
<polygon fill="#191970" stroke="#191970" points="308.3375,-111.4606 297.7957,-112.5192 306.6968,-118.2656 308.3375,-111.4606"/>
</g>
<!-- Node799 -->
<g id="node14" class="node">
<title>Node799</title>
<g id="a_node14"><a xlink:href="test_bidirectional_variables_8cc.html#a770cbc1044b9190bbc8583fa9858a27f" target="_top" xlink:title="BOOST_AUTO_TEST_CASE">
<polygon fill="#ffffff" stroke="#000000" points="544.5,-88 544.5,-107 687.5,-107 687.5,-88 544.5,-88"/>
<text text-anchor="middle" x="616" y="-95" font-family="Helvetica,sans-Serif" font-size="10.00" fill="#000000">BOOST_AUTO_TEST_CASE</text>
</a>
</g>
</g>
<!-- Node796&#45;&gt;Node799 -->
<g id="edge16" class="edge">
<title>Node796&#45;&gt;Node799</title>
<path fill="none" stroke="#191970" d="M311.5433,-97.5C379.4087,-97.5 478.0545,-97.5 544.4998,-97.5"/>
<polygon fill="#191970" stroke="#191970" points="311.3437,-94.0001 301.3436,-97.5 311.3436,-101.0001 311.3437,-94.0001"/>
</g>
<!-- Node801 -->
<g id="node16" class="node">
<title>Node801</title>
<g id="a_node16"><a xlink:href="test_direct_device_to_c_s_8cc.html#aebb3a89b39318bc4172268e535c6534b" target="_top" xlink:title="testDirectRegister">
<polygon fill="#ffffff" stroke="#000000" points="366,-50 366,-69 470,-69 470,-50 366,-50"/>
<text text-anchor="middle" x="418" y="-57" font-family="Helvetica,sans-Serif" font-size="10.00" fill="#000000">testDirectRegister</text>
</a>
</g>
</g>
<!-- Node796&#45;&gt;Node801 -->
<g id="edge17" class="edge">
<title>Node796&#45;&gt;Node801</title>
<path fill="none" stroke="#191970" d="M310.9325,-81.7935C331.7847,-77.4517 353.7737,-72.8732 372.3628,-69.0025"/>
<polygon fill="#191970" stroke="#191970" points="310.2054,-78.3698 301.1289,-83.8348 311.6324,-85.2228 310.2054,-78.3698"/>
</g>
<!-- Node803 -->
<g id="node18" class="node">
<title>Node803</title>
<g id="a_node18"><a xlink:href="test_history_8cc.html#a5437b1d8a54e8b0cda3280f90d11f3f9" target="_top" xlink:title="BOOST_AUTO_TEST_CASE\l_TEMPLATE">
<polygon fill="#ffffff" stroke="#000000" points="346.5,-.5 346.5,-30.5 489.5,-30.5 489.5,-.5 346.5,-.5"/>
<text text-anchor="start" x="354.5" y="-18.5" font-family="Helvetica,sans-Serif" font-size="10.00" fill="#000000">BOOST_AUTO_TEST_CASE</text>
<text text-anchor="middle" x="418" y="-7.5" font-family="Helvetica,sans-Serif" font-size="10.00" fill="#000000">_TEMPLATE</text>
</a>
</g>
</g>
<!-- Node796&#45;&gt;Node803 -->
<g id="edge19" class="edge">
<title>Node796&#45;&gt;Node803</title>
<path fill="none" stroke="#191970" d="M268.9466,-77.1424C289.0658,-65.4367 315.4552,-51.0153 340,-40.5 348.3656,-36.9161 357.4234,-33.5616 366.3044,-30.5459"/>
<polygon fill="#191970" stroke="#191970" points="267.0161,-74.2173 260.1731,-82.3058 270.5666,-80.2501 267.0161,-74.2173"/>
</g>
<!-- Node798 -->
<g id="node13" class="node">
<title>Node798</title>
<g id="a_node13"><a xlink:href="struct_test_fixture.html#a55e9eac4dbc74a68729e1fe5355e8722" target="_top" xlink:title="TestFixture::TestFixture">
<polygon fill="#ffffff" stroke="#000000" points="552,-176 552,-195 680,-195 680,-176 552,-176"/>
<text text-anchor="middle" x="616" y="-183" font-family="Helvetica,sans-Serif" font-size="10.00" fill="#000000">TestFixture::TestFixture</text>
</a>
</g>
</g>
<!-- Node797&#45;&gt;Node798 -->
<g id="edge13" class="edge">
<title>Node797&#45;&gt;Node798</title>
<path fill="none" stroke="#191970" d="M493.478,-158.2729C520.4855,-164.2745 549.9719,-170.8271 573.2493,-175.9998"/>
<polygon fill="#191970" stroke="#191970" points="494.1773,-154.843 483.6561,-156.0902 492.6587,-161.6763 494.1773,-154.843"/>
</g>
<!-- Node797&#45;&gt;Node799 -->
<g id="edge14" class="edge">
<title>Node797&#45;&gt;Node799</title>
<path fill="none" stroke="#191970" d="M493.478,-124.7271C520.4855,-118.7255 549.9719,-112.1729 573.2493,-107.0002"/>
<polygon fill="#191970" stroke="#191970" points="492.6587,-121.3237 483.6561,-126.9098 494.1773,-128.157 492.6587,-121.3237"/>
</g>
<!-- Node800 -->
<g id="node15" class="node">
<title>Node800</title>
<g id="a_node15"><a xlink:href="test_device_accessors_8cc.html#a1a7b8eece6ce585530eb559865470054" target="_top" xlink:title="BOOST_AUTO_TEST_CASE\l_TEMPLATE">
<polygon fill="#ffffff" stroke="#000000" points="544.5,-126.5 544.5,-156.5 687.5,-156.5 687.5,-126.5 544.5,-126.5"/>
<text text-anchor="start" x="552.5" y="-144.5" font-family="Helvetica,sans-Serif" font-size="10.00" fill="#000000">BOOST_AUTO_TEST_CASE</text>
<text text-anchor="middle" x="616" y="-133.5" font-family="Helvetica,sans-Serif" font-size="10.00" fill="#000000">_TEMPLATE</text>
</a>
</g>
</g>
<!-- Node797&#45;&gt;Node800 -->
<g id="edge15" class="edge">
<title>Node797&#45;&gt;Node800</title>
<path fill="none" stroke="#191970" d="M493.8525,-141.5C510.4482,-141.5 527.9632,-141.5 544.3868,-141.5"/>
<polygon fill="#191970" stroke="#191970" points="493.6561,-138.0001 483.6561,-141.5 493.6561,-145.0001 493.6561,-138.0001"/>
</g>
<!-- Node802 -->
<g id="node17" class="node">
<title>Node802</title>
<g id="a_node17"><a xlink:href="test_direct_device_to_c_s_8cc.html#a08399741d25e3a09169c4d2aa997dc57" target="_top" xlink:title="BOOST_AUTO_TEST_CASE">
<polygon fill="#ffffff" stroke="#000000" points="544.5,-50 544.5,-69 687.5,-69 687.5,-50 544.5,-50"/>
<text text-anchor="middle" x="616" y="-57" font-family="Helvetica,sans-Serif" font-size="10.00" fill="#000000">BOOST_AUTO_TEST_CASE</text>
</a>
</g>
</g>
<!-- Node801&#45;&gt;Node802 -->
<g id="edge18" class="edge">
<title>Node801&#45;&gt;Node802</title>
<path fill="none" stroke="#191970" d="M480.1071,-59.5C500.4544,-59.5 523.2278,-59.5 544.2288,-59.5"/>
<polygon fill="#191970" stroke="#191970" points="480.0222,-56.0001 470.0222,-59.5 480.0221,-63.0001 480.0222,-56.0001"/>
</g>
</g>
</svg>
        <g id="navigator" transform="translate(0 0)" fill="#404254">
                <rect fill="#f2f5e9" fill-opacity="0.5" stroke="#606060" stroke-width=".5" x="0" y="0" width="60" height="60"/>
                <use id="zoomplus" xlink:href="#zoomPlus" x="17" y="9" onmousedown="handleZoom(evt,'in')"/>
                <use id="zoomminus" xlink:href="#zoomMin" x="42" y="9" onmousedown="handleZoom(evt,'out')"/>
                <use id="reset" xlink:href="#resetDef" x="30" y="36" onmousedown="handleReset()"/>
                <g id="arrowUp" xlink:href="#dirArrow" transform="translate(30 24)" onmousedown="handlePan(0,-1)">
                  <use xlink:href="#rim" fill="#404040">
                        <set attributeName="fill" to="#808080" begin="arrowUp.mouseover" end="arrowUp.mouseout"/>
                  </use>
                  <path fill="none" stroke="white" stroke-width="1.5" d="M0,-3.0v7 M-2.5,-0.5L0,-3.0L2.5,-0.5"/>
                </g>
                <g id="arrowRight" xlink:href="#dirArrow" transform="rotate(90) translate(36 -43)" onmousedown="handlePan(1,0)">
                  <use xlink:href="#rim" fill="#404040">
                        <set attributeName="fill" to="#808080" begin="arrowRight.mouseover" end="arrowRight.mouseout"/>
                  </use>
                  <path fill="none" stroke="white" stroke-width="1.5" d="M0,-3.0v7 M-2.5,-0.5L0,-3.0L2.5,-0.5"/>
                </g>
                <g id="arrowDown" xlink:href="#dirArrow" transform="rotate(180) translate(-30 -48)" onmousedown="handlePan(0,1)">
                  <use xlink:href="#rim" fill="#404040">
                        <set attributeName="fill" to="#808080" begin="arrowDown.mouseover" end="arrowDown.mouseout"/>
                  </use>
                  <path fill="none" stroke="white" stroke-width="1.5" d="M0,-3.0v7 M-2.5,-0.5L0,-3.0L2.5,-0.5"/>
                </g>
                <g id="arrowLeft" xlink:href="#dirArrow" transform="rotate(270) translate(-36 17)" onmousedown="handlePan(-1,0)">
                  <use xlink:href="#rim" fill="#404040">
                        <set attributeName="fill" to="#808080" begin="arrowLeft.mouseover" end="arrowLeft.mouseout"/>
                  </use>
                  <path fill="none" stroke="white" stroke-width="1.5" d="M0,-3.0v7 M-2.5,-0.5L0,-3.0L2.5,-0.5"/>
                </g>
        </g>
        <svg viewBox="0 0 15 15" width="100%" height="30px" preserveAspectRatio="xMaxYMin meet">
         <g id="arrow_out" transform="scale(0.3 0.3)">
          <a xlink:href="class_chimera_t_k_1_1_application_af73af6e9bfd23e6e970ed5bf976068d4_icgraph_org.svg" target="_base">
           <rect id="button" ry="5" rx="5" y="6" x="6" height="38" width="38"
                fill="#f2f5e9" fill-opacity="0.5" stroke="#606060" stroke-width="1.0"/>
           <path id="arrow"
             d="M 11.500037,31.436501 C 11.940474,20.09759 22.043105,11.32322 32.158766,21.979434 L 37.068811,17.246167 C 37.068811,17.246167 37.088388,32 37.088388,32 L 22.160133,31.978069 C 22.160133,31.978069 26.997745,27.140456 26.997745,27.140456 C 18.528582,18.264221 13.291696,25.230495 11.500037,31.436501 z"
             style="fill:#404040;"/>
          </a>
         </g>
        </svg>
</svg>
