<?xml version="1.0" encoding="UTF-8" standalone="no"?>
<!DOCTYPE svg PUBLIC "-//W3C//DTD SVG 1.1//EN"
 "http://www.w3.org/Graphics/SVG/1.1/DTD/svg11.dtd">
<!-- Generated by graphviz version 2.40.1 (20161225.0304)
 -->
<!-- Title: ChimeraTK::Module::getVirtualQualifiedName Pages: 1 -->
<svg width="749pt" height="124pt"
 viewBox="0.00 0.00 749.00 123.50" xmlns="http://www.w3.org/2000/svg" xmlns:xlink="http://www.w3.org/1999/xlink">
<g id="graph0" class="graph" transform="scale(1 1) rotate(0) translate(4 119.5)">
<title>ChimeraTK::Module::getVirtualQualifiedName</title>
<polygon fill="#ffffff" stroke="transparent" points="-4,4 -4,-119.5 745,-119.5 745,4 -4,4"/>
<!-- Node203 -->
<g id="node1" class="node">
<title>Node203</title>
<polygon fill="#bfbfbf" stroke="#000000" points="0,-46.5 0,-76.5 137,-76.5 137,-46.5 0,-46.5"/>
<text text-anchor="start" x="8" y="-64.5" font-family="Helvetica,sans-Serif" font-size="10.00" fill="#000000">ChimeraTK::Module::</text>
<text text-anchor="middle" x="68.5" y="-53.5" font-family="Helvetica,sans-Serif" font-size="10.00" fill="#000000">getVirtualQualifiedName</text>
</g>
<!-- Node204 -->
<g id="node2" class="node">
<title>Node204</title>
<g id="a_node2"><a xlink:href="class_chimera_t_k_1_1_module.html#a09462e535a0c30344012fc821d148f8e" target="_top" xlink:title="Get the fully qualified name of the module instance, i.e. ">
<polygon fill="#ffffff" stroke="#000000" points="173,-68.5 173,-98.5 291,-98.5 291,-68.5 173,-68.5"/>
<text text-anchor="start" x="181" y="-86.5" font-family="Helvetica,sans-Serif" font-size="10.00" fill="#000000">ChimeraTK::Module::</text>
<text text-anchor="middle" x="232" y="-75.5" font-family="Helvetica,sans-Serif" font-size="10.00" fill="#000000">getQualifiedName</text>
</a>
</g>
</g>
<!-- Node203&#45;&gt;Node204 -->
<g id="edge1" class="edge">
<title>Node203&#45;&gt;Node204</title>
<path fill="none" stroke="#191970" d="M147.3701,-72.1125C155.9288,-73.2641 164.5296,-74.4214 172.7967,-75.5338"/>
<polygon fill="#191970" stroke="#191970" points="147.7423,-68.6311 137.3648,-70.7662 146.8088,-75.5686 147.7423,-68.6311"/>
</g>
<!-- Node206 -->
<g id="node4" class="node">
<title>Node206</title>
<g id="a_node4"><a xlink:href="class_chimera_t_k_1_1_status_aggregator.html#a5b0c0c8f5b240092b5178c48a2ca7910" target="_top" xlink:title="Recursivly search for StatusMonitors and other StatusAggregators. ">
<polygon fill="#ffffff" stroke="#000000" points="355,-24.5 355,-54.5 516,-54.5 516,-24.5 355,-24.5"/>
<text text-anchor="start" x="363" y="-42.5" font-family="Helvetica,sans-Serif" font-size="10.00" fill="#000000">ChimeraTK::StatusAggregator</text>
<text text-anchor="middle" x="435.5" y="-31.5" font-family="Helvetica,sans-Serif" font-size="10.00" fill="#000000">::populateStatusInput</text>
</a>
</g>
</g>
<!-- Node203&#45;&gt;Node206 -->
<g id="edge6" class="edge">
<title>Node203&#45;&gt;Node206</title>
<path fill="none" stroke="#191970" d="M147.098,-56.7884C208.3202,-53.1184 293.0008,-48.0422 354.7612,-44.3399"/>
<polygon fill="#191970" stroke="#191970" points="146.872,-53.2956 137.0994,-57.3878 147.2909,-60.283 146.872,-53.2956"/>
</g>
<!-- Node205 -->
<g id="node3" class="node">
<title>Node205</title>
<g id="a_node3"><a xlink:href="class_chimera_t_k_1_1_inversion_of_control_accessor.html#aedaf4ad5d8378ab6c5619eb31b611a98" target="_top" xlink:title="ChimeraTK::InversionOfControl\lAccessor\&lt; ArrayAccessor\&lt;\l int32_t \&gt; \&gt;::InversionOfControlAccessor">
<polygon fill="#ffffff" stroke="#000000" points="327,-74 327,-115 544,-115 544,-74 327,-74"/>
<text text-anchor="start" x="335" y="-103" font-family="Helvetica,sans-Serif" font-size="10.00" fill="#000000">ChimeraTK::InversionOfControl</text>
<text text-anchor="start" x="335" y="-92" font-family="Helvetica,sans-Serif" font-size="10.00" fill="#000000">Accessor&lt; ArrayAccessor&lt;</text>
<text text-anchor="middle" x="435.5" y="-81" font-family="Helvetica,sans-Serif" font-size="10.00" fill="#000000"> int32_t &gt; &gt;::InversionOfControlAccessor</text>
</a>
</g>
</g>
<!-- Node204&#45;&gt;Node205 -->
<g id="edge2" class="edge">
<title>Node204&#45;&gt;Node205</title>
<path fill="none" stroke="#191970" d="M301.3738,-87.2499C309.6058,-87.6949 318.1535,-88.1569 326.7683,-88.6226"/>
<polygon fill="#191970" stroke="#191970" points="301.3084,-83.7414 291.134,-86.6964 300.9305,-90.7312 301.3084,-83.7414"/>
</g>
<!-- Node204&#45;&gt;Node206 -->
<g id="edge3" class="edge">
<title>Node204&#45;&gt;Node206</title>
<path fill="none" stroke="#191970" d="M301.1852,-68.541C322.0294,-64.0342 344.9118,-59.0866 365.7899,-54.5725"/>
<polygon fill="#191970" stroke="#191970" points="300.1684,-65.1799 291.134,-70.7143 301.6478,-72.0218 300.1684,-65.1799"/>
</g>
<!-- Node207 -->
<g id="node5" class="node">
<title>Node207</title>
<g id="a_node5"><a xlink:href="class_chimera_t_k_1_1_status_aggregator.html#a7550fad82e58b166d8282a088361f9b8" target="_top" xlink:title="ChimeraTK::StatusAggregator\l::StatusAggregator">
<polygon fill="#ffffff" stroke="#000000" points="580,-49.5 580,-79.5 741,-79.5 741,-49.5 580,-49.5"/>
<text text-anchor="start" x="588" y="-67.5" font-family="Helvetica,sans-Serif" font-size="10.00" fill="#000000">ChimeraTK::StatusAggregator</text>
<text text-anchor="middle" x="660.5" y="-56.5" font-family="Helvetica,sans-Serif" font-size="10.00" fill="#000000">::StatusAggregator</text>
</a>
</g>
</g>
<!-- Node206&#45;&gt;Node207 -->
<g id="edge4" class="edge">
<title>Node206&#45;&gt;Node207</title>
<path fill="none" stroke="#191970" d="M526.3858,-49.5984C544.0326,-51.5592 562.4166,-53.6018 579.7118,-55.5235"/>
<polygon fill="#191970" stroke="#191970" points="526.42,-46.0808 516.0946,-48.455 525.6469,-53.038 526.42,-46.0808"/>
</g>
<!-- Node208 -->
<g id="node6" class="node">
<title>Node208</title>
<g id="a_node6"><a xlink:href="class_chimera_t_k_1_1_status_aggregator.html#a49a9371926f9b187b0652438d43f0ef7" target="_top" xlink:title="To be implemented by the user: function called in a separate thread executing the main loop of the mo...">
<polygon fill="#ffffff" stroke="#000000" points="580,-.5 580,-30.5 741,-30.5 741,-.5 580,-.5"/>
<text text-anchor="start" x="588" y="-18.5" font-family="Helvetica,sans-Serif" font-size="10.00" fill="#000000">ChimeraTK::StatusAggregator</text>
<text text-anchor="middle" x="660.5" y="-7.5" font-family="Helvetica,sans-Serif" font-size="10.00" fill="#000000">::mainLoop</text>
</a>
</g>
</g>
<!-- Node206&#45;&gt;Node208 -->
<g id="edge5" class="edge">
<title>Node206&#45;&gt;Node208</title>
<path fill="none" stroke="#191970" d="M526.3858,-29.8055C544.0326,-27.9232 562.4166,-25.9622 579.7118,-24.1174"/>
<polygon fill="#191970" stroke="#191970" points="525.667,-26.3622 516.0946,-30.9032 526.4095,-33.3228 525.667,-26.3622"/>
</g>
</g>
</svg>
