<?xml version="1.0" encoding="UTF-8" standalone="no"?>
<!DOCTYPE svg PUBLIC "-//W3C//DTD SVG 1.1//EN"
 "http://www.w3.org/Graphics/SVG/1.1/DTD/svg11.dtd">
<!-- Generated by graphviz version 2.40.1 (20161225.0304)
 -->
<!-- Title: ChimeraTK::EntityOwner::flatten Pages: 1 -->
<!--zoomable 165 -->
<svg id="main" version="1.1" xmlns="http://www.w3.org/2000/svg" xmlns:xlink="http://www.w3.org/1999/xlink" xml:space="preserve" onload="init(evt)">
<style type="text/css"><![CDATA[
.edge:hover path { stroke: red; }
.edge:hover polygon { stroke: red; fill: red; }
]]></style>
<script type="text/javascript"><![CDATA[
var edges = document.getElementsByTagName('g');
if (edges && edges.length) {
  for (var i=0;i<edges.length;i++) {
    if (edges[i].id.substr(0,4)=='edge') {
      edges[i].setAttribute('class','edge');
    }
  }
}
]]></script>
        <defs>
                <circle id="rim" cx="0" cy="0" r="7"/>
                <circle id="rim2" cx="0" cy="0" r="3.5"/>
                <g id="zoomPlus">
                        <use xlink:href="#rim" fill="#404040">
                                <set attributeName="fill" to="#808080" begin="zoomplus.mouseover" end="zoomplus.mouseout"/>
                        </use>
                        <path d="M-4,0h8M0,-4v8" fill="none" stroke="white" stroke-width="1.5" pointer-events="none"/>
                </g>
                <g id="zoomMin">
                        <use xlink:href="#rim" fill="#404040">
                                <set attributeName="fill" to="#808080" begin="zoomminus.mouseover" end="zoomminus.mouseout"/>
                        </use>
                        <path d="M-4,0h8" fill="none" stroke="white" stroke-width="1.5" pointer-events="none"/>
                </g>
                <g id="dirArrow">
                        <path fill="none" stroke="white" stroke-width="1.5" d="M0,-3.0v7 M-2.5,-0.5L0,-3.0L2.5,-0.5"/>
                </g>
               <g id="resetDef">
                       <use xlink:href="#rim2" fill="#404040">
                               <set attributeName="fill" to="#808080" begin="reset.mouseover" end="reset.mouseout"/>
                       </use>
               </g>
        </defs>

<script type="text/javascript">
var viewWidth = 929;
var viewHeight = 165;
var sectionId = 'dynsection-24';
</script>
<script xlink:href="svgpan.js"/>
<svg id="graph" class="graph">
<g id="viewport">
<title>ChimeraTK::EntityOwner::flatten</title>
<polygon fill="#ffffff" stroke="transparent" points="-4,4 -4,-161 925,-161 925,4 -4,4"/>
<!-- Node878 -->
<g id="node1" class="node">
<title>Node878</title>
<polygon fill="#bfbfbf" stroke="#000000" points="0,-17 0,-47 137,-47 137,-17 0,-17"/>
<text text-anchor="start" x="8" y="-35" font-family="Helvetica,sans-Serif" font-size="10.00" fill="#000000">ChimeraTK::EntityOwner</text>
<text text-anchor="middle" x="68.5" y="-24" font-family="Helvetica,sans-Serif" font-size="10.00" fill="#000000">::flatten</text>
</g>
<!-- Node879 -->
<g id="node2" class="node">
<title>Node879</title>
<g id="a_node2"><a xlink:href="class_chimera_t_k_1_1_entity_owner.html#a864d33dc0620ce84905a0e0415b20856" target="_top" xlink:title="Returns the hierarchy modifier of this entity. ">
<polygon fill="#ffffff" stroke="#000000" points="176,-39 176,-69 313,-69 313,-39 176,-39"/>
<text text-anchor="start" x="184" y="-57" font-family="Helvetica,sans-Serif" font-size="10.00" fill="#000000">ChimeraTK::EntityOwner</text>
<text text-anchor="middle" x="244.5" y="-46" font-family="Helvetica,sans-Serif" font-size="10.00" fill="#000000">::getHierarchyModifier</text>
</a>
</g>
</g>
<!-- Node878&#45;&gt;Node879 -->
<g id="edge1" class="edge">
<title>Node878&#45;&gt;Node879</title>
<path fill="none" stroke="#191970" d="M146.9988,-41.8123C156.6174,-43.0147 166.3893,-44.2362 175.8474,-45.4184"/>
<polygon fill="#191970" stroke="#191970" points="147.4071,-38.3362 137.0502,-40.5688 146.5388,-45.2822 147.4071,-38.3362"/>
</g>
<!-- Node886 -->
<g id="node9" class="node">
<title>Node886</title>
<g id="a_node9"><a xlink:href="test_modules_8cc.html#a48ec797b160ba091bb194a0882fa1623" target="_top" xlink:title="BOOST_AUTO_TEST_CASE">
<polygon fill="#ffffff" stroke="#000000" points="173,-.5 173,-19.5 316,-19.5 316,-.5 173,-.5"/>
<text text-anchor="middle" x="244.5" y="-7.5" font-family="Helvetica,sans-Serif" font-size="10.00" fill="#000000">BOOST_AUTO_TEST_CASE</text>
</a>
</g>
</g>
<!-- Node878&#45;&gt;Node886 -->
<g id="edge8" class="edge">
<title>Node878&#45;&gt;Node886</title>
<path fill="none" stroke="#191970" d="M147.0816,-22.1773C155.6916,-21.101 164.4233,-20.0096 172.9418,-18.9448"/>
<polygon fill="#191970" stroke="#191970" points="146.5388,-18.7178 137.0502,-23.4312 147.4071,-25.6638 146.5388,-18.7178"/>
</g>
<!-- Node880 -->
<g id="node3" class="node">
<title>Node880</title>
<g id="a_node3"><a xlink:href="class_chimera_t_k_1_1_module.html#a210eb585677baa3fc7865c52ac7abb51" target="_top" xlink:title="ChimeraTK::Module::\lgetVirtualQualifiedName">
<polygon fill="#ffffff" stroke="#000000" points="352,-39 352,-69 489,-69 489,-39 352,-39"/>
<text text-anchor="start" x="360" y="-57" font-family="Helvetica,sans-Serif" font-size="10.00" fill="#000000">ChimeraTK::Module::</text>
<text text-anchor="middle" x="420.5" y="-46" font-family="Helvetica,sans-Serif" font-size="10.00" fill="#000000">getVirtualQualifiedName</text>
</a>
</g>
</g>
<!-- Node879&#45;&gt;Node880 -->
<g id="edge2" class="edge">
<title>Node879&#45;&gt;Node880</title>
<path fill="none" stroke="#191970" d="M323.3026,-54C332.8231,-54 342.4888,-54 351.8474,-54"/>
<polygon fill="#191970" stroke="#191970" points="323.0502,-50.5001 313.0502,-54 323.0501,-57.5001 323.0502,-50.5001"/>
</g>
<!-- Node881 -->
<g id="node4" class="node">
<title>Node881</title>
<g id="a_node4"><a xlink:href="class_chimera_t_k_1_1_module.html#a09462e535a0c30344012fc821d148f8e" target="_top" xlink:title="Get the fully qualified name of the module instance, i.e. ">
<polygon fill="#ffffff" stroke="#000000" points="537.5,-61 537.5,-91 655.5,-91 655.5,-61 537.5,-61"/>
<text text-anchor="start" x="545.5" y="-79" font-family="Helvetica,sans-Serif" font-size="10.00" fill="#000000">ChimeraTK::Module::</text>
<text text-anchor="middle" x="596.5" y="-68" font-family="Helvetica,sans-Serif" font-size="10.00" fill="#000000">getQualifiedName</text>
</a>
</g>
</g>
<!-- Node880&#45;&gt;Node881 -->
<g id="edge3" class="edge">
<title>Node880&#45;&gt;Node881</title>
<path fill="none" stroke="#191970" d="M499.2266,-63.8408C512.0125,-65.4391 525.0624,-67.0703 537.2805,-68.5976"/>
<polygon fill="#191970" stroke="#191970" points="499.4071,-60.3362 489.0502,-62.5688 498.5388,-67.2822 499.4071,-60.3362"/>
</g>
<!-- Node885 -->
<g id="node8" class="node">
<title>Node885</title>
<g id="a_node8"><a xlink:href="test_virtual_hierarchy_8cc.html#a434b3eb5f39ada96ff93893567a94b4e" target="_top" xlink:title="BOOST_AUTO_TEST_CASE">
<polygon fill="#ffffff" stroke="#000000" points="525,-22.5 525,-41.5 668,-41.5 668,-22.5 525,-22.5"/>
<text text-anchor="middle" x="596.5" y="-29.5" font-family="Helvetica,sans-Serif" font-size="10.00" fill="#000000">BOOST_AUTO_TEST_CASE</text>
</a>
</g>
</g>
<!-- Node880&#45;&gt;Node885 -->
<g id="edge7" class="edge">
<title>Node880&#45;&gt;Node885</title>
<path fill="none" stroke="#191970" d="M499.0816,-44.1773C507.6916,-43.101 516.4233,-42.0096 524.9418,-40.9448"/>
<polygon fill="#191970" stroke="#191970" points="498.5388,-40.7178 489.0502,-45.4312 499.4071,-47.6638 498.5388,-40.7178"/>
</g>
<!-- Node882 -->
<g id="node5" class="node">
<title>Node882</title>
<g id="a_node5"><a xlink:href="class_chimera_t_k_1_1_inversion_of_control_accessor.html#aedaf4ad5d8378ab6c5619eb31b611a98" target="_top" xlink:title="ChimeraTK::InversionOfControl\lAccessor\&lt; ArrayAccessor\&lt;\l int32_t \&gt; \&gt;::InversionOfControlAccessor">
<polygon fill="#ffffff" stroke="#000000" points="704,-115.5 704,-156.5 921,-156.5 921,-115.5 704,-115.5"/>
<text text-anchor="start" x="712" y="-144.5" font-family="Helvetica,sans-Serif" font-size="10.00" fill="#000000">ChimeraTK::InversionOfControl</text>
<text text-anchor="start" x="712" y="-133.5" font-family="Helvetica,sans-Serif" font-size="10.00" fill="#000000">Accessor&lt; ArrayAccessor&lt;</text>
<text text-anchor="middle" x="812.5" y="-122.5" font-family="Helvetica,sans-Serif" font-size="10.00" fill="#000000"> int32_t &gt; &gt;::InversionOfControlAccessor</text>
</a>
</g>
</g>
<!-- Node881&#45;&gt;Node882 -->
<g id="edge4" class="edge">
<title>Node881&#45;&gt;Node882</title>
<path fill="none" stroke="#191970" d="M660.1757,-93.797C674.5851,-97.8169 689.8171,-102.0602 704,-106 715.0159,-109.06 726.663,-112.2881 738.0775,-115.4476"/>
<polygon fill="#191970" stroke="#191970" points="660.9271,-90.3731 650.3544,-91.0563 659.0455,-97.1155 660.9271,-90.3731"/>
</g>
<!-- Node883 -->
<g id="node6" class="node">
<title>Node883</title>
<g id="a_node6"><a xlink:href="struct_chimera_t_k_1_1_application_1_1_circular_dependency_detector.html#a2d14ce71ee85b9dc94c514ca26467bd9" target="_top" xlink:title="Function executed in thread. ">
<polygon fill="#ffffff" stroke="#000000" points="731,-55.5 731,-96.5 894,-96.5 894,-55.5 731,-55.5"/>
<text text-anchor="start" x="739" y="-84.5" font-family="Helvetica,sans-Serif" font-size="10.00" fill="#000000">ChimeraTK::Application</text>
<text text-anchor="start" x="739" y="-73.5" font-family="Helvetica,sans-Serif" font-size="10.00" fill="#000000">::CircularDependencyDetector</text>
<text text-anchor="middle" x="812.5" y="-62.5" font-family="Helvetica,sans-Serif" font-size="10.00" fill="#000000">::detectBlockedModules</text>
</a>
</g>
</g>
<!-- Node881&#45;&gt;Node883 -->
<g id="edge5" class="edge">
<title>Node881&#45;&gt;Node883</title>
<path fill="none" stroke="#191970" d="M665.5358,-76C686.3295,-76 709.3487,-76 730.8781,-76"/>
<polygon fill="#191970" stroke="#191970" points="665.523,-72.5001 655.5229,-76 665.5229,-79.5001 665.523,-72.5001"/>
</g>
<!-- Node884 -->
<g id="node7" class="node">
<title>Node884</title>
<g id="a_node7"><a xlink:href="test_modules_8cc.html#a0280ba7565cb73cb576a3c7591086a95" target="_top" xlink:title="BOOST_AUTO_TEST_CASE">
<polygon fill="#ffffff" stroke="#000000" points="741,-17.5 741,-36.5 884,-36.5 884,-17.5 741,-17.5"/>
<text text-anchor="middle" x="812.5" y="-24.5" font-family="Helvetica,sans-Serif" font-size="10.00" fill="#000000">BOOST_AUTO_TEST_CASE</text>
</a>
</g>
</g>
<!-- Node881&#45;&gt;Node884 -->
<g id="edge6" class="edge">
<title>Node881&#45;&gt;Node884</title>
<path fill="none" stroke="#191970" d="M656.4833,-58.1317C671.8929,-53.8527 688.4981,-49.5113 704,-46 719.387,-42.5147 736.1249,-39.3025 751.745,-36.5494"/>
<polygon fill="#191970" stroke="#191970" points="655.2317,-54.8478 646.5532,-60.9252 657.1274,-61.5863 655.2317,-54.8478"/>
</g>
</g>
</svg>
        <g id="navigator" transform="translate(0 0)" fill="#404254">
                <rect fill="#f2f5e9" fill-opacity="0.5" stroke="#606060" stroke-width=".5" x="0" y="0" width="60" height="60"/>
                <use id="zoomplus" xlink:href="#zoomPlus" x="17" y="9" onmousedown="handleZoom(evt,'in')"/>
                <use id="zoomminus" xlink:href="#zoomMin" x="42" y="9" onmousedown="handleZoom(evt,'out')"/>
                <use id="reset" xlink:href="#resetDef" x="30" y="36" onmousedown="handleReset()"/>
                <g id="arrowUp" xlink:href="#dirArrow" transform="translate(30 24)" onmousedown="handlePan(0,-1)">
                  <use xlink:href="#rim" fill="#404040">
                        <set attributeName="fill" to="#808080" begin="arrowUp.mouseover" end="arrowUp.mouseout"/>
                  </use>
                  <path fill="none" stroke="white" stroke-width="1.5" d="M0,-3.0v7 M-2.5,-0.5L0,-3.0L2.5,-0.5"/>
                </g>
                <g id="arrowRight" xlink:href="#dirArrow" transform="rotate(90) translate(36 -43)" onmousedown="handlePan(1,0)">
                  <use xlink:href="#rim" fill="#404040">
                        <set attributeName="fill" to="#808080" begin="arrowRight.mouseover" end="arrowRight.mouseout"/>
                  </use>
                  <path fill="none" stroke="white" stroke-width="1.5" d="M0,-3.0v7 M-2.5,-0.5L0,-3.0L2.5,-0.5"/>
                </g>
                <g id="arrowDown" xlink:href="#dirArrow" transform="rotate(180) translate(-30 -48)" onmousedown="handlePan(0,1)">
                  <use xlink:href="#rim" fill="#404040">
                        <set attributeName="fill" to="#808080" begin="arrowDown.mouseover" end="arrowDown.mouseout"/>
                  </use>
                  <path fill="none" stroke="white" stroke-width="1.5" d="M0,-3.0v7 M-2.5,-0.5L0,-3.0L2.5,-0.5"/>
                </g>
                <g id="arrowLeft" xlink:href="#dirArrow" transform="rotate(270) translate(-36 17)" onmousedown="handlePan(-1,0)">
                  <use xlink:href="#rim" fill="#404040">
                        <set attributeName="fill" to="#808080" begin="arrowLeft.mouseover" end="arrowLeft.mouseout"/>
                  </use>
                  <path fill="none" stroke="white" stroke-width="1.5" d="M0,-3.0v7 M-2.5,-0.5L0,-3.0L2.5,-0.5"/>
                </g>
        </g>
        <svg viewBox="0 0 15 15" width="100%" height="30px" preserveAspectRatio="xMaxYMin meet">
         <g id="arrow_out" transform="scale(0.3 0.3)">
          <a xlink:href="class_chimera_t_k_1_1_entity_owner_a952d3abbffa16054f744f3da7fc46c3f_icgraph_org.svg" target="_base">
           <rect id="button" ry="5" rx="5" y="6" x="6" height="38" width="38"
                fill="#f2f5e9" fill-opacity="0.5" stroke="#606060" stroke-width="1.0"/>
           <path id="arrow"
             d="M 11.500037,31.436501 C 11.940474,20.09759 22.043105,11.32322 32.158766,21.979434 L 37.068811,17.246167 C 37.068811,17.246167 37.088388,32 37.088388,32 L 22.160133,31.978069 C 22.160133,31.978069 26.997745,27.140456 26.997745,27.140456 C 18.528582,18.264221 13.291696,25.230495 11.500037,31.436501 z"
             style="fill:#404040;"/>
          </a>
         </g>
        </svg>
</svg>
