<?xml version="1.0" encoding="UTF-8" standalone="no"?>
<!DOCTYPE svg PUBLIC "-//W3C//DTD SVG 1.1//EN"
 "http://www.w3.org/Graphics/SVG/1.1/DTD/svg11.dtd">
<!-- Generated by graphviz version 2.40.1 (20161225.0304)
 -->
<!-- Title: ChimeraTK::VariableNetworkNode::getQualifiedName Pages: 1 -->
<svg width="587pt" height="382pt"
 viewBox="0.00 0.00 587.00 382.00" xmlns="http://www.w3.org/2000/svg" xmlns:xlink="http://www.w3.org/1999/xlink">
<g id="graph0" class="graph" transform="scale(1 1) rotate(0) translate(4 378)">
<title>ChimeraTK::VariableNetworkNode::getQualifiedName</title>
<polygon fill="#ffffff" stroke="transparent" points="-4,4 -4,-378 583,-378 583,4 -4,4"/>
<!-- Node192 -->
<g id="node1" class="node">
<title>Node192</title>
<polygon fill="#bfbfbf" stroke="#000000" points="0,-171.5 0,-201.5 158,-201.5 158,-171.5 0,-171.5"/>
<text text-anchor="start" x="8" y="-189.5" font-family="Helvetica,sans-Serif" font-size="10.00" fill="#000000">ChimeraTK::VariableNetwork</text>
<text text-anchor="middle" x="79" y="-178.5" font-family="Helvetica,sans-Serif" font-size="10.00" fill="#000000">Node::getQualifiedName</text>
</g>
<!-- Node193 -->
<g id="node2" class="node">
<title>Node193</title>
<g id="a_node2"><a xlink:href="class_chimera_t_k_1_1_array_accessor.html#a9f39e90967b5befde4227ab273ef97c8" target="_top" xlink:title="ChimeraTK::ArrayAccessor\l\&lt; OutputType \&gt;::write">
<polygon fill="#ffffff" stroke="#000000" points="216.5,-343.5 216.5,-373.5 362.5,-373.5 362.5,-343.5 216.5,-343.5"/>
<text text-anchor="start" x="224.5" y="-361.5" font-family="Helvetica,sans-Serif" font-size="10.00" fill="#000000">ChimeraTK::ArrayAccessor</text>
<text text-anchor="middle" x="289.5" y="-350.5" font-family="Helvetica,sans-Serif" font-size="10.00" fill="#000000">&lt; OutputType &gt;::write</text>
</a>
</g>
</g>
<!-- Node192&#45;&gt;Node193 -->
<g id="edge1" class="edge">
<title>Node192&#45;&gt;Node193</title>
<path fill="none" stroke="#191970" d="M91.1701,-210.8207C109.0587,-244.0034 145.6369,-302.9372 194,-334.5 200.8719,-338.9847 208.5242,-342.6314 216.4227,-345.5967"/>
<polygon fill="#191970" stroke="#191970" points="94.1776,-209.0199 86.4256,-201.7979 87.982,-212.2778 94.1776,-209.0199"/>
</g>
<!-- Node194 -->
<g id="node3" class="node">
<title>Node194</title>
<g id="a_node3"><a xlink:href="class_chimera_t_k_1_1_array_accessor.html#a5d91a3032ca365975d39453c139a94ec" target="_top" xlink:title="ChimeraTK::ArrayAccessor\l\&lt; OutputType \&gt;::writeDestructively">
<polygon fill="#ffffff" stroke="#000000" points="194,-294.5 194,-324.5 385,-324.5 385,-294.5 194,-294.5"/>
<text text-anchor="start" x="202" y="-312.5" font-family="Helvetica,sans-Serif" font-size="10.00" fill="#000000">ChimeraTK::ArrayAccessor</text>
<text text-anchor="middle" x="289.5" y="-301.5" font-family="Helvetica,sans-Serif" font-size="10.00" fill="#000000">&lt; OutputType &gt;::writeDestructively</text>
</a>
</g>
</g>
<!-- Node192&#45;&gt;Node194 -->
<g id="edge2" class="edge">
<title>Node192&#45;&gt;Node194</title>
<path fill="none" stroke="#191970" d="M99.1954,-209.2068C120.5639,-231.8422 156.3455,-265.9689 194,-285.5 200.6013,-288.9241 207.7166,-291.8774 214.9807,-294.4212"/>
<polygon fill="#191970" stroke="#191970" points="101.6233,-206.6776 92.2587,-201.7224 96.4893,-211.4359 101.6233,-206.6776"/>
</g>
<!-- Node195 -->
<g id="node4" class="node">
<title>Node195</title>
<g id="a_node4"><a xlink:href="class_chimera_t_k_1_1_scalar_accessor.html#aa95b652b95fb7b51327486ce37d77ab8" target="_top" xlink:title="ChimeraTK::ScalarAccessor\l\&lt; uint64_t \&gt;::write">
<polygon fill="#ffffff" stroke="#000000" points="214.5,-245.5 214.5,-275.5 364.5,-275.5 364.5,-245.5 214.5,-245.5"/>
<text text-anchor="start" x="222.5" y="-263.5" font-family="Helvetica,sans-Serif" font-size="10.00" fill="#000000">ChimeraTK::ScalarAccessor</text>
<text text-anchor="middle" x="289.5" y="-252.5" font-family="Helvetica,sans-Serif" font-size="10.00" fill="#000000">&lt; uint64_t &gt;::write</text>
</a>
</g>
</g>
<!-- Node192&#45;&gt;Node195 -->
<g id="edge3" class="edge">
<title>Node192&#45;&gt;Node195</title>
<path fill="none" stroke="#191970" d="M119.4348,-206.0183C141.1918,-216.0235 168.6873,-227.8815 194,-236.5 203.4671,-239.7234 213.5944,-242.7268 223.5858,-245.4425"/>
<polygon fill="#191970" stroke="#191970" points="120.722,-202.7571 110.1785,-201.7148 117.7708,-209.1046 120.722,-202.7571"/>
</g>
<!-- Node196 -->
<g id="node5" class="node">
<title>Node196</title>
<g id="a_node5"><a xlink:href="class_chimera_t_k_1_1_scalar_accessor.html#a3a1668d714e7218f0773f54a5de0976e" target="_top" xlink:title="ChimeraTK::ScalarAccessor\l\&lt; uint64_t \&gt;::writeDestructively">
<polygon fill="#ffffff" stroke="#000000" points="202,-196.5 202,-226.5 377,-226.5 377,-196.5 202,-196.5"/>
<text text-anchor="start" x="210" y="-214.5" font-family="Helvetica,sans-Serif" font-size="10.00" fill="#000000">ChimeraTK::ScalarAccessor</text>
<text text-anchor="middle" x="289.5" y="-203.5" font-family="Helvetica,sans-Serif" font-size="10.00" fill="#000000">&lt; uint64_t &gt;::writeDestructively</text>
</a>
</g>
</g>
<!-- Node192&#45;&gt;Node196 -->
<g id="edge4" class="edge">
<title>Node192&#45;&gt;Node196</title>
<path fill="none" stroke="#191970" d="M168.3749,-197.1146C179.4554,-198.4306 190.7762,-199.7751 201.8306,-201.088"/>
<polygon fill="#191970" stroke="#191970" points="168.6241,-193.6197 158.2811,-195.9158 167.7985,-200.5708 168.6241,-193.6197"/>
</g>
<!-- Node197 -->
<g id="node6" class="node">
<title>Node197</title>
<g id="a_node6"><a xlink:href="class_chimera_t_k_1_1_void_accessor.html#aa28c9cf57fd0fd8f0a1519cc72d3e7c7" target="_top" xlink:title="ChimeraTK::VoidAccessor\l::write">
<polygon fill="#ffffff" stroke="#000000" points="219,-147.5 219,-177.5 360,-177.5 360,-147.5 219,-147.5"/>
<text text-anchor="start" x="227" y="-165.5" font-family="Helvetica,sans-Serif" font-size="10.00" fill="#000000">ChimeraTK::VoidAccessor</text>
<text text-anchor="middle" x="289.5" y="-154.5" font-family="Helvetica,sans-Serif" font-size="10.00" fill="#000000">::write</text>
</a>
</g>
</g>
<!-- Node192&#45;&gt;Node197 -->
<g id="edge5" class="edge">
<title>Node192&#45;&gt;Node197</title>
<path fill="none" stroke="#191970" d="M168.6586,-176.2776C185.4634,-174.3617 202.8105,-172.3838 218.9348,-170.5454"/>
<polygon fill="#191970" stroke="#191970" points="167.8202,-172.8505 158.2811,-177.4608 168.6132,-179.8054 167.8202,-172.8505"/>
</g>
<!-- Node199 -->
<g id="node8" class="node">
<title>Node199</title>
<g id="a_node8"><a xlink:href="class_chimera_t_k_1_1_void_accessor.html#af0f3cd0d5508470a71a35e48f3d00b83" target="_top" xlink:title="ChimeraTK::VoidAccessor\l::writeDestructively">
<polygon fill="#ffffff" stroke="#000000" points="219,-98.5 219,-128.5 360,-128.5 360,-98.5 219,-98.5"/>
<text text-anchor="start" x="227" y="-116.5" font-family="Helvetica,sans-Serif" font-size="10.00" fill="#000000">ChimeraTK::VoidAccessor</text>
<text text-anchor="middle" x="289.5" y="-105.5" font-family="Helvetica,sans-Serif" font-size="10.00" fill="#000000">::writeDestructively</text>
</a>
</g>
</g>
<!-- Node192&#45;&gt;Node199 -->
<g id="edge7" class="edge">
<title>Node192&#45;&gt;Node199</title>
<path fill="none" stroke="#191970" d="M120.9447,-167.3363C142.5034,-157.9125 169.3603,-146.8221 194,-138.5 204.5543,-134.9353 215.9057,-131.569 226.9691,-128.5303"/>
<polygon fill="#191970" stroke="#191970" points="119.4816,-164.1563 111.7462,-171.3962 122.3081,-170.5603 119.4816,-164.1563"/>
</g>
<!-- Node200 -->
<g id="node9" class="node">
<title>Node200</title>
<g id="a_node9"><a xlink:href="class_chimera_t_k_1_1_connection_maker.html#ad23d343f9febe07a8af884813de1fc92" target="_top" xlink:title="ChimeraTK::ConnectionMaker\l::createDeviceVariable">
<polygon fill="#ffffff" stroke="#000000" points="209,-49.5 209,-79.5 370,-79.5 370,-49.5 209,-49.5"/>
<text text-anchor="start" x="217" y="-67.5" font-family="Helvetica,sans-Serif" font-size="10.00" fill="#000000">ChimeraTK::ConnectionMaker</text>
<text text-anchor="middle" x="289.5" y="-56.5" font-family="Helvetica,sans-Serif" font-size="10.00" fill="#000000">::createDeviceVariable</text>
</a>
</g>
</g>
<!-- Node192&#45;&gt;Node200 -->
<g id="edge9" class="edge">
<title>Node192&#45;&gt;Node200</title>
<path fill="none" stroke="#191970" d="M99.6865,-163.9745C121.1995,-141.8687 156.8724,-108.7519 194,-89.5 201.4552,-85.6342 209.5553,-82.3324 217.7801,-79.5203"/>
<polygon fill="#191970" stroke="#191970" points="97.0695,-161.647 92.6885,-171.2936 102.129,-166.4846 97.0695,-161.647"/>
</g>
<!-- Node201 -->
<g id="node10" class="node">
<title>Node201</title>
<g id="a_node10"><a xlink:href="class_chimera_t_k_1_1_variable_network_node_dumping_visitor.html#a188ebe426fc4322ac85da9ccc45c1b50" target="_top" xlink:title="dispatch ">
<polygon fill="#ffffff" stroke="#000000" points="207,-.5 207,-30.5 372,-30.5 372,-.5 207,-.5"/>
<text text-anchor="start" x="215" y="-18.5" font-family="Helvetica,sans-Serif" font-size="10.00" fill="#000000">ChimeraTK::VariableNetwork</text>
<text text-anchor="middle" x="289.5" y="-7.5" font-family="Helvetica,sans-Serif" font-size="10.00" fill="#000000">NodeDumpingVisitor::dispatch</text>
</a>
</g>
</g>
<!-- Node192&#45;&gt;Node201 -->
<g id="edge10" class="edge">
<title>Node192&#45;&gt;Node201</title>
<path fill="none" stroke="#191970" d="M91.2991,-162.5753C109.339,-129.92 146.0938,-71.8747 194,-40.5 199.8783,-36.6502 206.3233,-33.3922 213.0027,-30.6353"/>
<polygon fill="#191970" stroke="#191970" points="88.1773,-160.9905 86.5112,-171.4535 94.3385,-164.3132 88.1773,-160.9905"/>
</g>
<!-- Node198 -->
<g id="node7" class="node">
<title>Node198</title>
<g id="a_node7"><a xlink:href="class_chimera_t_k_1_1_void_accessor.html#a66cd738bf192ffa95d9524c4c09750fa" target="_top" xlink:title="Move constructor. ">
<polygon fill="#ffffff" stroke="#000000" points="429.5,-122.5 429.5,-152.5 570.5,-152.5 570.5,-122.5 429.5,-122.5"/>
<text text-anchor="start" x="437.5" y="-140.5" font-family="Helvetica,sans-Serif" font-size="10.00" fill="#000000">ChimeraTK::VoidAccessor</text>
<text text-anchor="middle" x="500" y="-129.5" font-family="Helvetica,sans-Serif" font-size="10.00" fill="#000000">::VoidAccessor</text>
</a>
</g>
</g>
<!-- Node197&#45;&gt;Node198 -->
<g id="edge6" class="edge">
<title>Node197&#45;&gt;Node198</title>
<path fill="none" stroke="#191970" d="M370.2096,-152.9145C389.6254,-150.6086 410.2212,-148.1626 429.1492,-145.9146"/>
<polygon fill="#191970" stroke="#191970" points="369.6964,-149.4508 360.179,-154.1058 370.5221,-156.4019 369.6964,-149.4508"/>
</g>
<!-- Node199&#45;&gt;Node198 -->
<g id="edge8" class="edge">
<title>Node199&#45;&gt;Node198</title>
<path fill="none" stroke="#191970" d="M370.2096,-122.702C389.6254,-124.9157 410.2212,-127.2639 429.1492,-129.422"/>
<polygon fill="#191970" stroke="#191970" points="370.5112,-119.2138 360.179,-121.5584 369.7182,-126.1688 370.5112,-119.2138"/>
</g>
<!-- Node202 -->
<g id="node11" class="node">
<title>Node202</title>
<g id="a_node11"><a xlink:href="class_chimera_t_k_1_1_variable_network_node.html#a024d12d24ea13597b677318b8dde680f" target="_top" xlink:title="Print node information to std::cout. ">
<polygon fill="#ffffff" stroke="#000000" points="421,-.5 421,-30.5 579,-30.5 579,-.5 421,-.5"/>
<text text-anchor="start" x="429" y="-18.5" font-family="Helvetica,sans-Serif" font-size="10.00" fill="#000000">ChimeraTK::VariableNetwork</text>
<text text-anchor="middle" x="500" y="-7.5" font-family="Helvetica,sans-Serif" font-size="10.00" fill="#000000">Node::dump</text>
</a>
</g>
</g>
<!-- Node201&#45;&gt;Node202 -->
<g id="edge11" class="edge">
<title>Node201&#45;&gt;Node202</title>
<path fill="none" stroke="#191970" d="M382.3057,-15.5C395.1277,-15.5 408.1997,-15.5 420.7459,-15.5"/>
<polygon fill="#191970" stroke="#191970" points="382.091,-12.0001 372.091,-15.5 382.091,-19.0001 382.091,-12.0001"/>
</g>
</g>
</svg>
