<?xml version="1.0" encoding="UTF-8" standalone="no"?>
<!DOCTYPE svg PUBLIC "-//W3C//DTD SVG 1.1//EN"
 "http://www.w3.org/Graphics/SVG/1.1/DTD/svg11.dtd">
<!-- Generated by graphviz version 2.40.1 (20161225.0304)
 -->
<!-- Title: ChimeraTK::ApplicationModule::setCurrentVersionNumber Pages: 1 -->
<!--zoomable 192 -->
<svg id="main" version="1.1" xmlns="http://www.w3.org/2000/svg" xmlns:xlink="http://www.w3.org/1999/xlink" xml:space="preserve" onload="init(evt)">
<style type="text/css"><![CDATA[
.edge:hover path { stroke: red; }
.edge:hover polygon { stroke: red; fill: red; }
]]></style>
<script type="text/javascript"><![CDATA[
var edges = document.getElementsByTagName('g');
if (edges && edges.length) {
  for (var i=0;i<edges.length;i++) {
    if (edges[i].id.substr(0,4)=='edge') {
      edges[i].setAttribute('class','edge');
    }
  }
}
]]></script>
        <defs>
                <circle id="rim" cx="0" cy="0" r="7"/>
                <circle id="rim2" cx="0" cy="0" r="3.5"/>
                <g id="zoomPlus">
                        <use xlink:href="#rim" fill="#404040">
                                <set attributeName="fill" to="#808080" begin="zoomplus.mouseover" end="zoomplus.mouseout"/>
                        </use>
                        <path d="M-4,0h8M0,-4v8" fill="none" stroke="white" stroke-width="1.5" pointer-events="none"/>
                </g>
                <g id="zoomMin">
                        <use xlink:href="#rim" fill="#404040">
                                <set attributeName="fill" to="#808080" begin="zoomminus.mouseover" end="zoomminus.mouseout"/>
                        </use>
                        <path d="M-4,0h8" fill="none" stroke="white" stroke-width="1.5" pointer-events="none"/>
                </g>
                <g id="dirArrow">
                        <path fill="none" stroke="white" stroke-width="1.5" d="M0,-3.0v7 M-2.5,-0.5L0,-3.0L2.5,-0.5"/>
                </g>
               <g id="resetDef">
                       <use xlink:href="#rim2" fill="#404040">
                               <set attributeName="fill" to="#808080" begin="reset.mouseover" end="reset.mouseout"/>
                       </use>
               </g>
        </defs>

<script type="text/javascript">
var viewWidth = 563;
var viewHeight = 192;
var sectionId = 'dynsection-24';
</script>
<script xlink:href="svgpan.js"/>
<svg id="graph" class="graph">
<g id="viewport">
<title>ChimeraTK::ApplicationModule::setCurrentVersionNumber</title>
<polygon fill="#ffffff" stroke="transparent" points="-4,4 -4,-188 559,-188 559,4 -4,4"/>
<!-- Node353 -->
<g id="node1" class="node">
<title>Node353</title>
<polygon fill="#bfbfbf" stroke="#000000" points="0,-90 0,-120 167,-120 167,-90 0,-90"/>
<text text-anchor="start" x="8" y="-108" font-family="Helvetica,sans-Serif" font-size="10.00" fill="#000000">ChimeraTK::ApplicationModule</text>
<text text-anchor="middle" x="83.5" y="-97" font-family="Helvetica,sans-Serif" font-size="10.00" fill="#000000">::setCurrentVersionNumber</text>
</g>
<!-- Node354 -->
<g id="node2" class="node">
<title>Node354</title>
<g id="a_node2"><a xlink:href="struct_simulation_module.html#a939276bda8e1c1c0d8f28c3c45671f0f" target="_top" xlink:title="To be implemented by the user: function called in a separate thread executing the main loop of the mo...">
<polygon fill="#ffffff" stroke="#000000" points="207.5,-164.5 207.5,-183.5 365.5,-183.5 365.5,-164.5 207.5,-164.5"/>
<text text-anchor="middle" x="286.5" y="-171.5" font-family="Helvetica,sans-Serif" font-size="10.00" fill="#000000">SimulationModule::mainLoop</text>
</a>
</g>
</g>
<!-- Node353&#45;&gt;Node354 -->
<g id="edge1" class="edge">
<title>Node353&#45;&gt;Node354</title>
<path fill="none" stroke="#191970" d="M124.4903,-124.2181C147.2555,-134.3628 176.2953,-146.4456 203,-155 214.1851,-158.583 226.4187,-161.764 237.9884,-164.4498"/>
<polygon fill="#191970" stroke="#191970" points="125.698,-120.9234 115.1431,-120.0049 122.8215,-127.3051 125.698,-120.9234"/>
</g>
<!-- Node355 -->
<g id="node3" class="node">
<title>Node355</title>
<g id="a_node3"><a xlink:href="class_chimera_t_k_1_1_application_module.html#acf7f5e081d8dedd9ee61e6f3bc13aa37" target="_top" xlink:title="Return the current version number which has been received with the last push&#45;type read operation...">
<polygon fill="#ffffff" stroke="#000000" points="203,-115 203,-145 370,-145 370,-115 203,-115"/>
<text text-anchor="start" x="211" y="-133" font-family="Helvetica,sans-Serif" font-size="10.00" fill="#000000">ChimeraTK::ApplicationModule</text>
<text text-anchor="middle" x="286.5" y="-122" font-family="Helvetica,sans-Serif" font-size="10.00" fill="#000000">::getCurrentVersionNumber</text>
</a>
</g>
</g>
<!-- Node353&#45;&gt;Node355 -->
<g id="edge2" class="edge">
<title>Node353&#45;&gt;Node355</title>
<path fill="none" stroke="#191970" d="M177.2558,-116.5463C185.8295,-117.6022 194.4773,-118.6671 202.9526,-119.7109"/>
<polygon fill="#191970" stroke="#191970" points="177.5927,-113.0614 167.2399,-115.3128 176.7371,-120.0089 177.5927,-113.0614"/>
</g>
<!-- Node356 -->
<g id="node4" class="node">
<title>Node356</title>
<g id="a_node4"><a xlink:href="struct_chimera_t_k_1_1_periodic_trigger.html#af89ea984b22c0b0d144d10b7a864b161" target="_top" xlink:title="Prepare the execution of the module. ">
<polygon fill="#ffffff" stroke="#000000" points="212,-66 212,-96 361,-96 361,-66 212,-66"/>
<text text-anchor="start" x="220" y="-84" font-family="Helvetica,sans-Serif" font-size="10.00" fill="#000000">ChimeraTK::PeriodicTrigger</text>
<text text-anchor="middle" x="286.5" y="-73" font-family="Helvetica,sans-Serif" font-size="10.00" fill="#000000">::prepare</text>
</a>
</g>
</g>
<!-- Node353&#45;&gt;Node356 -->
<g id="edge3" class="edge">
<title>Node353&#45;&gt;Node356</title>
<path fill="none" stroke="#191970" d="M177.3257,-93.9073C188.8587,-92.5438 200.5247,-91.1646 211.7234,-89.8406"/>
<polygon fill="#191970" stroke="#191970" points="176.7598,-90.4498 167.2399,-95.0997 177.5817,-97.4013 176.7598,-90.4498"/>
</g>
<!-- Node357 -->
<g id="node5" class="node">
<title>Node357</title>
<g id="a_node5"><a xlink:href="struct_chimera_t_k_1_1_periodic_trigger.html#ab4057030a6c29c655f9ce659fc643a4d" target="_top" xlink:title="ChimeraTK::PeriodicTrigger\l::sendTrigger">
<polygon fill="#ffffff" stroke="#000000" points="212,-17 212,-47 361,-47 361,-17 212,-17"/>
<text text-anchor="start" x="220" y="-35" font-family="Helvetica,sans-Serif" font-size="10.00" fill="#000000">ChimeraTK::PeriodicTrigger</text>
<text text-anchor="middle" x="286.5" y="-24" font-family="Helvetica,sans-Serif" font-size="10.00" fill="#000000">::sendTrigger</text>
</a>
</g>
</g>
<!-- Node353&#45;&gt;Node357 -->
<g id="edge4" class="edge">
<title>Node353&#45;&gt;Node357</title>
<path fill="none" stroke="#191970" d="M127.7178,-86.1209C150.0957,-76.8532 177.7936,-65.8152 203,-57 212.856,-53.5531 223.465,-50.1482 233.7051,-47.0129"/>
<polygon fill="#191970" stroke="#191970" points="126.3597,-82.8951 118.4758,-89.9728 129.0527,-89.3564 126.3597,-82.8951"/>
</g>
<!-- Node358 -->
<g id="node6" class="node">
<title>Node358</title>
<g id="a_node6"><a xlink:href="struct_chimera_t_k_1_1_periodic_trigger.html#aa5bdf79b5880aba33b45f196a11585e6" target="_top" xlink:title="To be implemented by the user: function called in a separate thread executing the main loop of the mo...">
<polygon fill="#ffffff" stroke="#000000" points="406,-39 406,-69 555,-69 555,-39 406,-39"/>
<text text-anchor="start" x="414" y="-57" font-family="Helvetica,sans-Serif" font-size="10.00" fill="#000000">ChimeraTK::PeriodicTrigger</text>
<text text-anchor="middle" x="480.5" y="-46" font-family="Helvetica,sans-Serif" font-size="10.00" fill="#000000">::mainLoop</text>
</a>
</g>
</g>
<!-- Node357&#45;&gt;Node358 -->
<g id="edge5" class="edge">
<title>Node357&#45;&gt;Node358</title>
<path fill="none" stroke="#191970" d="M371.2606,-41.612C382.7642,-42.9166 394.5013,-44.2476 405.8105,-45.5301"/>
<polygon fill="#191970" stroke="#191970" points="371.5587,-38.1235 361.228,-40.4743 370.7699,-45.0789 371.5587,-38.1235"/>
</g>
<!-- Node359 -->
<g id="node7" class="node">
<title>Node359</title>
<g id="a_node7"><a xlink:href="test_device_exception_flag_propagation_8cc.html#a25fa0a755b26bfd55126e952cc2300b7" target="_top" xlink:title="BOOST_AUTO_TEST_CASE">
<polygon fill="#ffffff" stroke="#000000" points="409,-.5 409,-19.5 552,-19.5 552,-.5 409,-.5"/>
<text text-anchor="middle" x="480.5" y="-7.5" font-family="Helvetica,sans-Serif" font-size="10.00" fill="#000000">BOOST_AUTO_TEST_CASE</text>
</a>
</g>
</g>
<!-- Node357&#45;&gt;Node359 -->
<g id="edge6" class="edge">
<title>Node357&#45;&gt;Node359</title>
<path fill="none" stroke="#191970" d="M371.1817,-22.3969C383.6876,-20.9787 396.4711,-19.5291 408.6826,-18.1442"/>
<polygon fill="#191970" stroke="#191970" points="370.7699,-18.9211 361.228,-23.5257 371.5587,-25.8765 370.7699,-18.9211"/>
</g>
</g>
</svg>
        <g id="navigator" transform="translate(0 0)" fill="#404254">
                <rect fill="#f2f5e9" fill-opacity="0.5" stroke="#606060" stroke-width=".5" x="0" y="0" width="60" height="60"/>
                <use id="zoomplus" xlink:href="#zoomPlus" x="17" y="9" onmousedown="handleZoom(evt,'in')"/>
                <use id="zoomminus" xlink:href="#zoomMin" x="42" y="9" onmousedown="handleZoom(evt,'out')"/>
                <use id="reset" xlink:href="#resetDef" x="30" y="36" onmousedown="handleReset()"/>
                <g id="arrowUp" xlink:href="#dirArrow" transform="translate(30 24)" onmousedown="handlePan(0,-1)">
                  <use xlink:href="#rim" fill="#404040">
                        <set attributeName="fill" to="#808080" begin="arrowUp.mouseover" end="arrowUp.mouseout"/>
                  </use>
                  <path fill="none" stroke="white" stroke-width="1.5" d="M0,-3.0v7 M-2.5,-0.5L0,-3.0L2.5,-0.5"/>
                </g>
                <g id="arrowRight" xlink:href="#dirArrow" transform="rotate(90) translate(36 -43)" onmousedown="handlePan(1,0)">
                  <use xlink:href="#rim" fill="#404040">
                        <set attributeName="fill" to="#808080" begin="arrowRight.mouseover" end="arrowRight.mouseout"/>
                  </use>
                  <path fill="none" stroke="white" stroke-width="1.5" d="M0,-3.0v7 M-2.5,-0.5L0,-3.0L2.5,-0.5"/>
                </g>
                <g id="arrowDown" xlink:href="#dirArrow" transform="rotate(180) translate(-30 -48)" onmousedown="handlePan(0,1)">
                  <use xlink:href="#rim" fill="#404040">
                        <set attributeName="fill" to="#808080" begin="arrowDown.mouseover" end="arrowDown.mouseout"/>
                  </use>
                  <path fill="none" stroke="white" stroke-width="1.5" d="M0,-3.0v7 M-2.5,-0.5L0,-3.0L2.5,-0.5"/>
                </g>
                <g id="arrowLeft" xlink:href="#dirArrow" transform="rotate(270) translate(-36 17)" onmousedown="handlePan(-1,0)">
                  <use xlink:href="#rim" fill="#404040">
                        <set attributeName="fill" to="#808080" begin="arrowLeft.mouseover" end="arrowLeft.mouseout"/>
                  </use>
                  <path fill="none" stroke="white" stroke-width="1.5" d="M0,-3.0v7 M-2.5,-0.5L0,-3.0L2.5,-0.5"/>
                </g>
        </g>
        <svg viewBox="0 0 15 15" width="100%" height="30px" preserveAspectRatio="xMaxYMin meet">
         <g id="arrow_out" transform="scale(0.3 0.3)">
          <a xlink:href="class_chimera_t_k_1_1_application_module_a46ab5d7e9d5ca2a3d7a94bc62563efb6_icgraph_org.svg" target="_base">
           <rect id="button" ry="5" rx="5" y="6" x="6" height="38" width="38"
                fill="#f2f5e9" fill-opacity="0.5" stroke="#606060" stroke-width="1.0"/>
           <path id="arrow"
             d="M 11.500037,31.436501 C 11.940474,20.09759 22.043105,11.32322 32.158766,21.979434 L 37.068811,17.246167 C 37.068811,17.246167 37.088388,32 37.088388,32 L 22.160133,31.978069 C 22.160133,31.978069 26.997745,27.140456 26.997745,27.140456 C 18.528582,18.264221 13.291696,25.230495 11.500037,31.436501 z"
             style="fill:#404040;"/>
          </a>
         </g>
        </svg>
</svg>
