<?xml version="1.0" encoding="UTF-8" standalone="no"?>
<!DOCTYPE svg PUBLIC "-//W3C//DTD SVG 1.1//EN"
 "http://www.w3.org/Graphics/SVG/1.1/DTD/svg11.dtd">
<!-- Generated by graphviz version 2.43.0 (0)
 -->
<!-- Title: ChimeraTK::VariableNetworkNode::getMode Pages: 1 -->
<svg width="627pt" height="137pt"
 viewBox="0.00 0.00 627.00 137.00" xmlns="http://www.w3.org/2000/svg" xmlns:xlink="http://www.w3.org/1999/xlink">
<g id="graph0" class="graph" transform="scale(1 1) rotate(0) translate(4 133)">
<title>ChimeraTK::VariableNetworkNode::getMode</title>
<polygon fill="white" stroke="transparent" points="-4,4 -4,-133 623,-133 623,4 -4,4"/>
<!-- Node1 -->
<g id="node1" class="node">
<title>Node1</title>
<g id="a_node1"><a xlink:title=" ">
<polygon fill="#bfbfbf" stroke="black" points="461,-49.5 461,-79.5 619,-79.5 619,-49.5 461,-49.5"/>
<text text-anchor="start" x="469" y="-67.5" font-family="Helvetica,sans-Serif" font-size="10.00">ChimeraTK::VariableNetwork</text>
<text text-anchor="middle" x="540" y="-56.5" font-family="Helvetica,sans-Serif" font-size="10.00">Node::getMode</text>
</a>
</g>
</g>
<!-- Node2 -->
<g id="node2" class="node">
<title>Node2</title>
<g id="a_node2"><a xlink:href="class_chimera_t_k_1_1_connection_maker.html#ad23d343f9febe07a8af884813de1fc92" target="_top" xlink:title=" ">
<polygon fill="white" stroke="black" points="229,-98.5 229,-128.5 390,-128.5 390,-98.5 229,-98.5"/>
<text text-anchor="start" x="237" y="-116.5" font-family="Helvetica,sans-Serif" font-size="10.00">ChimeraTK::ConnectionMaker</text>
<text text-anchor="middle" x="309.5" y="-105.5" font-family="Helvetica,sans-Serif" font-size="10.00">::createDeviceVariable</text>
</a>
</g>
</g>
<!-- Node1&#45;&gt;Node2 -->
<g id="edge1" class="edge">
<title>Node1&#45;&gt;Node2</title>
<path fill="none" stroke="midnightblue" d="M460.89,-81.73C448.87,-84.35 436.61,-87.01 425,-89.5 411.3,-92.44 396.66,-95.54 382.6,-98.49"/>
<polygon fill="midnightblue" stroke="midnightblue" points="461.88,-85.1 470.9,-79.54 460.39,-78.26 461.88,-85.1"/>
</g>
<!-- Node3 -->
<g id="node3" class="node">
<title>Node3</title>
<g id="a_node3"><a xlink:href="class_chimera_t_k_1_1_variable_network_node_dumping_visitor.html#a188ebe426fc4322ac85da9ccc45c1b50" target="_top" xlink:title="dispatch">
<polygon fill="white" stroke="black" points="227,-49.5 227,-79.5 392,-79.5 392,-49.5 227,-49.5"/>
<text text-anchor="start" x="235" y="-67.5" font-family="Helvetica,sans-Serif" font-size="10.00">ChimeraTK::VariableNetwork</text>
<text text-anchor="middle" x="309.5" y="-56.5" font-family="Helvetica,sans-Serif" font-size="10.00">NodeDumpingVisitor::dispatch</text>
</a>
</g>
</g>
<!-- Node1&#45;&gt;Node3 -->
<g id="edge2" class="edge">
<title>Node1&#45;&gt;Node3</title>
<path fill="none" stroke="midnightblue" d="M450.46,-64.5C431.29,-64.5 411.11,-64.5 392.22,-64.5"/>
<polygon fill="midnightblue" stroke="midnightblue" points="450.68,-68 460.68,-64.5 450.68,-61 450.68,-68"/>
</g>
<!-- Node5 -->
<g id="node5" class="node">
<title>Node5</title>
<g id="a_node5"><a xlink:href="class_chimera_t_k_1_1_variable_network_node.html#aad9963dca5bc1eeae1bffca71943f511" target="_top" xlink:title=" ">
<polygon fill="white" stroke="black" points="194,-0.5 194,-30.5 425,-30.5 425,-0.5 194,-0.5"/>
<text text-anchor="start" x="202" y="-18.5" font-family="Helvetica,sans-Serif" font-size="10.00">ChimeraTK::VariableNetwork</text>
<text text-anchor="middle" x="309.5" y="-7.5" font-family="Helvetica,sans-Serif" font-size="10.00">Node::setAppAccessorConstImplementation</text>
</a>
</g>
</g>
<!-- Node1&#45;&gt;Node5 -->
<g id="edge4" class="edge">
<title>Node1&#45;&gt;Node5</title>
<path fill="none" stroke="midnightblue" d="M458.86,-47.31C433.31,-41.84 405.25,-35.82 380.48,-30.51"/>
<polygon fill="midnightblue" stroke="midnightblue" points="458.38,-50.79 468.89,-49.47 459.85,-43.95 458.38,-50.79"/>
</g>
<!-- Node4 -->
<g id="node4" class="node">
<title>Node4</title>
<g id="a_node4"><a xlink:href="class_chimera_t_k_1_1_variable_network_node.html#a024d12d24ea13597b677318b8dde680f" target="_top" xlink:title="Print node information to std::cout.">
<polygon fill="white" stroke="black" points="0,-49.5 0,-79.5 158,-79.5 158,-49.5 0,-49.5"/>
<text text-anchor="start" x="8" y="-67.5" font-family="Helvetica,sans-Serif" font-size="10.00">ChimeraTK::VariableNetwork</text>
<text text-anchor="middle" x="79" y="-56.5" font-family="Helvetica,sans-Serif" font-size="10.00">Node::dump</text>
</a>
</g>
</g>
<!-- Node3&#45;&gt;Node4 -->
<g id="edge3" class="edge">
<title>Node3&#45;&gt;Node4</title>
<path fill="none" stroke="midnightblue" d="M216.88,-64.5C197.39,-64.5 176.98,-64.5 158.05,-64.5"/>
<polygon fill="midnightblue" stroke="midnightblue" points="216.97,-68 226.97,-64.5 216.97,-61 216.97,-68"/>
</g>
</g>
</svg>
