<?xml version="1.0" encoding="UTF-8" standalone="no"?>
<!DOCTYPE svg PUBLIC "-//W3C//DTD SVG 1.1//EN"
 "http://www.w3.org/Graphics/SVG/1.1/DTD/svg11.dtd">
<!-- Generated by graphviz version 2.40.1 (20161225.0304)
 -->
<!-- Title: ChimeraTK::EntityOwner::dump Pages: 1 -->
<!--zoomable 504 -->
<svg id="main" version="1.1" xmlns="http://www.w3.org/2000/svg" xmlns:xlink="http://www.w3.org/1999/xlink" xml:space="preserve" onload="init(evt)">
<style type="text/css"><![CDATA[
.edge:hover path { stroke: red; }
.edge:hover polygon { stroke: red; fill: red; }
]]></style>
<script type="text/javascript"><![CDATA[
var edges = document.getElementsByTagName('g');
if (edges && edges.length) {
  for (var i=0;i<edges.length;i++) {
    if (edges[i].id.substr(0,4)=='edge') {
      edges[i].setAttribute('class','edge');
    }
  }
}
]]></script>
        <defs>
                <circle id="rim" cx="0" cy="0" r="7"/>
                <circle id="rim2" cx="0" cy="0" r="3.5"/>
                <g id="zoomPlus">
                        <use xlink:href="#rim" fill="#404040">
                                <set attributeName="fill" to="#808080" begin="zoomplus.mouseover" end="zoomplus.mouseout"/>
                        </use>
                        <path d="M-4,0h8M0,-4v8" fill="none" stroke="white" stroke-width="1.5" pointer-events="none"/>
                </g>
                <g id="zoomMin">
                        <use xlink:href="#rim" fill="#404040">
                                <set attributeName="fill" to="#808080" begin="zoomminus.mouseover" end="zoomminus.mouseout"/>
                        </use>
                        <path d="M-4,0h8" fill="none" stroke="white" stroke-width="1.5" pointer-events="none"/>
                </g>
                <g id="dirArrow">
                        <path fill="none" stroke="white" stroke-width="1.5" d="M0,-3.0v7 M-2.5,-0.5L0,-3.0L2.5,-0.5"/>
                </g>
               <g id="resetDef">
                       <use xlink:href="#rim2" fill="#404040">
                               <set attributeName="fill" to="#808080" begin="reset.mouseover" end="reset.mouseout"/>
                       </use>
               </g>
        </defs>

<script type="text/javascript">
var viewWidth = 1435;
var viewHeight = 504;
var sectionId = 'dynsection-9';
</script>
<script xlink:href="svgpan.js"/>
<svg id="graph" class="graph">
<g id="viewport">
<title>ChimeraTK::EntityOwner::dump</title>
<polygon fill="#ffffff" stroke="transparent" points="-4,4 -4,-500 1431,-500 1431,4 -4,4"/>
<!-- Node143 -->
<g id="node1" class="node">
<title>Node143</title>
<polygon fill="#bfbfbf" stroke="#000000" points="0,-149 0,-179 137,-179 137,-149 0,-149"/>
<text text-anchor="start" x="8" y="-167" font-family="Helvetica,sans-Serif" font-size="10.00" fill="#000000">ChimeraTK::EntityOwner</text>
<text text-anchor="middle" x="68.5" y="-156" font-family="Helvetica,sans-Serif" font-size="10.00" fill="#000000">::dump</text>
</g>
<!-- Node144 -->
<g id="node2" class="node">
<title>Node144</title>
<g id="a_node2"><a xlink:href="class_chimera_t_k_1_1_entity_owner.html#ad46327064e76c3cca1cfd32bd6f99412" target="_top" xlink:title="Obtain the list of accessors/variables directly associated with this instance. ">
<polygon fill="#ffffff" stroke="#000000" points="1290,-209 1290,-239 1427,-239 1427,-209 1290,-209"/>
<text text-anchor="start" x="1298" y="-227" font-family="Helvetica,sans-Serif" font-size="10.00" fill="#000000">ChimeraTK::EntityOwner</text>
<text text-anchor="middle" x="1358.5" y="-216" font-family="Helvetica,sans-Serif" font-size="10.00" fill="#000000">::getAccessorList</text>
</a>
</g>
</g>
<!-- Node143&#45;&gt;Node144 -->
<g id="edge1" class="edge">
<title>Node143&#45;&gt;Node144</title>
<path fill="none" stroke="#191970" d="M86.4542,-148.8652C136.515,-108.2656 283.2952,0 425,0 425,0 425,0 993,0 1113.0995,0 1156.1361,-.3827 1254,-70 1300.9673,-103.4111 1333.2209,-165.0378 1348.4603,-199.3328"/>
<polygon fill="#191970" stroke="#191970" points="1345.299,-200.8407 1352.4737,-208.6364 1351.7264,-198.068 1345.299,-200.8407"/>
</g>
<!-- Node145 -->
<g id="node3" class="node">
<title>Node145</title>
<g id="a_node3"><a xlink:href="class_chimera_t_k_1_1_entity_owner.html#ad0a0084d1642fdf174613b127f0c54ed" target="_top" xlink:title="Obtain the list of submodules associated with this instance. ">
<polygon fill="#ffffff" stroke="#000000" points="173,-313 173,-343 310,-343 310,-313 173,-313"/>
<text text-anchor="start" x="181" y="-331" font-family="Helvetica,sans-Serif" font-size="10.00" fill="#000000">ChimeraTK::EntityOwner</text>
<text text-anchor="middle" x="241.5" y="-320" font-family="Helvetica,sans-Serif" font-size="10.00" fill="#000000">::getSubmoduleList</text>
</a>
</g>
</g>
<!-- Node143&#45;&gt;Node145 -->
<g id="edge2" class="edge">
<title>Node143&#45;&gt;Node145</title>
<path fill="none" stroke="#191970" d="M84.4653,-179.1348C115.1052,-208.1807 182.2793,-271.8602 218.0303,-305.7513"/>
<polygon fill="#191970" stroke="#191970" points="215.908,-308.5621 225.5733,-312.9018 220.7238,-303.4819 215.908,-308.5621"/>
</g>
<!-- Node146 -->
<g id="node4" class="node">
<title>Node146</title>
<g id="a_node4"><a xlink:href="class_chimera_t_k_1_1_entity_owner.html#a40de1606ef235a05c84b8e24ef06527d" target="_top" xlink:title="Obtain the list of accessors/variables associated with this instance and any submodules. ">
<polygon fill="#ffffff" stroke="#000000" points="1108,-444 1108,-474 1254,-474 1254,-444 1108,-444"/>
<text text-anchor="start" x="1116" y="-462" font-family="Helvetica,sans-Serif" font-size="10.00" fill="#000000">ChimeraTK::EntityOwner</text>
<text text-anchor="middle" x="1181" y="-451" font-family="Helvetica,sans-Serif" font-size="10.00" fill="#000000">::getAccessorListRecursive</text>
</a>
</g>
</g>
<!-- Node145&#45;&gt;Node146 -->
<g id="edge3" class="edge">
<title>Node145&#45;&gt;Node146</title>
<path fill="none" stroke="#191970" d="M264.5502,-343.2846C284.5844,-359.871 315.1612,-385.3302 346,-401 458.3905,-458.1079 492.9328,-478 619,-478 619,-478 619,-478 806,-478 906.5931,-478 1021.9443,-467.8566 1097.8471,-461.7425"/>
<polygon fill="#191970" stroke="#191970" points="1098.1381,-465.2305 1107.8273,-460.9446 1097.5802,-458.2528 1098.1381,-465.2305"/>
</g>
<!-- Node147 -->
<g id="node5" class="node">
<title>Node147</title>
<g id="a_node5"><a xlink:href="class_chimera_t_k_1_1_entity_owner.html#a3f8825f36ec3d9db2a32f8707afe735c" target="_top" xlink:title="Obtain the list of submodules associated with this instance and any submodules. ">
<polygon fill="#ffffff" stroke="#000000" points="346,-133 346,-163 504,-163 504,-133 346,-133"/>
<text text-anchor="start" x="354" y="-151" font-family="Helvetica,sans-Serif" font-size="10.00" fill="#000000">ChimeraTK::EntityOwner</text>
<text text-anchor="middle" x="425" y="-140" font-family="Helvetica,sans-Serif" font-size="10.00" fill="#000000">::getSubmoduleListRecursive</text>
</a>
</g>
</g>
<!-- Node145&#45;&gt;Node147 -->
<g id="edge6" class="edge">
<title>Node145&#45;&gt;Node147</title>
<path fill="none" stroke="#191970" d="M245.7275,-312.7369C256.6518,-281.374 288.4496,-210.9306 337.6405,-169.6065"/>
<polygon fill="#191970" stroke="#191970" points="340.0188,-172.1876 345.6841,-163.2347 335.6722,-166.7006 340.0188,-172.1876"/>
</g>
<!-- Node148 -->
<g id="node6" class="node">
<title>Node148</title>
<g id="a_node6"><a xlink:href="class_chimera_t_k_1_1_entity_owner.html#a0bcb02caefb83338f3ad8def4c5f0af7" target="_top" xlink:title="Check whether a submodule exists by the given name (not taking into account eliminated hierarchies et...">
<polygon fill="#ffffff" stroke="#000000" points="737.5,-417 737.5,-447 874.5,-447 874.5,-417 737.5,-417"/>
<text text-anchor="start" x="745.5" y="-435" font-family="Helvetica,sans-Serif" font-size="10.00" fill="#000000">ChimeraTK::EntityOwner</text>
<text text-anchor="middle" x="806" y="-424" font-family="Helvetica,sans-Serif" font-size="10.00" fill="#000000">::hasSubmodule</text>
</a>
</g>
</g>
<!-- Node145&#45;&gt;Node148 -->
<g id="edge8" class="edge">
<title>Node145&#45;&gt;Node148</title>
<path fill="none" stroke="#191970" d="M289.714,-343.022C307.0964,-350.1015 327.0926,-357.8869 346,-363 476.9503,-398.4129 634.717,-413.1999 727.3238,-421.7358"/>
<polygon fill="#191970" stroke="#191970" points="727.1799,-425.2373 737.459,-422.6702 727.8226,-418.2669 727.1799,-425.2373"/>
</g>
<!-- Node149 -->
<g id="node7" class="node">
<title>Node149</title>
<g id="a_node7"><a xlink:href="class_chimera_t_k_1_1_entity_owner.html#a2906bfcc6c188b9515b67efaad030d7e" target="_top" xlink:title="Get a submodule by the given name (not taking into account eliminated hierarchies etc...">
<polygon fill="#ffffff" stroke="#000000" points="737.5,-368 737.5,-398 874.5,-398 874.5,-368 737.5,-368"/>
<text text-anchor="start" x="745.5" y="-386" font-family="Helvetica,sans-Serif" font-size="10.00" fill="#000000">ChimeraTK::EntityOwner</text>
<text text-anchor="middle" x="806" y="-375" font-family="Helvetica,sans-Serif" font-size="10.00" fill="#000000">::getSubmodule</text>
</a>
</g>
</g>
<!-- Node145&#45;&gt;Node149 -->
<g id="edge10" class="edge">
<title>Node145&#45;&gt;Node149</title>
<path fill="none" stroke="#191970" d="M310.0248,-328.7626C322.0047,-330.1778 334.3573,-331.7019 346,-333 479.6402,-347.9003 635.6064,-360.8743 727.2882,-370.5814"/>
<polygon fill="#191970" stroke="#191970" points="727.0067,-374.0712 737.3234,-371.6593 727.7544,-367.1113 727.0067,-374.0712"/>
</g>
<!-- Node152 -->
<g id="node10" class="node">
<title>Node152</title>
<g id="a_node10"><a xlink:href="class_chimera_t_k_1_1_entity_owner.html#a10abe5f666483380a4dee7fb8caacd86" target="_top" xlink:title="Return a VirtualModule containing the part of the tree structure matching the given tag...">
<polygon fill="#ffffff" stroke="#000000" points="356.5,-182 356.5,-212 493.5,-212 493.5,-182 356.5,-182"/>
<text text-anchor="start" x="364.5" y="-200" font-family="Helvetica,sans-Serif" font-size="10.00" fill="#000000">ChimeraTK::EntityOwner</text>
<text text-anchor="middle" x="425" y="-189" font-family="Helvetica,sans-Serif" font-size="10.00" fill="#000000">::findTag</text>
</a>
</g>
</g>
<!-- Node145&#45;&gt;Node152 -->
<g id="edge14" class="edge">
<title>Node145&#45;&gt;Node152</title>
<path fill="none" stroke="#191970" d="M252.2401,-312.8802C269.4416,-289.7512 305.393,-245.6777 346,-221 348.8174,-219.2878 351.7662,-217.6895 354.8001,-216.1986"/>
<polygon fill="#191970" stroke="#191970" points="356.4069,-219.3142 364.1107,-212.0408 353.5526,-212.9226 356.4069,-219.3142"/>
</g>
<!-- Node163 -->
<g id="node21" class="node">
<title>Node163</title>
<g id="a_node21"><a xlink:href="class_chimera_t_k_1_1_entity_owner.html#af3793d15629cb8b73413a1444008d709" target="_top" xlink:title="Return a VirtualModule containing the part of the tree structure not matching the given tag...">
<polygon fill="#ffffff" stroke="#000000" points="356.5,-231 356.5,-261 493.5,-261 493.5,-231 356.5,-231"/>
<text text-anchor="start" x="364.5" y="-249" font-family="Helvetica,sans-Serif" font-size="10.00" fill="#000000">ChimeraTK::EntityOwner</text>
<text text-anchor="middle" x="425" y="-238" font-family="Helvetica,sans-Serif" font-size="10.00" fill="#000000">::excludeTag</text>
</a>
</g>
</g>
<!-- Node145&#45;&gt;Node163 -->
<g id="edge34" class="edge">
<title>Node145&#45;&gt;Node163</title>
<path fill="none" stroke="#191970" d="M269.9694,-312.8793C290.7795,-302.0622 319.8219,-287.4504 346,-276 354.7789,-272.1601 364.2204,-268.3268 373.415,-264.7467"/>
<polygon fill="#191970" stroke="#191970" points="374.7876,-267.9689 382.8693,-261.1179 372.2791,-261.4338 374.7876,-267.9689"/>
</g>
<!-- Node146&#45;&gt;Node144 -->
<g id="edge4" class="edge">
<title>Node146&#45;&gt;Node144</title>
<path fill="none" stroke="#191970" d="M1208.5605,-443.8274C1223.2776,-434.7815 1240.9871,-422.2873 1254,-408 1299.1097,-358.4724 1332.9779,-286.1412 1348.7309,-248.6244"/>
<polygon fill="#191970" stroke="#191970" points="1352.117,-249.5932 1352.6879,-239.0138 1345.6442,-246.9281 1352.117,-249.5932"/>
</g>
<!-- Node146&#45;&gt;Node145 -->
<g id="edge5" class="edge">
<title>Node146&#45;&gt;Node145</title>
<path fill="none" stroke="#191970" d="M1110.9655,-474.0291C1035.7235,-484.6137 912.5784,-496 806,-496 619,-496 619,-496 619,-496 492.9328,-496 458.3905,-476.1079 346,-419 311.5448,-401.4926 277.4167,-371.7654 257.9537,-350.7956"/>
<polygon fill="#191970" stroke="#191970" points="260.4972,-348.3886 251.2423,-343.2313 255.261,-353.0344 260.4972,-348.3886"/>
</g>
<!-- Node147&#45;&gt;Node145 -->
<g id="edge7" class="edge">
<title>Node147&#45;&gt;Node145</title>
<path fill="none" stroke="#191970" d="M384.765,-163.0787C371.5086,-167.1588 357.2863,-172.6362 346,-181 302.0898,-213.5402 270.8734,-270.3677 254.5575,-303.1861"/>
<polygon fill="#191970" stroke="#191970" points="251.2284,-302.0264 249.9748,-312.5468 257.5154,-305.1043 251.2284,-302.0264"/>
</g>
<!-- Node148&#45;&gt;Node145 -->
<g id="edge9" class="edge">
<title>Node148&#45;&gt;Node145</title>
<path fill="none" stroke="#191970" d="M737.459,-434.9448C646.5832,-432.2795 481.8592,-417.7404 346,-381 318.1511,-373.4688 287.94,-360.1403 267.1983,-348.4318"/>
<polygon fill="#191970" stroke="#191970" points="268.7624,-345.29 258.3772,-343.1928 265.1879,-351.3086 268.7624,-345.29"/>
</g>
<!-- Node149&#45;&gt;Node145 -->
<g id="edge11" class="edge">
<title>Node149&#45;&gt;Node145</title>
<path fill="none" stroke="#191970" d="M737.3234,-384.0073C647.3312,-379.8443 484.6501,-366.4589 346,-351 330.331,-349.253 313.3761,-347.0967 297.7745,-344.6616"/>
<polygon fill="#191970" stroke="#191970" points="298.1781,-341.1812 287.7445,-343.0225 297.0491,-348.0895 298.1781,-341.1812"/>
</g>
<!-- Node150 -->
<g id="node8" class="node">
<title>Node150</title>
<g id="a_node8"><a xlink:href="class_chimera_t_k_1_1_entity_owner.html#a9ac0f0454393196b8abb3b2393ca69c5" target="_top" xlink:title="Get the name of the module instance. ">
<polygon fill="#ffffff" stroke="#000000" points="924.5,-368 924.5,-398 1061.5,-398 1061.5,-368 924.5,-368"/>
<text text-anchor="start" x="932.5" y="-386" font-family="Helvetica,sans-Serif" font-size="10.00" fill="#000000">ChimeraTK::EntityOwner</text>
<text text-anchor="middle" x="993" y="-375" font-family="Helvetica,sans-Serif" font-size="10.00" fill="#000000">::getName</text>
</a>
</g>
</g>
<!-- Node149&#45;&gt;Node150 -->
<g id="edge12" class="edge">
<title>Node149&#45;&gt;Node150</title>
<path fill="none" stroke="#191970" d="M874.5701,-383C887.5281,-383 901.1753,-383 914.4132,-383"/>
<polygon fill="#191970" stroke="#191970" points="914.4383,-386.5001 924.4382,-383 914.4382,-379.5001 914.4383,-386.5001"/>
</g>
<!-- Node151 -->
<g id="node9" class="node">
<title>Node151</title>
<g id="a_node9"><a xlink:href="class_chimera_t_k_1_1_entity_owner.html#aa3fc963233d251705cd197ced1aa0876" target="_top" xlink:title="Get the fully qualified name of the module instance, i.e. ">
<polygon fill="#ffffff" stroke="#000000" points="1112.5,-368 1112.5,-398 1249.5,-398 1249.5,-368 1112.5,-368"/>
<text text-anchor="start" x="1120.5" y="-386" font-family="Helvetica,sans-Serif" font-size="10.00" fill="#000000">ChimeraTK::EntityOwner</text>
<text text-anchor="middle" x="1181" y="-375" font-family="Helvetica,sans-Serif" font-size="10.00" fill="#000000">::getQualifiedName</text>
</a>
</g>
</g>
<!-- Node150&#45;&gt;Node151 -->
<g id="edge13" class="edge">
<title>Node150&#45;&gt;Node151</title>
<path fill="none" stroke="#191970" d="M1061.6703,-383C1074.7933,-383 1088.6281,-383 1102.0431,-383"/>
<polygon fill="#191970" stroke="#191970" points="1102.2012,-386.5001 1112.2012,-383 1102.2011,-379.5001 1102.2012,-386.5001"/>
</g>
<!-- Node153 -->
<g id="node11" class="node">
<title>Node153</title>
<g id="a_node11"><a xlink:href="class_chimera_t_k_1_1_entity_owner.html#a44d138bbe63552b5b8dd9a128c76fcbe" target="_top" xlink:title="Return the module type of this module, or in case of a VirtualModule the module type this VirtualModu...">
<polygon fill="#ffffff" stroke="#000000" points="1112.5,-80 1112.5,-110 1249.5,-110 1249.5,-80 1112.5,-80"/>
<text text-anchor="start" x="1120.5" y="-98" font-family="Helvetica,sans-Serif" font-size="10.00" fill="#000000">ChimeraTK::EntityOwner</text>
<text text-anchor="middle" x="1181" y="-87" font-family="Helvetica,sans-Serif" font-size="10.00" fill="#000000">::getModuleType</text>
</a>
</g>
</g>
<!-- Node152&#45;&gt;Node153 -->
<g id="edge15" class="edge">
<title>Node152&#45;&gt;Node153</title>
<path fill="none" stroke="#191970" d="M490.8987,-181.9112C495.6863,-179.1444 500.1406,-175.8714 504,-172 541.8116,-134.0708 496.8418,-88.713 540,-57 567.3918,-36.8722 813.483,-21.9569 1072,-62 1091.7919,-65.0657 1112.9867,-70.8719 1131.3756,-76.77"/>
<polygon fill="#191970" stroke="#191970" points="1130.4008,-80.1339 1140.994,-79.9436 1132.5942,-73.4864 1130.4008,-80.1339"/>
</g>
<!-- Node154 -->
<g id="node12" class="node">
<title>Node154</title>
<g id="a_node12"><a xlink:href="class_chimera_t_k_1_1_application.html#aa3c1c63e078d14fb104431a15951a070" target="_top" xlink:title="Obtain instance of the application. ">
<polygon fill="#ffffff" stroke="#000000" points="553.5,-67 553.5,-97 684.5,-97 684.5,-67 553.5,-67"/>
<text text-anchor="start" x="561.5" y="-85" font-family="Helvetica,sans-Serif" font-size="10.00" fill="#000000">ChimeraTK::Application</text>
<text text-anchor="middle" x="619" y="-74" font-family="Helvetica,sans-Serif" font-size="10.00" fill="#000000">::getInstance</text>
</a>
</g>
</g>
<!-- Node152&#45;&gt;Node154 -->
<g id="edge16" class="edge">
<title>Node152&#45;&gt;Node154</title>
<path fill="none" stroke="#191970" d="M487.98,-181.841C493.6928,-179.0849 499.1454,-175.8337 504,-172 528.4059,-152.7266 516.1477,-131.9544 540,-112 544.6135,-108.1404 549.7756,-104.7476 555.1923,-101.771"/>
<polygon fill="#191970" stroke="#191970" points="557.0999,-104.7314 564.4965,-97.1458 553.9838,-98.4632 557.0999,-104.7314"/>
</g>
<!-- Node155 -->
<g id="node13" class="node">
<title>Node155</title>
<g id="a_node13"><a xlink:href="class_chimera_t_k_1_1_entity_owner.html#af0583ea0d31901957f26d01af550eda2" target="_top" xlink:title="Add the part of the tree structure matching the given tag to a VirtualModule. ">
<polygon fill="#ffffff" stroke="#000000" points="540,-231 540,-261 698,-261 698,-231 540,-231"/>
<text text-anchor="start" x="548" y="-249" font-family="Helvetica,sans-Serif" font-size="10.00" fill="#000000">ChimeraTK::EntityOwner</text>
<text text-anchor="middle" x="619" y="-238" font-family="Helvetica,sans-Serif" font-size="10.00" fill="#000000">::findTagAndAppendToModule</text>
</a>
</g>
</g>
<!-- Node152&#45;&gt;Node155 -->
<g id="edge17" class="edge">
<title>Node152&#45;&gt;Node155</title>
<path fill="none" stroke="#191970" d="M484.5248,-212.0346C505.1016,-217.2318 528.3371,-223.1006 549.6336,-228.4796"/>
<polygon fill="#191970" stroke="#191970" points="549.0351,-231.9383 559.5878,-230.9938 550.7494,-225.1514 549.0351,-231.9383"/>
</g>
<!-- Node155&#45;&gt;Node144 -->
<g id="edge23" class="edge">
<title>Node155&#45;&gt;Node144</title>
<path fill="none" stroke="#191970" d="M676.5183,-230.9696C694.7645,-226.8842 715.1073,-223.0298 734,-221 929.355,-200.0109 1161.0694,-210.2408 1279.7744,-218.0085"/>
<polygon fill="#191970" stroke="#191970" points="1279.6513,-221.5079 1289.8619,-218.6805 1280.1167,-214.5234 1279.6513,-221.5079"/>
</g>
<!-- Node155&#45;&gt;Node145 -->
<g id="edge26" class="edge">
<title>Node155&#45;&gt;Node145</title>
<path fill="none" stroke="#191970" d="M549.7156,-261.0499C484.7948,-275.1519 387.8586,-296.2082 320.0814,-310.9307"/>
<polygon fill="#191970" stroke="#191970" points="319.3295,-307.5123 310.3004,-313.0553 320.8155,-314.3528 319.3295,-307.5123"/>
</g>
<!-- Node155&#45;&gt;Node148 -->
<g id="edge27" class="edge">
<title>Node155&#45;&gt;Node148</title>
<path fill="none" stroke="#191970" d="M625.8095,-261.4028C640.7337,-293.4233 679.403,-367.5525 734,-408 736.0381,-409.5099 738.1767,-410.9284 740.3893,-412.2607"/>
<polygon fill="#191970" stroke="#191970" points="738.764,-415.3605 749.2338,-416.9835 742.0613,-409.1857 738.764,-415.3605"/>
</g>
<!-- Node155&#45;&gt;Node149 -->
<g id="edge28" class="edge">
<title>Node155&#45;&gt;Node149</title>
<path fill="none" stroke="#191970" d="M639.7268,-261.1848C673.233,-285.7322 739.3693,-334.185 777.3559,-362.0148"/>
<polygon fill="#191970" stroke="#191970" points="775.3301,-364.8694 785.4654,-367.9559 779.4671,-359.2226 775.3301,-364.8694"/>
</g>
<!-- Node155&#45;&gt;Node153 -->
<g id="edge18" class="edge">
<title>Node155&#45;&gt;Node153</title>
<path fill="none" stroke="#191970" d="M628.9102,-230.9675C646.5773,-205.6138 686.1836,-154.9711 734,-133 797.5669,-103.7917 992.0321,-96.8639 1102.3846,-95.3297"/>
<polygon fill="#191970" stroke="#191970" points="1102.5127,-98.8285 1112.4673,-95.2013 1102.4235,-91.8291 1102.5127,-98.8285"/>
</g>
<!-- Node156 -->
<g id="node14" class="node">
<title>Node156</title>
<g id="a_node14"><a xlink:href="class_chimera_t_k_1_1_entity_owner.html#a86a370822f4d962d9a4a4634ddd29d27" target="_top" xlink:title="Note: this function is deprectated. ">
<polygon fill="#ffffff" stroke="#000000" points="737.5,-280 737.5,-310 874.5,-310 874.5,-280 737.5,-280"/>
<text text-anchor="start" x="745.5" y="-298" font-family="Helvetica,sans-Serif" font-size="10.00" fill="#000000">ChimeraTK::EntityOwner</text>
<text text-anchor="middle" x="806" y="-287" font-family="Helvetica,sans-Serif" font-size="10.00" fill="#000000">::getEliminateHierarchy</text>
</a>
</g>
</g>
<!-- Node155&#45;&gt;Node156 -->
<g id="edge19" class="edge">
<title>Node155&#45;&gt;Node156</title>
<path fill="none" stroke="#191970" d="M676.377,-261.0346C696.1216,-266.2083 718.4058,-272.0475 738.8578,-277.4066"/>
<polygon fill="#191970" stroke="#191970" points="738.1709,-280.8447 748.7315,-279.9938 739.9453,-274.0733 738.1709,-280.8447"/>
</g>
<!-- Node158 -->
<g id="node16" class="node">
<title>Node158</title>
<g id="a_node16"><a xlink:href="class_chimera_t_k_1_1_entity_owner.html#a260d2a06bf851b4b685ae498cf5a2237" target="_top" xlink:title="Called inside the constructor of Accessor: adds the accessor to the list. ">
<polygon fill="#ffffff" stroke="#000000" points="737.5,-143 737.5,-173 874.5,-173 874.5,-143 737.5,-143"/>
<text text-anchor="start" x="745.5" y="-161" font-family="Helvetica,sans-Serif" font-size="10.00" fill="#000000">ChimeraTK::EntityOwner</text>
<text text-anchor="middle" x="806" y="-150" font-family="Helvetica,sans-Serif" font-size="10.00" fill="#000000">::registerAccessor</text>
</a>
</g>
</g>
<!-- Node155&#45;&gt;Node158 -->
<g id="edge24" class="edge">
<title>Node155&#45;&gt;Node158</title>
<path fill="none" stroke="#191970" d="M647.5487,-230.8776C670.6495,-218.8172 704.135,-201.7313 734,-188 742.0453,-184.3009 750.6783,-180.5342 759.0737,-176.9758"/>
<polygon fill="#191970" stroke="#191970" points="760.5393,-180.1565 768.4076,-173.0613 757.8321,-173.7012 760.5393,-180.1565"/>
</g>
<!-- Node160 -->
<g id="node18" class="node">
<title>Node160</title>
<g id="a_node18"><a xlink:href="class_chimera_t_k_1_1_virtual_module.html#a050961da9eb30eac1111fd75587f768e" target="_top" xlink:title="Add a virtual sub&#45;module. ">
<polygon fill="#ffffff" stroke="#000000" points="734,-231 734,-261 878,-261 878,-231 734,-231"/>
<text text-anchor="start" x="742" y="-249" font-family="Helvetica,sans-Serif" font-size="10.00" fill="#000000">ChimeraTK::VirtualModule</text>
<text text-anchor="middle" x="806" y="-238" font-family="Helvetica,sans-Serif" font-size="10.00" fill="#000000">::addSubModule</text>
</a>
</g>
</g>
<!-- Node155&#45;&gt;Node160 -->
<g id="edge29" class="edge">
<title>Node155&#45;&gt;Node160</title>
<path fill="none" stroke="#191970" d="M698.0338,-246C706.4669,-246 715.061,-246 723.5325,-246"/>
<polygon fill="#191970" stroke="#191970" points="723.7861,-249.5001 733.7861,-246 723.7861,-242.5001 723.7861,-249.5001"/>
</g>
<!-- Node157 -->
<g id="node15" class="node">
<title>Node157</title>
<g id="a_node15"><a xlink:href="class_chimera_t_k_1_1_entity_owner.html#a952d3abbffa16054f744f3da7fc46c3f" target="_top" xlink:title="Create a VirtualModule which contains all variables of this EntityOwner in a flat hierarchy...">
<polygon fill="#ffffff" stroke="#000000" points="924.5,-280 924.5,-310 1061.5,-310 1061.5,-280 924.5,-280"/>
<text text-anchor="start" x="932.5" y="-298" font-family="Helvetica,sans-Serif" font-size="10.00" fill="#000000">ChimeraTK::EntityOwner</text>
<text text-anchor="middle" x="993" y="-287" font-family="Helvetica,sans-Serif" font-size="10.00" fill="#000000">::flatten</text>
</a>
</g>
</g>
<!-- Node156&#45;&gt;Node157 -->
<g id="edge20" class="edge">
<title>Node156&#45;&gt;Node157</title>
<path fill="none" stroke="#191970" d="M874.5701,-295C887.5281,-295 901.1753,-295 914.4132,-295"/>
<polygon fill="#191970" stroke="#191970" points="914.4383,-298.5001 924.4382,-295 914.4382,-291.5001 914.4383,-298.5001"/>
</g>
<!-- Node157&#45;&gt;Node146 -->
<g id="edge22" class="edge">
<title>Node157&#45;&gt;Node146</title>
<path fill="none" stroke="#191970" d="M1014.7137,-310.2168C1031.3364,-322.4071 1054.3347,-340.4796 1072,-359 1090.6518,-378.5546 1088.6652,-389.1205 1108,-408 1119.5039,-419.233 1133.7087,-429.7562 1146.5214,-438.2924"/>
<polygon fill="#191970" stroke="#191970" points="1144.8246,-441.3636 1155.119,-443.8689 1148.6339,-435.4908 1144.8246,-441.3636"/>
</g>
<!-- Node157&#45;&gt;Node153 -->
<g id="edge21" class="edge">
<title>Node157&#45;&gt;Node153</title>
<path fill="none" stroke="#191970" d="M1055.5142,-279.9472C1061.3851,-277.1671 1067,-273.8814 1072,-270 1085.6932,-259.3702 1141.0789,-164.6182 1167.2168,-119.1451"/>
<polygon fill="#191970" stroke="#191970" points="1170.3864,-120.6536 1172.3249,-110.2376 1164.314,-117.1713 1170.3864,-120.6536"/>
</g>
<!-- Node159 -->
<g id="node17" class="node">
<title>Node159</title>
<g id="a_node17"><a xlink:href="class_chimera_t_k_1_1_variable_network_node.html#a4899ab9738a12b99bb1c61d0cf98d265" target="_top" xlink:title="Add a tag. ">
<polygon fill="#ffffff" stroke="#000000" points="914,-143 914,-173 1072,-173 1072,-143 914,-143"/>
<text text-anchor="start" x="922" y="-161" font-family="Helvetica,sans-Serif" font-size="10.00" fill="#000000">ChimeraTK::VariableNetwork</text>
<text text-anchor="middle" x="993" y="-150" font-family="Helvetica,sans-Serif" font-size="10.00" fill="#000000">Node::addTag</text>
</a>
</g>
</g>
<!-- Node158&#45;&gt;Node159 -->
<g id="edge25" class="edge">
<title>Node158&#45;&gt;Node159</title>
<path fill="none" stroke="#191970" d="M874.5701,-158C884.0858,-158 893.9732,-158 903.7973,-158"/>
<polygon fill="#191970" stroke="#191970" points="903.9938,-161.5001 913.9937,-158 903.9937,-154.5001 903.9938,-161.5001"/>
</g>
<!-- Node161 -->
<g id="node19" class="node">
<title>Node161</title>
<g id="a_node19"><a xlink:href="class_chimera_t_k_1_1_entity_owner.html#a9690d4ae29d8a9e05d34feed82533e94" target="_top" xlink:title="Register another module as a sub&#45;mdoule. ">
<polygon fill="#ffffff" stroke="#000000" points="924.5,-231 924.5,-261 1061.5,-261 1061.5,-231 924.5,-231"/>
<text text-anchor="start" x="932.5" y="-249" font-family="Helvetica,sans-Serif" font-size="10.00" fill="#000000">ChimeraTK::EntityOwner</text>
<text text-anchor="middle" x="993" y="-238" font-family="Helvetica,sans-Serif" font-size="10.00" fill="#000000">::registerModule</text>
</a>
</g>
</g>
<!-- Node160&#45;&gt;Node161 -->
<g id="edge30" class="edge">
<title>Node160&#45;&gt;Node161</title>
<path fill="none" stroke="#191970" d="M878.0316,-246C889.928,-246 902.3146,-246 914.3632,-246"/>
<polygon fill="#191970" stroke="#191970" points="914.3865,-249.5001 924.3865,-246 914.3864,-242.5001 914.3865,-249.5001"/>
</g>
<!-- Node162 -->
<g id="node20" class="node">
<title>Node162</title>
<g id="a_node20"><a xlink:href="class_chimera_t_k_1_1_entity_owner.html#aba60e1945471166d25fec22172788b08" target="_top" xlink:title="Add a tag to all Application&#45;type nodes inside this group. ">
<polygon fill="#ffffff" stroke="#000000" points="1112.5,-231 1112.5,-261 1249.5,-261 1249.5,-231 1112.5,-231"/>
<text text-anchor="start" x="1120.5" y="-249" font-family="Helvetica,sans-Serif" font-size="10.00" fill="#000000">ChimeraTK::EntityOwner</text>
<text text-anchor="middle" x="1181" y="-238" font-family="Helvetica,sans-Serif" font-size="10.00" fill="#000000">::addTag</text>
</a>
</g>
</g>
<!-- Node161&#45;&gt;Node162 -->
<g id="edge31" class="edge">
<title>Node161&#45;&gt;Node162</title>
<path fill="none" stroke="#191970" d="M1061.6703,-246C1074.7933,-246 1088.6281,-246 1102.0431,-246"/>
<polygon fill="#191970" stroke="#191970" points="1102.2012,-249.5001 1112.2012,-246 1102.2011,-242.5001 1102.2012,-249.5001"/>
</g>
<!-- Node162&#45;&gt;Node144 -->
<g id="edge32" class="edge">
<title>Node162&#45;&gt;Node144</title>
<path fill="none" stroke="#191970" d="M1249.6261,-237.4942C1259.5036,-236.27 1269.7322,-235.0022 1279.7867,-233.756"/>
<polygon fill="#191970" stroke="#191970" points="1280.2702,-237.223 1289.7637,-232.5194 1279.4091,-230.2761 1280.2702,-237.223"/>
</g>
<!-- Node162&#45;&gt;Node145 -->
<g id="edge33" class="edge">
<title>Node162&#45;&gt;Node145</title>
<path fill="none" stroke="#191970" d="M1165.2761,-261.1967C1145.4233,-279.2319 1109.33,-308.3285 1072,-320 933.5403,-363.2904 499.6484,-343.4698 320.2924,-333.0048"/>
<polygon fill="#191970" stroke="#191970" points="320.3275,-329.5008 310.1389,-332.4064 319.9156,-336.4887 320.3275,-329.5008"/>
</g>
<!-- Node163&#45;&gt;Node153 -->
<g id="edge35" class="edge">
<title>Node163&#45;&gt;Node153</title>
<path fill="none" stroke="#191970" d="M476.8661,-230.9571C486.0031,-227.9198 495.3524,-224.5572 504,-221 610.252,-177.2928 623.113,-133.0646 734,-103 859.1491,-69.0685 1011.3197,-76.0164 1101.9474,-84.9395"/>
<polygon fill="#191970" stroke="#191970" points="1101.8433,-88.4469 1112.1464,-85.9777 1102.5523,-81.4829 1101.8433,-88.4469"/>
</g>
<!-- Node163&#45;&gt;Node154 -->
<g id="edge36" class="edge">
<title>Node163&#45;&gt;Node154</title>
<path fill="none" stroke="#191970" d="M490.8332,-230.8454C495.635,-228.0928 500.1105,-224.8412 504,-221 540.3003,-185.151 504.7257,-148.859 540,-112 543.5851,-108.2538 547.6861,-104.9702 552.0922,-102.0929"/>
<polygon fill="#191970" stroke="#191970" points="553.9554,-105.0591 560.8861,-97.0455 550.4708,-98.988 553.9554,-105.0591"/>
</g>
<!-- Node163&#45;&gt;Node155 -->
<g id="edge37" class="edge">
<title>Node163&#45;&gt;Node155</title>
<path fill="none" stroke="#191970" d="M493.6702,-246C505.3365,-246 517.6022,-246 529.7068,-246"/>
<polygon fill="#191970" stroke="#191970" points="529.8201,-249.5001 539.8201,-246 529.82,-242.5001 529.8201,-249.5001"/>
</g>
</g>
</svg>
        <g id="navigator" transform="translate(0 0)" fill="#404254">
                <rect fill="#f2f5e9" fill-opacity="0.5" stroke="#606060" stroke-width=".5" x="0" y="0" width="60" height="60"/>
                <use id="zoomplus" xlink:href="#zoomPlus" x="17" y="9" onmousedown="handleZoom(evt,'in')"/>
                <use id="zoomminus" xlink:href="#zoomMin" x="42" y="9" onmousedown="handleZoom(evt,'out')"/>
                <use id="reset" xlink:href="#resetDef" x="30" y="36" onmousedown="handleReset()"/>
                <g id="arrowUp" xlink:href="#dirArrow" transform="translate(30 24)" onmousedown="handlePan(0,-1)">
                  <use xlink:href="#rim" fill="#404040">
                        <set attributeName="fill" to="#808080" begin="arrowUp.mouseover" end="arrowUp.mouseout"/>
                  </use>
                  <path fill="none" stroke="white" stroke-width="1.5" d="M0,-3.0v7 M-2.5,-0.5L0,-3.0L2.5,-0.5"/>
                </g>
                <g id="arrowRight" xlink:href="#dirArrow" transform="rotate(90) translate(36 -43)" onmousedown="handlePan(1,0)">
                  <use xlink:href="#rim" fill="#404040">
                        <set attributeName="fill" to="#808080" begin="arrowRight.mouseover" end="arrowRight.mouseout"/>
                  </use>
                  <path fill="none" stroke="white" stroke-width="1.5" d="M0,-3.0v7 M-2.5,-0.5L0,-3.0L2.5,-0.5"/>
                </g>
                <g id="arrowDown" xlink:href="#dirArrow" transform="rotate(180) translate(-30 -48)" onmousedown="handlePan(0,1)">
                  <use xlink:href="#rim" fill="#404040">
                        <set attributeName="fill" to="#808080" begin="arrowDown.mouseover" end="arrowDown.mouseout"/>
                  </use>
                  <path fill="none" stroke="white" stroke-width="1.5" d="M0,-3.0v7 M-2.5,-0.5L0,-3.0L2.5,-0.5"/>
                </g>
                <g id="arrowLeft" xlink:href="#dirArrow" transform="rotate(270) translate(-36 17)" onmousedown="handlePan(-1,0)">
                  <use xlink:href="#rim" fill="#404040">
                        <set attributeName="fill" to="#808080" begin="arrowLeft.mouseover" end="arrowLeft.mouseout"/>
                  </use>
                  <path fill="none" stroke="white" stroke-width="1.5" d="M0,-3.0v7 M-2.5,-0.5L0,-3.0L2.5,-0.5"/>
                </g>
        </g>
        <svg viewBox="0 0 15 15" width="100%" height="30px" preserveAspectRatio="xMaxYMin meet">
         <g id="arrow_out" transform="scale(0.3 0.3)">
          <a xlink:href="class_chimera_t_k_1_1_entity_owner_ac641f46d97a7c0aa862e05e1fcedc6e4_cgraph_org.svg" target="_base">
           <rect id="button" ry="5" rx="5" y="6" x="6" height="38" width="38"
                fill="#f2f5e9" fill-opacity="0.5" stroke="#606060" stroke-width="1.0"/>
           <path id="arrow"
             d="M 11.500037,31.436501 C 11.940474,20.09759 22.043105,11.32322 32.158766,21.979434 L 37.068811,17.246167 C 37.068811,17.246167 37.088388,32 37.088388,32 L 22.160133,31.978069 C 22.160133,31.978069 26.997745,27.140456 26.997745,27.140456 C 18.528582,18.264221 13.291696,25.230495 11.500037,31.436501 z"
             style="fill:#404040;"/>
          </a>
         </g>
        </svg>
</svg>
