<?xml version="1.0" encoding="UTF-8" standalone="no"?>
<!DOCTYPE svg PUBLIC "-//W3C//DTD SVG 1.1//EN"
 "http://www.w3.org/Graphics/SVG/1.1/DTD/svg11.dtd">
<!-- Generated by graphviz version 2.40.1 (20161225.0304)
 -->
<!-- Title: ChimeraTK::Module::getCurrentVersionNumber Pages: 1 -->
<!--zoomable 361 -->
<svg id="main" version="1.1" xmlns="http://www.w3.org/2000/svg" xmlns:xlink="http://www.w3.org/1999/xlink" xml:space="preserve" onload="init(evt)">
<style type="text/css"><![CDATA[
.edge:hover path { stroke: red; }
.edge:hover polygon { stroke: red; fill: red; }
]]></style>
<script type="text/javascript"><![CDATA[
var edges = document.getElementsByTagName('g');
if (edges && edges.length) {
  for (var i=0;i<edges.length;i++) {
    if (edges[i].id.substr(0,4)=='edge') {
      edges[i].setAttribute('class','edge');
    }
  }
}
]]></script>
        <defs>
                <circle id="rim" cx="0" cy="0" r="7"/>
                <circle id="rim2" cx="0" cy="0" r="3.5"/>
                <g id="zoomPlus">
                        <use xlink:href="#rim" fill="#404040">
                                <set attributeName="fill" to="#808080" begin="zoomplus.mouseover" end="zoomplus.mouseout"/>
                        </use>
                        <path d="M-4,0h8M0,-4v8" fill="none" stroke="white" stroke-width="1.5" pointer-events="none"/>
                </g>
                <g id="zoomMin">
                        <use xlink:href="#rim" fill="#404040">
                                <set attributeName="fill" to="#808080" begin="zoomminus.mouseover" end="zoomminus.mouseout"/>
                        </use>
                        <path d="M-4,0h8" fill="none" stroke="white" stroke-width="1.5" pointer-events="none"/>
                </g>
                <g id="dirArrow">
                        <path fill="none" stroke="white" stroke-width="1.5" d="M0,-3.0v7 M-2.5,-0.5L0,-3.0L2.5,-0.5"/>
                </g>
               <g id="resetDef">
                       <use xlink:href="#rim2" fill="#404040">
                               <set attributeName="fill" to="#808080" begin="reset.mouseover" end="reset.mouseout"/>
                       </use>
               </g>
        </defs>

<script type="text/javascript">
var viewWidth = 712;
var viewHeight = 361;
var sectionId = 'dynsection-14';
</script>
<script xlink:href="svgpan.js"/>
<svg id="graph" class="graph">
<g id="viewport">
<title>ChimeraTK::Module::getCurrentVersionNumber</title>
<polygon fill="#ffffff" stroke="transparent" points="-4,4 -4,-357 708,-357 708,4 -4,4"/>
<!-- Node115 -->
<g id="node1" class="node">
<title>Node115</title>
<polygon fill="#bfbfbf" stroke="#000000" points="0,-220.5 0,-250.5 143,-250.5 143,-220.5 0,-220.5"/>
<text text-anchor="start" x="8" y="-238.5" font-family="Helvetica,sans-Serif" font-size="10.00" fill="#000000">ChimeraTK::Module::</text>
<text text-anchor="middle" x="71.5" y="-227.5" font-family="Helvetica,sans-Serif" font-size="10.00" fill="#000000">getCurrentVersionNumber</text>
</g>
<!-- Node116 -->
<g id="node2" class="node">
<title>Node116</title>
<g id="a_node2"><a xlink:href="class_chimera_t_k_1_1_module.html#a7cabaa7c9d97adc5c3ed37430b27ee3e" target="_top" xlink:title="Just call write() on all writable variables in the group. ">
<polygon fill="#ffffff" stroke="#000000" points="179.5,-196.5 179.5,-226.5 297.5,-226.5 297.5,-196.5 179.5,-196.5"/>
<text text-anchor="start" x="187.5" y="-214.5" font-family="Helvetica,sans-Serif" font-size="10.00" fill="#000000">ChimeraTK::Module::</text>
<text text-anchor="middle" x="238.5" y="-203.5" font-family="Helvetica,sans-Serif" font-size="10.00" fill="#000000">writeAll</text>
</a>
</g>
</g>
<!-- Node115&#45;&gt;Node116 -->
<g id="edge1" class="edge">
<title>Node115&#45;&gt;Node116</title>
<path fill="none" stroke="#191970" d="M153.2079,-223.7575C162.019,-222.4913 170.8566,-221.2212 179.3282,-220.0037"/>
<polygon fill="#191970" stroke="#191970" points="152.6926,-220.2956 143.2922,-225.1826 153.6884,-227.2244 152.6926,-220.2956"/>
</g>
<!-- Node127 -->
<g id="node13" class="node">
<title>Node127</title>
<g id="a_node13"><a xlink:href="class_chimera_t_k_1_1_module.html#abed40c6184013a8a9483625016f0c87d" target="_top" xlink:title="Just call writeDestructively() on all writable variables in the group. ">
<polygon fill="#ffffff" stroke="#000000" points="179,-283.5 179,-313.5 298,-313.5 298,-283.5 179,-283.5"/>
<text text-anchor="start" x="187" y="-301.5" font-family="Helvetica,sans-Serif" font-size="10.00" fill="#000000">ChimeraTK::Module::</text>
<text text-anchor="middle" x="238.5" y="-290.5" font-family="Helvetica,sans-Serif" font-size="10.00" fill="#000000">writeAllDestructively</text>
</a>
</g>
</g>
<!-- Node115&#45;&gt;Node127 -->
<g id="edge13" class="edge">
<title>Node115&#45;&gt;Node127</title>
<path fill="none" stroke="#191970" d="M121.0663,-254.1987C145.7861,-263.5241 175.2873,-274.6533 198.5367,-283.424"/>
<polygon fill="#191970" stroke="#191970" points="122.0924,-250.845 111.5007,-250.5901 119.6216,-257.3945 122.0924,-250.845"/>
</g>
<!-- Node117 -->
<g id="node3" class="node">
<title>Node117</title>
<g id="a_node3"><a xlink:href="struct_controller.html#ab39304e11bf3c606f96d08287af4bdc7" target="_top" xlink:title="To be implemented by the user: function called in a separate thread executing the main loop of the mo...">
<polygon fill="#ffffff" stroke="#000000" points="358,-284 358,-303 477,-303 477,-284 358,-284"/>
<text text-anchor="middle" x="417.5" y="-291" font-family="Helvetica,sans-Serif" font-size="10.00" fill="#000000">Controller::mainLoop</text>
</a>
</g>
</g>
<!-- Node116&#45;&gt;Node117 -->
<g id="edge2" class="edge">
<title>Node116&#45;&gt;Node117</title>
<path fill="none" stroke="#191970" d="M265.491,-233.1263C283.8375,-246.8326 309.1957,-263.912 334,-274.5 342.8878,-278.2938 352.6453,-281.386 362.258,-283.8882"/>
<polygon fill="#191970" stroke="#191970" points="267.1548,-229.9935 257.081,-226.712 262.9097,-235.5594 267.1548,-229.9935"/>
</g>
<!-- Node118 -->
<g id="node4" class="node">
<title>Node118</title>
<g id="a_node4"><a xlink:href="struct_automation.html#a98e7f8e8132e573677b8862924bb403a" target="_top" xlink:title="To be implemented by the user: function called in a separate thread executing the main loop of the mo...">
<polygon fill="#ffffff" stroke="#000000" points="353.5,-246 353.5,-265 481.5,-265 481.5,-246 353.5,-246"/>
<text text-anchor="middle" x="417.5" y="-253" font-family="Helvetica,sans-Serif" font-size="10.00" fill="#000000">Automation::mainLoop</text>
</a>
</g>
</g>
<!-- Node116&#45;&gt;Node118 -->
<g id="edge3" class="edge">
<title>Node116&#45;&gt;Node118</title>
<path fill="none" stroke="#191970" d="M304.5093,-229.0764C314.3811,-231.6189 324.4483,-234.1637 334,-236.5 346.9972,-239.6791 361.1761,-242.9712 374.0993,-245.9039"/>
<polygon fill="#191970" stroke="#191970" points="305.2871,-225.6624 294.7288,-226.5424 303.5314,-232.4386 305.2871,-225.6624"/>
</g>
<!-- Node119 -->
<g id="node5" class="node">
<title>Node119</title>
<g id="a_node5"><a xlink:href="class_chimera_t_k_1_1_module.html#ae3497a487a36f2e1a51bc01592aabf5b" target="_top" xlink:title="Terminate the module. ">
<polygon fill="#ffffff" stroke="#000000" points="358.5,-322.5 358.5,-352.5 476.5,-352.5 476.5,-322.5 358.5,-322.5"/>
<text text-anchor="start" x="366.5" y="-340.5" font-family="Helvetica,sans-Serif" font-size="10.00" fill="#000000">ChimeraTK::Module::</text>
<text text-anchor="middle" x="417.5" y="-329.5" font-family="Helvetica,sans-Serif" font-size="10.00" fill="#000000">terminate</text>
</a>
</g>
</g>
<!-- Node116&#45;&gt;Node119 -->
<g id="edge4" class="edge">
<title>Node116&#45;&gt;Node119</title>
<path fill="none" stroke="#191970" d="M260.0094,-234.2838C288.0851,-264.0181 333.7156,-312.3248 334,-312.5 341.4725,-317.1035 349.8452,-320.9043 358.3265,-324.0299"/>
<polygon fill="#191970" stroke="#191970" points="262.3582,-231.6734 252.9481,-226.8051 257.2684,-236.479 262.3582,-231.6734"/>
</g>
<!-- Node120 -->
<g id="node6" class="node">
<title>Node120</title>
<g id="a_node6"><a xlink:href="struct_chimera_t_k_1_1_data_loss_counter.html#a42b52a6a2b9349604cf5be6ce65824da" target="_top" xlink:title="To be implemented by the user: function called in a separate thread executing the main loop of the mo...">
<polygon fill="#ffffff" stroke="#000000" points="337.5,-196.5 337.5,-226.5 497.5,-226.5 497.5,-196.5 337.5,-196.5"/>
<text text-anchor="start" x="345.5" y="-214.5" font-family="Helvetica,sans-Serif" font-size="10.00" fill="#000000">ChimeraTK::DataLossCounter</text>
<text text-anchor="middle" x="417.5" y="-203.5" font-family="Helvetica,sans-Serif" font-size="10.00" fill="#000000">::mainLoop</text>
</a>
</g>
</g>
<!-- Node116&#45;&gt;Node120 -->
<g id="edge5" class="edge">
<title>Node116&#45;&gt;Node120</title>
<path fill="none" stroke="#191970" d="M307.6174,-211.5C317.3612,-211.5 327.4454,-211.5 337.374,-211.5"/>
<polygon fill="#191970" stroke="#191970" points="307.6074,-208.0001 297.6074,-211.5 307.6073,-215.0001 307.6074,-208.0001"/>
</g>
<!-- Node121 -->
<g id="node7" class="node">
<title>Node121</title>
<g id="a_node7"><a xlink:href="struct_chimera_t_k_1_1_read_split_array_module.html#a28f56d69ba05e66e0461396d3c5d74a9" target="_top" xlink:title="To be implemented by the user: function called in a separate thread executing the main loop of the mo...">
<polygon fill="#ffffff" stroke="#000000" points="343,-147.5 343,-177.5 492,-177.5 492,-147.5 343,-147.5"/>
<text text-anchor="start" x="351" y="-165.5" font-family="Helvetica,sans-Serif" font-size="10.00" fill="#000000">ChimeraTK::ReadSplitArray</text>
<text text-anchor="middle" x="417.5" y="-154.5" font-family="Helvetica,sans-Serif" font-size="10.00" fill="#000000">Module::mainLoop</text>
</a>
</g>
</g>
<!-- Node116&#45;&gt;Node121 -->
<g id="edge6" class="edge">
<title>Node116&#45;&gt;Node121</title>
<path fill="none" stroke="#191970" d="M303.3362,-193.7515C322.7363,-188.4409 343.8133,-182.6712 362.5157,-177.5516"/>
<polygon fill="#191970" stroke="#191970" points="302.3875,-190.3824 293.6665,-196.3986 304.2358,-197.134 302.3875,-190.3824"/>
</g>
<!-- Node122 -->
<g id="node8" class="node">
<title>Node122</title>
<g id="a_node8"><a xlink:href="class_chimera_t_k_1_1_application_module.html#adba57529d35393c817cfbed387b3d2b7" target="_top" xlink:title="Set the data validity flag to fault and increment the fault counter. ">
<polygon fill="#ffffff" stroke="#000000" points="334,-98.5 334,-128.5 501,-128.5 501,-98.5 334,-98.5"/>
<text text-anchor="start" x="342" y="-116.5" font-family="Helvetica,sans-Serif" font-size="10.00" fill="#000000">ChimeraTK::ApplicationModule</text>
<text text-anchor="middle" x="417.5" y="-105.5" font-family="Helvetica,sans-Serif" font-size="10.00" fill="#000000">::incrementDataFaultCounter</text>
</a>
</g>
</g>
<!-- Node116&#45;&gt;Node122 -->
<g id="edge7" class="edge">
<title>Node116&#45;&gt;Node122</title>
<path fill="none" stroke="#191970" d="M262.3237,-189.3432C280.7019,-173.2767 307.4014,-152.0708 334,-138.5 341.4136,-134.7175 349.4959,-131.4064 357.6173,-128.5386"/>
<polygon fill="#191970" stroke="#191970" points="259.6338,-187.0521 254.4955,-196.3176 264.2903,-192.2787 259.6338,-187.0521"/>
</g>
<!-- Node124 -->
<g id="node10" class="node">
<title>Node124</title>
<g id="a_node10"><a xlink:href="class_chimera_t_k_1_1_application_module.html#a14834970b6ed0486d53679e43c56a6c2" target="_top" xlink:title="Decrement the fault counter and set the data validity flag to ok if the counter has reached 0...">
<polygon fill="#ffffff" stroke="#000000" points="334,-49.5 334,-79.5 501,-79.5 501,-49.5 334,-49.5"/>
<text text-anchor="start" x="342" y="-67.5" font-family="Helvetica,sans-Serif" font-size="10.00" fill="#000000">ChimeraTK::ApplicationModule</text>
<text text-anchor="middle" x="417.5" y="-56.5" font-family="Helvetica,sans-Serif" font-size="10.00" fill="#000000">::decrementDataFaultCounter</text>
</a>
</g>
</g>
<!-- Node116&#45;&gt;Node124 -->
<g id="edge9" class="edge">
<title>Node116&#45;&gt;Node124</title>
<path fill="none" stroke="#191970" d="M251.315,-187.2766C267.1489,-159.6427 296.6346,-114.9958 334,-89.5 339.6249,-85.6619 345.8523,-82.4007 352.2967,-79.6321"/>
<polygon fill="#191970" stroke="#191970" points="248.1066,-185.8437 246.2932,-196.2822 254.2204,-189.2529 248.1066,-185.8437"/>
</g>
<!-- Node125 -->
<g id="node11" class="node">
<title>Node125</title>
<g id="a_node11"><a xlink:href="class_chimera_t_k_1_1_device_module.html#ab388c8a6e152379643f96c8fb945d3a3" target="_top" xlink:title="This functions tries to open the device and set the deviceError. ">
<polygon fill="#ffffff" stroke="#000000" points="344.5,-.5 344.5,-30.5 490.5,-30.5 490.5,-.5 344.5,-.5"/>
<text text-anchor="start" x="352.5" y="-18.5" font-family="Helvetica,sans-Serif" font-size="10.00" fill="#000000">ChimeraTK::DeviceModule</text>
<text text-anchor="middle" x="417.5" y="-7.5" font-family="Helvetica,sans-Serif" font-size="10.00" fill="#000000">::handleException</text>
</a>
</g>
</g>
<!-- Node116&#45;&gt;Node125 -->
<g id="edge11" class="edge">
<title>Node116&#45;&gt;Node125</title>
<path fill="none" stroke="#191970" d="M245.5606,-186.6129C257.4969,-149.0809 285.2546,-78.2707 334,-39.5 338.3678,-36.026 343.2172,-33.0548 348.3179,-30.5138"/>
<polygon fill="#191970" stroke="#191970" points="242.1873,-185.6756 242.6092,-196.2621 248.8812,-187.7231 242.1873,-185.6756"/>
</g>
<!-- Node123 -->
<g id="node9" class="node">
<title>Node123</title>
<g id="a_node9"><a xlink:href="class_chimera_t_k_1_1_application_module.html#a16d396795d2e8116cc75cd3a10d160f2" target="_top" xlink:title="Return the data validity flag. ">
<polygon fill="#ffffff" stroke="#000000" points="537,-73.5 537,-103.5 704,-103.5 704,-73.5 537,-73.5"/>
<text text-anchor="start" x="545" y="-91.5" font-family="Helvetica,sans-Serif" font-size="10.00" fill="#000000">ChimeraTK::ApplicationModule</text>
<text text-anchor="middle" x="620.5" y="-80.5" font-family="Helvetica,sans-Serif" font-size="10.00" fill="#000000">::getDataValidity</text>
</a>
</g>
</g>
<!-- Node122&#45;&gt;Node123 -->
<g id="edge8" class="edge">
<title>Node122&#45;&gt;Node123</title>
<path fill="none" stroke="#191970" d="M511.2558,-101.9537C519.8295,-100.8978 528.4773,-99.8329 536.9526,-98.7891"/>
<polygon fill="#191970" stroke="#191970" points="510.7371,-98.4911 501.2399,-103.1872 511.5927,-105.4386 510.7371,-98.4911"/>
</g>
<!-- Node124&#45;&gt;Node123 -->
<g id="edge10" class="edge">
<title>Node124&#45;&gt;Node123</title>
<path fill="none" stroke="#191970" d="M511.2558,-75.5844C519.8295,-76.5981 528.4773,-77.6205 536.9526,-78.6225"/>
<polygon fill="#191970" stroke="#191970" points="511.5817,-72.0987 501.2399,-74.4003 510.7598,-79.0503 511.5817,-72.0987"/>
</g>
<!-- Node126 -->
<g id="node12" class="node">
<title>Node126</title>
<g id="a_node12"><a xlink:href="class_chimera_t_k_1_1_device_module.html#a71dea3b0240cf2eccbae77ab7f2c4a73" target="_top" xlink:title="Execute the module. ">
<polygon fill="#ffffff" stroke="#000000" points="537,-6 537,-25 704,-25 704,-6 537,-6"/>
<text text-anchor="middle" x="620.5" y="-13" font-family="Helvetica,sans-Serif" font-size="10.00" fill="#000000">ChimeraTK::DeviceModule::run</text>
</a>
</g>
</g>
<!-- Node125&#45;&gt;Node126 -->
<g id="edge12" class="edge">
<title>Node125&#45;&gt;Node126</title>
<path fill="none" stroke="#191970" d="M500.8212,-15.5C512.6848,-15.5 524.8909,-15.5 536.7624,-15.5"/>
<polygon fill="#191970" stroke="#191970" points="500.5009,-12.0001 490.5009,-15.5 500.5008,-19.0001 500.5009,-12.0001"/>
</g>
<!-- Node127&#45;&gt;Node119 -->
<g id="edge14" class="edge">
<title>Node127&#45;&gt;Node119</title>
<path fill="none" stroke="#191970" d="M308.2868,-313.7049C324.8725,-317.3186 342.4086,-321.1393 358.4605,-324.6366"/>
<polygon fill="#191970" stroke="#191970" points="308.6203,-310.1956 298.1044,-311.4864 307.1301,-317.0351 308.6203,-310.1956"/>
</g>
</g>
</svg>
        <g id="navigator" transform="translate(0 0)" fill="#404254">
                <rect fill="#f2f5e9" fill-opacity="0.5" stroke="#606060" stroke-width=".5" x="0" y="0" width="60" height="60"/>
                <use id="zoomplus" xlink:href="#zoomPlus" x="17" y="9" onmousedown="handleZoom(evt,'in')"/>
                <use id="zoomminus" xlink:href="#zoomMin" x="42" y="9" onmousedown="handleZoom(evt,'out')"/>
                <use id="reset" xlink:href="#resetDef" x="30" y="36" onmousedown="handleReset()"/>
                <g id="arrowUp" xlink:href="#dirArrow" transform="translate(30 24)" onmousedown="handlePan(0,-1)">
                  <use xlink:href="#rim" fill="#404040">
                        <set attributeName="fill" to="#808080" begin="arrowUp.mouseover" end="arrowUp.mouseout"/>
                  </use>
                  <path fill="none" stroke="white" stroke-width="1.5" d="M0,-3.0v7 M-2.5,-0.5L0,-3.0L2.5,-0.5"/>
                </g>
                <g id="arrowRight" xlink:href="#dirArrow" transform="rotate(90) translate(36 -43)" onmousedown="handlePan(1,0)">
                  <use xlink:href="#rim" fill="#404040">
                        <set attributeName="fill" to="#808080" begin="arrowRight.mouseover" end="arrowRight.mouseout"/>
                  </use>
                  <path fill="none" stroke="white" stroke-width="1.5" d="M0,-3.0v7 M-2.5,-0.5L0,-3.0L2.5,-0.5"/>
                </g>
                <g id="arrowDown" xlink:href="#dirArrow" transform="rotate(180) translate(-30 -48)" onmousedown="handlePan(0,1)">
                  <use xlink:href="#rim" fill="#404040">
                        <set attributeName="fill" to="#808080" begin="arrowDown.mouseover" end="arrowDown.mouseout"/>
                  </use>
                  <path fill="none" stroke="white" stroke-width="1.5" d="M0,-3.0v7 M-2.5,-0.5L0,-3.0L2.5,-0.5"/>
                </g>
                <g id="arrowLeft" xlink:href="#dirArrow" transform="rotate(270) translate(-36 17)" onmousedown="handlePan(-1,0)">
                  <use xlink:href="#rim" fill="#404040">
                        <set attributeName="fill" to="#808080" begin="arrowLeft.mouseover" end="arrowLeft.mouseout"/>
                  </use>
                  <path fill="none" stroke="white" stroke-width="1.5" d="M0,-3.0v7 M-2.5,-0.5L0,-3.0L2.5,-0.5"/>
                </g>
        </g>
        <svg viewBox="0 0 15 15" width="100%" height="30px" preserveAspectRatio="xMaxYMin meet">
         <g id="arrow_out" transform="scale(0.3 0.3)">
          <a xlink:href="class_chimera_t_k_1_1_module_a18f537b069bebcf366f78b989f244994_icgraph_org.svg" target="_base">
           <rect id="button" ry="5" rx="5" y="6" x="6" height="38" width="38"
                fill="#f2f5e9" fill-opacity="0.5" stroke="#606060" stroke-width="1.0"/>
           <path id="arrow"
             d="M 11.500037,31.436501 C 11.940474,20.09759 22.043105,11.32322 32.158766,21.979434 L 37.068811,17.246167 C 37.068811,17.246167 37.088388,32 37.088388,32 L 22.160133,31.978069 C 22.160133,31.978069 26.997745,27.140456 26.997745,27.140456 C 18.528582,18.264221 13.291696,25.230495 11.500037,31.436501 z"
             style="fill:#404040;"/>
          </a>
         </g>
        </svg>
</svg>
