<?xml version="1.0" encoding="UTF-8" standalone="no"?>
<!DOCTYPE svg PUBLIC "-//W3C//DTD SVG 1.1//EN"
 "http://www.w3.org/Graphics/SVG/1.1/DTD/svg11.dtd">
<!-- Generated by graphviz version 2.40.1 (20161225.0304)
 -->
<!-- Title: ChimeraTK::VirtualModule::createAndGetSubmodule Pages: 1 -->
<!--zoomable 162 -->
<svg id="main" version="1.1" xmlns="http://www.w3.org/2000/svg" xmlns:xlink="http://www.w3.org/1999/xlink" xml:space="preserve" onload="init(evt)">
<style type="text/css"><![CDATA[
.edge:hover path { stroke: red; }
.edge:hover polygon { stroke: red; fill: red; }
]]></style>
<script type="text/javascript"><![CDATA[
var edges = document.getElementsByTagName('g');
if (edges && edges.length) {
  for (var i=0;i<edges.length;i++) {
    if (edges[i].id.substr(0,4)=='edge') {
      edges[i].setAttribute('class','edge');
    }
  }
}
]]></script>
        <defs>
                <circle id="rim" cx="0" cy="0" r="7"/>
                <circle id="rim2" cx="0" cy="0" r="3.5"/>
                <g id="zoomPlus">
                        <use xlink:href="#rim" fill="#404040">
                                <set attributeName="fill" to="#808080" begin="zoomplus.mouseover" end="zoomplus.mouseout"/>
                        </use>
                        <path d="M-4,0h8M0,-4v8" fill="none" stroke="white" stroke-width="1.5" pointer-events="none"/>
                </g>
                <g id="zoomMin">
                        <use xlink:href="#rim" fill="#404040">
                                <set attributeName="fill" to="#808080" begin="zoomminus.mouseover" end="zoomminus.mouseout"/>
                        </use>
                        <path d="M-4,0h8" fill="none" stroke="white" stroke-width="1.5" pointer-events="none"/>
                </g>
                <g id="dirArrow">
                        <path fill="none" stroke="white" stroke-width="1.5" d="M0,-3.0v7 M-2.5,-0.5L0,-3.0L2.5,-0.5"/>
                </g>
               <g id="resetDef">
                       <use xlink:href="#rim2" fill="#404040">
                               <set attributeName="fill" to="#808080" begin="reset.mouseover" end="reset.mouseout"/>
                       </use>
               </g>
        </defs>

<script type="text/javascript">
var viewWidth = 923;
var viewHeight = 162;
var sectionId = 'dynsection-12';
</script>
<script xlink:href="svgpan.js"/>
<svg id="graph" class="graph">
<g id="viewport">
<title>ChimeraTK::VirtualModule::createAndGetSubmodule</title>
<polygon fill="#ffffff" stroke="transparent" points="-4,4 -4,-157.5 919,-157.5 919,4 -4,4"/>
<!-- Node404 -->
<g id="node1" class="node">
<title>Node404</title>
<polygon fill="#bfbfbf" stroke="#000000" points="0,-123 0,-153 144,-153 144,-123 0,-123"/>
<text text-anchor="start" x="8" y="-141" font-family="Helvetica,sans-Serif" font-size="10.00" fill="#000000">ChimeraTK::VirtualModule</text>
<text text-anchor="middle" x="72" y="-130" font-family="Helvetica,sans-Serif" font-size="10.00" fill="#000000">::createAndGetSubmodule</text>
</g>
<!-- Node405 -->
<g id="node2" class="node">
<title>Node405</title>
<g id="a_node2"><a xlink:href="class_chimera_t_k_1_1_virtual_module.html#a2d37b8fe9e613c2574af9078a73fd53d" target="_top" xlink:title="Constructor. ">
<polygon fill="#ffffff" stroke="#000000" points="408,-123 408,-153 552,-153 552,-123 408,-123"/>
<text text-anchor="start" x="416" y="-141" font-family="Helvetica,sans-Serif" font-size="10.00" fill="#000000">ChimeraTK::VirtualModule</text>
<text text-anchor="middle" x="480" y="-130" font-family="Helvetica,sans-Serif" font-size="10.00" fill="#000000">::VirtualModule</text>
</a>
</g>
</g>
<!-- Node404&#45;&gt;Node405 -->
<g id="edge1" class="edge">
<title>Node404&#45;&gt;Node405</title>
<path fill="none" stroke="#191970" d="M154.2474,-132.4586C228.4969,-130.7702 336.6803,-130.8508 407.6884,-132.7005"/>
<polygon fill="#191970" stroke="#191970" points="153.9146,-128.9655 144.003,-132.7085 154.0855,-135.9635 153.9146,-128.9655"/>
</g>
<!-- Node407 -->
<g id="node4" class="node">
<title>Node407</title>
<g id="a_node4"><a xlink:href="class_chimera_t_k_1_1_virtual_module.html#a28338588d4dd3ad1deac932ae7b70a72" target="_top" xlink:title="Like createAndGetSubmodule(), but recursively create a hierarchy of submodules separated by &quot;/&quot; in th...">
<polygon fill="#ffffff" stroke="#000000" points="180,-52 180,-82 371,-82 371,-52 180,-52"/>
<text text-anchor="start" x="188" y="-70" font-family="Helvetica,sans-Serif" font-size="10.00" fill="#000000">ChimeraTK::VirtualModule</text>
<text text-anchor="middle" x="275.5" y="-59" font-family="Helvetica,sans-Serif" font-size="10.00" fill="#000000">::createAndGetSubmoduleRecursive</text>
</a>
</g>
</g>
<!-- Node404&#45;&gt;Node407 -->
<g id="edge5" class="edge">
<title>Node404&#45;&gt;Node407</title>
<path fill="none" stroke="#191970" d="M124.7763,-119.5867C158.2414,-107.9109 200.9881,-92.9968 232.4051,-82.0356"/>
<polygon fill="#191970" stroke="#191970" points="123.446,-116.3438 115.1571,-122.9427 125.7519,-122.9531 123.446,-116.3438"/>
</g>
<!-- Node405&#45;&gt;Node404 -->
<g id="edge4" class="edge">
<title>Node405&#45;&gt;Node404</title>
<path fill="none" stroke="#191970" d="M397.4295,-143.5488C323.0817,-145.232 214.9032,-145.1463 144.003,-143.2915"/>
<polygon fill="#191970" stroke="#191970" points="397.7764,-147.0415 407.6884,-143.2995 397.6063,-140.0435 397.7764,-147.0415"/>
</g>
<!-- Node406 -->
<g id="node3" class="node">
<title>Node406</title>
<g id="a_node3"><a xlink:href="class_chimera_t_k_1_1_virtual_module.html#a4a157143167e2c27e32401e4fe197991" target="_top" xlink:title="Assignment operator. ">
<polygon fill="#ffffff" stroke="#000000" points="590,-123 590,-153 734,-153 734,-123 590,-123"/>
<text text-anchor="start" x="598" y="-141" font-family="Helvetica,sans-Serif" font-size="10.00" fill="#000000">ChimeraTK::VirtualModule</text>
<text text-anchor="middle" x="662" y="-130" font-family="Helvetica,sans-Serif" font-size="10.00" fill="#000000">::operator=</text>
</a>
</g>
</g>
<!-- Node405&#45;&gt;Node406 -->
<g id="edge2" class="edge">
<title>Node405&#45;&gt;Node406</title>
<path fill="none" stroke="#191970" d="M562.4585,-131.2765C571.6125,-131.2195 580.8829,-131.2544 589.8947,-131.381"/>
<polygon fill="#191970" stroke="#191970" points="562.1569,-127.7793 552.1926,-131.3798 562.2274,-134.7789 562.1569,-127.7793"/>
</g>
<!-- Node406&#45;&gt;Node405 -->
<g id="edge3" class="edge">
<title>Node406&#45;&gt;Node405</title>
<path fill="none" stroke="#191970" d="M579.6302,-144.7229C570.4769,-144.7805 561.2061,-144.7462 552.1926,-144.6202"/>
<polygon fill="#191970" stroke="#191970" points="579.9307,-148.2202 589.8947,-144.619 579.8597,-141.2205 579.9307,-148.2202"/>
</g>
<!-- Node407&#45;&gt;Node405 -->
<g id="edge6" class="edge">
<title>Node407&#45;&gt;Node405</title>
<path fill="none" stroke="#191970" d="M328.5356,-85.4133C362.1652,-97.0891 405.122,-112.0032 436.6933,-122.9644"/>
<polygon fill="#191970" stroke="#191970" points="329.464,-82.0308 318.8692,-82.0573 327.1681,-88.6436 329.464,-82.0308"/>
</g>
<!-- Node407&#45;&gt;Node407 -->
<g id="edge12" class="edge">
<title>Node407&#45;&gt;Node407</title>
<path fill="none" stroke="#191970" d="M239.607,-92.4579C244.0619,-97.179 256.0262,-100.5 275.5,-100.5 307.457,-100.5 319.1913,-91.5566 310.7027,-82.159"/>
<polygon fill="#191970" stroke="#191970" points="243.1206,-92.3707 240.2973,-82.159 236.1363,-91.9025 243.1206,-92.3707"/>
</g>
<!-- Node408 -->
<g id="node5" class="node">
<title>Node408</title>
<g id="a_node5"><a xlink:href="class_chimera_t_k_1_1_device_module.html#a984e0e97ec34d3f8f05f1eebb28e3acc" target="_top" xlink:title="ChimeraTK::DeviceModule\l::virtualiseFromCatalog">
<polygon fill="#ffffff" stroke="#000000" points="407,-52 407,-82 553,-82 553,-52 407,-52"/>
<text text-anchor="start" x="415" y="-70" font-family="Helvetica,sans-Serif" font-size="10.00" fill="#000000">ChimeraTK::DeviceModule</text>
<text text-anchor="middle" x="480" y="-59" font-family="Helvetica,sans-Serif" font-size="10.00" fill="#000000">::virtualiseFromCatalog</text>
</a>
</g>
</g>
<!-- Node407&#45;&gt;Node408 -->
<g id="edge7" class="edge">
<title>Node407&#45;&gt;Node408</title>
<path fill="none" stroke="#191970" d="M381.2643,-67C389.8679,-67 398.4383,-67 406.7315,-67"/>
<polygon fill="#191970" stroke="#191970" points="381.1638,-63.5001 371.1637,-67 381.1637,-70.5001 381.1638,-63.5001"/>
</g>
<!-- Node409 -->
<g id="node6" class="node">
<title>Node409</title>
<g id="a_node6"><a xlink:href="struct_chimera_t_k_1_1history_1_1_server_history.html#a33aa8c21f07687aa1588fc4473fa8a69" target="_top" xlink:title="Overload that calls virtualiseFromCatalog. ">
<polygon fill="#ffffff" stroke="#000000" points="589,-63 589,-93 735,-93 735,-63 589,-63"/>
<text text-anchor="start" x="597" y="-81" font-family="Helvetica,sans-Serif" font-size="10.00" fill="#000000">ChimeraTK::history</text>
<text text-anchor="middle" x="662" y="-70" font-family="Helvetica,sans-Serif" font-size="10.00" fill="#000000">::ServerHistory::addSource</text>
</a>
</g>
</g>
<!-- Node408&#45;&gt;Node409 -->
<g id="edge8" class="edge">
<title>Node408&#45;&gt;Node409</title>
<path fill="none" stroke="#191970" d="M563.2365,-72.0308C571.8043,-72.5486 580.4644,-73.072 588.9103,-73.5825"/>
<polygon fill="#191970" stroke="#191970" points="563.4326,-68.5363 553.2397,-71.4266 563.0103,-75.5236 563.4326,-68.5363"/>
</g>
<!-- Node410 -->
<g id="node7" class="node">
<title>Node410</title>
<g id="a_node7"><a xlink:href="class_chimera_t_k_1_1_device_module.html#a9f8221a93d4b964e0daf9b00e81b450b" target="_top" xlink:title="Connect the entire module into another module. ">
<polygon fill="#ffffff" stroke="#000000" points="589,-14 589,-44 735,-44 735,-14 589,-14"/>
<text text-anchor="start" x="597" y="-32" font-family="Helvetica,sans-Serif" font-size="10.00" fill="#000000">ChimeraTK::DeviceModule</text>
<text text-anchor="middle" x="662" y="-21" font-family="Helvetica,sans-Serif" font-size="10.00" fill="#000000">::connectTo</text>
</a>
</g>
</g>
<!-- Node408&#45;&gt;Node410 -->
<g id="edge9" class="edge">
<title>Node408&#45;&gt;Node410</title>
<path fill="none" stroke="#191970" d="M561.9954,-49.8801C571.3338,-47.9303 580.8,-45.9539 589.9953,-44.034"/>
<polygon fill="#191970" stroke="#191970" points="561.0048,-46.5114 551.9312,-51.9814 562.4355,-53.3636 561.0048,-46.5114"/>
</g>
<!-- Node411 -->
<g id="node8" class="node">
<title>Node411</title>
<g id="a_node8"><a xlink:href="struct_server.html#ad44a7669c1ed714994987d5fe366f247" target="_top" xlink:title="Define the connections between process variables. ">
<polygon fill="#ffffff" stroke="#000000" points="771,-38.5 771,-57.5 915,-57.5 915,-38.5 771,-38.5"/>
<text text-anchor="middle" x="843" y="-45.5" font-family="Helvetica,sans-Serif" font-size="10.00" fill="#000000">Server::defineConnections</text>
</a>
</g>
</g>
<!-- Node410&#45;&gt;Node411 -->
<g id="edge10" class="edge">
<title>Node410&#45;&gt;Node411</title>
<path fill="none" stroke="#191970" d="M745.1102,-37.7243C753.6899,-38.6249 762.3588,-39.5349 770.8057,-40.4216"/>
<polygon fill="#191970" stroke="#191970" points="745.4087,-34.2365 735.0979,-36.6733 744.6778,-41.1982 745.4087,-34.2365"/>
</g>
<!-- Node412 -->
<g id="node9" class="node">
<title>Node412</title>
<g id="a_node9"><a xlink:href="test_direct_device_to_c_s_8cc.html#a08399741d25e3a09169c4d2aa997dc57" target="_top" xlink:title="BOOST_AUTO_TEST_CASE">
<polygon fill="#ffffff" stroke="#000000" points="771.5,-.5 771.5,-19.5 914.5,-19.5 914.5,-.5 771.5,-.5"/>
<text text-anchor="middle" x="843" y="-7.5" font-family="Helvetica,sans-Serif" font-size="10.00" fill="#000000">BOOST_AUTO_TEST_CASE</text>
</a>
</g>
</g>
<!-- Node410&#45;&gt;Node412 -->
<g id="edge11" class="edge">
<title>Node410&#45;&gt;Node412</title>
<path fill="none" stroke="#191970" d="M745.278,-20.2581C754.0019,-19.3423 762.8159,-18.4171 771.3929,-17.5168"/>
<polygon fill="#191970" stroke="#191970" points="744.6778,-16.8018 735.0979,-21.3267 745.4087,-23.7635 744.6778,-16.8018"/>
</g>
</g>
</svg>
        <g id="navigator" transform="translate(0 0)" fill="#404254">
                <rect fill="#f2f5e9" fill-opacity="0.5" stroke="#606060" stroke-width=".5" x="0" y="0" width="60" height="60"/>
                <use id="zoomplus" xlink:href="#zoomPlus" x="17" y="9" onmousedown="handleZoom(evt,'in')"/>
                <use id="zoomminus" xlink:href="#zoomMin" x="42" y="9" onmousedown="handleZoom(evt,'out')"/>
                <use id="reset" xlink:href="#resetDef" x="30" y="36" onmousedown="handleReset()"/>
                <g id="arrowUp" xlink:href="#dirArrow" transform="translate(30 24)" onmousedown="handlePan(0,-1)">
                  <use xlink:href="#rim" fill="#404040">
                        <set attributeName="fill" to="#808080" begin="arrowUp.mouseover" end="arrowUp.mouseout"/>
                  </use>
                  <path fill="none" stroke="white" stroke-width="1.5" d="M0,-3.0v7 M-2.5,-0.5L0,-3.0L2.5,-0.5"/>
                </g>
                <g id="arrowRight" xlink:href="#dirArrow" transform="rotate(90) translate(36 -43)" onmousedown="handlePan(1,0)">
                  <use xlink:href="#rim" fill="#404040">
                        <set attributeName="fill" to="#808080" begin="arrowRight.mouseover" end="arrowRight.mouseout"/>
                  </use>
                  <path fill="none" stroke="white" stroke-width="1.5" d="M0,-3.0v7 M-2.5,-0.5L0,-3.0L2.5,-0.5"/>
                </g>
                <g id="arrowDown" xlink:href="#dirArrow" transform="rotate(180) translate(-30 -48)" onmousedown="handlePan(0,1)">
                  <use xlink:href="#rim" fill="#404040">
                        <set attributeName="fill" to="#808080" begin="arrowDown.mouseover" end="arrowDown.mouseout"/>
                  </use>
                  <path fill="none" stroke="white" stroke-width="1.5" d="M0,-3.0v7 M-2.5,-0.5L0,-3.0L2.5,-0.5"/>
                </g>
                <g id="arrowLeft" xlink:href="#dirArrow" transform="rotate(270) translate(-36 17)" onmousedown="handlePan(-1,0)">
                  <use xlink:href="#rim" fill="#404040">
                        <set attributeName="fill" to="#808080" begin="arrowLeft.mouseover" end="arrowLeft.mouseout"/>
                  </use>
                  <path fill="none" stroke="white" stroke-width="1.5" d="M0,-3.0v7 M-2.5,-0.5L0,-3.0L2.5,-0.5"/>
                </g>
        </g>
        <svg viewBox="0 0 15 15" width="100%" height="30px" preserveAspectRatio="xMaxYMin meet">
         <g id="arrow_out" transform="scale(0.3 0.3)">
          <a xlink:href="class_chimera_t_k_1_1_virtual_module_a00cabd2cb202e7dc2a2daba1a5db58bd_icgraph_org.svg" target="_base">
           <rect id="button" ry="5" rx="5" y="6" x="6" height="38" width="38"
                fill="#f2f5e9" fill-opacity="0.5" stroke="#606060" stroke-width="1.0"/>
           <path id="arrow"
             d="M 11.500037,31.436501 C 11.940474,20.09759 22.043105,11.32322 32.158766,21.979434 L 37.068811,17.246167 C 37.068811,17.246167 37.088388,32 37.088388,32 L 22.160133,31.978069 C 22.160133,31.978069 26.997745,27.140456 26.997745,27.140456 C 18.528582,18.264221 13.291696,25.230495 11.500037,31.436501 z"
             style="fill:#404040;"/>
          </a>
         </g>
        </svg>
</svg>
