<?xml version="1.0" encoding="UTF-8" standalone="no"?>
<!DOCTYPE svg PUBLIC "-//W3C//DTD SVG 1.1//EN"
 "http://www.w3.org/Graphics/SVG/1.1/DTD/svg11.dtd">
<!-- Generated by graphviz version 2.40.1 (20161225.0304)
 -->
<!-- Title: ChimeraTK::FunctorSetValues Pages: 1 -->
<svg width="2516pt" height="277pt"
 viewBox="0.00 0.00 2516.00 277.00" xmlns="http://www.w3.org/2000/svg" xmlns:xlink="http://www.w3.org/1999/xlink">
<g id="graph0" class="graph" transform="scale(1 1) rotate(0) translate(4 273)">
<title>ChimeraTK::FunctorSetValues</title>
<polygon fill="#ffffff" stroke="transparent" points="-4,4 -4,-273 2512,-273 2512,4 -4,4"/>
<!-- Node1 -->
<g id="node1" class="node">
<title>Node1</title>
<polygon fill="#bfbfbf" stroke="#000000" points="2348,-96.5 2348,-115.5 2508,-115.5 2508,-96.5 2348,-96.5"/>
<text text-anchor="middle" x="2428" y="-103.5" font-family="Helvetica,sans-Serif" font-size="10.00" fill="#000000">ChimeraTK::FunctorSetValues</text>
</g>
<!-- Node2 -->
<g id="node2" class="node">
<title>Node2</title>
<g id="a_node2"><a xlink:href="struct_chimera_t_k_1_1_config_reader.html" target="_top" xlink:title="Generic module to read an XML config file and provide the defined values as constant variables...">
<polygon fill="#ffffff" stroke="#000000" points="2132,-96.5 2132,-115.5 2273,-115.5 2273,-96.5 2132,-96.5"/>
<text text-anchor="middle" x="2202.5" y="-103.5" font-family="Helvetica,sans-Serif" font-size="10.00" fill="#000000">ChimeraTK::ConfigReader</text>
</a>
</g>
</g>
<!-- Node2&#45;&gt;Node1 -->
<g id="edge1" class="edge">
<title>Node2&#45;&gt;Node1</title>
<path fill="none" stroke="#9a32cd" stroke-dasharray="5,2" d="M2283.3592,-106C2304.2809,-106 2326.7988,-106 2347.6921,-106"/>
<polygon fill="#9a32cd" stroke="#9a32cd" points="2283.2309,-102.5001 2273.2309,-106 2283.2309,-109.5001 2283.2309,-102.5001"/>
<text text-anchor="middle" x="2310.5" y="-109" font-family="Helvetica,sans-Serif" font-size="10.00" fill="#000000"> _owner</text>
</g>
<!-- Node3 -->
<g id="node3" class="node">
<title>Node3</title>
<g id="a_node3"><a xlink:href="class_chimera_t_k_1_1_application_module.html" target="_top" xlink:title="ChimeraTK::ApplicationModule">
<polygon fill="#ffffff" stroke="#000000" points="1668,-96.5 1668,-115.5 1835,-115.5 1835,-96.5 1668,-96.5"/>
<text text-anchor="middle" x="1751.5" y="-103.5" font-family="Helvetica,sans-Serif" font-size="10.00" fill="#000000">ChimeraTK::ApplicationModule</text>
</a>
</g>
</g>
<!-- Node3&#45;&gt;Node2 -->
<g id="edge2" class="edge">
<title>Node3&#45;&gt;Node2</title>
<path fill="none" stroke="#191970" d="M1845.2088,-106C1930.4671,-106 2054.4509,-106 2131.6918,-106"/>
<polygon fill="#191970" stroke="#191970" points="1845.0092,-102.5001 1835.0092,-106 1845.0091,-109.5001 1845.0092,-102.5001"/>
</g>
<!-- Node4 -->
<g id="node4" class="node">
<title>Node4</title>
<g id="a_node4"><a xlink:href="class_chimera_t_k_1_1_variable_group.html" target="_top" xlink:title="ChimeraTK::VariableGroup">
<polygon fill="#ffffff" stroke="#000000" points="1387,-142.5 1387,-161.5 1533,-161.5 1533,-142.5 1387,-142.5"/>
<text text-anchor="middle" x="1460" y="-149.5" font-family="Helvetica,sans-Serif" font-size="10.00" fill="#000000">ChimeraTK::VariableGroup</text>
</a>
</g>
</g>
<!-- Node4&#45;&gt;Node3 -->
<g id="edge3" class="edge">
<title>Node4&#45;&gt;Node3</title>
<path fill="none" stroke="#191970" d="M1530.3196,-140.9033C1579.4607,-133.1486 1644.3943,-122.9018 1691.1784,-115.519"/>
<polygon fill="#191970" stroke="#191970" points="1529.7312,-137.4527 1520.399,-142.4688 1530.8224,-144.3671 1529.7312,-137.4527"/>
</g>
<!-- Node22 -->
<g id="node22" class="node">
<title>Node22</title>
<g id="a_node22"><a xlink:href="class_chimera_t_k_1_1_module_tree.html" target="_top" xlink:title="ChimeraTK::ModuleTree">
<polygon fill="#ffffff" stroke="#000000" points="1685.5,-146.5 1685.5,-165.5 1817.5,-165.5 1817.5,-146.5 1685.5,-146.5"/>
<text text-anchor="middle" x="1751.5" y="-153.5" font-family="Helvetica,sans-Serif" font-size="10.00" fill="#000000">ChimeraTK::ModuleTree</text>
</a>
</g>
</g>
<!-- Node4&#45;&gt;Node22 -->
<g id="edge28" class="edge">
<title>Node4&#45;&gt;Node22</title>
<path fill="none" stroke="#191970" d="M1543.2238,-153.142C1588.2713,-153.7602 1643.1515,-154.5132 1685.2666,-155.0911"/>
<polygon fill="#191970" stroke="#191970" points="1543.2286,-149.6418 1533.1815,-153.0042 1543.1325,-156.6412 1543.2286,-149.6418"/>
</g>
<!-- Node5 -->
<g id="node5" class="node">
<title>Node5</title>
<g id="a_node5"><a xlink:href="class_chimera_t_k_1_1_module.html" target="_top" xlink:title="Base class for ApplicationModule and DeviceModule, to have a common interface for these module types...">
<polygon fill="#ffffff" stroke="#000000" points="1044,-182.5 1044,-201.5 1156,-201.5 1156,-182.5 1044,-182.5"/>
<text text-anchor="middle" x="1100" y="-189.5" font-family="Helvetica,sans-Serif" font-size="10.00" fill="#000000">ChimeraTK::Module</text>
</a>
</g>
</g>
<!-- Node5&#45;&gt;Node4 -->
<g id="edge4" class="edge">
<title>Node5&#45;&gt;Node4</title>
<path fill="none" stroke="#191970" d="M1166.2952,-185.6494C1219.0823,-180.4703 1294.8309,-172.7655 1361,-165 1370.211,-163.919 1379.8959,-162.7221 1389.4543,-161.5049"/>
<polygon fill="#191970" stroke="#191970" points="1165.6655,-182.1942 1156.0536,-186.6508 1166.3467,-189.1609 1165.6655,-182.1942"/>
</g>
<!-- Node12 -->
<g id="node12" class="node">
<title>Node12</title>
<polygon fill="#ffffff" stroke="#bfbfbf" points="575,-199 575,-229 693,-229 693,-199 575,-199"/>
<text text-anchor="start" x="583" y="-217" font-family="Helvetica,sans-Serif" font-size="10.00" fill="#000000">std::list&lt; ChimeraTK</text>
<text text-anchor="middle" x="634" y="-206" font-family="Helvetica,sans-Serif" font-size="10.00" fill="#000000">::Module *&gt;</text>
</g>
<!-- Node5&#45;&gt;Node12 -->
<g id="edge13" class="edge">
<title>Node5&#45;&gt;Node12</title>
<path fill="none" stroke="#9a32cd" stroke-dasharray="5,2" d="M1033.4271,-195.1429C942.2747,-199.4463 780.0375,-207.1055 693.0192,-211.2137"/>
<polygon fill="#9a32cd" stroke="#9a32cd" points="1033.8171,-198.6285 1043.6409,-194.6607 1033.487,-191.6363 1033.8171,-198.6285"/>
<text text-anchor="middle" x="879" y="-208" font-family="Helvetica,sans-Serif" font-size="10.00" fill="#000000"> elements</text>
</g>
<!-- Node6 -->
<g id="node6" class="node">
<title>Node6</title>
<g id="a_node6"><a xlink:href="class_chimera_t_k_1_1_entity_owner.html" target="_top" xlink:title="Base class for owners of other EntityOwners (e.g. ">
<polygon fill="#ffffff" stroke="#000000" points="810.5,-145.5 810.5,-164.5 947.5,-164.5 947.5,-145.5 810.5,-145.5"/>
<text text-anchor="middle" x="879" y="-152.5" font-family="Helvetica,sans-Serif" font-size="10.00" fill="#000000">ChimeraTK::EntityOwner</text>
</a>
</g>
</g>
<!-- Node6&#45;&gt;Node5 -->
<g id="edge5" class="edge">
<title>Node6&#45;&gt;Node5</title>
<path fill="none" stroke="#191970" d="M958.1206,-162.1098C974.0285,-163.992 990.5899,-166.2773 1006,-169 1011.7079,-170.0085 1038.5773,-176.6132 1062.1348,-182.4877"/>
<polygon fill="#191970" stroke="#191970" points="958.1121,-158.5863 947.7799,-160.9307 957.319,-165.5412 958.1121,-158.5863"/>
</g>
<!-- Node6&#45;&gt;Node5 -->
<g id="edge19" class="edge">
<title>Node6&#45;&gt;Node5</title>
<path fill="none" stroke="#9a32cd" stroke-dasharray="5,2" d="M945.8439,-166.1911C977.0804,-171.4207 1013.8628,-177.5788 1043.6628,-182.568"/>
<polygon fill="#9a32cd" stroke="#9a32cd" points="946.3537,-162.7278 935.913,-164.5284 945.1978,-169.6317 946.3537,-162.7278"/>
<text text-anchor="middle" x="986.5" y="-178" font-family="Helvetica,sans-Serif" font-size="10.00" fill="#000000"> _owner</text>
</g>
<!-- Node7 -->
<g id="node7" class="node">
<title>Node7</title>
<g id="a_node7"><a xlink:title="STL class. ">
<polygon fill="#ffffff" stroke="#bfbfbf" points="248,-34.5 248,-53.5 313,-53.5 313,-34.5 248,-34.5"/>
<text text-anchor="middle" x="280.5" y="-41.5" font-family="Helvetica,sans-Serif" font-size="10.00" fill="#000000">std::string</text>
</a>
</g>
</g>
<!-- Node7&#45;&gt;Node2 -->
<g id="edge25" class="edge">
<title>Node7&#45;&gt;Node2</title>
<path fill="none" stroke="#9a32cd" stroke-dasharray="5,2" d="M323.5475,-35.1489C389.8967,-22.3002 521.2873,0 634,0 634,0 634,0 1959,0 2054.9008,0 2155.7109,-69.9766 2190.1431,-96.2178"/>
<polygon fill="#9a32cd" stroke="#9a32cd" points="322.6097,-31.766 313.4701,-37.125 323.9568,-38.6352 322.6097,-31.766"/>
<text text-anchor="middle" x="1277.5" y="-3" font-family="Helvetica,sans-Serif" font-size="10.00" fill="#000000"> _fileName</text>
</g>
<!-- Node7&#45;&gt;Node6 -->
<g id="edge6" class="edge">
<title>Node7&#45;&gt;Node6</title>
<path fill="none" stroke="#9a32cd" stroke-dasharray="5,2" d="M323.2575,-49.838C415.6765,-62.5583 631.5515,-92.847 704,-108 754.8073,-118.6266 812.8194,-135.0796 847.6425,-145.4339"/>
<polygon fill="#9a32cd" stroke="#9a32cd" points="323.5209,-46.3414 313.1375,-48.4474 322.568,-53.2762 323.5209,-46.3414"/>
<text text-anchor="middle" x="634" y="-122" font-family="Helvetica,sans-Serif" font-size="10.00" fill="#000000"> _description</text>
<text text-anchor="middle" x="634" y="-111" font-family="Helvetica,sans-Serif" font-size="10.00" fill="#000000">_name</text>
</g>
<!-- Node9 -->
<g id="node9" class="node">
<title>Node9</title>
<polygon fill="#ffffff" stroke="#bfbfbf" points="580.5,-29 580.5,-59 687.5,-59 687.5,-29 580.5,-29"/>
<text text-anchor="start" x="588.5" y="-47" font-family="Helvetica,sans-Serif" font-size="10.00" fill="#000000">std::unordered_set</text>
<text text-anchor="middle" x="634" y="-36" font-family="Helvetica,sans-Serif" font-size="10.00" fill="#000000">&lt; std::string &gt;</text>
</g>
<!-- Node7&#45;&gt;Node9 -->
<g id="edge9" class="edge">
<title>Node7&#45;&gt;Node9</title>
<path fill="none" stroke="#9a32cd" stroke-dasharray="5,2" d="M323.349,-44C387.8961,-44 509.9893,-44 580.359,-44"/>
<polygon fill="#9a32cd" stroke="#9a32cd" points="323.1228,-40.5001 313.1228,-44 323.1228,-47.5001 323.1228,-40.5001"/>
<text text-anchor="middle" x="468" y="-47" font-family="Helvetica,sans-Serif" font-size="10.00" fill="#000000"> keys</text>
</g>
<!-- Node8 -->
<g id="node8" class="node">
<title>Node8</title>
<g id="a_node8"><a xlink:title="STL class. ">
<polygon fill="#ffffff" stroke="#bfbfbf" points="0,-29 0,-59 104,-59 104,-29 0,-29"/>
<text text-anchor="start" x="8" y="-47" font-family="Helvetica,sans-Serif" font-size="10.00" fill="#000000">std::basic_string&lt;</text>
<text text-anchor="middle" x="52" y="-36" font-family="Helvetica,sans-Serif" font-size="10.00" fill="#000000"> char &gt;</text>
</a>
</g>
</g>
<!-- Node8&#45;&gt;Node7 -->
<g id="edge7" class="edge">
<title>Node8&#45;&gt;Node7</title>
<path fill="none" stroke="#191970" d="M114.2681,-44C157.479,-44 213.2982,-44 247.9966,-44"/>
<polygon fill="#191970" stroke="#191970" points="114.1361,-40.5001 104.1361,-44 114.1361,-47.5001 114.1361,-40.5001"/>
</g>
<!-- Node9&#45;&gt;Node6 -->
<g id="edge8" class="edge">
<title>Node9&#45;&gt;Node6</title>
<path fill="none" stroke="#9a32cd" stroke-dasharray="5,2" d="M697.7046,-40.1313C729.2285,-41.5853 765.8201,-48.8042 791,-71 811.5659,-89.1287 790.0743,-110.1651 809,-130 815.5031,-136.8156 823.9894,-141.777 832.7991,-145.3875"/>
<polygon fill="#9a32cd" stroke="#9a32cd" points="697.7627,-36.6317 687.6685,-39.8502 697.5666,-43.6289 697.7627,-36.6317"/>
<text text-anchor="middle" x="756.5" y="-74" font-family="Helvetica,sans-Serif" font-size="10.00" fill="#000000"> _tags</text>
</g>
<!-- Node10 -->
<g id="node10" class="node">
<title>Node10</title>
<g id="a_node10"><a xlink:title="STL class. ">
<polygon fill="#ffffff" stroke="#bfbfbf" points="212,-105.5 212,-124.5 349,-124.5 349,-105.5 212,-105.5"/>
<text text-anchor="middle" x="280.5" y="-112.5" font-family="Helvetica,sans-Serif" font-size="10.00" fill="#000000">std::unordered_set&lt; K &gt;</text>
</a>
</g>
</g>
<!-- Node10&#45;&gt;Node9 -->
<g id="edge10" class="edge">
<title>Node10&#45;&gt;Node9</title>
<path fill="none" stroke="#ffa500" stroke-dasharray="5,2" d="M337.7765,-103.4961C404.7953,-90.0354 514.9011,-67.9209 580.3278,-54.78"/>
<polygon fill="#ffa500" stroke="#ffa500" points="336.9228,-100.0976 327.8078,-105.4983 338.3012,-106.9605 336.9228,-100.0976"/>
<text text-anchor="middle" x="468" y="-95" font-family="Helvetica,sans-Serif" font-size="10.00" fill="#000000"> &lt; std::string &gt;</text>
</g>
<!-- Node11 -->
<g id="node11" class="node">
<title>Node11</title>
<polygon fill="#ffffff" stroke="#bfbfbf" points="37.5,-105.5 37.5,-124.5 66.5,-124.5 66.5,-105.5 37.5,-105.5"/>
<text text-anchor="middle" x="52" y="-112.5" font-family="Helvetica,sans-Serif" font-size="10.00" fill="#000000">K</text>
</g>
<!-- Node11&#45;&gt;Node10 -->
<g id="edge11" class="edge">
<title>Node11&#45;&gt;Node10</title>
<path fill="none" stroke="#9a32cd" stroke-dasharray="5,2" d="M76.9081,-115C109.0614,-115 166.2957,-115 211.9086,-115"/>
<polygon fill="#9a32cd" stroke="#9a32cd" points="76.6413,-111.5001 66.6413,-115 76.6413,-118.5001 76.6413,-111.5001"/>
<text text-anchor="middle" x="146.5" y="-118" font-family="Helvetica,sans-Serif" font-size="10.00" fill="#000000"> keys</text>
</g>
<!-- Node12&#45;&gt;Node6 -->
<g id="edge12" class="edge">
<title>Node12&#45;&gt;Node6</title>
<path fill="none" stroke="#9a32cd" stroke-dasharray="5,2" d="M694.7999,-196.1843C703.8921,-193.678 713.1742,-191.207 722,-189 758.3899,-179.9004 799.8796,-170.9773 831.0653,-164.557"/>
<polygon fill="#9a32cd" stroke="#9a32cd" points="693.7309,-192.8488 685.039,-198.907 695.6118,-199.5914 693.7309,-192.8488"/>
<text text-anchor="middle" x="756.5" y="-192" font-family="Helvetica,sans-Serif" font-size="10.00" fill="#000000"> _moduleList</text>
</g>
<!-- Node13 -->
<g id="node13" class="node">
<title>Node13</title>
<g id="a_node13"><a xlink:title="STL class. ">
<polygon fill="#ffffff" stroke="#bfbfbf" points="240,-210.5 240,-229.5 321,-229.5 321,-210.5 240,-210.5"/>
<text text-anchor="middle" x="280.5" y="-217.5" font-family="Helvetica,sans-Serif" font-size="10.00" fill="#000000">std::list&lt; T &gt;</text>
</a>
</g>
</g>
<!-- Node13&#45;&gt;Node12 -->
<g id="edge14" class="edge">
<title>Node13&#45;&gt;Node12</title>
<path fill="none" stroke="#ffa500" stroke-dasharray="5,2" d="M331.3686,-219.1366C395.8241,-218.0426 506.7079,-216.1605 574.8663,-215.0037"/>
<polygon fill="#ffa500" stroke="#ffa500" points="330.9901,-215.6424 321.0509,-219.3117 331.1089,-222.6414 330.9901,-215.6424"/>
<text text-anchor="middle" x="468" y="-221" font-family="Helvetica,sans-Serif" font-size="10.00" fill="#000000"> &lt; ChimeraTK::Module *&gt;</text>
</g>
<!-- Node15 -->
<g id="node15" class="node">
<title>Node15</title>
<polygon fill="#ffffff" stroke="#bfbfbf" points="564,-139 564,-169 704,-169 704,-139 564,-139"/>
<text text-anchor="start" x="572" y="-157" font-family="Helvetica,sans-Serif" font-size="10.00" fill="#000000">std::list&lt; ChimeraTK</text>
<text text-anchor="middle" x="634" y="-146" font-family="Helvetica,sans-Serif" font-size="10.00" fill="#000000">::VariableNetworkNode &gt;</text>
</g>
<!-- Node13&#45;&gt;Node15 -->
<g id="edge18" class="edge">
<title>Node13&#45;&gt;Node15</title>
<path fill="none" stroke="#ffa500" stroke-dasharray="5,2" d="M319.7,-207.53C340.4339,-201.2842 366.4152,-194.0067 390,-189 422.1813,-182.1684 503.719,-170.9181 563.7196,-163.0209"/>
<polygon fill="#ffa500" stroke="#ffa500" points="318.5187,-204.2311 309.9766,-210.4987 320.5628,-210.926 318.5187,-204.2311"/>
<text text-anchor="start" x="390" y="-203" font-family="Helvetica,sans-Serif" font-size="10.00" fill="#000000"> &lt; ChimeraTK::VariableNetwork</text>
<text text-anchor="middle" x="468" y="-192" font-family="Helvetica,sans-Serif" font-size="10.00" fill="#000000">Node &gt;</text>
</g>
<!-- Node14 -->
<g id="node14" class="node">
<title>Node14</title>
<polygon fill="#ffffff" stroke="#bfbfbf" points="37.5,-231.5 37.5,-250.5 66.5,-250.5 66.5,-231.5 37.5,-231.5"/>
<text text-anchor="middle" x="52" y="-238.5" font-family="Helvetica,sans-Serif" font-size="10.00" fill="#000000">T</text>
</g>
<!-- Node14&#45;&gt;Node13 -->
<g id="edge15" class="edge">
<title>Node14&#45;&gt;Node13</title>
<path fill="none" stroke="#9a32cd" stroke-dasharray="5,2" d="M76.4495,-234.1908C89.7981,-230.7835 106.6831,-226.9733 122,-225 161.8659,-219.8641 207.8129,-218.9601 239.9381,-219.1314"/>
<polygon fill="#9a32cd" stroke="#9a32cd" points="75.3735,-230.855 66.5999,-236.7942 77.1623,-237.6226 75.3735,-230.855"/>
<text text-anchor="middle" x="146.5" y="-228" font-family="Helvetica,sans-Serif" font-size="10.00" fill="#000000"> elements</text>
</g>
<!-- Node23 -->
<g id="node23" class="node">
<title>Node23</title>
<g id="a_node23"><a xlink:title="STL class. ">
<polygon fill="#ffffff" stroke="#bfbfbf" points="409,-248.5 409,-267.5 527,-267.5 527,-248.5 409,-248.5"/>
<text text-anchor="middle" x="468" y="-255.5" font-family="Helvetica,sans-Serif" font-size="10.00" fill="#000000">std::unique_ptr&lt; T &gt;</text>
</a>
</g>
</g>
<!-- Node14&#45;&gt;Node23 -->
<g id="edge30" class="edge">
<title>Node14&#45;&gt;Node23</title>
<path fill="none" stroke="#9a32cd" stroke-dasharray="5,2" d="M76.8908,-242.0172C141.5866,-244.661 316.4174,-251.8055 408.8564,-255.5831"/>
<polygon fill="#9a32cd" stroke="#9a32cd" points="76.9403,-238.5164 66.8057,-241.605 76.6544,-245.5105 76.9403,-238.5164"/>
<text text-anchor="middle" x="146.5" y="-248" font-family="Helvetica,sans-Serif" font-size="10.00" fill="#000000"> ptr</text>
</g>
<!-- Node15&#45;&gt;Node6 -->
<g id="edge16" class="edge">
<title>Node15&#45;&gt;Node6</title>
<path fill="none" stroke="#9a32cd" stroke-dasharray="5,2" d="M714.5584,-154.3288C745.5827,-154.4554 780.6888,-154.5987 810.4739,-154.7203"/>
<polygon fill="#9a32cd" stroke="#9a32cd" points="714.2214,-150.8275 704.2072,-154.2866 714.1928,-157.8274 714.2214,-150.8275"/>
<text text-anchor="middle" x="756.5" y="-157" font-family="Helvetica,sans-Serif" font-size="10.00" fill="#000000"> _accessorList</text>
</g>
<!-- Node16 -->
<g id="node16" class="node">
<title>Node16</title>
<g id="a_node16"><a xlink:href="class_chimera_t_k_1_1_variable_network_node.html" target="_top" xlink:title="Class describing a node of a variable network. ">
<polygon fill="#ffffff" stroke="#000000" points="189,-143.5 189,-162.5 372,-162.5 372,-143.5 189,-143.5"/>
<text text-anchor="middle" x="280.5" y="-150.5" font-family="Helvetica,sans-Serif" font-size="10.00" fill="#000000">ChimeraTK::VariableNetworkNode</text>
</a>
</g>
</g>
<!-- Node16&#45;&gt;Node15 -->
<g id="edge17" class="edge">
<title>Node16&#45;&gt;Node15</title>
<path fill="none" stroke="#9a32cd" stroke-dasharray="5,2" d="M382.7792,-153.2893C440.9251,-153.4538 512.2298,-153.6555 563.9989,-153.802"/>
<polygon fill="#9a32cd" stroke="#9a32cd" points="382.4651,-149.7885 372.4552,-153.2601 382.4452,-156.7885 382.4651,-149.7885"/>
<text text-anchor="middle" x="468" y="-156" font-family="Helvetica,sans-Serif" font-size="10.00" fill="#000000"> elements</text>
</g>
<!-- Node17 -->
<g id="node17" class="node">
<title>Node17</title>
<g id="a_node17"><a xlink:href="class_chimera_t_k_1_1_model_1_1_variable_group_proxy.html" target="_top" xlink:title="ChimeraTK::Model::Variable\lGroupProxy">
<polygon fill="#ffffff" stroke="#000000" points="1024,-133 1024,-163 1176,-163 1176,-133 1024,-133"/>
<text text-anchor="start" x="1032" y="-151" font-family="Helvetica,sans-Serif" font-size="10.00" fill="#000000">ChimeraTK::Model::Variable</text>
<text text-anchor="middle" x="1100" y="-140" font-family="Helvetica,sans-Serif" font-size="10.00" fill="#000000">GroupProxy</text>
</a>
</g>
</g>
<!-- Node17&#45;&gt;Node4 -->
<g id="edge20" class="edge">
<title>Node17&#45;&gt;Node4</title>
<path fill="none" stroke="#9a32cd" stroke-dasharray="5,2" d="M1186.3762,-148.9597C1247.5879,-149.6399 1328.8164,-150.5424 1386.8368,-151.1871"/>
<polygon fill="#9a32cd" stroke="#9a32cd" points="1186.385,-145.4597 1176.3467,-148.8483 1186.3072,-152.4593 1186.385,-145.4597"/>
<text text-anchor="middle" x="1277.5" y="-153" font-family="Helvetica,sans-Serif" font-size="10.00" fill="#000000"> _model</text>
</g>
<!-- Node18 -->
<g id="node18" class="node">
<title>Node18</title>
<g id="a_node18"><a xlink:href="class_chimera_t_k_1_1_model_1_1_proxy.html" target="_top" xlink:title="Base class for the proxies representing objects in the model. ">
<polygon fill="#ffffff" stroke="#000000" points="809,-101.5 809,-120.5 949,-120.5 949,-101.5 809,-101.5"/>
<text text-anchor="middle" x="879" y="-108.5" font-family="Helvetica,sans-Serif" font-size="10.00" fill="#000000">ChimeraTK::Model::Proxy</text>
</a>
</g>
</g>
<!-- Node18&#45;&gt;Node17 -->
<g id="edge21" class="edge">
<title>Node18&#45;&gt;Node17</title>
<path fill="none" stroke="#191970" d="M945.8502,-122.1921C970.4023,-126.3027 998.3801,-130.9867 1023.7002,-135.2258"/>
<polygon fill="#191970" stroke="#191970" points="946.3537,-118.7278 935.913,-120.5284 945.1978,-125.6317 946.3537,-118.7278"/>
</g>
<!-- Node20 -->
<g id="node20" class="node">
<title>Node20</title>
<g id="a_node20"><a xlink:href="class_chimera_t_k_1_1_model_1_1_application_module_proxy.html" target="_top" xlink:title="ChimeraTK::Model::Application\lModuleProxy">
<polygon fill="#ffffff" stroke="#000000" points="1194,-90 1194,-120 1361,-120 1361,-90 1194,-90"/>
<text text-anchor="start" x="1202" y="-108" font-family="Helvetica,sans-Serif" font-size="10.00" fill="#000000">ChimeraTK::Model::Application</text>
<text text-anchor="middle" x="1277.5" y="-97" font-family="Helvetica,sans-Serif" font-size="10.00" fill="#000000">ModuleProxy</text>
</a>
</g>
</g>
<!-- Node18&#45;&gt;Node20 -->
<g id="edge24" class="edge">
<title>Node18&#45;&gt;Node20</title>
<path fill="none" stroke="#191970" d="M959.571,-109.7869C1027.6343,-108.7621 1124.767,-107.2996 1193.7232,-106.2614"/>
<polygon fill="#191970" stroke="#191970" points="959.2726,-106.2909 949.3265,-109.9411 959.3781,-113.2901 959.2726,-106.2909"/>
</g>
<!-- Node19 -->
<g id="node19" class="node">
<title>Node19</title>
<g id="a_node19"><a xlink:title="A helper class do stop the recursion when scanning for circular dependency networks. ">
<polygon fill="#ffffff" stroke="#bfbfbf" points="1379,-28.5 1379,-69.5 1541,-69.5 1541,-28.5 1379,-28.5"/>
<text text-anchor="start" x="1387" y="-57.5" font-family="Helvetica,sans-Serif" font-size="10.00" fill="#000000">ChimeraTK::detail::</text>
<text text-anchor="start" x="1387" y="-46.5" font-family="Helvetica,sans-Serif" font-size="10.00" fill="#000000">CircularDependencyDetection</text>
<text text-anchor="middle" x="1460" y="-35.5" font-family="Helvetica,sans-Serif" font-size="10.00" fill="#000000">RecursionStopper</text>
</a>
</g>
</g>
<!-- Node19&#45;&gt;Node3 -->
<g id="edge22" class="edge">
<title>Node19&#45;&gt;Node3</title>
<path fill="none" stroke="#9a32cd" stroke-dasharray="5,2" d="M1551.1955,-62.9414C1582.6011,-68.118 1617.9306,-74.3596 1650,-81 1671.8586,-85.5261 1696.1437,-91.4741 1715.4776,-96.4329"/>
<polygon fill="#9a32cd" stroke="#9a32cd" points="1551.5795,-59.4578 1541.1459,-61.299 1550.4504,-66.3662 1551.5795,-59.4578"/>
<text text-anchor="middle" x="1604.5" y="-84" font-family="Helvetica,sans-Serif" font-size="10.00" fill="#000000"> _recursionStopper</text>
</g>
<!-- Node20&#45;&gt;Node3 -->
<g id="edge23" class="edge">
<title>Node20&#45;&gt;Node3</title>
<path fill="none" stroke="#9a32cd" stroke-dasharray="5,2" d="M1371.2217,-105.1977C1457.665,-105.3801 1584.8175,-105.6483 1667.8898,-105.8236"/>
<polygon fill="#9a32cd" stroke="#9a32cd" points="1371.158,-101.6977 1361.1506,-105.1765 1371.1431,-108.6977 1371.158,-101.6977"/>
<text text-anchor="middle" x="1460" y="-108" font-family="Helvetica,sans-Serif" font-size="10.00" fill="#000000"> _model</text>
</g>
<!-- Node21 -->
<g id="node21" class="node">
<title>Node21</title>
<polygon fill="#ffffff" stroke="#bfbfbf" points="1888,-141 1888,-171 2030,-171 2030,-141 1888,-141"/>
<text text-anchor="start" x="1896" y="-159" font-family="Helvetica,sans-Serif" font-size="10.00" fill="#000000">std::unique_ptr&lt; Chimera</text>
<text text-anchor="middle" x="1959" y="-148" font-family="Helvetica,sans-Serif" font-size="10.00" fill="#000000">TK::ModuleTree &gt;</text>
</g>
<!-- Node21&#45;&gt;Node2 -->
<g id="edge26" class="edge">
<title>Node21&#45;&gt;Node2</title>
<path fill="none" stroke="#9a32cd" stroke-dasharray="5,2" d="M2040.2401,-139.3183C2078.713,-131.4183 2123.277,-122.2676 2155.9569,-115.5571"/>
<polygon fill="#9a32cd" stroke="#9a32cd" points="2039.1765,-135.9636 2030.0849,-141.4035 2040.5845,-142.8205 2039.1765,-135.9636"/>
<text text-anchor="middle" x="2081" y="-139" font-family="Helvetica,sans-Serif" font-size="10.00" fill="#000000"> _moduleTree</text>
</g>
<!-- Node22&#45;&gt;Node21 -->
<g id="edge27" class="edge">
<title>Node22&#45;&gt;Node21</title>
<path fill="none" stroke="#9a32cd" stroke-dasharray="5,2" d="M1827.8148,-156C1847.3853,-156 1868.359,-156 1887.6674,-156"/>
<polygon fill="#9a32cd" stroke="#9a32cd" points="1827.7248,-152.5001 1817.7248,-156 1827.7248,-159.5001 1827.7248,-152.5001"/>
<text text-anchor="middle" x="1861.5" y="-159" font-family="Helvetica,sans-Serif" font-size="10.00" fill="#000000"> ptr</text>
</g>
<!-- Node23&#45;&gt;Node21 -->
<g id="edge29" class="edge">
<title>Node23&#45;&gt;Node21</title>
<path fill="none" stroke="#ffa500" stroke-dasharray="5,2" d="M537.3431,-258C595.7825,-258 681.609,-258 756.5,-258 756.5,-258 756.5,-258 1751.5,-258 1829.3744,-258 1908.3835,-199.4235 1942.0858,-171.0505"/>
<polygon fill="#ffa500" stroke="#ffa500" points="537.1213,-254.5001 527.1213,-258 537.1212,-261.5001 537.1213,-254.5001"/>
<text text-anchor="middle" x="1100" y="-261" font-family="Helvetica,sans-Serif" font-size="10.00" fill="#000000"> &lt; ChimeraTK::ModuleTree &gt;</text>
</g>
</g>
</svg>
