<?xml version="1.0" encoding="UTF-8" standalone="no"?>
<!DOCTYPE svg PUBLIC "-//W3C//DTD SVG 1.1//EN"
 "http://www.w3.org/Graphics/SVG/1.1/DTD/svg11.dtd">
<!-- Generated by graphviz version 2.43.0 (0)
 -->
<!-- Title: ChimeraTK::ArrayFunctorFill Pages: 1 -->
<!--zoomable 552 -->
<svg id="main" version="1.1" xmlns="http://www.w3.org/2000/svg" xmlns:xlink="http://www.w3.org/1999/xlink" xml:space="preserve" onload="init(evt)">
<style type="text/css"><![CDATA[
.edge:hover path { stroke: red; }
.edge:hover polygon { stroke: red; fill: red; }
]]></style>
<script type="text/javascript"><![CDATA[
var edges = document.getElementsByTagName('g');
if (edges && edges.length) {
  for (var i=0;i<edges.length;i++) {
    if (edges[i].id.substr(0,4)=='edge') {
      edges[i].setAttribute('class','edge');
    }
  }
}
]]></script>
        <defs>
                <circle id="rim" cx="0" cy="0" r="7"/>
                <circle id="rim2" cx="0" cy="0" r="3.5"/>
                <g id="zoomPlus">
                        <use xlink:href="#rim" fill="#404040">
                                <set attributeName="fill" to="#808080" begin="zoomplus.mouseover" end="zoomplus.mouseout"/>
                        </use>
                        <path d="M-4,0h8M0,-4v8" fill="none" stroke="white" stroke-width="1.5" pointer-events="none"/>
                </g>
                <g id="zoomMin">
                        <use xlink:href="#rim" fill="#404040">
                                <set attributeName="fill" to="#808080" begin="zoomminus.mouseover" end="zoomminus.mouseout"/>
                        </use>
                        <path d="M-4,0h8" fill="none" stroke="white" stroke-width="1.5" pointer-events="none"/>
                </g>
                <g id="dirArrow">
                        <path fill="none" stroke="white" stroke-width="1.5" d="M0,-3.0v7 M-2.5,-0.5L0,-3.0L2.5,-0.5"/>
                </g>
               <g id="resetDef">
                       <use xlink:href="#rim2" fill="#404040">
                               <set attributeName="fill" to="#808080" begin="reset.mouseover" end="reset.mouseout"/>
                       </use>
               </g>
        </defs>

<script type="text/javascript">
var viewWidth = 2428;
var viewHeight = 552;
var sectionId = 'dynsection-0';
</script>
<script xlink:href="svgpan.js"/>
<svg id="graph" class="graph">
<g id="viewport">
<title>ChimeraTK::ArrayFunctorFill</title>
<polygon fill="white" stroke="transparent" points="-4,4 -4,-547.82 2424,-547.82 2424,4 -4,4"/>
<!-- Node1 -->
<g id="node1" class="node">
<title>Node1</title>
<g id="a_node1"><a xlink:title="Functor to fill variableMap for arrays.">
<polygon fill="#bfbfbf" stroke="black" points="2267,-59.82 2267,-78.82 2420,-78.82 2420,-59.82 2267,-59.82"/>
<text text-anchor="middle" x="2343.5" y="-66.82" font-family="Helvetica,sans-Serif" font-size="10.00">ChimeraTK::ArrayFunctorFill</text>
</a>
</g>
</g>
<!-- Node2 -->
<g id="node2" class="node">
<title>Node2</title>
<g id="a_node2"><a xlink:title=" ">
<polygon fill="white" stroke="#bfbfbf" points="587.5,-10.32 587.5,-40.32 707.5,-40.32 707.5,-10.32 587.5,-10.32"/>
<text text-anchor="start" x="595.5" y="-28.32" font-family="Helvetica,sans-Serif" font-size="10.00">std::map&lt; size_t, std</text>
<text text-anchor="middle" x="647.5" y="-17.32" font-family="Helvetica,sans-Serif" font-size="10.00">::string &gt;</text>
</a>
</g>
</g>
<!-- Node2&#45;&gt;Node1 -->
<g id="edge1" class="edge">
<title>Node2&#45;&gt;Node1</title>
<path fill="none" stroke="#9a32cd" stroke-dasharray="5,2" d="M717.71,-26.38C780.43,-27.24 875.41,-28.32 958,-28.32 958,-28.32 958,-28.32 2127,-28.32 2194.03,-28.32 2270.75,-47.7 2312.16,-59.81"/>
<polygon fill="#9a32cd" stroke="#9a32cd" points="717.59,-22.87 707.54,-26.23 717.49,-29.87 717.59,-22.87"/>
<text text-anchor="middle" x="1643" y="-31.32" font-family="Helvetica,sans-Serif" font-size="10.00"> values</text>
</g>
<!-- Node3 -->
<g id="node3" class="node">
<title>Node3</title>
<g id="a_node3"><a xlink:title=" ">
<polygon fill="white" stroke="#bfbfbf" points="248,-100.82 248,-119.82 313,-119.82 313,-100.82 248,-100.82"/>
<text text-anchor="middle" x="280.5" y="-107.82" font-family="Helvetica,sans-Serif" font-size="10.00">std::string</text>
</a>
</g>
</g>
<!-- Node3&#45;&gt;Node1 -->
<g id="edge7" class="edge">
<title>Node3&#45;&gt;Node1</title>
<path fill="none" stroke="#9a32cd" stroke-dasharray="5,2" d="M323.35,-102.54C391.01,-90.65 528.77,-69.32 646.5,-69.32 646.5,-69.32 646.5,-69.32 2127,-69.32 2173.39,-69.32 2225.4,-69.32 2266.7,-69.32"/>
<polygon fill="#9a32cd" stroke="#9a32cd" points="322.33,-99.16 313.1,-104.36 323.56,-106.05 322.33,-99.16"/>
<text text-anchor="middle" x="1460.5" y="-83.32" font-family="Helvetica,sans-Serif" font-size="10.00"> name</text>
<text text-anchor="middle" x="1460.5" y="-72.32" font-family="Helvetica,sans-Serif" font-size="10.00">type</text>
</g>
<!-- Node3&#45;&gt;Node2 -->
<g id="edge2" class="edge">
<title>Node3&#45;&gt;Node2</title>
<path fill="none" stroke="#9a32cd" stroke-dasharray="5,2" d="M323.44,-109.97C340.19,-107.83 358.65,-102.71 372,-91.32 389.02,-76.81 372.05,-57.67 390,-44.32 420.14,-21.9 521.46,-20.75 587.37,-22.59"/>
<polygon fill="#9a32cd" stroke="#9a32cd" points="322.9,-106.51 313.28,-110.94 323.57,-113.47 322.9,-106.51"/>
<text text-anchor="middle" x="468" y="-47.32" font-family="Helvetica,sans-Serif" font-size="10.00"> elements</text>
</g>
<!-- Node8 -->
<g id="node8" class="node">
<title>Node8</title>
<g id="a_node8"><a xlink:href="struct_chimera_t_k_1_1_config_reader.html" target="_top" xlink:title="Generic module to read an XML config file and provide the defined values as constant variables.">
<polygon fill="white" stroke="black" points="2055,-164.82 2055,-183.82 2197,-183.82 2197,-164.82 2055,-164.82"/>
<text text-anchor="middle" x="2126" y="-171.82" font-family="Helvetica,sans-Serif" font-size="10.00">ChimeraTK::ConfigReader</text>
</a>
</g>
</g>
<!-- Node3&#45;&gt;Node8 -->
<g id="edge41" class="edge">
<title>Node3&#45;&gt;Node8</title>
<path fill="none" stroke="#9a32cd" stroke-dasharray="5,2" d="M323.69,-110.63C476.45,-111.72 1015.12,-115.32 1459.5,-115.32 1459.5,-115.32 1459.5,-115.32 1935.5,-115.32 2001.14,-115.32 2074.02,-147.99 2107.02,-164.71"/>
<polygon fill="#9a32cd" stroke="#9a32cd" points="323.39,-107.13 313.36,-110.56 323.34,-114.13 323.39,-107.13"/>
<text text-anchor="middle" x="1283" y="-117.32" font-family="Helvetica,sans-Serif" font-size="10.00"> _fileName</text>
</g>
<!-- Node12 -->
<g id="node12" class="node">
<title>Node12</title>
<g id="a_node12"><a xlink:href="class_chimera_t_k_1_1_entity_owner.html" target="_top" xlink:title="Base class for owners of other EntityOwners (e.g.">
<polygon fill="white" stroke="black" points="890.5,-286.82 890.5,-305.82 1027.5,-305.82 1027.5,-286.82 890.5,-286.82"/>
<text text-anchor="middle" x="959" y="-293.82" font-family="Helvetica,sans-Serif" font-size="10.00">ChimeraTK::EntityOwner</text>
</a>
</g>
</g>
<!-- Node3&#45;&gt;Node12 -->
<g id="edge18" class="edge">
<title>Node3&#45;&gt;Node12</title>
<path fill="none" stroke="#9a32cd" stroke-dasharray="5,2" d="M323.43,-114.86C431.35,-126.58 711.61,-157.41 731,-163.32 821.43,-190.92 914.04,-260.84 946.17,-286.6"/>
<polygon fill="#9a32cd" stroke="#9a32cd" points="323.56,-111.35 313.24,-113.75 322.81,-118.31 323.56,-111.35"/>
<text text-anchor="middle" x="647.5" y="-177.32" font-family="Helvetica,sans-Serif" font-size="10.00"> _description</text>
<text text-anchor="middle" x="647.5" y="-166.32" font-family="Helvetica,sans-Serif" font-size="10.00">_name</text>
</g>
<!-- Node17 -->
<g id="node17" class="node">
<title>Node17</title>
<g id="a_node17"><a xlink:title=" ">
<polygon fill="white" stroke="#bfbfbf" points="594,-194.32 594,-224.32 701,-224.32 701,-194.32 594,-194.32"/>
<text text-anchor="start" x="602" y="-212.32" font-family="Helvetica,sans-Serif" font-size="10.00">std::unordered_set</text>
<text text-anchor="middle" x="647.5" y="-201.32" font-family="Helvetica,sans-Serif" font-size="10.00">&lt; std::string &gt;</text>
</a>
</g>
</g>
<!-- Node3&#45;&gt;Node17 -->
<g id="edge20" class="edge">
<title>Node3&#45;&gt;Node17</title>
<path fill="none" stroke="#9a32cd" stroke-dasharray="5,2" d="M306.23,-124.86C327.7,-136.88 359.97,-153.51 390,-163.32 427.04,-175.43 530.36,-192.07 594,-201.66"/>
<polygon fill="#9a32cd" stroke="#9a32cd" points="307.87,-121.77 297.45,-119.87 304.41,-127.86 307.87,-121.77"/>
<text text-anchor="middle" x="468" y="-196.32" font-family="Helvetica,sans-Serif" font-size="10.00"> keys</text>
</g>
<!-- Node4 -->
<g id="node4" class="node">
<title>Node4</title>
<g id="a_node4"><a xlink:title=" ">
<polygon fill="white" stroke="#bfbfbf" points="0,-95.32 0,-125.32 104,-125.32 104,-95.32 0,-95.32"/>
<text text-anchor="start" x="8" y="-113.32" font-family="Helvetica,sans-Serif" font-size="10.00">std::basic_string&lt;</text>
<text text-anchor="middle" x="52" y="-102.32" font-family="Helvetica,sans-Serif" font-size="10.00"> Char &gt;</text>
</a>
</g>
</g>
<!-- Node4&#45;&gt;Node3 -->
<g id="edge3" class="edge">
<title>Node4&#45;&gt;Node3</title>
<path fill="none" stroke="midnightblue" d="M114.22,-110.32C157.33,-110.32 213.29,-110.32 247.78,-110.32"/>
<polygon fill="midnightblue" stroke="midnightblue" points="114.11,-106.82 104.11,-110.32 114.11,-113.82 114.11,-106.82"/>
</g>
<!-- Node5 -->
<g id="node5" class="node">
<title>Node5</title>
<g id="a_node5"><a xlink:title=" ">
<polygon fill="white" stroke="#bfbfbf" points="230,-62.82 230,-81.82 331,-81.82 331,-62.82 230,-62.82"/>
<text text-anchor="middle" x="280.5" y="-69.82" font-family="Helvetica,sans-Serif" font-size="10.00">std::map&lt; K, T &gt;</text>
</a>
</g>
</g>
<!-- Node5&#45;&gt;Node2 -->
<g id="edge4" class="edge">
<title>Node5&#45;&gt;Node2</title>
<path fill="none" stroke="orange" stroke-dasharray="5,2" d="M301.29,-56.75C322.03,-41.5 356.24,-19.29 390,-10.32 455.96,7.2 534.7,-1.58 587.38,-11.48"/>
<polygon fill="orange" stroke="orange" points="299.14,-53.98 293.26,-62.8 303.36,-59.57 299.14,-53.98"/>
<text text-anchor="middle" x="468" y="-13.32" font-family="Helvetica,sans-Serif" font-size="10.00"> &lt; size_t, std::string &gt;</text>
</g>
<!-- Node6 -->
<g id="node6" class="node">
<title>Node6</title>
<g id="a_node6"><a xlink:title=" ">
<polygon fill="white" stroke="#bfbfbf" points="37.5,-189.82 37.5,-208.82 66.5,-208.82 66.5,-189.82 37.5,-189.82"/>
<text text-anchor="middle" x="52" y="-196.82" font-family="Helvetica,sans-Serif" font-size="10.00">K</text>
</a>
</g>
</g>
<!-- Node6&#45;&gt;Node5 -->
<g id="edge5" class="edge">
<title>Node6&#45;&gt;Node5</title>
<path fill="none" stroke="#9a32cd" stroke-dasharray="5,2" d="M68.28,-181.96C91.51,-156.9 138.4,-111.42 189,-91.32 201.83,-86.23 216.26,-82.41 229.75,-79.59"/>
<polygon fill="#9a32cd" stroke="#9a32cd" points="65.47,-179.85 61.34,-189.61 70.65,-184.56 65.47,-179.85"/>
<text text-anchor="middle" x="146.5" y="-132.32" font-family="Helvetica,sans-Serif" font-size="10.00"> keys</text>
</g>
<!-- Node18 -->
<g id="node18" class="node">
<title>Node18</title>
<g id="a_node18"><a xlink:title=" ">
<polygon fill="white" stroke="#bfbfbf" points="212,-203.82 212,-222.82 349,-222.82 349,-203.82 212,-203.82"/>
<text text-anchor="middle" x="280.5" y="-210.82" font-family="Helvetica,sans-Serif" font-size="10.00">std::unordered_set&lt; K &gt;</text>
</a>
</g>
</g>
<!-- Node6&#45;&gt;Node18 -->
<g id="edge22" class="edge">
<title>Node6&#45;&gt;Node18</title>
<path fill="none" stroke="#9a32cd" stroke-dasharray="5,2" d="M76.94,-200.8C108.72,-202.77 166.15,-206.32 211.76,-209.14"/>
<polygon fill="#9a32cd" stroke="#9a32cd" points="77.02,-197.3 66.83,-200.18 76.59,-204.29 77.02,-197.3"/>
<text text-anchor="middle" x="146.5" y="-209.32" font-family="Helvetica,sans-Serif" font-size="10.00"> keys</text>
</g>
<!-- Node7 -->
<g id="node7" class="node">
<title>Node7</title>
<g id="a_node7"><a xlink:title=" ">
<polygon fill="white" stroke="#bfbfbf" points="37.5,-365.82 37.5,-384.82 66.5,-384.82 66.5,-365.82 37.5,-365.82"/>
<text text-anchor="middle" x="52" y="-372.82" font-family="Helvetica,sans-Serif" font-size="10.00">T</text>
</a>
</g>
</g>
<!-- Node7&#45;&gt;Node5 -->
<g id="edge6" class="edge">
<title>Node7&#45;&gt;Node5</title>
<path fill="none" stroke="#9a32cd" stroke-dasharray="5,2" d="M57.04,-355.55C65.03,-319.8 85.31,-243.04 122,-188.32 138.47,-163.76 154.78,-168.05 171,-143.32 184.41,-122.87 170.65,-107.49 189,-91.32 200.2,-81.45 215.21,-76.25 229.78,-73.62"/>
<polygon fill="#9a32cd" stroke="#9a32cd" points="53.55,-355.13 54.88,-365.64 60.4,-356.6 53.55,-355.13"/>
<text text-anchor="middle" x="146.5" y="-191.32" font-family="Helvetica,sans-Serif" font-size="10.00"> elements</text>
</g>
<!-- Node14 -->
<g id="node14" class="node">
<title>Node14</title>
<g id="a_node14"><a xlink:title=" ">
<polygon fill="white" stroke="#bfbfbf" points="230.5,-281.82 230.5,-300.82 330.5,-300.82 330.5,-281.82 230.5,-281.82"/>
<text text-anchor="middle" x="280.5" y="-288.82" font-family="Helvetica,sans-Serif" font-size="10.00">std::atomic&lt; T &gt;</text>
</a>
</g>
</g>
<!-- Node7&#45;&gt;Node14 -->
<g id="edge15" class="edge">
<title>Node7&#45;&gt;Node14</title>
<path fill="none" stroke="#9a32cd" stroke-dasharray="5,2" d="M75.91,-364.21C102.62,-351.53 148.33,-330.68 189,-316.32 205.6,-310.46 224.3,-305.1 240.38,-300.85"/>
<polygon fill="#9a32cd" stroke="#9a32cd" points="74.15,-361.17 66.65,-368.64 77.18,-367.48 74.15,-361.17"/>
<text text-anchor="middle" x="146.5" y="-344.32" font-family="Helvetica,sans-Serif" font-size="10.00"> ptr</text>
</g>
<!-- Node20 -->
<g id="node20" class="node">
<title>Node20</title>
<g id="a_node20"><a xlink:title=" ">
<polygon fill="white" stroke="#bfbfbf" points="240,-365.82 240,-384.82 321,-384.82 321,-365.82 240,-365.82"/>
<text text-anchor="middle" x="280.5" y="-372.82" font-family="Helvetica,sans-Serif" font-size="10.00">std::list&lt; T &gt;</text>
</a>
</g>
</g>
<!-- Node7&#45;&gt;Node20 -->
<g id="edge26" class="edge">
<title>Node7&#45;&gt;Node20</title>
<path fill="none" stroke="#9a32cd" stroke-dasharray="5,2" d="M77.15,-375.32C115.96,-375.32 192.62,-375.32 239.64,-375.32"/>
<polygon fill="#9a32cd" stroke="#9a32cd" points="76.83,-371.82 66.83,-375.32 76.83,-378.82 76.83,-371.82"/>
<text text-anchor="middle" x="146.5" y="-378.32" font-family="Helvetica,sans-Serif" font-size="10.00"> elements</text>
</g>
<!-- Node26 -->
<g id="node26" class="node">
<title>Node26</title>
<g id="a_node26"><a xlink:title=" ">
<polygon fill="white" stroke="#bfbfbf" points="221.5,-469.82 221.5,-488.82 339.5,-488.82 339.5,-469.82 221.5,-469.82"/>
<text text-anchor="middle" x="280.5" y="-476.82" font-family="Helvetica,sans-Serif" font-size="10.00">std::shared_ptr&lt; T &gt;</text>
</a>
</g>
</g>
<!-- Node7&#45;&gt;Node26 -->
<g id="edge35" class="edge">
<title>Node7&#45;&gt;Node26</title>
<path fill="none" stroke="#9a32cd" stroke-dasharray="5,2" d="M73.08,-391.08C98.59,-410.31 144.64,-442.46 189,-460.32 199.13,-464.4 210.26,-467.65 221.15,-470.23"/>
<polygon fill="#9a32cd" stroke="#9a32cd" points="75.02,-388.16 64.95,-384.86 70.77,-393.72 75.02,-388.16"/>
<text text-anchor="middle" x="146.5" y="-454.32" font-family="Helvetica,sans-Serif" font-size="10.00"> ptr</text>
</g>
<!-- Node31 -->
<g id="node31" class="node">
<title>Node31</title>
<g id="a_node31"><a xlink:title=" ">
<polygon fill="white" stroke="#bfbfbf" points="221.5,-514.82 221.5,-533.82 339.5,-533.82 339.5,-514.82 221.5,-514.82"/>
<text text-anchor="middle" x="280.5" y="-521.82" font-family="Helvetica,sans-Serif" font-size="10.00">std::unique_ptr&lt; T &gt;</text>
</a>
</g>
</g>
<!-- Node7&#45;&gt;Node31 -->
<g id="edge44" class="edge">
<title>Node7&#45;&gt;Node31</title>
<path fill="none" stroke="#9a32cd" stroke-dasharray="5,2" d="M63.34,-393.81C75.31,-413.83 96.64,-445.65 122,-466.32 153.06,-491.63 196.19,-506.49 229.47,-514.81"/>
<polygon fill="#9a32cd" stroke="#9a32cd" points="66.3,-391.92 58.25,-385.03 60.24,-395.44 66.3,-391.92"/>
<text text-anchor="middle" x="146.5" y="-497.32" font-family="Helvetica,sans-Serif" font-size="10.00"> ptr</text>
</g>
<!-- Node8&#45;&gt;Node1 -->
<g id="edge8" class="edge">
<title>Node8&#45;&gt;Node1</title>
<path fill="none" stroke="#9a32cd" stroke-dasharray="5,2" d="M2155.61,-160.38C2200.09,-138.71 2284.67,-97.5 2322.88,-78.88"/>
<polygon fill="#9a32cd" stroke="#9a32cd" points="2153.96,-157.29 2146.5,-164.82 2157.03,-163.58 2153.96,-157.29"/>
<text text-anchor="middle" x="2232" y="-133.32" font-family="Helvetica,sans-Serif" font-size="10.00"> owner</text>
</g>
<!-- Node9 -->
<g id="node9" class="node">
<title>Node9</title>
<g id="a_node9"><a xlink:href="class_chimera_t_k_1_1_application_module.html" target="_top" xlink:title=" ">
<polygon fill="white" stroke="black" points="1851,-343.82 1851,-362.82 2018,-362.82 2018,-343.82 1851,-343.82"/>
<text text-anchor="middle" x="1934.5" y="-350.82" font-family="Helvetica,sans-Serif" font-size="10.00">ChimeraTK::ApplicationModule</text>
</a>
</g>
</g>
<!-- Node9&#45;&gt;Node8 -->
<g id="edge9" class="edge">
<title>Node9&#45;&gt;Node8</title>
<path fill="none" stroke="midnightblue" d="M1953.13,-336.67C1991.99,-299.96 2083.98,-213.07 2114.76,-183.99"/>
<polygon fill="midnightblue" stroke="midnightblue" points="1950.55,-334.29 1945.69,-343.7 1955.36,-339.38 1950.55,-334.29"/>
</g>
<!-- Node10 -->
<g id="node10" class="node">
<title>Node10</title>
<g id="a_node10"><a xlink:href="class_chimera_t_k_1_1_variable_group.html" target="_top" xlink:title=" ">
<polygon fill="white" stroke="black" points="1570,-343.82 1570,-362.82 1716,-362.82 1716,-343.82 1570,-343.82"/>
<text text-anchor="middle" x="1643" y="-350.82" font-family="Helvetica,sans-Serif" font-size="10.00">ChimeraTK::VariableGroup</text>
</a>
</g>
</g>
<!-- Node10&#45;&gt;Node9 -->
<g id="edge10" class="edge">
<title>Node10&#45;&gt;Node9</title>
<path fill="none" stroke="midnightblue" d="M1726.56,-353.32C1765.52,-353.32 1811.9,-353.32 1850.86,-353.32"/>
<polygon fill="midnightblue" stroke="midnightblue" points="1726.31,-349.82 1716.31,-353.32 1726.31,-356.82 1726.31,-349.82"/>
</g>
<!-- Node11 -->
<g id="node11" class="node">
<title>Node11</title>
<g id="a_node11"><a xlink:href="class_chimera_t_k_1_1_module.html" target="_top" xlink:title="Base class for ApplicationModule and DeviceModule, to have a common interface for these module types.">
<polygon fill="white" stroke="black" points="1226.5,-316.82 1226.5,-335.82 1339.5,-335.82 1339.5,-316.82 1226.5,-316.82"/>
<text text-anchor="middle" x="1283" y="-323.82" font-family="Helvetica,sans-Serif" font-size="10.00">ChimeraTK::Module</text>
</a>
</g>
</g>
<!-- Node11&#45;&gt;Node10 -->
<g id="edge11" class="edge">
<title>Node11&#45;&gt;Node10</title>
<path fill="none" stroke="midnightblue" d="M1349.66,-331.27C1412.01,-335.98 1505.54,-343.03 1569.93,-347.89"/>
<polygon fill="midnightblue" stroke="midnightblue" points="1349.78,-327.77 1339.54,-330.51 1349.25,-334.75 1349.78,-327.77"/>
</g>
<!-- Node19 -->
<g id="node19" class="node">
<title>Node19</title>
<g id="a_node19"><a xlink:title=" ">
<polygon fill="white" stroke="#bfbfbf" points="1584,-294.32 1584,-324.32 1702,-324.32 1702,-294.32 1584,-294.32"/>
<text text-anchor="start" x="1592" y="-312.32" font-family="Helvetica,sans-Serif" font-size="10.00">std::list&lt; ChimeraTK</text>
<text text-anchor="middle" x="1643" y="-301.32" font-family="Helvetica,sans-Serif" font-size="10.00">::Module * &gt;</text>
</a>
</g>
</g>
<!-- Node11&#45;&gt;Node19 -->
<g id="edge24" class="edge">
<title>Node11&#45;&gt;Node19</title>
<path fill="none" stroke="#9a32cd" stroke-dasharray="5,2" d="M1349.78,-321.06C1358.92,-320.42 1368.19,-319.82 1377,-319.32 1448.13,-315.3 1530.1,-312.49 1583.81,-310.89"/>
<polygon fill="#9a32cd" stroke="#9a32cd" points="1349.27,-317.59 1339.55,-321.8 1349.77,-324.57 1349.27,-317.59"/>
<text text-anchor="middle" x="1460.5" y="-322.32" font-family="Helvetica,sans-Serif" font-size="10.00"> elements</text>
</g>
<!-- Node12&#45;&gt;Node11 -->
<g id="edge12" class="edge">
<title>Node12&#45;&gt;Node11</title>
<path fill="none" stroke="midnightblue" d="M1037.77,-303.36C1082.09,-307.39 1138.67,-312.58 1189,-317.32 1201.11,-318.46 1214.11,-319.71 1226.43,-320.9"/>
<polygon fill="midnightblue" stroke="midnightblue" points="1037.92,-299.86 1027.64,-302.44 1037.29,-306.83 1037.92,-299.86"/>
</g>
<!-- Node12&#45;&gt;Node11 -->
<g id="edge30" class="edge">
<title>Node12&#45;&gt;Node11</title>
<path fill="none" stroke="#9a32cd" stroke-dasharray="5,2" d="M1009.61,-307.95C1021.78,-310.42 1034.81,-312.76 1047,-314.32 1107.98,-322.14 1178.48,-324.91 1226.23,-325.87"/>
<polygon fill="#9a32cd" stroke="#9a32cd" points="1010.14,-304.49 999.63,-305.85 1008.7,-311.34 1010.14,-304.49"/>
<text text-anchor="middle" x="1118" y="-327.32" font-family="Helvetica,sans-Serif" font-size="10.00"> _owner</text>
</g>
<!-- Node13 -->
<g id="node13" class="node">
<title>Node13</title>
<g id="a_node13"><a xlink:title=" ">
<polygon fill="white" stroke="#bfbfbf" points="590,-281.82 590,-300.82 705,-300.82 705,-281.82 590,-281.82"/>
<text text-anchor="middle" x="647.5" y="-288.82" font-family="Helvetica,sans-Serif" font-size="10.00">std::atomic&lt; bool &gt;</text>
</a>
</g>
</g>
<!-- Node13&#45;&gt;Node12 -->
<g id="edge13" class="edge">
<title>Node13&#45;&gt;Node12</title>
<path fill="none" stroke="#9a32cd" stroke-dasharray="5,2" d="M715.33,-292.4C767.04,-293.24 838.34,-294.39 890.26,-295.23"/>
<polygon fill="#9a32cd" stroke="#9a32cd" points="715.32,-288.9 705.27,-292.24 715.21,-295.9 715.32,-288.9"/>
<text text-anchor="middle" x="810" y="-297.32" font-family="Helvetica,sans-Serif" font-size="10.00"> _testableModeReached</text>
</g>
<!-- Node14&#45;&gt;Node13 -->
<g id="edge14" class="edge">
<title>Node14&#45;&gt;Node13</title>
<path fill="none" stroke="orange" stroke-dasharray="5,2" d="M340.97,-291.32C409.83,-291.32 522.41,-291.32 589.98,-291.32"/>
<polygon fill="orange" stroke="orange" points="340.73,-287.82 330.73,-291.32 340.73,-294.82 340.73,-287.82"/>
<text text-anchor="middle" x="468" y="-294.32" font-family="Helvetica,sans-Serif" font-size="10.00"> &lt; bool &gt;</text>
</g>
<!-- Node27 -->
<g id="node27" class="node">
<title>Node27</title>
<g id="a_node27"><a xlink:title=" ">
<polygon fill="white" stroke="#bfbfbf" points="749,-122.82 749,-141.82 871,-141.82 871,-122.82 749,-122.82"/>
<text text-anchor="middle" x="810" y="-129.82" font-family="Helvetica,sans-Serif" font-size="10.00">std::atomic&lt; size_t &gt;</text>
</a>
</g>
</g>
<!-- Node14&#45;&gt;Node27 -->
<g id="edge37" class="edge">
<title>Node14&#45;&gt;Node27</title>
<path fill="none" stroke="orange" stroke-dasharray="5,2" d="M340.89,-282.95C356.83,-280.75 374.07,-278.4 390,-276.32 465.71,-266.43 664.75,-272.28 731,-234.32 769.49,-212.27 795.27,-162.87 804.85,-141.96"/>
<polygon fill="orange" stroke="orange" points="340.05,-279.53 330.63,-284.37 341.02,-286.47 340.05,-279.53"/>
<text text-anchor="middle" x="468" y="-279.32" font-family="Helvetica,sans-Serif" font-size="10.00"> &lt; size_t &gt;</text>
</g>
<!-- Node15 -->
<g id="node15" class="node">
<title>Node15</title>
<g id="a_node15"><a xlink:title=" ">
<polygon fill="white" stroke="#bfbfbf" points="600.5,-369.82 600.5,-388.82 694.5,-388.82 694.5,-369.82 600.5,-369.82"/>
<text text-anchor="middle" x="647.5" y="-376.82" font-family="Helvetica,sans-Serif" font-size="10.00">std::string_view</text>
</a>
</g>
</g>
<!-- Node15&#45;&gt;Node12 -->
<g id="edge16" class="edge">
<title>Node15&#45;&gt;Node12</title>
<path fill="none" stroke="#9a32cd" stroke-dasharray="5,2" d="M704.55,-373.21C750.17,-367.24 815.81,-356.37 871,-338.32 896.67,-329.93 924.46,-315.48 941.55,-305.91"/>
<polygon fill="#9a32cd" stroke="#9a32cd" points="704.04,-369.75 694.56,-374.48 704.92,-376.69 704.04,-369.75"/>
<text text-anchor="middle" x="810" y="-368.32" font-family="Helvetica,sans-Serif" font-size="10.00"> namePrefixConstant</text>
</g>
<!-- Node16 -->
<g id="node16" class="node">
<title>Node16</title>
<g id="a_node16"><a xlink:title=" ">
<polygon fill="white" stroke="#bfbfbf" points="218,-420.32 218,-450.32 343,-450.32 343,-420.32 218,-420.32"/>
<text text-anchor="start" x="226" y="-438.32" font-family="Helvetica,sans-Serif" font-size="10.00">std::basic_string_view</text>
<text text-anchor="middle" x="280.5" y="-427.32" font-family="Helvetica,sans-Serif" font-size="10.00">&lt; Char &gt;</text>
</a>
</g>
</g>
<!-- Node16&#45;&gt;Node15 -->
<g id="edge17" class="edge">
<title>Node16&#45;&gt;Node15</title>
<path fill="none" stroke="midnightblue" d="M353.08,-424.34C426.36,-413.1 538.07,-395.96 600.39,-386.4"/>
<polygon fill="midnightblue" stroke="midnightblue" points="352.36,-420.91 343,-425.89 353.42,-427.83 352.36,-420.91"/>
</g>
<!-- Node17&#45;&gt;Node12 -->
<g id="edge19" class="edge">
<title>Node17&#45;&gt;Node12</title>
<path fill="none" stroke="#9a32cd" stroke-dasharray="5,2" d="M711.01,-226.89C775.21,-244.94 872.78,-272.37 923.95,-286.75"/>
<polygon fill="#9a32cd" stroke="#9a32cd" points="711.58,-223.42 701,-224.08 709.68,-230.16 711.58,-223.42"/>
<text text-anchor="middle" x="810" y="-273.32" font-family="Helvetica,sans-Serif" font-size="10.00"> _tags</text>
</g>
<!-- Node18&#45;&gt;Node17 -->
<g id="edge21" class="edge">
<title>Node18&#45;&gt;Node17</title>
<path fill="none" stroke="orange" stroke-dasharray="5,2" d="M359.49,-212.47C430.17,-211.69 532.39,-210.57 593.85,-209.9"/>
<polygon fill="orange" stroke="orange" points="359.26,-208.97 349.3,-212.58 359.34,-215.97 359.26,-208.97"/>
<text text-anchor="middle" x="468" y="-214.32" font-family="Helvetica,sans-Serif" font-size="10.00"> &lt; std::string &gt;</text>
</g>
<!-- Node19&#45;&gt;Node12 -->
<g id="edge23" class="edge">
<title>Node19&#45;&gt;Node12</title>
<path fill="none" stroke="#9a32cd" stroke-dasharray="5,2" d="M1573.74,-305.31C1516.44,-302.15 1432.41,-298.01 1359,-296.32 1242.66,-293.65 1107.18,-294.49 1027.79,-295.38"/>
<polygon fill="#9a32cd" stroke="#9a32cd" points="1573.58,-308.8 1583.76,-305.86 1573.97,-301.81 1573.58,-308.8"/>
<text text-anchor="middle" x="1283" y="-299.32" font-family="Helvetica,sans-Serif" font-size="10.00"> _moduleList</text>
</g>
<!-- Node20&#45;&gt;Node19 -->
<g id="edge25" class="edge">
<title>Node20&#45;&gt;Node19</title>
<path fill="none" stroke="orange" stroke-dasharray="5,2" d="M331.01,-383.75C349.47,-386.6 370.65,-389.51 390,-391.32 467.06,-398.53 486.62,-396.77 564,-398.32 1000.4,-407.1 1113.39,-405.66 1544,-334.32 1559.07,-331.83 1575.22,-328.14 1589.97,-324.36"/>
<polygon fill="orange" stroke="orange" points="331.48,-380.28 321.06,-382.19 330.39,-387.2 331.48,-380.28"/>
<text text-anchor="middle" x="959" y="-404.32" font-family="Helvetica,sans-Serif" font-size="10.00"> &lt; ChimeraTK::Module * &gt;</text>
</g>
<!-- Node21 -->
<g id="node21" class="node">
<title>Node21</title>
<g id="a_node21"><a xlink:title=" ">
<polygon fill="white" stroke="#bfbfbf" points="577.5,-320.32 577.5,-350.32 717.5,-350.32 717.5,-320.32 577.5,-320.32"/>
<text text-anchor="start" x="585.5" y="-338.32" font-family="Helvetica,sans-Serif" font-size="10.00">std::list&lt; ChimeraTK</text>
<text text-anchor="middle" x="647.5" y="-327.32" font-family="Helvetica,sans-Serif" font-size="10.00">::VariableNetworkNode &gt;</text>
</a>
</g>
</g>
<!-- Node20&#45;&gt;Node21 -->
<g id="edge29" class="edge">
<title>Node20&#45;&gt;Node21</title>
<path fill="none" stroke="orange" stroke-dasharray="5,2" d="M331.19,-371.43C384.41,-367.07 471.31,-359.42 546,-350.32 556.16,-349.08 566.87,-347.64 577.37,-346.14"/>
<polygon fill="orange" stroke="orange" points="330.69,-367.96 321.01,-372.26 331.26,-374.94 330.69,-367.96"/>
<text text-anchor="start" x="390" y="-379.32" font-family="Helvetica,sans-Serif" font-size="10.00"> &lt; ChimeraTK::VariableNetwork</text>
<text text-anchor="middle" x="468" y="-368.32" font-family="Helvetica,sans-Serif" font-size="10.00">Node &gt;</text>
</g>
<!-- Node21&#45;&gt;Node12 -->
<g id="edge27" class="edge">
<title>Node21&#45;&gt;Node12</title>
<path fill="none" stroke="#9a32cd" stroke-dasharray="5,2" d="M727.74,-326.69C770.25,-321.9 823.53,-315.64 871,-309.32 879.02,-308.25 887.45,-307.07 895.78,-305.87"/>
<polygon fill="#9a32cd" stroke="#9a32cd" points="727.27,-323.22 717.73,-327.81 728.05,-330.17 727.27,-323.22"/>
<text text-anchor="middle" x="810" y="-326.32" font-family="Helvetica,sans-Serif" font-size="10.00"> _accessorList</text>
</g>
<!-- Node22 -->
<g id="node22" class="node">
<title>Node22</title>
<g id="a_node22"><a xlink:href="class_chimera_t_k_1_1_variable_network_node.html" target="_top" xlink:title="Class describing a node of a variable network.">
<polygon fill="white" stroke="black" points="189,-325.82 189,-344.82 372,-344.82 372,-325.82 189,-325.82"/>
<text text-anchor="middle" x="280.5" y="-332.82" font-family="Helvetica,sans-Serif" font-size="10.00">ChimeraTK::VariableNetworkNode</text>
</a>
</g>
</g>
<!-- Node22&#45;&gt;Node21 -->
<g id="edge28" class="edge">
<title>Node22&#45;&gt;Node21</title>
<path fill="none" stroke="#9a32cd" stroke-dasharray="5,2" d="M382.39,-335.32C444.37,-335.32 522.17,-335.32 577.23,-335.32"/>
<polygon fill="#9a32cd" stroke="#9a32cd" points="382.19,-331.82 372.19,-335.32 382.19,-338.82 382.19,-331.82"/>
<text text-anchor="middle" x="468" y="-338.32" font-family="Helvetica,sans-Serif" font-size="10.00"> elements</text>
</g>
<!-- Node23 -->
<g id="node23" class="node">
<title>Node23</title>
<g id="a_node23"><a xlink:href="class_chimera_t_k_1_1_model_1_1_variable_group_proxy.html" target="_top" xlink:title=" ">
<polygon fill="white" stroke="black" points="1207,-431.32 1207,-461.32 1359,-461.32 1359,-431.32 1207,-431.32"/>
<text text-anchor="start" x="1215" y="-449.32" font-family="Helvetica,sans-Serif" font-size="10.00">ChimeraTK::Model::Variable</text>
<text text-anchor="middle" x="1283" y="-438.32" font-family="Helvetica,sans-Serif" font-size="10.00">GroupProxy</text>
</a>
</g>
</g>
<!-- Node23&#45;&gt;Node10 -->
<g id="edge31" class="edge">
<title>Node23&#45;&gt;Node10</title>
<path fill="none" stroke="#9a32cd" stroke-dasharray="5,2" d="M1369.37,-445.66C1434.41,-443.5 1517.19,-436.65 1544,-416.32 1560.84,-403.56 1545.95,-386.06 1562,-372.32 1566.45,-368.52 1571.52,-365.44 1576.91,-362.96"/>
<polygon fill="#9a32cd" stroke="#9a32cd" points="1368.99,-442.17 1359.1,-445.97 1369.2,-449.17 1368.99,-442.17"/>
<text text-anchor="middle" x="1460.5" y="-447.32" font-family="Helvetica,sans-Serif" font-size="10.00"> _model</text>
</g>
<!-- Node24 -->
<g id="node24" class="node">
<title>Node24</title>
<g id="a_node24"><a xlink:href="class_chimera_t_k_1_1_model_1_1_proxy.html" target="_top" xlink:title="Base class for the proxies representing objects in the model.">
<polygon fill="white" stroke="black" points="889,-466.82 889,-485.82 1029,-485.82 1029,-466.82 889,-466.82"/>
<text text-anchor="middle" x="959" y="-473.82" font-family="Helvetica,sans-Serif" font-size="10.00">ChimeraTK::Model::Proxy</text>
</a>
</g>
</g>
<!-- Node24&#45;&gt;Node23 -->
<g id="edge32" class="edge">
<title>Node24&#45;&gt;Node23</title>
<path fill="none" stroke="midnightblue" d="M1039.1,-468.95C1090.27,-464.18 1156.49,-458.02 1206.86,-453.32"/>
<polygon fill="midnightblue" stroke="midnightblue" points="1038.71,-465.47 1029.08,-469.89 1039.36,-472.44 1038.71,-465.47"/>
</g>
<!-- Node29 -->
<g id="node29" class="node">
<title>Node29</title>
<g id="a_node29"><a xlink:href="class_chimera_t_k_1_1_model_1_1_application_module_proxy.html" target="_top" xlink:title=" ">
<polygon fill="white" stroke="black" points="1377,-467.32 1377,-497.32 1544,-497.32 1544,-467.32 1377,-467.32"/>
<text text-anchor="start" x="1385" y="-485.32" font-family="Helvetica,sans-Serif" font-size="10.00">ChimeraTK::Model::Application</text>
<text text-anchor="middle" x="1460.5" y="-474.32" font-family="Helvetica,sans-Serif" font-size="10.00">ModuleProxy</text>
</a>
</g>
</g>
<!-- Node24&#45;&gt;Node29 -->
<g id="edge40" class="edge">
<title>Node24&#45;&gt;Node29</title>
<path fill="none" stroke="midnightblue" d="M1039.31,-477.27C1131.57,-478.38 1283.18,-480.2 1376.84,-481.33"/>
<polygon fill="midnightblue" stroke="midnightblue" points="1039.23,-473.77 1029.19,-477.15 1039.15,-480.77 1039.23,-473.77"/>
</g>
<!-- Node25 -->
<g id="node25" class="node">
<title>Node25</title>
<g id="a_node25"><a xlink:title=" ">
<polygon fill="white" stroke="#bfbfbf" points="564,-461.32 564,-491.32 731,-491.32 731,-461.32 564,-461.32"/>
<text text-anchor="start" x="572" y="-479.32" font-family="Helvetica,sans-Serif" font-size="10.00">std::shared_ptr&lt; Chimera</text>
<text text-anchor="middle" x="647.5" y="-468.32" font-family="Helvetica,sans-Serif" font-size="10.00">TK::Model::Proxy::ProxyData &gt;</text>
</a>
</g>
</g>
<!-- Node25&#45;&gt;Node24 -->
<g id="edge33" class="edge">
<title>Node25&#45;&gt;Node24</title>
<path fill="none" stroke="#9a32cd" stroke-dasharray="5,2" d="M741.3,-476.32C788.66,-476.32 845.29,-476.32 888.78,-476.32"/>
<polygon fill="#9a32cd" stroke="#9a32cd" points="741.03,-472.82 731.03,-476.32 741.03,-479.82 741.03,-472.82"/>
<text text-anchor="middle" x="810" y="-479.32" font-family="Helvetica,sans-Serif" font-size="10.00"> _d</text>
</g>
<!-- Node26&#45;&gt;Node25 -->
<g id="edge34" class="edge">
<title>Node26&#45;&gt;Node25</title>
<path fill="none" stroke="orange" stroke-dasharray="5,2" d="M349.96,-478.76C410.55,-478.26 499.11,-477.53 563.67,-477"/>
<polygon fill="orange" stroke="orange" points="349.71,-475.26 339.74,-478.84 349.77,-482.26 349.71,-475.26"/>
<text text-anchor="start" x="415.5" y="-492.32" font-family="Helvetica,sans-Serif" font-size="10.00"> &lt; ChimeraTK::Model</text>
<text text-anchor="middle" x="468" y="-481.32" font-family="Helvetica,sans-Serif" font-size="10.00">::Proxy::ProxyData &gt;</text>
</g>
<!-- Node27&#45;&gt;Node9 -->
<g id="edge36" class="edge">
<title>Node27&#45;&gt;Node9</title>
<path fill="none" stroke="#9a32cd" stroke-dasharray="5,2" d="M844.86,-145.52C900.67,-166.06 1015.86,-203.32 1117,-203.32 1117,-203.32 1117,-203.32 1644,-203.32 1766.27,-203.32 1888.31,-310.11 1923.46,-343.48"/>
<polygon fill="#9a32cd" stroke="#9a32cd" points="845.74,-142.12 835.15,-141.9 843.29,-148.67 845.74,-142.12"/>
<text text-anchor="middle" x="1283" y="-206.32" font-family="Helvetica,sans-Serif" font-size="10.00"> _dataFaultCounter</text>
</g>
<!-- Node28 -->
<g id="node28" class="node">
<title>Node28</title>
<g id="a_node28"><a xlink:title=" ">
<polygon fill="white" stroke="#bfbfbf" points="1562,-381.82 1562,-422.82 1724,-422.82 1724,-381.82 1562,-381.82"/>
<text text-anchor="start" x="1570" y="-410.82" font-family="Helvetica,sans-Serif" font-size="10.00">ChimeraTK::detail::</text>
<text text-anchor="start" x="1570" y="-399.82" font-family="Helvetica,sans-Serif" font-size="10.00">CircularDependencyDetection</text>
<text text-anchor="middle" x="1643" y="-388.82" font-family="Helvetica,sans-Serif" font-size="10.00">RecursionStopper</text>
</a>
</g>
</g>
<!-- Node28&#45;&gt;Node9 -->
<g id="edge38" class="edge">
<title>Node28&#45;&gt;Node9</title>
<path fill="none" stroke="#9a32cd" stroke-dasharray="5,2" d="M1734.37,-387.03C1781,-379.13 1836.44,-369.75 1876.97,-362.89"/>
<polygon fill="#9a32cd" stroke="#9a32cd" points="1733.53,-383.62 1724.26,-388.74 1734.7,-390.52 1733.53,-383.62"/>
<text text-anchor="middle" x="1787.5" y="-387.32" font-family="Helvetica,sans-Serif" font-size="10.00"> _recursionStopper</text>
</g>
<!-- Node29&#45;&gt;Node9 -->
<g id="edge39" class="edge">
<title>Node29&#45;&gt;Node9</title>
<path fill="none" stroke="#9a32cd" stroke-dasharray="5,2" d="M1554.33,-469.09C1630.79,-456.43 1741.16,-434.06 1833,-399.32 1862.08,-388.32 1894.6,-372.82 1914.56,-362.93"/>
<polygon fill="#9a32cd" stroke="#9a32cd" points="1553.54,-465.67 1544.24,-470.74 1554.67,-472.58 1553.54,-465.67"/>
<text text-anchor="middle" x="1643" y="-470.32" font-family="Helvetica,sans-Serif" font-size="10.00"> _model</text>
</g>
<!-- Node30 -->
<g id="node30" class="node">
<title>Node30</title>
<g id="a_node30"><a xlink:title=" ">
<polygon fill="white" stroke="#bfbfbf" points="1047,-513.32 1047,-543.32 1189,-543.32 1189,-513.32 1047,-513.32"/>
<text text-anchor="start" x="1055" y="-531.32" font-family="Helvetica,sans-Serif" font-size="10.00">std::unique_ptr&lt; Chimera</text>
<text text-anchor="middle" x="1118" y="-520.32" font-family="Helvetica,sans-Serif" font-size="10.00">TK::ModuleTree &gt;</text>
</a>
</g>
</g>
<!-- Node30&#45;&gt;Node8 -->
<g id="edge42" class="edge">
<title>Node30&#45;&gt;Node8</title>
<path fill="none" stroke="#9a32cd" stroke-dasharray="5,2" d="M1199.46,-528.32C1268.46,-528.32 1370.52,-528.32 1459.5,-528.32 1459.5,-528.32 1459.5,-528.32 1935.5,-528.32 2096.18,-528.32 2121.14,-241.33 2124.52,-184.16"/>
<polygon fill="#9a32cd" stroke="#9a32cd" points="1199.1,-524.82 1189.1,-528.32 1199.1,-531.82 1199.1,-524.82"/>
<text text-anchor="middle" x="1643" y="-531.32" font-family="Helvetica,sans-Serif" font-size="10.00"> _moduleTree</text>
</g>
<!-- Node31&#45;&gt;Node30 -->
<g id="edge43" class="edge">
<title>Node31&#45;&gt;Node30</title>
<path fill="none" stroke="orange" stroke-dasharray="5,2" d="M350.01,-524.65C506.5,-525.4 888.85,-527.23 1046.88,-527.99"/>
<polygon fill="orange" stroke="orange" points="349.6,-521.15 339.59,-524.6 349.57,-528.15 349.6,-521.15"/>
<text text-anchor="middle" x="647.5" y="-529.32" font-family="Helvetica,sans-Serif" font-size="10.00"> &lt; ChimeraTK::ModuleTree &gt;</text>
</g>
</g>
</svg>
        <g id="navigator" transform="translate(0 0)" fill="#404254">
                <rect fill="#f2f5e9" fill-opacity="0.5" stroke="#606060" stroke-width=".5" x="0" y="0" width="60" height="60"/>
                <use id="zoomplus" xlink:href="#zoomPlus" x="17" y="9" onmousedown="handleZoom(evt,'in')"/>
                <use id="zoomminus" xlink:href="#zoomMin" x="42" y="9" onmousedown="handleZoom(evt,'out')"/>
                <use id="reset" xlink:href="#resetDef" x="30" y="36" onmousedown="handleReset()"/>
                <g id="arrowUp" xlink:href="#dirArrow" transform="translate(30 24)" onmousedown="handlePan(0,-1)">
                  <use xlink:href="#rim" fill="#404040">
                        <set attributeName="fill" to="#808080" begin="arrowUp.mouseover" end="arrowUp.mouseout"/>
                  </use>
                  <path fill="none" stroke="white" stroke-width="1.5" d="M0,-3.0v7 M-2.5,-0.5L0,-3.0L2.5,-0.5"/>
                </g>
                <g id="arrowRight" xlink:href="#dirArrow" transform="rotate(90) translate(36 -43)" onmousedown="handlePan(1,0)">
                  <use xlink:href="#rim" fill="#404040">
                        <set attributeName="fill" to="#808080" begin="arrowRight.mouseover" end="arrowRight.mouseout"/>
                  </use>
                  <path fill="none" stroke="white" stroke-width="1.5" d="M0,-3.0v7 M-2.5,-0.5L0,-3.0L2.5,-0.5"/>
                </g>
                <g id="arrowDown" xlink:href="#dirArrow" transform="rotate(180) translate(-30 -48)" onmousedown="handlePan(0,1)">
                  <use xlink:href="#rim" fill="#404040">
                        <set attributeName="fill" to="#808080" begin="arrowDown.mouseover" end="arrowDown.mouseout"/>
                  </use>
                  <path fill="none" stroke="white" stroke-width="1.5" d="M0,-3.0v7 M-2.5,-0.5L0,-3.0L2.5,-0.5"/>
                </g>
                <g id="arrowLeft" xlink:href="#dirArrow" transform="rotate(270) translate(-36 17)" onmousedown="handlePan(-1,0)">
                  <use xlink:href="#rim" fill="#404040">
                        <set attributeName="fill" to="#808080" begin="arrowLeft.mouseover" end="arrowLeft.mouseout"/>
                  </use>
                  <path fill="none" stroke="white" stroke-width="1.5" d="M0,-3.0v7 M-2.5,-0.5L0,-3.0L2.5,-0.5"/>
                </g>
        </g>
        <svg viewBox="0 0 15 15" width="100%" height="30px" preserveAspectRatio="xMaxYMin meet">
         <g id="arrow_out" transform="scale(0.3 0.3)">
          <a xlink:href="struct_chimera_t_k_1_1_array_functor_fill__coll__graph_org.svg" target="_base">
           <rect id="button" ry="5" rx="5" y="6" x="6" height="38" width="38"
                fill="#f2f5e9" fill-opacity="0.5" stroke="#606060" stroke-width="1.0"/>
           <path id="arrow"
             d="M 11.500037,31.436501 C 11.940474,20.09759 22.043105,11.32322 32.158766,21.979434 L 37.068811,17.246167 C 37.068811,17.246167 37.088388,32 37.088388,32 L 22.160133,31.978069 C 22.160133,31.978069 26.997745,27.140456 26.997745,27.140456 C 18.528582,18.264221 13.291696,25.230495 11.500037,31.436501 z"
             style="fill:#404040;"/>
          </a>
         </g>
        </svg>
</svg>
