<?xml version="1.0" encoding="UTF-8" standalone="no"?>
<!DOCTYPE svg PUBLIC "-//W3C//DTD SVG 1.1//EN"
 "http://www.w3.org/Graphics/SVG/1.1/DTD/svg11.dtd">
<!-- Generated by graphviz version 2.40.1 (20161225.0304)
 -->
<!-- Title: ChimeraTK::StatusAccessor&lt; ACCESSOR &gt; Pages: 1 -->
<!--zoomable 137 -->
<svg id="main" version="1.1" xmlns="http://www.w3.org/2000/svg" xmlns:xlink="http://www.w3.org/1999/xlink" xml:space="preserve" onload="init(evt)">
<style type="text/css"><![CDATA[
.edge:hover path { stroke: red; }
.edge:hover polygon { stroke: red; fill: red; }
]]></style>
<script type="text/javascript"><![CDATA[
var edges = document.getElementsByTagName('g');
if (edges && edges.length) {
  for (var i=0;i<edges.length;i++) {
    if (edges[i].id.substr(0,4)=='edge') {
      edges[i].setAttribute('class','edge');
    }
  }
}
]]></script>
        <defs>
                <circle id="rim" cx="0" cy="0" r="7"/>
                <circle id="rim2" cx="0" cy="0" r="3.5"/>
                <g id="zoomPlus">
                        <use xlink:href="#rim" fill="#404040">
                                <set attributeName="fill" to="#808080" begin="zoomplus.mouseover" end="zoomplus.mouseout"/>
                        </use>
                        <path d="M-4,0h8M0,-4v8" fill="none" stroke="white" stroke-width="1.5" pointer-events="none"/>
                </g>
                <g id="zoomMin">
                        <use xlink:href="#rim" fill="#404040">
                                <set attributeName="fill" to="#808080" begin="zoomminus.mouseover" end="zoomminus.mouseout"/>
                        </use>
                        <path d="M-4,0h8" fill="none" stroke="white" stroke-width="1.5" pointer-events="none"/>
                </g>
                <g id="dirArrow">
                        <path fill="none" stroke="white" stroke-width="1.5" d="M0,-3.0v7 M-2.5,-0.5L0,-3.0L2.5,-0.5"/>
                </g>
               <g id="resetDef">
                       <use xlink:href="#rim2" fill="#404040">
                               <set attributeName="fill" to="#808080" begin="reset.mouseover" end="reset.mouseout"/>
                       </use>
               </g>
        </defs>

<script type="text/javascript">
var viewWidth = 826;
var viewHeight = 137;
var sectionId = 'dynsection-0';
</script>
<script xlink:href="svgpan.js"/>
<svg id="graph" class="graph">
<g id="viewport">
<title>ChimeraTK::StatusAccessor&lt; ACCESSOR &gt;</title>
<polygon fill="#ffffff" stroke="transparent" points="-4,4 -4,-133 822,-133 822,4 -4,4"/>
<!-- Node0 -->
<g id="node1" class="node">
<title>Node0</title>
<polygon fill="#bfbfbf" stroke="#000000" points="152,-49.5 152,-79.5 303,-79.5 303,-49.5 152,-49.5"/>
<text text-anchor="start" x="160" y="-67.5" font-family="Helvetica,sans-Serif" font-size="10.00" fill="#000000">ChimeraTK::StatusAccessor</text>
<text text-anchor="middle" x="227.5" y="-56.5" font-family="Helvetica,sans-Serif" font-size="10.00" fill="#000000">&lt; ACCESSOR &gt;</text>
</g>
<!-- Node3 -->
<g id="node4" class="node">
<title>Node3</title>
<g id="a_node4"><a xlink:href="struct_chimera_t_k_1_1_status_accessor.html" target="_top" xlink:title="ChimeraTK::StatusAccessor\l\&lt; ScalarPushInput\&lt; int32_t \&gt; \&gt;">
<polygon fill="#ffffff" stroke="#000000" points="453,-98.5 453,-128.5 626,-128.5 626,-98.5 453,-98.5"/>
<text text-anchor="start" x="461" y="-116.5" font-family="Helvetica,sans-Serif" font-size="10.00" fill="#000000">ChimeraTK::StatusAccessor</text>
<text text-anchor="middle" x="539.5" y="-105.5" font-family="Helvetica,sans-Serif" font-size="10.00" fill="#000000">&lt; ScalarPushInput&lt; int32_t &gt; &gt;</text>
</a>
</g>
</g>
<!-- Node0&#45;&gt;Node3 -->
<g id="edge3" class="edge">
<title>Node0&#45;&gt;Node3</title>
<path fill="none" stroke="#ffa500" stroke-dasharray="5,2" d="M288.0115,-82.1123C298.9266,-84.8788 310.2523,-87.4849 321,-89.5 364.1349,-97.5872 412.6086,-103.2517 452.9199,-107.0382"/>
<polygon fill="#ffa500" stroke="#ffa500" points="288.6904,-78.6725 278.1311,-79.539 286.9261,-85.4465 288.6904,-78.6725"/>
<text text-anchor="start" x="327.5" y="-118.5" font-family="Helvetica,sans-Serif" font-size="10.00" fill="#000000"> &lt; ScalarPushInput&lt;</text>
<text text-anchor="middle" x="378" y="-107.5" font-family="Helvetica,sans-Serif" font-size="10.00" fill="#000000"> int32_t &gt; &gt;</text>
</g>
<!-- Node5 -->
<g id="node6" class="node">
<title>Node5</title>
<g id="a_node6"><a xlink:href="struct_chimera_t_k_1_1_status_accessor.html" target="_top" xlink:title="ChimeraTK::StatusAccessor\l\&lt; ScalarPollInput\&lt; int32_t \&gt; \&gt;">
<polygon fill="#ffffff" stroke="#000000" points="455.5,-49.5 455.5,-79.5 623.5,-79.5 623.5,-49.5 455.5,-49.5"/>
<text text-anchor="start" x="463.5" y="-67.5" font-family="Helvetica,sans-Serif" font-size="10.00" fill="#000000">ChimeraTK::StatusAccessor</text>
<text text-anchor="middle" x="539.5" y="-56.5" font-family="Helvetica,sans-Serif" font-size="10.00" fill="#000000">&lt; ScalarPollInput&lt; int32_t &gt; &gt;</text>
</a>
</g>
</g>
<!-- Node0&#45;&gt;Node5 -->
<g id="edge5" class="edge">
<title>Node0&#45;&gt;Node5</title>
<path fill="none" stroke="#ffa500" stroke-dasharray="5,2" d="M313.1888,-64.5C357.4593,-64.5 411.283,-64.5 455.3317,-64.5"/>
<polygon fill="#ffa500" stroke="#ffa500" points="313.0265,-61.0001 303.0265,-64.5 313.0265,-68.0001 313.0265,-61.0001"/>
<text text-anchor="start" x="330" y="-78.5" font-family="Helvetica,sans-Serif" font-size="10.00" fill="#000000"> &lt; ScalarPollInput&lt;</text>
<text text-anchor="middle" x="378" y="-67.5" font-family="Helvetica,sans-Serif" font-size="10.00" fill="#000000"> int32_t &gt; &gt;</text>
</g>
<!-- Node7 -->
<g id="node8" class="node">
<title>Node7</title>
<g id="a_node8"><a xlink:href="struct_chimera_t_k_1_1_status_accessor.html" target="_top" xlink:title="ChimeraTK::StatusAccessor\l\&lt; ScalarOutput\&lt; int32_t \&gt; \&gt;">
<polygon fill="#ffffff" stroke="#000000" points="460.5,-.5 460.5,-30.5 618.5,-30.5 618.5,-.5 460.5,-.5"/>
<text text-anchor="start" x="468.5" y="-18.5" font-family="Helvetica,sans-Serif" font-size="10.00" fill="#000000">ChimeraTK::StatusAccessor</text>
<text text-anchor="middle" x="539.5" y="-7.5" font-family="Helvetica,sans-Serif" font-size="10.00" fill="#000000">&lt; ScalarOutput&lt; int32_t &gt; &gt;</text>
</a>
</g>
</g>
<!-- Node0&#45;&gt;Node7 -->
<g id="edge7" class="edge">
<title>Node0&#45;&gt;Node7</title>
<path fill="none" stroke="#ffa500" stroke-dasharray="5,2" d="M285.3458,-46.8022C297.0639,-43.6741 309.3622,-40.7147 321,-38.5 366.8085,-29.7827 418.6938,-24.1461 460.4058,-20.6358"/>
<polygon fill="#ffa500" stroke="#ffa500" points="284.3845,-43.4365 275.6663,-49.4568 286.2359,-50.1873 284.3845,-43.4365"/>
<text text-anchor="start" x="321" y="-52.5" font-family="Helvetica,sans-Serif" font-size="10.00" fill="#000000"> &lt; ScalarOutput&lt; int32</text>
<text text-anchor="middle" x="378" y="-41.5" font-family="Helvetica,sans-Serif" font-size="10.00" fill="#000000">_t &gt; &gt;</text>
</g>
<!-- Node1 -->
<g id="node2" class="node">
<title>Node1</title>
<polygon fill="#ffffff" stroke="#bfbfbf" points="23,-74 23,-93 92,-93 92,-74 23,-74"/>
<text text-anchor="middle" x="57.5" y="-81" font-family="Helvetica,sans-Serif" font-size="10.00" fill="#000000">ACCESSOR</text>
</g>
<!-- Node1&#45;&gt;Node0 -->
<g id="edge1" class="edge">
<title>Node1&#45;&gt;Node0</title>
<path fill="none" stroke="#191970" d="M102.401,-78.4817C117.5285,-76.7909 134.8542,-74.8545 151.693,-72.9725"/>
<polygon fill="#191970" stroke="#191970" points="101.8616,-75.0201 92.3123,-79.6092 102.6392,-81.9767 101.8616,-75.0201"/>
</g>
<!-- Node2 -->
<g id="node3" class="node">
<title>Node2</title>
<polygon fill="#ffffff" stroke="#bfbfbf" points="0,-36 0,-55 115,-55 115,-36 0,-36"/>
<text text-anchor="middle" x="57.5" y="-43" font-family="Helvetica,sans-Serif" font-size="10.00" fill="#000000">StatusAccessorBase</text>
</g>
<!-- Node2&#45;&gt;Node0 -->
<g id="edge2" class="edge">
<title>Node2&#45;&gt;Node0</title>
<path fill="none" stroke="#191970" d="M125.2163,-53.0683C133.9936,-54.0493 143.0276,-55.059 151.9223,-56.0531"/>
<polygon fill="#191970" stroke="#191970" points="125.3812,-49.565 115.0542,-51.9325 124.6036,-56.5217 125.3812,-49.565"/>
</g>
<!-- Node4 -->
<g id="node5" class="node">
<title>Node4</title>
<g id="a_node5"><a xlink:href="struct_chimera_t_k_1_1_status_push_input.html" target="_top" xlink:title="Special StatusPushInput which reads from a StatusOutput and also handles the type conversion...">
<polygon fill="#ffffff" stroke="#000000" points="663,-104 663,-123 818,-123 818,-104 663,-104"/>
<text text-anchor="middle" x="740.5" y="-111" font-family="Helvetica,sans-Serif" font-size="10.00" fill="#000000">ChimeraTK::StatusPushInput</text>
</a>
</g>
</g>
<!-- Node3&#45;&gt;Node4 -->
<g id="edge4" class="edge">
<title>Node3&#45;&gt;Node4</title>
<path fill="none" stroke="#191970" d="M636.2708,-113.5C645.2186,-113.5 654.2058,-113.5 662.9482,-113.5"/>
<polygon fill="#191970" stroke="#191970" points="636.2005,-110.0001 626.2005,-113.5 636.2005,-117.0001 636.2005,-110.0001"/>
</g>
<!-- Node6 -->
<g id="node7" class="node">
<title>Node6</title>
<g id="a_node7"><a xlink:href="struct_chimera_t_k_1_1_status_poll_input.html" target="_top" xlink:title="Special StatusPollInput which reads from a StatusOutput and also handles the type conversion...">
<polygon fill="#ffffff" stroke="#000000" points="665.5,-55 665.5,-74 815.5,-74 815.5,-55 665.5,-55"/>
<text text-anchor="middle" x="740.5" y="-62" font-family="Helvetica,sans-Serif" font-size="10.00" fill="#000000">ChimeraTK::StatusPollInput</text>
</a>
</g>
</g>
<!-- Node5&#45;&gt;Node6 -->
<g id="edge6" class="edge">
<title>Node5&#45;&gt;Node6</title>
<path fill="none" stroke="#191970" d="M633.7202,-64.5C644.3455,-64.5 655.0648,-64.5 665.4005,-64.5"/>
<polygon fill="#191970" stroke="#191970" points="633.5775,-61.0001 623.5775,-64.5 633.5774,-68.0001 633.5775,-61.0001"/>
</g>
<!-- Node8 -->
<g id="node9" class="node">
<title>Node8</title>
<g id="a_node9"><a xlink:href="struct_chimera_t_k_1_1_status_output.html" target="_top" xlink:title="Special ScalarOutput which represents a status which can be aggregated by the StatusAggregator. ">
<polygon fill="#ffffff" stroke="#000000" points="670.5,-6 670.5,-25 810.5,-25 810.5,-6 670.5,-6"/>
<text text-anchor="middle" x="740.5" y="-13" font-family="Helvetica,sans-Serif" font-size="10.00" fill="#000000">ChimeraTK::StatusOutput</text>
</a>
</g>
</g>
<!-- Node7&#45;&gt;Node8 -->
<g id="edge8" class="edge">
<title>Node7&#45;&gt;Node8</title>
<path fill="none" stroke="#191970" d="M628.712,-15.5C642.6198,-15.5 656.8197,-15.5 670.2281,-15.5"/>
<polygon fill="#191970" stroke="#191970" points="628.652,-12.0001 618.652,-15.5 628.652,-19.0001 628.652,-12.0001"/>
</g>
</g>
</svg>
        <g id="navigator" transform="translate(0 0)" fill="#404254">
                <rect fill="#f2f5e9" fill-opacity="0.5" stroke="#606060" stroke-width=".5" x="0" y="0" width="60" height="60"/>
                <use id="zoomplus" xlink:href="#zoomPlus" x="17" y="9" onmousedown="handleZoom(evt,'in')"/>
                <use id="zoomminus" xlink:href="#zoomMin" x="42" y="9" onmousedown="handleZoom(evt,'out')"/>
                <use id="reset" xlink:href="#resetDef" x="30" y="36" onmousedown="handleReset()"/>
                <g id="arrowUp" xlink:href="#dirArrow" transform="translate(30 24)" onmousedown="handlePan(0,-1)">
                  <use xlink:href="#rim" fill="#404040">
                        <set attributeName="fill" to="#808080" begin="arrowUp.mouseover" end="arrowUp.mouseout"/>
                  </use>
                  <path fill="none" stroke="white" stroke-width="1.5" d="M0,-3.0v7 M-2.5,-0.5L0,-3.0L2.5,-0.5"/>
                </g>
                <g id="arrowRight" xlink:href="#dirArrow" transform="rotate(90) translate(36 -43)" onmousedown="handlePan(1,0)">
                  <use xlink:href="#rim" fill="#404040">
                        <set attributeName="fill" to="#808080" begin="arrowRight.mouseover" end="arrowRight.mouseout"/>
                  </use>
                  <path fill="none" stroke="white" stroke-width="1.5" d="M0,-3.0v7 M-2.5,-0.5L0,-3.0L2.5,-0.5"/>
                </g>
                <g id="arrowDown" xlink:href="#dirArrow" transform="rotate(180) translate(-30 -48)" onmousedown="handlePan(0,1)">
                  <use xlink:href="#rim" fill="#404040">
                        <set attributeName="fill" to="#808080" begin="arrowDown.mouseover" end="arrowDown.mouseout"/>
                  </use>
                  <path fill="none" stroke="white" stroke-width="1.5" d="M0,-3.0v7 M-2.5,-0.5L0,-3.0L2.5,-0.5"/>
                </g>
                <g id="arrowLeft" xlink:href="#dirArrow" transform="rotate(270) translate(-36 17)" onmousedown="handlePan(-1,0)">
                  <use xlink:href="#rim" fill="#404040">
                        <set attributeName="fill" to="#808080" begin="arrowLeft.mouseover" end="arrowLeft.mouseout"/>
                  </use>
                  <path fill="none" stroke="white" stroke-width="1.5" d="M0,-3.0v7 M-2.5,-0.5L0,-3.0L2.5,-0.5"/>
                </g>
        </g>
        <svg viewBox="0 0 15 15" width="100%" height="30px" preserveAspectRatio="xMaxYMin meet">
         <g id="arrow_out" transform="scale(0.3 0.3)">
          <a xlink:href="struct_chimera_t_k_1_1_status_accessor__inherit__graph_org.svg" target="_base">
           <rect id="button" ry="5" rx="5" y="6" x="6" height="38" width="38"
                fill="#f2f5e9" fill-opacity="0.5" stroke="#606060" stroke-width="1.0"/>
           <path id="arrow"
             d="M 11.500037,31.436501 C 11.940474,20.09759 22.043105,11.32322 32.158766,21.979434 L 37.068811,17.246167 C 37.068811,17.246167 37.088388,32 37.088388,32 L 22.160133,31.978069 C 22.160133,31.978069 26.997745,27.140456 26.997745,27.140456 C 18.528582,18.264221 13.291696,25.230495 11.500037,31.436501 z"
             style="fill:#404040;"/>
          </a>
         </g>
        </svg>
</svg>
