<?xml version="1.0" encoding="UTF-8" standalone="no"?>
<!DOCTYPE svg PUBLIC "-//W3C//DTD SVG 1.1//EN"
 "http://www.w3.org/Graphics/SVG/1.1/DTD/svg11.dtd">
<!-- Generated by graphviz version 2.43.0 (0)
 -->
<!-- Title: ModuleA Pages: 1 -->
<svg width="2305pt" height="625pt"
 viewBox="0.00 0.00 2305.00 625.02" xmlns="http://www.w3.org/2000/svg" xmlns:xlink="http://www.w3.org/1999/xlink">
<g id="graph0" class="graph" transform="scale(1 1) rotate(0) translate(4 621.02)">
<title>ModuleA</title>
<polygon fill="white" stroke="transparent" points="-4,4 -4,-621.02 2301,-621.02 2301,4 -4,4"/>
<!-- Node1 -->
<g id="node1" class="node">
<title>Node1</title>
<g id="a_node1"><a xlink:title="ModuleA has two additional inputs to get invalidity flags. It is reading all inputs with ReadAny.">
<polygon fill="#bfbfbf" stroke="black" points="2238,-227.02 2238,-246.02 2297,-246.02 2297,-227.02 2238,-227.02"/>
<text text-anchor="middle" x="2267.5" y="-234.02" font-family="Helvetica,sans-Serif" font-size="10.00">ModuleA</text>
</a>
</g>
</g>
<!-- Node2 -->
<g id="node2" class="node">
<title>Node2</title>
<g id="a_node2"><a xlink:href="class_chimera_t_k_1_1_application_module.html" target="_top" xlink:title=" ">
<polygon fill="white" stroke="black" points="1823,-403.02 1823,-422.02 1990,-422.02 1990,-403.02 1823,-403.02"/>
<text text-anchor="middle" x="1906.5" y="-410.02" font-family="Helvetica,sans-Serif" font-size="10.00">ChimeraTK::ApplicationModule</text>
</a>
</g>
</g>
<!-- Node2&#45;&gt;Node1 -->
<g id="edge1" class="edge">
<title>Node2&#45;&gt;Node1</title>
<path fill="none" stroke="midnightblue" d="M2000.16,-403.44C2061.98,-393.51 2142.37,-372.77 2201,-329.52 2231.83,-306.78 2253.55,-265.1 2262.26,-246.25"/>
<polygon fill="midnightblue" stroke="midnightblue" points="1999.36,-400.02 1990.01,-405 2000.43,-406.94 1999.36,-400.02"/>
</g>
<!-- Node25 -->
<g id="node25" class="node">
<title>Node25</title>
<g id="a_node25"><a xlink:href="struct_test_module_base.html" target="_top" xlink:title="The base module has the inputs and outputs for the circular dependency.">
<polygon fill="white" stroke="black" points="2105,-301.02 2105,-320.02 2201,-320.02 2201,-301.02 2105,-301.02"/>
<text text-anchor="middle" x="2153" y="-308.02" font-family="Helvetica,sans-Serif" font-size="10.00">TestModuleBase</text>
</a>
</g>
</g>
<!-- Node2&#45;&gt;Node25 -->
<g id="edge33" class="edge">
<title>Node2&#45;&gt;Node25</title>
<path fill="none" stroke="midnightblue" d="M1939.9,-399.01C1990.01,-378.1 2085.1,-338.43 2128.88,-320.17"/>
<polygon fill="midnightblue" stroke="midnightblue" points="1938.38,-395.85 1930.5,-402.93 1941.08,-402.31 1938.38,-395.85"/>
</g>
<!-- Node3 -->
<g id="node3" class="node">
<title>Node3</title>
<g id="a_node3"><a xlink:href="class_chimera_t_k_1_1_variable_group.html" target="_top" xlink:title=" ">
<polygon fill="white" stroke="black" points="1541.5,-471.02 1541.5,-490.02 1687.5,-490.02 1687.5,-471.02 1541.5,-471.02"/>
<text text-anchor="middle" x="1614.5" y="-478.02" font-family="Helvetica,sans-Serif" font-size="10.00">ChimeraTK::VariableGroup</text>
</a>
</g>
</g>
<!-- Node3&#45;&gt;Node2 -->
<g id="edge2" class="edge">
<title>Node3&#45;&gt;Node2</title>
<path fill="none" stroke="midnightblue" d="M1665.9,-468.71C1722.29,-455.49 1812.53,-434.32 1864.68,-422.1"/>
<polygon fill="midnightblue" stroke="midnightblue" points="1665.07,-465.31 1656.13,-471 1666.66,-472.12 1665.07,-465.31"/>
</g>
<!-- Node4 -->
<g id="node4" class="node">
<title>Node4</title>
<g id="a_node4"><a xlink:href="class_chimera_t_k_1_1_module.html" target="_top" xlink:title="Base class for ApplicationModule and DeviceModule, to have a common interface for these module types.">
<polygon fill="white" stroke="black" points="1197.5,-418.02 1197.5,-437.02 1310.5,-437.02 1310.5,-418.02 1197.5,-418.02"/>
<text text-anchor="middle" x="1254" y="-425.02" font-family="Helvetica,sans-Serif" font-size="10.00">ChimeraTK::Module</text>
</a>
</g>
</g>
<!-- Node4&#45;&gt;Node3 -->
<g id="edge3" class="edge">
<title>Node4&#45;&gt;Node3</title>
<path fill="none" stroke="midnightblue" d="M1320.75,-437.24C1385.69,-446.85 1484.42,-461.44 1548.95,-470.98"/>
<polygon fill="midnightblue" stroke="midnightblue" points="1321.03,-433.75 1310.62,-435.75 1320,-440.67 1321.03,-433.75"/>
</g>
<!-- Node14 -->
<g id="node14" class="node">
<title>Node14</title>
<g id="a_node14"><a xlink:title=" ">
<polygon fill="white" stroke="#bfbfbf" points="1555.5,-421.52 1555.5,-451.52 1673.5,-451.52 1673.5,-421.52 1555.5,-421.52"/>
<text text-anchor="start" x="1563.5" y="-439.52" font-family="Helvetica,sans-Serif" font-size="10.00">std::list&lt; ChimeraTK</text>
<text text-anchor="middle" x="1614.5" y="-428.52" font-family="Helvetica,sans-Serif" font-size="10.00">::Module * &gt;</text>
</a>
</g>
</g>
<!-- Node4&#45;&gt;Node14 -->
<g id="edge15" class="edge">
<title>Node4&#45;&gt;Node14</title>
<path fill="none" stroke="#9a32cd" stroke-dasharray="5,2" d="M1320.78,-423.55C1329.92,-423.12 1339.19,-422.76 1348,-422.52 1422.2,-420.53 1440.96,-417.29 1515,-422.52 1528.09,-423.45 1542.1,-425.06 1555.31,-426.87"/>
<polygon fill="#9a32cd" stroke="#9a32cd" points="1320.37,-420.06 1310.55,-424.05 1320.71,-427.05 1320.37,-420.06"/>
<text text-anchor="middle" x="1431.5" y="-425.52" font-family="Helvetica,sans-Serif" font-size="10.00"> elements</text>
</g>
<!-- Node5 -->
<g id="node5" class="node">
<title>Node5</title>
<g id="a_node5"><a xlink:href="class_chimera_t_k_1_1_entity_owner.html" target="_top" xlink:title="Base class for owners of other EntityOwners (e.g.">
<polygon fill="white" stroke="black" points="950.5,-380.02 950.5,-399.02 1087.5,-399.02 1087.5,-380.02 950.5,-380.02"/>
<text text-anchor="middle" x="1019" y="-387.02" font-family="Helvetica,sans-Serif" font-size="10.00">ChimeraTK::EntityOwner</text>
</a>
</g>
</g>
<!-- Node5&#45;&gt;Node4 -->
<g id="edge4" class="edge">
<title>Node5&#45;&gt;Node4</title>
<path fill="none" stroke="midnightblue" d="M1051.71,-402.89C1071.3,-410.46 1097.16,-419.25 1121,-423.52 1145.82,-427.98 1173.69,-429.34 1197.39,-429.45"/>
<polygon fill="midnightblue" stroke="midnightblue" points="1052.95,-399.61 1042.36,-399.18 1050.37,-406.12 1052.95,-399.61"/>
</g>
<!-- Node5&#45;&gt;Node4 -->
<g id="edge21" class="edge">
<title>Node5&#45;&gt;Node4</title>
<path fill="none" stroke="#9a32cd" stroke-dasharray="5,2" d="M1096.31,-400.52C1116.99,-403.62 1139.37,-407.09 1160,-410.52 1173.76,-412.81 1188.64,-415.46 1202.37,-417.97"/>
<polygon fill="#9a32cd" stroke="#9a32cd" points="1096.71,-397.04 1086.3,-399.03 1095.67,-403.96 1096.71,-397.04"/>
<text text-anchor="middle" x="1140.5" y="-413.52" font-family="Helvetica,sans-Serif" font-size="10.00"> _owner</text>
</g>
<!-- Node6 -->
<g id="node6" class="node">
<title>Node6</title>
<g id="a_node6"><a xlink:title=" ">
<polygon fill="white" stroke="#bfbfbf" points="590.5,-425.02 590.5,-444.02 705.5,-444.02 705.5,-425.02 590.5,-425.02"/>
<text text-anchor="middle" x="648" y="-432.02" font-family="Helvetica,sans-Serif" font-size="10.00">std::atomic&lt; bool &gt;</text>
</a>
</g>
</g>
<!-- Node6&#45;&gt;Node5 -->
<g id="edge5" class="edge">
<title>Node6&#45;&gt;Node5</title>
<path fill="none" stroke="#9a32cd" stroke-dasharray="5,2" d="M715.72,-427.73C769.99,-422.04 848.52,-413.44 917,-404.52 929.74,-402.87 943.37,-400.94 956.36,-399.04"/>
<polygon fill="#9a32cd" stroke="#9a32cd" points="715.12,-424.27 705.54,-428.79 715.85,-431.23 715.12,-424.27"/>
<text text-anchor="middle" x="833.5" y="-426.52" font-family="Helvetica,sans-Serif" font-size="10.00"> _testableModeReached</text>
</g>
<!-- Node7 -->
<g id="node7" class="node">
<title>Node7</title>
<g id="a_node7"><a xlink:title=" ">
<polygon fill="white" stroke="#bfbfbf" points="230.5,-501.02 230.5,-520.02 330.5,-520.02 330.5,-501.02 230.5,-501.02"/>
<text text-anchor="middle" x="280.5" y="-508.02" font-family="Helvetica,sans-Serif" font-size="10.00">std::atomic&lt; T &gt;</text>
</a>
</g>
</g>
<!-- Node7&#45;&gt;Node6 -->
<g id="edge6" class="edge">
<title>Node7&#45;&gt;Node6</title>
<path fill="none" stroke="orange" stroke-dasharray="5,2" d="M340.81,-501.11C351.39,-498.58 362.16,-495.43 372,-491.52 380.71,-488.07 381.23,-483.85 390,-480.52 456.11,-455.43 537.08,-443.84 590.25,-438.61"/>
<polygon fill="orange" stroke="orange" points="339.77,-497.76 330.77,-503.35 341.3,-504.59 339.77,-497.76"/>
<text text-anchor="middle" x="468" y="-483.52" font-family="Helvetica,sans-Serif" font-size="10.00"> &lt; bool &gt;</text>
</g>
<!-- Node22 -->
<g id="node22" class="node">
<title>Node22</title>
<g id="a_node22"><a xlink:title=" ">
<polygon fill="white" stroke="#bfbfbf" points="772.5,-506.02 772.5,-525.02 894.5,-525.02 894.5,-506.02 772.5,-506.02"/>
<text text-anchor="middle" x="833.5" y="-513.02" font-family="Helvetica,sans-Serif" font-size="10.00">std::atomic&lt; size_t &gt;</text>
</a>
</g>
</g>
<!-- Node7&#45;&gt;Node22 -->
<g id="edge28" class="edge">
<title>Node7&#45;&gt;Node22</title>
<path fill="none" stroke="orange" stroke-dasharray="5,2" d="M341.06,-511.06C446.78,-512.02 666.09,-514.01 772.28,-514.98"/>
<polygon fill="orange" stroke="orange" points="340.91,-507.56 330.88,-510.97 340.85,-514.56 340.91,-507.56"/>
<text text-anchor="middle" x="468" y="-515.52" font-family="Helvetica,sans-Serif" font-size="10.00"> &lt; size_t &gt;</text>
</g>
<!-- Node8 -->
<g id="node8" class="node">
<title>Node8</title>
<g id="a_node8"><a xlink:title=" ">
<polygon fill="white" stroke="#bfbfbf" points="37.5,-501.02 37.5,-520.02 66.5,-520.02 66.5,-501.02 37.5,-501.02"/>
<text text-anchor="middle" x="52" y="-508.02" font-family="Helvetica,sans-Serif" font-size="10.00">T</text>
</a>
</g>
</g>
<!-- Node8&#45;&gt;Node7 -->
<g id="edge7" class="edge">
<title>Node8&#45;&gt;Node7</title>
<path fill="none" stroke="#9a32cd" stroke-dasharray="5,2" d="M76.97,-510.52C113.3,-510.52 183.09,-510.52 230.48,-510.52"/>
<polygon fill="#9a32cd" stroke="#9a32cd" points="76.83,-507.02 66.83,-510.52 76.83,-514.02 76.83,-507.02"/>
<text text-anchor="middle" x="146.5" y="-513.52" font-family="Helvetica,sans-Serif" font-size="10.00"> ptr</text>
</g>
<!-- Node15 -->
<g id="node15" class="node">
<title>Node15</title>
<g id="a_node15"><a xlink:title=" ">
<polygon fill="white" stroke="#bfbfbf" points="240,-463.02 240,-482.02 321,-482.02 321,-463.02 240,-463.02"/>
<text text-anchor="middle" x="280.5" y="-470.02" font-family="Helvetica,sans-Serif" font-size="10.00">std::list&lt; T &gt;</text>
</a>
</g>
</g>
<!-- Node8&#45;&gt;Node15 -->
<g id="edge17" class="edge">
<title>Node8&#45;&gt;Node15</title>
<path fill="none" stroke="#9a32cd" stroke-dasharray="5,2" d="M76.47,-505C89.78,-501.97 106.77,-498.29 122,-495.52 161.97,-488.27 207.97,-481.76 239.89,-477.54"/>
<polygon fill="#9a32cd" stroke="#9a32cd" points="75.65,-501.6 66.69,-507.26 77.22,-508.42 75.65,-501.6"/>
<text text-anchor="middle" x="146.5" y="-498.52" font-family="Helvetica,sans-Serif" font-size="10.00"> elements</text>
</g>
<!-- Node21 -->
<g id="node21" class="node">
<title>Node21</title>
<g id="a_node21"><a xlink:title=" ">
<polygon fill="white" stroke="#bfbfbf" points="221.5,-542.02 221.5,-561.02 339.5,-561.02 339.5,-542.02 221.5,-542.02"/>
<text text-anchor="middle" x="280.5" y="-549.02" font-family="Helvetica,sans-Serif" font-size="10.00">std::shared_ptr&lt; T &gt;</text>
</a>
</g>
</g>
<!-- Node8&#45;&gt;Node21 -->
<g id="edge26" class="edge">
<title>Node8&#45;&gt;Node21</title>
<path fill="none" stroke="#9a32cd" stroke-dasharray="5,2" d="M76.49,-515.94C89.81,-518.93 106.8,-522.62 122,-525.52 154.8,-531.79 191.62,-537.92 221.41,-542.65"/>
<polygon fill="#9a32cd" stroke="#9a32cd" points="77.23,-512.52 66.7,-513.72 75.68,-519.34 77.23,-512.52"/>
<text text-anchor="middle" x="146.5" y="-536.52" font-family="Helvetica,sans-Serif" font-size="10.00"> ptr</text>
</g>
<!-- Node9 -->
<g id="node9" class="node">
<title>Node9</title>
<g id="a_node9"><a xlink:title=" ">
<polygon fill="white" stroke="#bfbfbf" points="248,-247.02 248,-266.02 313,-266.02 313,-247.02 248,-247.02"/>
<text text-anchor="middle" x="280.5" y="-254.02" font-family="Helvetica,sans-Serif" font-size="10.00">std::string</text>
</a>
</g>
</g>
<!-- Node9&#45;&gt;Node5 -->
<g id="edge8" class="edge">
<title>Node9&#45;&gt;Node5</title>
<path fill="none" stroke="#9a32cd" stroke-dasharray="5,2" d="M323.27,-246.88C403.52,-229.95 584.36,-199.58 732,-231.52 850.37,-257.14 970.22,-349.92 1006.76,-380.02"/>
<polygon fill="#9a32cd" stroke="#9a32cd" points="322.12,-243.54 313.08,-249.07 323.6,-250.39 322.12,-243.54"/>
<text text-anchor="middle" x="648" y="-256.52" font-family="Helvetica,sans-Serif" font-size="10.00"> _description</text>
<text text-anchor="middle" x="648" y="-245.52" font-family="Helvetica,sans-Serif" font-size="10.00">_name</text>
<text text-anchor="middle" x="648" y="-234.52" font-family="Helvetica,sans-Serif" font-size="10.00">namePrefixConstant</text>
</g>
<!-- Node11 -->
<g id="node11" class="node">
<title>Node11</title>
<g id="a_node11"><a xlink:title=" ">
<polygon fill="white" stroke="#bfbfbf" points="594.5,-274.52 594.5,-304.52 701.5,-304.52 701.5,-274.52 594.5,-274.52"/>
<text text-anchor="start" x="602.5" y="-292.52" font-family="Helvetica,sans-Serif" font-size="10.00">std::unordered_set</text>
<text text-anchor="middle" x="648" y="-281.52" font-family="Helvetica,sans-Serif" font-size="10.00">&lt; std::string &gt;</text>
</a>
</g>
</g>
<!-- Node9&#45;&gt;Node11 -->
<g id="edge11" class="edge">
<title>Node9&#45;&gt;Node11</title>
<path fill="none" stroke="#9a32cd" stroke-dasharray="5,2" d="M323.47,-260.31C390.42,-266.36 521.25,-278.17 594.36,-284.77"/>
<polygon fill="#9a32cd" stroke="#9a32cd" points="323.57,-256.81 313.3,-259.4 322.94,-263.78 323.57,-256.81"/>
<text text-anchor="middle" x="468" y="-283.52" font-family="Helvetica,sans-Serif" font-size="10.00"> keys</text>
</g>
<!-- Node10 -->
<g id="node10" class="node">
<title>Node10</title>
<g id="a_node10"><a xlink:title=" ">
<polygon fill="white" stroke="#bfbfbf" points="0,-241.52 0,-271.52 104,-271.52 104,-241.52 0,-241.52"/>
<text text-anchor="start" x="8" y="-259.52" font-family="Helvetica,sans-Serif" font-size="10.00">std::basic_string&lt;</text>
<text text-anchor="middle" x="52" y="-248.52" font-family="Helvetica,sans-Serif" font-size="10.00"> Char &gt;</text>
</a>
</g>
</g>
<!-- Node10&#45;&gt;Node9 -->
<g id="edge9" class="edge">
<title>Node10&#45;&gt;Node9</title>
<path fill="none" stroke="midnightblue" d="M114.22,-256.52C157.33,-256.52 213.29,-256.52 247.78,-256.52"/>
<polygon fill="midnightblue" stroke="midnightblue" points="114.11,-253.02 104.11,-256.52 114.11,-260.02 114.11,-253.02"/>
</g>
<!-- Node11&#45;&gt;Node5 -->
<g id="edge10" class="edge">
<title>Node11&#45;&gt;Node5</title>
<path fill="none" stroke="#9a32cd" stroke-dasharray="5,2" d="M711.58,-306.48C789.59,-327.63 920.26,-363.04 982.7,-379.96"/>
<polygon fill="#9a32cd" stroke="#9a32cd" points="712.44,-303.09 701.87,-303.85 710.61,-309.85 712.44,-303.09"/>
<text text-anchor="middle" x="833.5" y="-362.52" font-family="Helvetica,sans-Serif" font-size="10.00"> _tags</text>
</g>
<!-- Node12 -->
<g id="node12" class="node">
<title>Node12</title>
<g id="a_node12"><a xlink:title=" ">
<polygon fill="white" stroke="#bfbfbf" points="212,-187.02 212,-206.02 349,-206.02 349,-187.02 212,-187.02"/>
<text text-anchor="middle" x="280.5" y="-194.02" font-family="Helvetica,sans-Serif" font-size="10.00">std::unordered_set&lt; K &gt;</text>
</a>
</g>
</g>
<!-- Node12&#45;&gt;Node11 -->
<g id="edge12" class="edge">
<title>Node12&#45;&gt;Node11</title>
<path fill="none" stroke="orange" stroke-dasharray="5,2" d="M349.83,-207.84C403.69,-217.51 480.39,-232.96 546,-252.52 554.23,-254.98 555.96,-256.51 564,-259.52 577.2,-264.48 591.63,-269.74 604.7,-274.46"/>
<polygon fill="orange" stroke="orange" points="350.17,-204.35 339.71,-206.04 348.94,-211.24 350.17,-204.35"/>
<text text-anchor="middle" x="468" y="-255.52" font-family="Helvetica,sans-Serif" font-size="10.00"> &lt; std::string &gt;</text>
</g>
<!-- Node13 -->
<g id="node13" class="node">
<title>Node13</title>
<g id="a_node13"><a xlink:title=" ">
<polygon fill="white" stroke="#bfbfbf" points="37.5,-187.02 37.5,-206.02 66.5,-206.02 66.5,-187.02 37.5,-187.02"/>
<text text-anchor="middle" x="52" y="-194.02" font-family="Helvetica,sans-Serif" font-size="10.00">K</text>
</a>
</g>
</g>
<!-- Node13&#45;&gt;Node12 -->
<g id="edge13" class="edge">
<title>Node13&#45;&gt;Node12</title>
<path fill="none" stroke="#9a32cd" stroke-dasharray="5,2" d="M76.94,-196.52C108.72,-196.52 166.15,-196.52 211.76,-196.52"/>
<polygon fill="#9a32cd" stroke="#9a32cd" points="76.83,-193.02 66.83,-196.52 76.83,-200.02 76.83,-193.02"/>
<text text-anchor="middle" x="146.5" y="-199.52" font-family="Helvetica,sans-Serif" font-size="10.00"> keys</text>
</g>
<!-- Node14&#45;&gt;Node5 -->
<g id="edge14" class="edge">
<title>Node14&#45;&gt;Node5</title>
<path fill="none" stroke="#9a32cd" stroke-dasharray="5,2" d="M1545.33,-420.95C1535.2,-418.93 1524.85,-417.05 1515,-415.52 1363.62,-392.1 1183.44,-388.68 1087.7,-388.77"/>
<polygon fill="#9a32cd" stroke="#9a32cd" points="1544.87,-424.42 1555.37,-422.99 1546.27,-417.57 1544.87,-424.42"/>
<text text-anchor="middle" x="1254" y="-398.52" font-family="Helvetica,sans-Serif" font-size="10.00"> _moduleList</text>
</g>
<!-- Node15&#45;&gt;Node14 -->
<g id="edge16" class="edge">
<title>Node15&#45;&gt;Node14</title>
<path fill="none" stroke="orange" stroke-dasharray="5,2" d="M331.6,-472.52C402.02,-472.52 534.28,-472.52 647,-472.52 647,-472.52 647,-472.52 1255,-472.52 1361.34,-472.52 1484.54,-456.65 1555.31,-445.98"/>
<polygon fill="orange" stroke="orange" points="331.25,-469.02 321.25,-472.52 331.25,-476.02 331.25,-469.02"/>
<text text-anchor="middle" x="1019" y="-475.52" font-family="Helvetica,sans-Serif" font-size="10.00"> &lt; ChimeraTK::Module * &gt;</text>
</g>
<!-- Node16 -->
<g id="node16" class="node">
<title>Node16</title>
<g id="a_node16"><a xlink:title=" ">
<polygon fill="white" stroke="#bfbfbf" points="578,-374.52 578,-404.52 718,-404.52 718,-374.52 578,-374.52"/>
<text text-anchor="start" x="586" y="-392.52" font-family="Helvetica,sans-Serif" font-size="10.00">std::list&lt; ChimeraTK</text>
<text text-anchor="middle" x="648" y="-381.52" font-family="Helvetica,sans-Serif" font-size="10.00">::VariableNetworkNode &gt;</text>
</a>
</g>
</g>
<!-- Node15&#45;&gt;Node16 -->
<g id="edge20" class="edge">
<title>Node15&#45;&gt;Node16</title>
<path fill="none" stroke="orange" stroke-dasharray="5,2" d="M305.3,-457.62C326.64,-445.02 359.24,-427.61 390,-418.52 451.9,-400.25 525.32,-393.35 577.8,-390.82"/>
<polygon fill="orange" stroke="orange" points="303.37,-454.7 296.61,-462.86 306.98,-460.7 303.37,-454.7"/>
<text text-anchor="start" x="390" y="-432.52" font-family="Helvetica,sans-Serif" font-size="10.00"> &lt; ChimeraTK::VariableNetwork</text>
<text text-anchor="middle" x="468" y="-421.52" font-family="Helvetica,sans-Serif" font-size="10.00">Node &gt;</text>
</g>
<!-- Node16&#45;&gt;Node5 -->
<g id="edge18" class="edge">
<title>Node16&#45;&gt;Node5</title>
<path fill="none" stroke="#9a32cd" stroke-dasharray="5,2" d="M728.78,-389.52C794.94,-389.52 887.94,-389.52 950.46,-389.52"/>
<polygon fill="#9a32cd" stroke="#9a32cd" points="728.41,-386.02 718.41,-389.52 728.41,-393.02 728.41,-386.02"/>
<text text-anchor="middle" x="833.5" y="-392.52" font-family="Helvetica,sans-Serif" font-size="10.00"> _accessorList</text>
</g>
<!-- Node17 -->
<g id="node17" class="node">
<title>Node17</title>
<g id="a_node17"><a xlink:href="class_chimera_t_k_1_1_variable_network_node.html" target="_top" xlink:title="Class describing a node of a variable network.">
<polygon fill="white" stroke="black" points="189,-341.02 189,-360.02 372,-360.02 372,-341.02 189,-341.02"/>
<text text-anchor="middle" x="280.5" y="-348.02" font-family="Helvetica,sans-Serif" font-size="10.00">ChimeraTK::VariableNetworkNode</text>
</a>
</g>
</g>
<!-- Node17&#45;&gt;Node16 -->
<g id="edge19" class="edge">
<title>Node17&#45;&gt;Node16</title>
<path fill="none" stroke="#9a32cd" stroke-dasharray="5,2" d="M382.17,-354.13C431.68,-356.73 492.14,-361.13 546,-368.52 557.44,-370.1 569.53,-372.21 581.22,-374.49"/>
<polygon fill="#9a32cd" stroke="#9a32cd" points="382.26,-350.63 372.1,-353.62 381.91,-357.62 382.26,-350.63"/>
<text text-anchor="middle" x="468" y="-371.52" font-family="Helvetica,sans-Serif" font-size="10.00"> elements</text>
</g>
<!-- Node30 -->
<g id="node30" class="node">
<title>Node30</title>
<g id="a_node30"><a xlink:href="class_chimera_t_k_1_1_inversion_of_control_accessor.html" target="_top" xlink:title="Adds features required for inversion of control to an accessor.">
<polygon fill="white" stroke="black" points="564,-323.52 564,-353.52 732,-353.52 732,-323.52 564,-323.52"/>
<text text-anchor="start" x="572" y="-341.52" font-family="Helvetica,sans-Serif" font-size="10.00">ChimeraTK::InversionOfControl</text>
<text text-anchor="middle" x="648" y="-330.52" font-family="Helvetica,sans-Serif" font-size="10.00">Accessor&lt; Derived &gt;</text>
</a>
</g>
</g>
<!-- Node17&#45;&gt;Node30 -->
<g id="edge39" class="edge">
<title>Node17&#45;&gt;Node30</title>
<path fill="none" stroke="#9a32cd" stroke-dasharray="5,2" d="M345.37,-339.52C359.99,-337.44 375.5,-335.59 390,-334.52 459.15,-329.45 476.68,-333.15 546,-334.52 551.79,-334.64 557.77,-334.79 563.78,-334.97"/>
<polygon fill="#9a32cd" stroke="#9a32cd" points="344.8,-336.06 335.41,-340.98 345.82,-342.99 344.8,-336.06"/>
<text text-anchor="middle" x="468" y="-337.52" font-family="Helvetica,sans-Serif" font-size="10.00"> _node</text>
</g>
<!-- Node18 -->
<g id="node18" class="node">
<title>Node18</title>
<g id="a_node18"><a xlink:href="class_chimera_t_k_1_1_model_1_1_variable_group_proxy.html" target="_top" xlink:title=" ">
<polygon fill="white" stroke="black" points="1178,-548.52 1178,-578.52 1330,-578.52 1330,-548.52 1178,-548.52"/>
<text text-anchor="start" x="1186" y="-566.52" font-family="Helvetica,sans-Serif" font-size="10.00">ChimeraTK::Model::Variable</text>
<text text-anchor="middle" x="1254" y="-555.52" font-family="Helvetica,sans-Serif" font-size="10.00">GroupProxy</text>
</a>
</g>
</g>
<!-- Node18&#45;&gt;Node3 -->
<g id="edge22" class="edge">
<title>Node18&#45;&gt;Node3</title>
<path fill="none" stroke="#9a32cd" stroke-dasharray="5,2" d="M1330.06,-546.15C1403.68,-529.1 1513.22,-503.74 1572.25,-490.08"/>
<polygon fill="#9a32cd" stroke="#9a32cd" points="1328.87,-542.83 1319.92,-548.49 1330.45,-549.65 1328.87,-542.83"/>
<text text-anchor="middle" x="1431.5" y="-543.52" font-family="Helvetica,sans-Serif" font-size="10.00"> _model</text>
</g>
<!-- Node19 -->
<g id="node19" class="node">
<title>Node19</title>
<g id="a_node19"><a xlink:href="class_chimera_t_k_1_1_model_1_1_proxy.html" target="_top" xlink:title="Base class for the proxies representing objects in the model.">
<polygon fill="white" stroke="black" points="949,-554.02 949,-573.02 1089,-573.02 1089,-554.02 949,-554.02"/>
<text text-anchor="middle" x="1019" y="-561.02" font-family="Helvetica,sans-Serif" font-size="10.00">ChimeraTK::Model::Proxy</text>
</a>
</g>
</g>
<!-- Node19&#45;&gt;Node18 -->
<g id="edge23" class="edge">
<title>Node19&#45;&gt;Node18</title>
<path fill="none" stroke="midnightblue" d="M1099.59,-563.52C1124.93,-563.52 1152.88,-563.52 1177.89,-563.52"/>
<polygon fill="midnightblue" stroke="midnightblue" points="1099.28,-560.02 1089.28,-563.52 1099.28,-567.02 1099.28,-560.02"/>
</g>
<!-- Node24 -->
<g id="node24" class="node">
<title>Node24</title>
<g id="a_node24"><a xlink:href="class_chimera_t_k_1_1_model_1_1_application_module_proxy.html" target="_top" xlink:title=" ">
<polygon fill="white" stroke="black" points="1348,-586.52 1348,-616.52 1515,-616.52 1515,-586.52 1348,-586.52"/>
<text text-anchor="start" x="1356" y="-604.52" font-family="Helvetica,sans-Serif" font-size="10.00">ChimeraTK::Model::Application</text>
<text text-anchor="middle" x="1431.5" y="-593.52" font-family="Helvetica,sans-Serif" font-size="10.00">ModuleProxy</text>
</a>
</g>
</g>
<!-- Node19&#45;&gt;Node24 -->
<g id="edge31" class="edge">
<title>Node19&#45;&gt;Node24</title>
<path fill="none" stroke="midnightblue" d="M1081.45,-574.79C1110.61,-579.74 1146,-585.18 1178,-588.52 1234.54,-594.44 1298.49,-597.69 1347.88,-599.47"/>
<polygon fill="midnightblue" stroke="midnightblue" points="1081.86,-571.31 1071.41,-573.06 1080.67,-578.21 1081.86,-571.31"/>
</g>
<!-- Node20 -->
<g id="node20" class="node">
<title>Node20</title>
<g id="a_node20"><a xlink:title=" ">
<polygon fill="white" stroke="#bfbfbf" points="564.5,-545.52 564.5,-575.52 731.5,-575.52 731.5,-545.52 564.5,-545.52"/>
<text text-anchor="start" x="572.5" y="-563.52" font-family="Helvetica,sans-Serif" font-size="10.00">std::shared_ptr&lt; Chimera</text>
<text text-anchor="middle" x="648" y="-552.52" font-family="Helvetica,sans-Serif" font-size="10.00">TK::Model::Proxy::ProxyData &gt;</text>
</a>
</g>
</g>
<!-- Node20&#45;&gt;Node19 -->
<g id="edge24" class="edge">
<title>Node20&#45;&gt;Node19</title>
<path fill="none" stroke="#9a32cd" stroke-dasharray="5,2" d="M741.95,-561.28C806.23,-561.8 890.36,-562.49 948.77,-562.96"/>
<polygon fill="#9a32cd" stroke="#9a32cd" points="741.84,-557.78 731.81,-561.2 741.78,-564.78 741.84,-557.78"/>
<text text-anchor="middle" x="833.5" y="-565.52" font-family="Helvetica,sans-Serif" font-size="10.00"> _d</text>
</g>
<!-- Node21&#45;&gt;Node20 -->
<g id="edge25" class="edge">
<title>Node21&#45;&gt;Node20</title>
<path fill="none" stroke="orange" stroke-dasharray="5,2" d="M350.07,-553.21C410.85,-554.71 499.73,-556.9 564.4,-558.49"/>
<polygon fill="orange" stroke="orange" points="349.9,-549.71 339.82,-552.96 349.73,-556.71 349.9,-549.71"/>
<text text-anchor="start" x="415.5" y="-571.52" font-family="Helvetica,sans-Serif" font-size="10.00"> &lt; ChimeraTK::Model</text>
<text text-anchor="middle" x="468" y="-560.52" font-family="Helvetica,sans-Serif" font-size="10.00">::Proxy::ProxyData &gt;</text>
</g>
<!-- Node22&#45;&gt;Node2 -->
<g id="edge27" class="edge">
<title>Node22&#45;&gt;Node2</title>
<path fill="none" stroke="#9a32cd" stroke-dasharray="5,2" d="M904.72,-516.61C966.53,-517.47 1058.99,-518.52 1139.5,-518.52 1139.5,-518.52 1139.5,-518.52 1615.5,-518.52 1727.27,-518.52 1849.34,-448.21 1890.8,-422.12"/>
<polygon fill="#9a32cd" stroke="#9a32cd" points="904.73,-513.11 894.68,-516.47 904.63,-520.11 904.73,-513.11"/>
<text text-anchor="middle" x="1254" y="-521.52" font-family="Helvetica,sans-Serif" font-size="10.00"> _dataFaultCounter</text>
</g>
<!-- Node23 -->
<g id="node23" class="node">
<title>Node23</title>
<g id="a_node23"><a xlink:title=" ">
<polygon fill="white" stroke="#bfbfbf" points="1533.5,-361.02 1533.5,-402.02 1695.5,-402.02 1695.5,-361.02 1533.5,-361.02"/>
<text text-anchor="start" x="1541.5" y="-390.02" font-family="Helvetica,sans-Serif" font-size="10.00">ChimeraTK::detail::</text>
<text text-anchor="start" x="1541.5" y="-379.02" font-family="Helvetica,sans-Serif" font-size="10.00">CircularDependencyDetection</text>
<text text-anchor="middle" x="1614.5" y="-368.02" font-family="Helvetica,sans-Serif" font-size="10.00">RecursionStopper</text>
</a>
</g>
</g>
<!-- Node23&#45;&gt;Node2 -->
<g id="edge29" class="edge">
<title>Node23&#45;&gt;Node2</title>
<path fill="none" stroke="#9a32cd" stroke-dasharray="5,2" d="M1705.9,-391.19C1743.32,-395.19 1786.42,-399.8 1822.97,-403.7"/>
<polygon fill="#9a32cd" stroke="#9a32cd" points="1705.83,-387.66 1695.51,-390.08 1705.08,-394.62 1705.83,-387.66"/>
<text text-anchor="middle" x="1759.5" y="-404.52" font-family="Helvetica,sans-Serif" font-size="10.00"> _recursionStopper</text>
</g>
<!-- Node24&#45;&gt;Node2 -->
<g id="edge30" class="edge">
<title>Node24&#45;&gt;Node2</title>
<path fill="none" stroke="#9a32cd" stroke-dasharray="5,2" d="M1525.47,-601.51C1604.72,-597.64 1719.11,-582.66 1805,-532.52 1852.64,-504.71 1887.92,-445.55 1900.49,-422.25"/>
<polygon fill="#9a32cd" stroke="#9a32cd" points="1524.85,-598.03 1515.02,-601.96 1525.16,-605.02 1524.85,-598.03"/>
<text text-anchor="middle" x="1614.5" y="-603.52" font-family="Helvetica,sans-Serif" font-size="10.00"> _model</text>
</g>
<!-- Node25&#45;&gt;Node1 -->
<g id="edge32" class="edge">
<title>Node25&#45;&gt;Node1</title>
<path fill="none" stroke="midnightblue" d="M2197.44,-297.28C2205.26,-294.01 2213.11,-290.11 2220,-285.52 2236.41,-274.61 2251.31,-256.92 2259.61,-246.05"/>
<polygon fill="midnightblue" stroke="midnightblue" points="2196.04,-294.07 2187.98,-300.95 2198.57,-300.59 2196.04,-294.07"/>
</g>
<!-- Node26 -->
<g id="node26" class="node">
<title>Node26</title>
<g id="a_node26"><a xlink:href="struct_chimera_t_k_1_1_scalar_push_input.html" target="_top" xlink:title=" ">
<polygon fill="white" stroke="black" points="1829,-201.52 1829,-231.52 1984,-231.52 1984,-201.52 1829,-201.52"/>
<text text-anchor="start" x="1837" y="-219.52" font-family="Helvetica,sans-Serif" font-size="10.00">ChimeraTK::ScalarPushInput</text>
<text text-anchor="middle" x="1906.5" y="-208.52" font-family="Helvetica,sans-Serif" font-size="10.00">&lt; int &gt;</text>
</a>
</g>
</g>
<!-- Node26&#45;&gt;Node1 -->
<g id="edge50" class="edge">
<title>Node26&#45;&gt;Node1</title>
<path fill="none" stroke="#9a32cd" stroke-dasharray="5,2" d="M1994.56,-217.53C2053.04,-218.76 2131.75,-221.48 2201,-227.52 2213.12,-228.58 2226.43,-230.31 2237.87,-231.96"/>
<polygon fill="#9a32cd" stroke="#9a32cd" points="1994.33,-214.02 1984.26,-217.32 1994.19,-221.02 1994.33,-214.02"/>
<text text-anchor="middle" x="2153" y="-241.52" font-family="Helvetica,sans-Serif" font-size="10.00"> a</text>
<text text-anchor="middle" x="2153" y="-230.52" font-family="Helvetica,sans-Serif" font-size="10.00">b</text>
</g>
<!-- Node26&#45;&gt;Node25 -->
<g id="edge34" class="edge">
<title>Node26&#45;&gt;Node25</title>
<path fill="none" stroke="#9a32cd" stroke-dasharray="5,2" d="M1964.61,-234.82C2000.18,-246.65 2046.67,-262.89 2087,-279.52 2102.83,-286.06 2120.34,-294.48 2133.19,-300.89"/>
<polygon fill="#9a32cd" stroke="#9a32cd" points="1965.48,-231.42 1954.89,-231.61 1963.28,-238.07 1965.48,-231.42"/>
<text text-anchor="middle" x="2047.5" y="-293.52" font-family="Helvetica,sans-Serif" font-size="10.00"> circularInput1</text>
<text text-anchor="middle" x="2047.5" y="-282.52" font-family="Helvetica,sans-Serif" font-size="10.00">circularInput2</text>
</g>
<!-- Node27 -->
<g id="node27" class="node">
<title>Node27</title>
<g id="a_node27"><a xlink:href="class_chimera_t_k_1_1_scalar_accessor.html" target="_top" xlink:title="Accessor for scalar variables (i.e.">
<polygon fill="white" stroke="black" points="1179,-180.52 1179,-210.52 1329,-210.52 1329,-180.52 1179,-180.52"/>
<text text-anchor="start" x="1187" y="-198.52" font-family="Helvetica,sans-Serif" font-size="10.00">ChimeraTK::ScalarAccessor</text>
<text text-anchor="middle" x="1254" y="-187.52" font-family="Helvetica,sans-Serif" font-size="10.00">&lt; UserType &gt;</text>
</a>
</g>
</g>
<!-- Node27&#45;&gt;Node26 -->
<g id="edge35" class="edge">
<title>Node27&#45;&gt;Node26</title>
<path fill="none" stroke="midnightblue" d="M1339.4,-198.25C1466.79,-202.36 1706.28,-210.09 1828.9,-214.05"/>
<polygon fill="midnightblue" stroke="midnightblue" points="1339.41,-194.75 1329.3,-197.92 1339.19,-201.74 1339.41,-194.75"/>
</g>
<!-- Node31 -->
<g id="node31" class="node">
<title>Node31</title>
<g id="a_node31"><a xlink:href="struct_chimera_t_k_1_1_scalar_push_input.html" target="_top" xlink:title="Convenience class for input scalar accessors with UpdateMode::push.">
<polygon fill="white" stroke="black" points="1537,-224.52 1537,-254.52 1692,-254.52 1692,-224.52 1537,-224.52"/>
<text text-anchor="start" x="1545" y="-242.52" font-family="Helvetica,sans-Serif" font-size="10.00">ChimeraTK::ScalarPushInput</text>
<text text-anchor="middle" x="1614.5" y="-231.52" font-family="Helvetica,sans-Serif" font-size="10.00">&lt; UserType &gt;</text>
</a>
</g>
</g>
<!-- Node27&#45;&gt;Node31 -->
<g id="edge41" class="edge">
<title>Node27&#45;&gt;Node31</title>
<path fill="none" stroke="midnightblue" d="M1339.22,-208.34C1342.18,-208.75 1345.12,-209.14 1348,-209.52 1411.47,-217.88 1483.66,-225.95 1536.73,-231.61"/>
<polygon fill="midnightblue" stroke="midnightblue" points="1339.47,-204.84 1329.08,-206.93 1338.5,-211.78 1339.47,-204.84"/>
</g>
<!-- Node32 -->
<g id="node32" class="node">
<title>Node32</title>
<g id="a_node32"><a xlink:href="struct_chimera_t_k_1_1_scalar_output.html" target="_top" xlink:title=" ">
<polygon fill="white" stroke="black" points="1836.5,-285.52 1836.5,-315.52 1976.5,-315.52 1976.5,-285.52 1836.5,-285.52"/>
<text text-anchor="start" x="1844.5" y="-303.52" font-family="Helvetica,sans-Serif" font-size="10.00">ChimeraTK::ScalarOutput</text>
<text text-anchor="middle" x="1906.5" y="-292.52" font-family="Helvetica,sans-Serif" font-size="10.00">&lt; int &gt;</text>
</a>
</g>
</g>
<!-- Node27&#45;&gt;Node32 -->
<g id="edge43" class="edge">
<title>Node27&#45;&gt;Node32</title>
<path fill="none" stroke="midnightblue" d="M1277.95,-217.79C1295.72,-233.85 1321.68,-254.85 1348,-267.52 1508.74,-344.92 1726.42,-328.1 1836.15,-312.53"/>
<polygon fill="midnightblue" stroke="midnightblue" points="1280.11,-215.02 1270.39,-210.81 1275.36,-220.17 1280.11,-215.02"/>
</g>
<!-- Node33 -->
<g id="node33" class="node">
<title>Node33</title>
<g id="a_node33"><a xlink:href="struct_chimera_t_k_1_1_scalar_output.html" target="_top" xlink:title="Convenience class for output scalar accessors (always UpdateMode::push)">
<polygon fill="white" stroke="black" points="1544.5,-273.52 1544.5,-303.52 1684.5,-303.52 1684.5,-273.52 1544.5,-273.52"/>
<text text-anchor="start" x="1552.5" y="-291.52" font-family="Helvetica,sans-Serif" font-size="10.00">ChimeraTK::ScalarOutput</text>
<text text-anchor="middle" x="1614.5" y="-280.52" font-family="Helvetica,sans-Serif" font-size="10.00">&lt; UserType &gt;</text>
</a>
</g>
</g>
<!-- Node27&#45;&gt;Node33 -->
<g id="edge45" class="edge">
<title>Node27&#45;&gt;Node33</title>
<path fill="none" stroke="midnightblue" d="M1297.06,-214.63C1312.81,-221.27 1331.01,-228.34 1348,-233.52 1413.51,-253.51 1490.32,-268.54 1544.42,-277.8"/>
<polygon fill="midnightblue" stroke="midnightblue" points="1298.18,-211.29 1287.61,-210.57 1295.42,-217.73 1298.18,-211.29"/>
</g>
<!-- Node34 -->
<g id="node34" class="node">
<title>Node34</title>
<g id="a_node34"><a xlink:href="struct_chimera_t_k_1_1_scalar_output_push_r_b.html" target="_top" xlink:title=" ">
<polygon fill="white" stroke="black" points="1825,-48.52 1825,-78.52 1988,-78.52 1988,-48.52 1825,-48.52"/>
<text text-anchor="start" x="1833" y="-66.52" font-family="Helvetica,sans-Serif" font-size="10.00">ChimeraTK::ScalarOutputPush</text>
<text text-anchor="middle" x="1906.5" y="-55.52" font-family="Helvetica,sans-Serif" font-size="10.00">RB&lt; double &gt;</text>
</a>
</g>
</g>
<!-- Node27&#45;&gt;Node34 -->
<g id="edge47" class="edge">
<title>Node27&#45;&gt;Node34</title>
<path fill="none" stroke="midnightblue" d="M1263.59,-170.53C1276.34,-137.64 1303.66,-80.92 1348,-54.52 1514.77,44.76 1762.28,-17 1861.77,-48.44"/>
<polygon fill="midnightblue" stroke="midnightblue" points="1260.16,-169.71 1259.96,-180.31 1266.72,-172.15 1260.16,-169.71"/>
</g>
<!-- Node35 -->
<g id="node35" class="node">
<title>Node35</title>
<g id="a_node35"><a xlink:href="struct_chimera_t_k_1_1_scalar_output_push_r_b.html" target="_top" xlink:title="Convenience class for output scalar accessors with return channel (&quot;read back&quot;) (always UpdateMode::p...">
<polygon fill="white" stroke="black" points="1533,-48.52 1533,-78.52 1696,-78.52 1696,-48.52 1533,-48.52"/>
<text text-anchor="start" x="1541" y="-66.52" font-family="Helvetica,sans-Serif" font-size="10.00">ChimeraTK::ScalarOutputPush</text>
<text text-anchor="middle" x="1614.5" y="-55.52" font-family="Helvetica,sans-Serif" font-size="10.00">RB&lt; UserType &gt;</text>
</a>
</g>
</g>
<!-- Node27&#45;&gt;Node35 -->
<g id="edge49" class="edge">
<title>Node27&#45;&gt;Node35</title>
<path fill="none" stroke="midnightblue" d="M1269.34,-171.63C1285.27,-147.45 1313.37,-111.21 1348,-93.52 1405.12,-64.37 1477.97,-57.95 1532.91,-58.22"/>
<polygon fill="midnightblue" stroke="midnightblue" points="1266.28,-169.92 1263.85,-180.24 1272.18,-173.69 1266.28,-169.92"/>
</g>
<!-- Node36 -->
<g id="node36" class="node">
<title>Node36</title>
<g id="a_node36"><a xlink:href="struct_chimera_t_k_1_1_scalar_push_input_w_b.html" target="_top" xlink:title=" ">
<polygon fill="white" stroke="black" points="1829,-136.52 1829,-166.52 1984,-166.52 1984,-136.52 1829,-136.52"/>
<text text-anchor="start" x="1837" y="-154.52" font-family="Helvetica,sans-Serif" font-size="10.00">ChimeraTK::ScalarPushInput</text>
<text text-anchor="middle" x="1906.5" y="-143.52" font-family="Helvetica,sans-Serif" font-size="10.00">WB&lt; int &gt;</text>
</a>
</g>
</g>
<!-- Node27&#45;&gt;Node36 -->
<g id="edge52" class="edge">
<title>Node27&#45;&gt;Node36</title>
<path fill="none" stroke="midnightblue" d="M1297.4,-176.5C1313.06,-170.06 1331.1,-163.29 1348,-158.52 1497.48,-116.35 1540.95,-117.31 1696,-126.52 1740.06,-129.14 1789.06,-134.84 1828.59,-140.13"/>
<polygon fill="midnightblue" stroke="midnightblue" points="1295.86,-173.36 1288,-180.46 1298.57,-179.81 1295.86,-173.36"/>
</g>
<!-- Node37 -->
<g id="node37" class="node">
<title>Node37</title>
<g id="a_node37"><a xlink:href="struct_chimera_t_k_1_1_scalar_push_input_w_b.html" target="_top" xlink:title="Convenience class for input scalar accessors with return channel (&quot;write back&quot;) and UpdateMode::push.">
<polygon fill="white" stroke="black" points="1537,-136.52 1537,-166.52 1692,-166.52 1692,-136.52 1537,-136.52"/>
<text text-anchor="start" x="1545" y="-154.52" font-family="Helvetica,sans-Serif" font-size="10.00">ChimeraTK::ScalarPushInput</text>
<text text-anchor="middle" x="1614.5" y="-143.52" font-family="Helvetica,sans-Serif" font-size="10.00">WB&lt; UserType &gt;</text>
</a>
</g>
</g>
<!-- Node27&#45;&gt;Node37 -->
<g id="edge54" class="edge">
<title>Node27&#45;&gt;Node37</title>
<path fill="none" stroke="midnightblue" d="M1339.22,-182.7C1342.18,-182.3 1345.12,-181.9 1348,-181.52 1411.47,-173.16 1483.66,-165.1 1536.73,-159.44"/>
<polygon fill="midnightblue" stroke="midnightblue" points="1338.5,-179.27 1329.08,-184.12 1339.47,-186.2 1338.5,-179.27"/>
</g>
<!-- Node28 -->
<g id="node28" class="node">
<title>Node28</title>
<g id="a_node28"><a xlink:title=" ">
<polygon fill="white" stroke="#bfbfbf" points="945.5,-235.52 945.5,-265.52 1092.5,-265.52 1092.5,-235.52 945.5,-235.52"/>
<text text-anchor="start" x="953.5" y="-253.52" font-family="Helvetica,sans-Serif" font-size="10.00">ChimeraTK::ScalarRegister</text>
<text text-anchor="middle" x="1019" y="-242.52" font-family="Helvetica,sans-Serif" font-size="10.00">Accessor&lt; UserType &gt;</text>
</a>
</g>
</g>
<!-- Node28&#45;&gt;Node27 -->
<g id="edge36" class="edge">
<title>Node28&#45;&gt;Node27</title>
<path fill="none" stroke="midnightblue" d="M1093.49,-233.18C1124.29,-225.91 1159.75,-217.54 1189.41,-210.54"/>
<polygon fill="midnightblue" stroke="midnightblue" points="1092.6,-229.79 1083.67,-235.5 1094.2,-236.6 1092.6,-229.79"/>
</g>
<!-- Node29 -->
<g id="node29" class="node">
<title>Node29</title>
<g id="a_node29"><a xlink:href="class_chimera_t_k_1_1_inversion_of_control_accessor.html" target="_top" xlink:title=" ">
<polygon fill="white" stroke="black" points="935,-175.02 935,-216.02 1103,-216.02 1103,-175.02 935,-175.02"/>
<text text-anchor="start" x="943" y="-204.02" font-family="Helvetica,sans-Serif" font-size="10.00">ChimeraTK::InversionOfControl</text>
<text text-anchor="start" x="943" y="-193.02" font-family="Helvetica,sans-Serif" font-size="10.00">Accessor&lt; ScalarAccessor</text>
<text text-anchor="middle" x="1019" y="-182.02" font-family="Helvetica,sans-Serif" font-size="10.00">&lt; UserType &gt; &gt;</text>
</a>
</g>
</g>
<!-- Node29&#45;&gt;Node27 -->
<g id="edge37" class="edge">
<title>Node29&#45;&gt;Node27</title>
<path fill="none" stroke="midnightblue" d="M1113.37,-195.52C1135.13,-195.52 1158.01,-195.52 1178.81,-195.52"/>
<polygon fill="midnightblue" stroke="midnightblue" points="1113.13,-192.02 1103.13,-195.52 1113.13,-199.02 1113.13,-192.02"/>
</g>
<!-- Node30&#45;&gt;Node29 -->
<g id="edge38" class="edge">
<title>Node30&#45;&gt;Node29</title>
<path fill="none" stroke="orange" stroke-dasharray="5,2" d="M713.72,-320.21C719.94,-318.1 726.13,-315.86 732,-313.52 740.31,-310.22 741.88,-308.28 750,-304.52 831.13,-266.96 851.81,-258.29 935,-225.52 942.98,-222.38 951.45,-219.18 959.8,-216.09"/>
<polygon fill="orange" stroke="orange" points="712.33,-316.98 703.93,-323.43 714.52,-323.63 712.33,-316.98"/>
<text text-anchor="middle" x="833.5" y="-307.52" font-family="Helvetica,sans-Serif" font-size="10.00"> &lt; ScalarAccessor&lt; UserType &gt; &gt;</text>
</g>
<!-- Node31&#45;&gt;Node26 -->
<g id="edge40" class="edge">
<title>Node31&#45;&gt;Node26</title>
<path fill="none" stroke="orange" stroke-dasharray="5,2" d="M1702.14,-232.65C1742.38,-229.46 1789.82,-225.7 1828.75,-222.61"/>
<polygon fill="orange" stroke="orange" points="1701.77,-229.17 1692.07,-233.45 1702.32,-236.15 1701.77,-229.17"/>
<text text-anchor="middle" x="1759.5" y="-234.52" font-family="Helvetica,sans-Serif" font-size="10.00"> &lt; int &gt;</text>
</g>
<!-- Node32&#45;&gt;Node1 -->
<g id="edge55" class="edge">
<title>Node32&#45;&gt;Node1</title>
<path fill="none" stroke="#9a32cd" stroke-dasharray="5,2" d="M1986.69,-287.29C2045.81,-277.28 2128.54,-263.01 2201,-249.52 2213.08,-247.28 2226.39,-244.66 2237.83,-242.37"/>
<polygon fill="#9a32cd" stroke="#9a32cd" points="1985.95,-283.87 1976.67,-288.98 1987.11,-290.77 1985.95,-283.87"/>
<text text-anchor="middle" x="2153" y="-270.52" font-family="Helvetica,sans-Serif" font-size="10.00"> circleResult</text>
</g>
<!-- Node32&#45;&gt;Node25 -->
<g id="edge42" class="edge">
<title>Node32&#45;&gt;Node25</title>
<path fill="none" stroke="#9a32cd" stroke-dasharray="5,2" d="M1986.85,-303.77C2025.78,-305.36 2071.36,-307.23 2104.76,-308.59"/>
<polygon fill="#9a32cd" stroke="#9a32cd" points="1986.72,-300.26 1976.58,-303.35 1986.43,-307.26 1986.72,-300.26"/>
<text text-anchor="middle" x="2047.5" y="-322.52" font-family="Helvetica,sans-Serif" font-size="10.00"> circularOutput1</text>
<text text-anchor="middle" x="2047.5" y="-311.52" font-family="Helvetica,sans-Serif" font-size="10.00">circularOutput2</text>
</g>
<!-- Node33&#45;&gt;Node32 -->
<g id="edge44" class="edge">
<title>Node33&#45;&gt;Node32</title>
<path fill="none" stroke="orange" stroke-dasharray="5,2" d="M1694.76,-291.8C1739.1,-293.64 1793.85,-295.9 1836.43,-297.67"/>
<polygon fill="orange" stroke="orange" points="1694.73,-288.3 1684.59,-291.38 1694.44,-295.29 1694.73,-288.3"/>
<text text-anchor="middle" x="1759.5" y="-299.52" font-family="Helvetica,sans-Serif" font-size="10.00"> &lt; int &gt;</text>
</g>
<!-- Node34&#45;&gt;Node1 -->
<g id="edge46" class="edge">
<title>Node34&#45;&gt;Node1</title>
<path fill="none" stroke="#9a32cd" stroke-dasharray="5,2" d="M1987.51,-80.99C2049.28,-96.96 2135.05,-124.69 2201,-167.52 2226.21,-183.9 2248.68,-211.86 2259.56,-226.67"/>
<polygon fill="#9a32cd" stroke="#9a32cd" points="1988.37,-77.6 1977.81,-78.53 1986.64,-84.38 1988.37,-77.6"/>
<text text-anchor="middle" x="2153" y="-170.52" font-family="Helvetica,sans-Serif" font-size="10.00"> var2</text>
</g>
<!-- Node35&#45;&gt;Node34 -->
<g id="edge48" class="edge">
<title>Node35&#45;&gt;Node34</title>
<path fill="none" stroke="orange" stroke-dasharray="5,2" d="M1706.32,-63.52C1744.3,-63.52 1788.08,-63.52 1824.9,-63.52"/>
<polygon fill="orange" stroke="orange" points="1706.28,-60.02 1696.28,-63.52 1706.28,-67.02 1706.28,-60.02"/>
<text text-anchor="middle" x="1759.5" y="-66.52" font-family="Helvetica,sans-Serif" font-size="10.00"> &lt; double &gt;</text>
</g>
<!-- Node36&#45;&gt;Node1 -->
<g id="edge51" class="edge">
<title>Node36&#45;&gt;Node1</title>
<path fill="none" stroke="#9a32cd" stroke-dasharray="5,2" d="M1994.21,-162.1C2053.38,-170.68 2133.04,-184.95 2201,-206.52 2217.69,-211.82 2235.71,-220.3 2248.62,-226.89"/>
<polygon fill="#9a32cd" stroke="#9a32cd" points="1994.55,-158.61 1984.16,-160.66 1993.56,-165.54 1994.55,-158.61"/>
<text text-anchor="middle" x="2153" y="-209.52" font-family="Helvetica,sans-Serif" font-size="10.00"> var1</text>
</g>
<!-- Node37&#45;&gt;Node36 -->
<g id="edge53" class="edge">
<title>Node37&#45;&gt;Node36</title>
<path fill="none" stroke="orange" stroke-dasharray="5,2" d="M1702.14,-151.52C1742.38,-151.52 1789.82,-151.52 1828.75,-151.52"/>
<polygon fill="orange" stroke="orange" points="1702.07,-148.02 1692.07,-151.52 1702.07,-155.02 1702.07,-148.02"/>
<text text-anchor="middle" x="1759.5" y="-154.52" font-family="Helvetica,sans-Serif" font-size="10.00"> &lt; int &gt;</text>
</g>
</g>
</svg>
