<?xml version="1.0" encoding="UTF-8" standalone="no"?>
<!DOCTYPE svg PUBLIC "-//W3C//DTD SVG 1.1//EN"
 "http://www.w3.org/Graphics/SVG/1.1/DTD/svg11.dtd">
<!-- Generated by graphviz version 2.40.1 (20161225.0304)
 -->
<!-- Title: ChimeraTK::ModifyHierarchy&lt; ACCESSOR &gt; Pages: 1 -->
<svg width="1672pt" height="476pt"
 viewBox="0.00 0.00 1672.00 476.00" xmlns="http://www.w3.org/2000/svg" xmlns:xlink="http://www.w3.org/1999/xlink">
<g id="graph0" class="graph" transform="scale(1 1) rotate(0) translate(4 472)">
<title>ChimeraTK::ModifyHierarchy&lt; ACCESSOR &gt;</title>
<polygon fill="#ffffff" stroke="transparent" points="-4,4 -4,-472 1668,-472 1668,4 -4,4"/>
<!-- Node14 -->
<g id="node1" class="node">
<title>Node14</title>
<polygon fill="#bfbfbf" stroke="#000000" points="1507,-8 1507,-38 1664,-38 1664,-8 1507,-8"/>
<text text-anchor="start" x="1515" y="-26" font-family="Helvetica,sans-Serif" font-size="10.00" fill="#000000">ChimeraTK::ModifyHierarchy</text>
<text text-anchor="middle" x="1585.5" y="-15" font-family="Helvetica,sans-Serif" font-size="10.00" fill="#000000">&lt; ACCESSOR &gt;</text>
</g>
<!-- Node15 -->
<g id="node2" class="node">
<title>Node15</title>
<g id="a_node2"><a xlink:href="struct_chimera_t_k_1_1_hierarchy_modifying_group.html" target="_top" xlink:title="A HierarchyModifyingGroup is a VariableGroup which can easily appear at a different place in the hier...">
<polygon fill="#ffffff" stroke="#000000" points="1268,-39 1268,-69 1440,-69 1440,-39 1268,-39"/>
<text text-anchor="start" x="1276" y="-57" font-family="Helvetica,sans-Serif" font-size="10.00" fill="#000000">ChimeraTK::HierarchyModifying</text>
<text text-anchor="middle" x="1354" y="-46" font-family="Helvetica,sans-Serif" font-size="10.00" fill="#000000">Group</text>
</a>
</g>
</g>
<!-- Node15&#45;&gt;Node14 -->
<g id="edge1" class="edge">
<title>Node15&#45;&gt;Node14</title>
<path fill="none" stroke="#191970" d="M1450.2828,-41.1068C1469.1292,-38.5831 1488.6846,-35.9645 1506.8723,-33.529"/>
<polygon fill="#191970" stroke="#191970" points="1449.649,-37.6604 1440.2021,-42.4567 1450.5782,-44.5984 1449.649,-37.6604"/>
</g>
<!-- Node16 -->
<g id="node3" class="node">
<title>Node16</title>
<g id="a_node3"><a xlink:href="class_chimera_t_k_1_1_variable_group.html" target="_top" xlink:title="ChimeraTK::VariableGroup">
<polygon fill="#ffffff" stroke="#000000" points="1085,-195.5 1085,-214.5 1231,-214.5 1231,-195.5 1085,-195.5"/>
<text text-anchor="middle" x="1158" y="-202.5" font-family="Helvetica,sans-Serif" font-size="10.00" fill="#000000">ChimeraTK::VariableGroup</text>
</a>
</g>
</g>
<!-- Node16&#45;&gt;Node15 -->
<g id="edge2" class="edge">
<title>Node16&#45;&gt;Node15</title>
<path fill="none" stroke="#191970" d="M1178.8519,-188.9355C1216.8929,-159.6284 1297.0556,-97.8704 1334.2591,-69.2086"/>
<polygon fill="#191970" stroke="#191970" points="1176.3445,-186.449 1170.5588,-195.3246 1180.6166,-191.9942 1176.3445,-186.449"/>
</g>
<!-- Node17 -->
<g id="node4" class="node">
<title>Node17</title>
<g id="a_node4"><a xlink:href="class_chimera_t_k_1_1_module_impl.html" target="_top" xlink:title="Some common implementations of a few functions in Module used by most modules (but the VirtualModule)...">
<polygon fill="#ffffff" stroke="#000000" points="846.5,-342.5 846.5,-361.5 980.5,-361.5 980.5,-342.5 846.5,-342.5"/>
<text text-anchor="middle" x="913.5" y="-349.5" font-family="Helvetica,sans-Serif" font-size="10.00" fill="#000000">ChimeraTK::ModuleImpl</text>
</a>
</g>
</g>
<!-- Node17&#45;&gt;Node16 -->
<g id="edge3" class="edge">
<title>Node17&#45;&gt;Node16</title>
<path fill="none" stroke="#191970" d="M938.1154,-337.2005C988.0659,-307.1689 1100.1262,-239.7953 1141.8986,-214.6806"/>
<polygon fill="#191970" stroke="#191970" points="936.3092,-334.2026 929.5423,-342.3549 939.9161,-340.2018 936.3092,-334.2026"/>
</g>
<!-- Node18 -->
<g id="node5" class="node">
<title>Node18</title>
<g id="a_node5"><a xlink:href="class_chimera_t_k_1_1_module.html" target="_top" xlink:title="Base class for ApplicationModule, DeviceModule and ControlSystemModule, to have a common interface fo...">
<polygon fill="#ffffff" stroke="#000000" points="224.5,-353.5 224.5,-372.5 336.5,-372.5 336.5,-353.5 224.5,-353.5"/>
<text text-anchor="middle" x="280.5" y="-360.5" font-family="Helvetica,sans-Serif" font-size="10.00" fill="#000000">ChimeraTK::Module</text>
</a>
</g>
</g>
<!-- Node18&#45;&gt;Node17 -->
<g id="edge4" class="edge">
<title>Node18&#45;&gt;Node17</title>
<path fill="none" stroke="#191970" d="M346.8671,-372.3637C361.0764,-374.1222 376.0185,-375.7868 390,-377 535.2753,-389.6057 573.0496,-400.9115 718,-385 726.1462,-384.1058 727.9528,-382.5502 736,-381 773.5595,-373.7645 815.8168,-366.8133 849.6758,-361.531"/>
<polygon fill="#191970" stroke="#191970" points="347.035,-368.857 336.6743,-371.0717 346.1547,-375.8015 347.035,-368.857"/>
</g>
<!-- Node25 -->
<g id="node12" class="node">
<title>Node25</title>
<polygon fill="#ffffff" stroke="#bfbfbf" points="582,-265 582,-295 700,-295 700,-265 582,-265"/>
<text text-anchor="start" x="590" y="-283" font-family="Helvetica,sans-Serif" font-size="10.00" fill="#000000">std::list&lt; ChimeraTK</text>
<text text-anchor="middle" x="641" y="-272" font-family="Helvetica,sans-Serif" font-size="10.00" fill="#000000">::Module *&gt;</text>
</g>
<!-- Node18&#45;&gt;Node25 -->
<g id="edge13" class="edge">
<title>Node18&#45;&gt;Node25</title>
<path fill="none" stroke="#9a32cd" stroke-dasharray="5,2" d="M331.624,-351.2294C397.6442,-336.0292 512.3154,-309.6278 581.9721,-293.5903"/>
<polygon fill="#9a32cd" stroke="#9a32cd" points="330.8137,-347.8243 321.8539,-353.4788 332.3843,-354.6459 330.8137,-347.8243"/>
<text text-anchor="middle" x="468" y="-339" font-family="Helvetica,sans-Serif" font-size="10.00" fill="#000000"> elements</text>
</g>
<!-- Node30 -->
<g id="node17" class="node">
<title>Node30</title>
<g id="a_node17"><a xlink:href="class_chimera_t_k_1_1_virtual_module.html" target="_top" xlink:title="A virtual module generated by EntityOwner::findTag(). ">
<polygon fill="#ffffff" stroke="#000000" points="569,-437.5 569,-456.5 713,-456.5 713,-437.5 569,-437.5"/>
<text text-anchor="middle" x="641" y="-444.5" font-family="Helvetica,sans-Serif" font-size="10.00" fill="#000000">ChimeraTK::VirtualModule</text>
</a>
</g>
</g>
<!-- Node18&#45;&gt;Node30 -->
<g id="edge21" class="edge">
<title>Node18&#45;&gt;Node30</title>
<path fill="none" stroke="#191970" d="M302.164,-378.3561C323.44,-392.5678 357.3661,-412.966 390,-423 448.4742,-440.9791 517.9057,-446.4808 568.9058,-447.77"/>
<polygon fill="#191970" stroke="#191970" points="304.0944,-375.4361 293.8609,-372.6924 300.1498,-381.2189 304.0944,-375.4361"/>
</g>
<!-- Node19 -->
<g id="node6" class="node">
<title>Node19</title>
<g id="a_node6"><a xlink:href="class_chimera_t_k_1_1_entity_owner.html" target="_top" xlink:title="Base class for owners of other EntityOwners (e.g. ">
<polygon fill="#ffffff" stroke="#000000" points="845,-207.5 845,-226.5 982,-226.5 982,-207.5 845,-207.5"/>
<text text-anchor="middle" x="913.5" y="-214.5" font-family="Helvetica,sans-Serif" font-size="10.00" fill="#000000">ChimeraTK::EntityOwner</text>
</a>
</g>
</g>
<!-- Node19&#45;&gt;Node18 -->
<g id="edge5" class="edge">
<title>Node19&#45;&gt;Node18</title>
<path fill="none" stroke="#191970" d="M896.0323,-233.5919C879.4987,-248.4057 853.3498,-269.6194 827,-282 710.7978,-336.5985 673.0725,-330.6554 546,-349 474.2758,-359.3543 390.6676,-362.274 336.7283,-362.9837"/>
<polygon fill="#191970" stroke="#191970" points="898.7495,-235.8488 903.7519,-226.5093 894.0171,-230.6908 898.7495,-235.8488"/>
</g>
<!-- Node19&#45;&gt;Node18 -->
<g id="edge19" class="edge">
<title>Node19&#45;&gt;Node18</title>
<path fill="none" stroke="#9a32cd" stroke-dasharray="5,2" d="M834.6535,-221.8388C735.2973,-228.1536 575.9535,-239.0931 564,-245 553.2788,-250.298 556.3588,-259.0245 546,-265 484.6135,-300.4108 456.0182,-272.2354 390,-298 352.7236,-312.5476 313.4201,-339.0171 293.5901,-353.2779"/>
<polygon fill="#9a32cd" stroke="#9a32cd" points="834.9106,-225.3296 844.6696,-221.2049 834.4685,-218.3436 834.9106,-225.3296"/>
<text text-anchor="middle" x="641" y="-248" font-family="Helvetica,sans-Serif" font-size="10.00" fill="#000000"> _owner</text>
</g>
<!-- Node20 -->
<g id="node7" class="node">
<title>Node20</title>
<g id="a_node7"><a xlink:title="STL class. ">
<polygon fill="#ffffff" stroke="#bfbfbf" points="248,-59.5 248,-78.5 313,-78.5 313,-59.5 248,-59.5"/>
<text text-anchor="middle" x="280.5" y="-66.5" font-family="Helvetica,sans-Serif" font-size="10.00" fill="#000000">std::string</text>
</a>
</g>
</g>
<!-- Node20&#45;&gt;Node19 -->
<g id="edge6" class="edge">
<title>Node20&#45;&gt;Node19</title>
<path fill="none" stroke="#9a32cd" stroke-dasharray="5,2" d="M323.3001,-68.3509C418.4257,-67.3137 644.7786,-67.1979 718,-88 798.9703,-111.0035 876.819,-181.1493 903.654,-207.1592"/>
<polygon fill="#9a32cd" stroke="#9a32cd" points="323.1283,-64.8526 313.1703,-68.4704 323.2109,-71.8521 323.1283,-64.8526"/>
<text text-anchor="middle" x="641" y="-102" font-family="Helvetica,sans-Serif" font-size="10.00" fill="#000000"> _description</text>
<text text-anchor="middle" x="641" y="-91" font-family="Helvetica,sans-Serif" font-size="10.00" fill="#000000">_name</text>
</g>
<!-- Node22 -->
<g id="node9" class="node">
<title>Node22</title>
<polygon fill="#ffffff" stroke="#bfbfbf" points="587.5,-119 587.5,-149 694.5,-149 694.5,-119 587.5,-119"/>
<text text-anchor="start" x="595.5" y="-137" font-family="Helvetica,sans-Serif" font-size="10.00" fill="#000000">std::unordered_set</text>
<text text-anchor="middle" x="641" y="-126" font-family="Helvetica,sans-Serif" font-size="10.00" fill="#000000">&lt; std::string &gt;</text>
</g>
<!-- Node20&#45;&gt;Node22 -->
<g id="edge9" class="edge">
<title>Node20&#45;&gt;Node22</title>
<path fill="none" stroke="#9a32cd" stroke-dasharray="5,2" d="M323.1614,-76.6921C389.0233,-88.5673 515.3613,-111.3467 587.3322,-124.3234"/>
<polygon fill="#9a32cd" stroke="#9a32cd" points="323.5902,-73.213 313.1278,-74.883 322.348,-80.1019 323.5902,-73.213"/>
<text text-anchor="middle" x="468" y="-119" font-family="Helvetica,sans-Serif" font-size="10.00" fill="#000000"> keys</text>
</g>
<!-- Node32 -->
<g id="node19" class="node">
<title>Node32</title>
<polygon fill="#ffffff" stroke="#bfbfbf" points="571,-17.5 571,-36.5 711,-36.5 711,-17.5 571,-17.5"/>
<text text-anchor="middle" x="641" y="-24.5" font-family="Helvetica,sans-Serif" font-size="10.00" fill="#000000">std::vector&lt; std::string &gt;</text>
</g>
<!-- Node20&#45;&gt;Node32 -->
<g id="edge26" class="edge">
<title>Node20&#45;&gt;Node32</title>
<path fill="none" stroke="#9a32cd" stroke-dasharray="5,2" d="M323.2357,-59.7142C343.4033,-55.6125 367.853,-51.0414 390,-48 450.8675,-39.6411 520.5277,-34.132 570.9952,-30.8623"/>
<polygon fill="#9a32cd" stroke="#9a32cd" points="322.4975,-56.2927 313.4123,-61.7433 323.9136,-63.148 322.4975,-56.2927"/>
<text text-anchor="middle" x="468" y="-51" font-family="Helvetica,sans-Serif" font-size="10.00" fill="#000000"> elements</text>
</g>
<!-- Node21 -->
<g id="node8" class="node">
<title>Node21</title>
<g id="a_node8"><a xlink:title="STL class. ">
<polygon fill="#ffffff" stroke="#bfbfbf" points="0,-46 0,-76 104,-76 104,-46 0,-46"/>
<text text-anchor="start" x="8" y="-64" font-family="Helvetica,sans-Serif" font-size="10.00" fill="#000000">std::basic_string&lt;</text>
<text text-anchor="middle" x="52" y="-53" font-family="Helvetica,sans-Serif" font-size="10.00" fill="#000000"> char &gt;</text>
</a>
</g>
</g>
<!-- Node21&#45;&gt;Node20 -->
<g id="edge7" class="edge">
<title>Node21&#45;&gt;Node20</title>
<path fill="none" stroke="#191970" d="M114.2681,-63.1801C157.479,-64.6929 213.2982,-66.6472 247.9966,-67.862"/>
<polygon fill="#191970" stroke="#191970" points="114.2525,-59.6775 104.1361,-62.8253 114.0075,-66.6732 114.2525,-59.6775"/>
</g>
<!-- Node22&#45;&gt;Node19 -->
<g id="edge8" class="edge">
<title>Node22&#45;&gt;Node19</title>
<path fill="none" stroke="#9a32cd" stroke-dasharray="5,2" d="M704.5906,-146.4707C740.8957,-154.3112 787.0068,-165.4954 827,-179 850.777,-187.0288 877.0302,-199.034 894.3069,-207.3947"/>
<polygon fill="#9a32cd" stroke="#9a32cd" points="705.1336,-143.0079 694.624,-144.3487 703.6759,-149.8544 705.1336,-143.0079"/>
<text text-anchor="middle" x="781.5" y="-182" font-family="Helvetica,sans-Serif" font-size="10.00" fill="#000000"> _tags</text>
</g>
<!-- Node23 -->
<g id="node10" class="node">
<title>Node23</title>
<g id="a_node10"><a xlink:title="STL class. ">
<polygon fill="#ffffff" stroke="#bfbfbf" points="212,-128.5 212,-147.5 349,-147.5 349,-128.5 212,-128.5"/>
<text text-anchor="middle" x="280.5" y="-135.5" font-family="Helvetica,sans-Serif" font-size="10.00" fill="#000000">std::unordered_set&lt; K &gt;</text>
</a>
</g>
</g>
<!-- Node23&#45;&gt;Node22 -->
<g id="edge10" class="edge">
<title>Node23&#45;&gt;Node22</title>
<path fill="none" stroke="#ffa500" stroke-dasharray="5,2" d="M359.5505,-137.1229C428.6108,-136.3566 526.9922,-135.265 587.2775,-134.5961"/>
<polygon fill="#ffa500" stroke="#ffa500" points="359.1164,-133.6274 349.1558,-137.2382 359.1941,-140.627 359.1164,-133.6274"/>
<text text-anchor="middle" x="468" y="-139" font-family="Helvetica,sans-Serif" font-size="10.00" fill="#000000"> &lt; std::string &gt;</text>
</g>
<!-- Node24 -->
<g id="node11" class="node">
<title>Node24</title>
<polygon fill="#ffffff" stroke="#bfbfbf" points="37.5,-133.5 37.5,-152.5 66.5,-152.5 66.5,-133.5 37.5,-133.5"/>
<text text-anchor="middle" x="52" y="-140.5" font-family="Helvetica,sans-Serif" font-size="10.00" fill="#000000">K</text>
</g>
<!-- Node24&#45;&gt;Node23 -->
<g id="edge11" class="edge">
<title>Node24&#45;&gt;Node23</title>
<path fill="none" stroke="#9a32cd" stroke-dasharray="5,2" d="M76.9081,-142.455C109.0614,-141.7514 166.2957,-140.499 211.9086,-139.5009"/>
<polygon fill="#9a32cd" stroke="#9a32cd" points="76.5623,-138.9616 66.6413,-142.6796 76.7155,-145.9599 76.5623,-138.9616"/>
<text text-anchor="middle" x="146.5" y="-144" font-family="Helvetica,sans-Serif" font-size="10.00" fill="#000000"> keys</text>
</g>
<!-- Node25&#45;&gt;Node19 -->
<g id="edge12" class="edge">
<title>Node25&#45;&gt;Node19</title>
<path fill="none" stroke="#9a32cd" stroke-dasharray="5,2" d="M710.4379,-271.609C745.6898,-266.5489 788.9887,-259.1012 827,-249 849.2839,-243.0782 873.8676,-233.6934 891.113,-226.6152"/>
<polygon fill="#9a32cd" stroke="#9a32cd" points="709.6636,-268.1832 700.2465,-273.038 710.6357,-275.1154 709.6636,-268.1832"/>
<text text-anchor="middle" x="781.5" y="-270" font-family="Helvetica,sans-Serif" font-size="10.00" fill="#000000"> moduleList</text>
</g>
<!-- Node26 -->
<g id="node13" class="node">
<title>Node26</title>
<g id="a_node13"><a xlink:title="STL class. ">
<polygon fill="#ffffff" stroke="#bfbfbf" points="240,-223.5 240,-242.5 321,-242.5 321,-223.5 240,-223.5"/>
<text text-anchor="middle" x="280.5" y="-230.5" font-family="Helvetica,sans-Serif" font-size="10.00" fill="#000000">std::list&lt; T &gt;</text>
</a>
</g>
</g>
<!-- Node26&#45;&gt;Node25 -->
<g id="edge14" class="edge">
<title>Node26&#45;&gt;Node25</title>
<path fill="none" stroke="#ffa500" stroke-dasharray="5,2" d="M331.2935,-239.6222C397.1783,-248.2119 511.9113,-263.1701 581.7098,-272.2701"/>
<polygon fill="#ffa500" stroke="#ffa500" points="331.5218,-236.1224 321.1532,-238.3001 330.6167,-243.0637 331.5218,-236.1224"/>
<text text-anchor="middle" x="468" y="-270" font-family="Helvetica,sans-Serif" font-size="10.00" fill="#000000"> &lt; ChimeraTK::Module *&gt;</text>
</g>
<!-- Node28 -->
<g id="node15" class="node">
<title>Node28</title>
<polygon fill="#ffffff" stroke="#bfbfbf" points="571,-168 571,-198 711,-198 711,-168 571,-168"/>
<text text-anchor="start" x="579" y="-186" font-family="Helvetica,sans-Serif" font-size="10.00" fill="#000000">std::list&lt; ChimeraTK</text>
<text text-anchor="middle" x="641" y="-175" font-family="Helvetica,sans-Serif" font-size="10.00" fill="#000000">::VariableNetworkNode &gt;</text>
</g>
<!-- Node26&#45;&gt;Node28 -->
<g id="edge18" class="edge">
<title>Node26&#45;&gt;Node28</title>
<path fill="none" stroke="#ffa500" stroke-dasharray="5,2" d="M331.1758,-225.9715C393.7297,-217.2955 500.446,-202.4943 570.8454,-192.7302"/>
<polygon fill="#ffa500" stroke="#ffa500" points="330.5775,-222.5208 321.1532,-227.3616 331.5392,-229.4545 330.5775,-222.5208"/>
<text text-anchor="start" x="390" y="-230" font-family="Helvetica,sans-Serif" font-size="10.00" fill="#000000"> &lt; ChimeraTK::VariableNetwork</text>
<text text-anchor="middle" x="468" y="-219" font-family="Helvetica,sans-Serif" font-size="10.00" fill="#000000">Node &gt;</text>
</g>
<!-- Node31 -->
<g id="node18" class="node">
<title>Node31</title>
<polygon fill="#ffffff" stroke="#bfbfbf" points="854.5,-429 854.5,-459 972.5,-459 972.5,-429 854.5,-429"/>
<text text-anchor="start" x="862.5" y="-447" font-family="Helvetica,sans-Serif" font-size="10.00" fill="#000000">std::list&lt; ChimeraTK</text>
<text text-anchor="middle" x="913.5" y="-436" font-family="Helvetica,sans-Serif" font-size="10.00" fill="#000000">::VirtualModule &gt;</text>
</g>
<!-- Node26&#45;&gt;Node31 -->
<g id="edge24" class="edge">
<title>Node26&#45;&gt;Node31</title>
<path fill="none" stroke="#ffa500" stroke-dasharray="5,2" d="M308.0466,-247.1241C329.8388,-257.8539 361.2767,-272.3607 390,-282 457.4582,-304.6384 478.2453,-296.2649 546,-318 633.082,-345.9352 649.3768,-367.673 736,-397 774.7999,-410.136 819.3706,-421.9267 854.143,-430.4129"/>
<polygon fill="#ffa500" stroke="#ffa500" points="309.5568,-243.9663 299.0457,-242.6369 306.4336,-250.2309 309.5568,-243.9663"/>
<text text-anchor="middle" x="641" y="-393" font-family="Helvetica,sans-Serif" font-size="10.00" fill="#000000"> &lt; ChimeraTK::VirtualModule &gt;</text>
</g>
<!-- Node27 -->
<g id="node14" class="node">
<title>Node27</title>
<polygon fill="#ffffff" stroke="#bfbfbf" points="37.5,-95.5 37.5,-114.5 66.5,-114.5 66.5,-95.5 37.5,-95.5"/>
<text text-anchor="middle" x="52" y="-102.5" font-family="Helvetica,sans-Serif" font-size="10.00" fill="#000000">T</text>
</g>
<!-- Node27&#45;&gt;Node26 -->
<g id="edge15" class="edge">
<title>Node27&#45;&gt;Node26</title>
<path fill="none" stroke="#9a32cd" stroke-dasharray="5,2" d="M76.3188,-110.0313C85.7506,-112.9105 96.147,-117.3268 104,-124 116.4346,-134.5666 110.547,-144.3767 122,-156 146.1831,-180.5426 158.1322,-179.6918 189,-195 210.728,-205.7756 236.2787,-216.2089 254.8497,-223.408"/>
<polygon fill="#9a32cd" stroke="#9a32cd" points="77.1907,-106.6416 66.6288,-107.4761 75.4058,-113.4102 77.1907,-106.6416"/>
<text text-anchor="middle" x="146.5" y="-189" font-family="Helvetica,sans-Serif" font-size="10.00" fill="#000000"> elements</text>
</g>
<!-- Node33 -->
<g id="node20" class="node">
<title>Node33</title>
<g id="a_node20"><a xlink:title="STL class. ">
<polygon fill="#ffffff" stroke="#bfbfbf" points="232,-15.5 232,-34.5 329,-34.5 329,-15.5 232,-15.5"/>
<text text-anchor="middle" x="280.5" y="-22.5" font-family="Helvetica,sans-Serif" font-size="10.00" fill="#000000">std::vector&lt; T &gt;</text>
</a>
</g>
</g>
<!-- Node27&#45;&gt;Node33 -->
<g id="edge28" class="edge">
<title>Node27&#45;&gt;Node33</title>
<path fill="none" stroke="#9a32cd" stroke-dasharray="5,2" d="M76.2701,-96.4183C85.0438,-93.2407 95.0022,-89.5467 104,-86 142.1683,-70.9553 150.2364,-63.4366 189,-50 205.8042,-44.1752 224.7149,-38.8156 240.9639,-34.5654"/>
<polygon fill="#9a32cd" stroke="#9a32cd" points="74.8743,-93.2005 66.6433,-99.8715 77.2379,-99.7895 74.8743,-93.2005"/>
<text text-anchor="middle" x="146.5" y="-81" font-family="Helvetica,sans-Serif" font-size="10.00" fill="#000000"> elements</text>
</g>
<!-- Node28&#45;&gt;Node19 -->
<g id="edge16" class="edge">
<title>Node28&#45;&gt;Node19</title>
<path fill="none" stroke="#9a32cd" stroke-dasharray="5,2" d="M721.2563,-193.0136C760.5557,-197.917 807.379,-203.7592 844.9759,-208.4502"/>
<polygon fill="#9a32cd" stroke="#9a32cd" points="721.5319,-189.521 711.1755,-191.7558 720.6652,-196.4671 721.5319,-189.521"/>
<text text-anchor="middle" x="781.5" y="-209" font-family="Helvetica,sans-Serif" font-size="10.00" fill="#000000"> accessorList</text>
</g>
<!-- Node29 -->
<g id="node16" class="node">
<title>Node29</title>
<g id="a_node16"><a xlink:href="class_chimera_t_k_1_1_variable_network_node.html" target="_top" xlink:title="Class describing a node of a variable network. ">
<polygon fill="#ffffff" stroke="#000000" points="189,-166.5 189,-185.5 372,-185.5 372,-166.5 189,-166.5"/>
<text text-anchor="middle" x="280.5" y="-173.5" font-family="Helvetica,sans-Serif" font-size="10.00" fill="#000000">ChimeraTK::VariableNetworkNode</text>
</a>
</g>
</g>
<!-- Node29&#45;&gt;Node28 -->
<g id="edge17" class="edge">
<title>Node29&#45;&gt;Node28</title>
<path fill="none" stroke="#9a32cd" stroke-dasharray="5,2" d="M382.1441,-173.4399C431.6076,-172.7497 491.9282,-172.7273 546,-175 554.0204,-175.3371 562.4115,-175.8336 570.7452,-176.417"/>
<polygon fill="#9a32cd" stroke="#9a32cd" points="382.0272,-169.9412 372.0811,-173.5915 382.1327,-176.9404 382.0272,-169.9412"/>
<text text-anchor="middle" x="468" y="-178" font-family="Helvetica,sans-Serif" font-size="10.00" fill="#000000"> elements</text>
</g>
<!-- Node30&#45;&gt;Node17 -->
<g id="edge20" class="edge">
<title>Node30&#45;&gt;Node17</title>
<path fill="none" stroke="#9a32cd" stroke-dasharray="5,2" d="M682.733,-434.3779C694.1984,-430.8054 706.609,-426.8414 718,-423 779.5901,-402.23 851.2213,-375.5665 888.3242,-361.5656"/>
<polygon fill="#9a32cd" stroke="#9a32cd" points="681.4695,-431.105 672.9502,-437.4035 683.5379,-437.7925 681.4695,-431.105"/>
<text text-anchor="middle" x="781.5" y="-418" font-family="Helvetica,sans-Serif" font-size="10.00" fill="#000000"> virtualisedModule</text>
</g>
<!-- Node30&#45;&gt;Node31 -->
<g id="edge23" class="edge">
<title>Node30&#45;&gt;Node31</title>
<path fill="none" stroke="#9a32cd" stroke-dasharray="5,2" d="M723.1931,-455.2712C727.5219,-455.5552 731.8112,-455.802 736,-456 776.3993,-457.9094 786.6516,-458.7854 827,-456 835.7726,-455.3944 845.0102,-454.4472 854.0518,-453.3444"/>
<polygon fill="#9a32cd" stroke="#9a32cd" points="723.2732,-451.768 713.0491,-454.5462 722.7741,-458.7502 723.2732,-451.768"/>
<text text-anchor="middle" x="781.5" y="-460" font-family="Helvetica,sans-Serif" font-size="10.00" fill="#000000"> elements</text>
</g>
<!-- Node31&#45;&gt;Node30 -->
<g id="edge22" class="edge">
<title>Node31&#45;&gt;Node30</title>
<path fill="none" stroke="#9a32cd" stroke-dasharray="5,2" d="M843.9511,-444.1439C811.1966,-444.2752 771.5898,-444.5251 736,-445 728.5771,-445.099 720.8285,-445.2251 713.0979,-445.3655"/>
<polygon fill="#9a32cd" stroke="#9a32cd" points="844.3443,-447.6426 854.3312,-444.1053 844.3182,-440.6426 844.3443,-447.6426"/>
<text text-anchor="middle" x="781.5" y="-448" font-family="Helvetica,sans-Serif" font-size="10.00" fill="#000000"> submodules</text>
</g>
<!-- Node32&#45;&gt;Node15 -->
<g id="edge25" class="edge">
<title>Node32&#45;&gt;Node15</title>
<path fill="none" stroke="#9a32cd" stroke-dasharray="5,2" d="M721.6124,-30.0526C856.9611,-35.1781 1128.6955,-45.4681 1267.7377,-50.7334"/>
<polygon fill="#9a32cd" stroke="#9a32cd" points="721.4418,-26.5438 711.3165,-29.6628 721.1769,-33.5388 721.4418,-26.5438"/>
<text text-anchor="middle" x="1033.5" y="-46" font-family="Helvetica,sans-Serif" font-size="10.00" fill="#000000"> _splittedPath</text>
</g>
<!-- Node33&#45;&gt;Node32 -->
<g id="edge27" class="edge">
<title>Node33&#45;&gt;Node32</title>
<path fill="none" stroke="#ffa500" stroke-dasharray="5,2" d="M339.213,-18.0088C355.6246,-16.3524 373.4865,-14.8274 390,-14 459.2465,-10.5306 476.8269,-9.2891 546,-14 557.2106,-14.7635 569.114,-16.0281 580.5655,-17.4766"/>
<polygon fill="#ffa500" stroke="#ffa500" points="338.79,-14.5338 329.207,-19.0521 339.516,-21.4961 338.79,-14.5338"/>
<text text-anchor="middle" x="468" y="-17" font-family="Helvetica,sans-Serif" font-size="10.00" fill="#000000"> &lt; std::string &gt;</text>
</g>
<!-- Node34 -->
<g id="node21" class="node">
<title>Node34</title>
<polygon fill="#ffffff" stroke="#bfbfbf" points="1319.5,-.5 1319.5,-19.5 1388.5,-19.5 1388.5,-.5 1319.5,-.5"/>
<text text-anchor="middle" x="1354" y="-7.5" font-family="Helvetica,sans-Serif" font-size="10.00" fill="#000000">ACCESSOR</text>
</g>
<!-- Node34&#45;&gt;Node14 -->
<g id="edge29" class="edge">
<title>Node34&#45;&gt;Node14</title>
<path fill="none" stroke="#9a32cd" stroke-dasharray="5,2" d="M1399.0149,-12.5278C1429.6329,-14.2472 1470.9604,-16.568 1506.9291,-18.5878"/>
<polygon fill="#9a32cd" stroke="#9a32cd" points="1398.8384,-9.0125 1388.6579,-11.9462 1398.4459,-16.0015 1398.8384,-9.0125"/>
<text text-anchor="middle" x="1473.5" y="-20" font-family="Helvetica,sans-Serif" font-size="10.00" fill="#000000"> value</text>
</g>
</g>
</svg>
