<?xml version="1.0" encoding="UTF-8" standalone="no"?>
<!DOCTYPE svg PUBLIC "-//W3C//DTD SVG 1.1//EN"
 "http://www.w3.org/Graphics/SVG/1.1/DTD/svg11.dtd">
<!-- Generated by graphviz version 2.40.1 (20161225.0304)
 -->
<!-- Title: ChimeraTK::VirtualLab::StateVariableSet&lt; STATE &gt; Pages: 1 -->
<svg width="417pt" height="100pt"
 viewBox="0.00 0.00 417.00 99.50" xmlns="http://www.w3.org/2000/svg" xmlns:xlink="http://www.w3.org/1999/xlink">
<g id="graph0" class="graph" transform="scale(1 1) rotate(0) translate(4 95.5)">
<title>ChimeraTK::VirtualLab::StateVariableSet&lt; STATE &gt;</title>
<polygon fill="#ffffff" stroke="transparent" points="-4,4 -4,-95.5 413,-95.5 413,4 -4,4"/>
<!-- Node0 -->
<g id="node1" class="node">
<title>Node0</title>
<polygon fill="#bfbfbf" stroke="#000000" points="0,-27.5 0,-57.5 155,-57.5 155,-27.5 0,-27.5"/>
<text text-anchor="start" x="8" y="-45.5" font-family="Helvetica,sans-Serif" font-size="10.00" fill="#000000">ChimeraTK::VirtualLab</text>
<text text-anchor="middle" x="77.5" y="-34.5" font-family="Helvetica,sans-Serif" font-size="10.00" fill="#000000">::StateVariableSet&lt; STATE &gt;</text>
</g>
<!-- Node1 -->
<g id="node2" class="node">
<title>Node1</title>
<g id="a_node2"><a xlink:href="classmtca4u_1_1_virtual_lab_1_1_state_variable_set.html" target="_top" xlink:title="mtca4u::VirtualLab\l::StateVariableSet\&lt;\l STATE \&gt;">
<polygon fill="#ffffff" stroke="#000000" points="273.5,-50 273.5,-91 385.5,-91 385.5,-50 273.5,-50"/>
<text text-anchor="start" x="281.5" y="-79" font-family="Helvetica,sans-Serif" font-size="10.00" fill="#000000">mtca4u::VirtualLab</text>
<text text-anchor="start" x="281.5" y="-68" font-family="Helvetica,sans-Serif" font-size="10.00" fill="#000000">::StateVariableSet&lt;</text>
<text text-anchor="middle" x="329.5" y="-57" font-family="Helvetica,sans-Serif" font-size="10.00" fill="#000000"> STATE &gt;</text>
</a>
</g>
</g>
<!-- Node0&#45;&gt;Node1 -->
<g id="edge1" class="edge">
<title>Node0&#45;&gt;Node1</title>
<path fill="none" stroke="#191970" d="M165.1511,-52.239C201.0281,-56.2253 241.4903,-60.7211 273.2893,-64.2544"/>
<polygon fill="#191970" stroke="#191970" points="165.4899,-48.7552 155.1645,-51.1294 164.7168,-55.7124 165.4899,-48.7552"/>
</g>
<!-- Node2 -->
<g id="node3" class="node">
<title>Node2</title>
<g id="a_node3"><a xlink:href="class_chimera_t_k_1_1_virtual_lab_1_1_state_variable_set.html" target="_top" xlink:title="ChimeraTK::VirtualLab\l::StateVariableSet\&lt; double \&gt;">
<polygon fill="#ffffff" stroke="#000000" points="250,-.5 250,-30.5 409,-30.5 409,-.5 250,-.5"/>
<text text-anchor="start" x="258" y="-18.5" font-family="Helvetica,sans-Serif" font-size="10.00" fill="#000000">ChimeraTK::VirtualLab</text>
<text text-anchor="middle" x="329.5" y="-7.5" font-family="Helvetica,sans-Serif" font-size="10.00" fill="#000000">::StateVariableSet&lt; double &gt;</text>
</a>
</g>
</g>
<!-- Node0&#45;&gt;Node2 -->
<g id="edge2" class="edge">
<title>Node0&#45;&gt;Node2</title>
<path fill="none" stroke="#ffa500" stroke-dasharray="5,2" d="M165.179,-33.1058C192.7228,-30.1547 222.9667,-26.9143 249.917,-24.0268"/>
<polygon fill="#ffa500" stroke="#ffa500" points="164.7347,-29.6333 155.1645,-34.1788 165.4805,-36.5935 164.7347,-29.6333"/>
<text text-anchor="middle" x="202.5" y="-35.5" font-family="Helvetica,sans-Serif" font-size="10.00" fill="#000000"> &lt; double &gt;</text>
</g>
</g>
</svg>
