<?xml version="1.0" encoding="UTF-8" standalone="no"?>
<!DOCTYPE svg PUBLIC "-//W3C//DTD SVG 1.1//EN"
 "http://www.w3.org/Graphics/SVG/1.1/DTD/svg11.dtd">
<!-- Generated by graphviz version 2.40.1 (20161225.0304)
 -->
<!-- Title: ChimeraTK::VirtualLab::SignalSource Pages: 1 -->
<svg width="314pt" height="427pt"
 viewBox="0.00 0.00 313.50 427.00" xmlns="http://www.w3.org/2000/svg" xmlns:xlink="http://www.w3.org/1999/xlink">
<g id="graph0" class="graph" transform="scale(1 1) rotate(0) translate(4 423)">
<title>ChimeraTK::VirtualLab::SignalSource</title>
<polygon fill="#ffffff" stroke="transparent" points="-4,4 -4,-423 309.5,-423 309.5,4 -4,4"/>
<!-- Node3 -->
<g id="node1" class="node">
<title>Node3</title>
<polygon fill="#bfbfbf" stroke="#000000" points="22.5,-.5 22.5,-30.5 148.5,-30.5 148.5,-.5 22.5,-.5"/>
<text text-anchor="start" x="30.5" y="-18.5" font-family="Helvetica,sans-Serif" font-size="10.00" fill="#000000">ChimeraTK::VirtualLab</text>
<text text-anchor="middle" x="85.5" y="-7.5" font-family="Helvetica,sans-Serif" font-size="10.00" fill="#000000">::SignalSource</text>
</g>
<!-- Node4 -->
<g id="node2" class="node">
<title>Node4</title>
<g id="a_node2"><a xlink:href="class_chimera_t_k_1_1_virtual_lab_1_1_state_variable_set.html" target="_top" xlink:title="ChimeraTK::VirtualLab\l::StateVariableSet\&lt; double \&gt;">
<polygon fill="#ffffff" stroke="#000000" points="6,-78.5 6,-108.5 165,-108.5 165,-78.5 6,-78.5"/>
<text text-anchor="start" x="14" y="-96.5" font-family="Helvetica,sans-Serif" font-size="10.00" fill="#000000">ChimeraTK::VirtualLab</text>
<text text-anchor="middle" x="85.5" y="-85.5" font-family="Helvetica,sans-Serif" font-size="10.00" fill="#000000">::StateVariableSet&lt; double &gt;</text>
</a>
</g>
</g>
<!-- Node4&#45;&gt;Node3 -->
<g id="edge1" class="edge">
<title>Node4&#45;&gt;Node3</title>
<path fill="none" stroke="#9a32cd" stroke-dasharray="5,2" d="M85.5,-68.2875C85.5,-55.9187 85.5,-41.4264 85.5,-30.7592"/>
<polygon fill="#9a32cd" stroke="#9a32cd" points="82.0001,-68.4608 85.5,-78.4608 89.0001,-68.4608 82.0001,-68.4608"/>
<text text-anchor="middle" x="101.5" y="-52" font-family="Helvetica,sans-Serif" font-size="10.00" fill="#000000"> buffer</text>
</g>
<!-- Node5 -->
<g id="node3" class="node">
<title>Node5</title>
<polygon fill="#ffffff" stroke="#bfbfbf" points="0,-205.5 0,-235.5 131,-235.5 131,-205.5 0,-205.5"/>
<text text-anchor="start" x="8" y="-223.5" font-family="Helvetica,sans-Serif" font-size="10.00" fill="#000000">std::map&lt; VirtualTime,</text>
<text text-anchor="middle" x="65.5" y="-212.5" font-family="Helvetica,sans-Serif" font-size="10.00" fill="#000000"> double &gt;</text>
</g>
<!-- Node5&#45;&gt;Node4 -->
<g id="edge2" class="edge">
<title>Node5&#45;&gt;Node4</title>
<path fill="none" stroke="#9a32cd" stroke-dasharray="5,2" d="M69.4757,-195.2541C73.5542,-169.3557 79.764,-129.9236 83.1303,-108.5477"/>
<polygon fill="#9a32cd" stroke="#9a32cd" points="65.9711,-195.01 67.8728,-205.4327 72.8859,-196.099 65.9711,-195.01"/>
<text text-anchor="middle" x="91.5" y="-169" font-family="Helvetica,sans-Serif" font-size="10.00" fill="#000000"> buffer</text>
</g>
<!-- Node6 -->
<g id="node4" class="node">
<title>Node6</title>
<g id="a_node4"><a xlink:title="STL class. ">
<polygon fill="#ffffff" stroke="#bfbfbf" points="79,-332.5 79,-351.5 180,-351.5 180,-332.5 79,-332.5"/>
<text text-anchor="middle" x="129.5" y="-339.5" font-family="Helvetica,sans-Serif" font-size="10.00" fill="#000000">std::map&lt; K, T &gt;</text>
</a>
</g>
</g>
<!-- Node6&#45;&gt;Node5 -->
<g id="edge3" class="edge">
<title>Node6&#45;&gt;Node5</title>
<path fill="none" stroke="#ffa500" stroke-dasharray="5,2" d="M82.9149,-329.3608C69.9368,-324.8504 58.3263,-319.5127 54.5,-314 38.1907,-290.5024 49.3196,-255.4378 57.9948,-235.6009"/>
<polygon fill="#ffa500" stroke="#ffa500" points="81.9225,-332.7185 92.5149,-332.4896 84.0917,-326.0631 81.9225,-332.7185"/>
<text text-anchor="middle" x="115.5" y="-306" font-family="Helvetica,sans-Serif" font-size="10.00" fill="#000000"> &lt; VirtualTime, double &gt;</text>
</g>
<!-- Node10 -->
<g id="node8" class="node">
<title>Node10</title>
<polygon fill="#ffffff" stroke="#bfbfbf" points="136,-254.5 136,-284.5 267,-284.5 267,-254.5 136,-254.5"/>
<text text-anchor="start" x="144" y="-272.5" font-family="Helvetica,sans-Serif" font-size="10.00" fill="#000000">std::map&lt; VirtualTime,</text>
<text text-anchor="middle" x="201.5" y="-261.5" font-family="Helvetica,sans-Serif" font-size="10.00" fill="#000000"> STATE &gt;</text>
</g>
<!-- Node6&#45;&gt;Node10 -->
<g id="edge8" class="edge">
<title>Node6&#45;&gt;Node10</title>
<path fill="none" stroke="#ffa500" stroke-dasharray="5,2" d="M163.1512,-327.4853C169.4377,-323.7313 175.5712,-319.2399 180.5,-314 188.3431,-305.6618 193.7292,-293.8603 197.0816,-284.5056"/>
<polygon fill="#ffa500" stroke="#ffa500" points="161.0853,-324.6234 153.9538,-332.4588 164.4149,-330.7808 161.0853,-324.6234"/>
<text text-anchor="middle" x="246.5" y="-306" font-family="Helvetica,sans-Serif" font-size="10.00" fill="#000000"> &lt; VirtualTime, STATE &gt;</text>
</g>
<!-- Node7 -->
<g id="node5" class="node">
<title>Node7</title>
<polygon fill="#ffffff" stroke="#bfbfbf" points="90,-399.5 90,-418.5 119,-418.5 119,-399.5 90,-399.5"/>
<text text-anchor="middle" x="104.5" y="-406.5" font-family="Helvetica,sans-Serif" font-size="10.00" fill="#000000">K</text>
</g>
<!-- Node7&#45;&gt;Node6 -->
<g id="edge4" class="edge">
<title>Node7&#45;&gt;Node6</title>
<path fill="none" stroke="#9a32cd" stroke-dasharray="5,2" d="M102.4493,-389.0021C102.4769,-382.7427 103.2208,-375.9266 105.5,-370 108.1658,-363.0681 113.3434,-356.6692 118.2092,-351.7435"/>
<polygon fill="#9a32cd" stroke="#9a32cd" points="98.9735,-389.5539 102.9967,-399.3551 105.9638,-389.1843 98.9735,-389.5539"/>
<text text-anchor="middle" x="119" y="-373" font-family="Helvetica,sans-Serif" font-size="10.00" fill="#000000"> keys</text>
</g>
<!-- Node8 -->
<g id="node6" class="node">
<title>Node8</title>
<polygon fill="#ffffff" stroke="#bfbfbf" points="140,-399.5 140,-418.5 169,-418.5 169,-399.5 140,-399.5"/>
<text text-anchor="middle" x="154.5" y="-406.5" font-family="Helvetica,sans-Serif" font-size="10.00" fill="#000000">T</text>
</g>
<!-- Node8&#45;&gt;Node6 -->
<g id="edge5" class="edge">
<title>Node8&#45;&gt;Node6</title>
<path fill="none" stroke="#9a32cd" stroke-dasharray="5,2" d="M147.3593,-389.8628C142.6882,-377.3444 136.7855,-361.5252 133.0752,-351.5817"/>
<polygon fill="#9a32cd" stroke="#9a32cd" points="144.143,-391.2551 150.9181,-399.4005 150.7013,-388.8079 144.143,-391.2551"/>
<text text-anchor="middle" x="167" y="-373" font-family="Helvetica,sans-Serif" font-size="10.00" fill="#000000"> elements</text>
</g>
<!-- Node9 -->
<g id="node7" class="node">
<title>Node9</title>
<g id="a_node7"><a xlink:href="class_chimera_t_k_1_1_virtual_lab_1_1_state_variable_set.html" target="_top" xlink:title="A set of state variables contains a struct of time&#45;dependent variables. ">
<polygon fill="#ffffff" stroke="#000000" points="122,-156.5 122,-186.5 277,-186.5 277,-156.5 122,-156.5"/>
<text text-anchor="start" x="130" y="-174.5" font-family="Helvetica,sans-Serif" font-size="10.00" fill="#000000">ChimeraTK::VirtualLab</text>
<text text-anchor="middle" x="199.5" y="-163.5" font-family="Helvetica,sans-Serif" font-size="10.00" fill="#000000">::StateVariableSet&lt; STATE &gt;</text>
</a>
</g>
</g>
<!-- Node9&#45;&gt;Node4 -->
<g id="edge6" class="edge">
<title>Node9&#45;&gt;Node4</title>
<path fill="none" stroke="#ffa500" stroke-dasharray="5,2" d="M169.0722,-150.681C149.7904,-137.4882 125.2822,-120.7194 107.8018,-108.7592"/>
<polygon fill="#ffa500" stroke="#ffa500" points="167.2902,-153.7025 177.5197,-156.4608 171.243,-147.9254 167.2902,-153.7025"/>
<text text-anchor="middle" x="178" y="-130" font-family="Helvetica,sans-Serif" font-size="10.00" fill="#000000"> &lt; double &gt;</text>
</g>
<!-- Node10&#45;&gt;Node9 -->
<g id="edge7" class="edge">
<title>Node10&#45;&gt;Node9</title>
<path fill="none" stroke="#9a32cd" stroke-dasharray="5,2" d="M200.9793,-243.986C200.6083,-225.8087 200.1221,-201.9834 199.8103,-186.705"/>
<polygon fill="#9a32cd" stroke="#9a32cd" points="197.4841,-244.261 201.1875,-254.1875 204.4826,-244.1181 197.4841,-244.261"/>
<text text-anchor="middle" x="216.5" y="-218" font-family="Helvetica,sans-Serif" font-size="10.00" fill="#000000"> buffer</text>
</g>
</g>
</svg>
