<?xml version="1.0" encoding="UTF-8" standalone="no"?>
<!DOCTYPE svg PUBLIC "-//W3C//DTD SVG 1.1//EN"
 "http://www.w3.org/Graphics/SVG/1.1/DTD/svg11.dtd">
<!-- Generated by graphviz version 2.43.0 (0)
 -->
<!-- Title: /scratch/dragon/sources/Demac/actuators/include/CsaStepperMotor.h Pages: 1 -->
<svg width="1754pt" height="291pt"
 viewBox="0.00 0.00 1753.64 291.00" xmlns="http://www.w3.org/2000/svg" xmlns:xlink="http://www.w3.org/1999/xlink">
<g id="graph0" class="graph" transform="scale(1 1) rotate(0) translate(4 287)">
<title>/scratch/dragon/sources/Demac/actuators/include/CsaStepperMotor.h</title>
<!-- Node1 -->
<g id="Node000001" class="node">
<title>Node1</title>
<g id="a_Node000001"><a xlink:title=" ">
<polygon fill="#999999" stroke="#666666" points="362.64,-283 221.64,-283 221.64,-242 362.64,-242 362.64,-283"/>
<text text-anchor="start" x="229.64" y="-271" font-family="Helvetica,sans-Serif" font-size="10.00">/scratch/dragon/sources</text>
<text text-anchor="start" x="229.64" y="-260" font-family="Helvetica,sans-Serif" font-size="10.00">/Demac/actuators/include</text>
<text text-anchor="middle" x="292.14" y="-249" font-family="Helvetica,sans-Serif" font-size="10.00">/CsaStepperMotor.h</text>
</a>
</g>
</g>
<!-- Node2 -->
<g id="Node000002" class="node">
<title>Node2</title>
<g id="a_Node000002"><a xlink:title=" ">
<polygon fill="#e0e0e0" stroke="#999999" points="190.14,-151 58.14,-151 58.14,-132 190.14,-132 190.14,-151"/>
<text text-anchor="middle" x="124.14" y="-139" font-family="Helvetica,sans-Serif" font-size="10.00">Consatt/CsaException.h</text>
</a>
</g>
</g>
<!-- Node1&#45;&gt;Node2 -->
<g id="edge1_Node000001_Node000002" class="edge">
<title>Node1&#45;&gt;Node2</title>
<g id="a_edge1_Node000001_Node000002"><a xlink:title=" ">
<path fill="none" stroke="#63b8ff" d="M221.53,-257.8C145.85,-252.19 32.93,-238.49 6.14,-206 -15.28,-180.02 25.24,-163.12 64.5,-153.34"/>
<polygon fill="#63b8ff" stroke="#63b8ff" points="65.49,-156.7 74.42,-151 63.89,-149.89 65.49,-156.7"/>
</a>
</g>
</g>
<!-- Node3 -->
<g id="Node000003" class="node">
<title>Node3</title>
<g id="a_Node000003"><a xlink:title=" ">
<polygon fill="#e0e0e0" stroke="#999999" points="157.14,-206 15.14,-206 15.14,-187 157.14,-187 157.14,-206"/>
<text text-anchor="middle" x="86.14" y="-194" font-family="Helvetica,sans-Serif" font-size="10.00">Consatt/CsaLibTypedefs.h</text>
</a>
</g>
</g>
<!-- Node1&#45;&gt;Node3 -->
<g id="edge2_Node000001_Node000003" class="edge">
<title>Node1&#45;&gt;Node3</title>
<g id="a_edge2_Node000001_Node000003"><a xlink:title=" ">
<path fill="none" stroke="#63b8ff" d="M229.21,-241.95C194.6,-231.2 152.84,-218.22 123.39,-209.07"/>
<polygon fill="#63b8ff" stroke="#63b8ff" points="124.11,-205.63 113.52,-206.01 122.04,-212.32 124.11,-205.63"/>
</a>
</g>
</g>
<!-- Node4 -->
<g id="Node000004" class="node">
<title>Node4</title>
<g id="a_Node000004"><a xlink:title=" ">
<polygon fill="#e0e0e0" stroke="#999999" points="285.14,-206 175.14,-206 175.14,-187 285.14,-187 285.14,-206"/>
<text text-anchor="middle" x="230.14" y="-194" font-family="Helvetica,sans-Serif" font-size="10.00">Consatt/CsaLoger.h</text>
</a>
</g>
</g>
<!-- Node1&#45;&gt;Node4 -->
<g id="edge3_Node000001_Node000004" class="edge">
<title>Node1&#45;&gt;Node4</title>
<g id="a_edge3_Node000001_Node000004"><a xlink:title=" ">
<path fill="none" stroke="#63b8ff" d="M273.2,-241.95C264.37,-232.83 253.98,-222.11 245.63,-213.49"/>
<polygon fill="#63b8ff" stroke="#63b8ff" points="248.1,-211.01 238.63,-206.26 243.07,-215.88 248.1,-211.01"/>
</a>
</g>
</g>
<!-- Node5 -->
<g id="Node000005" class="node">
<title>Node5</title>
<g id="a_Node000005"><a xlink:href="_csa_stepper_motor_unit_converter_8h.html" target="_top" xlink:title=" ">
<polygon fill="white" stroke="#666666" points="769.64,-206 592.64,-206 592.64,-187 769.64,-187 769.64,-206"/>
<text text-anchor="middle" x="681.14" y="-194" font-family="Helvetica,sans-Serif" font-size="10.00">CsaStepperMotorUnitConverter.h</text>
</a>
</g>
</g>
<!-- Node1&#45;&gt;Node5 -->
<g id="edge4_Node000001_Node000005" class="edge">
<title>Node1&#45;&gt;Node5</title>
<g id="a_edge4_Node000001_Node000005"><a xlink:title=" ">
<path fill="none" stroke="#63b8ff" d="M363.04,-249.84C436.35,-237.77 549.67,-219.13 619.41,-207.66"/>
<polygon fill="#63b8ff" stroke="#63b8ff" points="620.08,-211.09 629.38,-206.02 618.94,-204.19 620.08,-211.09"/>
</a>
</g>
</g>
<!-- Node7 -->
<g id="Node000007" class="node">
<title>Node7</title>
<g id="a_Node000007"><a xlink:href="_stepper_motor_actuator_status_and_error_8h.html" target="_top" xlink:title=" ">
<polygon fill="white" stroke="#666666" points="432.64,-96 277.64,-96 277.64,-66 432.64,-66 432.64,-96"/>
<text text-anchor="start" x="285.64" y="-84" font-family="Helvetica,sans-Serif" font-size="10.00">StepperMotorActuatorStatus</text>
<text text-anchor="middle" x="355.14" y="-73" font-family="Helvetica,sans-Serif" font-size="10.00">AndError.h</text>
</a>
</g>
</g>
<!-- Node1&#45;&gt;Node7 -->
<g id="edge23_Node000001_Node000007" class="edge">
<title>Node1&#45;&gt;Node7</title>
<g id="a_edge23_Node000001_Node000007"><a xlink:title=" ">
<path fill="none" stroke="#63b8ff" d="M362.8,-245.7C383.52,-237.43 403.89,-224.9 416.14,-206 438.23,-171.92 404.43,-128.69 379,-103.31"/>
<polygon fill="#63b8ff" stroke="#63b8ff" points="381.4,-100.77 371.77,-96.34 376.54,-105.8 381.4,-100.77"/>
</a>
</g>
</g>
<!-- Node20 -->
<g id="Node000020" class="node">
<title>Node20</title>
<g id="a_Node000020"><a xlink:href="_stepper_actuator_8h.html" target="_top" xlink:title=" ">
<polygon fill="white" stroke="#666666" points="407.14,-206 303.14,-206 303.14,-187 407.14,-187 407.14,-206"/>
<text text-anchor="middle" x="355.14" y="-194" font-family="Helvetica,sans-Serif" font-size="10.00">StepperActuator.h</text>
</a>
</g>
</g>
<!-- Node1&#45;&gt;Node20 -->
<g id="edge20_Node000001_Node000020" class="edge">
<title>Node1&#45;&gt;Node20</title>
<g id="a_edge20_Node000001_Node000020"><a xlink:title=" ">
<path fill="none" stroke="#63b8ff" d="M311.38,-241.95C320.36,-232.83 330.91,-222.11 339.4,-213.49"/>
<polygon fill="#63b8ff" stroke="#63b8ff" points="342,-215.84 346.52,-206.26 337.01,-210.93 342,-215.84"/>
</a>
</g>
</g>
<!-- Node6 -->
<g id="Node000006" class="node">
<title>Node6</title>
<g id="a_Node000006"><a xlink:href="_stepper_motor_m_d22_8h.html" target="_top" xlink:title=" ">
<polygon fill="white" stroke="#666666" points="870.14,-151 750.14,-151 750.14,-132 870.14,-132 870.14,-151"/>
<text text-anchor="middle" x="810.14" y="-139" font-family="Helvetica,sans-Serif" font-size="10.00">StepperMotorMD22.h</text>
</a>
</g>
</g>
<!-- Node5&#45;&gt;Node6 -->
<g id="edge5_Node000005_Node000006" class="edge">
<title>Node5&#45;&gt;Node6</title>
<g id="a_edge5_Node000005_Node000006"><a xlink:title=" ">
<path fill="none" stroke="#63b8ff" d="M701.87,-186.98C722.9,-178.34 755.69,-164.87 779.68,-155.02"/>
<polygon fill="#63b8ff" stroke="#63b8ff" points="781.12,-158.21 789.04,-151.17 778.46,-151.73 781.12,-158.21"/>
</a>
</g>
</g>
<!-- Node6&#45;&gt;Node6 -->
<g id="edge8_Node000006_Node000006" class="edge">
<title>Node6&#45;&gt;Node6</title>
<g id="a_edge8_Node000006_Node000006"><a xlink:title=" ">
<path fill="none" stroke="#63b8ff" d="M846.65,-151.03C868.08,-153.06 888.14,-149.88 888.14,-141.5 888.14,-134.49 874.12,-131.12 857,-131.39"/>
<polygon fill="#63b8ff" stroke="#63b8ff" points="856.44,-127.92 846.65,-131.97 856.83,-134.91 856.44,-127.92"/>
</a>
</g>
</g>
<!-- Node6&#45;&gt;Node7 -->
<g id="edge6_Node000006_Node000007" class="edge">
<title>Node6&#45;&gt;Node7</title>
<g id="a_edge6_Node000006_Node000007"><a xlink:title=" ">
<path fill="none" stroke="#63b8ff" d="M749.96,-134.02C678.91,-126.19 556.91,-112.2 442.88,-96.21"/>
<polygon fill="#63b8ff" stroke="#63b8ff" points="443.32,-92.74 432.93,-94.81 442.35,-99.67 443.32,-92.74"/>
</a>
</g>
</g>
<!-- Node9 -->
<g id="Node000009" class="node">
<title>Node9</title>
<g id="a_Node000009"><a xlink:title=" ">
<polygon fill="#e0e0e0" stroke="#999999" points="1745.64,-90.5 1626.64,-90.5 1626.64,-71.5 1745.64,-71.5 1745.64,-90.5"/>
<text text-anchor="middle" x="1686.14" y="-78.5" font-family="Helvetica,sans-Serif" font-size="10.00">boost/shared_ptr.hpp</text>
</a>
</g>
</g>
<!-- Node6&#45;&gt;Node9 -->
<g id="edge9_Node000006_Node000009" class="edge">
<title>Node6&#45;&gt;Node9</title>
<g id="a_edge9_Node000006_Node000009"><a xlink:title=" ">
<path fill="none" stroke="#63b8ff" d="M870.22,-140.22C1004.75,-138.94 1340.19,-132.06 1618.14,-96 1625.05,-95.1 1632.3,-93.9 1639.39,-92.57"/>
<polygon fill="#63b8ff" stroke="#63b8ff" points="1640.47,-95.93 1649.61,-90.56 1639.12,-89.06 1640.47,-95.93"/>
</a>
</g>
</g>
<!-- Node10 -->
<g id="Node000010" class="node">
<title>Node10</title>
<g id="a_Node000010"><a xlink:title=" ">
<polygon fill="#e0e0e0" stroke="#999999" points="549.64,-90.5 450.64,-90.5 450.64,-71.5 549.64,-71.5 549.64,-90.5"/>
<text text-anchor="middle" x="500.14" y="-78.5" font-family="Helvetica,sans-Serif" font-size="10.00">boost/thread.hpp</text>
</a>
</g>
</g>
<!-- Node6&#45;&gt;Node10 -->
<g id="edge10_Node000006_Node000010" class="edge">
<title>Node6&#45;&gt;Node10</title>
<g id="a_edge10_Node000006_Node000010"><a xlink:title=" ">
<path fill="none" stroke="#63b8ff" d="M756.6,-131.92C705.66,-123.55 626.96,-110.05 559.14,-96 554.43,-95.02 549.52,-93.95 544.63,-92.84"/>
<polygon fill="#63b8ff" stroke="#63b8ff" points="545.23,-89.39 534.7,-90.55 543.65,-96.21 545.23,-89.39"/>
</a>
</g>
</g>
<!-- Node11 -->
<g id="Node000011" class="node">
<title>Node11</title>
<g id="a_Node000011"><a xlink:title=" ">
<polygon fill="#e0e0e0" stroke="#999999" points="618.14,-90.5 568.14,-90.5 568.14,-71.5 618.14,-71.5 618.14,-90.5"/>
<text text-anchor="middle" x="593.14" y="-78.5" font-family="Helvetica,sans-Serif" font-size="10.00">atomic</text>
</a>
</g>
</g>
<!-- Node6&#45;&gt;Node11 -->
<g id="edge11_Node000006_Node000011" class="edge">
<title>Node6&#45;&gt;Node11</title>
<g id="a_edge11_Node000006_Node000011"><a xlink:title=" ">
<path fill="none" stroke="#63b8ff" d="M767.1,-131.97C729.69,-124.1 674.24,-111.33 627.14,-96 625.47,-95.46 623.77,-94.87 622.06,-94.25"/>
<polygon fill="#63b8ff" stroke="#63b8ff" points="622.96,-90.85 612.37,-90.51 620.44,-97.38 622.96,-90.85"/>
</a>
</g>
</g>
<!-- Node12 -->
<g id="Node000012" class="node">
<title>Node12</title>
<g id="a_Node000012"><a xlink:title=" ">
<polygon fill="#e0e0e0" stroke="#999999" points="680.14,-90.5 636.14,-90.5 636.14,-71.5 680.14,-71.5 680.14,-90.5"/>
<text text-anchor="middle" x="658.14" y="-78.5" font-family="Helvetica,sans-Serif" font-size="10.00">string</text>
</a>
</g>
</g>
<!-- Node6&#45;&gt;Node12 -->
<g id="edge12_Node000006_Node000012" class="edge">
<title>Node6&#45;&gt;Node12</title>
<g id="a_edge12_Node000006_Node000012"><a xlink:title=" ">
<path fill="none" stroke="#63b8ff" d="M785.38,-131.98C760.78,-123.38 722.08,-109.47 689.14,-96 687.97,-95.52 686.78,-95.03 685.58,-94.52"/>
<polygon fill="#63b8ff" stroke="#63b8ff" points="686.97,-91.31 676.4,-90.51 684.17,-97.72 686.97,-91.31"/>
</a>
</g>
</g>
<!-- Node13 -->
<g id="Node000013" class="node">
<title>Node13</title>
<g id="a_Node000013"><a xlink:title=" ">
<polygon fill="#e0e0e0" stroke="#999999" points="746.14,-90.5 698.14,-90.5 698.14,-71.5 746.14,-71.5 746.14,-90.5"/>
<text text-anchor="middle" x="722.14" y="-78.5" font-family="Helvetica,sans-Serif" font-size="10.00">thread</text>
</a>
</g>
</g>
<!-- Node6&#45;&gt;Node13 -->
<g id="edge13_Node000006_Node000013" class="edge">
<title>Node6&#45;&gt;Node13</title>
<g id="a_edge13_Node000006_Node000013"><a xlink:title=" ">
<path fill="none" stroke="#63b8ff" d="M797.15,-131.87C783.12,-122.54 760.51,-107.51 743.78,-96.38"/>
<polygon fill="#63b8ff" stroke="#63b8ff" points="745.44,-93.29 735.18,-90.67 741.57,-99.12 745.44,-93.29"/>
</a>
</g>
</g>
<!-- Node14 -->
<g id="Node000014" class="node">
<title>Node14</title>
<g id="a_Node000014"><a xlink:title=" ">
<polygon fill="#e0e0e0" stroke="#999999" points="856.14,-90.5 764.14,-90.5 764.14,-71.5 856.14,-71.5 856.14,-90.5"/>
<text text-anchor="middle" x="810.14" y="-78.5" font-family="Helvetica,sans-Serif" font-size="10.00">Consatt/CtrlPI.h</text>
</a>
</g>
</g>
<!-- Node6&#45;&gt;Node14 -->
<g id="edge14_Node000006_Node000014" class="edge">
<title>Node6&#45;&gt;Node14</title>
<g id="a_edge14_Node000006_Node000014"><a xlink:title=" ">
<path fill="none" stroke="#63b8ff" d="M810.14,-131.87C810.14,-123.75 810.14,-111.31 810.14,-100.89"/>
<polygon fill="#63b8ff" stroke="#63b8ff" points="813.64,-100.67 810.14,-90.67 806.64,-100.67 813.64,-100.67"/>
</a>
</g>
</g>
<!-- Node15 -->
<g id="Node000015" class="node">
<title>Node15</title>
<g id="a_Node000015"><a xlink:title=" ">
<polygon fill="#e0e0e0" stroke="#999999" points="966.14,-90.5 874.14,-90.5 874.14,-71.5 966.14,-71.5 966.14,-90.5"/>
<text text-anchor="middle" x="920.14" y="-78.5" font-family="Helvetica,sans-Serif" font-size="10.00">Consatt/Loger.h</text>
</a>
</g>
</g>
<!-- Node6&#45;&gt;Node15 -->
<g id="edge15_Node000006_Node000015" class="edge">
<title>Node6&#45;&gt;Node15</title>
<g id="a_edge15_Node000006_Node000015"><a xlink:title=" ">
<path fill="none" stroke="#63b8ff" d="M826.37,-131.87C844.41,-122.28 873.76,-106.67 894.82,-95.47"/>
<polygon fill="#63b8ff" stroke="#63b8ff" points="896.66,-98.45 903.84,-90.67 893.37,-92.27 896.66,-98.45"/>
</a>
</g>
</g>
<!-- Node16 -->
<g id="Node000016" class="node">
<title>Node16</title>
<g id="a_Node000016"><a xlink:title=" ">
<polygon fill="#e0e0e0" stroke="#999999" points="1119.64,-96 984.64,-96 984.64,-66 1119.64,-66 1119.64,-96"/>
<text text-anchor="start" x="992.64" y="-84" font-family="Helvetica,sans-Serif" font-size="10.00">Consatt/StatisticsForCsa</text>
<text text-anchor="middle" x="1052.14" y="-73" font-family="Helvetica,sans-Serif" font-size="10.00">Vector.h</text>
</a>
</g>
</g>
<!-- Node6&#45;&gt;Node16 -->
<g id="edge16_Node000006_Node000016" class="edge">
<title>Node6&#45;&gt;Node16</title>
<g id="a_edge16_Node000006_Node000016"><a xlink:title=" ">
<path fill="none" stroke="#63b8ff" d="M845.33,-131.99C881.6,-123.23 939.07,-109.33 984.23,-98.42"/>
<polygon fill="#63b8ff" stroke="#63b8ff" points="985.06,-101.82 993.96,-96.06 983.42,-95.01 985.06,-101.82"/>
</a>
</g>
</g>
<!-- Node17 -->
<g id="Node000017" class="node">
<title>Node17</title>
<g id="a_Node000017"><a xlink:title=" ">
<polygon fill="#e0e0e0" stroke="#999999" points="1274.64,-96 1137.64,-96 1137.64,-66 1274.64,-66 1274.64,-96"/>
<text text-anchor="start" x="1145.64" y="-84" font-family="Helvetica,sans-Serif" font-size="10.00">mtca4u/MotorDriverCard</text>
<text text-anchor="middle" x="1206.14" y="-73" font-family="Helvetica,sans-Serif" font-size="10.00">/MotorControler.h</text>
</a>
</g>
</g>
<!-- Node6&#45;&gt;Node17 -->
<g id="edge17_Node000006_Node000017" class="edge">
<title>Node6&#45;&gt;Node17</title>
<g id="a_edge17_Node000006_Node000017"><a xlink:title=" ">
<path fill="none" stroke="#63b8ff" d="M870.22,-132.87C932.23,-124.83 1032.03,-111.41 1127.23,-96.27"/>
<polygon fill="#63b8ff" stroke="#63b8ff" points="1128,-99.69 1137.32,-94.66 1126.89,-92.78 1128,-99.69"/>
</a>
</g>
</g>
<!-- Node18 -->
<g id="Node000018" class="node">
<title>Node18</title>
<g id="a_Node000018"><a xlink:title=" ">
<polygon fill="#e0e0e0" stroke="#999999" points="1429.64,-96 1292.64,-96 1292.64,-66 1429.64,-66 1429.64,-96"/>
<text text-anchor="start" x="1300.64" y="-84" font-family="Helvetica,sans-Serif" font-size="10.00">mtca4u/MotorDriverCard</text>
<text text-anchor="middle" x="1361.14" y="-73" font-family="Helvetica,sans-Serif" font-size="10.00">/MotorDriverCard.h</text>
</a>
</g>
</g>
<!-- Node6&#45;&gt;Node18 -->
<g id="edge18_Node000006_Node000018" class="edge">
<title>Node6&#45;&gt;Node18</title>
<g id="a_edge18_Node000006_Node000018"><a xlink:title=" ">
<path fill="none" stroke="#63b8ff" d="M870.19,-136.53C958.41,-130.33 1128.43,-116.98 1282.23,-96.19"/>
<polygon fill="#63b8ff" stroke="#63b8ff" points="1282.91,-99.63 1292.34,-94.81 1281.96,-92.7 1282.91,-99.63"/>
</a>
</g>
</g>
<!-- Node19 -->
<g id="Node000019" class="node">
<title>Node19</title>
<g id="a_Node000019"><a xlink:title=" ">
<polygon fill="#e0e0e0" stroke="#999999" points="1608.64,-96 1447.64,-96 1447.64,-66 1608.64,-66 1608.64,-96"/>
<text text-anchor="start" x="1455.64" y="-84" font-family="Helvetica,sans-Serif" font-size="10.00">mtca4u/MotorDriverCard</text>
<text text-anchor="middle" x="1528.14" y="-73" font-family="Helvetica,sans-Serif" font-size="10.00">/MotorDriverCardConfigXML.h</text>
</a>
</g>
</g>
<!-- Node6&#45;&gt;Node19 -->
<g id="edge19_Node000006_Node000019" class="edge">
<title>Node6&#45;&gt;Node19</title>
<g id="a_edge19_Node000006_Node000019"><a xlink:title=" ">
<path fill="none" stroke="#63b8ff" d="M870.58,-137.94C981.1,-132.89 1223.39,-120.09 1437.02,-96.18"/>
<polygon fill="#63b8ff" stroke="#63b8ff" points="1437.63,-99.64 1447.17,-95.04 1436.84,-92.68 1437.63,-99.64"/>
</a>
</g>
</g>
<!-- Node8 -->
<g id="Node000008" class="node">
<title>Node8</title>
<g id="a_Node000008"><a xlink:title=" ">
<polygon fill="#e0e0e0" stroke="#999999" points="423.64,-30 286.64,-30 286.64,0 423.64,0 423.64,-30"/>
<text text-anchor="start" x="294.64" y="-18" font-family="Helvetica,sans-Serif" font-size="10.00">mtca4u/MotorDriverCard</text>
<text text-anchor="middle" x="355.14" y="-7" font-family="Helvetica,sans-Serif" font-size="10.00">/GeneralStatus.h</text>
</a>
</g>
</g>
<!-- Node7&#45;&gt;Node8 -->
<g id="edge7_Node000007_Node000008" class="edge">
<title>Node7&#45;&gt;Node8</title>
<g id="a_edge7_Node000007_Node000008"><a xlink:title=" ">
<path fill="none" stroke="#63b8ff" d="M355.14,-65.8C355.14,-58.34 355.14,-48.99 355.14,-40.41"/>
<polygon fill="#63b8ff" stroke="#63b8ff" points="358.64,-40.16 355.14,-30.16 351.64,-40.16 358.64,-40.16"/>
</a>
</g>
</g>
<!-- Node20&#45;&gt;Node2 -->
<g id="edge21_Node000020_Node000002" class="edge">
<title>Node20&#45;&gt;Node2</title>
<g id="a_edge21_Node000020_Node000002"><a xlink:title=" ">
<path fill="none" stroke="#63b8ff" d="M318.03,-186.98C278.15,-177.84 214.68,-163.27 171.3,-153.32"/>
<polygon fill="#63b8ff" stroke="#63b8ff" points="172.07,-149.91 161.54,-151.08 170.51,-156.73 172.07,-149.91"/>
</a>
</g>
</g>
<!-- Node20&#45;&gt;Node7 -->
<g id="edge22_Node000020_Node000007" class="edge">
<title>Node20&#45;&gt;Node7</title>
<g id="a_edge22_Node000020_Node000007"><a xlink:title=" ">
<path fill="none" stroke="#63b8ff" d="M355.14,-186.97C355.14,-170.08 355.14,-131.85 355.14,-106.48"/>
<polygon fill="#63b8ff" stroke="#63b8ff" points="358.64,-106.18 355.14,-96.18 351.64,-106.18 358.64,-106.18"/>
</a>
</g>
</g>
</g>
</svg>
