<?xml version="1.0" encoding="UTF-8" standalone="no"?>
<!DOCTYPE svg PUBLIC "-//W3C//DTD SVG 1.1//EN"
 "http://www.w3.org/Graphics/SVG/1.1/DTD/svg11.dtd">
<!-- Generated by graphviz version 2.43.0 (0)
 -->
<!-- Title: /scratch/dragon/sources/Demac/actuators/src/StepperMotorMD22.cc Pages: 1 -->
<!--zoomable 251 -->
<svg id="main" version="1.1" xmlns="http://www.w3.org/2000/svg" xmlns:xlink="http://www.w3.org/1999/xlink" xml:space="preserve" onload="init(evt)">
<style type="text/css"><![CDATA[
.edge:hover path { stroke: red; }
.edge:hover polygon { stroke: red; fill: red; }
]]></style>
<script type="text/javascript"><![CDATA[
var edges = document.getElementsByTagName('g');
if (edges && edges.length) {
  for (var i=0;i<edges.length;i++) {
    if (edges[i].id.substr(0,4)=='edge') {
      edges[i].setAttribute('class','edge');
    }
  }
}
]]></script>
        <defs>
                <circle id="rim" cx="0" cy="0" r="7"/>
                <circle id="rim2" cx="0" cy="0" r="3.5"/>
                <g id="zoomPlus">
                        <use xlink:href="#rim" fill="#404040">
                                <set attributeName="fill" to="#808080" begin="zoomplus.mouseover" end="zoomplus.mouseout"/>
                        </use>
                        <path d="M-4,0h8M0,-4v8" fill="none" stroke="white" stroke-width="1.5" pointer-events="none"/>
                </g>
                <g id="zoomMin">
                        <use xlink:href="#rim" fill="#404040">
                                <set attributeName="fill" to="#808080" begin="zoomminus.mouseover" end="zoomminus.mouseout"/>
                        </use>
                        <path d="M-4,0h8" fill="none" stroke="white" stroke-width="1.5" pointer-events="none"/>
                </g>
                <g id="dirArrow">
                        <path fill="none" stroke="white" stroke-width="1.5" d="M0,-3.0v7 M-2.5,-0.5L0,-3.0L2.5,-0.5"/>
                </g>
               <g id="resetDef">
                       <use xlink:href="#rim2" fill="#404040">
                               <set attributeName="fill" to="#808080" begin="reset.mouseover" end="reset.mouseout"/>
                       </use>
               </g>
        </defs>

<script type="text/javascript">
var viewWidth = 1477;
var viewHeight = 251;
var sectionId = 'dynsection-0';
</script>
<script xlink:href="svgpan.js"/>
<svg id="graph" class="graph">
<g id="viewport">
<title>/scratch/dragon/sources/Demac/actuators/src/StepperMotorMD22.cc</title>
<polygon fill="white" stroke="transparent" points="-4,4 -4,-247 1472.5,-247 1472.5,4 -4,4"/>
<!-- Node1 -->
<g id="node1" class="node">
<title>Node1</title>
<g id="a_node1"><a xlink:title=" ">
<polygon fill="#bfbfbf" stroke="black" points="740.5,-201.5 740.5,-242.5 901.5,-242.5 901.5,-201.5 740.5,-201.5"/>
<text text-anchor="start" x="748.5" y="-230.5" font-family="Helvetica,sans-Serif" font-size="10.00">/scratch/dragon/sources</text>
<text text-anchor="start" x="748.5" y="-219.5" font-family="Helvetica,sans-Serif" font-size="10.00">/Demac/actuators/src/Stepper</text>
<text text-anchor="middle" x="821" y="-208.5" font-family="Helvetica,sans-Serif" font-size="10.00">MotorMD22.cc</text>
</a>
</g>
</g>
<!-- Node2 -->
<g id="node2" class="node">
<title>Node2</title>
<g id="a_node2"><a xlink:href="_stepper_motor_m_d22_8h.html" target="_top" xlink:title=" ">
<polygon fill="white" stroke="black" points="522,-140 522,-159 642,-159 642,-140 522,-140"/>
<text text-anchor="middle" x="582" y="-147" font-family="Helvetica,sans-Serif" font-size="10.00">StepperMotorMD22.h</text>
</a>
</g>
</g>
<!-- Node1&#45;&gt;Node2 -->
<g id="edge1" class="edge">
<title>Node1&#45;&gt;Node2</title>
<path fill="none" stroke="midnightblue" d="M754.74,-201.46C711.56,-188.72 656.71,-172.54 620.54,-161.87"/>
<polygon fill="midnightblue" stroke="midnightblue" points="621.44,-158.49 610.86,-159.01 619.46,-165.2 621.44,-158.49"/>
</g>
<!-- Node8 -->
<g id="node8" class="node">
<title>Node8</title>
<g id="a_node8"><a xlink:title=" ">
<polygon fill="white" stroke="#bfbfbf" points="0,-73 0,-92 44,-92 44,-73 0,-73"/>
<text text-anchor="middle" x="22" y="-80" font-family="Helvetica,sans-Serif" font-size="10.00">string</text>
</a>
</g>
</g>
<!-- Node1&#45;&gt;Node8 -->
<g id="edge20" class="edge">
<title>Node1&#45;&gt;Node8</title>
<path fill="none" stroke="midnightblue" d="M740.29,-215.5C598.5,-204.2 296.63,-172.87 53,-98 51.13,-97.42 49.22,-96.76 47.32,-96.03"/>
<polygon fill="midnightblue" stroke="midnightblue" points="48.64,-92.79 38.07,-92.05 45.88,-99.22 48.64,-92.79"/>
</g>
<!-- Node16 -->
<g id="node16" class="node">
<title>Node16</title>
<g id="a_node16"><a xlink:title=" ">
<polygon fill="white" stroke="#bfbfbf" points="678.5,-140 678.5,-159 809.5,-159 809.5,-140 678.5,-140"/>
<text text-anchor="middle" x="744" y="-147" font-family="Helvetica,sans-Serif" font-size="10.00">ChimeraTK/Exception.h</text>
</a>
</g>
</g>
<!-- Node1&#45;&gt;Node16 -->
<g id="edge16" class="edge">
<title>Node1&#45;&gt;Node16</title>
<path fill="none" stroke="midnightblue" d="M799.55,-201.36C787.38,-190.21 772.35,-176.46 761,-166.06"/>
<polygon fill="midnightblue" stroke="midnightblue" points="763.21,-163.34 753.47,-159.17 758.49,-168.51 763.21,-163.34"/>
</g>
<!-- Node17 -->
<g id="node17" class="node">
<title>Node17</title>
<g id="a_node17"><a xlink:title=" ">
<polygon fill="white" stroke="#bfbfbf" points="827.5,-134.5 827.5,-164.5 970.5,-164.5 970.5,-134.5 827.5,-134.5"/>
<text text-anchor="start" x="835.5" y="-152.5" font-family="Helvetica,sans-Serif" font-size="10.00">mtca4u/MotorDriverCard</text>
<text text-anchor="middle" x="899" y="-141.5" font-family="Helvetica,sans-Serif" font-size="10.00">/MotorDriverCardFactory.h</text>
</a>
</g>
</g>
<!-- Node1&#45;&gt;Node17 -->
<g id="edge17" class="edge">
<title>Node1&#45;&gt;Node17</title>
<path fill="none" stroke="midnightblue" d="M842.73,-201.36C852.93,-192.14 865.11,-181.13 875.52,-171.72"/>
<polygon fill="midnightblue" stroke="midnightblue" points="878.01,-174.19 883.08,-164.89 873.31,-169 878.01,-174.19"/>
</g>
<!-- Node18 -->
<g id="node18" class="node">
<title>Node18</title>
<g id="a_node18"><a xlink:title=" ">
<polygon fill="white" stroke="#bfbfbf" points="988.5,-140 988.5,-159 1035.5,-159 1035.5,-140 988.5,-140"/>
<text text-anchor="middle" x="1012" y="-147" font-family="Helvetica,sans-Serif" font-size="10.00">cmath</text>
</a>
</g>
</g>
<!-- Node1&#45;&gt;Node18 -->
<g id="edge18" class="edge">
<title>Node1&#45;&gt;Node18</title>
<path fill="none" stroke="midnightblue" d="M880.35,-201.46C910.44,-191.22 947.41,-178.09 980,-165 981.41,-164.43 982.86,-163.84 984.31,-163.22"/>
<polygon fill="midnightblue" stroke="midnightblue" points="986.08,-166.27 993.84,-159.06 983.28,-159.86 986.08,-166.27"/>
</g>
<!-- Node19 -->
<g id="node19" class="node">
<title>Node19</title>
<g id="a_node19"><a xlink:title=" ">
<polygon fill="white" stroke="#bfbfbf" points="1054,-140 1054,-159 1100,-159 1100,-140 1054,-140"/>
<text text-anchor="middle" x="1077" y="-147" font-family="Helvetica,sans-Serif" font-size="10.00">future</text>
</a>
</g>
</g>
<!-- Node1&#45;&gt;Node19 -->
<g id="edge19" class="edge">
<title>Node1&#45;&gt;Node19</title>
<path fill="none" stroke="midnightblue" d="M901.59,-204.55C944.69,-194.84 998.34,-181.25 1045,-165 1046.66,-164.42 1048.36,-163.79 1050.06,-163.12"/>
<polygon fill="midnightblue" stroke="midnightblue" points="1051.79,-166.19 1059.63,-159.06 1049.05,-159.74 1051.79,-166.19"/>
</g>
<!-- Node2&#45;&gt;Node2 -->
<g id="edge4" class="edge">
<title>Node2&#45;&gt;Node2</title>
<path fill="none" stroke="midnightblue" d="M606.36,-159.06C631.66,-164.87 660,-161.68 660,-149.5 660,-138.89 638.49,-135.1 616.23,-138.14"/>
<polygon fill="midnightblue" stroke="midnightblue" points="615.57,-134.7 606.36,-139.94 616.82,-141.59 615.57,-134.7"/>
</g>
<!-- Node3 -->
<g id="node3" class="node">
<title>Node3</title>
<g id="a_node3"><a xlink:href="_stepper_motor_actuator_status_and_error_8h.html" target="_top" xlink:title=" ">
<polygon fill="white" stroke="black" points="62.5,-67.5 62.5,-97.5 217.5,-97.5 217.5,-67.5 62.5,-67.5"/>
<text text-anchor="start" x="70.5" y="-85.5" font-family="Helvetica,sans-Serif" font-size="10.00">StepperMotorActuatorStatus</text>
<text text-anchor="middle" x="140" y="-74.5" font-family="Helvetica,sans-Serif" font-size="10.00">AndError.h</text>
</a>
</g>
</g>
<!-- Node2&#45;&gt;Node3 -->
<g id="edge2" class="edge">
<title>Node2&#45;&gt;Node3</title>
<path fill="none" stroke="midnightblue" d="M521.95,-140.4C453.37,-131.05 337.55,-114.96 227.7,-98.09"/>
<polygon fill="midnightblue" stroke="midnightblue" points="228.19,-94.62 217.77,-96.56 227.12,-101.54 228.19,-94.62"/>
</g>
<!-- Node5 -->
<g id="node5" class="node">
<title>Node5</title>
<g id="a_node5"><a xlink:title=" ">
<polygon fill="white" stroke="#bfbfbf" points="235.5,-73 235.5,-92 354.5,-92 354.5,-73 235.5,-73"/>
<text text-anchor="middle" x="295" y="-80" font-family="Helvetica,sans-Serif" font-size="10.00">boost/shared_ptr.hpp</text>
</a>
</g>
</g>
<!-- Node2&#45;&gt;Node5 -->
<g id="edge5" class="edge">
<title>Node2&#45;&gt;Node5</title>
<path fill="none" stroke="midnightblue" d="M544.18,-139.94C492.35,-128.2 399.23,-107.11 342.67,-94.3"/>
<polygon fill="midnightblue" stroke="midnightblue" points="343.43,-90.88 332.9,-92.08 341.88,-97.71 343.43,-90.88"/>
</g>
<!-- Node6 -->
<g id="node6" class="node">
<title>Node6</title>
<g id="a_node6"><a xlink:title=" ">
<polygon fill="white" stroke="#bfbfbf" points="372.5,-73 372.5,-92 471.5,-92 471.5,-73 372.5,-73"/>
<text text-anchor="middle" x="422" y="-80" font-family="Helvetica,sans-Serif" font-size="10.00">boost/thread.hpp</text>
</a>
</g>
</g>
<!-- Node2&#45;&gt;Node6 -->
<g id="edge6" class="edge">
<title>Node2&#45;&gt;Node6</title>
<path fill="none" stroke="midnightblue" d="M560.75,-139.87C533.06,-128.62 484.44,-108.87 452.73,-95.99"/>
<polygon fill="midnightblue" stroke="midnightblue" points="453.66,-92.58 443.08,-92.06 451.03,-99.07 453.66,-92.58"/>
</g>
<!-- Node7 -->
<g id="node7" class="node">
<title>Node7</title>
<g id="a_node7"><a xlink:title=" ">
<polygon fill="white" stroke="#bfbfbf" points="490,-73 490,-92 540,-92 540,-73 490,-73"/>
<text text-anchor="middle" x="515" y="-80" font-family="Helvetica,sans-Serif" font-size="10.00">atomic</text>
</a>
</g>
</g>
<!-- Node2&#45;&gt;Node7 -->
<g id="edge7" class="edge">
<title>Node2&#45;&gt;Node7</title>
<path fill="none" stroke="midnightblue" d="M572.96,-139.73C562.32,-129.4 544.42,-112.04 531.32,-99.33"/>
<polygon fill="midnightblue" stroke="midnightblue" points="533.51,-96.58 523.89,-92.13 528.63,-101.6 533.51,-96.58"/>
</g>
<!-- Node2&#45;&gt;Node8 -->
<g id="edge8" class="edge">
<title>Node2&#45;&gt;Node8</title>
<path fill="none" stroke="midnightblue" d="M521.91,-145.35C402.63,-138.67 140,-121.74 53,-98 51.07,-97.47 49.1,-96.83 47.15,-96.12"/>
<polygon fill="midnightblue" stroke="midnightblue" points="48.27,-92.79 37.69,-92.11 45.53,-99.23 48.27,-92.79"/>
</g>
<!-- Node9 -->
<g id="node9" class="node">
<title>Node9</title>
<g id="a_node9"><a xlink:title=" ">
<polygon fill="white" stroke="#bfbfbf" points="558,-73 558,-92 606,-92 606,-73 558,-73"/>
<text text-anchor="middle" x="582" y="-80" font-family="Helvetica,sans-Serif" font-size="10.00">thread</text>
</a>
</g>
</g>
<!-- Node2&#45;&gt;Node9 -->
<g id="edge9" class="edge">
<title>Node2&#45;&gt;Node9</title>
<path fill="none" stroke="midnightblue" d="M582,-139.73C582,-130.18 582,-114.62 582,-102.28"/>
<polygon fill="midnightblue" stroke="midnightblue" points="585.5,-102.13 582,-92.13 578.5,-102.13 585.5,-102.13"/>
</g>
<!-- Node10 -->
<g id="node10" class="node">
<title>Node10</title>
<g id="a_node10"><a xlink:title=" ">
<polygon fill="white" stroke="#bfbfbf" points="624,-73 624,-92 716,-92 716,-73 624,-73"/>
<text text-anchor="middle" x="670" y="-80" font-family="Helvetica,sans-Serif" font-size="10.00">Consatt/CtrlPI.h</text>
</a>
</g>
</g>
<!-- Node2&#45;&gt;Node10 -->
<g id="edge10" class="edge">
<title>Node2&#45;&gt;Node10</title>
<path fill="none" stroke="midnightblue" d="M593.87,-139.73C608.25,-129.11 632.7,-111.05 650.01,-98.26"/>
<polygon fill="midnightblue" stroke="midnightblue" points="652.36,-100.88 658.32,-92.13 648.2,-95.25 652.36,-100.88"/>
</g>
<!-- Node11 -->
<g id="node11" class="node">
<title>Node11</title>
<g id="a_node11"><a xlink:title=" ">
<polygon fill="white" stroke="#bfbfbf" points="734,-73 734,-92 826,-92 826,-73 734,-73"/>
<text text-anchor="middle" x="780" y="-80" font-family="Helvetica,sans-Serif" font-size="10.00">Consatt/Loger.h</text>
</a>
</g>
</g>
<!-- Node2&#45;&gt;Node11 -->
<g id="edge11" class="edge">
<title>Node2&#45;&gt;Node11</title>
<path fill="none" stroke="midnightblue" d="M608.29,-139.87C643.23,-128.4 705.08,-108.09 744.24,-95.24"/>
<polygon fill="midnightblue" stroke="midnightblue" points="745.5,-98.51 753.91,-92.06 743.32,-91.86 745.5,-98.51"/>
</g>
<!-- Node12 -->
<g id="node12" class="node">
<title>Node12</title>
<g id="a_node12"><a xlink:title=" ">
<polygon fill="white" stroke="#bfbfbf" points="844.5,-67.5 844.5,-97.5 979.5,-97.5 979.5,-67.5 844.5,-67.5"/>
<text text-anchor="start" x="852.5" y="-85.5" font-family="Helvetica,sans-Serif" font-size="10.00">Consatt/StatisticsForCsa</text>
<text text-anchor="middle" x="912" y="-74.5" font-family="Helvetica,sans-Serif" font-size="10.00">Vector.h</text>
</a>
</g>
</g>
<!-- Node2&#45;&gt;Node12 -->
<g id="edge12" class="edge">
<title>Node2&#45;&gt;Node12</title>
<path fill="none" stroke="midnightblue" d="M625.48,-139.94C678.59,-129.48 769.37,-111.59 834.53,-98.76"/>
<polygon fill="midnightblue" stroke="midnightblue" points="835.22,-102.19 844.36,-96.82 833.87,-95.32 835.22,-102.19"/>
</g>
<!-- Node13 -->
<g id="node13" class="node">
<title>Node13</title>
<g id="a_node13"><a xlink:title=" ">
<polygon fill="white" stroke="#bfbfbf" points="997.5,-67.5 997.5,-97.5 1134.5,-97.5 1134.5,-67.5 997.5,-67.5"/>
<text text-anchor="start" x="1005.5" y="-85.5" font-family="Helvetica,sans-Serif" font-size="10.00">mtca4u/MotorDriverCard</text>
<text text-anchor="middle" x="1066" y="-74.5" font-family="Helvetica,sans-Serif" font-size="10.00">/MotorControler.h</text>
</a>
</g>
</g>
<!-- Node2&#45;&gt;Node13 -->
<g id="edge13" class="edge">
<title>Node2&#45;&gt;Node13</title>
<path fill="none" stroke="midnightblue" d="M631.27,-139.93C643.88,-137.86 657.42,-135.74 670,-134 808.15,-114.84 846.21,-119.01 987.3,-98.19"/>
<polygon fill="midnightblue" stroke="midnightblue" points="987.82,-101.65 997.2,-96.72 986.79,-94.73 987.82,-101.65"/>
</g>
<!-- Node14 -->
<g id="node14" class="node">
<title>Node14</title>
<g id="a_node14"><a xlink:title=" ">
<polygon fill="white" stroke="#bfbfbf" points="1152.5,-67.5 1152.5,-97.5 1289.5,-97.5 1289.5,-67.5 1152.5,-67.5"/>
<text text-anchor="start" x="1160.5" y="-85.5" font-family="Helvetica,sans-Serif" font-size="10.00">mtca4u/MotorDriverCard</text>
<text text-anchor="middle" x="1221" y="-74.5" font-family="Helvetica,sans-Serif" font-size="10.00">/MotorDriverCard.h</text>
</a>
</g>
</g>
<!-- Node2&#45;&gt;Node14 -->
<g id="edge14" class="edge">
<title>Node2&#45;&gt;Node14</title>
<path fill="none" stroke="midnightblue" d="M628.93,-139.99C642.18,-137.8 656.63,-135.61 670,-134 876.49,-109.2 932.79,-125.08 1142.13,-98.16"/>
<polygon fill="midnightblue" stroke="midnightblue" points="1142.75,-101.61 1152.21,-96.84 1141.84,-94.66 1142.75,-101.61"/>
</g>
<!-- Node15 -->
<g id="node15" class="node">
<title>Node15</title>
<g id="a_node15"><a xlink:title=" ">
<polygon fill="white" stroke="#bfbfbf" points="1307.5,-67.5 1307.5,-97.5 1468.5,-97.5 1468.5,-67.5 1307.5,-67.5"/>
<text text-anchor="start" x="1315.5" y="-85.5" font-family="Helvetica,sans-Serif" font-size="10.00">mtca4u/MotorDriverCard</text>
<text text-anchor="middle" x="1388" y="-74.5" font-family="Helvetica,sans-Serif" font-size="10.00">/MotorDriverCardConfigXML.h</text>
</a>
</g>
</g>
<!-- Node2&#45;&gt;Node15 -->
<g id="edge15" class="edge">
<title>Node2&#45;&gt;Node15</title>
<path fill="none" stroke="midnightblue" d="M628,-139.97C641.49,-137.73 656.3,-135.52 670,-134 945.05,-103.56 1018.94,-127.97 1297.06,-98.14"/>
<polygon fill="midnightblue" stroke="midnightblue" points="1297.48,-101.62 1307.04,-97.06 1296.72,-94.66 1297.48,-101.62"/>
</g>
<!-- Node4 -->
<g id="node4" class="node">
<title>Node4</title>
<g id="a_node4"><a xlink:title=" ">
<polygon fill="white" stroke="#bfbfbf" points="71.5,-0.5 71.5,-30.5 208.5,-30.5 208.5,-0.5 71.5,-0.5"/>
<text text-anchor="start" x="79.5" y="-18.5" font-family="Helvetica,sans-Serif" font-size="10.00">mtca4u/MotorDriverCard</text>
<text text-anchor="middle" x="140" y="-7.5" font-family="Helvetica,sans-Serif" font-size="10.00">/GeneralStatus.h</text>
</a>
</g>
</g>
<!-- Node3&#45;&gt;Node4 -->
<g id="edge3" class="edge">
<title>Node3&#45;&gt;Node4</title>
<path fill="none" stroke="midnightblue" d="M140,-67.4C140,-59.64 140,-49.81 140,-40.86"/>
<polygon fill="midnightblue" stroke="midnightblue" points="143.5,-40.58 140,-30.58 136.5,-40.58 143.5,-40.58"/>
</g>
</g>
</svg>
        <g id="navigator" transform="translate(0 0)" fill="#404254">
                <rect fill="#f2f5e9" fill-opacity="0.5" stroke="#606060" stroke-width=".5" x="0" y="0" width="60" height="60"/>
                <use id="zoomplus" xlink:href="#zoomPlus" x="17" y="9" onmousedown="handleZoom(evt,'in')"/>
                <use id="zoomminus" xlink:href="#zoomMin" x="42" y="9" onmousedown="handleZoom(evt,'out')"/>
                <use id="reset" xlink:href="#resetDef" x="30" y="36" onmousedown="handleReset()"/>
                <g id="arrowUp" xlink:href="#dirArrow" transform="translate(30 24)" onmousedown="handlePan(0,-1)">
                  <use xlink:href="#rim" fill="#404040">
                        <set attributeName="fill" to="#808080" begin="arrowUp.mouseover" end="arrowUp.mouseout"/>
                  </use>
                  <path fill="none" stroke="white" stroke-width="1.5" d="M0,-3.0v7 M-2.5,-0.5L0,-3.0L2.5,-0.5"/>
                </g>
                <g id="arrowRight" xlink:href="#dirArrow" transform="rotate(90) translate(36 -43)" onmousedown="handlePan(1,0)">
                  <use xlink:href="#rim" fill="#404040">
                        <set attributeName="fill" to="#808080" begin="arrowRight.mouseover" end="arrowRight.mouseout"/>
                  </use>
                  <path fill="none" stroke="white" stroke-width="1.5" d="M0,-3.0v7 M-2.5,-0.5L0,-3.0L2.5,-0.5"/>
                </g>
                <g id="arrowDown" xlink:href="#dirArrow" transform="rotate(180) translate(-30 -48)" onmousedown="handlePan(0,1)">
                  <use xlink:href="#rim" fill="#404040">
                        <set attributeName="fill" to="#808080" begin="arrowDown.mouseover" end="arrowDown.mouseout"/>
                  </use>
                  <path fill="none" stroke="white" stroke-width="1.5" d="M0,-3.0v7 M-2.5,-0.5L0,-3.0L2.5,-0.5"/>
                </g>
                <g id="arrowLeft" xlink:href="#dirArrow" transform="rotate(270) translate(-36 17)" onmousedown="handlePan(-1,0)">
                  <use xlink:href="#rim" fill="#404040">
                        <set attributeName="fill" to="#808080" begin="arrowLeft.mouseover" end="arrowLeft.mouseout"/>
                  </use>
                  <path fill="none" stroke="white" stroke-width="1.5" d="M0,-3.0v7 M-2.5,-0.5L0,-3.0L2.5,-0.5"/>
                </g>
        </g>
        <svg viewBox="0 0 15 15" width="100%" height="30px" preserveAspectRatio="xMaxYMin meet">
         <g id="arrow_out" transform="scale(0.3 0.3)">
          <a xlink:href="_stepper_motor_m_d22_8cc__incl_org.svg" target="_base">
           <rect id="button" ry="5" rx="5" y="6" x="6" height="38" width="38"
                fill="#f2f5e9" fill-opacity="0.5" stroke="#606060" stroke-width="1.0"/>
           <path id="arrow"
             d="M 11.500037,31.436501 C 11.940474,20.09759 22.043105,11.32322 32.158766,21.979434 L 37.068811,17.246167 C 37.068811,17.246167 37.088388,32 37.088388,32 L 22.160133,31.978069 C 22.160133,31.978069 26.997745,27.140456 26.997745,27.140456 C 18.528582,18.264221 13.291696,25.230495 11.500037,31.436501 z"
             style="fill:#404040;"/>
          </a>
         </g>
        </svg>
</svg>
