<?xml version="1.0" encoding="UTF-8" standalone="no"?>
<!DOCTYPE svg PUBLIC "-//W3C//DTD SVG 1.1//EN"
 "http://www.w3.org/Graphics/SVG/1.1/DTD/svg11.dtd">
<!-- Generated by graphviz version 2.43.0 (0)
 -->
<!-- Title: M_ENT_Sis8300L2BspDac::M_ENT_Sis8300L2BspDac Pages: 1 -->
<svg width="520pt" height="82pt"
 viewBox="0.00 0.00 520.00 82.00" xmlns="http://www.w3.org/2000/svg" xmlns:xlink="http://www.w3.org/1999/xlink">
<g id="graph0" class="graph" transform="scale(1 1) rotate(0) translate(4 78)">
<title>M_ENT_Sis8300L2BspDac::M_ENT_Sis8300L2BspDac</title>
<!-- Node1 -->
<g id="Node000001" class="node">
<title>Node1</title>
<g id="a_Node000001"><a xlink:title=" ">
<polygon fill="#999999" stroke="#666666" points="148,-51.5 0,-51.5 0,-21.5 148,-21.5 148,-51.5"/>
<text text-anchor="start" x="8" y="-39.5" font-family="Helvetica,sans-Serif" font-size="10.00">M_ENT_Sis8300L2BspDac</text>
<text text-anchor="middle" x="74" y="-28.5" font-family="Helvetica,sans-Serif" font-size="10.00">::M_ENT_Sis8300L2BspDac</text>
</a>
</g>
</g>
<!-- Node2 -->
<g id="Node000002" class="node">
<title>Node2</title>
<g id="a_Node000002"><a xlink:href="class_module_name.html#ab2630dab864e6c294f23ad9cc8c2aaa5" target="_top" xlink:title=" ">
<polygon fill="white" stroke="#666666" points="351,-74 184,-74 184,-55 351,-55 351,-74"/>
<text text-anchor="middle" x="267.5" y="-62" font-family="Helvetica,sans-Serif" font-size="10.00">ModuleName::addToModName</text>
</a>
</g>
</g>
<!-- Node1&#45;&gt;Node2 -->
<g id="edge1_Node000001_Node000002" class="edge">
<title>Node1&#45;&gt;Node2</title>
<g id="a_edge1_Node000001_Node000002"><a xlink:title=" ">
<path fill="none" stroke="#63b8ff" d="M148.22,-47.21C162.32,-49.27 177.12,-51.43 191.28,-53.5"/>
<polygon fill="#63b8ff" stroke="#63b8ff" points="191.07,-57.01 201.47,-54.99 192.08,-50.08 191.07,-57.01"/>
</a>
</g>
</g>
<!-- Node4 -->
<g id="Node000004" class="node">
<title>Node4</title>
<g id="a_Node000004"><a xlink:href="class_device_module_base.html#a64f4b4cda0dea8a7a9cf5770c8aee996" target="_top" xlink:title=" ">
<polygon fill="white" stroke="#666666" points="333.5,-19 201.5,-19 201.5,0 333.5,0 333.5,-19"/>
<text text-anchor="middle" x="267.5" y="-7" font-family="Helvetica,sans-Serif" font-size="10.00">DeviceModuleBase::init</text>
</a>
</g>
</g>
<!-- Node1&#45;&gt;Node4 -->
<g id="edge3_Node000001_Node000004" class="edge">
<title>Node1&#45;&gt;Node4</title>
<g id="a_edge3_Node000001_Node000004"><a xlink:title=" ">
<path fill="none" stroke="#63b8ff" d="M148.22,-26.18C162.32,-24.19 177.12,-22.1 191.28,-20.1"/>
<polygon fill="#63b8ff" stroke="#63b8ff" points="192.06,-23.53 201.47,-18.67 191.08,-16.6 192.06,-23.53"/>
</a>
</g>
</g>
<!-- Node3 -->
<g id="Node000003" class="node">
<title>Node3</title>
<g id="a_Node000003"><a xlink:href="class_module_name.html#adc3be56095cd901394b58c497771f3b1" target="_top" xlink:title=" ">
<polygon fill="white" stroke="#666666" points="512,-74 387,-74 387,-55 512,-55 512,-74"/>
<text text-anchor="middle" x="449.5" y="-62" font-family="Helvetica,sans-Serif" font-size="10.00">ModuleName::buildStr</text>
</a>
</g>
</g>
<!-- Node2&#45;&gt;Node3 -->
<g id="edge2_Node000002_Node000003" class="edge">
<title>Node2&#45;&gt;Node3</title>
<g id="a_edge2_Node000002_Node000003"><a xlink:title=" ">
<path fill="none" stroke="#63b8ff" d="M351.12,-64.5C359.67,-64.5 368.3,-64.5 376.71,-64.5"/>
<polygon fill="#63b8ff" stroke="#63b8ff" points="376.83,-68 386.83,-64.5 376.83,-61 376.83,-68"/>
</a>
</g>
</g>
<!-- Node4&#45;&gt;Node4 -->
<g id="edge4_Node000004_Node000004" class="edge">
<title>Node4&#45;&gt;Node4</title>
<g id="a_edge4_Node000004_Node000004"><a xlink:title=" ">
<path fill="none" stroke="#63b8ff" d="M239.76,-19.08C226.26,-27.73 235.51,-37 267.5,-37 288.99,-37 300.22,-32.82 301.18,-27.45"/>
<polygon fill="#63b8ff" stroke="#63b8ff" points="303.89,-25.21 295.24,-19.08 298.18,-29.26 303.89,-25.21"/>
</a>
</g>
</g>
</g>
</svg>
