<?xml version="1.0" encoding="UTF-8" standalone="no"?>
<!DOCTYPE svg PUBLIC "-//W3C//DTD SVG 1.1//EN"
 "http://www.w3.org/Graphics/SVG/1.1/DTD/svg11.dtd">
<!-- Generated by graphviz version 2.43.0 (0)
 -->
<!-- Title: CsaCoarseTuningDetectorBeatFreq::getCurrentValue Pages: 1 -->
<svg width="528pt" height="104pt"
 viewBox="0.00 0.00 528.00 104.00" xmlns="http://www.w3.org/2000/svg" xmlns:xlink="http://www.w3.org/1999/xlink">
<g id="graph0" class="graph" transform="scale(1 1) rotate(0) translate(4 100)">
<title>CsaCoarseTuningDetectorBeatFreq::getCurrentValue</title>
<!-- Node1 -->
<g id="Node000001" class="node">
<title>Node1</title>
<g id="a_Node000001"><a xlink:title=" ">
<polygon fill="#999999" stroke="#666666" points="164,-54 0,-54 0,-24 164,-24 164,-54"/>
<text text-anchor="start" x="8" y="-42" font-family="Helvetica,sans-Serif" font-size="10.00">CsaCoarseTuningDetectorBeat</text>
<text text-anchor="middle" x="82" y="-31" font-family="Helvetica,sans-Serif" font-size="10.00">Freq::getCurrentValue</text>
</a>
</g>
</g>
<!-- Node2 -->
<g id="Node000002" class="node">
<title>Node2</title>
<g id="a_Node000002"><a xlink:href="class_csa_coarse_tuning_detector_1_1_c_t_d_error.html#a6fad14b13040f5c71e597eff1881726a" target="_top" xlink:title=" ">
<polygon fill="white" stroke="#666666" points="342,-78 200,-78 200,-48 342,-48 342,-78"/>
<text text-anchor="start" x="208" y="-66" font-family="Helvetica,sans-Serif" font-size="10.00">CsaCoarseTuningDetector</text>
<text text-anchor="middle" x="271" y="-55" font-family="Helvetica,sans-Serif" font-size="10.00">::CTDError::clear</text>
</a>
</g>
</g>
<!-- Node1&#45;&gt;Node2 -->
<g id="edge1_Node000001_Node000002" class="edge">
<title>Node1&#45;&gt;Node2</title>
<g id="a_edge1_Node000001_Node000002"><a xlink:title=" ">
<path fill="none" stroke="#63b8ff" d="M164.21,-49.42C172.61,-50.5 181.16,-51.6 189.56,-52.68"/>
<polygon fill="#63b8ff" stroke="#63b8ff" points="189.35,-56.18 199.72,-53.98 190.24,-49.23 189.35,-56.18"/>
</a>
</g>
</g>
<!-- Node3 -->
<g id="Node000003" class="node">
<title>Node3</title>
<g id="a_Node000003"><a xlink:href="class_csa_coarse_tuning_detector_1_1_c_t_d_error.html#a778c129905bbe917ef573a40b1ee06cb" target="_top" xlink:title=" ">
<polygon fill="white" stroke="#666666" points="342,-30 200,-30 200,0 342,0 342,-30"/>
<text text-anchor="start" x="208" y="-18" font-family="Helvetica,sans-Serif" font-size="10.00">CsaCoarseTuningDetector</text>
<text text-anchor="middle" x="271" y="-7" font-family="Helvetica,sans-Serif" font-size="10.00">::CTDError::set</text>
</a>
</g>
</g>
<!-- Node1&#45;&gt;Node3 -->
<g id="edge3_Node000001_Node000003" class="edge">
<title>Node1&#45;&gt;Node3</title>
<g id="a_edge3_Node000001_Node000003"><a xlink:title=" ">
<path fill="none" stroke="#63b8ff" d="M164.21,-28.58C172.61,-27.5 181.16,-26.4 189.56,-25.32"/>
<polygon fill="#63b8ff" stroke="#63b8ff" points="190.24,-28.77 199.72,-24.02 189.35,-21.82 190.24,-28.77"/>
</a>
</g>
</g>
<!-- Node2&#45;&gt;Node2 -->
<g id="edge2_Node000002_Node000002" class="edge">
<title>Node2&#45;&gt;Node2</title>
<g id="a_edge2_Node000002_Node000002"><a xlink:title=" ">
<path fill="none" stroke="#63b8ff" d="M239.71,-78.28C232.76,-87.41 243.19,-96 271,-96 287.51,-96 297.9,-92.97 302.16,-88.6"/>
<polygon fill="#63b8ff" stroke="#63b8ff" points="305.66,-88.32 302.29,-78.28 298.66,-88.23 305.66,-88.32"/>
</a>
</g>
</g>
<!-- Node4 -->
<g id="Node000004" class="node">
<title>Node4</title>
<g id="a_Node000004"><a xlink:href="class_csa_coarse_tuning_detector_1_1_c_t_d_error.html#ac4440de23d2e7a40e881475852897bda" target="_top" xlink:title=" ">
<polygon fill="white" stroke="#666666" points="520,-30 378,-30 378,0 520,0 520,-30"/>
<text text-anchor="start" x="386" y="-18" font-family="Helvetica,sans-Serif" font-size="10.00">CsaCoarseTuningDetector</text>
<text text-anchor="middle" x="449" y="-7" font-family="Helvetica,sans-Serif" font-size="10.00">::CTDError::type</text>
</a>
</g>
</g>
<!-- Node3&#45;&gt;Node4 -->
<g id="edge4_Node000003_Node000004" class="edge">
<title>Node3&#45;&gt;Node4</title>
<g id="a_edge4_Node000003_Node000004"><a xlink:title=" ">
<path fill="none" stroke="#63b8ff" d="M342.07,-15C350.54,-15 359.25,-15 367.85,-15"/>
<polygon fill="#63b8ff" stroke="#63b8ff" points="367.89,-18.5 377.89,-15 367.89,-11.5 367.89,-18.5"/>
</a>
</g>
</g>
</g>
</svg>
