<?xml version="1.0" encoding="UTF-8" standalone="no"?>
<!DOCTYPE svg PUBLIC "-//W3C//DTD SVG 1.1//EN"
 "http://www.w3.org/Graphics/SVG/1.1/DTD/svg11.dtd">
<!-- Generated by graphviz version 2.43.0 (0)
 -->
<!-- Title: CsaCoarseTuningDetectorBeatFreq Pages: 1 -->
<svg width="1546pt" height="207pt"
 viewBox="0.00 0.00 1546.00 206.50" xmlns="http://www.w3.org/2000/svg" xmlns:xlink="http://www.w3.org/1999/xlink">
<g id="graph0" class="graph" transform="scale(1 1) rotate(0) translate(4 202.5)">
<title>CsaCoarseTuningDetectorBeatFreq</title>
<polygon fill="white" stroke="transparent" points="-4,4 -4,-202.5 1542,-202.5 1542,4 -4,4"/>
<!-- Node1 -->
<g id="node1" class="node">
<title>Node1</title>
<g id="a_node1"><a xlink:title=" ">
<polygon fill="#bfbfbf" stroke="black" points="1353,-45.5 1353,-64.5 1538,-64.5 1538,-45.5 1353,-45.5"/>
<text text-anchor="middle" x="1445.5" y="-52.5" font-family="Helvetica,sans-Serif" font-size="10.00">CsaCoarseTuningDetectorBeatFreq</text>
</a>
</g>
</g>
<!-- Node2 -->
<g id="node2" class="node">
<title>Node2</title>
<g id="a_node2"><a xlink:href="class_csa_coarse_tuning_detector.html" target="_top" xlink:title=" ">
<polygon fill="white" stroke="black" points="1174,-91.5 1174,-110.5 1316,-110.5 1316,-91.5 1174,-91.5"/>
<text text-anchor="middle" x="1245" y="-98.5" font-family="Helvetica,sans-Serif" font-size="10.00">CsaCoarseTuningDetector</text>
</a>
</g>
</g>
<!-- Node2&#45;&gt;Node1 -->
<g id="edge1" class="edge">
<title>Node2&#45;&gt;Node1</title>
<path fill="none" stroke="midnightblue" d="M1297.06,-89.17C1330.11,-81.51 1372.56,-71.67 1403.42,-64.52"/>
<polygon fill="midnightblue" stroke="midnightblue" points="1296.08,-85.8 1287.13,-91.47 1297.66,-92.62 1296.08,-85.8"/>
</g>
<!-- Node3 -->
<g id="node3" class="node">
<title>Node3</title>
<g id="a_node3"><a xlink:href="class_csa_coarse_tuning_detector_1_1_c_t_d_error.html" target="_top" xlink:title=" ">
<polygon fill="white" stroke="black" points="844.5,-168 844.5,-198 986.5,-198 986.5,-168 844.5,-168"/>
<text text-anchor="start" x="852.5" y="-186" font-family="Helvetica,sans-Serif" font-size="10.00">CsaCoarseTuningDetector</text>
<text text-anchor="middle" x="915.5" y="-175" font-family="Helvetica,sans-Serif" font-size="10.00">::CTDError</text>
</a>
</g>
</g>
<!-- Node3&#45;&gt;Node2 -->
<g id="edge2" class="edge">
<title>Node3&#45;&gt;Node2</title>
<path fill="none" stroke="#9a32cd" stroke-dasharray="5,2" d="M996.89,-176.45C1044.07,-171.08 1104.37,-161.57 1156,-145 1182.67,-136.44 1211.29,-120.79 1228.41,-110.65"/>
<polygon fill="#9a32cd" stroke="#9a32cd" points="996.28,-172.99 986.72,-177.56 997.04,-179.95 996.28,-172.99"/>
<text text-anchor="middle" x="1083" y="-177" font-family="Helvetica,sans-Serif" font-size="10.00"> _ctdError</text>
</g>
<!-- Node4 -->
<g id="node4" class="node">
<title>Node4</title>
<g id="a_node4"><a xlink:title="STL class.">
<polygon fill="white" stroke="#bfbfbf" points="883,-129.5 883,-148.5 948,-148.5 948,-129.5 883,-129.5"/>
<text text-anchor="middle" x="915.5" y="-136.5" font-family="Helvetica,sans-Serif" font-size="10.00">std::string</text>
</a>
</g>
</g>
<!-- Node4&#45;&gt;Node2 -->
<g id="edge3" class="edge">
<title>Node4&#45;&gt;Node2</title>
<path fill="none" stroke="#9a32cd" stroke-dasharray="5,2" d="M958.32,-135.55C1006.19,-131.43 1086.89,-123.95 1156,-115 1166.13,-113.69 1176.88,-112.12 1187.26,-110.52"/>
<polygon fill="#9a32cd" stroke="#9a32cd" points="958,-132.06 948.33,-136.4 958.6,-139.04 958,-132.06"/>
<text text-anchor="middle" x="1083" y="-133" font-family="Helvetica,sans-Serif" font-size="10.00"> _name</text>
</g>
<!-- Node5 -->
<g id="node5" class="node">
<title>Node5</title>
<g id="a_node5"><a xlink:title="STL class.">
<polygon fill="white" stroke="#bfbfbf" points="492.5,-127 492.5,-157 596.5,-157 596.5,-127 492.5,-127"/>
<text text-anchor="start" x="500.5" y="-145" font-family="Helvetica,sans-Serif" font-size="10.00">std::basic_string&lt;</text>
<text text-anchor="middle" x="544.5" y="-134" font-family="Helvetica,sans-Serif" font-size="10.00"> char &gt;</text>
</a>
</g>
</g>
<!-- Node5&#45;&gt;Node4 -->
<g id="edge4" class="edge">
<title>Node5&#45;&gt;Node4</title>
<path fill="none" stroke="midnightblue" d="M607.15,-141.5C686.5,-140.85 821.43,-139.76 882.63,-139.26"/>
<polygon fill="midnightblue" stroke="midnightblue" points="606.78,-138 596.81,-141.58 606.84,-145 606.78,-138"/>
</g>
<!-- Node6 -->
<g id="node6" class="node">
<title>Node6</title>
<g id="a_node6"><a xlink:title="STL class.">
<polygon fill="white" stroke="#bfbfbf" points="862.5,-91.5 862.5,-110.5 968.5,-110.5 968.5,-91.5 862.5,-91.5"/>
<text text-anchor="middle" x="915.5" y="-98.5" font-family="Helvetica,sans-Serif" font-size="10.00">std::ostringstream</text>
</a>
</g>
</g>
<!-- Node6&#45;&gt;Node2 -->
<g id="edge5" class="edge">
<title>Node6&#45;&gt;Node2</title>
<path fill="none" stroke="#9a32cd" stroke-dasharray="5,2" d="M978.84,-101C1034.52,-101 1116,-101 1173.92,-101"/>
<polygon fill="#9a32cd" stroke="#9a32cd" points="978.76,-97.5 968.76,-101 978.76,-104.5 978.76,-97.5"/>
<text text-anchor="middle" x="1083" y="-104" font-family="Helvetica,sans-Serif" font-size="10.00"> _stream</text>
</g>
<!-- Node7 -->
<g id="node7" class="node">
<title>Node7</title>
<g id="a_node7"><a xlink:title="STL class.">
<polygon fill="white" stroke="#bfbfbf" points="476,-78 476,-108 613,-108 613,-78 476,-78"/>
<text text-anchor="start" x="484" y="-96" font-family="Helvetica,sans-Serif" font-size="10.00">std::basic_ostringstream</text>
<text text-anchor="middle" x="544.5" y="-85" font-family="Helvetica,sans-Serif" font-size="10.00">&lt; char &gt;</text>
</a>
</g>
</g>
<!-- Node7&#45;&gt;Node6 -->
<g id="edge6" class="edge">
<title>Node7&#45;&gt;Node6</title>
<path fill="none" stroke="midnightblue" d="M623.55,-94.69C695.47,-96.25 800.2,-98.52 862.44,-99.87"/>
<polygon fill="midnightblue" stroke="midnightblue" points="623.25,-91.18 613.18,-94.47 623.1,-98.18 623.25,-91.18"/>
</g>
<!-- Node8 -->
<g id="node8" class="node">
<title>Node8</title>
<g id="a_node8"><a xlink:title="STL class.">
<polygon fill="white" stroke="#bfbfbf" points="282,-78 282,-108 391,-108 391,-78 282,-78"/>
<text text-anchor="start" x="290" y="-96" font-family="Helvetica,sans-Serif" font-size="10.00">std::basic_ostream</text>
<text text-anchor="middle" x="336.5" y="-85" font-family="Helvetica,sans-Serif" font-size="10.00">&lt; Char &gt;</text>
</a>
</g>
</g>
<!-- Node8&#45;&gt;Node7 -->
<g id="edge7" class="edge">
<title>Node8&#45;&gt;Node7</title>
<path fill="none" stroke="midnightblue" d="M401.34,-93C424.97,-93 451.82,-93 475.78,-93"/>
<polygon fill="midnightblue" stroke="midnightblue" points="401.09,-89.5 391.09,-93 401.09,-96.5 401.09,-89.5"/>
</g>
<!-- Node9 -->
<g id="node9" class="node">
<title>Node9</title>
<g id="a_node9"><a xlink:title="STL class.">
<polygon fill="white" stroke="#bfbfbf" points="117,-83.5 117,-102.5 245,-102.5 245,-83.5 117,-83.5"/>
<text text-anchor="middle" x="181" y="-90.5" font-family="Helvetica,sans-Serif" font-size="10.00">std::basic_ios&lt; Char &gt;</text>
</a>
</g>
</g>
<!-- Node9&#45;&gt;Node8 -->
<g id="edge8" class="edge">
<title>Node9&#45;&gt;Node8</title>
<path fill="none" stroke="midnightblue" d="M255.57,-93C264.35,-93 273.19,-93 281.62,-93"/>
<polygon fill="midnightblue" stroke="midnightblue" points="255.32,-89.5 245.32,-93 255.32,-96.5 255.32,-89.5"/>
</g>
<!-- Node10 -->
<g id="node10" class="node">
<title>Node10</title>
<g id="a_node10"><a xlink:title="STL class.">
<polygon fill="white" stroke="#bfbfbf" points="0,-83.5 0,-102.5 80,-102.5 80,-83.5 0,-83.5"/>
<text text-anchor="middle" x="40" y="-90.5" font-family="Helvetica,sans-Serif" font-size="10.00">std::ios_base</text>
</a>
</g>
</g>
<!-- Node10&#45;&gt;Node9 -->
<g id="edge9" class="edge">
<title>Node10&#45;&gt;Node9</title>
<path fill="none" stroke="midnightblue" d="M90.28,-93C98.85,-93 107.87,-93 116.75,-93"/>
<polygon fill="midnightblue" stroke="midnightblue" points="90.09,-89.5 80.09,-93 90.09,-96.5 90.09,-89.5"/>
</g>
<!-- Node11 -->
<g id="node11" class="node">
<title>Node11</title>
<g id="a_node11"><a xlink:title=" ">
<polygon fill="white" stroke="#bfbfbf" points="839,-53.5 839,-72.5 992,-72.5 992,-53.5 839,-53.5"/>
<text text-anchor="middle" x="915.5" y="-60.5" font-family="Helvetica,sans-Serif" font-size="10.00">std::vector&lt; std::uintptr_t &gt;</text>
</a>
</g>
</g>
<!-- Node11&#45;&gt;Node2 -->
<g id="edge10" class="edge">
<title>Node11&#45;&gt;Node2</title>
<path fill="none" stroke="#9a32cd" stroke-dasharray="5,2" d="M1002.34,-69.71C1048.05,-73.67 1105.19,-79.24 1156,-86 1167.68,-87.55 1180.17,-89.51 1191.98,-91.49"/>
<polygon fill="#9a32cd" stroke="#9a32cd" points="1002.43,-66.21 992.17,-68.84 1001.83,-73.18 1002.43,-66.21"/>
<text text-anchor="middle" x="1083" y="-89" font-family="Helvetica,sans-Serif" font-size="10.00"> _detectorUniqueIdVector</text>
</g>
<!-- Node12 -->
<g id="node12" class="node">
<title>Node12</title>
<g id="a_node12"><a xlink:title="STL class.">
<polygon fill="white" stroke="#bfbfbf" points="496,-28.5 496,-47.5 593,-47.5 593,-28.5 496,-28.5"/>
<text text-anchor="middle" x="544.5" y="-35.5" font-family="Helvetica,sans-Serif" font-size="10.00">std::vector&lt; T &gt;</text>
</a>
</g>
</g>
<!-- Node12&#45;&gt;Node11 -->
<g id="edge11" class="edge">
<title>Node12&#45;&gt;Node11</title>
<path fill="none" stroke="orange" stroke-dasharray="5,2" d="M603.6,-41.94C667.13,-46.24 769.15,-53.15 838.87,-57.88"/>
<polygon fill="orange" stroke="orange" points="603.58,-38.43 593.36,-41.24 603.1,-45.41 603.58,-38.43"/>
<text text-anchor="middle" x="726" y="-60" font-family="Helvetica,sans-Serif" font-size="10.00"> &lt; std::uintptr_t &gt;</text>
</g>
<!-- Node14 -->
<g id="node14" class="node">
<title>Node14</title>
<g id="a_node14"><a xlink:title=" ">
<polygon fill="white" stroke="#bfbfbf" points="1010,-0.5 1010,-41.5 1156,-41.5 1156,-0.5 1010,-0.5"/>
<text text-anchor="start" x="1018" y="-29.5" font-family="Helvetica,sans-Serif" font-size="10.00">std::vector&lt; boost</text>
<text text-anchor="start" x="1018" y="-18.5" font-family="Helvetica,sans-Serif" font-size="10.00">::shared_ptr&lt; M_RapidX</text>
<text text-anchor="middle" x="1083" y="-7.5" font-family="Helvetica,sans-Serif" font-size="10.00">_ENT_PhaseDetection &gt; &gt;</text>
</a>
</g>
</g>
<!-- Node12&#45;&gt;Node14 -->
<g id="edge14" class="edge">
<title>Node12&#45;&gt;Node14</title>
<path fill="none" stroke="orange" stroke-dasharray="5,2" d="M589.9,-26.2C603.03,-23.24 617.51,-20.48 631,-19 764.09,-4.39 920.61,-10.19 1009.87,-15.65"/>
<polygon fill="orange" stroke="orange" points="589.09,-22.8 580.15,-28.49 590.69,-29.61 589.09,-22.8"/>
<text text-anchor="start" x="631" y="-33" font-family="Helvetica,sans-Serif" font-size="10.00"> &lt; boost::shared_ptr</text>
<text text-anchor="middle" x="726" y="-22" font-family="Helvetica,sans-Serif" font-size="10.00">&lt; M_RapidX_ENT_PhaseDetection &gt; &gt;</text>
</g>
<!-- Node13 -->
<g id="node13" class="node">
<title>Node13</title>
<g id="a_node13"><a xlink:title=" ">
<polygon fill="white" stroke="#bfbfbf" points="322,-28.5 322,-47.5 351,-47.5 351,-28.5 322,-28.5"/>
<text text-anchor="middle" x="336.5" y="-35.5" font-family="Helvetica,sans-Serif" font-size="10.00">T</text>
</a>
</g>
</g>
<!-- Node13&#45;&gt;Node12 -->
<g id="edge12" class="edge">
<title>Node13&#45;&gt;Node12</title>
<path fill="none" stroke="#9a32cd" stroke-dasharray="5,2" d="M361.43,-38C394.25,-38 453.93,-38 496,-38"/>
<polygon fill="#9a32cd" stroke="#9a32cd" points="361.02,-34.5 351.02,-38 361.02,-41.5 361.02,-34.5"/>
<text text-anchor="middle" x="433.5" y="-41" font-family="Helvetica,sans-Serif" font-size="10.00"> elements</text>
</g>
<!-- Node14&#45;&gt;Node1 -->
<g id="edge13" class="edge">
<title>Node14&#45;&gt;Node1</title>
<path fill="none" stroke="#9a32cd" stroke-dasharray="5,2" d="M1166.26,-28.76C1221.91,-34.01 1295.47,-40.94 1352.97,-46.37"/>
<polygon fill="#9a32cd" stroke="#9a32cd" points="1166.37,-25.25 1156.09,-27.8 1165.71,-32.22 1166.37,-25.25"/>
<text text-anchor="middle" x="1245" y="-46" font-family="Helvetica,sans-Serif" font-size="10.00"> _detectorVector</text>
</g>
</g>
</svg>
