<?xml version="1.0" encoding="UTF-8" standalone="no"?>
<!DOCTYPE svg PUBLIC "-//W3C//DTD SVG 1.1//EN"
 "http://www.w3.org/Graphics/SVG/1.1/DTD/svg11.dtd">
<!-- Generated by graphviz version 2.43.0 (0)
 -->
<!-- Title: StepperMotorLinearMD22::moveToPosition Pages: 1 -->
<svg width="1413pt" height="197pt"
 viewBox="0.00 0.00 1413.00 197.00" xmlns="http://www.w3.org/2000/svg" xmlns:xlink="http://www.w3.org/1999/xlink">
<g id="graph0" class="graph" transform="scale(1 1) rotate(0) translate(4 193)">
<title>StepperMotorLinearMD22::moveToPosition</title>
<polygon fill="white" stroke="transparent" points="-4,4 -4,-193 1409,-193 1409,4 -4,4"/>
<!-- Node1 -->
<g id="node1" class="node">
<title>Node1</title>
<g id="a_node1"><a xlink:title="Sending motor to new position (blocking).">
<polygon fill="#bfbfbf" stroke="black" points="0,-57.5 0,-87.5 141,-87.5 141,-57.5 0,-57.5"/>
<text text-anchor="start" x="8" y="-75.5" font-family="Helvetica,sans-Serif" font-size="10.00">StepperMotorLinearMD22</text>
<text text-anchor="middle" x="70.5" y="-64.5" font-family="Helvetica,sans-Serif" font-size="10.00">::moveToPosition</text>
</a>
</g>
</g>
<!-- Node2 -->
<g id="node2" class="node">
<title>Node2</title>
<g id="a_node2"><a xlink:href="class_stepper_motor_linear_m_d22.html#aa24a1ee4be657492c671c1af5a7197b3" target="_top" xlink:title="Sending motor to new position (blocking).">
<polygon fill="white" stroke="black" points="192,-82.5 192,-112.5 333,-112.5 333,-82.5 192,-82.5"/>
<text text-anchor="start" x="200" y="-100.5" font-family="Helvetica,sans-Serif" font-size="10.00">StepperMotorLinearMD22</text>
<text text-anchor="middle" x="262.5" y="-89.5" font-family="Helvetica,sans-Serif" font-size="10.00">::moveToPositionInSteps</text>
</a>
</g>
</g>
<!-- Node1&#45;&gt;Node2 -->
<g id="edge1" class="edge">
<title>Node1&#45;&gt;Node2</title>
<path fill="none" stroke="midnightblue" d="M141.17,-81.67C154.34,-83.4 168.2,-85.22 181.65,-86.99"/>
<polygon fill="midnightblue" stroke="midnightblue" points="181.47,-90.5 191.84,-88.33 182.38,-83.56 181.47,-90.5"/>
</g>
<!-- Node14 -->
<g id="node14" class="node">
<title>Node14</title>
<g id="a_node14"><a xlink:href="class_stepper_motor_m_d22.html#a5c52cd38afbd08acad2862d9f9fdc8f6" target="_top" xlink:title="Recalculate arbitrary units into steps.">
<polygon fill="white" stroke="black" points="177,-33.5 177,-63.5 348,-63.5 348,-33.5 177,-33.5"/>
<text text-anchor="start" x="185" y="-51.5" font-family="Helvetica,sans-Serif" font-size="10.00">StepperMotorMD22::recalculate</text>
<text text-anchor="middle" x="262.5" y="-40.5" font-family="Helvetica,sans-Serif" font-size="10.00">UnitsToSteps</text>
</a>
</g>
</g>
<!-- Node1&#45;&gt;Node14 -->
<g id="edge17" class="edge">
<title>Node1&#45;&gt;Node14</title>
<path fill="none" stroke="midnightblue" d="M141.17,-63.7C149.54,-62.64 158.2,-61.55 166.85,-60.46"/>
<polygon fill="midnightblue" stroke="midnightblue" points="167.51,-63.9 176.99,-59.17 166.63,-56.96 167.51,-63.9"/>
</g>
<!-- Node3 -->
<g id="node3" class="node">
<title>Node3</title>
<g id="a_node3"><a xlink:href="class_stepper_motor_linear_m_d22.html#a869aa7281749ce4c65040c5b680282c9" target="_top" xlink:title=" ">
<polygon fill="white" stroke="black" points="598,-158.5 598,-188.5 772,-188.5 772,-158.5 598,-158.5"/>
<text text-anchor="start" x="606" y="-176.5" font-family="Helvetica,sans-Serif" font-size="10.00">StepperMotorLinearMD22</text>
<text text-anchor="middle" x="685" y="-165.5" font-family="Helvetica,sans-Serif" font-size="10.00">::determineMotorStatusAndError</text>
</a>
</g>
</g>
<!-- Node2&#45;&gt;Node3 -->
<g id="edge2" class="edge">
<title>Node2&#45;&gt;Node3</title>
<path fill="none" stroke="midnightblue" d="M288.29,-112.67C311.94,-126.29 349.04,-145.48 384,-154.5 450.64,-171.7 528.23,-176.22 587.8,-176.56"/>
<polygon fill="midnightblue" stroke="midnightblue" points="587.95,-180.06 597.96,-176.58 587.96,-173.06 587.95,-180.06"/>
</g>
<!-- Node5 -->
<g id="node5" class="node">
<title>Node5</title>
<g id="a_node5"><a xlink:href="class_stepper_motor_m_d22.html#abe6a462213b239fbaab389d2c6d63cbd" target="_top" xlink:title="Get the Autostart flag.">
<polygon fill="white" stroke="black" points="384,-126 384,-145 562,-145 562,-126 384,-126"/>
<text text-anchor="middle" x="473" y="-133" font-family="Helvetica,sans-Serif" font-size="10.00">StepperMotorMD22::getAutostart</text>
</a>
</g>
</g>
<!-- Node2&#45;&gt;Node5 -->
<g id="edge4" class="edge">
<title>Node2&#45;&gt;Node5</title>
<path fill="none" stroke="midnightblue" d="M333.22,-110.21C357.97,-114.72 385.66,-119.76 409.75,-124.16"/>
<polygon fill="midnightblue" stroke="midnightblue" points="409.37,-127.64 419.84,-125.99 410.63,-120.76 409.37,-127.64"/>
</g>
<!-- Node6 -->
<g id="node6" class="node">
<title>Node6</title>
<g id="a_node6"><a xlink:href="class_stepper_motor_m_d22.html#a980203bd78b3ffbe6c4e3fd45420f2a1" target="_top" xlink:title="Returns True if the motor is moving and false if at standstill.">
<polygon fill="white" stroke="black" points="392.5,-88 392.5,-107 553.5,-107 553.5,-88 392.5,-88"/>
<text text-anchor="middle" x="473" y="-95" font-family="Helvetica,sans-Serif" font-size="10.00">StepperMotorMD22::isMoving</text>
</a>
</g>
</g>
<!-- Node2&#45;&gt;Node6 -->
<g id="edge5" class="edge">
<title>Node2&#45;&gt;Node6</title>
<path fill="none" stroke="midnightblue" d="M333.22,-97.5C348.9,-97.5 365.76,-97.5 382.14,-97.5"/>
<polygon fill="midnightblue" stroke="midnightblue" points="382.26,-101 392.26,-97.5 382.26,-94 382.26,-101"/>
</g>
<!-- Node7 -->
<g id="node7" class="node">
<title>Node7</title>
<g id="a_node7"><a xlink:href="class_stepper_motor_m_d22.html#abfa3b4c0e472406c8ff0c3993dded37a" target="_top" xlink:title="Set new position for the motor in steps (no blocking)">
<polygon fill="white" stroke="black" points="392,-0.5 392,-30.5 554,-30.5 554,-0.5 392,-0.5"/>
<text text-anchor="start" x="400" y="-18.5" font-family="Helvetica,sans-Serif" font-size="10.00">StepperMotorMD22::setTarget</text>
<text text-anchor="middle" x="473" y="-7.5" font-family="Helvetica,sans-Serif" font-size="10.00">PositionInSteps</text>
</a>
</g>
</g>
<!-- Node2&#45;&gt;Node7 -->
<g id="edge6" class="edge">
<title>Node2&#45;&gt;Node7</title>
<path fill="none" stroke="midnightblue" d="M326.82,-82.42C334.12,-79.84 341.33,-76.88 348,-73.5 366.08,-64.34 366.16,-55.13 384,-45.5 391.74,-41.32 400.17,-37.57 408.65,-34.24"/>
<polygon fill="midnightblue" stroke="midnightblue" points="410.07,-37.44 418.21,-30.66 407.62,-30.89 410.07,-37.44"/>
</g>
<!-- Node8 -->
<g id="node8" class="node">
<title>Node8</title>
<g id="a_node8"><a xlink:href="class_stepper_motor_m_d22.html#aea10f8567e3db08087b7b113d60a82de" target="_top" xlink:title="Start the motor.">
<polygon fill="white" stroke="black" points="615,-50 615,-69 755,-69 755,-50 615,-50"/>
<text text-anchor="middle" x="685" y="-57" font-family="Helvetica,sans-Serif" font-size="10.00">StepperMotorMD22::start</text>
</a>
</g>
</g>
<!-- Node2&#45;&gt;Node8 -->
<g id="edge16" class="edge">
<title>Node2&#45;&gt;Node8</title>
<path fill="none" stroke="midnightblue" d="M333.12,-85.39C349.75,-82.81 367.47,-80.32 384,-78.5 458.54,-70.28 543.91,-65.3 604.48,-62.52"/>
<polygon fill="midnightblue" stroke="midnightblue" points="604.9,-66 614.73,-62.05 604.58,-59.01 604.9,-66"/>
</g>
<!-- Node4 -->
<g id="node4" class="node">
<title>Node4</title>
<g id="a_node4"><a xlink:href="class_stepper_motor_m_d22.html#aa13d1195f5a40cb548cdd47308ab4cc0" target="_top" xlink:title=" ">
<polygon fill="white" stroke="black" points="1011,-138.5 1011,-168.5 1175,-168.5 1175,-138.5 1011,-138.5"/>
<text text-anchor="start" x="1019" y="-156.5" font-family="Helvetica,sans-Serif" font-size="10.00">StepperMotorMD22::getActual</text>
<text text-anchor="middle" x="1093" y="-145.5" font-family="Helvetica,sans-Serif" font-size="10.00">Position</text>
</a>
</g>
</g>
<!-- Node3&#45;&gt;Node4 -->
<g id="edge3" class="edge">
<title>Node3&#45;&gt;Node4</title>
<path fill="none" stroke="midnightblue" d="M772.1,-169.26C839.19,-165.95 932.11,-161.38 1000.53,-158.01"/>
<polygon fill="midnightblue" stroke="midnightblue" points="1001.05,-161.48 1010.86,-157.5 1000.7,-154.49 1001.05,-161.48"/>
</g>
<!-- Node7&#45;&gt;Node8 -->
<g id="edge7" class="edge">
<title>Node7&#45;&gt;Node8</title>
<path fill="none" stroke="midnightblue" d="M545.68,-30.52C572.85,-36.21 603.34,-42.6 628.76,-47.93"/>
<polygon fill="midnightblue" stroke="midnightblue" points="628.09,-51.36 638.6,-49.99 629.53,-44.51 628.09,-51.36"/>
</g>
<!-- Node13 -->
<g id="node13" class="node">
<title>Node13</title>
<g id="a_node13"><a xlink:href="class_stepper_motor_m_d22.html#a1c3ea43af510d3e5918c10d94e5a59d6" target="_top" xlink:title=" ">
<polygon fill="white" stroke="black" points="1014,-21.5 1014,-51.5 1172,-51.5 1172,-21.5 1014,-21.5"/>
<text text-anchor="start" x="1022" y="-39.5" font-family="Helvetica,sans-Serif" font-size="10.00">StepperMotorMD22::truncate</text>
<text text-anchor="middle" x="1093" y="-28.5" font-family="Helvetica,sans-Serif" font-size="10.00">StepsToMaxRange</text>
</a>
</g>
</g>
<!-- Node7&#45;&gt;Node13 -->
<g id="edge15" class="edge">
<title>Node7&#45;&gt;Node13</title>
<path fill="none" stroke="midnightblue" d="M554.43,-11.95C653.54,-8.46 826.99,-5.26 975,-17.5 984.36,-18.27 994.1,-19.38 1003.79,-20.66"/>
<polygon fill="midnightblue" stroke="midnightblue" points="1003.47,-24.15 1013.85,-22.07 1004.43,-17.22 1003.47,-24.15"/>
</g>
<!-- Node9 -->
<g id="node9" class="node">
<title>Node9</title>
<g id="a_node9"><a xlink:href="class_stepper_motor_m_d22.html#a31a8e78f3094971e21e8a98c162c1484" target="_top" xlink:title=" ">
<polygon fill="white" stroke="black" points="808,-114.5 808,-144.5 975,-144.5 975,-114.5 808,-114.5"/>
<text text-anchor="start" x="816" y="-132.5" font-family="Helvetica,sans-Serif" font-size="10.00">StepperMotorMD22::determine</text>
<text text-anchor="middle" x="891.5" y="-121.5" font-family="Helvetica,sans-Serif" font-size="10.00">MotorStatusAndError</text>
</a>
</g>
</g>
<!-- Node8&#45;&gt;Node9 -->
<g id="edge8" class="edge">
<title>Node8&#45;&gt;Node9</title>
<path fill="none" stroke="midnightblue" d="M714.01,-69.09C745.47,-79.86 797.28,-97.59 836.65,-111.07"/>
<polygon fill="midnightblue" stroke="midnightblue" points="835.78,-114.47 846.37,-114.39 838.04,-107.84 835.78,-114.47"/>
</g>
<!-- Node10 -->
<g id="node10" class="node">
<title>Node10</title>
<g id="a_node10"><a xlink:href="class_stepper_motor_m_d22.html#a630caf46964e48662ca2d3a02f86c2cc" target="_top" xlink:title=" ">
<polygon fill="white" stroke="black" points="1012.5,-70.5 1012.5,-100.5 1173.5,-100.5 1173.5,-70.5 1012.5,-70.5"/>
<text text-anchor="start" x="1020.5" y="-88.5" font-family="Helvetica,sans-Serif" font-size="10.00">StepperMotorMD22::setMotor</text>
<text text-anchor="middle" x="1093" y="-77.5" font-family="Helvetica,sans-Serif" font-size="10.00">ControllerTargerPosition</text>
</a>
</g>
</g>
<!-- Node8&#45;&gt;Node10 -->
<g id="edge10" class="edge">
<title>Node8&#45;&gt;Node10</title>
<path fill="none" stroke="midnightblue" d="M755.33,-63.94C823.36,-68.3 927.44,-74.96 1001.86,-79.73"/>
<polygon fill="midnightblue" stroke="midnightblue" points="1001.95,-83.24 1012.16,-80.39 1002.4,-76.25 1001.95,-83.24"/>
</g>
<!-- Node12 -->
<g id="node12" class="node">
<title>Node12</title>
<g id="a_node12"><a xlink:href="class_stepper_motor_m_d22.html#abbefe1484659cab8fba754e0cba1b15d" target="_top" xlink:title=" ">
<polygon fill="white" stroke="black" points="812.5,-26.5 812.5,-56.5 970.5,-56.5 970.5,-26.5 812.5,-26.5"/>
<text text-anchor="start" x="820.5" y="-44.5" font-family="Helvetica,sans-Serif" font-size="10.00">StepperMotorMD22::truncate</text>
<text text-anchor="middle" x="891.5" y="-33.5" font-family="Helvetica,sans-Serif" font-size="10.00">MotorPosition</text>
</a>
</g>
</g>
<!-- Node8&#45;&gt;Node12 -->
<g id="edge12" class="edge">
<title>Node8&#45;&gt;Node12</title>
<path fill="none" stroke="midnightblue" d="M755.23,-53.41C770.25,-52.08 786.34,-50.67 801.98,-49.29"/>
<polygon fill="midnightblue" stroke="midnightblue" points="802.53,-52.76 812.18,-48.39 801.92,-45.78 802.53,-52.76"/>
</g>
<!-- Node9&#45;&gt;Node4 -->
<g id="edge9" class="edge">
<title>Node9&#45;&gt;Node4</title>
<path fill="none" stroke="midnightblue" d="M975.08,-139.43C983.56,-140.45 992.2,-141.49 1000.77,-142.52"/>
<polygon fill="midnightblue" stroke="midnightblue" points="1000.42,-146.01 1010.76,-143.73 1001.25,-139.06 1000.42,-146.01"/>
</g>
<!-- Node11 -->
<g id="node11" class="node">
<title>Node11</title>
<g id="a_node11"><a xlink:href="class_stepper_motor_m_d22.html#a07f8bea67d3d613856cddf614d0f8d15" target="_top" xlink:title=" ">
<polygon fill="white" stroke="black" points="1211,-45.5 1211,-75.5 1405,-75.5 1405,-45.5 1211,-45.5"/>
<text text-anchor="start" x="1219" y="-63.5" font-family="Helvetica,sans-Serif" font-size="10.00">StepperMotorMD22::truncate</text>
<text text-anchor="middle" x="1308" y="-52.5" font-family="Helvetica,sans-Serif" font-size="10.00">StepsToMaxRangeOfMotorController</text>
</a>
</g>
</g>
<!-- Node10&#45;&gt;Node11 -->
<g id="edge11" class="edge">
<title>Node10&#45;&gt;Node11</title>
<path fill="none" stroke="midnightblue" d="M1173.62,-76.16C1182.55,-75.11 1191.76,-74.03 1200.97,-72.95"/>
<polygon fill="midnightblue" stroke="midnightblue" points="1201.41,-76.42 1210.94,-71.77 1200.6,-69.46 1201.41,-76.42"/>
</g>
<!-- Node12&#45;&gt;Node13 -->
<g id="edge13" class="edge">
<title>Node12&#45;&gt;Node13</title>
<path fill="none" stroke="midnightblue" d="M970.78,-39.54C981.64,-39.27 992.86,-38.98 1003.89,-38.71"/>
<polygon fill="midnightblue" stroke="midnightblue" points="1004.04,-42.21 1013.95,-38.46 1003.87,-35.21 1004.04,-42.21"/>
</g>
<!-- Node13&#45;&gt;Node11 -->
<g id="edge14" class="edge">
<title>Node13&#45;&gt;Node11</title>
<path fill="none" stroke="midnightblue" d="M1172.1,-45.3C1181.44,-46.35 1191.1,-47.44 1200.75,-48.53"/>
<polygon fill="midnightblue" stroke="midnightblue" points="1200.47,-52.02 1210.8,-49.66 1201.25,-45.06 1200.47,-52.02"/>
</g>
</g>
</svg>
