<?xml version="1.0" encoding="UTF-8" standalone="no"?>
<!DOCTYPE svg PUBLIC "-//W3C//DTD SVG 1.1//EN"
 "http://www.w3.org/Graphics/SVG/1.1/DTD/svg11.dtd">
<!-- Generated by graphviz version 2.43.0 (0)
 -->
<!-- Title: M_VHDL_ENT_DAQ_AXI_Ctrl::M_VHDL_ENT_DAQ_AXI_Ctrl Pages: 1 -->
<svg width="510pt" height="131pt"
 viewBox="0.00 0.00 510.00 131.00" xmlns="http://www.w3.org/2000/svg" xmlns:xlink="http://www.w3.org/1999/xlink">
<g id="graph0" class="graph" transform="scale(1 1) rotate(0) translate(4 127)">
<title>M_VHDL_ENT_DAQ_AXI_Ctrl::M_VHDL_ENT_DAQ_AXI_Ctrl</title>
<!-- Node1 -->
<g id="Node000001" class="node">
<title>Node1</title>
<g id="a_Node000001"><a xlink:title=" ">
<polygon fill="#999999" stroke="#666666" points="138,-91 0,-91 0,-50 138,-50 138,-91"/>
<text text-anchor="start" x="8" y="-79" font-family="Helvetica,sans-Serif" font-size="10.00">M_VHDL_ENT_DAQ_AXI</text>
<text text-anchor="start" x="8" y="-68" font-family="Helvetica,sans-Serif" font-size="10.00">_Ctrl::M_VHDL_ENT_DAQ</text>
<text text-anchor="middle" x="69" y="-57" font-family="Helvetica,sans-Serif" font-size="10.00">_AXI_Ctrl</text>
</a>
</g>
</g>
<!-- Node2 -->
<g id="Node000002" class="node">
<title>Node2</title>
<g id="a_Node000002"><a xlink:href="class_module_name.html#ab2630dab864e6c294f23ad9cc8c2aaa5" target="_top" xlink:title=" ">
<polygon fill="white" stroke="#666666" points="341,-123 174,-123 174,-104 341,-104 341,-123"/>
<text text-anchor="middle" x="257.5" y="-111" font-family="Helvetica,sans-Serif" font-size="10.00">ModuleName::addToModName</text>
</a>
</g>
</g>
<!-- Node1&#45;&gt;Node2 -->
<g id="edge1_Node000001_Node000002" class="edge">
<title>Node1&#45;&gt;Node2</title>
<g id="a_edge1_Node000001_Node000002"><a xlink:title=" ">
<path fill="none" stroke="#63b8ff" d="M138.25,-86.25C150.17,-89 162.44,-91.84 174,-94.5 183.99,-96.8 194.66,-99.26 204.9,-101.62"/>
<polygon fill="#63b8ff" stroke="#63b8ff" points="204.42,-105.1 214.95,-103.94 205.99,-98.28 204.42,-105.1"/>
</a>
</g>
</g>
<!-- Node4 -->
<g id="Node000004" class="node">
<title>Node4</title>
<g id="a_Node000004"><a xlink:href="class_device_module_base.html#ac17ad0da71cd7c762ad7dbf133d2f6cc" target="_top" xlink:title=" ">
<polygon fill="white" stroke="#666666" points="333.5,-85.5 181.5,-85.5 181.5,-55.5 333.5,-55.5 333.5,-85.5"/>
<text text-anchor="start" x="189.5" y="-73.5" font-family="Helvetica,sans-Serif" font-size="10.00">DeviceModuleBase::checkIf</text>
<text text-anchor="middle" x="257.5" y="-62.5" font-family="Helvetica,sans-Serif" font-size="10.00">RegExistsInMap</text>
</a>
</g>
</g>
<!-- Node1&#45;&gt;Node4 -->
<g id="edge3_Node000001_Node000004" class="edge">
<title>Node1&#45;&gt;Node4</title>
<g id="a_edge3_Node000001_Node000004"><a xlink:title=" ">
<path fill="none" stroke="#63b8ff" d="M138.12,-70.5C148.88,-70.5 160.11,-70.5 171.2,-70.5"/>
<polygon fill="#63b8ff" stroke="#63b8ff" points="171.32,-74 181.32,-70.5 171.32,-67 171.32,-74"/>
</a>
</g>
</g>
<!-- Node5 -->
<g id="Node000005" class="node">
<title>Node5</title>
<g id="a_Node000005"><a xlink:href="class_device_module_base.html#a64f4b4cda0dea8a7a9cf5770c8aee996" target="_top" xlink:title=" ">
<polygon fill="white" stroke="#666666" points="323.5,-19 191.5,-19 191.5,0 323.5,0 323.5,-19"/>
<text text-anchor="middle" x="257.5" y="-7" font-family="Helvetica,sans-Serif" font-size="10.00">DeviceModuleBase::init</text>
</a>
</g>
</g>
<!-- Node1&#45;&gt;Node5 -->
<g id="edge4_Node000001_Node000005" class="edge">
<title>Node1&#45;&gt;Node5</title>
<g id="a_edge4_Node000001_Node000005"><a xlink:title=" ">
<path fill="none" stroke="#63b8ff" d="M132.88,-49.93C160.95,-40.75 193.14,-30.22 217.63,-22.21"/>
<polygon fill="#63b8ff" stroke="#63b8ff" points="218.87,-25.49 227.29,-19.05 216.7,-18.84 218.87,-25.49"/>
</a>
</g>
</g>
<!-- Node3 -->
<g id="Node000003" class="node">
<title>Node3</title>
<g id="a_Node000003"><a xlink:href="class_module_name.html#adc3be56095cd901394b58c497771f3b1" target="_top" xlink:title=" ">
<polygon fill="white" stroke="#666666" points="502,-123 377,-123 377,-104 502,-104 502,-123"/>
<text text-anchor="middle" x="439.5" y="-111" font-family="Helvetica,sans-Serif" font-size="10.00">ModuleName::buildStr</text>
</a>
</g>
</g>
<!-- Node2&#45;&gt;Node3 -->
<g id="edge2_Node000002_Node000003" class="edge">
<title>Node2&#45;&gt;Node3</title>
<g id="a_edge2_Node000002_Node000003"><a xlink:title=" ">
<path fill="none" stroke="#63b8ff" d="M341.12,-113.5C349.67,-113.5 358.3,-113.5 366.71,-113.5"/>
<polygon fill="#63b8ff" stroke="#63b8ff" points="366.83,-117 376.83,-113.5 366.83,-110 366.83,-117"/>
</a>
</g>
</g>
<!-- Node5&#45;&gt;Node5 -->
<g id="edge5_Node000005_Node000005" class="edge">
<title>Node5&#45;&gt;Node5</title>
<g id="a_edge5_Node000005_Node000005"><a xlink:title=" ">
<path fill="none" stroke="#63b8ff" d="M229.76,-19.08C216.26,-27.73 225.51,-37 257.5,-37 278.99,-37 290.22,-32.82 291.18,-27.45"/>
<polygon fill="#63b8ff" stroke="#63b8ff" points="293.89,-25.21 285.24,-19.08 288.18,-29.26 293.89,-25.21"/>
</a>
</g>
</g>
</g>
</svg>
