<?xml version="1.0" encoding="UTF-8" standalone="no"?>
<!DOCTYPE svg PUBLIC "-//W3C//DTD SVG 1.1//EN"
 "http://www.w3.org/Graphics/SVG/1.1/DTD/svg11.dtd">
<!-- Generated by graphviz version 2.43.0 (0)
 -->
<!-- Title: StepperMotorTecRemote::recalculateStepsToUnits Pages: 1 -->
<svg width="334pt" height="253pt"
 viewBox="0.00 0.00 334.00 253.00" xmlns="http://www.w3.org/2000/svg" xmlns:xlink="http://www.w3.org/1999/xlink">
<g id="graph0" class="graph" transform="scale(1 1) rotate(0) translate(4 249)">
<title>StepperMotorTecRemote::recalculateStepsToUnits</title>
<!-- Node1 -->
<g id="Node000001" class="node">
<title>Node1</title>
<g id="a_Node000001"><a xlink:title=" ">
<polygon fill="#999999" stroke="#666666" points="326,-132 186,-132 186,-102 326,-102 326,-132"/>
<text text-anchor="start" x="194" y="-120" font-family="Helvetica,sans-Serif" font-size="10.00">StepperMotorTecRemote</text>
<text text-anchor="middle" x="256" y="-109" font-family="Helvetica,sans-Serif" font-size="10.00">::recalculateStepsToUnits</text>
</a>
</g>
</g>
<!-- Node2 -->
<g id="Node000002" class="node">
<title>Node2</title>
<g id="a_Node000002"><a xlink:href="class_stepper_motor_tec_remote.html#a83623a75a1b38ed90ca2d4b1aa3e7dd8" target="_top" xlink:title=" ">
<polygon fill="white" stroke="#666666" points="143.5,-245 6.5,-245 6.5,-215 143.5,-215 143.5,-245"/>
<text text-anchor="start" x="14.5" y="-233" font-family="Helvetica,sans-Serif" font-size="10.00">StepperMotorTecRemote</text>
<text text-anchor="middle" x="75" y="-222" font-family="Helvetica,sans-Serif" font-size="10.00">::moveToPositionInSteps</text>
</a>
</g>
</g>
<!-- Node1&#45;&gt;Node2 -->
<g id="edge1_Node000001_Node000002" class="edge">
<title>Node1&#45;&gt;Node2</title>
<g id="a_edge1_Node000001_Node000002"><a xlink:title=" ">
<path fill="none" stroke="#63b8ff" d="M233.7,-139.48C213.73,-159.41 182.21,-188.05 150,-206 143.98,-209.35 137.43,-212.32 130.78,-214.93"/>
<polygon fill="#63b8ff" stroke="#63b8ff" points="236.24,-141.89 240.76,-132.31 231.25,-136.98 236.24,-141.89"/>
</a>
</g>
</g>
<!-- Node3 -->
<g id="Node000003" class="node">
<title>Node3</title>
<g id="a_Node000003"><a xlink:href="class_stepper_motor_tec_remote.html#ac40a8325828565b857582908c3eac995" target="_top" xlink:title=" ">
<polygon fill="white" stroke="#666666" points="150,-196.5 0,-196.5 0,-155.5 150,-155.5 150,-196.5"/>
<text text-anchor="start" x="8" y="-184.5" font-family="Helvetica,sans-Serif" font-size="10.00">StepperMotorTecRemote</text>
<text text-anchor="start" x="8" y="-173.5" font-family="Helvetica,sans-Serif" font-size="10.00">::setSoftMaxPositionLimitIn</text>
<text text-anchor="middle" x="75" y="-162.5" font-family="Helvetica,sans-Serif" font-size="10.00">Steps</text>
</a>
</g>
</g>
<!-- Node1&#45;&gt;Node3 -->
<g id="edge2_Node000001_Node000003" class="edge">
<title>Node1&#45;&gt;Node3</title>
<g id="a_edge2_Node000001_Node000003"><a xlink:title=" ">
<path fill="none" stroke="#63b8ff" d="M199.77,-135.21C180.35,-141.61 158.4,-148.84 138.43,-155.42"/>
<polygon fill="#63b8ff" stroke="#63b8ff" points="200.97,-138.5 209.37,-132.04 198.77,-131.85 200.97,-138.5"/>
</a>
</g>
</g>
<!-- Node4 -->
<g id="Node000004" class="node">
<title>Node4</title>
<g id="a_Node000004"><a xlink:href="class_stepper_motor_tec_remote.html#a312c31cfd92312965649a8ee54061efb" target="_top" xlink:title=" ">
<polygon fill="white" stroke="#666666" points="148.5,-137.5 1.5,-137.5 1.5,-96.5 148.5,-96.5 148.5,-137.5"/>
<text text-anchor="start" x="9.5" y="-125.5" font-family="Helvetica,sans-Serif" font-size="10.00">StepperMotorTecRemote</text>
<text text-anchor="start" x="9.5" y="-114.5" font-family="Helvetica,sans-Serif" font-size="10.00">::setSoftMinPositionLimitIn</text>
<text text-anchor="middle" x="75" y="-103.5" font-family="Helvetica,sans-Serif" font-size="10.00">Steps</text>
</a>
</g>
</g>
<!-- Node1&#45;&gt;Node4 -->
<g id="edge3_Node000001_Node000004" class="edge">
<title>Node1&#45;&gt;Node4</title>
<g id="a_edge3_Node000001_Node000004"><a xlink:title=" ">
<path fill="none" stroke="#63b8ff" d="M175.69,-117C166.67,-117 157.5,-117 148.58,-117"/>
<polygon fill="#63b8ff" stroke="#63b8ff" points="175.79,-120.5 185.79,-117 175.79,-113.5 175.79,-120.5"/>
</a>
</g>
</g>
<!-- Node5 -->
<g id="Node000005" class="node">
<title>Node5</title>
<g id="a_Node000005"><a xlink:href="class_stepper_motor_tec_remote.html#acac6ed7c6025d478736e00c2b81e45d1" target="_top" xlink:title=" ">
<polygon fill="white" stroke="#666666" points="146.5,-78 3.5,-78 3.5,-48 146.5,-48 146.5,-78"/>
<text text-anchor="start" x="11.5" y="-66" font-family="Helvetica,sans-Serif" font-size="10.00">StepperMotorTecRemote</text>
<text text-anchor="middle" x="75" y="-55" font-family="Helvetica,sans-Serif" font-size="10.00">::setTargetPositionInSteps</text>
</a>
</g>
</g>
<!-- Node1&#45;&gt;Node5 -->
<g id="edge4_Node000001_Node000005" class="edge">
<title>Node1&#45;&gt;Node5</title>
<g id="a_edge4_Node000001_Node000005"><a xlink:title=" ">
<path fill="none" stroke="#63b8ff" d="M195.35,-99C172.82,-92.21 147.45,-84.55 125.9,-78.05"/>
<polygon fill="#63b8ff" stroke="#63b8ff" points="194.55,-102.42 205.14,-101.96 196.58,-95.72 194.55,-102.42"/>
</a>
</g>
</g>
<!-- Node6 -->
<g id="Node000006" class="node">
<title>Node6</title>
<g id="a_Node000006"><a xlink:href="class_stepper_motor_tec_remote.html#ae74eb85cb99cb4617f4b4e0c10265a77" target="_top" xlink:title=" ">
<polygon fill="white" stroke="#666666" points="143.5,-30 6.5,-30 6.5,0 143.5,0 143.5,-30"/>
<text text-anchor="start" x="14.5" y="-18" font-family="Helvetica,sans-Serif" font-size="10.00">StepperMotorTecRemote</text>
<text text-anchor="middle" x="75" y="-7" font-family="Helvetica,sans-Serif" font-size="10.00">::startInSteps</text>
</a>
</g>
</g>
<!-- Node1&#45;&gt;Node6 -->
<g id="edge5_Node000001_Node000006" class="edge">
<title>Node1&#45;&gt;Node6</title>
<g id="a_edge5_Node000001_Node000006"><a xlink:title=" ">
<path fill="none" stroke="#63b8ff" d="M230.51,-95.17C210.15,-77.96 179.8,-54.37 150,-39 143.52,-35.66 136.48,-32.66 129.4,-30"/>
<polygon fill="#63b8ff" stroke="#63b8ff" points="228.46,-98.03 238.33,-101.89 233.02,-92.72 228.46,-98.03"/>
</a>
</g>
</g>
</g>
</svg>
