<?xml version="1.0" encoding="UTF-8" standalone="no"?>
<!DOCTYPE svg PUBLIC "-//W3C//DTD SVG 1.1//EN"
 "http://www.w3.org/Graphics/SVG/1.1/DTD/svg11.dtd">
<!-- Generated by graphviz version 2.43.0 (0)
 -->
<!-- Title: /scratch/dragon/sources/fred/src/FredControlProtocol_v_2_4_impl.h Pages: 1 -->
<svg width="368pt" height="126pt"
 viewBox="0.00 0.00 368.00 126.00" xmlns="http://www.w3.org/2000/svg" xmlns:xlink="http://www.w3.org/1999/xlink">
<g id="graph0" class="graph" transform="scale(1 1) rotate(0) translate(4 122)">
<title>/scratch/dragon/sources/fred/src/FredControlProtocol_v_2_4_impl.h</title>
<!-- Node1 -->
<g id="Node000001" class="node">
<title>Node1</title>
<g id="a_Node000001"><a xlink:title=" ">
<polygon fill="#999999" stroke="#666666" points="249,-118 94,-118 94,-77 249,-77 249,-118"/>
<text text-anchor="start" x="102" y="-106" font-family="Helvetica,sans-Serif" font-size="10.00">/scratch/dragon/sources</text>
<text text-anchor="start" x="102" y="-95" font-family="Helvetica,sans-Serif" font-size="10.00">/fred/src/FredControlProtocol</text>
<text text-anchor="middle" x="171.5" y="-84" font-family="Helvetica,sans-Serif" font-size="10.00">_v_2_4_impl.h</text>
</a>
</g>
</g>
<!-- Node2 -->
<g id="Node000002" class="node">
<title>Node2</title>
<g id="a_Node000002"><a xlink:href="_fred_control_protocol__v__2__4__impl_8cc.html" target="_top" xlink:title=" ">
<polygon fill="white" stroke="#666666" points="155,-41 0,-41 0,0 155,0 155,-41"/>
<text text-anchor="start" x="8" y="-29" font-family="Helvetica,sans-Serif" font-size="10.00">/scratch/dragon/sources</text>
<text text-anchor="start" x="8" y="-18" font-family="Helvetica,sans-Serif" font-size="10.00">/fred/src/FredControlProtocol</text>
<text text-anchor="middle" x="77.5" y="-7" font-family="Helvetica,sans-Serif" font-size="10.00">_v_2_4_impl.cc</text>
</a>
</g>
</g>
<!-- Node1&#45;&gt;Node2 -->
<g id="edge1_Node000001_Node000002" class="edge">
<title>Node1&#45;&gt;Node2</title>
<g id="a_edge1_Node000001_Node000002"><a xlink:title=" ">
<path fill="none" stroke="#63b8ff" d="M138.72,-70.35C126.67,-60.73 113.24,-50.01 102.03,-41.07"/>
<polygon fill="#63b8ff" stroke="#63b8ff" points="136.8,-73.29 146.8,-76.79 141.17,-67.82 136.8,-73.29"/>
</a>
</g>
</g>
<!-- Node3 -->
<g id="Node000003" class="node">
<title>Node3</title>
<g id="a_Node000003"><a xlink:href="_fuse_relay_board_control_8cc.html" target="_top" xlink:title=" ">
<polygon fill="white" stroke="#666666" points="360,-35.5 173,-35.5 173,-5.5 360,-5.5 360,-35.5"/>
<text text-anchor="start" x="181" y="-23.5" font-family="Helvetica,sans-Serif" font-size="10.00">/scratch/dragon/sources</text>
<text text-anchor="middle" x="266.5" y="-12.5" font-family="Helvetica,sans-Serif" font-size="10.00">/fred/src/FuseRelayBoardControl.cc</text>
</a>
</g>
</g>
<!-- Node1&#45;&gt;Node3 -->
<g id="edge2_Node000001_Node000003" class="edge">
<title>Node1&#45;&gt;Node3</title>
<g id="a_edge2_Node000001_Node000003"><a xlink:title=" ">
<path fill="none" stroke="#63b8ff" d="M204.44,-70.5C219.26,-58.79 236.18,-45.44 248.61,-35.63"/>
<polygon fill="#63b8ff" stroke="#63b8ff" points="202.14,-67.85 196.46,-76.79 206.48,-73.35 202.14,-67.85"/>
</a>
</g>
</g>
</g>
</svg>
