<?xml version="1.0" encoding="UTF-8" standalone="no"?>
<!DOCTYPE svg PUBLIC "-//W3C//DTD SVG 1.1//EN"
 "http://www.w3.org/Graphics/SVG/1.1/DTD/svg11.dtd">
<!-- Generated by graphviz version 2.43.0 (0)
 -->
<!-- Title: /scratch/dragon/sources/fred/src/FuseRelayBoardControl.cc Pages: 1 -->
<svg width="1115pt" height="588pt"
 viewBox="0.00 0.00 1115.00 588.00" xmlns="http://www.w3.org/2000/svg" xmlns:xlink="http://www.w3.org/1999/xlink">
<g id="graph0" class="graph" transform="scale(1 1) rotate(0) translate(4 584)">
<title>/scratch/dragon/sources/fred/src/FuseRelayBoardControl.cc</title>
<!-- Node1 -->
<g id="Node000001" class="node">
<title>Node1</title>
<g id="a_Node000001"><a xlink:title=" ">
<polygon fill="#999999" stroke="#666666" points="683.5,-580 496.5,-580 496.5,-550 683.5,-550 683.5,-580"/>
<text text-anchor="start" x="504.5" y="-568" font-family="Helvetica,sans-Serif" font-size="10.00">/scratch/dragon/sources</text>
<text text-anchor="middle" x="590" y="-557" font-family="Helvetica,sans-Serif" font-size="10.00">/fred/src/FuseRelayBoardControl.cc</text>
</a>
</g>
</g>
<!-- Node2 -->
<g id="Node000002" class="node">
<title>Node2</title>
<g id="a_Node000002"><a xlink:href="_fuse_relay_board_control_8h.html" target="_top" xlink:title=" ">
<polygon fill="white" stroke="#666666" points="348,-129 208,-129 208,-110 348,-110 348,-129"/>
<text text-anchor="middle" x="278" y="-117" font-family="Helvetica,sans-Serif" font-size="10.00">FuseRelayBoardControl.h</text>
</a>
</g>
</g>
<!-- Node1&#45;&gt;Node2 -->
<g id="edge1_Node000001_Node000002" class="edge">
<title>Node1&#45;&gt;Node2</title>
<g id="a_edge1_Node000001_Node000002"><a xlink:title=" ">
<path fill="none" stroke="#63b8ff" d="M496.22,-562.22C405.94,-554.92 283,-527.77 283,-434 283,-434 283,-434 283,-234 283,-200.58 280.81,-161.67 279.33,-139.18"/>
<polygon fill="#63b8ff" stroke="#63b8ff" points="282.81,-138.77 278.63,-129.04 275.82,-139.25 282.81,-138.77"/>
</a>
</g>
</g>
<!-- Node9 -->
<g id="Node000009" class="node">
<title>Node9</title>
<g id="a_Node000009"><a xlink:href="_exceptions_8h.html" target="_top" xlink:title=" ">
<polygon fill="white" stroke="#666666" points="716.5,-508.5 637.5,-508.5 637.5,-489.5 716.5,-489.5 716.5,-508.5"/>
<text text-anchor="middle" x="677" y="-496.5" font-family="Helvetica,sans-Serif" font-size="10.00">Exceptions.h</text>
</a>
</g>
</g>
<!-- Node1&#45;&gt;Node9 -->
<g id="edge8_Node000001_Node000009" class="edge">
<title>Node1&#45;&gt;Node9</title>
<g id="a_edge8_Node000001_Node000009"><a xlink:title=" ">
<path fill="none" stroke="#63b8ff" d="M609.31,-549.8C623.49,-539.37 642.69,-525.24 657.02,-514.69"/>
<polygon fill="#63b8ff" stroke="#63b8ff" points="659.25,-517.4 665.23,-508.66 655.1,-511.76 659.25,-517.4"/>
</a>
</g>
</g>
<!-- Node11 -->
<g id="Node000011" class="node">
<title>Node11</title>
<g id="a_Node000011"><a xlink:href="_fred_control_protocol__v__2__0__impl_8h.html" target="_top" xlink:title=" ">
<polygon fill="white" stroke="#666666" points="520.5,-250 407.5,-250 407.5,-220 520.5,-220 520.5,-250"/>
<text text-anchor="start" x="415.5" y="-238" font-family="Helvetica,sans-Serif" font-size="10.00">FredControlProtocol</text>
<text text-anchor="middle" x="464" y="-227" font-family="Helvetica,sans-Serif" font-size="10.00">_v_2_0_impl.h</text>
</a>
</g>
</g>
<!-- Node1&#45;&gt;Node11 -->
<g id="edge11_Node000001_Node000011" class="edge">
<title>Node1&#45;&gt;Node11</title>
<g id="a_edge11_Node000001_Node000011"><a xlink:title=" ">
<path fill="none" stroke="#63b8ff" d="M586.52,-549.67C581.03,-525.83 571,-476.43 571,-434 571,-434 571,-434 571,-366 571,-318.17 527.29,-278.38 495.75,-255.88"/>
<polygon fill="#63b8ff" stroke="#63b8ff" points="497.44,-252.8 487.22,-250.01 493.47,-258.56 497.44,-252.8"/>
</a>
</g>
</g>
<!-- Node13 -->
<g id="Node000013" class="node">
<title>Node13</title>
<g id="a_Node000013"><a xlink:href="_minimal_telnet_connection_8h.html" target="_top" xlink:title=" ">
<polygon fill="white" stroke="#666666" points="692.5,-129 543.5,-129 543.5,-110 692.5,-110 692.5,-129"/>
<text text-anchor="middle" x="618" y="-117" font-family="Helvetica,sans-Serif" font-size="10.00">MinimalTelnetConnection.h</text>
</a>
</g>
</g>
<!-- Node1&#45;&gt;Node13 -->
<g id="edge29_Node000001_Node000013" class="edge">
<title>Node1&#45;&gt;Node13</title>
<g id="a_edge29_Node000001_Node000013"><a xlink:title=" ">
<path fill="none" stroke="#63b8ff" d="M593.48,-549.67C598.97,-525.83 609,-476.43 609,-434 609,-434 609,-434 609,-234 609,-200.5 612.94,-161.62 615.61,-139.16"/>
<polygon fill="#63b8ff" stroke="#63b8ff" points="619.11,-139.38 616.86,-129.02 612.16,-138.52 619.11,-139.38"/>
</a>
</g>
</g>
<!-- Node18 -->
<g id="Node000018" class="node">
<title>Node18</title>
<g id="a_Node000018"><a xlink:href="_fred_control_protocol__v__2__1__impl_8h.html" target="_top" xlink:title=" ">
<polygon fill="white" stroke="#666666" points="520.5,-316 407.5,-316 407.5,-286 520.5,-286 520.5,-316"/>
<text text-anchor="start" x="415.5" y="-304" font-family="Helvetica,sans-Serif" font-size="10.00">FredControlProtocol</text>
<text text-anchor="middle" x="464" y="-293" font-family="Helvetica,sans-Serif" font-size="10.00">_v_2_1_impl.h</text>
</a>
</g>
</g>
<!-- Node1&#45;&gt;Node18 -->
<g id="edge21_Node000001_Node000018" class="edge">
<title>Node1&#45;&gt;Node18</title>
<g id="a_edge21_Node000001_Node000018"><a xlink:title=" ">
<path fill="none" stroke="#63b8ff" d="M579.3,-549.63C572.37,-539.91 563.46,-526.58 557,-514 521.78,-445.42 529.24,-421.07 495,-352 490.4,-342.73 484.59,-332.96 479.24,-324.54"/>
<polygon fill="#63b8ff" stroke="#63b8ff" points="482.08,-322.5 473.7,-316.03 476.22,-326.32 482.08,-322.5"/>
</a>
</g>
</g>
<!-- Node19 -->
<g id="Node000019" class="node">
<title>Node19</title>
<g id="a_Node000019"><a xlink:href="_fred_control_protocol__v__2__2__impl_8h.html" target="_top" xlink:title=" ">
<polygon fill="white" stroke="#666666" points="485.5,-382 372.5,-382 372.5,-352 485.5,-352 485.5,-382"/>
<text text-anchor="start" x="380.5" y="-370" font-family="Helvetica,sans-Serif" font-size="10.00">FredControlProtocol</text>
<text text-anchor="middle" x="429" y="-359" font-family="Helvetica,sans-Serif" font-size="10.00">_v_2_2_impl.h</text>
</a>
</g>
</g>
<!-- Node1&#45;&gt;Node19 -->
<g id="edge23_Node000001_Node000019" class="edge">
<title>Node1&#45;&gt;Node19</title>
<g id="a_edge23_Node000001_Node000019"><a xlink:title=" ">
<path fill="none" stroke="#63b8ff" d="M496.4,-552.75C446.14,-544.75 391.07,-532.16 374,-514 344.59,-482.7 343.89,-456.46 363,-418 369.17,-405.59 380.05,-395.43 391.23,-387.59"/>
<polygon fill="#63b8ff" stroke="#63b8ff" points="393.28,-390.44 399.75,-382.05 389.46,-384.57 393.28,-390.44"/>
</a>
</g>
</g>
<!-- Node20 -->
<g id="Node000020" class="node">
<title>Node20</title>
<g id="a_Node000020"><a xlink:href="_fred_control_protocol__v__2__3__impl_8h.html" target="_top" xlink:title=" ">
<polygon fill="white" stroke="#666666" points="485.5,-448 372.5,-448 372.5,-418 485.5,-418 485.5,-448"/>
<text text-anchor="start" x="380.5" y="-436" font-family="Helvetica,sans-Serif" font-size="10.00">FredControlProtocol</text>
<text text-anchor="middle" x="429" y="-425" font-family="Helvetica,sans-Serif" font-size="10.00">_v_2_3_impl.h</text>
</a>
</g>
</g>
<!-- Node1&#45;&gt;Node20 -->
<g id="edge25_Node000001_Node000020" class="edge">
<title>Node1&#45;&gt;Node20</title>
<g id="a_edge25_Node000001_Node000020"><a xlink:title=" ">
<path fill="none" stroke="#63b8ff" d="M496.35,-552.76C448.58,-544.9 397.52,-532.45 383,-514 368.35,-495.38 385.97,-471.58 403.47,-454.8"/>
<polygon fill="#63b8ff" stroke="#63b8ff" points="405.83,-457.38 410.87,-448.07 401.12,-452.21 405.83,-457.38"/>
</a>
</g>
</g>
<!-- Node21 -->
<g id="Node000021" class="node">
<title>Node21</title>
<g id="a_Node000021"><a xlink:href="_fred_control_protocol__v__2__4__impl_8h.html" target="_top" xlink:title=" ">
<polygon fill="white" stroke="#666666" points="504.5,-514 391.5,-514 391.5,-484 504.5,-484 504.5,-514"/>
<text text-anchor="start" x="399.5" y="-502" font-family="Helvetica,sans-Serif" font-size="10.00">FredControlProtocol</text>
<text text-anchor="middle" x="448" y="-491" font-family="Helvetica,sans-Serif" font-size="10.00">_v_2_4_impl.h</text>
</a>
</g>
</g>
<!-- Node1&#45;&gt;Node21 -->
<g id="edge27_Node000001_Node000021" class="edge">
<title>Node1&#45;&gt;Node21</title>
<g id="a_edge27_Node000001_Node000021"><a xlink:title=" ">
<path fill="none" stroke="#63b8ff" d="M558.84,-549.95C538.12,-540.62 510.71,-528.27 488.34,-518.18"/>
<polygon fill="#63b8ff" stroke="#63b8ff" points="489.64,-514.93 479.09,-514.01 486.77,-521.31 489.64,-514.93"/>
</a>
</g>
</g>
<!-- Node22 -->
<g id="Node000022" class="node">
<title>Node22</title>
<g id="a_Node000022"><a xlink:title=" ">
<polygon fill="#e0e0e0" stroke="#999999" points="881,-508.5 735,-508.5 735,-489.5 881,-489.5 881,-508.5"/>
<text text-anchor="middle" x="808" y="-496.5" font-family="Helvetica,sans-Serif" font-size="10.00">boost/algorithm/string.hpp</text>
</a>
</g>
</g>
<!-- Node1&#45;&gt;Node22 -->
<g id="edge30_Node000001_Node000022" class="edge">
<title>Node1&#45;&gt;Node22</title>
<g id="a_edge30_Node000001_Node000022"><a xlink:title=" ">
<path fill="none" stroke="#63b8ff" d="M637.84,-549.95C677.25,-538.38 732.43,-522.18 769.15,-511.41"/>
<polygon fill="#63b8ff" stroke="#63b8ff" points="770.38,-514.69 778.99,-508.52 768.41,-507.98 770.38,-514.69"/>
</a>
</g>
</g>
<!-- Node23 -->
<g id="Node000023" class="node">
<title>Node23</title>
<g id="a_Node000023"><a xlink:title=" ">
<polygon fill="#e0e0e0" stroke="#999999" points="955,-508.5 899,-508.5 899,-489.5 955,-489.5 955,-508.5"/>
<text text-anchor="middle" x="927" y="-496.5" font-family="Helvetica,sans-Serif" font-size="10.00">iomanip</text>
</a>
</g>
</g>
<!-- Node1&#45;&gt;Node23 -->
<g id="edge31_Node000001_Node000023" class="edge">
<title>Node1&#45;&gt;Node23</title>
<g id="a_edge31_Node000001_Node000023"><a xlink:title=" ">
<path fill="none" stroke="#63b8ff" d="M683.59,-553.22C743.28,-545.16 821.94,-532.36 890,-514 892.29,-513.38 894.64,-512.67 896.99,-511.91"/>
<polygon fill="#63b8ff" stroke="#63b8ff" points="898.22,-515.19 906.49,-508.58 895.9,-508.59 898.22,-515.19"/>
</a>
</g>
</g>
<!-- Node24 -->
<g id="Node000024" class="node">
<title>Node24</title>
<g id="a_Node000024"><a xlink:title=" ">
<polygon fill="#e0e0e0" stroke="#999999" points="1033,-508.5 973,-508.5 973,-489.5 1033,-489.5 1033,-508.5"/>
<text text-anchor="middle" x="1003" y="-496.5" font-family="Helvetica,sans-Serif" font-size="10.00">iostream</text>
</a>
</g>
</g>
<!-- Node1&#45;&gt;Node24 -->
<g id="edge32_Node000001_Node000024" class="edge">
<title>Node1&#45;&gt;Node24</title>
<g id="a_edge32_Node000001_Node000024"><a xlink:title=" ">
<path fill="none" stroke="#63b8ff" d="M683.62,-557.02C759.89,-550.01 869.96,-536.89 964,-514 966.66,-513.35 969.39,-512.59 972.11,-511.76"/>
<polygon fill="#63b8ff" stroke="#63b8ff" points="973.41,-515.01 981.79,-508.53 971.2,-508.37 973.41,-515.01"/>
</a>
</g>
</g>
<!-- Node25 -->
<g id="Node000025" class="node">
<title>Node25</title>
<g id="a_Node000025"><a xlink:title=" ">
<polygon fill="#e0e0e0" stroke="#999999" points="1107,-508.5 1051,-508.5 1051,-489.5 1107,-489.5 1107,-508.5"/>
<text text-anchor="middle" x="1079" y="-496.5" font-family="Helvetica,sans-Serif" font-size="10.00">sstream</text>
</a>
</g>
</g>
<!-- Node1&#45;&gt;Node25 -->
<g id="edge33_Node000001_Node000025" class="edge">
<title>Node1&#45;&gt;Node25</title>
<g id="a_edge33_Node000001_Node000025"><a xlink:title=" ">
<path fill="none" stroke="#63b8ff" d="M683.81,-560.5C776.05,-555.45 920.33,-543.25 1042,-514 1044.45,-513.41 1046.97,-512.7 1049.47,-511.92"/>
<polygon fill="#63b8ff" stroke="#63b8ff" points="1050.63,-515.22 1058.93,-508.64 1048.34,-508.61 1050.63,-515.22"/>
</a>
</g>
</g>
<!-- Node3 -->
<g id="Node000003" class="node">
<title>Node3</title>
<g id="a_Node000003"><a xlink:href="_fuse_relay_board_constants_8h.html" target="_top" xlink:title=" ">
<polygon fill="white" stroke="#666666" points="354.5,-74 201.5,-74 201.5,-55 354.5,-55 354.5,-74"/>
<text text-anchor="middle" x="278" y="-62" font-family="Helvetica,sans-Serif" font-size="10.00">FuseRelayBoardConstants.h</text>
</a>
</g>
</g>
<!-- Node2&#45;&gt;Node3 -->
<g id="edge2_Node000002_Node000003" class="edge">
<title>Node2&#45;&gt;Node3</title>
<g id="a_edge2_Node000002_Node000003"><a xlink:title=" ">
<path fill="none" stroke="#63b8ff" d="M278,-109.75C278,-102.8 278,-92.85 278,-84.13"/>
<polygon fill="#63b8ff" stroke="#63b8ff" points="281.5,-84.09 278,-74.09 274.5,-84.09 281.5,-84.09"/>
</a>
</g>
</g>
<!-- Node5 -->
<g id="Node000005" class="node">
<title>Node5</title>
<g id="a_Node000005"><a xlink:title=" ">
<polygon fill="#e0e0e0" stroke="#999999" points="42,-74 0,-74 0,-55 42,-55 42,-74"/>
<text text-anchor="middle" x="21" y="-62" font-family="Helvetica,sans-Serif" font-size="10.00">array</text>
</a>
</g>
</g>
<!-- Node2&#45;&gt;Node5 -->
<g id="edge4_Node000002_Node000005" class="edge">
<title>Node2&#45;&gt;Node5</title>
<g id="a_edge4_Node000002_Node000005"><a xlink:title=" ">
<path fill="none" stroke="#63b8ff" d="M228.15,-109.95C184.15,-102.13 118.09,-89.72 52,-74.08"/>
<polygon fill="#63b8ff" stroke="#63b8ff" points="52.79,-70.67 42.25,-71.75 51.16,-77.48 52.79,-70.67"/>
</a>
</g>
</g>
<!-- Node6 -->
<g id="Node000006" class="node">
<title>Node6</title>
<g id="a_Node000006"><a xlink:title=" ">
<polygon fill="#e0e0e0" stroke="#999999" points="118,-74 60,-74 60,-55 118,-55 118,-74"/>
<text text-anchor="middle" x="89" y="-62" font-family="Helvetica,sans-Serif" font-size="10.00">memory</text>
</a>
</g>
</g>
<!-- Node2&#45;&gt;Node6 -->
<g id="edge5_Node000002_Node000006" class="edge">
<title>Node2&#45;&gt;Node6</title>
<g id="a_edge5_Node000002_Node000006"><a xlink:title=" ">
<path fill="none" stroke="#63b8ff" d="M247.63,-109.98C215.15,-100.88 163.53,-86.4 128.05,-76.45"/>
<polygon fill="#63b8ff" stroke="#63b8ff" points="128.62,-72.98 118.05,-73.65 126.73,-79.72 128.62,-72.98"/>
</a>
</g>
</g>
<!-- Node7 -->
<g id="Node000007" class="node">
<title>Node7</title>
<g id="a_Node000007"><a xlink:title=" ">
<polygon fill="#e0e0e0" stroke="#999999" points="183.5,-74 136.5,-74 136.5,-55 183.5,-55 183.5,-74"/>
<text text-anchor="middle" x="160" y="-62" font-family="Helvetica,sans-Serif" font-size="10.00">vector</text>
</a>
</g>
</g>
<!-- Node2&#45;&gt;Node7 -->
<g id="edge6_Node000002_Node000007" class="edge">
<title>Node2&#45;&gt;Node7</title>
<g id="a_edge6_Node000002_Node000007"><a xlink:title=" ">
<path fill="none" stroke="#63b8ff" d="M259.04,-109.98C239.97,-101.42 210.34,-88.11 188.45,-78.28"/>
<polygon fill="#63b8ff" stroke="#63b8ff" points="189.86,-75.07 179.3,-74.17 186.99,-81.46 189.86,-75.07"/>
</a>
</g>
</g>
<!-- Node8 -->
<g id="Node000008" class="node">
<title>Node8</title>
<g id="a_Node000008"><a xlink:title=" ">
<polygon fill="#e0e0e0" stroke="#999999" points="509.5,-74 372.5,-74 372.5,-55 509.5,-55 509.5,-74"/>
<text text-anchor="middle" x="441" y="-62" font-family="Helvetica,sans-Serif" font-size="10.00">boost/circular_buffer.hpp</text>
</a>
</g>
</g>
<!-- Node2&#45;&gt;Node8 -->
<g id="edge7_Node000002_Node000008" class="edge">
<title>Node2&#45;&gt;Node8</title>
<g id="a_edge7_Node000002_Node000008"><a xlink:title=" ">
<path fill="none" stroke="#63b8ff" d="M304.19,-109.98C331.44,-101.13 374.3,-87.19 404.78,-77.28"/>
<polygon fill="#63b8ff" stroke="#63b8ff" points="406.18,-80.5 414.61,-74.08 404.01,-73.85 406.18,-80.5"/>
</a>
</g>
</g>
<!-- Node4 -->
<g id="Node000004" class="node">
<title>Node4</title>
<g id="a_Node000004"><a xlink:title=" ">
<polygon fill="#e0e0e0" stroke="#999999" points="560,-19 516,-19 516,0 560,0 560,-19"/>
<text text-anchor="middle" x="538" y="-7" font-family="Helvetica,sans-Serif" font-size="10.00">string</text>
</a>
</g>
</g>
<!-- Node3&#45;&gt;Node4 -->
<g id="edge3_Node000003_Node000004" class="edge">
<title>Node3&#45;&gt;Node4</title>
<g id="a_edge3_Node000003_Node000004"><a xlink:title=" ">
<path fill="none" stroke="#63b8ff" d="M319.77,-54.98C371.69,-44.4 459.14,-26.58 506.03,-17.02"/>
<polygon fill="#63b8ff" stroke="#63b8ff" points="506.84,-20.42 515.94,-15 505.44,-13.57 506.84,-20.42"/>
</a>
</g>
</g>
<!-- Node9&#45;&gt;Node4 -->
<g id="edge10_Node000009_Node000004" class="edge">
<title>Node9&#45;&gt;Node4</title>
<g id="a_edge10_Node000009_Node000004"><a xlink:title=" ">
<path fill="none" stroke="#63b8ff" d="M705.1,-489.46C790.16,-463.42 1039,-385.72 1039,-368 1039,-368 1039,-368 1039,-118.5 1039,-89.04 1042.79,-73.66 1020,-55 985.26,-26.56 672.68,-14.59 570.3,-11.41"/>
<polygon fill="#63b8ff" stroke="#63b8ff" points="570.35,-7.91 560.24,-11.11 570.13,-14.91 570.35,-7.91"/>
</a>
</g>
</g>
<!-- Node10 -->
<g id="Node000010" class="node">
<title>Node10</title>
<g id="a_Node000010"><a xlink:title=" ">
<polygon fill="#e0e0e0" stroke="#999999" points="709.5,-442.5 644.5,-442.5 644.5,-423.5 709.5,-423.5 709.5,-442.5"/>
<text text-anchor="middle" x="677" y="-430.5" font-family="Helvetica,sans-Serif" font-size="10.00">exception</text>
</a>
</g>
</g>
<!-- Node9&#45;&gt;Node10 -->
<g id="edge9_Node000009_Node000010" class="edge">
<title>Node9&#45;&gt;Node10</title>
<g id="a_edge9_Node000009_Node000010"><a xlink:title=" ">
<path fill="none" stroke="#63b8ff" d="M677,-489.37C677,-480.16 677,-465.29 677,-453.27"/>
<polygon fill="#63b8ff" stroke="#63b8ff" points="680.5,-452.91 677,-442.91 673.5,-452.91 680.5,-452.91"/>
</a>
</g>
</g>
<!-- Node12 -->
<g id="Node000012" class="node">
<title>Node12</title>
<g id="a_Node000012"><a xlink:href="_fred_control_protocol_base_8h.html" target="_top" xlink:title=" ">
<polygon fill="white" stroke="#666666" points="531,-184 385,-184 385,-165 531,-165 531,-184"/>
<text text-anchor="middle" x="458" y="-172" font-family="Helvetica,sans-Serif" font-size="10.00">FredControlProtocolBase.h</text>
</a>
</g>
</g>
<!-- Node11&#45;&gt;Node12 -->
<g id="edge12_Node000011_Node000012" class="edge">
<title>Node11&#45;&gt;Node12</title>
<g id="a_edge12_Node000011_Node000012"><a xlink:title=" ">
<path fill="none" stroke="#63b8ff" d="M462.55,-219.84C461.77,-212.21 460.79,-202.7 459.94,-194.45"/>
<polygon fill="#63b8ff" stroke="#63b8ff" points="463.4,-193.86 458.9,-184.27 456.44,-194.57 463.4,-193.86"/>
</a>
</g>
</g>
<!-- Node12&#45;&gt;Node2 -->
<g id="edge13_Node000012_Node000002" class="edge">
<title>Node12&#45;&gt;Node2</title>
<g id="a_edge13_Node000012_Node000002"><a xlink:title=" ">
<path fill="none" stroke="#63b8ff" d="M429.08,-164.98C398.73,-156.05 350.83,-141.94 317.12,-132.02"/>
<polygon fill="#63b8ff" stroke="#63b8ff" points="317.73,-128.55 307.15,-129.08 315.75,-135.26 317.73,-128.55"/>
</a>
</g>
</g>
<!-- Node12&#45;&gt;Node8 -->
<g id="edge20_Node000012_Node000008" class="edge">
<title>Node12&#45;&gt;Node8</title>
<g id="a_edge20_Node000012_Node000008"><a xlink:title=" ">
<path fill="none" stroke="#63b8ff" d="M456.61,-164.66C453.86,-147.17 447.66,-107.8 443.96,-84.27"/>
<polygon fill="#63b8ff" stroke="#63b8ff" points="447.38,-83.49 442.36,-74.16 440.46,-84.58 447.38,-83.49"/>
</a>
</g>
</g>
<!-- Node12&#45;&gt;Node13 -->
<g id="edge14_Node000012_Node000013" class="edge">
<title>Node12&#45;&gt;Node13</title>
<g id="a_edge14_Node000012_Node000013"><a xlink:title=" ">
<path fill="none" stroke="#63b8ff" d="M483.71,-164.98C510.45,-156.13 552.53,-142.19 582.45,-132.28"/>
<polygon fill="#63b8ff" stroke="#63b8ff" points="583.7,-135.55 592.09,-129.08 581.5,-128.9 583.7,-135.55"/>
</a>
</g>
</g>
<!-- Node13&#45;&gt;Node4 -->
<g id="edge19_Node000013_Node000004" class="edge">
<title>Node13&#45;&gt;Node4</title>
<g id="a_edge19_Node000013_Node000004"><a xlink:title=" ">
<path fill="none" stroke="#63b8ff" d="M601.19,-109.93C587.7,-102.23 569.21,-89.74 558,-74 548.47,-60.61 543.35,-42.51 540.69,-29.06"/>
<polygon fill="#63b8ff" stroke="#63b8ff" points="544.12,-28.33 538.99,-19.06 537.22,-29.5 544.12,-28.33"/>
</a>
</g>
</g>
<!-- Node14 -->
<g id="Node000014" class="node">
<title>Node14</title>
<g id="a_Node000014"><a xlink:href="telnet_constants_8h.html" target="_top" xlink:title=" ">
<polygon fill="white" stroke="#666666" points="669.5,-74 566.5,-74 566.5,-55 669.5,-55 669.5,-74"/>
<text text-anchor="middle" x="618" y="-62" font-family="Helvetica,sans-Serif" font-size="10.00">telnetConstants.h</text>
</a>
</g>
</g>
<!-- Node13&#45;&gt;Node14 -->
<g id="edge15_Node000013_Node000014" class="edge">
<title>Node13&#45;&gt;Node14</title>
<g id="a_edge15_Node000013_Node000014"><a xlink:title=" ">
<path fill="none" stroke="#63b8ff" d="M618,-109.75C618,-102.8 618,-92.85 618,-84.13"/>
<polygon fill="#63b8ff" stroke="#63b8ff" points="621.5,-84.09 618,-74.09 614.5,-84.09 621.5,-84.09"/>
</a>
</g>
</g>
<!-- Node15 -->
<g id="Node000015" class="node">
<title>Node15</title>
<g id="a_Node000015"><a xlink:title=" ">
<polygon fill="#e0e0e0" stroke="#999999" points="780,-74 688,-74 688,-55 780,-55 780,-74"/>
<text text-anchor="middle" x="734" y="-62" font-family="Helvetica,sans-Serif" font-size="10.00">boost/array.hpp</text>
</a>
</g>
</g>
<!-- Node13&#45;&gt;Node15 -->
<g id="edge16_Node000013_Node000015" class="edge">
<title>Node13&#45;&gt;Node15</title>
<g id="a_edge16_Node000013_Node000015"><a xlink:title=" ">
<path fill="none" stroke="#63b8ff" d="M636.64,-109.98C655.3,-101.46 684.25,-88.23 705.74,-78.41"/>
<polygon fill="#63b8ff" stroke="#63b8ff" points="707.38,-81.51 715.02,-74.17 704.47,-75.14 707.38,-81.51"/>
</a>
</g>
</g>
<!-- Node16 -->
<g id="Node000016" class="node">
<title>Node16</title>
<g id="a_Node000016"><a xlink:title=" ">
<polygon fill="#e0e0e0" stroke="#999999" points="886,-74 798,-74 798,-55 886,-55 886,-74"/>
<text text-anchor="middle" x="842" y="-62" font-family="Helvetica,sans-Serif" font-size="10.00">boost/asio.hpp</text>
</a>
</g>
</g>
<!-- Node13&#45;&gt;Node16 -->
<g id="edge17_Node000013_Node000016" class="edge">
<title>Node13&#45;&gt;Node16</title>
<g id="a_edge17_Node000013_Node000016"><a xlink:title=" ">
<path fill="none" stroke="#63b8ff" d="M653.99,-109.98C692.49,-100.87 753.69,-86.4 795.74,-76.45"/>
<polygon fill="#63b8ff" stroke="#63b8ff" points="796.8,-79.79 805.73,-74.08 795.19,-72.98 796.8,-79.79"/>
</a>
</g>
</g>
<!-- Node17 -->
<g id="Node000017" class="node">
<title>Node17</title>
<g id="a_Node000017"><a xlink:title=" ">
<polygon fill="#e0e0e0" stroke="#999999" points="1010.5,-74 903.5,-74 903.5,-55 1010.5,-55 1010.5,-74"/>
<text text-anchor="middle" x="957" y="-62" font-family="Helvetica,sans-Serif" font-size="10.00">boost/function.hpp</text>
</a>
</g>
</g>
<!-- Node13&#45;&gt;Node17 -->
<g id="edge18_Node000013_Node000017" class="edge">
<title>Node13&#45;&gt;Node17</title>
<g id="a_edge18_Node000013_Node000017"><a xlink:title=" ">
<path fill="none" stroke="#63b8ff" d="M672.47,-109.98C732.69,-100.57 829.61,-85.42 893.3,-75.46"/>
<polygon fill="#63b8ff" stroke="#63b8ff" points="893.89,-78.91 903.23,-73.91 892.81,-71.99 893.89,-78.91"/>
</a>
</g>
</g>
<!-- Node18&#45;&gt;Node11 -->
<g id="edge22_Node000018_Node000011" class="edge">
<title>Node18&#45;&gt;Node11</title>
<g id="a_edge22_Node000018_Node000011"><a xlink:title=" ">
<path fill="none" stroke="#63b8ff" d="M464,-285.8C464,-278.34 464,-268.99 464,-260.41"/>
<polygon fill="#63b8ff" stroke="#63b8ff" points="467.5,-260.16 464,-250.16 460.5,-260.16 467.5,-260.16"/>
</a>
</g>
</g>
<!-- Node19&#45;&gt;Node18 -->
<g id="edge24_Node000019_Node000018" class="edge">
<title>Node19&#45;&gt;Node18</title>
<g id="a_edge24_Node000019_Node000018"><a xlink:title=" ">
<path fill="none" stroke="#63b8ff" d="M436.77,-351.8C441.07,-343.92 446.53,-333.95 451.43,-324.99"/>
<polygon fill="#63b8ff" stroke="#63b8ff" points="454.53,-326.62 456.25,-316.16 448.39,-323.26 454.53,-326.62"/>
</a>
</g>
</g>
<!-- Node20&#45;&gt;Node19 -->
<g id="edge26_Node000020_Node000019" class="edge">
<title>Node20&#45;&gt;Node19</title>
<g id="a_edge26_Node000020_Node000019"><a xlink:title=" ">
<path fill="none" stroke="#63b8ff" d="M429,-417.8C429,-410.34 429,-400.99 429,-392.41"/>
<polygon fill="#63b8ff" stroke="#63b8ff" points="432.5,-392.16 429,-382.16 425.5,-392.16 432.5,-392.16"/>
</a>
</g>
</g>
<!-- Node21&#45;&gt;Node20 -->
<g id="edge28_Node000021_Node000020" class="edge">
<title>Node21&#45;&gt;Node20</title>
<g id="a_edge28_Node000021_Node000020"><a xlink:title=" ">
<path fill="none" stroke="#63b8ff" d="M443.78,-483.8C441.52,-476.17 438.67,-466.57 436.08,-457.84"/>
<polygon fill="#63b8ff" stroke="#63b8ff" points="439.41,-456.75 433.2,-448.16 432.7,-458.75 439.41,-456.75"/>
</a>
</g>
</g>
</g>
</svg>
