<?xml version="1.0" encoding="UTF-8" standalone="no"?>
<!DOCTYPE svg PUBLIC "-//W3C//DTD SVG 1.1//EN"
 "http://www.w3.org/Graphics/SVG/1.1/DTD/svg11.dtd">
<!-- Generated by graphviz version 2.43.0 (0)
 -->
<!-- Title: fred_emergency.FredEmergency.xportSequence Pages: 1 -->
<svg width="444pt" height="78pt"
 viewBox="0.00 0.00 444.00 77.50" xmlns="http://www.w3.org/2000/svg" xmlns:xlink="http://www.w3.org/1999/xlink">
<g id="graph0" class="graph" transform="scale(1 1) rotate(0) translate(4 73.5)">
<title>fred_emergency.FredEmergency.xportSequence</title>
<polygon fill="white" stroke="transparent" points="-4,4 -4,-73.5 440,-73.5 440,4 -4,4"/>
<!-- Node1 -->
<g id="node1" class="node">
<title>Node1</title>
<g id="a_node1"><a xlink:title=" ">
<polygon fill="#bfbfbf" stroke="black" points="236,-17 236,-47 436,-47 436,-17 236,-17"/>
<text text-anchor="start" x="244" y="-35" font-family="Helvetica,sans-Serif" font-size="10.00">fred_emergency.FredEmergency.xport</text>
<text text-anchor="middle" x="336" y="-24" font-family="Helvetica,sans-Serif" font-size="10.00">Sequence</text>
</a>
</g>
</g>
<!-- Node2 -->
<g id="node2" class="node">
<title>Node2</title>
<g id="a_node2"><a xlink:href="classfred__emergency_1_1_fred_emergency.html#aa3f581bacfe58e075d45ff8f086e5556" target="_top" xlink:title=" ">
<polygon fill="white" stroke="black" points="7,-39 7,-69 193,-69 193,-39 7,-39"/>
<text text-anchor="start" x="15" y="-57" font-family="Helvetica,sans-Serif" font-size="10.00">fred_emergency.FredEmergency.fw</text>
<text text-anchor="middle" x="100" y="-46" font-family="Helvetica,sans-Serif" font-size="10.00">Update</text>
</a>
</g>
</g>
<!-- Node1&#45;&gt;Node2 -->
<g id="edge1" class="edge">
<title>Node1&#45;&gt;Node2</title>
<path fill="none" stroke="midnightblue" d="M225.49,-42.3C214.73,-43.31 203.88,-44.33 193.32,-45.32"/>
<polygon fill="midnightblue" stroke="midnightblue" points="226.13,-45.75 235.76,-41.33 225.48,-38.78 226.13,-45.75"/>
</g>
<!-- Node3 -->
<g id="node3" class="node">
<title>Node3</title>
<g id="a_node3"><a xlink:href="classfred__emergency_1_1_fred_emergency.html#add171aed204df08b45350a08d266d312" target="_top" xlink:title=" ">
<polygon fill="white" stroke="black" points="0,-0.5 0,-19.5 200,-19.5 200,-0.5 0,-0.5"/>
<text text-anchor="middle" x="100" y="-7.5" font-family="Helvetica,sans-Serif" font-size="10.00">fred_emergency.FredEmergency.reset</text>
</a>
</g>
</g>
<!-- Node1&#45;&gt;Node3 -->
<g id="edge2" class="edge">
<title>Node1&#45;&gt;Node3</title>
<path fill="none" stroke="midnightblue" d="M225.73,-21.73C217.15,-20.92 208.52,-20.11 200.02,-19.31"/>
<polygon fill="midnightblue" stroke="midnightblue" points="225.48,-25.22 235.76,-22.67 226.13,-18.25 225.48,-25.22"/>
</g>
</g>
</svg>
