<?xml version="1.0" encoding="UTF-8" standalone="no"?>
<!DOCTYPE svg PUBLIC "-//W3C//DTD SVG 1.1//EN"
 "http://www.w3.org/Graphics/SVG/1.1/DTD/svg11.dtd">
<!-- Generated by graphviz version 2.43.0 (0)
 -->
<!-- Title: fred::getFredVersionInfo Pages: 1 -->
<svg width="344pt" height="127pt"
 viewBox="0.00 0.00 344.00 127.00" xmlns="http://www.w3.org/2000/svg" xmlns:xlink="http://www.w3.org/1999/xlink">
<g id="graph0" class="graph" transform="scale(1 1) rotate(0) translate(4 123)">
<title>fred::getFredVersionInfo</title>
<polygon fill="white" stroke="transparent" points="-4,4 -4,-123 340,-123 340,4 -4,4"/>
<!-- Node1 -->
<g id="node1" class="node">
<title>Node1</title>
<g id="a_node1"><a xlink:title="Parses version string to return a VersionInfo struct.">
<polygon fill="#bfbfbf" stroke="black" points="202,-50 202,-69 336,-69 336,-50 202,-50"/>
<text text-anchor="middle" x="269" y="-57" font-family="Helvetica,sans-Serif" font-size="10.00">fred::getFredVersionInfo</text>
</a>
</g>
</g>
<!-- Node2 -->
<g id="node2" class="node">
<title>Node2</title>
<g id="a_node2"><a xlink:href="classfred_1_1_fred_control_protocol_base.html#acf849c4e7da06a8f5b2c89e7e860767f" target="_top" xlink:title=" ">
<polygon fill="white" stroke="black" points="0,-88.5 0,-118.5 166,-118.5 166,-88.5 0,-88.5"/>
<text text-anchor="start" x="8" y="-106.5" font-family="Helvetica,sans-Serif" font-size="10.00">fred::FredControlProtocol</text>
<text text-anchor="middle" x="83" y="-95.5" font-family="Helvetica,sans-Serif" font-size="10.00">Base::getSerialProtocolVersion</text>
</a>
</g>
</g>
<!-- Node1&#45;&gt;Node2 -->
<g id="edge1" class="edge">
<title>Node1&#45;&gt;Node2</title>
<path fill="none" stroke="midnightblue" d="M218.3,-71.38C196.35,-76.63 170.3,-82.86 147,-88.43"/>
<polygon fill="midnightblue" stroke="midnightblue" points="219.16,-74.78 228.07,-69.05 217.53,-67.97 219.16,-74.78"/>
</g>
<!-- Node3 -->
<g id="node3" class="node">
<title>Node3</title>
<g id="a_node3"><a xlink:href="namespacefred.html#a0a16fdba9d7fe55a06c12c5ffcdf7882" target="_top" xlink:title="get the serial communication protocol version string over the telnet connection to the fred.">
<polygon fill="white" stroke="black" points="2.5,-50 2.5,-69 163.5,-69 163.5,-50 2.5,-50"/>
<text text-anchor="middle" x="83" y="-57" font-family="Helvetica,sans-Serif" font-size="10.00">fred::getSerialProtocolVersion</text>
</a>
</g>
</g>
<!-- Node1&#45;&gt;Node3 -->
<g id="edge2" class="edge">
<title>Node1&#45;&gt;Node3</title>
<path fill="none" stroke="midnightblue" d="M191.56,-59.5C182.36,-59.5 172.95,-59.5 163.71,-59.5"/>
<polygon fill="midnightblue" stroke="midnightblue" points="191.83,-63 201.83,-59.5 191.83,-56 191.83,-63"/>
</g>
<!-- Node4 -->
<g id="node4" class="node">
<title>Node4</title>
<g id="a_node4"><a xlink:href="classfred_1_1_fred_control_protocol__v__2__0__impl.html#a279ea9f8fa34f2f77852239491b942a2" target="_top" xlink:title=" ">
<polygon fill="white" stroke="black" points="6,-0.5 6,-30.5 160,-30.5 160,-0.5 6,-0.5"/>
<text text-anchor="start" x="14" y="-18.5" font-family="Helvetica,sans-Serif" font-size="10.00">fred::FredControlProtocol</text>
<text text-anchor="middle" x="83" y="-7.5" font-family="Helvetica,sans-Serif" font-size="10.00">_v_2_0_impl::getVersionInfo</text>
</a>
</g>
</g>
<!-- Node1&#45;&gt;Node4 -->
<g id="edge3" class="edge">
<title>Node1&#45;&gt;Node4</title>
<path fill="none" stroke="midnightblue" d="M218.3,-47.62C196.35,-42.37 170.3,-36.14 147,-30.57"/>
<polygon fill="midnightblue" stroke="midnightblue" points="217.53,-51.03 228.07,-49.95 219.16,-44.22 217.53,-51.03"/>
</g>
</g>
</svg>
