<?xml version="1.0" encoding="UTF-8" standalone="no"?>
<!DOCTYPE svg PUBLIC "-//W3C//DTD SVG 1.1//EN"
 "http://www.w3.org/Graphics/SVG/1.1/DTD/svg11.dtd">
<!-- Generated by graphviz version 2.43.0 (0)
 -->
<!-- Title: ChimeraTK::VariableNetworkNode::getDirection Pages: 1 -->
<!--zoomable 435 -->
<svg id="main" version="1.1" xmlns="http://www.w3.org/2000/svg" xmlns:xlink="http://www.w3.org/1999/xlink" xml:space="preserve" onload="init(evt)">
<style type="text/css"><![CDATA[
.edge:hover path { stroke: red; }
.edge:hover polygon { stroke: red; fill: red; }
]]></style>
<script type="text/javascript"><![CDATA[
var edges = document.getElementsByTagName('g');
if (edges && edges.length) {
  for (var i=0;i<edges.length;i++) {
    if (edges[i].id.substr(0,4)=='edge') {
      edges[i].setAttribute('class','edge');
    }
  }
}
]]></script>
        <defs>
                <circle id="rim" cx="0" cy="0" r="7"/>
                <circle id="rim2" cx="0" cy="0" r="3.5"/>
                <g id="zoomPlus">
                        <use xlink:href="#rim" fill="#404040">
                                <set attributeName="fill" to="#808080" begin="zoomplus.mouseover" end="zoomplus.mouseout"/>
                        </use>
                        <path d="M-4,0h8M0,-4v8" fill="none" stroke="white" stroke-width="1.5" pointer-events="none"/>
                </g>
                <g id="zoomMin">
                        <use xlink:href="#rim" fill="#404040">
                                <set attributeName="fill" to="#808080" begin="zoomminus.mouseover" end="zoomminus.mouseout"/>
                        </use>
                        <path d="M-4,0h8" fill="none" stroke="white" stroke-width="1.5" pointer-events="none"/>
                </g>
                <g id="dirArrow">
                        <path fill="none" stroke="white" stroke-width="1.5" d="M0,-3.0v7 M-2.5,-0.5L0,-3.0L2.5,-0.5"/>
                </g>
               <g id="resetDef">
                       <use xlink:href="#rim2" fill="#404040">
                               <set attributeName="fill" to="#808080" begin="reset.mouseover" end="reset.mouseout"/>
                       </use>
               </g>
        </defs>

<script type="text/javascript">
var viewWidth = 830;
var viewHeight = 435;
var sectionId = 'dynsection-7';
</script>
<script xlink:href="svgpan.js"/>
<svg id="graph" class="graph">
<g id="viewport">
<title>ChimeraTK::VariableNetworkNode::getDirection</title>
<polygon fill="white" stroke="transparent" points="-4,4 -4,-431 826,-431 826,4 -4,4"/>
<!-- Node1 -->
<g id="node1" class="node">
<title>Node1</title>
<g id="a_node1"><a xlink:title=" ">
<polygon fill="#bfbfbf" stroke="black" points="664,-196.5 664,-226.5 822,-226.5 822,-196.5 664,-196.5"/>
<text text-anchor="start" x="672" y="-214.5" font-family="Helvetica,sans-Serif" font-size="10.00">ChimeraTK::VariableNetwork</text>
<text text-anchor="middle" x="743" y="-203.5" font-family="Helvetica,sans-Serif" font-size="10.00">Node::getDirection</text>
</a>
</g>
</g>
<!-- Node2 -->
<g id="node2" class="node">
<title>Node2</title>
<g id="a_node2"><a xlink:href="class_chimera_t_k_1_1_feeding_fan_out.html#ab543f8100799a049314e8989d50eafc6" target="_top" xlink:title="Add a slave to the FanOut.">
<polygon fill="white" stroke="black" points="438,-395.5 438,-425.5 587,-425.5 587,-395.5 438,-395.5"/>
<text text-anchor="start" x="446" y="-413.5" font-family="Helvetica,sans-Serif" font-size="10.00">ChimeraTK::FeedingFanOut</text>
<text text-anchor="middle" x="512.5" y="-402.5" font-family="Helvetica,sans-Serif" font-size="10.00">::addSlave</text>
</a>
</g>
</g>
<!-- Node1&#45;&gt;Node2 -->
<g id="edge1" class="edge">
<title>Node1&#45;&gt;Node2</title>
<path fill="none" stroke="midnightblue" d="M732.55,-236.46C716.86,-274.38 681.74,-346.06 628,-383.5 615.93,-391.91 601.6,-397.72 587.22,-401.73"/>
<polygon fill="midnightblue" stroke="midnightblue" points="735.99,-237.29 736.46,-226.71 729.49,-234.69 735.99,-237.29"/>
</g>
<!-- Node4 -->
<g id="node4" class="node">
<title>Node4</title>
<g id="a_node4"><a xlink:href="class_chimera_t_k_1_1_threaded_fan_out_with_return.html#a904e889933a4f134f0535ca21a47be29" target="_top" xlink:title="Add a slave to the FanOut.">
<polygon fill="white" stroke="black" points="434.5,-343.5 434.5,-373.5 590.5,-373.5 590.5,-343.5 434.5,-343.5"/>
<text text-anchor="start" x="442.5" y="-361.5" font-family="Helvetica,sans-Serif" font-size="10.00">ChimeraTK::ThreadedFanOut</text>
<text text-anchor="middle" x="512.5" y="-350.5" font-family="Helvetica,sans-Serif" font-size="10.00">WithReturn::addSlave</text>
</a>
</g>
</g>
<!-- Node1&#45;&gt;Node4 -->
<g id="edge3" class="edge">
<title>Node1&#45;&gt;Node4</title>
<path fill="none" stroke="midnightblue" d="M726.82,-235.29C707.44,-263.58 671.21,-310.04 628,-334.5 616.6,-340.95 603.67,-345.68 590.72,-349.13"/>
<polygon fill="midnightblue" stroke="midnightblue" points="729.85,-237.05 732.5,-226.8 724.03,-233.16 729.85,-237.05"/>
</g>
<!-- Node6 -->
<g id="node6" class="node">
<title>Node6</title>
<g id="a_node6"><a xlink:href="class_chimera_t_k_1_1_connection_maker.html#ad23d343f9febe07a8af884813de1fc92" target="_top" xlink:title=" ">
<polygon fill="white" stroke="black" points="432,-294.5 432,-324.5 593,-324.5 593,-294.5 432,-294.5"/>
<text text-anchor="start" x="440" y="-312.5" font-family="Helvetica,sans-Serif" font-size="10.00">ChimeraTK::ConnectionMaker</text>
<text text-anchor="middle" x="512.5" y="-301.5" font-family="Helvetica,sans-Serif" font-size="10.00">::createDeviceVariable</text>
</a>
</g>
</g>
<!-- Node1&#45;&gt;Node6 -->
<g id="edge5" class="edge">
<title>Node1&#45;&gt;Node6</title>
<path fill="none" stroke="midnightblue" d="M715.52,-232.76C693.38,-249.51 660.3,-272.18 628,-285.5 617.02,-290.03 605.07,-293.74 593.18,-296.78"/>
<polygon fill="midnightblue" stroke="midnightblue" points="717.66,-235.54 723.45,-226.67 713.39,-229.99 717.66,-235.54"/>
</g>
<!-- Node7 -->
<g id="node7" class="node">
<title>Node7</title>
<g id="a_node7"><a xlink:href="class_chimera_t_k_1_1_network_visitor.html#a7054315a2807b6aeb15c97f71d5882eb" target="_top" xlink:title=" ">
<polygon fill="white" stroke="black" points="438,-245.5 438,-275.5 587,-275.5 587,-245.5 438,-245.5"/>
<text text-anchor="start" x="446" y="-263.5" font-family="Helvetica,sans-Serif" font-size="10.00">ChimeraTK::NetworkVisitor</text>
<text text-anchor="middle" x="512.5" y="-252.5" font-family="Helvetica,sans-Serif" font-size="10.00">::createProcessVariable</text>
</a>
</g>
</g>
<!-- Node1&#45;&gt;Node7 -->
<g id="edge6" class="edge">
<title>Node1&#45;&gt;Node7</title>
<path fill="none" stroke="midnightblue" d="M663.89,-228.73C651.87,-231.35 639.61,-234.01 628,-236.5 614.3,-239.44 599.66,-242.54 585.6,-245.49"/>
<polygon fill="midnightblue" stroke="midnightblue" points="664.88,-232.1 673.9,-226.54 663.39,-225.26 664.88,-232.1"/>
</g>
<!-- Node8 -->
<g id="node8" class="node">
<title>Node8</title>
<g id="a_node8"><a xlink:href="class_chimera_t_k_1_1_variable_network_node_dumping_visitor.html#a188ebe426fc4322ac85da9ccc45c1b50" target="_top" xlink:title="dispatch">
<polygon fill="white" stroke="black" points="430,-196.5 430,-226.5 595,-226.5 595,-196.5 430,-196.5"/>
<text text-anchor="start" x="438" y="-214.5" font-family="Helvetica,sans-Serif" font-size="10.00">ChimeraTK::VariableNetwork</text>
<text text-anchor="middle" x="512.5" y="-203.5" font-family="Helvetica,sans-Serif" font-size="10.00">NodeDumpingVisitor::dispatch</text>
</a>
</g>
</g>
<!-- Node1&#45;&gt;Node8 -->
<g id="edge7" class="edge">
<title>Node1&#45;&gt;Node8</title>
<path fill="none" stroke="midnightblue" d="M653.46,-211.5C634.29,-211.5 614.11,-211.5 595.22,-211.5"/>
<polygon fill="midnightblue" stroke="midnightblue" points="653.68,-215 663.68,-211.5 653.68,-208 653.68,-215"/>
</g>
<!-- Node10 -->
<g id="node10" class="node">
<title>Node10</title>
<g id="a_node10"><a xlink:href="class_chimera_t_k_1_1_model_1_1_process_variable_proxy.html#aeaa010846f83ba8389821a96fa1447c6" target="_top" xlink:title="Remove VariableNetworkNode from the list of nodes. Note: Will invalidate return value of getNodes()!">
<polygon fill="white" stroke="black" points="436.5,-147.5 436.5,-177.5 588.5,-177.5 588.5,-147.5 436.5,-147.5"/>
<text text-anchor="start" x="444.5" y="-165.5" font-family="Helvetica,sans-Serif" font-size="10.00">ChimeraTK::Model::Process</text>
<text text-anchor="middle" x="512.5" y="-154.5" font-family="Helvetica,sans-Serif" font-size="10.00">VariableProxy::removeNode</text>
</a>
</g>
</g>
<!-- Node1&#45;&gt;Node10 -->
<g id="edge9" class="edge">
<title>Node1&#45;&gt;Node10</title>
<path fill="none" stroke="midnightblue" d="M663.89,-194.27C651.87,-191.65 639.61,-188.99 628,-186.5 614.3,-183.56 599.66,-180.46 585.6,-177.51"/>
<polygon fill="midnightblue" stroke="midnightblue" points="663.39,-197.74 673.9,-196.46 664.88,-190.9 663.39,-197.74"/>
</g>
<!-- Node13 -->
<g id="node13" class="node">
<title>Node13</title>
<g id="a_node13"><a xlink:href="class_chimera_t_k_1_1_variable_network_node.html#ac6d28568d16b91a0818d1122817613d9" target="_top" xlink:title="Scan the networks and set the isCircularInput() flags if circular dependencies are detected.">
<polygon fill="white" stroke="black" points="421,-98.5 421,-128.5 604,-128.5 604,-98.5 421,-98.5"/>
<text text-anchor="start" x="429" y="-116.5" font-family="Helvetica,sans-Serif" font-size="10.00">ChimeraTK::VariableNetwork</text>
<text text-anchor="middle" x="512.5" y="-105.5" font-family="Helvetica,sans-Serif" font-size="10.00">Node::scanForCircularDepencency</text>
</a>
</g>
</g>
<!-- Node1&#45;&gt;Node13 -->
<g id="edge12" class="edge">
<title>Node1&#45;&gt;Node13</title>
<path fill="none" stroke="midnightblue" d="M715.52,-190.24C693.38,-173.49 660.3,-150.82 628,-137.5 619.64,-134.05 610.73,-131.08 601.71,-128.52"/>
<polygon fill="midnightblue" stroke="midnightblue" points="713.39,-193.01 723.45,-196.33 717.66,-187.46 713.39,-193.01"/>
</g>
<!-- Node14 -->
<g id="node14" class="node">
<title>Node14</title>
<g id="a_node14"><a xlink:href="class_chimera_t_k_1_1_variable_network_node.html#aad9963dca5bc1eeae1bffca71943f511" target="_top" xlink:title=" ">
<polygon fill="white" stroke="black" points="397,-49.5 397,-79.5 628,-79.5 628,-49.5 397,-49.5"/>
<text text-anchor="start" x="405" y="-67.5" font-family="Helvetica,sans-Serif" font-size="10.00">ChimeraTK::VariableNetwork</text>
<text text-anchor="middle" x="512.5" y="-56.5" font-family="Helvetica,sans-Serif" font-size="10.00">Node::setAppAccessorConstImplementation</text>
</a>
</g>
</g>
<!-- Node1&#45;&gt;Node14 -->
<g id="edge13" class="edge">
<title>Node1&#45;&gt;Node14</title>
<path fill="none" stroke="midnightblue" d="M726.82,-187.71C707.44,-159.42 671.21,-112.96 628,-88.5 621.9,-85.05 615.37,-82.09 608.63,-79.56"/>
<polygon fill="midnightblue" stroke="midnightblue" points="724.03,-189.84 732.5,-196.2 729.85,-185.95 724.03,-189.84"/>
</g>
<!-- Node15 -->
<g id="node15" class="node">
<title>Node15</title>
<g id="a_node15"><a xlink:href="class_chimera_t_k_1_1_variable_network_node.html#af851ec9380c31c0c06c612d03889ab0f" target="_top" xlink:title=" ">
<polygon fill="white" stroke="black" points="411,-0.5 411,-30.5 614,-30.5 614,-0.5 411,-0.5"/>
<text text-anchor="start" x="419" y="-18.5" font-family="Helvetica,sans-Serif" font-size="10.00">ChimeraTK::VariableNetwork</text>
<text text-anchor="middle" x="512.5" y="-7.5" font-family="Helvetica,sans-Serif" font-size="10.00">Node::setAppAccessorImplementation</text>
</a>
</g>
</g>
<!-- Node1&#45;&gt;Node15 -->
<g id="edge14" class="edge">
<title>Node1&#45;&gt;Node15</title>
<path fill="none" stroke="midnightblue" d="M732.78,-186.66C717.3,-148.59 682.33,-76.36 628,-39.5 622.96,-36.08 617.52,-33.13 611.86,-30.59"/>
<polygon fill="midnightblue" stroke="midnightblue" points="729.71,-188.42 736.63,-196.44 736.22,-185.85 729.71,-188.42"/>
</g>
<!-- Node3 -->
<g id="node3" class="node">
<title>Node3</title>
<g id="a_node3"><a xlink:href="class_chimera_t_k_1_1_feeding_fan_out.html#a4ad1d338effacc26a2f5f0fa0b3e5352" target="_top" xlink:title=" ">
<polygon fill="white" stroke="black" points="197,-396.5 197,-426.5 346,-426.5 346,-396.5 197,-396.5"/>
<text text-anchor="start" x="205" y="-414.5" font-family="Helvetica,sans-Serif" font-size="10.00">ChimeraTK::FeedingFanOut</text>
<text text-anchor="middle" x="271.5" y="-403.5" font-family="Helvetica,sans-Serif" font-size="10.00">::FeedingFanOut</text>
</a>
</g>
</g>
<!-- Node2&#45;&gt;Node3 -->
<g id="edge2" class="edge">
<title>Node2&#45;&gt;Node3</title>
<path fill="none" stroke="midnightblue" d="M427.81,-410.85C401.26,-410.96 372.12,-411.08 346.33,-411.19"/>
<polygon fill="midnightblue" stroke="midnightblue" points="427.86,-414.35 437.84,-410.81 427.83,-407.35 427.86,-414.35"/>
</g>
<!-- Node5 -->
<g id="node5" class="node">
<title>Node5</title>
<g id="a_node5"><a xlink:href="class_chimera_t_k_1_1_threaded_fan_out_with_return.html#a0d991b4a5764591f96fa71e569ffeab8" target="_top" xlink:title=" ">
<polygon fill="white" stroke="black" points="182,-336 182,-377 361,-377 361,-336 182,-336"/>
<text text-anchor="start" x="190" y="-365" font-family="Helvetica,sans-Serif" font-size="10.00">ChimeraTK::ThreadedFanOut</text>
<text text-anchor="start" x="190" y="-354" font-family="Helvetica,sans-Serif" font-size="10.00">WithReturn::ThreadedFanOutWith</text>
<text text-anchor="middle" x="271.5" y="-343" font-family="Helvetica,sans-Serif" font-size="10.00">Return</text>
</a>
</g>
</g>
<!-- Node4&#45;&gt;Node5 -->
<g id="edge4" class="edge">
<title>Node4&#45;&gt;Node5</title>
<path fill="none" stroke="midnightblue" d="M423.98,-357.77C403.5,-357.6 381.66,-357.41 361.13,-357.24"/>
<polygon fill="midnightblue" stroke="midnightblue" points="424.2,-361.27 434.23,-357.85 424.26,-354.27 424.2,-361.27"/>
</g>
<!-- Node9 -->
<g id="node9" class="node">
<title>Node9</title>
<g id="a_node9"><a xlink:href="class_chimera_t_k_1_1_variable_network_node.html#a024d12d24ea13597b677318b8dde680f" target="_top" xlink:title="Print node information to std::cout.">
<polygon fill="white" stroke="black" points="192.5,-196.5 192.5,-226.5 350.5,-226.5 350.5,-196.5 192.5,-196.5"/>
<text text-anchor="start" x="200.5" y="-214.5" font-family="Helvetica,sans-Serif" font-size="10.00">ChimeraTK::VariableNetwork</text>
<text text-anchor="middle" x="271.5" y="-203.5" font-family="Helvetica,sans-Serif" font-size="10.00">Node::dump</text>
</a>
</g>
</g>
<!-- Node8&#45;&gt;Node9 -->
<g id="edge8" class="edge">
<title>Node8&#45;&gt;Node9</title>
<path fill="none" stroke="midnightblue" d="M419.92,-211.5C397.15,-211.5 372.96,-211.5 350.89,-211.5"/>
<polygon fill="midnightblue" stroke="midnightblue" points="419.92,-215 429.92,-211.5 419.92,-208 419.92,-215"/>
</g>
<!-- Node11 -->
<g id="node11" class="node">
<title>Node11</title>
<g id="a_node11"><a xlink:href="class_chimera_t_k_1_1_device_module.html#a02616d1bf1bb4319bedbfa654112ca7b" target="_top" xlink:title="Move assignment.">
<polygon fill="white" stroke="black" points="198.5,-147.5 198.5,-177.5 344.5,-177.5 344.5,-147.5 198.5,-147.5"/>
<text text-anchor="start" x="206.5" y="-165.5" font-family="Helvetica,sans-Serif" font-size="10.00">ChimeraTK::DeviceModule</text>
<text text-anchor="middle" x="271.5" y="-154.5" font-family="Helvetica,sans-Serif" font-size="10.00">::operator=</text>
</a>
</g>
</g>
<!-- Node10&#45;&gt;Node11 -->
<g id="edge10" class="edge">
<title>Node10&#45;&gt;Node11</title>
<path fill="none" stroke="midnightblue" d="M426.11,-162.5C399.41,-162.5 370.24,-162.5 344.56,-162.5"/>
<polygon fill="midnightblue" stroke="midnightblue" points="426.21,-166 436.21,-162.5 426.21,-159 426.21,-166"/>
</g>
<!-- Node12 -->
<g id="node12" class="node">
<title>Node12</title>
<g id="a_node12"><a xlink:href="class_chimera_t_k_1_1_device_module.html#add1eafa4c303211b2bf12a87efecb873" target="_top" xlink:title="Move operation with the move constructor.">
<polygon fill="white" stroke="black" points="0,-147.5 0,-177.5 146,-177.5 146,-147.5 0,-147.5"/>
<text text-anchor="start" x="8" y="-165.5" font-family="Helvetica,sans-Serif" font-size="10.00">ChimeraTK::DeviceModule</text>
<text text-anchor="middle" x="73" y="-154.5" font-family="Helvetica,sans-Serif" font-size="10.00">::DeviceModule</text>
</a>
</g>
</g>
<!-- Node11&#45;&gt;Node12 -->
<g id="edge11" class="edge">
<title>Node11&#45;&gt;Node12</title>
<path fill="none" stroke="midnightblue" d="M188.32,-162.5C174.28,-162.5 159.79,-162.5 146.04,-162.5"/>
<polygon fill="midnightblue" stroke="midnightblue" points="188.45,-166 198.45,-162.5 188.45,-159 188.45,-166"/>
</g>
</g>
</svg>
        <g id="navigator" transform="translate(0 0)" fill="#404254">
                <rect fill="#f2f5e9" fill-opacity="0.5" stroke="#606060" stroke-width=".5" x="0" y="0" width="60" height="60"/>
                <use id="zoomplus" xlink:href="#zoomPlus" x="17" y="9" onmousedown="handleZoom(evt,'in')"/>
                <use id="zoomminus" xlink:href="#zoomMin" x="42" y="9" onmousedown="handleZoom(evt,'out')"/>
                <use id="reset" xlink:href="#resetDef" x="30" y="36" onmousedown="handleReset()"/>
                <g id="arrowUp" xlink:href="#dirArrow" transform="translate(30 24)" onmousedown="handlePan(0,-1)">
                  <use xlink:href="#rim" fill="#404040">
                        <set attributeName="fill" to="#808080" begin="arrowUp.mouseover" end="arrowUp.mouseout"/>
                  </use>
                  <path fill="none" stroke="white" stroke-width="1.5" d="M0,-3.0v7 M-2.5,-0.5L0,-3.0L2.5,-0.5"/>
                </g>
                <g id="arrowRight" xlink:href="#dirArrow" transform="rotate(90) translate(36 -43)" onmousedown="handlePan(1,0)">
                  <use xlink:href="#rim" fill="#404040">
                        <set attributeName="fill" to="#808080" begin="arrowRight.mouseover" end="arrowRight.mouseout"/>
                  </use>
                  <path fill="none" stroke="white" stroke-width="1.5" d="M0,-3.0v7 M-2.5,-0.5L0,-3.0L2.5,-0.5"/>
                </g>
                <g id="arrowDown" xlink:href="#dirArrow" transform="rotate(180) translate(-30 -48)" onmousedown="handlePan(0,1)">
                  <use xlink:href="#rim" fill="#404040">
                        <set attributeName="fill" to="#808080" begin="arrowDown.mouseover" end="arrowDown.mouseout"/>
                  </use>
                  <path fill="none" stroke="white" stroke-width="1.5" d="M0,-3.0v7 M-2.5,-0.5L0,-3.0L2.5,-0.5"/>
                </g>
                <g id="arrowLeft" xlink:href="#dirArrow" transform="rotate(270) translate(-36 17)" onmousedown="handlePan(-1,0)">
                  <use xlink:href="#rim" fill="#404040">
                        <set attributeName="fill" to="#808080" begin="arrowLeft.mouseover" end="arrowLeft.mouseout"/>
                  </use>
                  <path fill="none" stroke="white" stroke-width="1.5" d="M0,-3.0v7 M-2.5,-0.5L0,-3.0L2.5,-0.5"/>
                </g>
        </g>
        <svg viewBox="0 0 15 15" width="100%" height="30px" preserveAspectRatio="xMaxYMin meet">
         <g id="arrow_out" transform="scale(0.3 0.3)">
          <a xlink:href="class_chimera_t_k_1_1_variable_network_node_aa2d046f0e4309259e37ea6fe31fe4793_icgraph_org.svg" target="_base">
           <rect id="button" ry="5" rx="5" y="6" x="6" height="38" width="38"
                fill="#f2f5e9" fill-opacity="0.5" stroke="#606060" stroke-width="1.0"/>
           <path id="arrow"
             d="M 11.500037,31.436501 C 11.940474,20.09759 22.043105,11.32322 32.158766,21.979434 L 37.068811,17.246167 C 37.068811,17.246167 37.088388,32 37.088388,32 L 22.160133,31.978069 C 22.160133,31.978069 26.997745,27.140456 26.997745,27.140456 C 18.528582,18.264221 13.291696,25.230495 11.500037,31.436501 z"
             style="fill:#404040;"/>
          </a>
         </g>
        </svg>
</svg>
