<?xml version="1.0" encoding="UTF-8" standalone="no"?>
<!DOCTYPE svg PUBLIC "-//W3C//DTD SVG 1.1//EN"
 "http://www.w3.org/Graphics/SVG/1.1/DTD/svg11.dtd">
<!-- Generated by graphviz version 2.40.1 (20161225.0304)
 -->
<!-- Title: ChimeraTK::TransferGroup Pages: 1 -->
<svg width="287pt" height="273pt"
 viewBox="0.00 0.00 286.50 273.00" xmlns="http://www.w3.org/2000/svg" xmlns:xlink="http://www.w3.org/1999/xlink">
<g id="graph0" class="graph" transform="scale(1 1) rotate(0) translate(4 269)">
<title>ChimeraTK::TransferGroup</title>
<polygon fill="#ffffff" stroke="transparent" points="-4,4 -4,-269 282.5,-269 282.5,4 -4,4"/>
<!-- Node1 -->
<g id="node1" class="node">
<title>Node1</title>
<polygon fill="#bfbfbf" stroke="#000000" points="32,-.5 32,-19.5 177,-19.5 177,-.5 32,-.5"/>
<text text-anchor="middle" x="104.5" y="-7.5" font-family="Helvetica,sans-Serif" font-size="10.00" fill="#000000">ChimeraTK::TransferGroup</text>
</g>
<!-- Node2 -->
<g id="node2" class="node">
<title>Node2</title>
<polygon fill="#ffffff" stroke="#bfbfbf" points="0,-89.5 0,-119.5 209,-119.5 209,-89.5 0,-89.5"/>
<text text-anchor="start" x="8" y="-107.5" font-family="Helvetica,sans-Serif" font-size="10.00" fill="#000000">std::set&lt; boost::shared</text>
<text text-anchor="middle" x="104.5" y="-96.5" font-family="Helvetica,sans-Serif" font-size="10.00" fill="#000000">_ptr&lt; ChimeraTK::TransferElement &gt; &gt;</text>
</g>
<!-- Node2&#45;&gt;Node1 -->
<g id="edge1" class="edge">
<title>Node2&#45;&gt;Node1</title>
<path fill="none" stroke="#9a32cd" stroke-dasharray="5,2" d="M104.5,-79.2172C104.5,-59.6238 104.5,-33.5479 104.5,-19.6636"/>
<polygon fill="#9a32cd" stroke="#9a32cd" points="101.0001,-79.3169 104.5,-89.3169 108.0001,-79.317 101.0001,-79.3169"/>
<text text-anchor="middle" x="153" y="-63" font-family="Helvetica,sans-Serif" font-size="10.00" fill="#000000"> highLevelElements</text>
<text text-anchor="middle" x="153" y="-52" font-family="Helvetica,sans-Serif" font-size="10.00" fill="#000000">lowLevelElements</text>
<text text-anchor="middle" x="153" y="-41" font-family="Helvetica,sans-Serif" font-size="10.00" fill="#000000">copyDecorators</text>
</g>
<!-- Node3 -->
<g id="node3" class="node">
<title>Node3</title>
<g id="a_node3"><a xlink:title="STL class. ">
<polygon fill="#ffffff" stroke="#bfbfbf" points="63.5,-178.5 63.5,-197.5 145.5,-197.5 145.5,-178.5 63.5,-178.5"/>
<text text-anchor="middle" x="104.5" y="-185.5" font-family="Helvetica,sans-Serif" font-size="10.00" fill="#000000">std::set&lt; K &gt;</text>
</a>
</g>
</g>
<!-- Node3&#45;&gt;Node2 -->
<g id="edge2" class="edge">
<title>Node3&#45;&gt;Node2</title>
<path fill="none" stroke="#ffa500" stroke-dasharray="5,2" d="M104.5,-168.2427C104.5,-153.345 104.5,-133.2186 104.5,-119.597"/>
<polygon fill="#ffa500" stroke="#ffa500" points="101.0001,-168.4215 104.5,-178.4215 108.0001,-168.4215 101.0001,-168.4215"/>
<text text-anchor="start" x="104.5" y="-152" font-family="Helvetica,sans-Serif" font-size="10.00" fill="#000000"> &lt; boost::shared_ptr</text>
<text text-anchor="middle" x="191.5" y="-141" font-family="Helvetica,sans-Serif" font-size="10.00" fill="#000000">&lt; ChimeraTK::TransferElement &gt; &gt;</text>
</g>
<!-- Node4 -->
<g id="node4" class="node">
<title>Node4</title>
<polygon fill="#ffffff" stroke="#bfbfbf" points="90,-245.5 90,-264.5 119,-264.5 119,-245.5 90,-245.5"/>
<text text-anchor="middle" x="104.5" y="-252.5" font-family="Helvetica,sans-Serif" font-size="10.00" fill="#000000">K</text>
</g>
<!-- Node4&#45;&gt;Node3 -->
<g id="edge3" class="edge">
<title>Node4&#45;&gt;Node3</title>
<path fill="none" stroke="#9a32cd" stroke-dasharray="5,2" d="M104.5,-235.1079C104.5,-222.714 104.5,-207.3263 104.5,-197.5817"/>
<polygon fill="#9a32cd" stroke="#9a32cd" points="101.0001,-235.4005 104.5,-245.4005 108.0001,-235.4006 101.0001,-235.4005"/>
<text text-anchor="middle" x="118" y="-219" font-family="Helvetica,sans-Serif" font-size="10.00" fill="#000000"> keys</text>
</g>
</g>
</svg>
