<?xml version="1.0" encoding="UTF-8" standalone="no"?>
<!DOCTYPE svg PUBLIC "-//W3C//DTD SVG 1.1//EN"
 "http://www.w3.org/Graphics/SVG/1.1/DTD/svg11.dtd">
<!-- Generated by graphviz version 2.40.1 (20161225.0304)
 -->
<!-- Title: mtca4u_compatibility_headers/LNMBackendRegisterInfo.h Pages: 1 -->
<!--zoomable 128 -->
<svg id="main" version="1.1" xmlns="http://www.w3.org/2000/svg" xmlns:xlink="http://www.w3.org/1999/xlink" xml:space="preserve" onload="init(evt)">
<style type="text/css"><![CDATA[
.edge:hover path { stroke: red; }
.edge:hover polygon { stroke: red; fill: red; }
]]></style>
<script type="text/javascript"><![CDATA[
var edges = document.getElementsByTagName('g');
if (edges && edges.length) {
  for (var i=0;i<edges.length;i++) {
    if (edges[i].id.substr(0,4)=='edge') {
      edges[i].setAttribute('class','edge');
    }
  }
}
]]></script>
        <defs>
                <circle id="rim" cx="0" cy="0" r="7"/>
                <circle id="rim2" cx="0" cy="0" r="3.5"/>
                <g id="zoomPlus">
                        <use xlink:href="#rim" fill="#404040">
                                <set attributeName="fill" to="#808080" begin="zoomplus.mouseover" end="zoomplus.mouseout"/>
                        </use>
                        <path d="M-4,0h8M0,-4v8" fill="none" stroke="white" stroke-width="1.5" pointer-events="none"/>
                </g>
                <g id="zoomMin">
                        <use xlink:href="#rim" fill="#404040">
                                <set attributeName="fill" to="#808080" begin="zoomminus.mouseover" end="zoomminus.mouseout"/>
                        </use>
                        <path d="M-4,0h8" fill="none" stroke="white" stroke-width="1.5" pointer-events="none"/>
                </g>
                <g id="dirArrow">
                        <path fill="none" stroke="white" stroke-width="1.5" d="M0,-3.0v7 M-2.5,-0.5L0,-3.0L2.5,-0.5"/>
                </g>
               <g id="resetDef">
                       <use xlink:href="#rim2" fill="#404040">
                               <set attributeName="fill" to="#808080" begin="reset.mouseover" end="reset.mouseout"/>
                       </use>
               </g>
        </defs>

<script type="text/javascript">
var viewWidth = 1449;
var viewHeight = 128;
var sectionId = 'dynsection-1';
</script>
<script xlink:href="svgpan.js"/>
<svg id="graph" class="graph">
<g id="viewport">
<title>mtca4u_compatibility_headers/LNMBackendRegisterInfo.h</title>
<polygon fill="#ffffff" stroke="transparent" points="-4,4 -4,-124 1444.5,-124 1444.5,4 -4,4"/>
<!-- Node2 -->
<g id="node1" class="node">
<title>Node2</title>
<polygon fill="#bfbfbf" stroke="#000000" points="637.5,-78.5 637.5,-119.5 804.5,-119.5 804.5,-78.5 637.5,-78.5"/>
<text text-anchor="start" x="645.5" y="-107.5" font-family="Helvetica,sans-Serif" font-size="10.00" fill="#000000">mtca4u_compatibility</text>
<text text-anchor="start" x="645.5" y="-96.5" font-family="Helvetica,sans-Serif" font-size="10.00" fill="#000000">_headers/LNMBackendRegister</text>
<text text-anchor="middle" x="721" y="-85.5" font-family="Helvetica,sans-Serif" font-size="10.00" fill="#000000">Info.h</text>
</g>
<!-- Node3 -->
<g id="node2" class="node">
<title>Node3</title>
<g id="a_node2"><a xlink:href="_l_n_m_accessor_plugin_8cc.html" target="_top" xlink:title="device_backends/LogicalName\lMapping/src/LNMAccessorPlugin.cc">
<polygon fill="#ffffff" stroke="#000000" points="0,-6 0,-36 186,-36 186,-6 0,-6"/>
<text text-anchor="start" x="8" y="-24" font-family="Helvetica,sans-Serif" font-size="10.00" fill="#000000">device_backends/LogicalName</text>
<text text-anchor="middle" x="93" y="-13" font-family="Helvetica,sans-Serif" font-size="10.00" fill="#000000">Mapping/src/LNMAccessorPlugin.cc</text>
</a>
</g>
</g>
<!-- Node2&#45;&gt;Node3 -->
<g id="edge1" class="edge">
<title>Node2&#45;&gt;Node3</title>
<path fill="none" stroke="#191970" d="M627.3378,-91.5578C521.8694,-82.5497 345.5459,-65.5996 195,-42 184.1044,-40.292 172.6099,-38.2056 161.4205,-36.0182"/>
<polygon fill="#191970" stroke="#191970" points="627.0598,-95.0467 637.3199,-92.4047 627.6517,-88.0718 627.0598,-95.0467"/>
</g>
<!-- Node4 -->
<g id="node3" class="node">
<title>Node4</title>
<g id="a_node3"><a xlink:href="_l_n_m_force_polling_read_plugin_8cc.html" target="_top" xlink:title="device_backends/LogicalName\lMapping/src/LNMForcePollingRead\lPlugin.cc">
<polygon fill="#ffffff" stroke="#000000" points="204,-.5 204,-41.5 386,-41.5 386,-.5 204,-.5"/>
<text text-anchor="start" x="212" y="-29.5" font-family="Helvetica,sans-Serif" font-size="10.00" fill="#000000">device_backends/LogicalName</text>
<text text-anchor="start" x="212" y="-18.5" font-family="Helvetica,sans-Serif" font-size="10.00" fill="#000000">Mapping/src/LNMForcePollingRead</text>
<text text-anchor="middle" x="295" y="-7.5" font-family="Helvetica,sans-Serif" font-size="10.00" fill="#000000">Plugin.cc</text>
</a>
</g>
</g>
<!-- Node2&#45;&gt;Node4 -->
<g id="edge2" class="edge">
<title>Node2&#45;&gt;Node4</title>
<path fill="none" stroke="#191970" d="M627.1844,-83.4632C561.9584,-72.4491 473.0582,-57.0157 395,-42 392.1256,-41.4471 389.2064,-40.8782 386.2599,-40.2977"/>
<polygon fill="#191970" stroke="#191970" points="627.0016,-86.9816 637.4442,-85.1922 628.1649,-80.079 627.0016,-86.9816"/>
</g>
<!-- Node5 -->
<g id="node4" class="node">
<title>Node5</title>
<g id="a_node4"><a xlink:href="_l_n_m_force_read_only_plugin_8cc.html" target="_top" xlink:title="device_backends/LogicalName\lMapping/src/LNMForceReadOnlyPlugin.cc">
<polygon fill="#ffffff" stroke="#000000" points="404.5,-6 404.5,-36 619.5,-36 619.5,-6 404.5,-6"/>
<text text-anchor="start" x="412.5" y="-24" font-family="Helvetica,sans-Serif" font-size="10.00" fill="#000000">device_backends/LogicalName</text>
<text text-anchor="middle" x="512" y="-13" font-family="Helvetica,sans-Serif" font-size="10.00" fill="#000000">Mapping/src/LNMForceReadOnlyPlugin.cc</text>
</a>
</g>
</g>
<!-- Node2&#45;&gt;Node5 -->
<g id="edge3" class="edge">
<title>Node2&#45;&gt;Node5</title>
<path fill="none" stroke="#191970" d="M656.4107,-74.8949C622.3939,-62.1996 581.7372,-47.0263 552.2427,-36.0188"/>
<polygon fill="#191970" stroke="#191970" points="655.2217,-78.1869 665.8143,-78.4044 657.6693,-71.6287 655.2217,-78.1869"/>
</g>
<!-- Node6 -->
<g id="node5" class="node">
<title>Node6</title>
<g id="a_node5"><a xlink:href="_l_n_m_math_plugin_8cc.html" target="_top" xlink:title="device_backends/LogicalName\lMapping/src/LNMMathPlugin.cc">
<polygon fill="#ffffff" stroke="#000000" points="637.5,-6 637.5,-36 804.5,-36 804.5,-6 637.5,-6"/>
<text text-anchor="start" x="645.5" y="-24" font-family="Helvetica,sans-Serif" font-size="10.00" fill="#000000">device_backends/LogicalName</text>
<text text-anchor="middle" x="721" y="-13" font-family="Helvetica,sans-Serif" font-size="10.00" fill="#000000">Mapping/src/LNMMathPlugin.cc</text>
</a>
</g>
</g>
<!-- Node2&#45;&gt;Node6 -->
<g id="edge4" class="edge">
<title>Node2&#45;&gt;Node6</title>
<path fill="none" stroke="#191970" d="M721,-68.0187C721,-57.1033 721,-45.3119 721,-36.2679"/>
<polygon fill="#191970" stroke="#191970" points="717.5001,-68.0974 721,-78.0974 724.5001,-68.0975 717.5001,-68.0974"/>
</g>
<!-- Node7 -->
<g id="node6" class="node">
<title>Node7</title>
<g id="a_node6"><a xlink:href="_l_n_m_monostable_trigger_plugin_8cc.html" target="_top" xlink:title="device_backends/LogicalName\lMapping/src/LNMMonostableTrigger\lPlugin.cc">
<polygon fill="#ffffff" stroke="#000000" points="823,-.5 823,-41.5 1011,-41.5 1011,-.5 823,-.5"/>
<text text-anchor="start" x="831" y="-29.5" font-family="Helvetica,sans-Serif" font-size="10.00" fill="#000000">device_backends/LogicalName</text>
<text text-anchor="start" x="831" y="-18.5" font-family="Helvetica,sans-Serif" font-size="10.00" fill="#000000">Mapping/src/LNMMonostableTrigger</text>
<text text-anchor="middle" x="917" y="-7.5" font-family="Helvetica,sans-Serif" font-size="10.00" fill="#000000">Plugin.cc</text>
</a>
</g>
</g>
<!-- Node2&#45;&gt;Node7 -->
<g id="edge5" class="edge">
<title>Node2&#45;&gt;Node7</title>
<path fill="none" stroke="#191970" d="M782.3577,-74.5821C808.994,-63.982 839.8493,-51.7028 865.297,-41.5757"/>
<polygon fill="#191970" stroke="#191970" points="780.7502,-71.4548 772.7531,-78.4044 783.3385,-77.9587 780.7502,-71.4548"/>
</g>
<!-- Node8 -->
<g id="node7" class="node">
<title>Node8</title>
<g id="a_node7"><a xlink:href="_l_n_m_multiplier_plugin_8cc.html" target="_top" xlink:title="device_backends/LogicalName\lMapping/src/LNMMultiplierPlugin.cc">
<polygon fill="#ffffff" stroke="#000000" points="1029,-6 1029,-36 1217,-36 1217,-6 1029,-6"/>
<text text-anchor="start" x="1037" y="-24" font-family="Helvetica,sans-Serif" font-size="10.00" fill="#000000">device_backends/LogicalName</text>
<text text-anchor="middle" x="1123" y="-13" font-family="Helvetica,sans-Serif" font-size="10.00" fill="#000000">Mapping/src/LNMMultiplierPlugin.cc</text>
</a>
</g>
</g>
<!-- Node2&#45;&gt;Node8 -->
<g id="edge6" class="edge">
<title>Node2&#45;&gt;Node8</title>
<path fill="none" stroke="#191970" d="M814.55,-81.4831C873.5275,-70.3613 951.2631,-55.5584 1020,-42 1029.6686,-40.0929 1039.8412,-38.0559 1049.875,-36.0288"/>
<polygon fill="#191970" stroke="#191970" points="813.6868,-78.0841 804.5079,-83.3755 814.9831,-84.9631 813.6868,-78.0841"/>
</g>
<!-- Node9 -->
<g id="node8" class="node">
<title>Node9</title>
<g id="a_node8"><a xlink:href="_logical_name_map_parser_8cc.html" target="_top" xlink:title="device_backends/LogicalName\lMapping/src/LogicalNameMapParser.cc">
<polygon fill="#ffffff" stroke="#000000" points="1235.5,-6 1235.5,-36 1440.5,-36 1440.5,-6 1235.5,-6"/>
<text text-anchor="start" x="1243.5" y="-24" font-family="Helvetica,sans-Serif" font-size="10.00" fill="#000000">device_backends/LogicalName</text>
<text text-anchor="middle" x="1338" y="-13" font-family="Helvetica,sans-Serif" font-size="10.00" fill="#000000">Mapping/src/LogicalNameMapParser.cc</text>
</a>
</g>
</g>
<!-- Node2&#45;&gt;Node9 -->
<g id="edge7" class="edge">
<title>Node2&#45;&gt;Node9</title>
<path fill="none" stroke="#191970" d="M815.0298,-90.4561C916.6494,-80.7403 1083.2253,-63.4136 1226,-42 1237.6409,-40.2541 1249.9208,-38.1853 1261.9138,-36.0381"/>
<polygon fill="#191970" stroke="#191970" points="814.4168,-86.9986 804.7933,-91.4301 815.0799,-93.9671 814.4168,-86.9986"/>
</g>
</g>
</svg>
        <g id="navigator" transform="translate(0 0)" fill="#404254">
                <rect fill="#f2f5e9" fill-opacity="0.5" stroke="#606060" stroke-width=".5" x="0" y="0" width="60" height="60"/>
                <use id="zoomplus" xlink:href="#zoomPlus" x="17" y="9" onmousedown="handleZoom(evt,'in')"/>
                <use id="zoomminus" xlink:href="#zoomMin" x="42" y="9" onmousedown="handleZoom(evt,'out')"/>
                <use id="reset" xlink:href="#resetDef" x="30" y="36" onmousedown="handleReset()"/>
                <g id="arrowUp" xlink:href="#dirArrow" transform="translate(30 24)" onmousedown="handlePan(0,-1)">
                  <use xlink:href="#rim" fill="#404040">
                        <set attributeName="fill" to="#808080" begin="arrowUp.mouseover" end="arrowUp.mouseout"/>
                  </use>
                  <path fill="none" stroke="white" stroke-width="1.5" d="M0,-3.0v7 M-2.5,-0.5L0,-3.0L2.5,-0.5"/>
                </g>
                <g id="arrowRight" xlink:href="#dirArrow" transform="rotate(90) translate(36 -43)" onmousedown="handlePan(1,0)">
                  <use xlink:href="#rim" fill="#404040">
                        <set attributeName="fill" to="#808080" begin="arrowRight.mouseover" end="arrowRight.mouseout"/>
                  </use>
                  <path fill="none" stroke="white" stroke-width="1.5" d="M0,-3.0v7 M-2.5,-0.5L0,-3.0L2.5,-0.5"/>
                </g>
                <g id="arrowDown" xlink:href="#dirArrow" transform="rotate(180) translate(-30 -48)" onmousedown="handlePan(0,1)">
                  <use xlink:href="#rim" fill="#404040">
                        <set attributeName="fill" to="#808080" begin="arrowDown.mouseover" end="arrowDown.mouseout"/>
                  </use>
                  <path fill="none" stroke="white" stroke-width="1.5" d="M0,-3.0v7 M-2.5,-0.5L0,-3.0L2.5,-0.5"/>
                </g>
                <g id="arrowLeft" xlink:href="#dirArrow" transform="rotate(270) translate(-36 17)" onmousedown="handlePan(-1,0)">
                  <use xlink:href="#rim" fill="#404040">
                        <set attributeName="fill" to="#808080" begin="arrowLeft.mouseover" end="arrowLeft.mouseout"/>
                  </use>
                  <path fill="none" stroke="white" stroke-width="1.5" d="M0,-3.0v7 M-2.5,-0.5L0,-3.0L2.5,-0.5"/>
                </g>
        </g>
        <svg viewBox="0 0 15 15" width="100%" height="30px" preserveAspectRatio="xMaxYMin meet">
         <g id="arrow_out" transform="scale(0.3 0.3)">
          <a xlink:href="mtca4u__compatibility__headers_2_l_n_m_backend_register_info_8h__dep__incl_org.svg" target="_base">
           <rect id="button" ry="5" rx="5" y="6" x="6" height="38" width="38"
                fill="#f2f5e9" fill-opacity="0.5" stroke="#606060" stroke-width="1.0"/>
           <path id="arrow"
             d="M 11.500037,31.436501 C 11.940474,20.09759 22.043105,11.32322 32.158766,21.979434 L 37.068811,17.246167 C 37.068811,17.246167 37.088388,32 37.088388,32 L 22.160133,31.978069 C 22.160133,31.978069 26.997745,27.140456 26.997745,27.140456 C 18.528582,18.264221 13.291696,25.230495 11.500037,31.436501 z"
             style="fill:#404040;"/>
          </a>
         </g>
        </svg>
</svg>
