<?xml version="1.0" encoding="UTF-8" standalone="no"?>
<!DOCTYPE svg PUBLIC "-//W3C//DTD SVG 1.1//EN"
 "http://www.w3.org/Graphics/SVG/1.1/DTD/svg11.dtd">
<!-- Generated by graphviz version 2.43.0 (0)
 -->
<!-- Title: /scratch/dragon/sources/ChimeraTK&#45;DeviceAccess/backends/SharedDummy/include/SharedDummyBackend.h Pages: 1 -->
<svg width="900pt" height="150pt"
 viewBox="0.00 0.00 900.00 150.00" xmlns="http://www.w3.org/2000/svg" xmlns:xlink="http://www.w3.org/1999/xlink">
<g id="graph0" class="graph" transform="scale(1 1) rotate(0) translate(4 146)">
<title>/scratch/dragon/sources/ChimeraTK&#45;DeviceAccess/backends/SharedDummy/include/SharedDummyBackend.h</title>
<polygon fill="white" stroke="transparent" points="-4,4 -4,-146 896,-146 896,4 -4,4"/>
<!-- Node1 -->
<g id="node1" class="node">
<title>Node1</title>
<g id="a_node1"><a xlink:title=" ">
<polygon fill="#bfbfbf" stroke="black" points="334.5,-89.5 334.5,-141.5 513.5,-141.5 513.5,-89.5 334.5,-89.5"/>
<text text-anchor="start" x="342.5" y="-129.5" font-family="Helvetica,sans-Serif" font-size="10.00">/scratch/dragon/sources</text>
<text text-anchor="start" x="342.5" y="-118.5" font-family="Helvetica,sans-Serif" font-size="10.00">/ChimeraTK&#45;DeviceAccess</text>
<text text-anchor="start" x="342.5" y="-107.5" font-family="Helvetica,sans-Serif" font-size="10.00">/backends/SharedDummy/include</text>
<text text-anchor="middle" x="424" y="-96.5" font-family="Helvetica,sans-Serif" font-size="10.00">/SharedDummyBackend.h</text>
</a>
</g>
</g>
<!-- Node2 -->
<g id="node2" class="node">
<title>Node2</title>
<g id="a_node2"><a xlink:href="_shared_dummy_backend_8cc.html" target="_top" xlink:title=" ">
<polygon fill="white" stroke="black" points="0,-0.5 0,-52.5 158,-52.5 158,-0.5 0,-0.5"/>
<text text-anchor="start" x="8" y="-40.5" font-family="Helvetica,sans-Serif" font-size="10.00">/scratch/dragon/sources</text>
<text text-anchor="start" x="8" y="-29.5" font-family="Helvetica,sans-Serif" font-size="10.00">/ChimeraTK&#45;DeviceAccess</text>
<text text-anchor="start" x="8" y="-18.5" font-family="Helvetica,sans-Serif" font-size="10.00">/backends/SharedDummy/src</text>
<text text-anchor="middle" x="79" y="-7.5" font-family="Helvetica,sans-Serif" font-size="10.00">/SharedDummyBackend.cc</text>
</a>
</g>
</g>
<!-- Node1&#45;&gt;Node2 -->
<g id="edge1" class="edge">
<title>Node1&#45;&gt;Node2</title>
<path fill="none" stroke="midnightblue" d="M324.22,-91.78C276.5,-80.62 218.66,-66.66 167,-53 164.08,-52.23 161.11,-51.43 158.11,-50.61"/>
<polygon fill="midnightblue" stroke="midnightblue" points="323.71,-95.25 334.24,-94.11 325.3,-88.43 323.71,-95.25"/>
</g>
<!-- Node3 -->
<g id="node3" class="node">
<title>Node3</title>
<g id="a_node3"><a xlink:href="_shared_memory_manager_8cc.html" target="_top" xlink:title=" ">
<polygon fill="white" stroke="black" points="176,-0.5 176,-52.5 334,-52.5 334,-0.5 176,-0.5"/>
<text text-anchor="start" x="184" y="-40.5" font-family="Helvetica,sans-Serif" font-size="10.00">/scratch/dragon/sources</text>
<text text-anchor="start" x="184" y="-29.5" font-family="Helvetica,sans-Serif" font-size="10.00">/ChimeraTK&#45;DeviceAccess</text>
<text text-anchor="start" x="184" y="-18.5" font-family="Helvetica,sans-Serif" font-size="10.00">/backends/SharedDummy/src</text>
<text text-anchor="middle" x="255" y="-7.5" font-family="Helvetica,sans-Serif" font-size="10.00">/SharedMemoryManager.cc</text>
</a>
</g>
</g>
<!-- Node1&#45;&gt;Node3 -->
<g id="edge2" class="edge">
<title>Node1&#45;&gt;Node3</title>
<path fill="none" stroke="midnightblue" d="M365.99,-84.64C345.73,-74.2 323.2,-62.61 303.77,-52.61"/>
<polygon fill="midnightblue" stroke="midnightblue" points="364.63,-87.87 375.12,-89.34 367.83,-81.65 364.63,-87.87"/>
</g>
<!-- Node4 -->
<g id="node4" class="node">
<title>Node4</title>
<g id="a_node4"><a xlink:href="_backend_factory_8cc.html" target="_top" xlink:title=" ">
<polygon fill="white" stroke="black" points="352.5,-6 352.5,-47 495.5,-47 495.5,-6 352.5,-6"/>
<text text-anchor="start" x="360.5" y="-35" font-family="Helvetica,sans-Serif" font-size="10.00">/scratch/dragon/sources</text>
<text text-anchor="start" x="360.5" y="-24" font-family="Helvetica,sans-Serif" font-size="10.00">/ChimeraTK&#45;DeviceAccess</text>
<text text-anchor="middle" x="424" y="-13" font-family="Helvetica,sans-Serif" font-size="10.00">/src/BackendFactory.cc</text>
</a>
</g>
</g>
<!-- Node1&#45;&gt;Node4 -->
<g id="edge3" class="edge">
<title>Node1&#45;&gt;Node4</title>
<path fill="none" stroke="midnightblue" d="M424,-79.16C424,-68.21 424,-56.55 424,-47.08"/>
<polygon fill="midnightblue" stroke="midnightblue" points="420.5,-79.34 424,-89.34 427.5,-79.34 420.5,-79.34"/>
</g>
<!-- Node5 -->
<g id="node5" class="node">
<title>Node5</title>
<g id="a_node5"><a xlink:href="test_shared_dummy_backend_8cpp.html" target="_top" xlink:title=" ">
<polygon fill="white" stroke="black" points="514,-0.5 514,-52.5 694,-52.5 694,-0.5 514,-0.5"/>
<text text-anchor="start" x="522" y="-40.5" font-family="Helvetica,sans-Serif" font-size="10.00">/scratch/dragon/sources</text>
<text text-anchor="start" x="522" y="-29.5" font-family="Helvetica,sans-Serif" font-size="10.00">/ChimeraTK&#45;DeviceAccess</text>
<text text-anchor="start" x="522" y="-18.5" font-family="Helvetica,sans-Serif" font-size="10.00">/tests/executables_src/testShared</text>
<text text-anchor="middle" x="604" y="-7.5" font-family="Helvetica,sans-Serif" font-size="10.00">DummyBackend.cpp</text>
</a>
</g>
</g>
<!-- Node1&#45;&gt;Node5 -->
<g id="edge4" class="edge">
<title>Node1&#45;&gt;Node5</title>
<path fill="none" stroke="midnightblue" d="M485.21,-84.92C506.94,-74.41 531.17,-62.7 552.05,-52.61"/>
<polygon fill="midnightblue" stroke="midnightblue" points="483.54,-81.83 476.06,-89.34 486.59,-88.14 483.54,-81.83"/>
</g>
<!-- Node6 -->
<g id="node6" class="node">
<title>Node6</title>
<g id="a_node6"><a xlink:href="test_shared_dummy_backend_unified_8cpp.html" target="_top" xlink:title=" ">
<polygon fill="white" stroke="black" points="712,-0.5 712,-52.5 892,-52.5 892,-0.5 712,-0.5"/>
<text text-anchor="start" x="720" y="-40.5" font-family="Helvetica,sans-Serif" font-size="10.00">/scratch/dragon/sources</text>
<text text-anchor="start" x="720" y="-29.5" font-family="Helvetica,sans-Serif" font-size="10.00">/ChimeraTK&#45;DeviceAccess</text>
<text text-anchor="start" x="720" y="-18.5" font-family="Helvetica,sans-Serif" font-size="10.00">/tests/executables_src/testShared</text>
<text text-anchor="middle" x="802" y="-7.5" font-family="Helvetica,sans-Serif" font-size="10.00">DummyBackendUnified.cpp</text>
</a>
</g>
</g>
<!-- Node1&#45;&gt;Node6 -->
<g id="edge5" class="edge">
<title>Node1&#45;&gt;Node6</title>
<path fill="none" stroke="midnightblue" d="M523.51,-93.45C576.84,-81.95 643.62,-67.19 703,-53 705.93,-52.3 708.92,-51.58 711.93,-50.84"/>
<polygon fill="midnightblue" stroke="midnightblue" points="522.75,-90.04 513.71,-95.56 524.22,-96.88 522.75,-90.04"/>
</g>
</g>
</svg>
