<?xml version="1.0" encoding="UTF-8" standalone="no"?>
<!DOCTYPE svg PUBLIC "-//W3C//DTD SVG 1.1//EN"
 "http://www.w3.org/Graphics/SVG/1.1/DTD/svg11.dtd">
<!-- Generated by graphviz version 2.43.0 (0)
 -->
<!-- Title: /scratch/dragon/sources/ChimeraTK&#45;DeviceAccess/backends/Subdevice/include/SubdeviceBackend.h Pages: 1 -->
<svg width="655pt" height="236pt"
 viewBox="0.00 0.00 655.00 236.00" xmlns="http://www.w3.org/2000/svg" xmlns:xlink="http://www.w3.org/1999/xlink">
<g id="graph0" class="graph" transform="scale(1 1) rotate(0) translate(4 232)">
<title>/scratch/dragon/sources/ChimeraTK&#45;DeviceAccess/backends/Subdevice/include/SubdeviceBackend.h</title>
<!-- Node1 -->
<g id="Node000001" class="node">
<title>Node1</title>
<g id="a_Node000001"><a xlink:title=" ">
<polygon fill="#999999" stroke="#666666" points="399,-228 242,-228 242,-176 399,-176 399,-228"/>
<text text-anchor="start" x="250" y="-216" font-family="Helvetica,sans-Serif" font-size="10.00">/scratch/dragon/sources</text>
<text text-anchor="start" x="250" y="-205" font-family="Helvetica,sans-Serif" font-size="10.00">/ChimeraTK&#45;DeviceAccess</text>
<text text-anchor="start" x="250" y="-194" font-family="Helvetica,sans-Serif" font-size="10.00">/backends/Subdevice/include</text>
<text text-anchor="middle" x="320.5" y="-183" font-family="Helvetica,sans-Serif" font-size="10.00">/SubdeviceBackend.h</text>
</a>
</g>
</g>
<!-- Node2 -->
<g id="Node000002" class="node">
<title>Node2</title>
<g id="a_Node000002"><a xlink:href="_subdevice_register_accessor_8h.html" target="_top" xlink:title=" ">
<polygon fill="white" stroke="#666666" points="228.5,-140 66.5,-140 66.5,-88 228.5,-88 228.5,-140"/>
<text text-anchor="start" x="74.5" y="-128" font-family="Helvetica,sans-Serif" font-size="10.00">/scratch/dragon/sources</text>
<text text-anchor="start" x="74.5" y="-117" font-family="Helvetica,sans-Serif" font-size="10.00">/ChimeraTK&#45;DeviceAccess</text>
<text text-anchor="start" x="74.5" y="-106" font-family="Helvetica,sans-Serif" font-size="10.00">/backends/Subdevice/include</text>
<text text-anchor="middle" x="147.5" y="-95" font-family="Helvetica,sans-Serif" font-size="10.00">/SubdeviceRegisterAccessor.h</text>
</a>
</g>
</g>
<!-- Node1&#45;&gt;Node2 -->
<g id="edge1_Node000001_Node000002" class="edge">
<title>Node1&#45;&gt;Node2</title>
<g id="a_edge1_Node000001_Node000002"><a xlink:title=" ">
<path fill="none" stroke="#63b8ff" d="M260.78,-171.31C240.35,-161.16 217.71,-149.9 198.07,-140.14"/>
<polygon fill="#63b8ff" stroke="#63b8ff" points="259.48,-174.58 270,-175.89 262.6,-168.31 259.48,-174.58"/>
</a>
</g>
</g>
<!-- Node3 -->
<g id="Node000003" class="node">
<title>Node3</title>
<g id="a_Node000003"><a xlink:href="_subdevice_backend_8cc.html" target="_top" xlink:title=" ">
<polygon fill="white" stroke="#666666" points="328,-52 185,-52 185,0 328,0 328,-52"/>
<text text-anchor="start" x="193" y="-40" font-family="Helvetica,sans-Serif" font-size="10.00">/scratch/dragon/sources</text>
<text text-anchor="start" x="193" y="-29" font-family="Helvetica,sans-Serif" font-size="10.00">/ChimeraTK&#45;DeviceAccess</text>
<text text-anchor="start" x="193" y="-18" font-family="Helvetica,sans-Serif" font-size="10.00">/backends/Subdevice/src</text>
<text text-anchor="middle" x="256.5" y="-7" font-family="Helvetica,sans-Serif" font-size="10.00">/SubdeviceBackend.cc</text>
</a>
</g>
</g>
<!-- Node1&#45;&gt;Node3 -->
<g id="edge7_Node000001_Node000003" class="edge">
<title>Node1&#45;&gt;Node3</title>
<g id="a_edge7_Node000001_Node000003"><a xlink:title=" ">
<path fill="none" stroke="#63b8ff" d="M291.65,-167.73C285.47,-159.16 279.58,-149.63 275.5,-140 263.38,-111.43 258.98,-75.72 257.39,-52.18"/>
<polygon fill="#63b8ff" stroke="#63b8ff" points="289.04,-170.08 297.87,-175.94 294.62,-165.86 289.04,-170.08"/>
</a>
</g>
</g>
<!-- Node5 -->
<g id="Node000005" class="node">
<title>Node5</title>
<g id="a_Node000005"><a xlink:href="_subdevice_register_window_accessor_8h.html" target="_top" xlink:title=" ">
<polygon fill="white" stroke="#666666" points="486,-140 285,-140 285,-88 486,-88 486,-140"/>
<text text-anchor="start" x="293" y="-128" font-family="Helvetica,sans-Serif" font-size="10.00">/scratch/dragon/sources</text>
<text text-anchor="start" x="293" y="-117" font-family="Helvetica,sans-Serif" font-size="10.00">/ChimeraTK&#45;DeviceAccess</text>
<text text-anchor="start" x="293" y="-106" font-family="Helvetica,sans-Serif" font-size="10.00">/backends/Subdevice/include</text>
<text text-anchor="middle" x="385.5" y="-95" font-family="Helvetica,sans-Serif" font-size="10.00">/SubdeviceRegisterWindowAccessor.h</text>
</a>
</g>
</g>
<!-- Node1&#45;&gt;Node5 -->
<g id="edge4_Node000001_Node000005" class="edge">
<title>Node1&#45;&gt;Node5</title>
<g id="a_edge4_Node000001_Node000005"><a xlink:title=" ">
<path fill="none" stroke="#63b8ff" d="M345.8,-167.52C352.69,-158.42 360.02,-148.71 366.49,-140.16"/>
<polygon fill="#63b8ff" stroke="#63b8ff" points="342.89,-165.57 339.65,-175.66 348.47,-169.79 342.89,-165.57"/>
</a>
</g>
</g>
<!-- Node7 -->
<g id="Node000007" class="node">
<title>Node7</title>
<g id="a_Node000007"><a xlink:href="_backend_factory_8cc.html" target="_top" xlink:title=" ">
<polygon fill="white" stroke="#666666" points="647,-134.5 504,-134.5 504,-93.5 647,-93.5 647,-134.5"/>
<text text-anchor="start" x="512" y="-122.5" font-family="Helvetica,sans-Serif" font-size="10.00">/scratch/dragon/sources</text>
<text text-anchor="start" x="512" y="-111.5" font-family="Helvetica,sans-Serif" font-size="10.00">/ChimeraTK&#45;DeviceAccess</text>
<text text-anchor="middle" x="575.5" y="-100.5" font-family="Helvetica,sans-Serif" font-size="10.00">/src/BackendFactory.cc</text>
</a>
</g>
</g>
<!-- Node1&#45;&gt;Node7 -->
<g id="edge8_Node000001_Node000007" class="edge">
<title>Node1&#45;&gt;Node7</title>
<g id="a_edge8_Node000001_Node000007"><a xlink:title=" ">
<path fill="none" stroke="#63b8ff" d="M404.72,-172.6C441.72,-160.12 484.23,-145.78 517.59,-134.53"/>
<polygon fill="#63b8ff" stroke="#63b8ff" points="403.3,-169.38 394.94,-175.89 405.54,-176.01 403.3,-169.38"/>
</a>
</g>
</g>
<!-- Node2&#45;&gt;Node3 -->
<g id="edge2_Node000002_Node000003" class="edge">
<title>Node2&#45;&gt;Node3</title>
<g id="a_edge2_Node000002_Node000003"><a xlink:title=" ">
<path fill="none" stroke="#63b8ff" d="M187.19,-81.69C199.44,-72.02 212.78,-61.49 224.45,-52.29"/>
<polygon fill="#63b8ff" stroke="#63b8ff" points="185,-78.95 179.32,-87.89 189.34,-84.45 185,-78.95"/>
</a>
</g>
</g>
<!-- Node4 -->
<g id="Node000004" class="node">
<title>Node4</title>
<g id="a_Node000004"><a xlink:href="_subdevice_register_accessor_8cc.html" target="_top" xlink:title=" ">
<polygon fill="white" stroke="#666666" points="167,-52 0,-52 0,0 167,0 167,-52"/>
<text text-anchor="start" x="8" y="-40" font-family="Helvetica,sans-Serif" font-size="10.00">/scratch/dragon/sources</text>
<text text-anchor="start" x="8" y="-29" font-family="Helvetica,sans-Serif" font-size="10.00">/ChimeraTK&#45;DeviceAccess</text>
<text text-anchor="start" x="8" y="-18" font-family="Helvetica,sans-Serif" font-size="10.00">/backends/Subdevice/src</text>
<text text-anchor="middle" x="83.5" y="-7" font-family="Helvetica,sans-Serif" font-size="10.00">/SubdeviceRegisterAccessor.cc</text>
</a>
</g>
</g>
<!-- Node2&#45;&gt;Node4 -->
<g id="edge3_Node000002_Node000004" class="edge">
<title>Node2&#45;&gt;Node4</title>
<g id="a_edge3_Node000002_Node000004"><a xlink:title=" ">
<path fill="none" stroke="#63b8ff" d="M122.58,-79.52C115.81,-70.42 108.59,-60.71 102.22,-52.16"/>
<polygon fill="#63b8ff" stroke="#63b8ff" points="119.87,-81.73 128.64,-87.66 125.48,-77.55 119.87,-81.73"/>
</a>
</g>
</g>
<!-- Node5&#45;&gt;Node3 -->
<g id="edge5_Node000005_Node000003" class="edge">
<title>Node5&#45;&gt;Node3</title>
<g id="a_edge5_Node000005_Node000003"><a xlink:title=" ">
<path fill="none" stroke="#63b8ff" d="M339.36,-82.24C324.63,-72.42 308.51,-61.67 294.43,-52.29"/>
<polygon fill="#63b8ff" stroke="#63b8ff" points="337.58,-85.26 347.84,-87.89 341.46,-79.43 337.58,-85.26"/>
</a>
</g>
</g>
<!-- Node6 -->
<g id="Node000006" class="node">
<title>Node6</title>
<g id="a_Node000006"><a xlink:href="_subdevice_register_window_accessor_8cc.html" target="_top" xlink:title=" ">
<polygon fill="white" stroke="#666666" points="552.5,-52 346.5,-52 346.5,0 552.5,0 552.5,-52"/>
<text text-anchor="start" x="354.5" y="-40" font-family="Helvetica,sans-Serif" font-size="10.00">/scratch/dragon/sources</text>
<text text-anchor="start" x="354.5" y="-29" font-family="Helvetica,sans-Serif" font-size="10.00">/ChimeraTK&#45;DeviceAccess</text>
<text text-anchor="start" x="354.5" y="-18" font-family="Helvetica,sans-Serif" font-size="10.00">/backends/Subdevice/src</text>
<text text-anchor="middle" x="449.5" y="-7" font-family="Helvetica,sans-Serif" font-size="10.00">/SubdeviceRegisterWindowAccessor.cc</text>
</a>
</g>
</g>
<!-- Node5&#45;&gt;Node6 -->
<g id="edge6_Node000005_Node000006" class="edge">
<title>Node5&#45;&gt;Node6</title>
<g id="a_edge6_Node000005_Node000006"><a xlink:title=" ">
<path fill="none" stroke="#63b8ff" d="M410.42,-79.52C417.19,-70.42 424.41,-60.71 430.78,-52.16"/>
<polygon fill="#63b8ff" stroke="#63b8ff" points="407.52,-77.55 404.36,-87.66 413.13,-81.73 407.52,-77.55"/>
</a>
</g>
</g>
</g>
</svg>
