<?xml version="1.0" encoding="UTF-8" standalone="no"?>
<!DOCTYPE svg PUBLIC "-//W3C//DTD SVG 1.1//EN"
 "http://www.w3.org/Graphics/SVG/1.1/DTD/svg11.dtd">
<!-- Generated by graphviz version 2.43.0 (0)
 -->
<!-- Title: ChimeraTK::LogicalNameMappingBackend Pages: 1 -->
<svg width="190pt" height="269pt"
 viewBox="0.00 0.00 190.00 269.00" xmlns="http://www.w3.org/2000/svg" xmlns:xlink="http://www.w3.org/1999/xlink">

<svg id="main" version="1.1" xmlns="http://www.w3.org/2000/svg" xmlns:xlink="http://www.w3.org/1999/xlink" xml:space="preserve" onload="init(evt)">
<style type="text/css"><![CDATA[
.node, .edge {opacity: 0.7;}
.node.selected, .edge.selected {opacity: 1;}
.edge:hover path { stroke: red; }
.edge:hover polygon { stroke: red; fill: red; }
]]></style>
<script type="application/ecmascript" xlink:href="svg.min.js"/>
<svg id="graph" class="graph">
<g id="graph0" class="graph" transform="scale(1 1) rotate(0) translate(4 265)">
<title>ChimeraTK::LogicalNameMappingBackend</title>
<!-- Node1 -->
<g id="Node000001" class="node">
<title>Node1</title>
<g id="a_Node000001"><a xlink:title="Backend to map logical register names onto real hardware registers.">
<polygon fill="#999999" stroke="#666666" points="182,-85 0,-85 0,-55 182,-55 182,-85"/>
<text text-anchor="start" x="8" y="-73" font-family="Helvetica,sans-Serif" font-size="10.00">ChimeraTK::LogicalNameMapping</text>
<text text-anchor="middle" x="91" y="-62" font-family="Helvetica,sans-Serif" font-size="10.00">Backend</text>
</a>
</g>
</g>
<!-- Node5 -->
<g id="Node000005" class="node">
<title>Node5</title>
<g id="a_Node000005"><a xlink:href="struct_dummy_for_cleanup_check.html" target="_top" xlink:title=" ">
<polygon fill="white" stroke="#666666" points="161,-19 21,-19 21,0 161,0 161,-19"/>
<text text-anchor="middle" x="91" y="-7" font-family="Helvetica,sans-Serif" font-size="10.00">DummyForCleanupCheck</text>
</a>
</g>
</g>
<!-- Node1&#45;&gt;Node5 -->
<g id="edge4_Node000001_Node000005" class="edge">
<title>Node1&#45;&gt;Node5</title>
<g id="a_edge4_Node000001_Node000005"><a xlink:title=" ">
<path fill="none" stroke="#63b8ff" d="M91,-44.75C91,-35.72 91,-26.03 91,-19.27"/>
<polygon fill="#63b8ff" stroke="#63b8ff" points="87.5,-44.84 91,-54.84 94.5,-44.84 87.5,-44.84"/>
</a>
</g>
</g>
<!-- Node2 -->
<g id="Node000002" class="node">
<title>Node2</title>
<g id="a_Node000002"><a xlink:href="class_chimera_t_k_1_1_device_backend_impl.html" target="_top" xlink:title="DeviceBackendImpl implements some basic functionality which should be available for all backends.">
<polygon fill="white" stroke="#666666" points="177.5,-140 4.5,-140 4.5,-121 177.5,-121 177.5,-140"/>
<text text-anchor="middle" x="91" y="-128" font-family="Helvetica,sans-Serif" font-size="10.00">ChimeraTK::DeviceBackendImpl</text>
</a>
</g>
</g>
<!-- Node2&#45;&gt;Node1 -->
<g id="edge1_Node000001_Node000002" class="edge">
<title>Node2&#45;&gt;Node1</title>
<g id="a_edge1_Node000001_Node000002"><a xlink:title=" ">
<path fill="none" stroke="#63b8ff" d="M91,-110.65C91,-102.36 91,-92.78 91,-85.11"/>
<polygon fill="#63b8ff" stroke="#63b8ff" points="87.5,-110.87 91,-120.87 94.5,-110.87 87.5,-110.87"/>
</a>
</g>
</g>
<!-- Node3 -->
<g id="Node000003" class="node">
<title>Node3</title>
<g id="a_Node000003"><a xlink:href="class_chimera_t_k_1_1_device_backend.html" target="_top" xlink:title="The base class for backends providing IO functionality for the Device class.">
<polygon fill="white" stroke="#666666" points="167,-195 15,-195 15,-176 167,-176 167,-195"/>
<text text-anchor="middle" x="91" y="-183" font-family="Helvetica,sans-Serif" font-size="10.00">ChimeraTK::DeviceBackend</text>
</a>
</g>
</g>
<!-- Node3&#45;&gt;Node2 -->
<g id="edge2_Node000002_Node000003" class="edge">
<title>Node3&#45;&gt;Node2</title>
<g id="a_edge2_Node000002_Node000003"><a xlink:title=" ">
<path fill="none" stroke="#63b8ff" d="M91,-165.66C91,-156.93 91,-146.99 91,-140.09"/>
<polygon fill="#63b8ff" stroke="#63b8ff" points="87.5,-165.75 91,-175.75 94.5,-165.75 87.5,-165.75"/>
</a>
</g>
</g>
<!-- Node4 -->
<g id="Node000004" class="node">
<title>Node4</title>
<g id="a_Node000004"><a xlink:title=" ">
<polygon fill="white" stroke="#666666" points="174,-261 8,-261 8,-231 174,-231 174,-261"/>
<text text-anchor="start" x="16" y="-249" font-family="Helvetica,sans-Serif" font-size="10.00">boost::enable_shared</text>
<text text-anchor="middle" x="91" y="-238" font-family="Helvetica,sans-Serif" font-size="10.00">_from_this&lt; DeviceBackend &gt;</text>
</a>
</g>
</g>
<!-- Node4&#45;&gt;Node3 -->
<g id="edge3_Node000003_Node000004" class="edge">
<title>Node4&#45;&gt;Node3</title>
<g id="a_edge3_Node000003_Node000004"><a xlink:title=" ">
<path fill="none" stroke="#63b8ff" d="M91,-220.75C91,-211.72 91,-202.03 91,-195.27"/>
<polygon fill="#63b8ff" stroke="#63b8ff" points="87.5,-220.84 91,-230.84 94.5,-220.84 87.5,-220.84"/>
</a>
</g>
</g>
</g>
</svg>
</svg>

<style type='text/css'>
<![CDATA[
[data-mouse-over-selected='false'] { opacity: 0.7; }
[data-mouse-over-selected='true']  { opacity: 1.0; }
]]>
</style>
<script type="application/ecmascript"><![CDATA[
document.addEventListener('DOMContentLoaded', (event) => {
  highlightEdges();
  highlightAdjacentNodes();
});
]]></script>
</svg>
