<?xml version="1.0" encoding="UTF-8" standalone="no"?>
<!DOCTYPE svg PUBLIC "-//W3C//DTD SVG 1.1//EN"
 "http://www.w3.org/Graphics/SVG/1.1/DTD/svg11.dtd">
<!-- Generated by graphviz version 2.43.0 (0)
 -->
<!-- Title: ChimeraTK::LNMBackend::MathPlugin Pages: 1 -->
<!--zoomable 526 -->

<svg id="main" version="1.1" xmlns="http://www.w3.org/2000/svg" xmlns:xlink="http://www.w3.org/1999/xlink" xml:space="preserve" onload="init(evt)">
<style type="text/css"><![CDATA[
.node, .edge {opacity: 0.7;}
.node.selected, .edge.selected {opacity: 1;}
.edge:hover path { stroke: red; }
.edge:hover polygon { stroke: red; fill: red; }
]]></style>

<defs>
  <circle id="rim" cx="0" cy="0" r="7"/>
  <circle id="rim2" cx="0" cy="0" r="3.5"/>
  <g id="zoomPlus">
    <use xlink:href="#rim" fill="#404040"><set attributeName="fill" to="#808080" begin="zoomplus.mouseover" end="zoomplus.mouseout"/></use>
    <path d="M-4,0h8M0,-4v8" fill="none" stroke="white" stroke-width="1.5" pointer-events="none"/>
  </g>
  <g id="zoomMin">
    <use xlink:href="#rim" fill="#404040"><set attributeName="fill" to="#808080" begin="zoomminus.mouseover" end="zoomminus.mouseout"/></use>
    <path d="M-4,0h8" fill="none" stroke="white" stroke-width="1.5" pointer-events="none"/>
  </g>
  <g id="arrowUp" transform="translate(30 24)">
    <use xlink:href="#rim"/>
    <path pointer-events="none" fill="none" stroke="white" stroke-width="1.5" d="M0,-3.0v7 M-2.5,-0.5L0,-3.0L2.5,-0.5"/>
  </g>
  <g id="arrowRight" transform="rotate(90) translate(36 -43)">
    <use xlink:href="#rim"/>
    <path pointer-events="none" fill="none" stroke="white" stroke-width="1.5" d="M0,-3.0v7 M-2.5,-0.5L0,-3.0L2.5,-0.5"/>
  </g>
  <g id="arrowDown" transform="rotate(180) translate(-30 -48)">
    <use xlink:href="#rim"/>
    <path pointer-events="none" fill="none" stroke="white" stroke-width="1.5" d="M0,-3.0v7 M-2.5,-0.5L0,-3.0L2.5,-0.5"/>
  </g>
  <g id="arrowLeft" transform="rotate(270) translate(-36 17)">
    <use xlink:href="#rim"/>
    <path pointer-events="none" fill="none" stroke="white" stroke-width="1.5" d="M0,-3.0v7 M-2.5,-0.5L0,-3.0L2.5,-0.5"/>
  </g>
  <g id="resetDef">
    <use xlink:href="#rim2" fill="#404040"><set attributeName="fill" to="#808080" begin="reset.mouseover" end="reset.mouseout"/></use>
  </g>
</defs>
<script type="application/ecmascript">
var viewWidth = 2045;
var viewHeight = 526;
var sectionId = 'dynsection-1';
</script>
<script type="application/ecmascript" xlink:href="svg.min.js"/>
<svg id="graph" class="graph">
<g id="viewport">
<title>ChimeraTK::LNMBackend::MathPlugin</title>
<!-- Node1 -->
<g id="Node000001" class="node">
<title>Node1</title>
<g id="a_Node000001"><a xlink:title="Math Plugin: Apply mathematical formula to register&#39;s data.">
<polygon fill="#999999" stroke="#666666" points="2037,-279.3 1897,-279.3 1897,-249.3 2037,-249.3 2037,-279.3"/>
<text text-anchor="start" x="1905" y="-267.3" font-family="Helvetica,sans-Serif" font-size="10.00">ChimeraTK::LNMBackend</text>
<text text-anchor="middle" x="1967" y="-256.3" font-family="Helvetica,sans-Serif" font-size="10.00">::MathPlugin</text>
</a>
</g>
</g>
<!-- Node2 -->
<g id="Node000002" class="node">
<title>Node2</title>
<g id="a_Node000002"><a xlink:href="class_chimera_t_k_1_1_l_n_m_backend_1_1_accessor_plugin.html" target="_top" xlink:title=" ">
<polygon fill="white" stroke="#666666" points="1797,-279.3 1624,-279.3 1624,-249.3 1797,-249.3 1797,-279.3"/>
<text text-anchor="start" x="1632" y="-267.3" font-family="Helvetica,sans-Serif" font-size="10.00">ChimeraTK::LNMBackend</text>
<text text-anchor="middle" x="1710.5" y="-256.3" font-family="Helvetica,sans-Serif" font-size="10.00">::AccessorPlugin&lt; MathPlugin &gt;</text>
</a>
</g>
</g>
<!-- Node2&#45;&gt;Node1 -->
<g id="edge1_Node000001_Node000002" class="edge">
<title>Node2&#45;&gt;Node1</title>
<g id="a_edge1_Node000001_Node000002"><a xlink:title=" ">
<path fill="none" stroke="#63b8ff" d="M1807.66,-264.3C1837.23,-264.3 1869.19,-264.3 1896.6,-264.3"/>
<polygon fill="#63b8ff" stroke="#63b8ff" points="1807.31,-260.8 1797.31,-264.3 1807.31,-267.8 1807.31,-260.8"/>
</a>
</g>
</g>
<!-- Node3 -->
<g id="Node000003" class="node">
<title>Node3</title>
<g id="a_Node000003"><a xlink:href="class_chimera_t_k_1_1_l_n_m_backend_1_1_accessor_plugin_base.html" target="_top" xlink:title="Base class for AccessorPlugins used by the LogicalNameMapping backend to store backends in lists.">
<polygon fill="white" stroke="#666666" points="1236,-276.3 1096,-276.3 1096,-246.3 1236,-246.3 1236,-276.3"/>
<text text-anchor="start" x="1104" y="-264.3" font-family="Helvetica,sans-Serif" font-size="10.00">ChimeraTK::LNMBackend</text>
<text text-anchor="middle" x="1166" y="-253.3" font-family="Helvetica,sans-Serif" font-size="10.00">::AccessorPluginBase</text>
</a>
</g>
</g>
<!-- Node3&#45;&gt;Node2 -->
<g id="edge2_Node000002_Node000003" class="edge">
<title>Node3&#45;&gt;Node2</title>
<g id="a_edge2_Node000002_Node000003"><a xlink:title=" ">
<path fill="none" stroke="#63b8ff" d="M1246.37,-261.74C1347.06,-262.29 1520.03,-263.25 1623.69,-263.82"/>
<polygon fill="#63b8ff" stroke="#63b8ff" points="1246.28,-258.23 1236.26,-261.68 1246.24,-265.23 1246.28,-258.23"/>
</a>
</g>
</g>
<!-- Node18 -->
<g id="Node000018" class="node">
<title>Node18</title>
<g id="a_Node000018"><a xlink:href="class_chimera_t_k_1_1_l_n_m_backend_1_1_accessor_plugin.html" target="_top" xlink:title="Base class for plugins that modify the behaviour of accessors in the logical name mapping backend.">
<polygon fill="white" stroke="#666666" points="1507,-306.3 1350,-306.3 1350,-276.3 1507,-276.3 1507,-306.3"/>
<text text-anchor="start" x="1358" y="-294.3" font-family="Helvetica,sans-Serif" font-size="10.00">ChimeraTK::LNMBackend</text>
<text text-anchor="middle" x="1428.5" y="-283.3" font-family="Helvetica,sans-Serif" font-size="10.00">::AccessorPlugin&lt; Derived &gt;</text>
</a>
</g>
</g>
<!-- Node3&#45;&gt;Node18 -->
<g id="edge20_Node000018_Node000003" class="edge">
<title>Node3&#45;&gt;Node18</title>
<g id="a_edge20_Node000018_Node000003"><a xlink:title=" ">
<path fill="none" stroke="#63b8ff" d="M1246.15,-270.41C1279.02,-274.2 1317.05,-278.58 1349.77,-282.34"/>
<polygon fill="#63b8ff" stroke="#63b8ff" points="1246.46,-266.92 1236.13,-269.26 1245.66,-273.88 1246.46,-266.92"/>
</a>
</g>
</g>
<!-- Node4 -->
<g id="Node000004" class="node">
<title>Node4</title>
<g id="a_Node000004"><a xlink:href="class_chimera_t_k_1_1_l_n_m_backend_register_info.html" target="_top" xlink:title="RegisterInfo structure for the LogicalNameMappingBackend.">
<polygon fill="white" stroke="#666666" points="1032,-270.8 833,-270.8 833,-251.8 1032,-251.8 1032,-270.8"/>
<text text-anchor="middle" x="932.5" y="-258.8" font-family="Helvetica,sans-Serif" font-size="10.00">ChimeraTK::LNMBackendRegisterInfo</text>
</a>
</g>
</g>
<!-- Node4&#45;&gt;Node3 -->
<g id="edge3_Node000003_Node000004" class="edge">
<title>Node4&#45;&gt;Node3</title>
<g id="a_edge3_Node000003_Node000004"><a xlink:title=" ">
<path fill="none" stroke="#9a32cd" stroke-dasharray="5,2" d="M1042.16,-261.3C1060.48,-261.3 1079.04,-261.3 1095.99,-261.3"/>
<polygon fill="#9a32cd" stroke="#9a32cd" points="1042.01,-257.8 1032.01,-261.3 1042.01,-264.8 1042.01,-257.8"/>
</a>
</g>
<text text-anchor="middle" x="1064" y="-264.3" font-family="Helvetica,sans-Serif" font-size="10.00" fill="grey"> _info</text>
</g>
<!-- Node5 -->
<g id="Node000005" class="node">
<title>Node5</title>
<g id="a_Node000005"><a xlink:href="class_chimera_t_k_1_1_backend_register_info_base.html" target="_top" xlink:title="DeviceBackend&#45;independent register description.">
<polygon fill="white" stroke="#666666" points="646,-374.3 488,-374.3 488,-344.3 646,-344.3 646,-374.3"/>
<text text-anchor="start" x="496" y="-362.3" font-family="Helvetica,sans-Serif" font-size="10.00">ChimeraTK::BackendRegister</text>
<text text-anchor="middle" x="567" y="-351.3" font-family="Helvetica,sans-Serif" font-size="10.00">InfoBase</text>
</a>
</g>
</g>
<!-- Node5&#45;&gt;Node4 -->
<g id="edge4_Node000004_Node000005" class="edge">
<title>Node5&#45;&gt;Node4</title>
<g id="a_edge4_Node000004_Node000005"><a xlink:title=" ">
<path fill="none" stroke="#63b8ff" d="M656.15,-350.97C703.95,-344.89 763.59,-334.75 815,-318.3 852.74,-306.22 893.65,-283.8 915.54,-270.98"/>
<polygon fill="#63b8ff" stroke="#63b8ff" points="655.63,-347.5 646.13,-352.2 656.49,-354.45 655.63,-347.5"/>
</a>
</g>
</g>
<!-- Node6 -->
<g id="Node000006" class="node">
<title>Node6</title>
<g id="a_Node000006"><a xlink:href="class_chimera_t_k_1_1_register_path.html" target="_top" xlink:title="Class to store a register path name.">
<polygon fill="white" stroke="#666666" points="636,-96.8 498,-96.8 498,-77.8 636,-77.8 636,-96.8"/>
<text text-anchor="middle" x="567" y="-84.8" font-family="Helvetica,sans-Serif" font-size="10.00">ChimeraTK::RegisterPath</text>
</a>
</g>
</g>
<!-- Node6&#45;&gt;Node4 -->
<g id="edge5_Node000004_Node000006" class="edge">
<title>Node6&#45;&gt;Node4</title>
<g id="a_edge5_Node000004_Node000006"><a xlink:title=" ">
<path fill="none" stroke="#9a32cd" stroke-dasharray="5,2" d="M646.19,-78.23C697.26,-75.95 763.73,-80.12 815,-108.3 876.45,-142.06 915.48,-223.38 927.52,-251.52"/>
<polygon fill="#9a32cd" stroke="#9a32cd" points="645.99,-74.74 636.19,-78.77 646.37,-81.73 645.99,-74.74"/>
</a>
</g>
<text text-anchor="middle" x="753" y="-111.3" font-family="Helvetica,sans-Serif" font-size="10.00" fill="grey"> name</text>
</g>
<!-- Node7 -->
<g id="Node000007" class="node">
<title>Node7</title>
<g id="a_Node000007"><a xlink:title=" ">
<polygon fill="white" stroke="#666666" points="272,-142.8 207,-142.8 207,-123.8 272,-123.8 272,-142.8"/>
<text text-anchor="middle" x="239.5" y="-130.8" font-family="Helvetica,sans-Serif" font-size="10.00">std::string</text>
</a>
</g>
</g>
<!-- Node7&#45;&gt;Node1 -->
<g id="edge26_Node000001_Node000007" class="edge">
<title>Node7&#45;&gt;Node1</title>
<g id="a_edge26_Node000001_Node000007"><a xlink:title=" ">
<path fill="none" stroke="#9a32cd" stroke-dasharray="5,2" d="M255.9,-115.9C268.52,-102.9 287.56,-85.95 308,-77.3 414.22,-32.35 450.66,-49.3 566,-49.3 566,-49.3 566,-49.3 1711.5,-49.3 1835.57,-49.3 1930.4,-200.24 1957.89,-249.18"/>
<polygon fill="#9a32cd" stroke="#9a32cd" points="253.19,-113.67 248.93,-123.37 258.31,-118.45 253.19,-113.67"/>
</a>
</g>
<text text-anchor="middle" x="1166" y="-52.3" font-family="Helvetica,sans-Serif" font-size="10.00" fill="grey"> _formula</text>
</g>
<!-- Node7&#45;&gt;Node4 -->
<g id="edge8_Node000004_Node000007" class="edge">
<title>Node7&#45;&gt;Node4</title>
<g id="a_edge8_Node000004_Node000007"><a xlink:title=" ">
<path fill="none" stroke="#9a32cd" stroke-dasharray="5,2" d="M282.63,-128.72C360.79,-121.46 533,-111.15 673,-143.3 771.33,-165.87 877.52,-227.68 916.26,-251.63"/>
<polygon fill="#9a32cd" stroke="#9a32cd" points="281.86,-125.28 272.24,-129.72 282.53,-132.25 281.86,-125.28"/>
</a>
</g>
<text text-anchor="middle" x="567" y="-179.3" font-family="Helvetica,sans-Serif" font-size="10.00" fill="grey"> description</text>
<text text-anchor="middle" x="567" y="-168.3" font-family="Helvetica,sans-Serif" font-size="10.00" fill="grey">deviceName</text>
<text text-anchor="middle" x="567" y="-157.3" font-family="Helvetica,sans-Serif" font-size="10.00" fill="grey">engineeringUnit</text>
<text text-anchor="middle" x="567" y="-146.3" font-family="Helvetica,sans-Serif" font-size="10.00" fill="grey">registerName</text>
</g>
<!-- Node7&#45;&gt;Node6 -->
<g id="edge6_Node000006_Node000007" class="edge">
<title>Node7&#45;&gt;Node6</title>
<g id="a_edge6_Node000006_Node000007"><a xlink:title=" ">
<path fill="none" stroke="#9a32cd" stroke-dasharray="5,2" d="M262.44,-118.32C275.15,-110.5 291.8,-101.68 308,-97.3 370.74,-80.31 445.18,-79.36 497.93,-81.73"/>
<polygon fill="#9a32cd" stroke="#9a32cd" points="260.49,-115.42 253.95,-123.75 264.26,-121.31 260.49,-115.42"/>
</a>
</g>
<text text-anchor="middle" x="375.5" y="-111.3" font-family="Helvetica,sans-Serif" font-size="10.00" fill="grey"> path</text>
<text text-anchor="middle" x="375.5" y="-100.3" font-family="Helvetica,sans-Serif" font-size="10.00" fill="grey">separator_alt</text>
</g>
<!-- Node15 -->
<g id="Node000015" class="node">
<title>Node15</title>
<g id="a_Node000015"><a xlink:title=" ">
<polygon fill="white" stroke="#666666" points="629,-251.8 505,-251.8 505,-232.8 629,-232.8 629,-251.8"/>
<text text-anchor="middle" x="567" y="-239.8" font-family="Helvetica,sans-Serif" font-size="10.00">std::set&lt; std::string &gt;</text>
</a>
</g>
</g>
<!-- Node7&#45;&gt;Node15 -->
<g id="edge16_Node000015_Node000007" class="edge">
<title>Node7&#45;&gt;Node15</title>
<g id="a_edge16_Node000015_Node000007"><a xlink:title=" ">
<path fill="none" stroke="#9a32cd" stroke-dasharray="5,2" d="M268.6,-147.27C309.81,-167.21 389.53,-203.7 461,-224.3 475.04,-228.34 490.41,-231.61 504.96,-234.18"/>
<polygon fill="#9a32cd" stroke="#9a32cd" points="269.97,-144.05 259.45,-142.81 266.9,-150.34 269.97,-144.05"/>
</a>
</g>
<text text-anchor="middle" x="375.5" y="-221.3" font-family="Helvetica,sans-Serif" font-size="10.00" fill="grey"> keys</text>
</g>
<!-- Node19 -->
<g id="Node000019" class="node">
<title>Node19</title>
<g id="a_Node000019"><a xlink:title=" ">
<polygon fill="white" stroke="#666666" points="628,-422.3 506,-422.3 506,-392.3 628,-392.3 628,-422.3"/>
<text text-anchor="start" x="514" y="-410.3" font-family="Helvetica,sans-Serif" font-size="10.00">std::map&lt; std::string,</text>
<text text-anchor="middle" x="567" y="-399.3" font-family="Helvetica,sans-Serif" font-size="10.00"> std::string &gt;</text>
</a>
</g>
</g>
<!-- Node7&#45;&gt;Node19 -->
<g id="edge22_Node000019_Node000007" class="edge">
<title>Node7&#45;&gt;Node19</title>
<g id="a_edge22_Node000019_Node000007"><a xlink:title=" ">
<path fill="none" stroke="#9a32cd" stroke-dasharray="5,2" d="M244.64,-153C252.29,-185.34 271.3,-250.27 308,-292.3 360.04,-351.89 387.54,-353.9 461,-383.3 475.15,-388.96 490.93,-393.45 505.87,-396.94"/>
<polygon fill="#9a32cd" stroke="#9a32cd" points="248.01,-152.01 242.4,-143.01 241.18,-153.54 248.01,-152.01"/>
</a>
</g>
<text text-anchor="middle" x="375.5" y="-388.3" font-family="Helvetica,sans-Serif" font-size="10.00" fill="grey"> elements</text>
<text text-anchor="middle" x="375.5" y="-377.3" font-family="Helvetica,sans-Serif" font-size="10.00" fill="grey">keys</text>
</g>
<!-- Node8 -->
<g id="Node000008" class="node">
<title>Node8</title>
<g id="a_Node000008"><a xlink:title=" ">
<polygon fill="white" stroke="#666666" points="104,-148.3 0,-148.3 0,-118.3 104,-118.3 104,-148.3"/>
<text text-anchor="start" x="8" y="-136.3" font-family="Helvetica,sans-Serif" font-size="10.00">std::basic_string&lt;</text>
<text text-anchor="middle" x="52" y="-125.3" font-family="Helvetica,sans-Serif" font-size="10.00"> Char &gt;</text>
</a>
</g>
</g>
<!-- Node8&#45;&gt;Node7 -->
<g id="edge7_Node000007_Node000008" class="edge">
<title>Node8&#45;&gt;Node7</title>
<g id="a_edge7_Node000007_Node000008"><a xlink:title=" ">
<path fill="none" stroke="#63b8ff" d="M114.46,-133.3C145.44,-133.3 181.69,-133.3 206.98,-133.3"/>
<polygon fill="#63b8ff" stroke="#63b8ff" points="114.18,-129.8 104.18,-133.3 114.18,-136.8 114.18,-129.8"/>
</a>
</g>
</g>
<!-- Node9 -->
<g id="Node000009" class="node">
<title>Node9</title>
<g id="a_Node000009"><a xlink:href="class_chimera_t_k_1_1_data_type.html" target="_top" xlink:title="A class to describe which of the supported data types is used.">
<polygon fill="white" stroke="#666666" points="628,-325.8 506,-325.8 506,-306.8 628,-306.8 628,-325.8"/>
<text text-anchor="middle" x="567" y="-313.8" font-family="Helvetica,sans-Serif" font-size="10.00">ChimeraTK::DataType</text>
</a>
</g>
</g>
<!-- Node9&#45;&gt;Node4 -->
<g id="edge9_Node000004_Node000009" class="edge">
<title>Node9&#45;&gt;Node4</title>
<g id="a_edge9_Node000004_Node000009"><a xlink:title=" ">
<path fill="none" stroke="#9a32cd" stroke-dasharray="5,2" d="M638.12,-310C687.71,-305.07 755.66,-297.37 815,-287.3 841.36,-282.82 870.73,-276.25 893.39,-270.84"/>
<polygon fill="#9a32cd" stroke="#9a32cd" points="637.75,-306.52 628.14,-310.98 638.43,-313.49 637.75,-306.52"/>
</a>
</g>
<text text-anchor="middle" x="753" y="-306.3" font-family="Helvetica,sans-Serif" font-size="10.00" fill="grey"> valueType</text>
</g>
<!-- Node10 -->
<g id="Node000010" class="node">
<title>Node10</title>
<g id="a_Node000010"><a xlink:href="class_chimera_t_k_1_1_access_mode_flags.html" target="_top" xlink:title="Set of AccessMode flags with additional functionality for an easier handling.">
<polygon fill="white" stroke="#666666" points="649,-288.8 485,-288.8 485,-269.8 649,-269.8 649,-288.8"/>
<text text-anchor="middle" x="567" y="-276.8" font-family="Helvetica,sans-Serif" font-size="10.00">ChimeraTK::AccessModeFlags</text>
</a>
</g>
</g>
<!-- Node10&#45;&gt;Node4 -->
<g id="edge10_Node000004_Node000010" class="edge">
<title>Node10&#45;&gt;Node4</title>
<g id="a_edge10_Node000004_Node000010"><a xlink:title=" ">
<path fill="none" stroke="#9a32cd" stroke-dasharray="5,2" d="M659.17,-274.78C712.06,-272.16 778.71,-268.86 832.83,-266.18"/>
<polygon fill="#9a32cd" stroke="#9a32cd" points="658.94,-271.29 649.12,-275.28 659.28,-278.28 658.94,-271.29"/>
</a>
</g>
<text text-anchor="middle" x="753" y="-275.3" font-family="Helvetica,sans-Serif" font-size="10.00" fill="grey"> supportedFlags</text>
</g>
<!-- Node11 -->
<g id="Node000011" class="node">
<title>Node11</title>
<g id="a_Node000011"><a xlink:title=" ">
<polygon fill="white" stroke="#666666" points="673,-481.8 461,-481.8 461,-440.8 673,-440.8 673,-481.8"/>
<text text-anchor="start" x="469" y="-469.8" font-family="Helvetica,sans-Serif" font-size="10.00">std::vector&lt; boost</text>
<text text-anchor="start" x="469" y="-458.8" font-family="Helvetica,sans-Serif" font-size="10.00">::shared_ptr&lt; ChimeraTK</text>
<text text-anchor="middle" x="567" y="-447.8" font-family="Helvetica,sans-Serif" font-size="10.00">::LNMBackend::AccessorPluginBase &gt; &gt;</text>
</a>
</g>
</g>
<!-- Node11&#45;&gt;Node4 -->
<g id="edge11_Node000004_Node000011" class="edge">
<title>Node11&#45;&gt;Node4</title>
<g id="a_edge11_Node000004_Node000011"><a xlink:title=" ">
<path fill="none" stroke="#9a32cd" stroke-dasharray="5,2" d="M658.25,-437.23C663.29,-435.35 668.24,-433.38 673,-431.3 777.12,-385.86 885.64,-299.47 920.22,-270.8"/>
<polygon fill="#9a32cd" stroke="#9a32cd" points="656.72,-434.06 648.47,-440.7 659.07,-440.65 656.72,-434.06"/>
</a>
</g>
<text text-anchor="middle" x="753" y="-423.3" font-family="Helvetica,sans-Serif" font-size="10.00" fill="grey"> plugins</text>
</g>
<!-- Node12 -->
<g id="Node000012" class="node">
<title>Node12</title>
<g id="a_Node000012"><a xlink:title=" ">
<polygon fill="white" stroke="#666666" points="288,-463.8 191,-463.8 191,-444.8 288,-444.8 288,-463.8"/>
<text text-anchor="middle" x="239.5" y="-451.8" font-family="Helvetica,sans-Serif" font-size="10.00">std::vector&lt; T &gt;</text>
</a>
</g>
</g>
<!-- Node12&#45;&gt;Node11 -->
<g id="edge12_Node000011_Node000012" class="edge">
<title>Node12&#45;&gt;Node11</title>
<g id="a_edge12_Node000011_Node000012"><a xlink:title=" ">
<path fill="none" stroke="orange" stroke-dasharray="5,2" d="M298.6,-453.91C339.09,-453.8 394.34,-453.99 443,-455.3 448.77,-455.45 454.69,-455.64 460.67,-455.85"/>
<polygon fill="orange" stroke="orange" points="298.37,-450.41 288.38,-453.94 298.39,-457.41 298.37,-450.41"/>
</a>
</g>
<text text-anchor="start" x="308" y="-480.3" font-family="Helvetica,sans-Serif" font-size="10.00" fill="grey"> &lt; boost::shared_ptr</text>
<text text-anchor="start" x="308" y="-469.3" font-family="Helvetica,sans-Serif" font-size="10.00" fill="grey">&lt; ChimeraTK::LNMBackend</text>
<text text-anchor="middle" x="375.5" y="-458.3" font-family="Helvetica,sans-Serif" font-size="10.00" fill="grey">::AccessorPluginBase &gt; &gt;</text>
</g>
<!-- Node22 -->
<g id="Node000022" class="node">
<title>Node22</title>
<g id="a_Node000022"><a xlink:title=" ">
<polygon fill="white" stroke="#666666" points="815,-499.8 691,-499.8 691,-480.8 815,-480.8 815,-499.8"/>
<text text-anchor="middle" x="753" y="-487.8" font-family="Helvetica,sans-Serif" font-size="10.00">std::vector&lt; double &gt;</text>
</a>
</g>
</g>
<!-- Node12&#45;&gt;Node22 -->
<g id="edge29_Node000022_Node000012" class="edge">
<title>Node12&#45;&gt;Node22</title>
<g id="a_edge29_Node000022_Node000012"><a xlink:title=" ">
<path fill="none" stroke="orange" stroke-dasharray="5,2" d="M263.63,-469.2C276.21,-476.45 292.37,-484.42 308,-488.3 441.36,-521.37 604.27,-509.36 690.92,-499.01"/>
<polygon fill="orange" stroke="orange" points="265.14,-466.02 254.77,-463.87 261.54,-472.02 265.14,-466.02"/>
</a>
</g>
<text text-anchor="middle" x="375.5" y="-510.3" font-family="Helvetica,sans-Serif" font-size="10.00" fill="grey"> &lt; double &gt;</text>
</g>
<!-- Node13 -->
<g id="Node000013" class="node">
<title>Node13</title>
<g id="a_Node000013"><a xlink:title=" ">
<polygon fill="white" stroke="#666666" points="66.5,-439.8 37.5,-439.8 37.5,-420.8 66.5,-420.8 66.5,-439.8"/>
<text text-anchor="middle" x="52" y="-427.8" font-family="Helvetica,sans-Serif" font-size="10.00">T</text>
</a>
</g>
</g>
<!-- Node13&#45;&gt;Node12 -->
<g id="edge13_Node000012_Node000013" class="edge">
<title>Node13&#45;&gt;Node12</title>
<g id="a_edge13_Node000012_Node000013"><a xlink:title=" ">
<path fill="none" stroke="#9a32cd" stroke-dasharray="5,2" d="M76.91,-433.39C105.54,-437.09 154.21,-443.39 190.67,-448.11"/>
<polygon fill="#9a32cd" stroke="#9a32cd" points="77.01,-429.87 66.64,-432.06 76.11,-436.82 77.01,-429.87"/>
</a>
</g>
<text text-anchor="middle" x="146.5" y="-447.3" font-family="Helvetica,sans-Serif" font-size="10.00" fill="grey"> elements</text>
</g>
<!-- Node20 -->
<g id="Node000020" class="node">
<title>Node20</title>
<g id="a_Node000020"><a xlink:title=" ">
<polygon fill="white" stroke="#666666" points="290,-416.8 189,-416.8 189,-397.8 290,-397.8 290,-416.8"/>
<text text-anchor="middle" x="239.5" y="-404.8" font-family="Helvetica,sans-Serif" font-size="10.00">std::map&lt; K, T &gt;</text>
</a>
</g>
</g>
<!-- Node13&#45;&gt;Node20 -->
<g id="edge25_Node000020_Node000013" class="edge">
<title>Node13&#45;&gt;Node20</title>
<g id="a_edge25_Node000020_Node000013"><a xlink:title=" ">
<path fill="none" stroke="#9a32cd" stroke-dasharray="5,2" d="M76.88,-425.67C90.13,-423.22 106.94,-420.31 122,-418.3 143.85,-415.37 168.1,-412.95 188.8,-411.13"/>
<polygon fill="#9a32cd" stroke="#9a32cd" points="75.88,-422.3 66.7,-427.59 77.17,-429.18 75.88,-422.3"/>
</a>
</g>
<text text-anchor="middle" x="146.5" y="-421.3" font-family="Helvetica,sans-Serif" font-size="10.00" fill="grey"> elements</text>
</g>
<!-- Node14 -->
<g id="Node000014" class="node">
<title>Node14</title>
<g id="a_Node000014"><a xlink:href="class_chimera_t_k_1_1_data_descriptor.html" target="_top" xlink:title="Class describing the actual payload data format of a register in an abstract manner.">
<polygon fill="white" stroke="#666666" points="642,-214.8 492,-214.8 492,-195.8 642,-195.8 642,-214.8"/>
<text text-anchor="middle" x="567" y="-202.8" font-family="Helvetica,sans-Serif" font-size="10.00">ChimeraTK::DataDescriptor</text>
</a>
</g>
</g>
<!-- Node14&#45;&gt;Node4 -->
<g id="edge14_Node000004_Node000014" class="edge">
<title>Node14&#45;&gt;Node4</title>
<g id="a_edge14_Node000004_Node000014"><a xlink:title=" ">
<path fill="none" stroke="#9a32cd" stroke-dasharray="5,2" d="M652.23,-210.48C700.2,-214.27 761.26,-220.49 815,-230.3 844.65,-235.71 877.8,-244.84 901.14,-251.79"/>
<polygon fill="#9a32cd" stroke="#9a32cd" points="652.44,-206.99 642.2,-209.71 651.9,-213.97 652.44,-206.99"/>
</a>
</g>
<text text-anchor="middle" x="753" y="-233.3" font-family="Helvetica,sans-Serif" font-size="10.00" fill="grey"> _dataDescriptor</text>
</g>
<!-- Node15&#45;&gt;Node4 -->
<g id="edge15_Node000004_Node000015" class="edge">
<title>Node15&#45;&gt;Node4</title>
<g id="a_edge15_Node000004_Node000015"><a xlink:title=" ">
<path fill="none" stroke="#9a32cd" stroke-dasharray="5,2" d="M639.45,-243.97C688.8,-245.35 755.92,-247.69 815,-251.3 820.77,-251.65 826.71,-252.05 832.69,-252.48"/>
<polygon fill="#9a32cd" stroke="#9a32cd" points="639.29,-240.46 629.2,-243.69 639.1,-247.46 639.29,-240.46"/>
</a>
</g>
<text text-anchor="middle" x="753" y="-254.3" font-family="Helvetica,sans-Serif" font-size="10.00" fill="grey"> tags</text>
</g>
<!-- Node16 -->
<g id="Node000016" class="node">
<title>Node16</title>
<g id="a_Node000016"><a xlink:title=" ">
<polygon fill="white" stroke="#666666" points="280.5,-296.8 198.5,-296.8 198.5,-277.8 280.5,-277.8 280.5,-296.8"/>
<text text-anchor="middle" x="239.5" y="-284.8" font-family="Helvetica,sans-Serif" font-size="10.00">std::set&lt; K &gt;</text>
</a>
</g>
</g>
<!-- Node16&#45;&gt;Node15 -->
<g id="edge17_Node000015_Node000016" class="edge">
<title>Node16&#45;&gt;Node15</title>
<g id="a_edge17_Node000015_Node000016"><a xlink:title=" ">
<path fill="none" stroke="orange" stroke-dasharray="5,2" d="M290.71,-280.36C348.34,-272.39 442.86,-259.32 504.77,-250.76"/>
<polygon fill="orange" stroke="orange" points="290.17,-276.9 280.74,-281.73 291.12,-283.83 290.17,-276.9"/>
</a>
</g>
<text text-anchor="middle" x="375.5" y="-280.3" font-family="Helvetica,sans-Serif" font-size="10.00" fill="grey"> &lt; std::string &gt;</text>
</g>
<!-- Node17 -->
<g id="Node000017" class="node">
<title>Node17</title>
<g id="a_Node000017"><a xlink:title=" ">
<polygon fill="white" stroke="#666666" points="66.5,-338.8 37.5,-338.8 37.5,-319.8 66.5,-319.8 66.5,-338.8"/>
<text text-anchor="middle" x="52" y="-326.8" font-family="Helvetica,sans-Serif" font-size="10.00">K</text>
</a>
</g>
</g>
<!-- Node17&#45;&gt;Node16 -->
<g id="edge18_Node000016_Node000017" class="edge">
<title>Node17&#45;&gt;Node16</title>
<g id="a_edge18_Node000016_Node000017"><a xlink:title=" ">
<path fill="none" stroke="#9a32cd" stroke-dasharray="5,2" d="M76.54,-323.79C89.87,-320.68 106.86,-316.74 122,-313.3 147.36,-307.53 175.85,-301.16 198.31,-296.18"/>
<polygon fill="#9a32cd" stroke="#9a32cd" points="75.68,-320.39 66.74,-326.08 77.27,-327.21 75.68,-320.39"/>
</a>
</g>
<text text-anchor="middle" x="146.5" y="-316.3" font-family="Helvetica,sans-Serif" font-size="10.00" fill="grey"> keys</text>
</g>
<!-- Node17&#45;&gt;Node20 -->
<g id="edge24_Node000020_Node000017" class="edge">
<title>Node17&#45;&gt;Node20</title>
<g id="a_edge24_Node000020_Node000017"><a xlink:title=" ">
<path fill="none" stroke="#9a32cd" stroke-dasharray="5,2" d="M76.24,-339.07C112.07,-354.13 180.37,-382.85 215.85,-397.77"/>
<polygon fill="#9a32cd" stroke="#9a32cd" points="77.22,-335.68 66.64,-335.03 74.5,-342.13 77.22,-335.68"/>
</a>
</g>
<text text-anchor="middle" x="146.5" y="-380.3" font-family="Helvetica,sans-Serif" font-size="10.00" fill="grey"> keys</text>
</g>
<!-- Node18&#45;&gt;Node2 -->
<g id="edge19_Node000002_Node000018" class="edge">
<title>Node18&#45;&gt;Node2</title>
<g id="a_edge19_Node000002_Node000018"><a xlink:title=" ">
<path fill="none" stroke="orange" stroke-dasharray="5,2" d="M1517.49,-282.81C1551.44,-279.54 1590.13,-275.81 1623.85,-272.56"/>
<polygon fill="orange" stroke="orange" points="1516.74,-279.37 1507.12,-283.81 1517.41,-286.33 1516.74,-279.37"/>
</a>
</g>
<text text-anchor="middle" x="1565.5" y="-284.3" font-family="Helvetica,sans-Serif" font-size="10.00" fill="grey"> &lt; MathPlugin &gt;</text>
</g>
<!-- Node19&#45;&gt;Node1 -->
<g id="edge21_Node000001_Node000019" class="edge">
<title>Node19&#45;&gt;Node1</title>
<g id="a_edge21_Node000001_Node000019"><a xlink:title=" ">
<path fill="none" stroke="#9a32cd" stroke-dasharray="5,2" d="M638.14,-403.61C711.33,-400.08 829.43,-395.3 931.5,-395.3 931.5,-395.3 931.5,-395.3 1711.5,-395.3 1811.88,-395.3 1912.31,-313.73 1950.2,-279.32"/>
<polygon fill="#9a32cd" stroke="#9a32cd" points="637.94,-400.11 628.12,-404.1 638.28,-407.1 637.94,-400.11"/>
</a>
</g>
<text text-anchor="middle" x="1293" y="-398.3" font-family="Helvetica,sans-Serif" font-size="10.00" fill="grey"> _parameters</text>
</g>
<!-- Node20&#45;&gt;Node19 -->
<g id="edge23_Node000019_Node000020" class="edge">
<title>Node20&#45;&gt;Node19</title>
<g id="a_edge23_Node000019_Node000020"><a xlink:title=" ">
<path fill="none" stroke="orange" stroke-dasharray="5,2" d="M300.49,-407.3C358.99,-407.3 447.47,-407.3 505.98,-407.3"/>
<polygon fill="orange" stroke="orange" points="300.29,-403.8 290.29,-407.3 300.29,-410.8 300.29,-403.8"/>
</a>
</g>
<text text-anchor="start" x="333" y="-421.3" font-family="Helvetica,sans-Serif" font-size="10.00" fill="grey"> &lt; std::string, std</text>
<text text-anchor="middle" x="375.5" y="-410.3" font-family="Helvetica,sans-Serif" font-size="10.00" fill="grey">::string &gt;</text>
</g>
<!-- Node21 -->
<g id="Node000021" class="node">
<title>Node21</title>
<g id="a_Node000021"><a xlink:title=" ">
<polygon fill="white" stroke="#666666" points="1770,-20.8 1651,-20.8 1651,-1.8 1770,-1.8 1770,-20.8"/>
<text text-anchor="middle" x="1710.5" y="-8.8" font-family="Helvetica,sans-Serif" font-size="10.00">std::recursive_mutex</text>
</a>
</g>
</g>
<!-- Node21&#45;&gt;Node1 -->
<g id="edge27_Node000001_Node000021" class="edge">
<title>Node21&#45;&gt;Node1</title>
<g id="a_edge27_Node000001_Node000021"><a xlink:title=" ">
<path fill="none" stroke="#9a32cd" stroke-dasharray="5,2" d="M1772.33,-0.89C1806.89,1.59 1849.1,-1.56 1879,-24.3 1953.08,-80.64 1964.17,-206.04 1965.76,-249.29"/>
<polygon fill="#9a32cd" stroke="#9a32cd" points="1771.99,2.59 1762.34,-1.78 1772.61,-4.38 1771.99,2.59"/>
</a>
</g>
<text text-anchor="middle" x="1847" y="-27.3" font-family="Helvetica,sans-Serif" font-size="10.00" fill="grey"> _writeMutex</text>
</g>
<!-- Node22&#45;&gt;Node1 -->
<g id="edge28_Node000001_Node000022" class="edge">
<title>Node22&#45;&gt;Node1</title>
<g id="a_edge28_Node000001_Node000022"><a xlink:title=" ">
<path fill="none" stroke="#9a32cd" stroke-dasharray="5,2" d="M801.78,-478.45C862.2,-464.52 969.64,-443.3 1063,-443.3 1063,-443.3 1063,-443.3 1711.5,-443.3 1787.46,-443.3 1816.97,-453.14 1879,-409.3 1925.75,-376.25 1951.76,-309.42 1961.5,-279.44"/>
<polygon fill="#9a32cd" stroke="#9a32cd" points="800.72,-475.1 791.77,-480.79 802.31,-481.92 800.72,-475.1"/>
</a>
</g>
<text text-anchor="middle" x="1293" y="-446.3" font-family="Helvetica,sans-Serif" font-size="10.00" fill="grey"> _lastMainValue</text>
</g>
</g>
</svg>

<g id="navigator" transform="translate(0 0)" fill="#404254">
  <rect fill="#f2f5e9" fill-opacity="0.5" stroke="#606060" stroke-width=".5" x="0" y="0" width="60" height="60"/>
  <use id="zoomplus" xlink:href="#zoomPlus" x="17" y="9" onmousedown="handleZoom(evt,'in')"/>
  <use id="zoomminus" xlink:href="#zoomMin" x="42" y="9" onmousedown="handleZoom(evt,'out')"/>
  <use id="reset" xlink:href="#resetDef" x="30" y="36" onmousedown="handleReset()"/>
   <use id="arrowup" xlink:href="#arrowUp" x="0" y="0" onmousedown="handlePan(0,-1)"/>
  <use id="arrowright" xlink:href="#arrowRight" x="0" y="0" onmousedown="handlePan(1,0)"/>
  <use id="arrowdown" xlink:href="#arrowDown" x="0" y="0" onmousedown="handlePan(0,1)"/>
  <use id="arrowleft" xlink:href="#arrowLeft" x="0" y="0" onmousedown="handlePan(-1,0)"/>
</g>
<svg viewBox="0 0 15 15" width="100%" height="30px" preserveAspectRatio="xMaxYMin meet">
 <g id="arrow_out" transform="scale(0.3 0.3)">
  <a xlink:href="class_chimera_t_k_1_1_l_n_m_backend_1_1_math_plugin__coll__graph_org.svg" target="_base">
   <rect id="button" ry="5" rx="5" y="6" x="6" height="38" width="38"
        fill="#f2f5e9" fill-opacity="0.5" stroke="#606060" stroke-width="1.0"/>
   <path id="arrow"
     d="M 11.500037,31.436501 C 11.940474,20.09759 22.043105,11.32322 32.158766,21.979434 L 37.068811,17.246167 C 37.068811,17.246167 37.088388,32 37.088388,32 L 22.160133,31.978069 C 22.160133,31.978069 26.997745,27.140456 26.997745,27.140456 C 18.528582,18.264221 13.291696,25.230495 11.500037,31.436501 z"
     style="fill:#404040;"/>
  </a>
 </g>
</svg>

<style type='text/css'>
<![CDATA[
[data-mouse-over-selected='false'] { opacity: 0.7; }
[data-mouse-over-selected='true']  { opacity: 1.0; }
]]>
</style>
<script type="application/ecmascript"><![CDATA[
document.addEventListener('DOMContentLoaded', (event) => {
  highlightEdges();
  highlightAdjacentNodes();
});
]]></script>
</svg>
