<?xml version="1.0" encoding="UTF-8" standalone="no"?>
<!DOCTYPE svg PUBLIC "-//W3C//DTD SVG 1.1//EN"
 "http://www.w3.org/Graphics/SVG/1.1/DTD/svg11.dtd">
<!-- Generated by graphviz version 2.43.0 (0)
 -->
<!-- Title: ChimeraTK::ReadAnyGroup::readAny Pages: 1 -->
<svg width="527pt" height="246pt"
 viewBox="0.00 0.00 527.00 245.50" xmlns="http://www.w3.org/2000/svg" xmlns:xlink="http://www.w3.org/1999/xlink">
<g id="graph0" class="graph" transform="scale(1 1) rotate(0) translate(4 241.5)">
<title>ChimeraTK::ReadAnyGroup::readAny</title>
<!-- Node1 -->
<g id="Node000001" class="node">
<title>Node1</title>
<g id="a_Node000001"><a xlink:title="Wait until one of the elements in this group has received an update.">
<polygon fill="#999999" stroke="#666666" points="519,-147 370,-147 370,-117 519,-117 519,-147"/>
<text text-anchor="start" x="378" y="-135" font-family="Helvetica,sans-Serif" font-size="10.00">ChimeraTK::ReadAnyGroup</text>
<text text-anchor="middle" x="444.5" y="-124" font-family="Helvetica,sans-Serif" font-size="10.00">::readAny</text>
</a>
</g>
</g>
<!-- Node2 -->
<g id="Node000002" class="node">
<title>Node2</title>
<g id="a_Node000002"><a xlink:href="test_async_read_8cpp.html#ac0bab11760e2aafd6e5e761b618fe67a" target="_top" xlink:title=" ">
<polygon fill="white" stroke="#666666" points="331,-237.5 188,-237.5 188,-218.5 331,-218.5 331,-237.5"/>
<text text-anchor="middle" x="259.5" y="-225.5" font-family="Helvetica,sans-Serif" font-size="10.00">BOOST_AUTO_TEST_CASE</text>
</a>
</g>
</g>
<!-- Node1&#45;&gt;Node2 -->
<g id="edge1_Node000001_Node000002" class="edge">
<title>Node1&#45;&gt;Node2</title>
<g id="a_edge1_Node000001_Node000002"><a xlink:title=" ">
<path fill="none" stroke="#63b8ff" d="M418.76,-153.83C397.61,-171.41 365.66,-195.5 334,-210 326.71,-213.34 318.73,-216.11 310.79,-218.39"/>
<polygon fill="#63b8ff" stroke="#63b8ff" points="421.21,-156.34 426.58,-147.21 416.69,-151 421.21,-156.34"/>
</a>
</g>
</g>
<!-- Node3 -->
<g id="Node000003" class="node">
<title>Node3</title>
<g id="a_Node000003"><a xlink:href="test_async_read_8cpp.html#a53b782b1ee851363138b611f8c738321" target="_top" xlink:title=" ">
<polygon fill="white" stroke="#666666" points="331,-200.5 188,-200.5 188,-181.5 331,-181.5 331,-200.5"/>
<text text-anchor="middle" x="259.5" y="-188.5" font-family="Helvetica,sans-Serif" font-size="10.00">BOOST_AUTO_TEST_CASE</text>
</a>
</g>
</g>
<!-- Node1&#45;&gt;Node3 -->
<g id="edge2_Node000001_Node000003" class="edge">
<title>Node1&#45;&gt;Node3</title>
<g id="a_edge2_Node000001_Node000003"><a xlink:title=" ">
<path fill="none" stroke="#63b8ff" d="M396.91,-150.83C377.62,-158.26 354.91,-166.55 334,-173 324.08,-176.06 313.29,-178.94 303.1,-181.47"/>
<polygon fill="#63b8ff" stroke="#63b8ff" points="398.32,-154.04 406.37,-147.15 395.79,-147.51 398.32,-154.04"/>
</a>
</g>
</g>
<!-- Node4 -->
<g id="Node000004" class="node">
<title>Node4</title>
<g id="a_Node000004"><a xlink:href="test_async_read_8cpp.html#a235814bfef964effb8c56d287f64e75a" target="_top" xlink:title=" ">
<polygon fill="white" stroke="#666666" points="331,-163.5 188,-163.5 188,-144.5 331,-144.5 331,-163.5"/>
<text text-anchor="middle" x="259.5" y="-151.5" font-family="Helvetica,sans-Serif" font-size="10.00">BOOST_AUTO_TEST_CASE</text>
</a>
</g>
</g>
<!-- Node1&#45;&gt;Node4 -->
<g id="edge3_Node000001_Node000004" class="edge">
<title>Node1&#45;&gt;Node4</title>
<g id="a_edge3_Node000001_Node000004"><a xlink:title=" ">
<path fill="none" stroke="#63b8ff" d="M359.87,-142.05C350.23,-143.21 340.47,-144.39 331.02,-145.52"/>
<polygon fill="#63b8ff" stroke="#63b8ff" points="360.35,-145.52 369.86,-140.85 359.51,-138.57 360.35,-145.52"/>
</a>
</g>
</g>
<!-- Node5 -->
<g id="Node000005" class="node">
<title>Node5</title>
<g id="a_Node000005"><a xlink:href="class_chimera_t_k_1_1_read_any_group.html#ab37fc24096ba46d41a40f6bdf7f8b61d" target="_top" xlink:title="Wait until the given TransferElement has received an update and store it to its user buffer.">
<polygon fill="white" stroke="#666666" points="334,-126 185,-126 185,-96 334,-96 334,-126"/>
<text text-anchor="start" x="193" y="-114" font-family="Helvetica,sans-Serif" font-size="10.00">ChimeraTK::ReadAnyGroup</text>
<text text-anchor="middle" x="259.5" y="-103" font-family="Helvetica,sans-Serif" font-size="10.00">::readUntil</text>
</a>
</g>
</g>
<!-- Node1&#45;&gt;Node5 -->
<g id="edge4_Node000001_Node000005" class="edge">
<title>Node1&#45;&gt;Node5</title>
<g id="a_edge4_Node000001_Node000005"><a xlink:title=" ">
<path fill="none" stroke="#63b8ff" d="M359.89,-122.41C351.35,-121.43 342.72,-120.43 334.29,-119.47"/>
<polygon fill="#63b8ff" stroke="#63b8ff" points="359.52,-125.89 369.86,-123.55 360.32,-118.93 359.52,-125.89"/>
</a>
</g>
</g>
<!-- Node7 -->
<g id="Node000007" class="node">
<title>Node7</title>
<g id="a_Node000007"><a xlink:href="class_chimera_t_k_1_1_read_any_group.html#aa39feaeaa501c009b3bcd90b7304445d" target="_top" xlink:title="See the other signature of readUntilAll().">
<polygon fill="white" stroke="#666666" points="334,-78 185,-78 185,-48 334,-48 334,-78"/>
<text text-anchor="start" x="193" y="-66" font-family="Helvetica,sans-Serif" font-size="10.00">ChimeraTK::ReadAnyGroup</text>
<text text-anchor="middle" x="259.5" y="-55" font-family="Helvetica,sans-Serif" font-size="10.00">::readUntilAll</text>
</a>
</g>
</g>
<!-- Node1&#45;&gt;Node7 -->
<g id="edge6_Node000001_Node000007" class="edge">
<title>Node1&#45;&gt;Node7</title>
<g id="a_edge6_Node000001_Node000007"><a xlink:title=" ">
<path fill="none" stroke="#63b8ff" d="M399.35,-112.98C379.51,-104.66 355.71,-94.99 334,-87 325.81,-83.99 317.04,-80.95 308.52,-78.11"/>
<polygon fill="#63b8ff" stroke="#63b8ff" points="398.17,-116.28 408.75,-116.94 400.89,-109.83 398.17,-116.28"/>
</a>
</g>
</g>
<!-- Node8 -->
<g id="Node000008" class="node">
<title>Node8</title>
<g id="a_Node000008"><a xlink:href="class_chimera_t_k_1_1_read_any_group.html#a948a672093fb98777bc9dfb9a0114c11" target="_top" xlink:title="Wait until all of the given TransferElements has received an update and store it to its user buffer.">
<polygon fill="white" stroke="#666666" points="334,-30 185,-30 185,0 334,0 334,-30"/>
<text text-anchor="start" x="193" y="-18" font-family="Helvetica,sans-Serif" font-size="10.00">ChimeraTK::ReadAnyGroup</text>
<text text-anchor="middle" x="259.5" y="-7" font-family="Helvetica,sans-Serif" font-size="10.00">::readUntilAll</text>
</a>
</g>
</g>
<!-- Node1&#45;&gt;Node8 -->
<g id="edge7_Node000001_Node000008" class="edge">
<title>Node1&#45;&gt;Node8</title>
<g id="a_edge7_Node000001_Node000008"><a xlink:title=" ">
<path fill="none" stroke="#63b8ff" d="M422.27,-109.51C401.51,-88.66 368.12,-58.08 334,-39 328.02,-35.66 321.51,-32.7 314.92,-30.09"/>
<polygon fill="#63b8ff" stroke="#63b8ff" points="419.83,-112.01 429.33,-116.71 424.83,-107.11 419.83,-112.01"/>
</a>
</g>
</g>
<!-- Node6 -->
<g id="Node000006" class="node">
<title>Node6</title>
<g id="a_Node000006"><a xlink:href="class_chimera_t_k_1_1_read_any_group.html#aad4189e9154b3006a6f4965712a4f5a2" target="_top" xlink:title="See the other signature of readUntil().">
<polygon fill="white" stroke="#666666" points="149,-126 0,-126 0,-96 149,-96 149,-126"/>
<text text-anchor="start" x="8" y="-114" font-family="Helvetica,sans-Serif" font-size="10.00">ChimeraTK::ReadAnyGroup</text>
<text text-anchor="middle" x="74.5" y="-103" font-family="Helvetica,sans-Serif" font-size="10.00">::readUntil</text>
</a>
</g>
</g>
<!-- Node5&#45;&gt;Node6 -->
<g id="edge5_Node000005_Node000006" class="edge">
<title>Node5&#45;&gt;Node6</title>
<g id="a_edge5_Node000005_Node000006"><a xlink:title=" ">
<path fill="none" stroke="#63b8ff" d="M174.61,-111C166.16,-111 157.62,-111 149.29,-111"/>
<polygon fill="#63b8ff" stroke="#63b8ff" points="174.86,-114.5 184.86,-111 174.86,-107.5 174.86,-114.5"/>
</a>
</g>
</g>
</g>
</svg>
