<?xml version="1.0" encoding="UTF-8" standalone="no"?>
<!DOCTYPE svg PUBLIC "-//W3C//DTD SVG 1.1//EN"
 "http://www.w3.org/Graphics/SVG/1.1/DTD/svg11.dtd">
<!-- Generated by graphviz version 2.43.0 (0)
 -->
<!-- Title: ChimeraTK::DataConsistencyGroupDetail::MatcherBase Pages: 1 -->
<svg width="373pt" height="86pt"
 viewBox="0.00 0.00 373.00 86.00" xmlns="http://www.w3.org/2000/svg" xmlns:xlink="http://www.w3.org/1999/xlink">
<g id="graph0" class="graph" transform="scale(1 1) rotate(0) translate(4 82)">
<title>ChimeraTK::DataConsistencyGroupDetail::MatcherBase</title>
<!-- Node1 -->
<g id="Node000001" class="node">
<title>Node1</title>
<g id="a_Node000001"><a xlink:title="Base class for matcher implementations; will not be instantiated directly.">
<polygon fill="#999999" stroke="#666666" points="159,-54 0,-54 0,-24 159,-24 159,-54"/>
<text text-anchor="start" x="8" y="-42" font-family="Helvetica,sans-Serif" font-size="10.00">ChimeraTK::DataConsistency</text>
<text text-anchor="middle" x="79.5" y="-31" font-family="Helvetica,sans-Serif" font-size="10.00">GroupDetail::MatcherBase</text>
</a>
</g>
</g>
<!-- Node2 -->
<g id="Node000002" class="node">
<title>Node2</title>
<g id="a_Node000002"><a xlink:href="class_chimera_t_k_1_1_data_consistency_group_detail_1_1_historized_matcher.html" target="_top" xlink:title="Data consistency matching via history of available data.">
<polygon fill="white" stroke="#666666" points="365,-78 195,-78 195,-48 365,-48 365,-78"/>
<text text-anchor="start" x="203" y="-66" font-family="Helvetica,sans-Serif" font-size="10.00">ChimeraTK::DataConsistency</text>
<text text-anchor="middle" x="280" y="-55" font-family="Helvetica,sans-Serif" font-size="10.00">GroupDetail::HistorizedMatcher</text>
</a>
</g>
</g>
<!-- Node1&#45;&gt;Node2 -->
<g id="edge1_Node000001_Node000002" class="edge">
<title>Node1&#45;&gt;Node2</title>
<g id="a_edge1_Node000001_Node000002"><a xlink:title=" ">
<path fill="none" stroke="#63b8ff" d="M169.18,-49.72C177.7,-50.75 186.33,-51.8 194.81,-52.82"/>
<polygon fill="#63b8ff" stroke="#63b8ff" points="169.59,-46.25 159.24,-48.52 168.75,-53.2 169.59,-46.25"/>
</a>
</g>
</g>
<!-- Node3 -->
<g id="Node000003" class="node">
<title>Node3</title>
<g id="a_Node000003"><a xlink:href="class_chimera_t_k_1_1_data_consistency_group_detail_1_1_simple_matcher.html" target="_top" xlink:title="Simple matcher implementation for DataConsistencyGroup in MatchingMode::exact.">
<polygon fill="white" stroke="#666666" points="359.5,-30 200.5,-30 200.5,0 359.5,0 359.5,-30"/>
<text text-anchor="start" x="208.5" y="-18" font-family="Helvetica,sans-Serif" font-size="10.00">ChimeraTK::DataConsistency</text>
<text text-anchor="middle" x="280" y="-7" font-family="Helvetica,sans-Serif" font-size="10.00">GroupDetail::SimpleMatcher</text>
</a>
</g>
</g>
<!-- Node1&#45;&gt;Node3 -->
<g id="edge2_Node000001_Node000003" class="edge">
<title>Node1&#45;&gt;Node3</title>
<g id="a_edge2_Node000001_Node000003"><a xlink:title=" ">
<path fill="none" stroke="#63b8ff" d="M169.47,-28.24C179.77,-27 190.21,-25.74 200.36,-24.51"/>
<polygon fill="#63b8ff" stroke="#63b8ff" points="168.75,-24.8 159.24,-29.48 169.59,-31.75 168.75,-24.8"/>
</a>
</g>
</g>
</g>
</svg>
