<?xml version="1.0" encoding="UTF-8" standalone="no"?>
<!DOCTYPE svg PUBLIC "-//W3C//DTD SVG 1.1//EN"
 "http://www.w3.org/Graphics/SVG/1.1/DTD/svg11.dtd">
<!-- Generated by graphviz version 2.43.0 (0)
 -->
<!-- Title: ChimeraTK::async::VoidAsyncVariable&lt; UserType &gt; Pages: 1 -->
<!--zoomable 74 -->

<svg id="main" version="1.1" xmlns="http://www.w3.org/2000/svg" xmlns:xlink="http://www.w3.org/1999/xlink" xml:space="preserve" onload="init(evt)">
<style type="text/css"><![CDATA[
.node, .edge {opacity: 0.7;}
.node.selected, .edge.selected {opacity: 1;}
.edge:hover path { stroke: red; }
.edge:hover polygon { stroke: red; fill: red; }
]]></style>

<defs>
  <circle id="rim" cx="0" cy="0" r="7"/>
  <circle id="rim2" cx="0" cy="0" r="3.5"/>
  <g id="zoomPlus">
    <use xlink:href="#rim" fill="#404040"><set attributeName="fill" to="#808080" begin="zoomplus.mouseover" end="zoomplus.mouseout"/></use>
    <path d="M-4,0h8M0,-4v8" fill="none" stroke="white" stroke-width="1.5" pointer-events="none"/>
  </g>
  <g id="zoomMin">
    <use xlink:href="#rim" fill="#404040"><set attributeName="fill" to="#808080" begin="zoomminus.mouseover" end="zoomminus.mouseout"/></use>
    <path d="M-4,0h8" fill="none" stroke="white" stroke-width="1.5" pointer-events="none"/>
  </g>
  <g id="arrowUp" transform="translate(30 24)">
    <use xlink:href="#rim"/>
    <path pointer-events="none" fill="none" stroke="white" stroke-width="1.5" d="M0,-3.0v7 M-2.5,-0.5L0,-3.0L2.5,-0.5"/>
  </g>
  <g id="arrowRight" transform="rotate(90) translate(36 -43)">
    <use xlink:href="#rim"/>
    <path pointer-events="none" fill="none" stroke="white" stroke-width="1.5" d="M0,-3.0v7 M-2.5,-0.5L0,-3.0L2.5,-0.5"/>
  </g>
  <g id="arrowDown" transform="rotate(180) translate(-30 -48)">
    <use xlink:href="#rim"/>
    <path pointer-events="none" fill="none" stroke="white" stroke-width="1.5" d="M0,-3.0v7 M-2.5,-0.5L0,-3.0L2.5,-0.5"/>
  </g>
  <g id="arrowLeft" transform="rotate(270) translate(-36 17)">
    <use xlink:href="#rim"/>
    <path pointer-events="none" fill="none" stroke="white" stroke-width="1.5" d="M0,-3.0v7 M-2.5,-0.5L0,-3.0L2.5,-0.5"/>
  </g>
  <g id="resetDef">
    <use xlink:href="#rim2" fill="#404040"><set attributeName="fill" to="#808080" begin="reset.mouseover" end="reset.mouseout"/></use>
  </g>
</defs>
<script type="application/ecmascript">
var viewWidth = 1119;
var viewHeight = 74;
var sectionId = 'dynsection-0';
</script>
<script type="application/ecmascript" xlink:href="svg.min.js"/>
<svg id="graph" class="graph">
<g id="viewport">
<title>ChimeraTK::async::VoidAsyncVariable&lt; UserType &gt;</title>
<!-- Node1 -->
<g id="Node000001" class="node">
<title>Node1</title>
<g id="a_Node000001"><a xlink:title=" ">
<polygon fill="#999999" stroke="#666666" points="1111,-60.5 950,-60.5 950,-30.5 1111,-30.5 1111,-60.5"/>
<text text-anchor="start" x="958" y="-48.5" font-family="Helvetica,sans-Serif" font-size="10.00">ChimeraTK::async::VoidAsync</text>
<text text-anchor="middle" x="1030.5" y="-37.5" font-family="Helvetica,sans-Serif" font-size="10.00">Variable&lt; UserType &gt;</text>
</a>
</g>
</g>
<!-- Node2 -->
<g id="Node000002" class="node">
<title>Node2</title>
<g id="a_Node000002"><a xlink:href="class_chimera_t_k_1_1async_1_1_generic_async_variable.html" target="_top" xlink:title=" ">
<polygon fill="white" stroke="#666666" points="913,-66 764,-66 764,-25 913,-25 913,-66"/>
<text text-anchor="start" x="772" y="-54" font-family="Helvetica,sans-Serif" font-size="10.00">ChimeraTK::async::Generic</text>
<text text-anchor="start" x="772" y="-43" font-family="Helvetica,sans-Serif" font-size="10.00">AsyncVariable&lt; std::nullptr</text>
<text text-anchor="middle" x="838.5" y="-32" font-family="Helvetica,sans-Serif" font-size="10.00">_t, UserType &gt;</text>
</a>
</g>
</g>
<!-- Node2&#45;&gt;Node1 -->
<g id="edge1_Node000001_Node000002" class="edge">
<title>Node2&#45;&gt;Node1</title>
<g id="a_edge1_Node000001_Node000002"><a xlink:title=" ">
<path fill="none" stroke="#63b8ff" d="M923.45,-45.5C932.22,-45.5 941.11,-45.5 949.83,-45.5"/>
<polygon fill="#63b8ff" stroke="#63b8ff" points="923.23,-42 913.23,-45.5 923.23,-49 923.23,-42"/>
</a>
</g>
</g>
<!-- Node3 -->
<g id="Node000003" class="node">
<title>Node3</title>
<g id="a_Node000003"><a xlink:href="struct_chimera_t_k_1_1async_1_1_async_variable_impl.html" target="_top" xlink:title="AsyncVariableImpl contains a weak pointer to an AsyncNDRegisterAccessor&lt;UserType&gt; and a send buffer N...">
<polygon fill="white" stroke="#666666" points="397,-59.5 217,-59.5 217,-29.5 397,-29.5 397,-59.5"/>
<text text-anchor="start" x="225" y="-47.5" font-family="Helvetica,sans-Serif" font-size="10.00">ChimeraTK::async::AsyncVariable</text>
<text text-anchor="middle" x="307" y="-36.5" font-family="Helvetica,sans-Serif" font-size="10.00">Impl&lt; UserType &gt;</text>
</a>
</g>
</g>
<!-- Node3&#45;&gt;Node2 -->
<g id="edge2_Node000002_Node000003" class="edge">
<title>Node3&#45;&gt;Node2</title>
<g id="a_edge2_Node000002_Node000003"><a xlink:title=" ">
<path fill="none" stroke="#63b8ff" d="M407.31,-48.59C416.34,-48.92 425.34,-49.23 434,-49.5 572.61,-53.85 607.45,-59.55 746,-53.5 751.74,-53.25 757.67,-52.91 763.63,-52.52"/>
<polygon fill="#63b8ff" stroke="#63b8ff" points="407.26,-45.09 397.13,-48.22 407,-52.09 407.26,-45.09"/>
</a>
</g>
</g>
<!-- Node5 -->
<g id="Node000005" class="node">
<title>Node5</title>
<g id="a_Node000005"><a xlink:href="class_chimera_t_k_1_1async_1_1_generic_async_variable.html" target="_top" xlink:title=" ">
<polygon fill="white" stroke="#666666" points="589,-41 434,-41 434,0 589,0 589,-41"/>
<text text-anchor="start" x="442" y="-29" font-family="Helvetica,sans-Serif" font-size="10.00">ChimeraTK::async::Generic</text>
<text text-anchor="start" x="442" y="-18" font-family="Helvetica,sans-Serif" font-size="10.00">AsyncVariable&lt; SourceType,</text>
<text text-anchor="middle" x="511.5" y="-7" font-family="Helvetica,sans-Serif" font-size="10.00"> UserType &gt;</text>
</a>
</g>
</g>
<!-- Node3&#45;&gt;Node5 -->
<g id="edge5_Node000005_Node000003" class="edge">
<title>Node3&#45;&gt;Node5</title>
<g id="a_edge5_Node000005_Node000003"><a xlink:title=" ">
<path fill="none" stroke="#63b8ff" d="M407.16,-32.75C416.08,-31.69 425.03,-30.63 433.72,-29.6"/>
<polygon fill="#63b8ff" stroke="#63b8ff" points="406.63,-29.29 397.11,-33.94 407.46,-36.24 406.63,-29.29"/>
</a>
</g>
</g>
<!-- Node4 -->
<g id="Node000004" class="node">
<title>Node4</title>
<g id="a_Node000004"><a xlink:href="struct_chimera_t_k_1_1async_1_1_async_variable.html" target="_top" xlink:title="Typeless base class.">
<polygon fill="white" stroke="#666666" points="180,-54 0,-54 0,-35 180,-35 180,-54"/>
<text text-anchor="middle" x="90" y="-42" font-family="Helvetica,sans-Serif" font-size="10.00">ChimeraTK::async::AsyncVariable</text>
</a>
</g>
</g>
<!-- Node4&#45;&gt;Node3 -->
<g id="edge3_Node000003_Node000004" class="edge">
<title>Node4&#45;&gt;Node3</title>
<g id="a_edge3_Node000003_Node000004"><a xlink:title=" ">
<path fill="none" stroke="#63b8ff" d="M190.01,-44.5C198.92,-44.5 207.9,-44.5 216.72,-44.5"/>
<polygon fill="#63b8ff" stroke="#63b8ff" points="190,-41 180,-44.5 190,-48 190,-41"/>
</a>
</g>
</g>
<!-- Node5&#45;&gt;Node2 -->
<g id="edge4_Node000002_Node000005" class="edge">
<title>Node5&#45;&gt;Node2</title>
<g id="a_edge4_Node000002_Node000005"><a xlink:title=" ">
<path fill="none" stroke="orange" stroke-dasharray="5,2" d="M599.2,-27.17C650.6,-31.12 715.02,-36.08 763.92,-39.84"/>
<polygon fill="orange" stroke="orange" points="599.35,-23.67 589.11,-26.39 598.81,-30.65 599.35,-23.67"/>
</a>
</g>
<text text-anchor="middle" x="676.5" y="-41.5" font-family="Helvetica,sans-Serif" font-size="10.00" fill="grey"> &lt; std::nullptr_t, UserType &gt;</text>
</g>
</g>
</svg>

<g id="navigator" transform="translate(0 0)" fill="#404254">
  <rect fill="#f2f5e9" fill-opacity="0.5" stroke="#606060" stroke-width=".5" x="0" y="0" width="60" height="60"/>
  <use id="zoomplus" xlink:href="#zoomPlus" x="17" y="9" onmousedown="handleZoom(evt,'in')"/>
  <use id="zoomminus" xlink:href="#zoomMin" x="42" y="9" onmousedown="handleZoom(evt,'out')"/>
  <use id="reset" xlink:href="#resetDef" x="30" y="36" onmousedown="handleReset()"/>
   <use id="arrowup" xlink:href="#arrowUp" x="0" y="0" onmousedown="handlePan(0,-1)"/>
  <use id="arrowright" xlink:href="#arrowRight" x="0" y="0" onmousedown="handlePan(1,0)"/>
  <use id="arrowdown" xlink:href="#arrowDown" x="0" y="0" onmousedown="handlePan(0,1)"/>
  <use id="arrowleft" xlink:href="#arrowLeft" x="0" y="0" onmousedown="handlePan(-1,0)"/>
</g>
<svg viewBox="0 0 15 15" width="100%" height="30px" preserveAspectRatio="xMaxYMin meet">
 <g id="arrow_out" transform="scale(0.3 0.3)">
  <a xlink:href="class_chimera_t_k_1_1async_1_1_void_async_variable__inherit__graph_org.svg" target="_base">
   <rect id="button" ry="5" rx="5" y="6" x="6" height="38" width="38"
        fill="#f2f5e9" fill-opacity="0.5" stroke="#606060" stroke-width="1.0"/>
   <path id="arrow"
     d="M 11.500037,31.436501 C 11.940474,20.09759 22.043105,11.32322 32.158766,21.979434 L 37.068811,17.246167 C 37.068811,17.246167 37.088388,32 37.088388,32 L 22.160133,31.978069 C 22.160133,31.978069 26.997745,27.140456 26.997745,27.140456 C 18.528582,18.264221 13.291696,25.230495 11.500037,31.436501 z"
     style="fill:#404040;"/>
  </a>
 </g>
</svg>

<style type='text/css'>
<![CDATA[
[data-mouse-over-selected='false'] { opacity: 0.7; }
[data-mouse-over-selected='true']  { opacity: 1.0; }
]]>
</style>
<script type="application/ecmascript"><![CDATA[
document.addEventListener('DOMContentLoaded', (event) => {
  highlightEdges();
  highlightAdjacentNodes();
});
]]></script>
</svg>
