<?xml version="1.0" encoding="UTF-8" standalone="no"?>
<!DOCTYPE svg PUBLIC "-//W3C//DTD SVG 1.1//EN"
 "http://www.w3.org/Graphics/SVG/1.1/DTD/svg11.dtd">
<!-- Generated by graphviz version 2.43.0 (0)
 -->
<!-- Title: ChimeraTK::DataConsistencyGroup::add Pages: 1 -->
<svg width="585pt" height="220pt"
 viewBox="0.00 0.00 585.00 220.00" xmlns="http://www.w3.org/2000/svg" xmlns:xlink="http://www.w3.org/1999/xlink">
<g id="graph0" class="graph" transform="scale(1 1) rotate(0) translate(4 216)">
<title>ChimeraTK::DataConsistencyGroup::add</title>
<!-- Node1 -->
<g id="Node000001" class="node">
<title>Node1</title>
<g id="a_Node000001"><a xlink:title=" ">
<polygon fill="#999999" stroke="#666666" points="159,-116 0,-116 0,-86 159,-86 159,-116"/>
<text text-anchor="start" x="8" y="-104" font-family="Helvetica,sans-Serif" font-size="10.00">ChimeraTK::DataConsistency</text>
<text text-anchor="middle" x="79.5" y="-93" font-family="Helvetica,sans-Serif" font-size="10.00">Group::add</text>
</a>
</g>
</g>
<!-- Node2 -->
<g id="Node000002" class="node">
<title>Node2</title>
<g id="a_Node000002"><a xlink:href="class_chimera_t_k_1_1_data_consistency_group.html#a6051622217174732d5d10c3cf4fd7337" target="_top" xlink:title="Add register to group.">
<polygon fill="white" stroke="#666666" points="354,-116 195,-116 195,-86 354,-86 354,-116"/>
<text text-anchor="start" x="203" y="-104" font-family="Helvetica,sans-Serif" font-size="10.00">ChimeraTK::DataConsistency</text>
<text text-anchor="middle" x="274.5" y="-93" font-family="Helvetica,sans-Serif" font-size="10.00">Group::add</text>
</a>
</g>
</g>
<!-- Node1&#45;&gt;Node2 -->
<g id="edge1_Node000001_Node000002" class="edge">
<title>Node1&#45;&gt;Node2</title>
<g id="a_edge1_Node000001_Node000002"><a xlink:title=" ">
<path fill="none" stroke="#63b8ff" d="M159,-101C167.48,-101 176.14,-101 184.73,-101"/>
<polygon fill="#63b8ff" stroke="#63b8ff" points="184.76,-104.5 194.76,-101 184.76,-97.5 184.76,-104.5"/>
</a>
</g>
</g>
<!-- Node3 -->
<g id="Node000003" class="node">
<title>Node3</title>
<g id="a_Node000003"><a xlink:href="class_chimera_t_k_1_1_transfer_element_abstractor.html#acc639d986bbab7f30b86c6f8f8596e57" target="_top" xlink:title="Return the AccessModeFlags for this TransferElement.">
<polygon fill="white" stroke="#666666" points="571.5,-212 395.5,-212 395.5,-182 571.5,-182 571.5,-212"/>
<text text-anchor="start" x="403.5" y="-200" font-family="Helvetica,sans-Serif" font-size="10.00">ChimeraTK::TransferElement</text>
<text text-anchor="middle" x="483.5" y="-189" font-family="Helvetica,sans-Serif" font-size="10.00">Abstractor::getAccessModeFlags</text>
</a>
</g>
</g>
<!-- Node2&#45;&gt;Node3 -->
<g id="edge2_Node000002_Node000003" class="edge">
<title>Node2&#45;&gt;Node3</title>
<g id="a_edge2_Node000002_Node000003"><a xlink:title=" ">
<path fill="none" stroke="#63b8ff" d="M295.13,-116C317.15,-132.17 354.43,-157.64 390,-173 394.73,-175.04 399.68,-176.95 404.72,-178.71"/>
<polygon fill="#63b8ff" stroke="#63b8ff" points="403.9,-182.12 414.49,-181.93 406.09,-175.48 403.9,-182.12"/>
</a>
</g>
</g>
<!-- Node4 -->
<g id="Node000004" class="node">
<title>Node4</title>
<g id="a_Node000004"><a xlink:href="class_chimera_t_k_1_1_transfer_element_abstractor.html#afb4c01a7604516958f57d8ec67f4aa5e" target="_top" xlink:title="Obtain unique ID for the actual implementation of this TransferElement.">
<polygon fill="white" stroke="#666666" points="561.5,-164 405.5,-164 405.5,-134 561.5,-134 561.5,-164"/>
<text text-anchor="start" x="413.5" y="-152" font-family="Helvetica,sans-Serif" font-size="10.00">ChimeraTK::TransferElement</text>
<text text-anchor="middle" x="483.5" y="-141" font-family="Helvetica,sans-Serif" font-size="10.00">Abstractor::getId</text>
</a>
</g>
</g>
<!-- Node2&#45;&gt;Node4 -->
<g id="edge3_Node000002_Node000004" class="edge">
<title>Node2&#45;&gt;Node4</title>
<g id="a_edge3_Node000002_Node000004"><a xlink:title=" ">
<path fill="none" stroke="#63b8ff" d="M340.43,-116.06C361.81,-121.01 385.77,-126.57 407.82,-131.68"/>
<polygon fill="#63b8ff" stroke="#63b8ff" points="407.27,-135.15 417.8,-134 408.85,-128.33 407.27,-135.15"/>
</a>
</g>
</g>
<!-- Node5 -->
<g id="Node000005" class="node">
<title>Node5</title>
<g id="a_Node000005"><a xlink:href="class_chimera_t_k_1_1_transfer_element_abstractor.html#afcdf66927b87f55a333ec0fcdfe8873e" target="_top" xlink:title="Returns the name that identifies the process variable.">
<polygon fill="white" stroke="#666666" points="561.5,-116 405.5,-116 405.5,-86 561.5,-86 561.5,-116"/>
<text text-anchor="start" x="413.5" y="-104" font-family="Helvetica,sans-Serif" font-size="10.00">ChimeraTK::TransferElement</text>
<text text-anchor="middle" x="483.5" y="-93" font-family="Helvetica,sans-Serif" font-size="10.00">Abstractor::getName</text>
</a>
</g>
</g>
<!-- Node2&#45;&gt;Node5 -->
<g id="edge4_Node000002_Node000005" class="edge">
<title>Node2&#45;&gt;Node5</title>
<g id="a_edge4_Node000002_Node000005"><a xlink:title=" ">
<path fill="none" stroke="#63b8ff" d="M354.05,-101C367.45,-101 381.44,-101 395.05,-101"/>
<polygon fill="#63b8ff" stroke="#63b8ff" points="395.37,-104.5 405.37,-101 395.37,-97.5 395.37,-104.5"/>
</a>
</g>
</g>
<!-- Node6 -->
<g id="Node000006" class="node">
<title>Node6</title>
<g id="a_Node000006"><a xlink:href="class_chimera_t_k_1_1_access_mode_flags.html#a3a8fdd12b01e34b7e605a858338efeab" target="_top" xlink:title="Check if a certain flag is in the set.">
<polygon fill="white" stroke="#666666" points="577,-67.5 390,-67.5 390,-48.5 577,-48.5 577,-67.5"/>
<text text-anchor="middle" x="483.5" y="-55.5" font-family="Helvetica,sans-Serif" font-size="10.00">ChimeraTK::AccessModeFlags::has</text>
</a>
</g>
</g>
<!-- Node2&#45;&gt;Node6 -->
<g id="edge5_Node000002_Node000006" class="edge">
<title>Node2&#45;&gt;Node6</title>
<g id="a_edge5_Node000002_Node000006"><a xlink:title=" ">
<path fill="none" stroke="#63b8ff" d="M346.95,-85.98C361.21,-82.99 376.08,-79.89 390,-77 401.66,-74.58 414.16,-72 426.07,-69.55"/>
<polygon fill="#63b8ff" stroke="#63b8ff" points="426.82,-72.97 435.91,-67.53 425.41,-66.12 426.82,-72.97"/>
</a>
</g>
</g>
<!-- Node7 -->
<g id="Node000007" class="node">
<title>Node7</title>
<g id="a_Node000007"><a xlink:href="class_chimera_t_k_1_1_transfer_element_abstractor.html#a4b6532a803d31c0bcd2f3c63b7610ab8" target="_top" xlink:title="Check if transfer element is readable.">
<polygon fill="white" stroke="#666666" points="561.5,-30 405.5,-30 405.5,0 561.5,0 561.5,-30"/>
<text text-anchor="start" x="413.5" y="-18" font-family="Helvetica,sans-Serif" font-size="10.00">ChimeraTK::TransferElement</text>
<text text-anchor="middle" x="483.5" y="-7" font-family="Helvetica,sans-Serif" font-size="10.00">Abstractor::isReadable</text>
</a>
</g>
</g>
<!-- Node2&#45;&gt;Node7 -->
<g id="edge6_Node000002_Node000007" class="edge">
<title>Node2&#45;&gt;Node7</title>
<g id="a_edge6_Node000002_Node000007"><a xlink:title=" ">
<path fill="none" stroke="#63b8ff" d="M300.19,-85.74C322.86,-72.24 357.75,-52.76 390,-40 396.24,-37.53 402.8,-35.22 409.44,-33.08"/>
<polygon fill="#63b8ff" stroke="#63b8ff" points="410.66,-36.37 419.18,-30.07 408.6,-29.68 410.66,-36.37"/>
</a>
</g>
</g>
</g>
</svg>
