<?xml version="1.0" encoding="UTF-8" standalone="no"?>
<!DOCTYPE svg PUBLIC "-//W3C//DTD SVG 1.1//EN"
 "http://www.w3.org/Graphics/SVG/1.1/DTD/svg11.dtd">
<!-- Generated by graphviz version 2.43.0 (0)
 -->
<!-- Title: Graphical Class Hierarchy Pages: 1 -->
<svg width="1658pt" height="512pt"
 viewBox="0.00 0.00 1658.00 512.00" xmlns="http://www.w3.org/2000/svg" xmlns:xlink="http://www.w3.org/1999/xlink">
<g id="graph0" class="graph" transform="scale(1 1) rotate(0) translate(4 508)">
<title>Graphical Class Hierarchy</title>
<polygon fill="white" stroke="transparent" points="-4,4 -4,-508 1654,-508 1654,4 -4,4"/>
<!-- Node523 -->
<g id="node1" class="node">
<title>Node523</title>
<g id="a_node1"><a xlink:title=" ">
<polygon fill="white" stroke="#bfbfbf" points="0,-227.5 0,-246.5 140,-246.5 140,-227.5 0,-227.5"/>
<text text-anchor="middle" x="70" y="-234.5" font-family="Helvetica,sans-Serif" font-size="10.00">enable_shared_from_this</text>
</a>
</g>
</g>
<!-- Node524 -->
<g id="node2" class="node">
<title>Node524</title>
<g id="a_node2"><a xlink:href="class_chimera_t_k_1_1async_1_1_async_accessor_manager.html" target="_top" xlink:title="The AsyncAccessorManager has three main functionalities:">
<polygon fill="white" stroke="black" points="176.5,-350 176.5,-380 360.5,-380 360.5,-350 176.5,-350"/>
<text text-anchor="start" x="184.5" y="-368" font-family="Helvetica,sans-Serif" font-size="10.00">ChimeraTK::async::AsyncAccessor</text>
<text text-anchor="middle" x="268.5" y="-357" font-family="Helvetica,sans-Serif" font-size="10.00">Manager</text>
</a>
</g>
</g>
<!-- Node523&#45;&gt;Node524 -->
<g id="edge1" class="edge">
<title>Node523&#45;&gt;Node524</title>
<path fill="none" stroke="midnightblue" d="M90.93,-253.11C111.62,-269.52 145.21,-295.29 176,-315 195.82,-327.69 219.1,-340.39 237.23,-349.81"/>
<polygon fill="midnightblue" stroke="midnightblue" points="92.89,-250.2 82.89,-246.69 88.52,-255.67 92.89,-250.2"/>
</g>
<!-- Node529 -->
<g id="node7" class="node">
<title>Node529</title>
<g id="a_node7"><a xlink:href="class_chimera_t_k_1_1async_1_1_domain.html" target="_top" xlink:title="The Domain is the thread&#45;safe entry point for each distribution tree.">
<polygon fill="white" stroke="black" points="194,-286.5 194,-305.5 343,-305.5 343,-286.5 194,-286.5"/>
<text text-anchor="middle" x="268.5" y="-293.5" font-family="Helvetica,sans-Serif" font-size="10.00">ChimeraTK::async::Domain</text>
</a>
</g>
</g>
<!-- Node523&#45;&gt;Node529 -->
<g id="edge6" class="edge">
<title>Node523&#45;&gt;Node529</title>
<path fill="none" stroke="midnightblue" d="M112.94,-249.59C149.74,-260.64 202.46,-276.47 235.83,-286.49"/>
<polygon fill="midnightblue" stroke="midnightblue" points="113.59,-246.13 103.01,-246.61 111.58,-252.84 113.59,-246.13"/>
</g>
<!-- Node531 -->
<g id="node9" class="node">
<title>Node531</title>
<g id="a_node9"><a xlink:href="class_chimera_t_k_1_1async_1_1_muxed_interrupt_distributor.html" target="_top" xlink:title="Interface base class for interrupt controller handlers.">
<polygon fill="white" stroke="black" points="176,-222 176,-252 361,-252 361,-222 176,-222"/>
<text text-anchor="start" x="184" y="-240" font-family="Helvetica,sans-Serif" font-size="10.00">ChimeraTK::async::MuxedInterrupt</text>
<text text-anchor="middle" x="268.5" y="-229" font-family="Helvetica,sans-Serif" font-size="10.00">Distributor</text>
</a>
</g>
</g>
<!-- Node523&#45;&gt;Node531 -->
<g id="edge8" class="edge">
<title>Node523&#45;&gt;Node531</title>
<path fill="none" stroke="midnightblue" d="M150.2,-237C158.66,-237 167.32,-237 175.9,-237"/>
<polygon fill="midnightblue" stroke="midnightblue" points="150,-233.5 140,-237 150,-240.5 150,-233.5"/>
</g>
<!-- Node534 -->
<g id="node12" class="node">
<title>Node534</title>
<g id="a_node12"><a xlink:href="class_chimera_t_k_1_1_device_backend.html" target="_top" xlink:title="The base class for backends providing IO functionality for the Device class.">
<polygon fill="white" stroke="black" points="192.5,-170.5 192.5,-189.5 344.5,-189.5 344.5,-170.5 192.5,-170.5"/>
<text text-anchor="middle" x="268.5" y="-177.5" font-family="Helvetica,sans-Serif" font-size="10.00">ChimeraTK::DeviceBackend</text>
</a>
</g>
</g>
<!-- Node523&#45;&gt;Node534 -->
<g id="edge11" class="edge">
<title>Node523&#45;&gt;Node534</title>
<path fill="none" stroke="midnightblue" d="M113.7,-224.62C149.98,-214.09 201.31,-199.2 234.5,-189.57"/>
<polygon fill="midnightblue" stroke="midnightblue" points="112.52,-221.31 103.89,-227.46 114.47,-228.03 112.52,-221.31"/>
</g>
<!-- Node564 -->
<g id="node43" class="node">
<title>Node564</title>
<g id="a_node43"><a xlink:href="class_chimera_t_k_1_1_transfer_element.html" target="_top" xlink:title="Base class for register accessors which can be part of a TransferGroup.">
<polygon fill="white" stroke="black" points="190.5,-129.5 190.5,-148.5 346.5,-148.5 346.5,-129.5 190.5,-129.5"/>
<text text-anchor="middle" x="268.5" y="-136.5" font-family="Helvetica,sans-Serif" font-size="10.00">ChimeraTK::TransferElement</text>
</a>
</g>
</g>
<!-- Node523&#45;&gt;Node564 -->
<g id="edge42" class="edge">
<title>Node523&#45;&gt;Node564</title>
<path fill="none" stroke="midnightblue" d="M89.08,-220.47C108.96,-203.16 142.55,-176.39 176,-161 187.43,-155.74 200.26,-151.66 212.62,-148.51"/>
<polygon fill="midnightblue" stroke="midnightblue" points="86.6,-217.99 81.44,-227.25 91.24,-223.23 86.6,-217.99"/>
</g>
<!-- Node525 -->
<g id="node3" class="node">
<title>Node525</title>
<g id="a_node3"><a xlink:href="class_chimera_t_k_1_1async_1_1_source_typed_async_accessor_manager.html" target="_top" xlink:title=" ">
<polygon fill="white" stroke="black" points="407.5,-404.5 407.5,-445.5 568.5,-445.5 568.5,-404.5 407.5,-404.5"/>
<text text-anchor="start" x="415.5" y="-433.5" font-family="Helvetica,sans-Serif" font-size="10.00">ChimeraTK::async::Source</text>
<text text-anchor="start" x="415.5" y="-422.5" font-family="Helvetica,sans-Serif" font-size="10.00">TypedAsyncAccessorManager</text>
<text text-anchor="middle" x="488" y="-411.5" font-family="Helvetica,sans-Serif" font-size="10.00">&lt; SourceType &gt;</text>
</a>
</g>
</g>
<!-- Node524&#45;&gt;Node525 -->
<g id="edge2" class="edge">
<title>Node524&#45;&gt;Node525</title>
<path fill="none" stroke="midnightblue" d="M333.75,-382.73C358.52,-389.56 387,-397.42 412.65,-404.49"/>
<polygon fill="midnightblue" stroke="midnightblue" points="334.67,-379.35 324.1,-380.06 332.81,-386.1 334.67,-379.35"/>
</g>
<!-- Node527 -->
<g id="node5" class="node">
<title>Node527</title>
<g id="a_node5"><a xlink:href="class_chimera_t_k_1_1async_1_1_source_typed_async_accessor_manager.html" target="_top" xlink:title=" ">
<polygon fill="white" stroke="black" points="407.5,-344.5 407.5,-385.5 568.5,-385.5 568.5,-344.5 407.5,-344.5"/>
<text text-anchor="start" x="415.5" y="-373.5" font-family="Helvetica,sans-Serif" font-size="10.00">ChimeraTK::async::Source</text>
<text text-anchor="start" x="415.5" y="-362.5" font-family="Helvetica,sans-Serif" font-size="10.00">TypedAsyncAccessorManager</text>
<text text-anchor="middle" x="488" y="-351.5" font-family="Helvetica,sans-Serif" font-size="10.00">&lt; std::nullptr_t &gt;</text>
</a>
</g>
</g>
<!-- Node524&#45;&gt;Node527 -->
<g id="edge4" class="edge">
<title>Node524&#45;&gt;Node527</title>
<path fill="none" stroke="midnightblue" d="M371,-365C383.19,-365 395.51,-365 407.33,-365"/>
<polygon fill="midnightblue" stroke="midnightblue" points="370.79,-361.5 360.79,-365 370.79,-368.5 370.79,-361.5"/>
</g>
<!-- Node526 -->
<g id="node4" class="node">
<title>Node526</title>
<g id="a_node4"><a xlink:href="class_chimera_t_k_1_1async_1_1_variable_distributor.html" target="_top" xlink:title=" ">
<polygon fill="white" stroke="black" points="630.5,-410 630.5,-440 781.5,-440 781.5,-410 630.5,-410"/>
<text text-anchor="start" x="638.5" y="-428" font-family="Helvetica,sans-Serif" font-size="10.00">ChimeraTK::async::Variable</text>
<text text-anchor="middle" x="706" y="-417" font-family="Helvetica,sans-Serif" font-size="10.00">Distributor&lt; SourceType &gt;</text>
</a>
</g>
</g>
<!-- Node525&#45;&gt;Node526 -->
<g id="edge3" class="edge">
<title>Node525&#45;&gt;Node526</title>
<path fill="none" stroke="midnightblue" d="M578.56,-425C595.77,-425 613.64,-425 630.32,-425"/>
<polygon fill="midnightblue" stroke="midnightblue" points="578.51,-421.5 568.51,-425 578.51,-428.5 578.51,-421.5"/>
</g>
<!-- Node528 -->
<g id="node6" class="node">
<title>Node528</title>
<g id="a_node6"><a xlink:href="class_chimera_t_k_1_1async_1_1_triggered_poll_distributor.html" target="_top" xlink:title="The TriggeredPollDistributor has std::nullptr_t source data type and is polling the data for the Asyn...">
<polygon fill="white" stroke="black" points="628,-350 628,-380 784,-380 784,-350 628,-350"/>
<text text-anchor="start" x="636" y="-368" font-family="Helvetica,sans-Serif" font-size="10.00">ChimeraTK::async::Triggered</text>
<text text-anchor="middle" x="706" y="-357" font-family="Helvetica,sans-Serif" font-size="10.00">PollDistributor</text>
</a>
</g>
</g>
<!-- Node527&#45;&gt;Node528 -->
<g id="edge5" class="edge">
<title>Node527&#45;&gt;Node528</title>
<path fill="none" stroke="midnightblue" d="M578.6,-365C594.94,-365 611.87,-365 627.82,-365"/>
<polygon fill="midnightblue" stroke="midnightblue" points="578.51,-361.5 568.51,-365 578.51,-368.5 578.51,-361.5"/>
</g>
<!-- Node530 -->
<g id="node8" class="node">
<title>Node530</title>
<g id="a_node8"><a xlink:href="class_chimera_t_k_1_1async_1_1_domain_impl.html" target="_top" xlink:title=" ">
<polygon fill="white" stroke="black" points="413.5,-295 413.5,-325 562.5,-325 562.5,-295 413.5,-295"/>
<text text-anchor="start" x="421.5" y="-313" font-family="Helvetica,sans-Serif" font-size="10.00">ChimeraTK::async::Domain</text>
<text text-anchor="middle" x="488" y="-302" font-family="Helvetica,sans-Serif" font-size="10.00">Impl&lt; BackendDataType &gt;</text>
</a>
</g>
</g>
<!-- Node529&#45;&gt;Node530 -->
<g id="edge7" class="edge">
<title>Node529&#45;&gt;Node530</title>
<path fill="none" stroke="midnightblue" d="M353.37,-301.4C373.17,-302.67 394.13,-304.02 413.44,-305.27"/>
<polygon fill="midnightblue" stroke="midnightblue" points="353.34,-297.89 343.14,-300.74 352.89,-304.87 353.34,-297.89"/>
</g>
<!-- Node532 -->
<g id="node10" class="node">
<title>Node532</title>
<g id="a_node10"><a xlink:href="class_chimera_t_k_1_1async_1_1_dummy_muxed_interrupt_distributor.html" target="_top" xlink:title=" ">
<polygon fill="white" stroke="black" points="397,-246 397,-276 579,-276 579,-246 397,-246"/>
<text text-anchor="start" x="405" y="-264" font-family="Helvetica,sans-Serif" font-size="10.00">ChimeraTK::async::DummyMuxed</text>
<text text-anchor="middle" x="488" y="-253" font-family="Helvetica,sans-Serif" font-size="10.00">InterruptDistributor</text>
</a>
</g>
</g>
<!-- Node531&#45;&gt;Node532 -->
<g id="edge9" class="edge">
<title>Node531&#45;&gt;Node532</title>
<path fill="none" stroke="midnightblue" d="M371.15,-248.22C379.74,-249.16 388.39,-250.12 396.89,-251.06"/>
<polygon fill="midnightblue" stroke="midnightblue" points="371.43,-244.73 361.11,-247.11 370.66,-251.68 371.43,-244.73"/>
</g>
<!-- Node533 -->
<g id="node11" class="node">
<title>Node533</title>
<g id="a_node11"><a xlink:href="class_chimera_t_k_1_1async_1_1_generic_muxed_interrupt_distributor.html" target="_top" xlink:title=" ">
<polygon fill="white" stroke="black" points="413.5,-197 413.5,-227 562.5,-227 562.5,-197 413.5,-197"/>
<text text-anchor="start" x="421.5" y="-215" font-family="Helvetica,sans-Serif" font-size="10.00">ChimeraTK::async::Generic</text>
<text text-anchor="middle" x="488" y="-204" font-family="Helvetica,sans-Serif" font-size="10.00">MuxedInterruptDistributor</text>
</a>
</g>
</g>
<!-- Node531&#45;&gt;Node533 -->
<g id="edge10" class="edge">
<title>Node531&#45;&gt;Node533</title>
<path fill="none" stroke="midnightblue" d="M371.37,-225.29C385.51,-223.67 399.82,-222.02 413.31,-220.47"/>
<polygon fill="midnightblue" stroke="midnightblue" points="370.64,-221.85 361.11,-226.47 371.44,-228.81 370.64,-221.85"/>
</g>
<!-- Node535 -->
<g id="node13" class="node">
<title>Node535</title>
<g id="a_node13"><a xlink:href="class_chimera_t_k_1_1_device_backend_impl.html" target="_top" xlink:title="DeviceBackendImpl implements some basic functionality which should be available for all backends.">
<polygon fill="white" stroke="black" points="401.5,-158.5 401.5,-177.5 574.5,-177.5 574.5,-158.5 401.5,-158.5"/>
<text text-anchor="middle" x="488" y="-165.5" font-family="Helvetica,sans-Serif" font-size="10.00">ChimeraTK::DeviceBackendImpl</text>
</a>
</g>
</g>
<!-- Node534&#45;&gt;Node535 -->
<g id="edge12" class="edge">
<title>Node534&#45;&gt;Node535</title>
<path fill="none" stroke="midnightblue" d="M354.64,-175.3C370,-174.46 386.02,-173.57 401.39,-172.72"/>
<polygon fill="midnightblue" stroke="midnightblue" points="354.45,-171.81 344.66,-175.85 354.83,-178.8 354.45,-171.81"/>
</g>
<!-- Node536 -->
<g id="node14" class="node">
<title>Node536</title>
<g id="a_node14"><a xlink:href="class_async_test_dummy.html" target="_top" xlink:title=" ">
<polygon fill="white" stroke="black" points="654,-273.5 654,-292.5 758,-292.5 758,-273.5 654,-273.5"/>
<text text-anchor="middle" x="706" y="-280.5" font-family="Helvetica,sans-Serif" font-size="10.00">AsyncTestDummy</text>
</a>
</g>
</g>
<!-- Node535&#45;&gt;Node536 -->
<g id="edge13" class="edge">
<title>Node535&#45;&gt;Node536</title>
<path fill="none" stroke="midnightblue" d="M570.15,-182.04C573.26,-183.81 576.23,-185.79 579,-188 608.21,-211.31 585.66,-240.84 615,-264 626.03,-272.71 640.11,-277.67 653.84,-280.44"/>
<polygon fill="midnightblue" stroke="midnightblue" points="571.58,-178.84 561.06,-177.58 568.5,-185.13 571.58,-178.84"/>
</g>
<!-- Node537 -->
<g id="node15" class="node">
<title>Node537</title>
<g id="a_node15"><a xlink:href="class_chimera_t_k_1_1_logical_name_mapping_backend.html" target="_top" xlink:title="Backend to map logical register names onto real hardware registers.">
<polygon fill="white" stroke="black" points="615,-224 615,-254 797,-254 797,-224 615,-224"/>
<text text-anchor="start" x="623" y="-242" font-family="Helvetica,sans-Serif" font-size="10.00">ChimeraTK::LogicalNameMapping</text>
<text text-anchor="middle" x="706" y="-231" font-family="Helvetica,sans-Serif" font-size="10.00">Backend</text>
</a>
</g>
</g>
<!-- Node535&#45;&gt;Node537 -->
<g id="edge14" class="edge">
<title>Node535&#45;&gt;Node537</title>
<path fill="none" stroke="midnightblue" d="M558.45,-180.28C565.53,-182.46 572.5,-185.01 579,-188 597.17,-196.36 597.01,-206.26 615,-215 621.98,-218.39 629.51,-221.35 637.13,-223.93"/>
<polygon fill="midnightblue" stroke="midnightblue" points="559.33,-176.89 548.76,-177.53 557.42,-183.62 559.33,-176.89"/>
</g>
<!-- Node538 -->
<g id="node16" class="node">
<title>Node538</title>
<g id="a_node16"><a xlink:href="class_chimera_t_k_1_1_numeric_addressed_backend.html" target="_top" xlink:title="Base class for address&#45;based device backends (e.g.">
<polygon fill="white" stroke="black" points="621.5,-175 621.5,-205 790.5,-205 790.5,-175 621.5,-175"/>
<text text-anchor="start" x="629.5" y="-193" font-family="Helvetica,sans-Serif" font-size="10.00">ChimeraTK::NumericAddressed</text>
<text text-anchor="middle" x="706" y="-182" font-family="Helvetica,sans-Serif" font-size="10.00">Backend</text>
</a>
</g>
</g>
<!-- Node535&#45;&gt;Node538 -->
<g id="edge15" class="edge">
<title>Node535&#45;&gt;Node538</title>
<path fill="none" stroke="midnightblue" d="M584.8,-177.76C596.93,-178.99 609.27,-180.25 621.19,-181.46"/>
<polygon fill="midnightblue" stroke="midnightblue" points="584.98,-174.26 574.68,-176.73 584.27,-181.22 584.98,-174.26"/>
</g>
<!-- Node561 -->
<g id="node40" class="node">
<title>Node561</title>
<g id="a_node40"><a xlink:href="class_chimera_t_k_1_1_subdevice_backend.html" target="_top" xlink:title="Backend for subdevices which are passed through some register or area of another device (subsequently...">
<polygon fill="white" stroke="black" points="622,-136.5 622,-155.5 790,-155.5 790,-136.5 622,-136.5"/>
<text text-anchor="middle" x="706" y="-143.5" font-family="Helvetica,sans-Serif" font-size="10.00">ChimeraTK::SubdeviceBackend</text>
</a>
</g>
</g>
<!-- Node535&#45;&gt;Node561 -->
<g id="edge39" class="edge">
<title>Node535&#45;&gt;Node561</title>
<path fill="none" stroke="midnightblue" d="M584.96,-158.23C597.28,-156.97 609.8,-155.7 621.89,-154.46"/>
<polygon fill="midnightblue" stroke="midnightblue" points="584.27,-154.78 574.68,-159.27 584.98,-161.74 584.27,-154.78"/>
</g>
<!-- Node562 -->
<g id="node41" class="node">
<title>Node562</title>
<g id="a_node41"><a xlink:href="struct_chimera_t_k_1_1_unified_backend_test_1_1_exception_reporting_backend.html" target="_top" xlink:title="Special DeviceBackend used for testing the exception reporting to the backend.">
<polygon fill="white" stroke="black" points="615,-76.5 615,-117.5 797,-117.5 797,-76.5 615,-76.5"/>
<text text-anchor="start" x="623" y="-105.5" font-family="Helvetica,sans-Serif" font-size="10.00">ChimeraTK::UnifiedBackend</text>
<text text-anchor="start" x="623" y="-94.5" font-family="Helvetica,sans-Serif" font-size="10.00">Test&lt; VECTOR_OF_REGISTERS</text>
<text text-anchor="middle" x="706" y="-83.5" font-family="Helvetica,sans-Serif" font-size="10.00">_T &gt;::ExceptionReportingBackend</text>
</a>
</g>
</g>
<!-- Node535&#45;&gt;Node562 -->
<g id="edge40" class="edge">
<title>Node535&#45;&gt;Node562</title>
<path fill="none" stroke="midnightblue" d="M558.17,-155.92C565.31,-153.93 572.37,-151.64 579,-149 596.43,-142.07 598,-134.9 615,-127 622.17,-123.67 629.81,-120.53 637.5,-117.63"/>
<polygon fill="midnightblue" stroke="midnightblue" points="557.23,-152.55 548.43,-158.46 558.99,-159.33 557.23,-152.55"/>
</g>
<!-- Node563 -->
<g id="node42" class="node">
<title>Node563</title>
<g id="a_node42"><a xlink:href="class_example_backend.html" target="_top" xlink:title="An Example to show how to write a backend device class and add it to the factory.">
<polygon fill="white" stroke="black" points="655.5,-38.5 655.5,-57.5 756.5,-57.5 756.5,-38.5 655.5,-38.5"/>
<text text-anchor="middle" x="706" y="-45.5" font-family="Helvetica,sans-Serif" font-size="10.00">ExampleBackend</text>
</a>
</g>
</g>
<!-- Node535&#45;&gt;Node563 -->
<g id="edge41" class="edge">
<title>Node535&#45;&gt;Node563</title>
<path fill="none" stroke="midnightblue" d="M572.51,-153.62C574.77,-152.21 576.94,-150.67 579,-149 609.88,-123.89 584.12,-92.11 615,-67 626.28,-57.83 640.91,-52.78 655.08,-50.08"/>
<polygon fill="midnightblue" stroke="midnightblue" points="570.59,-150.68 563.4,-158.46 573.87,-156.86 570.59,-150.68"/>
</g>
<!-- Node539 -->
<g id="node17" class="node">
<title>Node539</title>
<g id="a_node17"><a xlink:href="class_chimera_t_k_1_1_dummy_backend_base.html" target="_top" xlink:title="Base class for DummyBackends, provides common functionality.">
<polygon fill="white" stroke="black" points="833,-237.5 833,-256.5 1014,-256.5 1014,-237.5 833,-237.5"/>
<text text-anchor="middle" x="923.5" y="-244.5" font-family="Helvetica,sans-Serif" font-size="10.00">ChimeraTK::DummyBackendBase</text>
</a>
</g>
</g>
<!-- Node538&#45;&gt;Node539 -->
<g id="edge16" class="edge">
<title>Node538&#45;&gt;Node539</title>
<path fill="none" stroke="midnightblue" d="M773.49,-207.86C781.44,-210.17 789.42,-212.58 797,-215 813.21,-220.17 816.64,-223.33 833,-228 845.37,-231.53 858.88,-234.73 871.56,-237.45"/>
<polygon fill="midnightblue" stroke="midnightblue" points="774.42,-204.48 763.85,-205.09 772.49,-211.21 774.42,-204.48"/>
</g>
<!-- Node558 -->
<g id="node36" class="node">
<title>Node558</title>
<g id="a_node36"><a xlink:href="class_chimera_t_k_1_1_pcie_backend.html" target="_top" xlink:title="A class to provide the Pcie device functionality.">
<polygon fill="white" stroke="black" points="854.5,-199.5 854.5,-218.5 992.5,-218.5 992.5,-199.5 854.5,-199.5"/>
<text text-anchor="middle" x="923.5" y="-206.5" font-family="Helvetica,sans-Serif" font-size="10.00">ChimeraTK::PcieBackend</text>
</a>
</g>
</g>
<!-- Node538&#45;&gt;Node558 -->
<g id="edge35" class="edge">
<title>Node538&#45;&gt;Node558</title>
<path fill="none" stroke="midnightblue" d="M800.83,-198.27C818.79,-199.86 837.28,-201.49 854.25,-202.98"/>
<polygon fill="midnightblue" stroke="midnightblue" points="800.9,-194.76 790.63,-197.37 800.28,-201.74 800.9,-194.76"/>
</g>
<!-- Node559 -->
<g id="node37" class="node">
<title>Node559</title>
<g id="a_node37"><a xlink:href="class_chimera_t_k_1_1_rebot_backend.html" target="_top" xlink:title=" ">
<polygon fill="white" stroke="black" points="850.5,-161.5 850.5,-180.5 996.5,-180.5 996.5,-161.5 850.5,-161.5"/>
<text text-anchor="middle" x="923.5" y="-168.5" font-family="Helvetica,sans-Serif" font-size="10.00">ChimeraTK::RebotBackend</text>
</a>
</g>
</g>
<!-- Node538&#45;&gt;Node559 -->
<g id="edge36" class="edge">
<title>Node538&#45;&gt;Node559</title>
<path fill="none" stroke="midnightblue" d="M800.9,-181.72C817.52,-180.26 834.58,-178.75 850.48,-177.35"/>
<polygon fill="midnightblue" stroke="midnightblue" points="800.28,-178.26 790.63,-182.63 800.9,-185.24 800.28,-178.26"/>
</g>
<!-- Node560 -->
<g id="node38" class="node">
<title>Node560</title>
<g id="a_node38"><a xlink:href="class_chimera_t_k_1_1_uio_backend.html" target="_top" xlink:title=" ">
<polygon fill="white" stroke="black" points="856.5,-123.5 856.5,-142.5 990.5,-142.5 990.5,-123.5 856.5,-123.5"/>
<text text-anchor="middle" x="923.5" y="-130.5" font-family="Helvetica,sans-Serif" font-size="10.00">ChimeraTK::UioBackend</text>
</a>
</g>
</g>
<!-- Node538&#45;&gt;Node560 -->
<g id="edge37" class="edge">
<title>Node538&#45;&gt;Node560</title>
<path fill="none" stroke="midnightblue" d="M773.49,-172.14C781.44,-169.83 789.42,-167.42 797,-165 813.21,-159.83 816.64,-156.67 833,-152 845.37,-148.47 858.88,-145.27 871.56,-142.55"/>
<polygon fill="midnightblue" stroke="midnightblue" points="772.49,-168.79 763.85,-174.91 774.42,-175.52 772.49,-168.79"/>
</g>
<!-- Node362 -->
<g id="node39" class="node">
<title>Node362</title>
<g id="a_node39"><a xlink:href="class_chimera_t_k_1_1_xdma_backend.html" target="_top" xlink:title=" ">
<polygon fill="white" stroke="black" points="850.5,-71.5 850.5,-90.5 996.5,-90.5 996.5,-71.5 850.5,-71.5"/>
<text text-anchor="middle" x="923.5" y="-78.5" font-family="Helvetica,sans-Serif" font-size="10.00">ChimeraTK::XdmaBackend</text>
</a>
</g>
</g>
<!-- Node538&#45;&gt;Node362 -->
<g id="edge38" class="edge">
<title>Node538&#45;&gt;Node362</title>
<path fill="none" stroke="midnightblue" d="M788.46,-170.31C791.42,-168.68 794.28,-166.91 797,-165 819.68,-149.03 810.99,-130.89 833,-114 847.06,-103.21 865,-95.67 881.12,-90.56"/>
<polygon fill="midnightblue" stroke="midnightblue" points="786.74,-167.26 779.31,-174.82 789.83,-173.54 786.74,-167.26"/>
</g>
<!-- Node540 -->
<g id="node18" class="node">
<title>Node540</title>
<g id="a_node18"><a xlink:href="class_chimera_t_k_1_1_dummy_backend.html" target="_top" xlink:title="The dummy device opens a mapping file instead of a device, and implements all registers defined in th...">
<polygon fill="white" stroke="black" points="1067,-256.5 1067,-275.5 1224,-275.5 1224,-256.5 1067,-256.5"/>
<text text-anchor="middle" x="1145.5" y="-263.5" font-family="Helvetica,sans-Serif" font-size="10.00">ChimeraTK::DummyBackend</text>
</a>
</g>
</g>
<!-- Node539&#45;&gt;Node540 -->
<g id="edge17" class="edge">
<title>Node539&#45;&gt;Node540</title>
<path fill="none" stroke="midnightblue" d="M1024.6,-255.65C1038.82,-256.87 1053.26,-258.12 1066.96,-259.3"/>
<polygon fill="midnightblue" stroke="midnightblue" points="1024.56,-252.13 1014.3,-254.76 1023.96,-259.1 1024.56,-252.13"/>
</g>
<!-- Node557 -->
<g id="node35" class="node">
<title>Node557</title>
<g id="a_node35"><a xlink:href="class_chimera_t_k_1_1_shared_dummy_backend.html" target="_top" xlink:title="The shared dummy device opens a mapping file defining the registers and implements them in shared mem...">
<polygon fill="white" stroke="black" points="1050,-218.5 1050,-237.5 1241,-237.5 1241,-218.5 1050,-218.5"/>
<text text-anchor="middle" x="1145.5" y="-225.5" font-family="Helvetica,sans-Serif" font-size="10.00">ChimeraTK::SharedDummyBackend</text>
</a>
</g>
</g>
<!-- Node539&#45;&gt;Node557 -->
<g id="edge34" class="edge">
<title>Node539&#45;&gt;Node557</title>
<path fill="none" stroke="midnightblue" d="M1024.29,-238.38C1032.84,-237.64 1041.47,-236.9 1049.98,-236.16"/>
<polygon fill="midnightblue" stroke="midnightblue" points="1023.96,-234.9 1014.3,-239.24 1024.56,-241.87 1023.96,-234.9"/>
</g>
<!-- Node541 -->
<g id="node19" class="node">
<title>Node541</title>
<g id="a_node19"><a xlink:href="struct_another_working_backend.html" target="_top" xlink:title=" ">
<polygon fill="white" stroke="black" points="1303,-484.5 1303,-503.5 1439,-503.5 1439,-484.5 1303,-484.5"/>
<text text-anchor="middle" x="1371" y="-491.5" font-family="Helvetica,sans-Serif" font-size="10.00">AnotherWorkingBackend</text>
</a>
</g>
</g>
<!-- Node540&#45;&gt;Node541 -->
<g id="edge18" class="edge">
<title>Node540&#45;&gt;Node541</title>
<path fill="none" stroke="midnightblue" d="M1152.69,-285.44C1167.13,-327.38 1207.19,-426.51 1277,-475 1284.71,-480.36 1293.6,-484.27 1302.76,-487.12"/>
<polygon fill="midnightblue" stroke="midnightblue" points="1155.98,-284.24 1149.5,-275.85 1149.34,-286.45 1155.98,-284.24"/>
</g>
<!-- Node542 -->
<g id="node20" class="node">
<title>Node542</title>
<g id="a_node20"><a xlink:href="class_chimera_t_k_1_1_exception_dummy.html" target="_top" xlink:title=" ">
<polygon fill="white" stroke="black" points="1289,-446.5 1289,-465.5 1453,-465.5 1453,-446.5 1289,-446.5"/>
<text text-anchor="middle" x="1371" y="-453.5" font-family="Helvetica,sans-Serif" font-size="10.00">ChimeraTK::ExceptionDummy</text>
</a>
</g>
</g>
<!-- Node540&#45;&gt;Node542 -->
<g id="edge19" class="edge">
<title>Node540&#45;&gt;Node542</title>
<path fill="none" stroke="midnightblue" d="M1155.24,-285.04C1172.8,-321 1215.96,-398.71 1277,-437 1283.14,-440.85 1289.92,-443.94 1296.93,-446.42"/>
<polygon fill="midnightblue" stroke="midnightblue" points="1158.25,-283.22 1150.8,-275.69 1151.93,-286.22 1158.25,-283.22"/>
</g>
<!-- Node546 -->
<g id="node24" class="node">
<title>Node546</title>
<g id="a_node24"><a xlink:href="class_custom_backend.html" target="_top" xlink:title=" ">
<polygon fill="white" stroke="black" points="1323.5,-408.5 1323.5,-427.5 1418.5,-427.5 1418.5,-408.5 1323.5,-408.5"/>
<text text-anchor="middle" x="1371" y="-415.5" font-family="Helvetica,sans-Serif" font-size="10.00">CustomBackend</text>
</a>
</g>
</g>
<!-- Node540&#45;&gt;Node546 -->
<g id="edge23" class="edge">
<title>Node540&#45;&gt;Node546</title>
<path fill="none" stroke="midnightblue" d="M1158.62,-284C1179.26,-313.14 1224.18,-370.27 1277,-399 1291.04,-406.64 1307.79,-411.22 1323.19,-413.96"/>
<polygon fill="midnightblue" stroke="midnightblue" points="1161.37,-281.82 1152.79,-275.59 1155.61,-285.81 1161.37,-281.82"/>
</g>
<!-- Node547 -->
<g id="node25" class="node">
<title>Node547</title>
<g id="a_node25"><a xlink:href="struct_dummy_for_area_handshake_backend.html" target="_top" xlink:title=" ">
<polygon fill="white" stroke="black" points="1277,-370.5 1277,-389.5 1465,-389.5 1465,-370.5 1277,-370.5"/>
<text text-anchor="middle" x="1371" y="-377.5" font-family="Helvetica,sans-Serif" font-size="10.00">DummyForAreaHandshakeBackend</text>
</a>
</g>
</g>
<!-- Node540&#45;&gt;Node547 -->
<g id="edge24" class="edge">
<title>Node540&#45;&gt;Node547</title>
<path fill="none" stroke="midnightblue" d="M1163.82,-282.45C1187.46,-303.94 1232.04,-341.17 1277,-361 1285.75,-364.86 1295.3,-367.94 1304.85,-370.41"/>
<polygon fill="midnightblue" stroke="midnightblue" points="1166.08,-279.78 1156.36,-275.56 1161.33,-284.92 1166.08,-279.78"/>
</g>
<!-- Node548 -->
<g id="node26" class="node">
<title>Node548</title>
<g id="a_node26"><a xlink:href="class_invalid_dummy_backend.html" target="_top" xlink:title=" ">
<polygon fill="white" stroke="black" points="1306,-332.5 1306,-351.5 1436,-351.5 1436,-332.5 1306,-332.5"/>
<text text-anchor="middle" x="1371" y="-339.5" font-family="Helvetica,sans-Serif" font-size="10.00">InvalidDummyBackend</text>
</a>
</g>
</g>
<!-- Node540&#45;&gt;Node548 -->
<g id="edge25" class="edge">
<title>Node540&#45;&gt;Node548</title>
<path fill="none" stroke="midnightblue" d="M1174.26,-280.17C1200.24,-292.93 1240.43,-311.42 1277,-323 1288.63,-326.68 1301.3,-329.82 1313.45,-332.43"/>
<polygon fill="midnightblue" stroke="midnightblue" points="1175.55,-276.9 1165.04,-275.59 1172.44,-283.17 1175.55,-276.9"/>
</g>
<!-- Node549 -->
<g id="node27" class="node">
<title>Node549</title>
<g id="a_node27"><a xlink:href="struct_new_backend.html" target="_top" xlink:title=" ">
<polygon fill="white" stroke="black" points="1331,-294.5 1331,-313.5 1411,-313.5 1411,-294.5 1331,-294.5"/>
<text text-anchor="middle" x="1371" y="-301.5" font-family="Helvetica,sans-Serif" font-size="10.00">NewBackend</text>
</a>
</g>
</g>
<!-- Node540&#45;&gt;Node549 -->
<g id="edge26" class="edge">
<title>Node540&#45;&gt;Node549</title>
<path fill="none" stroke="midnightblue" d="M1212.68,-277.25C1251.1,-283.78 1298.17,-291.79 1330.77,-297.33"/>
<polygon fill="midnightblue" stroke="midnightblue" points="1213.06,-273.77 1202.61,-275.54 1211.88,-280.67 1213.06,-273.77"/>
</g>
<!-- Node550 -->
<g id="node28" class="node">
<title>Node550</title>
<g id="a_node28"><a xlink:href="struct_not_registering_plugin.html" target="_top" xlink:title="This backend does register, so loading the plugin will go wrong.">
<polygon fill="white" stroke="black" points="1311.5,-256.5 1311.5,-275.5 1430.5,-275.5 1430.5,-256.5 1311.5,-256.5"/>
<text text-anchor="middle" x="1371" y="-263.5" font-family="Helvetica,sans-Serif" font-size="10.00">NotRegisteringPlugin</text>
</a>
</g>
</g>
<!-- Node540&#45;&gt;Node550 -->
<g id="edge27" class="edge">
<title>Node540&#45;&gt;Node550</title>
<path fill="none" stroke="midnightblue" d="M1234.23,-266C1260.07,-266 1287.72,-266 1311.28,-266"/>
<polygon fill="midnightblue" stroke="midnightblue" points="1234.04,-262.5 1224.04,-266 1234.04,-269.5 1234.04,-262.5"/>
</g>
<!-- Node551 -->
<g id="node29" class="node">
<title>Node551</title>
<g id="a_node29"><a xlink:href="class_testable_dummy_backend.html" target="_top" xlink:title="The TestableDummybackend is derived from DummyBackend to get access to the protected members.">
<polygon fill="white" stroke="black" points="1302.5,-218.5 1302.5,-237.5 1439.5,-237.5 1439.5,-218.5 1302.5,-218.5"/>
<text text-anchor="middle" x="1371" y="-225.5" font-family="Helvetica,sans-Serif" font-size="10.00">TestableDummyBackend</text>
</a>
</g>
</g>
<!-- Node540&#45;&gt;Node551 -->
<g id="edge28" class="edge">
<title>Node540&#45;&gt;Node551</title>
<path fill="none" stroke="midnightblue" d="M1212.82,-254.72C1244.97,-249.26 1283.18,-242.76 1313.87,-237.54"/>
<polygon fill="midnightblue" stroke="midnightblue" points="1211.88,-251.33 1202.61,-256.46 1213.06,-258.23 1211.88,-251.33"/>
</g>
<!-- Node552 -->
<g id="node30" class="node">
<title>Node552</title>
<g id="a_node30"><a xlink:href="class_test_dummy.html" target="_top" xlink:title=" ">
<polygon fill="white" stroke="black" points="1333.5,-180.5 1333.5,-199.5 1408.5,-199.5 1408.5,-180.5 1333.5,-180.5"/>
<text text-anchor="middle" x="1371" y="-187.5" font-family="Helvetica,sans-Serif" font-size="10.00">TestDummy</text>
</a>
</g>
</g>
<!-- Node540&#45;&gt;Node552 -->
<g id="edge29" class="edge">
<title>Node540&#45;&gt;Node552</title>
<path fill="none" stroke="midnightblue" d="M1227.86,-253.12C1232.41,-251.34 1236.83,-249.31 1241,-247 1261.36,-235.74 1256.66,-220.3 1277,-209 1294.14,-199.48 1315.44,-194.7 1333.33,-192.32"/>
<polygon fill="midnightblue" stroke="midnightblue" points="1226.64,-249.84 1218.36,-256.46 1228.95,-256.45 1226.64,-249.84"/>
</g>
<!-- Node553 -->
<g id="node31" class="node">
<title>Node553</title>
<g id="a_node31"><a xlink:href="struct_working_backend.html" target="_top" xlink:title=" ">
<polygon fill="white" stroke="black" points="1322,-142.5 1322,-161.5 1420,-161.5 1420,-142.5 1322,-142.5"/>
<text text-anchor="middle" x="1371" y="-149.5" font-family="Helvetica,sans-Serif" font-size="10.00">WorkingBackend</text>
</a>
</g>
</g>
<!-- Node540&#45;&gt;Node553 -->
<g id="edge30" class="edge">
<title>Node540&#45;&gt;Node553</title>
<path fill="none" stroke="midnightblue" d="M1233.12,-252.31C1235.87,-250.71 1238.51,-248.95 1241,-247 1270.45,-223.98 1247.59,-194.06 1277,-171 1289.71,-161.03 1306.32,-155.92 1321.97,-153.39"/>
<polygon fill="midnightblue" stroke="midnightblue" points="1231.39,-249.26 1224,-256.85 1234.52,-255.52 1231.39,-249.26"/>
</g>
<!-- Node554 -->
<g id="node32" class="node">
<title>Node554</title>
<g id="a_node32"><a xlink:href="struct_write_counting_backend.html" target="_top" xlink:title=" ">
<polygon fill="white" stroke="black" points="1307,-104.5 1307,-123.5 1435,-123.5 1435,-104.5 1307,-104.5"/>
<text text-anchor="middle" x="1371" y="-111.5" font-family="Helvetica,sans-Serif" font-size="10.00">WriteCountingBackend</text>
</a>
</g>
</g>
<!-- Node540&#45;&gt;Node554 -->
<g id="edge31" class="edge">
<title>Node540&#45;&gt;Node554</title>
<path fill="none" stroke="midnightblue" d="M1233.01,-253.03C1235.83,-251.24 1238.51,-249.24 1241,-247 1280.53,-211.5 1237.52,-168.56 1277,-133 1285.33,-125.5 1295.79,-120.64 1306.67,-117.56"/>
<polygon fill="midnightblue" stroke="midnightblue" points="1231.31,-249.97 1224.16,-257.8 1234.63,-256.14 1231.31,-249.97"/>
</g>
<!-- Node555 -->
<g id="node33" class="node">
<title>Node555</title>
<g id="a_node33"><a xlink:href="class_write_monitoring_backend.html" target="_top" xlink:title=" ">
<polygon fill="white" stroke="black" points="1302.5,-66.5 1302.5,-85.5 1439.5,-85.5 1439.5,-66.5 1302.5,-66.5"/>
<text text-anchor="middle" x="1371" y="-73.5" font-family="Helvetica,sans-Serif" font-size="10.00">WriteMonitoringBackend</text>
</a>
</g>
</g>
<!-- Node540&#45;&gt;Node555 -->
<g id="edge32" class="edge">
<title>Node540&#45;&gt;Node555</title>
<path fill="none" stroke="midnightblue" d="M1233.02,-253.4C1235.86,-251.51 1238.53,-249.38 1241,-247 1290.92,-198.75 1227.15,-143.32 1277,-95 1284.1,-88.12 1292.98,-83.42 1302.42,-80.26"/>
<polygon fill="midnightblue" stroke="midnightblue" points="1231.09,-250.46 1224.06,-258.4 1234.5,-256.58 1231.09,-250.46"/>
</g>
<!-- Node556 -->
<g id="node34" class="node">
<title>Node556</title>
<g id="a_node34"><a xlink:href="struct_wrong_version_backend.html" target="_top" xlink:title=" ">
<polygon fill="white" stroke="black" points="1308.5,-28.5 1308.5,-47.5 1433.5,-47.5 1433.5,-28.5 1308.5,-28.5"/>
<text text-anchor="middle" x="1371" y="-35.5" font-family="Helvetica,sans-Serif" font-size="10.00">WrongVersionBackend</text>
</a>
</g>
</g>
<!-- Node540&#45;&gt;Node556 -->
<g id="edge33" class="edge">
<title>Node540&#45;&gt;Node556</title>
<path fill="none" stroke="midnightblue" d="M1233.16,-253.54C1235.96,-251.61 1238.59,-249.44 1241,-247 1301.43,-185.89 1216.66,-118.21 1277,-57 1285.45,-48.43 1296.64,-43.21 1308.32,-40.11"/>
<polygon fill="midnightblue" stroke="midnightblue" points="1231.22,-250.61 1224.3,-258.63 1234.71,-256.68 1231.22,-250.61"/>
</g>
<!-- Node543 -->
<g id="node21" class="node">
<title>Node543</title>
<g id="a_node21"><a xlink:href="class_decorator_backend.html" target="_top" xlink:title=" ">
<polygon fill="white" stroke="black" points="1522.5,-484.5 1522.5,-503.5 1628.5,-503.5 1628.5,-484.5 1522.5,-484.5"/>
<text text-anchor="middle" x="1575.5" y="-491.5" font-family="Helvetica,sans-Serif" font-size="10.00">DecoratorBackend</text>
</a>
</g>
</g>
<!-- Node542&#45;&gt;Node543 -->
<g id="edge20" class="edge">
<title>Node542&#45;&gt;Node543</title>
<path fill="none" stroke="midnightblue" d="M1432.85,-467.42C1461.82,-472.86 1496.08,-479.28 1523.64,-484.46"/>
<polygon fill="midnightblue" stroke="midnightblue" points="1433.31,-463.94 1422.84,-465.54 1432.02,-470.82 1433.31,-463.94"/>
</g>
<!-- Node544 -->
<g id="node22" class="node">
<title>Node544</title>
<g id="a_node22"><a xlink:href="struct_dummy_for_cleanup_check.html" target="_top" xlink:title=" ">
<polygon fill="white" stroke="black" points="1505.5,-446.5 1505.5,-465.5 1645.5,-465.5 1645.5,-446.5 1505.5,-446.5"/>
<text text-anchor="middle" x="1575.5" y="-453.5" font-family="Helvetica,sans-Serif" font-size="10.00">DummyForCleanupCheck</text>
</a>
</g>
</g>
<!-- Node542&#45;&gt;Node544 -->
<g id="edge21" class="edge">
<title>Node542&#45;&gt;Node544</title>
<path fill="none" stroke="midnightblue" d="M1463.4,-456C1477.49,-456 1491.84,-456 1505.34,-456"/>
<polygon fill="midnightblue" stroke="midnightblue" points="1463.2,-452.5 1453.2,-456 1463.2,-459.5 1463.2,-452.5"/>
</g>
<!-- Node545 -->
<g id="node23" class="node">
<title>Node545</title>
<g id="a_node23"><a xlink:href="struct_dummy_for_double_buffering.html" target="_top" xlink:title="dummy backend used for testing the double buffering handshake.">
<polygon fill="white" stroke="black" points="1501,-408.5 1501,-427.5 1650,-427.5 1650,-408.5 1501,-408.5"/>
<text text-anchor="middle" x="1575.5" y="-415.5" font-family="Helvetica,sans-Serif" font-size="10.00">DummyForDoubleBuffering</text>
</a>
</g>
</g>
<!-- Node542&#45;&gt;Node545 -->
<g id="edge22" class="edge">
<title>Node542&#45;&gt;Node545</title>
<path fill="none" stroke="midnightblue" d="M1432.85,-444.58C1461.82,-439.14 1496.08,-432.72 1523.64,-427.54"/>
<polygon fill="midnightblue" stroke="midnightblue" points="1432.02,-441.18 1422.84,-446.46 1433.31,-448.06 1432.02,-441.18"/>
</g>
<!-- Node565 -->
<g id="node44" class="node">
<title>Node565</title>
<g id="a_node44"><a xlink:href="class_chimera_t_k_1_1_numeric_addressed_low_level_transfer_element.html" target="_top" xlink:title="Implementation of the NDRegisterAccessor for NumericAddressedBackends, responsible for the underlying...">
<polygon fill="white" stroke="black" points="403.5,-109 403.5,-139 572.5,-139 572.5,-109 403.5,-109"/>
<text text-anchor="start" x="411.5" y="-127" font-family="Helvetica,sans-Serif" font-size="10.00">ChimeraTK::NumericAddressed</text>
<text text-anchor="middle" x="488" y="-116" font-family="Helvetica,sans-Serif" font-size="10.00">LowLevelTransferElement</text>
</a>
</g>
</g>
<!-- Node564&#45;&gt;Node565 -->
<g id="edge43" class="edge">
<title>Node564&#45;&gt;Node565</title>
<path fill="none" stroke="midnightblue" d="M356.78,-132.98C372.13,-131.92 388.07,-130.82 403.31,-129.77"/>
<polygon fill="midnightblue" stroke="midnightblue" points="356.53,-129.49 346.79,-133.67 357.01,-136.47 356.53,-129.49"/>
</g>
<!-- Node360 -->
<g id="node45" class="node">
<title>Node360</title>
<g id="a_node45"><a xlink:title=" ">
<polygon fill="white" stroke="#bfbfbf" points="666.5,-0.5 666.5,-19.5 745.5,-19.5 745.5,-0.5 666.5,-0.5"/>
<text text-anchor="middle" x="706" y="-7.5" font-family="Helvetica,sans-Serif" font-size="10.00">noncopyable</text>
</a>
</g>
</g>
<!-- Node360&#45;&gt;Node362 -->
<g id="edge45" class="edge">
<title>Node360&#45;&gt;Node362</title>
<path fill="none" stroke="#8b1a1a" d="M755.97,-18.63C769.4,-21.45 783.87,-24.93 797,-29 835.3,-40.87 878.07,-59.9 902.49,-71.35"/>
<polygon fill="#8b1a1a" stroke="#8b1a1a" points="756.44,-15.15 745.94,-16.59 755.05,-22.01 756.44,-15.15"/>
</g>
<!-- Node0 -->
<g id="node46" class="node">
<title>Node0</title>
<g id="a_node46"><a xlink:href="class_chimera_t_k_1_1_device_file.html" target="_top" xlink:title=" ">
<polygon fill="white" stroke="black" points="859.5,-0.5 859.5,-19.5 987.5,-19.5 987.5,-0.5 859.5,-0.5"/>
<text text-anchor="middle" x="923.5" y="-7.5" font-family="Helvetica,sans-Serif" font-size="10.00">ChimeraTK::DeviceFile</text>
</a>
</g>
</g>
<!-- Node360&#45;&gt;Node0 -->
<g id="edge44" class="edge">
<title>Node360&#45;&gt;Node0</title>
<path fill="none" stroke="#8b1a1a" d="M755.56,-10C786.25,-10 826.24,-10 859.39,-10"/>
<polygon fill="#8b1a1a" stroke="#8b1a1a" points="755.53,-6.5 745.53,-10 755.53,-13.5 755.53,-6.5"/>
</g>
</g>
</svg>
