<?xml version="1.0" encoding="UTF-8" standalone="no"?>
<!DOCTYPE svg PUBLIC "-//W3C//DTD SVG 1.1//EN"
 "http://www.w3.org/Graphics/SVG/1.1/DTD/svg11.dtd">
<!-- Generated by graphviz version 2.43.0 (0)
 -->
<!-- Title: ChimeraTK::LNMBackend::BitRangeAccessPluginDecorator::doPreWrite Pages: 1 -->
<svg width="419pt" height="194pt"
 viewBox="0.00 0.00 419.00 193.50" xmlns="http://www.w3.org/2000/svg" xmlns:xlink="http://www.w3.org/1999/xlink">
<g id="graph0" class="graph" transform="scale(1 1) rotate(0) translate(4 189.5)">
<title>ChimeraTK::LNMBackend::BitRangeAccessPluginDecorator::doPreWrite</title>
<!-- Node1 -->
<g id="Node000001" class="node">
<title>Node1</title>
<g id="a_Node000001"><a xlink:title="Backend specific implementation of preWrite().">
<polygon fill="#999999" stroke="#666666" points="179,-119 0,-119 0,-78 179,-78 179,-119"/>
<text text-anchor="start" x="8" y="-107" font-family="Helvetica,sans-Serif" font-size="10.00">ChimeraTK::LNMBackend</text>
<text text-anchor="start" x="8" y="-96" font-family="Helvetica,sans-Serif" font-size="10.00">::BitRangeAccessPluginDecorator</text>
<text text-anchor="middle" x="89.5" y="-85" font-family="Helvetica,sans-Serif" font-size="10.00">::doPreWrite</text>
</a>
</g>
</g>
<!-- Node2 -->
<g id="Node000002" class="node">
<title>Node2</title>
<g id="a_Node000002"><a xlink:href="class_chimera_t_k_1_1_transfer_element.html#ae329d92a5809b75f8ff1cfc0a591231f" target="_top" xlink:title="Returns the name that identifies the process variable.">
<polygon fill="white" stroke="#666666" points="391,-185.5 235,-185.5 235,-155.5 391,-155.5 391,-185.5"/>
<text text-anchor="start" x="243" y="-173.5" font-family="Helvetica,sans-Serif" font-size="10.00">ChimeraTK::TransferElement</text>
<text text-anchor="middle" x="313" y="-162.5" font-family="Helvetica,sans-Serif" font-size="10.00">::getName</text>
</a>
</g>
</g>
<!-- Node1&#45;&gt;Node2 -->
<g id="edge1_Node000001_Node000002" class="edge">
<title>Node1&#45;&gt;Node2</title>
<g id="a_edge1_Node000001_Node000002"><a xlink:title=" ">
<path fill="none" stroke="#63b8ff" d="M139.67,-119.1C162.37,-128.18 189.81,-138.56 215,-146.5 221.94,-148.69 229.21,-150.8 236.51,-152.81"/>
<polygon fill="#63b8ff" stroke="#63b8ff" points="235.9,-156.27 246.47,-155.47 237.71,-149.51 235.9,-156.27"/>
</a>
</g>
</g>
<!-- Node3 -->
<g id="Node000003" class="node">
<title>Node3</title>
<g id="a_Node000003"><a xlink:href="struct_chimera_t_k_1_1_l_n_m_backend_1_1_reference_counted_unique_lock.html#a8606f3a10f891827af710a8339792388" target="_top" xlink:title=" ">
<polygon fill="white" stroke="#666666" points="411,-137.5 215,-137.5 215,-107.5 411,-107.5 411,-137.5"/>
<text text-anchor="start" x="223" y="-125.5" font-family="Helvetica,sans-Serif" font-size="10.00">ChimeraTK::LNMBackend</text>
<text text-anchor="middle" x="313" y="-114.5" font-family="Helvetica,sans-Serif" font-size="10.00">::ReferenceCountedUniqueLock::lock</text>
</a>
</g>
</g>
<!-- Node1&#45;&gt;Node3 -->
<g id="edge2_Node000001_Node000003" class="edge">
<title>Node1&#45;&gt;Node3</title>
<g id="a_edge2_Node000001_Node000003"><a xlink:title=" ">
<path fill="none" stroke="#63b8ff" d="M179.32,-108.12C187.71,-109.03 196.27,-109.96 204.81,-110.89"/>
<polygon fill="#63b8ff" stroke="#63b8ff" points="204.49,-114.37 214.81,-111.97 205.24,-107.41 204.49,-114.37"/>
</a>
</g>
</g>
<!-- Node4 -->
<g id="Node000004" class="node">
<title>Node4</title>
<g id="a_Node000004"><a xlink:href="class_chimera_t_k_1_1_fixed_point_converter.html#a5016ab22288746437b63d087926fcec2" target="_top" xlink:title="Conversion function from type T to fixed point.">
<polygon fill="white" stroke="#666666" points="400.5,-89.5 225.5,-89.5 225.5,-59.5 400.5,-59.5 400.5,-89.5"/>
<text text-anchor="start" x="233.5" y="-77.5" font-family="Helvetica,sans-Serif" font-size="10.00">ChimeraTK::FixedPointConverter</text>
<text text-anchor="middle" x="313" y="-66.5" font-family="Helvetica,sans-Serif" font-size="10.00">::toRaw</text>
</a>
</g>
</g>
<!-- Node1&#45;&gt;Node4 -->
<g id="edge3_Node000001_Node000004" class="edge">
<title>Node1&#45;&gt;Node4</title>
<g id="a_edge3_Node000001_Node000004"><a xlink:title=" ">
<path fill="none" stroke="#63b8ff" d="M179.32,-88.88C191.16,-87.59 203.36,-86.27 215.33,-84.97"/>
<polygon fill="#63b8ff" stroke="#63b8ff" points="215.76,-88.45 225.33,-83.89 215.01,-81.49 215.76,-88.45"/>
</a>
</g>
</g>
<!-- Node5 -->
<g id="Node000005" class="node">
<title>Node5</title>
<g id="a_Node000005"><a xlink:href="struct_chimera_t_k_1_1_l_n_m_backend_1_1_reference_counted_unique_lock.html#acc3032c73acf395694e6f5b5a2eb62d7" target="_top" xlink:title=" ">
<polygon fill="white" stroke="#666666" points="398,-41 228,-41 228,0 398,0 398,-41"/>
<text text-anchor="start" x="236" y="-29" font-family="Helvetica,sans-Serif" font-size="10.00">ChimeraTK::LNMBackend</text>
<text text-anchor="start" x="236" y="-18" font-family="Helvetica,sans-Serif" font-size="10.00">::ReferenceCountedUniqueLock</text>
<text text-anchor="middle" x="313" y="-7" font-family="Helvetica,sans-Serif" font-size="10.00">::useCount</text>
</a>
</g>
</g>
<!-- Node1&#45;&gt;Node5 -->
<g id="edge4_Node000001_Node000005" class="edge">
<title>Node1&#45;&gt;Node5</title>
<g id="a_edge4_Node000001_Node000005"><a xlink:title=" ">
<path fill="none" stroke="#63b8ff" d="M141.4,-77.98C163.83,-69.16 190.6,-58.97 215,-50.5 221.01,-48.41 227.25,-46.32 233.55,-44.26"/>
<polygon fill="#63b8ff" stroke="#63b8ff" points="235.01,-47.47 243.45,-41.06 232.86,-40.81 235.01,-47.47"/>
</a>
</g>
</g>
</g>
</svg>
