<?xml version="1.0" encoding="UTF-8" standalone="no"?>
<!DOCTYPE svg PUBLIC "-//W3C//DTD SVG 1.1//EN"
 "http://www.w3.org/Graphics/SVG/1.1/DTD/svg11.dtd">
<!-- Generated by graphviz version 2.43.0 (0)
 -->
<!-- Title: IntegersSigned32DummyWritable Pages: 1 -->
<svg width="418pt" height="104pt"
 viewBox="0.00 0.00 418.00 104.00" xmlns="http://www.w3.org/2000/svg" xmlns:xlink="http://www.w3.org/1999/xlink">
<g id="graph0" class="graph" transform="scale(1 1) rotate(0) translate(4 100)">
<title>IntegersSigned32DummyWritable</title>
<!-- Node1 -->
<g id="Node000001" class="node">
<title>Node1</title>
<g id="a_Node000001"><a xlink:title=" ">
<polygon fill="#999999" stroke="#666666" points="182,-96 0,-96 0,-77 182,-77 182,-96"/>
<text text-anchor="middle" x="91" y="-84" font-family="Helvetica,sans-Serif" font-size="10.00">IntegersSigned32DummyWritable</text>
</a>
</g>
</g>
<!-- Node2 -->
<g id="Node000002" class="node">
<title>Node2</title>
<g id="a_Node000002"><a xlink:href="struct_integers_base.html" target="_top" xlink:title=" ">
<polygon fill="white" stroke="#666666" points="234,-30 58,-30 58,0 234,0 234,-30"/>
<text text-anchor="start" x="66" y="-18" font-family="Helvetica,sans-Serif" font-size="10.00">IntegersBase&lt; IntegersSigned32</text>
<text text-anchor="middle" x="146" y="-7" font-family="Helvetica,sans-Serif" font-size="10.00">DummyWritable &gt;</text>
</a>
</g>
</g>
<!-- Node1&#45;&gt;Node2 -->
<g id="edge2_Node000002_Node000001" class="edge">
<title>Node1&#45;&gt;Node2</title>
<g id="a_edge2_Node000002_Node000001"><a xlink:title=" ">
<path fill="none" stroke="#9a32cd" stroke-dasharray="5,2" d="M85.31,-66.95C84.41,-60.57 84.68,-53.62 88,-48 92.44,-40.47 99.36,-34.6 106.89,-30.05"/>
<polygon fill="#9a32cd" stroke="#9a32cd" points="81.94,-67.87 87.61,-76.82 88.75,-66.29 81.94,-67.87"/>
</a>
</g>
<text text-anchor="middle" x="108" y="-51" font-family="Helvetica,sans-Serif" font-size="10.00" fill="grey"> derived</text>
</g>
<!-- Node2&#45;&gt;Node1 -->
<g id="edge1_Node000001_Node000002" class="edge">
<title>Node2&#45;&gt;Node1</title>
<g id="a_edge1_Node000001_Node000002"><a xlink:title=" ">
<path fill="none" stroke="#63b8ff" d="M141.26,-40.19C139.18,-46.74 136.21,-53.53 132,-59 126.21,-66.52 117.64,-72.54 109.83,-76.92"/>
<polygon fill="#63b8ff" stroke="#63b8ff" points="144.7,-40.87 143.86,-30.31 137.94,-39.09 144.7,-40.87"/>
</a>
</g>
</g>
<!-- Node3 -->
<g id="Node000003" class="node">
<title>Node3</title>
<g id="a_Node000003"><a xlink:href="struct_integers_base.html" target="_top" xlink:title=" ">
<polygon fill="white" stroke="#666666" points="341.5,-96 200.5,-96 200.5,-77 341.5,-77 341.5,-96"/>
<text text-anchor="middle" x="271" y="-84" font-family="Helvetica,sans-Serif" font-size="10.00">IntegersBase&lt; Derived &gt;</text>
</a>
</g>
</g>
<!-- Node3&#45;&gt;Node2 -->
<g id="edge3_Node000002_Node000003" class="edge">
<title>Node3&#45;&gt;Node2</title>
<g id="a_edge3_Node000002_Node000003"><a xlink:title=" ">
<path fill="none" stroke="orange" stroke-dasharray="5,2" d="M246.77,-72.03C225.1,-59.98 193.45,-42.38 171.43,-30.14"/>
<polygon fill="orange" stroke="orange" points="245.23,-75.18 255.67,-76.98 248.63,-69.06 245.23,-75.18"/>
</a>
</g>
<text text-anchor="middle" x="314.5" y="-51" font-family="Helvetica,sans-Serif" font-size="10.00" fill="grey"> &lt; IntegersSigned32DummyWritable &gt;</text>
</g>
</g>
</svg>
