<?xml version="1.0" encoding="UTF-8" standalone="no"?>
<!DOCTYPE svg PUBLIC "-//W3C//DTD SVG 1.1//EN"
 "http://www.w3.org/Graphics/SVG/1.1/DTD/svg11.dtd">
<!-- Generated by graphviz version 2.43.0 (0)
 -->
<!-- Title: MuxedNodma::nChannels Pages: 1 -->
<svg width="356pt" height="101pt"
 viewBox="0.00 0.00 356.00 101.00" xmlns="http://www.w3.org/2000/svg" xmlns:xlink="http://www.w3.org/1999/xlink">

<svg id="main" version="1.1" xmlns="http://www.w3.org/2000/svg" xmlns:xlink="http://www.w3.org/1999/xlink" xml:space="preserve" onload="init(evt)">
<style type="text/css"><![CDATA[
.node, .edge {opacity: 0.7;}
.node.selected, .edge.selected {opacity: 1;}
.edge:hover path { stroke: red; }
.edge:hover polygon { stroke: red; fill: red; }
]]></style>
<script type="application/ecmascript" xlink:href="svg.min.js"/>
<svg id="graph" class="graph">
<g id="graph0" class="graph" transform="scale(1 1) rotate(0) translate(4 97)">
<title>MuxedNodma::nChannels</title>
<!-- Node1 -->
<g id="Node000001" class="node">
<title>Node1</title>
<g id="a_Node000001"><a xlink:title=" ">
<polygon fill="#999999" stroke="#666666" points="348,-56 207,-56 207,-37 348,-37 348,-56"/>
<text text-anchor="middle" x="277.5" y="-44" font-family="Helvetica,sans-Serif" font-size="10.00">MuxedNodma::nChannels</text>
</a>
</g>
</g>
<!-- Node2 -->
<g id="Node000002" class="node">
<title>Node2</title>
<g id="a_Node000002"><a xlink:href="struct_muxed_nodma.html#af633d4686868a802ce1d86027ea9b8b9" target="_top" xlink:title=" ">
<polygon fill="white" stroke="#666666" points="166,-93 5,-93 5,-74 166,-74 166,-93"/>
<text text-anchor="middle" x="85.5" y="-81" font-family="Helvetica,sans-Serif" font-size="10.00">MuxedNodma::generateValue</text>
</a>
</g>
</g>
<!-- Node1&#45;&gt;Node2 -->
<g id="edge1_Node000001_Node000002" class="edge">
<title>Node1&#45;&gt;Node2</title>
<g id="a_edge1_Node000001_Node000002"><a xlink:title=" ">
<path fill="none" stroke="#63b8ff" d="M217.71,-57.95C191.38,-63.08 160.68,-69.06 135.59,-73.94"/>
<polygon fill="#63b8ff" stroke="#63b8ff" points="218.42,-61.38 227.57,-56.03 217.09,-54.5 218.42,-61.38"/>
</a>
</g>
</g>
<!-- Node3 -->
<g id="Node000003" class="node">
<title>Node3</title>
<g id="a_Node000003"><a xlink:href="struct_muxed_nodma.html#aab00d946f68e4c262be229e8574ee242" target="_top" xlink:title=" ">
<polygon fill="white" stroke="#666666" points="171,-56 0,-56 0,-37 171,-37 171,-56"/>
<text text-anchor="middle" x="85.5" y="-44" font-family="Helvetica,sans-Serif" font-size="10.00">MuxedNodma::getRemoteValue</text>
</a>
</g>
</g>
<!-- Node1&#45;&gt;Node3 -->
<g id="edge2_Node000001_Node000003" class="edge">
<title>Node1&#45;&gt;Node3</title>
<g id="a_edge2_Node000001_Node000003"><a xlink:title=" ">
<path fill="none" stroke="#63b8ff" d="M196.61,-46.5C188.15,-46.5 179.52,-46.5 171.01,-46.5"/>
<polygon fill="#63b8ff" stroke="#63b8ff" points="196.83,-50 206.83,-46.5 196.83,-43 196.83,-50"/>
</a>
</g>
</g>
<!-- Node4 -->
<g id="Node000004" class="node">
<title>Node4</title>
<g id="a_Node000004"><a xlink:href="struct_muxed_nodma.html#aca6baaa1caf8c9d1c7318e029476cb55" target="_top" xlink:title=" ">
<polygon fill="white" stroke="#666666" points="170.5,-19 0.5,-19 0.5,0 170.5,0 170.5,-19"/>
<text text-anchor="middle" x="85.5" y="-7" font-family="Helvetica,sans-Serif" font-size="10.00">MuxedNodma::setRemoteValue</text>
</a>
</g>
</g>
<!-- Node1&#45;&gt;Node4 -->
<g id="edge3_Node000001_Node000004" class="edge">
<title>Node1&#45;&gt;Node4</title>
<g id="a_edge3_Node000001_Node000004"><a xlink:title=" ">
<path fill="none" stroke="#63b8ff" d="M217.71,-35.05C191.38,-29.92 160.68,-23.94 135.59,-19.06"/>
<polygon fill="#63b8ff" stroke="#63b8ff" points="217.09,-38.5 227.57,-36.97 218.42,-31.62 217.09,-38.5"/>
</a>
</g>
</g>
</g>
</svg>
</svg>

<style type='text/css'>
<![CDATA[
[data-mouse-over-selected='false'] { opacity: 0.7; }
[data-mouse-over-selected='true']  { opacity: 1.0; }
]]>
</style>
<script type="application/ecmascript"><![CDATA[
document.addEventListener('DOMContentLoaded', (event) => {
  highlightEdges();
  highlightAdjacentNodes();
});
]]></script>
</svg>
