<?xml version="1.0" encoding="UTF-8" standalone="no"?>
<!DOCTYPE svg PUBLIC "-//W3C//DTD SVG 1.1//EN"
 "http://www.w3.org/Graphics/SVG/1.1/DTD/svg11.dtd">
<!-- Generated by graphviz version 2.43.0 (0)
 -->
<!-- Title: RegVariableAsPushParameterInMath_x Pages: 1 -->
<svg width="1524pt" height="92pt"
 viewBox="0.00 0.00 1524.00 91.50" xmlns="http://www.w3.org/2000/svg" xmlns:xlink="http://www.w3.org/1999/xlink">
<g id="graph0" class="graph" transform="scale(1 1) rotate(0) translate(4 87.5)">
<title>RegVariableAsPushParameterInMath_x</title>
<!-- Node1 -->
<g id="Node000001" class="node">
<title>Node1</title>
<g id="a_Node000001"><a xlink:title=" ">
<polygon fill="#999999" stroke="#666666" points="1516,-59.5 1355,-59.5 1355,-29.5 1516,-29.5 1516,-59.5"/>
<text text-anchor="start" x="1363" y="-47.5" font-family="Helvetica,sans-Serif" font-size="10.00">RegVariableAsPushParameter</text>
<text text-anchor="middle" x="1435.5" y="-36.5" font-family="Helvetica,sans-Serif" font-size="10.00">InMath_x</text>
</a>
</g>
</g>
<!-- Node2 -->
<g id="Node000002" class="node">
<title>Node2</title>
<g id="a_Node000002"><a xlink:href="struct_reg_variable_as_push_parameter_in_math_base.html" target="_top" xlink:title=" ">
<polygon fill="white" stroke="#666666" points="1318,-65 1088,-65 1088,-24 1318,-24 1318,-65"/>
<text text-anchor="start" x="1096" y="-53" font-family="Helvetica,sans-Serif" font-size="10.00">RegVariableAsPushParameter</text>
<text text-anchor="start" x="1096" y="-42" font-family="Helvetica,sans-Serif" font-size="10.00">InMathBase&lt; RegVariableAsPushParameter</text>
<text text-anchor="middle" x="1203" y="-31" font-family="Helvetica,sans-Serif" font-size="10.00">InMath_x, RawToCookedProvider_x &gt;</text>
</a>
</g>
</g>
<!-- Node2&#45;&gt;Node1 -->
<g id="edge1_Node000001_Node000002" class="edge">
<title>Node2&#45;&gt;Node1</title>
<g id="a_edge1_Node000001_Node000002"><a xlink:title=" ">
<path fill="none" stroke="#63b8ff" d="M1328.35,-44.5C1337.29,-44.5 1346.16,-44.5 1354.74,-44.5"/>
<polygon fill="#63b8ff" stroke="#63b8ff" points="1328.24,-41 1318.24,-44.5 1328.24,-48 1328.24,-41"/>
</a>
</g>
</g>
<!-- Node3 -->
<g id="Node000003" class="node">
<title>Node3</title>
<g id="a_Node000003"><a xlink:href="struct_scalar_register_descriptor_base.html" target="_top" xlink:title="Base descriptor for scalars.">
<polygon fill="white" stroke="#666666" points="655,-83.5 518,-83.5 518,-53.5 655,-53.5 655,-83.5"/>
<text text-anchor="start" x="526" y="-71.5" font-family="Helvetica,sans-Serif" font-size="10.00">ScalarRegisterDescriptor</text>
<text text-anchor="middle" x="586.5" y="-60.5" font-family="Helvetica,sans-Serif" font-size="10.00">Base&lt; Derived &gt;</text>
</a>
</g>
</g>
<!-- Node3&#45;&gt;Node2 -->
<g id="edge2_Node000002_Node000003" class="edge">
<title>Node3&#45;&gt;Node2</title>
<g id="a_edge2_Node000002_Node000003"><a xlink:title=" ">
<path fill="none" stroke="#63b8ff" d="M665.21,-67.75C760.61,-66.52 927.31,-63.36 1070,-55.5 1075.86,-55.18 1081.85,-54.81 1087.91,-54.41"/>
<polygon fill="#63b8ff" stroke="#63b8ff" points="665.03,-64.25 655.07,-67.88 665.12,-71.25 665.03,-64.25"/>
</a>
</g>
</g>
<!-- Node4 -->
<g id="Node000004" class="node">
<title>Node4</title>
<g id="a_Node000004"><a xlink:href="struct_one_d_register_descriptor_base.html" target="_top" xlink:title="Base descriptor for 1D accessors (and scalars)">
<polygon fill="white" stroke="#666666" points="326,-61.5 168,-61.5 168,-31.5 326,-31.5 326,-61.5"/>
<text text-anchor="start" x="176" y="-49.5" font-family="Helvetica,sans-Serif" font-size="10.00">OneDRegisterDescriptorBase</text>
<text text-anchor="middle" x="247" y="-38.5" font-family="Helvetica,sans-Serif" font-size="10.00">&lt; Derived &gt;</text>
</a>
</g>
</g>
<!-- Node4&#45;&gt;Node3 -->
<g id="edge3_Node000003_Node000004" class="edge">
<title>Node4&#45;&gt;Node3</title>
<g id="a_edge3_Node000003_Node000004"><a xlink:title=" ">
<path fill="none" stroke="#63b8ff" d="M336.33,-52.26C393.1,-55.96 465.73,-60.69 517.91,-64.09"/>
<polygon fill="#63b8ff" stroke="#63b8ff" points="336.48,-48.76 326.28,-51.6 336.03,-55.75 336.48,-48.76"/>
</a>
</g>
</g>
<!-- Node7 -->
<g id="Node000007" class="node">
<title>Node7</title>
<g id="a_Node000007"><a xlink:href="struct_scalar_register_descriptor_base.html" target="_top" xlink:title="Base descriptor for scalars.">
<polygon fill="white" stroke="#666666" points="500,-39.5 363,-39.5 363,-9.5 500,-9.5 500,-39.5"/>
<text text-anchor="start" x="371" y="-27.5" font-family="Helvetica,sans-Serif" font-size="10.00">ScalarRegisterDescriptor</text>
<text text-anchor="middle" x="431.5" y="-16.5" font-family="Helvetica,sans-Serif" font-size="10.00">Base&lt; Derived &gt;</text>
</a>
</g>
</g>
<!-- Node4&#45;&gt;Node7 -->
<g id="edge7_Node000007_Node000004" class="edge">
<title>Node4&#45;&gt;Node7</title>
<g id="a_edge7_Node000007_Node000004"><a xlink:title=" ">
<path fill="none" stroke="#63b8ff" d="M336.24,-35.86C345.18,-34.79 354.15,-33.7 362.82,-32.66"/>
<polygon fill="#63b8ff" stroke="#63b8ff" points="335.7,-32.4 326.19,-37.07 336.54,-39.35 335.7,-32.4"/>
</a>
</g>
</g>
<!-- Node5 -->
<g id="Node000005" class="node">
<title>Node5</title>
<g id="a_Node000005"><a xlink:href="struct_register_descriptor_base.html" target="_top" xlink:title="Base descriptor with defaults, used for all registers.">
<polygon fill="white" stroke="#666666" points="131,-61.5 0,-61.5 0,-31.5 131,-31.5 131,-61.5"/>
<text text-anchor="start" x="8" y="-49.5" font-family="Helvetica,sans-Serif" font-size="10.00">RegisterDescriptorBase</text>
<text text-anchor="middle" x="65.5" y="-38.5" font-family="Helvetica,sans-Serif" font-size="10.00">&lt; Derived &gt;</text>
</a>
</g>
</g>
<!-- Node5&#45;&gt;Node4 -->
<g id="edge4_Node000004_Node000005" class="edge">
<title>Node5&#45;&gt;Node4</title>
<g id="a_edge4_Node000004_Node000005"><a xlink:title=" ">
<path fill="none" stroke="#63b8ff" d="M141.27,-46.5C150.08,-46.5 159.08,-46.5 167.93,-46.5"/>
<polygon fill="#63b8ff" stroke="#63b8ff" points="141.05,-43 131.05,-46.5 141.05,-50 141.05,-43"/>
</a>
</g>
</g>
<!-- Node6 -->
<g id="Node000006" class="node">
<title>Node6</title>
<g id="a_Node000006"><a xlink:href="struct_reg_variable_as_push_parameter_in_math_base.html" target="_top" xlink:title=" ">
<polygon fill="white" stroke="#666666" points="870,-41 673,-41 673,0 870,0 870,-41"/>
<text text-anchor="start" x="681" y="-29" font-family="Helvetica,sans-Serif" font-size="10.00">RegVariableAsPushParameter</text>
<text text-anchor="start" x="681" y="-18" font-family="Helvetica,sans-Serif" font-size="10.00">InMathBase&lt; Derived, RawToCooked</text>
<text text-anchor="middle" x="771.5" y="-7" font-family="Helvetica,sans-Serif" font-size="10.00">Provider &gt;</text>
</a>
</g>
</g>
<!-- Node6&#45;&gt;Node2 -->
<g id="edge5_Node000002_Node000006" class="edge">
<title>Node6&#45;&gt;Node2</title>
<g id="a_edge5_Node000002_Node000006"><a xlink:title=" ">
<path fill="none" stroke="orange" stroke-dasharray="5,2" d="M880.06,-24.18C936.62,-26.37 1007.09,-29.51 1070,-33.5 1075.85,-33.87 1081.85,-34.28 1087.9,-34.71"/>
<polygon fill="orange" stroke="orange" points="880.16,-20.68 870.03,-23.79 879.89,-27.67 880.16,-20.68"/>
</a>
</g>
<text text-anchor="start" x="888" y="-47.5" font-family="Helvetica,sans-Serif" font-size="10.00" fill="grey"> &lt; RegVariableAsPushParameter</text>
<text text-anchor="middle" x="979" y="-36.5" font-family="Helvetica,sans-Serif" font-size="10.00" fill="grey">InMath_x, RawToCookedProvider_x &gt;</text>
</g>
<!-- Node7&#45;&gt;Node6 -->
<g id="edge6_Node000006_Node000007" class="edge">
<title>Node7&#45;&gt;Node6</title>
<g id="a_edge6_Node000006_Node000007"><a xlink:title=" ">
<path fill="none" stroke="#63b8ff" d="M510.19,-23.58C558.57,-23.01 621.22,-22.27 672.93,-21.65"/>
<polygon fill="#63b8ff" stroke="#63b8ff" points="510.04,-20.08 500.09,-23.7 510.13,-27.08 510.04,-20.08"/>
</a>
</g>
</g>
</g>
</svg>
