<?xml version="1.0" encoding="UTF-8" standalone="no"?>
<!DOCTYPE svg PUBLIC "-//W3C//DTD SVG 1.1//EN"
 "http://www.w3.org/Graphics/SVG/1.1/DTD/svg11.dtd">
<!-- Generated by graphviz version 2.43.0 (0)
 -->
<!-- Title: /scratch/dragon/sources/fred/src/EmergencyControl.cc Pages: 1 -->
<svg width="595pt" height="258pt"
 viewBox="0.00 0.00 595.00 258.00" xmlns="http://www.w3.org/2000/svg" xmlns:xlink="http://www.w3.org/1999/xlink">
<g id="graph0" class="graph" transform="scale(1 1) rotate(0) translate(4 254)">
<title>/scratch/dragon/sources/fred/src/EmergencyControl.cc</title>
<!-- Node1 -->
<g id="Node000001" class="node">
<title>Node1</title>
<g id="a_Node000001"><a xlink:title=" ">
<polygon fill="#999999" stroke="#666666" points="410,-250 247,-250 247,-220 410,-220 410,-250"/>
<text text-anchor="start" x="255" y="-238" font-family="Helvetica,sans-Serif" font-size="10.00">/scratch/dragon/sources</text>
<text text-anchor="middle" x="328.5" y="-227" font-family="Helvetica,sans-Serif" font-size="10.00">/fred/src/EmergencyControl.cc</text>
</a>
</g>
</g>
<!-- Node2 -->
<g id="Node000002" class="node">
<title>Node2</title>
<g id="a_Node000002"><a xlink:href="_emergency_control_8h.html" target="_top" xlink:title=" ">
<polygon fill="white" stroke="#666666" points="307.5,-184 191.5,-184 191.5,-165 307.5,-165 307.5,-184"/>
<text text-anchor="middle" x="249.5" y="-172" font-family="Helvetica,sans-Serif" font-size="10.00">EmergencyControl.h</text>
</a>
</g>
</g>
<!-- Node1&#45;&gt;Node2 -->
<g id="edge1_Node000001_Node000002" class="edge">
<title>Node1&#45;&gt;Node2</title>
<g id="a_edge1_Node000001_Node000002"><a xlink:title=" ">
<path fill="none" stroke="#63b8ff" d="M309.38,-219.84C297.32,-210.91 281.79,-199.41 269.56,-190.35"/>
<polygon fill="#63b8ff" stroke="#63b8ff" points="271.46,-187.4 261.34,-184.27 267.29,-193.03 271.46,-187.4"/>
</a>
</g>
</g>
<!-- Node3 -->
<g id="Node000003" class="node">
<title>Node3</title>
<g id="a_Node000003"><a xlink:href="_x_port_gpio_client_8h.html" target="_top" xlink:title=" ">
<polygon fill="white" stroke="#666666" points="230,-129 127,-129 127,-110 230,-110 230,-129"/>
<text text-anchor="middle" x="178.5" y="-117" font-family="Helvetica,sans-Serif" font-size="10.00">XPortGpioClient.h</text>
</a>
</g>
</g>
<!-- Node1&#45;&gt;Node3 -->
<g id="edge13_Node000001_Node000003" class="edge">
<title>Node1&#45;&gt;Node3</title>
<g id="a_edge13_Node000001_Node000003"><a xlink:title=" ">
<path fill="none" stroke="#63b8ff" d="M246.98,-223.78C222.54,-216.59 198.1,-204.45 182.5,-184 172.97,-171.51 172.79,-153.31 174.52,-139.59"/>
<polygon fill="#63b8ff" stroke="#63b8ff" points="178.03,-139.79 176.25,-129.34 171.13,-138.62 178.03,-139.79"/>
</a>
</g>
</g>
<!-- Node8 -->
<g id="Node000008" class="node">
<title>Node8</title>
<g id="a_Node000008"><a xlink:href="_emergency_control_constants_8h.html" target="_top" xlink:title=" ">
<polygon fill="white" stroke="#666666" points="489.5,-184 325.5,-184 325.5,-165 489.5,-165 489.5,-184"/>
<text text-anchor="middle" x="407.5" y="-172" font-family="Helvetica,sans-Serif" font-size="10.00">EmergencyControlConstants.h</text>
</a>
</g>
</g>
<!-- Node1&#45;&gt;Node8 -->
<g id="edge9_Node000001_Node000008" class="edge">
<title>Node1&#45;&gt;Node8</title>
<g id="a_edge9_Node000001_Node000008"><a xlink:title=" ">
<path fill="none" stroke="#63b8ff" d="M347.62,-219.84C359.68,-210.91 375.21,-199.41 387.44,-190.35"/>
<polygon fill="#63b8ff" stroke="#63b8ff" points="389.71,-193.03 395.66,-184.27 385.54,-187.4 389.71,-193.03"/>
</a>
</g>
</g>
<!-- Node9 -->
<g id="Node000009" class="node">
<title>Node9</title>
<g id="a_Node000009"><a xlink:href="_exceptions_8h.html" target="_top" xlink:title=" ">
<polygon fill="white" stroke="#666666" points="587,-184 508,-184 508,-165 587,-165 587,-184"/>
<text text-anchor="middle" x="547.5" y="-172" font-family="Helvetica,sans-Serif" font-size="10.00">Exceptions.h</text>
</a>
</g>
</g>
<!-- Node1&#45;&gt;Node9 -->
<g id="edge10_Node000001_Node000009" class="edge">
<title>Node1&#45;&gt;Node9</title>
<g id="a_edge10_Node000001_Node000009"><a xlink:title=" ">
<path fill="none" stroke="#63b8ff" d="M380.96,-219.99C419.08,-209.8 470,-196.2 505.46,-186.73"/>
<polygon fill="#63b8ff" stroke="#63b8ff" points="506.72,-190.02 515.48,-184.05 504.91,-183.25 506.72,-190.02"/>
</a>
</g>
</g>
<!-- Node2&#45;&gt;Node3 -->
<g id="edge2_Node000002_Node000003" class="edge">
<title>Node2&#45;&gt;Node3</title>
<g id="a_edge2_Node000002_Node000003"><a xlink:title=" ">
<path fill="none" stroke="#63b8ff" d="M238.09,-164.98C227.39,-157 211.16,-144.88 198.34,-135.31"/>
<polygon fill="#63b8ff" stroke="#63b8ff" points="200.22,-132.35 190.11,-129.17 196.03,-137.96 200.22,-132.35"/>
</a>
</g>
</g>
<!-- Node5 -->
<g id="Node000005" class="node">
<title>Node5</title>
<g id="a_Node000005"><a xlink:title=" ">
<polygon fill="#e0e0e0" stroke="#999999" points="300.5,-19 256.5,-19 256.5,0 300.5,0 300.5,-19"/>
<text text-anchor="middle" x="278.5" y="-7" font-family="Helvetica,sans-Serif" font-size="10.00">string</text>
</a>
</g>
</g>
<!-- Node2&#45;&gt;Node5 -->
<g id="edge8_Node000002_Node000005" class="edge">
<title>Node2&#45;&gt;Node5</title>
<g id="a_edge8_Node000002_Node000005"><a xlink:title=" ">
<path fill="none" stroke="#63b8ff" d="M271.93,-164.98C304.18,-151.35 362.41,-121.27 386.5,-74 403.56,-40.52 348.41,-23.31 310.74,-15.66"/>
<polygon fill="#63b8ff" stroke="#63b8ff" points="311.13,-12.17 300.66,-13.75 309.83,-19.05 311.13,-12.17"/>
</a>
</g>
</g>
<!-- Node4 -->
<g id="Node000004" class="node">
<title>Node4</title>
<g id="a_Node000004"><a xlink:href="_x_port_gpio_constants_8h.html" target="_top" xlink:title=" ">
<polygon fill="white" stroke="#666666" points="123,-74 0,-74 0,-55 123,-55 123,-74"/>
<text text-anchor="middle" x="61.5" y="-62" font-family="Helvetica,sans-Serif" font-size="10.00">XPortGpioConstants.h</text>
</a>
</g>
</g>
<!-- Node3&#45;&gt;Node4 -->
<g id="edge3_Node000003_Node000004" class="edge">
<title>Node3&#45;&gt;Node4</title>
<g id="a_edge3_Node000003_Node000004"><a xlink:title=" ">
<path fill="none" stroke="#63b8ff" d="M159.7,-109.98C140.88,-101.46 111.68,-88.23 90,-78.41"/>
<polygon fill="#63b8ff" stroke="#63b8ff" points="91.19,-75.11 80.64,-74.17 88.3,-81.48 91.19,-75.11"/>
</a>
</g>
</g>
<!-- Node3&#45;&gt;Node5 -->
<g id="edge7_Node000003_Node000005" class="edge">
<title>Node3&#45;&gt;Node5</title>
<g id="a_edge7_Node000003_Node000005"><a xlink:title=" ">
<path fill="none" stroke="#63b8ff" d="M174.06,-109.86C168.04,-96.81 159.25,-71.8 170.5,-55 187.26,-29.97 220.93,-19 246.24,-14.21"/>
<polygon fill="#63b8ff" stroke="#63b8ff" points="246.87,-17.65 256.16,-12.56 245.73,-10.75 246.87,-17.65"/>
</a>
</g>
</g>
<!-- Node6 -->
<g id="Node000006" class="node">
<title>Node6</title>
<g id="a_Node000006"><a xlink:title=" ">
<polygon fill="#e0e0e0" stroke="#999999" points="271.5,-74 179.5,-74 179.5,-55 271.5,-55 271.5,-74"/>
<text text-anchor="middle" x="225.5" y="-62" font-family="Helvetica,sans-Serif" font-size="10.00">boost/array.hpp</text>
</a>
</g>
</g>
<!-- Node3&#45;&gt;Node6 -->
<g id="edge5_Node000003_Node000006" class="edge">
<title>Node3&#45;&gt;Node6</title>
<g id="a_edge5_Node000003_Node000006"><a xlink:title=" ">
<path fill="none" stroke="#63b8ff" d="M186.26,-109.75C192.97,-102.18 202.84,-91.05 211.01,-81.84"/>
<polygon fill="#63b8ff" stroke="#63b8ff" points="213.87,-83.89 217.88,-74.09 208.63,-79.25 213.87,-83.89"/>
</a>
</g>
</g>
<!-- Node7 -->
<g id="Node000007" class="node">
<title>Node7</title>
<g id="a_Node000007"><a xlink:title=" ">
<polygon fill="#e0e0e0" stroke="#999999" points="377.5,-74 289.5,-74 289.5,-55 377.5,-55 377.5,-74"/>
<text text-anchor="middle" x="333.5" y="-62" font-family="Helvetica,sans-Serif" font-size="10.00">boost/asio.hpp</text>
</a>
</g>
</g>
<!-- Node3&#45;&gt;Node7 -->
<g id="edge6_Node000003_Node000007" class="edge">
<title>Node3&#45;&gt;Node7</title>
<g id="a_edge6_Node000003_Node000007"><a xlink:title=" ">
<path fill="none" stroke="#63b8ff" d="M203.4,-109.98C229.2,-101.16 269.72,-87.31 298.68,-77.41"/>
<polygon fill="#63b8ff" stroke="#63b8ff" points="300.07,-80.63 308.4,-74.08 297.81,-74.01 300.07,-80.63"/>
</a>
</g>
</g>
<!-- Node4&#45;&gt;Node5 -->
<g id="edge4_Node000004_Node000005" class="edge">
<title>Node4&#45;&gt;Node5</title>
<g id="a_edge4_Node000004_Node000005"><a xlink:title=" ">
<path fill="none" stroke="#63b8ff" d="M96.36,-54.98C137.8,-44.86 206.38,-28.11 246.51,-18.31"/>
<polygon fill="#63b8ff" stroke="#63b8ff" points="247.43,-21.69 256.31,-15.92 245.76,-14.89 247.43,-21.69"/>
</a>
</g>
</g>
<!-- Node9&#45;&gt;Node5 -->
<g id="edge12_Node000009_Node000005" class="edge">
<title>Node9&#45;&gt;Node5</title>
<g id="a_edge12_Node000009_Node000005"><a xlink:title=" ">
<path fill="none" stroke="#63b8ff" d="M539.05,-164.87C517.76,-143.56 459.48,-87.77 401.5,-55 372.48,-38.6 336.31,-26.38 310.72,-18.93"/>
<polygon fill="#63b8ff" stroke="#63b8ff" points="311.37,-15.48 300.79,-16.13 309.46,-22.22 311.37,-15.48"/>
</a>
</g>
</g>
<!-- Node10 -->
<g id="Node000010" class="node">
<title>Node10</title>
<g id="a_Node000010"><a xlink:title=" ">
<polygon fill="#e0e0e0" stroke="#999999" points="580,-129 515,-129 515,-110 580,-110 580,-129"/>
<text text-anchor="middle" x="547.5" y="-117" font-family="Helvetica,sans-Serif" font-size="10.00">exception</text>
</a>
</g>
</g>
<!-- Node9&#45;&gt;Node10 -->
<g id="edge11_Node000009_Node000010" class="edge">
<title>Node9&#45;&gt;Node10</title>
<g id="a_edge11_Node000009_Node000010"><a xlink:title=" ">
<path fill="none" stroke="#63b8ff" d="M547.5,-164.75C547.5,-157.8 547.5,-147.85 547.5,-139.13"/>
<polygon fill="#63b8ff" stroke="#63b8ff" points="551,-139.09 547.5,-129.09 544,-139.09 551,-139.09"/>
</a>
</g>
</g>
</g>
</svg>
