<?xml version="1.0" encoding="UTF-8" standalone="no"?>
<!DOCTYPE svg PUBLIC "-//W3C//DTD SVG 1.1//EN"
 "http://www.w3.org/Graphics/SVG/1.1/DTD/svg11.dtd">
<!-- Generated by graphviz version 2.43.0 (0)
 -->
<!-- Title: /scratch/dragon/sources/fred/src/MinimalTelnetConnection.cc Pages: 1 -->
<svg width="722pt" height="148pt"
 viewBox="0.00 0.00 721.50 148.00" xmlns="http://www.w3.org/2000/svg" xmlns:xlink="http://www.w3.org/1999/xlink">
<g id="graph0" class="graph" transform="scale(1 1) rotate(0) translate(4 144)">
<title>/scratch/dragon/sources/fred/src/MinimalTelnetConnection.cc</title>
<!-- Node1 -->
<g id="Node000001" class="node">
<title>Node1</title>
<g id="a_Node000001"><a xlink:title=" ">
<polygon fill="#999999" stroke="#666666" points="563,-140 366,-140 366,-110 563,-110 563,-140"/>
<text text-anchor="start" x="374" y="-128" font-family="Helvetica,sans-Serif" font-size="10.00">/scratch/dragon/sources</text>
<text text-anchor="middle" x="464.5" y="-117" font-family="Helvetica,sans-Serif" font-size="10.00">/fred/src/MinimalTelnetConnection.cc</text>
</a>
</g>
</g>
<!-- Node2 -->
<g id="Node000002" class="node">
<title>Node2</title>
<g id="a_Node000002"><a xlink:href="_minimal_telnet_connection_8h.html" target="_top" xlink:title=" ">
<polygon fill="white" stroke="#666666" points="369,-74 220,-74 220,-55 369,-55 369,-74"/>
<text text-anchor="middle" x="294.5" y="-62" font-family="Helvetica,sans-Serif" font-size="10.00">MinimalTelnetConnection.h</text>
</a>
</g>
</g>
<!-- Node1&#45;&gt;Node2 -->
<g id="edge1_Node000001_Node000002" class="edge">
<title>Node1&#45;&gt;Node2</title>
<g id="a_edge1_Node000001_Node000002"><a xlink:title=" ">
<path fill="none" stroke="#63b8ff" d="M423.78,-109.99C394.91,-100.05 356.59,-86.86 329.17,-77.43"/>
<polygon fill="#63b8ff" stroke="#63b8ff" points="330.2,-74.08 319.61,-74.14 327.92,-80.7 330.2,-74.08"/>
</a>
</g>
</g>
<!-- Node3 -->
<g id="Node000003" class="node">
<title>Node3</title>
<g id="a_Node000003"><a xlink:href="telnet_constants_8h.html" target="_top" xlink:title=" ">
<polygon fill="white" stroke="#666666" points="103,-19 0,-19 0,0 103,0 103,-19"/>
<text text-anchor="middle" x="51.5" y="-7" font-family="Helvetica,sans-Serif" font-size="10.00">telnetConstants.h</text>
</a>
</g>
</g>
<!-- Node1&#45;&gt;Node3 -->
<g id="edge7_Node000001_Node000003" class="edge">
<title>Node1&#45;&gt;Node3</title>
<g id="a_edge7_Node000001_Node000003"><a xlink:title=" ">
<path fill="none" stroke="#63b8ff" d="M371.5,-109.96C322.99,-101.56 262.98,-89.5 210.5,-74 163.17,-60.02 110.35,-37.47 79.07,-23.34"/>
<polygon fill="#63b8ff" stroke="#63b8ff" points="80.26,-20.03 69.71,-19.07 77.36,-26.4 80.26,-20.03"/>
</a>
</g>
</g>
<!-- Node8 -->
<g id="Node000008" class="node">
<title>Node8</title>
<g id="a_Node000008"><a xlink:href="_exceptions_8h.html" target="_top" xlink:title=" ">
<polygon fill="white" stroke="#666666" points="504,-74 425,-74 425,-55 504,-55 504,-74"/>
<text text-anchor="middle" x="464.5" y="-62" font-family="Helvetica,sans-Serif" font-size="10.00">Exceptions.h</text>
</a>
</g>
</g>
<!-- Node1&#45;&gt;Node8 -->
<g id="edge8_Node000001_Node000008" class="edge">
<title>Node1&#45;&gt;Node8</title>
<g id="a_edge8_Node000001_Node000008"><a xlink:title=" ">
<path fill="none" stroke="#63b8ff" d="M464.5,-109.84C464.5,-102.21 464.5,-92.7 464.5,-84.45"/>
<polygon fill="#63b8ff" stroke="#63b8ff" points="468,-84.27 464.5,-74.27 461,-84.27 468,-84.27"/>
</a>
</g>
</g>
<!-- Node10 -->
<g id="Node000010" class="node">
<title>Node10</title>
<g id="a_Node000010"><a xlink:title=" ">
<polygon fill="#e0e0e0" stroke="#999999" points="635,-74 522,-74 522,-55 635,-55 635,-74"/>
<text text-anchor="middle" x="578.5" y="-62" font-family="Helvetica,sans-Serif" font-size="10.00">boost/bind/bind.hpp</text>
</a>
</g>
</g>
<!-- Node1&#45;&gt;Node10 -->
<g id="edge11_Node000001_Node000010" class="edge">
<title>Node1&#45;&gt;Node10</title>
<g id="a_edge11_Node000001_Node000010"><a xlink:title=" ">
<path fill="none" stroke="#63b8ff" d="M491.81,-109.99C510.15,-100.58 534.18,-88.24 552.29,-78.95"/>
<polygon fill="#63b8ff" stroke="#63b8ff" points="554.37,-81.82 561.66,-74.14 551.17,-75.59 554.37,-81.82"/>
</a>
</g>
</g>
<!-- Node11 -->
<g id="Node000011" class="node">
<title>Node11</title>
<g id="a_Node000011"><a xlink:title=" ">
<polygon fill="#e0e0e0" stroke="#999999" points="713.5,-74 653.5,-74 653.5,-55 713.5,-55 713.5,-74"/>
<text text-anchor="middle" x="683.5" y="-62" font-family="Helvetica,sans-Serif" font-size="10.00">iostream</text>
</a>
</g>
</g>
<!-- Node1&#45;&gt;Node11 -->
<g id="edge12_Node000001_Node000011" class="edge">
<title>Node1&#45;&gt;Node11</title>
<g id="a_edge12_Node000001_Node000011"><a xlink:title=" ">
<path fill="none" stroke="#63b8ff" d="M516.96,-109.99C555.77,-99.62 607.85,-85.71 643.37,-76.22"/>
<polygon fill="#63b8ff" stroke="#63b8ff" points="644.62,-79.51 653.38,-73.55 642.81,-72.75 644.62,-79.51"/>
</a>
</g>
</g>
<!-- Node2&#45;&gt;Node3 -->
<g id="edge2_Node000002_Node000003" class="edge">
<title>Node2&#45;&gt;Node3</title>
<g id="a_edge2_Node000002_Node000003"><a xlink:title=" ">
<path fill="none" stroke="#63b8ff" d="M255.46,-54.98C213.42,-45.82 146.46,-31.21 100.82,-21.26"/>
<polygon fill="#63b8ff" stroke="#63b8ff" points="101.36,-17.79 90.85,-19.08 99.87,-24.63 101.36,-17.79"/>
</a>
</g>
</g>
<!-- Node4 -->
<g id="Node000004" class="node">
<title>Node4</title>
<g id="a_Node000004"><a xlink:title=" ">
<polygon fill="#e0e0e0" stroke="#999999" points="213.5,-19 121.5,-19 121.5,0 213.5,0 213.5,-19"/>
<text text-anchor="middle" x="167.5" y="-7" font-family="Helvetica,sans-Serif" font-size="10.00">boost/array.hpp</text>
</a>
</g>
</g>
<!-- Node2&#45;&gt;Node4 -->
<g id="edge3_Node000002_Node000004" class="edge">
<title>Node2&#45;&gt;Node4</title>
<g id="a_edge3_Node000002_Node000004"><a xlink:title=" ">
<path fill="none" stroke="#63b8ff" d="M274.1,-54.98C253.48,-46.38 221.39,-32.99 197.81,-23.15"/>
<polygon fill="#63b8ff" stroke="#63b8ff" points="198.85,-19.79 188.28,-19.17 196.16,-26.25 198.85,-19.79"/>
</a>
</g>
</g>
<!-- Node5 -->
<g id="Node000005" class="node">
<title>Node5</title>
<g id="a_Node000005"><a xlink:title=" ">
<polygon fill="#e0e0e0" stroke="#999999" points="319.5,-19 231.5,-19 231.5,0 319.5,0 319.5,-19"/>
<text text-anchor="middle" x="275.5" y="-7" font-family="Helvetica,sans-Serif" font-size="10.00">boost/asio.hpp</text>
</a>
</g>
</g>
<!-- Node2&#45;&gt;Node5 -->
<g id="edge4_Node000002_Node000005" class="edge">
<title>Node2&#45;&gt;Node5</title>
<g id="a_edge4_Node000002_Node000005"><a xlink:title=" ">
<path fill="none" stroke="#63b8ff" d="M291.36,-54.75C288.82,-47.65 285.14,-37.4 281.97,-28.56"/>
<polygon fill="#63b8ff" stroke="#63b8ff" points="285.25,-27.32 278.58,-19.09 278.66,-29.68 285.25,-27.32"/>
</a>
</g>
</g>
<!-- Node6 -->
<g id="Node000006" class="node">
<title>Node6</title>
<g id="a_Node000006"><a xlink:title=" ">
<polygon fill="#e0e0e0" stroke="#999999" points="444,-19 337,-19 337,0 444,0 444,-19"/>
<text text-anchor="middle" x="390.5" y="-7" font-family="Helvetica,sans-Serif" font-size="10.00">boost/function.hpp</text>
</a>
</g>
</g>
<!-- Node2&#45;&gt;Node6 -->
<g id="edge5_Node000002_Node000006" class="edge">
<title>Node2&#45;&gt;Node6</title>
<g id="a_edge5_Node000002_Node000006"><a xlink:title=" ">
<path fill="none" stroke="#63b8ff" d="M309.92,-54.98C324.95,-46.69 348.04,-33.94 365.66,-24.22"/>
<polygon fill="#63b8ff" stroke="#63b8ff" points="367.73,-27.07 374.8,-19.17 364.35,-20.94 367.73,-27.07"/>
</a>
</g>
</g>
<!-- Node7 -->
<g id="Node000007" class="node">
<title>Node7</title>
<g id="a_Node000007"><a xlink:title=" ">
<polygon fill="#e0e0e0" stroke="#999999" points="506.5,-19 462.5,-19 462.5,0 506.5,0 506.5,-19"/>
<text text-anchor="middle" x="484.5" y="-7" font-family="Helvetica,sans-Serif" font-size="10.00">string</text>
</a>
</g>
</g>
<!-- Node2&#45;&gt;Node7 -->
<g id="edge6_Node000002_Node000007" class="edge">
<title>Node2&#45;&gt;Node7</title>
<g id="a_edge6_Node000002_Node000007"><a xlink:title=" ">
<path fill="none" stroke="#63b8ff" d="M325.03,-54.98C359.97,-45.24 416.95,-29.34 452.5,-19.43"/>
<polygon fill="#63b8ff" stroke="#63b8ff" points="453.67,-22.73 462.36,-16.68 451.79,-15.99 453.67,-22.73"/>
</a>
</g>
</g>
<!-- Node8&#45;&gt;Node7 -->
<g id="edge10_Node000008_Node000007" class="edge">
<title>Node8&#45;&gt;Node7</title>
<g id="a_edge10_Node000008_Node000007"><a xlink:title=" ">
<path fill="none" stroke="#63b8ff" d="M467.8,-54.75C470.48,-47.65 474.35,-37.4 477.69,-28.56"/>
<polygon fill="#63b8ff" stroke="#63b8ff" points="481,-29.68 481.26,-19.09 474.45,-27.21 481,-29.68"/>
</a>
</g>
</g>
<!-- Node9 -->
<g id="Node000009" class="node">
<title>Node9</title>
<g id="a_Node000009"><a xlink:title=" ">
<polygon fill="#e0e0e0" stroke="#999999" points="590,-19 525,-19 525,0 590,0 590,-19"/>
<text text-anchor="middle" x="557.5" y="-7" font-family="Helvetica,sans-Serif" font-size="10.00">exception</text>
</a>
</g>
</g>
<!-- Node8&#45;&gt;Node9 -->
<g id="edge9_Node000008_Node000009" class="edge">
<title>Node8&#45;&gt;Node9</title>
<g id="a_edge9_Node000008_Node000009"><a xlink:title=" ">
<path fill="none" stroke="#63b8ff" d="M479.44,-54.98C494,-46.69 516.37,-33.94 533.43,-24.22"/>
<polygon fill="#63b8ff" stroke="#63b8ff" points="535.33,-27.16 542.29,-19.17 531.86,-21.08 535.33,-27.16"/>
</a>
</g>
</g>
</g>
</svg>
