<?xml version="1.0" encoding="UTF-8" standalone="no"?>
<!DOCTYPE svg PUBLIC "-//W3C//DTD SVG 1.1//EN"
 "http://www.w3.org/Graphics/SVG/1.1/DTD/svg11.dtd">
<!-- Generated by graphviz version 2.43.0 (0)
 -->
<!-- Title: fred::FredControlProtocol_v_2_1_impl::readOperationMode Pages: 1 -->
<svg width="569pt" height="176pt"
 viewBox="0.00 0.00 569.00 175.50" xmlns="http://www.w3.org/2000/svg" xmlns:xlink="http://www.w3.org/1999/xlink">
<g id="graph0" class="graph" transform="scale(1 1) rotate(0) translate(4 171.5)">
<title>fred::FredControlProtocol_v_2_1_impl::readOperationMode</title>
<polygon fill="white" stroke="transparent" points="-4,4 -4,-171.5 565,-171.5 565,4 -4,4"/>
<!-- Node1 -->
<g id="node1" class="node">
<title>Node1</title>
<g id="a_node1"><a xlink:title=" ">
<polygon fill="#bfbfbf" stroke="black" points="0,-98.5 0,-128.5 180,-128.5 180,-98.5 0,-98.5"/>
<text text-anchor="start" x="8" y="-116.5" font-family="Helvetica,sans-Serif" font-size="10.00">fred::FredControlProtocol</text>
<text text-anchor="middle" x="90" y="-105.5" font-family="Helvetica,sans-Serif" font-size="10.00">_v_2_1_impl::readOperationMode</text>
</a>
</g>
</g>
<!-- Node2 -->
<g id="node2" class="node">
<title>Node2</title>
<g id="a_node2"><a xlink:href="namespacefred.html#a8dc755c9ff8b2536be4bf238de8ddf79" target="_top" xlink:title="extracts all lines from the input string s into a vector.">
<polygon fill="white" stroke="black" points="237.5,-148 237.5,-167 339.5,-167 339.5,-148 237.5,-148"/>
<text text-anchor="middle" x="288.5" y="-155" font-family="Helvetica,sans-Serif" font-size="10.00">fred::extractLines</text>
</a>
</g>
</g>
<!-- Node1&#45;&gt;Node2 -->
<g id="edge1" class="edge">
<title>Node1&#45;&gt;Node2</title>
<path fill="none" stroke="midnightblue" d="M158.07,-128.52C183.27,-134.16 211.52,-140.49 235.18,-145.78"/>
<polygon fill="midnightblue" stroke="midnightblue" points="234.5,-149.22 245.02,-147.99 236.02,-142.39 234.5,-149.22"/>
</g>
<!-- Node4 -->
<g id="node4" class="node">
<title>Node4</title>
<g id="a_node4"><a xlink:href="namespacefred.html#af3963f7ccf34335f9a5701869fe66d18" target="_top" xlink:title=" ">
<polygon fill="white" stroke="black" points="216,-98.5 216,-128.5 361,-128.5 361,-98.5 216,-98.5"/>
<text text-anchor="start" x="224" y="-116.5" font-family="Helvetica,sans-Serif" font-size="10.00">fred::extractUnsignedChar</text>
<text text-anchor="middle" x="288.5" y="-105.5" font-family="Helvetica,sans-Serif" font-size="10.00">Response</text>
</a>
</g>
</g>
<!-- Node1&#45;&gt;Node4 -->
<g id="edge3" class="edge">
<title>Node1&#45;&gt;Node4</title>
<path fill="none" stroke="midnightblue" d="M180.05,-113.5C188.57,-113.5 197.18,-113.5 205.63,-113.5"/>
<polygon fill="midnightblue" stroke="midnightblue" points="205.83,-117 215.83,-113.5 205.83,-110 205.83,-117"/>
</g>
<!-- Node5 -->
<g id="node5" class="node">
<title>Node5</title>
<g id="a_node5"><a xlink:href="namespacefred.html#a96020b9ea8c01bc2f7ff637df999bf61" target="_top" xlink:title=": function uses class b&#39;s connection to send a commmand and return a filtered version of the response...">
<polygon fill="white" stroke="black" points="225,-58 225,-77 352,-77 352,-58 225,-58"/>
<text text-anchor="middle" x="288.5" y="-65" font-family="Helvetica,sans-Serif" font-size="10.00">fred::processResponse</text>
</a>
</g>
</g>
<!-- Node1&#45;&gt;Node5 -->
<g id="edge5" class="edge">
<title>Node1&#45;&gt;Node5</title>
<path fill="none" stroke="midnightblue" d="M155.34,-98.44C181.8,-92.24 212.01,-85.17 236.86,-79.36"/>
<polygon fill="midnightblue" stroke="midnightblue" points="237.86,-82.72 246.8,-77.03 236.26,-75.9 237.86,-82.72"/>
</g>
<!-- Node3 -->
<g id="node3" class="node">
<title>Node3</title>
<g id="a_node3"><a xlink:href="namespacefred.html#a257a304990088eb629b148fa46e0d0c1" target="_top" xlink:title=" ">
<polygon fill="white" stroke="black" points="433,-148 433,-167 525,-167 525,-148 433,-148"/>
<text text-anchor="middle" x="479" y="-155" font-family="Helvetica,sans-Serif" font-size="10.00">fred::splitString</text>
</a>
</g>
</g>
<!-- Node2&#45;&gt;Node3 -->
<g id="edge2" class="edge">
<title>Node2&#45;&gt;Node3</title>
<path fill="none" stroke="midnightblue" d="M339.52,-157.5C365.13,-157.5 396.38,-157.5 422.71,-157.5"/>
<polygon fill="midnightblue" stroke="midnightblue" points="422.91,-161 432.91,-157.5 422.91,-154 422.91,-161"/>
</g>
<!-- Node4&#45;&gt;Node3 -->
<g id="edge4" class="edge">
<title>Node4&#45;&gt;Node3</title>
<path fill="none" stroke="midnightblue" d="M353.84,-128.52C377.91,-134.14 404.87,-140.43 427.51,-145.71"/>
<polygon fill="midnightblue" stroke="midnightblue" points="426.71,-149.12 437.25,-147.99 428.31,-142.31 426.71,-149.12"/>
</g>
<!-- Node6 -->
<g id="node6" class="node">
<title>Node6</title>
<g id="a_node6"><a xlink:href="classfred_1_1_fred_control_protocol_base.html#a27ce7f316d726d28d31689ba37a3c718" target="_top" xlink:title=" ">
<polygon fill="white" stroke="black" points="397,-98.5 397,-128.5 561,-128.5 561,-98.5 397,-98.5"/>
<text text-anchor="start" x="405" y="-116.5" font-family="Helvetica,sans-Serif" font-size="10.00">fred::FredControlProtocol</text>
<text text-anchor="middle" x="479" y="-105.5" font-family="Helvetica,sans-Serif" font-size="10.00">Base::sendAndReceiveAnswer</text>
</a>
</g>
</g>
<!-- Node5&#45;&gt;Node6 -->
<g id="edge6" class="edge">
<title>Node5&#45;&gt;Node6</title>
<path fill="none" stroke="midnightblue" d="M328.56,-77.03C351.03,-82.51 379.96,-89.58 406.38,-96.02"/>
<polygon fill="midnightblue" stroke="midnightblue" points="405.81,-99.49 416.36,-98.46 407.47,-92.69 405.81,-99.49"/>
</g>
<!-- Node7 -->
<g id="node7" class="node">
<title>Node7</title>
<g id="a_node7"><a xlink:href="classfred_1_1_fred_control_protocol_base.html#a3f6fc887f88f033d1e43d938216260de" target="_top" xlink:title=" ">
<polygon fill="white" stroke="black" points="410,-49.5 410,-79.5 548,-79.5 548,-49.5 410,-49.5"/>
<text text-anchor="start" x="418" y="-67.5" font-family="Helvetica,sans-Serif" font-size="10.00">fred::FredControlProtocol</text>
<text text-anchor="middle" x="479" y="-56.5" font-family="Helvetica,sans-Serif" font-size="10.00">Base::storeErrors</text>
</a>
</g>
</g>
<!-- Node5&#45;&gt;Node7 -->
<g id="edge7" class="edge">
<title>Node5&#45;&gt;Node7</title>
<path fill="none" stroke="midnightblue" d="M352.01,-66.51C367.21,-66.26 383.67,-66 399.52,-65.75"/>
<polygon fill="midnightblue" stroke="midnightblue" points="399.88,-69.24 409.82,-65.59 399.77,-62.24 399.88,-69.24"/>
</g>
<!-- Node8 -->
<g id="node8" class="node">
<title>Node8</title>
<g id="a_node8"><a xlink:href="classfred_1_1_fred_control_protocol_base.html#a9c4ed1c7ab6d486c1b6eb77414650fb4" target="_top" xlink:title=" ">
<polygon fill="white" stroke="black" points="410,-0.5 410,-30.5 548,-30.5 548,-0.5 410,-0.5"/>
<text text-anchor="start" x="418" y="-18.5" font-family="Helvetica,sans-Serif" font-size="10.00">fred::FredControlProtocol</text>
<text text-anchor="middle" x="479" y="-7.5" font-family="Helvetica,sans-Serif" font-size="10.00">Base::storeWarnings</text>
</a>
</g>
</g>
<!-- Node5&#45;&gt;Node8 -->
<g id="edge8" class="edge">
<title>Node5&#45;&gt;Node8</title>
<path fill="none" stroke="midnightblue" d="M324.07,-57.96C349,-51.09 383.38,-41.6 413.33,-33.34"/>
<polygon fill="midnightblue" stroke="midnightblue" points="414.58,-36.63 423.29,-30.59 412.72,-29.88 414.58,-36.63"/>
</g>
</g>
</svg>
