<?xml version="1.0" encoding="UTF-8" standalone="no"?>
<!DOCTYPE svg PUBLIC "-//W3C//DTD SVG 1.1//EN"
 "http://www.w3.org/Graphics/SVG/1.1/DTD/svg11.dtd">
<!-- Generated by graphviz version 2.40.1 (20161225.0304)
 -->
<!-- Title: ChimeraTK::DoocsBackendRegisterAccessor::initialise Pages: 1 -->
<!--zoomable 542 -->
<svg id="main" version="1.1" xmlns="http://www.w3.org/2000/svg" xmlns:xlink="http://www.w3.org/1999/xlink" xml:space="preserve" onload="init(evt)">
<style type="text/css"><![CDATA[
.edge:hover path { stroke: red; }
.edge:hover polygon { stroke: red; fill: red; }
]]></style>
<script type="text/javascript"><![CDATA[
var edges = document.getElementsByTagName('g');
if (edges && edges.length) {
  for (var i=0;i<edges.length;i++) {
    if (edges[i].id.substr(0,4)=='edge') {
      edges[i].setAttribute('class','edge');
    }
  }
}
]]></script>
        <defs>
                <circle id="rim" cx="0" cy="0" r="7"/>
                <circle id="rim2" cx="0" cy="0" r="3.5"/>
                <g id="zoomPlus">
                        <use xlink:href="#rim" fill="#404040">
                                <set attributeName="fill" to="#808080" begin="zoomplus.mouseover" end="zoomplus.mouseout"/>
                        </use>
                        <path d="M-4,0h8M0,-4v8" fill="none" stroke="white" stroke-width="1.5" pointer-events="none"/>
                </g>
                <g id="zoomMin">
                        <use xlink:href="#rim" fill="#404040">
                                <set attributeName="fill" to="#808080" begin="zoomminus.mouseover" end="zoomminus.mouseout"/>
                        </use>
                        <path d="M-4,0h8" fill="none" stroke="white" stroke-width="1.5" pointer-events="none"/>
                </g>
                <g id="dirArrow">
                        <path fill="none" stroke="white" stroke-width="1.5" d="M0,-3.0v7 M-2.5,-0.5L0,-3.0L2.5,-0.5"/>
                </g>
               <g id="resetDef">
                       <use xlink:href="#rim2" fill="#404040">
                               <set attributeName="fill" to="#808080" begin="reset.mouseover" end="reset.mouseout"/>
                       </use>
               </g>
        </defs>

<script type="text/javascript">
var viewWidth = 715;
var viewHeight = 542;
var sectionId = 'dynsection-10';
</script>
<script xlink:href="svgpan.js"/>
<svg id="graph" class="graph">
<g id="viewport">
<title>ChimeraTK::DoocsBackendRegisterAccessor::initialise</title>
<polygon fill="#ffffff" stroke="transparent" points="-4,4 -4,-537.5 711,-537.5 711,4 -4,4"/>
<!-- Node64 -->
<g id="node1" class="node">
<title>Node64</title>
<polygon fill="#bfbfbf" stroke="#000000" points="0,-259.5 0,-289.5 188,-289.5 188,-259.5 0,-259.5"/>
<text text-anchor="start" x="8" y="-277.5" font-family="Helvetica,sans-Serif" font-size="10.00" fill="#000000">ChimeraTK::DoocsBackendRegister</text>
<text text-anchor="middle" x="94" y="-266.5" font-family="Helvetica,sans-Serif" font-size="10.00" fill="#000000">Accessor::initialise</text>
</g>
<!-- Node65 -->
<g id="node2" class="node">
<title>Node65</title>
<g id="a_node2"><a xlink:href="class_chimera_t_k_1_1_doocs_backend_float_register_accessor.html#ab61ccc0196f93df5ddde9471b8e11c0d" target="_top" xlink:title="ChimeraTK::DoocsBackendFloat\lRegisterAccessor::DoocsBackendFloat\lRegisterAccessor">
<polygon fill="#ffffff" stroke="#000000" points="243,-492 243,-533 445,-533 445,-492 243,-492"/>
<text text-anchor="start" x="251" y="-521" font-family="Helvetica,sans-Serif" font-size="10.00" fill="#000000">ChimeraTK::DoocsBackendFloat</text>
<text text-anchor="start" x="251" y="-510" font-family="Helvetica,sans-Serif" font-size="10.00" fill="#000000">RegisterAccessor::DoocsBackendFloat</text>
<text text-anchor="middle" x="344" y="-499" font-family="Helvetica,sans-Serif" font-size="10.00" fill="#000000">RegisterAccessor</text>
</a>
</g>
</g>
<!-- Node64&#45;&gt;Node65 -->
<g id="edge1" class="edge">
<title>Node64&#45;&gt;Node65</title>
<path fill="none" stroke="#191970" d="M102.3537,-299.1882C118.5416,-343.1549 158.4702,-434.8629 224,-482.5 229.8189,-486.7301 236.1698,-490.3668 242.8138,-493.493"/>
<polygon fill="#191970" stroke="#191970" points="105.581,-297.8185 98.9172,-289.5818 98.99,-300.1763 105.581,-297.8185"/>
</g>
<!-- Node66 -->
<g id="node3" class="node">
<title>Node66</title>
<g id="a_node3"><a xlink:href="class_chimera_t_k_1_1_doocs_backend_i_f_f_f_register_accessor.html#a503c90b7e236e6c17136c2e4688d3a7d" target="_top" xlink:title="ChimeraTK::DoocsBackendIFFFRegister\lAccessor::DoocsBackendIFFFRegisterAccessor">
<polygon fill="#ffffff" stroke="#000000" points="224,-442.5 224,-472.5 464,-472.5 464,-442.5 224,-442.5"/>
<text text-anchor="start" x="232" y="-460.5" font-family="Helvetica,sans-Serif" font-size="10.00" fill="#000000">ChimeraTK::DoocsBackendIFFFRegister</text>
<text text-anchor="middle" x="344" y="-449.5" font-family="Helvetica,sans-Serif" font-size="10.00" fill="#000000">Accessor::DoocsBackendIFFFRegisterAccessor</text>
</a>
</g>
</g>
<!-- Node64&#45;&gt;Node66 -->
<g id="edge2" class="edge">
<title>Node64&#45;&gt;Node66</title>
<path fill="none" stroke="#191970" d="M106.7745,-298.6804C126.7838,-334.0348 168.9863,-399.2342 224,-432.5 230.3736,-436.354 237.2475,-439.6215 244.3656,-442.3908"/>
<polygon fill="#191970" stroke="#191970" points="109.6288,-296.6094 101.7271,-289.5515 103.5028,-299.9965 109.6288,-296.6094"/>
</g>
<!-- Node67 -->
<g id="node4" class="node">
<title>Node67</title>
<g id="a_node4"><a xlink:href="class_chimera_t_k_1_1_doocs_backend_int_register_accessor.html#aa561aef7eb86a459555a29e80c666055" target="_top" xlink:title="ChimeraTK::DoocsBackendInt\lRegisterAccessor::DoocsBackend\lIntRegisterAccessor">
<polygon fill="#ffffff" stroke="#000000" points="255,-382 255,-423 433,-423 433,-382 255,-382"/>
<text text-anchor="start" x="263" y="-411" font-family="Helvetica,sans-Serif" font-size="10.00" fill="#000000">ChimeraTK::DoocsBackendInt</text>
<text text-anchor="start" x="263" y="-400" font-family="Helvetica,sans-Serif" font-size="10.00" fill="#000000">RegisterAccessor::DoocsBackend</text>
<text text-anchor="middle" x="344" y="-389" font-family="Helvetica,sans-Serif" font-size="10.00" fill="#000000">IntRegisterAccessor</text>
</a>
</g>
</g>
<!-- Node64&#45;&gt;Node67 -->
<g id="edge3" class="edge">
<title>Node64&#45;&gt;Node67</title>
<path fill="none" stroke="#191970" d="M117.2172,-296.6546C141.8412,-318.9688 182.8034,-352.8295 224,-372.5 233.6894,-377.1265 244.1715,-381.0901 254.7671,-384.4734"/>
<polygon fill="#191970" stroke="#191970" points="119.5465,-294.0416 109.8169,-289.848 114.8077,-299.1938 119.5465,-294.0416"/>
</g>
<!-- Node68 -->
<g id="node5" class="node">
<title>Node68</title>
<g id="a_node5"><a xlink:href="class_chimera_t_k_1_1_doocs_backend_long_register_accessor.html#a242ca6ba20eeb63d2827bbc03ac520a8" target="_top" xlink:title="ChimeraTK::DoocsBackendLong\lRegisterAccessor::DoocsBackendLong\lRegisterAccessor">
<polygon fill="#ffffff" stroke="#000000" points="243.5,-322 243.5,-363 444.5,-363 444.5,-322 243.5,-322"/>
<text text-anchor="start" x="251.5" y="-351" font-family="Helvetica,sans-Serif" font-size="10.00" fill="#000000">ChimeraTK::DoocsBackendLong</text>
<text text-anchor="start" x="251.5" y="-340" font-family="Helvetica,sans-Serif" font-size="10.00" fill="#000000">RegisterAccessor::DoocsBackendLong</text>
<text text-anchor="middle" x="344" y="-329" font-family="Helvetica,sans-Serif" font-size="10.00" fill="#000000">RegisterAccessor</text>
</a>
</g>
</g>
<!-- Node64&#45;&gt;Node68 -->
<g id="edge4" class="edge">
<title>Node64&#45;&gt;Node68</title>
<path fill="none" stroke="#191970" d="M158.8782,-292.1469C192.4447,-301.277 233.6036,-312.4722 268.5812,-321.9861"/>
<polygon fill="#191970" stroke="#191970" points="159.7411,-288.7545 149.1731,-289.5071 157.9038,-295.5091 159.7411,-288.7545"/>
</g>
<!-- Node69 -->
<g id="node6" class="node">
<title>Node69</title>
<g id="a_node6"><a xlink:href="class_chimera_t_k_1_1_doocs_backend_register_accessor.html#ae70906d55ee881fb22698ec68811f481" target="_top" xlink:title="ChimeraTK::DoocsBackendRegister\lAccessor::doReadTransferNonBlocking">
<polygon fill="#ffffff" stroke="#000000" points="502,-343.5 502,-373.5 705,-373.5 705,-343.5 502,-343.5"/>
<text text-anchor="start" x="510" y="-361.5" font-family="Helvetica,sans-Serif" font-size="10.00" fill="#000000">ChimeraTK::DoocsBackendRegister</text>
<text text-anchor="middle" x="603.5" y="-350.5" font-family="Helvetica,sans-Serif" font-size="10.00" fill="#000000">Accessor::doReadTransferNonBlocking</text>
</a>
</g>
</g>
<!-- Node64&#45;&gt;Node69 -->
<g id="edge5" class="edge">
<title>Node64&#45;&gt;Node69</title>
<path fill="none" stroke="#191970" d="M198.439,-280.0578C290.2579,-285.8861 416.4525,-296.4553 464,-312.5 481.7668,-318.4953 482.6441,-327.4022 500,-334.5 508.2804,-337.8863 517.1382,-340.851 526.0574,-343.4322"/>
<polygon fill="#191970" stroke="#191970" points="198.4626,-276.5526 188.2638,-279.4223 198.0261,-283.5389 198.4626,-276.5526"/>
</g>
<!-- Node70 -->
<g id="node7" class="node">
<title>Node70</title>
<g id="a_node7"><a xlink:href="class_chimera_t_k_1_1_doocs_backend_register_accessor.html#aaacff7be3f56763c779f1bae5a86f0e2" target="_top" xlink:title="ChimeraTK::DoocsBackendRegister\lAccessor::doReadTransferLatest">
<polygon fill="#ffffff" stroke="#000000" points="509.5,-294.5 509.5,-324.5 697.5,-324.5 697.5,-294.5 509.5,-294.5"/>
<text text-anchor="start" x="517.5" y="-312.5" font-family="Helvetica,sans-Serif" font-size="10.00" fill="#000000">ChimeraTK::DoocsBackendRegister</text>
<text text-anchor="middle" x="603.5" y="-301.5" font-family="Helvetica,sans-Serif" font-size="10.00" fill="#000000">Accessor::doReadTransferLatest</text>
</a>
</g>
</g>
<!-- Node64&#45;&gt;Node70 -->
<g id="edge6" class="edge">
<title>Node64&#45;&gt;Node70</title>
<path fill="none" stroke="#191970" d="M198.5225,-270.41C272.8203,-268.8432 374.8357,-269.4111 464,-279.5 478.7077,-281.1642 510.0813,-287.8117 539.3569,-294.4275"/>
<polygon fill="#191970" stroke="#191970" points="198.1446,-266.9176 188.2269,-270.6445 198.3041,-273.9158 198.1446,-266.9176"/>
</g>
<!-- Node71 -->
<g id="node8" class="node">
<title>Node71</title>
<g id="a_node8"><a xlink:href="class_chimera_t_k_1_1_doocs_backend_register_accessor.html#a15c9a6f709065cac28d2b01ad546036b" target="_top" xlink:title="ChimeraTK::DoocsBackendRegister\lAccessor::doReadTransfer">
<polygon fill="#ffffff" stroke="#000000" points="250,-196.5 250,-226.5 438,-226.5 438,-196.5 250,-196.5"/>
<text text-anchor="start" x="258" y="-214.5" font-family="Helvetica,sans-Serif" font-size="10.00" fill="#000000">ChimeraTK::DoocsBackendRegister</text>
<text text-anchor="middle" x="344" y="-203.5" font-family="Helvetica,sans-Serif" font-size="10.00" fill="#000000">Accessor::doReadTransfer</text>
</a>
</g>
</g>
<!-- Node64&#45;&gt;Node71 -->
<g id="edge7" class="edge">
<title>Node64&#45;&gt;Node71</title>
<path fill="none" stroke="#191970" d="M163.0166,-256.931C182.7132,-251.9304 204.2008,-246.4879 224,-241.5 243.3662,-236.6212 264.4984,-231.328 283.5578,-226.5653"/>
<polygon fill="#191970" stroke="#191970" points="162.0342,-253.5693 153.2036,-259.4234 163.7575,-260.3539 162.0342,-253.5693"/>
</g>
<!-- Node77 -->
<g id="node14" class="node">
<title>Node77</title>
<g id="a_node14"><a xlink:href="class_chimera_t_k_1_1_doocs_backend_register_accessor.html#a39d6b083cfd4872303afef6d6e8f471b" target="_top" xlink:title="ChimeraTK::DoocsBackendRegister\lAccessor::doReadTransferAsync">
<polygon fill="#ffffff" stroke="#000000" points="509.5,-.5 509.5,-30.5 697.5,-30.5 697.5,-.5 509.5,-.5"/>
<text text-anchor="start" x="517.5" y="-18.5" font-family="Helvetica,sans-Serif" font-size="10.00" fill="#000000">ChimeraTK::DoocsBackendRegister</text>
<text text-anchor="middle" x="603.5" y="-7.5" font-family="Helvetica,sans-Serif" font-size="10.00" fill="#000000">Accessor::doReadTransferAsync</text>
</a>
</g>
</g>
<!-- Node64&#45;&gt;Node77 -->
<g id="edge17" class="edge">
<title>Node64&#45;&gt;Node77</title>
<path fill="none" stroke="#191970" d="M118.9576,-252.978C143.8532,-232.7326 184.0486,-203.2459 224,-187.5 324.5389,-147.8748 381.7972,-218.6493 464,-148.5 502.8083,-115.3823 462.3187,-73.8946 500,-39.5 503.6784,-36.1425 507.7321,-33.2262 512.0412,-30.6955"/>
<polygon fill="#191970" stroke="#191970" points="116.5995,-250.3862 111.1237,-259.4563 121.0606,-255.7807 116.5995,-250.3862"/>
</g>
<!-- Node78 -->
<g id="node15" class="node">
<title>Node78</title>
<g id="a_node15"><a xlink:href="class_chimera_t_k_1_1_doocs_backend_register_accessor.html#a858e3fa3941ee0adcff3866da1e3544b" target="_top" xlink:title="internal write from EqData src ">
<polygon fill="#ffffff" stroke="#000000" points="250,-108.5 250,-138.5 438,-138.5 438,-108.5 250,-108.5"/>
<text text-anchor="start" x="258" y="-126.5" font-family="Helvetica,sans-Serif" font-size="10.00" fill="#000000">ChimeraTK::DoocsBackendRegister</text>
<text text-anchor="middle" x="344" y="-115.5" font-family="Helvetica,sans-Serif" font-size="10.00" fill="#000000">Accessor::write_internal</text>
</a>
</g>
</g>
<!-- Node64&#45;&gt;Node78 -->
<g id="edge16" class="edge">
<title>Node64&#45;&gt;Node78</title>
<path fill="none" stroke="#191970" d="M112.4061,-251.3558C135.5347,-223.8572 177.8305,-178.559 224,-153.5 235.3242,-147.3537 247.932,-142.4405 260.5996,-138.52"/>
<polygon fill="#191970" stroke="#191970" points="109.533,-249.3383 105.8606,-259.2764 114.9289,-253.7975 109.533,-249.3383"/>
</g>
<!-- Node79 -->
<g id="node16" class="node">
<title>Node79</title>
<g id="a_node16"><a xlink:href="class_chimera_t_k_1_1_doocs_backend_string_register_accessor.html#a238eef2791d961eb9c90754b92ca83fe" target="_top" xlink:title="ChimeraTK::DoocsBackendString\lRegisterAccessor::DoocsBackendString\lRegisterAccessor">
<polygon fill="#ffffff" stroke="#000000" points="241,-48 241,-89 447,-89 447,-48 241,-48"/>
<text text-anchor="start" x="249" y="-77" font-family="Helvetica,sans-Serif" font-size="10.00" fill="#000000">ChimeraTK::DoocsBackendString</text>
<text text-anchor="start" x="249" y="-66" font-family="Helvetica,sans-Serif" font-size="10.00" fill="#000000">RegisterAccessor::DoocsBackendString</text>
<text text-anchor="middle" x="344" y="-55" font-family="Helvetica,sans-Serif" font-size="10.00" fill="#000000">RegisterAccessor</text>
</a>
</g>
</g>
<!-- Node64&#45;&gt;Node79 -->
<g id="edge18" class="edge">
<title>Node64&#45;&gt;Node79</title>
<path fill="none" stroke="#191970" d="M105.3386,-250.0176C124.3191,-211.8175 166.208,-138.3915 224,-99.5 229.891,-95.5356 236.2572,-92.0782 242.8783,-89.0629"/>
<polygon fill="#191970" stroke="#191970" points="102.0198,-248.8399 100.804,-259.3648 108.3179,-251.8953 102.0198,-248.8399"/>
</g>
<!-- Node71&#45;&gt;Node69 -->
<g id="edge13" class="edge">
<title>Node71&#45;&gt;Node69</title>
<path fill="none" stroke="#191970" d="M389.7735,-231.0064C413.7007,-242.7066 442.4139,-259.2533 464,-279.5 485.3088,-299.4866 476.0462,-317.7744 500,-334.5 504.9152,-337.932 510.2505,-340.8794 515.82,-343.4099"/>
<polygon fill="#191970" stroke="#191970" points="391.0596,-227.7424 380.5259,-226.606 388.0518,-234.0633 391.0596,-227.7424"/>
</g>
<!-- Node71&#45;&gt;Node70 -->
<g id="edge14" class="edge">
<title>Node71&#45;&gt;Node70</title>
<path fill="none" stroke="#191970" d="M441.8379,-230.199C449.6041,-233.3906 457.1016,-237.1266 464,-241.5 485.3399,-255.0288 478.5451,-272.1544 500,-285.5 505.5602,-288.9586 511.5687,-291.9196 517.7941,-294.4543"/>
<polygon fill="#191970" stroke="#191970" points="442.8451,-226.8379 432.2537,-226.5698 440.3662,-233.3843 442.8451,-226.8379"/>
</g>
<!-- Node72 -->
<g id="node9" class="node">
<title>Node72</title>
<g id="a_node9"><a xlink:href="class_chimera_t_k_1_1_doocs_backend_float_register_accessor.html#aeea7b94cf3233800ec1ba380dfda4209" target="_top" xlink:title="ChimeraTK::DoocsBackendFloat\lRegisterAccessor::doPreWrite">
<polygon fill="#ffffff" stroke="#000000" points="517,-49.5 517,-79.5 690,-79.5 690,-49.5 517,-49.5"/>
<text text-anchor="start" x="525" y="-67.5" font-family="Helvetica,sans-Serif" font-size="10.00" fill="#000000">ChimeraTK::DoocsBackendFloat</text>
<text text-anchor="middle" x="603.5" y="-56.5" font-family="Helvetica,sans-Serif" font-size="10.00" fill="#000000">RegisterAccessor::doPreWrite</text>
</a>
</g>
</g>
<!-- Node71&#45;&gt;Node72 -->
<g id="edge8" class="edge">
<title>Node71&#45;&gt;Node72</title>
<path fill="none" stroke="#191970" d="M447.252,-193.1037C453.2608,-189.825 458.9162,-185.9878 464,-181.5 497.2273,-152.1676 466.5228,-117.5469 500,-88.5 505.0853,-84.0877 510.8244,-80.4457 516.9276,-77.4441"/>
<polygon fill="#191970" stroke="#191970" points="445.6679,-189.9822 438.2211,-197.5185 448.7423,-196.271 445.6679,-189.9822"/>
</g>
<!-- Node73 -->
<g id="node10" class="node">
<title>Node73</title>
<g id="a_node10"><a xlink:href="class_chimera_t_k_1_1_doocs_backend_i_f_f_f_register_accessor.html#a7c3ab24046d6145533ff8b7cb496b834" target="_top" xlink:title="ChimeraTK::DoocsBackendIFFFRegister\lAccessor::doPreWrite">
<polygon fill="#ffffff" stroke="#000000" points="500,-245.5 500,-275.5 707,-275.5 707,-245.5 500,-245.5"/>
<text text-anchor="start" x="508" y="-263.5" font-family="Helvetica,sans-Serif" font-size="10.00" fill="#000000">ChimeraTK::DoocsBackendIFFFRegister</text>
<text text-anchor="middle" x="603.5" y="-252.5" font-family="Helvetica,sans-Serif" font-size="10.00" fill="#000000">Accessor::doPreWrite</text>
</a>
</g>
</g>
<!-- Node71&#45;&gt;Node73 -->
<g id="edge9" class="edge">
<title>Node71&#45;&gt;Node73</title>
<path fill="none" stroke="#191970" d="M433.4741,-228.3949C462.9014,-233.9515 495.397,-240.0875 524.0285,-245.4938"/>
<polygon fill="#191970" stroke="#191970" points="434.0979,-224.9509 423.6221,-226.5346 432.799,-231.8294 434.0979,-224.9509"/>
</g>
<!-- Node74 -->
<g id="node11" class="node">
<title>Node74</title>
<g id="a_node11"><a xlink:href="class_chimera_t_k_1_1_doocs_backend_i_i_i_i_register_accessor.html#a689895661ce88d247f6631a8484c971f" target="_top" xlink:title="ChimeraTK::DoocsBackendIIIIRegister\lAccessor::doPreWrite">
<polygon fill="#ffffff" stroke="#000000" points="503.5,-196.5 503.5,-226.5 703.5,-226.5 703.5,-196.5 503.5,-196.5"/>
<text text-anchor="start" x="511.5" y="-214.5" font-family="Helvetica,sans-Serif" font-size="10.00" fill="#000000">ChimeraTK::DoocsBackendIIIIRegister</text>
<text text-anchor="middle" x="603.5" y="-203.5" font-family="Helvetica,sans-Serif" font-size="10.00" fill="#000000">Accessor::doPreWrite</text>
</a>
</g>
</g>
<!-- Node71&#45;&gt;Node74 -->
<g id="edge10" class="edge">
<title>Node71&#45;&gt;Node74</title>
<path fill="none" stroke="#191970" d="M448.0703,-211.5C466.2494,-211.5 485.1292,-211.5 503.2039,-211.5"/>
<polygon fill="#191970" stroke="#191970" points="448.0524,-208.0001 438.0524,-211.5 448.0523,-215.0001 448.0524,-208.0001"/>
</g>
<!-- Node75 -->
<g id="node12" class="node">
<title>Node75</title>
<g id="a_node12"><a xlink:href="class_chimera_t_k_1_1_doocs_backend_int_register_accessor.html#a15b13ffa2c40d0c7c96ef1dd00c132d3" target="_top" xlink:title="ChimeraTK::DoocsBackendInt\lRegisterAccessor::doPreWrite">
<polygon fill="#ffffff" stroke="#000000" points="523,-147.5 523,-177.5 684,-177.5 684,-147.5 523,-147.5"/>
<text text-anchor="start" x="531" y="-165.5" font-family="Helvetica,sans-Serif" font-size="10.00" fill="#000000">ChimeraTK::DoocsBackendInt</text>
<text text-anchor="middle" x="603.5" y="-154.5" font-family="Helvetica,sans-Serif" font-size="10.00" fill="#000000">RegisterAccessor::doPreWrite</text>
</a>
</g>
</g>
<!-- Node71&#45;&gt;Node75 -->
<g id="edge11" class="edge">
<title>Node71&#45;&gt;Node75</title>
<path fill="none" stroke="#191970" d="M433.4741,-194.6051C462.9014,-189.0485 495.397,-182.9125 524.0285,-177.5062"/>
<polygon fill="#191970" stroke="#191970" points="432.799,-191.1706 423.6221,-196.4654 434.0979,-198.0491 432.799,-191.1706"/>
</g>
<!-- Node76 -->
<g id="node13" class="node">
<title>Node76</title>
<g id="a_node13"><a xlink:href="class_chimera_t_k_1_1_doocs_backend_long_register_accessor.html#abbb037b241017083bb4310ab2a24e077" target="_top" xlink:title="ChimeraTK::DoocsBackendLong\lRegisterAccessor::doPreWrite">
<polygon fill="#ffffff" stroke="#000000" points="517.5,-98.5 517.5,-128.5 689.5,-128.5 689.5,-98.5 517.5,-98.5"/>
<text text-anchor="start" x="525.5" y="-116.5" font-family="Helvetica,sans-Serif" font-size="10.00" fill="#000000">ChimeraTK::DoocsBackendLong</text>
<text text-anchor="middle" x="603.5" y="-105.5" font-family="Helvetica,sans-Serif" font-size="10.00" fill="#000000">RegisterAccessor::doPreWrite</text>
</a>
</g>
</g>
<!-- Node71&#45;&gt;Node76 -->
<g id="edge12" class="edge">
<title>Node71&#45;&gt;Node76</title>
<path fill="none" stroke="#191970" d="M441.3072,-192.91C449.2549,-189.6943 456.9355,-185.9229 464,-181.5 485.1257,-168.2736 478.8217,-151.6421 500,-138.5 506.2828,-134.6012 513.1291,-131.3105 520.2094,-128.5329"/>
<polygon fill="#191970" stroke="#191970" points="440.0172,-189.6556 431.8757,-196.4355 442.4681,-196.2125 440.0172,-189.6556"/>
</g>
<!-- Node71&#45;&gt;Node77 -->
<g id="edge15" class="edge">
<title>Node71&#45;&gt;Node77</title>
<path fill="none" stroke="#191970" d="M447.3376,-194.1215C453.4049,-190.6083 459.0437,-186.4399 464,-181.5 510.1143,-135.5382 453.494,-85.0654 500,-39.5 503.4256,-36.1437 507.223,-33.2215 511.2813,-30.68"/>
<polygon fill="#191970" stroke="#191970" points="445.4781,-191.1414 438.1713,-198.8136 448.6677,-197.3725 445.4781,-191.1414"/>
</g>
</g>
</svg>
        <g id="navigator" transform="translate(0 0)" fill="#404254">
                <rect fill="#f2f5e9" fill-opacity="0.5" stroke="#606060" stroke-width=".5" x="0" y="0" width="60" height="60"/>
                <use id="zoomplus" xlink:href="#zoomPlus" x="17" y="9" onmousedown="handleZoom(evt,'in')"/>
                <use id="zoomminus" xlink:href="#zoomMin" x="42" y="9" onmousedown="handleZoom(evt,'out')"/>
                <use id="reset" xlink:href="#resetDef" x="30" y="36" onmousedown="handleReset()"/>
                <g id="arrowUp" xlink:href="#dirArrow" transform="translate(30 24)" onmousedown="handlePan(0,-1)">
                  <use xlink:href="#rim" fill="#404040">
                        <set attributeName="fill" to="#808080" begin="arrowUp.mouseover" end="arrowUp.mouseout"/>
                  </use>
                  <path fill="none" stroke="white" stroke-width="1.5" d="M0,-3.0v7 M-2.5,-0.5L0,-3.0L2.5,-0.5"/>
                </g>
                <g id="arrowRight" xlink:href="#dirArrow" transform="rotate(90) translate(36 -43)" onmousedown="handlePan(1,0)">
                  <use xlink:href="#rim" fill="#404040">
                        <set attributeName="fill" to="#808080" begin="arrowRight.mouseover" end="arrowRight.mouseout"/>
                  </use>
                  <path fill="none" stroke="white" stroke-width="1.5" d="M0,-3.0v7 M-2.5,-0.5L0,-3.0L2.5,-0.5"/>
                </g>
                <g id="arrowDown" xlink:href="#dirArrow" transform="rotate(180) translate(-30 -48)" onmousedown="handlePan(0,1)">
                  <use xlink:href="#rim" fill="#404040">
                        <set attributeName="fill" to="#808080" begin="arrowDown.mouseover" end="arrowDown.mouseout"/>
                  </use>
                  <path fill="none" stroke="white" stroke-width="1.5" d="M0,-3.0v7 M-2.5,-0.5L0,-3.0L2.5,-0.5"/>
                </g>
                <g id="arrowLeft" xlink:href="#dirArrow" transform="rotate(270) translate(-36 17)" onmousedown="handlePan(-1,0)">
                  <use xlink:href="#rim" fill="#404040">
                        <set attributeName="fill" to="#808080" begin="arrowLeft.mouseover" end="arrowLeft.mouseout"/>
                  </use>
                  <path fill="none" stroke="white" stroke-width="1.5" d="M0,-3.0v7 M-2.5,-0.5L0,-3.0L2.5,-0.5"/>
                </g>
        </g>
        <svg viewBox="0 0 15 15" width="100%" height="30px" preserveAspectRatio="xMaxYMin meet">
         <g id="arrow_out" transform="scale(0.3 0.3)">
          <a xlink:href="class_chimera_t_k_1_1_doocs_backend_register_accessor_a1eb2bd214a2a08a31e732cbd0de34a6c_icgraph_org.svg" target="_base">
           <rect id="button" ry="5" rx="5" y="6" x="6" height="38" width="38"
                fill="#f2f5e9" fill-opacity="0.5" stroke="#606060" stroke-width="1.0"/>
           <path id="arrow"
             d="M 11.500037,31.436501 C 11.940474,20.09759 22.043105,11.32322 32.158766,21.979434 L 37.068811,17.246167 C 37.068811,17.246167 37.088388,32 37.088388,32 L 22.160133,31.978069 C 22.160133,31.978069 26.997745,27.140456 26.997745,27.140456 C 18.528582,18.264221 13.291696,25.230495 11.500037,31.436501 z"
             style="fill:#404040;"/>
          </a>
         </g>
        </svg>
</svg>
