<?xml version="1.0" encoding="UTF-8" standalone="no"?>
<!DOCTYPE svg PUBLIC "-//W3C//DTD SVG 1.1//EN"
 "http://www.w3.org/Graphics/SVG/1.1/DTD/svg11.dtd">
<!-- Generated by graphviz version 2.40.1 (20161225.0304)
 -->
<!-- Title: include/VariableMapper.h Pages: 1 -->
<svg width="4706pt" height="274pt"
 viewBox="0.00 0.00 4705.73 274.00" xmlns="http://www.w3.org/2000/svg" xmlns:xlink="http://www.w3.org/1999/xlink">
<g id="graph0" class="graph" transform="scale(1 1) rotate(0) translate(4 270)">
<title>include/VariableMapper.h</title>
<polygon fill="#ffffff" stroke="transparent" points="-4,4 -4,-270 4701.7335,-270 4701.7335,4 -4,4"/>
<!-- Node12 -->
<g id="node1" class="node">
<title>Node12</title>
<polygon fill="#bfbfbf" stroke="#000000" points="4242.7335,-246.5 4242.7335,-265.5 4381.7335,-265.5 4381.7335,-246.5 4242.7335,-246.5"/>
<text text-anchor="middle" x="4312.2335" y="-253.5" font-family="Helvetica,sans-Serif" font-size="10.00" fill="#000000">include/VariableMapper.h</text>
</g>
<!-- Node13 -->
<g id="node2" class="node">
<title>Node13</title>
<g id="a_node2"><a xlink:href="_doocs_p_v_factory_8h.html" target="_top" xlink:title="include/DoocsPVFactory.h">
<polygon fill="#ffffff" stroke="#000000" points="4102.2335,-190.5 4102.2335,-209.5 4242.2335,-209.5 4242.2335,-190.5 4102.2335,-190.5"/>
<text text-anchor="middle" x="4172.2335" y="-197.5" font-family="Helvetica,sans-Serif" font-size="10.00" fill="#000000">include/DoocsPVFactory.h</text>
</a>
</g>
</g>
<!-- Node12&#45;&gt;Node13 -->
<g id="edge1" class="edge">
<title>Node12&#45;&gt;Node13</title>
<path fill="none" stroke="#191970" d="M4278.8687,-242.6541C4253.3383,-232.4419 4218.7552,-218.6086 4195.9863,-209.5011"/>
<polygon fill="#191970" stroke="#191970" points="4277.582,-245.909 4288.1667,-246.3733 4280.1818,-239.4096 4277.582,-245.909"/>
</g>
<!-- Node23 -->
<g id="node12" class="node">
<title>Node23</title>
<g id="a_node12"><a xlink:href="eq__create_8cc.html" target="_top" xlink:title="src/eq_create.cc">
<polygon fill="#ffffff" stroke="#000000" points="16.7335,-73 16.7335,-92 111.7335,-92 111.7335,-73 16.7335,-73"/>
<text text-anchor="middle" x="64.2335" y="-80" font-family="Helvetica,sans-Serif" font-size="10.00" fill="#000000">src/eq_create.cc</text>
</a>
</g>
</g>
<!-- Node12&#45;&gt;Node23 -->
<g id="edge40" class="edge">
<title>Node12&#45;&gt;Node23</title>
<path fill="none" stroke="#191970" d="M4232.4388,-255.5202C3726.1966,-252.0964 956.0707,-227.6172 120.2335,-98 111.4612,-96.6396 102.1026,-94.383 93.5975,-92.007"/>
<polygon fill="#191970" stroke="#191970" points="4232.5458,-259.0209 4242.569,-255.588 4232.5927,-252.0211 4232.5458,-259.0209"/>
</g>
<!-- Node43 -->
<g id="node32" class="node">
<title>Node43</title>
<g id="a_node32"><a xlink:href="test_c_s_adapter_eq_fct_8cpp.html" target="_top" xlink:title="tests/src/testCSAdapterEq\lFct.cpp">
<polygon fill="#ffffff" stroke="#000000" points="4262.7335,-67.5 4262.7335,-97.5 4405.7335,-97.5 4405.7335,-67.5 4262.7335,-67.5"/>
<text text-anchor="start" x="4270.7335" y="-85.5" font-family="Helvetica,sans-Serif" font-size="10.00" fill="#000000">tests/src/testCSAdapterEq</text>
<text text-anchor="middle" x="4334.2335" y="-74.5" font-family="Helvetica,sans-Serif" font-size="10.00" fill="#000000">Fct.cpp</text>
</a>
</g>
</g>
<!-- Node12&#45;&gt;Node43 -->
<g id="edge42" class="edge">
<title>Node12&#45;&gt;Node43</title>
<path fill="none" stroke="#191970" d="M4317.7052,-236.609C4323.1484,-216.2366 4331.1241,-183.1642 4334.2335,-154 4336.2997,-134.6211 4335.8316,-112.1195 4335.1605,-97.614"/>
<polygon fill="#191970" stroke="#191970" points="4314.3262,-235.6967 4315.0588,-246.2662 4321.0773,-237.5468 4314.3262,-235.6967"/>
</g>
<!-- Node45 -->
<g id="node34" class="node">
<title>Node45</title>
<g id="a_node34"><a xlink:href="_c_s_adapter_eq_fct_8cc.html" target="_top" xlink:title="src/CSAdapterEqFct.cc">
<polygon fill="#ffffff" stroke="#000000" points="4200.7335,-134.5 4200.7335,-153.5 4325.7335,-153.5 4325.7335,-134.5 4200.7335,-134.5"/>
<text text-anchor="middle" x="4263.2335" y="-141.5" font-family="Helvetica,sans-Serif" font-size="10.00" fill="#000000">src/CSAdapterEqFct.cc</text>
</a>
</g>
</g>
<!-- Node12&#45;&gt;Node45 -->
<g id="edge39" class="edge">
<title>Node12&#45;&gt;Node45</title>
<path fill="none" stroke="#191970" d="M4304.0303,-237.2498C4293.4624,-213.0946 4275.4924,-172.0202 4267.4007,-153.5249"/>
<polygon fill="#191970" stroke="#191970" points="4300.841,-238.6922 4308.0558,-246.4509 4307.2541,-235.8865 4300.841,-238.6922"/>
</g>
<!-- Node46 -->
<g id="node35" class="node">
<title>Node46</title>
<g id="a_node35"><a xlink:href="_variable_mapper_8cc.html" target="_top" xlink:title="src/VariableMapper.cc">
<polygon fill="#ffffff" stroke="#000000" points="4382.2335,-190.5 4382.2335,-209.5 4504.2335,-209.5 4504.2335,-190.5 4382.2335,-190.5"/>
<text text-anchor="middle" x="4443.2335" y="-197.5" font-family="Helvetica,sans-Serif" font-size="10.00" fill="#000000">src/VariableMapper.cc</text>
</a>
</g>
</g>
<!-- Node12&#45;&gt;Node46 -->
<g id="edge41" class="edge">
<title>Node12&#45;&gt;Node46</title>
<path fill="none" stroke="#191970" d="M4344.0869,-242.3833C4367.912,-232.1985 4399.8903,-218.5284 4421.0077,-209.5011"/>
<polygon fill="#191970" stroke="#191970" points="4342.5726,-239.2242 4334.7532,-246.3733 4345.3241,-245.6608 4342.5726,-239.2242"/>
</g>
<!-- Node47 -->
<g id="node36" class="node">
<title>Node47</title>
<g id="a_node36"><a xlink:href="test_variable_mapper_8cpp.html" target="_top" xlink:title="tests/src/testVariableMapper.cpp">
<polygon fill="#ffffff" stroke="#000000" points="4522.7335,-190.5 4522.7335,-209.5 4697.7335,-209.5 4697.7335,-190.5 4522.7335,-190.5"/>
<text text-anchor="middle" x="4610.2335" y="-197.5" font-family="Helvetica,sans-Serif" font-size="10.00" fill="#000000">tests/src/testVariableMapper.cpp</text>
</a>
</g>
</g>
<!-- Node12&#45;&gt;Node47 -->
<g id="edge43" class="edge">
<title>Node12&#45;&gt;Node47</title>
<path fill="none" stroke="#191970" d="M4373.082,-244.5654C4428.0422,-234.2373 4507.9876,-219.214 4559.554,-209.5237"/>
<polygon fill="#191970" stroke="#191970" points="4372.3045,-241.1501 4363.123,-246.4369 4373.5974,-248.0297 4372.3045,-241.1501"/>
</g>
<!-- Node14 -->
<g id="node3" class="node">
<title>Node14</title>
<g id="a_node3"><a xlink:href="_doocs_adapter_8h.html" target="_top" xlink:title="include/DoocsAdapter.h">
<polygon fill="#ffffff" stroke="#000000" points="2238.7335,-134.5 2238.7335,-153.5 2369.7335,-153.5 2369.7335,-134.5 2238.7335,-134.5"/>
<text text-anchor="middle" x="2304.2335" y="-141.5" font-family="Helvetica,sans-Serif" font-size="10.00" fill="#000000">include/DoocsAdapter.h</text>
</a>
</g>
</g>
<!-- Node13&#45;&gt;Node14 -->
<g id="edge2" class="edge">
<title>Node13&#45;&gt;Node14</title>
<path fill="none" stroke="#191970" d="M4091.8292,-197.5896C3780.0981,-188.2443 2654.5184,-154.501 2369.9519,-145.9701"/>
<polygon fill="#191970" stroke="#191970" points="4092.0333,-201.0972 4102.1337,-197.8985 4092.2431,-194.1003 4092.0333,-201.0972"/>
</g>
<!-- Node16 -->
<g id="node5" class="node">
<title>Node16</title>
<g id="a_node5"><a xlink:href="_doocs_p_v_factory_8cc.html" target="_top" xlink:title="src/DoocsPVFactory.cc">
<polygon fill="#ffffff" stroke="#000000" points="2241.2335,-6 2241.2335,-25 2365.2335,-25 2365.2335,-6 2241.2335,-6"/>
<text text-anchor="middle" x="2303.2335" y="-13" font-family="Helvetica,sans-Serif" font-size="10.00" fill="#000000">src/DoocsPVFactory.cc</text>
</a>
</g>
</g>
<!-- Node13&#45;&gt;Node16 -->
<g id="edge37" class="edge">
<title>Node13&#45;&gt;Node16</title>
<path fill="none" stroke="#191970" d="M4091.9517,-199.5761C3519.8365,-196.3704 81.3014,-173.9581 7.2335,-98 -2.3853,-88.1357 -2.4297,-76.8209 7.2335,-67 50.5678,-22.9587 2169.8495,-38.0353 2231.2335,-31 2242.5394,-29.7042 2254.6864,-27.436 2265.7233,-25.0281"/>
<polygon fill="#191970" stroke="#191970" points="4092.1466,-203.0771 4102.166,-199.633 4092.1857,-196.0773 4092.1466,-203.0771"/>
</g>
<!-- Node17 -->
<g id="node6" class="node">
<title>Node17</title>
<g id="a_node6"><a xlink:href="test_doocs_p_v_factory_8cpp.html" target="_top" xlink:title="tests/src/testDoocsPVFactory.cpp">
<polygon fill="#ffffff" stroke="#000000" points="2698.2335,-6 2698.2335,-25 2874.2335,-25 2874.2335,-6 2698.2335,-6"/>
<text text-anchor="middle" x="2786.2335" y="-13" font-family="Helvetica,sans-Serif" font-size="10.00" fill="#000000">tests/src/testDoocsPVFactory.cpp</text>
</a>
</g>
</g>
<!-- Node13&#45;&gt;Node17 -->
<g id="edge38" class="edge">
<title>Node13&#45;&gt;Node17</title>
<path fill="none" stroke="#191970" d="M4179.7816,-180.5651C4189.6175,-151.585 4202.3579,-97.2258 4173.2335,-67 4150.6293,-43.5409 3175.9409,-22.9566 2874.2737,-17.138"/>
<polygon fill="#191970" stroke="#191970" points="4176.361,-179.7319 4176.2475,-190.3262 4182.9428,-182.1151 4176.361,-179.7319"/>
</g>
<!-- Node13&#45;&gt;Node45 -->
<g id="edge36" class="edge">
<title>Node13&#45;&gt;Node45</title>
<path fill="none" stroke="#191970" d="M4196.9839,-184.769C4213.1094,-174.8456 4233.6595,-162.1994 4247.5642,-153.6427"/>
<polygon fill="#191970" stroke="#191970" points="4194.7668,-182.0237 4188.0845,-190.2455 4198.4355,-187.9853 4194.7668,-182.0237"/>
</g>
<!-- Node14&#45;&gt;Node14 -->
<g id="edge3" class="edge">
<title>Node14&#45;&gt;Node14</title>
<path fill="none" stroke="#191970" d="M2349.9603,-154.3457C2370.2386,-155.2971 2387.7335,-151.8485 2387.7335,-144 2387.7335,-134.8672 2364.0445,-131.6921 2339.8464,-134.4748"/>
<polygon fill="#191970" stroke="#191970" points="2350.0967,-150.8454 2339.8464,-153.5252 2349.5307,-157.8225 2350.0967,-150.8454"/>
</g>
<!-- Node15 -->
<g id="node4" class="node">
<title>Node15</title>
<g id="a_node4"><a xlink:href="_doocs_process_array_8h.html" target="_top" xlink:title="include/DoocsProcessArray.h">
<polygon fill="#ffffff" stroke="#000000" points="2708.2335,-73 2708.2335,-92 2864.2335,-92 2864.2335,-73 2708.2335,-73"/>
<text text-anchor="middle" x="2786.2335" y="-80" font-family="Helvetica,sans-Serif" font-size="10.00" fill="#000000">include/DoocsProcessArray.h</text>
</a>
</g>
</g>
<!-- Node14&#45;&gt;Node15 -->
<g id="edge4" class="edge">
<title>Node14&#45;&gt;Node15</title>
<path fill="none" stroke="#191970" d="M2380.1692,-136.532C2459.8303,-128.3761 2588.5963,-114.2826 2699.2335,-98 2711.0728,-96.2576 2723.7741,-94.138 2735.713,-92.0329"/>
<polygon fill="#191970" stroke="#191970" points="2379.3361,-133.0987 2369.7424,-137.5944 2380.0457,-140.0627 2379.3361,-133.0987"/>
</g>
<!-- Node18 -->
<g id="node7" class="node">
<title>Node18</title>
<g id="a_node7"><a xlink:href="_doocs_process_scalar_8h.html" target="_top" xlink:title="include/DoocsProcessScalar.h">
<polygon fill="#ffffff" stroke="#000000" points="2145.7335,-73 2145.7335,-92 2306.7335,-92 2306.7335,-73 2145.7335,-73"/>
<text text-anchor="middle" x="2226.2335" y="-80" font-family="Helvetica,sans-Serif" font-size="10.00" fill="#000000">include/DoocsProcessScalar.h</text>
</a>
</g>
</g>
<!-- Node14&#45;&gt;Node18 -->
<g id="edge7" class="edge">
<title>Node14&#45;&gt;Node18</title>
<path fill="none" stroke="#191970" d="M2284.13,-128.1491C2269.637,-116.722 2250.553,-101.6749 2238.3355,-92.0419"/>
<polygon fill="#191970" stroke="#191970" points="2282.0263,-130.9475 2292.046,-134.3906 2286.3604,-125.4506 2282.0263,-130.9475"/>
</g>
<!-- Node20 -->
<g id="node9" class="node">
<title>Node20</title>
<g id="a_node9"><a xlink:href="_doocs_adapter_8cc.html" target="_top" xlink:title="src/DoocsAdapter.cc">
<polygon fill="#ffffff" stroke="#000000" points="2324.7335,-73 2324.7335,-92 2439.7335,-92 2439.7335,-73 2324.7335,-73"/>
<text text-anchor="middle" x="2382.2335" y="-80" font-family="Helvetica,sans-Serif" font-size="10.00" fill="#000000">src/DoocsAdapter.cc</text>
</a>
</g>
</g>
<!-- Node14&#45;&gt;Node20 -->
<g id="edge11" class="edge">
<title>Node14&#45;&gt;Node20</title>
<path fill="none" stroke="#191970" d="M2324.3371,-128.1491C2338.83,-116.722 2357.9141,-101.6749 2370.1316,-92.0419"/>
<polygon fill="#191970" stroke="#191970" points="2322.1067,-125.4506 2316.421,-134.3906 2326.4408,-130.9475 2322.1067,-125.4506"/>
</g>
<!-- Node21 -->
<g id="node10" class="node">
<title>Node21</title>
<g id="a_node10"><a xlink:href="_doocs_ifff_8cc.html" target="_top" xlink:title="src/DoocsIfff.cc">
<polygon fill="#ffffff" stroke="#000000" points="2458.2335,-73 2458.2335,-92 2548.2335,-92 2548.2335,-73 2458.2335,-73"/>
<text text-anchor="middle" x="2503.2335" y="-80" font-family="Helvetica,sans-Serif" font-size="10.00" fill="#000000">src/DoocsIfff.cc</text>
</a>
</g>
</g>
<!-- Node14&#45;&gt;Node21 -->
<g id="edge12" class="edge">
<title>Node14&#45;&gt;Node21</title>
<path fill="none" stroke="#191970" d="M2345.0041,-131.4001C2382.7745,-119.7273 2438.1291,-102.6202 2472.3581,-92.0419"/>
<polygon fill="#191970" stroke="#191970" points="2343.848,-128.0939 2335.3273,-134.3906 2345.9149,-134.7818 2343.848,-128.0939"/>
</g>
<!-- Node22 -->
<g id="node11" class="node">
<title>Node22</title>
<g id="a_node11"><a xlink:href="_doocs_spectrum_8cc.html" target="_top" xlink:title="src/DoocsSpectrum.cc">
<polygon fill="#ffffff" stroke="#000000" points="2566.2335,-73 2566.2335,-92 2690.2335,-92 2690.2335,-73 2566.2335,-73"/>
<text text-anchor="middle" x="2628.2335" y="-80" font-family="Helvetica,sans-Serif" font-size="10.00" fill="#000000">src/DoocsSpectrum.cc</text>
</a>
</g>
</g>
<!-- Node14&#45;&gt;Node22 -->
<g id="edge13" class="edge">
<title>Node14&#45;&gt;Node22</title>
<path fill="none" stroke="#191970" d="M2370.0446,-132.6864C2421.178,-123.7385 2493.8256,-110.6816 2557.2335,-98 2566.5123,-96.1442 2576.4483,-94.0455 2585.86,-92.0054"/>
<polygon fill="#191970" stroke="#191970" points="2369.3631,-129.2524 2360.1139,-134.4199 2370.5669,-136.1481 2369.3631,-129.2524"/>
</g>
<!-- Node14&#45;&gt;Node23 -->
<g id="edge14" class="edge">
<title>Node14&#45;&gt;Node23</title>
<path fill="none" stroke="#191970" d="M2228.6132,-143.5238C1868.0278,-141.1025 331.9683,-129.0358 120.2335,-98 111.3504,-96.6979 101.8753,-94.4278 93.2936,-92.0201"/>
<polygon fill="#191970" stroke="#191970" points="2228.6609,-147.0241 2238.684,-143.5909 2228.7076,-140.0242 2228.6609,-147.0241"/>
</g>
<!-- Node24 -->
<g id="node13" class="node">
<title>Node24</title>
<g id="a_node13"><a xlink:href="server_test_auto_create_locations_8cpp.html" target="_top" xlink:title="tests/src/serverTestAuto\lCreateLocations.cpp">
<polygon fill="#ffffff" stroke="#000000" points="2882.2335,-67.5 2882.2335,-97.5 3016.2335,-97.5 3016.2335,-67.5 2882.2335,-67.5"/>
<text text-anchor="start" x="2890.2335" y="-85.5" font-family="Helvetica,sans-Serif" font-size="10.00" fill="#000000">tests/src/serverTestAuto</text>
<text text-anchor="middle" x="2949.2335" y="-74.5" font-family="Helvetica,sans-Serif" font-size="10.00" fill="#000000">CreateLocations.cpp</text>
</a>
</g>
</g>
<!-- Node14&#45;&gt;Node24 -->
<g id="edge15" class="edge">
<title>Node14&#45;&gt;Node24</title>
<path fill="none" stroke="#191970" d="M2380.0702,-140.7796C2489.4399,-135.4763 2697.6137,-122.9149 2873.2335,-98 2876.1667,-97.5839 2879.157,-97.1248 2882.173,-96.6332"/>
<polygon fill="#191970" stroke="#191970" points="2379.6204,-137.297 2369.7988,-141.2703 2379.9545,-144.289 2379.6204,-137.297"/>
</g>
<!-- Node25 -->
<g id="node14" class="node">
<title>Node25</title>
<g id="a_node14"><a xlink:href="server_test_call_optimise_unmapped_variables_8cpp.html" target="_top" xlink:title="tests/src/serverTestCall\lOptimiseUnmappedVariables.cpp">
<polygon fill="#ffffff" stroke="#000000" points="3034.7335,-67.5 3034.7335,-97.5 3213.7335,-97.5 3213.7335,-67.5 3034.7335,-67.5"/>
<text text-anchor="start" x="3042.7335" y="-85.5" font-family="Helvetica,sans-Serif" font-size="10.00" fill="#000000">tests/src/serverTestCall</text>
<text text-anchor="middle" x="3124.2335" y="-74.5" font-family="Helvetica,sans-Serif" font-size="10.00" fill="#000000">OptimiseUnmappedVariables.cpp</text>
</a>
</g>
</g>
<!-- Node14&#45;&gt;Node25 -->
<g id="edge16" class="edge">
<title>Node14&#45;&gt;Node25</title>
<path fill="none" stroke="#191970" d="M2380.3952,-141.4354C2512.1362,-136.4871 2790.952,-123.7591 3025.2335,-98 3028.3462,-97.6578 3031.5106,-97.287 3034.7041,-96.8935"/>
<polygon fill="#191970" stroke="#191970" points="2379.8827,-137.9519 2370.0194,-141.8204 2380.1424,-144.9471 2379.8827,-137.9519"/>
</g>
<!-- Node26 -->
<g id="node15" class="node">
<title>Node26</title>
<g id="a_node15"><a xlink:href="server_test_data_matching_8cpp.html" target="_top" xlink:title="tests/src/serverTestData\lMatching.cpp">
<polygon fill="#ffffff" stroke="#000000" points="3232.2335,-67.5 3232.2335,-97.5 3366.2335,-97.5 3366.2335,-67.5 3232.2335,-67.5"/>
<text text-anchor="start" x="3240.2335" y="-85.5" font-family="Helvetica,sans-Serif" font-size="10.00" fill="#000000">tests/src/serverTestData</text>
<text text-anchor="middle" x="3299.2335" y="-74.5" font-family="Helvetica,sans-Serif" font-size="10.00" fill="#000000">Matching.cpp</text>
</a>
</g>
</g>
<!-- Node14&#45;&gt;Node26 -->
<g id="edge17" class="edge">
<title>Node14&#45;&gt;Node26</title>
<path fill="none" stroke="#191970" d="M2380.0932,-141.6531C2569.5887,-135.5566 3060.0464,-118.2735 3222.2335,-98 3225.481,-97.5941 3228.7962,-97.128 3232.1381,-96.6167"/>
<polygon fill="#191970" stroke="#191970" points="2379.8261,-138.1598 2369.9433,-141.9782 2380.0502,-145.1562 2379.8261,-138.1598"/>
</g>
<!-- Node27 -->
<g id="node16" class="node">
<title>Node27</title>
<g id="a_node16"><a xlink:href="server_test_error_flag_8cpp.html" target="_top" xlink:title="tests/src/serverTestError\lFlag.cpp">
<polygon fill="#ffffff" stroke="#000000" points="3384.2335,-67.5 3384.2335,-97.5 3518.2335,-97.5 3518.2335,-67.5 3384.2335,-67.5"/>
<text text-anchor="start" x="3392.2335" y="-85.5" font-family="Helvetica,sans-Serif" font-size="10.00" fill="#000000">tests/src/serverTestError</text>
<text text-anchor="middle" x="3451.2335" y="-74.5" font-family="Helvetica,sans-Serif" font-size="10.00" fill="#000000">Flag.cpp</text>
</a>
</g>
</g>
<!-- Node14&#45;&gt;Node27 -->
<g id="edge18" class="edge">
<title>Node14&#45;&gt;Node27</title>
<path fill="none" stroke="#191970" d="M2379.9002,-142.3089C2590.7772,-137.3475 3182.2401,-121.6737 3375.2335,-98 3378.174,-97.6393 3381.1704,-97.2261 3384.1913,-96.7722"/>
<polygon fill="#191970" stroke="#191970" points="2379.7645,-138.811 2369.8491,-142.544 2379.9283,-145.8091 2379.7645,-138.811"/>
</g>
<!-- Node28 -->
<g id="node17" class="node">
<title>Node28</title>
<g id="a_node17"><a xlink:href="server_test_global_turn_on_off_history_8cpp.html" target="_top" xlink:title="tests/src/serverTestGlobal\lTurnOnOffHistory.cpp">
<polygon fill="#ffffff" stroke="#000000" points="3536.7335,-67.5 3536.7335,-97.5 3679.7335,-97.5 3679.7335,-67.5 3536.7335,-67.5"/>
<text text-anchor="start" x="3544.7335" y="-85.5" font-family="Helvetica,sans-Serif" font-size="10.00" fill="#000000">tests/src/serverTestGlobal</text>
<text text-anchor="middle" x="3608.2335" y="-74.5" font-family="Helvetica,sans-Serif" font-size="10.00" fill="#000000">TurnOnOffHistory.cpp</text>
</a>
</g>
</g>
<!-- Node14&#45;&gt;Node28 -->
<g id="edge19" class="edge">
<title>Node14&#45;&gt;Node28</title>
<path fill="none" stroke="#191970" d="M2380.395,-142.6473C2611.6401,-138.3009 3303.462,-123.47 3527.2335,-98 3530.221,-97.66 3533.2633,-97.2714 3536.3315,-96.8446"/>
<polygon fill="#191970" stroke="#191970" points="2379.9953,-139.154 2370.0625,-142.8402 2380.1261,-146.1528 2379.9953,-139.154"/>
</g>
<!-- Node29 -->
<g id="node18" class="node">
<title>Node29</title>
<g id="a_node18"><a xlink:href="server_test_global_turn_on_off_writeable_8cpp.html" target="_top" xlink:title="tests/src/serverTestGlobal\lTurnOnOffWriteable.cpp">
<polygon fill="#ffffff" stroke="#000000" points="3697.7335,-67.5 3697.7335,-97.5 3840.7335,-97.5 3840.7335,-67.5 3697.7335,-67.5"/>
<text text-anchor="start" x="3705.7335" y="-85.5" font-family="Helvetica,sans-Serif" font-size="10.00" fill="#000000">tests/src/serverTestGlobal</text>
<text text-anchor="middle" x="3769.2335" y="-74.5" font-family="Helvetica,sans-Serif" font-size="10.00" fill="#000000">TurnOnOffWriteable.cpp</text>
</a>
</g>
</g>
<!-- Node14&#45;&gt;Node29 -->
<g id="edge20" class="edge">
<title>Node14&#45;&gt;Node29</title>
<path fill="none" stroke="#191970" d="M2379.9597,-143.0392C2630.5489,-139.6152 3431.511,-126.6524 3688.2335,-98 3691.2217,-97.6665 3694.2647,-97.2834 3697.3333,-96.8611"/>
<polygon fill="#191970" stroke="#191970" points="2379.8109,-139.5407 2369.8593,-143.1761 2379.9059,-146.5401 2379.8109,-139.5407"/>
</g>
<!-- Node30 -->
<g id="node19" class="node">
<title>Node30</title>
<g id="a_node19"><a xlink:href="server_test_ifff_8cpp.html" target="_top" xlink:title="tests/src/serverTestIfff.cpp">
<polygon fill="#ffffff" stroke="#000000" points="3859.2335,-73 3859.2335,-92 4003.2335,-92 4003.2335,-73 3859.2335,-73"/>
<text text-anchor="middle" x="3931.2335" y="-80" font-family="Helvetica,sans-Serif" font-size="10.00" fill="#000000">tests/src/serverTestIfff.cpp</text>
</a>
</g>
</g>
<!-- Node14&#45;&gt;Node30 -->
<g id="edge21" class="edge">
<title>Node14&#45;&gt;Node30</title>
<path fill="none" stroke="#191970" d="M2379.9552,-143.3211C2649.1912,-140.6613 3559.5053,-129.4986 3849.2335,-98 3861.7644,-96.6377 3875.2487,-94.4111 3887.5912,-92.0651"/>
<polygon fill="#191970" stroke="#191970" points="2379.8552,-139.8219 2369.89,-143.4196 2379.9237,-146.8215 2379.8552,-139.8219"/>
</g>
<!-- Node31 -->
<g id="node20" class="node">
<title>Node31</title>
<g id="a_node20"><a xlink:href="server_test_import_all_into_location_8cpp.html" target="_top" xlink:title="tests/src/serverTestImport\lAllIntoLocation.cpp">
<polygon fill="#ffffff" stroke="#000000" points="4021.7335,-67.5 4021.7335,-97.5 4164.7335,-97.5 4164.7335,-67.5 4021.7335,-67.5"/>
<text text-anchor="start" x="4029.7335" y="-85.5" font-family="Helvetica,sans-Serif" font-size="10.00" fill="#000000">tests/src/serverTestImport</text>
<text text-anchor="middle" x="4093.2335" y="-74.5" font-family="Helvetica,sans-Serif" font-size="10.00" fill="#000000">AllIntoLocation.cpp</text>
</a>
</g>
</g>
<!-- Node14&#45;&gt;Node31 -->
<g id="edge22" class="edge">
<title>Node14&#45;&gt;Node31</title>
<path fill="none" stroke="#191970" d="M2380.0636,-143.5932C2667.3759,-141.7979 3689.0647,-133.0382 4012.2335,-98 4015.2227,-97.6759 4018.2666,-97.3007 4021.336,-96.8849"/>
<polygon fill="#191970" stroke="#191970" points="2379.7293,-140.0951 2369.751,-143.6567 2379.7724,-147.095 2379.7293,-140.0951"/>
</g>
<!-- Node32 -->
<g id="node21" class="node">
<title>Node32</title>
<g id="a_node21"><a xlink:href="server_test_plain_variable_creation_8cpp.html" target="_top" xlink:title="tests/src/serverTestPlain\lVariableCreation.cpp">
<polygon fill="#ffffff" stroke="#000000" points="129.7335,-67.5 129.7335,-97.5 264.7335,-97.5 264.7335,-67.5 129.7335,-67.5"/>
<text text-anchor="start" x="137.7335" y="-85.5" font-family="Helvetica,sans-Serif" font-size="10.00" fill="#000000">tests/src/serverTestPlain</text>
<text text-anchor="middle" x="197.2335" y="-74.5" font-family="Helvetica,sans-Serif" font-size="10.00" fill="#000000">VariableCreation.cpp</text>
</a>
</g>
</g>
<!-- Node14&#45;&gt;Node32 -->
<g id="edge23" class="edge">
<title>Node14&#45;&gt;Node32</title>
<path fill="none" stroke="#191970" d="M2228.3938,-143.085C1883.3287,-138.8134 469.9277,-120.1057 273.2335,-98 270.5572,-97.6992 267.8351,-97.3508 265.0909,-96.9641"/>
<polygon fill="#191970" stroke="#191970" points="2228.4882,-146.5864 2238.5306,-143.2102 2228.5746,-139.5869 2228.4882,-146.5864"/>
</g>
<!-- Node33 -->
<g id="node22" class="node">
<title>Node33</title>
<g id="a_node22"><a xlink:href="server_test_read_write_8cpp.html" target="_top" xlink:title="tests/src/serverTestRead\lWrite.cpp">
<polygon fill="#ffffff" stroke="#000000" points="282.7335,-67.5 282.7335,-97.5 417.7335,-97.5 417.7335,-67.5 282.7335,-67.5"/>
<text text-anchor="start" x="290.7335" y="-85.5" font-family="Helvetica,sans-Serif" font-size="10.00" fill="#000000">tests/src/serverTestRead</text>
<text text-anchor="middle" x="350.2335" y="-74.5" font-family="Helvetica,sans-Serif" font-size="10.00" fill="#000000">Write.cpp</text>
</a>
</g>
</g>
<!-- Node14&#45;&gt;Node33 -->
<g id="edge24" class="edge">
<title>Node14&#45;&gt;Node33</title>
<path fill="none" stroke="#191970" d="M2228.2838,-142.9334C1899.4613,-138.2079 607.013,-118.4859 426.2335,-98 423.5575,-97.6967 420.8356,-97.3463 418.0916,-96.9578"/>
<polygon fill="#191970" stroke="#191970" points="2228.6029,-146.4383 2238.6521,-143.082 2228.7033,-139.439 2228.6029,-146.4383"/>
</g>
<!-- Node34 -->
<g id="node23" class="node">
<title>Node34</title>
<g id="a_node23"><a xlink:href="server_test_rename_import_8cpp.html" target="_top" xlink:title="tests/src/serverTestRename\lImport.cpp">
<polygon fill="#ffffff" stroke="#000000" points="435.7335,-67.5 435.7335,-97.5 586.7335,-97.5 586.7335,-67.5 435.7335,-67.5"/>
<text text-anchor="start" x="443.7335" y="-85.5" font-family="Helvetica,sans-Serif" font-size="10.00" fill="#000000">tests/src/serverTestRename</text>
<text text-anchor="middle" x="511.2335" y="-74.5" font-family="Helvetica,sans-Serif" font-size="10.00" fill="#000000">Import.cpp</text>
</a>
</g>
</g>
<!-- Node14&#45;&gt;Node34 -->
<g id="edge25" class="edge">
<title>Node14&#45;&gt;Node34</title>
<path fill="none" stroke="#191970" d="M2228.3662,-143.5281C1940.9114,-141.4959 918.7056,-131.9887 595.2335,-98 592.5788,-97.7211 589.8822,-97.4047 587.1626,-97.0576"/>
<polygon fill="#191970" stroke="#191970" points="2228.6597,-147.0301 2238.6839,-143.6 2228.7086,-140.0303 2228.6597,-147.0301"/>
</g>
<!-- Node35 -->
<g id="node24" class="node">
<title>Node35</title>
<g id="a_node24"><a xlink:href="server_test_retype_properties_8cpp.html" target="_top" xlink:title="tests/src/serverTestRetype\lProperties.cpp">
<polygon fill="#ffffff" stroke="#000000" points="604.7335,-67.5 604.7335,-97.5 749.7335,-97.5 749.7335,-67.5 604.7335,-67.5"/>
<text text-anchor="start" x="612.7335" y="-85.5" font-family="Helvetica,sans-Serif" font-size="10.00" fill="#000000">tests/src/serverTestRetype</text>
<text text-anchor="middle" x="677.2335" y="-74.5" font-family="Helvetica,sans-Serif" font-size="10.00" fill="#000000">Properties.cpp</text>
</a>
</g>
</g>
<!-- Node14&#45;&gt;Node35 -->
<g id="edge26" class="edge">
<title>Node14&#45;&gt;Node35</title>
<path fill="none" stroke="#191970" d="M2228.5118,-143.3211C1959.2759,-140.6613 1048.9617,-129.4986 759.2335,-98 756.2088,-97.6712 753.1286,-97.292 750.0223,-96.8729"/>
<polygon fill="#191970" stroke="#191970" points="2228.5433,-146.8215 2238.5771,-143.4196 2228.6118,-139.8219 2228.5433,-146.8215"/>
</g>
<!-- Node36 -->
<g id="node25" class="node">
<title>Node36</title>
<g id="a_node25"><a xlink:href="server_test_spectrum_array_8cpp.html" target="_top" xlink:title="tests/src/serverTestSpectrum\lArray.cpp">
<polygon fill="#ffffff" stroke="#000000" points="768.2335,-67.5 768.2335,-97.5 926.2335,-97.5 926.2335,-67.5 768.2335,-67.5"/>
<text text-anchor="start" x="776.2335" y="-85.5" font-family="Helvetica,sans-Serif" font-size="10.00" fill="#000000">tests/src/serverTestSpectrum</text>
<text text-anchor="middle" x="847.2335" y="-74.5" font-family="Helvetica,sans-Serif" font-size="10.00" fill="#000000">Array.cpp</text>
</a>
</g>
</g>
<!-- Node14&#45;&gt;Node36 -->
<g id="edge27" class="edge">
<title>Node14&#45;&gt;Node36</title>
<path fill="none" stroke="#191970" d="M2228.4883,-142.8605C1979.7019,-138.8967 1189.0821,-124.4877 935.2335,-98 932.302,-97.6941 929.3209,-97.3482 926.3136,-96.97"/>
<polygon fill="#191970" stroke="#191970" points="2228.4645,-146.3604 2238.5187,-143.0193 2228.5754,-139.3613 2228.4645,-146.3604"/>
</g>
<!-- Node37 -->
<g id="node26" class="node">
<title>Node37</title>
<g id="a_node26"><a xlink:href="server_test_spectrum_buffer-exception_8cpp.html" target="_top" xlink:title="tests/src/serverTestSpectrum\lBuffer&#45;exception.cpp">
<polygon fill="#ffffff" stroke="#000000" points="944.2335,-67.5 944.2335,-97.5 1102.2335,-97.5 1102.2335,-67.5 944.2335,-67.5"/>
<text text-anchor="start" x="952.2335" y="-85.5" font-family="Helvetica,sans-Serif" font-size="10.00" fill="#000000">tests/src/serverTestSpectrum</text>
<text text-anchor="middle" x="1023.2335" y="-74.5" font-family="Helvetica,sans-Serif" font-size="10.00" fill="#000000">Buffer&#45;exception.cpp</text>
</a>
</g>
</g>
<!-- Node14&#45;&gt;Node37 -->
<g id="edge28" class="edge">
<title>Node14&#45;&gt;Node37</title>
<path fill="none" stroke="#191970" d="M2228.3769,-142.4243C2001.2952,-137.4937 1329.1824,-121.2873 1111.2335,-98 1108.3028,-97.6869 1105.3223,-97.3348 1102.3156,-96.9514"/>
<polygon fill="#191970" stroke="#191970" points="2228.4552,-145.9267 2238.5285,-142.6436 2228.6065,-138.9284 2228.4552,-145.9267"/>
</g>
<!-- Node38 -->
<g id="node27" class="node">
<title>Node38</title>
<g id="a_node27"><a xlink:href="server_test_spectrum_buffer_8cpp.html" target="_top" xlink:title="tests/src/serverTestSpectrum\lBuffer.cpp">
<polygon fill="#ffffff" stroke="#000000" points="1120.2335,-67.5 1120.2335,-97.5 1278.2335,-97.5 1278.2335,-67.5 1120.2335,-67.5"/>
<text text-anchor="start" x="1128.2335" y="-85.5" font-family="Helvetica,sans-Serif" font-size="10.00" fill="#000000">tests/src/serverTestSpectrum</text>
<text text-anchor="middle" x="1199.2335" y="-74.5" font-family="Helvetica,sans-Serif" font-size="10.00" fill="#000000">Buffer.cpp</text>
</a>
</g>
</g>
<!-- Node14&#45;&gt;Node38 -->
<g id="edge29" class="edge">
<title>Node14&#45;&gt;Node38</title>
<path fill="none" stroke="#191970" d="M2228.5358,-141.846C2025.0927,-135.8537 1469.6061,-118.1006 1287.2335,-98 1284.3038,-97.6771 1281.3242,-97.3167 1278.3183,-96.9263"/>
<polygon fill="#191970" stroke="#191970" points="2228.4364,-145.3445 2238.5348,-142.1393 2228.6418,-138.3475 2228.4364,-145.3445"/>
</g>
<!-- Node39 -->
<g id="node28" class="node">
<title>Node39</title>
<g id="a_node28"><a xlink:href="server_test_variable_mapper_with_location_and_code_8cpp.html" target="_top" xlink:title="tests/src/serverTestVariable\lMapperWithLocationAndCode.cpp">
<polygon fill="#ffffff" stroke="#000000" points="1296.2335,-67.5 1296.2335,-97.5 1476.2335,-97.5 1476.2335,-67.5 1296.2335,-67.5"/>
<text text-anchor="start" x="1304.2335" y="-85.5" font-family="Helvetica,sans-Serif" font-size="10.00" fill="#000000">tests/src/serverTestVariable</text>
<text text-anchor="middle" x="1386.2335" y="-74.5" font-family="Helvetica,sans-Serif" font-size="10.00" fill="#000000">MapperWithLocationAndCode.cpp</text>
</a>
</g>
</g>
<!-- Node14&#45;&gt;Node39 -->
<g id="edge30" class="edge">
<title>Node14&#45;&gt;Node39</title>
<path fill="none" stroke="#191970" d="M2228.3899,-142.2526C2083.5813,-138.3598 1757.8526,-126.9253 1485.2335,-98 1482.2926,-97.688 1479.3056,-97.349 1476.2918,-96.9881"/>
<polygon fill="#191970" stroke="#191970" points="2228.4112,-145.7542 2238.5003,-142.5199 2228.5963,-138.7567 2228.4112,-145.7542"/>
</g>
<!-- Node40 -->
<g id="node29" class="node">
<title>Node40</title>
<g id="a_node29"><a xlink:href="server_test_xy_8cpp.html" target="_top" xlink:title="tests/src/serverTestXy.cpp">
<polygon fill="#ffffff" stroke="#000000" points="1494.7335,-73 1494.7335,-92 1637.7335,-92 1637.7335,-73 1494.7335,-73"/>
<text text-anchor="middle" x="1566.2335" y="-80" font-family="Helvetica,sans-Serif" font-size="10.00" fill="#000000">tests/src/serverTestXy.cpp</text>
</a>
</g>
</g>
<!-- Node14&#45;&gt;Node40 -->
<g id="edge31" class="edge">
<title>Node14&#45;&gt;Node40</title>
<path fill="none" stroke="#191970" d="M2228.6731,-141.6365C2106.1648,-137.1484 1856.7734,-125.2853 1647.2335,-98 1635.4494,-96.4655 1622.792,-94.2967 1611.0663,-92.0662"/>
<polygon fill="#191970" stroke="#191970" points="2228.5811,-145.1354 2238.7006,-141.9977 2228.8331,-138.1399 2228.5811,-145.1354"/>
</g>
<!-- Node41 -->
<g id="node30" class="node">
<title>Node41</title>
<g id="a_node30"><a xlink:href="server_test_zero_m_q_8cpp.html" target="_top" xlink:title="tests/src/serverTestZero\lMQ.cpp">
<polygon fill="#ffffff" stroke="#000000" points="1656.2335,-67.5 1656.2335,-97.5 1790.2335,-97.5 1790.2335,-67.5 1656.2335,-67.5"/>
<text text-anchor="start" x="1664.2335" y="-85.5" font-family="Helvetica,sans-Serif" font-size="10.00" fill="#000000">tests/src/serverTestZero</text>
<text text-anchor="middle" x="1723.2335" y="-74.5" font-family="Helvetica,sans-Serif" font-size="10.00" fill="#000000">MQ.cpp</text>
</a>
</g>
</g>
<!-- Node14&#45;&gt;Node41 -->
<g id="edge32" class="edge">
<title>Node14&#45;&gt;Node41</title>
<path fill="none" stroke="#191970" d="M2228.3751,-139.7085C2129.3069,-133.5056 1950.6545,-120.2679 1799.2335,-98 1796.3025,-97.569 1793.314,-97.0975 1790.2995,-96.5959"/>
<polygon fill="#191970" stroke="#191970" points="2228.3921,-143.2161 2238.5892,-140.3407 2228.8246,-136.2295 2228.3921,-143.2161"/>
</g>
<!-- Node42 -->
<g id="node31" class="node">
<title>Node42</title>
<g id="a_node31"><a xlink:href="server_test_z_m_q___cs_to_app_8cpp.html" target="_top" xlink:title="tests/src/serverTestZMQ\l_CsToApp.cpp">
<polygon fill="#ffffff" stroke="#000000" points="1808.2335,-67.5 1808.2335,-97.5 1942.2335,-97.5 1942.2335,-67.5 1808.2335,-67.5"/>
<text text-anchor="start" x="1816.2335" y="-85.5" font-family="Helvetica,sans-Serif" font-size="10.00" fill="#000000">tests/src/serverTestZMQ</text>
<text text-anchor="middle" x="1875.2335" y="-74.5" font-family="Helvetica,sans-Serif" font-size="10.00" fill="#000000">_CsToApp.cpp</text>
</a>
</g>
</g>
<!-- Node14&#45;&gt;Node42 -->
<g id="edge33" class="edge">
<title>Node14&#45;&gt;Node42</title>
<path fill="none" stroke="#191970" d="M2228.358,-135.7041C2156.7152,-127.4949 2046.3757,-113.8801 1951.2335,-98 1948.3114,-97.5123 1945.3303,-96.9939 1942.3218,-96.4538"/>
<polygon fill="#191970" stroke="#191970" points="2228.3091,-139.2211 2238.641,-136.8757 2229.1016,-132.2661 2228.3091,-139.2211"/>
</g>
<!-- Node14&#45;&gt;Node43 -->
<g id="edge34" class="edge">
<title>Node14&#45;&gt;Node43</title>
<path fill="none" stroke="#191970" d="M2379.962,-142.859C2683.8298,-138.1686 3815.4436,-119.5982 4173.2335,-98 4202.5245,-96.2318 4234.7295,-93.3245 4262.5888,-90.5025"/>
<polygon fill="#191970" stroke="#191970" points="2379.8756,-139.3598 2369.9307,-143.0134 2379.9834,-146.359 2379.8756,-139.3598"/>
</g>
<!-- Node44 -->
<g id="node33" class="node">
<title>Node44</title>
<g id="a_node33"><a xlink:href="test_doocs_adapter_8cpp.html" target="_top" xlink:title="tests/src/testDoocsAdapter.cpp">
<polygon fill="#ffffff" stroke="#000000" points="1960.7335,-73 1960.7335,-92 2127.7335,-92 2127.7335,-73 1960.7335,-73"/>
<text text-anchor="middle" x="2044.2335" y="-80" font-family="Helvetica,sans-Serif" font-size="10.00" fill="#000000">tests/src/testDoocsAdapter.cpp</text>
</a>
</g>
</g>
<!-- Node14&#45;&gt;Node44 -->
<g id="edge35" class="edge">
<title>Node14&#45;&gt;Node44</title>
<path fill="none" stroke="#191970" d="M2254.0698,-132.1343C2204.7274,-120.463 2130.3447,-102.8686 2084.6679,-92.0643"/>
<polygon fill="#191970" stroke="#191970" points="2253.3567,-135.5622 2263.8938,-134.4581 2254.968,-128.7501 2253.3567,-135.5622"/>
</g>
<!-- Node15&#45;&gt;Node16 -->
<g id="edge5" class="edge">
<title>Node15&#45;&gt;Node16</title>
<path fill="none" stroke="#191970" d="M2724.8023,-71.1841C2716.2257,-69.7127 2707.5164,-68.2757 2699.2335,-67 2581.5487,-48.8743 2443.5316,-31.8892 2365.4344,-22.6727"/>
<polygon fill="#191970" stroke="#191970" points="2724.3239,-74.6534 2734.7759,-72.9196 2725.524,-67.7571 2724.3239,-74.6534"/>
</g>
<!-- Node15&#45;&gt;Node17 -->
<g id="edge6" class="edge">
<title>Node15&#45;&gt;Node17</title>
<path fill="none" stroke="#191970" d="M2786.2335,-62.6079C2786.2335,-50.214 2786.2335,-34.8263 2786.2335,-25.0817"/>
<polygon fill="#191970" stroke="#191970" points="2782.7336,-62.9005 2786.2335,-72.9005 2789.7336,-62.9006 2782.7336,-62.9005"/>
</g>
<!-- Node18&#45;&gt;Node16 -->
<g id="edge8" class="edge">
<title>Node18&#45;&gt;Node16</title>
<path fill="none" stroke="#191970" d="M2244.8524,-66.2992C2259.6618,-53.4131 2279.8799,-35.8207 2292.2218,-25.0817"/>
<polygon fill="#191970" stroke="#191970" points="2242.5122,-63.6959 2237.2658,-72.9005 2247.1072,-68.9767 2242.5122,-63.6959"/>
</g>
<!-- Node18&#45;&gt;Node17 -->
<g id="edge10" class="edge">
<title>Node18&#45;&gt;Node17</title>
<path fill="none" stroke="#191970" d="M2287.7803,-71.2577C2296.9679,-69.7315 2306.3383,-68.2596 2315.2335,-67 2448.1936,-48.1724 2603.1123,-32.4146 2697.9149,-23.4677"/>
<polygon fill="#191970" stroke="#191970" points="2287.1893,-67.8079 2277.9136,-72.9276 2288.3575,-74.7097 2287.1893,-67.8079"/>
</g>
<!-- Node19 -->
<g id="node8" class="node">
<title>Node19</title>
<g id="a_node8"><a xlink:href="test_doocs_process_scalar_8cpp.html" target="_top" xlink:title="tests/src/testDoocsProcess\lScalar.cpp">
<polygon fill="#ffffff" stroke="#000000" points="2075.7335,-.5 2075.7335,-30.5 2222.7335,-30.5 2222.7335,-.5 2075.7335,-.5"/>
<text text-anchor="start" x="2083.7335" y="-18.5" font-family="Helvetica,sans-Serif" font-size="10.00" fill="#000000">tests/src/testDoocsProcess</text>
<text text-anchor="middle" x="2149.2335" y="-7.5" font-family="Helvetica,sans-Serif" font-size="10.00" fill="#000000">Scalar.cpp</text>
</a>
</g>
</g>
<!-- Node18&#45;&gt;Node19 -->
<g id="edge9" class="edge">
<title>Node18&#45;&gt;Node19</title>
<path fill="none" stroke="#191970" d="M2207.617,-66.3012C2195.1011,-55.4107 2178.721,-41.1579 2166.4974,-30.5218"/>
<polygon fill="#191970" stroke="#191970" points="2205.3599,-68.9767 2215.2013,-72.9005 2209.9548,-63.6959 2205.3599,-68.9767"/>
</g>
</g>
</svg>
