<?xml version="1.0" encoding="UTF-8" standalone="no"?>
<!DOCTYPE svg PUBLIC "-//W3C//DTD SVG 1.1//EN"
 "http://www.w3.org/Graphics/SVG/1.1/DTD/svg11.dtd">
<!-- Generated by graphviz version 2.43.0 (0)
 -->
<!-- Title: ChimeraTK::VariableMapper::getAttributeValue Pages: 1 -->
<!--zoomable 323 -->
<svg id="main" version="1.1" xmlns="http://www.w3.org/2000/svg" xmlns:xlink="http://www.w3.org/1999/xlink" xml:space="preserve" onload="init(evt)">
<style type="text/css"><![CDATA[
.edge:hover path { stroke: red; }
.edge:hover polygon { stroke: red; fill: red; }
]]></style>
<script type="text/javascript"><![CDATA[
var edges = document.getElementsByTagName('g');
if (edges && edges.length) {
  for (var i=0;i<edges.length;i++) {
    if (edges[i].id.substr(0,4)=='edge') {
      edges[i].setAttribute('class','edge');
    }
  }
}
]]></script>
        <defs>
                <circle id="rim" cx="0" cy="0" r="7"/>
                <circle id="rim2" cx="0" cy="0" r="3.5"/>
                <g id="zoomPlus">
                        <use xlink:href="#rim" fill="#404040">
                                <set attributeName="fill" to="#808080" begin="zoomplus.mouseover" end="zoomplus.mouseout"/>
                        </use>
                        <path d="M-4,0h8M0,-4v8" fill="none" stroke="white" stroke-width="1.5" pointer-events="none"/>
                </g>
                <g id="zoomMin">
                        <use xlink:href="#rim" fill="#404040">
                                <set attributeName="fill" to="#808080" begin="zoomminus.mouseover" end="zoomminus.mouseout"/>
                        </use>
                        <path d="M-4,0h8" fill="none" stroke="white" stroke-width="1.5" pointer-events="none"/>
                </g>
                <g id="dirArrow">
                        <path fill="none" stroke="white" stroke-width="1.5" d="M0,-3.0v7 M-2.5,-0.5L0,-3.0L2.5,-0.5"/>
                </g>
               <g id="resetDef">
                       <use xlink:href="#rim2" fill="#404040">
                               <set attributeName="fill" to="#808080" begin="reset.mouseover" end="reset.mouseout"/>
                       </use>
               </g>
        </defs>

<script type="text/javascript">
var viewWidth = 1033;
var viewHeight = 323;
var sectionId = 'dynsection-6';
</script>
<script xlink:href="svgpan.js"/>
<svg id="graph" class="graph">
<g id="viewport">
<title>ChimeraTK::VariableMapper::getAttributeValue</title>
<polygon fill="white" stroke="transparent" points="-4,4 -4,-319 1029,-319 1029,4 -4,4"/>
<!-- Node1 -->
<g id="node1" class="node">
<title>Node1</title>
<g id="a_node1"><a xlink:title=" ">
<polygon fill="#bfbfbf" stroke="black" points="872,-147.5 872,-177.5 1025,-177.5 1025,-147.5 872,-147.5"/>
<text text-anchor="start" x="880" y="-165.5" font-family="Helvetica,sans-Serif" font-size="10.00">ChimeraTK::VariableMapper</text>
<text text-anchor="middle" x="948.5" y="-154.5" font-family="Helvetica,sans-Serif" font-size="10.00">::getAttributeValue</text>
</a>
</g>
</g>
<!-- Node2 -->
<g id="node2" class="node">
<title>Node2</title>
<g id="a_node2"><a xlink:href="class_chimera_t_k_1_1_variable_mapper.html#ac7ffa344a61aceb701bf12d62cfcab20" target="_top" xlink:title=" ">
<polygon fill="white" stroke="black" points="683,-284.5 683,-314.5 836,-314.5 836,-284.5 683,-284.5"/>
<text text-anchor="start" x="691" y="-302.5" font-family="Helvetica,sans-Serif" font-size="10.00">ChimeraTK::VariableMapper</text>
<text text-anchor="middle" x="759.5" y="-291.5" font-family="Helvetica,sans-Serif" font-size="10.00">::processIfffNode</text>
</a>
</g>
</g>
<!-- Node1&#45;&gt;Node2 -->
<g id="edge1" class="edge">
<title>Node1&#45;&gt;Node2</title>
<path fill="none" stroke="midnightblue" d="M928.53,-185.32C907.84,-209.02 872.74,-245.87 836,-269.5 826.98,-275.3 816.67,-280.3 806.62,-284.46"/>
<polygon fill="midnightblue" stroke="midnightblue" points="931.37,-187.4 935.23,-177.53 926.06,-182.83 931.37,-187.4"/>
</g>
<!-- Node3 -->
<g id="node3" class="node">
<title>Node3</title>
<g id="a_node3"><a xlink:href="class_chimera_t_k_1_1_variable_mapper.html#a6938122cddbec29e7714a2fc72ac50df" target="_top" xlink:title=" ">
<polygon fill="white" stroke="black" points="494,-147.5 494,-177.5 647,-177.5 647,-147.5 494,-147.5"/>
<text text-anchor="start" x="502" y="-165.5" font-family="Helvetica,sans-Serif" font-size="10.00">ChimeraTK::VariableMapper</text>
<text text-anchor="middle" x="570.5" y="-154.5" font-family="Helvetica,sans-Serif" font-size="10.00">::processLocationNode</text>
</a>
</g>
</g>
<!-- Node1&#45;&gt;Node3 -->
<g id="edge8" class="edge">
<title>Node1&#45;&gt;Node3</title>
<path fill="none" stroke="midnightblue" d="M923.55,-184.54C902.33,-202.46 869.58,-226.37 836,-236.5 770.9,-256.14 748.1,-256.14 683,-236.5 644.96,-225.03 607.99,-195.86 587.63,-177.76"/>
<polygon fill="midnightblue" stroke="midnightblue" points="926.1,-186.96 931.37,-177.76 921.52,-181.67 926.1,-186.96"/>
</g>
<!-- Node7 -->
<g id="node7" class="node">
<title>Node7</title>
<g id="a_node7"><a xlink:href="class_chimera_t_k_1_1_variable_mapper.html#aad75bf62a5e96851713ad61bd1eb6863" target="_top" xlink:title=" ">
<polygon fill="white" stroke="black" points="683,-196.5 683,-226.5 836,-226.5 836,-196.5 683,-196.5"/>
<text text-anchor="start" x="691" y="-214.5" font-family="Helvetica,sans-Serif" font-size="10.00">ChimeraTK::VariableMapper</text>
<text text-anchor="middle" x="759.5" y="-203.5" font-family="Helvetica,sans-Serif" font-size="10.00">::processImageNode</text>
</a>
</g>
</g>
<!-- Node1&#45;&gt;Node7 -->
<g id="edge6" class="edge">
<title>Node1&#45;&gt;Node7</title>
<path fill="none" stroke="midnightblue" d="M880.25,-180.12C859.79,-185.48 837.5,-191.32 817.77,-196.49"/>
<polygon fill="midnightblue" stroke="midnightblue" points="881.34,-183.46 890.12,-177.53 879.56,-176.68 881.34,-183.46"/>
</g>
<!-- Node8 -->
<g id="node8" class="node">
<title>Node8</title>
<g id="a_node8"><a xlink:href="class_chimera_t_k_1_1_variable_mapper.html#a9bab31d01cd9a9af0a685ed45f19c6a5" target="_top" xlink:title=" ">
<polygon fill="white" stroke="black" points="683,-147.5 683,-177.5 836,-177.5 836,-147.5 683,-147.5"/>
<text text-anchor="start" x="691" y="-165.5" font-family="Helvetica,sans-Serif" font-size="10.00">ChimeraTK::VariableMapper</text>
<text text-anchor="middle" x="759.5" y="-154.5" font-family="Helvetica,sans-Serif" font-size="10.00">::processNode</text>
</a>
</g>
</g>
<!-- Node1&#45;&gt;Node8 -->
<g id="edge9" class="edge">
<title>Node1&#45;&gt;Node8</title>
<path fill="none" stroke="midnightblue" d="M861.7,-162.5C853.23,-162.5 844.67,-162.5 836.3,-162.5"/>
<polygon fill="midnightblue" stroke="midnightblue" points="861.98,-166 871.98,-162.5 861.98,-159 861.98,-166"/>
</g>
<!-- Node9 -->
<g id="node9" class="node">
<title>Node9</title>
<g id="a_node9"><a xlink:href="class_chimera_t_k_1_1_variable_mapper.html#ad3a641ba4c86a99e981c02c847b102cc" target="_top" xlink:title=" ">
<polygon fill="white" stroke="black" points="683,-98.5 683,-128.5 836,-128.5 836,-98.5 683,-98.5"/>
<text text-anchor="start" x="691" y="-116.5" font-family="Helvetica,sans-Serif" font-size="10.00">ChimeraTK::VariableMapper</text>
<text text-anchor="middle" x="759.5" y="-105.5" font-family="Helvetica,sans-Serif" font-size="10.00">::processSetErrorNode</text>
</a>
</g>
</g>
<!-- Node1&#45;&gt;Node9 -->
<g id="edge11" class="edge">
<title>Node1&#45;&gt;Node9</title>
<path fill="none" stroke="midnightblue" d="M880.25,-144.88C859.79,-139.52 837.5,-133.68 817.77,-128.51"/>
<polygon fill="midnightblue" stroke="midnightblue" points="879.56,-148.32 890.12,-147.47 881.34,-141.54 879.56,-148.32"/>
</g>
<!-- Node10 -->
<g id="node10" class="node">
<title>Node10</title>
<g id="a_node10"><a xlink:href="class_chimera_t_k_1_1_variable_mapper.html#a2c592a3540b9326d1c46131a686d768a" target="_top" xlink:title=" ">
<polygon fill="white" stroke="black" points="683,-49.5 683,-79.5 836,-79.5 836,-49.5 683,-49.5"/>
<text text-anchor="start" x="691" y="-67.5" font-family="Helvetica,sans-Serif" font-size="10.00">ChimeraTK::VariableMapper</text>
<text text-anchor="middle" x="759.5" y="-56.5" font-family="Helvetica,sans-Serif" font-size="10.00">::processSpectrumNode</text>
</a>
</g>
</g>
<!-- Node1&#45;&gt;Node10 -->
<g id="edge13" class="edge">
<title>Node1&#45;&gt;Node10</title>
<path fill="none" stroke="midnightblue" d="M919.73,-141.38C897.88,-125.5 866.17,-104.06 836,-89.5 828.41,-85.84 820.16,-82.5 811.98,-79.54"/>
<polygon fill="midnightblue" stroke="midnightblue" points="917.76,-144.28 927.89,-147.38 921.91,-138.64 917.76,-144.28"/>
</g>
<!-- Node11 -->
<g id="node11" class="node">
<title>Node11</title>
<g id="a_node11"><a xlink:href="class_chimera_t_k_1_1_variable_mapper.html#a0ae04625dba7e9b611a0368b55ec7b28" target="_top" xlink:title=" ">
<polygon fill="white" stroke="black" points="683,-0.5 683,-30.5 836,-30.5 836,-0.5 683,-0.5"/>
<text text-anchor="start" x="691" y="-18.5" font-family="Helvetica,sans-Serif" font-size="10.00">ChimeraTK::VariableMapper</text>
<text text-anchor="middle" x="759.5" y="-7.5" font-family="Helvetica,sans-Serif" font-size="10.00">::processXyNode</text>
</a>
</g>
</g>
<!-- Node1&#45;&gt;Node11 -->
<g id="edge15" class="edge">
<title>Node1&#45;&gt;Node11</title>
<path fill="none" stroke="midnightblue" d="M931.94,-139.25C912.52,-111.93 876.85,-66.97 836,-40.5 830.09,-36.67 823.54,-33.37 816.84,-30.55"/>
<polygon fill="midnightblue" stroke="midnightblue" points="929.07,-141.26 937.66,-147.46 934.81,-137.25 929.07,-141.26"/>
</g>
<!-- Node2&#45;&gt;Node3 -->
<g id="edge2" class="edge">
<title>Node2&#45;&gt;Node3</title>
<path fill="none" stroke="midnightblue" d="M702.93,-280.31C696.01,-277.1 689.2,-273.49 683,-269.5 641.93,-243.09 602.9,-200.15 583.77,-177.53"/>
<polygon fill="midnightblue" stroke="midnightblue" points="701.82,-283.65 712.38,-284.46 704.63,-277.24 701.82,-283.65"/>
</g>
<!-- Node4 -->
<g id="node4" class="node">
<title>Node4</title>
<g id="a_node4"><a xlink:href="class_chimera_t_k_1_1_variable_mapper.html#a93880cfd989d343216b5869bb59f5450" target="_top" xlink:title=" ">
<polygon fill="white" stroke="black" points="305,-147.5 305,-177.5 458,-177.5 458,-147.5 305,-147.5"/>
<text text-anchor="start" x="313" y="-165.5" font-family="Helvetica,sans-Serif" font-size="10.00">ChimeraTK::VariableMapper</text>
<text text-anchor="middle" x="381.5" y="-154.5" font-family="Helvetica,sans-Serif" font-size="10.00">::prepareOutput</text>
</a>
</g>
</g>
<!-- Node3&#45;&gt;Node4 -->
<g id="edge3" class="edge">
<title>Node3&#45;&gt;Node4</title>
<path fill="none" stroke="midnightblue" d="M483.7,-162.5C475.23,-162.5 466.67,-162.5 458.3,-162.5"/>
<polygon fill="midnightblue" stroke="midnightblue" points="483.98,-166 493.98,-162.5 483.98,-159 483.98,-166"/>
</g>
<!-- Node5 -->
<g id="node5" class="node">
<title>Node5</title>
<g id="a_node5"><a xlink:href="test_variable_mapper_8cpp.html#a3ee1ffccda765655ef9c9a91bd55cba0" target="_top" xlink:title=" ">
<polygon fill="white" stroke="black" points="179,-153 179,-172 269,-172 269,-153 179,-153"/>
<text text-anchor="middle" x="224" y="-160" font-family="Helvetica,sans-Serif" font-size="10.00">testXmlParsing</text>
</a>
</g>
</g>
<!-- Node4&#45;&gt;Node5 -->
<g id="edge4" class="edge">
<title>Node4&#45;&gt;Node5</title>
<path fill="none" stroke="midnightblue" d="M294.31,-162.5C285.6,-162.5 277.03,-162.5 269.05,-162.5"/>
<polygon fill="midnightblue" stroke="midnightblue" points="294.57,-166 304.57,-162.5 294.57,-159 294.57,-166"/>
</g>
<!-- Node6 -->
<g id="node6" class="node">
<title>Node6</title>
<g id="a_node6"><a xlink:href="test_variable_mapper_8cpp.html#ac6ab0f2ec46da87f9c3785f4a92a9965" target="_top" xlink:title=" ">
<polygon fill="white" stroke="black" points="0,-153 0,-172 143,-172 143,-153 0,-153"/>
<text text-anchor="middle" x="71.5" y="-160" font-family="Helvetica,sans-Serif" font-size="10.00">BOOST_AUTO_TEST_CASE</text>
</a>
</g>
</g>
<!-- Node5&#45;&gt;Node6 -->
<g id="edge5" class="edge">
<title>Node5&#45;&gt;Node6</title>
<path fill="none" stroke="midnightblue" d="M168.44,-162.5C160.19,-162.5 151.59,-162.5 143.06,-162.5"/>
<polygon fill="midnightblue" stroke="midnightblue" points="168.66,-166 178.66,-162.5 168.66,-159 168.66,-166"/>
</g>
<!-- Node7&#45;&gt;Node3 -->
<g id="edge7" class="edge">
<title>Node7&#45;&gt;Node3</title>
<path fill="none" stroke="midnightblue" d="M691.25,-193.88C670.79,-188.52 648.5,-182.68 628.77,-177.51"/>
<polygon fill="midnightblue" stroke="midnightblue" points="690.56,-197.32 701.12,-196.47 692.34,-190.54 690.56,-197.32"/>
</g>
<!-- Node8&#45;&gt;Node3 -->
<g id="edge10" class="edge">
<title>Node8&#45;&gt;Node3</title>
<path fill="none" stroke="midnightblue" d="M672.7,-162.5C664.23,-162.5 655.67,-162.5 647.3,-162.5"/>
<polygon fill="midnightblue" stroke="midnightblue" points="672.98,-166 682.98,-162.5 672.98,-159 672.98,-166"/>
</g>
<!-- Node9&#45;&gt;Node3 -->
<g id="edge12" class="edge">
<title>Node9&#45;&gt;Node3</title>
<path fill="none" stroke="midnightblue" d="M691.25,-131.12C670.79,-136.48 648.5,-142.32 628.77,-147.49"/>
<polygon fill="midnightblue" stroke="midnightblue" points="692.34,-134.46 701.12,-128.53 690.56,-127.68 692.34,-134.46"/>
</g>
<!-- Node10&#45;&gt;Node3 -->
<g id="edge14" class="edge">
<title>Node10&#45;&gt;Node3</title>
<path fill="none" stroke="midnightblue" d="M697.45,-83.18C692.49,-85.16 687.62,-87.27 683,-89.5 648.83,-106 612.68,-131.32 591.11,-147.38"/>
<polygon fill="midnightblue" stroke="midnightblue" points="698.91,-86.37 707.02,-79.54 696.43,-79.82 698.91,-86.37"/>
</g>
<!-- Node11&#45;&gt;Node3 -->
<g id="edge16" class="edge">
<title>Node11&#45;&gt;Node3</title>
<path fill="none" stroke="midnightblue" d="M692.89,-34.84C689.46,-36.58 686.14,-38.47 683,-40.5 637.73,-69.84 598.82,-121.88 581.34,-147.46"/>
<polygon fill="midnightblue" stroke="midnightblue" points="694.56,-37.92 702.16,-30.55 691.62,-31.57 694.56,-37.92"/>
</g>
</g>
</svg>
        <g id="navigator" transform="translate(0 0)" fill="#404254">
                <rect fill="#f2f5e9" fill-opacity="0.5" stroke="#606060" stroke-width=".5" x="0" y="0" width="60" height="60"/>
                <use id="zoomplus" xlink:href="#zoomPlus" x="17" y="9" onmousedown="handleZoom(evt,'in')"/>
                <use id="zoomminus" xlink:href="#zoomMin" x="42" y="9" onmousedown="handleZoom(evt,'out')"/>
                <use id="reset" xlink:href="#resetDef" x="30" y="36" onmousedown="handleReset()"/>
                <g id="arrowUp" xlink:href="#dirArrow" transform="translate(30 24)" onmousedown="handlePan(0,-1)">
                  <use xlink:href="#rim" fill="#404040">
                        <set attributeName="fill" to="#808080" begin="arrowUp.mouseover" end="arrowUp.mouseout"/>
                  </use>
                  <path fill="none" stroke="white" stroke-width="1.5" d="M0,-3.0v7 M-2.5,-0.5L0,-3.0L2.5,-0.5"/>
                </g>
                <g id="arrowRight" xlink:href="#dirArrow" transform="rotate(90) translate(36 -43)" onmousedown="handlePan(1,0)">
                  <use xlink:href="#rim" fill="#404040">
                        <set attributeName="fill" to="#808080" begin="arrowRight.mouseover" end="arrowRight.mouseout"/>
                  </use>
                  <path fill="none" stroke="white" stroke-width="1.5" d="M0,-3.0v7 M-2.5,-0.5L0,-3.0L2.5,-0.5"/>
                </g>
                <g id="arrowDown" xlink:href="#dirArrow" transform="rotate(180) translate(-30 -48)" onmousedown="handlePan(0,1)">
                  <use xlink:href="#rim" fill="#404040">
                        <set attributeName="fill" to="#808080" begin="arrowDown.mouseover" end="arrowDown.mouseout"/>
                  </use>
                  <path fill="none" stroke="white" stroke-width="1.5" d="M0,-3.0v7 M-2.5,-0.5L0,-3.0L2.5,-0.5"/>
                </g>
                <g id="arrowLeft" xlink:href="#dirArrow" transform="rotate(270) translate(-36 17)" onmousedown="handlePan(-1,0)">
                  <use xlink:href="#rim" fill="#404040">
                        <set attributeName="fill" to="#808080" begin="arrowLeft.mouseover" end="arrowLeft.mouseout"/>
                  </use>
                  <path fill="none" stroke="white" stroke-width="1.5" d="M0,-3.0v7 M-2.5,-0.5L0,-3.0L2.5,-0.5"/>
                </g>
        </g>
        <svg viewBox="0 0 15 15" width="100%" height="30px" preserveAspectRatio="xMaxYMin meet">
         <g id="arrow_out" transform="scale(0.3 0.3)">
          <a xlink:href="class_chimera_t_k_1_1_variable_mapper_a3bc14cf437e5ec63b37a2d6dd5934f09_icgraph_org.svg" target="_base">
           <rect id="button" ry="5" rx="5" y="6" x="6" height="38" width="38"
                fill="#f2f5e9" fill-opacity="0.5" stroke="#606060" stroke-width="1.0"/>
           <path id="arrow"
             d="M 11.500037,31.436501 C 11.940474,20.09759 22.043105,11.32322 32.158766,21.979434 L 37.068811,17.246167 C 37.068811,17.246167 37.088388,32 37.088388,32 L 22.160133,31.978069 C 22.160133,31.978069 26.997745,27.140456 26.997745,27.140456 C 18.528582,18.264221 13.291696,25.230495 11.500037,31.436501 z"
             style="fill:#404040;"/>
          </a>
         </g>
        </svg>
</svg>
