<?xml version="1.0" encoding="UTF-8" standalone="no"?>
<!DOCTYPE svg PUBLIC "-//W3C//DTD SVG 1.1//EN"
 "http://www.w3.org/Graphics/SVG/1.1/DTD/svg11.dtd">
<!-- Generated by graphviz version 2.40.1 (20161225.0304)
 -->
<!-- Title: ChimeraTK::VariableMapper::prepareOutput Pages: 1 -->
<!--zoomable 715 -->
<svg id="main" version="1.1" xmlns="http://www.w3.org/2000/svg" xmlns:xlink="http://www.w3.org/1999/xlink" xml:space="preserve" onload="init(evt)">
<style type="text/css"><![CDATA[
.edge:hover path { stroke: red; }
.edge:hover polygon { stroke: red; fill: red; }
]]></style>
<script type="text/javascript"><![CDATA[
var edges = document.getElementsByTagName('g');
if (edges && edges.length) {
  for (var i=0;i<edges.length;i++) {
    if (edges[i].id.substr(0,4)=='edge') {
      edges[i].setAttribute('class','edge');
    }
  }
}
]]></script>
        <defs>
                <circle id="rim" cx="0" cy="0" r="7"/>
                <circle id="rim2" cx="0" cy="0" r="3.5"/>
                <g id="zoomPlus">
                        <use xlink:href="#rim" fill="#404040">
                                <set attributeName="fill" to="#808080" begin="zoomplus.mouseover" end="zoomplus.mouseout"/>
                        </use>
                        <path d="M-4,0h8M0,-4v8" fill="none" stroke="white" stroke-width="1.5" pointer-events="none"/>
                </g>
                <g id="zoomMin">
                        <use xlink:href="#rim" fill="#404040">
                                <set attributeName="fill" to="#808080" begin="zoomminus.mouseover" end="zoomminus.mouseout"/>
                        </use>
                        <path d="M-4,0h8" fill="none" stroke="white" stroke-width="1.5" pointer-events="none"/>
                </g>
                <g id="dirArrow">
                        <path fill="none" stroke="white" stroke-width="1.5" d="M0,-3.0v7 M-2.5,-0.5L0,-3.0L2.5,-0.5"/>
                </g>
               <g id="resetDef">
                       <use xlink:href="#rim2" fill="#404040">
                               <set attributeName="fill" to="#808080" begin="reset.mouseover" end="reset.mouseout"/>
                       </use>
               </g>
        </defs>

<script type="text/javascript">
var viewWidth = 1013;
var viewHeight = 715;
var sectionId = 'dynsection-18';
</script>
<script xlink:href="svgpan.js"/>
<svg id="graph" class="graph">
<g id="viewport">
<title>ChimeraTK::VariableMapper::prepareOutput</title>
<polygon fill="#ffffff" stroke="transparent" points="-4,4 -4,-710.9008 1009,-710.9008 1009,4 -4,4"/>
<!-- Node160 -->
<g id="node1" class="node">
<title>Node160</title>
<polygon fill="#bfbfbf" stroke="#000000" points="0,-328.4008 0,-358.4008 152,-358.4008 152,-328.4008 0,-328.4008"/>
<text text-anchor="start" x="8" y="-346.4008" font-family="Helvetica,sans-Serif" font-size="10.00" fill="#000000">ChimeraTK::VariableMapper</text>
<text text-anchor="middle" x="76" y="-335.4008" font-family="Helvetica,sans-Serif" font-size="10.00" fill="#000000">::prepareOutput</text>
</g>
<!-- Node161 -->
<g id="node2" class="node">
<title>Node161</title>
<g id="a_node2"><a xlink:href="class_chimera_t_k_1_1_variable_mapper.html#a10b7e160794fa0ea39deb0354956cf39" target="_top" xlink:title="ChimeraTK::VariableMapper\l::clear">
<polygon fill="#ffffff" stroke="#000000" points="188,-676.4008 188,-706.4008 340,-706.4008 340,-676.4008 188,-676.4008"/>
<text text-anchor="start" x="196" y="-694.4008" font-family="Helvetica,sans-Serif" font-size="10.00" fill="#000000">ChimeraTK::VariableMapper</text>
<text text-anchor="middle" x="264" y="-683.4008" font-family="Helvetica,sans-Serif" font-size="10.00" fill="#000000">::clear</text>
</a>
</g>
</g>
<!-- Node160&#45;&gt;Node161 -->
<g id="edge1" class="edge">
<title>Node160&#45;&gt;Node161</title>
<path fill="none" stroke="#191970" d="M77.0083,-358.6334C81.1277,-408.8296 100.8935,-570.9807 188,-661.4008 191.5983,-665.136 195.719,-668.4162 200.1396,-671.2952"/>
<polygon fill="#191970" stroke="#191970" points="198.536,-674.4103 208.9515,-676.3513 202.0197,-668.3387 198.536,-674.4103"/>
</g>
<!-- Node162 -->
<g id="node3" class="node">
<title>Node162</title>
<g id="a_node3"><a xlink:href="class_chimera_t_k_1_1_variable_mapper.html#a63889dd4e7107d5e43b9a417f8b2b4a7" target="_top" xlink:title="An internal helper function to abbreviate the syntax. ">
<polygon fill="#ffffff" stroke="#000000" points="376,-588.4008 376,-618.4008 528,-618.4008 528,-588.4008 376,-588.4008"/>
<text text-anchor="start" x="384" y="-606.4008" font-family="Helvetica,sans-Serif" font-size="10.00" fill="#000000">ChimeraTK::VariableMapper</text>
<text text-anchor="middle" x="452" y="-595.4008" font-family="Helvetica,sans-Serif" font-size="10.00" fill="#000000">::nodeIsWhitespace</text>
</a>
</g>
</g>
<!-- Node160&#45;&gt;Node162 -->
<g id="edge2" class="edge">
<title>Node160&#45;&gt;Node162</title>
<path fill="none" stroke="#191970" d="M92.3971,-358.6742C135.7833,-398.4587 258.3422,-506.81 376,-573.4008 383.0213,-577.3747 390.674,-581.0635 398.3311,-584.3979"/>
<polygon fill="#191970" stroke="#191970" points="397.0547,-587.6578 407.631,-588.2847 399.754,-581.1992 397.0547,-587.6578"/>
</g>
<!-- Node163 -->
<g id="node4" class="node">
<title>Node163</title>
<g id="a_node4"><a xlink:href="class_chimera_t_k_1_1_variable_mapper.html#a6938122cddbec29e7714a2fc72ac50df" target="_top" xlink:title="ChimeraTK::VariableMapper\l::processLocationNode">
<polygon fill="#ffffff" stroke="#000000" points="188,-328.4008 188,-358.4008 340,-358.4008 340,-328.4008 188,-328.4008"/>
<text text-anchor="start" x="196" y="-346.4008" font-family="Helvetica,sans-Serif" font-size="10.00" fill="#000000">ChimeraTK::VariableMapper</text>
<text text-anchor="middle" x="264" y="-335.4008" font-family="Helvetica,sans-Serif" font-size="10.00" fill="#000000">::processLocationNode</text>
</a>
</g>
</g>
<!-- Node160&#45;&gt;Node163 -->
<g id="edge3" class="edge">
<title>Node160&#45;&gt;Node163</title>
<path fill="none" stroke="#191970" d="M152.1958,-343.4008C160.5174,-343.4008 169.0322,-343.4008 177.4663,-343.4008"/>
<polygon fill="#191970" stroke="#191970" points="177.6958,-346.9009 187.6957,-343.4008 177.6957,-339.9009 177.6958,-346.9009"/>
</g>
<!-- Node171 -->
<g id="node12" class="node">
<title>Node171</title>
<g id="a_node12"><a xlink:href="class_chimera_t_k_1_1_variable_mapper.html#a980981fc1d6b54f8d2aea2290e24bb3a" target="_top" xlink:title="Function to get a bool out of the texts true/True/TRUE/false/False/FALSE/1/0. ">
<polygon fill="#ffffff" stroke="#000000" points="828,-129.4008 828,-159.4008 980,-159.4008 980,-129.4008 828,-129.4008"/>
<text text-anchor="start" x="836" y="-147.4008" font-family="Helvetica,sans-Serif" font-size="10.00" fill="#000000">ChimeraTK::VariableMapper</text>
<text text-anchor="middle" x="904" y="-136.4008" font-family="Helvetica,sans-Serif" font-size="10.00" fill="#000000">::evaluateBool</text>
</a>
</g>
</g>
<!-- Node160&#45;&gt;Node171 -->
<g id="edge51" class="edge">
<title>Node160&#45;&gt;Node171</title>
<path fill="none" stroke="#191970" d="M77.4024,-328.2266C82.5065,-282.6061 104.4498,-146.1069 188,-85.4008 396.1908,65.8671 517.3847,-17.8101 767,-80.4008 804.1283,-89.7107 843.406,-109.1773 870.3401,-124.2106"/>
<polygon fill="#191970" stroke="#191970" points="868.9051,-127.4208 879.3285,-129.3193 872.3641,-121.335 868.9051,-127.4208"/>
</g>
<!-- Node172 -->
<g id="node13" class="node">
<title>Node172</title>
<g id="a_node13"><a xlink:href="class_chimera_t_k_1_1_variable_mapper.html#a9b5aefde6b361970ddff3b9089b83c4b" target="_top" xlink:title="Loop through the sub nodes and take the string from the first non&#45;empty which can be casted to a stri...">
<polygon fill="#ffffff" stroke="#000000" points="828,-551.4008 828,-581.4008 980,-581.4008 980,-551.4008 828,-551.4008"/>
<text text-anchor="start" x="836" y="-569.4008" font-family="Helvetica,sans-Serif" font-size="10.00" fill="#000000">ChimeraTK::VariableMapper</text>
<text text-anchor="middle" x="904" y="-558.4008" font-family="Helvetica,sans-Serif" font-size="10.00" fill="#000000">::getContentString</text>
</a>
</g>
</g>
<!-- Node160&#45;&gt;Node172 -->
<g id="edge52" class="edge">
<title>Node160&#45;&gt;Node172</title>
<path fill="none" stroke="#191970" d="M83.5177,-358.659C99.4344,-389.8415 139.1184,-461.9274 188,-509.4008 258.9384,-578.2957 281.0227,-600.8676 376,-628.4008 547.0197,-677.9781 760.1383,-617.6211 854.7787,-584.8678"/>
<polygon fill="#191970" stroke="#191970" points="856.0975,-588.1144 864.3742,-581.5003 853.7794,-581.5093 856.0975,-588.1144"/>
</g>
<!-- Node176 -->
<g id="node17" class="node">
<title>Node176</title>
<g id="a_node17"><a xlink:href="class_chimera_t_k_1_1_variable_mapper.html#abd90ab9c251c6f08417a80a5b56ef22c" target="_top" xlink:title="Functiont o convert a string into a DataConsistencyGroup::MatchingMode enum value. ">
<polygon fill="#ffffff" stroke="#000000" points="828,-178.4008 828,-208.4008 980,-208.4008 980,-178.4008 828,-178.4008"/>
<text text-anchor="start" x="836" y="-196.4008" font-family="Helvetica,sans-Serif" font-size="10.00" fill="#000000">ChimeraTK::VariableMapper</text>
<text text-anchor="middle" x="904" y="-185.4008" font-family="Helvetica,sans-Serif" font-size="10.00" fill="#000000">::evaluateDataMatching</text>
</a>
</g>
</g>
<!-- Node160&#45;&gt;Node176 -->
<g id="edge53" class="edge">
<title>Node160&#45;&gt;Node176</title>
<path fill="none" stroke="#191970" d="M81.3074,-328.1444C94.1922,-293.1979 130.3694,-206.5846 188,-157.4008 256.5533,-98.8952 287.5328,-98.6061 376,-81.4008 566.1148,-44.4268 616.5755,-115.8971 803,-168.4008 811.9688,-170.9267 821.4239,-173.4497 830.805,-175.8684"/>
<polygon fill="#191970" stroke="#191970" points="829.9764,-179.2691 840.531,-178.347 831.7051,-172.4859 829.9764,-179.2691"/>
</g>
<!-- Node179 -->
<g id="node20" class="node">
<title>Node179</title>
<g id="a_node20"><a xlink:href="class_chimera_t_k_1_1_variable_mapper.html#ac8251f48b9f4a3bddf535ff40bb60eb1" target="_top" xlink:title="ChimeraTK::VariableMapper\l::processImportNode">
<polygon fill="#ffffff" stroke="#000000" points="376,-91.4008 376,-121.4008 528,-121.4008 528,-91.4008 376,-91.4008"/>
<text text-anchor="start" x="384" y="-109.4008" font-family="Helvetica,sans-Serif" font-size="10.00" fill="#000000">ChimeraTK::VariableMapper</text>
<text text-anchor="middle" x="452" y="-98.4008" font-family="Helvetica,sans-Serif" font-size="10.00" fill="#000000">::processImportNode</text>
</a>
</g>
</g>
<!-- Node160&#45;&gt;Node179 -->
<g id="edge50" class="edge">
<title>Node160&#45;&gt;Node179</title>
<path fill="none" stroke="#191970" d="M94.6773,-328.2305C140.4294,-291.5929 262.6578,-196.8521 376,-136.4008 383.3768,-132.4664 391.3852,-128.7535 399.3434,-125.3686"/>
<polygon fill="#191970" stroke="#191970" points="400.7049,-128.5931 408.6217,-121.5521 398.042,-122.1194 400.7049,-128.5931"/>
</g>
<!-- Node163&#45;&gt;Node162 -->
<g id="edge6" class="edge">
<title>Node163&#45;&gt;Node162</title>
<path fill="none" stroke="#191970" d="M274.6976,-358.7259C290.5173,-381.8788 320.389,-427.527 340,-469.4008 360.7454,-513.6967 342.1597,-538.0832 376,-573.4008 379.5882,-577.1457 383.7018,-580.4328 388.1174,-583.3165"/>
<polygon fill="#191970" stroke="#191970" points="386.5087,-586.4288 396.9224,-588.3792 389.9979,-580.3604 386.5087,-586.4288"/>
</g>
<!-- Node164 -->
<g id="node5" class="node">
<title>Node164</title>
<g id="a_node5"><a xlink:href="class_chimera_t_k_1_1_variable_mapper.html#a3bc14cf437e5ec63b37a2d6dd5934f09" target="_top" xlink:title="ChimeraTK::VariableMapper\l::getAttributeValue">
<polygon fill="#ffffff" stroke="#000000" points="589.5,-255.4008 589.5,-285.4008 741.5,-285.4008 741.5,-255.4008 589.5,-255.4008"/>
<text text-anchor="start" x="597.5" y="-273.4008" font-family="Helvetica,sans-Serif" font-size="10.00" fill="#000000">ChimeraTK::VariableMapper</text>
<text text-anchor="middle" x="665.5" y="-262.4008" font-family="Helvetica,sans-Serif" font-size="10.00" fill="#000000">::getAttributeValue</text>
</a>
</g>
</g>
<!-- Node163&#45;&gt;Node164 -->
<g id="edge4" class="edge">
<title>Node163&#45;&gt;Node164</title>
<path fill="none" stroke="#191970" d="M275.3679,-328.2484C293.6128,-305.3468 331.8926,-262.8458 376,-246.4008 453.9508,-217.3377 551.6459,-235.6939 611.2748,-252.426"/>
<polygon fill="#191970" stroke="#191970" points="610.6516,-255.8891 621.2303,-255.3041 612.5957,-249.1644 610.6516,-255.8891"/>
</g>
<!-- Node165 -->
<g id="node6" class="node">
<title>Node165</title>
<g id="a_node6"><a xlink:href="class_chimera_t_k_1_1_variable_mapper.html#af8b09024be81e0bc17cb95f3df3ac9c8" target="_top" xlink:title="ChimeraTK::VariableMapper\l::processCode">
<polygon fill="#ffffff" stroke="#000000" points="376,-353.4008 376,-383.4008 528,-383.4008 528,-353.4008 376,-353.4008"/>
<text text-anchor="start" x="384" y="-371.4008" font-family="Helvetica,sans-Serif" font-size="10.00" fill="#000000">ChimeraTK::VariableMapper</text>
<text text-anchor="middle" x="452" y="-360.4008" font-family="Helvetica,sans-Serif" font-size="10.00" fill="#000000">::processCode</text>
</a>
</g>
</g>
<!-- Node163&#45;&gt;Node165 -->
<g id="edge5" class="edge">
<title>Node163&#45;&gt;Node165</title>
<path fill="none" stroke="#191970" d="M340.1958,-353.5332C348.6088,-354.652 357.2194,-355.797 365.7444,-356.9306"/>
<polygon fill="#191970" stroke="#191970" points="365.3216,-360.4052 375.6957,-358.254 366.2444,-353.4662 365.3216,-360.4052"/>
</g>
<!-- Node166 -->
<g id="node7" class="node">
<title>Node166</title>
<g id="a_node7"><a xlink:href="class_chimera_t_k_1_1_variable_mapper.html#a9bab31d01cd9a9af0a685ed45f19c6a5" target="_top" xlink:title="ChimeraTK::VariableMapper\l::processNode">
<polygon fill="#ffffff" stroke="#000000" points="376,-402.4008 376,-432.4008 528,-432.4008 528,-402.4008 376,-402.4008"/>
<text text-anchor="start" x="384" y="-420.4008" font-family="Helvetica,sans-Serif" font-size="10.00" fill="#000000">ChimeraTK::VariableMapper</text>
<text text-anchor="middle" x="452" y="-409.4008" font-family="Helvetica,sans-Serif" font-size="10.00" fill="#000000">::processNode</text>
</a>
</g>
</g>
<!-- Node163&#45;&gt;Node166 -->
<g id="edge7" class="edge">
<title>Node163&#45;&gt;Node166</title>
<path fill="none" stroke="#191970" d="M295.4593,-358.6023C317.6874,-369.0564 348.3287,-382.8942 376,-393.4008 381.0934,-395.3347 386.4179,-397.2415 391.782,-399.0838"/>
<polygon fill="#191970" stroke="#191970" points="390.8447,-402.461 401.4386,-402.3221 393.0703,-395.8242 390.8447,-402.461"/>
</g>
<!-- Node163&#45;&gt;Node171 -->
<g id="edge22" class="edge">
<title>Node163&#45;&gt;Node171</title>
<path fill="none" stroke="#191970" d="M273.3907,-328.1785C297.4779,-289.3695 360.6409,-189.1627 376,-180.4008 449.0403,-138.7336 687.5668,-138.2467 817.5892,-141.3534"/>
<polygon fill="#191970" stroke="#191970" points="817.8237,-144.8603 827.9085,-141.613 817.9997,-137.8625 817.8237,-144.8603"/>
</g>
<!-- Node163&#45;&gt;Node172 -->
<g id="edge23" class="edge">
<title>Node163&#45;&gt;Node172</title>
<path fill="none" stroke="#191970" d="M278.305,-358.4321C294.9878,-376.6217 322.5053,-408.76 340,-440.4008 362.8567,-481.7394 339.6212,-510.2695 376,-540.4008 441.055,-594.2836 685.554,-584.1197 817.7986,-574.156"/>
<polygon fill="#191970" stroke="#191970" points="818.1985,-577.6357 827.9006,-573.3788 817.6615,-570.6563 818.1985,-577.6357"/>
</g>
<!-- Node163&#45;&gt;Node176 -->
<g id="edge24" class="edge">
<title>Node163&#45;&gt;Node176</title>
<path fill="none" stroke="#191970" d="M273.1333,-328.2911C289.8222,-302.2638 327.9881,-249.6309 376,-227.4008 519.5337,-160.9428 708.8642,-168.5062 817.4416,-180.5801"/>
<polygon fill="#191970" stroke="#191970" points="817.358,-184.0935 827.6927,-181.7603 818.1587,-177.1394 817.358,-184.0935"/>
</g>
<!-- Node163&#45;&gt;Node179 -->
<g id="edge21" class="edge">
<title>Node163&#45;&gt;Node179</title>
<path fill="none" stroke="#191970" d="M272.5026,-328.0109C286.6243,-302.4144 315.7609,-249.4503 340,-204.4008 356.203,-174.2869 350.5162,-159.2034 376,-136.4008 380.3342,-132.5226 385.2294,-129.1172 390.3949,-126.1325"/>
<polygon fill="#191970" stroke="#191970" points="392.0402,-129.222 399.2918,-121.4977 388.806,-123.0139 392.0402,-129.222"/>
</g>
<!-- Node180 -->
<g id="node21" class="node">
<title>Node180</title>
<g id="a_node21"><a xlink:href="class_chimera_t_k_1_1_variable_mapper.html#a2c592a3540b9326d1c46131a686d768a" target="_top" xlink:title="ChimeraTK::VariableMapper\l::processSpectrumNode">
<polygon fill="#ffffff" stroke="#000000" points="376,-500.4008 376,-530.4008 528,-530.4008 528,-500.4008 376,-500.4008"/>
<text text-anchor="start" x="384" y="-518.4008" font-family="Helvetica,sans-Serif" font-size="10.00" fill="#000000">ChimeraTK::VariableMapper</text>
<text text-anchor="middle" x="452" y="-507.4008" font-family="Helvetica,sans-Serif" font-size="10.00" fill="#000000">::processSpectrumNode</text>
</a>
</g>
</g>
<!-- Node163&#45;&gt;Node180 -->
<g id="edge25" class="edge">
<title>Node163&#45;&gt;Node180</title>
<path fill="none" stroke="#191970" d="M271.3016,-358.4355C286.5484,-388.2662 324.6583,-455.1774 376,-491.4008 378.1269,-492.9014 380.3517,-494.3111 382.6484,-495.6351"/>
<polygon fill="#191970" stroke="#191970" points="381.3131,-498.8836 391.809,-500.3283 384.5049,-492.6536 381.3131,-498.8836"/>
</g>
<!-- Node181 -->
<g id="node22" class="node">
<title>Node181</title>
<g id="a_node22"><a xlink:href="class_chimera_t_k_1_1_variable_mapper.html#a0ae04625dba7e9b611a0368b55ec7b28" target="_top" xlink:title="ChimeraTK::VariableMapper\l::processXyNode">
<polygon fill="#ffffff" stroke="#000000" points="376,-451.4008 376,-481.4008 528,-481.4008 528,-451.4008 376,-451.4008"/>
<text text-anchor="start" x="384" y="-469.4008" font-family="Helvetica,sans-Serif" font-size="10.00" fill="#000000">ChimeraTK::VariableMapper</text>
<text text-anchor="middle" x="452" y="-458.4008" font-family="Helvetica,sans-Serif" font-size="10.00" fill="#000000">::processXyNode</text>
</a>
</g>
</g>
<!-- Node163&#45;&gt;Node181 -->
<g id="edge33" class="edge">
<title>Node163&#45;&gt;Node181</title>
<path fill="none" stroke="#191970" d="M277.329,-358.6739C296.9205,-380.2383 335.5687,-419.5259 376,-442.4008 379.0427,-444.1223 382.2251,-445.7377 385.49,-447.2513"/>
<polygon fill="#191970" stroke="#191970" points="384.2905,-450.5448 394.8618,-451.2506 387.038,-444.1065 384.2905,-450.5448"/>
</g>
<!-- Node182 -->
<g id="node23" class="node">
<title>Node182</title>
<g id="a_node23"><a xlink:href="class_chimera_t_k_1_1_variable_mapper.html#ac7ffa344a61aceb701bf12d62cfcab20" target="_top" xlink:title="ChimeraTK::VariableMapper\l::processIfffNode">
<polygon fill="#ffffff" stroke="#000000" points="376,-304.4008 376,-334.4008 528,-334.4008 528,-304.4008 376,-304.4008"/>
<text text-anchor="start" x="384" y="-322.4008" font-family="Helvetica,sans-Serif" font-size="10.00" fill="#000000">ChimeraTK::VariableMapper</text>
<text text-anchor="middle" x="452" y="-311.4008" font-family="Helvetica,sans-Serif" font-size="10.00" fill="#000000">::processIfffNode</text>
</a>
</g>
</g>
<!-- Node163&#45;&gt;Node182 -->
<g id="edge41" class="edge">
<title>Node163&#45;&gt;Node182</title>
<path fill="none" stroke="#191970" d="M340.1958,-333.6737C348.6088,-332.5997 357.2194,-331.5005 365.7444,-330.4122"/>
<polygon fill="#191970" stroke="#191970" points="366.2195,-333.88 375.6957,-329.1418 365.333,-326.9364 366.2195,-333.88"/>
</g>
<!-- Node183 -->
<g id="node24" class="node">
<title>Node183</title>
<g id="a_node24"><a xlink:href="class_chimera_t_k_1_1_variable_mapper.html#ad3a641ba4c86a99e981c02c847b102cc" target="_top" xlink:title="ChimeraTK::VariableMapper\l::processSetErrorNode">
<polygon fill="#ffffff" stroke="#000000" points="376,-255.4008 376,-285.4008 528,-285.4008 528,-255.4008 376,-255.4008"/>
<text text-anchor="start" x="384" y="-273.4008" font-family="Helvetica,sans-Serif" font-size="10.00" fill="#000000">ChimeraTK::VariableMapper</text>
<text text-anchor="middle" x="452" y="-262.4008" font-family="Helvetica,sans-Serif" font-size="10.00" fill="#000000">::processSetErrorNode</text>
</a>
</g>
</g>
<!-- Node163&#45;&gt;Node183 -->
<g id="edge47" class="edge">
<title>Node163&#45;&gt;Node183</title>
<path fill="none" stroke="#191970" d="M297.0165,-328.3526C319.1599,-318.4834 349.0872,-305.5722 376,-295.4008 381.8834,-293.1772 388.0632,-290.9581 394.2506,-288.8115"/>
<polygon fill="#191970" stroke="#191970" points="395.6034,-292.0481 403.9383,-285.5075 393.3438,-285.4228 395.6034,-292.0481"/>
</g>
<!-- Node166&#45;&gt;Node164 -->
<g id="edge9" class="edge">
<title>Node166&#45;&gt;Node164</title>
<path fill="none" stroke="#191970" d="M515.9321,-402.3128C520.3051,-399.7879 524.3974,-396.8408 528,-393.4008 561.5593,-361.3561 529.4268,-326.3488 564,-295.4008 568.7919,-291.1114 574.2021,-287.5305 579.9675,-284.5441"/>
<polygon fill="#191970" stroke="#191970" points="581.6177,-287.639 589.2823,-280.3242 578.7291,-281.2628 581.6177,-287.639"/>
</g>
<!-- Node167 -->
<g id="node8" class="node">
<title>Node167</title>
<g id="a_node8"><a xlink:href="namespace_chimera_t_k.html#aa4d5d321b0bef9e79984135b43b5514f" target="_top" xlink:title="ChimeraTK::asXmlElement">
<polygon fill="#ffffff" stroke="#000000" points="591.5,-304.9008 591.5,-323.9008 739.5,-323.9008 739.5,-304.9008 591.5,-304.9008"/>
<text text-anchor="middle" x="665.5" y="-311.9008" font-family="Helvetica,sans-Serif" font-size="10.00" fill="#000000">ChimeraTK::asXmlElement</text>
</a>
</g>
</g>
<!-- Node166&#45;&gt;Node167 -->
<g id="edge8" class="edge">
<title>Node166&#45;&gt;Node167</title>
<path fill="none" stroke="#191970" d="M513.7072,-402.264C518.7915,-399.7456 523.6426,-396.8134 528,-393.4008 552.1839,-374.4603 538.7998,-351.9666 564,-334.4008 569.4942,-330.5711 575.5414,-327.4327 581.8638,-324.8655"/>
<polygon fill="#191970" stroke="#191970" points="583.051,-328.1581 591.2915,-321.499 580.6969,-321.5658 583.051,-328.1581"/>
</g>
<!-- Node168 -->
<g id="node9" class="node">
<title>Node168</title>
<g id="a_node9"><a xlink:href="namespace_chimera_t_k.html#a76ae8c499735588a556f99205b693955" target="_top" xlink:title="ChimeraTK::determineName">
<polygon fill="#ffffff" stroke="#000000" points="587.5,-518.9008 587.5,-537.9008 743.5,-537.9008 743.5,-518.9008 587.5,-518.9008"/>
<text text-anchor="middle" x="665.5" y="-525.9008" font-family="Helvetica,sans-Serif" font-size="10.00" fill="#000000">ChimeraTK::determineName</text>
</a>
</g>
</g>
<!-- Node166&#45;&gt;Node168 -->
<g id="edge10" class="edge">
<title>Node166&#45;&gt;Node168</title>
<path fill="none" stroke="#191970" d="M506.1679,-432.5326C513.6855,-435.3995 521.1662,-438.6856 528,-442.4008 546.0506,-452.2141 546.984,-459.8864 564,-471.4008 587.8046,-487.5089 616.4859,-503.3113 637.2788,-514.1762"/>
<polygon fill="#191970" stroke="#191970" points="635.7408,-517.3211 646.2313,-518.8042 638.9553,-511.1028 635.7408,-517.3211"/>
</g>
<!-- Node169 -->
<g id="node10" class="node">
<title>Node169</title>
<g id="a_node10"><a xlink:href="namespace_chimera_t_k.html#afcd443a4562fd9b849a12ea0f09587b1" target="_top" xlink:title="ChimeraTK::getAbsoluteSource">
<polygon fill="#ffffff" stroke="#000000" points="581.5,-392.9008 581.5,-411.9008 749.5,-411.9008 749.5,-392.9008 581.5,-392.9008"/>
<text text-anchor="middle" x="665.5" y="-399.9008" font-family="Helvetica,sans-Serif" font-size="10.00" fill="#000000">ChimeraTK::getAbsoluteSource</text>
</a>
</g>
</g>
<!-- Node166&#45;&gt;Node169 -->
<g id="edge11" class="edge">
<title>Node166&#45;&gt;Node169</title>
<path fill="none" stroke="#191970" d="M528.1742,-412.049C542.0507,-411.0741 556.68,-410.0462 571.0106,-409.0394"/>
<polygon fill="#191970" stroke="#191970" points="571.6477,-412.5034 581.3777,-408.311 571.157,-405.5206 571.6477,-412.5034"/>
</g>
<!-- Node170 -->
<g id="node11" class="node">
<title>Node170</title>
<g id="a_node11"><a xlink:href="class_chimera_t_k_1_1_variable_mapper.html#ab77974d5f702f8a1cbd99bc801cc3c02" target="_top" xlink:title="ChimeraTK::VariableMapper\l::processHistoryAndWritableAttributes">
<polygon fill="#ffffff" stroke="#000000" points="564,-343.4008 564,-373.4008 767,-373.4008 767,-343.4008 564,-343.4008"/>
<text text-anchor="start" x="572" y="-361.4008" font-family="Helvetica,sans-Serif" font-size="10.00" fill="#000000">ChimeraTK::VariableMapper</text>
<text text-anchor="middle" x="665.5" y="-350.4008" font-family="Helvetica,sans-Serif" font-size="10.00" fill="#000000">::processHistoryAndWritableAttributes</text>
</a>
</g>
</g>
<!-- Node166&#45;&gt;Node170 -->
<g id="edge12" class="edge">
<title>Node166&#45;&gt;Node170</title>
<path fill="none" stroke="#191970" d="M499.5244,-402.3631C519.3824,-396.2388 542.7398,-389.2416 564,-383.4008 573.1566,-380.8852 582.8104,-378.3536 592.3756,-375.9175"/>
<polygon fill="#191970" stroke="#191970" points="593.4464,-379.2571 602.287,-373.4181 591.7347,-372.4696 593.4464,-379.2571"/>
</g>
<!-- Node178 -->
<g id="node19" class="node">
<title>Node178</title>
<g id="a_node19"><a xlink:href="class_chimera_t_k_1_1_variable_mapper.html#aa88a6e2972356689a7b2138390196e3a" target="_top" xlink:title="ChimeraTK::VariableMapper\l::addDescription">
<polygon fill="#ffffff" stroke="#000000" points="589.5,-431.4008 589.5,-461.4008 741.5,-461.4008 741.5,-431.4008 589.5,-431.4008"/>
<text text-anchor="start" x="597.5" y="-449.4008" font-family="Helvetica,sans-Serif" font-size="10.00" fill="#000000">ChimeraTK::VariableMapper</text>
<text text-anchor="middle" x="665.5" y="-438.4008" font-family="Helvetica,sans-Serif" font-size="10.00" fill="#000000">::addDescription</text>
</a>
</g>
</g>
<!-- Node166&#45;&gt;Node178 -->
<g id="edge20" class="edge">
<title>Node166&#45;&gt;Node178</title>
<path fill="none" stroke="#191970" d="M528.1742,-427.7477C544.6366,-429.9838 562.1586,-432.3638 578.9844,-434.6493"/>
<polygon fill="#191970" stroke="#191970" points="578.9751,-438.1801 589.3552,-436.058 579.9173,-431.2438 578.9751,-438.1801"/>
</g>
<!-- Node170&#45;&gt;Node171 -->
<g id="edge13" class="edge">
<title>Node170&#45;&gt;Node171</title>
<path fill="none" stroke="#191970" d="M754.7272,-343.1852C759.1863,-340.4089 763.3285,-337.1716 767,-333.4008 819.3616,-279.6231 750.4183,-221.9634 803,-168.4008 807.5571,-163.7587 812.837,-159.9484 818.5451,-156.8278"/>
<polygon fill="#191970" stroke="#191970" points="820.2606,-159.889 827.8254,-152.4712 817.2859,-153.5525 820.2606,-159.889"/>
</g>
<!-- Node170&#45;&gt;Node172 -->
<g id="edge14" class="edge">
<title>Node170&#45;&gt;Node172</title>
<path fill="none" stroke="#191970" d="M751.2545,-373.4736C756.8686,-376.255 762.1907,-379.535 767,-383.4008 795.1953,-406.065 782.5602,-426.5536 803,-456.4008 825.8008,-489.6957 858.2121,-523.1672 880.1187,-544.2925"/>
<polygon fill="#191970" stroke="#191970" points="877.7429,-546.8632 887.3963,-551.2294 882.5726,-541.7963 877.7429,-546.8632"/>
</g>
<!-- Node173 -->
<g id="node14" class="node">
<title>Node173</title>
<g id="a_node14"><a xlink:href="class_chimera_t_k_1_1_variable_mapper.html#adf790079aada402c1db0ad4e42c16752" target="_top" xlink:title="ChimeraTK::VariableMapper\l::getHasHistoryDefault">
<polygon fill="#ffffff" stroke="#000000" points="828,-269.4008 828,-299.4008 980,-299.4008 980,-269.4008 828,-269.4008"/>
<text text-anchor="start" x="836" y="-287.4008" font-family="Helvetica,sans-Serif" font-size="10.00" fill="#000000">ChimeraTK::VariableMapper</text>
<text text-anchor="middle" x="904" y="-276.4008" font-family="Helvetica,sans-Serif" font-size="10.00" fill="#000000">::getHasHistoryDefault</text>
</a>
</g>
</g>
<!-- Node170&#45;&gt;Node173 -->
<g id="edge15" class="edge">
<title>Node170&#45;&gt;Node173</title>
<path fill="none" stroke="#191970" d="M739.6841,-343.3206C749.047,-340.493 758.3631,-337.2036 767,-333.4008 784.5993,-325.652 785.4052,-317.1597 803,-309.4008 808.6945,-306.8897 814.6856,-304.6016 820.7903,-302.5221"/>
<polygon fill="#191970" stroke="#191970" points="821.9973,-305.8107 830.4506,-299.4239 819.8595,-299.1451 821.9973,-305.8107"/>
</g>
<!-- Node174 -->
<g id="node15" class="node">
<title>Node174</title>
<g id="a_node15"><a xlink:href="class_chimera_t_k_1_1_variable_mapper.html#aed5f14a453c9d868c26dcedd490b84cf" target="_top" xlink:title="ChimeraTK::VariableMapper\l::getIsWriteableDefault">
<polygon fill="#ffffff" stroke="#000000" points="828,-416.4008 828,-446.4008 980,-446.4008 980,-416.4008 828,-416.4008"/>
<text text-anchor="start" x="836" y="-434.4008" font-family="Helvetica,sans-Serif" font-size="10.00" fill="#000000">ChimeraTK::VariableMapper</text>
<text text-anchor="middle" x="904" y="-423.4008" font-family="Helvetica,sans-Serif" font-size="10.00" fill="#000000">::getIsWriteableDefault</text>
</a>
</g>
</g>
<!-- Node170&#45;&gt;Node174 -->
<g id="edge16" class="edge">
<title>Node170&#45;&gt;Node174</title>
<path fill="none" stroke="#191970" d="M739.6841,-373.481C749.047,-376.3087 758.3631,-379.598 767,-383.4008 784.5993,-391.1496 785.3691,-399.7243 803,-407.4008 807.7831,-409.4834 812.7758,-411.4018 817.8695,-413.1667"/>
<polygon fill="#191970" stroke="#191970" points="817.1691,-416.6189 827.7611,-416.3739 819.3282,-409.9602 817.1691,-416.6189"/>
</g>
<!-- Node175 -->
<g id="node16" class="node">
<title>Node175</title>
<g id="a_node16"><a xlink:href="class_chimera_t_k_1_1_variable_mapper.html#a28bf057320a328a6fdfdf0524b9e81fb" target="_top" xlink:title="ChimeraTK::VariableMapper\l::getMacroPusleNumberSourceDefault">
<polygon fill="#ffffff" stroke="#000000" points="803,-367.4008 803,-397.4008 1005,-397.4008 1005,-367.4008 803,-367.4008"/>
<text text-anchor="start" x="811" y="-385.4008" font-family="Helvetica,sans-Serif" font-size="10.00" fill="#000000">ChimeraTK::VariableMapper</text>
<text text-anchor="middle" x="904" y="-374.4008" font-family="Helvetica,sans-Serif" font-size="10.00" fill="#000000">::getMacroPusleNumberSourceDefault</text>
</a>
</g>
</g>
<!-- Node170&#45;&gt;Node175 -->
<g id="edge17" class="edge">
<title>Node170&#45;&gt;Node175</title>
<path fill="none" stroke="#191970" d="M767.3373,-368.6486C775.8003,-369.5002 784.3828,-370.3639 792.9095,-371.2219"/>
<polygon fill="#191970" stroke="#191970" points="792.5827,-374.7066 802.8829,-372.2255 793.2836,-367.7418 792.5827,-374.7066"/>
</g>
<!-- Node170&#45;&gt;Node176 -->
<g id="edge18" class="edge">
<title>Node170&#45;&gt;Node176</title>
<path fill="none" stroke="#191970" d="M751.2545,-343.3281C756.8686,-340.5466 762.1907,-337.2666 767,-333.4008 795.1953,-310.7366 779.1027,-287.5589 803,-260.4008 819.8759,-241.2222 843.4608,-225.1655 863.5958,-213.583"/>
<polygon fill="#191970" stroke="#191970" points="865.5378,-216.5076 872.5678,-208.581 862.1291,-210.3935 865.5378,-216.5076"/>
</g>
<!-- Node177 -->
<g id="node18" class="node">
<title>Node177</title>
<g id="a_node18"><a xlink:href="class_chimera_t_k_1_1_variable_mapper.html#adea1bd6bc590e7cd8d58650010c29958" target="_top" xlink:title="ChimeraTK::VariableMapper\l::getDataMatchingDefault">
<polygon fill="#ffffff" stroke="#000000" points="828,-318.4008 828,-348.4008 980,-348.4008 980,-318.4008 828,-318.4008"/>
<text text-anchor="start" x="836" y="-336.4008" font-family="Helvetica,sans-Serif" font-size="10.00" fill="#000000">ChimeraTK::VariableMapper</text>
<text text-anchor="middle" x="904" y="-325.4008" font-family="Helvetica,sans-Serif" font-size="10.00" fill="#000000">::getDataMatchingDefault</text>
</a>
</g>
</g>
<!-- Node170&#45;&gt;Node177 -->
<g id="edge19" class="edge">
<title>Node170&#45;&gt;Node177</title>
<path fill="none" stroke="#191970" d="M767.3373,-347.726C784.1129,-345.9676 801.3584,-344.1599 817.707,-342.4462"/>
<polygon fill="#191970" stroke="#191970" points="818.1777,-345.9161 827.7583,-341.3926 817.4479,-338.9543 818.1777,-345.9161"/>
</g>
<!-- Node180&#45;&gt;Node164 -->
<g id="edge27" class="edge">
<title>Node180&#45;&gt;Node164</title>
<path fill="none" stroke="#191970" d="M517.6574,-500.2864C521.4721,-497.763 524.9779,-494.8237 528,-491.4008 586.6189,-425.0067 503.2746,-359.8739 564,-295.4008 568.7235,-290.3858 574.2779,-286.3084 580.3131,-283.0008"/>
<polygon fill="#191970" stroke="#191970" points="581.9079,-286.1184 589.4584,-278.686 578.921,-279.7877 581.9079,-286.1184"/>
</g>
<!-- Node180&#45;&gt;Node167 -->
<g id="edge26" class="edge">
<title>Node180&#45;&gt;Node167</title>
<path fill="none" stroke="#191970" d="M517.1375,-500.3591C521.1267,-497.8211 524.8099,-494.8585 528,-491.4008 576.5435,-438.7846 512.6044,-384.2348 564,-334.4008 569.2746,-329.2865 575.4551,-325.296 582.1173,-322.2007"/>
<polygon fill="#191970" stroke="#191970" points="583.444,-325.4399 591.461,-318.5132 580.8743,-318.9286 583.444,-325.4399"/>
</g>
<!-- Node180&#45;&gt;Node168 -->
<g id="edge28" class="edge">
<title>Node180&#45;&gt;Node168</title>
<path fill="none" stroke="#191970" d="M528.1742,-520.0391C544.0416,-521.0052 560.8934,-522.0313 577.1573,-523.0216"/>
<polygon fill="#191970" stroke="#191970" points="576.9996,-526.5184 587.1939,-523.6328 577.4251,-519.5314 576.9996,-526.5184"/>
</g>
<!-- Node180&#45;&gt;Node169 -->
<g id="edge29" class="edge">
<title>Node180&#45;&gt;Node169</title>
<path fill="none" stroke="#191970" d="M514.3334,-500.377C519.2266,-497.8367 523.8654,-494.8685 528,-491.4008 554.5025,-469.1733 536.3019,-443.1194 564,-422.4008 567.018,-420.1433 570.2232,-418.1215 573.5646,-416.312"/>
<polygon fill="#191970" stroke="#191970" points="575.1447,-419.4365 582.6928,-412.0016 572.1558,-413.1067 575.1447,-419.4365"/>
</g>
<!-- Node180&#45;&gt;Node170 -->
<g id="edge30" class="edge">
<title>Node180&#45;&gt;Node170</title>
<path fill="none" stroke="#191970" d="M516.41,-500.2191C520.6202,-497.7148 524.5485,-494.7979 528,-491.4008 564.0599,-455.9088 526.8165,-417.7139 564,-383.4008 565.6796,-381.8508 567.4397,-380.3928 569.2681,-379.0215"/>
<polygon fill="#191970" stroke="#191970" points="571.2104,-381.9335 577.6861,-373.548 567.3945,-376.065 571.2104,-381.9335"/>
</g>
<!-- Node180&#45;&gt;Node172 -->
<g id="edge31" class="edge">
<title>Node180&#45;&gt;Node172</title>
<path fill="none" stroke="#191970" d="M496.1678,-530.4769C516.5709,-536.8023 541.2673,-543.5673 564,-547.4008 649.3934,-561.801 748.3806,-565.9425 817.4473,-566.8506"/>
<polygon fill="#191970" stroke="#191970" points="817.8033,-570.3546 827.8415,-566.9658 817.8809,-563.3551 817.8033,-570.3546"/>
</g>
<!-- Node180&#45;&gt;Node178 -->
<g id="edge32" class="edge">
<title>Node180&#45;&gt;Node178</title>
<path fill="none" stroke="#191970" d="M499.8633,-500.3695C509.2002,-497.4137 518.9109,-494.3231 528,-491.4008 555.1259,-482.6792 585.2114,-472.8508 610.3068,-464.6092"/>
<polygon fill="#191970" stroke="#191970" points="611.611,-467.8648 620.0182,-461.4173 609.4253,-461.2148 611.611,-467.8648"/>
</g>
<!-- Node181&#45;&gt;Node164 -->
<g id="edge35" class="edge">
<title>Node181&#45;&gt;Node164</title>
<path fill="none" stroke="#191970" d="M517.08,-451.3057C521.0825,-448.7801 524.7845,-445.8349 528,-442.4008 573.9748,-393.3013 516.4688,-342.9952 564,-295.4008 568.6708,-290.7238 574.0671,-286.8716 579.8878,-283.7041"/>
<polygon fill="#191970" stroke="#191970" points="581.7736,-286.6855 589.3409,-279.2702 578.801,-280.348 581.7736,-286.6855"/>
</g>
<!-- Node181&#45;&gt;Node167 -->
<g id="edge34" class="edge">
<title>Node181&#45;&gt;Node167</title>
<path fill="none" stroke="#191970" d="M516.41,-451.2191C520.6202,-448.7148 524.5485,-445.7979 528,-442.4008 564.0599,-406.9088 526.0214,-367.8317 564,-334.4008 569.2535,-329.7764 575.2595,-326.0964 581.6672,-323.1805"/>
<polygon fill="#191970" stroke="#191970" points="583.2501,-326.3203 591.3018,-319.434 580.7132,-319.7962 583.2501,-326.3203"/>
</g>
<!-- Node181&#45;&gt;Node168 -->
<g id="edge36" class="edge">
<title>Node181&#45;&gt;Node168</title>
<path fill="none" stroke="#191970" d="M498.6944,-481.5263C508.398,-484.7353 518.5459,-488.1396 528,-491.4008 544.0814,-496.9481 547.696,-499.5468 564,-504.4008 578.948,-508.8511 595.3274,-513.0237 610.4829,-516.6015"/>
<polygon fill="#191970" stroke="#191970" points="609.7059,-520.0141 620.238,-518.8637 611.2872,-513.1951 609.7059,-520.0141"/>
</g>
<!-- Node181&#45;&gt;Node169 -->
<g id="edge37" class="edge">
<title>Node181&#45;&gt;Node169</title>
<path fill="none" stroke="#191970" d="M504.4291,-451.3719C512.4226,-448.6434 520.5016,-445.6286 528,-442.4008 544.8119,-435.1639 546.8115,-428.6912 564,-422.4008 572.6084,-419.2504 581.8189,-416.5613 591.049,-414.2746"/>
<polygon fill="#191970" stroke="#191970" points="592.0984,-417.624 601.0449,-411.9486 590.5119,-410.8062 592.0984,-417.624"/>
</g>
<!-- Node181&#45;&gt;Node170 -->
<g id="edge38" class="edge">
<title>Node181&#45;&gt;Node170</title>
<path fill="none" stroke="#191970" d="M513.7072,-451.264C518.7915,-448.7456 523.6426,-445.8134 528,-442.4008 552.1839,-423.4603 539.219,-401.5532 564,-383.4008 566.5529,-381.5307 569.229,-379.7995 571.9996,-378.1967"/>
<polygon fill="#191970" stroke="#191970" points="573.8396,-381.1863 581.1345,-373.5029 570.6403,-374.9602 573.8396,-381.1863"/>
</g>
<!-- Node181&#45;&gt;Node172 -->
<g id="edge39" class="edge">
<title>Node181&#45;&gt;Node172</title>
<path fill="none" stroke="#191970" d="M528.197,-471.2606C592.684,-476.6828 687.0974,-487.7191 767,-509.4008 801.1384,-518.6643 838.069,-534.3889 864.9752,-546.9786"/>
<polygon fill="#191970" stroke="#191970" points="863.5181,-550.1612 874.0532,-551.2852 866.5185,-543.8368 863.5181,-550.1612"/>
</g>
<!-- Node181&#45;&gt;Node178 -->
<g id="edge40" class="edge">
<title>Node181&#45;&gt;Node178</title>
<path fill="none" stroke="#191970" d="M528.1742,-459.2651C544.6366,-457.7229 562.1586,-456.0815 578.9844,-454.5053"/>
<polygon fill="#191970" stroke="#191970" points="579.7253,-457.9513 589.3552,-453.5338 579.0723,-450.9818 579.7253,-457.9513"/>
</g>
<!-- Node182&#45;&gt;Node164 -->
<g id="edge43" class="edge">
<title>Node182&#45;&gt;Node164</title>
<path fill="none" stroke="#191970" d="M517.508,-304.3662C540.4605,-299.0984 566.4188,-293.1407 590.1145,-287.7024"/>
<polygon fill="#191970" stroke="#191970" points="591.1523,-291.0553 600.1159,-285.407 589.5864,-284.2327 591.1523,-291.0553"/>
</g>
<!-- Node182&#45;&gt;Node167 -->
<g id="edge42" class="edge">
<title>Node182&#45;&gt;Node167</title>
<path fill="none" stroke="#191970" d="M528.1742,-317.6169C545.2925,-317.216 563.5564,-316.7882 580.9919,-316.3799"/>
<polygon fill="#191970" stroke="#191970" points="581.2318,-319.8754 591.1471,-316.1421 581.0678,-312.8773 581.2318,-319.8754"/>
</g>
<!-- Node182&#45;&gt;Node169 -->
<g id="edge44" class="edge">
<title>Node182&#45;&gt;Node169</title>
<path fill="none" stroke="#191970" d="M508.6915,-334.4474C515.4418,-337.2712 522.0421,-340.5687 528,-344.4008 547.8394,-357.1617 543.3579,-371.9838 564,-383.4008 568.036,-385.6331 572.2858,-387.6086 576.6658,-389.3563"/>
<polygon fill="#191970" stroke="#191970" points="575.835,-392.7756 586.4297,-392.8301 578.1814,-386.1806 575.835,-392.7756"/>
</g>
<!-- Node182&#45;&gt;Node170 -->
<g id="edge45" class="edge">
<title>Node182&#45;&gt;Node170</title>
<path fill="none" stroke="#191970" d="M528.1742,-333.3155C542.8113,-335.9893 558.2861,-338.8161 573.3643,-341.5704"/>
<polygon fill="#191970" stroke="#191970" points="572.7367,-345.0136 583.2029,-343.3676 573.9946,-338.1275 572.7367,-345.0136"/>
</g>
<!-- Node182&#45;&gt;Node178 -->
<g id="edge46" class="edge">
<title>Node182&#45;&gt;Node178</title>
<path fill="none" stroke="#191970" d="M513.3854,-334.4871C518.658,-337.2555 523.6358,-340.5295 528,-344.4008 556.2609,-369.4704 534.8035,-397.4274 564,-421.4008 568.8783,-425.4064 574.3047,-428.7851 580.0401,-431.6332"/>
<polygon fill="#191970" stroke="#191970" points="578.7095,-434.8715 589.2729,-435.686 581.5231,-428.4618 578.7095,-434.8715"/>
</g>
<!-- Node183&#45;&gt;Node164 -->
<g id="edge49" class="edge">
<title>Node183&#45;&gt;Node164</title>
<path fill="none" stroke="#191970" d="M528.1742,-270.4008C544.6366,-270.4008 562.1586,-270.4008 578.9844,-270.4008"/>
<polygon fill="#191970" stroke="#191970" points="579.3552,-273.9009 589.3552,-270.4008 579.3552,-266.9009 579.3552,-273.9009"/>
</g>
<!-- Node183&#45;&gt;Node167 -->
<g id="edge48" class="edge">
<title>Node183&#45;&gt;Node167</title>
<path fill="none" stroke="#191970" d="M517.6562,-285.4546C532.8521,-288.828 548.9723,-292.318 564,-295.4008 576.4717,-297.9592 589.8347,-300.5603 602.6349,-302.9836"/>
<polygon fill="#191970" stroke="#191970" points="602.2775,-306.4776 612.7519,-304.8846 603.5702,-299.598 602.2775,-306.4776"/>
</g>
</g>
</svg>
        <g id="navigator" transform="translate(0 0)" fill="#404254">
                <rect fill="#f2f5e9" fill-opacity="0.5" stroke="#606060" stroke-width=".5" x="0" y="0" width="60" height="60"/>
                <use id="zoomplus" xlink:href="#zoomPlus" x="17" y="9" onmousedown="handleZoom(evt,'in')"/>
                <use id="zoomminus" xlink:href="#zoomMin" x="42" y="9" onmousedown="handleZoom(evt,'out')"/>
                <use id="reset" xlink:href="#resetDef" x="30" y="36" onmousedown="handleReset()"/>
                <g id="arrowUp" xlink:href="#dirArrow" transform="translate(30 24)" onmousedown="handlePan(0,-1)">
                  <use xlink:href="#rim" fill="#404040">
                        <set attributeName="fill" to="#808080" begin="arrowUp.mouseover" end="arrowUp.mouseout"/>
                  </use>
                  <path fill="none" stroke="white" stroke-width="1.5" d="M0,-3.0v7 M-2.5,-0.5L0,-3.0L2.5,-0.5"/>
                </g>
                <g id="arrowRight" xlink:href="#dirArrow" transform="rotate(90) translate(36 -43)" onmousedown="handlePan(1,0)">
                  <use xlink:href="#rim" fill="#404040">
                        <set attributeName="fill" to="#808080" begin="arrowRight.mouseover" end="arrowRight.mouseout"/>
                  </use>
                  <path fill="none" stroke="white" stroke-width="1.5" d="M0,-3.0v7 M-2.5,-0.5L0,-3.0L2.5,-0.5"/>
                </g>
                <g id="arrowDown" xlink:href="#dirArrow" transform="rotate(180) translate(-30 -48)" onmousedown="handlePan(0,1)">
                  <use xlink:href="#rim" fill="#404040">
                        <set attributeName="fill" to="#808080" begin="arrowDown.mouseover" end="arrowDown.mouseout"/>
                  </use>
                  <path fill="none" stroke="white" stroke-width="1.5" d="M0,-3.0v7 M-2.5,-0.5L0,-3.0L2.5,-0.5"/>
                </g>
                <g id="arrowLeft" xlink:href="#dirArrow" transform="rotate(270) translate(-36 17)" onmousedown="handlePan(-1,0)">
                  <use xlink:href="#rim" fill="#404040">
                        <set attributeName="fill" to="#808080" begin="arrowLeft.mouseover" end="arrowLeft.mouseout"/>
                  </use>
                  <path fill="none" stroke="white" stroke-width="1.5" d="M0,-3.0v7 M-2.5,-0.5L0,-3.0L2.5,-0.5"/>
                </g>
        </g>
        <svg viewBox="0 0 15 15" width="100%" height="30px" preserveAspectRatio="xMaxYMin meet">
         <g id="arrow_out" transform="scale(0.3 0.3)">
          <a xlink:href="class_chimera_t_k_1_1_variable_mapper_a93880cfd989d343216b5869bb59f5450_cgraph_org.svg" target="_base">
           <rect id="button" ry="5" rx="5" y="6" x="6" height="38" width="38"
                fill="#f2f5e9" fill-opacity="0.5" stroke="#606060" stroke-width="1.0"/>
           <path id="arrow"
             d="M 11.500037,31.436501 C 11.940474,20.09759 22.043105,11.32322 32.158766,21.979434 L 37.068811,17.246167 C 37.068811,17.246167 37.088388,32 37.088388,32 L 22.160133,31.978069 C 22.160133,31.978069 26.997745,27.140456 26.997745,27.140456 C 18.528582,18.264221 13.291696,25.230495 11.500037,31.436501 z"
             style="fill:#404040;"/>
          </a>
         </g>
        </svg>
</svg>
