<?xml version="1.0" encoding="UTF-8" standalone="no"?>
<!DOCTYPE svg PUBLIC "-//W3C//DTD SVG 1.1//EN"
 "http://www.w3.org/Graphics/SVG/1.1/DTD/svg11.dtd">
<!-- Generated by graphviz version 2.40.1 (20161225.0304)
 -->
<!-- Title: ChimeraTK::DoocsProcessArray::updateDoocsBuffer Pages: 1 -->
<!--zoomable 211 -->
<svg id="main" version="1.1" xmlns="http://www.w3.org/2000/svg" xmlns:xlink="http://www.w3.org/1999/xlink" xml:space="preserve" onload="init(evt)">
<style type="text/css"><![CDATA[
.edge:hover path { stroke: red; }
.edge:hover polygon { stroke: red; fill: red; }
]]></style>
<script type="text/javascript"><![CDATA[
var edges = document.getElementsByTagName('g');
if (edges && edges.length) {
  for (var i=0;i<edges.length;i++) {
    if (edges[i].id.substr(0,4)=='edge') {
      edges[i].setAttribute('class','edge');
    }
  }
}
]]></script>
        <defs>
                <circle id="rim" cx="0" cy="0" r="7"/>
                <circle id="rim2" cx="0" cy="0" r="3.5"/>
                <g id="zoomPlus">
                        <use xlink:href="#rim" fill="#404040">
                                <set attributeName="fill" to="#808080" begin="zoomplus.mouseover" end="zoomplus.mouseout"/>
                        </use>
                        <path d="M-4,0h8M0,-4v8" fill="none" stroke="white" stroke-width="1.5" pointer-events="none"/>
                </g>
                <g id="zoomMin">
                        <use xlink:href="#rim" fill="#404040">
                                <set attributeName="fill" to="#808080" begin="zoomminus.mouseover" end="zoomminus.mouseout"/>
                        </use>
                        <path d="M-4,0h8" fill="none" stroke="white" stroke-width="1.5" pointer-events="none"/>
                </g>
                <g id="dirArrow">
                        <path fill="none" stroke="white" stroke-width="1.5" d="M0,-3.0v7 M-2.5,-0.5L0,-3.0L2.5,-0.5"/>
                </g>
               <g id="resetDef">
                       <use xlink:href="#rim2" fill="#404040">
                               <set attributeName="fill" to="#808080" begin="reset.mouseover" end="reset.mouseout"/>
                       </use>
               </g>
        </defs>

<script type="text/javascript">
var viewWidth = 728;
var viewHeight = 211;
var sectionId = 'dynsection-7';
</script>
<script xlink:href="svgpan.js"/>
<svg id="graph" class="graph">
<g id="viewport">
<title>ChimeraTK::DoocsProcessArray::updateDoocsBuffer</title>
<polygon fill="#ffffff" stroke="transparent" points="-4,4 -4,-207 724,-207 724,4 -4,4"/>
<!-- Node33 -->
<g id="node1" class="node">
<title>Node33</title>
<polygon fill="#bfbfbf" stroke="#000000" points="0,-66.5 0,-96.5 170,-96.5 170,-66.5 0,-66.5"/>
<text text-anchor="start" x="8" y="-84.5" font-family="Helvetica,sans-Serif" font-size="10.00" fill="#000000">ChimeraTK::DoocsProcessArray</text>
<text text-anchor="middle" x="85" y="-73.5" font-family="Helvetica,sans-Serif" font-size="10.00" fill="#000000">::updateDoocsBuffer</text>
</g>
<!-- Node34 -->
<g id="node2" class="node">
<title>Node34</title>
<g id="a_node2"><a xlink:href="class_chimera_t_k_1_1_property_base.html#a748011619da365007e5f1ffaca82b29f" target="_top" xlink:title="update for data consistency group ">
<polygon fill="#ffffff" stroke="#000000" points="206,-123.5 206,-153.5 348,-153.5 348,-123.5 206,-123.5"/>
<text text-anchor="start" x="214" y="-141.5" font-family="Helvetica,sans-Serif" font-size="10.00" fill="#000000">ChimeraTK::PropertyBase</text>
<text text-anchor="middle" x="277" y="-130.5" font-family="Helvetica,sans-Serif" font-size="10.00" fill="#000000">::updateConsistency</text>
</a>
</g>
</g>
<!-- Node33&#45;&gt;Node34 -->
<g id="edge1" class="edge">
<title>Node33&#45;&gt;Node34</title>
<path fill="none" stroke="#191970" d="M135.6969,-96.5506C160.5229,-103.9209 190.5936,-112.8481 216.6023,-120.5694"/>
<polygon fill="#191970" stroke="#191970" points="215.7696,-123.9731 226.3522,-123.4639 217.7618,-117.2626 215.7696,-123.9731"/>
</g>
<!-- Node38 -->
<g id="node6" class="node">
<title>Node38</title>
<g id="a_node6"><a xlink:href="class_chimera_t_k_1_1_property_base.html#aa910037ad5a10c8047c7aa9a071bec0d" target="_top" xlink:title="implements timestamp workarounds for associated DOOCS property ">
<polygon fill="#ffffff" stroke="#000000" points="206,-66.5 206,-96.5 348,-96.5 348,-66.5 206,-66.5"/>
<text text-anchor="start" x="214" y="-84.5" font-family="Helvetica,sans-Serif" font-size="10.00" fill="#000000">ChimeraTK::PropertyBase</text>
<text text-anchor="middle" x="277" y="-73.5" font-family="Helvetica,sans-Serif" font-size="10.00" fill="#000000">::correctDoocsTimestamp</text>
</a>
</g>
</g>
<!-- Node33&#45;&gt;Node38 -->
<g id="edge5" class="edge">
<title>Node33&#45;&gt;Node38</title>
<path fill="none" stroke="#191970" d="M170.0525,-81.5C178.5385,-81.5 187.1401,-81.5 195.5875,-81.5"/>
<polygon fill="#191970" stroke="#191970" points="195.7967,-85.0001 205.7967,-81.5 195.7967,-78.0001 195.7967,-85.0001"/>
</g>
<!-- Node40 -->
<g id="node8" class="node">
<title>Node40</title>
<g id="a_node8"><a xlink:href="class_chimera_t_k_1_1_property_base.html#adc83cf086f9caac0f5612795eb68a3f9" target="_top" xlink:title="send data via ZeroMQ if enabled and if DOOCS initialisation is complete ">
<polygon fill="#ffffff" stroke="#000000" points="206,-.5 206,-30.5 348,-30.5 348,-.5 206,-.5"/>
<text text-anchor="start" x="214" y="-18.5" font-family="Helvetica,sans-Serif" font-size="10.00" fill="#000000">ChimeraTK::PropertyBase</text>
<text text-anchor="middle" x="277" y="-7.5" font-family="Helvetica,sans-Serif" font-size="10.00" fill="#000000">::sendZMQ</text>
</a>
</g>
</g>
<!-- Node33&#45;&gt;Node40 -->
<g id="edge8" class="edge">
<title>Node33&#45;&gt;Node40</title>
<path fill="none" stroke="#191970" d="M129.0487,-66.3583C157.0988,-56.716 193.6169,-44.163 223.3536,-33.9409"/>
<polygon fill="#191970" stroke="#191970" points="224.8372,-37.132 233.1563,-30.5713 222.5616,-30.5122 224.8372,-37.132"/>
</g>
<!-- Node35 -->
<g id="node3" class="node">
<title>Node35</title>
<g id="a_node3"><a xlink:href="class_chimera_t_k_1_1_doocs_adapter.html#a516cb7cb2ede3eecdde51eba83bfc03f" target="_top" xlink:title="ChimeraTK::DoocsAdapter\l::checkPrintDataLossWarning">
<polygon fill="#ffffff" stroke="#000000" points="384,-172.5 384,-202.5 542,-202.5 542,-172.5 384,-172.5"/>
<text text-anchor="start" x="392" y="-190.5" font-family="Helvetica,sans-Serif" font-size="10.00" fill="#000000">ChimeraTK::DoocsAdapter</text>
<text text-anchor="middle" x="463" y="-179.5" font-family="Helvetica,sans-Serif" font-size="10.00" fill="#000000">::checkPrintDataLossWarning</text>
</a>
</g>
</g>
<!-- Node34&#45;&gt;Node35 -->
<g id="edge2" class="edge">
<title>Node34&#45;&gt;Node35</title>
<path fill="none" stroke="#191970" d="M334.0702,-153.5346C353.7092,-158.7083 375.8742,-164.5475 396.2168,-169.9066"/>
<polygon fill="#191970" stroke="#191970" points="395.476,-173.3308 406.0377,-172.4938 397.2593,-166.5617 395.476,-173.3308"/>
</g>
<!-- Node36 -->
<g id="node4" class="node">
<title>Node36</title>
<g id="a_node4"><a xlink:href="class_chimera_t_k_1_1_property_base.html#a5b600b005b3170eb235541f7e10c6a63" target="_top" xlink:title="returns associated DOOCS location ">
<polygon fill="#ffffff" stroke="#000000" points="392,-123.5 392,-153.5 534,-153.5 534,-123.5 392,-123.5"/>
<text text-anchor="start" x="400" y="-141.5" font-family="Helvetica,sans-Serif" font-size="10.00" fill="#000000">ChimeraTK::PropertyBase</text>
<text text-anchor="middle" x="463" y="-130.5" font-family="Helvetica,sans-Serif" font-size="10.00" fill="#000000">::getEqFct</text>
</a>
</g>
</g>
<!-- Node34&#45;&gt;Node36 -->
<g id="edge3" class="edge">
<title>Node34&#45;&gt;Node36</title>
<path fill="none" stroke="#191970" d="M348.1148,-138.5C359.1075,-138.5 370.5327,-138.5 381.7275,-138.5"/>
<polygon fill="#191970" stroke="#191970" points="381.9247,-142.0001 391.9246,-138.5 381.9246,-135.0001 381.9247,-142.0001"/>
</g>
<!-- Node37 -->
<g id="node5" class="node">
<title>Node37</title>
<g id="a_node5"><a xlink:href="class_chimera_t_k_1_1_property_base.html#ab34ae123a011159bba8c74d7792f5d4c" target="_top" xlink:title="returns associated DOOCS property. Not null. ">
<polygon fill="#ffffff" stroke="#000000" points="578,-79.5 578,-109.5 720,-109.5 720,-79.5 578,-79.5"/>
<text text-anchor="start" x="586" y="-97.5" font-family="Helvetica,sans-Serif" font-size="10.00" fill="#000000">ChimeraTK::PropertyBase</text>
<text text-anchor="middle" x="649" y="-86.5" font-family="Helvetica,sans-Serif" font-size="10.00" fill="#000000">::getDfct</text>
</a>
</g>
</g>
<!-- Node36&#45;&gt;Node37 -->
<g id="edge4" class="edge">
<title>Node36&#45;&gt;Node37</title>
<path fill="none" stroke="#191970" d="M526.4904,-123.4808C542.2649,-119.7492 559.303,-115.7186 575.5129,-111.884"/>
<polygon fill="#191970" stroke="#191970" points="576.5545,-115.2343 585.4801,-109.5262 574.943,-108.4223 576.5545,-115.2343"/>
</g>
<!-- Node38&#45;&gt;Node37 -->
<g id="edge7" class="edge">
<title>Node38&#45;&gt;Node37</title>
<path fill="none" stroke="#191970" d="M348.2852,-83.9911C410.9654,-86.1816 502.1606,-89.3685 567.6708,-91.6579"/>
<polygon fill="#191970" stroke="#191970" points="567.8398,-95.1658 577.956,-92.0173 568.0844,-88.1701 567.8398,-95.1658"/>
</g>
<!-- Node39 -->
<g id="node7" class="node">
<title>Node39</title>
<g id="a_node7"><a xlink:href="class_chimera_t_k_1_1_property_base.html#a99d914cc5fdbeaf9f2fa31d219686c17" target="_top" xlink:title="default implementation returns timestamp of _outputVarForVersionNum ">
<polygon fill="#ffffff" stroke="#000000" points="392,-35.5 392,-65.5 534,-65.5 534,-35.5 392,-35.5"/>
<text text-anchor="start" x="400" y="-53.5" font-family="Helvetica,sans-Serif" font-size="10.00" fill="#000000">ChimeraTK::PropertyBase</text>
<text text-anchor="middle" x="463" y="-42.5" font-family="Helvetica,sans-Serif" font-size="10.00" fill="#000000">::getTimestamp</text>
</a>
</g>
</g>
<!-- Node38&#45;&gt;Node39 -->
<g id="edge6" class="edge">
<title>Node38&#45;&gt;Node39</title>
<path fill="none" stroke="#191970" d="M348.1148,-69.6475C359.1075,-67.8154 370.5327,-65.9112 381.7275,-64.0454"/>
<polygon fill="#191970" stroke="#191970" points="382.6361,-67.4423 391.9246,-62.3459 381.4853,-60.5376 382.6361,-67.4423"/>
</g>
<!-- Node40&#45;&gt;Node37 -->
<g id="edge9" class="edge">
<title>Node40&#45;&gt;Node37</title>
<path fill="none" stroke="#191970" d="M348.1934,-8.1438C402.56,-4.9006 478.6576,-5.5419 542,-25.5 572.9439,-35.2499 603.5785,-56.5019 624.0863,-72.8615"/>
<polygon fill="#191970" stroke="#191970" points="622.004,-75.68 631.9605,-79.302 626.4358,-70.2616 622.004,-75.68"/>
</g>
</g>
</svg>
        <g id="navigator" transform="translate(0 0)" fill="#404254">
                <rect fill="#f2f5e9" fill-opacity="0.5" stroke="#606060" stroke-width=".5" x="0" y="0" width="60" height="60"/>
                <use id="zoomplus" xlink:href="#zoomPlus" x="17" y="9" onmousedown="handleZoom(evt,'in')"/>
                <use id="zoomminus" xlink:href="#zoomMin" x="42" y="9" onmousedown="handleZoom(evt,'out')"/>
                <use id="reset" xlink:href="#resetDef" x="30" y="36" onmousedown="handleReset()"/>
                <g id="arrowUp" xlink:href="#dirArrow" transform="translate(30 24)" onmousedown="handlePan(0,-1)">
                  <use xlink:href="#rim" fill="#404040">
                        <set attributeName="fill" to="#808080" begin="arrowUp.mouseover" end="arrowUp.mouseout"/>
                  </use>
                  <path fill="none" stroke="white" stroke-width="1.5" d="M0,-3.0v7 M-2.5,-0.5L0,-3.0L2.5,-0.5"/>
                </g>
                <g id="arrowRight" xlink:href="#dirArrow" transform="rotate(90) translate(36 -43)" onmousedown="handlePan(1,0)">
                  <use xlink:href="#rim" fill="#404040">
                        <set attributeName="fill" to="#808080" begin="arrowRight.mouseover" end="arrowRight.mouseout"/>
                  </use>
                  <path fill="none" stroke="white" stroke-width="1.5" d="M0,-3.0v7 M-2.5,-0.5L0,-3.0L2.5,-0.5"/>
                </g>
                <g id="arrowDown" xlink:href="#dirArrow" transform="rotate(180) translate(-30 -48)" onmousedown="handlePan(0,1)">
                  <use xlink:href="#rim" fill="#404040">
                        <set attributeName="fill" to="#808080" begin="arrowDown.mouseover" end="arrowDown.mouseout"/>
                  </use>
                  <path fill="none" stroke="white" stroke-width="1.5" d="M0,-3.0v7 M-2.5,-0.5L0,-3.0L2.5,-0.5"/>
                </g>
                <g id="arrowLeft" xlink:href="#dirArrow" transform="rotate(270) translate(-36 17)" onmousedown="handlePan(-1,0)">
                  <use xlink:href="#rim" fill="#404040">
                        <set attributeName="fill" to="#808080" begin="arrowLeft.mouseover" end="arrowLeft.mouseout"/>
                  </use>
                  <path fill="none" stroke="white" stroke-width="1.5" d="M0,-3.0v7 M-2.5,-0.5L0,-3.0L2.5,-0.5"/>
                </g>
        </g>
        <svg viewBox="0 0 15 15" width="100%" height="30px" preserveAspectRatio="xMaxYMin meet">
         <g id="arrow_out" transform="scale(0.3 0.3)">
          <a xlink:href="class_chimera_t_k_1_1_doocs_process_array_a1a00f722520ce3048f82e37c3d5d1d78_cgraph_org.svg" target="_base">
           <rect id="button" ry="5" rx="5" y="6" x="6" height="38" width="38"
                fill="#f2f5e9" fill-opacity="0.5" stroke="#606060" stroke-width="1.0"/>
           <path id="arrow"
             d="M 11.500037,31.436501 C 11.940474,20.09759 22.043105,11.32322 32.158766,21.979434 L 37.068811,17.246167 C 37.068811,17.246167 37.088388,32 37.088388,32 L 22.160133,31.978069 C 22.160133,31.978069 26.997745,27.140456 26.997745,27.140456 C 18.528582,18.264221 13.291696,25.230495 11.500037,31.436501 z"
             style="fill:#404040;"/>
          </a>
         </g>
        </svg>
</svg>
