<?xml version="1.0" encoding="UTF-8" standalone="no"?>
<!DOCTYPE svg PUBLIC "-//W3C//DTD SVG 1.1//EN"
 "http://www.w3.org/Graphics/SVG/1.1/DTD/svg11.dtd">
<!-- Generated by graphviz version 2.40.1 (20161225.0304)
 -->
<!-- Title: device_backends/src/DummyBackend.cc Pages: 1 -->
<svg width="1034pt" height="151pt"
 viewBox="0.00 0.00 1033.50 151.00" xmlns="http://www.w3.org/2000/svg" xmlns:xlink="http://www.w3.org/1999/xlink">
<g id="graph0" class="graph" transform="scale(1 1) rotate(0) translate(4 147)">
<title>device_backends/src/DummyBackend.cc</title>
<polygon fill="#ffffff" stroke="transparent" points="-4,4 -4,-147 1029.5,-147 1029.5,4 -4,4"/>
<!-- Node0 -->
<g id="node1" class="node">
<title>Node0</title>
<polygon fill="#bfbfbf" stroke="#000000" points="432,-112.5 432,-142.5 550,-142.5 550,-112.5 432,-112.5"/>
<text text-anchor="start" x="440" y="-130.5" font-family="Helvetica,sans-Serif" font-size="10.00" fill="#000000">device_backends/src</text>
<text text-anchor="middle" x="491" y="-119.5" font-family="Helvetica,sans-Serif" font-size="10.00" fill="#000000">/DummyBackend.cc</text>
</g>
<!-- Node1 -->
<g id="node2" class="node">
<title>Node1</title>
<polygon fill="#ffffff" stroke="#bfbfbf" points="0,-56.5 0,-75.5 64,-75.5 64,-56.5 0,-56.5"/>
<text text-anchor="middle" x="32" y="-63.5" font-family="Helvetica,sans-Serif" font-size="10.00" fill="#000000">algorithm</text>
</g>
<!-- Node0&#45;&gt;Node1 -->
<g id="edge1" class="edge">
<title>Node0&#45;&gt;Node1</title>
<path fill="none" stroke="#191970" d="M431.8305,-122.4028C352.5253,-115.0852 207.2593,-99.9808 74.124,-76.0323"/>
<polygon fill="#191970" stroke="#191970" points="74.6179,-72.5647 64.1528,-74.2177 73.3646,-79.4516 74.6179,-72.5647"/>
</g>
<!-- Node2 -->
<g id="node3" class="node">
<title>Node2</title>
<polygon fill="#ffffff" stroke="#bfbfbf" points="82,-56.5 82,-75.5 226,-75.5 226,-56.5 82,-56.5"/>
<text text-anchor="middle" x="154" y="-63.5" font-family="Helvetica,sans-Serif" font-size="10.00" fill="#000000">boost/lambda/lambda.hpp</text>
</g>
<!-- Node0&#45;&gt;Node2 -->
<g id="edge2" class="edge">
<title>Node0&#45;&gt;Node2</title>
<path fill="none" stroke="#191970" d="M431.9134,-116.7171C371.3845,-105.6711 277.6693,-88.5687 216.075,-77.3282"/>
<polygon fill="#191970" stroke="#191970" points="216.5639,-73.8597 206.098,-75.5075 215.3072,-80.746 216.5639,-73.8597"/>
</g>
<!-- Node3 -->
<g id="node4" class="node">
<title>Node3</title>
<polygon fill="#ffffff" stroke="#bfbfbf" points="244,-56.5 244,-75.5 300,-75.5 300,-56.5 244,-56.5"/>
<text text-anchor="middle" x="272" y="-63.5" font-family="Helvetica,sans-Serif" font-size="10.00" fill="#000000">sstream</text>
</g>
<!-- Node0&#45;&gt;Node3 -->
<g id="edge3" class="edge">
<title>Node0&#45;&gt;Node3</title>
<path fill="none" stroke="#191970" d="M437.4266,-112.4554C398.01,-101.3864 345.3771,-86.6059 310.1666,-76.718"/>
<polygon fill="#191970" stroke="#191970" points="310.8521,-73.2752 300.2782,-73.9411 308.9595,-80.0145 310.8521,-73.2752"/>
</g>
<!-- Node4 -->
<g id="node5" class="node">
<title>Node4</title>
<polygon fill="#ffffff" stroke="#bfbfbf" points="318.5,-56.5 318.5,-75.5 419.5,-75.5 419.5,-56.5 318.5,-56.5"/>
<text text-anchor="middle" x="369" y="-63.5" font-family="Helvetica,sans-Serif" font-size="10.00" fill="#000000">BackendFactory.h</text>
</g>
<!-- Node0&#45;&gt;Node4 -->
<g id="edge4" class="edge">
<title>Node0&#45;&gt;Node4</title>
<path fill="none" stroke="#191970" d="M461.1554,-112.4554C441.603,-102.599 416.2128,-89.7999 397.0355,-80.1327"/>
<polygon fill="#191970" stroke="#191970" points="398.4108,-76.9064 387.9057,-75.5303 395.2598,-83.1571 398.4108,-76.9064"/>
</g>
<!-- Node5 -->
<g id="node6" class="node">
<title>Node5</title>
<polygon fill="#ffffff" stroke="#bfbfbf" points="437.5,-56.5 437.5,-75.5 544.5,-75.5 544.5,-56.5 437.5,-56.5"/>
<text text-anchor="middle" x="491" y="-63.5" font-family="Helvetica,sans-Serif" font-size="10.00" fill="#000000">DummyBackend.h</text>
</g>
<!-- Node0&#45;&gt;Node5 -->
<g id="edge5" class="edge">
<title>Node0&#45;&gt;Node5</title>
<path fill="none" stroke="#191970" d="M491,-112.2977C491,-104.3834 491,-94.6043 491,-86.0759"/>
<polygon fill="#191970" stroke="#191970" points="494.5001,-85.8469 491,-75.8469 487.5001,-85.847 494.5001,-85.8469"/>
</g>
<!-- Node6 -->
<g id="node7" class="node">
<title>Node6</title>
<polygon fill="#ffffff" stroke="#bfbfbf" points="563,-56.5 563,-75.5 637,-75.5 637,-56.5 563,-56.5"/>
<text text-anchor="middle" x="600" y="-63.5" font-family="Helvetica,sans-Serif" font-size="10.00" fill="#000000">Exception.h</text>
</g>
<!-- Node0&#45;&gt;Node6 -->
<g id="edge6" class="edge">
<title>Node0&#45;&gt;Node6</title>
<path fill="none" stroke="#191970" d="M517.6644,-112.4554C534.8941,-102.734 557.1975,-90.15 574.2446,-80.5317"/>
<polygon fill="#191970" stroke="#191970" points="576.1194,-83.4926 583.1089,-75.5303 572.6796,-77.3961 576.1194,-83.4926"/>
</g>
<!-- Node7 -->
<g id="node8" class="node">
<title>Node7</title>
<polygon fill="#ffffff" stroke="#bfbfbf" points="655,-56.5 655,-75.5 747,-75.5 747,-56.5 655,-56.5"/>
<text text-anchor="middle" x="701" y="-63.5" font-family="Helvetica,sans-Serif" font-size="10.00" fill="#000000">MapFileParser.h</text>
</g>
<!-- Node0&#45;&gt;Node7 -->
<g id="edge7" class="edge">
<title>Node0&#45;&gt;Node7</title>
<path fill="none" stroke="#191970" d="M542.3718,-112.4554C578.0255,-102.0139 624.9561,-88.27 658.5032,-78.4455"/>
<polygon fill="#191970" stroke="#191970" points="659.8442,-81.6998 668.4575,-75.5303 657.8768,-74.982 659.8442,-81.6998"/>
</g>
<!-- Node8 -->
<g id="node9" class="node">
<title>Node8</title>
<g id="a_node9"><a xlink:href="parser_utilities_8h.html" target="_top" xlink:title="parserUtilities.h">
<polygon fill="#ffffff" stroke="#000000" points="765.5,-56.5 765.5,-75.5 860.5,-75.5 860.5,-56.5 765.5,-56.5"/>
<text text-anchor="middle" x="813" y="-63.5" font-family="Helvetica,sans-Serif" font-size="10.00" fill="#000000">parserUtilities.h</text>
</a>
</g>
</g>
<!-- Node0&#45;&gt;Node8 -->
<g id="edge8" class="edge">
<title>Node0&#45;&gt;Node8</title>
<path fill="none" stroke="#191970" d="M550.0598,-116.22C608.465,-105.0649 697.275,-88.1028 755.2282,-77.0341"/>
<polygon fill="#191970" stroke="#191970" points="756.1541,-80.4206 765.32,-75.1066 754.8409,-73.5448 756.1541,-80.4206"/>
</g>
<!-- Node10 -->
<g id="node11" class="node">
<title>Node10</title>
<polygon fill="#ffffff" stroke="#bfbfbf" points="878.5,-56.5 878.5,-75.5 1025.5,-75.5 1025.5,-56.5 878.5,-56.5"/>
<text text-anchor="middle" x="952" y="-63.5" font-family="Helvetica,sans-Serif" font-size="10.00" fill="#000000">DummyRegisterAccessor.h</text>
</g>
<!-- Node0&#45;&gt;Node10 -->
<g id="edge10" class="edge">
<title>Node0&#45;&gt;Node10</title>
<path fill="none" stroke="#191970" d="M550.3239,-119.5859C631.776,-108.7197 778.5599,-89.1379 870.3389,-76.8941"/>
<polygon fill="#191970" stroke="#191970" points="870.9729,-80.3406 880.4223,-75.5489 870.0472,-73.402 870.9729,-80.3406"/>
</g>
<!-- Node9 -->
<g id="node10" class="node">
<title>Node9</title>
<polygon fill="#ffffff" stroke="#bfbfbf" points="791,-.5 791,-19.5 835,-19.5 835,-.5 791,-.5"/>
<text text-anchor="middle" x="813" y="-7.5" font-family="Helvetica,sans-Serif" font-size="10.00" fill="#000000">string</text>
</g>
<!-- Node8&#45;&gt;Node9 -->
<g id="edge9" class="edge">
<title>Node8&#45;&gt;Node9</title>
<path fill="none" stroke="#191970" d="M813,-56.2455C813,-48.9382 813,-38.6944 813,-29.7046"/>
<polygon fill="#191970" stroke="#191970" points="816.5001,-29.6426 813,-19.6427 809.5001,-29.6427 816.5001,-29.6426"/>
</g>
</g>
</svg>
