<?xml version="1.0" encoding="UTF-8" standalone="no"?>
<!DOCTYPE svg PUBLIC "-//W3C//DTD SVG 1.1//EN"
 "http://www.w3.org/Graphics/SVG/1.1/DTD/svg11.dtd">
<!-- Generated by graphviz version 2.40.1 (20161225.0304)
 -->
<!-- Title: ChimeraTK::LNMBackend::MultiplierPluginDecorator&lt; UserType &gt; Pages: 1 -->
<!--zoomable 176 -->
<svg id="main" version="1.1" xmlns="http://www.w3.org/2000/svg" xmlns:xlink="http://www.w3.org/1999/xlink" xml:space="preserve" onload="init(evt)">
<style type="text/css"><![CDATA[
.edge:hover path { stroke: red; }
.edge:hover polygon { stroke: red; fill: red; }
]]></style>
<script type="text/javascript"><![CDATA[
var edges = document.getElementsByTagName('g');
if (edges && edges.length) {
  for (var i=0;i<edges.length;i++) {
    if (edges[i].id.substr(0,4)=='edge') {
      edges[i].setAttribute('class','edge');
    }
  }
}
]]></script>
        <defs>
                <circle id="rim" cx="0" cy="0" r="7"/>
                <circle id="rim2" cx="0" cy="0" r="3.5"/>
                <g id="zoomPlus">
                        <use xlink:href="#rim" fill="#404040">
                                <set attributeName="fill" to="#808080" begin="zoomplus.mouseover" end="zoomplus.mouseout"/>
                        </use>
                        <path d="M-4,0h8M0,-4v8" fill="none" stroke="white" stroke-width="1.5" pointer-events="none"/>
                </g>
                <g id="zoomMin">
                        <use xlink:href="#rim" fill="#404040">
                                <set attributeName="fill" to="#808080" begin="zoomminus.mouseover" end="zoomminus.mouseout"/>
                        </use>
                        <path d="M-4,0h8" fill="none" stroke="white" stroke-width="1.5" pointer-events="none"/>
                </g>
                <g id="dirArrow">
                        <path fill="none" stroke="white" stroke-width="1.5" d="M0,-3.0v7 M-2.5,-0.5L0,-3.0L2.5,-0.5"/>
                </g>
               <g id="resetDef">
                       <use xlink:href="#rim2" fill="#404040">
                               <set attributeName="fill" to="#808080" begin="reset.mouseover" end="reset.mouseout"/>
                       </use>
               </g>
        </defs>

<script type="text/javascript">
var viewWidth = 2090;
var viewHeight = 176;
var sectionId = 'dynsection-1';
</script>
<script xlink:href="svgpan.js"/>
<svg id="graph" class="graph">
<g id="viewport">
<title>ChimeraTK::LNMBackend::MultiplierPluginDecorator&lt; UserType &gt;</title>
<polygon fill="#ffffff" stroke="transparent" points="-4,4 -4,-171.5 2086,-171.5 2086,4 -4,4"/>
<!-- Node8 -->
<g id="node1" class="node">
<title>Node8</title>
<polygon fill="#bfbfbf" stroke="#000000" points="1936,-33.5 1936,-74.5 2082,-74.5 2082,-33.5 1936,-33.5"/>
<text text-anchor="start" x="1944" y="-62.5" font-family="Helvetica,sans-Serif" font-size="10.00" fill="#000000">ChimeraTK::LNMBackend</text>
<text text-anchor="start" x="1944" y="-51.5" font-family="Helvetica,sans-Serif" font-size="10.00" fill="#000000">::MultiplierPluginDecorator</text>
<text text-anchor="middle" x="2009" y="-40.5" font-family="Helvetica,sans-Serif" font-size="10.00" fill="#000000">&lt; UserType &gt;</text>
</g>
<!-- Node9 -->
<g id="node2" class="node">
<title>Node9</title>
<g id="a_node2"><a xlink:href="class_chimera_t_k_1_1_n_d_register_accessor_decorator.html" target="_top" xlink:title="ChimeraTK::NDRegisterAccessor\lDecorator\&lt; UserType, double \&gt;">
<polygon fill="#ffffff" stroke="#000000" points="1724,-39 1724,-69 1899,-69 1899,-39 1724,-39"/>
<text text-anchor="start" x="1732" y="-57" font-family="Helvetica,sans-Serif" font-size="10.00" fill="#000000">ChimeraTK::NDRegisterAccessor</text>
<text text-anchor="middle" x="1811.5" y="-46" font-family="Helvetica,sans-Serif" font-size="10.00" fill="#000000">Decorator&lt; UserType, double &gt;</text>
</a>
</g>
</g>
<!-- Node9&#45;&gt;Node8 -->
<g id="edge1" class="edge">
<title>Node9&#45;&gt;Node8</title>
<path fill="none" stroke="#191970" d="M1909.3688,-54C1918.3252,-54 1927.2913,-54 1935.9723,-54"/>
<polygon fill="#191970" stroke="#191970" points="1909.2766,-50.5001 1899.2765,-54 1909.2765,-57.5001 1909.2766,-50.5001"/>
</g>
<!-- Node10 -->
<g id="node3" class="node">
<title>Node10</title>
<polygon fill="#ffffff" stroke="#bfbfbf" points="1390,-61.5 1390,-102.5 1553,-102.5 1553,-61.5 1390,-61.5"/>
<text text-anchor="start" x="1398" y="-90.5" font-family="Helvetica,sans-Serif" font-size="10.00" fill="#000000">ChimeraTK::detail::</text>
<text text-anchor="start" x="1398" y="-79.5" font-family="Helvetica,sans-Serif" font-size="10.00" fill="#000000">NDRegisterAccessorDecorator</text>
<text text-anchor="middle" x="1471.5" y="-68.5" font-family="Helvetica,sans-Serif" font-size="10.00" fill="#000000">Impl&lt; UserType, double &gt;</text>
</g>
<!-- Node10&#45;&gt;Node9 -->
<g id="edge2" class="edge">
<title>Node10&#45;&gt;Node9</title>
<path fill="none" stroke="#191970" d="M1563.5037,-74.4232C1613.3531,-70.318 1674.6263,-65.2719 1723.7948,-61.2228"/>
<polygon fill="#191970" stroke="#191970" points="1563.0501,-70.9486 1553.3711,-75.2577 1563.6247,-77.925 1563.0501,-70.9486"/>
</g>
<!-- Node11 -->
<g id="node4" class="node">
<title>Node11</title>
<g id="a_node4"><a xlink:href="class_chimera_t_k_1_1_n_d_register_accessor.html" target="_top" xlink:title="N&#45;dimensional register accessor. ">
<polygon fill="#ffffff" stroke="#000000" points="820,-46 820,-76 995,-76 995,-46 820,-46"/>
<text text-anchor="start" x="828" y="-64" font-family="Helvetica,sans-Serif" font-size="10.00" fill="#000000">ChimeraTK::NDRegisterAccessor</text>
<text text-anchor="middle" x="907.5" y="-53" font-family="Helvetica,sans-Serif" font-size="10.00" fill="#000000">&lt; UserType &gt;</text>
</a>
</g>
</g>
<!-- Node11&#45;&gt;Node10 -->
<g id="edge3" class="edge">
<title>Node11&#45;&gt;Node10</title>
<path fill="none" stroke="#191970" d="M1005.3865,-65.8473C1014.3836,-66.2536 1023.3599,-66.6444 1032,-67 1156.7209,-72.1334 1301.4032,-76.8282 1389.6754,-79.5507"/>
<polygon fill="#191970" stroke="#191970" points="1005.3861,-62.3437 995.2366,-65.383 1005.0662,-69.3364 1005.3861,-62.3437"/>
</g>
<!-- Node21 -->
<g id="node14" class="node">
<title>Node21</title>
<g id="a_node14"><a xlink:title="Do not use directly, use NDRegisterAccessorDecorator instead! ">
<polygon fill="#ffffff" stroke="#bfbfbf" points="1032,-16.5 1032,-57.5 1219,-57.5 1219,-16.5 1032,-16.5"/>
<text text-anchor="start" x="1040" y="-45.5" font-family="Helvetica,sans-Serif" font-size="10.00" fill="#000000">ChimeraTK::detail::</text>
<text text-anchor="start" x="1040" y="-34.5" font-family="Helvetica,sans-Serif" font-size="10.00" fill="#000000">NDRegisterAccessorDecorator</text>
<text text-anchor="middle" x="1125.5" y="-23.5" font-family="Helvetica,sans-Serif" font-size="10.00" fill="#000000">Impl&lt; UserType, TargetUserType &gt;</text>
</a>
</g>
</g>
<!-- Node11&#45;&gt;Node21 -->
<g id="edge15" class="edge">
<title>Node11&#45;&gt;Node21</title>
<path fill="none" stroke="#191970" d="M1005.1946,-50.2446C1014.0727,-49.2672 1023.0519,-48.2787 1031.8933,-47.3053"/>
<polygon fill="#191970" stroke="#191970" points="1004.7835,-46.7686 995.2266,-51.342 1005.5496,-53.7266 1004.7835,-46.7686"/>
</g>
<!-- Node12 -->
<g id="node5" class="node">
<title>Node12</title>
<g id="a_node5"><a xlink:href="class_chimera_t_k_1_1_transfer_element.html" target="_top" xlink:title="Base class for register accessors which can be part of a TransferGroup. ">
<polygon fill="#ffffff" stroke="#000000" points="540,-96.5 540,-115.5 696,-115.5 696,-96.5 540,-96.5"/>
<text text-anchor="middle" x="618" y="-103.5" font-family="Helvetica,sans-Serif" font-size="10.00" fill="#000000">ChimeraTK::TransferElement</text>
</a>
</g>
</g>
<!-- Node12&#45;&gt;Node11 -->
<g id="edge4" class="edge">
<title>Node12&#45;&gt;Node11</title>
<path fill="none" stroke="#191970" d="M689.4511,-94.8936C728.8577,-88.7682 778.1104,-81.1124 819.8302,-74.6274"/>
<polygon fill="#191970" stroke="#191970" points="688.7392,-91.4621 679.3955,-96.4567 689.8145,-98.3791 688.7392,-91.4621"/>
</g>
<!-- Node15 -->
<g id="node8" class="node">
<title>Node15</title>
<g id="a_node8"><a xlink:href="class_chimera_t_k_1_1_transfer_future.html" target="_top" xlink:title="Special future returned by TransferElement::readAsync(). ">
<polygon fill="#ffffff" stroke="#000000" points="834.5,-102.5 834.5,-121.5 980.5,-121.5 980.5,-102.5 834.5,-102.5"/>
<text text-anchor="middle" x="907.5" y="-109.5" font-family="Helvetica,sans-Serif" font-size="10.00" fill="#000000">ChimeraTK::TransferFuture</text>
</a>
</g>
</g>
<!-- Node12&#45;&gt;Node15 -->
<g id="edge8" class="edge">
<title>Node12&#45;&gt;Node15</title>
<path fill="none" stroke="#9a32cd" stroke-dasharray="5,2" d="M706.2405,-103.1367C708.8559,-103.0857 711.447,-103.0399 714,-103 753.1063,-102.3891 762.9243,-101.3363 802,-103 812.4685,-103.4457 823.5056,-104.1391 834.3389,-104.9478"/>
<polygon fill="#9a32cd" stroke="#9a32cd" points="705.9826,-99.6413 696.0606,-103.3567 706.134,-106.6397 705.9826,-99.6413"/>
<text text-anchor="middle" x="758" y="-106" font-family="Helvetica,sans-Serif" font-size="10.00" fill="#000000"> _transferElement</text>
</g>
<!-- Node13 -->
<g id="node6" class="node">
<title>Node13</title>
<polygon fill="#ffffff" stroke="#bfbfbf" points="189,-137 189,-167 359,-167 359,-137 189,-137"/>
<text text-anchor="start" x="197" y="-155" font-family="Helvetica,sans-Serif" font-size="10.00" fill="#000000">boost::enable_shared</text>
<text text-anchor="middle" x="274" y="-144" font-family="Helvetica,sans-Serif" font-size="10.00" fill="#000000">_from_this&lt; TransferElement &gt;</text>
</g>
<!-- Node13&#45;&gt;Node12 -->
<g id="edge5" class="edge">
<title>Node13&#45;&gt;Node12</title>
<path fill="none" stroke="#191970" d="M369.0658,-141.5096C415.285,-136.152 471.608,-129.2435 522,-122 535.4634,-120.0647 549.9521,-117.7645 563.49,-115.5201"/>
<polygon fill="#191970" stroke="#191970" points="368.5944,-138.0406 359.0612,-142.6634 369.3964,-144.9946 368.5944,-138.0406"/>
</g>
<!-- Node14 -->
<g id="node7" class="node">
<title>Node14</title>
<g id="a_node7"><a xlink:href="class_chimera_t_k_1_1_transfer_element_i_d.html" target="_top" xlink:title="Simple class holding a unique ID for a TransferElement. ">
<polygon fill="#ffffff" stroke="#000000" points="190.5,-98.5 190.5,-117.5 357.5,-117.5 357.5,-98.5 190.5,-98.5"/>
<text text-anchor="middle" x="274" y="-105.5" font-family="Helvetica,sans-Serif" font-size="10.00" fill="#000000">ChimeraTK::TransferElementID</text>
</a>
</g>
</g>
<!-- Node14&#45;&gt;Node12 -->
<g id="edge6" class="edge">
<title>Node14&#45;&gt;Node12</title>
<path fill="none" stroke="#9a32cd" stroke-dasharray="5,2" d="M367.9678,-107.4537C421.8883,-107.1402 488.7921,-106.7512 539.8209,-106.4545"/>
<polygon fill="#9a32cd" stroke="#9a32cd" points="367.6914,-103.9551 357.712,-107.5133 367.7322,-110.955 367.6914,-103.9551"/>
<text text-anchor="middle" x="449.5" y="-110" font-family="Helvetica,sans-Serif" font-size="10.00" fill="#000000"> _id</text>
</g>
<!-- Node15&#45;&gt;Node12 -->
<g id="edge7" class="edge">
<title>Node15&#45;&gt;Node12</title>
<path fill="none" stroke="#9a32cd" stroke-dasharray="5,2" d="M824.0158,-116.3712C789.8891,-117.4693 750.0357,-117.8718 714,-116 708.143,-115.6958 702.0931,-115.2878 696.0125,-114.8102"/>
<polygon fill="#9a32cd" stroke="#9a32cd" points="824.5401,-119.8551 834.4125,-116.0098 824.2969,-112.8594 824.5401,-119.8551"/>
<text text-anchor="middle" x="758" y="-120" font-family="Helvetica,sans-Serif" font-size="10.00" fill="#000000"> activeFuture</text>
</g>
<!-- Node16 -->
<g id="node9" class="node">
<title>Node16</title>
<g id="a_node9"><a xlink:title="STL class. ">
<polygon fill="#ffffff" stroke="#bfbfbf" points="241.5,-43.5 241.5,-62.5 306.5,-62.5 306.5,-43.5 241.5,-43.5"/>
<text text-anchor="middle" x="274" y="-50.5" font-family="Helvetica,sans-Serif" font-size="10.00" fill="#000000">std::string</text>
</a>
</g>
</g>
<!-- Node16&#45;&gt;Node12 -->
<g id="edge9" class="edge">
<title>Node16&#45;&gt;Node12</title>
<path fill="none" stroke="#9a32cd" stroke-dasharray="5,2" d="M316.6284,-51.8616C366.4751,-51.4206 451.1832,-53.4501 522,-69 549.3903,-75.0144 579.2916,-87.5679 598.3222,-96.3779"/>
<polygon fill="#9a32cd" stroke="#9a32cd" points="316.4932,-48.363 306.5383,-51.9893 316.5818,-55.3624 316.4932,-48.363"/>
<text text-anchor="middle" x="449.5" y="-94" font-family="Helvetica,sans-Serif" font-size="10.00" fill="#000000"> _description</text>
<text text-anchor="middle" x="449.5" y="-83" font-family="Helvetica,sans-Serif" font-size="10.00" fill="#000000">_name</text>
<text text-anchor="middle" x="449.5" y="-72" font-family="Helvetica,sans-Serif" font-size="10.00" fill="#000000">_unit</text>
</g>
<!-- Node17 -->
<g id="node10" class="node">
<title>Node17</title>
<g id="a_node10"><a xlink:title="STL class. ">
<polygon fill="#ffffff" stroke="#bfbfbf" points="0,-39 0,-69 104,-69 104,-39 0,-39"/>
<text text-anchor="start" x="8" y="-57" font-family="Helvetica,sans-Serif" font-size="10.00" fill="#000000">std::basic_string&lt;</text>
<text text-anchor="middle" x="52" y="-46" font-family="Helvetica,sans-Serif" font-size="10.00" fill="#000000"> char &gt;</text>
</a>
</g>
</g>
<!-- Node17&#45;&gt;Node16 -->
<g id="edge10" class="edge">
<title>Node17&#45;&gt;Node16</title>
<path fill="none" stroke="#191970" d="M114.2692,-53.7195C155.4886,-53.5338 207.8939,-53.2978 241.203,-53.1477"/>
<polygon fill="#191970" stroke="#191970" points="114.0332,-50.2204 104.0491,-53.7655 114.0648,-57.2204 114.0332,-50.2204"/>
</g>
<!-- Node18 -->
<g id="node11" class="node">
<title>Node18</title>
<polygon fill="#ffffff" stroke="#bfbfbf" points="552.5,-16 552.5,-46 683.5,-46 683.5,-16 552.5,-16"/>
<text text-anchor="start" x="560.5" y="-34" font-family="Helvetica,sans-Serif" font-size="10.00" fill="#000000">std::vector&lt; std::vector</text>
<text text-anchor="middle" x="618" y="-23" font-family="Helvetica,sans-Serif" font-size="10.00" fill="#000000">&lt; UserType &gt; &gt;</text>
</g>
<!-- Node18&#45;&gt;Node11 -->
<g id="edge11" class="edge">
<title>Node18&#45;&gt;Node11</title>
<path fill="none" stroke="#9a32cd" stroke-dasharray="5,2" d="M693.8151,-34.8303C727.0744,-36.9042 766.5396,-39.8986 802,-44 807.8053,-44.6714 813.7792,-45.435 819.7924,-46.2579"/>
<polygon fill="#9a32cd" stroke="#9a32cd" points="693.8977,-31.329 683.7038,-34.2161 693.4732,-38.3161 693.8977,-31.329"/>
<text text-anchor="middle" x="758" y="-47" font-family="Helvetica,sans-Serif" font-size="10.00" fill="#000000"> buffer_2D</text>
</g>
<!-- Node19 -->
<g id="node12" class="node">
<title>Node19</title>
<g id="a_node12"><a xlink:title="STL class. ">
<polygon fill="#ffffff" stroke="#bfbfbf" points="225.5,-1.5 225.5,-20.5 322.5,-20.5 322.5,-1.5 225.5,-1.5"/>
<text text-anchor="middle" x="274" y="-8.5" font-family="Helvetica,sans-Serif" font-size="10.00" fill="#000000">std::vector&lt; T &gt;</text>
</a>
</g>
</g>
<!-- Node19&#45;&gt;Node18 -->
<g id="edge12" class="edge">
<title>Node19&#45;&gt;Node18</title>
<path fill="none" stroke="#ffa500" stroke-dasharray="5,2" d="M332.5871,-11.3707C382.8935,-12.0522 457.3135,-13.9246 522,-19 531.8795,-19.7752 542.3043,-20.8304 552.4983,-21.9955"/>
<polygon fill="#ffa500" stroke="#ffa500" points="332.5868,-7.8705 322.5441,-11.2461 332.4999,-14.87 332.5868,-7.8705"/>
<text text-anchor="middle" x="449.5" y="-22" font-family="Helvetica,sans-Serif" font-size="10.00" fill="#000000"> &lt; std::vector&lt; UserType &gt; &gt;</text>
</g>
<!-- Node20 -->
<g id="node13" class="node">
<title>Node20</title>
<polygon fill="#ffffff" stroke="#bfbfbf" points="37.5,-.5 37.5,-19.5 66.5,-19.5 66.5,-.5 37.5,-.5"/>
<text text-anchor="middle" x="52" y="-7.5" font-family="Helvetica,sans-Serif" font-size="10.00" fill="#000000">T</text>
</g>
<!-- Node20&#45;&gt;Node19 -->
<g id="edge13" class="edge">
<title>Node20&#45;&gt;Node19</title>
<path fill="none" stroke="#9a32cd" stroke-dasharray="5,2" d="M76.5827,-10.1107C112.2751,-10.2715 179.1918,-10.5729 225.1438,-10.7799"/>
<polygon fill="#9a32cd" stroke="#9a32cd" points="76.5817,-6.6108 66.566,-10.0656 76.5501,-13.6107 76.5817,-6.6108"/>
<text text-anchor="middle" x="146.5" y="-14" font-family="Helvetica,sans-Serif" font-size="10.00" fill="#000000"> elements</text>
</g>
<!-- Node21&#45;&gt;Node10 -->
<g id="edge14" class="edge">
<title>Node21&#45;&gt;Node10</title>
<path fill="none" stroke="#ffa500" stroke-dasharray="5,2" d="M1229.4817,-46.984C1266.6226,-50.889 1308.7384,-55.705 1347,-61 1360.8963,-62.9231 1375.6257,-65.1972 1389.9031,-67.5265"/>
<polygon fill="#ffa500" stroke="#ffa500" points="1229.4542,-43.4623 1219.1453,-45.9072 1228.7288,-50.4246 1229.4542,-43.4623"/>
<text text-anchor="middle" x="1292" y="-64" font-family="Helvetica,sans-Serif" font-size="10.00" fill="#000000"> &lt; UserType, double &gt;</text>
</g>
<!-- Node22 -->
<g id="node15" class="node">
<title>Node22</title>
<g id="a_node15"><a xlink:href="class_chimera_t_k_1_1_n_d_register_accessor_decorator.html" target="_top" xlink:title="Base class for decorators of the NDRegisterAccessor. ">
<polygon fill="#ffffff" stroke="#000000" points="1365,-12 1365,-42 1578,-42 1578,-12 1365,-12"/>
<text text-anchor="start" x="1373" y="-30" font-family="Helvetica,sans-Serif" font-size="10.00" fill="#000000">ChimeraTK::NDRegisterAccessor</text>
<text text-anchor="middle" x="1471.5" y="-19" font-family="Helvetica,sans-Serif" font-size="10.00" fill="#000000">Decorator&lt; UserType, TargetUserType &gt;</text>
</a>
</g>
</g>
<!-- Node21&#45;&gt;Node22 -->
<g id="edge17" class="edge">
<title>Node21&#45;&gt;Node22</title>
<path fill="none" stroke="#191970" d="M1229.3034,-33.9999C1272.1651,-32.7611 1321.8117,-31.3263 1364.9557,-30.0793"/>
<polygon fill="#191970" stroke="#191970" points="1229.0273,-30.5063 1219.1326,-34.2939 1229.2296,-37.5034 1229.0273,-30.5063"/>
</g>
<!-- Node22&#45;&gt;Node9 -->
<g id="edge16" class="edge">
<title>Node22&#45;&gt;Node9</title>
<path fill="none" stroke="#ffa500" stroke-dasharray="5,2" d="M1588.1299,-36.2618C1632.5726,-39.7911 1682.4309,-43.7504 1723.749,-47.0315"/>
<polygon fill="#ffa500" stroke="#ffa500" points="1588.391,-32.7716 1578.1453,-35.4689 1587.8368,-39.7496 1588.391,-32.7716"/>
<text text-anchor="middle" x="1651" y="-48" font-family="Helvetica,sans-Serif" font-size="10.00" fill="#000000"> &lt; UserType, double &gt;</text>
</g>
</g>
</svg>
        <g id="navigator" transform="translate(0 0)" fill="#404254">
                <rect fill="#f2f5e9" fill-opacity="0.5" stroke="#606060" stroke-width=".5" x="0" y="0" width="60" height="60"/>
                <use id="zoomplus" xlink:href="#zoomPlus" x="17" y="9" onmousedown="handleZoom(evt,'in')"/>
                <use id="zoomminus" xlink:href="#zoomMin" x="42" y="9" onmousedown="handleZoom(evt,'out')"/>
                <use id="reset" xlink:href="#resetDef" x="30" y="36" onmousedown="handleReset()"/>
                <g id="arrowUp" xlink:href="#dirArrow" transform="translate(30 24)" onmousedown="handlePan(0,-1)">
                  <use xlink:href="#rim" fill="#404040">
                        <set attributeName="fill" to="#808080" begin="arrowUp.mouseover" end="arrowUp.mouseout"/>
                  </use>
                  <path fill="none" stroke="white" stroke-width="1.5" d="M0,-3.0v7 M-2.5,-0.5L0,-3.0L2.5,-0.5"/>
                </g>
                <g id="arrowRight" xlink:href="#dirArrow" transform="rotate(90) translate(36 -43)" onmousedown="handlePan(1,0)">
                  <use xlink:href="#rim" fill="#404040">
                        <set attributeName="fill" to="#808080" begin="arrowRight.mouseover" end="arrowRight.mouseout"/>
                  </use>
                  <path fill="none" stroke="white" stroke-width="1.5" d="M0,-3.0v7 M-2.5,-0.5L0,-3.0L2.5,-0.5"/>
                </g>
                <g id="arrowDown" xlink:href="#dirArrow" transform="rotate(180) translate(-30 -48)" onmousedown="handlePan(0,1)">
                  <use xlink:href="#rim" fill="#404040">
                        <set attributeName="fill" to="#808080" begin="arrowDown.mouseover" end="arrowDown.mouseout"/>
                  </use>
                  <path fill="none" stroke="white" stroke-width="1.5" d="M0,-3.0v7 M-2.5,-0.5L0,-3.0L2.5,-0.5"/>
                </g>
                <g id="arrowLeft" xlink:href="#dirArrow" transform="rotate(270) translate(-36 17)" onmousedown="handlePan(-1,0)">
                  <use xlink:href="#rim" fill="#404040">
                        <set attributeName="fill" to="#808080" begin="arrowLeft.mouseover" end="arrowLeft.mouseout"/>
                  </use>
                  <path fill="none" stroke="white" stroke-width="1.5" d="M0,-3.0v7 M-2.5,-0.5L0,-3.0L2.5,-0.5"/>
                </g>
        </g>
        <svg viewBox="0 0 15 15" width="100%" height="30px" preserveAspectRatio="xMaxYMin meet">
         <g id="arrow_out" transform="scale(0.3 0.3)">
          <a xlink:href="struct_chimera_t_k_1_1_l_n_m_backend_1_1_multiplier_plugin_decorator__coll__graph_org.svg" target="_base">
           <rect id="button" ry="5" rx="5" y="6" x="6" height="38" width="38"
                fill="#f2f5e9" fill-opacity="0.5" stroke="#606060" stroke-width="1.0"/>
           <path id="arrow"
             d="M 11.500037,31.436501 C 11.940474,20.09759 22.043105,11.32322 32.158766,21.979434 L 37.068811,17.246167 C 37.068811,17.246167 37.088388,32 37.088388,32 L 22.160133,31.978069 C 22.160133,31.978069 26.997745,27.140456 26.997745,27.140456 C 18.528582,18.264221 13.291696,25.230495 11.500037,31.436501 z"
             style="fill:#404040;"/>
          </a>
         </g>
        </svg>
</svg>
